<svg xmlns="http://www.w3.org/2000/svg" xmlns:xlink="http://www.w3.org/1999/xlink" width="396" zoomAndPan="magnify" viewBox="0 0 297.12 419.249996" height="559" preserveAspectRatio="xMidYMid meet" version="1.0"><defs><g/><clipPath id="101aaaa0bb"><path d="M 0 0.246094 L 296.238281 0.246094 L 296.238281 417.367188 L 0 417.367188 Z M 0 0.246094 " clip-rule="nonzero"/></clipPath><clipPath id="773944e615"><path d="M 30.125 42.132812 L 265.921875 42.132812 L 265.921875 375.683594 L 30.125 375.683594 Z M 30.125 42.132812 " clip-rule="nonzero"/></clipPath><clipPath id="645f1842c5"><path d="M 56 61.074219 L 240 61.074219 L 240 375.96875 L 56 375.96875 Z M 56 61.074219 " clip-rule="nonzero"/></clipPath></defs><g clip-path="url(#101aaaa0bb)"><path fill="#ffffff" d="M 0 0.246094 L 296.238281 0.246094 L 296.238281 417.367188 L 0 417.367188 Z M 0 0.246094 " fill-opacity="1" fill-rule="nonzero"/><path fill="#ffffff" d="M 0 0.246094 L 296.238281 0.246094 L 296.238281 417.367188 L 0 417.367188 Z M 0 0.246094 " fill-opacity="1" fill-rule="nonzero"/></g><g clip-path="url(#773944e615)"><path stroke-linecap="butt" transform="matrix(0.746195, 0, 0, 0.746195, 30.125007, 42.134083)" fill="none" stroke-linejoin="miter" d="M -0.00000963595 -0.0017029 L 316.108775 -0.0017029 L 316.108775 447.09448 L -0.00000963595 447.09448 Z M -0.00000963595 -0.0017029 " stroke="#000000" stroke-width="6" stroke-opacity="1" stroke-miterlimit="4"/></g><g clip-path="url(#645f1842c5)"><path fill="#000000" d="M 140.28125 61.296875 L 140.179688 63.269531 C 140.132812 64.359375 140.042969 67.632812 139.976562 70.5625 L 139.875 75.878906 L 136.890625 72.789062 C 133.4375 69.195312 132.976562 69.050781 132.992188 71.523438 C 133 72.527344 134.40625 74.878906 136.105469 76.761719 C 138.824219 79.78125 139.207031 80.730469 139.367188 84.738281 C 139.492188 87.761719 139.253906 89.113281 138.683594 88.761719 C 138.214844 88.472656 137.851562 87.707031 137.851562 87.066406 C 137.851562 86.421875 137.484375 85.902344 137.039062 85.902344 C 136.59375 85.902344 136.230469 84.488281 136.230469 82.761719 C 136.230469 79.167969 134.191406 76.65625 132.914062 78.660156 C 132.507812 79.300781 132.339844 80.253906 132.535156 80.789062 C 132.96875 81.96875 130.636719 81.199219 129.070312 79.648438 C 128.480469 79.066406 127.53125 78.609375 126.945312 78.609375 C 124.753906 78.609375 125.113281 80.894531 127.777344 83.953125 C 130.949219 87.585938 131.121094 88.3125 129.019531 88.863281 C 127.984375 89.132812 127.632812 89.761719 127.90625 90.8125 C 128.359375 92.554688 130.535156 92.867188 132.003906 91.394531 C 133.105469 90.292969 133.136719 90.347656 133.320312 93.394531 C 133.476562 95.933594 133.335938 95.992188 130.5625 94.40625 C 127.847656 92.855469 127.324219 92.894531 127.324219 94.734375 C 127.324219 95.59375 128.507812 97.222656 129.957031 98.355469 C 131.929688 99.902344 132.148438 100.3125 130.867188 99.976562 C 129.75 99.683594 128.984375 99.972656 128.664062 100.8125 C 127.96875 102.628906 127.402344 102.476562 122.007812 98.964844 C 119.363281 97.238281 116.796875 95.96875 116.316406 96.152344 C 114.628906 96.800781 115.699219 99.890625 118.0625 101.191406 L 120.441406 102.480469 L 118.265625 102.734375 C 117.078125 102.875 115.914062 103.496094 115.683594 104.101562 C 115.230469 105.285156 117.253906 106.445312 118.46875 105.695312 C 118.871094 105.445312 119.226562 105.628906 119.226562 106.101562 C 119.226562 106.574219 119.863281 106.976562 120.644531 107.011719 C 121.671875 107.058594 121.746094 107.191406 120.921875 107.519531 C 120.0625 107.859375 120.230469 108.316406 121.65625 109.390625 L 123.554688 110.808594 L 120.164062 111.390625 C 116.675781 111.980469 115.878906 113.285156 117.960938 115.011719 C 118.746094 115.664062 119.574219 115.726562 120.492188 115.214844 C 122.019531 114.359375 124.894531 114.835938 124.894531 115.949219 C 124.894531 116.339844 125.625 116.683594 126.515625 116.683594 C 127.40625 116.683594 128.132812 116.316406 128.132812 115.871094 C 128.132812 115.425781 128.953125 115.074219 129.957031 115.085938 L 131.777344 115.113281 L 129.777344 116.757812 C 128.226562 118.050781 128.03125 118.554688 128.890625 119.085938 C 130.109375 119.839844 132.207031 119.289062 133.246094 117.949219 C 133.621094 117.460938 133.71875 118.070312 133.449219 119.316406 C 133.042969 121.167969 133.222656 121.542969 134.585938 121.542969 C 135.484375 121.542969 136.246094 121.085938 136.28125 120.53125 C 136.324219 119.839844 136.480469 119.882812 136.789062 120.65625 C 137.117188 121.484375 137.523438 121.257812 138.28125 119.847656 L 139.316406 117.898438 L 140.332031 120.125 C 140.886719 121.347656 141.085938 122.609375 140.761719 122.933594 C 140.433594 123.261719 137.53125 123.65625 134.308594 123.820312 C 128.910156 124.09375 128.128906 123.929688 124.566406 121.667969 C 121.015625 119.417969 118.417969 119.042969 118.417969 120.78125 C 118.417969 121.167969 119.417969 122.0625 120.644531 122.757812 L 122.871094 124.023438 L 120.035156 123.492188 C 117.234375 122.976562 112.515625 120.546875 110.445312 118.53125 C 109.855469 117.957031 108.671875 117.492188 107.8125 117.492188 C 106.164062 117.492188 105.734375 119.058594 107.027344 120.351562 C 107.515625 120.839844 106.269531 121.230469 103.636719 121.390625 C 101.347656 121.53125 99.164062 121.828125 98.804688 122.046875 C 96.144531 123.695312 102.703125 126.683594 107.460938 125.996094 L 110.722656 125.542969 L 108.445312 126.832031 C 107.066406 127.617188 106.257812 128.664062 106.421875 129.492188 C 106.816406 131.472656 110.316406 130.808594 112.546875 128.328125 C 113.585938 127.171875 114.988281 126.414062 115.785156 126.605469 C 116.902344 126.871094 116.757812 127.140625 115.050781 127.84375 C 112.292969 128.984375 111.457031 130.316406 113.128906 130.957031 C 113.851562 131.234375 114.257812 131.929688 114.039062 132.503906 C 113.820312 133.078125 114.183594 133.75 114.824219 133.996094 C 115.464844 134.242188 115.988281 134.121094 115.988281 133.742188 C 115.988281 133.082031 118.605469 131.945312 120.566406 131.742188 C 121.085938 131.691406 122.269531 130.941406 123.199219 130.097656 C 124.128906 129.253906 124.894531 128.839844 124.894531 129.160156 C 124.894531 130.003906 123.125 131.65625 121.023438 132.78125 C 120.03125 133.3125 119.226562 134.109375 119.226562 134.554688 C 119.226562 136.082031 121.71875 136.320312 123.25 134.933594 C 124.710938 133.609375 124.761719 133.621094 124.339844 135.238281 C 123.71875 137.601562 125.378906 137.367188 127.019531 134.855469 C 128.046875 133.289062 128.550781 133.042969 129.070312 133.84375 C 129.632812 134.714844 129.863281 134.707031 130.4375 133.820312 C 130.820312 133.222656 131.824219 132.828125 132.664062 132.933594 C 135.929688 133.347656 140.226562 130.425781 140.355469 127.695312 C 140.425781 126.21875 140.507812 126.261719 141.015625 128.023438 C 141.496094 129.695312 141.097656 130.503906 138.710938 132.65625 C 137.121094 134.085938 133.570312 136.441406 130.816406 137.894531 L 125.804688 140.527344 L 121.910156 138.578125 C 119.765625 137.507812 117.554688 136.558594 117 136.453125 C 115.554688 136.175781 115.75 137.742188 117.40625 139.691406 C 118.679688 141.195312 118.671875 141.234375 117.429688 140.273438 C 116.667969 139.6875 115.738281 139.402344 115.355469 139.640625 C 114.96875 139.878906 113.636719 139.554688 112.394531 138.90625 C 109.410156 137.359375 108.480469 137.4375 109.027344 139.160156 C 109.390625 140.304688 109.011719 140.558594 107.054688 140.503906 C 105.722656 140.460938 104.441406 140.214844 104.195312 139.96875 C 103.210938 138.984375 100.601562 140.4375 100.601562 141.96875 C 100.601562 143.214844 100.996094 143.5 102.296875 143.160156 C 103.921875 142.734375 103.933594 142.773438 102.574219 144.273438 C 101.109375 145.894531 101.351562 146.117188 104.421875 145.867188 C 105.835938 145.753906 106.128906 146.027344 105.714844 147.109375 C 105.277344 148.25 105.554688 148.441406 107.230469 148.121094 C 108.910156 147.800781 109.195312 147.992188 108.875 149.210938 C 108.445312 150.863281 108.957031 151.042969 110.976562 149.96875 C 112.960938 148.914062 115.46875 152.265625 113.835938 153.792969 C 112.921875 154.644531 112.644531 154.609375 112.292969 153.691406 C 112.050781 153.058594 110.617188 152.535156 109.027344 152.476562 C 107.472656 152.417969 106.382812 152.691406 106.625 153.082031 C 106.867188 153.472656 106.351562 153.59375 105.460938 153.359375 C 103.414062 152.828125 103.351562 154.054688 105.359375 155.308594 C 106.421875 155.972656 106.75 156.867188 106.472656 158.324219 C 105.984375 160.886719 105.859375 160.90625 102.878906 158.398438 C 101.554688 157.285156 99.945312 156.375 99.3125 156.375 C 97.953125 156.375 97.886719 156.769531 98.933594 158.726562 C 99.78125 160.316406 99.25 160.355469 93.113281 159.183594 C 91.113281 158.800781 90.074219 158.90625 90.074219 159.488281 C 90.074219 160.535156 94.28125 162.855469 96.199219 162.855469 C 97.304688 162.855469 97.371094 163.058594 96.554688 164.042969 C 95.75 165.011719 95.777344 165.347656 96.730469 165.714844 C 97.382812 165.964844 98.253906 166.09375 98.652344 166.019531 C 100.34375 165.703125 101.398438 166.160156 101.210938 167.105469 C 101.085938 167.726562 101.867188 168.097656 103.234375 168.066406 C 104.949219 168.035156 105.464844 168.40625 105.484375 169.6875 C 105.511719 171.289062 105.574219 171.273438 107.105469 169.433594 C 108.371094 167.917969 108.699219 167.804688 108.699219 168.878906 C 108.699219 169.621094 109.0625 170.015625 109.507812 169.738281 C 109.957031 169.464844 110.664062 170.179688 111.105469 171.332031 C 111.542969 172.484375 112.453125 173.632812 113.128906 173.890625 C 113.804688 174.148438 114.367188 174.863281 114.367188 175.484375 C 114.367188 176.105469 114.953125 176.625 115.683594 176.625 C 116.414062 176.625 117.472656 177.242188 118.039062 178.015625 C 119.007812 179.34375 119.1875 179.332031 120.972656 177.8125 L 122.871094 176.21875 L 121.429688 177.914062 C 120.554688 178.949219 117.855469 180.128906 114.445312 180.953125 C 107.3125 182.675781 105.589844 182.621094 102.675781 180.699219 C 99.980469 178.921875 98.664062 179.25 99.386719 181.535156 C 99.796875 182.816406 99.484375 183.105469 97.566406 183.105469 C 96.289062 183.105469 94.875 182.742188 94.429688 182.292969 C 93.882812 181.75 93.097656 181.855469 92.050781 182.625 C 90.546875 183.722656 90.582031 183.824219 93.085938 185.253906 C 94.976562 186.335938 95.574219 187.152344 95.238281 188.21875 C 94.9375 189.164062 95.171875 189.628906 95.871094 189.535156 C 98.214844 189.214844 99.125 189.613281 98.679688 190.773438 C 97.902344 192.800781 100.859375 193.765625 103.109375 192.214844 C 104.582031 191.199219 104.800781 191.152344 104.070312 192.066406 C 102.703125 193.769531 104.015625 195.550781 106.144531 194.875 C 109.210938 193.902344 110.039062 195.457031 107.03125 196.546875 C 103.167969 197.941406 99.3125 197.914062 97.871094 196.46875 C 96.273438 194.871094 93.792969 194.851562 94.402344 196.445312 C 94.78125 197.429688 94.21875 197.5625 91.242188 197.152344 C 86.882812 196.554688 86.339844 197.902344 90.355469 199.355469 C 92.304688 200.058594 92.992188 200.746094 92.734375 201.734375 C 92.300781 203.386719 94.859375 204.308594 96.832031 203.203125 C 97.90625 202.601562 98.175781 202.835938 98.171875 204.441406 C 98.171875 206.085938 98.46875 206.367188 99.917969 205.988281 C 101.351562 205.613281 101.558594 205.773438 101.109375 206.949219 C 100.667969 208.101562 100.894531 208.328125 102.199219 207.988281 C 103.09375 207.75 103.84375 207.886719 103.84375 208.289062 C 103.84375 209.710938 105.554688 209 107.714844 206.695312 C 110.3125 203.921875 111.851562 203.308594 113.761719 204.289062 C 115.980469 205.433594 115.425781 206.355469 112.75 205.960938 C 109.960938 205.550781 109.550781 206.785156 111.558594 209.65625 C 112.734375 211.335938 112.730469 211.453125 111.230469 211.453125 C 110.347656 211.453125 109.066406 212 108.398438 212.667969 C 107.730469 213.335938 106.640625 213.882812 105.96875 213.882812 C 105.292969 213.882812 104.53125 214.226562 104.273438 214.644531 C 104.015625 215.0625 102.382812 215.375 100.652344 215.351562 C 98.921875 215.328125 97.035156 215.601562 96.453125 215.960938 C 95.871094 216.320312 94.214844 216.539062 92.785156 216.441406 C 90.628906 216.296875 90.140625 216.585938 89.925781 218.113281 C 89.734375 219.4375 89.101562 219.972656 87.648438 220.035156 C 86.535156 220.082031 85.257812 220.226562 84.8125 220.339844 C 84.367188 220.453125 83.367188 220.46875 82.585938 220.390625 C 81.808594 220.3125 81.167969 220.570312 81.167969 220.945312 C 81.167969 222.019531 85.648438 224.414062 87.671875 224.414062 C 89.445312 224.414062 89.476562 224.460938 88.050781 226.035156 C 86.621094 227.617188 86.636719 227.65625 88.710938 227.65625 C 90.296875 227.65625 90.714844 227.957031 90.355469 228.894531 C 89.960938 229.917969 90.304688 230.050781 92.203125 229.605469 C 93.484375 229.300781 94.710938 229.066406 94.933594 229.070312 C 97.460938 229.121094 98.046875 229.398438 97.667969 230.386719 C 96.820312 232.59375 98.917969 232.53125 100.121094 230.3125 C 101.265625 228.199219 101.332031 228.171875 101.363281 229.882812 C 101.378906 230.882812 101.6875 231.730469 102.019531 231.78125 C 106.96875 232.503906 107.777344 232.265625 108.777344 229.855469 L 109.789062 227.425781 L 110.496094 229.351562 L 111.207031 231.300781 L 112.773438 229.273438 C 114.328125 227.253906 114.324219 227.25 114.34375 229.070312 C 114.367188 231.53125 115.8125 231.390625 116.445312 228.871094 C 116.722656 227.757812 117.3125 226.84375 117.734375 226.84375 C 118.15625 226.84375 118.242188 227.238281 117.9375 227.730469 C 117.550781 228.355469 118.175781 228.464844 120.011719 228.058594 C 121.960938 227.632812 122.566406 227.730469 122.3125 228.488281 C 121.816406 229.984375 116.746094 232.515625 114.242188 232.515625 C 113.058594 232.515625 111.925781 232.96875 111.710938 233.527344 C 111.472656 234.148438 109.890625 234.503906 107.585938 234.464844 C 105.527344 234.429688 103.84375 234.683594 103.84375 235.019531 C 103.84375 236.578125 106.652344 238.265625 108.878906 238.03125 C 110.199219 237.894531 111.34375 238.101562 111.40625 238.515625 C 111.625 239.863281 106.875 240.621094 95.339844 241.070312 C 82.339844 241.578125 77.121094 242.144531 77.121094 243.019531 C 77.121094 243.355469 76.207031 243.460938 75.09375 243.246094 C 73.945312 243.027344 73.070312 243.230469 73.070312 243.726562 C 73.070312 244.863281 75.714844 246.285156 77.855469 246.285156 C 78.773438 246.285156 79.550781 246.648438 79.550781 247.09375 C 79.550781 247.539062 79.152344 247.90625 78.6875 247.90625 C 78.226562 247.90625 77.039062 248.65625 76.058594 249.601562 L 74.285156 251.324219 L 76.917969 250.96875 C 78.660156 250.730469 79.550781 250.941406 79.550781 251.601562 C 79.550781 252.199219 80.195312 252.4375 81.167969 252.183594 C 82.074219 251.945312 82.789062 252.160156 82.789062 252.664062 C 82.789062 253.972656 84.847656 253.78125 86.027344 252.359375 C 86.582031 251.691406 87.390625 251.144531 87.847656 251.144531 C 88.308594 251.144531 88.105469 251.796875 87.367188 252.613281 C 86.632812 253.429688 86.027344 254.339844 86.027344 254.636719 C 86.027344 255.496094 89.117188 255.285156 89.671875 254.386719 C 90.472656 253.085938 91.546875 253.445312 92.101562 255.195312 C 92.75 257.246094 93.675781 257.230469 96.605469 255.144531 L 98.957031 253.472656 L 98.453125 255.953125 C 97.84375 259.003906 99.3125 259.25 102.601562 256.664062 C 104.761719 254.964844 104.824219 254.964844 103.96875 256.5625 C 102.960938 258.441406 103.445312 259.335938 105.132812 258.6875 C 105.761719 258.445312 106.824219 258.695312 107.484375 259.246094 C 108.320312 259.941406 108.699219 259.976562 108.699219 259.347656 C 108.699219 258.847656 109.246094 258.433594 109.914062 258.433594 C 110.582031 258.433594 111.128906 258.9375 111.128906 259.574219 C 111.128906 260.359375 111.847656 260.65625 113.355469 260.484375 C 121.785156 259.53125 110.882812 264.433594 101.082031 266.003906 C 94.675781 267.03125 94.035156 266.992188 91.921875 265.597656 C 90.675781 264.777344 89.214844 264.109375 88.660156 264.105469 C 86.984375 264.097656 87.519531 265.71875 89.46875 266.5625 C 90.808594 267.136719 90.324219 267.199219 87.648438 266.789062 C 85.644531 266.480469 83.09375 266.277344 81.980469 266.332031 C 80.867188 266.386719 78.148438 265.90625 75.957031 265.269531 C 73.765625 264.632812 71.851562 264.214844 71.707031 264.359375 C 70.859375 265.203125 76.042969 268.542969 78.941406 269.015625 L 82.382812 269.574219 L 79.347656 269.675781 C 77.234375 269.746094 76.3125 270.144531 76.3125 270.992188 C 76.3125 271.660156 76.949219 272.265625 77.726562 272.332031 C 78.507812 272.398438 79.507812 272.53125 79.953125 272.636719 C 80.398438 272.738281 81.285156 272.863281 81.929688 272.914062 C 82.789062 272.984375 82.679688 273.308594 81.523438 274.15625 C 79.523438 275.617188 80.472656 276.671875 82.714844 275.472656 C 84.105469 274.722656 84.410156 274.800781 84.410156 275.902344 C 84.410156 276.941406 84.988281 277.152344 87.039062 276.863281 C 88.488281 276.660156 90.402344 276.226562 91.292969 275.902344 C 92.886719 275.316406 92.867188 275.320312 91.316406 276.585938 C 89.738281 277.871094 90.078125 278.167969 92.707031 277.902344 C 93.515625 277.820312 94.125 278.320312 94.125 279.039062 C 94.125 280.773438 94.78125 280.628906 96.707031 278.484375 L 98.351562 276.660156 L 97.035156 278.863281 C 96.320312 280.070312 95.746094 281.429688 95.746094 281.898438 C 95.746094 283.152344 99.71875 282.226562 101.617188 280.535156 C 103.207031 279.113281 103.21875 279.140625 102.601562 281.117188 C 101.746094 283.863281 100.753906 284.441406 93.289062 286.683594 C 87.09375 288.546875 86.71875 288.570312 83.371094 287.292969 C 79.722656 285.898438 74.691406 285.5 74.691406 286.609375 C 74.691406 286.964844 75.113281 287.714844 75.652344 288.253906 C 76.308594 288.910156 75.226562 288.808594 72.335938 287.949219 C 69.972656 287.246094 67.484375 286.875 66.796875 287.140625 C 65.738281 287.546875 65.832031 287.949219 67.402344 289.621094 L 69.25 291.59375 L 66.519531 290.808594 C 62.996094 289.800781 58.714844 289.800781 58.089844 290.808594 C 57.449219 291.851562 62.863281 294.070312 66.0625 294.074219 L 68.617188 294.074219 L 66.238281 295.972656 C 63.890625 297.855469 63.914062 300.320312 66.265625 299.417969 C 67.046875 299.117188 67.402344 299.605469 67.402344 300.984375 C 67.402344 302.421875 67.828125 302.984375 68.945312 302.984375 C 69.804688 302.984375 71.074219 303.542969 71.753906 304.226562 C 72.785156 305.257812 73.269531 305.285156 74.640625 304.429688 C 75.546875 303.863281 76.3125 303.121094 76.3125 302.785156 C 76.3125 302.445312 76.949219 302.8125 77.753906 303.59375 C 79.304688 305.097656 79.746094 307.035156 78.539062 307.035156 C 78.140625 307.035156 78.082031 307.429688 78.386719 307.921875 C 78.769531 308.546875 78.171875 308.664062 76.410156 308.277344 C 74.796875 307.921875 73.882812 308.023438 73.882812 308.582031 C 73.882812 309.078125 72.304688 309.464844 70.238281 309.464844 C 66.441406 309.464844 65.726562 310.167969 67.808594 311.894531 C 68.621094 312.570312 70.332031 312.75 72.871094 312.429688 L 76.714844 311.945312 L 73.703125 313.542969 C 71.613281 314.652344 70.839844 315.527344 71.171875 316.402344 C 71.476562 317.1875 72.148438 317.449219 72.96875 317.109375 C 73.691406 316.8125 74.832031 316.484375 75.5 316.375 C 76.167969 316.269531 76.261719 316.335938 75.703125 316.527344 C 73.652344 317.234375 74.710938 318.535156 76.917969 318.023438 C 78.511719 317.652344 78.808594 317.734375 77.957031 318.300781 C 75.8125 319.722656 77.714844 320.136719 80.285156 318.808594 C 81.660156 318.09375 82.789062 317.855469 82.789062 318.273438 C 82.789062 318.695312 82.332031 319.214844 81.777344 319.414062 C 81.21875 319.613281 81.046875 320.078125 81.398438 320.453125 C 81.746094 320.828125 83.070312 320.734375 84.359375 320.25 C 86.273438 319.527344 86.636719 319.578125 86.28125 320.503906 C 85.96875 321.316406 86.257812 321.46875 87.34375 321.085938 C 88.605469 320.636719 88.6875 320.742188 87.800781 321.691406 C 86.96875 322.578125 84.183594 322.789062 75.046875 322.652344 C 67.976562 322.550781 63.355469 322.789062 63.355469 323.261719 C 63.355469 323.691406 63.917969 324.046875 64.621094 324.046875 C 65.320312 324.046875 66.398438 324.5625 67.023438 325.183594 C 68 326.160156 67.976562 326.390625 66.898438 326.804688 C 66.203125 327.070312 64.488281 327.28125 63.074219 327.285156 C 60.101562 327.300781 58.058594 328.355469 58.773438 329.515625 C 59.65625 330.945312 63.675781 331.203125 66.996094 330.046875 C 71.425781 328.5 71.667969 328.589844 69.375 330.882812 C 66.519531 333.738281 66.730469 335.460938 69.808594 334.578125 C 71.128906 334.199219 72.585938 333.644531 73.046875 333.363281 C 73.503906 333.078125 73.914062 333.515625 73.980469 334.324219 C 74.050781 335.128906 74.160156 336.203125 74.210938 336.726562 C 74.257812 337.253906 74.542969 337.949219 74.84375 338.246094 C 75.480469 338.886719 80.359375 336.152344 80.359375 335.160156 C 80.359375 334.78125 80.691406 334.691406 81.117188 334.957031 C 81.617188 335.265625 81.617188 336.175781 81.117188 337.488281 C 80.691406 338.613281 80.359375 339.902344 80.359375 340.347656 C 80.359375 341.417969 84.183594 338.648438 88.027344 334.804688 C 90.890625 331.9375 91.300781 332.429688 88.632812 335.539062 C 87.980469 336.300781 87.6875 337.546875 87.976562 338.296875 C 88.441406 339.511719 88.707031 339.441406 90.554688 337.714844 L 92.65625 335.792969 L 92.378906 337.816406 C 92.121094 339.675781 91.570312 339.921875 85.621094 340.90625 C 81.441406 341.597656 78.707031 341.703125 77.902344 341.207031 C 75.875 339.953125 71.453125 339.210938 71.453125 340.121094 C 71.453125 340.570312 72.089844 341.109375 72.867188 341.308594 C 73.648438 341.507812 72.464844 341.503906 70.238281 341.308594 C 66.980469 341.023438 66.386719 341.144531 67.199219 341.96875 C 68.75 343.53125 68.402344 344.113281 66.1875 343.6875 C 63.570312 343.1875 59.898438 344.125 60.519531 345.132812 C 60.785156 345.5625 61.835938 345.917969 62.847656 345.917969 C 66.308594 345.917969 65.824219 347.03125 61.609375 348.726562 C 54.421875 351.617188 55.992188 353.765625 63.378906 351.15625 C 67.117188 349.835938 68.582031 350.066406 65.832031 351.535156 C 64.90625 352.035156 64.164062 353.011719 64.164062 353.714844 C 64.164062 354.691406 64.652344 354.863281 66.316406 354.445312 C 68.226562 353.96875 68.367188 354.046875 67.429688 355.179688 C 65.246094 357.8125 67.558594 357.816406 71.171875 355.179688 C 72.859375 353.949219 72.929688 353.960938 72.464844 355.761719 C 72.027344 357.453125 72.117188 357.535156 73.347656 356.523438 C 74.566406 355.523438 74.648438 355.570312 74.160156 356.929688 C 73.675781 358.269531 73.867188 358.226562 75.625 356.625 C 77.691406 354.746094 78.957031 354.90625 78.183594 356.929688 C 77.5625 358.539062 79.503906 358.324219 82.585938 356.445312 C 84.050781 355.550781 85.21875 355.246094 85.21875 355.738281 C 85.21875 356.285156 86.066406 356.429688 87.445312 356.117188 C 88.949219 355.777344 89.277344 355.847656 88.457031 356.347656 C 87.789062 356.75 85.238281 357.484375 82.789062 357.992188 C 77.515625 359.078125 75.875 359.964844 76.691406 361.28125 C 77.246094 362.183594 78.335938 362.085938 83.191406 360.777344 C 84.433594 360.441406 84.195312 360.953125 82.179688 362.902344 C 80.734375 364.300781 79.550781 365.613281 79.550781 365.839844 C 79.550781 366.644531 84.050781 365.644531 86.632812 364.269531 C 89.472656 362.757812 89.910156 363.21875 88.027344 365.710938 C 86.382812 367.886719 86.539062 368.84375 88.457031 368.34375 C 89.507812 368.070312 90.074219 368.335938 90.074219 369.078125 C 90.074219 370.59375 90.816406 370.511719 92.707031 368.800781 C 94.203125 367.445312 94.269531 367.457031 94 369.003906 C 93.5625 371.472656 98.058594 370.726562 100.449219 367.9375 L 102.324219 365.761719 L 101.792969 368.394531 C 101.089844 371.878906 103.121094 371.96875 106.269531 368.597656 C 107.519531 367.261719 108.644531 366.167969 108.800781 366.167969 C 108.957031 366.167969 109.140625 367.109375 109.207031 368.269531 C 109.390625 371.453125 110.710938 372.3125 112.394531 370.34375 C 113.726562 368.789062 113.914062 368.757812 114.898438 370.039062 C 115.875 371.308594 115.984375 371.289062 116.441406 369.660156 C 116.738281 368.605469 117.382812 368.066406 118.039062 368.320312 C 118.734375 368.585938 119.335938 367.953125 119.683594 366.570312 C 120.058594 365.078125 120.433594 364.699219 120.871094 365.40625 C 121.222656 365.972656 122.265625 366.554688 123.199219 366.699219 C 124.519531 366.898438 125.292969 366.160156 126.667969 363.332031 C 128.441406 359.679688 130.3125 358.269531 129.347656 361.308594 C 128.726562 363.269531 129.195312 363.320312 131.804688 361.609375 C 132.902344 360.890625 133.828125 359.523438 133.878906 358.574219 C 133.953125 357.191406 134.0625 357.128906 134.359375 358.269531 C 134.972656 360.628906 136.230469 358.992188 136.257812 355.789062 C 136.277344 353.363281 136.421875 353.070312 137.09375 354.21875 C 137.546875 355 138.675781 355.636719 139.597656 355.636719 C 141.191406 355.636719 141.253906 355.933594 140.734375 361.914062 C 140.375 366.09375 139.523438 369.503906 138.207031 372.117188 C 137.433594 373.644531 136.785156 375.007812 136.460938 375.761719 L 156.601562 375.761719 C 157.496094 375.046875 157.09375 373.789062 156.171875 371.585938 C 154.734375 368.148438 154.183594 361.128906 155.3125 360.75 C 155.753906 360.601562 156.746094 361.5625 157.539062 362.902344 C 159.015625 365.402344 160.828125 366.324219 159.992188 364.140625 C 159.035156 361.648438 160.542969 363.015625 161.636719 365.636719 C 162.511719 367.726562 163.210938 368.351562 164.675781 368.242188 C 165.722656 368.164062 167.105469 368.480469 167.734375 368.953125 C 168.554688 369.566406 168.972656 369.539062 169.203125 368.851562 C 169.417969 368.210938 170.058594 368.417969 171.101562 369.457031 C 173.1875 371.542969 174.222656 371.441406 173.734375 369.207031 C 173.5 368.140625 173.617188 367.734375 174.011719 368.242188 C 174.945312 369.441406 177.527344 370.3125 177.527344 369.433594 C 177.527344 368.617188 182 368.90625 184.335938 369.863281 C 185.566406 370.367188 185.792969 370.210938 185.398438 369.179688 C 185.125 368.464844 185.320312 367.730469 185.855469 367.535156 C 186.59375 367.261719 186.601562 366.910156 185.828125 366.089844 C 183.992188 364.144531 184.753906 363.890625 187.777344 365.433594 C 191.121094 367.140625 192.054688 366.890625 190.433594 364.75 C 189.566406 363.605469 189.554688 363.511719 190.410156 364.269531 C 191 364.792969 191.972656 365.035156 192.585938 364.800781 C 193.199219 364.566406 193.722656 364.695312 193.722656 365.105469 C 193.722656 365.511719 194.21875 366.535156 194.835938 367.382812 C 195.808594 368.710938 196.164062 368.769531 197.316406 367.8125 C 198.480469 366.847656 198.804688 366.964844 199.949219 368.597656 L 201.265625 370.472656 L 202 368.523438 C 202.675781 366.710938 202.800781 366.675781 203.769531 367.992188 C 205.050781 369.726562 205.625 369.753906 207.210938 368.167969 C 208.199219 367.179688 208.253906 366.6875 207.464844 365.738281 C 206.917969 365.082031 206.714844 364.546875 207.007812 364.546875 C 207.300781 364.546875 207.121094 363.726562 206.605469 362.726562 C 205.816406 361.199219 206.113281 361.289062 208.398438 363.359375 C 213.441406 367.917969 213.773438 368.085938 215.207031 366.648438 C 215.921875 365.933594 216.222656 364.910156 215.890625 364.34375 C 215.550781 363.765625 215.96875 363.863281 216.851562 364.574219 C 221.132812 368.011719 225.464844 368.6875 222.546875 365.457031 C 221.226562 364 221.269531 363.886719 223.378906 363.359375 L 225.582031 362.800781 L 223.203125 360.878906 C 220.09375 358.332031 221.757812 358.328125 226.214844 360.878906 C 228.152344 361.984375 230.210938 362.898438 230.769531 362.902344 C 232.402344 362.917969 231.933594 361.625 229.960938 360.675781 C 228.320312 359.882812 228.445312 359.789062 231.402344 359.738281 C 233.210938 359.707031 235.394531 359.152344 236.261719 358.496094 C 237.757812 357.367188 237.738281 357.308594 235.425781 357.28125 C 231.957031 357.246094 219.625 355 217.054688 353.941406 C 213.90625 352.648438 213.3125 350.667969 216.421875 351.839844 C 219.152344 352.871094 220.53125 352.019531 218.523438 350.550781 C 217.355469 349.695312 217.730469 349.59375 220.824219 349.839844 C 224.773438 350.15625 225.613281 349.160156 222.671875 347.664062 C 221.09375 346.863281 221.363281 346.761719 224.796875 346.929688 C 229.433594 347.15625 230.738281 345.632812 226.746094 344.652344 L 224.089844 343.992188 L 226.71875 343.691406 C 229.800781 343.320312 230.074219 342.488281 227.53125 341.183594 C 226.042969 340.421875 226.671875 340.316406 230.972656 340.675781 C 235.816406 341.085938 236.089844 341.019531 234.640625 339.867188 C 233.777344 339.179688 232.433594 338.628906 231.65625 338.628906 C 230.875 338.628906 230.003906 338.226562 229.707031 337.742188 C 229.367188 337.191406 229.875 336.90625 231.074219 337.007812 C 234.457031 337.289062 236.640625 337.023438 236.640625 336.296875 C 236.640625 335.910156 234.074219 335.339844 230.945312 335.03125 C 227.820312 334.722656 225.433594 334.175781 225.65625 333.816406 C 225.878906 333.457031 228.214844 332.679688 230.84375 332.097656 C 235.808594 330.996094 238.949219 329.347656 237.957031 328.351562 C 237.445312 327.839844 232.941406 328.574219 226.921875 330.171875 C 225.074219 330.664062 225.121094 330.511719 227.65625 328.324219 C 231.828125 324.726562 229.476562 324.355469 223.457031 327.667969 C 217.414062 330.988281 213.953125 331.261719 207.261719 328.957031 C 199.667969 326.34375 187.351562 320.089844 186.433594 318.378906 C 185.300781 316.253906 185.945312 316.316406 188.003906 318.527344 C 188.914062 319.503906 189.675781 320.003906 189.675781 319.644531 C 189.675781 319.28125 190.222656 319.441406 190.890625 319.996094 C 191.890625 320.832031 192.101562 320.753906 192.101562 319.542969 C 192.101562 318.320312 192.519531 318.472656 194.632812 320.453125 L 197.164062 322.832031 L 196.683594 320.226562 C 196.199219 317.65625 196.230469 317.628906 198.40625 318.554688 C 199.613281 319.070312 201.152344 319.914062 201.820312 320.425781 C 204.960938 322.84375 205.324219 322.792969 204.757812 319.945312 C 204.328125 317.796875 204.410156 317.421875 205.1875 318.199219 C 206.59375 319.609375 209.917969 319.449219 209.917969 317.972656 C 209.917969 316.460938 211.226562 316.386719 212.09375 317.84375 C 212.449219 318.445312 213.753906 319.5625 214.980469 320.351562 C 216.816406 321.535156 217.207031 321.582031 217.207031 320.605469 C 217.207031 319.953125 216.476562 318.777344 215.585938 317.972656 C 214.695312 317.164062 213.96875 316.121094 213.96875 315.667969 C 213.96875 315.21875 214.171875 315.089844 214.449219 315.363281 C 214.722656 315.640625 215.523438 315.300781 216.21875 314.605469 C 217.09375 313.730469 218.410156 313.460938 220.519531 313.746094 C 222.617188 314.027344 223.699219 313.8125 223.988281 313.0625 C 224.304688 312.234375 225.042969 312.148438 227.074219 312.730469 C 234.214844 314.78125 235.53125 312.445312 228.644531 309.949219 C 223.988281 308.257812 223.398438 307.40625 227.757812 308.65625 C 233.296875 310.246094 240.503906 309.042969 237.449219 307.035156 C 236.78125 306.597656 234.59375 306.183594 232.589844 306.125 C 229.496094 306.035156 229.292969 305.953125 231.300781 305.519531 C 232.601562 305.238281 233.824219 304.496094 234.035156 303.871094 C 234.347656 302.921875 233.070312 302.816406 226.1875 303.289062 C 218.085938 303.847656 217.957031 303.847656 218.953125 302.253906 C 220.433594 299.878906 219.414062 299.464844 215.382812 300.835938 C 213.203125 301.574219 210.40625 301.886719 208.222656 301.621094 C 203.542969 301.046875 188.050781 295.855469 186.234375 294.253906 C 184.332031 292.578125 184.4375 291.417969 186.4375 292.050781 C 187.34375 292.339844 188.054688 292.191406 188.054688 291.722656 C 188.054688 290.84375 189.269531 291.097656 193.320312 292.863281 C 194.65625 293.445312 197.585938 293.9375 199.847656 293.949219 C 202.105469 293.960938 204.292969 294.046875 204.707031 294.128906 C 206.601562 294.488281 206.800781 293.9375 205.390625 292.253906 C 204.375 291.042969 204.691406 291.179688 206.324219 292.660156 C 209.125 295.195312 209.917969 295.40625 209.917969 293.644531 C 209.917969 292.578125 210.179688 292.582031 211.992188 293.773438 C 213.214844 294.574219 214.3125 294.824219 214.625 294.378906 C 214.921875 293.960938 216.253906 293.144531 217.585938 292.558594 C 219.910156 291.53125 219.945312 291.453125 218.445312 290.355469 C 216.613281 289.015625 217.078125 288.902344 219.964844 290 C 221.53125 290.597656 222.066406 290.542969 222.066406 289.746094 C 222.066406 289.109375 224.121094 288.265625 227.328125 287.597656 C 230.222656 286.992188 232.589844 286.167969 232.589844 285.773438 C 232.589844 285.382812 232.933594 285.296875 233.375 285.570312 C 233.816406 285.84375 234.824219 285.703125 235.601562 285.269531 C 236.835938 284.578125 236.726562 284.390625 234.765625 283.902344 C 233.078125 283.476562 232.644531 282.980469 232.996094 281.875 C 233.339844 280.792969 232.976562 280.355469 231.605469 280.15625 C 230.292969 279.960938 231.222656 279.390625 234.792969 278.257812 C 240.324219 276.496094 241.6875 274.902344 236.84375 275.851562 C 232.367188 276.730469 221.253906 276.929688 221.253906 276.128906 C 221.253906 275.75 221.617188 275.445312 222.066406 275.445312 C 222.511719 275.445312 222.875 275.078125 222.875 274.636719 C 222.875 274.195312 221.144531 273.859375 219.027344 273.902344 C 213.714844 274.011719 205.222656 272.234375 204.703125 270.890625 C 204.414062 270.132812 204.9375 269.777344 206.300781 269.777344 C 207.398438 269.777344 208.296875 269.421875 208.296875 268.992188 C 208.296875 268.558594 208.84375 268.40625 209.511719 268.664062 C 210.179688 268.917969 210.726562 268.699219 210.726562 268.179688 C 210.726562 267.558594 211.339844 267.679688 212.523438 268.511719 C 213.515625 269.203125 215.246094 269.765625 216.371094 269.75 L 218.421875 269.726562 L 216.546875 268.15625 L 214.699219 266.613281 L 218.570312 266.359375 L 222.46875 266.082031 L 219.636719 264.714844 L 216.800781 263.347656 L 219.28125 263.320312 C 220.859375 263.300781 222.476562 262.554688 223.683594 261.269531 C 224.730469 260.15625 225.957031 259.246094 226.441406 259.246094 C 226.925781 259.246094 227.800781 258.5 228.363281 257.601562 C 229.84375 255.230469 227.960938 254.753906 223.304688 256.335938 C 218.285156 258.039062 217.242188 257.992188 217.761719 256.003906 C 218.273438 254.050781 218.140625 254.039062 213.054688 255.703125 C 209.1875 256.96875 208.785156 256.929688 202.605469 255.171875 C 194.269531 252.796875 192.132812 250.574219 198.554688 250.941406 C 199.21875 250.980469 200.015625 250.613281 200.328125 250.109375 C 200.726562 249.460938 201.398438 249.613281 202.527344 250.640625 C 203.796875 251.789062 204.859375 251.988281 207.4375 251.550781 C 211.117188 250.929688 211.347656 250.621094 209.3125 248.945312 C 207.855469 247.742188 208.390625 247.78125 211.867188 249.171875 C 213.109375 249.667969 213.320312 249.519531 212.902344 248.4375 C 212.519531 247.4375 212.828125 247.09375 214.066406 247.09375 C 215.195312 247.09375 215.605469 246.710938 215.308594 245.929688 C 215.0625 245.292969 215.28125 244.585938 215.8125 244.363281 C 216.492188 244.078125 216.398438 243.613281 215.460938 242.84375 C 214.230469 241.835938 214.28125 241.601562 216.066406 239.882812 C 218.984375 237.074219 218.441406 236.484375 214.167969 237.855469 C 203.542969 241.265625 199.644531 241.46875 197.039062 238.691406 C 195.558594 237.117188 195.472656 236.6875 196.457031 236.3125 C 197.117188 236.058594 198.75 236.257812 200.101562 236.769531 C 203.5625 238.074219 204.300781 236.773438 201.414062 234.4375 C 199.394531 232.804688 199.257812 232.5 200.605469 232.617188 C 203.4375 232.863281 205.058594 232.539062 205.058594 231.707031 C 205.058594 231.257812 204.421875 230.871094 203.640625 230.84375 C 202.496094 230.804688 202.535156 230.644531 203.921875 230.085938 C 204.859375 229.707031 205.847656 228.828125 206.121094 228.109375 C 206.554688 226.984375 206.394531 226.933594 204.832031 227.808594 C 202.007812 229.386719 185.132812 229.148438 181.578125 227.476562 C 179.089844 226.3125 178.960938 226.144531 180.640625 226.085938 C 182.175781 226.03125 182.488281 225.695312 182.132812 224.339844 C 181.734375 222.820312 181.824219 222.761719 183.042969 223.808594 C 184.820312 225.328125 187.246094 226.179688 187.246094 225.277344 C 187.246094 224.886719 187.972656 224.738281 188.863281 224.972656 C 189.769531 225.207031 190.484375 224.996094 190.484375 224.492188 C 190.484375 223.992188 191.394531 223.605469 192.507812 223.605469 C 195.199219 223.605469 195.066406 222.800781 191.953125 220.238281 L 189.34375 218.113281 L 193.671875 218.796875 C 198.136719 219.5 199.757812 219.207031 198.910156 217.832031 C 198.082031 216.492188 200.257812 214.695312 202.707031 214.695312 C 205.464844 214.695312 205.847656 213.355469 203.238281 212.796875 C 202.203125 212.574219 202.640625 212.433594 204.25 212.492188 C 206.09375 212.5625 207.011719 212.273438 206.882812 211.632812 C 206.769531 211.089844 207.066406 210.644531 207.566406 210.644531 C 208.175781 210.644531 208.144531 210.230469 207.4375 209.378906 C 206.769531 208.570312 205.628906 208.246094 204.300781 208.519531 C 203.152344 208.753906 202.679688 208.761719 203.238281 208.519531 C 205.105469 207.707031 204.277344 206.40625 202.226562 206.921875 C 200.582031 207.335938 200.332031 207.175781 200.757812 206.0625 C 201.140625 205.066406 200.972656 204.886719 200.175781 205.378906 C 199.578125 205.75 198.160156 206.121094 197.011719 206.214844 C 195.863281 206.308594 194.027344 206.640625 192.914062 206.949219 L 190.890625 207.507812 L 193.117188 205.605469 C 195.6875 203.398438 196.0625 202.105469 193.773438 203.328125 C 191.515625 204.539062 189.859375 204.4375 191.117188 203.175781 C 192.933594 201.359375 192.21875 199.925781 190.359375 201.660156 C 189.40625 202.542969 187.5 203.808594 186.105469 204.46875 C 181.160156 206.816406 167.8125 203.621094 167.8125 200.089844 C 167.8125 199.382812 167.359375 198.371094 166.824219 197.835938 C 166.175781 197.1875 166.15625 196.875 166.75 196.875 C 167.234375 196.875 167.832031 197.421875 168.089844 198.089844 C 168.386719 198.859375 169.542969 199.265625 171.226562 199.203125 C 172.6875 199.148438 174.703125 199.382812 175.707031 199.710938 C 177.203125 200.199219 177.527344 199.980469 177.527344 198.597656 L 177.527344 196.925781 L 180.285156 198.546875 C 182.269531 199.714844 183.210938 199.925781 183.625 199.253906 C 183.945312 198.738281 183.707031 197.972656 183.09375 197.558594 C 182.132812 196.910156 186.859375 196.996094 190.078125 197.683594 C 190.523438 197.78125 191.714844 197.582031 192.734375 197.253906 C 194.445312 196.703125 194.476562 196.539062 193.292969 195.230469 C 192.105469 193.914062 192.167969 193.785156 194.078125 193.304688 C 196.417969 192.71875 196.882812 191.203125 194.734375 191.152344 C 193.84375 191.132812 194.214844 190.71875 195.746094 190.015625 C 197.082031 189.402344 199.246094 188.011719 200.554688 186.925781 L 202.910156 184.953125 L 199.949219 184.394531 C 198.304688 184.085938 196.960938 183.488281 196.960938 183.054688 C 196.960938 182.597656 196.019531 182.480469 194.734375 182.800781 C 192.789062 183.285156 192.617188 183.210938 193.519531 182.117188 C 195.082031 180.21875 192.753906 179.636719 190.355469 181.332031 C 189.234375 182.125 186.800781 182.714844 184.460938 182.75 C 181.273438 182.796875 180.816406 182.636719 182.210938 182.015625 C 183.785156 181.3125 183.9375 180.652344 183.246094 177.5625 C 183.214844 177.414062 181.964844 178.050781 180.464844 178.976562 C 178.964844 179.90625 176.503906 180.652344 174.996094 180.648438 C 169.949219 180.632812 161.257812 177.269531 155.742188 173.179688 C 153.617188 171.609375 154.066406 171.28125 156.523438 172.597656 C 157.800781 173.28125 158.097656 173.167969 158.121094 171.992188 C 158.144531 170.609375 158.183594 170.597656 158.980469 171.964844 C 159.4375 172.753906 160.144531 173.203125 160.546875 172.953125 C 160.953125 172.703125 162.207031 173.101562 163.332031 173.839844 C 165.355469 175.167969 165.371094 175.148438 165.382812 172.851562 C 165.386719 171.574219 165.660156 170.945312 165.988281 171.433594 C 166.699219 172.496094 169.757812 174.195312 170.972656 174.195312 C 171.449219 174.195312 171.890625 173.375 171.9375 172.371094 C 172.011719 170.640625 172.035156 170.652344 172.566406 172.574219 C 172.878906 173.6875 173.300781 174.429688 173.503906 174.246094 C 173.707031 174.058594 174.632812 174.308594 175.554688 174.800781 C 176.921875 175.535156 177.441406 175.414062 178.335938 174.167969 C 178.941406 173.328125 179.753906 172.84375 180.132812 173.082031 C 180.515625 173.316406 180.578125 172.570312 180.285156 171.410156 C 179.78125 169.390625 179.847656 169.332031 181.980469 170.144531 C 184.613281 171.144531 185.433594 170.648438 184.007812 168.929688 C 183.152344 167.902344 183.238281 167.714844 184.4375 167.714844 C 185.800781 167.714844 185.78125 167.628906 184.460938 166.167969 C 183.695312 165.324219 183.414062 164.425781 183.828125 164.171875 C 184.242188 163.914062 185.21875 164.414062 186.003906 165.285156 C 187.238281 166.648438 188.03125 166.769531 191.167969 166.144531 C 191.332031 166.113281 191.082031 165.601562 190.585938 165.003906 C 189.53125 163.734375 190.15625 162.855469 192.128906 162.855469 C 192.894531 162.855469 194.390625 162.136719 195.445312 161.257812 L 197.367188 159.664062 L 194.9375 159.511719 C 193.601562 159.429688 191.617188 159.4375 190.535156 159.539062 C 188.824219 159.695312 188.695312 159.542969 189.625 158.425781 C 191.394531 156.289062 190.148438 156.296875 187.015625 158.425781 C 183.621094 160.730469 181.578125 161.132812 183.195312 159.183594 C 184.050781 158.152344 184.003906 158.023438 182.890625 158.449219 C 181.347656 159.042969 181.121094 157.941406 182.511719 156.550781 C 184.585938 154.476562 182.386719 154.789062 179.832031 156.929688 C 174.796875 161.148438 174.179688 161.285156 168.492188 159.5625 C 162.535156 157.757812 158.535156 155.503906 157.335938 153.261719 C 156.597656 151.886719 156.765625 151.691406 158.523438 151.792969 C 159.632812 151.855469 160.710938 152.472656 160.929688 153.160156 C 161.144531 153.84375 162.09375 154.457031 163.027344 154.527344 C 164.394531 154.628906 164.632812 154.304688 164.269531 152.90625 C 163.863281 151.351562 164.035156 151.410156 165.710938 153.363281 C 166.746094 154.566406 168.398438 155.5625 169.40625 155.5625 C 170.992188 155.5625 171.179688 155.253906 170.773438 153.210938 C 170.160156 150.144531 172.058594 149.296875 174.035156 151.765625 C 175.386719 153.453125 179.941406 154.640625 179.957031 153.3125 C 179.960938 152.980469 178.777344 151.738281 177.324219 150.527344 C 175.3125 148.84375 175.035156 148.316406 176.136719 148.300781 C 176.929688 148.285156 177.777344 148.796875 178.035156 149.464844 C 178.289062 150.128906 178.804688 150.5 179.171875 150.273438 C 179.539062 150.046875 180.058594 150.226562 180.335938 150.679688 C 180.617188 151.132812 181.820312 151.511719 182.992188 151.511719 C 185.035156 151.511719 185.054688 151.453125 183.550781 150.347656 C 182.035156 149.234375 182.058594 149.164062 184.257812 148.324219 C 185.511719 147.84375 186.96875 147.453125 187.496094 147.4375 C 188.027344 147.421875 187.546875 146.890625 186.433594 146.273438 C 184.460938 145.179688 184.480469 145.15625 187.546875 145.4375 C 189.535156 145.621094 191.117188 145.308594 191.851562 144.578125 C 193.628906 142.796875 192.367188 141.792969 188.359375 141.792969 C 186.117188 141.792969 184.910156 141.460938 185.21875 140.957031 C 186.242188 139.308594 183.25 139.277344 179.882812 140.90625 C 175.75 142.902344 174.984375 143.003906 175.605469 141.386719 C 175.898438 140.625 175.597656 140.171875 174.796875 140.171875 C 173.992188 140.171875 173.691406 139.722656 173.984375 138.957031 C 174.53125 137.539062 174.25 137.488281 171.582031 138.503906 C 169.847656 139.164062 169.65625 139.058594 170.011719 137.691406 C 170.4375 136.066406 169.078125 135.496094 168.191406 136.933594 C 167.910156 137.386719 166.195312 138.53125 164.371094 139.464844 C 161.433594 140.964844 160.671875 141.039062 157.789062 140.171875 C 155.101562 139.367188 154.757812 139.0625 155.890625 138.425781 C 156.648438 138.003906 157.285156 137.105469 157.285156 136.425781 C 157.285156 135.46875 156.453125 135.238281 153.613281 135.414062 C 150.851562 135.585938 149.582031 135.242188 148.402344 134.046875 C 146.625 132.25 144.90625 125.828125 146.023438 125.136719 C 146.714844 124.710938 147.101562 126.4375 146.808594 128.65625 C 146.734375 129.222656 147.445312 130.78125 148.402344 132.125 C 149.789062 134.074219 150.378906 134.371094 151.285156 133.617188 C 151.910156 133.097656 152.449219 131.726562 152.5 130.554688 C 152.574219 128.871094 152.695312 128.765625 153.007812 130.046875 C 153.621094 132.566406 155.722656 134.503906 157.839844 134.503906 C 159.496094 134.503906 159.648438 134.277344 158.929688 132.933594 C 157.871094 130.957031 157.863281 130.214844 158.902344 130.859375 C 159.347656 131.132812 159.714844 130.976562 159.714844 130.503906 C 159.714844 130.03125 160.078125 129.644531 160.523438 129.644531 C 160.96875 129.644531 161.332031 130.152344 161.332031 130.78125 C 161.332031 132.234375 166.0625 136.277344 167.050781 135.667969 C 167.460938 135.414062 167.8125 134.507812 167.8125 133.644531 C 167.8125 132.777344 168.175781 132.074219 168.644531 132.074219 C 169.117188 132.074219 169.289062 131.617188 169 131.0625 C 168.710938 130.503906 169.152344 130.875 169.988281 131.894531 C 170.824219 132.917969 171.785156 133.488281 172.113281 133.160156 C 172.441406 132.832031 173.5 132.4375 174.492188 132.300781 C 176.683594 131.996094 179.957031 130.382812 179.957031 129.59375 C 179.957031 129.277344 178.875 128.570312 177.554688 128.023438 C 176.234375 127.476562 175.230469 126.609375 175.328125 126.097656 C 175.421875 125.582031 174.394531 125.132812 173.023438 125.085938 C 170.191406 124.992188 166.066406 123.070312 167.609375 122.554688 C 168.164062 122.371094 168.621094 121.691406 168.621094 121.0625 C 168.621094 119.777344 164.570312 119.449219 163.308594 120.632812 C 162.082031 121.777344 158.902344 122.523438 158.902344 121.667969 C 158.902344 121.242188 159.824219 120.667969 160.980469 120.378906 C 162.707031 119.945312 162.898438 119.628906 162.09375 118.65625 C 161.292969 117.695312 161.414062 117.488281 162.648438 117.46875 C 164.453125 117.4375 167.5 115.28125 166.773438 114.554688 C 166.492188 114.277344 164.597656 113.875 162.574219 113.644531 C 158.519531 113.1875 158.539062 113.199219 159.738281 110.960938 C 160.515625 109.507812 160.710938 109.488281 162.496094 110.65625 C 164.300781 111.839844 164.453125 111.800781 164.953125 110.226562 C 165.246094 109.304688 165.828125 108.757812 166.242188 109.011719 C 166.65625 109.269531 167 109.105469 167 108.632812 C 167 108.160156 167.730469 107.773438 168.621094 107.773438 C 169.511719 107.773438 170.238281 107.253906 170.238281 106.632812 C 170.238281 105.394531 168.527344 104.53125 166.117188 104.53125 C 164.277344 104.53125 164.03125 103.046875 165.761719 102.378906 C 166.425781 102.125 166.800781 101.648438 166.597656 101.316406 C 166.390625 100.984375 167.132812 100.242188 168.242188 99.648438 C 170.96875 98.1875 170.296875 96.835938 166.824219 96.835938 L 163.964844 96.835938 L 166.015625 94.152344 C 167.613281 92.058594 167.824219 91.273438 167.050781 90.507812 C 166.28125 89.746094 165.496094 90.164062 163.40625 92.433594 C 160.933594 95.125 160.675781 95.226562 159.816406 93.851562 C 159.304688 93.03125 158.523438 92.382812 158.09375 92.382812 C 157.132812 92.382812 154.574219 96.914062 154.019531 99.621094 C 153.609375 101.621094 146.15625 108.011719 145.035156 107.316406 C 144.71875 107.121094 144.558594 104.957031 144.65625 102.507812 C 144.753906 100.058594 144.511719 98.050781 144.125 98.050781 C 143.738281 98.050781 143.53125 96.707031 143.671875 95.066406 C 143.878906 92.574219 144.289062 91.972656 146.175781 91.472656 C 148.132812 90.953125 148.382812 91.066406 147.972656 92.355469 C 147.234375 94.683594 149.207031 95.277344 150.78125 93.191406 C 151.613281 92.089844 152.390625 91.675781 152.703125 92.179688 C 153.253906 93.074219 156.472656 92.601562 156.472656 91.621094 C 156.472656 90.871094 152.441406 87.097656 151.742188 87.191406 C 151.445312 87.234375 150.566406 87.089844 149.792969 86.890625 C 147.507812 86.292969 148.996094 85.152344 151.414062 85.648438 C 155.472656 86.480469 159.132812 86.324219 159.484375 85.292969 C 159.675781 84.738281 159.300781 84.28125 158.652344 84.28125 C 158 84.28125 157.023438 83.730469 156.472656 83.066406 C 155.925781 82.402344 155.148438 82.0625 154.753906 82.308594 C 154.359375 82.550781 154.042969 82.464844 154.046875 82.105469 C 154.046875 81.746094 155.140625 80.71875 156.472656 79.828125 C 158.925781 78.1875 159.597656 76.992188 158.070312 76.992188 C 156.59375 76.992188 151.289062 79.445312 150.578125 80.460938 C 150.15625 81.058594 150.074219 80.75 150.375 79.675781 C 150.644531 78.710938 150.515625 77.707031 150.097656 77.449219 C 149.214844 76.902344 145.949219 82.113281 145.949219 84.054688 C 145.949219 84.769531 145.707031 85.128906 145.417969 84.839844 C 145.125 84.546875 144.378906 84.925781 143.769531 85.699219 C 142.808594 86.921875 142.726562 86.59375 143.089844 83.144531 C 143.421875 79.9375 144.183594 78.375 147.136719 74.917969 C 149.144531 72.566406 150.804688 70.121094 150.804688 69.472656 C 150.804688 67.527344 146.738281 68.808594 145.898438 71.019531 C 144.558594 74.535156 143.089844 73.316406 143.390625 68.941406 C 143.613281 65.75 143.324219 64.546875 141.976562 63.09375 L 140.277344 61.296875 Z M 134.789062 89.722656 C 135.160156 89.746094 136.039062 90.449219 137.039062 91.570312 C 138.707031 93.4375 139.46875 95.121094 139.46875 96.964844 C 139.46875 98.441406 139.316406 99.671875 139.140625 99.671875 C 138.707031 99.671875 137.660156 97.160156 137.292969 95.242188 C 137.128906 94.375 136.457031 93.082031 135.800781 92.355469 C 135.144531 91.628906 134.613281 90.527344 134.613281 89.925781 C 134.613281 89.777344 134.664062 89.714844 134.789062 89.722656 Z M 132.816406 101.621094 C 134.355469 101.734375 138.09375 104.3125 138.683594 105.875 C 139.742188 108.648438 139.140625 109.167969 137.320312 107.039062 C 136.519531 106.105469 135.417969 105.34375 134.863281 105.34375 C 133.925781 105.34375 131.714844 102.210938 132.308594 101.722656 C 132.421875 101.628906 132.59375 101.605469 132.816406 101.621094 Z M 154.929688 108.226562 C 155.125 108.230469 155.363281 108.261719 155.613281 108.328125 C 156.949219 108.679688 156.636719 109.160156 153.511719 111.542969 C 151.488281 113.089844 149.121094 114.417969 148.277344 114.480469 C 147.429688 114.542969 146.757812 114.863281 146.757812 115.214844 C 146.757812 115.566406 146.347656 115.871094 145.871094 115.871094 C 145.394531 115.871094 145.121094 115.050781 145.265625 114.050781 C 145.488281 112.472656 145.949219 112.25 148.578125 112.480469 C 150.914062 112.683594 151.617188 112.449219 151.617188 111.46875 C 151.617188 110.765625 152.164062 110.203125 152.832031 110.203125 C 153.5 110.203125 154.046875 109.691406 154.046875 109.0625 C 154.046875 108.515625 154.347656 108.226562 154.929688 108.226562 Z M 145.542969 119.820312 L 147.441406 120.757812 C 148.484375 121.265625 150.214844 121.457031 151.285156 121.1875 C 152.390625 120.910156 153.234375 121.050781 153.234375 121.515625 C 153.234375 121.972656 152.886719 122.351562 152.476562 122.351562 C 152.066406 122.351562 151.210938 122.539062 150.578125 122.78125 C 149.945312 123.023438 148.566406 122.453125 147.492188 121.515625 Z M 154.425781 121.820312 C 154.609375 121.847656 154.878906 122.035156 155.257812 122.351562 C 156.164062 123.105469 156.472656 123.117188 156.472656 122.402344 C 156.472656 121.875 156.871094 121.707031 157.386719 122.023438 C 158.03125 122.421875 157.863281 122.9375 156.828125 123.695312 C 154.742188 125.21875 154.046875 125.054688 154.046875 123.0625 C 154.046875 122.164062 154.117188 121.777344 154.425781 121.820312 Z M 166.621094 124.78125 C 167.316406 124.78125 167.679688 125.148438 167.40625 125.59375 C 166.757812 126.640625 165.382812 126.640625 165.382812 125.59375 C 165.382812 125.148438 165.925781 124.78125 166.621094 124.78125 Z M 147.566406 137.742188 C 148.011719 137.742188 148.375 139.566406 148.375 141.792969 C 148.375 145.898438 148.253906 146.253906 147.289062 145.285156 C 146.425781 144.421875 146.671875 137.742188 147.566406 137.742188 Z M 141.390625 148.550781 C 141.683594 148.503906 141.898438 148.679688 141.898438 149.03125 C 141.898438 149.503906 141.535156 149.894531 141.089844 149.894531 C 140.050781 149.894531 140.050781 149.320312 141.089844 148.679688 C 141.199219 148.609375 141.296875 148.566406 141.390625 148.550781 Z M 147.921875 150.273438 C 147.96875 150.269531 148.042969 150.339844 148.097656 150.476562 C 148.320312 151.023438 148.328125 152.117188 148.125 152.90625 C 147.917969 153.695312 147.734375 153.253906 147.71875 151.917969 C 147.707031 150.914062 147.78125 150.285156 147.921875 150.273438 Z M 137.847656 150.703125 C 138.292969 150.703125 138.660156 150.859375 138.660156 151.058594 C 138.660156 151.253906 138.292969 151.644531 137.847656 151.917969 C 137.402344 152.195312 137.039062 152.035156 137.039062 151.5625 C 137.039062 151.09375 137.402344 150.703125 137.847656 150.703125 Z M 133.800781 152.324219 C 134.246094 152.324219 134.609375 152.480469 134.609375 152.675781 C 134.609375 152.875 134.246094 153.261719 133.800781 153.539062 C 133.355469 153.8125 132.992188 153.65625 132.992188 153.183594 C 132.992188 152.710938 133.355469 152.324219 133.800781 152.324219 Z M 116.949219 152.347656 C 117.5 152.402344 118.1875 152.769531 118.71875 153.4375 C 120.359375 155.507812 123.082031 155.78125 124.589844 154.019531 C 125.925781 152.460938 127.828125 152.441406 126.867188 153.992188 C 126.613281 154.410156 126.957031 154.753906 127.625 154.753906 C 128.292969 154.753906 129.070312 154.386719 129.347656 153.941406 C 130 152.886719 131.371094 152.878906 131.371094 153.941406 C 131.371094 154.398438 130.371094 155.167969 129.144531 155.640625 C 127.921875 156.109375 124.835938 156.675781 122.3125 156.90625 C 118.292969 157.269531 117.617188 157.128906 116.847656 155.691406 C 116.363281 154.785156 115.988281 153.660156 115.988281 153.183594 C 115.988281 152.566406 116.394531 152.292969 116.949219 152.347656 Z M 191.242188 195.253906 C 191.714844 195.253906 192.101562 195.617188 192.101562 196.0625 C 192.101562 197.101562 191.53125 197.101562 190.886719 196.0625 C 190.613281 195.617188 190.769531 195.253906 191.242188 195.253906 Z M 123.550781 204.972656 C 124.046875 204.972656 123.089844 205.703125 121.425781 206.59375 C 118.484375 208.171875 116.796875 208.609375 116.796875 207.808594 C 116.796875 207.304688 122.355469 204.972656 123.550781 204.972656 Z M 193.46875 239.578125 C 194.363281 239.570312 195.25 239.667969 195.796875 239.882812 C 196.902344 240.316406 196.359375 240.5 193.925781 240.539062 C 192.03125 240.570312 190.484375 240.457031 190.484375 240.285156 C 190.484375 239.855469 191.984375 239.585938 193.46875 239.578125 Z M 211.585938 243.957031 C 211.867188 243.945312 212.207031 243.992188 212.5 244.109375 C 213.144531 244.367188 212.9375 244.550781 211.992188 244.589844 C 211.140625 244.625 210.660156 244.429688 210.929688 244.160156 C 211.0625 244.023438 211.304688 243.96875 211.585938 243.957031 Z M 211.789062 264.128906 C 211.828125 264.121094 211.886719 264.128906 211.941406 264.128906 C 212.386719 264.128906 213.296875 264.484375 213.964844 264.914062 C 214.632812 265.347656 214.816406 265.699219 214.371094 265.699219 C 213.925781 265.699219 213.015625 265.347656 212.347656 264.914062 C 211.761719 264.539062 211.535156 264.203125 211.789062 264.128906 Z M 70.738281 296.859375 C 71.121094 296.804688 71.230469 296.972656 71.019531 297.316406 C 70.746094 297.757812 70.199219 298.125 69.777344 298.125 C 68.613281 298.125 68.855469 297.527344 70.257812 296.988281 C 70.4375 296.917969 70.613281 296.878906 70.738281 296.859375 Z M 83.820312 303.820312 L 85.667969 305.796875 L 87.492188 307.769531 L 88.882812 305.644531 C 90.148438 303.710938 90.324219 303.671875 91.058594 304.984375 C 91.664062 306.0625 92.03125 306.152344 92.5 305.390625 C 92.949219 304.667969 93.277344 304.871094 93.664062 306.101562 C 94.21875 307.84375 95.742188 308.535156 95.742188 307.035156 C 95.742188 306.589844 96.742188 306.222656 97.96875 306.226562 L 100.195312 306.226562 L 97.765625 307.515625 C 96.199219 308.34375 94.101562 308.644531 91.894531 308.402344 C 90.007812 308.195312 88.667969 308.367188 88.910156 308.757812 C 89.546875 309.789062 88.339844 309.601562 85.847656 308.300781 C 84.574219 307.636719 83.570312 307.488281 83.417969 307.949219 C 83.273438 308.378906 82.492188 308.480469 81.695312 308.175781 C 80.351562 307.660156 80.386719 307.488281 82.050781 305.71875 Z M 102.648438 304.707031 C 102.820312 304.707031 102.984375 304.710938 103.128906 304.757812 C 103.734375 304.960938 103.363281 305.332031 102.269531 305.617188 C 100.921875 305.972656 100.605469 305.867188 101.207031 305.265625 C 101.558594 304.910156 102.136719 304.710938 102.648438 304.707031 Z M 94.425781 338.09375 C 94.714844 338.046875 94.929688 338.222656 94.929688 338.578125 C 94.929688 339.046875 94.566406 339.4375 94.121094 339.4375 C 93.082031 339.4375 93.082031 338.863281 94.121094 338.222656 C 94.234375 338.152344 94.328125 338.113281 94.425781 338.09375 Z M 94.425781 338.09375 " fill-opacity="1" fill-rule="nonzero"/></g><g fill="#000000" fill-opacity="1"><g transform="translate(26.449406, 383.405353)"><g><path d="M 2.3125 -4.828125 L 2.3125 -1.65625 L 0.78125 -1.65625 C 0.75 -2.539062 0.535156 -3.203125 0.140625 -3.640625 C -0.242188 -4.078125 -0.832031 -4.296875 -1.625 -4.296875 C -2.695312 -4.296875 -3.441406 -3.957031 -3.859375 -3.28125 C -4.285156 -2.613281 -4.5 -1.300781 -4.5 0.65625 L -4.5 18.671875 L -1.375 18.671875 L -1.375 20.109375 L -9.796875 20.109375 L -9.796875 18.671875 L -7.234375 18.671875 L -7.234375 0.546875 C -7.234375 -1.671875 -6.785156 -3.269531 -5.890625 -4.25 C -5.003906 -5.238281 -3.578125 -5.734375 -1.609375 -5.734375 C -0.960938 -5.734375 -0.3125 -5.65625 0.34375 -5.5 C 1 -5.351562 1.65625 -5.128906 2.3125 -4.828125 Z M 2.3125 -4.828125 "/></g></g></g><g fill="#000000" fill-opacity="1"><g transform="translate(29.602943, 345.455095)"><g><path d="M -11.3125 1.046875 C -13.519531 1.046875 -15.179688 1.800781 -16.296875 3.3125 C -17.421875 4.832031 -17.984375 7.070312 -17.984375 10.03125 C -17.984375 13.007812 -17.421875 15.253906 -16.296875 16.765625 C -15.179688 18.273438 -13.519531 19.03125 -11.3125 19.03125 C -9.101562 19.03125 -7.4375 18.273438 -6.3125 16.765625 C -5.195312 15.253906 -4.640625 13.007812 -4.640625 10.03125 C -4.640625 7.070312 -5.195312 4.832031 -6.3125 3.3125 C -7.4375 1.800781 -9.101562 1.046875 -11.3125 1.046875 Z M -11.3125 -0.390625 C -9.945312 -0.390625 -8.691406 -0.164062 -7.546875 0.28125 C -6.398438 0.726562 -5.394531 1.390625 -4.53125 2.265625 C -3.519531 3.265625 -2.769531 4.398438 -2.28125 5.671875 C -1.789062 6.953125 -1.546875 8.40625 -1.546875 10.03125 C -1.546875 11.65625 -1.789062 13.109375 -2.28125 14.390625 C -2.769531 15.671875 -3.519531 16.816406 -4.53125 17.828125 C -5.40625 18.703125 -6.410156 19.363281 -7.546875 19.8125 C -8.679688 20.257812 -9.9375 20.484375 -11.3125 20.484375 C -14.238281 20.484375 -16.597656 19.523438 -18.390625 17.609375 C -20.191406 15.691406 -21.09375 13.164062 -21.09375 10.03125 C -21.09375 8.425781 -20.84375 6.976562 -20.34375 5.6875 C -19.851562 4.40625 -19.101562 3.265625 -18.09375 2.265625 C -17.21875 1.378906 -16.210938 0.710938 -15.078125 0.265625 C -13.941406 -0.171875 -12.6875 -0.390625 -11.3125 -0.390625 Z M -11.3125 -0.390625 "/></g></g></g><g fill="#000000" fill-opacity="1"><g transform="translate(29.602943, 307.504837)"><g><path d="M -1.515625 0 L -1.515625 1.421875 L -4.078125 1.421875 L -4.078125 18.671875 L -1.515625 18.671875 L -1.515625 20.109375 L -9.375 20.109375 L -9.375 18.671875 L -6.8125 18.671875 L -6.8125 11.0625 L -15.484375 18.671875 L -13.296875 18.671875 L -13.296875 20.109375 L -19.984375 20.109375 L -19.984375 18.671875 L -17.71875 18.671875 L -9.078125 11.09375 L -18.734375 1.421875 L -21.03125 1.421875 L -21.03125 0 L -16.359375 0 L -6.8125 9.546875 L -6.8125 1.421875 L -9.375 1.421875 L -9.375 0 Z M -1.515625 0 "/></g></g></g><g fill="#000000" fill-opacity="1"><g transform="translate(29.602943, 269.554579)"><g><path d="M -1.515625 0 L -1.515625 1.421875 L -4.078125 1.421875 L -4.078125 18.671875 L -1.515625 18.671875 L -1.515625 20.109375 L -17.71875 20.109375 L -17.71875 15.640625 L -16.0625 15.640625 L -16.0625 18.453125 L -6.8125 18.453125 L -6.8125 11.71875 L -13.40625 11.71875 L -13.40625 14.234375 L -15.0625 14.234375 L -15.0625 7.5625 L -13.40625 7.5625 L -13.40625 10.078125 L -6.8125 10.078125 L -6.8125 1.65625 L -16.28125 1.65625 L -16.28125 4.46875 L -17.9375 4.46875 L -17.9375 0 Z M -1.515625 0 "/></g></g></g><g fill="#000000" fill-opacity="1"><g transform="translate(29.602943, 231.604321)"><g><path d="M -13.21875 9.984375 C -13.84375 9.816406 -14.378906 9.523438 -14.828125 9.109375 C -15.285156 8.703125 -15.695312 8.128906 -16.0625 7.390625 L -18.984375 1.421875 L -21.4375 1.421875 L -21.4375 0 L -16.6875 0 L -13.546875 6.40625 C -12.953125 7.644531 -12.398438 8.441406 -11.890625 8.796875 C -11.390625 9.160156 -10.703125 9.34375 -9.828125 9.34375 L -6.8125 9.34375 L -6.8125 1.421875 L -9.65625 1.421875 L -9.65625 0 L -1.515625 0 L -1.515625 1.421875 L -4.078125 1.421875 L -4.078125 18.671875 L -1.515625 18.671875 L -1.515625 20.109375 L -11.71875 20.109375 C -13.675781 20.109375 -15.1875 19.640625 -16.25 18.703125 C -17.320312 17.773438 -17.859375 16.453125 -17.859375 14.734375 C -17.859375 13.359375 -17.46875 12.269531 -16.6875 11.46875 C -15.90625 10.675781 -14.75 10.179688 -13.21875 9.984375 Z M -6.8125 10.796875 L -10.796875 10.796875 C -12.148438 10.796875 -13.148438 11.113281 -13.796875 11.75 C -14.441406 12.394531 -14.765625 13.390625 -14.765625 14.734375 C -14.765625 16.085938 -14.441406 17.082031 -13.796875 17.71875 C -13.148438 18.351562 -12.148438 18.671875 -10.796875 18.671875 L -6.8125 18.671875 Z M -6.8125 10.796875 "/></g></g></g><g fill="#000000" fill-opacity="1"><g transform="translate(269.157209, 66.974242)"><g><path d="M -2.3125 4.828125 L -2.3125 1.65625 L -0.78125 1.65625 C -0.75 2.539062 -0.535156 3.203125 -0.140625 3.640625 C 0.242188 4.078125 0.832031 4.296875 1.625 4.296875 C 2.695312 4.296875 3.441406 3.957031 3.859375 3.28125 C 4.285156 2.613281 4.5 1.300781 4.5 -0.65625 L 4.5 -18.671875 L 1.375 -18.671875 L 1.375 -20.109375 L 9.796875 -20.109375 L 9.796875 -18.671875 L 7.234375 -18.671875 L 7.234375 -0.546875 C 7.234375 1.671875 6.785156 3.269531 5.890625 4.25 C 5.003906 5.238281 3.578125 5.734375 1.609375 5.734375 C 0.960938 5.734375 0.3125 5.65625 -0.34375 5.5 C -1 5.351562 -1.65625 5.128906 -2.3125 4.828125 Z M -2.3125 4.828125 "/></g></g></g><g fill="#000000" fill-opacity="1"><g transform="translate(266.003672, 104.9245)"><g><path d="M 11.3125 -1.046875 C 13.519531 -1.046875 15.179688 -1.800781 16.296875 -3.3125 C 17.421875 -4.832031 17.984375 -7.070312 17.984375 -10.03125 C 17.984375 -13.007812 17.421875 -15.253906 16.296875 -16.765625 C 15.179688 -18.273438 13.519531 -19.03125 11.3125 -19.03125 C 9.101562 -19.03125 7.4375 -18.273438 6.3125 -16.765625 C 5.195312 -15.253906 4.640625 -13.007812 4.640625 -10.03125 C 4.640625 -7.070312 5.195312 -4.832031 6.3125 -3.3125 C 7.4375 -1.800781 9.101562 -1.046875 11.3125 -1.046875 Z M 11.3125 0.390625 C 9.945312 0.390625 8.691406 0.164062 7.546875 -0.28125 C 6.398438 -0.726562 5.394531 -1.390625 4.53125 -2.265625 C 3.519531 -3.265625 2.769531 -4.398438 2.28125 -5.671875 C 1.789062 -6.953125 1.546875 -8.40625 1.546875 -10.03125 C 1.546875 -11.65625 1.789062 -13.109375 2.28125 -14.390625 C 2.769531 -15.671875 3.519531 -16.816406 4.53125 -17.828125 C 5.40625 -18.703125 6.410156 -19.363281 7.546875 -19.8125 C 8.679688 -20.257812 9.9375 -20.484375 11.3125 -20.484375 C 14.238281 -20.484375 16.597656 -19.523438 18.390625 -17.609375 C 20.191406 -15.691406 21.09375 -13.164062 21.09375 -10.03125 C 21.09375 -8.425781 20.84375 -6.976562 20.34375 -5.6875 C 19.851562 -4.40625 19.101562 -3.265625 18.09375 -2.265625 C 17.21875 -1.378906 16.210938 -0.710938 15.078125 -0.265625 C 13.941406 0.171875 12.6875 0.390625 11.3125 0.390625 Z M 11.3125 0.390625 "/></g></g></g><g fill="#000000" fill-opacity="1"><g transform="translate(266.003672, 142.874758)"><g><path d="M 1.515625 0 L 1.515625 -1.421875 L 4.078125 -1.421875 L 4.078125 -18.671875 L 1.515625 -18.671875 L 1.515625 -20.109375 L 9.375 -20.109375 L 9.375 -18.671875 L 6.8125 -18.671875 L 6.8125 -11.0625 L 15.484375 -18.671875 L 13.296875 -18.671875 L 13.296875 -20.109375 L 19.984375 -20.109375 L 19.984375 -18.671875 L 17.71875 -18.671875 L 9.078125 -11.09375 L 18.734375 -1.421875 L 21.03125 -1.421875 L 21.03125 0 L 16.359375 0 L 6.8125 -9.546875 L 6.8125 -1.421875 L 9.375 -1.421875 L 9.375 0 Z M 1.515625 0 "/></g></g></g><g fill="#000000" fill-opacity="1"><g transform="translate(266.003672, 180.825016)"><g><path d="M 1.515625 0 L 1.515625 -1.421875 L 4.078125 -1.421875 L 4.078125 -18.671875 L 1.515625 -18.671875 L 1.515625 -20.109375 L 17.71875 -20.109375 L 17.71875 -15.640625 L 16.0625 -15.640625 L 16.0625 -18.453125 L 6.8125 -18.453125 L 6.8125 -11.71875 L 13.40625 -11.71875 L 13.40625 -14.234375 L 15.0625 -14.234375 L 15.0625 -7.5625 L 13.40625 -7.5625 L 13.40625 -10.078125 L 6.8125 -10.078125 L 6.8125 -1.65625 L 16.28125 -1.65625 L 16.28125 -4.46875 L 17.9375 -4.46875 L 17.9375 0 Z M 1.515625 0 "/></g></g></g><g fill="#000000" fill-opacity="1"><g transform="translate(266.003672, 218.775274)"><g><path d="M 13.21875 -9.984375 C 13.84375 -9.816406 14.378906 -9.523438 14.828125 -9.109375 C 15.285156 -8.703125 15.695312 -8.128906 16.0625 -7.390625 L 18.984375 -1.421875 L 21.4375 -1.421875 L 21.4375 0 L 16.6875 0 L 13.546875 -6.40625 C 12.953125 -7.644531 12.398438 -8.441406 11.890625 -8.796875 C 11.390625 -9.160156 10.703125 -9.34375 9.828125 -9.34375 L 6.8125 -9.34375 L 6.8125 -1.421875 L 9.65625 -1.421875 L 9.65625 0 L 1.515625 0 L 1.515625 -1.421875 L 4.078125 -1.421875 L 4.078125 -18.671875 L 1.515625 -18.671875 L 1.515625 -20.109375 L 11.71875 -20.109375 C 13.675781 -20.109375 15.1875 -19.640625 16.25 -18.703125 C 17.320312 -17.773438 17.859375 -16.453125 17.859375 -14.734375 C 17.859375 -13.359375 17.46875 -12.269531 16.6875 -11.46875 C 15.90625 -10.675781 14.75 -10.179688 13.21875 -9.984375 Z M 6.8125 -10.796875 L 10.796875 -10.796875 C 12.148438 -10.796875 13.148438 -11.113281 13.796875 -11.75 C 14.441406 -12.394531 14.765625 -13.390625 14.765625 -14.734375 C 14.765625 -16.085938 14.441406 -17.082031 13.796875 -17.71875 C 13.148438 -18.351562 12.148438 -18.671875 10.796875 -18.671875 L 6.8125 -18.671875 Z M 6.8125 -10.796875 "/></g></g></g></svg>