<svg xmlns="http://www.w3.org/2000/svg" xmlns:xlink="http://www.w3.org/1999/xlink" width="396" zoomAndPan="magnify" viewBox="0 0 297.12 419.249996" height="559" preserveAspectRatio="xMidYMid meet" version="1.0"><defs><g/><clipPath id="954e3f57dc"><path d="M 0 0.246094 L 296.238281 0.246094 L 296.238281 417.367188 L 0 417.367188 Z M 0 0.246094 " clip-rule="nonzero"/></clipPath><clipPath id="2f9bccfd88"><path d="M 30.636719 45.234375 L 266.433594 45.234375 L 266.433594 380.753906 L 30.636719 380.753906 Z M 30.636719 45.234375 " clip-rule="nonzero"/></clipPath><clipPath id="a058790f80"><path d="M 68 78.597656 L 74.253906 78.597656 L 74.253906 84.371094 L 68 84.371094 Z M 68 78.597656 " clip-rule="nonzero"/></clipPath><clipPath id="79217312b5"><path d="M 71.335938 78.671875 C 73.574219 79.714844 74.171875 80.835938 74.171875 81.65625 C 74.097656 82.402344 73.425781 83.445312 72.828125 83.894531 C 72.15625 84.265625 70.886719 84.339844 70.21875 84.042969 C 69.472656 83.667969 68.722656 82.699219 68.574219 81.953125 C 68.5 81.207031 68.875 80.011719 69.472656 79.417969 C 69.992188 78.894531 71.1875 78.597656 71.933594 78.746094 C 72.679688 78.894531 73.648438 79.714844 73.949219 80.460938 C 74.246094 81.132812 74.171875 82.402344 73.648438 83.074219 C 73.128906 83.746094 71.558594 84.339844 70.664062 84.339844 C 69.992188 84.265625 69.246094 83.894531 68.875 83.445312 C 68.425781 83.074219 68.054688 82.253906 68.054688 81.65625 C 67.976562 80.984375 68.203125 80.238281 68.648438 79.714844 C 69.023438 79.265625 70.367188 78.671875 70.367188 78.671875 " clip-rule="nonzero"/></clipPath><clipPath id="4c1a280715"><path d="M 73.109375 71 L 78.890625 71 L 78.890625 76.839844 L 73.109375 76.839844 Z M 73.109375 71 " clip-rule="nonzero"/></clipPath><clipPath id="9379f3fc41"><path d="M 73.203125 73.820312 C 75.066406 71.058594 76.335938 70.984375 77.007812 71.207031 C 77.753906 71.507812 78.574219 72.476562 78.722656 73.222656 C 78.871094 73.96875 78.574219 75.238281 78.050781 75.761719 C 77.453125 76.355469 76.335938 76.730469 75.515625 76.582031 C 74.769531 76.507812 73.796875 75.6875 73.425781 75.015625 C 73.128906 74.34375 73.203125 73.074219 73.574219 72.402344 C 74.023438 71.730469 75.140625 71.132812 75.8125 71.058594 C 76.410156 70.984375 77.082031 71.132812 77.53125 71.507812 C 78.125 71.953125 78.796875 73.074219 78.796875 73.820312 C 78.796875 74.640625 78.277344 75.6875 77.679688 76.207031 C 77.230469 76.65625 76.410156 76.804688 75.8125 76.804688 C 75.140625 76.730469 74.394531 76.355469 74.023438 75.910156 C 73.574219 75.460938 73.203125 74.117188 73.203125 74.117188 " clip-rule="nonzero"/></clipPath><clipPath id="4763f47c9e"><path d="M 61 69.582031 L 84.492188 69.582031 L 84.492188 116.609375 L 61 116.609375 Z M 61 69.582031 " clip-rule="nonzero"/></clipPath><clipPath id="e1c218e329"><path d="M 69.84375 88.894531 C 81.1875 70.238281 82.15625 69.640625 82.828125 69.867188 C 83.5 70.015625 84.246094 70.835938 84.320312 72.027344 C 84.46875 76.058594 73.277344 92.175781 69.917969 99.636719 C 67.828125 104.414062 66.039062 108.890625 65.441406 111.800781 C 65.066406 113.292969 65.664062 114.636719 65.144531 115.382812 C 64.769531 115.980469 63.949219 116.578125 63.351562 116.503906 C 62.753906 116.429688 61.933594 115.757812 61.636719 114.785156 C 60.664062 111.578125 65.589844 97.921875 66.335938 92.175781 C 66.785156 88.667969 65.738281 84.640625 66.710938 83.667969 C 67.308594 83.148438 68.351562 83.148438 69.023438 83.519531 C 70.140625 84.117188 71.933594 87.101562 72.007812 88.222656 C 72.007812 88.96875 71.558594 89.566406 71.039062 89.9375 C 70.589844 90.238281 69.695312 90.3125 69.171875 90.085938 C 68.648438 89.789062 67.976562 88.59375 67.976562 87.921875 C 67.976562 87.402344 68.574219 86.65625 69.097656 86.429688 C 69.695312 86.132812 70.964844 86.429688 71.484375 86.878906 C 71.859375 87.25 72.082031 88.148438 71.933594 88.667969 C 71.785156 89.191406 71.1875 89.9375 70.664062 90.085938 C 70.066406 90.3125 69.097656 90.011719 68.351562 89.414062 C 67.15625 88.445312 65.292969 85.386719 65.144531 83.746094 C 65.066406 82.550781 65.664062 81.058594 66.410156 80.609375 C 67.082031 80.238281 68.574219 80.3125 69.246094 80.910156 C 70.21875 81.804688 70.441406 84.265625 70.515625 87.101562 C 70.515625 92.996094 66.785156 111.652344 65.292969 114.933594 C 64.917969 115.757812 64.695312 116.128906 64.246094 116.277344 C 63.726562 116.503906 62.679688 116.351562 62.15625 115.980469 C 61.710938 115.53125 61.488281 114.785156 61.488281 113.742188 C 61.5625 110.90625 64.320312 103.890625 66.785156 97.996094 C 70.140625 90.011719 77.679688 73.222656 80.738281 70.613281 C 81.558594 69.867188 82.304688 69.640625 82.828125 69.867188 C 83.5 70.089844 84.320312 71.132812 84.320312 72.027344 C 84.246094 73.523438 81.632812 75.6875 80.140625 78.148438 C 78.050781 81.65625 75.515625 89.863281 73.351562 91.355469 C 72.382812 92.027344 71.039062 92.101562 70.441406 91.730469 C 69.84375 91.28125 69.84375 88.894531 69.84375 88.894531 " clip-rule="nonzero"/></clipPath><clipPath id="3d1eb70278"><path d="M 70 73.660156 L 80 73.660156 L 80 99.289062 L 70 99.289062 Z M 70 73.660156 " clip-rule="nonzero"/></clipPath><clipPath id="a7d1da9fd8"><path d="M 74.84375 75.761719 C 75.738281 86.355469 75.960938 95.011719 74.917969 97.472656 C 74.542969 98.445312 73.949219 99.117188 73.277344 99.191406 C 72.605469 99.265625 71.335938 98.742188 70.964844 97.847656 C 70.140625 95.980469 73.128906 90.085938 73.5 86.730469 C 73.796875 83.96875 72.828125 80.757812 73.425781 79.191406 C 73.796875 78.296875 74.46875 77.625 75.066406 77.402344 C 75.515625 77.253906 76.113281 77.328125 76.484375 77.550781 C 77.007812 77.847656 77.304688 78.296875 77.605469 79.191406 C 78.574219 81.878906 80.140625 94.191406 79.320312 96.726562 C 79.097656 97.550781 78.648438 97.996094 78.125 98.144531 C 77.457031 98.371094 76.1875 97.921875 75.738281 97.472656 C 75.367188 97.027344 75.214844 96.132812 75.441406 95.609375 C 75.738281 95.011719 76.859375 94.265625 77.53125 94.265625 C 78.125 94.265625 78.871094 94.714844 79.097656 95.234375 C 79.394531 95.832031 79.246094 97.175781 78.796875 97.699219 C 78.425781 98.144531 77.53125 98.445312 77.007812 98.296875 C 76.410156 98.070312 75.8125 97.472656 75.367188 96.429688 C 74.097656 93.742188 72.382812 81.878906 73.425781 79.191406 C 73.875 78.074219 74.84375 77.402344 75.515625 77.328125 C 76.113281 77.253906 76.859375 77.699219 77.230469 78.222656 C 77.753906 78.96875 77.828125 80.238281 77.828125 81.730469 C 77.902344 84.117188 77.457031 88.296875 76.785156 91.28125 C 76.1875 93.96875 75.441406 97.847656 74.171875 98.742188 C 73.5 99.265625 72.457031 99.265625 71.859375 98.96875 C 71.335938 98.667969 70.964844 98.070312 70.8125 97.175781 C 70.367188 95.308594 71.484375 91.207031 71.410156 87.921875 C 71.335938 84.117188 69.769531 77.925781 70.140625 75.835938 C 70.292969 75.089844 70.515625 74.714844 70.886719 74.34375 C 71.261719 73.96875 71.933594 73.746094 72.457031 73.671875 C 72.976562 73.671875 73.648438 73.894531 74.023438 74.269531 C 74.46875 74.640625 74.84375 75.761719 74.84375 75.761719 " clip-rule="nonzero"/></clipPath><clipPath id="7586583cce"><path d="M 69.417969 76.367188 L 85.8125 76.367188 L 85.8125 124.683594 L 69.417969 124.683594 Z M 69.417969 76.367188 " clip-rule="nonzero"/></clipPath><clipPath id="cb03ce89e7"><path d="M 85.589844 79.566406 C 76.335938 110.085938 74.769531 120.308594 73.351562 122.996094 C 72.902344 123.816406 72.605469 124.1875 72.15625 124.410156 C 71.785156 124.5625 71.261719 124.636719 70.886719 124.410156 C 70.367188 124.1875 69.546875 123.144531 69.472656 122.546875 C 69.472656 122.023438 69.917969 121.203125 70.367188 120.90625 C 70.8125 120.605469 71.710938 120.53125 72.230469 120.753906 C 72.753906 121.054688 73.351562 122.25 73.425781 122.84375 C 73.425781 123.21875 73.203125 123.664062 72.828125 123.964844 C 72.457031 124.261719 71.632812 124.5625 71.113281 124.488281 C 70.664062 124.488281 70.292969 124.1875 69.992188 123.890625 C 69.695312 123.515625 69.546875 123.070312 69.546875 122.097656 C 69.472656 119.039062 72.230469 108.890625 74.023438 101.953125 C 76.039062 94.339844 79.46875 81.207031 81.035156 78.222656 C 81.410156 77.402344 81.632812 77.101562 82.082031 76.878906 C 82.527344 76.582031 83.199219 76.433594 83.722656 76.507812 C 84.320312 76.65625 85.214844 77.328125 85.515625 77.925781 C 85.738281 78.371094 85.589844 79.566406 85.589844 79.566406 " clip-rule="nonzero"/></clipPath><clipPath id="bede487fad"><path d="M 64.839844 79.382812 L 81.652344 79.382812 L 81.652344 110.988281 L 64.839844 110.988281 Z M 64.839844 79.382812 " clip-rule="nonzero"/></clipPath><clipPath id="c9fdcbb12b"><path d="M 81.261719 82.921875 C 68.425781 110.234375 68.351562 110.457031 67.902344 110.609375 C 67.457031 110.832031 66.484375 110.90625 65.964844 110.609375 C 65.515625 110.382812 64.917969 109.636719 64.917969 109.039062 C 64.84375 108.367188 65.589844 107.175781 66.1875 106.875 C 66.636719 106.652344 67.605469 106.726562 68.054688 107.101562 C 68.574219 107.472656 69.023438 108.816406 68.875 109.414062 C 68.800781 109.859375 68.5 110.234375 68.128906 110.457031 C 67.679688 110.757812 66.710938 110.832031 66.1875 110.683594 C 65.738281 110.609375 65.367188 110.234375 65.21875 109.859375 C 64.917969 109.414062 64.917969 108.890625 65.066406 107.921875 C 65.738281 104.117188 74.695312 84.042969 76.785156 80.910156 C 77.304688 80.164062 77.53125 79.9375 78.050781 79.714844 C 78.574219 79.492188 79.246094 79.417969 79.769531 79.640625 C 80.367188 79.863281 81.1875 80.609375 81.410156 81.207031 C 81.632812 81.730469 81.261719 83 81.261719 83 " clip-rule="nonzero"/></clipPath><clipPath id="a0c1a251c7"><path d="M 64 77.242188 L 72.652344 77.242188 L 72.652344 98.554688 L 64 98.554688 Z M 64 77.242188 " clip-rule="nonzero"/></clipPath><clipPath id="5029a94768"><path d="M 72.605469 80.460938 C 67.605469 98.070312 67.308594 98.21875 66.933594 98.371094 C 66.335938 98.519531 65.367188 98.445312 64.917969 98.070312 C 64.398438 97.625 63.949219 96.28125 64.171875 95.609375 C 64.398438 95.011719 65.664062 94.265625 66.335938 94.265625 C 66.933594 94.265625 67.753906 94.789062 67.976562 95.308594 C 68.277344 95.90625 68.128906 97.324219 67.679688 97.847656 C 67.308594 98.296875 66.335938 98.519531 65.738281 98.445312 C 65.292969 98.371094 64.84375 98.144531 64.621094 97.773438 C 64.246094 97.324219 64.097656 96.804688 64.097656 95.832031 C 64.097656 93.070312 66.710938 81.730469 67.753906 79.265625 C 68.128906 78.445312 68.277344 78.074219 68.800781 77.773438 C 69.246094 77.476562 69.917969 77.253906 70.515625 77.328125 C 71.039062 77.402344 71.710938 77.699219 72.082031 78.148438 C 72.457031 78.671875 72.605469 80.460938 72.605469 80.460938 " clip-rule="nonzero"/></clipPath><clipPath id="590694b2b1"><path d="M 185.378906 338.519531 L 205.855469 338.519531 L 205.855469 353.835938 L 185.378906 353.835938 Z M 185.378906 338.519531 " clip-rule="nonzero"/></clipPath><clipPath id="d1b7b74774"><path d="M 186.625 349.089844 C 203.785156 338.570312 204.085938 338.644531 204.457031 338.867188 C 204.980469 339.09375 205.652344 339.765625 205.726562 340.359375 C 205.800781 341.03125 205.203125 342.375 204.605469 342.675781 C 204.011719 342.972656 202.59375 342.675781 202.144531 342.226562 C 201.695312 341.851562 201.398438 340.882812 201.621094 340.359375 C 201.769531 339.691406 202.890625 338.792969 203.5625 338.71875 C 204.160156 338.644531 204.980469 339.167969 205.351562 339.539062 C 205.652344 339.914062 205.800781 340.359375 205.800781 340.808594 C 205.726562 341.40625 205.503906 341.851562 204.832031 342.601562 C 202.816406 344.839844 191.996094 352.152344 189.382812 353.269531 C 188.5625 353.644531 188.191406 353.792969 187.667969 353.644531 C 186.996094 353.570312 186.101562 352.898438 185.726562 352.300781 C 185.429688 351.777344 185.429688 351.105469 185.578125 350.507812 C 185.726562 349.988281 186.625 349.089844 186.625 349.089844 " clip-rule="nonzero"/></clipPath><clipPath id="5d0df27e53"><path d="M 199.597656 336.675781 L 205.546875 336.675781 L 205.546875 342.535156 L 199.597656 342.535156 Z M 199.597656 336.675781 " clip-rule="nonzero"/></clipPath><clipPath id="e49b5a6c00"><path d="M 200.949219 337.300781 C 204.308594 337.226562 205.128906 338.121094 205.351562 338.867188 C 205.503906 339.613281 205.203125 340.882812 204.679688 341.40625 C 204.160156 342.003906 202.964844 342.449219 202.21875 342.300781 C 201.472656 342.226562 200.429688 341.480469 200.128906 340.808594 C 199.757812 340.136719 199.832031 338.867188 200.203125 338.195312 C 200.578125 337.527344 201.621094 336.855469 202.367188 336.777344 C 203.1875 336.703125 204.308594 337.300781 204.757812 337.824219 C 205.203125 338.273438 205.425781 338.867188 205.425781 339.464844 C 205.351562 340.210938 204.832031 341.332031 204.234375 341.851562 C 203.710938 342.300781 202.964844 342.523438 202.367188 342.523438 C 201.769531 342.523438 200.949219 342.226562 200.503906 341.777344 C 199.980469 341.257812 199.605469 340.0625 199.605469 339.316406 C 199.683594 338.644531 200.578125 337.527344 200.578125 337.527344 " clip-rule="nonzero"/></clipPath><clipPath id="057ddc0769"><path d="M 228.484375 315 L 236.851562 315 L 236.851562 320.914062 L 228.484375 320.914062 Z M 228.484375 315 " clip-rule="nonzero"/></clipPath><clipPath id="bf4748d99b"><path d="M 233.632812 320.886719 C 229.378906 319.765625 228.785156 318.796875 228.632812 318.125 C 228.484375 317.527344 228.632812 316.855469 228.933594 316.332031 C 229.230469 315.886719 229.679688 315.363281 230.277344 315.214844 C 230.949219 314.992188 232.214844 314.992188 232.8125 315.4375 C 233.484375 315.8125 234.082031 316.929688 234.082031 317.675781 C 234.082031 318.421875 233.484375 319.542969 232.960938 319.988281 C 232.515625 320.363281 231.769531 320.511719 231.246094 320.511719 C 230.722656 320.4375 230.050781 320.289062 229.605469 319.839844 C 229.082031 319.394531 228.558594 318.273438 228.558594 317.527344 C 228.632812 316.707031 229.230469 315.738281 229.976562 315.363281 C 230.949219 314.765625 233.335938 315.066406 234.453125 315.363281 C 235.125 315.585938 235.722656 315.8125 236.171875 316.332031 C 236.542969 316.929688 236.84375 318.125 236.691406 318.871094 C 236.542969 319.46875 236.023438 320.066406 235.574219 320.4375 C 235.050781 320.734375 233.632812 320.886719 233.632812 320.886719 " clip-rule="nonzero"/></clipPath><clipPath id="4f758b29a3"><path d="M 14.5625 45.058594 L 50.378906 45.058594 L 50.378906 80.875 L 14.5625 80.875 Z M 14.5625 45.058594 " clip-rule="nonzero"/></clipPath><clipPath id="d7963b7081"><path d="M 248.433594 344.933594 L 284.25 344.933594 L 284.25 380.410156 L 248.433594 380.410156 Z M 248.433594 344.933594 " clip-rule="nonzero"/></clipPath><clipPath id="7f1b252611"><path d="M 253.804688 45.265625 L 279.175781 45.265625 L 279.175781 70.636719 L 253.804688 70.636719 Z M 253.804688 45.265625 " clip-rule="nonzero"/></clipPath><clipPath id="e660a05fe6"><path d="M 19.933594 355.667969 L 45.304688 355.667969 L 45.304688 380.992188 L 19.933594 380.992188 Z M 19.933594 355.667969 " clip-rule="nonzero"/></clipPath><clipPath id="e022ab61b7"><path d="M 39.214844 146.21875 L 256 146.21875 L 256 271.582031 L 39.214844 271.582031 Z M 39.214844 146.21875 " clip-rule="nonzero"/></clipPath></defs><g clip-path="url(#954e3f57dc)"><path fill="#ffffff" d="M 0 0.246094 L 296.238281 0.246094 L 296.238281 417.367188 L 0 417.367188 Z M 0 0.246094 " fill-opacity="1" fill-rule="nonzero"/><path fill="#ffffff" d="M 0 0.246094 L 296.238281 0.246094 L 296.238281 417.367188 L 0 417.367188 Z M 0 0.246094 " fill-opacity="1" fill-rule="nonzero"/></g><g fill="#010101" fill-opacity="1"><g transform="translate(277.20821, 387.070532)"><g><path d="M -14.328125 -0.484375 C -10.535156 -0.484375 -7.515625 0.675781 -5.265625 3 C -3.023438 5.332031 -1.90625 8.453125 -1.90625 12.359375 C -1.90625 14.359375 -2.207031 16.144531 -2.8125 17.71875 C -3.414062 19.300781 -4.335938 20.707031 -5.578125 21.9375 C -6.660156 23.019531 -7.894531 23.835938 -9.28125 24.390625 C -10.675781 24.941406 -12.226562 25.21875 -13.9375 25.21875 C -17.53125 25.21875 -20.429688 24.035156 -22.640625 21.671875 C -24.847656 19.316406 -25.953125 16.210938 -25.953125 12.359375 C -25.953125 9.085938 -25.125 6.335938 -23.46875 4.109375 C -21.8125 1.878906 -19.523438 0.441406 -16.609375 -0.203125 C -17.203125 -0.941406 -17.925781 -1.488281 -18.78125 -1.84375 C -19.632812 -2.195312 -20.664062 -2.375 -21.875 -2.375 L -22.390625 -2.375 L -22.390625 -5.4375 C -20.523438 -5.351562 -18.925781 -4.898438 -17.59375 -4.078125 C -16.257812 -3.253906 -15.171875 -2.054688 -14.328125 -0.484375 Z M -13.9375 1.296875 C -16.644531 1.296875 -18.6875 2.226562 -20.0625 4.09375 C -21.445312 5.957031 -22.140625 8.710938 -22.140625 12.359375 C -22.140625 16.015625 -21.445312 18.773438 -20.0625 20.640625 C -18.6875 22.503906 -16.644531 23.4375 -13.9375 23.4375 C -11.21875 23.4375 -9.164062 22.503906 -7.78125 20.640625 C -6.394531 18.773438 -5.703125 16.015625 -5.703125 12.359375 C -5.703125 8.710938 -6.394531 5.957031 -7.78125 4.09375 C -9.164062 2.226562 -11.21875 1.296875 -13.9375 1.296875 Z M -13.9375 1.296875 "/></g></g></g><g fill="#010101" fill-opacity="1"><g transform="translate(38.105568, 386.622898)"><g><path d="M -10.015625 -0.34375 C -7.359375 -0.34375 -5.242188 0.46875 -3.671875 2.09375 C -2.109375 3.726562 -1.328125 5.910156 -1.328125 8.640625 C -1.328125 10.035156 -1.535156 11.28125 -1.953125 12.375 C -2.378906 13.476562 -3.023438 14.460938 -3.890625 15.328125 C -4.648438 16.085938 -5.515625 16.65625 -6.484375 17.03125 C -7.460938 17.414062 -8.546875 17.609375 -9.734375 17.609375 C -12.242188 17.609375 -14.269531 16.785156 -15.8125 15.140625 C -17.363281 13.492188 -18.140625 11.328125 -18.140625 8.640625 C -18.140625 6.347656 -17.554688 4.421875 -16.390625 2.859375 C -15.234375 1.304688 -13.632812 0.304688 -11.59375 -0.140625 C -12.007812 -0.660156 -12.515625 -1.039062 -13.109375 -1.28125 C -13.710938 -1.53125 -14.4375 -1.65625 -15.28125 -1.65625 L -15.640625 -1.65625 L -15.640625 -3.796875 C -14.335938 -3.734375 -13.21875 -3.414062 -12.28125 -2.84375 C -11.351562 -2.269531 -10.597656 -1.4375 -10.015625 -0.34375 Z M -9.734375 0.90625 C -11.628906 0.90625 -13.054688 1.554688 -14.015625 2.859375 C -14.984375 4.160156 -15.46875 6.085938 -15.46875 8.640625 C -15.46875 11.191406 -14.984375 13.117188 -14.015625 14.421875 C -13.054688 15.722656 -11.628906 16.375 -9.734375 16.375 C -7.835938 16.375 -6.40625 15.722656 -5.4375 14.421875 C -4.46875 13.117188 -3.984375 11.191406 -3.984375 8.640625 C -3.984375 6.085938 -4.46875 4.160156 -5.4375 2.859375 C -6.40625 1.554688 -7.835938 0.90625 -9.734375 0.90625 Z M -9.734375 0.90625 "/></g></g></g><g fill="#010101" fill-opacity="1"><g transform="translate(259.037789, 39.36722)"><g><path d="M 10.015625 0.34375 C 7.359375 0.34375 5.242188 -0.46875 3.671875 -2.09375 C 2.109375 -3.726562 1.328125 -5.910156 1.328125 -8.640625 C 1.328125 -10.035156 1.535156 -11.28125 1.953125 -12.375 C 2.378906 -13.476562 3.023438 -14.460938 3.890625 -15.328125 C 4.648438 -16.085938 5.515625 -16.65625 6.484375 -17.03125 C 7.460938 -17.414062 8.546875 -17.609375 9.734375 -17.609375 C 12.242188 -17.609375 14.269531 -16.785156 15.8125 -15.140625 C 17.363281 -13.492188 18.140625 -11.328125 18.140625 -8.640625 C 18.140625 -6.347656 17.554688 -4.421875 16.390625 -2.859375 C 15.234375 -1.304688 13.632812 -0.304688 11.59375 0.140625 C 12.007812 0.660156 12.515625 1.039062 13.109375 1.28125 C 13.710938 1.53125 14.4375 1.65625 15.28125 1.65625 L 15.640625 1.65625 L 15.640625 3.796875 C 14.335938 3.734375 13.21875 3.414062 12.28125 2.84375 C 11.351562 2.269531 10.597656 1.4375 10.015625 0.34375 Z M 9.734375 -0.90625 C 11.628906 -0.90625 13.054688 -1.554688 14.015625 -2.859375 C 14.984375 -4.160156 15.46875 -6.085938 15.46875 -8.640625 C 15.46875 -11.191406 14.984375 -13.117188 14.015625 -14.421875 C 13.054688 -15.722656 11.628906 -16.375 9.734375 -16.375 C 7.835938 -16.375 6.40625 -15.722656 5.4375 -14.421875 C 4.46875 -13.117188 3.984375 -11.191406 3.984375 -8.640625 C 3.984375 -6.085938 4.46875 -4.160156 5.4375 -2.859375 C 6.40625 -1.554688 7.835938 -0.90625 9.734375 -0.90625 Z M 9.734375 -0.90625 "/></g></g></g><g fill="#010101" fill-opacity="1"><g transform="translate(19.933967, 37.945607)"><g><path d="M 14.328125 0.484375 C 10.535156 0.484375 7.515625 -0.675781 5.265625 -3 C 3.023438 -5.332031 1.90625 -8.445312 1.90625 -12.34375 C 1.90625 -14.351562 2.207031 -16.144531 2.8125 -17.71875 C 3.414062 -19.289062 4.335938 -20.695312 5.578125 -21.9375 C 6.648438 -23.019531 7.882812 -23.832031 9.28125 -24.375 C 10.675781 -24.925781 12.222656 -25.203125 13.921875 -25.203125 C 17.515625 -25.203125 20.414062 -24.023438 22.625 -21.671875 C 24.84375 -19.316406 25.953125 -16.207031 25.953125 -12.34375 C 25.953125 -9.070312 25.117188 -6.320312 23.453125 -4.09375 C 21.796875 -1.875 19.507812 -0.441406 16.59375 0.203125 C 17.1875 0.941406 17.910156 1.488281 18.765625 1.84375 C 19.628906 2.195312 20.664062 2.375 21.875 2.375 L 22.375 2.375 L 22.375 5.4375 C 20.507812 5.351562 18.910156 4.894531 17.578125 4.0625 C 16.242188 3.238281 15.160156 2.046875 14.328125 0.484375 Z M 13.921875 -1.296875 C 16.628906 -1.296875 18.671875 -2.222656 20.046875 -4.078125 C 21.429688 -5.941406 22.125 -8.695312 22.125 -12.34375 C 22.125 -16.007812 21.429688 -18.769531 20.046875 -20.625 C 18.671875 -22.488281 16.628906 -23.421875 13.921875 -23.421875 C 11.203125 -23.421875 9.148438 -22.488281 7.765625 -20.625 C 6.390625 -18.769531 5.703125 -16.007812 5.703125 -12.34375 C 5.703125 -8.695312 6.390625 -5.941406 7.765625 -4.078125 C 9.148438 -2.222656 11.203125 -1.296875 13.921875 -1.296875 Z M 13.921875 -1.296875 "/></g></g></g><g clip-path="url(#2f9bccfd88)"><path stroke-linecap="butt" transform="matrix(0.746195, 0, 0, 0.746195, 30.637603, 45.234822)" fill="none" stroke-linejoin="miter" d="M -0.00118541 -0.000598774 L 316.102365 -0.000598774 L 316.102365 449.63974 L -0.00118541 449.63974 Z M -0.00118541 -0.000598774 " stroke="#000000" stroke-width="6" stroke-opacity="1" stroke-miterlimit="4"/></g><g clip-path="url(#a058790f80)"><g clip-path="url(#79217312b5)"><path fill="#ffffff" d="M 65.066406 75.6875 L 77.210938 75.6875 L 77.210938 87.328125 L 65.066406 87.328125 Z M 65.066406 75.6875 " fill-opacity="1" fill-rule="nonzero"/></g></g><g clip-path="url(#4c1a280715)"><g clip-path="url(#9379f3fc41)"><path fill="#ffffff" d="M 70.21875 68.074219 L 81.78125 68.074219 L 81.78125 79.777344 L 70.21875 79.777344 Z M 70.21875 68.074219 " fill-opacity="1" fill-rule="nonzero"/></g></g><g clip-path="url(#4763f47c9e)"><g clip-path="url(#e1c218e329)"><path fill="#ffffff" d="M 58.5 66.878906 L 87.304688 66.878906 L 87.304688 119.535156 L 58.5 119.535156 Z M 58.5 66.878906 " fill-opacity="1" fill-rule="nonzero"/></g></g><g clip-path="url(#3d1eb70278)"><g clip-path="url(#a7d1da9fd8)"><path fill="#ffffff" d="M 67.15625 70.6875 L 82.378906 70.6875 L 82.378906 102.199219 L 67.15625 102.199219 Z M 67.15625 70.6875 " fill-opacity="1" fill-rule="nonzero"/></g></g><g clip-path="url(#7586583cce)"><g clip-path="url(#cb03ce89e7)"><path fill="#ffffff" d="M 66.484375 73.523438 L 88.574219 73.523438 L 88.574219 127.445312 L 66.484375 127.445312 Z M 66.484375 73.523438 " fill-opacity="1" fill-rule="nonzero"/></g></g><g clip-path="url(#bede487fad)"><g clip-path="url(#c9fdcbb12b)"><path fill="#ffffff" d="M 61.933594 76.65625 L 84.46875 76.65625 L 84.46875 113.714844 L 61.933594 113.714844 Z M 61.933594 76.65625 " fill-opacity="1" fill-rule="nonzero"/></g></g><g clip-path="url(#a0c1a251c7)"><g clip-path="url(#5029a94768)"><path fill="#ffffff" d="M 61.113281 74.34375 L 75.664062 74.34375 L 75.664062 101.453125 L 61.113281 101.453125 Z M 61.113281 74.34375 " fill-opacity="1" fill-rule="nonzero"/></g></g><g clip-path="url(#590694b2b1)"><g clip-path="url(#d1b7b74774)"><path fill="#ffffff" d="M 182.59375 335.734375 L 208.886719 335.734375 L 208.886719 356.703125 L 182.59375 356.703125 Z M 182.59375 335.734375 " fill-opacity="1" fill-rule="nonzero"/></g></g><g clip-path="url(#5d0df27e53)"><g clip-path="url(#e49b5a6c00)"><path fill="#ffffff" d="M 196.621094 333.792969 L 208.429688 333.792969 L 208.429688 345.507812 L 196.621094 345.507812 Z M 196.621094 333.792969 " fill-opacity="1" fill-rule="nonzero"/></g></g><g clip-path="url(#057ddc0769)"><g clip-path="url(#bf4748d99b)"><path fill="#ffffff" d="M 225.574219 312.230469 L 239.671875 312.230469 L 239.671875 323.871094 L 225.574219 323.871094 Z M 225.574219 312.230469 " fill-opacity="1" fill-rule="nonzero"/></g></g><g clip-path="url(#4f758b29a3)"><path fill="#000000" d="M 32.46875 45.058594 C 28.234375 45.058594 24.796875 48.667969 24.796875 53.117188 C 24.832031 55.914062 26.277344 58.28125 27.78125 60.53125 C 26.105469 59.265625 24.242188 58.496094 22.238281 58.488281 C 18 58.488281 14.5625 62.097656 14.5625 66.546875 C 14.5625 70.996094 18 74.605469 22.238281 74.605469 C 25.667969 74.550781 28.414062 72.148438 31.109375 70.128906 C 30.628906 76.160156 29.644531 79.542969 23.941406 80.875 L 41 80.875 C 35.292969 79.542969 34.3125 76.160156 33.828125 70.128906 C 36.496094 72.414062 39.292969 74.351562 42.703125 74.605469 C 46.941406 74.605469 50.378906 70.996094 50.378906 66.546875 C 50.378906 62.097656 46.941406 58.488281 42.703125 58.488281 C 40.648438 58.488281 38.871094 59.433594 37.160156 60.53125 C 38.863281 58.304688 39.980469 55.902344 40.144531 53.117188 C 40.144531 48.667969 36.707031 45.058594 32.46875 45.058594 Z M 32.46875 45.058594 " fill-opacity="1" fill-rule="nonzero"/></g><g clip-path="url(#d7963b7081)"><path fill="#000000" d="M 266.339844 380.75 C 262.105469 380.75 258.664062 377.140625 258.664062 372.691406 C 258.703125 369.890625 260.148438 367.523438 261.648438 365.273438 C 259.972656 366.542969 258.113281 367.308594 256.105469 367.316406 C 251.871094 367.316406 248.433594 363.707031 248.433594 359.257812 C 248.433594 354.808594 251.871094 351.199219 256.105469 351.199219 C 259.539062 351.257812 262.285156 353.660156 264.980469 355.675781 C 264.5 349.648438 263.515625 346.261719 257.8125 344.933594 L 274.867188 344.933594 C 269.164062 346.261719 268.183594 349.648438 267.699219 355.675781 C 270.367188 353.390625 273.164062 351.453125 276.574219 351.199219 C 280.8125 351.199219 284.25 354.808594 284.25 359.257812 C 284.25 363.707031 280.8125 367.316406 276.574219 367.316406 C 274.519531 367.316406 272.742188 366.371094 271.03125 365.273438 C 272.734375 367.503906 273.851562 369.90625 274.015625 372.691406 C 274.015625 377.140625 270.578125 380.75 266.339844 380.75 Z M 266.339844 380.75 " fill-opacity="1" fill-rule="nonzero"/></g><g clip-path="url(#7f1b252611)"><path fill="#000000" d="M 266.488281 45.265625 C 263.488281 45.265625 261.054688 47.820312 261.054688 50.972656 C 261.078125 52.957031 262.101562 54.632812 263.167969 56.226562 C 261.980469 55.328125 260.660156 54.785156 259.242188 54.777344 C 256.238281 54.777344 253.804688 57.335938 253.804688 60.488281 C 253.804688 63.636719 256.238281 66.195312 259.242188 66.195312 C 261.671875 66.15625 263.617188 64.453125 265.527344 63.023438 C 265.183594 67.296875 264.488281 69.691406 260.449219 70.636719 L 272.53125 70.636719 C 268.488281 69.691406 267.792969 67.296875 267.453125 63.023438 C 269.339844 64.644531 271.320312 66.015625 273.738281 66.195312 C 276.738281 66.195312 279.175781 63.636719 279.175781 60.488281 C 279.175781 57.335938 276.738281 54.777344 273.738281 54.777344 C 272.28125 54.777344 271.023438 55.449219 269.8125 56.226562 C 271.015625 54.648438 271.8125 52.945312 271.925781 50.972656 C 271.925781 47.820312 269.492188 45.265625 266.488281 45.265625 Z M 266.488281 45.265625 " fill-opacity="1" fill-rule="nonzero"/></g><g clip-path="url(#e660a05fe6)"><path fill="#000000" d="M 32.621094 381.039062 C 29.617188 381.039062 27.183594 378.480469 27.183594 375.328125 C 27.207031 373.347656 28.230469 371.671875 29.296875 370.078125 C 28.109375 370.976562 26.789062 371.519531 25.371094 371.523438 C 22.371094 371.523438 19.933594 368.96875 19.933594 365.816406 C 19.933594 362.664062 22.371094 360.109375 25.371094 360.109375 C 27.800781 360.148438 29.746094 361.847656 31.65625 363.277344 C 31.316406 359.007812 30.621094 356.609375 26.578125 355.667969 L 38.660156 355.667969 C 34.621094 356.609375 33.925781 359.007812 33.582031 363.277344 C 35.46875 361.660156 37.453125 360.285156 39.867188 360.109375 C 42.871094 360.109375 45.304688 362.664062 45.304688 365.816406 C 45.304688 368.96875 42.871094 371.523438 39.867188 371.523438 C 38.410156 371.523438 37.152344 370.855469 35.941406 370.078125 C 37.148438 371.65625 37.941406 373.355469 38.054688 375.328125 C 38.054688 378.480469 35.621094 381.039062 32.621094 381.039062 Z M 32.621094 381.039062 " fill-opacity="1" fill-rule="nonzero"/></g><g clip-path="url(#e022ab61b7)"><path fill="#000000" d="M 248.4375 223.265625 C 247.953125 223.363281 247.492188 223.460938 246.289062 223.703125 C 249.308594 224.3125 248.273438 226.546875 249.078125 227.902344 C 249.613281 228.800781 249.808594 229.917969 250.8125 230.53125 C 251.273438 230.816406 251.585938 231.402344 251.039062 231.746094 C 248.839844 233.113281 251.019531 233.414062 251.59375 233.992188 C 252.421875 234.824219 253.890625 234.988281 252.992188 236.96875 C 252.460938 238.136719 253.710938 239.636719 255.492188 240.648438 C 253.222656 240.800781 253.253906 241.125 254.332031 242.679688 C 255.652344 244.578125 254.671875 247.261719 255.285156 249.503906 C 257.109375 256.132812 254.113281 261.367188 250.488281 266.410156 C 248.835938 268.707031 246.285156 269.582031 243.648438 270.035156 C 240.964844 270.5 238.226562 270.652344 235.527344 271.03125 C 231.785156 271.558594 228.34375 270.273438 224.824219 269.410156 C 223.792969 269.160156 224.335938 268.484375 224.449219 268.097656 C 225.128906 265.808594 226.980469 265 229.113281 264.601562 C 230.980469 264.253906 232.84375 263.960938 234.296875 262.515625 C 236.648438 260.171875 236.671875 257.660156 234.257812 255.414062 C 232.90625 254.152344 232.496094 252.273438 231.140625 250.605469 C 230.953125 251.910156 231.695312 252.875 231.203125 254.136719 C 229.292969 251.703125 227.472656 249.390625 225.65625 247.074219 C 224.957031 247.832031 226.171875 248.472656 225.464844 249.507812 C 223.558594 245.503906 219.351562 243.636719 217.503906 239.738281 C 217.363281 239.433594 217.207031 239.136719 216.84375 238.957031 C 216.613281 240.46875 215.363281 241.53125 215.792969 243.019531 C 215.851562 243.21875 215.984375 243.4375 215.667969 243.644531 C 213.710938 244.929688 213.71875 244.941406 214.730469 247.761719 C 214.300781 248.378906 213.84375 247.835938 213.414062 247.773438 C 213.019531 247.714844 212.640625 247.570312 212.175781 247.445312 C 211.796875 248.742188 213.558594 249.527344 212.972656 250.820312 C 211.890625 250.914062 211.617188 249.640625 210.683594 249.523438 C 210.566406 252.757812 210.027344 254.089844 209.070312 253.511719 C 209.070312 254.179688 209.050781 254.835938 209.074219 255.492188 C 209.101562 256.183594 210.246094 257.457031 208.230469 257.023438 C 207.925781 256.960938 207.714844 257.167969 207.796875 257.421875 C 208.621094 259.855469 206.207031 261.234375 205.886719 263.421875 C 205.292969 267.511719 203.105469 269.136719 198.9375 269.496094 C 193.496094 269.964844 188.046875 270.386719 182.597656 270.75 C 179.265625 270.96875 175.988281 270.679688 172.917969 269.164062 C 171.789062 268.609375 170.621094 268.15625 169.429688 269.359375 C 169.335938 268.34375 169.257812 267.539062 169.167969 266.5625 C 168.050781 266.996094 167.074219 267.371094 165.742188 267.886719 C 166.367188 265.785156 167.675781 264.65625 169.199219 263.75 C 171.867188 262.167969 174.734375 261.3125 177.871094 261.101562 C 186.125 260.546875 187.847656 258.414062 186.582031 250.46875 C 185.925781 246.332031 185.425781 242.128906 186.023438 238.039062 C 186.355469 235.800781 184.136719 234.320312 185.128906 232.167969 C 185.488281 231.382812 185.445312 230.414062 185.59375 229.46875 C 184.742188 229.488281 184.917969 230.488281 184.28125 230.707031 C 183.375 230.28125 183.796875 229.464844 183.789062 228.800781 C 183.78125 228.066406 183.8125 227.320312 183.910156 226.59375 C 184.054688 225.539062 183.074219 224.945312 182.585938 224.691406 C 181.652344 224.214844 181.871094 225.691406 181.226562 226.050781 C 180.328125 225.960938 180.949219 224.859375 180.144531 224.535156 C 179.320312 225.550781 178.664062 226.414062 176.796875 226.558594 C 174.878906 226.710938 174.359375 224.996094 172.765625 225.296875 C 172.511719 225.777344 172.6875 226.699219 171.878906 227.304688 C 171.144531 226.582031 170.875 224.90625 169.007812 226.015625 C 168.363281 226.398438 167.203125 225.097656 166.207031 224.191406 C 168.042969 226.25 164.925781 226.042969 165.078125 227.332031 C 164.863281 227.273438 164.484375 227.257812 164.453125 227.152344 C 163.921875 225.214844 161.339844 226 160.792969 224.066406 C 160.523438 224.378906 160.398438 224.484375 160.320312 224.621094 C 159.914062 225.304688 160.605469 226.535156 159.570312 226.746094 C 159.109375 226.839844 158.421875 225.972656 157.878906 225.496094 C 157.183594 224.878906 156.546875 223.648438 155.8125 225.464844 C 155.75 225.613281 155.441406 225.664062 155.25 225.761719 C 154.96875 223.476562 152.457031 225.085938 151.550781 223.601562 C 150.589844 222.035156 150.609375 224.046875 150.101562 224.207031 C 149.210938 223.113281 148.34375 222.042969 147.472656 220.972656 C 147.308594 221.042969 147.144531 221.113281 146.984375 221.183594 C 147.332031 222.707031 147.28125 224.5 148.101562 225.703125 C 150.234375 228.835938 149.484375 232.785156 151.417969 235.957031 C 152.234375 237.296875 150.148438 235.984375 150.179688 237.148438 C 151.964844 238.433594 151.730469 240.546875 151.738281 242.570312 C 151.738281 243.367188 152.109375 243.980469 152.429688 244.648438 C 152.597656 245 153.257812 245.5625 152.328125 245.722656 C 151.078125 245.941406 151.753906 246.554688 151.917969 247.128906 C 152.953125 250.714844 153.492188 254.34375 152.863281 258.074219 C 152.085938 262.679688 148.878906 266.101562 144.207031 266.644531 C 138.738281 267.28125 133.222656 268.105469 127.929688 265.347656 C 126.171875 264.429688 126.453125 263.742188 127.417969 262.621094 C 128.460938 261.40625 129.953125 261.128906 131.390625 260.765625 C 132.269531 260.542969 133.171875 260.433594 134.066406 260.269531 C 135.113281 260.074219 136.378906 260.046875 136.683594 258.785156 C 137.019531 257.378906 135.992188 256.300781 134.976562 255.746094 C 133.5625 254.972656 132.738281 253.871094 132.152344 252.511719 C 131.574219 251.171875 131.710938 252.21875 131.339844 252.613281 C 130.828125 253.15625 130.65625 252.367188 130.453125 252.046875 C 129.316406 250.246094 128.183594 248.449219 126.53125 246.816406 C 125.921875 247.808594 125.742188 249.179688 124.246094 249.183594 C 124.046875 249.183594 123.761719 249.40625 123.667969 249.597656 C 121.792969 253.398438 120.96875 254.363281 117.515625 256.734375 C 117.3125 256.875 116.929688 257.132812 116.941406 257.15625 C 118.46875 259.800781 114.496094 259.152344 114.644531 260.976562 C 114.660156 261.152344 114.402344 261.496094 114.238281 261.515625 C 109.789062 262.042969 107.457031 266.046875 103.777344 267.863281 C 101.445312 269.011719 99.164062 270.066406 96.535156 270.183594 C 91.101562 270.429688 85.667969 271.074219 80.261719 269.878906 C 79.597656 269.734375 78.324219 270.300781 77.5 270.984375 C 76.953125 270.28125 78.128906 269.019531 76.953125 268.664062 C 75.773438 268.304688 76 269.96875 75.207031 270.371094 C 74.496094 267.375 75.085938 266.347656 77.472656 264.660156 C 80.347656 262.636719 83.59375 261.78125 86.929688 261.210938 C 90.28125 260.636719 92.382812 258.9375 92.855469 255.535156 C 93.664062 249.742188 95.894531 244.421875 98.234375 239.140625 C 101.949219 230.753906 101.640625 222.148438 99.917969 213.402344 C 99.339844 210.457031 99.246094 207.425781 95.847656 206.082031 C 94.953125 205.730469 93.710938 206.039062 93.230469 204.742188 C 93.117188 204.429688 92.488281 204.363281 92.261719 204.914062 C 91.792969 206.070312 91.410156 205.269531 90.710938 205.082031 C 89.214844 204.683594 88.089844 204.113281 86.832031 203.132812 C 85.875 202.390625 85.800781 204.773438 84.796875 205.519531 C 84.117188 204.507812 83.015625 203.761719 83.273438 202.238281 C 81.898438 202.820312 81.207031 204.886719 79.386719 203.433594 C 79.289062 203.355469 78.027344 203.726562 77.863281 204.453125 C 77.570312 205.742188 76.582031 204.933594 75.980469 205.089844 C 74.695312 205.429688 75.820312 203.878906 74.953125 203.632812 C 74.515625 204.160156 74.050781 204.726562 73.574219 205.304688 C 72.523438 205.054688 73.15625 203.765625 72.222656 203.289062 C 71.601562 203.191406 71.558594 203.980469 71.160156 204.308594 C 70.910156 204.515625 70.683594 205.019531 70.503906 204.992188 C 69.253906 204.816406 68.363281 202.980469 66.796875 204.207031 C 63.582031 199.78125 59.089844 200.078125 54.457031 200.871094 C 51.359375 201.402344 48.371094 201.269531 45.625 199.480469 C 44.308594 198.621094 43.101562 197.917969 42.808594 196.027344 C 42.628906 194.882812 41.253906 193.957031 40.550781 192.851562 C 39.554688 191.289062 39.214844 190.09375 41.550781 189.03125 C 45.4375 187.261719 48.1875 183.902344 51.292969 181.054688 C 51.523438 180.84375 51.734375 180.503906 51.765625 180.203125 C 52.535156 172.859375 58.050781 169.015625 63.214844 165.042969 C 64.804688 163.816406 65.855469 162.925781 65.457031 160.761719 C 65.191406 159.335938 65.257812 157.808594 65.796875 156.359375 C 66.589844 154.234375 67.328125 153.925781 68.953125 155.390625 C 69.882812 156.226562 70.339844 156.675781 71.402344 155.410156 C 72.804688 153.738281 75.601562 154.34375 77.171875 156.878906 C 78.328125 158.746094 79.304688 158.835938 81.242188 158.179688 C 85.152344 156.863281 89.210938 155.882812 93.359375 155.773438 C 98.625 155.636719 103.152344 153.722656 107.339844 150.707031 C 111.226562 147.902344 115.515625 146.402344 120.382812 147.066406 C 123.015625 147.425781 125.664062 147.988281 127.976562 149.230469 C 138.863281 155.058594 150.074219 154.84375 161.6875 151.832031 C 173.378906 148.792969 185.265625 146.691406 197.40625 146.445312 C 206.515625 146.265625 214.855469 148.417969 222.394531 153.769531 C 227.859375 157.648438 233.777344 160.96875 237.679688 166.617188 C 244.058594 175.859375 248.046875 185.972656 247.835938 197.378906 C 247.714844 203.980469 247.320312 210.582031 247.007812 217.179688 C 246.976562 217.785156 246.976562 218.328125 247.308594 218.832031 C 247.761719 219.511719 248.5 219.832031 247.085938 220.679688 C 246.183594 221.21875 248.328125 222.027344 248.4375 223.261719 Z M 248.4375 223.265625 " fill-opacity="1" fill-rule="nonzero"/></g></svg>