<svg xmlns="http://www.w3.org/2000/svg" xmlns:xlink="http://www.w3.org/1999/xlink" width="396" zoomAndPan="magnify" viewBox="0 0 297.12 419.249996" height="559" preserveAspectRatio="xMidYMid meet" version="1.0"><defs><g/><clipPath id="6a4148f75c"><path d="M 0 0.246094 L 296.238281 0.246094 L 296.238281 417.367188 L 0 417.367188 Z M 0 0.246094 " clip-rule="nonzero"/></clipPath><clipPath id="a04ed40893"><path d="M 30.636719 45.234375 L 266.433594 45.234375 L 266.433594 380.753906 L 30.636719 380.753906 Z M 30.636719 45.234375 " clip-rule="nonzero"/></clipPath><clipPath id="74defe34b9"><path d="M 68 78.59375 L 74.253906 78.59375 L 74.253906 84.371094 L 68 84.371094 Z M 68 78.59375 " clip-rule="nonzero"/></clipPath><clipPath id="c1ee0b99f9"><path d="M 71.335938 78.671875 C 73.574219 79.714844 74.171875 80.835938 74.171875 81.65625 C 74.097656 82.402344 73.425781 83.445312 72.828125 83.894531 C 72.15625 84.265625 70.886719 84.339844 70.21875 84.042969 C 69.472656 83.667969 68.722656 82.699219 68.574219 81.953125 C 68.5 81.207031 68.875 80.011719 69.472656 79.417969 C 69.992188 78.894531 71.1875 78.59375 71.933594 78.746094 C 72.679688 78.894531 73.648438 79.714844 73.949219 80.460938 C 74.246094 81.132812 74.171875 82.402344 73.648438 83.074219 C 73.128906 83.746094 71.558594 84.339844 70.664062 84.339844 C 69.992188 84.265625 69.246094 83.894531 68.875 83.445312 C 68.425781 83.074219 68.054688 82.253906 68.054688 81.65625 C 67.976562 80.984375 68.203125 80.238281 68.648438 79.714844 C 69.023438 79.265625 70.367188 78.671875 70.367188 78.671875 " clip-rule="nonzero"/></clipPath><clipPath id="d82dbc2945"><path d="M 73.109375 71 L 78.890625 71 L 78.890625 76.839844 L 73.109375 76.839844 Z M 73.109375 71 " clip-rule="nonzero"/></clipPath><clipPath id="802f16e6ee"><path d="M 73.203125 73.820312 C 75.066406 71.058594 76.335938 70.984375 77.007812 71.207031 C 77.753906 71.507812 78.574219 72.476562 78.722656 73.222656 C 78.871094 73.96875 78.574219 75.238281 78.050781 75.761719 C 77.453125 76.355469 76.335938 76.730469 75.515625 76.582031 C 74.769531 76.507812 73.796875 75.683594 73.425781 75.015625 C 73.128906 74.34375 73.203125 73.074219 73.574219 72.402344 C 74.023438 71.730469 75.140625 71.132812 75.8125 71.058594 C 76.410156 70.984375 77.082031 71.132812 77.53125 71.507812 C 78.125 71.953125 78.796875 73.074219 78.796875 73.820312 C 78.796875 74.640625 78.277344 75.683594 77.679688 76.207031 C 77.230469 76.65625 76.410156 76.804688 75.8125 76.804688 C 75.140625 76.730469 74.394531 76.355469 74.023438 75.910156 C 73.574219 75.460938 73.203125 74.117188 73.203125 74.117188 " clip-rule="nonzero"/></clipPath><clipPath id="7de24ae6fb"><path d="M 61 69.582031 L 84.492188 69.582031 L 84.492188 116.609375 L 61 116.609375 Z M 61 69.582031 " clip-rule="nonzero"/></clipPath><clipPath id="6b72b352bf"><path d="M 69.84375 88.894531 C 81.1875 70.238281 82.15625 69.640625 82.828125 69.863281 C 83.5 70.015625 84.246094 70.835938 84.320312 72.027344 C 84.46875 76.058594 73.277344 92.175781 69.917969 99.636719 C 67.828125 104.414062 66.039062 108.890625 65.441406 111.800781 C 65.066406 113.292969 65.664062 114.636719 65.144531 115.382812 C 64.769531 115.980469 63.949219 116.578125 63.351562 116.503906 C 62.753906 116.429688 61.933594 115.757812 61.636719 114.785156 C 60.664062 111.578125 65.589844 97.921875 66.335938 92.175781 C 66.785156 88.667969 65.738281 84.640625 66.710938 83.667969 C 67.308594 83.148438 68.351562 83.148438 69.023438 83.519531 C 70.140625 84.117188 71.933594 87.101562 72.007812 88.222656 C 72.007812 88.96875 71.558594 89.566406 71.039062 89.9375 C 70.589844 90.234375 69.695312 90.3125 69.171875 90.085938 C 68.648438 89.789062 67.976562 88.59375 67.976562 87.921875 C 67.976562 87.402344 68.574219 86.65625 69.097656 86.429688 C 69.695312 86.132812 70.964844 86.429688 71.484375 86.878906 C 71.859375 87.25 72.082031 88.148438 71.933594 88.667969 C 71.785156 89.191406 71.1875 89.9375 70.664062 90.085938 C 70.066406 90.3125 69.097656 90.011719 68.351562 89.414062 C 67.15625 88.445312 65.292969 85.386719 65.144531 83.746094 C 65.066406 82.550781 65.664062 81.058594 66.410156 80.609375 C 67.082031 80.238281 68.574219 80.3125 69.246094 80.910156 C 70.21875 81.804688 70.441406 84.265625 70.515625 87.101562 C 70.515625 92.996094 66.785156 111.652344 65.292969 114.933594 C 64.917969 115.757812 64.695312 116.128906 64.246094 116.277344 C 63.726562 116.503906 62.679688 116.351562 62.15625 115.980469 C 61.710938 115.53125 61.488281 114.785156 61.488281 113.742188 C 61.5625 110.90625 64.320312 103.890625 66.785156 97.996094 C 70.140625 90.011719 77.679688 73.222656 80.738281 70.613281 C 81.558594 69.863281 82.304688 69.640625 82.828125 69.863281 C 83.5 70.089844 84.320312 71.132812 84.320312 72.027344 C 84.246094 73.523438 81.632812 75.683594 80.140625 78.148438 C 78.050781 81.65625 75.515625 89.863281 73.351562 91.355469 C 72.382812 92.027344 71.039062 92.101562 70.441406 91.730469 C 69.84375 91.28125 69.84375 88.894531 69.84375 88.894531 " clip-rule="nonzero"/></clipPath><clipPath id="e6e281a684"><path d="M 70 73.660156 L 80 73.660156 L 80 99.289062 L 70 99.289062 Z M 70 73.660156 " clip-rule="nonzero"/></clipPath><clipPath id="000c344c33"><path d="M 74.84375 75.761719 C 75.738281 86.355469 75.960938 95.011719 74.917969 97.472656 C 74.542969 98.445312 73.949219 99.117188 73.277344 99.191406 C 72.605469 99.265625 71.335938 98.742188 70.964844 97.847656 C 70.140625 95.980469 73.128906 90.085938 73.5 86.730469 C 73.796875 83.96875 72.828125 80.757812 73.425781 79.191406 C 73.796875 78.296875 74.46875 77.625 75.066406 77.402344 C 75.515625 77.253906 76.113281 77.328125 76.484375 77.550781 C 77.007812 77.847656 77.304688 78.296875 77.605469 79.191406 C 78.574219 81.878906 80.140625 94.191406 79.320312 96.726562 C 79.097656 97.550781 78.648438 97.996094 78.125 98.144531 C 77.457031 98.371094 76.1875 97.921875 75.738281 97.472656 C 75.367188 97.027344 75.214844 96.132812 75.441406 95.609375 C 75.738281 95.011719 76.859375 94.265625 77.53125 94.265625 C 78.125 94.265625 78.871094 94.714844 79.097656 95.234375 C 79.394531 95.832031 79.246094 97.175781 78.796875 97.699219 C 78.425781 98.144531 77.53125 98.445312 77.007812 98.296875 C 76.410156 98.070312 75.8125 97.472656 75.367188 96.429688 C 74.097656 93.742188 72.382812 81.878906 73.425781 79.191406 C 73.875 78.074219 74.84375 77.402344 75.515625 77.328125 C 76.113281 77.253906 76.859375 77.699219 77.230469 78.222656 C 77.753906 78.96875 77.828125 80.238281 77.828125 81.730469 C 77.902344 84.117188 77.457031 88.296875 76.785156 91.28125 C 76.1875 93.96875 75.441406 97.847656 74.171875 98.742188 C 73.5 99.265625 72.457031 99.265625 71.859375 98.964844 C 71.335938 98.667969 70.964844 98.070312 70.8125 97.175781 C 70.367188 95.308594 71.484375 91.207031 71.410156 87.921875 C 71.335938 84.117188 69.769531 77.925781 70.140625 75.835938 C 70.292969 75.089844 70.515625 74.714844 70.886719 74.34375 C 71.261719 73.96875 71.933594 73.746094 72.457031 73.671875 C 72.976562 73.671875 73.648438 73.894531 74.023438 74.269531 C 74.46875 74.640625 74.84375 75.761719 74.84375 75.761719 " clip-rule="nonzero"/></clipPath><clipPath id="d8c00a1c10"><path d="M 69.417969 76.367188 L 85.8125 76.367188 L 85.8125 124.683594 L 69.417969 124.683594 Z M 69.417969 76.367188 " clip-rule="nonzero"/></clipPath><clipPath id="497628b2e5"><path d="M 85.589844 79.566406 C 76.335938 110.085938 74.769531 120.308594 73.351562 122.996094 C 72.902344 123.816406 72.605469 124.1875 72.15625 124.410156 C 71.785156 124.5625 71.261719 124.636719 70.886719 124.410156 C 70.367188 124.1875 69.546875 123.144531 69.472656 122.546875 C 69.472656 122.023438 69.917969 121.203125 70.367188 120.90625 C 70.8125 120.605469 71.710938 120.53125 72.230469 120.753906 C 72.753906 121.054688 73.351562 122.25 73.425781 122.84375 C 73.425781 123.21875 73.203125 123.664062 72.828125 123.964844 C 72.457031 124.261719 71.632812 124.5625 71.113281 124.488281 C 70.664062 124.488281 70.292969 124.1875 69.992188 123.890625 C 69.695312 123.515625 69.546875 123.070312 69.546875 122.097656 C 69.472656 119.039062 72.230469 108.890625 74.023438 101.953125 C 76.039062 94.339844 79.46875 81.207031 81.035156 78.222656 C 81.410156 77.402344 81.632812 77.101562 82.082031 76.878906 C 82.527344 76.582031 83.199219 76.433594 83.722656 76.507812 C 84.320312 76.65625 85.214844 77.328125 85.515625 77.925781 C 85.738281 78.371094 85.589844 79.566406 85.589844 79.566406 " clip-rule="nonzero"/></clipPath><clipPath id="c687439a2d"><path d="M 64.839844 79.382812 L 81.652344 79.382812 L 81.652344 110.988281 L 64.839844 110.988281 Z M 64.839844 79.382812 " clip-rule="nonzero"/></clipPath><clipPath id="de5df03166"><path d="M 81.261719 82.921875 C 68.425781 110.234375 68.351562 110.457031 67.902344 110.605469 C 67.457031 110.832031 66.484375 110.90625 65.964844 110.605469 C 65.515625 110.382812 64.917969 109.636719 64.917969 109.039062 C 64.84375 108.367188 65.589844 107.175781 66.1875 106.875 C 66.636719 106.652344 67.605469 106.726562 68.054688 107.101562 C 68.574219 107.472656 69.023438 108.816406 68.875 109.414062 C 68.800781 109.859375 68.5 110.234375 68.128906 110.457031 C 67.679688 110.757812 66.710938 110.832031 66.1875 110.683594 C 65.738281 110.605469 65.367188 110.234375 65.21875 109.859375 C 64.917969 109.414062 64.917969 108.890625 65.066406 107.921875 C 65.738281 104.117188 74.695312 84.042969 76.785156 80.910156 C 77.304688 80.164062 77.53125 79.9375 78.050781 79.714844 C 78.574219 79.492188 79.246094 79.417969 79.769531 79.640625 C 80.367188 79.863281 81.1875 80.609375 81.410156 81.207031 C 81.632812 81.730469 81.261719 83 81.261719 83 " clip-rule="nonzero"/></clipPath><clipPath id="4996b294bc"><path d="M 64 77.242188 L 72.652344 77.242188 L 72.652344 98.554688 L 64 98.554688 Z M 64 77.242188 " clip-rule="nonzero"/></clipPath><clipPath id="ab97d4de20"><path d="M 72.605469 80.460938 C 67.605469 98.070312 67.308594 98.21875 66.933594 98.371094 C 66.335938 98.519531 65.367188 98.445312 64.917969 98.070312 C 64.398438 97.625 63.949219 96.28125 64.171875 95.609375 C 64.398438 95.011719 65.664062 94.265625 66.335938 94.265625 C 66.933594 94.265625 67.753906 94.789062 67.976562 95.308594 C 68.277344 95.90625 68.128906 97.324219 67.679688 97.847656 C 67.308594 98.296875 66.335938 98.519531 65.738281 98.445312 C 65.292969 98.371094 64.84375 98.144531 64.621094 97.773438 C 64.246094 97.324219 64.097656 96.804688 64.097656 95.832031 C 64.097656 93.070312 66.710938 81.730469 67.753906 79.265625 C 68.128906 78.445312 68.277344 78.074219 68.800781 77.773438 C 69.246094 77.476562 69.917969 77.253906 70.515625 77.328125 C 71.039062 77.402344 71.710938 77.699219 72.082031 78.148438 C 72.457031 78.671875 72.605469 80.460938 72.605469 80.460938 " clip-rule="nonzero"/></clipPath><clipPath id="3179854716"><path d="M 185.378906 338.519531 L 205.855469 338.519531 L 205.855469 353.835938 L 185.378906 353.835938 Z M 185.378906 338.519531 " clip-rule="nonzero"/></clipPath><clipPath id="f7062c6e13"><path d="M 186.625 349.089844 C 203.785156 338.570312 204.085938 338.644531 204.457031 338.867188 C 204.980469 339.09375 205.652344 339.765625 205.726562 340.359375 C 205.800781 341.03125 205.203125 342.375 204.605469 342.675781 C 204.011719 342.972656 202.59375 342.675781 202.144531 342.226562 C 201.695312 341.851562 201.398438 340.882812 201.621094 340.359375 C 201.769531 339.6875 202.890625 338.792969 203.5625 338.71875 C 204.160156 338.644531 204.980469 339.167969 205.351562 339.539062 C 205.652344 339.914062 205.800781 340.359375 205.800781 340.808594 C 205.726562 341.40625 205.503906 341.851562 204.832031 342.597656 C 202.816406 344.839844 191.996094 352.152344 189.382812 353.269531 C 188.5625 353.644531 188.191406 353.792969 187.667969 353.644531 C 186.996094 353.570312 186.101562 352.898438 185.726562 352.300781 C 185.429688 351.777344 185.429688 351.105469 185.578125 350.507812 C 185.726562 349.988281 186.625 349.089844 186.625 349.089844 " clip-rule="nonzero"/></clipPath><clipPath id="be25fa1021"><path d="M 199.597656 336.675781 L 205.546875 336.675781 L 205.546875 342.535156 L 199.597656 342.535156 Z M 199.597656 336.675781 " clip-rule="nonzero"/></clipPath><clipPath id="f7ca74f78b"><path d="M 200.949219 337.300781 C 204.308594 337.226562 205.128906 338.121094 205.351562 338.867188 C 205.503906 339.613281 205.203125 340.882812 204.679688 341.40625 C 204.160156 342.003906 202.964844 342.449219 202.21875 342.300781 C 201.472656 342.226562 200.429688 341.480469 200.128906 340.808594 C 199.757812 340.136719 199.832031 338.867188 200.203125 338.195312 C 200.578125 337.527344 201.621094 336.855469 202.367188 336.777344 C 203.1875 336.703125 204.308594 337.300781 204.757812 337.824219 C 205.203125 338.273438 205.425781 338.867188 205.425781 339.464844 C 205.351562 340.210938 204.832031 341.332031 204.234375 341.851562 C 203.710938 342.300781 202.964844 342.523438 202.367188 342.523438 C 201.769531 342.523438 200.949219 342.226562 200.503906 341.777344 C 199.980469 341.257812 199.605469 340.0625 199.605469 339.316406 C 199.683594 338.644531 200.578125 337.527344 200.578125 337.527344 " clip-rule="nonzero"/></clipPath><clipPath id="ef90faf680"><path d="M 228.484375 315 L 236.851562 315 L 236.851562 320.914062 L 228.484375 320.914062 Z M 228.484375 315 " clip-rule="nonzero"/></clipPath><clipPath id="1dcf60bd69"><path d="M 233.632812 320.886719 C 229.378906 319.765625 228.785156 318.796875 228.632812 318.125 C 228.484375 317.527344 228.632812 316.855469 228.933594 316.332031 C 229.230469 315.886719 229.679688 315.363281 230.277344 315.214844 C 230.949219 314.992188 232.214844 314.992188 232.8125 315.4375 C 233.484375 315.8125 234.082031 316.929688 234.082031 317.675781 C 234.082031 318.421875 233.484375 319.542969 232.960938 319.988281 C 232.515625 320.363281 231.769531 320.511719 231.246094 320.511719 C 230.722656 320.4375 230.050781 320.289062 229.605469 319.839844 C 229.082031 319.394531 228.558594 318.273438 228.558594 317.527344 C 228.632812 316.707031 229.230469 315.738281 229.976562 315.363281 C 230.949219 314.765625 233.335938 315.066406 234.453125 315.363281 C 235.125 315.585938 235.722656 315.8125 236.171875 316.332031 C 236.542969 316.929688 236.84375 318.125 236.691406 318.871094 C 236.542969 319.46875 236.023438 320.066406 235.574219 320.4375 C 235.050781 320.734375 233.632812 320.886719 233.632812 320.886719 " clip-rule="nonzero"/></clipPath><clipPath id="268cf98bb8"><path d="M 14.5625 45.058594 L 50.378906 45.058594 L 50.378906 80.875 L 14.5625 80.875 Z M 14.5625 45.058594 " clip-rule="nonzero"/></clipPath><clipPath id="76837b5ac2"><path d="M 248.433594 344.933594 L 284.25 344.933594 L 284.25 380.410156 L 248.433594 380.410156 Z M 248.433594 344.933594 " clip-rule="nonzero"/></clipPath><clipPath id="2360483f15"><path d="M 253.804688 45.265625 L 279.175781 45.265625 L 279.175781 70.636719 L 253.804688 70.636719 Z M 253.804688 45.265625 " clip-rule="nonzero"/></clipPath><clipPath id="841336bd12"><path d="M 19.933594 355.667969 L 45.304688 355.667969 L 45.304688 380.992188 L 19.933594 380.992188 Z M 19.933594 355.667969 " clip-rule="nonzero"/></clipPath><clipPath id="c7dfa6925d"><path d="M 45.355469 212 L 120.722656 212 L 120.722656 310.449219 L 45.355469 310.449219 Z M 45.355469 212 " clip-rule="nonzero"/></clipPath><clipPath id="5b43f3385e"><path d="M 118.769531 108 L 259 108 L 259 309.886719 L 118.769531 309.886719 Z M 118.769531 108 " clip-rule="nonzero"/></clipPath></defs><g clip-path="url(#6a4148f75c)"><path fill="#ffffff" d="M 0 0.246094 L 296.238281 0.246094 L 296.238281 417.367188 L 0 417.367188 Z M 0 0.246094 " fill-opacity="1" fill-rule="nonzero"/><path fill="#ffffff" d="M 0 0.246094 L 296.238281 0.246094 L 296.238281 417.367188 L 0 417.367188 Z M 0 0.246094 " fill-opacity="1" fill-rule="nonzero"/></g><g fill="#010101" fill-opacity="1"><g transform="translate(277.20821, 387.070532)"><g><path d="M -15.828125 6.765625 C -15.828125 8.535156 -15.382812 9.910156 -14.5 10.890625 C -13.625 11.867188 -12.390625 12.359375 -10.796875 12.359375 C -9.203125 12.359375 -7.960938 11.867188 -7.078125 10.890625 C -6.203125 9.910156 -5.765625 8.535156 -5.765625 6.765625 C -5.765625 4.984375 -6.203125 3.601562 -7.078125 2.625 C -7.960938 1.644531 -9.203125 1.15625 -10.796875 1.15625 C -12.390625 1.15625 -13.625 1.644531 -14.5 2.625 C -15.382812 3.601562 -15.828125 4.984375 -15.828125 6.765625 Z M -15.140625 18.796875 C -15.140625 20.296875 -14.757812 21.460938 -14 22.296875 C -13.238281 23.140625 -12.171875 23.5625 -10.796875 23.5625 C -9.429688 23.5625 -8.363281 23.140625 -7.59375 22.296875 C -6.832031 21.460938 -6.453125 20.296875 -6.453125 18.796875 C -6.453125 17.273438 -6.832031 16.09375 -7.59375 15.25 C -8.363281 14.414062 -9.429688 14 -10.796875 14 C -12.171875 14 -13.238281 14.414062 -14 15.25 C -14.757812 16.09375 -15.140625 17.273438 -15.140625 18.796875 Z M -13.359375 13.1875 C -15.234375 12.925781 -16.695312 12.226562 -17.75 11.09375 C -18.800781 9.96875 -19.328125 8.523438 -19.328125 6.765625 C -19.328125 4.441406 -18.585938 2.648438 -17.109375 1.390625 C -15.640625 0.140625 -13.535156 -0.484375 -10.796875 -0.484375 C -8.066406 -0.484375 -5.960938 0.140625 -4.484375 1.390625 C -3.003906 2.648438 -2.265625 4.441406 -2.265625 6.765625 C -2.265625 8.523438 -2.789062 9.96875 -3.84375 11.09375 C -4.894531 12.226562 -6.367188 12.925781 -8.265625 13.1875 C -6.585938 13.488281 -5.300781 14.117188 -4.40625 15.078125 C -3.519531 16.046875 -3.078125 17.285156 -3.078125 18.796875 C -3.078125 20.785156 -3.765625 22.351562 -5.140625 23.5 C -6.515625 24.644531 -8.398438 25.21875 -10.796875 25.21875 C -13.191406 25.21875 -15.078125 24.644531 -16.453125 23.5 C -17.828125 22.351562 -18.515625 20.785156 -18.515625 18.796875 C -18.515625 17.285156 -18.066406 16.046875 -17.171875 15.078125 C -16.285156 14.117188 -15.015625 13.488281 -13.359375 13.1875 Z M -13.359375 13.1875 "/></g></g></g><g fill="#010101" fill-opacity="1"><g transform="translate(38.105568, 386.622778)"><g><path d="M -11.0625 4.734375 C -11.0625 5.960938 -10.753906 6.921875 -10.140625 7.609375 C -9.523438 8.296875 -8.660156 8.640625 -7.546875 8.640625 C -6.429688 8.640625 -5.566406 8.296875 -4.953125 7.609375 C -4.335938 6.921875 -4.03125 5.960938 -4.03125 4.734375 C -4.03125 3.484375 -4.335938 2.515625 -4.953125 1.828125 C -5.566406 1.148438 -6.429688 0.8125 -7.546875 0.8125 C -8.660156 0.8125 -9.523438 1.148438 -10.140625 1.828125 C -10.753906 2.515625 -11.0625 3.484375 -11.0625 4.734375 Z M -10.578125 13.125 C -10.578125 14.175781 -10.3125 14.992188 -9.78125 15.578125 C -9.25 16.171875 -8.503906 16.46875 -7.546875 16.46875 C -6.597656 16.46875 -5.851562 16.171875 -5.3125 15.578125 C -4.78125 14.992188 -4.515625 14.175781 -4.515625 13.125 C -4.515625 12.070312 -4.78125 11.25 -5.3125 10.65625 C -5.851562 10.070312 -6.597656 9.78125 -7.546875 9.78125 C -8.503906 9.78125 -9.25 10.070312 -9.78125 10.65625 C -10.3125 11.25 -10.578125 12.070312 -10.578125 13.125 Z M -9.328125 9.21875 C -10.640625 9.039062 -11.660156 8.554688 -12.390625 7.765625 C -13.128906 6.972656 -13.5 5.960938 -13.5 4.734375 C -13.5 3.109375 -12.984375 1.851562 -11.953125 0.96875 C -10.929688 0.09375 -9.460938 -0.34375 -7.546875 -0.34375 C -5.640625 -0.34375 -4.171875 0.09375 -3.140625 0.96875 C -2.109375 1.851562 -1.59375 3.109375 -1.59375 4.734375 C -1.59375 5.960938 -1.957031 6.972656 -2.6875 7.765625 C -3.425781 8.554688 -4.453125 9.039062 -5.765625 9.21875 C -4.597656 9.425781 -3.703125 9.863281 -3.078125 10.53125 C -2.460938 11.207031 -2.15625 12.070312 -2.15625 13.125 C -2.15625 14.519531 -2.632812 15.613281 -3.59375 16.40625 C -4.550781 17.207031 -5.867188 17.609375 -7.546875 17.609375 C -9.222656 17.609375 -10.539062 17.207031 -11.5 16.40625 C -12.457031 15.613281 -12.9375 14.519531 -12.9375 13.125 C -12.9375 12.070312 -12.625 11.207031 -12 10.53125 C -11.375 9.863281 -10.484375 9.425781 -9.328125 9.21875 Z M -9.328125 9.21875 "/></g></g></g><g fill="#010101" fill-opacity="1"><g transform="translate(259.037789, 39.367161)"><g><path d="M 11.0625 -4.734375 C 11.0625 -5.960938 10.753906 -6.921875 10.140625 -7.609375 C 9.523438 -8.296875 8.660156 -8.640625 7.546875 -8.640625 C 6.429688 -8.640625 5.566406 -8.296875 4.953125 -7.609375 C 4.335938 -6.921875 4.03125 -5.960938 4.03125 -4.734375 C 4.03125 -3.484375 4.335938 -2.515625 4.953125 -1.828125 C 5.566406 -1.148438 6.429688 -0.8125 7.546875 -0.8125 C 8.660156 -0.8125 9.523438 -1.148438 10.140625 -1.828125 C 10.753906 -2.515625 11.0625 -3.484375 11.0625 -4.734375 Z M 10.578125 -13.125 C 10.578125 -14.175781 10.3125 -14.992188 9.78125 -15.578125 C 9.25 -16.171875 8.503906 -16.46875 7.546875 -16.46875 C 6.597656 -16.46875 5.851562 -16.171875 5.3125 -15.578125 C 4.78125 -14.992188 4.515625 -14.175781 4.515625 -13.125 C 4.515625 -12.070312 4.78125 -11.25 5.3125 -10.65625 C 5.851562 -10.070312 6.597656 -9.78125 7.546875 -9.78125 C 8.503906 -9.78125 9.25 -10.070312 9.78125 -10.65625 C 10.3125 -11.25 10.578125 -12.070312 10.578125 -13.125 Z M 9.328125 -9.21875 C 10.640625 -9.039062 11.660156 -8.554688 12.390625 -7.765625 C 13.128906 -6.972656 13.5 -5.960938 13.5 -4.734375 C 13.5 -3.109375 12.984375 -1.851562 11.953125 -0.96875 C 10.929688 -0.09375 9.460938 0.34375 7.546875 0.34375 C 5.640625 0.34375 4.171875 -0.09375 3.140625 -0.96875 C 2.109375 -1.851562 1.59375 -3.109375 1.59375 -4.734375 C 1.59375 -5.960938 1.957031 -6.972656 2.6875 -7.765625 C 3.425781 -8.554688 4.453125 -9.039062 5.765625 -9.21875 C 4.597656 -9.425781 3.703125 -9.863281 3.078125 -10.53125 C 2.460938 -11.207031 2.15625 -12.070312 2.15625 -13.125 C 2.15625 -14.519531 2.632812 -15.613281 3.59375 -16.40625 C 4.550781 -17.207031 5.867188 -17.609375 7.546875 -17.609375 C 9.222656 -17.609375 10.539062 -17.207031 11.5 -16.40625 C 12.457031 -15.613281 12.9375 -14.519531 12.9375 -13.125 C 12.9375 -12.070312 12.625 -11.207031 12 -10.53125 C 11.375 -9.863281 10.484375 -9.425781 9.328125 -9.21875 Z M 9.328125 -9.21875 "/></g></g></g><g fill="#010101" fill-opacity="1"><g transform="translate(19.933967, 37.945548)"><g><path d="M 15.8125 -6.765625 C 15.8125 -8.535156 15.375 -9.90625 14.5 -10.875 C 13.625 -11.851562 12.390625 -12.34375 10.796875 -12.34375 C 9.203125 -12.34375 7.960938 -11.851562 7.078125 -10.875 C 6.203125 -9.90625 5.765625 -8.535156 5.765625 -6.765625 C 5.765625 -4.984375 6.203125 -3.601562 7.078125 -2.625 C 7.960938 -1.644531 9.203125 -1.15625 10.796875 -1.15625 C 12.390625 -1.15625 13.625 -1.644531 14.5 -2.625 C 15.375 -3.601562 15.8125 -4.984375 15.8125 -6.765625 Z M 15.140625 -18.78125 C 15.140625 -20.28125 14.753906 -21.453125 13.984375 -22.296875 C 13.222656 -23.140625 12.160156 -23.5625 10.796875 -23.5625 C 9.429688 -23.5625 8.363281 -23.140625 7.59375 -22.296875 C 6.832031 -21.453125 6.453125 -20.28125 6.453125 -18.78125 C 6.453125 -17.269531 6.832031 -16.09375 7.59375 -15.25 C 8.363281 -14.414062 9.429688 -14 10.796875 -14 C 12.160156 -14 13.222656 -14.414062 13.984375 -15.25 C 14.753906 -16.09375 15.140625 -17.269531 15.140625 -18.78125 Z M 13.34375 -13.1875 C 15.226562 -12.925781 16.691406 -12.226562 17.734375 -11.09375 C 18.785156 -9.96875 19.3125 -8.523438 19.3125 -6.765625 C 19.3125 -4.441406 18.578125 -2.648438 17.109375 -1.390625 C 15.640625 -0.140625 13.535156 0.484375 10.796875 0.484375 C 8.066406 0.484375 5.960938 -0.140625 4.484375 -1.390625 C 3.003906 -2.648438 2.265625 -4.441406 2.265625 -6.765625 C 2.265625 -8.523438 2.789062 -9.96875 3.84375 -11.09375 C 4.894531 -12.226562 6.363281 -12.925781 8.25 -13.1875 C 6.582031 -13.476562 5.300781 -14.109375 4.40625 -15.078125 C 3.519531 -16.046875 3.078125 -17.28125 3.078125 -18.78125 C 3.078125 -20.769531 3.757812 -22.335938 5.125 -23.484375 C 6.5 -24.628906 8.390625 -25.203125 10.796875 -25.203125 C 13.191406 -25.203125 15.070312 -24.628906 16.4375 -23.484375 C 17.8125 -22.335938 18.5 -20.769531 18.5 -18.78125 C 18.5 -17.28125 18.050781 -16.046875 17.15625 -15.078125 C 16.269531 -14.109375 15 -13.476562 13.34375 -13.1875 Z M 13.34375 -13.1875 "/></g></g></g><g clip-path="url(#a04ed40893)"><path stroke-linecap="butt" transform="matrix(0.746195, 0, 0, 0.746195, 30.637603, 45.234822)" fill="none" stroke-linejoin="miter" d="M -0.00118541 -0.000598774 L 316.102365 -0.000598774 L 316.102365 449.63974 L -0.00118541 449.63974 Z M -0.00118541 -0.000598774 " stroke="#000000" stroke-width="6" stroke-opacity="1" stroke-miterlimit="4"/></g><g clip-path="url(#74defe34b9)"><g clip-path="url(#c1ee0b99f9)"><path fill="#ffffff" d="M 65.066406 75.683594 L 77.210938 75.683594 L 77.210938 87.324219 L 65.066406 87.324219 Z M 65.066406 75.683594 " fill-opacity="1" fill-rule="nonzero"/></g></g><g clip-path="url(#d82dbc2945)"><g clip-path="url(#802f16e6ee)"><path fill="#ffffff" d="M 70.21875 68.074219 L 81.78125 68.074219 L 81.78125 79.777344 L 70.21875 79.777344 Z M 70.21875 68.074219 " fill-opacity="1" fill-rule="nonzero"/></g></g><g clip-path="url(#7de24ae6fb)"><g clip-path="url(#6b72b352bf)"><path fill="#ffffff" d="M 58.5 66.878906 L 87.304688 66.878906 L 87.304688 119.535156 L 58.5 119.535156 Z M 58.5 66.878906 " fill-opacity="1" fill-rule="nonzero"/></g></g><g clip-path="url(#e6e281a684)"><g clip-path="url(#000c344c33)"><path fill="#ffffff" d="M 67.15625 70.6875 L 82.378906 70.6875 L 82.378906 102.199219 L 67.15625 102.199219 Z M 67.15625 70.6875 " fill-opacity="1" fill-rule="nonzero"/></g></g><g clip-path="url(#d8c00a1c10)"><g clip-path="url(#497628b2e5)"><path fill="#ffffff" d="M 66.484375 73.523438 L 88.574219 73.523438 L 88.574219 127.445312 L 66.484375 127.445312 Z M 66.484375 73.523438 " fill-opacity="1" fill-rule="nonzero"/></g></g><g clip-path="url(#c687439a2d)"><g clip-path="url(#de5df03166)"><path fill="#ffffff" d="M 61.933594 76.65625 L 84.46875 76.65625 L 84.46875 113.714844 L 61.933594 113.714844 Z M 61.933594 76.65625 " fill-opacity="1" fill-rule="nonzero"/></g></g><g clip-path="url(#4996b294bc)"><g clip-path="url(#ab97d4de20)"><path fill="#ffffff" d="M 61.113281 74.34375 L 75.664062 74.34375 L 75.664062 101.453125 L 61.113281 101.453125 Z M 61.113281 74.34375 " fill-opacity="1" fill-rule="nonzero"/></g></g><g clip-path="url(#3179854716)"><g clip-path="url(#f7062c6e13)"><path fill="#ffffff" d="M 182.59375 335.734375 L 208.886719 335.734375 L 208.886719 356.703125 L 182.59375 356.703125 Z M 182.59375 335.734375 " fill-opacity="1" fill-rule="nonzero"/></g></g><g clip-path="url(#be25fa1021)"><g clip-path="url(#f7ca74f78b)"><path fill="#ffffff" d="M 196.621094 333.792969 L 208.429688 333.792969 L 208.429688 345.507812 L 196.621094 345.507812 Z M 196.621094 333.792969 " fill-opacity="1" fill-rule="nonzero"/></g></g><g clip-path="url(#ef90faf680)"><g clip-path="url(#1dcf60bd69)"><path fill="#ffffff" d="M 225.574219 312.230469 L 239.671875 312.230469 L 239.671875 323.871094 L 225.574219 323.871094 Z M 225.574219 312.230469 " fill-opacity="1" fill-rule="nonzero"/></g></g><g clip-path="url(#268cf98bb8)"><path fill="#000000" d="M 32.46875 45.058594 C 28.234375 45.058594 24.796875 48.667969 24.796875 53.117188 C 24.832031 55.914062 26.277344 58.28125 27.78125 60.53125 C 26.105469 59.261719 24.242188 58.496094 22.238281 58.488281 C 18 58.488281 14.5625 62.097656 14.5625 66.546875 C 14.5625 70.996094 18 74.605469 22.238281 74.605469 C 25.667969 74.550781 28.414062 72.148438 31.109375 70.128906 C 30.628906 76.160156 29.644531 79.542969 23.941406 80.875 L 41 80.875 C 35.292969 79.542969 34.3125 76.160156 33.828125 70.128906 C 36.496094 72.414062 39.292969 74.351562 42.703125 74.605469 C 46.941406 74.605469 50.378906 70.996094 50.378906 66.546875 C 50.378906 62.097656 46.941406 58.488281 42.703125 58.488281 C 40.648438 58.488281 38.871094 59.433594 37.160156 60.53125 C 38.863281 58.304688 39.980469 55.902344 40.144531 53.117188 C 40.144531 48.667969 36.707031 45.058594 32.46875 45.058594 Z M 32.46875 45.058594 " fill-opacity="1" fill-rule="nonzero"/></g><g clip-path="url(#76837b5ac2)"><path fill="#000000" d="M 266.339844 380.75 C 262.105469 380.75 258.664062 377.140625 258.664062 372.691406 C 258.703125 369.890625 260.148438 367.523438 261.648438 365.273438 C 259.972656 366.542969 258.113281 367.308594 256.105469 367.316406 C 251.871094 367.316406 248.433594 363.707031 248.433594 359.257812 C 248.433594 354.808594 251.871094 351.199219 256.105469 351.199219 C 259.539062 351.257812 262.285156 353.660156 264.980469 355.675781 C 264.5 349.648438 263.515625 346.261719 257.8125 344.933594 L 274.867188 344.933594 C 269.164062 346.261719 268.183594 349.648438 267.699219 355.675781 C 270.367188 353.390625 273.164062 351.453125 276.574219 351.199219 C 280.8125 351.199219 284.25 354.808594 284.25 359.257812 C 284.25 363.707031 280.8125 367.316406 276.574219 367.316406 C 274.519531 367.316406 272.742188 366.371094 271.03125 365.273438 C 272.734375 367.503906 273.851562 369.90625 274.015625 372.691406 C 274.015625 377.140625 270.578125 380.75 266.339844 380.75 Z M 266.339844 380.75 " fill-opacity="1" fill-rule="nonzero"/></g><g clip-path="url(#2360483f15)"><path fill="#000000" d="M 266.488281 45.265625 C 263.488281 45.265625 261.054688 47.820312 261.054688 50.972656 C 261.078125 52.957031 262.101562 54.632812 263.167969 56.226562 C 261.980469 55.328125 260.660156 54.785156 259.242188 54.777344 C 256.238281 54.777344 253.804688 57.335938 253.804688 60.488281 C 253.804688 63.636719 256.238281 66.195312 259.242188 66.195312 C 261.671875 66.15625 263.617188 64.453125 265.527344 63.023438 C 265.183594 67.292969 264.488281 69.691406 260.449219 70.636719 L 272.53125 70.636719 C 268.488281 69.691406 267.792969 67.292969 267.453125 63.023438 C 269.339844 64.644531 271.320312 66.015625 273.738281 66.195312 C 276.738281 66.195312 279.175781 63.636719 279.175781 60.488281 C 279.175781 57.335938 276.738281 54.777344 273.738281 54.777344 C 272.28125 54.777344 271.023438 55.449219 269.8125 56.226562 C 271.015625 54.648438 271.8125 52.945312 271.925781 50.972656 C 271.925781 47.820312 269.492188 45.265625 266.488281 45.265625 Z M 266.488281 45.265625 " fill-opacity="1" fill-rule="nonzero"/></g><g clip-path="url(#841336bd12)"><path fill="#000000" d="M 32.621094 381.039062 C 29.617188 381.039062 27.183594 378.480469 27.183594 375.328125 C 27.207031 373.347656 28.230469 371.671875 29.296875 370.078125 C 28.109375 370.976562 26.789062 371.519531 25.371094 371.523438 C 22.371094 371.523438 19.933594 368.96875 19.933594 365.816406 C 19.933594 362.664062 22.371094 360.109375 25.371094 360.109375 C 27.800781 360.148438 29.746094 361.847656 31.65625 363.277344 C 31.316406 359.007812 30.621094 356.609375 26.578125 355.667969 L 38.660156 355.667969 C 34.621094 356.609375 33.925781 359.007812 33.582031 363.277344 C 35.46875 361.660156 37.453125 360.285156 39.867188 360.109375 C 42.871094 360.109375 45.304688 362.664062 45.304688 365.816406 C 45.304688 368.96875 42.871094 371.523438 39.867188 371.523438 C 38.410156 371.523438 37.152344 370.855469 35.941406 370.078125 C 37.148438 371.65625 37.941406 373.355469 38.054688 375.328125 C 38.054688 378.480469 35.621094 381.039062 32.621094 381.039062 Z M 32.621094 381.039062 " fill-opacity="1" fill-rule="nonzero"/></g><g clip-path="url(#c7dfa6925d)"><path fill="#000000" d="M 101.019531 304.5 C 100.734375 304.921875 100.503906 304.875 99.925781 304.027344 C 99.792969 304.199219 99.675781 304.339844 99.605469 304.421875 C 99.410156 304.277344 99.132812 304.054688 98.832031 303.886719 C 98.457031 303.671875 98.074219 303.394531 97.667969 303.324219 C 96.917969 303.179688 96.144531 303.164062 95.390625 303.09375 C 95.070312 303.066406 94.757812 302.976562 94.4375 302.992188 C 93.96875 303.019531 93.453125 302.949219 93.167969 303.492188 C 93.105469 303.609375 92.847656 303.429688 92.757812 303.75 C 92.703125 303.9375 92.152344 303.949219 91.894531 304.136719 C 91.753906 304.234375 91.316406 304.0625 91.460938 304.511719 C 91.265625 304.5 91.03125 304.554688 90.890625 304.464844 C 90.730469 304.359375 90.648438 304.125 90.488281 303.886719 C 90.152344 304.882812 89.261719 304.777344 88.558594 305.046875 C 88.417969 304.804688 88.285156 304.5625 88.222656 304.464844 C 87.378906 304.742188 86.59375 305 85.769531 305.277344 C 85.535156 304.492188 85.128906 304.636719 84.65625 304.984375 C 84.53125 305.070312 84.335938 305.054688 84.167969 305.082031 C 83.953125 305.117188 83.742188 305.144531 83.519531 305.171875 C 83.5 305.234375 83.472656 305.304688 83.457031 305.367188 C 83.375 305.207031 83.277344 305.0625 83.226562 304.894531 C 83.066406 304.4375 82.671875 304.261719 82.191406 304.410156 C 82.03125 304.464844 81.847656 304.429688 81.675781 304.402344 C 80.9375 304.296875 80.273438 304.957031 79.515625 304.609375 C 79.445312 304.574219 79.3125 304.609375 79.242188 304.652344 C 78.664062 305.089844 78.28125 304.535156 77.800781 304.375 C 77.746094 304.492188 77.695312 304.625 77.640625 304.75 C 77.203125 304.652344 76.785156 304.574219 76.378906 304.472656 C 76.144531 304.421875 75.921875 304.359375 75.691406 304.304688 C 75.640625 304.285156 75.542969 304.269531 75.523438 304.296875 C 75.210938 304.6875 74.917969 305.082031 74.554688 305.554688 C 74.421875 305.375 74.226562 305.097656 74.011719 304.820312 C 73.460938 305.082031 72.652344 305.027344 72.640625 306.203125 C 72.332031 305.855469 72.136719 305.632812 71.929688 305.394531 C 71.921875 305.429688 71.894531 305.5 71.886719 305.535156 C 71.59375 305.320312 71.289062 305.097656 70.898438 304.8125 C 70.871094 305.109375 70.855469 305.285156 70.820312 305.605469 C 70.0625 304.984375 69.40625 304.4375 68.667969 303.832031 C 68.621094 303.859375 68.445312 303.976562 68.25 304.101562 C 68.25 303.949219 68.25 303.832031 68.25 303.652344 C 67.796875 303.914062 67.289062 304.089844 66.960938 304.429688 C 66.613281 304.785156 66.46875 304.484375 66.222656 304.367188 C 65.9375 304.75 65.671875 305.171875 65.332031 305.527344 C 65.207031 305.660156 64.90625 305.597656 64.699219 305.667969 C 64.34375 305.804688 64.015625 305.992188 63.660156 306.132812 C 63.535156 306.1875 63.375 306.222656 63.25 306.203125 C 62.265625 306.035156 61.996094 306.265625 62.015625 307.300781 C 62.015625 307.363281 62.007812 307.425781 61.996094 307.515625 C 61.613281 307.765625 61.097656 307.890625 61.082031 308.523438 C 61.082031 308.65625 60.761719 308.773438 60.566406 308.953125 C 60.226562 309.183594 59.90625 309.476562 59.535156 309.640625 C 58.957031 309.878906 58.359375 310.121094 57.746094 310.199219 C 56.617188 310.34375 55.425781 310.449219 54.394531 309.863281 C 53.574219 309.390625 52.882812 308.703125 52.144531 308.113281 C 51.796875 307.835938 51.433594 307.570312 51.113281 307.257812 C 50.933594 307.097656 50.828125 306.863281 50.675781 306.632812 C 48.125 304.4375 45.6875 302.144531 45.375 298.335938 C 45.832031 298.273438 46.363281 298.195312 46.800781 298.132812 C 46.746094 297.472656 46.710938 296.839844 46.621094 296.207031 C 46.59375 296.035156 46.410156 295.894531 46.328125 295.722656 C 46.273438 295.609375 46.273438 295.457031 46.25 295.324219 C 46.382812 295.3125 46.542969 295.25 46.628906 295.3125 C 47.136719 295.652344 47.582031 295.152344 48.0625 295.226562 C 48.105469 295.234375 48.242188 295.046875 48.25 294.9375 C 48.277344 294.539062 48.230469 294.128906 48.277344 293.726562 C 48.292969 293.609375 48.535156 293.476562 48.683594 293.449219 C 48.917969 293.414062 49.210938 293.546875 49.394531 293.449219 C 49.839844 293.21875 50.179688 293.371094 50.589844 293.691406 C 50.589844 293.253906 50.589844 292.886719 50.589844 292.539062 C 51.496094 292.398438 52.359375 292.210938 52.917969 292.796875 C 53.453125 292.664062 53.859375 292.59375 54.242188 292.441406 C 54.617188 292.300781 54.964844 292.078125 55.320312 291.890625 C 55.300781 291.835938 55.285156 291.789062 55.265625 291.738281 C 55.175781 291.738281 55.097656 291.738281 54.980469 291.738281 C 55.132812 291.078125 55.175781 290.398438 55.453125 289.820312 C 55.578125 289.5625 55.53125 289.390625 55.585938 289.175781 C 55.628906 288.980469 55.933594 288.855469 56.023438 288.652344 C 56.191406 288.304688 56.378906 287.964844 56.519531 287.609375 C 56.671875 287.242188 56.8125 286.867188 56.902344 286.492188 C 57.125 285.511719 57.933594 285.066406 58.628906 284.511719 C 58.699219 284.460938 58.839844 284.378906 58.832031 284.378906 C 58.484375 283.710938 59.117188 283.539062 59.445312 283.433594 C 59.898438 283.28125 59.933594 282.792969 60.253906 282.628906 C 60.789062 282.355469 61.367188 282.113281 61.953125 282.03125 C 62.585938 281.933594 62.808594 281.558594 63.019531 281.0625 C 63.179688 280.675781 63.492188 280.339844 63.570312 279.945312 C 63.644531 279.617188 63.5 279.230469 63.429688 278.875 C 63.347656 278.472656 63.066406 278 63.199219 277.699219 C 63.507812 276.964844 63.421875 276.15625 63.953125 275.441406 C 64.390625 274.84375 64.371094 273.917969 64.578125 273.015625 C 64.363281 273.140625 64.265625 273.203125 64.160156 273.265625 C 64.160156 272.570312 64.160156 271.875 64.160156 271.160156 C 64.0625 271.203125 63.980469 271.242188 64.015625 271.222656 C 63.570312 269.0625 64.085938 266.921875 64.300781 264.765625 C 64.195312 264.40625 64.078125 263.996094 63.960938 263.585938 C 63.953125 263.585938 63.863281 263.625 63.75 263.667969 C 63.757812 263.585938 63.75 263.523438 63.757812 263.460938 C 63.945312 262.722656 64.183594 261.980469 64.328125 261.234375 C 64.515625 260.261719 64.621094 259.269531 64.773438 258.289062 C 64.789062 258.199219 64.84375 258.09375 64.816406 258.011719 C 64.710938 257.636719 64.796875 257.335938 64.914062 256.953125 C 65.082031 256.390625 65.296875 255.773438 65.15625 255.121094 C 65.101562 254.882812 65.296875 254.570312 65.4375 254.320312 C 65.742188 253.785156 65.617188 253.105469 66.167969 252.609375 C 66.765625 252.074219 67.207031 251.339844 67.652344 250.652344 C 67.832031 250.378906 67.8125 249.984375 67.964844 249.683594 C 68.230469 249.136719 68.703125 248.65625 68.84375 248.085938 C 69.09375 247.105469 70 246.773438 70.515625 246.0625 C 70.722656 245.773438 70.980469 245.535156 71.183594 245.25 C 71.21875 245.203125 71.105469 245.054688 71.058594 244.953125 C 71.742188 244.5 71.699219 244.5 71.742188 243.671875 C 71.753906 243.4375 72.089844 243.1875 72.332031 243 C 73.015625 242.449219 73.878906 242.011719 73.96875 241.003906 C 74.082031 239.683594 74.527344 238.460938 74.855469 237.203125 C 75.285156 235.570312 75.34375 233.859375 75.648438 232.191406 C 75.824219 231.183594 76.15625 230.203125 76.429688 229.210938 C 76.636719 228.472656 76.839844 227.730469 77.054688 226.992188 C 77.214844 226.421875 77.410156 225.859375 77.542969 225.289062 C 77.632812 224.902344 77.585938 224.476562 77.710938 224.101562 C 77.914062 223.511719 77.285156 223.269531 77.257812 222.816406 C 77.214844 222.03125 77.320312 221.230469 77.230469 220.453125 C 77.152344 219.738281 77.695312 219.1875 77.585938 218.507812 C 77.382812 217.269531 78.503906 216.539062 78.734375 215.457031 C 78.859375 214.871094 79.125 214.296875 79.402344 213.761719 C 79.523438 213.511719 79.835938 213.351562 80.066406 213.164062 C 80.164062 213.085938 80.261719 213.015625 80.378906 212.960938 C 80.726562 212.792969 81.074219 212.585938 81.4375 212.480469 C 81.800781 212.363281 82.203125 212.363281 82.585938 212.28125 C 82.886719 212.21875 83.171875 212.140625 83.375 212.460938 C 83.617188 211.953125 83.917969 212.308594 84.175781 212.425781 C 84.425781 212.53125 84.691406 212.65625 84.871094 212.84375 C 85.902344 214.003906 86.445312 215.429688 87.046875 216.824219 C 87.394531 217.632812 87.664062 218.472656 87.984375 219.292969 C 88.019531 219.390625 88.140625 219.515625 88.242188 219.535156 C 89.183594 219.738281 90.152344 219.882812 91.078125 220.140625 C 91.886719 220.363281 92.660156 220.703125 93.441406 221.007812 C 93.699219 221.105469 93.921875 221.316406 94.179688 221.355469 C 95.042969 221.453125 95.53125 222.113281 96.144531 222.59375 C 96.804688 223.121094 97.453125 223.644531 98.101562 224.179688 C 98.34375 224.378906 98.714844 224.546875 98.777344 224.796875 C 99.019531 225.761719 99.738281 225.234375 100.042969 225.101562 C 100.859375 224.761719 101.6875 224.546875 102.558594 224.511719 C 103.128906 224.492188 103.679688 224.09375 104.273438 224.503906 C 104.390625 224.582031 104.726562 224.332031 105.019531 224.21875 C 105.074219 224.386719 105.117188 224.527344 105.171875 224.679688 C 105.882812 224.671875 106.398438 225.027344 106.800781 225.589844 C 107.394531 226.421875 107.476562 227.3125 107.136719 228.257812 C 107.101562 228.347656 107.109375 228.460938 107.128906 228.5625 C 107.253906 229.160156 107.351562 229.730469 106.71875 230.167969 C 106.550781 230.28125 106.59375 230.683594 106.488281 230.933594 C 106.210938 231.59375 105.902344 232.246094 105.597656 232.929688 C 105.011719 232.671875 104.933594 233.277344 104.71875 233.625 C 104.53125 233.9375 104.398438 234.285156 104.265625 234.625 C 104.035156 235.1875 103.8125 234.957031 103.625 234.6875 C 102.859375 235.160156 102.15625 235.875 101.339844 236.035156 C 100.085938 236.292969 100.15625 237.320312 99.730469 238.078125 C 99.285156 238.863281 98.867188 239.65625 98.421875 240.433594 C 98.371094 240.523438 98.199219 240.53125 98.09375 240.601562 C 97.933594 240.699219 97.753906 240.796875 97.648438 240.941406 C 97.347656 241.351562 97.089844 241.796875 96.777344 242.191406 C 96.699219 242.289062 96.441406 242.234375 96.316406 242.324219 C 95.726562 242.699219 95.167969 243.109375 94.589844 243.492188 C 94.351562 243.652344 94.082031 243.757812 93.832031 243.894531 C 93.753906 243.859375 93.664062 243.820312 93.585938 243.777344 C 93.628906 244.320312 93.675781 244.855469 93.710938 245.402344 C 93.71875 245.472656 93.675781 245.542969 93.675781 245.613281 C 93.664062 245.863281 93.585938 246.167969 93.691406 246.363281 C 93.914062 246.78125 94.054688 247.210938 94.003906 247.667969 C 93.949219 248.191406 94.109375 248.574219 94.351562 249.046875 C 94.6875 249.699219 94.757812 250.503906 94.964844 251.226562 C 95.070312 251.609375 95.210938 251.992188 95.347656 252.375 C 95.308594 252.375 95.195312 252.375 95.085938 252.375 C 95.300781 252.609375 95.503906 252.839844 95.648438 252.992188 C 95.585938 253.179688 95.496094 253.3125 95.503906 253.429688 C 95.613281 254.167969 95.710938 254.917969 95.871094 255.648438 C 95.976562 256.128906 96.136719 256.621094 96.367188 257.058594 C 96.714844 257.710938 97.078125 258.308594 96.804688 259.09375 C 96.722656 259.304688 96.964844 259.652344 96.859375 259.839844 C 96.351562 260.796875 96.867188 261.632812 97.070312 262.515625 C 97.214844 263.140625 97.230469 263.785156 97.328125 264.417969 C 97.382812 264.738281 97.515625 265.050781 97.613281 265.390625 C 97.558594 265.371094 97.460938 265.335938 97.265625 265.253906 C 97.730469 265.828125 97.855469 266.351562 97.375 266.871094 C 97.855469 267.46875 97.738281 268.152344 97.71875 268.832031 C 97.695312 269.804688 97.71875 270.769531 97.71875 271.738281 C 97.71875 271.875 97.640625 272.007812 97.640625 272.140625 C 97.632812 272.417969 97.648438 272.695312 97.667969 272.972656 C 97.675781 273.050781 97.765625 273.140625 97.746094 273.195312 C 97.328125 274.265625 97.96875 275.21875 97.96875 276.261719 C 97.953125 276.269531 97.863281 276.296875 97.90625 276.28125 C 97.996094 276.582031 98.09375 276.859375 98.148438 277.144531 C 98.273438 277.824219 98.492188 278.4375 99.105469 278.742188 C 99.027344 278.945312 98.964844 279.117188 98.867188 279.367188 C 98.8125 279.367188 98.636719 279.355469 98.394531 279.347656 C 98.777344 279.578125 99.105469 279.777344 99.578125 280.0625 C 99.285156 280.125 99.179688 280.152344 99.070312 280.167969 C 99.070312 280.214844 99.0625 280.257812 99.070312 280.292969 C 99.675781 281.835938 101.375 281.980469 102.460938 282.914062 C 102.832031 283.238281 103.527344 283.238281 103.804688 283.59375 C 104.210938 284.109375 104.816406 284.128906 105.253906 284.460938 C 105.695312 284.789062 106.035156 285.269531 106.390625 285.699219 C 106.425781 285.742188 106.300781 285.921875 106.230469 286.074219 C 106.488281 286.394531 107.207031 286.421875 107.101562 287.199219 C 107.085938 287.347656 107.636719 287.582031 107.875 287.742188 C 107.945312 287.957031 108.042969 288.1875 108.070312 288.417969 C 108.097656 288.589844 108.027344 288.777344 107.984375 289.089844 C 108.105469 289.238281 108.320312 289.5 108.558594 289.800781 C 108.550781 289.8125 108.472656 289.847656 108.339844 289.910156 C 109.09375 290.433594 108.648438 291.773438 109.867188 292.003906 C 109.753906 292.039062 109.671875 292.058594 109.484375 292.113281 C 109.707031 292.261719 109.867188 292.378906 109.9375 292.433594 C 110.382812 292.078125 110.765625 291.765625 111.148438 291.453125 C 111.183594 291.425781 111.238281 291.371094 111.238281 291.371094 C 111.914062 292.113281 112.535156 291.21875 113.210938 291.28125 C 113.851562 291.34375 114.535156 290.953125 115.210938 290.78125 C 115.371094 290.738281 115.550781 290.773438 115.808594 290.773438 C 115.628906 291.078125 115.503906 291.28125 115.371094 291.503906 C 115.558594 291.640625 115.710938 291.746094 115.84375 291.84375 C 116.402344 291.316406 117.089844 291.65625 117.648438 291.691406 C 117.730469 292.050781 117.800781 292.300781 117.84375 292.550781 C 117.890625 292.773438 117.925781 293.003906 117.878906 293.234375 C 118.136719 293.496094 118.136719 293.496094 119.660156 293.316406 C 119.578125 294.28125 119.507812 295.25 119.417969 296.375 C 119.828125 296.359375 120.246094 296.332031 120.558594 296.320312 C 120.558594 297.007812 120.699219 297.757812 120.519531 298.417969 C 120.324219 299.121094 119.820312 299.738281 119.453125 300.398438 C 118.949219 301.308594 118.519531 302.261719 117.933594 303.117188 C 117.460938 303.8125 116.804688 304.386719 116.253906 305.035156 C 116.121094 305.195312 116.101562 305.445312 116.023438 305.652344 C 115.960938 305.8125 115.871094 306.105469 115.808594 306.105469 C 115.257812 306.078125 115.210938 306.535156 114.988281 306.855469 C 114.792969 307.132812 114.632812 307.417969 114.136719 307.375 C 113.796875 307.347656 113.425781 307.703125 113.058594 307.871094 C 112.359375 308.195312 111.664062 308.585938 110.925781 308.792969 C 110.480469 308.917969 109.9375 308.855469 109.484375 308.71875 C 108.621094 308.460938 107.75 308.175781 106.96875 307.738281 C 106.496094 307.480469 106.1875 306.925781 105.792969 306.507812 C 105.414062 306.105469 105.039062 305.695312 104.621094 305.355469 C 104.480469 305.242188 104.175781 305.339844 103.964844 305.285156 C 103.546875 305.179688 103.144531 305.035156 102.734375 304.921875 C 102.476562 304.847656 102.210938 304.8125 101.953125 304.75 C 101.667969 304.6875 101.367188 304.597656 101.019531 304.5 Z M 101.019531 304.5 " fill-opacity="1" fill-rule="nonzero"/></g><g clip-path="url(#5b43f3385e)"><path fill="#000000" d="M 245.257812 289.207031 C 245.539062 288.890625 245.78125 288.578125 245.992188 288.265625 C 246.410156 287.671875 246.515625 286.976562 246.933594 286.246094 C 247.179688 286.664062 247.351562 287.117188 247.597656 287.5 C 248.46875 286.839844 248.257812 284.855469 248.710938 283.808594 C 249.199219 284.15625 249.550781 285.132812 250.28125 284.75 C 250.804688 284.46875 250.804688 282.800781 250.945312 282.3125 C 252.863281 282.625 252.269531 280.570312 252.722656 279.28125 C 255.128906 280.1875 254.1875 277.578125 254.328125 275.730469 C 254.816406 275.871094 255.164062 276.394531 255.722656 276.359375 C 255.792969 275.210938 255.96875 273.992188 255.933594 272.839844 C 256.316406 272.980469 256.628906 273.398438 257.015625 273.640625 C 257.152344 272.320312 256.804688 270.960938 256.910156 269.636719 C 257.222656 270.019531 257.46875 269.917969 257.816406 270.054688 C 258.027344 268.351562 256.945312 266.714844 257.222656 265.007812 C 257.570312 265.390625 257.992188 265.914062 258.445312 266.15625 C 258.269531 265.007812 257.851562 263.824219 258.027344 262.605469 C 258.128906 262.78125 258.515625 262.988281 258.617188 263.09375 C 258.582031 262.117188 257.851562 261.246094 257.675781 260.273438 C 258.027344 260.621094 258.375 260.621094 258.757812 260.691406 C 258.6875 259.75 258.058594 258.566406 257.675781 257.695312 C 258.058594 257.730469 258.546875 257.625 258.933594 257.660156 C 258.445312 256.058594 255.96875 254.492188 255.933594 252.785156 C 256.105469 252.855469 256.351562 252.890625 256.492188 252.925781 C 255.96875 251.707031 254.78125 250.734375 254.152344 249.582031 C 254.574219 249.757812 254.851562 249.652344 255.234375 249.722656 C 254.46875 248.398438 252.550781 246.9375 252.375 245.371094 C 252.792969 245.335938 252.863281 245.023438 253.140625 244.882812 C 252.234375 243.941406 249.863281 242.585938 249.65625 241.296875 C 249.757812 241.226562 249.898438 241.15625 249.933594 241.125 C 248.78125 240.671875 247.699219 239.660156 246.898438 238.753906 C 247.144531 238.789062 247.386719 238.6875 247.632812 238.71875 C 245.921875 236.875 244.351562 235.484375 242.226562 234.300781 C 242.539062 233.914062 243.097656 233.8125 243.621094 233.742188 C 240.828125 232.664062 237.375 231.757812 234.621094 230.363281 C 233.992188 228.414062 232.945312 226.429688 232.003906 224.898438 C 231.726562 223.15625 231.167969 221.347656 230.890625 219.78125 C 230.472656 217.480469 230.121094 215.078125 229.773438 212.710938 C 229.179688 208.394531 228.378906 204.113281 227.019531 199.898438 C 225.484375 195.058594 224.332031 190.011719 222.691406 185.207031 C 221.125 180.644531 220.320312 175.980469 218.820312 171.417969 C 218.296875 169.78125 213.414062 160.902344 214.113281 160.207031 C 213.761719 159.199219 211.53125 158.152344 212.996094 157.351562 C 212.4375 156.480469 211.496094 155.195312 210.449219 154.601562 C 210.519531 154.324219 210.554688 154.078125 210.589844 153.835938 C 210.171875 153.800781 209.820312 153.765625 209.472656 154.011719 C 209.300781 153.660156 209.089844 153.488281 209.125 153 C 208.878906 153.070312 208.460938 152.894531 208.21875 152.964844 C 207.660156 151.433594 208.183594 151.363281 206.4375 151.257812 C 206.335938 149.867188 206.472656 149.519531 205.007812 149.554688 C 204.9375 149.03125 204.9375 148.40625 205.113281 147.917969 C 204.589844 147.636719 203.960938 147.707031 203.40625 147.671875 C 203.371094 147.152344 203.472656 146.699219 203.507812 146.210938 C 203.125 146.246094 202.671875 146.105469 202.289062 146.175781 C 202.21875 145.652344 202.324219 145.167969 202.394531 144.714844 C 202.007812 144.75 201.554688 144.644531 201.171875 144.679688 C 201.242188 144.46875 201.171875 144.121094 201.3125 143.878906 C 199.847656 143.496094 199.777344 143.390625 199.707031 141.824219 C 199.042969 141.683594 198.625 141.71875 198.277344 141.230469 C 197.929688 140.746094 198.347656 140.398438 197.789062 139.910156 C 197.335938 139.527344 196.601562 139.769531 196.183594 139.179688 C 195.800781 138.691406 196.113281 137.890625 195.835938 137.4375 C 195.554688 136.984375 195 136.914062 194.683594 136.53125 C 194.335938 136.113281 194.441406 135.660156 194.023438 135.277344 C 193.636719 134.929688 192.90625 135 192.589844 134.546875 C 192.3125 134.164062 192.488281 133.46875 192.277344 133.015625 C 191.160156 133.222656 189.453125 131.171875 189.242188 130.125 C 188.859375 130.160156 188.40625 130.019531 188.023438 130.054688 C 187.917969 129.289062 188.195312 128.453125 188.300781 127.722656 C 188.023438 127.757812 187.640625 127.617188 187.359375 127.6875 C 187.742188 126.78125 188.40625 126.226562 188.582031 125.179688 C 188.023438 125.355469 187.535156 125.949219 186.90625 126.15625 C 187.011719 125.738281 186.871094 125.390625 187.152344 124.972656 C 186.488281 125.042969 185.441406 125.214844 184.605469 125.460938 C 184.605469 123.753906 184.675781 122.046875 184.953125 120.375 C 185.476562 117.417969 186.941406 114.421875 186.523438 111.359375 C 186.105469 108.503906 183.941406 107.667969 181.882812 109.546875 C 179.894531 111.394531 178.953125 113.691406 176.339844 114.769531 C 173.964844 115.746094 171.941406 116.335938 170.058594 117.90625 C 169.78125 117.417969 169.292969 116.964844 168.875 117.523438 C 168.734375 117.3125 168.28125 117.070312 168.105469 116.859375 C 167.6875 117.347656 167.199219 117.207031 166.816406 116.6875 C 166.152344 118.355469 165.59375 115.640625 164.515625 117.171875 C 164.058594 116.058594 163.503906 116.371094 162.769531 117.171875 C 162.351562 116.546875 161.722656 116.652344 161.234375 117.171875 C 160.78125 115.605469 160.398438 117.070312 159.839844 117 C 159.003906 116.929688 158.621094 115.675781 157.957031 117.171875 C 157.1875 116.164062 156.316406 116.929688 155.792969 117.660156 C 155.445312 115.921875 154.085938 117.382812 153.632812 118.183594 C 152.898438 117 152.269531 118.671875 151.609375 119.191406 C 151.609375 118.984375 151.539062 118.738281 151.539062 118.566406 C 150.839844 118.636719 150.5625 119.367188 150.003906 119.714844 C 149.96875 119.507812 149.828125 119.296875 149.792969 119.089844 C 149.027344 119.054688 148.679688 119.75 148.085938 120.0625 C 147.386719 118.914062 147.179688 120.238281 146.65625 120.445312 C 146.0625 120.65625 145.886719 120.445312 145.191406 120.515625 C 145.015625 120.550781 143.691406 121.175781 143.273438 121.421875 C 139.261719 118.601562 134.03125 113.726562 129.113281 115.921875 C 123.460938 118.425781 127.925781 127.234375 129.320312 131.308594 C 129.914062 132.980469 130.644531 134.375 131.621094 135.625 C 130.261719 135.800781 128.167969 136.636719 127.714844 137.191406 C 128.484375 137.160156 129.496094 137.332031 130.089844 137.785156 C 129.460938 138.410156 128.691406 138.933594 128.203125 139.734375 C 128.972656 139.804688 129.773438 139.769531 130.542969 139.769531 C 129.878906 139.980469 129.320312 140.5 129.007812 141.09375 C 129.84375 141.546875 130.855469 141.058594 131.65625 141.511719 C 130.609375 142.449219 128.902344 143.808594 128.691406 145.339844 C 129.355469 145.269531 130.019531 144.886719 130.714844 144.886719 C 130.019531 145.722656 129.285156 146.386719 129.179688 147.535156 C 129.566406 147.5 130.019531 147.636719 130.4375 147.605469 C 130.089844 148.230469 129.53125 148.789062 129.53125 149.589844 C 129.914062 149.519531 130.332031 149.519531 130.609375 149.308594 C 129.808594 150.667969 129.632812 151.992188 131.414062 151.851562 C 131.273438 152.441406 130.714844 152.792969 130.820312 153.488281 C 131.03125 153.382812 131.484375 153.382812 131.726562 153.175781 C 131.902344 154.078125 131.449219 154.914062 131.621094 155.855469 C 132.144531 155.855469 132.53125 155.542969 133.019531 155.261719 C 132.984375 156.203125 131.9375 156.761719 132.109375 157.875 C 132.320312 157.839844 132.667969 157.980469 132.878906 157.910156 C 132.878906 159.128906 131.902344 160.136719 132.109375 161.425781 C 132.566406 161.425781 133.054688 161.460938 133.507812 161.496094 C 133.367188 162.191406 132.878906 162.820312 133.085938 163.65625 C 133.332031 163.410156 133.785156 163.132812 133.996094 162.855469 C 133.925781 163.863281 133.644531 164.769531 133.714844 165.882812 C 133.855469 165.847656 133.996094 165.8125 134.132812 165.742188 C 134.203125 166.542969 134.167969 167.378906 134.167969 168.214844 C 134.308594 168.007812 134.519531 167.902344 134.621094 167.796875 C 134.867188 168.460938 135.039062 169.226562 135.007812 169.957031 C 135.144531 169.851562 135.5625 169.816406 135.738281 169.644531 C 135.738281 170.546875 135.808594 171.28125 136.121094 172.148438 C 136.261719 172.183594 136.402344 172.183594 136.539062 172.183594 C 136.644531 172.847656 136.75 173.507812 136.925781 174.167969 C 137.0625 174.03125 137.484375 173.925781 137.65625 173.714844 C 137.65625 174.691406 137.832031 175.632812 138.039062 176.570312 C 138.144531 176.398438 138.25 176.363281 138.355469 176.121094 C 138.355469 176.121094 138.808594 176.085938 138.773438 176.121094 C 139.050781 176.851562 138.949219 177.582031 139.226562 178.277344 C 139.539062 179.042969 140.273438 179.738281 140.726562 180.402344 C 140.867188 180.574219 140.96875 180.785156 141.109375 180.992188 C 139.820312 182.558594 138.878906 186.703125 139.121094 188.269531 C 139.367188 188.097656 139.785156 188.027344 140.027344 187.851562 C 139.855469 188.722656 139.15625 189.523438 139.261719 190.464844 C 139.402344 190.429688 139.539062 190.394531 139.679688 190.324219 C 139.679688 191.402344 137.902344 194.46875 140.027344 194.050781 C 140.132812 195.582031 139.644531 197.359375 139.574219 198.960938 C 139.539062 199.761719 138.109375 203.382812 139.402344 203.382812 C 139.503906 205.644531 138.214844 208.117188 138.632812 210.449219 C 138.703125 210.484375 138.808594 210.484375 138.914062 210.519531 C 139.15625 214.070312 137.832031 217.273438 137.832031 220.894531 C 137.832031 224.273438 136.785156 227.542969 136.226562 230.746094 C 136.121094 231.269531 136.015625 233.253906 135.914062 234.683594 C 134.238281 235.238281 132.738281 237.503906 131.273438 238.269531 C 131.832031 238.234375 132.460938 238.269531 132.984375 238.511719 C 132.25 239.105469 131.308594 239.589844 130.472656 240.148438 C 130.609375 240.183594 130.75 240.183594 130.890625 240.21875 C 130.679688 241.191406 129.179688 241.855469 128.832031 242.863281 C 129.214844 242.898438 129.496094 243.140625 129.878906 243.109375 C 129.113281 243.839844 127.925781 244.117188 127.191406 244.777344 C 127.332031 244.8125 127.578125 244.988281 127.855469 244.988281 C 126.84375 246.03125 123.878906 247.355469 122.414062 247.703125 C 122.796875 248.226562 123.773438 248.050781 124.332031 248.46875 C 123.320312 248.921875 121.230469 249.617188 120.984375 250.835938 C 121.367188 251.011719 121.785156 251.082031 122.242188 251.082031 C 121.402344 252.054688 119.695312 252.472656 119.066406 253.902344 C 119.625 253.96875 120.21875 253.9375 120.773438 253.96875 C 121.054688 255.121094 119.34375 255.78125 119.378906 256.964844 C 119.832031 257.070312 120.390625 256.964844 120.773438 256.859375 C 120.148438 257.660156 119.066406 258.777344 118.890625 259.855469 C 119.449219 259.890625 120.042969 259.890625 120.636719 259.925781 C 120.253906 260.550781 119.796875 261.457031 119.867188 262.257812 C 120.148438 262.152344 120.671875 262.257812 120.949219 262.152344 C 121.054688 263.128906 120.53125 264.171875 120.496094 265.148438 C 120.707031 264.972656 121.195312 264.867188 121.402344 264.660156 C 121.507812 265.738281 121.195312 266.75 121.296875 267.828125 C 121.683594 267.757812 122.171875 267.828125 122.519531 267.722656 C 122.519531 268.523438 122.273438 269.253906 122.238281 270.054688 C 122.695312 269.953125 123.042969 269.570312 123.460938 269.429688 C 123.53125 270.265625 123.285156 271.066406 123.355469 271.9375 C 123.914062 271.902344 124.332031 271.589844 124.925781 271.65625 C 124.996094 272.632812 124.890625 273.640625 124.960938 274.617188 C 125.203125 274.375 125.554688 274.199219 125.726562 273.886719 C 125.726562 274.6875 125.660156 277.195312 127.019531 276.566406 C 127.507812 277.230469 127.019531 278.0625 127.4375 278.65625 C 127.925781 279.316406 128.519531 278.726562 129.042969 279.144531 C 129.632812 279.597656 129.355469 280.464844 129.601562 281.058594 C 129.984375 282 130.054688 281.617188 130.785156 282 C 131.867188 282.554688 132.53125 283.460938 133.75 284.085938 C 134.449219 284.4375 136.609375 286.074219 136.960938 284.921875 C 137.167969 285.6875 137.167969 287.011719 137.902344 287.464844 C 138.632812 287.917969 139.503906 287.222656 140.273438 287.605469 C 140.480469 288.578125 140.867188 290.078125 141.773438 288.476562 C 143.410156 291.363281 146.027344 287.359375 147.875 288.230469 C 147.738281 290.738281 147.003906 292.792969 145.785156 295.300781 C 144.285156 298.363281 144.386719 300.382812 147.738281 301.636719 C 148.714844 301.984375 149.65625 302.296875 150.527344 302.785156 C 150.839844 304.316406 151.261719 306.648438 152.238281 306.71875 C 153.214844 306.789062 153.703125 305.429688 153.839844 304.039062 C 154.574219 304.039062 155.375 304.976562 156.179688 305.292969 C 156.386719 306.613281 156.699219 308.078125 157.644531 307.796875 C 158.515625 307.519531 158.898438 305.988281 158.863281 304.734375 L 158.898438 304.734375 C 159.421875 304.910156 159.980469 305.011719 160.574219 305.082031 C 160.957031 306.441406 161.515625 308.738281 162.699219 308.25 C 163.222656 308.042969 163.746094 307.03125 164.058594 306.023438 C 164.550781 307.589844 165.386719 309.886719 166.46875 309.539062 C 167.09375 309.332031 167.617188 308.078125 167.96875 306.894531 C 169.1875 306.824219 170.09375 306.789062 170.6875 305.222656 C 171.175781 303.898438 170.652344 302.472656 170.476562 301.113281 C 170.234375 299.234375 170.234375 297.351562 170.375 295.507812 C 171.453125 295.578125 172.78125 295.402344 173.582031 295.367188 C 175.152344 295.300781 176.511719 294.601562 178.117188 294.707031 C 178.152344 294.8125 178.152344 294.914062 178.1875 294.984375 C 179.023438 294.707031 180.035156 293.90625 180.871094 293.835938 C 180.835938 294.113281 180.976562 294.53125 180.90625 294.8125 C 181.917969 294.21875 183.277344 292.6875 183.453125 294.777344 C 184.117188 294.429688 184.605469 293.105469 185.230469 292.964844 C 186.035156 292.792969 185.753906 293.453125 186.3125 293.976562 C 186.835938 293.382812 187.082031 292.128906 187.917969 292.164062 C 187.882812 292.617188 187.953125 293.070312 188.128906 293.488281 C 188.582031 292.863281 189.171875 291.609375 189.976562 291.46875 C 189.976562 291.921875 190.082031 292.410156 190.324219 292.792969 C 191.511719 292.511719 191.371094 290.460938 192.382812 289.9375 C 192.347656 290.597656 192.417969 291.292969 192.59375 291.921875 C 193.601562 291.992188 194.789062 290.980469 195.800781 290.109375 C 195.730469 291.710938 195.941406 293.347656 195.976562 294.949219 C 193.988281 295.578125 191.894531 296.796875 190.011719 297.492188 C 187.429688 298.433594 186.105469 300.765625 186.871094 303.515625 C 186.417969 304.664062 186.277344 306.058594 187.324219 306.371094 C 188.371094 306.648438 189.382812 305.640625 190.5 305.292969 C 190.429688 306.476562 190.5 307.730469 191.09375 308.214844 C 191.789062 308.84375 193.113281 307.03125 193.953125 305.8125 C 194.859375 306.09375 195.695312 306.265625 196.636719 306.335938 C 196.601562 307.625 197.023438 308.945312 198.277344 308.320312 C 198.765625 308.078125 199.566406 306.71875 199.984375 306.265625 C 200.019531 306.230469 200.019531 306.195312 200.054688 306.195312 C 201.589844 306.996094 203.507812 306.09375 205.148438 305.570312 C 208.425781 304.492188 213.308594 304.769531 215.75 302.089844 C 216.972656 300.730469 219.203125 300.242188 220.285156 298.917969 C 220.949219 298.085938 220.53125 296.96875 220.636719 295.960938 C 220.667969 295.472656 220.808594 294.984375 220.949219 294.53125 C 222.589844 294.8125 224.4375 294.707031 225.902344 294.882812 C 227.261719 295.054688 230.4375 295.890625 232.425781 295.578125 C 233.050781 296.691406 233.503906 298.085938 234.550781 298.257812 C 235.527344 298.433594 236.398438 297.285156 236.886719 296.101562 C 237.34375 297.039062 237.65625 298.152344 238.386719 298.433594 C 239.363281 298.816406 240.027344 297.910156 240.339844 296.96875 C 241.214844 297.875 242.261719 298.917969 243.0625 299.269531 C 244.5625 299.894531 244.769531 298.328125 244.738281 296.96875 C 248.015625 296.097656 246.898438 291.78125 245.257812 289.207031 Z M 245.257812 289.207031 " fill-opacity="1" fill-rule="nonzero"/></g></svg>