<svg xmlns="http://www.w3.org/2000/svg" xmlns:xlink="http://www.w3.org/1999/xlink" width="396" zoomAndPan="magnify" viewBox="0 0 297.12 419.249996" height="559" preserveAspectRatio="xMidYMid meet" version="1.0"><defs><g/><clipPath id="d2076ad33f"><path d="M 0 0.246094 L 296.238281 0.246094 L 296.238281 417.367188 L 0 417.367188 Z M 0 0.246094 " clip-rule="nonzero"/></clipPath><clipPath id="406c85c899"><path d="M 30.636719 45.234375 L 266.433594 45.234375 L 266.433594 380.753906 L 30.636719 380.753906 Z M 30.636719 45.234375 " clip-rule="nonzero"/></clipPath><clipPath id="ee1ca70692"><path d="M 68 78.59375 L 74.253906 78.59375 L 74.253906 84.371094 L 68 84.371094 Z M 68 78.59375 " clip-rule="nonzero"/></clipPath><clipPath id="94a5a96e91"><path d="M 71.335938 78.671875 C 73.574219 79.714844 74.171875 80.835938 74.171875 81.65625 C 74.097656 82.402344 73.425781 83.445312 72.828125 83.894531 C 72.15625 84.265625 70.886719 84.339844 70.21875 84.042969 C 69.472656 83.667969 68.722656 82.699219 68.574219 81.953125 C 68.5 81.207031 68.875 80.011719 69.472656 79.417969 C 69.992188 78.894531 71.1875 78.59375 71.933594 78.746094 C 72.679688 78.894531 73.648438 79.714844 73.949219 80.460938 C 74.246094 81.132812 74.171875 82.402344 73.648438 83.074219 C 73.128906 83.746094 71.558594 84.339844 70.664062 84.339844 C 69.992188 84.265625 69.246094 83.894531 68.875 83.445312 C 68.425781 83.074219 68.054688 82.253906 68.054688 81.65625 C 67.976562 80.984375 68.203125 80.238281 68.648438 79.714844 C 69.023438 79.265625 70.367188 78.671875 70.367188 78.671875 " clip-rule="nonzero"/></clipPath><clipPath id="28885a469a"><path d="M 73.109375 71 L 78.890625 71 L 78.890625 76.839844 L 73.109375 76.839844 Z M 73.109375 71 " clip-rule="nonzero"/></clipPath><clipPath id="35f4066554"><path d="M 73.203125 73.820312 C 75.066406 71.058594 76.335938 70.984375 77.007812 71.207031 C 77.753906 71.507812 78.574219 72.476562 78.722656 73.222656 C 78.871094 73.96875 78.574219 75.238281 78.050781 75.761719 C 77.453125 76.355469 76.335938 76.730469 75.515625 76.582031 C 74.769531 76.507812 73.796875 75.683594 73.425781 75.015625 C 73.128906 74.34375 73.203125 73.074219 73.574219 72.402344 C 74.023438 71.730469 75.140625 71.132812 75.8125 71.058594 C 76.410156 70.984375 77.082031 71.132812 77.53125 71.507812 C 78.125 71.953125 78.796875 73.074219 78.796875 73.820312 C 78.796875 74.640625 78.277344 75.683594 77.679688 76.207031 C 77.230469 76.65625 76.410156 76.804688 75.8125 76.804688 C 75.140625 76.730469 74.394531 76.355469 74.023438 75.910156 C 73.574219 75.460938 73.203125 74.117188 73.203125 74.117188 " clip-rule="nonzero"/></clipPath><clipPath id="ec15f50f01"><path d="M 61 69.582031 L 84.492188 69.582031 L 84.492188 116.609375 L 61 116.609375 Z M 61 69.582031 " clip-rule="nonzero"/></clipPath><clipPath id="9b5f7d4905"><path d="M 69.84375 88.894531 C 81.1875 70.238281 82.15625 69.640625 82.828125 69.863281 C 83.5 70.015625 84.246094 70.835938 84.320312 72.027344 C 84.46875 76.058594 73.277344 92.175781 69.917969 99.636719 C 67.828125 104.414062 66.039062 108.890625 65.441406 111.800781 C 65.066406 113.292969 65.664062 114.636719 65.144531 115.382812 C 64.769531 115.980469 63.949219 116.578125 63.351562 116.503906 C 62.753906 116.429688 61.933594 115.757812 61.636719 114.785156 C 60.664062 111.578125 65.589844 97.921875 66.335938 92.175781 C 66.785156 88.667969 65.738281 84.640625 66.710938 83.667969 C 67.308594 83.148438 68.351562 83.148438 69.023438 83.519531 C 70.140625 84.117188 71.933594 87.101562 72.007812 88.222656 C 72.007812 88.96875 71.558594 89.566406 71.039062 89.9375 C 70.589844 90.234375 69.695312 90.3125 69.171875 90.085938 C 68.648438 89.789062 67.976562 88.59375 67.976562 87.921875 C 67.976562 87.402344 68.574219 86.65625 69.097656 86.429688 C 69.695312 86.132812 70.964844 86.429688 71.484375 86.878906 C 71.859375 87.25 72.082031 88.148438 71.933594 88.667969 C 71.785156 89.191406 71.1875 89.9375 70.664062 90.085938 C 70.066406 90.3125 69.097656 90.011719 68.351562 89.414062 C 67.15625 88.445312 65.292969 85.386719 65.144531 83.746094 C 65.066406 82.550781 65.664062 81.058594 66.410156 80.609375 C 67.082031 80.238281 68.574219 80.3125 69.246094 80.910156 C 70.21875 81.804688 70.441406 84.265625 70.515625 87.101562 C 70.515625 92.996094 66.785156 111.652344 65.292969 114.933594 C 64.917969 115.757812 64.695312 116.128906 64.246094 116.277344 C 63.726562 116.503906 62.679688 116.351562 62.15625 115.980469 C 61.710938 115.53125 61.488281 114.785156 61.488281 113.742188 C 61.5625 110.90625 64.320312 103.890625 66.785156 97.996094 C 70.140625 90.011719 77.679688 73.222656 80.738281 70.613281 C 81.558594 69.863281 82.304688 69.640625 82.828125 69.863281 C 83.5 70.089844 84.320312 71.132812 84.320312 72.027344 C 84.246094 73.523438 81.632812 75.683594 80.140625 78.148438 C 78.050781 81.65625 75.515625 89.863281 73.351562 91.355469 C 72.382812 92.027344 71.039062 92.101562 70.441406 91.730469 C 69.84375 91.28125 69.84375 88.894531 69.84375 88.894531 " clip-rule="nonzero"/></clipPath><clipPath id="8fdf27429b"><path d="M 70 73.660156 L 80 73.660156 L 80 99.289062 L 70 99.289062 Z M 70 73.660156 " clip-rule="nonzero"/></clipPath><clipPath id="96097964fd"><path d="M 74.84375 75.761719 C 75.738281 86.355469 75.960938 95.011719 74.917969 97.472656 C 74.542969 98.445312 73.949219 99.117188 73.277344 99.191406 C 72.605469 99.265625 71.335938 98.742188 70.964844 97.847656 C 70.140625 95.980469 73.128906 90.085938 73.5 86.730469 C 73.796875 83.96875 72.828125 80.757812 73.425781 79.191406 C 73.796875 78.296875 74.46875 77.625 75.066406 77.402344 C 75.515625 77.253906 76.113281 77.328125 76.484375 77.550781 C 77.007812 77.847656 77.304688 78.296875 77.605469 79.191406 C 78.574219 81.878906 80.140625 94.191406 79.320312 96.726562 C 79.097656 97.550781 78.648438 97.996094 78.125 98.144531 C 77.457031 98.371094 76.1875 97.921875 75.738281 97.472656 C 75.367188 97.027344 75.214844 96.132812 75.441406 95.609375 C 75.738281 95.011719 76.859375 94.265625 77.53125 94.265625 C 78.125 94.265625 78.871094 94.714844 79.097656 95.234375 C 79.394531 95.832031 79.246094 97.175781 78.796875 97.699219 C 78.425781 98.144531 77.53125 98.445312 77.007812 98.296875 C 76.410156 98.070312 75.8125 97.472656 75.367188 96.429688 C 74.097656 93.742188 72.382812 81.878906 73.425781 79.191406 C 73.875 78.074219 74.84375 77.402344 75.515625 77.328125 C 76.113281 77.253906 76.859375 77.699219 77.230469 78.222656 C 77.753906 78.96875 77.828125 80.238281 77.828125 81.730469 C 77.902344 84.117188 77.457031 88.296875 76.785156 91.28125 C 76.1875 93.96875 75.441406 97.847656 74.171875 98.742188 C 73.5 99.265625 72.457031 99.265625 71.859375 98.964844 C 71.335938 98.667969 70.964844 98.070312 70.8125 97.175781 C 70.367188 95.308594 71.484375 91.207031 71.410156 87.921875 C 71.335938 84.117188 69.769531 77.925781 70.140625 75.835938 C 70.292969 75.089844 70.515625 74.714844 70.886719 74.34375 C 71.261719 73.96875 71.933594 73.746094 72.457031 73.671875 C 72.976562 73.671875 73.648438 73.894531 74.023438 74.269531 C 74.46875 74.640625 74.84375 75.761719 74.84375 75.761719 " clip-rule="nonzero"/></clipPath><clipPath id="143ef1b5db"><path d="M 69.417969 76.367188 L 85.8125 76.367188 L 85.8125 124.683594 L 69.417969 124.683594 Z M 69.417969 76.367188 " clip-rule="nonzero"/></clipPath><clipPath id="75fd6692b4"><path d="M 85.589844 79.566406 C 76.335938 110.085938 74.769531 120.308594 73.351562 122.996094 C 72.902344 123.816406 72.605469 124.1875 72.15625 124.410156 C 71.785156 124.5625 71.261719 124.636719 70.886719 124.410156 C 70.367188 124.1875 69.546875 123.144531 69.472656 122.546875 C 69.472656 122.023438 69.917969 121.203125 70.367188 120.90625 C 70.8125 120.605469 71.710938 120.53125 72.230469 120.753906 C 72.753906 121.054688 73.351562 122.25 73.425781 122.84375 C 73.425781 123.21875 73.203125 123.664062 72.828125 123.964844 C 72.457031 124.261719 71.632812 124.5625 71.113281 124.488281 C 70.664062 124.488281 70.292969 124.1875 69.992188 123.890625 C 69.695312 123.515625 69.546875 123.070312 69.546875 122.097656 C 69.472656 119.039062 72.230469 108.890625 74.023438 101.953125 C 76.039062 94.339844 79.46875 81.207031 81.035156 78.222656 C 81.410156 77.402344 81.632812 77.101562 82.082031 76.878906 C 82.527344 76.582031 83.199219 76.433594 83.722656 76.507812 C 84.320312 76.65625 85.214844 77.328125 85.515625 77.925781 C 85.738281 78.371094 85.589844 79.566406 85.589844 79.566406 " clip-rule="nonzero"/></clipPath><clipPath id="cc7612c3d7"><path d="M 64.839844 79.382812 L 81.652344 79.382812 L 81.652344 110.988281 L 64.839844 110.988281 Z M 64.839844 79.382812 " clip-rule="nonzero"/></clipPath><clipPath id="3c40f72275"><path d="M 81.261719 82.921875 C 68.425781 110.234375 68.351562 110.457031 67.902344 110.609375 C 67.457031 110.832031 66.484375 110.90625 65.964844 110.609375 C 65.515625 110.382812 64.917969 109.636719 64.917969 109.039062 C 64.84375 108.367188 65.589844 107.175781 66.1875 106.875 C 66.636719 106.652344 67.605469 106.726562 68.054688 107.101562 C 68.574219 107.472656 69.023438 108.816406 68.875 109.414062 C 68.800781 109.859375 68.5 110.234375 68.128906 110.457031 C 67.679688 110.757812 66.710938 110.832031 66.1875 110.683594 C 65.738281 110.609375 65.367188 110.234375 65.21875 109.859375 C 64.917969 109.414062 64.917969 108.890625 65.066406 107.921875 C 65.738281 104.117188 74.695312 84.042969 76.785156 80.910156 C 77.304688 80.164062 77.53125 79.9375 78.050781 79.714844 C 78.574219 79.492188 79.246094 79.417969 79.769531 79.640625 C 80.367188 79.863281 81.1875 80.609375 81.410156 81.207031 C 81.632812 81.730469 81.261719 83 81.261719 83 " clip-rule="nonzero"/></clipPath><clipPath id="f39f42cbe0"><path d="M 64 77.242188 L 72.652344 77.242188 L 72.652344 98.554688 L 64 98.554688 Z M 64 77.242188 " clip-rule="nonzero"/></clipPath><clipPath id="86e72c4d74"><path d="M 72.605469 80.460938 C 67.605469 98.070312 67.308594 98.21875 66.933594 98.371094 C 66.335938 98.519531 65.367188 98.445312 64.917969 98.070312 C 64.398438 97.625 63.949219 96.28125 64.171875 95.609375 C 64.398438 95.011719 65.664062 94.265625 66.335938 94.265625 C 66.933594 94.265625 67.753906 94.789062 67.976562 95.308594 C 68.277344 95.90625 68.128906 97.324219 67.679688 97.847656 C 67.308594 98.296875 66.335938 98.519531 65.738281 98.445312 C 65.292969 98.371094 64.84375 98.144531 64.621094 97.773438 C 64.246094 97.324219 64.097656 96.804688 64.097656 95.832031 C 64.097656 93.070312 66.710938 81.730469 67.753906 79.265625 C 68.128906 78.445312 68.277344 78.074219 68.800781 77.773438 C 69.246094 77.476562 69.917969 77.253906 70.515625 77.328125 C 71.039062 77.402344 71.710938 77.699219 72.082031 78.148438 C 72.457031 78.671875 72.605469 80.460938 72.605469 80.460938 " clip-rule="nonzero"/></clipPath><clipPath id="136f02b047"><path d="M 185.378906 338.519531 L 205.855469 338.519531 L 205.855469 353.835938 L 185.378906 353.835938 Z M 185.378906 338.519531 " clip-rule="nonzero"/></clipPath><clipPath id="6bda92c4b2"><path d="M 186.625 349.089844 C 203.785156 338.570312 204.085938 338.644531 204.457031 338.867188 C 204.980469 339.09375 205.652344 339.765625 205.726562 340.359375 C 205.800781 341.03125 205.203125 342.375 204.605469 342.675781 C 204.011719 342.972656 202.59375 342.675781 202.144531 342.226562 C 201.695312 341.851562 201.398438 340.882812 201.621094 340.359375 C 201.769531 339.6875 202.890625 338.792969 203.5625 338.71875 C 204.160156 338.644531 204.980469 339.167969 205.351562 339.539062 C 205.652344 339.914062 205.800781 340.359375 205.800781 340.808594 C 205.726562 341.40625 205.503906 341.851562 204.832031 342.597656 C 202.816406 344.839844 191.996094 352.152344 189.382812 353.269531 C 188.5625 353.644531 188.191406 353.792969 187.667969 353.644531 C 186.996094 353.570312 186.101562 352.898438 185.726562 352.300781 C 185.429688 351.777344 185.429688 351.105469 185.578125 350.507812 C 185.726562 349.988281 186.625 349.089844 186.625 349.089844 " clip-rule="nonzero"/></clipPath><clipPath id="e0bec4ca10"><path d="M 199.597656 336.675781 L 205.546875 336.675781 L 205.546875 342.535156 L 199.597656 342.535156 Z M 199.597656 336.675781 " clip-rule="nonzero"/></clipPath><clipPath id="edbe9d8ba7"><path d="M 200.949219 337.300781 C 204.308594 337.226562 205.128906 338.121094 205.351562 338.867188 C 205.503906 339.613281 205.203125 340.882812 204.679688 341.40625 C 204.160156 342.003906 202.964844 342.449219 202.21875 342.300781 C 201.472656 342.226562 200.429688 341.480469 200.128906 340.808594 C 199.757812 340.136719 199.832031 338.867188 200.203125 338.195312 C 200.578125 337.527344 201.621094 336.855469 202.367188 336.777344 C 203.1875 336.703125 204.308594 337.300781 204.757812 337.824219 C 205.203125 338.273438 205.425781 338.867188 205.425781 339.464844 C 205.351562 340.210938 204.832031 341.332031 204.234375 341.851562 C 203.710938 342.300781 202.964844 342.523438 202.367188 342.523438 C 201.769531 342.523438 200.949219 342.226562 200.503906 341.777344 C 199.980469 341.257812 199.605469 340.0625 199.605469 339.316406 C 199.683594 338.644531 200.578125 337.527344 200.578125 337.527344 " clip-rule="nonzero"/></clipPath><clipPath id="169179a647"><path d="M 228.484375 315 L 236.851562 315 L 236.851562 320.914062 L 228.484375 320.914062 Z M 228.484375 315 " clip-rule="nonzero"/></clipPath><clipPath id="e88feb6b50"><path d="M 233.632812 320.886719 C 229.378906 319.765625 228.785156 318.796875 228.632812 318.125 C 228.484375 317.527344 228.632812 316.855469 228.933594 316.332031 C 229.230469 315.886719 229.679688 315.363281 230.277344 315.214844 C 230.949219 314.992188 232.214844 314.992188 232.8125 315.4375 C 233.484375 315.8125 234.082031 316.929688 234.082031 317.675781 C 234.082031 318.421875 233.484375 319.542969 232.960938 319.988281 C 232.515625 320.363281 231.769531 320.511719 231.246094 320.511719 C 230.722656 320.4375 230.050781 320.289062 229.605469 319.839844 C 229.082031 319.394531 228.558594 318.273438 228.558594 317.527344 C 228.632812 316.707031 229.230469 315.738281 229.976562 315.363281 C 230.949219 314.765625 233.335938 315.066406 234.453125 315.363281 C 235.125 315.585938 235.722656 315.8125 236.171875 316.332031 C 236.542969 316.929688 236.84375 318.125 236.691406 318.871094 C 236.542969 319.46875 236.023438 320.066406 235.574219 320.4375 C 235.050781 320.734375 233.632812 320.886719 233.632812 320.886719 " clip-rule="nonzero"/></clipPath><clipPath id="8ee8693ed6"><path d="M 14.5625 45.058594 L 50.378906 45.058594 L 50.378906 80.875 L 14.5625 80.875 Z M 14.5625 45.058594 " clip-rule="nonzero"/></clipPath><clipPath id="04d15a36d7"><path d="M 248.433594 344.933594 L 284.25 344.933594 L 284.25 380.410156 L 248.433594 380.410156 Z M 248.433594 344.933594 " clip-rule="nonzero"/></clipPath><clipPath id="aa7f98fc98"><path d="M 253.804688 45.265625 L 279.175781 45.265625 L 279.175781 70.636719 L 253.804688 70.636719 Z M 253.804688 45.265625 " clip-rule="nonzero"/></clipPath><clipPath id="288e6543d5"><path d="M 19.933594 355.667969 L 45.304688 355.667969 L 45.304688 380.992188 L 19.933594 380.992188 Z M 19.933594 355.667969 " clip-rule="nonzero"/></clipPath><clipPath id="0030a4ac37"><path d="M 91.347656 84.292969 L 204.769531 84.292969 L 204.769531 333.523438 L 91.347656 333.523438 Z M 91.347656 84.292969 " clip-rule="nonzero"/></clipPath></defs><g clip-path="url(#d2076ad33f)"><path fill="#ffffff" d="M 0 0.246094 L 296.238281 0.246094 L 296.238281 417.367188 L 0 417.367188 Z M 0 0.246094 " fill-opacity="1" fill-rule="nonzero"/><path fill="#ffffff" d="M 0 0.246094 L 296.238281 0.246094 L 296.238281 417.367188 L 0 417.367188 Z M 0 0.246094 " fill-opacity="1" fill-rule="nonzero"/></g><g fill="#010101" fill-opacity="1"><g transform="translate(277.20821, 387.070508)"><g><path d="M -17.078125 24.765625 L -17.078125 22.046875 L -5.734375 22.046875 L -5.734375 14.9375 C -6.304688 15.34375 -6.976562 15.644531 -7.75 15.84375 C -8.519531 16.039062 -9.378906 16.140625 -10.328125 16.140625 C -13.003906 16.140625 -15.113281 15.394531 -16.65625 13.90625 C -18.207031 12.425781 -18.984375 10.40625 -18.984375 7.84375 C -18.984375 5.226562 -18.203125 3.1875 -16.640625 1.71875 C -15.078125 0.25 -12.878906 -0.484375 -10.046875 -0.484375 C -8.910156 -0.484375 -7.742188 -0.34375 -6.546875 -0.0625 C -5.359375 0.207031 -4.140625 0.625 -2.890625 1.1875 L -2.890625 6 L -4.765625 6 C -4.859375 4.4375 -5.351562 3.238281 -6.25 2.40625 C -7.15625 1.570312 -8.421875 1.15625 -10.046875 1.15625 C -11.796875 1.15625 -13.140625 1.726562 -14.078125 2.875 C -15.015625 4.03125 -15.484375 5.6875 -15.484375 7.84375 C -15.484375 9.988281 -15.015625 11.632812 -14.078125 12.78125 C -13.148438 13.925781 -11.804688 14.5 -10.046875 14.5 C -9.054688 14.5 -8.179688 14.320312 -7.421875 13.96875 C -6.660156 13.613281 -5.988281 13.066406 -5.40625 12.328125 L -3.984375 12.328125 L -3.984375 24.765625 Z M -17.078125 24.765625 "/></g></g></g><g fill="#010101" fill-opacity="1"><g transform="translate(38.105568, 386.622826)"><g><path d="M -11.9375 17.296875 L -11.9375 15.40625 L -4.015625 15.40625 L -4.015625 10.4375 C -4.410156 10.71875 -4.875 10.925781 -5.40625 11.0625 C -5.945312 11.207031 -6.550781 11.28125 -7.21875 11.28125 C -9.09375 11.28125 -10.566406 10.757812 -11.640625 9.71875 C -12.722656 8.6875 -13.265625 7.273438 -13.265625 5.484375 C -13.265625 3.648438 -12.71875 2.21875 -11.625 1.1875 C -10.53125 0.164062 -8.992188 -0.34375 -7.015625 -0.34375 C -6.222656 -0.34375 -5.410156 -0.242188 -4.578125 -0.046875 C -3.742188 0.148438 -2.890625 0.441406 -2.015625 0.828125 L -2.015625 4.1875 L -3.328125 4.1875 C -3.398438 3.09375 -3.75 2.253906 -4.375 1.671875 C -5 1.097656 -5.878906 0.8125 -7.015625 0.8125 C -8.242188 0.8125 -9.1875 1.210938 -9.84375 2.015625 C -10.5 2.816406 -10.828125 3.972656 -10.828125 5.484375 C -10.828125 6.984375 -10.5 8.128906 -9.84375 8.921875 C -9.1875 9.722656 -8.242188 10.125 -7.015625 10.125 C -6.328125 10.125 -5.71875 10 -5.1875 9.75 C -4.65625 9.507812 -4.1875 9.128906 -3.78125 8.609375 L -2.78125 8.609375 L -2.78125 17.296875 Z M -11.9375 17.296875 "/></g></g></g><g fill="#010101" fill-opacity="1"><g transform="translate(259.037789, 39.367126)"><g><path d="M 11.9375 -17.296875 L 11.9375 -15.40625 L 4.015625 -15.40625 L 4.015625 -10.4375 C 4.410156 -10.71875 4.875 -10.925781 5.40625 -11.0625 C 5.945312 -11.207031 6.550781 -11.28125 7.21875 -11.28125 C 9.09375 -11.28125 10.566406 -10.757812 11.640625 -9.71875 C 12.722656 -8.6875 13.265625 -7.273438 13.265625 -5.484375 C 13.265625 -3.648438 12.71875 -2.21875 11.625 -1.1875 C 10.53125 -0.164062 8.992188 0.34375 7.015625 0.34375 C 6.222656 0.34375 5.410156 0.242188 4.578125 0.046875 C 3.742188 -0.148438 2.890625 -0.441406 2.015625 -0.828125 L 2.015625 -4.1875 L 3.328125 -4.1875 C 3.398438 -3.09375 3.75 -2.253906 4.375 -1.671875 C 5 -1.097656 5.878906 -0.8125 7.015625 -0.8125 C 8.242188 -0.8125 9.1875 -1.210938 9.84375 -2.015625 C 10.5 -2.816406 10.828125 -3.972656 10.828125 -5.484375 C 10.828125 -6.984375 10.5 -8.128906 9.84375 -8.921875 C 9.1875 -9.722656 8.242188 -10.125 7.015625 -10.125 C 6.328125 -10.125 5.71875 -10 5.1875 -9.75 C 4.65625 -9.507812 4.1875 -9.128906 3.78125 -8.609375 L 2.78125 -8.609375 L 2.78125 -17.296875 Z M 11.9375 -17.296875 "/></g></g></g><g fill="#010101" fill-opacity="1"><g transform="translate(19.933967, 37.945572)"><g><path d="M 17.078125 -24.75 L 17.078125 -22.03125 L 5.734375 -22.03125 L 5.734375 -14.9375 C 6.304688 -15.332031 6.976562 -15.628906 7.75 -15.828125 C 8.519531 -16.023438 9.378906 -16.125 10.328125 -16.125 C 13.003906 -16.125 15.113281 -15.382812 16.65625 -13.90625 C 18.207031 -12.425781 18.984375 -10.40625 18.984375 -7.84375 C 18.984375 -5.21875 18.203125 -3.171875 16.640625 -1.703125 C 15.078125 -0.242188 12.878906 0.484375 10.046875 0.484375 C 8.910156 0.484375 7.742188 0.34375 6.546875 0.0625 C 5.359375 -0.207031 4.140625 -0.625 2.890625 -1.1875 L 2.890625 -6 L 4.765625 -6 C 4.859375 -4.425781 5.351562 -3.222656 6.25 -2.390625 C 7.15625 -1.566406 8.421875 -1.15625 10.046875 -1.15625 C 11.796875 -1.15625 13.140625 -1.726562 14.078125 -2.875 C 15.015625 -4.03125 15.484375 -5.6875 15.484375 -7.84375 C 15.484375 -9.988281 15.015625 -11.628906 14.078125 -12.765625 C 13.148438 -13.910156 11.804688 -14.484375 10.046875 -14.484375 C 9.046875 -14.484375 8.164062 -14.304688 7.40625 -13.953125 C 6.65625 -13.597656 5.988281 -13.050781 5.40625 -12.3125 L 3.984375 -12.3125 L 3.984375 -24.75 Z M 17.078125 -24.75 "/></g></g></g><g clip-path="url(#406c85c899)"><path stroke-linecap="butt" transform="matrix(0.746195, 0, 0, 0.746195, 30.637603, 45.234836)" fill="none" stroke-linejoin="miter" d="M -0.00118541 -0.000618015 L 316.102365 -0.000618015 L 316.102365 449.639721 L -0.00118541 449.639721 Z M -0.00118541 -0.000618015 " stroke="#000000" stroke-width="6" stroke-opacity="1" stroke-miterlimit="4"/></g><g clip-path="url(#ee1ca70692)"><g clip-path="url(#94a5a96e91)"><path fill="#ffffff" d="M 65.066406 75.683594 L 77.210938 75.683594 L 77.210938 87.324219 L 65.066406 87.324219 Z M 65.066406 75.683594 " fill-opacity="1" fill-rule="nonzero"/></g></g><g clip-path="url(#28885a469a)"><g clip-path="url(#35f4066554)"><path fill="#ffffff" d="M 70.21875 68.074219 L 81.78125 68.074219 L 81.78125 79.777344 L 70.21875 79.777344 Z M 70.21875 68.074219 " fill-opacity="1" fill-rule="nonzero"/></g></g><g clip-path="url(#ec15f50f01)"><g clip-path="url(#9b5f7d4905)"><path fill="#ffffff" d="M 58.5 66.878906 L 87.304688 66.878906 L 87.304688 119.535156 L 58.5 119.535156 Z M 58.5 66.878906 " fill-opacity="1" fill-rule="nonzero"/></g></g><g clip-path="url(#8fdf27429b)"><g clip-path="url(#96097964fd)"><path fill="#ffffff" d="M 67.15625 70.6875 L 82.378906 70.6875 L 82.378906 102.199219 L 67.15625 102.199219 Z M 67.15625 70.6875 " fill-opacity="1" fill-rule="nonzero"/></g></g><g clip-path="url(#143ef1b5db)"><g clip-path="url(#75fd6692b4)"><path fill="#ffffff" d="M 66.484375 73.523438 L 88.574219 73.523438 L 88.574219 127.445312 L 66.484375 127.445312 Z M 66.484375 73.523438 " fill-opacity="1" fill-rule="nonzero"/></g></g><g clip-path="url(#cc7612c3d7)"><g clip-path="url(#3c40f72275)"><path fill="#ffffff" d="M 61.933594 76.65625 L 84.46875 76.65625 L 84.46875 113.714844 L 61.933594 113.714844 Z M 61.933594 76.65625 " fill-opacity="1" fill-rule="nonzero"/></g></g><g clip-path="url(#f39f42cbe0)"><g clip-path="url(#86e72c4d74)"><path fill="#ffffff" d="M 61.113281 74.34375 L 75.664062 74.34375 L 75.664062 101.453125 L 61.113281 101.453125 Z M 61.113281 74.34375 " fill-opacity="1" fill-rule="nonzero"/></g></g><g clip-path="url(#136f02b047)"><g clip-path="url(#6bda92c4b2)"><path fill="#ffffff" d="M 182.59375 335.734375 L 208.886719 335.734375 L 208.886719 356.703125 L 182.59375 356.703125 Z M 182.59375 335.734375 " fill-opacity="1" fill-rule="nonzero"/></g></g><g clip-path="url(#e0bec4ca10)"><g clip-path="url(#edbe9d8ba7)"><path fill="#ffffff" d="M 196.621094 333.792969 L 208.429688 333.792969 L 208.429688 345.507812 L 196.621094 345.507812 Z M 196.621094 333.792969 " fill-opacity="1" fill-rule="nonzero"/></g></g><g clip-path="url(#169179a647)"><g clip-path="url(#e88feb6b50)"><path fill="#ffffff" d="M 225.574219 312.230469 L 239.671875 312.230469 L 239.671875 323.871094 L 225.574219 323.871094 Z M 225.574219 312.230469 " fill-opacity="1" fill-rule="nonzero"/></g></g><g clip-path="url(#8ee8693ed6)"><path fill="#000000" d="M 32.46875 45.058594 C 28.234375 45.058594 24.796875 48.667969 24.796875 53.117188 C 24.832031 55.914062 26.277344 58.28125 27.78125 60.53125 C 26.105469 59.261719 24.242188 58.496094 22.238281 58.488281 C 18 58.488281 14.5625 62.097656 14.5625 66.546875 C 14.5625 70.996094 18 74.605469 22.238281 74.605469 C 25.667969 74.550781 28.414062 72.148438 31.109375 70.128906 C 30.628906 76.160156 29.644531 79.542969 23.941406 80.875 L 41 80.875 C 35.292969 79.542969 34.3125 76.160156 33.828125 70.128906 C 36.496094 72.414062 39.292969 74.351562 42.703125 74.605469 C 46.941406 74.605469 50.378906 70.996094 50.378906 66.546875 C 50.378906 62.097656 46.941406 58.488281 42.703125 58.488281 C 40.648438 58.488281 38.871094 59.433594 37.160156 60.53125 C 38.863281 58.304688 39.980469 55.902344 40.144531 53.117188 C 40.144531 48.667969 36.707031 45.058594 32.46875 45.058594 Z M 32.46875 45.058594 " fill-opacity="1" fill-rule="nonzero"/></g><g clip-path="url(#04d15a36d7)"><path fill="#000000" d="M 266.339844 380.75 C 262.105469 380.75 258.664062 377.140625 258.664062 372.691406 C 258.703125 369.890625 260.148438 367.523438 261.648438 365.273438 C 259.972656 366.542969 258.113281 367.308594 256.105469 367.316406 C 251.871094 367.316406 248.433594 363.707031 248.433594 359.257812 C 248.433594 354.808594 251.871094 351.199219 256.105469 351.199219 C 259.539062 351.257812 262.285156 353.660156 264.980469 355.675781 C 264.5 349.648438 263.515625 346.261719 257.8125 344.933594 L 274.867188 344.933594 C 269.164062 346.261719 268.183594 349.648438 267.699219 355.675781 C 270.367188 353.390625 273.164062 351.453125 276.574219 351.199219 C 280.8125 351.199219 284.25 354.808594 284.25 359.257812 C 284.25 363.707031 280.8125 367.316406 276.574219 367.316406 C 274.519531 367.316406 272.742188 366.371094 271.03125 365.273438 C 272.734375 367.503906 273.851562 369.90625 274.015625 372.691406 C 274.015625 377.140625 270.578125 380.75 266.339844 380.75 Z M 266.339844 380.75 " fill-opacity="1" fill-rule="nonzero"/></g><g clip-path="url(#aa7f98fc98)"><path fill="#000000" d="M 266.488281 45.265625 C 263.488281 45.265625 261.054688 47.820312 261.054688 50.972656 C 261.078125 52.957031 262.101562 54.632812 263.167969 56.226562 C 261.980469 55.328125 260.660156 54.785156 259.242188 54.777344 C 256.238281 54.777344 253.804688 57.335938 253.804688 60.488281 C 253.804688 63.636719 256.238281 66.195312 259.242188 66.195312 C 261.671875 66.15625 263.617188 64.453125 265.527344 63.023438 C 265.183594 67.292969 264.488281 69.691406 260.449219 70.636719 L 272.53125 70.636719 C 268.488281 69.691406 267.792969 67.292969 267.453125 63.023438 C 269.339844 64.644531 271.320312 66.015625 273.738281 66.195312 C 276.738281 66.195312 279.175781 63.636719 279.175781 60.488281 C 279.175781 57.335938 276.738281 54.777344 273.738281 54.777344 C 272.28125 54.777344 271.023438 55.449219 269.8125 56.226562 C 271.015625 54.648438 271.8125 52.945312 271.925781 50.972656 C 271.925781 47.820312 269.492188 45.265625 266.488281 45.265625 Z M 266.488281 45.265625 " fill-opacity="1" fill-rule="nonzero"/></g><g clip-path="url(#288e6543d5)"><path fill="#000000" d="M 32.621094 381.039062 C 29.617188 381.039062 27.183594 378.480469 27.183594 375.328125 C 27.207031 373.347656 28.230469 371.671875 29.296875 370.078125 C 28.109375 370.976562 26.789062 371.519531 25.371094 371.523438 C 22.371094 371.523438 19.933594 368.96875 19.933594 365.816406 C 19.933594 362.664062 22.371094 360.109375 25.371094 360.109375 C 27.800781 360.148438 29.746094 361.847656 31.65625 363.277344 C 31.316406 359.007812 30.621094 356.609375 26.578125 355.667969 L 38.660156 355.667969 C 34.621094 356.609375 33.925781 359.007812 33.582031 363.277344 C 35.46875 361.660156 37.453125 360.285156 39.867188 360.109375 C 42.871094 360.109375 45.304688 362.664062 45.304688 365.816406 C 45.304688 368.96875 42.871094 371.523438 39.867188 371.523438 C 38.410156 371.523438 37.152344 370.855469 35.941406 370.078125 C 37.148438 371.65625 37.941406 373.355469 38.054688 375.328125 C 38.054688 378.480469 35.621094 381.039062 32.621094 381.039062 Z M 32.621094 381.039062 " fill-opacity="1" fill-rule="nonzero"/></g><g clip-path="url(#0030a4ac37)"><path fill="#000000" d="M 175.898438 333.421875 C 174.902344 333.421875 173.90625 333.421875 172.910156 333.421875 C 172.09375 333.242188 171.300781 332.902344 170.488281 332.925781 C 168.109375 332.949219 165.800781 332.609375 163.714844 331.542969 C 163.308594 331.863281 162.945312 332.132812 162.675781 332.359375 C 162.902344 331.769531 163.105469 331.207031 163.332031 330.617188 C 163.601562 329.9375 163.921875 329.257812 164.144531 328.554688 C 164.214844 328.351562 164.054688 328.082031 163.988281 327.832031 C 163.921875 327.832031 163.875 327.855469 163.808594 327.855469 C 163.964844 327.539062 164.144531 327.199219 164.304688 326.882812 C 164.257812 326.859375 164.214844 326.835938 164.167969 326.8125 C 163.941406 327.0625 163.738281 327.3125 163.511719 327.582031 C 163.488281 327.5625 163.445312 327.539062 163.421875 327.539062 C 163.535156 327.242188 163.648438 326.972656 163.808594 326.542969 C 163.511719 326.769531 163.332031 326.902344 163.21875 326.996094 C 163.535156 326.179688 163.875 325.363281 164.191406 324.527344 C 164.101562 324.480469 164.011719 324.4375 163.941406 324.367188 C 163.671875 324.59375 163.398438 324.84375 163.082031 325.117188 C 163.21875 324.550781 163.355469 324.027344 163.46875 323.507812 C 163.421875 323.484375 163.355469 323.484375 163.308594 323.464844 C 163.148438 323.621094 162.992188 323.78125 162.765625 324.027344 C 162.878906 323.484375 162.96875 323.078125 163.058594 322.671875 C 163.015625 322.648438 162.96875 322.625 162.902344 322.601562 C 162.628906 323.03125 162.359375 323.464844 162.019531 323.984375 C 162.085938 322.535156 162.652344 321.175781 161.90625 319.910156 C 161.792969 320.046875 161.632812 320.226562 161.496094 320.40625 C 161.429688 320.363281 161.382812 320.316406 161.316406 320.269531 C 161.226562 320.835938 161.136719 321.402344 161.042969 321.96875 C 160.976562 321.96875 160.886719 321.945312 160.816406 321.945312 C 160.910156 321.3125 161 320.65625 161.113281 319.953125 C 160.929688 320.113281 160.796875 320.226562 160.589844 320.40625 C 160.929688 318.414062 161.25 316.511719 161.542969 314.632812 C 161.453125 314.613281 161.382812 314.566406 161.292969 314.542969 C 160.703125 316.152344 160.136719 317.734375 159.550781 319.34375 C 159.527344 319.34375 159.503906 319.34375 159.480469 319.34375 C 159.867188 316.535156 160.230469 313.707031 160.636719 310.71875 C 159.390625 312.054688 160.273438 313.683594 159.617188 315.085938 C 159.527344 313.910156 159.460938 312.867188 159.367188 311.738281 C 159.050781 311.941406 158.914062 312.03125 158.757812 312.121094 C 158.9375 311.035156 159.121094 310.039062 159.277344 309.019531 C 159.164062 308.996094 159.050781 308.976562 158.9375 308.953125 C 158.757812 309.722656 158.554688 310.492188 158.394531 311.195312 C 158.191406 311.148438 157.941406 311.082031 157.828125 311.058594 C 158.054688 309.789062 158.304688 308.476562 158.554688 307.164062 C 158.484375 307.140625 158.394531 307.121094 158.328125 307.097656 C 158.101562 307.933594 157.898438 308.75 157.671875 309.585938 C 157.601562 309.5625 157.535156 309.5625 157.464844 309.542969 C 157.464844 309.066406 157.464844 308.566406 157.464844 308.09375 C 157.421875 308.09375 157.375 308.070312 157.332031 308.070312 C 157.195312 308.410156 157.035156 308.75 156.902344 309.066406 C 156.855469 309.042969 156.789062 309.042969 156.742188 309.019531 C 156.742188 308.273438 156.742188 307.527344 156.742188 306.734375 C 156.539062 306.824219 156.425781 306.894531 156.3125 306.9375 C 156.46875 306.53125 156.71875 306.257812 156.902344 305.917969 C 157.058594 305.625 157.351562 305.105469 157.261719 305.015625 C 156.808594 304.5625 157.21875 304.152344 157.238281 303.746094 C 157.261719 303.472656 157.285156 303.226562 157.308594 302.953125 C 157.261719 302.953125 157.21875 302.929688 157.148438 302.929688 C 156.605469 304.582031 156.0625 306.214844 155.519531 307.867188 C 155.496094 307.867188 155.453125 307.84375 155.429688 307.84375 C 155.609375 306.800781 155.789062 305.738281 155.996094 304.695312 C 155.902344 304.675781 155.835938 304.675781 155.746094 304.652344 C 155.429688 305.445312 155.113281 306.238281 154.792969 307.050781 C 154.773438 307.050781 154.75 307.027344 154.726562 307.027344 C 154.953125 305.898438 155.179688 304.742188 155.40625 303.609375 C 155.316406 303.585938 155.226562 303.566406 155.132812 303.542969 C 154.660156 304.628906 154.183594 305.714844 153.707031 306.871094 C 153.527344 306.53125 154.160156 306.054688 153.4375 305.941406 C 153.480469 305.804688 153.503906 305.671875 153.550781 305.511719 C 154.136719 303.269531 154.726562 301.007812 155.316406 298.765625 C 153.617188 299.378906 154.589844 300.871094 154.207031 302.070312 C 154.09375 301.460938 154.003906 300.960938 153.890625 300.328125 C 153.164062 301.707031 152.53125 302.929688 151.875 304.132812 C 151.804688 304.109375 151.738281 304.0625 151.667969 304.039062 C 152.078125 302.886719 152.484375 301.730469 152.890625 300.578125 C 152.824219 300.554688 152.757812 300.53125 152.710938 300.507812 C 152.28125 301.484375 151.851562 302.457031 151.421875 303.429688 C 151.398438 303.429688 151.375 303.40625 151.375 303.40625 C 151.601562 302.5 151.851562 301.597656 152.078125 300.691406 C 151.964844 300.644531 151.875 300.621094 151.761719 300.578125 C 151.421875 301.324219 151.082031 302.046875 150.671875 302.953125 C 150.785156 301.527344 150.898438 300.261719 151.011719 299.015625 C 150.945312 298.992188 150.878906 298.992188 150.832031 298.96875 C 150.671875 299.152344 150.515625 299.332031 150.3125 299.582031 C 150.558594 298.789062 150.808594 298.0625 151.035156 297.363281 C 150.945312 297.339844 150.878906 297.316406 150.785156 297.273438 C 150.652344 297.542969 150.515625 297.816406 150.3125 298.199219 C 150.265625 297.816406 150.242188 297.566406 150.199219 297.316406 C 150.152344 297.316406 150.105469 297.316406 150.0625 297.292969 C 149.925781 297.859375 149.8125 298.425781 149.675781 299.015625 C 149.542969 298.585938 149.519531 298.175781 149.5625 297.792969 C 149.609375 297.40625 149.746094 297.023438 149.859375 296.636719 C 149.949219 296.296875 150.015625 295.9375 150.105469 295.597656 C 150.039062 295.574219 149.949219 295.550781 149.882812 295.550781 C 149.632812 296.320312 149.40625 297.089844 149.15625 297.859375 C 149.109375 297.839844 149.066406 297.839844 149.019531 297.816406 C 149.089844 297.386719 149.15625 296.976562 149.222656 296.390625 C 148.882812 296.84375 148.65625 297.160156 148.433594 297.476562 C 148.386719 297.453125 148.363281 297.453125 148.339844 297.429688 C 148.410156 297.203125 148.453125 296.976562 148.546875 296.683594 C 148.160156 296.886719 147.886719 297.023438 147.457031 297.273438 C 148.816406 295.527344 149.246094 293.96875 148.863281 292.109375 C 148.613281 293.265625 148.386719 294.214844 148.183594 295.144531 C 148.136719 295.144531 148.09375 295.121094 148.046875 295.121094 C 148.09375 294.601562 148.136719 294.101562 148.207031 293.378906 C 146.9375 296.164062 145.761719 298.722656 144.582031 301.300781 C 144.492188 301.257812 144.402344 301.234375 144.3125 301.1875 C 144.648438 300.214844 145.058594 299.265625 145.308594 298.289062 C 145.554688 297.316406 145.667969 296.296875 145.851562 295.300781 C 145.714844 295.28125 145.554688 295.257812 145.421875 295.210938 C 145.238281 296.117188 145.058594 297.023438 144.898438 297.816406 C 144.378906 297.816406 143.925781 297.816406 143.222656 297.816406 C 143.8125 297.566406 144.128906 297.40625 144.402344 297.292969 C 144.199219 296.433594 144.015625 295.640625 143.859375 294.894531 C 143.699219 294.984375 143.539062 295.054688 143.359375 295.144531 C 143.132812 294.417969 142.929688 293.742188 142.726562 293.0625 C 142.65625 293.085938 142.566406 293.105469 142.5 293.128906 C 142.5 294.53125 142.65625 295.890625 143.902344 297.136719 C 142.726562 296.796875 142.296875 296.117188 142.136719 295.1875 C 142.113281 295.664062 142.25 296.070312 142.363281 296.503906 C 142.429688 296.84375 142.589844 297.25 142.476562 297.5 C 142 298.382812 142.410156 299.015625 142.863281 299.738281 C 143.246094 300.351562 143.449219 301.050781 143.722656 301.730469 C 143.632812 301.777344 143.519531 301.820312 143.425781 301.867188 C 142.410156 300.011719 141.414062 298.175781 140.394531 296.320312 C 140.300781 296.367188 140.210938 296.410156 140.121094 296.457031 C 140.460938 297.203125 140.800781 297.929688 141.140625 298.675781 C 141.09375 298.699219 141.050781 298.722656 141.003906 298.742188 C 140.371094 297.996094 139.757812 297.25 138.964844 296.320312 C 139.804688 299.851562 140.597656 303.15625 141.367188 306.460938 C 141.300781 306.484375 141.207031 306.507812 141.140625 306.53125 C 140.9375 305.851562 140.574219 305.171875 140.527344 304.492188 C 140.460938 303.542969 140.03125 302.816406 139.441406 302.003906 C 139.488281 302.839844 139.53125 303.585938 139.578125 304.3125 C 139.511719 304.3125 139.464844 304.335938 139.398438 304.335938 C 139.304688 304.019531 139.214844 303.699219 139.058594 303.25 C 138.898438 304.515625 138.761719 305.601562 138.628906 306.6875 C 138.558594 306.667969 138.515625 306.667969 138.445312 306.667969 C 138.402344 306.125 138.332031 305.578125 138.289062 305.035156 C 138.242188 305.035156 138.195312 305.035156 138.152344 305.058594 C 138.128906 305.488281 138.105469 305.941406 138.082031 306.554688 C 137.609375 305.714844 137.222656 305.058594 136.839844 304.402344 C 136.746094 304.449219 136.632812 304.46875 136.542969 304.515625 C 136.816406 305.488281 137.019531 306.507812 137.40625 307.457031 C 137.722656 308.226562 137.515625 308.839844 137.246094 309.585938 C 136.996094 308.886719 136.792969 308.273438 136.519531 307.457031 C 136.386719 307.820312 136.339844 307.957031 136.273438 308.117188 C 136.046875 307.230469 135.84375 306.53125 135.636719 305.738281 C 134.574219 307.097656 134.550781 308.207031 135.253906 309.519531 C 135.617188 310.199219 135.730469 311.011719 135.957031 311.78125 C 135.910156 311.804688 135.863281 311.804688 135.820312 311.828125 C 135.660156 311.421875 135.503906 310.988281 135.320312 310.558594 C 134.4375 311.375 134.957031 312.234375 134.980469 313.09375 C 134.800781 312.6875 134.597656 312.257812 134.394531 311.804688 C 134.28125 312.03125 134.1875 312.210938 134.121094 312.324219 C 133.960938 311.535156 133.804688 310.742188 133.667969 309.972656 C 133.578125 309.992188 133.507812 309.992188 133.417969 310.015625 C 133.417969 310.265625 133.417969 310.515625 133.417969 310.765625 C 133.351562 310.765625 133.261719 310.765625 133.191406 310.765625 C 133.148438 309.972656 133.191406 309.15625 133.035156 308.386719 C 132.875 307.617188 132.511719 306.871094 132.242188 306.125 C 132.152344 306.167969 132.039062 306.191406 131.945312 306.238281 C 132.152344 306.78125 132.355469 307.34375 132.535156 307.890625 C 132.492188 307.910156 132.46875 307.933594 132.421875 307.933594 C 132.242188 307.683594 132.058594 307.457031 131.878906 307.210938 C 131.878906 307.933594 132.082031 308.566406 132.285156 309.203125 C 132.355469 309.40625 132.445312 309.632812 132.445312 309.859375 C 132.421875 310.289062 132.265625 310.71875 132.332031 311.125 C 132.46875 312.167969 132.71875 313.207031 132.921875 314.25 C 132.875 314.273438 132.832031 314.273438 132.761719 314.296875 C 132.445312 313.527344 132.128906 312.777344 131.789062 312.007812 C 131.539062 312.371094 131.382812 312.757812 131.496094 313.027344 C 131.925781 314.046875 131.96875 314.929688 131.382812 315.949219 C 131.085938 316.445312 131.335938 317.238281 131.335938 317.894531 C 131.289062 317.894531 131.222656 317.917969 131.175781 317.917969 C 131.085938 317.667969 130.972656 317.417969 130.792969 316.964844 C 130.792969 317.714844 130.792969 318.234375 130.792969 318.84375 C 130.632812 318.503906 130.519531 318.28125 130.40625 318.03125 C 130.339844 318.054688 130.273438 318.054688 130.226562 318.074219 C 130.363281 319.09375 130.476562 320.113281 130.609375 321.175781 C 130.363281 320.65625 130.113281 320.203125 129.820312 319.59375 C 129.683594 320.203125 129.59375 320.632812 129.480469 321.222656 C 129.230469 320.792969 129.117188 320.542969 128.980469 320.316406 C 128.9375 320.339844 128.890625 320.339844 128.824219 320.363281 C 128.824219 321.042969 128.824219 321.71875 128.824219 322.375 C 128.777344 322.375 128.753906 322.375 128.710938 322.375 C 128.503906 321.675781 128.300781 320.972656 128.074219 320.179688 C 127.078125 321.246094 128.1875 322.242188 128.007812 323.011719 C 127.667969 323.214844 127.328125 323.304688 127.304688 323.464844 C 127.214844 324.050781 127.261719 324.664062 127.167969 325.25 C 126.988281 326.609375 127.191406 328.011719 125.878906 329.101562 C 124.816406 329.984375 123.726562 330.480469 122.367188 330.546875 C 121.371094 330.59375 120.375 330.773438 119.402344 330.886719 C 118.792969 330.957031 118.179688 331.046875 117.589844 331.070312 C 116.480469 331.136719 115.347656 331.226562 114.238281 331.207031 C 113.878906 331.183594 113.675781 331.566406 113.128906 331.363281 C 112.292969 331.046875 111.226562 330.933594 110.34375 331.589844 C 110.277344 331.636719 110.117188 331.589844 110.003906 331.566406 C 110.003906 331.386719 110.027344 331.226562 110.027344 331.136719 C 108.761719 331.046875 107.539062 330.980469 106.359375 330.886719 C 106.359375 330.933594 106.359375 331.070312 106.382812 331.207031 C 106.292969 331.25 106.179688 331.296875 106.089844 331.320312 C 105.566406 330.34375 105.046875 329.371094 104.527344 328.398438 C 104.503906 328.535156 104.480469 328.714844 104.433594 328.894531 C 104.480469 327.449219 104.707031 326.042969 106.066406 325.183594 C 107.558594 324.234375 108.554688 322.828125 109.460938 321.359375 C 109.597656 321.152344 109.574219 320.835938 109.6875 320.316406 C 108.828125 320.816406 108.214844 321.152344 107.46875 321.585938 C 107.96875 320.816406 108.351562 320.179688 108.804688 319.5 C 108.554688 319.546875 108.421875 319.570312 108.171875 319.636719 C 108.648438 319.164062 109.03125 318.800781 109.371094 318.414062 C 109.507812 318.257812 109.460938 317.871094 109.621094 317.78125 C 110.707031 317.035156 111.09375 315.855469 111.589844 314.746094 C 111.679688 314.566406 111.679688 314.339844 111.75 314.046875 C 111.476562 314.203125 111.296875 314.296875 111.046875 314.429688 C 111.5 313.503906 111.90625 312.664062 112.292969 311.828125 C 112.246094 311.804688 112.226562 311.78125 112.179688 311.761719 C 111.929688 311.964844 111.703125 312.167969 111.410156 312.417969 C 111.433594 312.167969 111.433594 311.984375 111.453125 311.691406 C 111.136719 311.917969 110.933594 312.054688 110.707031 312.210938 C 110.683594 312.167969 110.640625 312.144531 110.617188 312.097656 C 111.226562 311.398438 111.839844 310.71875 112.449219 310.015625 C 112.40625 309.972656 112.359375 309.925781 112.292969 309.882812 C 112.089844 310.039062 111.886719 310.175781 111.660156 310.355469 C 111.636719 310.105469 111.613281 309.902344 111.589844 309.675781 C 111.296875 309.902344 111.070312 310.0625 110.664062 310.355469 C 111.070312 309.632812 111.339844 309.109375 111.773438 308.339844 C 111.070312 308.75 110.570312 309.019531 110.050781 309.316406 C 109.847656 308.433594 109.304688 309.449219 108.941406 309.203125 C 109.621094 308.726562 110.300781 308.226562 110.957031 307.753906 C 110.910156 307.683594 110.867188 307.617188 110.820312 307.550781 C 110.414062 307.84375 109.984375 308.160156 109.574219 308.453125 C 109.507812 308.363281 109.441406 308.296875 109.347656 308.207031 C 109.597656 308.117188 109.824219 308.046875 110.074219 307.957031 C 110.027344 307.890625 109.960938 307.796875 109.914062 307.730469 C 109.6875 307.683594 109.441406 307.640625 109.054688 307.59375 C 109.757812 307.367188 110.277344 307.1875 110.753906 307.027344 C 110.617188 306.734375 110.527344 306.484375 110.414062 306.238281 C 110.730469 306.054688 111.113281 305.851562 111.5 305.648438 C 111.453125 305.535156 111.386719 305.445312 111.339844 305.332031 C 110.570312 305.738281 109.824219 306.125 108.828125 306.644531 C 109.644531 305.714844 110.796875 305.375 110.707031 304.0625 C 110.390625 303.996094 110.003906 303.90625 109.574219 303.792969 C 109.847656 303.476562 110.074219 303.179688 110.324219 302.886719 C 110.300781 302.839844 110.253906 302.796875 110.230469 302.75 C 109.824219 302.910156 109.417969 303.066406 108.988281 303.226562 C 108.964844 303.179688 108.941406 303.136719 108.917969 303.089844 C 109.234375 302.886719 109.574219 302.683594 110.003906 302.410156 C 109.644531 302.457031 109.371094 302.5 109.101562 302.523438 C 109.167969 302.386719 109.257812 302.273438 109.328125 302.140625 C 109.054688 302.160156 108.78125 302.183594 108.441406 302.230469 C 108.625 302.046875 108.738281 301.914062 108.875 301.753906 C 108.691406 301.6875 108.554688 301.664062 108.328125 301.574219 C 108.875 301.121094 109.328125 300.757812 109.824219 300.351562 C 109.644531 300.328125 109.484375 300.304688 109.257812 300.28125 C 109.621094 300.011719 109.914062 299.761719 110.414062 299.378906 C 110.003906 299.46875 109.824219 299.492188 109.597656 299.535156 C 109.710938 299.355469 109.777344 299.265625 109.890625 299.058594 C 109.507812 299.195312 109.214844 299.308594 108.941406 299.398438 C 108.941406 299.378906 108.917969 299.355469 108.894531 299.308594 C 109.191406 299.082031 109.484375 298.855469 109.914062 298.539062 C 109.460938 298.539062 109.191406 298.539062 108.941406 298.539062 C 109.550781 298.15625 110.164062 297.746094 110.777344 297.339844 C 110.730469 297.273438 110.707031 297.203125 110.664062 297.160156 C 110.230469 297.136719 109.800781 297.113281 109.167969 297.066406 C 109.824219 296.730469 110.277344 296.523438 110.707031 296.296875 C 110.683594 296.253906 110.664062 296.183594 110.640625 296.140625 C 110.277344 296.253906 109.914062 296.367188 109.441406 296.503906 C 109.984375 295.664062 110.4375 294.917969 110.890625 294.214844 C 110.84375 294.214844 110.683594 294.238281 110.480469 294.238281 C 110.933594 293.761719 111.339844 293.355469 110.4375 292.972656 C 110.570312 292.859375 110.707031 292.746094 110.957031 292.519531 C 110.707031 292.425781 110.503906 292.335938 110.1875 292.203125 C 110.707031 292.019531 111 291.90625 111.386719 291.769531 C 111.046875 291.542969 110.796875 291.363281 110.414062 291.113281 C 110.664062 290.957031 110.890625 290.84375 111.207031 290.640625 C 110.796875 290.503906 110.59375 290.4375 110.253906 290.300781 C 110.777344 290.140625 111.207031 290.003906 111.773438 289.824219 C 111.296875 289.554688 110.980469 289.394531 110.640625 289.214844 C 111.09375 288.988281 111.476562 288.78125 111.929688 288.535156 C 111.726562 288.445312 111.546875 288.351562 111.386719 288.261719 C 111.476562 288.238281 111.546875 288.21875 111.636719 288.195312 C 111.566406 287.898438 111.589844 287.539062 111.410156 287.355469 C 110.707031 286.65625 110.707031 286.496094 111.773438 285.90625 C 111.273438 285.683594 110.910156 285.523438 110.457031 285.296875 C 110.753906 285.117188 110.980469 284.933594 111.226562 284.84375 C 111.5 284.730469 111.816406 284.707031 112.292969 284.59375 C 111.660156 284.347656 111.226562 284.1875 110.777344 284.007812 C 111.792969 283.351562 111.816406 283.191406 111.046875 282.738281 C 111.703125 281.605469 110.550781 280.90625 110.4375 279.933594 C 110.617188 279.820312 110.867188 279.683594 111.160156 279.5 C 110.890625 279.410156 110.707031 279.34375 110.414062 279.230469 C 111.386719 278.664062 110.570312 278.617188 110.503906 278.347656 C 110.300781 277.507812 110.097656 276.695312 109.871094 275.789062 C 109.914062 275.765625 110.074219 275.699219 110.277344 275.609375 C 109.960938 275.449219 109.664062 275.292969 109.257812 275.066406 C 109.664062 274.929688 110.003906 274.816406 110.324219 274.703125 C 110.324219 274.65625 110.324219 274.613281 110.324219 274.566406 C 109.960938 274.5 109.621094 274.453125 109.234375 274.386719 C 109.328125 274.136719 109.417969 273.910156 109.53125 273.640625 C 109.144531 273.617188 108.828125 273.59375 108.511719 273.570312 C 108.441406 273.320312 108.375 273.09375 108.285156 272.800781 C 108.398438 272.777344 108.511719 272.757812 108.601562 272.710938 C 108.738281 272.644531 108.851562 272.550781 108.964844 272.484375 C 108.894531 272.460938 108.828125 272.417969 108.738281 272.394531 C 108.851562 272.007812 108.988281 271.625 109.078125 271.308594 C 108.578125 270.988281 107.992188 270.605469 107.265625 270.152344 C 107.71875 270.085938 107.921875 270.039062 108.261719 269.996094 C 107.855469 269.746094 107.582031 269.585938 107.289062 269.40625 C 107.46875 269.292969 107.582031 269.222656 107.765625 269.109375 C 107.515625 268.886719 107.3125 268.679688 106.992188 268.386719 C 108.105469 268.386719 109.101562 268.386719 110.074219 268.386719 C 110.074219 268.339844 110.074219 268.296875 110.074219 268.226562 C 109.777344 268.183594 109.484375 268.160156 109.191406 268.117188 C 109.191406 268.070312 109.191406 268.023438 109.167969 267.980469 C 109.484375 267.890625 109.800781 267.777344 110.164062 267.664062 C 109.257812 267.59375 108.441406 267.550781 107.628906 267.480469 C 108.511719 267.164062 108.625 266.53125 108.464844 265.714844 C 108.238281 265.851562 108.035156 265.988281 107.628906 266.257812 C 107.921875 265.828125 108.058594 265.625 108.195312 265.421875 C 107.765625 265.398438 107.378906 265.375 106.992188 265.355469 C 106.992188 265.285156 106.972656 265.21875 106.972656 265.148438 C 107.445312 264.96875 107.921875 264.765625 108.398438 264.582031 C 108.375 264.539062 108.375 264.515625 108.351562 264.46875 C 107.921875 264.515625 107.492188 264.5625 107.0625 264.605469 C 107.039062 264.539062 107.015625 264.46875 106.992188 264.425781 C 107.628906 264.132812 108.285156 263.8125 109.144531 263.40625 C 108.125 263.066406 107.3125 262.796875 106.519531 262.523438 C 106.542969 262.480469 106.542969 262.433594 106.5625 262.410156 C 107.332031 262.570312 108.105469 262.703125 108.875 262.863281 C 108.894531 262.796875 108.917969 262.726562 108.917969 262.683594 C 108.511719 262.570312 108.125 262.457031 107.492188 262.273438 C 108.105469 262.230469 108.441406 262.207031 108.804688 262.160156 C 107.992188 261.980469 107.21875 261.800781 106.449219 261.617188 C 106.472656 261.527344 106.496094 261.414062 106.519531 261.324219 C 106.925781 261.371094 107.3125 261.390625 107.71875 261.4375 C 108.105469 261.484375 108.488281 261.527344 108.851562 261.574219 C 108.851562 261.503906 108.875 261.4375 108.875 261.371094 C 108.148438 261.121094 107.425781 260.847656 106.789062 260.621094 C 107.71875 260.507812 108.691406 260.417969 109.6875 260.304688 C 109.6875 260.261719 109.6875 260.214844 109.6875 260.167969 C 109.234375 260.101562 108.78125 260.035156 108.328125 259.964844 C 108.328125 259.898438 108.328125 259.828125 108.328125 259.761719 C 109.144531 259.695312 109.984375 259.625 110.980469 259.535156 C 109.597656 258.449219 108.375 260.054688 107.355469 259.582031 C 107.242188 259.242188 107.199219 259.082031 107.152344 258.945312 C 107.71875 258.992188 108.261719 259.039062 108.78125 259.082031 C 108.78125 259.039062 108.804688 258.96875 108.804688 258.925781 C 108.441406 258.855469 108.082031 258.765625 107.652344 258.675781 C 108.105469 258.425781 108.511719 258.246094 109.007812 257.972656 C 108.105469 257.632812 107.039062 258.15625 106.449219 257.089844 C 107.355469 257.273438 108.105469 257.429688 108.828125 257.566406 C 108.851562 257.476562 108.875 257.386719 108.894531 257.292969 C 108.125 256.933594 107.332031 256.570312 106.5625 256.207031 C 108.082031 256.546875 109.597656 257.453125 111.046875 255.6875 C 109.734375 255.6875 108.554688 255.6875 107.402344 255.6875 C 107.402344 255.621094 107.378906 255.574219 107.378906 255.507812 C 107.992188 255.371094 108.601562 255.234375 109.28125 255.097656 C 108.398438 254.941406 107.605469 254.804688 106.835938 254.667969 C 106.835938 254.601562 106.835938 254.53125 106.8125 254.464844 C 108.554688 254.375 110.300781 254.261719 111.816406 253.085938 C 110.640625 253.421875 109.554688 253.742188 108.441406 254.058594 C 108.421875 253.988281 108.421875 253.945312 108.398438 253.875 C 109.101562 253.628906 109.777344 253.355469 110.570312 253.0625 C 109.824219 252.722656 109.214844 252.425781 108.601562 252.132812 C 108.917969 251.929688 109.167969 251.953125 109.394531 251.929688 C 109.824219 251.882812 110.59375 251.929688 110.617188 251.769531 C 110.777344 251.136719 110.140625 251.046875 109.710938 250.84375 C 109.6875 250.820312 109.6875 250.753906 109.644531 250.617188 C 110.664062 250.796875 111.660156 251.320312 112.472656 250.546875 C 111.160156 250.34375 109.777344 250.117188 108.398438 249.914062 C 108.398438 249.824219 108.421875 249.734375 108.421875 249.644531 C 108.988281 249.644531 109.554688 249.644531 110.097656 249.644531 C 110.097656 249.574219 110.097656 249.53125 110.097656 249.460938 C 109.6875 249.441406 109.257812 249.394531 108.851562 249.371094 C 108.851562 249.347656 108.851562 249.304688 108.851562 249.28125 C 109.460938 249.234375 110.074219 249.167969 110.707031 249.121094 C 110.707031 249.054688 110.707031 248.988281 110.707031 248.917969 C 110.117188 248.761719 109.507812 248.601562 108.917969 248.445312 C 108.917969 248.398438 108.917969 248.351562 108.917969 248.332031 C 109.6875 248.332031 110.4375 248.332031 111.296875 248.332031 C 110.457031 247.855469 109.710938 247.449219 108.988281 247.039062 C 109.007812 246.902344 109.03125 246.746094 109.054688 246.609375 C 109.734375 246.496094 110.390625 246.40625 111.070312 246.316406 C 111.070312 246.269531 111.070312 246.226562 111.070312 246.203125 C 110.683594 246.089844 110.324219 245.976562 109.824219 245.816406 C 110.550781 245.703125 111.136719 245.613281 111.726562 245.523438 C 111.726562 245.457031 111.726562 245.410156 111.726562 245.34375 C 111.046875 245.273438 110.367188 245.230469 109.574219 245.136719 C 110.777344 244.820312 111.433594 244.480469 111.726562 244.027344 C 110.980469 243.871094 110.253906 243.710938 109.507812 243.53125 C 110.414062 243.101562 111.226562 242.714844 112.019531 242.332031 C 111.976562 242.242188 111.953125 242.148438 111.90625 242.058594 C 111.433594 242.148438 110.980469 242.242188 110.253906 242.375 C 110.84375 242.015625 111.207031 241.789062 111.726562 241.472656 C 111.226562 241.378906 110.933594 241.335938 110.527344 241.265625 C 110.820312 241.0625 111.023438 240.929688 111.136719 240.859375 C 110.84375 240.632812 110.570312 240.453125 110.164062 240.136719 C 111.207031 240 111.976562 239.886719 112.722656 239.796875 C 112.722656 239.75 112.699219 239.683594 112.699219 239.636719 C 112.429688 239.613281 112.15625 239.59375 111.636719 239.570312 C 112.179688 239.34375 112.519531 239.183594 112.882812 239.050781 C 112.859375 239.003906 112.835938 238.9375 112.8125 238.890625 C 111.953125 239.117188 111.09375 239.367188 110.230469 239.59375 C 110.210938 239.546875 110.210938 239.5 110.1875 239.480469 C 110.753906 239.164062 111.320312 238.867188 112.089844 238.4375 C 111.433594 238.414062 111.023438 238.390625 110.570312 238.371094 C 111.25 238.097656 111.863281 237.847656 112.472656 237.601562 C 112.429688 237.507812 112.382812 237.398438 112.359375 237.304688 C 111.90625 237.507812 111.453125 237.714844 111.113281 237.847656 C 110.414062 236.898438 109.394531 237.285156 108.421875 237.058594 C 109.574219 236.625 110.910156 237.101562 111.636719 235.8125 C 110.957031 235.96875 110.34375 236.105469 109.554688 236.308594 C 109.847656 236.082031 109.984375 235.96875 110.140625 235.855469 C 109.441406 236.128906 108.917969 235.992188 108.625 235.382812 C 109.121094 235.222656 109.644531 235.066406 110.300781 234.859375 C 109.824219 234.726562 109.53125 234.636719 109.234375 234.566406 C 109.257812 234.523438 109.257812 234.5 109.28125 234.453125 C 109.574219 234.410156 109.871094 234.363281 110.300781 234.296875 C 110.027344 234.070312 109.871094 233.933594 109.664062 233.773438 C 109.9375 233.730469 110.117188 233.683594 110.253906 233.660156 C 109.847656 233.367188 109.460938 233.09375 108.917969 232.710938 C 109.484375 232.777344 109.824219 232.800781 110.367188 232.867188 C 109.984375 232.394531 109.734375 232.078125 109.507812 231.78125 C 109.960938 231.375 111.046875 231.761719 110.777344 230.742188 C 111.433594 230.332031 112.066406 229.972656 112.769531 229.5625 C 111.433594 229.609375 110.117188 229.019531 109.328125 227.910156 C 109.914062 227.640625 110.503906 227.367188 111.113281 227.074219 C 110.457031 226.574219 109.890625 226.125 109.167969 225.578125 C 109.890625 225.511719 110.503906 226.441406 110.933594 225.398438 C 110.324219 225.128906 109.777344 224.878906 109.121094 224.5625 C 109.394531 224.449219 109.550781 224.378906 109.6875 224.335938 C 109.257812 223.972656 108.875 223.632812 108.464844 223.269531 C 108.875 223.179688 109.257812 223.089844 109.6875 222.976562 C 109.078125 222.367188 109.167969 221.121094 107.832031 221.324219 C 109.460938 221.210938 109.441406 219.558594 110.390625 218.855469 C 110.277344 218.878906 110.164062 218.878906 109.960938 218.925781 C 110.277344 218.5625 110.527344 218.3125 110.753906 218.042969 C 110.664062 218.042969 110.550781 218.0625 110.457031 218.0625 C 110.390625 217.839844 110.210938 217.613281 110.253906 217.40625 C 110.34375 217.046875 110.550781 216.730469 110.730469 216.367188 C 110.503906 216.34375 110.324219 216.320312 110.367188 216.320312 C 110.277344 215.621094 110.210938 215.03125 110.117188 214.195312 C 109.871094 214.625 109.757812 214.78125 109.621094 215.007812 C 109.53125 214.757812 109.460938 214.554688 109.304688 214.082031 C 108.894531 214.667969 108.625 215.078125 108.375 215.460938 C 108.105469 215.867188 107.808594 216.296875 107.46875 216.820312 C 108.011719 217.929688 106.789062 218.402344 106.472656 219.082031 C 106.179688 218.425781 105.882812 217.769531 105.5 216.957031 C 104.773438 217.542969 103.980469 217.972656 103.574219 218.628906 C 103.257812 219.171875 103.417969 219.988281 103.347656 220.691406 C 102.941406 219.988281 103.097656 220.894531 102.804688 220.9375 C 102.398438 220.417969 101.945312 219.828125 101.355469 219.105469 C 101.402344 219.625 101.445312 219.921875 101.46875 220.375 C 101.195312 219.988281 101.015625 219.761719 100.8125 219.445312 C 100.609375 219.785156 100.449219 220.054688 100.3125 220.261719 C 99.839844 220.078125 99.386719 219.785156 98.933594 219.761719 C 98.457031 219.738281 97.980469 220.011719 97.574219 220.148438 C 97.574219 219.285156 96.644531 219.828125 96.441406 219.421875 C 96.464844 219.195312 96.464844 219.015625 96.488281 218.765625 C 96.171875 218.902344 95.945312 218.992188 95.648438 219.105469 C 95.332031 218.199219 94.96875 217.363281 94.789062 216.503906 C 94.628906 215.6875 94.742188 214.804688 94.585938 213.988281 C 94.132812 211.613281 94.539062 209.28125 94.699219 206.949219 C 94.8125 205.476562 94.765625 203.984375 94.765625 202.488281 C 94.765625 202.308594 94.5625 202.105469 94.382812 201.742188 C 94.402344 201.605469 94.496094 201.222656 94.609375 200.746094 C 94.15625 201.0625 93.769531 201.3125 93.203125 201.71875 C 93.453125 200.816406 93.65625 200.136719 93.859375 199.433594 C 93.273438 199.59375 92.820312 199.726562 92.164062 199.910156 C 92.410156 199.523438 92.503906 199.367188 92.660156 199.140625 C 92.277344 199.230469 92.027344 199.277344 91.777344 199.34375 C 91.710938 199.296875 91.664062 199.230469 91.597656 199.183594 C 91.914062 198.730469 92.230469 198.257812 92.546875 197.828125 C 92.164062 197.667969 91.777344 197.53125 91.347656 197.375 C 92.003906 197.035156 92.617188 196.71875 93.203125 196.421875 C 93.179688 196.378906 93.160156 196.308594 93.136719 196.265625 C 92.863281 196.289062 92.59375 196.332031 92.296875 196.355469 C 92.296875 196.308594 92.277344 196.265625 92.277344 196.21875 C 92.546875 196.082031 92.820312 195.949219 93.160156 195.789062 C 92.933594 195.675781 92.730469 195.585938 92.523438 195.472656 C 92.636719 195.335938 92.730469 195.222656 92.839844 195.066406 C 92.636719 194.953125 92.457031 194.839844 92.296875 194.726562 C 92.75 194.386719 93.179688 194.046875 93.679688 193.683594 C 93.40625 193.59375 93.25 193.546875 93.179688 193.527344 C 93.40625 193.230469 93.792969 192.9375 93.839844 192.621094 C 93.882812 192.28125 93.632812 191.894531 93.5 191.535156 C 93.726562 191.488281 93.972656 191.464844 94.222656 191.421875 C 94.15625 191.351562 94.109375 191.261719 94.042969 191.195312 C 94.3125 190.878906 94.585938 190.582031 94.878906 190.265625 C 94.609375 190.242188 94.359375 190.242188 94.359375 190.242188 C 94.675781 189.769531 95.242188 189.269531 95.308594 188.726562 C 95.378906 188.207031 94.902344 187.617188 94.699219 187.097656 C 94.949219 187.097656 95.265625 187.097656 95.605469 187.097656 C 94.5625 186.800781 95.195312 185.964844 95.015625 185.398438 C 95.195312 185.375 95.378906 185.355469 95.515625 185.332031 C 95.195312 184.71875 94.902344 184.152344 94.585938 183.566406 C 94.628906 183.519531 94.675781 183.496094 94.742188 183.453125 C 95.152344 183.722656 95.558594 183.996094 95.945312 184.289062 C 95.964844 184.246094 96.011719 184.222656 96.035156 184.175781 C 95.648438 183.476562 95.242188 182.75 94.789062 181.933594 C 95.265625 181.867188 95.492188 181.84375 95.761719 181.820312 C 95.515625 181.617188 95.21875 181.460938 95.082031 181.234375 C 94.96875 181.050781 95.015625 180.734375 95.082031 180.53125 C 95.105469 180.441406 95.402344 180.394531 95.558594 180.375 C 95.785156 180.375 96.011719 180.417969 96.398438 180.488281 C 95.945312 179.964844 95.625 179.605469 95.445312 179.421875 C 95.761719 178.742188 96.011719 178.199219 96.238281 177.703125 C 96.464844 177.769531 96.851562 177.90625 97.234375 178.042969 C 97.257812 177.996094 97.28125 177.929688 97.300781 177.882812 C 96.851562 177.316406 96.417969 176.75 95.875 176.074219 C 96.464844 176.207031 96.894531 176.320312 97.300781 176.410156 C 97.371094 176.320312 97.414062 176.207031 97.484375 176.117188 C 97.28125 176.003906 97.054688 175.890625 96.804688 175.753906 C 97.097656 175.621094 97.300781 175.550781 97.550781 175.4375 C 97.144531 175.234375 96.828125 175.097656 96.398438 174.894531 C 97.007812 174.304688 97.550781 173.785156 98.09375 173.265625 C 97.777344 172.992188 97.507812 172.746094 97.210938 172.472656 C 97.484375 172.40625 97.664062 172.359375 97.867188 172.292969 C 97.621094 172.066406 97.4375 171.90625 97.210938 171.726562 C 97.527344 171.679688 97.753906 171.636719 98.117188 171.566406 C 97.800781 171.320312 97.597656 171.136719 97.324219 170.933594 C 97.621094 170.773438 97.867188 170.640625 98.117188 170.503906 C 97.960938 170.390625 97.800781 170.277344 97.621094 170.140625 C 97.9375 170.027344 98.230469 169.960938 98.636719 169.824219 C 98.253906 169.734375 98.050781 169.6875 97.597656 169.597656 C 98.164062 169.121094 98.59375 168.78125 98.976562 168.464844 C 98.796875 168.285156 98.617188 168.058594 98.390625 167.832031 C 98.683594 167.628906 98.957031 167.449219 99.226562 167.242188 C 99.203125 167.222656 99.203125 167.175781 99.183594 167.152344 C 98.933594 167.222656 98.683594 167.289062 98.433594 167.355469 C 98.410156 167.3125 98.390625 167.265625 98.390625 167.222656 C 98.75 166.949219 99.136719 166.679688 99.636719 166.292969 C 99.089844 166.316406 98.773438 166.339844 98.457031 166.359375 C 98.433594 166.316406 98.433594 166.269531 98.410156 166.226562 C 98.796875 165.976562 99.183594 165.726562 99.589844 165.457031 C 99.453125 165.363281 99.316406 165.296875 99.203125 165.230469 C 99.429688 164.980469 99.613281 164.777344 99.839844 164.527344 C 99.613281 164.480469 99.429688 164.4375 99.046875 164.324219 C 99.816406 163.597656 100.449219 162.988281 101.105469 162.355469 C 101.0625 162.285156 101.015625 162.21875 100.972656 162.148438 C 100.425781 162.511719 99.882812 162.851562 99.183594 163.304688 C 99.769531 162.535156 100.425781 161.96875 100.675781 161.246094 C 100.949219 160.496094 101.742188 160.382812 102.171875 159.613281 C 101.628906 159.863281 101.265625 160.023438 100.652344 160.292969 C 101.128906 159.773438 101.421875 159.457031 101.742188 159.09375 C 101.558594 159.003906 101.421875 158.957031 101.378906 158.9375 C 102.035156 157.847656 102.667969 156.761719 103.371094 155.609375 C 103.417969 155.628906 103.234375 155.539062 103.054688 155.449219 C 103.574219 155.179688 103.960938 154.972656 104.546875 154.679688 C 104.09375 154.65625 103.871094 154.65625 103.574219 154.636719 C 103.800781 154.453125 103.980469 154.339844 104.117188 154.25 C 103.914062 154.160156 103.734375 154.070312 103.53125 153.976562 C 103.777344 153.660156 104.027344 153.320312 104.300781 152.980469 C 104.207031 152.9375 104.050781 152.867188 103.847656 152.800781 C 104.300781 152.574219 104.546875 152.4375 104.796875 152.304688 C 104.707031 152.257812 104.640625 152.210938 104.546875 152.167969 C 104.683594 151.828125 104.773438 151.464844 104.957031 151.148438 C 105.136719 150.855469 105.636719 150.558594 105.589844 150.355469 C 105.386719 149.609375 105.976562 149.203125 106.203125 148.636719 C 106.449219 148.023438 106.8125 147.480469 107.0625 146.871094 C 107.378906 146.054688 107.652344 145.195312 107.921875 144.335938 C 107.492188 143.585938 108.398438 143.113281 108.554688 142.589844 C 108.464844 142.386719 108.351562 142.253906 108.351562 142.140625 C 108.238281 141.371094 109.484375 140.621094 108.398438 139.964844 C 109.007812 139.265625 109.574219 138.628906 110.117188 137.996094 C 110.074219 137.949219 110.003906 137.90625 109.960938 137.839844 C 109.644531 138.042969 109.328125 138.246094 109.007812 138.472656 C 108.964844 138.425781 108.917969 138.359375 108.875 138.3125 C 109.328125 137.816406 109.757812 137.316406 110.300781 136.730469 C 109.777344 136.773438 109.394531 136.796875 108.78125 136.84375 C 109.484375 136.523438 110.003906 136.277344 110.527344 136.003906 C 110.503906 135.960938 110.503906 135.914062 110.480469 135.867188 C 109.984375 135.980469 109.507812 136.09375 109.007812 136.207031 C 109.007812 136.164062 108.988281 136.140625 108.988281 136.09375 C 109.871094 135.484375 110.730469 134.871094 111.816406 134.101562 C 110.730469 134.328125 109.914062 134.488281 109.101562 134.644531 C 109.078125 134.601562 109.03125 134.53125 109.007812 134.488281 C 109.777344 133.898438 110.550781 133.308594 111.320312 132.722656 C 111.296875 132.652344 111.25 132.585938 111.226562 132.519531 C 110.84375 132.539062 110.4375 132.5625 109.847656 132.609375 C 110.503906 132.203125 110.980469 131.882812 111.613281 131.476562 C 110.957031 131.542969 110.480469 131.613281 110.027344 131.65625 C 110.027344 131.613281 110.003906 131.542969 110.003906 131.5 C 110.664062 131.363281 111.320312 131.25 111.976562 131.113281 C 111.976562 131.09375 111.976562 131.046875 111.976562 131.023438 C 111.703125 131 111.453125 130.980469 111 130.933594 C 111.410156 130.753906 111.660156 130.640625 111.886719 130.527344 C 111.886719 130.480469 111.863281 130.457031 111.863281 130.414062 C 111.320312 130.480469 110.777344 130.546875 110.253906 130.59375 C 110.230469 130.546875 110.230469 130.503906 110.210938 130.4375 C 110.980469 130.210938 111.75 129.960938 112.519531 129.734375 C 112.519531 129.6875 112.496094 129.644531 112.496094 129.597656 C 112.066406 129.574219 111.636719 129.550781 111.207031 129.507812 C 111.207031 129.460938 111.207031 129.441406 111.207031 129.394531 C 111.636719 129.257812 112.066406 129.144531 112.609375 128.988281 C 112.089844 128.828125 111.726562 128.714844 111.339844 128.601562 C 111.339844 128.488281 111.339844 128.398438 111.339844 128.285156 C 111.773438 128.21875 112.179688 128.125 112.609375 128.082031 C 113.085938 128.035156 113.582031 128.011719 114.21875 127.945312 C 113.675781 127.492188 113.3125 127.175781 112.882812 126.8125 C 113.152344 126.746094 113.335938 126.699219 113.539062 126.632812 C 113.46875 126.359375 113.402344 126.132812 113.355469 125.886719 C 113.71875 125.863281 114.011719 125.839844 114.398438 125.816406 C 114.148438 125.546875 113.992188 125.386719 114.011719 125.410156 C 114.308594 124.777344 114.558594 124.253906 114.828125 123.710938 C 115.078125 123.710938 115.460938 123.710938 115.914062 123.710938 C 115.757812 123.484375 115.621094 123.304688 115.304688 122.851562 C 116.253906 122.988281 116.980469 123.078125 117.886719 123.191406 C 117.386719 122.785156 117.070312 122.511719 116.730469 122.242188 C 117.207031 122.105469 117.613281 121.992188 118.019531 121.878906 C 117.863281 121.742188 117.683594 121.605469 117.363281 121.359375 C 118.292969 121.15625 119.039062 120.972656 119.902344 120.792969 C 119.652344 120.496094 119.492188 120.316406 119.355469 120.160156 C 120.398438 119.59375 121.394531 119.027344 122.390625 118.460938 C 121.960938 117.871094 122.480469 117.351562 123.613281 117.148438 C 123.367188 116.695312 123.207031 116.289062 123.953125 116.105469 C 124.179688 116.0625 124.429688 115.765625 124.496094 115.519531 C 124.792969 114.703125 124.835938 113.773438 125.71875 113.253906 C 125.832031 113.1875 125.742188 112.757812 125.742188 112.4375 C 125.945312 112.347656 126.195312 112.234375 126.488281 112.097656 C 126.355469 111.828125 126.21875 111.625 126.152344 111.511719 C 126.695312 111.101562 127.167969 110.765625 127.667969 110.378906 C 127.578125 110.21875 127.488281 110.0625 127.351562 109.859375 C 127.710938 109.835938 128.03125 109.8125 128.414062 109.789062 C 128.300781 109.5625 128.234375 109.40625 128.144531 109.203125 C 128.347656 109.15625 128.503906 109.109375 128.664062 109.066406 C 128.574219 108.90625 128.484375 108.75 128.414062 108.589844 C 128.800781 108.523438 129.117188 108.453125 129.613281 108.363281 C 129.273438 108.25 129.140625 108.207031 129.160156 108.226562 C 129.386719 107.777344 129.5 107.230469 129.839844 106.914062 C 130.273438 106.53125 130.882812 106.347656 131.402344 106.101562 C 131.269531 105.898438 131.199219 105.785156 131.0625 105.625 C 131.425781 105.601562 131.675781 105.578125 132.015625 105.558594 C 131.835938 105.375 131.699219 105.21875 131.585938 105.082031 C 131.992188 104.652344 133.035156 104.921875 132.808594 103.925781 C 133.375 103.722656 133.941406 103.519531 134.6875 103.269531 C 134.1875 103.15625 133.941406 103.089844 133.691406 103.042969 C 134.097656 102.703125 134.460938 102.386719 134.84375 102.070312 C 134.800781 101.980469 134.753906 101.820312 134.710938 101.753906 C 135.070312 101.527344 135.660156 101.300781 135.660156 101.074219 C 135.660156 100.351562 136.203125 100.238281 136.632812 99.964844 C 136.792969 99.851562 137.042969 99.738281 137.085938 99.582031 C 137.425781 98.449219 138.671875 98.472656 139.261719 97.746094 C 139.285156 97.429688 139.285156 97.046875 139.464844 96.910156 C 139.738281 96.707031 140.144531 96.707031 140.640625 96.59375 C 140.847656 96.027344 141.09375 95.324219 141.367188 94.578125 C 141.617188 94.644531 141.863281 94.738281 142.023438 94.78125 C 141.660156 93.445312 141.140625 92.089844 140.960938 90.683594 C 140.753906 88.917969 141.300781 86.882812 143.472656 86.113281 C 146.710938 84.980469 149.769531 85.320312 152.710938 86.949219 C 152.914062 87.0625 153.140625 87.289062 153.324219 87.242188 C 154.320312 86.996094 155.269531 86.699219 156.265625 86.429688 C 157.082031 86.203125 157.875 85.886719 158.710938 85.773438 C 159.84375 85.613281 160.816406 84.867188 162.019531 85.003906 C 162.132812 85.023438 162.289062 84.664062 162.449219 84.480469 C 162.992188 84.59375 163.511719 84.4375 164.011719 84.414062 C 164.621094 84.390625 165.257812 84.480469 165.890625 84.527344 C 167.179688 84.59375 168.492188 84.617188 169.761719 84.753906 C 172.050781 84.980469 174.335938 85.230469 176.601562 85.589844 C 178.207031 85.839844 179.816406 86.226562 181.378906 86.722656 C 182.511719 87.085938 183.527344 87.742188 184.640625 88.171875 C 186.359375 88.851562 187.921875 89.777344 189.234375 91.09375 C 190.074219 91.929688 190.980469 92.746094 191.976562 93.378906 C 192.496094 93.71875 192.609375 94.101562 192.789062 94.601562 C 193.109375 95.414062 193.605469 96.140625 194.035156 96.910156 C 194.082031 96.976562 194.125 97.023438 194.195312 97.113281 C 193.992188 97.160156 193.808594 97.179688 193.445312 97.273438 C 194.691406 98.3125 195.757812 99.285156 196.910156 100.148438 C 199.128906 101.753906 201.417969 103.25 203.660156 104.808594 C 204.609375 105.488281 204.769531 106.394531 204.179688 107.390625 C 204.023438 107.640625 203.816406 107.867188 203.726562 108.136719 C 203.523438 108.726562 203.207031 108.929688 202.617188 108.546875 C 202.574219 108.792969 202.460938 109 202.527344 109.132812 C 203.09375 110.492188 202.527344 111.625 201.894531 112.757812 C 201.417969 113.570312 200.761719 113.976562 199.765625 113.796875 C 199.402344 113.730469 198.996094 114 198.609375 114.089844 C 198.453125 114.136719 198.246094 114.25 198.113281 114.203125 C 196.164062 113.414062 194.21875 113.773438 192.222656 114.226562 C 193.492188 114.839844 194.691406 115.425781 196.007812 116.0625 C 196.210938 115.835938 196.550781 115.425781 196.890625 115.019531 C 196.957031 115.066406 197.046875 115.085938 197.117188 115.132812 C 196.957031 115.699219 196.777344 116.242188 196.683594 116.808594 C 196.640625 117.058594 196.683594 117.488281 196.84375 117.601562 C 197.433594 118.03125 197.363281 118.527344 197.183594 119.070312 C 196.34375 121.585938 194.445312 122.988281 191.546875 122.964844 C 190.277344 122.964844 189.007812 122.648438 187.785156 122.355469 C 186.992188 122.171875 186.3125 122.039062 185.792969 122.828125 C 185.476562 123.28125 185.160156 123.757812 184.796875 124.164062 C 184.546875 124.460938 184.207031 124.6875 183.867188 124.980469 C 183.824219 124.933594 183.710938 124.800781 183.550781 124.574219 C 183.257812 124.957031 183.03125 125.273438 182.757812 125.636719 C 182.667969 125.570312 182.53125 125.5 182.375 125.386719 C 181.855469 126.15625 181.582031 126.925781 182.035156 127.808594 C 181.898438 127.855469 181.808594 128.171875 181.742188 128.828125 C 181.535156 128.875 181.308594 128.917969 181.082031 128.964844 C 181.082031 129.007812 181.082031 129.054688 181.082031 129.101562 C 181.402344 129.167969 181.71875 129.234375 182.304688 129.371094 C 181.671875 129.734375 181.21875 129.960938 180.765625 130.230469 C 180.96875 130.414062 181.195312 130.617188 181.421875 130.796875 C 181.152344 131.183594 180.179688 131.25 180.949219 132.019531 C 180.699219 132.15625 180.519531 132.246094 180.292969 132.359375 C 181.039062 133.21875 180.335938 133.855469 180.019531 134.398438 C 180.222656 135.234375 180.40625 135.9375 180.585938 136.730469 C 180.40625 136.820312 180.066406 137 179.589844 137.25 C 180.269531 137.429688 180.8125 137.566406 181.492188 137.746094 C 181.152344 137.90625 180.949219 137.996094 180.742188 138.109375 C 180.992188 138.222656 181.242188 138.335938 181.515625 138.449219 C 181.195312 138.5625 180.925781 138.628906 180.519531 138.765625 C 181.039062 139.015625 181.378906 139.171875 181.832031 139.398438 C 181.492188 139.535156 181.265625 139.605469 180.925781 139.738281 C 181.128906 139.875 181.21875 139.941406 181.378906 140.054688 C 181.105469 140.101562 180.902344 140.125 180.585938 140.167969 C 180.925781 140.375 181.195312 140.53125 181.46875 140.710938 C 181.308594 140.78125 181.175781 140.847656 181.0625 140.894531 C 181.289062 141.03125 181.492188 141.121094 181.648438 141.210938 C 181.082031 142.09375 182.171875 142.117188 182.328125 142.613281 C 181.988281 142.613281 181.628906 142.613281 181.152344 142.613281 C 181.671875 142.976562 182.078125 143.226562 182.578125 143.566406 C 182.078125 143.585938 181.761719 143.609375 181.402344 143.632812 C 181.96875 144.3125 182.441406 144.921875 183.078125 145.714844 C 182.511719 145.671875 182.261719 145.648438 181.988281 145.625 C 182.125 145.804688 182.261719 145.988281 182.417969 146.214844 C 182.214844 146.191406 182.078125 146.167969 181.855469 146.144531 C 182.238281 146.621094 182.53125 146.984375 182.828125 147.34375 C 182.804688 147.390625 182.757812 147.4375 182.738281 147.480469 C 182.464844 147.390625 182.191406 147.300781 181.898438 147.210938 C 182.191406 148.003906 182.464844 148.726562 182.757812 149.496094 C 182.53125 149.472656 182.441406 149.472656 182.488281 149.472656 C 182.441406 149.925781 182.304688 150.378906 182.351562 150.832031 C 182.375 151.328125 182.625 151.828125 182.644531 152.324219 C 182.691406 153.683594 182.917969 155.085938 182.644531 156.402344 C 182.328125 157.871094 182.667969 159.207031 182.917969 160.566406 C 183.210938 162.261719 183.890625 163.894531 184.433594 165.546875 C 184.84375 166.746094 185.296875 167.921875 185.703125 169.121094 C 185.726562 169.167969 185.679688 169.214844 185.679688 169.28125 C 185.5 169.167969 185.339844 169.078125 185.226562 169.007812 C 185.363281 169.824219 185.523438 170.617188 185.65625 171.410156 C 185.75 172.042969 185.792969 172.699219 185.863281 173.332031 C 185.863281 173.421875 185.929688 173.492188 185.953125 173.582031 C 186.109375 174.554688 186.269531 175.527344 186.425781 176.503906 C 186.472656 176.820312 186.539062 177.160156 186.519531 177.5 C 186.496094 178.472656 186.359375 179.46875 186.425781 180.441406 C 186.519531 181.59375 186.789062 182.75 186.992188 183.90625 C 186.835938 183.882812 186.699219 183.882812 186.5625 183.859375 C 186.5625 184.945312 186.699219 186.011719 186.519531 187.050781 C 186.382812 187.957031 185.792969 188.792969 186.019531 189.789062 C 186.042969 189.902344 185.996094 190.015625 185.996094 190.128906 C 185.976562 191.421875 185.953125 192.710938 185.953125 193.976562 C 185.953125 194.339844 186.042969 194.679688 186.089844 195.042969 C 186.019531 195.085938 185.976562 195.109375 185.90625 195.15625 C 185.542969 194.816406 185.160156 194.476562 184.796875 194.136719 C 184.773438 194.160156 184.753906 194.183594 184.707031 194.203125 C 185.089844 194.816406 185.476562 195.425781 185.882812 196.039062 C 185.839844 196.082031 185.792969 196.105469 185.75 196.152344 C 185.476562 196.0625 185.226562 195.949219 184.933594 195.855469 C 184.957031 196.289062 184.976562 196.671875 185 197.078125 C 184.957031 197.078125 184.910156 197.101562 184.886719 197.101562 C 184.753906 197.734375 184.617188 198.371094 184.480469 199.003906 C 183.890625 198.914062 183.574219 199.140625 183.753906 199.683594 C 183.507812 199.933594 183.324219 200.113281 183.144531 200.292969 C 182.871094 200.566406 182.398438 200.769531 182.328125 201.085938 C 182.078125 202.242188 181.945312 203.417969 181.785156 204.59375 C 181.558594 204.527344 181.421875 204.480469 181.195312 204.390625 C 181.332031 204.820312 181.421875 205.160156 181.558594 205.589844 C 181.289062 205.523438 181.082031 205.476562 180.855469 205.410156 C 180.878906 205.589844 180.855469 205.773438 180.925781 205.863281 C 181.648438 206.632812 181.21875 207.652344 180.949219 208.195312 C 180.425781 209.191406 180.835938 210.117188 180.722656 211.046875 C 180.632812 211.976562 180.835938 212.925781 180.855469 213.855469 C 180.878906 214.375 180.742188 214.917969 180.8125 215.414062 C 180.949219 216.253906 181.175781 217.089844 181.378906 217.929688 C 181.402344 217.972656 181.378906 218.042969 181.355469 218.085938 C 180.96875 218.8125 180.835938 219.511719 181.445312 220.214844 C 181.535156 220.328125 181.308594 220.710938 181.242188 220.984375 C 181.152344 221.210938 181.195312 221.503906 181.265625 221.777344 C 181.355469 222.183594 181.332031 222.660156 181.535156 223 C 181.945312 223.632812 181.832031 224.085938 181.082031 224.5625 C 181.582031 224.742188 181.921875 224.855469 182.328125 225.015625 C 182.035156 225.195312 181.808594 225.332031 181.46875 225.535156 C 181.898438 225.578125 182.171875 225.578125 182.691406 225.625 C 182.285156 226.125 181.988281 226.441406 181.605469 226.914062 C 182.101562 226.871094 182.53125 226.824219 182.941406 226.800781 C 182.667969 227.027344 182.398438 227.253906 182.148438 227.457031 C 182.417969 227.707031 182.625 227.890625 182.851562 228.09375 C 182.304688 228.207031 181.875 228.320312 181.332031 228.433594 C 181.605469 229 181.832031 229.449219 182.058594 229.925781 C 181.832031 229.882812 181.582031 229.835938 181.308594 229.769531 C 181.265625 229.8125 181.242188 229.882812 181.195312 229.925781 C 181.46875 230.265625 181.742188 230.605469 182.035156 230.945312 C 181.761719 230.988281 181.535156 231.035156 181.175781 231.101562 C 181.492188 231.328125 181.695312 231.464844 181.808594 231.535156 C 181.648438 231.667969 181.515625 231.78125 181.445312 231.828125 C 182.058594 232.394531 182.53125 232.867188 183.054688 233.367188 C 182.304688 233.230469 181.71875 233.117188 181.152344 233.003906 C 181.128906 233.09375 181.082031 233.207031 181.0625 233.300781 C 181.605469 233.660156 182.171875 234.023438 182.851562 234.476562 C 182.214844 234.5 181.785156 234.523438 181.332031 234.542969 C 181.332031 234.613281 181.308594 234.679688 181.308594 234.746094 C 181.71875 234.882812 182.125 235.019531 182.601562 235.179688 C 182.148438 235.199219 181.761719 235.222656 181.378906 235.246094 C 181.378906 235.3125 181.355469 235.359375 181.355469 235.425781 C 181.96875 235.585938 182.554688 235.722656 183.324219 235.925781 C 182.851562 236.0625 182.578125 236.128906 182.058594 236.265625 C 182.894531 236.46875 183.484375 236.605469 183.980469 236.71875 C 183.167969 237.171875 182.398438 237.578125 181.535156 238.074219 C 182.511719 238.347656 183.324219 238.574219 184.003906 238.777344 C 184.140625 239.183594 184.253906 239.546875 184.367188 239.910156 C 184.117188 239.863281 183.847656 239.839844 183.597656 239.796875 C 183.550781 239.863281 183.527344 239.910156 183.484375 239.976562 C 183.867188 240.40625 184.253906 240.859375 184.683594 241.335938 C 184.390625 241.359375 184.140625 241.359375 183.867188 241.378906 C 184.957031 241.675781 184.660156 242.625 184.886719 243.328125 C 184.390625 243.257812 183.867188 243.191406 183.371094 243.144531 C 183.257812 243.304688 183.144531 243.484375 183.03125 243.644531 C 183.304688 243.757812 183.550781 243.914062 183.824219 243.960938 C 184.414062 244.097656 184.976562 244.140625 185.183594 244.890625 C 185.316406 245.410156 185.679688 245.863281 185.929688 246.359375 C 185.136719 246.226562 184.480469 246.113281 183.800781 246 C 183.777344 246.089844 183.753906 246.203125 183.710938 246.292969 C 184.480469 246.65625 185.25 247.015625 186.246094 247.46875 C 185.769531 247.425781 185.523438 247.402344 185.203125 247.355469 C 185.429688 247.628906 185.589844 247.808594 185.792969 248.058594 C 185.316406 247.921875 184.976562 247.808594 184.617188 247.695312 C 184.59375 247.765625 184.570312 247.832031 184.546875 247.878906 C 184.933594 248.105469 185.296875 248.351562 185.769531 248.648438 C 185.476562 248.691406 185.296875 248.714844 184.976562 248.761719 C 185.316406 249.191406 185.589844 249.550781 185.863281 249.914062 C 185.339844 250.027344 184.796875 250.140625 183.980469 250.324219 C 184.753906 251 185.410156 251.589844 186.066406 252.179688 C 185.976562 252.203125 185.816406 252.246094 185.273438 252.382812 C 186.765625 252.449219 185.386719 253.308594 186.089844 253.628906 C 185.863281 253.71875 185.65625 253.785156 185.386719 253.898438 C 185.726562 253.988281 185.953125 254.058594 186.222656 254.148438 C 186.066406 254.261719 185.953125 254.351562 185.75 254.488281 C 186.109375 254.53125 186.3125 254.554688 186.585938 254.578125 C 186.425781 254.738281 186.3125 254.871094 186.15625 255.03125 C 186.40625 255.144531 186.609375 255.234375 186.835938 255.371094 C 186.632812 255.484375 186.496094 255.550781 186.496094 255.574219 C 186.675781 255.914062 186.8125 256.207031 186.972656 256.523438 C 186.632812 256.660156 186.335938 256.75 186.066406 256.863281 C 186.449219 257.160156 186.835938 257.453125 187.265625 257.792969 C 186.949219 257.859375 186.765625 257.882812 186.539062 257.929688 C 186.789062 258.15625 186.972656 258.3125 187.21875 258.515625 C 186.972656 258.5625 186.789062 258.585938 186.585938 258.609375 C 186.835938 259.015625 187.039062 259.378906 187.265625 259.738281 C 187.015625 259.785156 186.789062 259.808594 186.496094 259.851562 C 186.765625 260.078125 186.949219 260.238281 187.152344 260.394531 C 186.949219 260.464844 186.789062 260.507812 186.722656 260.53125 C 186.949219 261.414062 187.152344 262.230469 187.355469 263.066406 C 187.175781 263.023438 186.972656 263 186.8125 262.953125 C 186.902344 263.363281 186.992188 263.722656 187.085938 264.085938 C 186.859375 264.152344 186.652344 264.199219 186.359375 264.265625 C 186.8125 264.582031 187.152344 264.832031 187.558594 265.128906 C 187.039062 265.308594 186.632812 265.445312 186.179688 265.601562 C 186.539062 265.804688 186.8125 265.964844 187.199219 266.191406 C 186.8125 266.234375 186.5625 266.257812 186.222656 266.304688 C 186.496094 266.460938 186.675781 266.574219 186.878906 266.6875 C 186.746094 266.847656 186.632812 266.984375 186.519531 267.140625 C 186.722656 267.277344 186.859375 267.367188 187.015625 267.480469 C 186.992188 267.527344 186.992188 267.59375 186.972656 267.640625 C 186.652344 267.617188 186.335938 267.59375 186.019531 267.59375 C 185.996094 267.664062 185.976562 267.707031 185.953125 267.777344 C 186.246094 267.910156 186.519531 268.070312 186.878906 268.226562 C 186.519531 268.339844 186.246094 268.410156 185.90625 268.5 C 186.042969 268.636719 186.089844 268.726562 186.15625 268.773438 C 186.925781 269.203125 187.0625 269.789062 186.675781 270.605469 C 186.585938 270.785156 186.835938 271.125 186.949219 271.488281 C 186.746094 271.601562 186.40625 271.828125 186.066406 272.03125 C 186.066406 272.097656 186.066406 272.167969 186.066406 272.210938 C 186.539062 272.210938 187.039062 272.210938 187.492188 272.210938 C 187.402344 272.4375 187.289062 272.734375 187.128906 273.09375 C 187.015625 273.09375 186.722656 273.117188 186.449219 273.140625 C 186.449219 273.207031 186.425781 273.253906 186.425781 273.300781 C 187.015625 273.433594 187.605469 273.570312 188.195312 273.730469 C 188.214844 273.773438 188.238281 273.84375 188.238281 273.886719 C 187.695312 274.070312 187.175781 274.25 186.632812 274.410156 C 186.652344 274.5 186.675781 274.589844 186.699219 274.679688 C 187.199219 274.613281 187.671875 274.523438 188.214844 274.429688 C 187.332031 275.222656 186.472656 275.992188 185.613281 276.761719 C 186.019531 276.785156 186.40625 276.808594 186.8125 276.851562 C 186.8125 276.921875 186.8125 276.988281 186.835938 277.058594 C 186.109375 277.101562 185.410156 277.171875 184.683594 277.214844 C 184.683594 277.285156 184.707031 277.351562 184.707031 277.417969 C 185.296875 277.375 185.882812 277.351562 186.496094 277.304688 C 186.519531 277.398438 186.539062 277.507812 186.539062 277.601562 C 185.613281 277.78125 184.707031 277.960938 183.777344 278.144531 C 183.753906 278.1875 183.753906 278.234375 183.734375 278.28125 C 184.707031 278.460938 185.65625 278.617188 186.632812 278.800781 C 186.632812 278.867188 186.632812 278.914062 186.632812 278.980469 C 186.269531 279.027344 185.90625 279.09375 185.523438 279.140625 C 185.613281 279.34375 185.703125 279.523438 185.75 279.59375 C 185.363281 279.796875 185.070312 279.976562 184.570312 280.25 C 185.160156 280.292969 185.476562 280.316406 185.816406 280.339844 C 185.816406 280.382812 185.816406 280.429688 185.839844 280.476562 C 185.523438 280.542969 185.203125 280.632812 184.796875 280.722656 C 185.023438 280.90625 185.226562 281.0625 185.636719 281.359375 C 184.84375 281.539062 184.253906 281.675781 183.4375 281.878906 C 184.164062 282.148438 184.753906 282.355469 185.429688 282.625 C 184.957031 282.761719 184.617188 282.851562 184.277344 282.941406 C 184.300781 283.011719 184.300781 283.054688 184.320312 283.125 C 184.683594 283.101562 185.046875 283.078125 185.339844 283.078125 C 185.339844 283.214844 185.339844 283.417969 185.339844 283.621094 C 184.886719 283.691406 184.34375 283.78125 183.621094 283.894531 C 184.027344 284.164062 184.300781 284.300781 184.527344 284.503906 C 184.730469 284.664062 184.867188 284.890625 185.023438 285.09375 C 184.976562 285.136719 184.910156 285.183594 184.867188 285.230469 C 184.457031 285.003906 184.074219 284.777344 183.574219 284.503906 C 183.597656 284.730469 183.597656 284.890625 183.597656 285.023438 C 182.941406 285.160156 182.328125 284.234375 181.558594 285.003906 C 182.148438 285.117188 182.554688 285.207031 182.984375 285.296875 C 182.984375 285.320312 182.984375 285.363281 182.984375 285.386719 C 182.714844 285.410156 182.417969 285.433594 181.96875 285.5 C 182.464844 285.773438 182.78125 285.953125 183.121094 286.15625 C 182.941406 286.246094 182.804688 286.339844 182.644531 286.40625 C 182.964844 286.519531 183.210938 286.632812 183.664062 286.8125 C 183.144531 286.835938 182.851562 286.859375 182.488281 286.859375 C 182.625 287.039062 182.714844 287.175781 182.851562 287.355469 C 182.488281 287.289062 182.238281 287.242188 182.011719 287.199219 C 182.261719 287.71875 182.488281 288.21875 182.714844 288.714844 C 182.261719 288.601562 181.785156 288.511719 181.332031 288.398438 C 181.308594 288.445312 181.289062 288.511719 181.265625 288.554688 C 181.832031 288.941406 182.398438 289.304688 182.964844 289.6875 C 182.941406 289.734375 182.917969 289.757812 182.894531 289.800781 C 182.53125 289.6875 182.191406 289.574219 181.832031 289.441406 C 181.808594 289.484375 181.785156 289.53125 181.761719 289.574219 C 182.058594 289.847656 182.375 290.140625 182.601562 290.34375 C 182.375 290.640625 182.171875 290.886719 181.96875 291.136719 C 182.261719 291.226562 182.53125 291.320312 183.007812 291.476562 C 182.578125 291.542969 182.375 291.566406 182.035156 291.636719 C 182.304688 291.882812 182.511719 292.042969 182.804688 292.3125 C 182.511719 292.3125 182.304688 292.3125 182.214844 292.3125 C 182.261719 292.652344 182.304688 292.972656 182.351562 293.308594 C 182.035156 293.242188 181.808594 293.199219 181.582031 293.152344 C 181.558594 293.199219 181.535156 293.242188 181.492188 293.289062 C 181.648438 293.378906 181.832031 293.492188 182.035156 293.628906 C 181.761719 293.695312 181.605469 293.742188 181.46875 293.785156 C 181.695312 294.011719 181.898438 294.191406 182.058594 294.328125 C 181.855469 294.601562 181.695312 294.804688 181.535156 295.007812 C 181.761719 295.097656 181.988281 295.210938 182.214844 295.257812 C 182.53125 295.324219 182.851562 295.300781 183.191406 295.324219 C 183.191406 295.394531 183.191406 295.460938 183.191406 295.527344 C 182.757812 295.640625 182.351562 295.734375 181.761719 295.890625 C 182.148438 296.140625 182.375 296.296875 182.714844 296.523438 C 182.351562 296.523438 182.078125 296.523438 181.648438 296.523438 C 182.035156 296.886719 182.375 297.089844 182.554688 297.40625 C 182.714844 297.632812 182.667969 297.996094 182.714844 298.3125 C 182.441406 298.109375 182.148438 297.90625 181.855469 297.703125 C 182.53125 299.171875 182.53125 299.875 181.875 300.101562 C 182.101562 300.78125 182.328125 301.460938 182.601562 302.296875 C 182.328125 301.980469 182.148438 301.800781 181.988281 301.59375 C 181.921875 301.617188 181.875 301.664062 181.808594 301.6875 C 181.988281 302.160156 182.148438 302.613281 182.328125 303.113281 C 182.238281 303.113281 182.101562 303.089844 181.945312 303.066406 C 182.035156 303.472656 182.125 303.859375 182.214844 304.289062 C 181.945312 304.222656 181.742188 304.175781 181.558594 304.109375 C 181.695312 304.492188 181.808594 304.832031 181.96875 305.308594 C 181.582031 305.128906 181.421875 305.035156 181.152344 304.902344 C 181.355469 305.671875 181.515625 306.304688 181.695312 307.007812 C 181.535156 306.894531 181.402344 306.824219 181.152344 306.667969 C 181.265625 306.984375 181.355469 307.210938 181.445312 307.457031 C 181.265625 307.457031 181.152344 307.457031 181.0625 307.457031 C 181.558594 309.042969 182.035156 310.582031 182.53125 312.121094 C 182.464844 312.144531 182.375 312.191406 182.304688 312.210938 C 182.058594 312.078125 181.832031 311.917969 181.515625 311.738281 C 181.582031 312.007812 181.605469 312.167969 181.695312 312.484375 C 181.308594 312.03125 181.039062 311.714844 180.628906 311.238281 C 180.742188 311.648438 180.789062 311.828125 180.835938 312.054688 C 180.628906 311.941406 180.496094 311.871094 180.199219 311.738281 C 180.472656 312.394531 180.652344 312.867188 180.925781 313.527344 C 180.585938 313.207031 180.40625 313.027344 180.222656 312.867188 C 180.3125 313.957031 180.382812 314.972656 180.472656 316.175781 C 180.132812 315.8125 179.929688 315.5625 179.703125 315.335938 C 179.679688 315.359375 179.632812 315.382812 179.613281 315.40625 C 180.5625 317.894531 181.492188 320.382812 182.511719 323.054688 C 182.078125 322.921875 181.921875 322.875 181.605469 322.761719 C 181.898438 323.710938 181.898438 324.707031 182.417969 325.25 C 183.414062 326.316406 183.847656 327.652344 184.617188 328.828125 C 184.660156 328.894531 184.660156 328.988281 184.683594 329.078125 C 184.527344 329.101562 184.390625 329.101562 184.34375 329.121094 C 184.503906 329.890625 184.660156 330.660156 184.820312 331.453125 C 184.503906 331.453125 184.253906 331.386719 184.207031 331.453125 C 183.121094 333.175781 181.515625 333.421875 179.65625 333.265625 C 178.390625 333.085938 177.144531 333.332031 175.898438 333.421875 Z M 175.898438 333.421875 " fill-opacity="1" fill-rule="nonzero"/></g></svg>