<svg xmlns="http://www.w3.org/2000/svg" xmlns:xlink="http://www.w3.org/1999/xlink" width="396" zoomAndPan="magnify" viewBox="0 0 297.12 419.249996" height="559" preserveAspectRatio="xMidYMid meet" version="1.0"><defs><g/><clipPath id="9d6927f8b8"><path d="M 0 0.246094 L 296.238281 0.246094 L 296.238281 417.367188 L 0 417.367188 Z M 0 0.246094 " clip-rule="nonzero"/></clipPath><clipPath id="8408770e4a"><path d="M 30.636719 45.234375 L 266.433594 45.234375 L 266.433594 380.753906 L 30.636719 380.753906 Z M 30.636719 45.234375 " clip-rule="nonzero"/></clipPath><clipPath id="5b5a8e8736"><path d="M 68 78.59375 L 74.253906 78.59375 L 74.253906 84.371094 L 68 84.371094 Z M 68 78.59375 " clip-rule="nonzero"/></clipPath><clipPath id="749979a3a1"><path d="M 71.335938 78.671875 C 73.574219 79.714844 74.171875 80.835938 74.171875 81.65625 C 74.097656 82.402344 73.425781 83.445312 72.828125 83.894531 C 72.15625 84.265625 70.886719 84.339844 70.21875 84.042969 C 69.472656 83.667969 68.722656 82.699219 68.574219 81.953125 C 68.5 81.207031 68.875 80.011719 69.472656 79.417969 C 69.992188 78.894531 71.1875 78.59375 71.933594 78.746094 C 72.679688 78.894531 73.648438 79.714844 73.949219 80.460938 C 74.246094 81.132812 74.171875 82.402344 73.648438 83.074219 C 73.128906 83.746094 71.558594 84.339844 70.664062 84.339844 C 69.992188 84.265625 69.246094 83.894531 68.875 83.445312 C 68.425781 83.074219 68.054688 82.253906 68.054688 81.65625 C 67.976562 80.984375 68.203125 80.238281 68.648438 79.714844 C 69.023438 79.265625 70.367188 78.671875 70.367188 78.671875 " clip-rule="nonzero"/></clipPath><clipPath id="0a711dbf32"><path d="M 73.109375 71 L 78.890625 71 L 78.890625 76.839844 L 73.109375 76.839844 Z M 73.109375 71 " clip-rule="nonzero"/></clipPath><clipPath id="a23fe394f5"><path d="M 73.203125 73.820312 C 75.066406 71.058594 76.335938 70.984375 77.007812 71.207031 C 77.753906 71.507812 78.574219 72.476562 78.722656 73.222656 C 78.871094 73.96875 78.574219 75.238281 78.050781 75.761719 C 77.453125 76.355469 76.335938 76.730469 75.515625 76.582031 C 74.769531 76.507812 73.796875 75.683594 73.425781 75.015625 C 73.128906 74.34375 73.203125 73.074219 73.574219 72.402344 C 74.023438 71.730469 75.140625 71.132812 75.8125 71.058594 C 76.410156 70.984375 77.082031 71.132812 77.53125 71.507812 C 78.125 71.953125 78.796875 73.074219 78.796875 73.820312 C 78.796875 74.640625 78.277344 75.683594 77.679688 76.207031 C 77.230469 76.65625 76.410156 76.804688 75.8125 76.804688 C 75.140625 76.730469 74.394531 76.355469 74.023438 75.910156 C 73.574219 75.460938 73.203125 74.117188 73.203125 74.117188 " clip-rule="nonzero"/></clipPath><clipPath id="9c506ab64a"><path d="M 61 69.582031 L 84.492188 69.582031 L 84.492188 116.609375 L 61 116.609375 Z M 61 69.582031 " clip-rule="nonzero"/></clipPath><clipPath id="1e1403ad1e"><path d="M 69.84375 88.894531 C 81.1875 70.238281 82.15625 69.640625 82.828125 69.863281 C 83.5 70.015625 84.246094 70.835938 84.320312 72.027344 C 84.46875 76.058594 73.277344 92.175781 69.917969 99.636719 C 67.828125 104.414062 66.039062 108.890625 65.441406 111.800781 C 65.066406 113.292969 65.664062 114.636719 65.144531 115.382812 C 64.769531 115.980469 63.949219 116.578125 63.351562 116.503906 C 62.753906 116.429688 61.933594 115.757812 61.636719 114.785156 C 60.664062 111.578125 65.589844 97.921875 66.335938 92.175781 C 66.785156 88.667969 65.738281 84.640625 66.710938 83.667969 C 67.308594 83.148438 68.351562 83.148438 69.023438 83.519531 C 70.140625 84.117188 71.933594 87.101562 72.007812 88.222656 C 72.007812 88.96875 71.558594 89.566406 71.039062 89.9375 C 70.589844 90.234375 69.695312 90.3125 69.171875 90.085938 C 68.648438 89.789062 67.976562 88.59375 67.976562 87.921875 C 67.976562 87.402344 68.574219 86.65625 69.097656 86.429688 C 69.695312 86.132812 70.964844 86.429688 71.484375 86.878906 C 71.859375 87.25 72.082031 88.148438 71.933594 88.667969 C 71.785156 89.191406 71.1875 89.9375 70.664062 90.085938 C 70.066406 90.3125 69.097656 90.011719 68.351562 89.414062 C 67.15625 88.445312 65.292969 85.386719 65.144531 83.746094 C 65.066406 82.550781 65.664062 81.058594 66.410156 80.609375 C 67.082031 80.238281 68.574219 80.3125 69.246094 80.910156 C 70.21875 81.804688 70.441406 84.265625 70.515625 87.101562 C 70.515625 92.996094 66.785156 111.652344 65.292969 114.933594 C 64.917969 115.757812 64.695312 116.128906 64.246094 116.277344 C 63.726562 116.503906 62.679688 116.351562 62.15625 115.980469 C 61.710938 115.53125 61.488281 114.785156 61.488281 113.742188 C 61.5625 110.90625 64.320312 103.890625 66.785156 97.996094 C 70.140625 90.011719 77.679688 73.222656 80.738281 70.613281 C 81.558594 69.863281 82.304688 69.640625 82.828125 69.863281 C 83.5 70.089844 84.320312 71.132812 84.320312 72.027344 C 84.246094 73.523438 81.632812 75.683594 80.140625 78.148438 C 78.050781 81.65625 75.515625 89.863281 73.351562 91.355469 C 72.382812 92.027344 71.039062 92.101562 70.441406 91.730469 C 69.84375 91.28125 69.84375 88.894531 69.84375 88.894531 " clip-rule="nonzero"/></clipPath><clipPath id="b4ff8f103a"><path d="M 70 73.660156 L 80 73.660156 L 80 99.289062 L 70 99.289062 Z M 70 73.660156 " clip-rule="nonzero"/></clipPath><clipPath id="13e9d33ec0"><path d="M 74.84375 75.761719 C 75.738281 86.355469 75.960938 95.011719 74.917969 97.472656 C 74.542969 98.445312 73.949219 99.117188 73.277344 99.191406 C 72.605469 99.265625 71.335938 98.742188 70.964844 97.847656 C 70.140625 95.980469 73.128906 90.085938 73.5 86.730469 C 73.796875 83.96875 72.828125 80.757812 73.425781 79.191406 C 73.796875 78.296875 74.46875 77.625 75.066406 77.402344 C 75.515625 77.253906 76.113281 77.328125 76.484375 77.550781 C 77.007812 77.847656 77.304688 78.296875 77.605469 79.191406 C 78.574219 81.878906 80.140625 94.191406 79.320312 96.726562 C 79.097656 97.550781 78.648438 97.996094 78.125 98.144531 C 77.457031 98.371094 76.1875 97.921875 75.738281 97.472656 C 75.367188 97.027344 75.214844 96.132812 75.441406 95.609375 C 75.738281 95.011719 76.859375 94.265625 77.53125 94.265625 C 78.125 94.265625 78.871094 94.714844 79.097656 95.234375 C 79.394531 95.832031 79.246094 97.175781 78.796875 97.699219 C 78.425781 98.144531 77.53125 98.445312 77.007812 98.296875 C 76.410156 98.070312 75.8125 97.472656 75.367188 96.429688 C 74.097656 93.742188 72.382812 81.878906 73.425781 79.191406 C 73.875 78.074219 74.84375 77.402344 75.515625 77.328125 C 76.113281 77.253906 76.859375 77.699219 77.230469 78.222656 C 77.753906 78.96875 77.828125 80.238281 77.828125 81.730469 C 77.902344 84.117188 77.457031 88.296875 76.785156 91.28125 C 76.1875 93.96875 75.441406 97.847656 74.171875 98.742188 C 73.5 99.265625 72.457031 99.265625 71.859375 98.964844 C 71.335938 98.667969 70.964844 98.070312 70.8125 97.175781 C 70.367188 95.308594 71.484375 91.207031 71.410156 87.921875 C 71.335938 84.117188 69.769531 77.925781 70.140625 75.835938 C 70.292969 75.089844 70.515625 74.714844 70.886719 74.34375 C 71.261719 73.96875 71.933594 73.746094 72.457031 73.671875 C 72.976562 73.671875 73.648438 73.894531 74.023438 74.269531 C 74.46875 74.640625 74.84375 75.761719 74.84375 75.761719 " clip-rule="nonzero"/></clipPath><clipPath id="13e024e347"><path d="M 69.417969 76.367188 L 85.8125 76.367188 L 85.8125 124.683594 L 69.417969 124.683594 Z M 69.417969 76.367188 " clip-rule="nonzero"/></clipPath><clipPath id="c1189b98c4"><path d="M 85.589844 79.566406 C 76.335938 110.085938 74.769531 120.308594 73.351562 122.996094 C 72.902344 123.816406 72.605469 124.1875 72.15625 124.410156 C 71.785156 124.5625 71.261719 124.636719 70.886719 124.410156 C 70.367188 124.1875 69.546875 123.144531 69.472656 122.546875 C 69.472656 122.023438 69.917969 121.203125 70.367188 120.90625 C 70.8125 120.605469 71.710938 120.53125 72.230469 120.753906 C 72.753906 121.054688 73.351562 122.25 73.425781 122.84375 C 73.425781 123.21875 73.203125 123.664062 72.828125 123.964844 C 72.457031 124.261719 71.632812 124.5625 71.113281 124.488281 C 70.664062 124.488281 70.292969 124.1875 69.992188 123.890625 C 69.695312 123.515625 69.546875 123.070312 69.546875 122.097656 C 69.472656 119.039062 72.230469 108.890625 74.023438 101.953125 C 76.039062 94.339844 79.46875 81.207031 81.035156 78.222656 C 81.410156 77.402344 81.632812 77.101562 82.082031 76.878906 C 82.527344 76.582031 83.199219 76.433594 83.722656 76.507812 C 84.320312 76.65625 85.214844 77.328125 85.515625 77.925781 C 85.738281 78.371094 85.589844 79.566406 85.589844 79.566406 " clip-rule="nonzero"/></clipPath><clipPath id="50c0679318"><path d="M 64.839844 79.382812 L 81.652344 79.382812 L 81.652344 110.988281 L 64.839844 110.988281 Z M 64.839844 79.382812 " clip-rule="nonzero"/></clipPath><clipPath id="24dcc10b54"><path d="M 81.261719 82.921875 C 68.425781 110.234375 68.351562 110.457031 67.902344 110.605469 C 67.457031 110.832031 66.484375 110.90625 65.964844 110.605469 C 65.515625 110.382812 64.917969 109.636719 64.917969 109.039062 C 64.84375 108.367188 65.589844 107.175781 66.1875 106.875 C 66.636719 106.652344 67.605469 106.726562 68.054688 107.101562 C 68.574219 107.472656 69.023438 108.816406 68.875 109.414062 C 68.800781 109.859375 68.5 110.234375 68.128906 110.457031 C 67.679688 110.757812 66.710938 110.832031 66.1875 110.683594 C 65.738281 110.605469 65.367188 110.234375 65.21875 109.859375 C 64.917969 109.414062 64.917969 108.890625 65.066406 107.921875 C 65.738281 104.117188 74.695312 84.042969 76.785156 80.910156 C 77.304688 80.164062 77.53125 79.9375 78.050781 79.714844 C 78.574219 79.492188 79.246094 79.417969 79.769531 79.640625 C 80.367188 79.863281 81.1875 80.609375 81.410156 81.207031 C 81.632812 81.730469 81.261719 83 81.261719 83 " clip-rule="nonzero"/></clipPath><clipPath id="ffcc61f422"><path d="M 64 77.242188 L 72.652344 77.242188 L 72.652344 98.554688 L 64 98.554688 Z M 64 77.242188 " clip-rule="nonzero"/></clipPath><clipPath id="74e1c07a22"><path d="M 72.605469 80.460938 C 67.605469 98.070312 67.308594 98.21875 66.933594 98.371094 C 66.335938 98.519531 65.367188 98.445312 64.917969 98.070312 C 64.398438 97.625 63.949219 96.28125 64.171875 95.609375 C 64.398438 95.011719 65.664062 94.265625 66.335938 94.265625 C 66.933594 94.265625 67.753906 94.789062 67.976562 95.308594 C 68.277344 95.90625 68.128906 97.324219 67.679688 97.847656 C 67.308594 98.296875 66.335938 98.519531 65.738281 98.445312 C 65.292969 98.371094 64.84375 98.144531 64.621094 97.773438 C 64.246094 97.324219 64.097656 96.804688 64.097656 95.832031 C 64.097656 93.070312 66.710938 81.730469 67.753906 79.265625 C 68.128906 78.445312 68.277344 78.074219 68.800781 77.773438 C 69.246094 77.476562 69.917969 77.253906 70.515625 77.328125 C 71.039062 77.402344 71.710938 77.699219 72.082031 78.148438 C 72.457031 78.671875 72.605469 80.460938 72.605469 80.460938 " clip-rule="nonzero"/></clipPath><clipPath id="600364cc6e"><path d="M 185.378906 338.519531 L 205.855469 338.519531 L 205.855469 353.835938 L 185.378906 353.835938 Z M 185.378906 338.519531 " clip-rule="nonzero"/></clipPath><clipPath id="7e0202c5b0"><path d="M 186.625 349.089844 C 203.785156 338.570312 204.085938 338.644531 204.457031 338.867188 C 204.980469 339.09375 205.652344 339.765625 205.726562 340.359375 C 205.800781 341.03125 205.203125 342.375 204.605469 342.675781 C 204.011719 342.972656 202.59375 342.675781 202.144531 342.226562 C 201.695312 341.851562 201.398438 340.882812 201.621094 340.359375 C 201.769531 339.6875 202.890625 338.792969 203.5625 338.71875 C 204.160156 338.644531 204.980469 339.167969 205.351562 339.539062 C 205.652344 339.914062 205.800781 340.359375 205.800781 340.808594 C 205.726562 341.40625 205.503906 341.851562 204.832031 342.597656 C 202.816406 344.839844 191.996094 352.152344 189.382812 353.269531 C 188.5625 353.644531 188.191406 353.792969 187.667969 353.644531 C 186.996094 353.570312 186.101562 352.898438 185.726562 352.300781 C 185.429688 351.777344 185.429688 351.105469 185.578125 350.507812 C 185.726562 349.988281 186.625 349.089844 186.625 349.089844 " clip-rule="nonzero"/></clipPath><clipPath id="200e8c4787"><path d="M 199.597656 336.675781 L 205.546875 336.675781 L 205.546875 342.535156 L 199.597656 342.535156 Z M 199.597656 336.675781 " clip-rule="nonzero"/></clipPath><clipPath id="595b775c1c"><path d="M 200.949219 337.300781 C 204.308594 337.226562 205.128906 338.121094 205.351562 338.867188 C 205.503906 339.613281 205.203125 340.882812 204.679688 341.40625 C 204.160156 342.003906 202.964844 342.449219 202.21875 342.300781 C 201.472656 342.226562 200.429688 341.480469 200.128906 340.808594 C 199.757812 340.136719 199.832031 338.867188 200.203125 338.195312 C 200.578125 337.527344 201.621094 336.855469 202.367188 336.777344 C 203.1875 336.703125 204.308594 337.300781 204.757812 337.824219 C 205.203125 338.273438 205.425781 338.867188 205.425781 339.464844 C 205.351562 340.210938 204.832031 341.332031 204.234375 341.851562 C 203.710938 342.300781 202.964844 342.523438 202.367188 342.523438 C 201.769531 342.523438 200.949219 342.226562 200.503906 341.777344 C 199.980469 341.257812 199.605469 340.0625 199.605469 339.316406 C 199.683594 338.644531 200.578125 337.527344 200.578125 337.527344 " clip-rule="nonzero"/></clipPath><clipPath id="02418e859f"><path d="M 228.484375 315 L 236.851562 315 L 236.851562 320.914062 L 228.484375 320.914062 Z M 228.484375 315 " clip-rule="nonzero"/></clipPath><clipPath id="1a7621b51e"><path d="M 233.632812 320.886719 C 229.378906 319.765625 228.785156 318.796875 228.632812 318.125 C 228.484375 317.527344 228.632812 316.855469 228.933594 316.332031 C 229.230469 315.886719 229.679688 315.363281 230.277344 315.214844 C 230.949219 314.992188 232.214844 314.992188 232.8125 315.4375 C 233.484375 315.8125 234.082031 316.929688 234.082031 317.675781 C 234.082031 318.421875 233.484375 319.542969 232.960938 319.988281 C 232.515625 320.363281 231.769531 320.511719 231.246094 320.511719 C 230.722656 320.4375 230.050781 320.289062 229.605469 319.839844 C 229.082031 319.394531 228.558594 318.273438 228.558594 317.527344 C 228.632812 316.707031 229.230469 315.738281 229.976562 315.363281 C 230.949219 314.765625 233.335938 315.066406 234.453125 315.363281 C 235.125 315.585938 235.722656 315.8125 236.171875 316.332031 C 236.542969 316.929688 236.84375 318.125 236.691406 318.871094 C 236.542969 319.46875 236.023438 320.066406 235.574219 320.4375 C 235.050781 320.734375 233.632812 320.886719 233.632812 320.886719 " clip-rule="nonzero"/></clipPath><clipPath id="3aaf77c51f"><path d="M 14.5625 45.058594 L 50.378906 45.058594 L 50.378906 80.875 L 14.5625 80.875 Z M 14.5625 45.058594 " clip-rule="nonzero"/></clipPath><clipPath id="0a4b59329a"><path d="M 248.433594 344.933594 L 284.25 344.933594 L 284.25 380.410156 L 248.433594 380.410156 Z M 248.433594 344.933594 " clip-rule="nonzero"/></clipPath><clipPath id="00bfa833ad"><path d="M 253.804688 45.265625 L 279.175781 45.265625 L 279.175781 70.636719 L 253.804688 70.636719 Z M 253.804688 45.265625 " clip-rule="nonzero"/></clipPath><clipPath id="45bec7615d"><path d="M 19.933594 355.667969 L 45.304688 355.667969 L 45.304688 380.992188 L 19.933594 380.992188 Z M 19.933594 355.667969 " clip-rule="nonzero"/></clipPath><clipPath id="8e69ae037a"><path d="M 40 130 L 256.90625 130 L 256.90625 288 L 40 288 Z M 40 130 " clip-rule="nonzero"/></clipPath><clipPath id="193459b978"><path d="M 110.105469 135 L 195.878906 135 L 195.878906 160 L 110.105469 160 Z M 110.105469 135 " clip-rule="nonzero"/></clipPath><clipPath id="976a109c7e"><path d="M 111.257812 144.632812 C 139.316406 135.007812 141.402344 134.859375 143.566406 135.15625 C 145.285156 135.382812 146.253906 135.902344 148.195312 136.800781 C 151.925781 138.441406 159.238281 143.441406 163.417969 145.304688 C 166.253906 146.5 167.894531 146.796875 170.730469 147.542969 C 174.683594 148.515625 180.804688 148.960938 185.132812 150.082031 C 188.710938 150.976562 193.265625 152.097656 194.832031 153.214844 C 195.503906 153.738281 195.800781 154.183594 195.875 154.78125 C 195.875 155.378906 195.578125 156.125 194.832031 156.722656 C 192.890625 158.140625 183.117188 160.453125 181.027344 159.558594 C 180.132812 159.183594 179.609375 158.066406 179.683594 157.46875 C 179.757812 156.945312 180.726562 156.273438 181.25 156.199219 C 181.699219 156.199219 182.371094 156.5 182.667969 156.871094 C 182.96875 157.246094 183.117188 158.066406 182.890625 158.4375 C 182.59375 158.960938 181.25 159.632812 180.652344 159.410156 C 180.207031 159.257812 179.609375 158.214844 179.683594 157.691406 C 179.683594 157.246094 179.980469 156.796875 180.578125 156.421875 C 182.445312 155.15625 192.964844 152.617188 194.832031 153.214844 C 195.429688 153.4375 195.578125 153.886719 195.726562 154.261719 C 195.875 154.78125 195.875 155.675781 195.503906 156.125 C 195.054688 156.648438 194.011719 156.871094 192.816406 156.871094 C 190.800781 156.945312 187.667969 155.230469 184.460938 154.484375 C 180.355469 153.589844 174.460938 153.140625 170.132812 152.097656 C 166.550781 151.199219 163.789062 150.304688 160.433594 148.8125 C 156.328125 146.945312 150.957031 143.066406 147.671875 141.574219 C 145.730469 140.605469 144.464844 140.007812 142.820312 139.710938 C 141.328125 139.410156 140.210938 139.335938 138.269531 139.710938 C 134.390625 140.378906 126.480469 144.113281 121.777344 145.53125 C 118.199219 146.574219 114.242188 148.140625 112.378906 147.84375 C 111.40625 147.769531 110.585938 147.246094 110.363281 146.722656 C 110.214844 146.199219 111.257812 144.632812 111.257812 144.632812 " clip-rule="nonzero"/></clipPath><clipPath id="8cae5627c4"><path d="M 141.234375 138.296875 L 162 138.296875 L 162 161.964844 L 141.234375 161.964844 Z M 141.234375 138.296875 " clip-rule="nonzero"/></clipPath><clipPath id="620f22c2a4"><path d="M 141.402344 145.007812 C 141.328125 139.859375 141.851562 139.113281 142.671875 138.8125 C 143.867188 138.367188 146.402344 138.886719 147.894531 139.410156 C 149.164062 139.859375 149.984375 140.378906 151.253906 141.425781 C 153.417969 143.214844 157.371094 146.945312 159.015625 150.230469 C 160.65625 153.289062 161.925781 158.585938 161.402344 160.378906 C 161.179688 161.199219 160.507812 161.722656 159.910156 161.796875 C 159.386719 161.871094 158.34375 161.273438 158.195312 160.828125 C 157.96875 160.230469 158.640625 158.886719 159.164062 158.585938 C 159.535156 158.363281 160.355469 158.511719 160.730469 158.8125 C 161.105469 159.035156 161.402344 159.78125 161.402344 160.230469 C 161.402344 160.675781 161.027344 161.347656 160.582031 161.574219 C 160.132812 161.796875 159.238281 161.871094 158.566406 161.421875 C 157.074219 160.230469 156.402344 153.4375 154.460938 150.378906 C 152.746094 147.617188 150.058594 144.707031 148.121094 143.664062 C 146.925781 142.992188 145.285156 142.617188 144.761719 143.066406 C 144.3125 143.441406 145.058594 145.007812 144.761719 145.605469 C 144.464844 146.050781 143.941406 146.5 143.492188 146.648438 C 142.972656 146.722656 142.300781 146.425781 141.925781 146.125 C 141.628906 145.902344 141.402344 145.007812 141.402344 145.007812 " clip-rule="nonzero"/></clipPath><clipPath id="b1ea2ef346"><path d="M 53.277344 149 L 65.398438 149 L 65.398438 170.648438 L 53.277344 170.648438 Z M 53.277344 149 " clip-rule="nonzero"/></clipPath><clipPath id="94904e208f"><path d="M 60.589844 154.558594 C 60.441406 157.839844 59.472656 159.335938 58.726562 159.484375 C 58.054688 159.707031 56.859375 159.257812 56.414062 158.664062 C 55.816406 157.691406 56.039062 155.15625 56.414062 153.886719 C 56.710938 152.917969 57.308594 152.320312 58.054688 151.574219 C 59.097656 150.679688 61.335938 149.484375 62.457031 149.1875 C 63.128906 148.960938 63.574219 148.960938 64.023438 149.109375 C 64.472656 149.335938 65.144531 150.007812 65.21875 150.527344 C 65.367188 151.050781 65.21875 151.722656 64.84375 152.320312 C 64.097656 153.363281 61.261719 153.738281 60.144531 155.230469 C 58.800781 157.09375 59.171875 162.167969 58.054688 163.140625 C 57.53125 163.585938 56.710938 163.660156 56.1875 163.4375 C 55.589844 163.140625 55.070312 162.320312 54.84375 161.496094 C 54.546875 160.675781 54.695312 159.484375 54.921875 158.363281 C 55.21875 156.722656 55.816406 154.410156 56.859375 152.917969 C 57.90625 151.5 59.917969 149.933594 61.1875 149.410156 C 62.082031 149.109375 63.054688 149.035156 63.652344 149.261719 C 64.171875 149.410156 64.621094 149.78125 64.84375 150.230469 C 65.066406 150.828125 65.066406 151.871094 64.621094 152.617188 C 63.800781 153.8125 60.292969 154.335938 59.171875 155.753906 C 58.128906 157.09375 58.652344 159.929688 57.753906 160.675781 C 57.160156 161.125 55.964844 161.199219 55.367188 160.828125 C 54.769531 160.453125 54.398438 159.035156 54.472656 158.214844 C 54.621094 157.320312 55.515625 155.828125 56.261719 155.601562 C 57.007812 155.378906 58.277344 155.753906 58.800781 156.574219 C 59.84375 158.363281 58.054688 167.019531 57.082031 169.035156 C 56.636719 169.855469 56.113281 170.378906 55.589844 170.527344 C 55.144531 170.601562 54.472656 170.304688 54.171875 169.929688 C 53.800781 169.632812 53.652344 168.886719 53.800781 168.4375 C 53.875 167.988281 54.398438 167.394531 54.84375 167.242188 C 55.21875 167.09375 55.964844 167.167969 56.335938 167.46875 C 56.785156 167.765625 57.082031 168.4375 57.082031 168.886719 C 57.082031 169.332031 56.710938 170.003906 56.261719 170.226562 C 55.890625 170.527344 55.144531 170.527344 54.695312 170.378906 C 54.324219 170.152344 53.949219 169.78125 53.726562 169.109375 C 53.277344 167.691406 53.652344 162.839844 54.324219 161.125 C 54.695312 160.15625 55.21875 159.335938 55.964844 159.109375 C 56.636719 158.886719 58.277344 159.484375 58.351562 159.855469 C 58.425781 160.15625 57.457031 160.976562 56.859375 161.125 C 56.261719 161.199219 55.070312 160.828125 54.695312 160.15625 C 54.023438 159.183594 54.621094 156.050781 54.996094 154.632812 C 55.292969 153.664062 55.589844 152.917969 56.113281 152.320312 C 56.636719 151.648438 57.234375 151.199219 58.128906 150.753906 C 59.398438 150.15625 61.933594 148.960938 63.203125 149.1875 C 64.023438 149.335938 64.769531 150.082031 64.992188 150.679688 C 65.21875 151.273438 64.992188 152.171875 64.621094 152.617188 C 64.097656 153.140625 62.753906 153.066406 62.007812 153.589844 C 61.410156 153.960938 60.890625 154.410156 60.441406 155.230469 C 59.621094 156.722656 59.695312 161.125 58.726562 162.394531 C 58.128906 163.140625 57.308594 163.660156 56.636719 163.511719 C 55.964844 163.4375 55.144531 162.542969 54.84375 161.574219 C 54.398438 159.78125 55.515625 155.082031 56.710938 153.066406 C 57.605469 151.574219 59.023438 150.453125 60.292969 149.855469 C 61.410156 149.261719 63.128906 148.8125 64.023438 149.109375 C 64.621094 149.335938 65.144531 150.007812 65.21875 150.527344 C 65.367188 151.050781 65.292969 151.648438 64.84375 152.320312 C 63.800781 153.8125 57.980469 158.140625 56.933594 157.542969 C 56.113281 157.09375 56.488281 153.589844 57.160156 152.46875 C 57.605469 151.648438 58.875 151.125 59.621094 150.976562 C 60.21875 150.902344 60.964844 151.050781 61.335938 151.425781 C 61.785156 151.796875 62.234375 152.691406 62.082031 153.214844 C 61.933594 153.8125 60.589844 154.558594 60.589844 154.558594 " clip-rule="nonzero"/></clipPath><clipPath id="2ffb4d5711"><path d="M 40.117188 166.621094 L 51.742188 166.621094 L 51.742188 173.910156 L 40.117188 173.910156 Z M 40.117188 166.621094 " clip-rule="nonzero"/></clipPath><clipPath id="8786c77bd0"><path d="M 43.949219 170.75 C 40.964844 170.003906 40.890625 168.289062 41.339844 167.765625 C 41.785156 167.242188 43.054688 167.316406 44.101562 167.46875 C 45.816406 167.617188 49.546875 168.660156 50.367188 169.707031 C 50.742188 170.226562 50.742188 171.050781 50.515625 171.496094 C 50.367188 172.019531 49.847656 172.542969 49.101562 172.765625 C 47.683594 173.136719 43.28125 172.390625 41.863281 171.421875 C 41.039062 170.898438 40.445312 169.78125 40.519531 169.109375 C 40.59375 168.511719 41.339844 167.765625 42.160156 167.46875 C 43.578125 167.019531 47.085938 167.839844 48.652344 168.4375 C 49.621094 168.886719 50.515625 169.40625 50.816406 170.078125 C 51.039062 170.601562 50.890625 171.421875 50.59375 171.945312 C 50.292969 172.390625 49.769531 172.691406 48.949219 172.839844 C 47.457031 173.0625 43.355469 172.242188 41.9375 171.273438 C 41.039062 170.675781 40.21875 169.632812 40.292969 168.886719 C 40.371094 168.140625 41.414062 167.09375 42.457031 166.945312 C 44.398438 166.722656 50.667969 169.929688 51.414062 171.273438 C 51.710938 171.796875 51.488281 172.46875 51.261719 172.839844 C 51.039062 173.214844 50.367188 173.660156 49.847656 173.585938 C 49.324219 173.511719 48.277344 172.46875 48.203125 171.871094 C 48.128906 171.421875 48.578125 170.75 48.949219 170.527344 C 49.324219 170.304688 50.144531 170.226562 50.515625 170.378906 C 50.964844 170.601562 51.488281 171.199219 51.488281 171.644531 C 51.5625 172.167969 51.1875 173.136719 50.59375 173.4375 C 49.769531 173.886719 48.128906 173.511719 46.785156 173.214844 C 45.144531 172.839844 42.457031 172.019531 41.414062 171.050781 C 40.742188 170.453125 40.144531 169.558594 40.292969 168.886719 C 40.445312 168.140625 41.414062 167.167969 42.457031 166.945312 C 44.324219 166.648438 49.996094 168.8125 50.816406 170.078125 C 51.1875 170.601562 50.890625 171.421875 50.59375 171.945312 C 50.367188 172.316406 50.070312 172.617188 49.472656 172.765625 C 48.054688 173.0625 43.28125 172.46875 41.863281 171.421875 C 41.039062 170.898438 40.371094 169.78125 40.519531 169.109375 C 40.667969 168.4375 41.636719 167.691406 42.683594 167.46875 C 44.25 167.09375 48.429688 167.988281 49.621094 169.035156 C 50.367188 169.632812 50.742188 170.898438 50.515625 171.496094 C 50.367188 172.09375 49.546875 172.691406 48.652344 172.839844 C 47.085938 173.0625 41.710938 171.199219 41.785156 170.75 C 41.785156 170.527344 44.472656 170.378906 44.472656 170.378906 C 44.472656 170.378906 42.382812 171.199219 41.785156 170.824219 C 41.265625 170.453125 40.742188 168.8125 41.039062 168.214844 C 41.339844 167.617188 42.832031 166.945312 43.578125 167.09375 C 44.398438 167.167969 45.519531 168.289062 45.742188 168.886719 C 45.816406 169.257812 45.667969 169.78125 45.367188 170.078125 C 45.070312 170.378906 43.949219 170.75 43.949219 170.75 " clip-rule="nonzero"/></clipPath></defs><g clip-path="url(#9d6927f8b8)"><path fill="#ffffff" d="M 0 0.246094 L 296.238281 0.246094 L 296.238281 417.367188 L 0 417.367188 Z M 0 0.246094 " fill-opacity="1" fill-rule="nonzero"/><path fill="#ffffff" d="M 0 0.246094 L 296.238281 0.246094 L 296.238281 417.367188 L 0 417.367188 Z M 0 0.246094 " fill-opacity="1" fill-rule="nonzero"/></g><g fill="#010101" fill-opacity="1"><g transform="translate(277.20821, 387.070532)"><g><path d="M -1.875 0 L -1.875 1.765625 L -5.03125 1.765625 L -5.03125 22.984375 L -1.875 22.984375 L -1.875 24.765625 L -11.546875 24.765625 L -11.546875 22.984375 L -8.390625 22.984375 L -8.390625 13.625 L -19.0625 22.984375 L -16.375 22.984375 L -16.375 24.765625 L -24.59375 24.765625 L -24.59375 22.984375 L -21.8125 22.984375 L -11.171875 13.65625 L -23.078125 1.765625 L -25.890625 1.765625 L -25.890625 0 L -20.140625 0 L -8.390625 11.765625 L -8.390625 1.765625 L -11.546875 1.765625 L -11.546875 0 Z M -1.875 0 "/></g></g></g><g fill="#010101" fill-opacity="1"><g transform="translate(38.105568, 386.622778)"><g><path d="M -1.3125 0 L -1.3125 1.234375 L -3.515625 1.234375 L -3.515625 16.0625 L -1.3125 16.0625 L -1.3125 17.296875 L -8.0625 17.296875 L -8.0625 16.0625 L -5.859375 16.0625 L -5.859375 9.515625 L -13.3125 16.0625 L -11.4375 16.0625 L -11.4375 17.296875 L -17.1875 17.296875 L -17.1875 16.0625 L -15.234375 16.0625 L -7.8125 9.53125 L -16.125 1.234375 L -18.09375 1.234375 L -18.09375 0 L -14.0625 0 L -5.859375 8.21875 L -5.859375 1.234375 L -8.0625 1.234375 L -8.0625 0 Z M -1.3125 0 "/></g></g></g><g fill="#010101" fill-opacity="1"><g transform="translate(259.037789, 39.367161)"><g><path d="M 1.3125 0 L 1.3125 -1.234375 L 3.515625 -1.234375 L 3.515625 -16.0625 L 1.3125 -16.0625 L 1.3125 -17.296875 L 8.0625 -17.296875 L 8.0625 -16.0625 L 5.859375 -16.0625 L 5.859375 -9.515625 L 13.3125 -16.0625 L 11.4375 -16.0625 L 11.4375 -17.296875 L 17.1875 -17.296875 L 17.1875 -16.0625 L 15.234375 -16.0625 L 7.8125 -9.53125 L 16.125 -1.234375 L 18.09375 -1.234375 L 18.09375 0 L 14.0625 0 L 5.859375 -8.21875 L 5.859375 -1.234375 L 8.0625 -1.234375 L 8.0625 0 Z M 1.3125 0 "/></g></g></g><g fill="#010101" fill-opacity="1"><g transform="translate(19.933967, 37.945548)"><g><path d="M 1.875 0 L 1.875 -1.75 L 5.015625 -1.75 L 5.015625 -22.984375 L 1.875 -22.984375 L 1.875 -24.75 L 11.53125 -24.75 L 11.53125 -22.984375 L 8.390625 -22.984375 L 8.390625 -13.609375 L 19.046875 -22.984375 L 16.359375 -22.984375 L 16.359375 -24.75 L 24.59375 -24.75 L 24.59375 -22.984375 L 21.796875 -22.984375 L 11.171875 -13.640625 L 23.0625 -1.75 L 25.875 -1.75 L 25.875 0 L 20.125 0 L 8.390625 -11.75 L 8.390625 -1.75 L 11.53125 -1.75 L 11.53125 0 Z M 1.875 0 "/></g></g></g><g clip-path="url(#8408770e4a)"><path stroke-linecap="butt" transform="matrix(0.746195, 0, 0, 0.746195, 30.637603, 45.234822)" fill="none" stroke-linejoin="miter" d="M -0.00118541 -0.000598774 L 316.102365 -0.000598774 L 316.102365 449.63974 L -0.00118541 449.63974 Z M -0.00118541 -0.000598774 " stroke="#000000" stroke-width="6" stroke-opacity="1" stroke-miterlimit="4"/></g><g clip-path="url(#5b5a8e8736)"><g clip-path="url(#749979a3a1)"><path fill="#ffffff" d="M 65.066406 75.683594 L 77.210938 75.683594 L 77.210938 87.324219 L 65.066406 87.324219 Z M 65.066406 75.683594 " fill-opacity="1" fill-rule="nonzero"/></g></g><g clip-path="url(#0a711dbf32)"><g clip-path="url(#a23fe394f5)"><path fill="#ffffff" d="M 70.21875 68.074219 L 81.78125 68.074219 L 81.78125 79.777344 L 70.21875 79.777344 Z M 70.21875 68.074219 " fill-opacity="1" fill-rule="nonzero"/></g></g><g clip-path="url(#9c506ab64a)"><g clip-path="url(#1e1403ad1e)"><path fill="#ffffff" d="M 58.5 66.878906 L 87.304688 66.878906 L 87.304688 119.535156 L 58.5 119.535156 Z M 58.5 66.878906 " fill-opacity="1" fill-rule="nonzero"/></g></g><g clip-path="url(#b4ff8f103a)"><g clip-path="url(#13e9d33ec0)"><path fill="#ffffff" d="M 67.15625 70.6875 L 82.378906 70.6875 L 82.378906 102.199219 L 67.15625 102.199219 Z M 67.15625 70.6875 " fill-opacity="1" fill-rule="nonzero"/></g></g><g clip-path="url(#13e024e347)"><g clip-path="url(#c1189b98c4)"><path fill="#ffffff" d="M 66.484375 73.523438 L 88.574219 73.523438 L 88.574219 127.445312 L 66.484375 127.445312 Z M 66.484375 73.523438 " fill-opacity="1" fill-rule="nonzero"/></g></g><g clip-path="url(#50c0679318)"><g clip-path="url(#24dcc10b54)"><path fill="#ffffff" d="M 61.933594 76.65625 L 84.46875 76.65625 L 84.46875 113.714844 L 61.933594 113.714844 Z M 61.933594 76.65625 " fill-opacity="1" fill-rule="nonzero"/></g></g><g clip-path="url(#ffcc61f422)"><g clip-path="url(#74e1c07a22)"><path fill="#ffffff" d="M 61.113281 74.34375 L 75.664062 74.34375 L 75.664062 101.453125 L 61.113281 101.453125 Z M 61.113281 74.34375 " fill-opacity="1" fill-rule="nonzero"/></g></g><g clip-path="url(#600364cc6e)"><g clip-path="url(#7e0202c5b0)"><path fill="#ffffff" d="M 182.59375 335.734375 L 208.886719 335.734375 L 208.886719 356.703125 L 182.59375 356.703125 Z M 182.59375 335.734375 " fill-opacity="1" fill-rule="nonzero"/></g></g><g clip-path="url(#200e8c4787)"><g clip-path="url(#595b775c1c)"><path fill="#ffffff" d="M 196.621094 333.792969 L 208.429688 333.792969 L 208.429688 345.507812 L 196.621094 345.507812 Z M 196.621094 333.792969 " fill-opacity="1" fill-rule="nonzero"/></g></g><g clip-path="url(#02418e859f)"><g clip-path="url(#1a7621b51e)"><path fill="#ffffff" d="M 225.574219 312.230469 L 239.671875 312.230469 L 239.671875 323.871094 L 225.574219 323.871094 Z M 225.574219 312.230469 " fill-opacity="1" fill-rule="nonzero"/></g></g><g clip-path="url(#3aaf77c51f)"><path fill="#000000" d="M 32.46875 45.058594 C 28.234375 45.058594 24.796875 48.667969 24.796875 53.117188 C 24.832031 55.914062 26.277344 58.28125 27.78125 60.53125 C 26.105469 59.261719 24.242188 58.496094 22.238281 58.488281 C 18 58.488281 14.5625 62.097656 14.5625 66.546875 C 14.5625 70.996094 18 74.605469 22.238281 74.605469 C 25.667969 74.550781 28.414062 72.148438 31.109375 70.128906 C 30.628906 76.160156 29.644531 79.542969 23.941406 80.875 L 41 80.875 C 35.292969 79.542969 34.3125 76.160156 33.828125 70.128906 C 36.496094 72.414062 39.292969 74.351562 42.703125 74.605469 C 46.941406 74.605469 50.378906 70.996094 50.378906 66.546875 C 50.378906 62.097656 46.941406 58.488281 42.703125 58.488281 C 40.648438 58.488281 38.871094 59.433594 37.160156 60.53125 C 38.863281 58.304688 39.980469 55.902344 40.144531 53.117188 C 40.144531 48.667969 36.707031 45.058594 32.46875 45.058594 Z M 32.46875 45.058594 " fill-opacity="1" fill-rule="nonzero"/></g><g clip-path="url(#0a4b59329a)"><path fill="#000000" d="M 266.339844 380.75 C 262.105469 380.75 258.664062 377.140625 258.664062 372.691406 C 258.703125 369.890625 260.148438 367.523438 261.648438 365.273438 C 259.972656 366.542969 258.113281 367.308594 256.105469 367.316406 C 251.871094 367.316406 248.433594 363.707031 248.433594 359.257812 C 248.433594 354.808594 251.871094 351.199219 256.105469 351.199219 C 259.539062 351.257812 262.285156 353.660156 264.980469 355.675781 C 264.5 349.648438 263.515625 346.261719 257.8125 344.933594 L 274.867188 344.933594 C 269.164062 346.261719 268.183594 349.648438 267.699219 355.675781 C 270.367188 353.390625 273.164062 351.453125 276.574219 351.199219 C 280.8125 351.199219 284.25 354.808594 284.25 359.257812 C 284.25 363.707031 280.8125 367.316406 276.574219 367.316406 C 274.519531 367.316406 272.742188 366.371094 271.03125 365.273438 C 272.734375 367.503906 273.851562 369.90625 274.015625 372.691406 C 274.015625 377.140625 270.578125 380.75 266.339844 380.75 Z M 266.339844 380.75 " fill-opacity="1" fill-rule="nonzero"/></g><g clip-path="url(#00bfa833ad)"><path fill="#000000" d="M 266.488281 45.265625 C 263.488281 45.265625 261.054688 47.820312 261.054688 50.972656 C 261.078125 52.957031 262.101562 54.632812 263.167969 56.226562 C 261.980469 55.328125 260.660156 54.785156 259.242188 54.777344 C 256.238281 54.777344 253.804688 57.335938 253.804688 60.488281 C 253.804688 63.636719 256.238281 66.195312 259.242188 66.195312 C 261.671875 66.15625 263.617188 64.453125 265.527344 63.023438 C 265.183594 67.292969 264.488281 69.691406 260.449219 70.636719 L 272.53125 70.636719 C 268.488281 69.691406 267.792969 67.292969 267.453125 63.023438 C 269.339844 64.644531 271.320312 66.015625 273.738281 66.195312 C 276.738281 66.195312 279.175781 63.636719 279.175781 60.488281 C 279.175781 57.335938 276.738281 54.777344 273.738281 54.777344 C 272.28125 54.777344 271.023438 55.449219 269.8125 56.226562 C 271.015625 54.648438 271.8125 52.945312 271.925781 50.972656 C 271.925781 47.820312 269.492188 45.265625 266.488281 45.265625 Z M 266.488281 45.265625 " fill-opacity="1" fill-rule="nonzero"/></g><g clip-path="url(#45bec7615d)"><path fill="#000000" d="M 32.621094 381.039062 C 29.617188 381.039062 27.183594 378.480469 27.183594 375.328125 C 27.207031 373.347656 28.230469 371.671875 29.296875 370.078125 C 28.109375 370.976562 26.789062 371.519531 25.371094 371.523438 C 22.371094 371.523438 19.933594 368.96875 19.933594 365.816406 C 19.933594 362.664062 22.371094 360.109375 25.371094 360.109375 C 27.800781 360.148438 29.746094 361.847656 31.65625 363.277344 C 31.316406 359.007812 30.621094 356.609375 26.578125 355.667969 L 38.660156 355.667969 C 34.621094 356.609375 33.925781 359.007812 33.582031 363.277344 C 35.46875 361.660156 37.453125 360.285156 39.867188 360.109375 C 42.871094 360.109375 45.304688 362.664062 45.304688 365.816406 C 45.304688 368.96875 42.871094 371.523438 39.867188 371.523438 C 38.410156 371.523438 37.152344 370.855469 35.941406 370.078125 C 37.148438 371.65625 37.941406 373.355469 38.054688 375.328125 C 38.054688 378.480469 35.621094 381.039062 32.621094 381.039062 Z M 32.621094 381.039062 " fill-opacity="1" fill-rule="nonzero"/></g><g clip-path="url(#8e69ae037a)"><path fill="#000000" d="M 166.925781 253.816406 C 167.929688 253.410156 168.8125 253.648438 169.730469 254.335938 C 170.253906 251.816406 168.023438 250.910156 166.945312 249.3125 C 168.011719 248.753906 168.84375 249.570312 170.449219 249.726562 C 167.300781 247.933594 170.496094 245.566406 169.066406 243.738281 C 169.375 243.738281 169.730469 243.699219 169.59375 243.289062 C 169.46875 242.917969 169.179688 242.605469 168.972656 242.261719 C 168.441406 241.398438 167.675781 240.859375 169.503906 240.179688 C 170.882812 239.667969 168.386719 238.71875 169.050781 237.519531 C 170.605469 236.714844 173.105469 237.042969 174.148438 237.589844 C 175.933594 238.539062 177.890625 237.980469 179.457031 239.027344 C 179.625 239.136719 179.765625 239.429688 179.898438 239.421875 C 185.332031 238.972656 183.960938 243.546875 184.933594 246.308594 C 186.921875 251.957031 187.488281 257.992188 189.695312 263.597656 C 191.785156 268.910156 188.160156 274.40625 182.050781 275.394531 C 180.554688 275.636719 179.046875 275.828125 177.539062 276.015625 C 175.875 276.222656 174.425781 276.917969 173.195312 278.015625 C 172.097656 278.996094 170.96875 280.523438 171.574219 281.667969 C 172.105469 282.675781 173.917969 283.394531 175.234375 283.523438 C 181.769531 284.164062 188.332031 284.382812 194.902344 283.992188 C 196.523438 283.898438 198.140625 283.800781 199.761719 283.734375 C 205.1875 283.507812 208.828125 281.457031 210.136719 275.566406 C 210.777344 272.671875 213.148438 270.175781 214.667969 267.460938 C 217.121094 263.074219 218 258.230469 218.457031 252.460938 C 221.292969 258.332031 226.738281 261.253906 229.015625 266.773438 C 228.957031 265.886719 228.894531 265.003906 228.800781 263.683594 C 230.304688 264.933594 230.78125 266.328125 231.492188 267.59375 C 232.027344 268.542969 232.460938 269.433594 233.523438 270.25 C 235.257812 271.578125 234.613281 273.871094 233.222656 275.554688 C 231.394531 277.761719 228.8125 278.222656 226.125 278.441406 C 221.917969 278.785156 220.191406 280.117188 218.742188 284.050781 C 220.90625 283.882812 222.699219 285.042969 224.632812 285.65625 C 232.308594 288.09375 239.945312 287.078125 247.316406 284.773438 C 252.007812 283.304688 253.453125 278.335938 255.585938 274.355469 C 256.730469 272.226562 256.878906 269.9375 256.058594 267.65625 C 255.042969 264.828125 256.863281 261.640625 255.019531 258.988281 C 253.832031 257.28125 255.105469 254.910156 253.097656 253.613281 C 254.082031 252.773438 254.558594 254.402344 255.5625 253.574219 C 253.402344 251.980469 251.707031 250.210938 253.742188 247.433594 C 253.957031 247.140625 253.820312 246.324219 253.550781 245.996094 C 251.734375 243.796875 251.195312 241.15625 250.914062 238.457031 C 250.636719 235.769531 250.570312 233.207031 251.796875 230.507812 C 252.882812 228.109375 252.917969 225.214844 253.320312 222.523438 C 255.746094 206.265625 254.804688 190.488281 247.050781 175.539062 C 242.5 166.761719 235.132812 160.9375 227.46875 155.140625 C 216.691406 146.988281 204.6875 145.308594 191.78125 146.914062 C 185.660156 147.675781 179.667969 149.210938 173.492188 149.707031 C 167.429688 150.191406 161.84375 148.867188 156.480469 146.1875 C 152.589844 144.242188 148.714844 142.253906 144.777344 140.402344 C 139.804688 138.058594 134.414062 137.320312 129.429688 139.441406 C 123.003906 142.179688 116.8125 142.226562 110.21875 140.59375 C 106.8125 139.75 103.199219 139.582031 99.667969 139.433594 C 97.753906 139.351562 96.929688 138.585938 96.621094 136.882812 C 96.21875 134.652344 95.019531 132.902344 93.078125 131.835938 C 89.558594 129.898438 86.289062 130.136719 83.175781 134.972656 C 82.011719 136.785156 81.585938 136.597656 80.554688 135.234375 C 80.433594 135.074219 80.269531 134.941406 80.117188 134.808594 C 78.402344 133.320312 76.527344 131.667969 74.175781 132.769531 C 71.976562 133.796875 71.765625 136.214844 72.019531 138.347656 C 72.328125 140.96875 71.410156 142.253906 68.933594 143.269531 C 64.5 145.09375 61.109375 148.640625 57.113281 151.21875 C 56.636719 151.527344 56.15625 152.105469 56.039062 152.640625 C 54.511719 159.601562 48.480469 162.304688 43.402344 165.753906 C 39.242188 168.578125 39.0625 168.3125 42.121094 172.226562 C 43.613281 174.136719 43.71875 176.703125 46.164062 178.320312 C 50.402344 181.125 54.761719 182.351562 59.664062 181.441406 C 65.09375 180.429688 69.097656 182.464844 72.207031 186.761719 C 72.421875 187.058594 72.613281 187.371094 72.8125 187.671875 C 75.859375 185.230469 75.628906 188.835938 76.910156 189.839844 C 77.230469 189.328125 77.585938 188.769531 78.085938 187.972656 C 78.824219 189.375 79.40625 190.875 81.21875 189.789062 C 81.585938 189.570312 81.816406 189.480469 82.175781 189.953125 C 84.753906 193.316406 85.113281 193.28125 88.460938 189.535156 C 89.4375 190.832031 88.617188 192.292969 88.929688 193.628906 C 89.890625 193.921875 90.671875 192.566406 91.878906 193.621094 C 95.898438 197.136719 96.015625 197.058594 96.007812 198.792969 C 95.980469 203.382812 96.75 207.835938 97.851562 212.289062 C 99.597656 219.339844 99.503906 226.449219 98.746094 233.699219 C 97.570312 244.945312 99.027344 256.121094 101.117188 267.203125 C 102.222656 273.058594 99.941406 275.953125 93.941406 276.574219 C 92.335938 276.742188 90.730469 276.964844 89.140625 277.253906 C 87.921875 277.472656 86.917969 278.183594 85.941406 278.921875 C 84.429688 280.0625 84.039062 281.855469 84.636719 283.269531 C 85.050781 284.25 86.792969 285.273438 87.914062 285.242188 C 94.0625 285.074219 100.195312 286.167969 106.363281 285.238281 C 111.070312 284.527344 114.6875 282.808594 115.886719 277.777344 C 116.28125 276.128906 117.300781 275.046875 118.800781 274.136719 C 121.375 272.570312 123.078125 270.148438 123.726562 267.207031 C 123.882812 266.511719 124.097656 266.234375 124.558594 265.882812 C 125.027344 265.527344 125.871094 264.949219 125.796875 264.6875 C 124.828125 261.335938 128.039062 259.078125 128.011719 255.855469 C 128 254.355469 127.960938 251.679688 130.722656 251.222656 C 130.464844 250.175781 129.308594 250.207031 128.519531 249.25 C 130.644531 249.46875 131.300781 246.96875 131.191406 246.652344 C 130.285156 244.066406 132.402344 245.199219 133.402344 244.742188 C 132.386719 242.964844 131.492188 241.140625 132.933594 239.03125 C 134.46875 240.886719 135.363281 243.011719 135.890625 245.359375 C 137.773438 253.742188 139.960938 262.03125 142.976562 270.097656 C 144.492188 274.140625 142.457031 277.226562 138.078125 277.882812 C 135.777344 278.226562 133.410156 278.238281 131.21875 279.121094 C 130.199219 279.53125 129.152344 280.011719 128.308594 280.695312 C 126.90625 281.820312 126.574219 283.5 127.074219 285.113281 C 127.570312 286.730469 129.671875 287.042969 130.664062 287.085938 C 137.808594 287.402344 144.976562 287.390625 152.128906 286.980469 C 159.800781 286.542969 161.785156 284.800781 164.0625 277.429688 C 165.027344 274.304688 167.097656 271.4375 167.382812 268.152344 C 167.566406 266.058594 168.761719 263.863281 167.625 261.765625 C 166.875 260.378906 170.054688 261.757812 168.738281 259.972656 C 168.441406 259.566406 166.851562 258.847656 168.398438 257.46875 C 169.136719 256.804688 167.246094 255.179688 166.925781 253.816406 Z M 166.925781 253.816406 " fill-opacity="1" fill-rule="nonzero"/></g><g clip-path="url(#193459b978)"><g clip-path="url(#976a109c7e)"><path fill="#000000" d="M 107.378906 132.171875 L 198.84375 132.171875 L 198.84375 162.542969 L 107.378906 162.542969 Z M 107.378906 132.171875 " fill-opacity="1" fill-rule="nonzero"/></g></g><g clip-path="url(#8cae5627c4)"><g clip-path="url(#620f22c2a4)"><path fill="#000000" d="M 138.046875 135.828125 L 164.386719 135.828125 L 164.386719 164.84375 L 138.046875 164.84375 Z M 138.046875 135.828125 " fill-opacity="1" fill-rule="nonzero"/></g></g><g clip-path="url(#b1ea2ef346)"><g clip-path="url(#94904e208f)"><path fill="#000000" d="M 50.742188 146.125 L 68.277344 146.125 L 68.277344 173.527344 L 50.742188 173.527344 Z M 50.742188 146.125 " fill-opacity="1" fill-rule="nonzero"/></g></g><g clip-path="url(#2ffb4d5711)"><g clip-path="url(#8786c77bd0)"><path fill="#000000" d="M 37.308594 163.960938 L 54.550781 163.960938 L 54.550781 176.570312 L 37.308594 176.570312 Z M 37.308594 163.960938 " fill-opacity="1" fill-rule="nonzero"/></g></g></svg>