<svg xmlns="http://www.w3.org/2000/svg" xmlns:xlink="http://www.w3.org/1999/xlink" width="396" zoomAndPan="magnify" viewBox="0 0 297.12 419.249996" height="559" preserveAspectRatio="xMidYMid meet" version="1.0"><defs><g/><clipPath id="0c96f69510"><path d="M 0 0.246094 L 296.238281 0.246094 L 296.238281 417.367188 L 0 417.367188 Z M 0 0.246094 " clip-rule="nonzero"/></clipPath><clipPath id="17110b19b0"><path d="M 30.636719 45.234375 L 266.433594 45.234375 L 266.433594 380.753906 L 30.636719 380.753906 Z M 30.636719 45.234375 " clip-rule="nonzero"/></clipPath><clipPath id="109b16e165"><path d="M 68 78.59375 L 74.253906 78.59375 L 74.253906 84.371094 L 68 84.371094 Z M 68 78.59375 " clip-rule="nonzero"/></clipPath><clipPath id="0ce5fcd085"><path d="M 71.335938 78.671875 C 73.574219 79.714844 74.171875 80.835938 74.171875 81.65625 C 74.097656 82.402344 73.425781 83.445312 72.828125 83.894531 C 72.15625 84.265625 70.886719 84.339844 70.21875 84.042969 C 69.472656 83.667969 68.722656 82.699219 68.574219 81.953125 C 68.5 81.207031 68.875 80.011719 69.472656 79.417969 C 69.992188 78.894531 71.1875 78.59375 71.933594 78.746094 C 72.679688 78.894531 73.648438 79.714844 73.949219 80.460938 C 74.246094 81.132812 74.171875 82.402344 73.648438 83.074219 C 73.128906 83.746094 71.558594 84.339844 70.664062 84.339844 C 69.992188 84.265625 69.246094 83.894531 68.875 83.445312 C 68.425781 83.074219 68.054688 82.253906 68.054688 81.65625 C 67.976562 80.984375 68.203125 80.238281 68.648438 79.714844 C 69.023438 79.265625 70.367188 78.671875 70.367188 78.671875 " clip-rule="nonzero"/></clipPath><clipPath id="18c9b77658"><path d="M 73.109375 71 L 78.890625 71 L 78.890625 76.839844 L 73.109375 76.839844 Z M 73.109375 71 " clip-rule="nonzero"/></clipPath><clipPath id="4dd67f2a0e"><path d="M 73.203125 73.820312 C 75.066406 71.058594 76.335938 70.984375 77.007812 71.207031 C 77.753906 71.507812 78.574219 72.476562 78.722656 73.222656 C 78.871094 73.96875 78.574219 75.238281 78.050781 75.761719 C 77.453125 76.355469 76.335938 76.730469 75.515625 76.582031 C 74.769531 76.507812 73.796875 75.683594 73.425781 75.015625 C 73.128906 74.34375 73.203125 73.074219 73.574219 72.402344 C 74.023438 71.730469 75.140625 71.132812 75.8125 71.058594 C 76.410156 70.984375 77.082031 71.132812 77.53125 71.507812 C 78.125 71.953125 78.796875 73.074219 78.796875 73.820312 C 78.796875 74.640625 78.277344 75.683594 77.679688 76.207031 C 77.230469 76.65625 76.410156 76.804688 75.8125 76.804688 C 75.140625 76.730469 74.394531 76.355469 74.023438 75.910156 C 73.574219 75.460938 73.203125 74.117188 73.203125 74.117188 " clip-rule="nonzero"/></clipPath><clipPath id="d13d9f4d9b"><path d="M 61 69.582031 L 84.492188 69.582031 L 84.492188 116.609375 L 61 116.609375 Z M 61 69.582031 " clip-rule="nonzero"/></clipPath><clipPath id="ec22676670"><path d="M 69.84375 88.894531 C 81.1875 70.238281 82.15625 69.640625 82.828125 69.863281 C 83.5 70.015625 84.246094 70.835938 84.320312 72.027344 C 84.46875 76.058594 73.277344 92.175781 69.917969 99.636719 C 67.828125 104.414062 66.039062 108.890625 65.441406 111.800781 C 65.066406 113.292969 65.664062 114.636719 65.144531 115.382812 C 64.769531 115.980469 63.949219 116.578125 63.351562 116.503906 C 62.753906 116.429688 61.933594 115.757812 61.636719 114.785156 C 60.664062 111.578125 65.589844 97.921875 66.335938 92.175781 C 66.785156 88.667969 65.738281 84.640625 66.710938 83.667969 C 67.308594 83.148438 68.351562 83.148438 69.023438 83.519531 C 70.140625 84.117188 71.933594 87.101562 72.007812 88.222656 C 72.007812 88.96875 71.558594 89.566406 71.039062 89.9375 C 70.589844 90.234375 69.695312 90.3125 69.171875 90.085938 C 68.648438 89.789062 67.976562 88.59375 67.976562 87.921875 C 67.976562 87.402344 68.574219 86.65625 69.097656 86.429688 C 69.695312 86.132812 70.964844 86.429688 71.484375 86.878906 C 71.859375 87.25 72.082031 88.148438 71.933594 88.667969 C 71.785156 89.191406 71.1875 89.9375 70.664062 90.085938 C 70.066406 90.3125 69.097656 90.011719 68.351562 89.414062 C 67.15625 88.445312 65.292969 85.386719 65.144531 83.746094 C 65.066406 82.550781 65.664062 81.058594 66.410156 80.609375 C 67.082031 80.238281 68.574219 80.3125 69.246094 80.910156 C 70.21875 81.804688 70.441406 84.265625 70.515625 87.101562 C 70.515625 92.996094 66.785156 111.652344 65.292969 114.933594 C 64.917969 115.757812 64.695312 116.128906 64.246094 116.277344 C 63.726562 116.503906 62.679688 116.351562 62.15625 115.980469 C 61.710938 115.53125 61.488281 114.785156 61.488281 113.742188 C 61.5625 110.90625 64.320312 103.890625 66.785156 97.996094 C 70.140625 90.011719 77.679688 73.222656 80.738281 70.613281 C 81.558594 69.863281 82.304688 69.640625 82.828125 69.863281 C 83.5 70.089844 84.320312 71.132812 84.320312 72.027344 C 84.246094 73.523438 81.632812 75.683594 80.140625 78.148438 C 78.050781 81.65625 75.515625 89.863281 73.351562 91.355469 C 72.382812 92.027344 71.039062 92.101562 70.441406 91.730469 C 69.84375 91.28125 69.84375 88.894531 69.84375 88.894531 " clip-rule="nonzero"/></clipPath><clipPath id="d2ebd889f7"><path d="M 70 73.660156 L 80 73.660156 L 80 99.289062 L 70 99.289062 Z M 70 73.660156 " clip-rule="nonzero"/></clipPath><clipPath id="b852c0ceff"><path d="M 74.84375 75.761719 C 75.738281 86.355469 75.960938 95.011719 74.917969 97.472656 C 74.542969 98.445312 73.949219 99.117188 73.277344 99.191406 C 72.605469 99.265625 71.335938 98.742188 70.964844 97.847656 C 70.140625 95.980469 73.128906 90.085938 73.5 86.730469 C 73.796875 83.96875 72.828125 80.757812 73.425781 79.191406 C 73.796875 78.296875 74.46875 77.625 75.066406 77.402344 C 75.515625 77.253906 76.113281 77.328125 76.484375 77.550781 C 77.007812 77.847656 77.304688 78.296875 77.605469 79.191406 C 78.574219 81.878906 80.140625 94.191406 79.320312 96.726562 C 79.097656 97.550781 78.648438 97.996094 78.125 98.144531 C 77.457031 98.371094 76.1875 97.921875 75.738281 97.472656 C 75.367188 97.027344 75.214844 96.132812 75.441406 95.609375 C 75.738281 95.011719 76.859375 94.265625 77.53125 94.265625 C 78.125 94.265625 78.871094 94.714844 79.097656 95.234375 C 79.394531 95.832031 79.246094 97.175781 78.796875 97.699219 C 78.425781 98.144531 77.53125 98.445312 77.007812 98.296875 C 76.410156 98.070312 75.8125 97.472656 75.367188 96.429688 C 74.097656 93.742188 72.382812 81.878906 73.425781 79.191406 C 73.875 78.074219 74.84375 77.402344 75.515625 77.328125 C 76.113281 77.253906 76.859375 77.699219 77.230469 78.222656 C 77.753906 78.96875 77.828125 80.238281 77.828125 81.730469 C 77.902344 84.117188 77.457031 88.296875 76.785156 91.28125 C 76.1875 93.96875 75.441406 97.847656 74.171875 98.742188 C 73.5 99.265625 72.457031 99.265625 71.859375 98.964844 C 71.335938 98.667969 70.964844 98.070312 70.8125 97.175781 C 70.367188 95.308594 71.484375 91.207031 71.410156 87.921875 C 71.335938 84.117188 69.769531 77.925781 70.140625 75.835938 C 70.292969 75.089844 70.515625 74.714844 70.886719 74.34375 C 71.261719 73.96875 71.933594 73.746094 72.457031 73.671875 C 72.976562 73.671875 73.648438 73.894531 74.023438 74.269531 C 74.46875 74.640625 74.84375 75.761719 74.84375 75.761719 " clip-rule="nonzero"/></clipPath><clipPath id="7067cf33c0"><path d="M 69.417969 76.367188 L 85.8125 76.367188 L 85.8125 124.683594 L 69.417969 124.683594 Z M 69.417969 76.367188 " clip-rule="nonzero"/></clipPath><clipPath id="d5524b2d27"><path d="M 85.589844 79.566406 C 76.335938 110.085938 74.769531 120.308594 73.351562 122.996094 C 72.902344 123.816406 72.605469 124.1875 72.15625 124.410156 C 71.785156 124.5625 71.261719 124.636719 70.886719 124.410156 C 70.367188 124.1875 69.546875 123.144531 69.472656 122.546875 C 69.472656 122.023438 69.917969 121.203125 70.367188 120.90625 C 70.8125 120.605469 71.710938 120.53125 72.230469 120.753906 C 72.753906 121.054688 73.351562 122.25 73.425781 122.84375 C 73.425781 123.21875 73.203125 123.664062 72.828125 123.964844 C 72.457031 124.261719 71.632812 124.5625 71.113281 124.488281 C 70.664062 124.488281 70.292969 124.1875 69.992188 123.890625 C 69.695312 123.515625 69.546875 123.070312 69.546875 122.097656 C 69.472656 119.039062 72.230469 108.890625 74.023438 101.953125 C 76.039062 94.339844 79.46875 81.207031 81.035156 78.222656 C 81.410156 77.402344 81.632812 77.101562 82.082031 76.878906 C 82.527344 76.582031 83.199219 76.433594 83.722656 76.507812 C 84.320312 76.65625 85.214844 77.328125 85.515625 77.925781 C 85.738281 78.371094 85.589844 79.566406 85.589844 79.566406 " clip-rule="nonzero"/></clipPath><clipPath id="09b2f2f2ec"><path d="M 64.839844 79.382812 L 81.652344 79.382812 L 81.652344 110.988281 L 64.839844 110.988281 Z M 64.839844 79.382812 " clip-rule="nonzero"/></clipPath><clipPath id="4a7ef01d60"><path d="M 81.261719 82.921875 C 68.425781 110.234375 68.351562 110.457031 67.902344 110.605469 C 67.457031 110.832031 66.484375 110.90625 65.964844 110.605469 C 65.515625 110.382812 64.917969 109.636719 64.917969 109.039062 C 64.84375 108.367188 65.589844 107.175781 66.1875 106.875 C 66.636719 106.652344 67.605469 106.726562 68.054688 107.101562 C 68.574219 107.472656 69.023438 108.816406 68.875 109.414062 C 68.800781 109.859375 68.5 110.234375 68.128906 110.457031 C 67.679688 110.757812 66.710938 110.832031 66.1875 110.683594 C 65.738281 110.605469 65.367188 110.234375 65.21875 109.859375 C 64.917969 109.414062 64.917969 108.890625 65.066406 107.921875 C 65.738281 104.117188 74.695312 84.042969 76.785156 80.910156 C 77.304688 80.164062 77.53125 79.9375 78.050781 79.714844 C 78.574219 79.492188 79.246094 79.417969 79.769531 79.640625 C 80.367188 79.863281 81.1875 80.609375 81.410156 81.207031 C 81.632812 81.730469 81.261719 83 81.261719 83 " clip-rule="nonzero"/></clipPath><clipPath id="60251b91c3"><path d="M 64 77.242188 L 72.652344 77.242188 L 72.652344 98.554688 L 64 98.554688 Z M 64 77.242188 " clip-rule="nonzero"/></clipPath><clipPath id="4f97828e8a"><path d="M 72.605469 80.460938 C 67.605469 98.070312 67.308594 98.21875 66.933594 98.371094 C 66.335938 98.519531 65.367188 98.445312 64.917969 98.070312 C 64.398438 97.625 63.949219 96.28125 64.171875 95.609375 C 64.398438 95.011719 65.664062 94.265625 66.335938 94.265625 C 66.933594 94.265625 67.753906 94.789062 67.976562 95.308594 C 68.277344 95.90625 68.128906 97.324219 67.679688 97.847656 C 67.308594 98.296875 66.335938 98.519531 65.738281 98.445312 C 65.292969 98.371094 64.84375 98.144531 64.621094 97.773438 C 64.246094 97.324219 64.097656 96.804688 64.097656 95.832031 C 64.097656 93.070312 66.710938 81.730469 67.753906 79.265625 C 68.128906 78.445312 68.277344 78.074219 68.800781 77.773438 C 69.246094 77.476562 69.917969 77.253906 70.515625 77.328125 C 71.039062 77.402344 71.710938 77.699219 72.082031 78.148438 C 72.457031 78.671875 72.605469 80.460938 72.605469 80.460938 " clip-rule="nonzero"/></clipPath><clipPath id="ecf42c07f4"><path d="M 185.378906 338.519531 L 205.855469 338.519531 L 205.855469 353.835938 L 185.378906 353.835938 Z M 185.378906 338.519531 " clip-rule="nonzero"/></clipPath><clipPath id="71c084f520"><path d="M 186.625 349.089844 C 203.785156 338.570312 204.085938 338.644531 204.457031 338.867188 C 204.980469 339.09375 205.652344 339.765625 205.726562 340.359375 C 205.800781 341.03125 205.203125 342.375 204.605469 342.675781 C 204.011719 342.972656 202.59375 342.675781 202.144531 342.226562 C 201.695312 341.851562 201.398438 340.882812 201.621094 340.359375 C 201.769531 339.6875 202.890625 338.792969 203.5625 338.71875 C 204.160156 338.644531 204.980469 339.167969 205.351562 339.539062 C 205.652344 339.914062 205.800781 340.359375 205.800781 340.808594 C 205.726562 341.40625 205.503906 341.851562 204.832031 342.597656 C 202.816406 344.839844 191.996094 352.152344 189.382812 353.269531 C 188.5625 353.644531 188.191406 353.792969 187.667969 353.644531 C 186.996094 353.570312 186.101562 352.898438 185.726562 352.300781 C 185.429688 351.777344 185.429688 351.105469 185.578125 350.507812 C 185.726562 349.988281 186.625 349.089844 186.625 349.089844 " clip-rule="nonzero"/></clipPath><clipPath id="a5002522f8"><path d="M 199.597656 336.675781 L 205.546875 336.675781 L 205.546875 342.535156 L 199.597656 342.535156 Z M 199.597656 336.675781 " clip-rule="nonzero"/></clipPath><clipPath id="7a35a2f2e7"><path d="M 200.949219 337.300781 C 204.308594 337.226562 205.128906 338.121094 205.351562 338.867188 C 205.503906 339.613281 205.203125 340.882812 204.679688 341.40625 C 204.160156 342.003906 202.964844 342.449219 202.21875 342.300781 C 201.472656 342.226562 200.429688 341.480469 200.128906 340.808594 C 199.757812 340.136719 199.832031 338.867188 200.203125 338.195312 C 200.578125 337.527344 201.621094 336.855469 202.367188 336.777344 C 203.1875 336.703125 204.308594 337.300781 204.757812 337.824219 C 205.203125 338.273438 205.425781 338.867188 205.425781 339.464844 C 205.351562 340.210938 204.832031 341.332031 204.234375 341.851562 C 203.710938 342.300781 202.964844 342.523438 202.367188 342.523438 C 201.769531 342.523438 200.949219 342.226562 200.503906 341.777344 C 199.980469 341.257812 199.605469 340.0625 199.605469 339.316406 C 199.683594 338.644531 200.578125 337.527344 200.578125 337.527344 " clip-rule="nonzero"/></clipPath><clipPath id="14e8bfb396"><path d="M 228.484375 315 L 236.851562 315 L 236.851562 320.914062 L 228.484375 320.914062 Z M 228.484375 315 " clip-rule="nonzero"/></clipPath><clipPath id="8f08088933"><path d="M 233.632812 320.886719 C 229.378906 319.765625 228.785156 318.796875 228.632812 318.125 C 228.484375 317.527344 228.632812 316.855469 228.933594 316.332031 C 229.230469 315.886719 229.679688 315.363281 230.277344 315.214844 C 230.949219 314.992188 232.214844 314.992188 232.8125 315.4375 C 233.484375 315.8125 234.082031 316.929688 234.082031 317.675781 C 234.082031 318.421875 233.484375 319.542969 232.960938 319.988281 C 232.515625 320.363281 231.769531 320.511719 231.246094 320.511719 C 230.722656 320.4375 230.050781 320.289062 229.605469 319.839844 C 229.082031 319.394531 228.558594 318.273438 228.558594 317.527344 C 228.632812 316.707031 229.230469 315.738281 229.976562 315.363281 C 230.949219 314.765625 233.335938 315.066406 234.453125 315.363281 C 235.125 315.585938 235.722656 315.8125 236.171875 316.332031 C 236.542969 316.929688 236.84375 318.125 236.691406 318.871094 C 236.542969 319.46875 236.023438 320.066406 235.574219 320.4375 C 235.050781 320.734375 233.632812 320.886719 233.632812 320.886719 " clip-rule="nonzero"/></clipPath><clipPath id="3cab0f4fff"><path d="M 14.5625 45.058594 L 50.378906 45.058594 L 50.378906 80.875 L 14.5625 80.875 Z M 14.5625 45.058594 " clip-rule="nonzero"/></clipPath><clipPath id="bf8a893448"><path d="M 248.433594 344.933594 L 284.25 344.933594 L 284.25 380.410156 L 248.433594 380.410156 Z M 248.433594 344.933594 " clip-rule="nonzero"/></clipPath><clipPath id="06a6c8fba2"><path d="M 253.804688 45.265625 L 279.175781 45.265625 L 279.175781 70.636719 L 253.804688 70.636719 Z M 253.804688 45.265625 " clip-rule="nonzero"/></clipPath><clipPath id="724ca701ae"><path d="M 19.933594 355.667969 L 45.304688 355.667969 L 45.304688 380.992188 L 19.933594 380.992188 Z M 19.933594 355.667969 " clip-rule="nonzero"/></clipPath><clipPath id="b001bcfdb4"><path d="M 41 143 L 254.984375 143 L 254.984375 275.890625 L 41 275.890625 Z M 41 143 " clip-rule="nonzero"/></clipPath></defs><g clip-path="url(#0c96f69510)"><path fill="#ffffff" d="M 0 0.246094 L 296.238281 0.246094 L 296.238281 417.367188 L 0 417.367188 Z M 0 0.246094 " fill-opacity="1" fill-rule="nonzero"/><path fill="#ffffff" d="M 0 0.246094 L 296.238281 0.246094 L 296.238281 417.367188 L 0 417.367188 Z M 0 0.246094 " fill-opacity="1" fill-rule="nonzero"/></g><g fill="#010101" fill-opacity="1"><g transform="translate(277.20821, 387.070532)"><g><path d="M -3.296875 23.71875 C -4.585938 24.207031 -5.828125 24.578125 -7.015625 24.828125 C -8.210938 25.085938 -9.328125 25.21875 -10.359375 25.21875 C -12.785156 25.21875 -14.675781 24.691406 -16.03125 23.640625 C -17.394531 22.597656 -18.078125 21.148438 -18.078125 19.296875 C -18.078125 17.796875 -17.609375 16.546875 -16.671875 15.546875 C -15.734375 14.546875 -14.398438 13.867188 -12.671875 13.515625 C -14.703125 13.234375 -16.28125 12.492188 -17.40625 11.296875 C -18.53125 10.109375 -19.09375 8.570312 -19.09375 6.6875 C -19.09375 4.375 -18.316406 2.597656 -16.765625 1.359375 C -15.210938 0.128906 -12.972656 -0.484375 -10.046875 -0.484375 C -8.753906 -0.484375 -7.488281 -0.34375 -6.25 -0.0625 C -5.019531 0.207031 -3.800781 0.625 -2.59375 1.1875 L -2.59375 6 L -4.4375 6 C -4.550781 4.40625 -5.085938 3.195312 -6.046875 2.375 C -7.015625 1.5625 -8.375 1.15625 -10.125 1.15625 C -11.8125 1.15625 -13.144531 1.644531 -14.125 2.625 C -15.101562 3.601562 -15.59375 4.945312 -15.59375 6.65625 C -15.59375 8.59375 -15.085938 10.0625 -14.078125 11.0625 C -13.078125 12.070312 -11.601562 12.578125 -9.65625 12.578125 L -8.078125 12.578125 L -8.078125 14.265625 L -8.90625 14.265625 C -10.84375 14.265625 -12.296875 14.664062 -13.265625 15.46875 C -14.234375 16.269531 -14.71875 17.476562 -14.71875 19.09375 C -14.71875 20.539062 -14.316406 21.644531 -13.515625 22.40625 C -12.722656 23.175781 -11.578125 23.5625 -10.078125 23.5625 C -8.585938 23.5625 -7.429688 23.207031 -6.609375 22.5 C -5.785156 21.800781 -5.300781 20.753906 -5.15625 19.359375 L -3.296875 19.359375 Z M -3.296875 23.71875 "/></g></g></g><g fill="#010101" fill-opacity="1"><g transform="translate(38.105568, 386.622778)"><g><path d="M -2.3125 16.578125 C -3.207031 16.910156 -4.070312 17.164062 -4.90625 17.34375 C -5.738281 17.519531 -6.519531 17.609375 -7.25 17.609375 C -8.9375 17.609375 -10.253906 17.242188 -11.203125 16.515625 C -12.148438 15.785156 -12.625 14.773438 -12.625 13.484375 C -12.625 12.429688 -12.296875 11.554688 -11.640625 10.859375 C -10.984375 10.160156 -10.054688 9.6875 -8.859375 9.4375 C -10.273438 9.238281 -11.375 8.722656 -12.15625 7.890625 C -12.945312 7.066406 -13.34375 5.992188 -13.34375 4.671875 C -13.34375 3.054688 -12.796875 1.816406 -11.703125 0.953125 C -10.617188 0.0859375 -9.054688 -0.34375 -7.015625 -0.34375 C -6.117188 -0.34375 -5.238281 -0.242188 -4.375 -0.046875 C -3.507812 0.148438 -2.65625 0.441406 -1.8125 0.828125 L -1.8125 4.1875 L -3.109375 4.1875 C -3.179688 3.082031 -3.550781 2.242188 -4.21875 1.671875 C -4.894531 1.097656 -5.84375 0.8125 -7.0625 0.8125 C -8.25 0.8125 -9.179688 1.148438 -9.859375 1.828125 C -10.546875 2.515625 -10.890625 3.453125 -10.890625 4.640625 C -10.890625 6.003906 -10.535156 7.035156 -9.828125 7.734375 C -9.128906 8.429688 -8.101562 8.78125 -6.75 8.78125 L -5.640625 8.78125 L -5.640625 9.96875 L -6.21875 9.96875 C -7.570312 9.96875 -8.585938 10.242188 -9.265625 10.796875 C -9.941406 11.359375 -10.28125 12.207031 -10.28125 13.34375 C -10.28125 14.351562 -10 15.125 -9.4375 15.65625 C -8.882812 16.195312 -8.085938 16.46875 -7.046875 16.46875 C -6.003906 16.46875 -5.191406 16.21875 -4.609375 15.71875 C -4.035156 15.226562 -3.703125 14.5 -3.609375 13.53125 L -2.3125 13.53125 Z M -2.3125 16.578125 "/></g></g></g><g fill="#010101" fill-opacity="1"><g transform="translate(259.037789, 39.367161)"><g><path d="M 2.3125 -16.578125 C 3.207031 -16.910156 4.070312 -17.164062 4.90625 -17.34375 C 5.738281 -17.519531 6.519531 -17.609375 7.25 -17.609375 C 8.9375 -17.609375 10.253906 -17.242188 11.203125 -16.515625 C 12.148438 -15.785156 12.625 -14.773438 12.625 -13.484375 C 12.625 -12.429688 12.296875 -11.554688 11.640625 -10.859375 C 10.984375 -10.160156 10.054688 -9.6875 8.859375 -9.4375 C 10.273438 -9.238281 11.375 -8.722656 12.15625 -7.890625 C 12.945312 -7.066406 13.34375 -5.992188 13.34375 -4.671875 C 13.34375 -3.054688 12.796875 -1.816406 11.703125 -0.953125 C 10.617188 -0.0859375 9.054688 0.34375 7.015625 0.34375 C 6.117188 0.34375 5.238281 0.242188 4.375 0.046875 C 3.507812 -0.148438 2.65625 -0.441406 1.8125 -0.828125 L 1.8125 -4.1875 L 3.109375 -4.1875 C 3.179688 -3.082031 3.550781 -2.242188 4.21875 -1.671875 C 4.894531 -1.097656 5.84375 -0.8125 7.0625 -0.8125 C 8.25 -0.8125 9.179688 -1.148438 9.859375 -1.828125 C 10.546875 -2.515625 10.890625 -3.453125 10.890625 -4.640625 C 10.890625 -6.003906 10.535156 -7.035156 9.828125 -7.734375 C 9.128906 -8.429688 8.101562 -8.78125 6.75 -8.78125 L 5.640625 -8.78125 L 5.640625 -9.96875 L 6.21875 -9.96875 C 7.570312 -9.96875 8.585938 -10.242188 9.265625 -10.796875 C 9.941406 -11.359375 10.28125 -12.207031 10.28125 -13.34375 C 10.28125 -14.351562 10 -15.125 9.4375 -15.65625 C 8.882812 -16.195312 8.085938 -16.46875 7.046875 -16.46875 C 6.003906 -16.46875 5.191406 -16.21875 4.609375 -15.71875 C 4.035156 -15.226562 3.703125 -14.5 3.609375 -13.53125 L 2.3125 -13.53125 Z M 2.3125 -16.578125 "/></g></g></g><g fill="#010101" fill-opacity="1"><g transform="translate(19.933967, 37.945548)"><g><path d="M 3.296875 -23.703125 C 4.585938 -24.191406 5.828125 -24.5625 7.015625 -24.8125 C 8.203125 -25.070312 9.316406 -25.203125 10.359375 -25.203125 C 12.785156 -25.203125 14.675781 -24.675781 16.03125 -23.625 C 17.394531 -22.582031 18.078125 -21.132812 18.078125 -19.28125 C 18.078125 -17.789062 17.601562 -16.546875 16.65625 -15.546875 C 15.71875 -14.546875 14.390625 -13.867188 12.671875 -13.515625 C 14.703125 -13.222656 16.273438 -12.484375 17.390625 -11.296875 C 18.515625 -10.109375 19.078125 -8.570312 19.078125 -6.6875 C 19.078125 -4.375 18.300781 -2.597656 16.75 -1.359375 C 15.195312 -0.128906 12.960938 0.484375 10.046875 0.484375 C 8.753906 0.484375 7.488281 0.34375 6.25 0.0625 C 5.019531 -0.207031 3.800781 -0.625 2.59375 -1.1875 L 2.59375 -6 L 4.4375 -6 C 4.550781 -4.40625 5.085938 -3.195312 6.046875 -2.375 C 7.015625 -1.5625 8.367188 -1.15625 10.109375 -1.15625 C 11.804688 -1.15625 13.140625 -1.644531 14.109375 -2.625 C 15.085938 -3.601562 15.578125 -4.941406 15.578125 -6.640625 C 15.578125 -8.585938 15.070312 -10.0625 14.0625 -11.0625 C 13.0625 -12.0625 11.59375 -12.5625 9.65625 -12.5625 L 8.078125 -12.5625 L 8.078125 -14.25 L 8.90625 -14.25 C 10.832031 -14.25 12.28125 -14.648438 13.25 -15.453125 C 14.21875 -16.253906 14.703125 -17.460938 14.703125 -19.078125 C 14.703125 -20.523438 14.300781 -21.632812 13.5 -22.40625 C 12.707031 -23.175781 11.566406 -23.5625 10.078125 -23.5625 C 8.585938 -23.5625 7.429688 -23.207031 6.609375 -22.5 C 5.785156 -21.789062 5.300781 -20.738281 5.15625 -19.34375 L 3.296875 -19.34375 Z M 3.296875 -23.703125 "/></g></g></g><g clip-path="url(#17110b19b0)"><path stroke-linecap="butt" transform="matrix(0.746195, 0, 0, 0.746195, 30.637603, 45.234822)" fill="none" stroke-linejoin="miter" d="M -0.00118541 -0.000598774 L 316.102365 -0.000598774 L 316.102365 449.63974 L -0.00118541 449.63974 Z M -0.00118541 -0.000598774 " stroke="#000000" stroke-width="6" stroke-opacity="1" stroke-miterlimit="4"/></g><g clip-path="url(#109b16e165)"><g clip-path="url(#0ce5fcd085)"><path fill="#ffffff" d="M 65.066406 75.683594 L 77.210938 75.683594 L 77.210938 87.324219 L 65.066406 87.324219 Z M 65.066406 75.683594 " fill-opacity="1" fill-rule="nonzero"/></g></g><g clip-path="url(#18c9b77658)"><g clip-path="url(#4dd67f2a0e)"><path fill="#ffffff" d="M 70.21875 68.074219 L 81.78125 68.074219 L 81.78125 79.777344 L 70.21875 79.777344 Z M 70.21875 68.074219 " fill-opacity="1" fill-rule="nonzero"/></g></g><g clip-path="url(#d13d9f4d9b)"><g clip-path="url(#ec22676670)"><path fill="#ffffff" d="M 58.5 66.878906 L 87.304688 66.878906 L 87.304688 119.535156 L 58.5 119.535156 Z M 58.5 66.878906 " fill-opacity="1" fill-rule="nonzero"/></g></g><g clip-path="url(#d2ebd889f7)"><g clip-path="url(#b852c0ceff)"><path fill="#ffffff" d="M 67.15625 70.6875 L 82.378906 70.6875 L 82.378906 102.199219 L 67.15625 102.199219 Z M 67.15625 70.6875 " fill-opacity="1" fill-rule="nonzero"/></g></g><g clip-path="url(#7067cf33c0)"><g clip-path="url(#d5524b2d27)"><path fill="#ffffff" d="M 66.484375 73.523438 L 88.574219 73.523438 L 88.574219 127.445312 L 66.484375 127.445312 Z M 66.484375 73.523438 " fill-opacity="1" fill-rule="nonzero"/></g></g><g clip-path="url(#09b2f2f2ec)"><g clip-path="url(#4a7ef01d60)"><path fill="#ffffff" d="M 61.933594 76.65625 L 84.46875 76.65625 L 84.46875 113.714844 L 61.933594 113.714844 Z M 61.933594 76.65625 " fill-opacity="1" fill-rule="nonzero"/></g></g><g clip-path="url(#60251b91c3)"><g clip-path="url(#4f97828e8a)"><path fill="#ffffff" d="M 61.113281 74.34375 L 75.664062 74.34375 L 75.664062 101.453125 L 61.113281 101.453125 Z M 61.113281 74.34375 " fill-opacity="1" fill-rule="nonzero"/></g></g><g clip-path="url(#ecf42c07f4)"><g clip-path="url(#71c084f520)"><path fill="#ffffff" d="M 182.59375 335.734375 L 208.886719 335.734375 L 208.886719 356.703125 L 182.59375 356.703125 Z M 182.59375 335.734375 " fill-opacity="1" fill-rule="nonzero"/></g></g><g clip-path="url(#a5002522f8)"><g clip-path="url(#7a35a2f2e7)"><path fill="#ffffff" d="M 196.621094 333.792969 L 208.429688 333.792969 L 208.429688 345.507812 L 196.621094 345.507812 Z M 196.621094 333.792969 " fill-opacity="1" fill-rule="nonzero"/></g></g><g clip-path="url(#14e8bfb396)"><g clip-path="url(#8f08088933)"><path fill="#ffffff" d="M 225.574219 312.230469 L 239.671875 312.230469 L 239.671875 323.871094 L 225.574219 323.871094 Z M 225.574219 312.230469 " fill-opacity="1" fill-rule="nonzero"/></g></g><g clip-path="url(#3cab0f4fff)"><path fill="#000000" d="M 32.46875 45.058594 C 28.234375 45.058594 24.796875 48.667969 24.796875 53.117188 C 24.832031 55.914062 26.277344 58.28125 27.78125 60.53125 C 26.105469 59.261719 24.242188 58.496094 22.238281 58.488281 C 18 58.488281 14.5625 62.097656 14.5625 66.546875 C 14.5625 70.996094 18 74.605469 22.238281 74.605469 C 25.667969 74.550781 28.414062 72.148438 31.109375 70.128906 C 30.628906 76.160156 29.644531 79.542969 23.941406 80.875 L 41 80.875 C 35.292969 79.542969 34.3125 76.160156 33.828125 70.128906 C 36.496094 72.414062 39.292969 74.351562 42.703125 74.605469 C 46.941406 74.605469 50.378906 70.996094 50.378906 66.546875 C 50.378906 62.097656 46.941406 58.488281 42.703125 58.488281 C 40.648438 58.488281 38.871094 59.433594 37.160156 60.53125 C 38.863281 58.304688 39.980469 55.902344 40.144531 53.117188 C 40.144531 48.667969 36.707031 45.058594 32.46875 45.058594 Z M 32.46875 45.058594 " fill-opacity="1" fill-rule="nonzero"/></g><g clip-path="url(#bf8a893448)"><path fill="#000000" d="M 266.339844 380.75 C 262.105469 380.75 258.664062 377.140625 258.664062 372.691406 C 258.703125 369.890625 260.148438 367.523438 261.648438 365.273438 C 259.972656 366.542969 258.113281 367.308594 256.105469 367.316406 C 251.871094 367.316406 248.433594 363.707031 248.433594 359.257812 C 248.433594 354.808594 251.871094 351.199219 256.105469 351.199219 C 259.539062 351.257812 262.285156 353.660156 264.980469 355.675781 C 264.5 349.648438 263.515625 346.261719 257.8125 344.933594 L 274.867188 344.933594 C 269.164062 346.261719 268.183594 349.648438 267.699219 355.675781 C 270.367188 353.390625 273.164062 351.453125 276.574219 351.199219 C 280.8125 351.199219 284.25 354.808594 284.25 359.257812 C 284.25 363.707031 280.8125 367.316406 276.574219 367.316406 C 274.519531 367.316406 272.742188 366.371094 271.03125 365.273438 C 272.734375 367.503906 273.851562 369.90625 274.015625 372.691406 C 274.015625 377.140625 270.578125 380.75 266.339844 380.75 Z M 266.339844 380.75 " fill-opacity="1" fill-rule="nonzero"/></g><g clip-path="url(#06a6c8fba2)"><path fill="#000000" d="M 266.488281 45.265625 C 263.488281 45.265625 261.054688 47.820312 261.054688 50.972656 C 261.078125 52.957031 262.101562 54.632812 263.167969 56.226562 C 261.980469 55.328125 260.660156 54.785156 259.242188 54.777344 C 256.238281 54.777344 253.804688 57.335938 253.804688 60.488281 C 253.804688 63.636719 256.238281 66.195312 259.242188 66.195312 C 261.671875 66.15625 263.617188 64.453125 265.527344 63.023438 C 265.183594 67.292969 264.488281 69.691406 260.449219 70.636719 L 272.53125 70.636719 C 268.488281 69.691406 267.792969 67.292969 267.453125 63.023438 C 269.339844 64.644531 271.320312 66.015625 273.738281 66.195312 C 276.738281 66.195312 279.175781 63.636719 279.175781 60.488281 C 279.175781 57.335938 276.738281 54.777344 273.738281 54.777344 C 272.28125 54.777344 271.023438 55.449219 269.8125 56.226562 C 271.015625 54.648438 271.8125 52.945312 271.925781 50.972656 C 271.925781 47.820312 269.492188 45.265625 266.488281 45.265625 Z M 266.488281 45.265625 " fill-opacity="1" fill-rule="nonzero"/></g><g clip-path="url(#724ca701ae)"><path fill="#000000" d="M 32.621094 381.039062 C 29.617188 381.039062 27.183594 378.480469 27.183594 375.328125 C 27.207031 373.347656 28.230469 371.671875 29.296875 370.078125 C 28.109375 370.976562 26.789062 371.519531 25.371094 371.523438 C 22.371094 371.523438 19.933594 368.96875 19.933594 365.816406 C 19.933594 362.664062 22.371094 360.109375 25.371094 360.109375 C 27.800781 360.148438 29.746094 361.847656 31.65625 363.277344 C 31.316406 359.007812 30.621094 356.609375 26.578125 355.667969 L 38.660156 355.667969 C 34.621094 356.609375 33.925781 359.007812 33.582031 363.277344 C 35.46875 361.660156 37.453125 360.285156 39.867188 360.109375 C 42.871094 360.109375 45.304688 362.664062 45.304688 365.816406 C 45.304688 368.96875 42.871094 371.523438 39.867188 371.523438 C 38.410156 371.523438 37.152344 370.855469 35.941406 370.078125 C 37.148438 371.65625 37.941406 373.355469 38.054688 375.328125 C 38.054688 378.480469 35.621094 381.039062 32.621094 381.039062 Z M 32.621094 381.039062 " fill-opacity="1" fill-rule="nonzero"/></g><g clip-path="url(#b001bcfdb4)"><path fill="#000000" d="M 180.546875 253.714844 C 182.339844 254.402344 183.878906 256.589844 184.519531 258.5625 C 186.742188 259.25 188.921875 260.921875 189.433594 263.066406 C 190.03125 263.109375 190.671875 263.152344 191.269531 263.238281 C 191.570312 263.28125 192.039062 263.324219 192.554688 263.453125 C 192.851562 261.996094 193.195312 260.492188 193.75 259.078125 C 194.5625 257.019531 195.03125 254.789062 196.226562 252.859375 C 195.671875 252.816406 195.246094 253.203125 194.648438 253.074219 C 194.605469 252.085938 195.886719 251.441406 195.84375 250.5 C 195.628906 250.585938 195.371094 250.542969 195.117188 250.585938 C 195.246094 249.46875 196.015625 248.527344 196.570312 247.539062 C 196.140625 247.582031 195.714844 247.839844 195.246094 247.753906 C 195.203125 246.46875 196.527344 245.308594 196.441406 243.980469 C 196.269531 244.023438 196.015625 243.894531 195.84375 243.9375 C 196.269531 242.949219 196.355469 241.835938 197.167969 241.019531 C 196.699219 241.234375 196.226562 241.535156 195.757812 241.707031 C 195.714844 239.863281 196.996094 237.761719 197.550781 236.042969 C 197.722656 235.445312 198.277344 234.199219 198.621094 233 C 197.679688 232.355469 196.613281 231.796875 195.757812 231.070312 C 194.816406 230.210938 194.089844 229.097656 193.238281 228.152344 C 192.339844 227.207031 191.3125 226.222656 190.332031 225.277344 C 188.921875 223.90625 187.851562 222.320312 186.527344 220.902344 C 186.058594 220.386719 185.460938 219.746094 184.820312 219.1875 C 184.777344 219.917969 184.734375 220.6875 184.476562 221.03125 C 183.792969 221.976562 183.109375 220.34375 182.46875 219.875 C 182.425781 220.515625 182.46875 221.203125 182.425781 221.890625 C 182.214844 221.71875 181.957031 221.546875 181.785156 221.332031 C 181.230469 221.761719 181.144531 223.089844 181.1875 223.820312 C 180.078125 222.746094 178.28125 221.246094 177.515625 219.917969 C 177.429688 220.644531 177.515625 221.417969 177.472656 222.148438 C 176.402344 222.191406 175.035156 220.261719 174.136719 219.703125 C 174.054688 220.730469 174.4375 221.71875 174.351562 222.746094 C 173.285156 222.617188 172.003906 221.03125 171.148438 220.386719 C 171.0625 221.160156 171.234375 221.890625 171.359375 222.617188 C 170.890625 222.53125 170.421875 222.105469 169.910156 221.933594 C 169.738281 222.703125 170.421875 223.433594 170.847656 223.992188 C 169.523438 223.132812 168.371094 221.890625 167.089844 220.945312 C 166.917969 220.816406 166.703125 220.6875 166.40625 220.515625 C 166.363281 221.117188 166.0625 221.675781 166.191406 222.234375 C 166.660156 222.320312 167.046875 222.148438 167.515625 222.148438 C 167.21875 222.832031 166.960938 224.507812 167.003906 225.277344 C 167.859375 224.847656 168.285156 224.464844 168.5 225.578125 C 168.667969 226.523438 168.285156 227.507812 168.625 228.410156 C 169.566406 228.238281 170.25 227.378906 170.464844 228.496094 C 170.636719 229.351562 169.992188 230.339844 170.121094 231.285156 C 170.675781 231.242188 171.019531 230.769531 171.574219 230.855469 C 171.277344 231.882812 170.675781 233.300781 170.847656 234.371094 C 171.277344 234.242188 171.617188 233.941406 172.042969 233.941406 C 172.003906 235.144531 171.191406 236.214844 171.359375 237.460938 C 171.617188 237.289062 171.960938 237.117188 172.300781 237.117188 C 172.34375 238.058594 171.277344 238.917969 171.359375 239.734375 C 171.445312 240.675781 172.601562 240.289062 173.453125 240.332031 C 172.941406 241.707031 172.515625 243.035156 172.300781 244.453125 C 173.925781 245.394531 175.035156 246.894531 174.652344 249.042969 C 174.4375 250.328125 173.96875 251.355469 174.394531 252.644531 C 174.652344 253.375 175.164062 253.84375 175.71875 254.316406 C 177.429688 253.714844 178.964844 253.117188 180.546875 253.714844 Z M 230.578125 160.511719 C 232.03125 161.710938 233.3125 163.167969 234.722656 164.328125 C 237.117188 166.257812 239.808594 168.1875 241.902344 170.460938 C 246.8125 175.78125 251.640625 182.042969 253.820312 188.90625 C 254.847656 192.121094 254.503906 195.296875 254.761719 198.597656 C 254.375 198.597656 253.949219 198.425781 253.566406 198.382812 C 253.394531 199.242188 253.992188 200.101562 253.90625 200.957031 C 253.523438 200.957031 253.179688 200.785156 252.839844 200.613281 C 252.582031 201.816406 253.992188 203.746094 253.050781 204.777344 C 252.582031 204.433594 252.410156 203.789062 251.941406 203.445312 C 251.8125 204.988281 251.898438 206.664062 251.386719 208.164062 C 250.832031 207.648438 250.789062 206.835938 250.0625 206.449219 C 249.976562 207.347656 249.890625 208.164062 249.761719 209.023438 C 249.421875 208.59375 249.292969 207.90625 248.824219 207.519531 C 248.308594 208.851562 247.328125 210.996094 247.285156 212.453125 C 247.15625 211.765625 247.027344 210.78125 246.515625 210.265625 C 245.917969 211.808594 245.617188 213.695312 244.890625 215.285156 C 244.679688 214.640625 244.679688 213.695312 243.953125 213.3125 C 243.824219 214.597656 243.4375 215.757812 243.140625 216.957031 C 242.882812 216.484375 242.5 215.800781 242.070312 215.457031 C 241.988281 216.441406 242.113281 217.34375 241.773438 218.285156 C 241.429688 219.230469 241.003906 220.046875 240.832031 220.988281 C 240.621094 220.472656 240.535156 219.875 240.320312 219.359375 C 239.421875 220.046875 239.292969 222.40625 238.867188 223.476562 C 238.566406 222.832031 238.140625 222.234375 237.671875 221.675781 C 237.542969 222.40625 237.371094 223.21875 237.285156 223.777344 C 237.074219 224.847656 236.347656 226.09375 236.390625 227.164062 C 236.089844 226.351562 235.917969 225.621094 235.148438 225.0625 C 235.109375 226.480469 234.9375 227.722656 234.210938 229.054688 C 233.996094 228.453125 233.742188 227.808594 233.484375 227.207031 C 232.972656 228.753906 232.585938 230.125 231.648438 231.539062 C 231.089844 232.398438 230.40625 233.171875 229.722656 233.984375 C 230.878906 235.789062 232.5 237.804688 232.585938 239.734375 C 232.671875 242.007812 230.621094 244.238281 229.339844 245.953125 C 227.589844 248.269531 225.621094 250.414062 223.742188 252.6875 C 222.117188 254.660156 220.582031 256.589844 218.1875 257.792969 C 216.820312 258.476562 215.324219 258.949219 213.871094 259.421875 C 213.105469 260.921875 212.421875 262.464844 211.609375 263.96875 C 210.625 265.683594 209.300781 267.183594 208.445312 268.945312 C 207.679688 270.574219 207.464844 272.417969 206.652344 274.003906 C 205.753906 275.675781 204.046875 275.890625 202.25 275.847656 C 200.542969 275.804688 199.261719 275.378906 198.023438 274.519531 C 197.167969 274.5625 196.226562 274.648438 195.800781 274.648438 C 194.261719 274.648438 193.109375 274.046875 191.613281 273.703125 C 188.75 273.0625 186.273438 273.832031 183.539062 274.046875 C 182.8125 274.089844 180.675781 273.960938 179.734375 273.277344 C 178.28125 273.363281 176.1875 273.320312 176.273438 272.503906 C 176.316406 271.816406 177.683594 271.644531 178.15625 271.386719 C 178.539062 271.175781 178.839844 270.917969 179.179688 270.703125 C 179.09375 270.445312 178.921875 270.1875 178.796875 269.972656 C 177.640625 270.1875 175.890625 270.746094 175.632812 269.800781 C 176.617188 268.859375 177.855469 267.957031 179.179688 267.527344 C 178.453125 267.269531 177.554688 267.140625 177.257812 266.714844 C 176.789062 266.070312 177.515625 265.425781 178.28125 265.039062 C 176.273438 264.398438 174.265625 264.011719 172.085938 264.011719 C 169.480469 264.011719 166.746094 264.398438 164.183594 263.667969 C 158.289062 262.039062 156.535156 255.519531 154.613281 250.714844 C 153.503906 247.96875 152.007812 245.523438 150.296875 243.164062 C 149.144531 244.835938 148.246094 246.894531 146.410156 248.054688 C 146.28125 247.582031 146.28125 247.109375 146.109375 246.640625 C 145.640625 247.238281 145.640625 248.355469 145 248.957031 C 144.058594 249.855469 144.53125 248.613281 143.761719 248.183594 C 143.289062 248.65625 142.777344 249.941406 142.179688 250.15625 C 141.195312 250.5 141.667969 249.511719 140.941406 249.382812 C 140.472656 249.296875 139.273438 250.628906 138.933594 250.929688 C 138.71875 251.101562 138.292969 251.613281 138.035156 251.699219 C 137.265625 252 137.738281 251.699219 137.136719 251.441406 C 136.667969 251.273438 136.925781 251.015625 136.328125 251.144531 C 135.941406 251.230469 135.726562 251.65625 135.515625 251.914062 C 135.128906 252.386719 134.875 252.859375 134.359375 253.246094 C 133.035156 254.144531 131.542969 254.703125 130.214844 255.648438 C 129.53125 256.160156 128.890625 256.632812 128.292969 257.234375 C 128.125 257.40625 127.953125 257.621094 127.78125 257.835938 C 128.765625 258.433594 129.660156 259.207031 130.046875 260.191406 C 130.214844 260.578125 130.386719 261.566406 130.429688 262.550781 C 132.097656 263.667969 133.632812 266.328125 132.992188 267.957031 C 134.105469 269.199219 135.601562 271.089844 135.042969 271.558594 C 134.488281 272.03125 132.949219 271.089844 132.351562 270.875 C 131.414062 270.574219 130.730469 270.359375 130.003906 269.84375 C 126.542969 270.101562 123.636719 269.070312 120.601562 267.054688 C 117.144531 264.738281 113.511719 261.824219 111.671875 258.089844 C 109.921875 254.53125 109.792969 250.113281 112.914062 247.238281 C 114.410156 245.910156 116.289062 245.050781 117.910156 243.9375 C 119.707031 242.691406 121.117188 241.191406 122.269531 239.390625 C 123.636719 237.246094 124.578125 234.929688 126.113281 232.871094 C 126.671875 232.140625 127.3125 231.453125 128.039062 230.855469 C 127.566406 229.566406 126.585938 228.066406 126.113281 227.207031 C 125.046875 225.277344 123.464844 223.734375 122.183594 221.933594 C 119.621094 218.328125 117.226562 214.46875 115.261719 210.523438 C 114.75 209.492188 114.152344 208.507812 113.765625 207.519531 C 113.425781 207.261719 113 207.046875 112.699219 206.835938 C 112.101562 206.40625 111.546875 205.847656 110.90625 205.460938 C 110.863281 206.148438 110.734375 207.175781 111.117188 207.777344 C 109.964844 207.175781 109.324219 206.105469 108.296875 205.417969 C 108.214844 205.890625 108.296875 206.40625 108.511719 206.835938 C 107.273438 206.964844 106.035156 204.902344 105.179688 204.261719 C 105.050781 204.777344 105.265625 205.417969 105.394531 205.890625 C 104.195312 205.03125 103.726562 203.53125 102.660156 202.503906 C 102.660156 203.058594 102.488281 203.53125 102.53125 204.089844 C 101.804688 204.132812 100.609375 202.375 100.265625 201.730469 C 99.882812 202.160156 99.796875 202.929688 99.667969 203.488281 C 99.113281 203.015625 98.683594 201.945312 98.429688 201.257812 C 97.875 201.214844 97.488281 201.988281 97.316406 202.417969 C 96.589844 201.816406 96.25 200.527344 95.609375 199.757812 C 95.523438 200.316406 95.054688 200.871094 94.710938 201.34375 C 94.539062 199.886719 93.34375 198.769531 92.960938 197.398438 C 92.53125 198.128906 92.617188 199.371094 91.679688 198.8125 C 90.953125 198.382812 90.054688 196.710938 89.714844 195.9375 C 89.414062 196.667969 89.457031 197.699219 89.457031 198.46875 C 88.644531 197.3125 87.746094 196.195312 86.976562 194.996094 C 86.851562 195.640625 87.019531 196.453125 86.722656 197.054688 C 86.210938 196.410156 85.78125 195.683594 85.355469 194.996094 C 85.097656 195.425781 84.925781 195.898438 84.886719 196.367188 C 84.328125 195.46875 83.347656 194.523438 82.707031 193.496094 C 82.449219 194.136719 82.363281 194.910156 82.023438 195.425781 C 81.46875 195.082031 80.910156 193.964844 80.570312 193.324219 C 80.65625 194.136719 80.140625 194.824219 80.058594 195.640625 C 79.5 195.46875 79.203125 194.566406 78.691406 194.136719 C 78.734375 194.824219 78.691406 195.640625 78.433594 196.195312 C 78.089844 195.855469 77.921875 195.339844 77.492188 195.039062 C 77.535156 196.238281 77.066406 197.355469 76.808594 198.46875 C 76.253906 197.742188 76.082031 196.582031 75.613281 195.8125 C 75.230469 196.625 75.058594 198.253906 74.972656 199.15625 C 74.886719 197.914062 73.605469 196.96875 73.5625 195.640625 C 73.179688 195.9375 73.222656 196.625 73.09375 197.140625 C 72.664062 196.496094 72.195312 195.769531 71.855469 195.082031 C 71.9375 195.511719 71.8125 195.9375 71.726562 196.324219 C 70.957031 195.683594 70.570312 194.4375 69.804688 193.878906 C 69.503906 194.179688 69.332031 194.523438 69.246094 194.910156 C 68.691406 194.695312 68.179688 193.964844 67.667969 193.835938 C 67.152344 193.707031 66.640625 194.007812 66.128906 194.09375 C 65.273438 194.222656 64.71875 194.007812 64.121094 193.667969 C 63.609375 194.222656 63.09375 194.738281 62.582031 195.253906 C 60.445312 197.269531 58.097656 196.882812 55.40625 196.238281 C 52.796875 195.640625 51.816406 193.75 53.738281 192.035156 C 53.269531 191.4375 53.011719 190.921875 53.054688 189.804688 C 53.824219 189.847656 54.507812 190.148438 55.277344 190.363281 C 55.234375 189.71875 55.320312 188.992188 55.234375 188.390625 C 53.609375 188.648438 51.988281 188.691406 50.320312 188.992188 C 48.484375 189.289062 45.832031 190.019531 44.808594 188.046875 C 44.464844 187.402344 44.253906 186.675781 44.082031 185.945312 C 42.160156 185.601562 40.964844 183.886719 41.21875 181.914062 C 41.519531 179.984375 43.65625 179.597656 45.277344 178.996094 C 47.03125 178.351562 48.097656 177.195312 49.421875 175.953125 C 52.113281 173.378906 55.320312 171.320312 58.308594 169.089844 C 58.308594 167.800781 58.566406 166.429688 59.078125 165.3125 C 59.761719 163.769531 60.875 163.253906 62.285156 162.441406 C 63.691406 161.625 64.71875 160.253906 65.828125 159.09375 C 67.070312 157.808594 68.351562 156.734375 69.929688 155.835938 C 71.042969 155.234375 72.324219 154.933594 73.390625 154.332031 C 73.09375 153.21875 72.921875 152.058594 72.878906 150.902344 C 72.835938 149.015625 71.9375 143.566406 75.101562 143.609375 C 77.492188 143.652344 79.800781 146.054688 81.59375 147.8125 C 81.722656 147.128906 81.980469 146.441406 82.363281 145.796875 C 83.988281 143.136719 87.492188 142.324219 89.839844 144.640625 C 91.59375 146.3125 92.449219 148.800781 93.257812 151.117188 C 94.199219 151.203125 95.183594 151.332031 96.078125 151.332031 C 99.027344 151.332031 101.933594 151.289062 104.667969 152.402344 C 106.164062 153.003906 107.785156 153.304688 109.28125 153.945312 C 109.878906 154.203125 110.863281 154.589844 111.714844 154.976562 C 112.101562 154.71875 112.527344 154.460938 113.082031 154.332031 C 113.808594 154.160156 114.578125 154.03125 115.261719 153.691406 C 115.816406 153.433594 116.289062 152.917969 116.84375 152.789062 C 116.886719 153.347656 116.714844 154.074219 117.101562 154.546875 C 118.296875 154.246094 118.722656 152.703125 119.707031 152.1875 C 119.664062 152.789062 119.835938 153.433594 119.878906 154.074219 C 120.945312 153.476562 121.542969 150.902344 122.953125 151.03125 C 122.996094 151.546875 122.953125 152.144531 122.996094 152.660156 C 124.019531 152.101562 124.664062 150.214844 125.816406 149.957031 C 126.113281 150.730469 125.988281 151.628906 126.242188 152.445312 C 126.925781 151.800781 128.039062 150.730469 128.082031 149.742188 C 127.953125 150.515625 128.335938 151.332031 128.335938 152.144531 C 128.335938 152.402344 128.335938 152.617188 128.292969 152.875 C 128.847656 152.488281 129.53125 152.230469 130.132812 151.972656 C 131.285156 151.503906 132.308594 150.644531 133.507812 150.300781 C 133.078125 151.160156 132.867188 151.671875 132.949219 152.660156 C 133.464844 152.359375 133.761719 151.671875 134.277344 151.417969 C 135.300781 150.859375 134.917969 151.671875 135.214844 152.445312 C 135.984375 152.015625 136.625 150.988281 137.523438 150.816406 C 137.566406 151.332031 137.566406 151.886719 137.523438 152.402344 C 138.460938 151.757812 139.617188 150.773438 140.726562 150.558594 C 140.683594 151.160156 140.257812 151.714844 140.386719 152.402344 C 141.070312 151.632812 141.964844 151.203125 142.992188 150.816406 C 143.847656 150.472656 144.742188 149.828125 145.554688 149.613281 C 145.257812 150.472656 144.785156 151.800781 144.742188 152.660156 C 146.066406 152.359375 146.75 151.503906 147.820312 150.902344 C 148.160156 151.714844 148.160156 152.402344 148.246094 153.261719 C 148.84375 152.917969 149.359375 152.402344 149.699219 151.84375 C 149.785156 152.617188 149.484375 153.476562 149.613281 154.203125 C 150.339844 153.859375 151.152344 153.046875 151.921875 153.046875 C 152.09375 153.519531 152.175781 154.203125 152.175781 154.890625 C 155.765625 153.089844 159.441406 151.714844 163.414062 150.6875 C 168.925781 149.273438 174.566406 148.328125 180.121094 147.171875 C 186.699219 145.796875 193.363281 144.511719 200.117188 145.152344 C 207.035156 145.753906 213.617188 148.414062 219.597656 151.671875 C 224.085938 153.90625 227.628906 156.777344 230.578125 160.511719 Z M 230.578125 160.511719 " fill-opacity="1" fill-rule="nonzero"/></g></svg>