<svg xmlns="http://www.w3.org/2000/svg" xmlns:xlink="http://www.w3.org/1999/xlink" width="396" zoomAndPan="magnify" viewBox="0 0 297.12 419.249996" height="559" preserveAspectRatio="xMidYMid meet" version="1.0"><defs><g/><clipPath id="c999005878"><path d="M 0 0.246094 L 296.238281 0.246094 L 296.238281 417.367188 L 0 417.367188 Z M 0 0.246094 " clip-rule="nonzero"/></clipPath><clipPath id="b5f7054984"><path d="M 30.636719 45.234375 L 266.433594 45.234375 L 266.433594 380.753906 L 30.636719 380.753906 Z M 30.636719 45.234375 " clip-rule="nonzero"/></clipPath><clipPath id="2fa948ad68"><path d="M 68 78.59375 L 74.253906 78.59375 L 74.253906 84.371094 L 68 84.371094 Z M 68 78.59375 " clip-rule="nonzero"/></clipPath><clipPath id="c65056b378"><path d="M 71.335938 78.671875 C 73.574219 79.714844 74.171875 80.835938 74.171875 81.65625 C 74.097656 82.402344 73.425781 83.445312 72.828125 83.894531 C 72.15625 84.265625 70.886719 84.339844 70.21875 84.042969 C 69.472656 83.667969 68.722656 82.699219 68.574219 81.953125 C 68.5 81.207031 68.875 80.011719 69.472656 79.417969 C 69.992188 78.894531 71.1875 78.59375 71.933594 78.746094 C 72.679688 78.894531 73.648438 79.714844 73.949219 80.460938 C 74.246094 81.132812 74.171875 82.402344 73.648438 83.074219 C 73.128906 83.746094 71.558594 84.339844 70.664062 84.339844 C 69.992188 84.265625 69.246094 83.894531 68.875 83.445312 C 68.425781 83.074219 68.054688 82.253906 68.054688 81.65625 C 67.976562 80.984375 68.203125 80.238281 68.648438 79.714844 C 69.023438 79.265625 70.367188 78.671875 70.367188 78.671875 " clip-rule="nonzero"/></clipPath><clipPath id="a729901417"><path d="M 73.109375 71 L 78.890625 71 L 78.890625 76.839844 L 73.109375 76.839844 Z M 73.109375 71 " clip-rule="nonzero"/></clipPath><clipPath id="4516808c3f"><path d="M 73.203125 73.820312 C 75.066406 71.058594 76.335938 70.984375 77.007812 71.207031 C 77.753906 71.507812 78.574219 72.476562 78.722656 73.222656 C 78.871094 73.96875 78.574219 75.238281 78.050781 75.761719 C 77.453125 76.355469 76.335938 76.730469 75.515625 76.582031 C 74.769531 76.507812 73.796875 75.683594 73.425781 75.015625 C 73.128906 74.34375 73.203125 73.074219 73.574219 72.402344 C 74.023438 71.730469 75.140625 71.132812 75.8125 71.058594 C 76.410156 70.984375 77.082031 71.132812 77.53125 71.507812 C 78.125 71.953125 78.796875 73.074219 78.796875 73.820312 C 78.796875 74.640625 78.277344 75.683594 77.679688 76.207031 C 77.230469 76.65625 76.410156 76.804688 75.8125 76.804688 C 75.140625 76.730469 74.394531 76.355469 74.023438 75.910156 C 73.574219 75.460938 73.203125 74.117188 73.203125 74.117188 " clip-rule="nonzero"/></clipPath><clipPath id="8ea32e837c"><path d="M 61 69.582031 L 84.492188 69.582031 L 84.492188 116.609375 L 61 116.609375 Z M 61 69.582031 " clip-rule="nonzero"/></clipPath><clipPath id="62700cd57f"><path d="M 69.84375 88.894531 C 81.1875 70.238281 82.15625 69.640625 82.828125 69.863281 C 83.5 70.015625 84.246094 70.835938 84.320312 72.027344 C 84.46875 76.058594 73.277344 92.175781 69.917969 99.636719 C 67.828125 104.414062 66.039062 108.890625 65.441406 111.800781 C 65.066406 113.292969 65.664062 114.636719 65.144531 115.382812 C 64.769531 115.980469 63.949219 116.578125 63.351562 116.503906 C 62.753906 116.429688 61.933594 115.757812 61.636719 114.785156 C 60.664062 111.578125 65.589844 97.921875 66.335938 92.175781 C 66.785156 88.667969 65.738281 84.640625 66.710938 83.667969 C 67.308594 83.148438 68.351562 83.148438 69.023438 83.519531 C 70.140625 84.117188 71.933594 87.101562 72.007812 88.222656 C 72.007812 88.96875 71.558594 89.566406 71.039062 89.9375 C 70.589844 90.234375 69.695312 90.3125 69.171875 90.085938 C 68.648438 89.789062 67.976562 88.59375 67.976562 87.921875 C 67.976562 87.402344 68.574219 86.65625 69.097656 86.429688 C 69.695312 86.132812 70.964844 86.429688 71.484375 86.878906 C 71.859375 87.25 72.082031 88.148438 71.933594 88.667969 C 71.785156 89.191406 71.1875 89.9375 70.664062 90.085938 C 70.066406 90.3125 69.097656 90.011719 68.351562 89.414062 C 67.15625 88.445312 65.292969 85.386719 65.144531 83.746094 C 65.066406 82.550781 65.664062 81.058594 66.410156 80.609375 C 67.082031 80.238281 68.574219 80.3125 69.246094 80.910156 C 70.21875 81.804688 70.441406 84.265625 70.515625 87.101562 C 70.515625 92.996094 66.785156 111.652344 65.292969 114.933594 C 64.917969 115.757812 64.695312 116.128906 64.246094 116.277344 C 63.726562 116.503906 62.679688 116.351562 62.15625 115.980469 C 61.710938 115.53125 61.488281 114.785156 61.488281 113.742188 C 61.5625 110.90625 64.320312 103.890625 66.785156 97.996094 C 70.140625 90.011719 77.679688 73.222656 80.738281 70.613281 C 81.558594 69.863281 82.304688 69.640625 82.828125 69.863281 C 83.5 70.089844 84.320312 71.132812 84.320312 72.027344 C 84.246094 73.523438 81.632812 75.683594 80.140625 78.148438 C 78.050781 81.65625 75.515625 89.863281 73.351562 91.355469 C 72.382812 92.027344 71.039062 92.101562 70.441406 91.730469 C 69.84375 91.28125 69.84375 88.894531 69.84375 88.894531 " clip-rule="nonzero"/></clipPath><clipPath id="c339bb7fc4"><path d="M 70 73.660156 L 80 73.660156 L 80 99.289062 L 70 99.289062 Z M 70 73.660156 " clip-rule="nonzero"/></clipPath><clipPath id="300eb5ea1d"><path d="M 74.84375 75.761719 C 75.738281 86.355469 75.960938 95.011719 74.917969 97.472656 C 74.542969 98.445312 73.949219 99.117188 73.277344 99.191406 C 72.605469 99.265625 71.335938 98.742188 70.964844 97.847656 C 70.140625 95.980469 73.128906 90.085938 73.5 86.730469 C 73.796875 83.96875 72.828125 80.757812 73.425781 79.191406 C 73.796875 78.296875 74.46875 77.625 75.066406 77.402344 C 75.515625 77.253906 76.113281 77.328125 76.484375 77.550781 C 77.007812 77.847656 77.304688 78.296875 77.605469 79.191406 C 78.574219 81.878906 80.140625 94.191406 79.320312 96.726562 C 79.097656 97.550781 78.648438 97.996094 78.125 98.144531 C 77.457031 98.371094 76.1875 97.921875 75.738281 97.472656 C 75.367188 97.027344 75.214844 96.132812 75.441406 95.609375 C 75.738281 95.011719 76.859375 94.265625 77.53125 94.265625 C 78.125 94.265625 78.871094 94.714844 79.097656 95.234375 C 79.394531 95.832031 79.246094 97.175781 78.796875 97.699219 C 78.425781 98.144531 77.53125 98.445312 77.007812 98.296875 C 76.410156 98.070312 75.8125 97.472656 75.367188 96.429688 C 74.097656 93.742188 72.382812 81.878906 73.425781 79.191406 C 73.875 78.074219 74.84375 77.402344 75.515625 77.328125 C 76.113281 77.253906 76.859375 77.699219 77.230469 78.222656 C 77.753906 78.96875 77.828125 80.238281 77.828125 81.730469 C 77.902344 84.117188 77.457031 88.296875 76.785156 91.28125 C 76.1875 93.96875 75.441406 97.847656 74.171875 98.742188 C 73.5 99.265625 72.457031 99.265625 71.859375 98.964844 C 71.335938 98.667969 70.964844 98.070312 70.8125 97.175781 C 70.367188 95.308594 71.484375 91.207031 71.410156 87.921875 C 71.335938 84.117188 69.769531 77.925781 70.140625 75.835938 C 70.292969 75.089844 70.515625 74.714844 70.886719 74.34375 C 71.261719 73.96875 71.933594 73.746094 72.457031 73.671875 C 72.976562 73.671875 73.648438 73.894531 74.023438 74.269531 C 74.46875 74.640625 74.84375 75.761719 74.84375 75.761719 " clip-rule="nonzero"/></clipPath><clipPath id="6d9922dcb4"><path d="M 69.417969 76.367188 L 85.8125 76.367188 L 85.8125 124.683594 L 69.417969 124.683594 Z M 69.417969 76.367188 " clip-rule="nonzero"/></clipPath><clipPath id="dec4ffc9a3"><path d="M 85.589844 79.566406 C 76.335938 110.085938 74.769531 120.308594 73.351562 122.996094 C 72.902344 123.816406 72.605469 124.1875 72.15625 124.410156 C 71.785156 124.5625 71.261719 124.636719 70.886719 124.410156 C 70.367188 124.1875 69.546875 123.144531 69.472656 122.546875 C 69.472656 122.023438 69.917969 121.203125 70.367188 120.90625 C 70.8125 120.605469 71.710938 120.53125 72.230469 120.753906 C 72.753906 121.054688 73.351562 122.25 73.425781 122.84375 C 73.425781 123.21875 73.203125 123.664062 72.828125 123.964844 C 72.457031 124.261719 71.632812 124.5625 71.113281 124.488281 C 70.664062 124.488281 70.292969 124.1875 69.992188 123.890625 C 69.695312 123.515625 69.546875 123.070312 69.546875 122.097656 C 69.472656 119.039062 72.230469 108.890625 74.023438 101.953125 C 76.039062 94.339844 79.46875 81.207031 81.035156 78.222656 C 81.410156 77.402344 81.632812 77.101562 82.082031 76.878906 C 82.527344 76.582031 83.199219 76.433594 83.722656 76.507812 C 84.320312 76.65625 85.214844 77.328125 85.515625 77.925781 C 85.738281 78.371094 85.589844 79.566406 85.589844 79.566406 " clip-rule="nonzero"/></clipPath><clipPath id="82742ba966"><path d="M 64.839844 79.382812 L 81.652344 79.382812 L 81.652344 110.988281 L 64.839844 110.988281 Z M 64.839844 79.382812 " clip-rule="nonzero"/></clipPath><clipPath id="1f017b32d6"><path d="M 81.261719 82.921875 C 68.425781 110.234375 68.351562 110.457031 67.902344 110.605469 C 67.457031 110.832031 66.484375 110.90625 65.964844 110.605469 C 65.515625 110.382812 64.917969 109.636719 64.917969 109.039062 C 64.84375 108.367188 65.589844 107.175781 66.1875 106.875 C 66.636719 106.652344 67.605469 106.726562 68.054688 107.101562 C 68.574219 107.472656 69.023438 108.816406 68.875 109.414062 C 68.800781 109.859375 68.5 110.234375 68.128906 110.457031 C 67.679688 110.757812 66.710938 110.832031 66.1875 110.683594 C 65.738281 110.605469 65.367188 110.234375 65.21875 109.859375 C 64.917969 109.414062 64.917969 108.890625 65.066406 107.921875 C 65.738281 104.117188 74.695312 84.042969 76.785156 80.910156 C 77.304688 80.164062 77.53125 79.9375 78.050781 79.714844 C 78.574219 79.492188 79.246094 79.417969 79.769531 79.640625 C 80.367188 79.863281 81.1875 80.609375 81.410156 81.207031 C 81.632812 81.730469 81.261719 83 81.261719 83 " clip-rule="nonzero"/></clipPath><clipPath id="2fff0e0133"><path d="M 64 77.242188 L 72.652344 77.242188 L 72.652344 98.554688 L 64 98.554688 Z M 64 77.242188 " clip-rule="nonzero"/></clipPath><clipPath id="463b214d02"><path d="M 72.605469 80.460938 C 67.605469 98.070312 67.308594 98.21875 66.933594 98.371094 C 66.335938 98.519531 65.367188 98.445312 64.917969 98.070312 C 64.398438 97.625 63.949219 96.28125 64.171875 95.609375 C 64.398438 95.011719 65.664062 94.265625 66.335938 94.265625 C 66.933594 94.265625 67.753906 94.789062 67.976562 95.308594 C 68.277344 95.90625 68.128906 97.324219 67.679688 97.847656 C 67.308594 98.296875 66.335938 98.519531 65.738281 98.445312 C 65.292969 98.371094 64.84375 98.144531 64.621094 97.773438 C 64.246094 97.324219 64.097656 96.804688 64.097656 95.832031 C 64.097656 93.070312 66.710938 81.730469 67.753906 79.265625 C 68.128906 78.445312 68.277344 78.074219 68.800781 77.773438 C 69.246094 77.476562 69.917969 77.253906 70.515625 77.328125 C 71.039062 77.402344 71.710938 77.699219 72.082031 78.148438 C 72.457031 78.671875 72.605469 80.460938 72.605469 80.460938 " clip-rule="nonzero"/></clipPath><clipPath id="e8f3543d64"><path d="M 185.378906 338.519531 L 205.855469 338.519531 L 205.855469 353.835938 L 185.378906 353.835938 Z M 185.378906 338.519531 " clip-rule="nonzero"/></clipPath><clipPath id="9eceec159f"><path d="M 186.625 349.089844 C 203.785156 338.570312 204.085938 338.644531 204.457031 338.867188 C 204.980469 339.09375 205.652344 339.765625 205.726562 340.359375 C 205.800781 341.03125 205.203125 342.375 204.605469 342.675781 C 204.011719 342.972656 202.59375 342.675781 202.144531 342.226562 C 201.695312 341.851562 201.398438 340.882812 201.621094 340.359375 C 201.769531 339.6875 202.890625 338.792969 203.5625 338.71875 C 204.160156 338.644531 204.980469 339.167969 205.351562 339.539062 C 205.652344 339.914062 205.800781 340.359375 205.800781 340.808594 C 205.726562 341.40625 205.503906 341.851562 204.832031 342.597656 C 202.816406 344.839844 191.996094 352.152344 189.382812 353.269531 C 188.5625 353.644531 188.191406 353.792969 187.667969 353.644531 C 186.996094 353.570312 186.101562 352.898438 185.726562 352.300781 C 185.429688 351.777344 185.429688 351.105469 185.578125 350.507812 C 185.726562 349.988281 186.625 349.089844 186.625 349.089844 " clip-rule="nonzero"/></clipPath><clipPath id="f1188c895e"><path d="M 199.597656 336.675781 L 205.546875 336.675781 L 205.546875 342.535156 L 199.597656 342.535156 Z M 199.597656 336.675781 " clip-rule="nonzero"/></clipPath><clipPath id="53a5ea7298"><path d="M 200.949219 337.300781 C 204.308594 337.226562 205.128906 338.121094 205.351562 338.867188 C 205.503906 339.613281 205.203125 340.882812 204.679688 341.40625 C 204.160156 342.003906 202.964844 342.449219 202.21875 342.300781 C 201.472656 342.226562 200.429688 341.480469 200.128906 340.808594 C 199.757812 340.136719 199.832031 338.867188 200.203125 338.195312 C 200.578125 337.527344 201.621094 336.855469 202.367188 336.777344 C 203.1875 336.703125 204.308594 337.300781 204.757812 337.824219 C 205.203125 338.273438 205.425781 338.867188 205.425781 339.464844 C 205.351562 340.210938 204.832031 341.332031 204.234375 341.851562 C 203.710938 342.300781 202.964844 342.523438 202.367188 342.523438 C 201.769531 342.523438 200.949219 342.226562 200.503906 341.777344 C 199.980469 341.257812 199.605469 340.0625 199.605469 339.316406 C 199.683594 338.644531 200.578125 337.527344 200.578125 337.527344 " clip-rule="nonzero"/></clipPath><clipPath id="79c67b1d3b"><path d="M 228.484375 315 L 236.851562 315 L 236.851562 320.914062 L 228.484375 320.914062 Z M 228.484375 315 " clip-rule="nonzero"/></clipPath><clipPath id="29081d43a4"><path d="M 233.632812 320.886719 C 229.378906 319.765625 228.785156 318.796875 228.632812 318.125 C 228.484375 317.527344 228.632812 316.855469 228.933594 316.332031 C 229.230469 315.886719 229.679688 315.363281 230.277344 315.214844 C 230.949219 314.992188 232.214844 314.992188 232.8125 315.4375 C 233.484375 315.8125 234.082031 316.929688 234.082031 317.675781 C 234.082031 318.421875 233.484375 319.542969 232.960938 319.988281 C 232.515625 320.363281 231.769531 320.511719 231.246094 320.511719 C 230.722656 320.4375 230.050781 320.289062 229.605469 319.839844 C 229.082031 319.394531 228.558594 318.273438 228.558594 317.527344 C 228.632812 316.707031 229.230469 315.738281 229.976562 315.363281 C 230.949219 314.765625 233.335938 315.066406 234.453125 315.363281 C 235.125 315.585938 235.722656 315.8125 236.171875 316.332031 C 236.542969 316.929688 236.84375 318.125 236.691406 318.871094 C 236.542969 319.46875 236.023438 320.0625 235.574219 320.4375 C 235.050781 320.734375 233.632812 320.886719 233.632812 320.886719 " clip-rule="nonzero"/></clipPath><clipPath id="3a28c9a2a6"><path d="M 14.5625 45.058594 L 50.378906 45.058594 L 50.378906 80.875 L 14.5625 80.875 Z M 14.5625 45.058594 " clip-rule="nonzero"/></clipPath><clipPath id="6b485ffc0c"><path d="M 248.433594 344.933594 L 284.25 344.933594 L 284.25 380.410156 L 248.433594 380.410156 Z M 248.433594 344.933594 " clip-rule="nonzero"/></clipPath><clipPath id="46f097fb61"><path d="M 253.804688 45.265625 L 279.175781 45.265625 L 279.175781 70.636719 L 253.804688 70.636719 Z M 253.804688 45.265625 " clip-rule="nonzero"/></clipPath><clipPath id="2928ffbca4"><path d="M 19.933594 355.667969 L 45.304688 355.667969 L 45.304688 380.992188 L 19.933594 380.992188 Z M 19.933594 355.667969 " clip-rule="nonzero"/></clipPath><clipPath id="a20ac00de2"><path d="M 173.621094 290.144531 L 223.671875 290.144531 L 223.671875 332.324219 L 173.621094 332.324219 Z M 173.621094 290.144531 " clip-rule="nonzero"/></clipPath><clipPath id="7b8ec54b05"><path d="M 173.621094 162.21875 L 223.671875 162.21875 L 223.671875 204.398438 L 173.621094 204.398438 Z M 173.621094 162.21875 " clip-rule="nonzero"/></clipPath></defs><g clip-path="url(#c999005878)"><path fill="#ffffff" d="M 0 0.246094 L 296.238281 0.246094 L 296.238281 417.367188 L 0 417.367188 Z M 0 0.246094 " fill-opacity="1" fill-rule="nonzero"/><path fill="#ffffff" d="M 0 0.246094 L 296.238281 0.246094 L 296.238281 417.367188 L 0 417.367188 Z M 0 0.246094 " fill-opacity="1" fill-rule="nonzero"/></g><g fill="#010101" fill-opacity="1"><g transform="translate(277.20821, 387.070532)"><g><path d="M -11.859375 8.390625 L -11.859375 21.5625 L -3.40625 8.390625 Z M -19.15625 0 L -7.875 0 L -7.875 1.765625 L -11.859375 1.765625 L -11.859375 6.625 L -1.046875 6.625 L -1.046875 8.421875 L -11.890625 25.21875 L -15.171875 25.21875 L -15.171875 8.390625 L -19.90625 8.390625 L -19.90625 6.625 L -15.171875 6.625 L -15.171875 1.765625 L -19.15625 1.765625 Z M -19.15625 0 "/></g></g></g><g fill="#010101" fill-opacity="1"><g transform="translate(38.105568, 386.622778)"><g><path d="M -8.28125 5.859375 L -8.28125 15.0625 L -2.375 5.859375 Z M -13.390625 0 L -5.5 0 L -5.5 1.234375 L -8.28125 1.234375 L -8.28125 4.625 L -0.734375 4.625 L -0.734375 5.890625 L -8.3125 17.609375 L -10.609375 17.609375 L -10.609375 5.859375 L -13.90625 5.859375 L -13.90625 4.625 L -10.609375 4.625 L -10.609375 1.234375 L -13.390625 1.234375 Z M -13.390625 0 "/></g></g></g><g fill="#010101" fill-opacity="1"><g transform="translate(259.037789, 39.367103)"><g><path d="M 8.28125 -5.859375 L 8.28125 -15.0625 L 2.375 -5.859375 Z M 13.390625 0 L 5.5 0 L 5.5 -1.234375 L 8.28125 -1.234375 L 8.28125 -4.625 L 0.734375 -4.625 L 0.734375 -5.890625 L 8.3125 -17.609375 L 10.609375 -17.609375 L 10.609375 -5.859375 L 13.90625 -5.859375 L 13.90625 -4.625 L 10.609375 -4.625 L 10.609375 -1.234375 L 13.390625 -1.234375 Z M 13.390625 0 "/></g></g></g><g fill="#010101" fill-opacity="1"><g transform="translate(19.933967, 37.945577)"><g><path d="M 11.859375 -8.390625 L 11.859375 -21.546875 L 3.40625 -8.390625 Z M 19.140625 0 L 7.875 0 L 7.875 -1.75 L 11.859375 -1.75 L 11.859375 -6.609375 L 1.046875 -6.609375 L 1.046875 -8.421875 L 11.890625 -25.203125 L 15.171875 -25.203125 L 15.171875 -8.390625 L 19.890625 -8.390625 L 19.890625 -6.609375 L 15.171875 -6.609375 L 15.171875 -1.75 L 19.140625 -1.75 Z M 19.140625 0 "/></g></g></g><g clip-path="url(#b5f7054984)"><path stroke-linecap="butt" transform="matrix(0.746195, 0, 0, 0.746195, 30.637603, 45.234822)" fill="none" stroke-linejoin="miter" d="M -0.00118541 -0.000598774 L 316.102365 -0.000598774 L 316.102365 449.63974 L -0.00118541 449.63974 Z M -0.00118541 -0.000598774 " stroke="#000000" stroke-width="6" stroke-opacity="1" stroke-miterlimit="4"/></g><g clip-path="url(#2fa948ad68)"><g clip-path="url(#c65056b378)"><path fill="#ffffff" d="M 65.066406 75.683594 L 77.210938 75.683594 L 77.210938 87.324219 L 65.066406 87.324219 Z M 65.066406 75.683594 " fill-opacity="1" fill-rule="nonzero"/></g></g><g clip-path="url(#a729901417)"><g clip-path="url(#4516808c3f)"><path fill="#ffffff" d="M 70.21875 68.074219 L 81.78125 68.074219 L 81.78125 79.777344 L 70.21875 79.777344 Z M 70.21875 68.074219 " fill-opacity="1" fill-rule="nonzero"/></g></g><g clip-path="url(#8ea32e837c)"><g clip-path="url(#62700cd57f)"><path fill="#ffffff" d="M 58.5 66.878906 L 87.304688 66.878906 L 87.304688 119.535156 L 58.5 119.535156 Z M 58.5 66.878906 " fill-opacity="1" fill-rule="nonzero"/></g></g><g clip-path="url(#c339bb7fc4)"><g clip-path="url(#300eb5ea1d)"><path fill="#ffffff" d="M 67.15625 70.6875 L 82.378906 70.6875 L 82.378906 102.199219 L 67.15625 102.199219 Z M 67.15625 70.6875 " fill-opacity="1" fill-rule="nonzero"/></g></g><g clip-path="url(#6d9922dcb4)"><g clip-path="url(#dec4ffc9a3)"><path fill="#ffffff" d="M 66.484375 73.523438 L 88.574219 73.523438 L 88.574219 127.445312 L 66.484375 127.445312 Z M 66.484375 73.523438 " fill-opacity="1" fill-rule="nonzero"/></g></g><g clip-path="url(#82742ba966)"><g clip-path="url(#1f017b32d6)"><path fill="#ffffff" d="M 61.933594 76.65625 L 84.46875 76.65625 L 84.46875 113.714844 L 61.933594 113.714844 Z M 61.933594 76.65625 " fill-opacity="1" fill-rule="nonzero"/></g></g><g clip-path="url(#2fff0e0133)"><g clip-path="url(#463b214d02)"><path fill="#ffffff" d="M 61.113281 74.34375 L 75.664062 74.34375 L 75.664062 101.453125 L 61.113281 101.453125 Z M 61.113281 74.34375 " fill-opacity="1" fill-rule="nonzero"/></g></g><g clip-path="url(#e8f3543d64)"><g clip-path="url(#9eceec159f)"><path fill="#ffffff" d="M 182.59375 335.734375 L 208.886719 335.734375 L 208.886719 356.703125 L 182.59375 356.703125 Z M 182.59375 335.734375 " fill-opacity="1" fill-rule="nonzero"/></g></g><g clip-path="url(#f1188c895e)"><g clip-path="url(#53a5ea7298)"><path fill="#ffffff" d="M 196.621094 333.792969 L 208.429688 333.792969 L 208.429688 345.507812 L 196.621094 345.507812 Z M 196.621094 333.792969 " fill-opacity="1" fill-rule="nonzero"/></g></g><g clip-path="url(#79c67b1d3b)"><g clip-path="url(#29081d43a4)"><path fill="#ffffff" d="M 225.574219 312.230469 L 239.671875 312.230469 L 239.671875 323.871094 L 225.574219 323.871094 Z M 225.574219 312.230469 " fill-opacity="1" fill-rule="nonzero"/></g></g><g clip-path="url(#3a28c9a2a6)"><path fill="#000000" d="M 32.46875 45.058594 C 28.234375 45.058594 24.796875 48.667969 24.796875 53.117188 C 24.832031 55.914062 26.277344 58.28125 27.78125 60.53125 C 26.105469 59.261719 24.242188 58.496094 22.238281 58.488281 C 18 58.488281 14.5625 62.097656 14.5625 66.546875 C 14.5625 70.996094 18 74.605469 22.238281 74.605469 C 25.667969 74.550781 28.414062 72.148438 31.109375 70.128906 C 30.628906 76.160156 29.644531 79.542969 23.941406 80.875 L 41 80.875 C 35.292969 79.542969 34.3125 76.160156 33.828125 70.128906 C 36.496094 72.414062 39.292969 74.351562 42.703125 74.605469 C 46.941406 74.605469 50.378906 70.996094 50.378906 66.546875 C 50.378906 62.097656 46.941406 58.488281 42.703125 58.488281 C 40.648438 58.488281 38.871094 59.433594 37.160156 60.53125 C 38.863281 58.304688 39.980469 55.902344 40.144531 53.117188 C 40.144531 48.667969 36.707031 45.058594 32.46875 45.058594 Z M 32.46875 45.058594 " fill-opacity="1" fill-rule="nonzero"/></g><g clip-path="url(#6b485ffc0c)"><path fill="#000000" d="M 266.339844 380.75 C 262.105469 380.75 258.664062 377.140625 258.664062 372.691406 C 258.703125 369.890625 260.148438 367.523438 261.648438 365.273438 C 259.972656 366.542969 258.113281 367.308594 256.105469 367.316406 C 251.871094 367.316406 248.433594 363.707031 248.433594 359.257812 C 248.433594 354.808594 251.871094 351.199219 256.105469 351.199219 C 259.539062 351.257812 262.285156 353.660156 264.980469 355.675781 C 264.5 349.648438 263.515625 346.261719 257.8125 344.933594 L 274.867188 344.933594 C 269.164062 346.261719 268.183594 349.648438 267.699219 355.675781 C 270.367188 353.390625 273.164062 351.453125 276.574219 351.199219 C 280.8125 351.199219 284.25 354.808594 284.25 359.257812 C 284.25 363.707031 280.8125 367.316406 276.574219 367.316406 C 274.519531 367.316406 272.742188 366.371094 271.03125 365.273438 C 272.734375 367.503906 273.851562 369.90625 274.015625 372.691406 C 274.015625 377.140625 270.578125 380.75 266.339844 380.75 Z M 266.339844 380.75 " fill-opacity="1" fill-rule="nonzero"/></g><g clip-path="url(#46f097fb61)"><path fill="#000000" d="M 266.488281 45.265625 C 263.488281 45.265625 261.054688 47.820312 261.054688 50.972656 C 261.078125 52.957031 262.101562 54.632812 263.167969 56.226562 C 261.980469 55.328125 260.660156 54.785156 259.242188 54.777344 C 256.238281 54.777344 253.804688 57.335938 253.804688 60.488281 C 253.804688 63.636719 256.238281 66.195312 259.242188 66.195312 C 261.671875 66.15625 263.617188 64.453125 265.527344 63.023438 C 265.183594 67.292969 264.488281 69.691406 260.449219 70.636719 L 272.53125 70.636719 C 268.488281 69.691406 267.792969 67.292969 267.453125 63.023438 C 269.339844 64.644531 271.320312 66.015625 273.738281 66.195312 C 276.738281 66.195312 279.175781 63.636719 279.175781 60.488281 C 279.175781 57.335938 276.738281 54.777344 273.738281 54.777344 C 272.28125 54.777344 271.023438 55.449219 269.8125 56.226562 C 271.015625 54.648438 271.8125 52.945312 271.925781 50.972656 C 271.925781 47.820312 269.492188 45.265625 266.488281 45.265625 Z M 266.488281 45.265625 " fill-opacity="1" fill-rule="nonzero"/></g><g clip-path="url(#2928ffbca4)"><path fill="#000000" d="M 32.621094 381.039062 C 29.617188 381.039062 27.183594 378.480469 27.183594 375.328125 C 27.207031 373.347656 28.230469 371.671875 29.296875 370.078125 C 28.109375 370.976562 26.789062 371.519531 25.371094 371.523438 C 22.371094 371.523438 19.933594 368.96875 19.933594 365.816406 C 19.933594 362.664062 22.371094 360.109375 25.371094 360.109375 C 27.800781 360.148438 29.746094 361.847656 31.65625 363.277344 C 31.316406 359.007812 30.621094 356.609375 26.578125 355.667969 L 38.660156 355.667969 C 34.621094 356.609375 33.925781 359.007812 33.582031 363.277344 C 35.46875 361.660156 37.453125 360.285156 39.867188 360.109375 C 42.871094 360.109375 45.304688 362.664062 45.304688 365.816406 C 45.304688 368.96875 42.871094 371.523438 39.867188 371.523438 C 38.410156 371.523438 37.152344 370.855469 35.941406 370.078125 C 37.148438 371.65625 37.941406 373.355469 38.054688 375.328125 C 38.054688 378.480469 35.621094 381.039062 32.621094 381.039062 Z M 32.621094 381.039062 " fill-opacity="1" fill-rule="nonzero"/></g><path fill="#000000" d="M 114.433594 274.667969 C 108.765625 264.335938 100.511719 269.503906 100.511719 269.503906 C 100.324219 269.507812 100.140625 269.519531 99.953125 269.53125 C 99.769531 269.519531 99.589844 269.507812 99.394531 269.503906 C 99.394531 269.503906 91.148438 264.335938 85.476562 274.667969 C 79.808594 285 71.042969 295.335938 77.226562 305.152344 C 83.417969 314.96875 91.148438 307.734375 93.730469 308.25 C 95.566406 308.621094 97.144531 310.300781 99.953125 309.921875 C 102.765625 310.300781 104.34375 308.621094 106.183594 308.25 C 108.765625 307.734375 116.496094 314.96875 122.683594 305.152344 C 128.871094 295.335938 120.105469 285 114.433594 274.667969 " fill-opacity="1" fill-rule="nonzero"/><path fill="#000000" d="M 65.617188 248.183594 C 65.617188 248.183594 59.507812 248.789062 57.765625 259.421875 C 56.027344 270.058594 64.390625 282.550781 70.195312 279.496094 C 76.003906 276.445312 79.691406 267.019531 76.800781 261.09375 C 73.007812 253.304688 71.5625 246.488281 65.617188 248.183594 " fill-opacity="1" fill-rule="nonzero"/><path fill="#000000" d="M 87.691406 227.296875 C 87.691406 227.296875 76.292969 229.542969 75.625 242.9375 C 74.984375 255.8125 81.378906 264.269531 91.796875 260.765625 C 96.875 259.0625 97.417969 249.449219 96.351562 240.835938 C 95.421875 233.3125 93.679688 226.609375 87.691406 227.296875 " fill-opacity="1" fill-rule="nonzero"/><path fill="#000000" d="M 65.886719 237.128906 C 65.886719 237.128906 63.515625 239.574219 62.859375 244.542969 C 62.203125 249.507812 65.382812 246.035156 66.488281 245.886719 C 68.785156 245.578125 66.71875 236.710938 65.886719 237.128906 " fill-opacity="1" fill-rule="nonzero"/><path fill="#000000" d="M 87.285156 217.035156 C 87.285156 217.035156 84.496094 219.355469 83.539062 224.316406 C 82.585938 229.277344 86.332031 225.980469 87.585938 225.902344 C 90.199219 225.738281 88.238281 216.667969 87.285156 217.035156 " fill-opacity="1" fill-rule="nonzero"/><path fill="#000000" d="M 131.59375 251.519531 C 131.59375 251.519531 137.359375 251.886719 139.34375 261.824219 C 141.324219 271.769531 133.871094 283.789062 128.3125 281.113281 C 122.757812 278.433594 118.976562 269.695312 121.5 264.019531 C 124.808594 256.578125 125.949219 250.121094 131.59375 251.519531 " fill-opacity="1" fill-rule="nonzero"/><path fill="#000000" d="M 110.171875 227.296875 C 110.171875 227.296875 121.570312 229.542969 122.234375 242.9375 C 122.875 255.8125 116.484375 264.269531 106.066406 260.765625 C 100.988281 259.0625 100.441406 249.449219 101.511719 240.835938 C 102.441406 233.3125 104.1875 226.609375 110.171875 227.296875 " fill-opacity="1" fill-rule="nonzero"/><path fill="#000000" d="M 130.976562 241.128906 C 130.976562 241.128906 133.289062 243.355469 134.066406 248 C 134.847656 252.652344 131.742188 249.488281 130.699219 249.386719 C 128.527344 249.171875 130.183594 240.765625 130.976562 241.128906 " fill-opacity="1" fill-rule="nonzero"/><path fill="#000000" d="M 110.578125 217.035156 C 110.578125 217.035156 113.363281 219.355469 114.320312 224.316406 C 115.28125 229.277344 111.53125 225.980469 110.273438 225.902344 C 107.664062 225.738281 109.625 216.667969 110.578125 217.035156 " fill-opacity="1" fill-rule="nonzero"/><g clip-path="url(#a20ac00de2)"><path fill="#000000" d="M 213.210938 296.664062 C 207.539062 286.328125 199.289062 291.5 199.289062 291.5 C 199.101562 291.503906 198.917969 291.515625 198.730469 291.527344 C 198.546875 291.515625 198.363281 291.503906 198.171875 291.5 C 198.171875 291.5 189.925781 286.328125 184.253906 296.664062 C 178.582031 306.996094 169.820312 317.332031 176.003906 327.144531 C 182.1875 336.964844 189.925781 329.730469 192.503906 330.246094 C 194.34375 330.617188 195.921875 332.296875 198.730469 331.917969 C 201.546875 332.296875 203.125 330.617188 204.964844 330.246094 C 207.539062 329.730469 215.273438 336.964844 221.457031 327.144531 C 227.648438 317.332031 218.882812 306.996094 213.210938 296.664062 " fill-opacity="1" fill-rule="nonzero"/></g><path fill="#000000" d="M 164.398438 270.179688 C 164.398438 270.179688 158.28125 270.785156 156.539062 281.417969 C 154.800781 292.054688 163.167969 304.546875 168.972656 301.496094 C 174.777344 298.441406 178.46875 289.015625 175.578125 283.085938 C 171.785156 275.300781 170.339844 268.484375 164.398438 270.179688 " fill-opacity="1" fill-rule="nonzero"/><path fill="#000000" d="M 186.46875 249.292969 C 186.46875 249.292969 175.070312 251.539062 174.402344 264.933594 C 173.761719 277.808594 180.15625 286.265625 190.574219 282.761719 C 195.652344 281.054688 196.199219 271.441406 195.132812 262.828125 C 194.199219 255.308594 192.453125 248.605469 186.46875 249.292969 " fill-opacity="1" fill-rule="nonzero"/><path fill="#000000" d="M 164.660156 259.121094 C 164.660156 259.121094 162.292969 261.570312 161.636719 266.535156 C 160.980469 271.503906 164.160156 268.03125 165.265625 267.882812 C 167.5625 267.574219 165.492188 258.703125 164.660156 259.121094 " fill-opacity="1" fill-rule="nonzero"/><path fill="#000000" d="M 186.0625 239.03125 C 186.0625 239.03125 183.273438 241.347656 182.316406 246.3125 C 181.359375 251.273438 185.109375 247.976562 186.363281 247.898438 C 188.972656 247.738281 187.015625 238.664062 186.0625 239.03125 " fill-opacity="1" fill-rule="nonzero"/><path fill="#000000" d="M 230.371094 273.515625 C 230.371094 273.515625 236.136719 273.882812 238.121094 283.824219 C 240.101562 293.761719 232.648438 305.785156 227.089844 303.109375 C 221.53125 300.429688 217.753906 291.6875 220.277344 286.015625 C 223.585938 278.574219 224.726562 272.117188 230.371094 273.515625 " fill-opacity="1" fill-rule="nonzero"/><path fill="#000000" d="M 208.949219 249.292969 C 208.949219 249.292969 220.347656 251.539062 221.011719 264.933594 C 221.652344 277.808594 215.261719 286.265625 204.84375 282.761719 C 199.761719 281.054688 199.21875 271.441406 200.285156 262.828125 C 201.21875 255.308594 202.960938 248.605469 208.949219 249.292969 " fill-opacity="1" fill-rule="nonzero"/><path fill="#000000" d="M 229.753906 263.125 C 229.753906 263.125 232.0625 265.351562 232.84375 269.996094 C 233.625 274.644531 230.519531 271.484375 229.472656 271.382812 C 227.304688 271.167969 228.960938 262.761719 229.753906 263.125 " fill-opacity="1" fill-rule="nonzero"/><path fill="#000000" d="M 209.355469 239.03125 C 209.355469 239.03125 212.140625 241.347656 213.097656 246.3125 C 214.058594 251.273438 210.308594 247.976562 209.054688 247.898438 C 206.441406 247.738281 208.398438 238.664062 209.355469 239.03125 " fill-opacity="1" fill-rule="nonzero"/><path fill="#000000" d="M 114.433594 146.742188 C 108.765625 136.410156 100.511719 141.578125 100.511719 141.578125 C 100.324219 141.582031 100.140625 141.597656 99.953125 141.609375 C 99.769531 141.597656 99.589844 141.582031 99.394531 141.578125 C 99.394531 141.578125 91.148438 136.410156 85.476562 146.742188 C 79.808594 157.078125 71.042969 167.410156 77.226562 177.226562 C 83.417969 187.042969 91.148438 179.8125 93.730469 180.328125 C 95.566406 180.695312 97.144531 182.375 99.953125 182 C 102.765625 182.375 104.34375 180.695312 106.183594 180.328125 C 108.765625 179.8125 116.496094 187.042969 122.683594 177.226562 C 128.871094 167.410156 120.105469 157.078125 114.433594 146.742188 " fill-opacity="1" fill-rule="nonzero"/><path fill="#000000" d="M 65.617188 120.261719 C 65.617188 120.261719 59.507812 120.863281 57.765625 131.5 C 56.027344 142.132812 64.390625 154.625 70.195312 151.574219 C 76.003906 148.523438 79.691406 139.09375 76.800781 133.167969 C 73.007812 125.382812 71.5625 118.566406 65.617188 120.261719 " fill-opacity="1" fill-rule="nonzero"/><path fill="#000000" d="M 87.691406 99.371094 C 87.691406 99.371094 76.292969 101.621094 75.625 115.015625 C 74.984375 127.886719 81.378906 136.347656 91.796875 132.839844 C 96.875 131.136719 97.417969 121.523438 96.351562 112.910156 C 95.421875 105.386719 93.679688 98.683594 87.691406 99.371094 " fill-opacity="1" fill-rule="nonzero"/><path fill="#000000" d="M 65.886719 109.203125 C 65.886719 109.203125 63.515625 111.652344 62.859375 116.617188 C 62.203125 121.582031 65.382812 118.109375 66.488281 117.960938 C 68.785156 117.65625 66.71875 108.785156 65.886719 109.203125 " fill-opacity="1" fill-rule="nonzero"/><path fill="#000000" d="M 87.285156 89.113281 C 87.285156 89.113281 84.496094 91.429688 83.539062 96.390625 C 82.585938 101.355469 86.332031 98.054688 87.585938 97.980469 C 90.199219 97.816406 88.238281 88.742188 87.285156 89.113281 " fill-opacity="1" fill-rule="nonzero"/><path fill="#000000" d="M 131.59375 123.597656 C 131.59375 123.597656 137.359375 123.960938 139.34375 133.902344 C 141.324219 143.84375 133.871094 155.867188 128.3125 153.1875 C 122.757812 150.507812 118.976562 141.769531 121.5 136.09375 C 124.808594 128.652344 125.949219 122.199219 131.59375 123.597656 " fill-opacity="1" fill-rule="nonzero"/><path fill="#000000" d="M 110.171875 99.371094 C 110.171875 99.371094 121.570312 101.621094 122.234375 115.015625 C 122.875 127.886719 116.484375 136.347656 106.066406 132.839844 C 100.988281 131.136719 100.441406 121.523438 101.511719 112.910156 C 102.441406 105.386719 104.1875 98.683594 110.171875 99.371094 " fill-opacity="1" fill-rule="nonzero"/><path fill="#000000" d="M 130.976562 113.207031 C 130.976562 113.207031 133.289062 115.429688 134.066406 120.078125 C 134.847656 124.726562 131.742188 121.566406 130.699219 121.464844 C 128.527344 121.25 130.183594 112.84375 130.976562 113.207031 " fill-opacity="1" fill-rule="nonzero"/><path fill="#000000" d="M 110.578125 89.113281 C 110.578125 89.113281 113.363281 91.429688 114.320312 96.390625 C 115.28125 101.355469 111.53125 98.054688 110.273438 97.980469 C 107.664062 97.816406 109.625 88.742188 110.578125 89.113281 " fill-opacity="1" fill-rule="nonzero"/><g clip-path="url(#7b8ec54b05)"><path fill="#000000" d="M 213.210938 168.738281 C 207.539062 158.40625 199.289062 163.574219 199.289062 163.574219 C 199.101562 163.578125 198.917969 163.59375 198.730469 163.605469 C 198.546875 163.59375 198.363281 163.578125 198.171875 163.574219 C 198.171875 163.574219 189.925781 158.40625 184.253906 168.738281 C 178.582031 179.070312 169.820312 189.40625 176.003906 199.222656 C 182.1875 209.039062 189.925781 201.804688 192.503906 202.324219 C 194.34375 202.691406 195.921875 204.371094 198.730469 203.996094 C 201.546875 204.371094 203.125 202.691406 204.964844 202.324219 C 207.539062 201.804688 215.273438 209.039062 221.457031 199.222656 C 227.648438 189.40625 218.882812 179.070312 213.210938 168.738281 " fill-opacity="1" fill-rule="nonzero"/></g><path fill="#000000" d="M 164.398438 142.257812 C 164.398438 142.257812 158.28125 142.859375 156.539062 153.492188 C 154.800781 164.128906 163.167969 176.621094 168.972656 173.570312 C 174.777344 170.519531 178.46875 161.089844 175.578125 155.160156 C 171.785156 147.378906 170.339844 140.5625 164.398438 142.257812 " fill-opacity="1" fill-rule="nonzero"/><path fill="#000000" d="M 186.46875 121.367188 C 186.46875 121.367188 175.070312 123.613281 174.402344 137.011719 C 173.761719 149.882812 180.15625 158.339844 190.574219 154.839844 C 195.652344 153.128906 196.199219 143.515625 195.132812 134.90625 C 194.199219 127.382812 192.453125 120.679688 186.46875 121.367188 " fill-opacity="1" fill-rule="nonzero"/><path fill="#000000" d="M 164.660156 131.199219 C 164.660156 131.199219 162.292969 133.648438 161.636719 138.613281 C 160.980469 143.578125 164.160156 140.105469 165.265625 139.957031 C 167.5625 139.652344 165.492188 130.78125 164.660156 131.199219 " fill-opacity="1" fill-rule="nonzero"/><path fill="#000000" d="M 186.0625 111.109375 C 186.0625 111.109375 183.273438 113.425781 182.316406 118.386719 C 181.359375 123.351562 185.109375 120.050781 186.363281 119.972656 C 188.972656 119.8125 187.015625 110.738281 186.0625 111.109375 " fill-opacity="1" fill-rule="nonzero"/><path fill="#000000" d="M 230.371094 145.589844 C 230.371094 145.589844 236.136719 145.957031 238.121094 155.898438 C 240.101562 165.839844 232.648438 177.859375 227.089844 175.183594 C 221.53125 172.503906 217.753906 163.765625 220.277344 158.089844 C 223.585938 150.648438 224.726562 144.191406 230.371094 145.589844 " fill-opacity="1" fill-rule="nonzero"/><path fill="#000000" d="M 208.949219 121.367188 C 208.949219 121.367188 220.347656 123.613281 221.011719 137.011719 C 221.652344 149.882812 215.261719 158.339844 204.84375 154.839844 C 199.761719 153.128906 199.21875 143.515625 200.285156 134.90625 C 201.21875 127.382812 202.960938 120.679688 208.949219 121.367188 " fill-opacity="1" fill-rule="nonzero"/><path fill="#000000" d="M 229.753906 135.203125 C 229.753906 135.203125 232.0625 137.425781 232.84375 142.074219 C 233.625 146.722656 230.519531 143.558594 229.472656 143.457031 C 227.304688 143.242188 228.960938 134.835938 229.753906 135.203125 " fill-opacity="1" fill-rule="nonzero"/><path fill="#000000" d="M 209.355469 111.109375 C 209.355469 111.109375 212.140625 113.425781 213.097656 118.386719 C 214.058594 123.351562 210.308594 120.050781 209.054688 119.972656 C 206.441406 119.8125 208.398438 110.738281 209.355469 111.109375 " fill-opacity="1" fill-rule="nonzero"/></svg>