<svg xmlns="http://www.w3.org/2000/svg" xmlns:xlink="http://www.w3.org/1999/xlink" width="396" zoomAndPan="magnify" viewBox="0 0 297.12 419.249996" height="559" preserveAspectRatio="xMidYMid meet" version="1.0"><defs><g/><clipPath id="8bfe3e7e8b"><path d="M 0 0.246094 L 296.238281 0.246094 L 296.238281 417.367188 L 0 417.367188 Z M 0 0.246094 " clip-rule="nonzero"/></clipPath><clipPath id="46894056ce"><path d="M 30.636719 45.234375 L 266.433594 45.234375 L 266.433594 380.753906 L 30.636719 380.753906 Z M 30.636719 45.234375 " clip-rule="nonzero"/></clipPath><clipPath id="55973e6e16"><path d="M 68 78.59375 L 74.253906 78.59375 L 74.253906 84.371094 L 68 84.371094 Z M 68 78.59375 " clip-rule="nonzero"/></clipPath><clipPath id="5abdf5da71"><path d="M 71.335938 78.671875 C 73.574219 79.714844 74.171875 80.835938 74.171875 81.65625 C 74.097656 82.402344 73.425781 83.445312 72.828125 83.894531 C 72.15625 84.265625 70.886719 84.339844 70.21875 84.042969 C 69.472656 83.667969 68.722656 82.699219 68.574219 81.953125 C 68.5 81.207031 68.875 80.011719 69.472656 79.417969 C 69.992188 78.894531 71.1875 78.59375 71.933594 78.746094 C 72.679688 78.894531 73.648438 79.714844 73.949219 80.460938 C 74.246094 81.132812 74.171875 82.402344 73.648438 83.074219 C 73.128906 83.746094 71.558594 84.339844 70.664062 84.339844 C 69.992188 84.265625 69.246094 83.894531 68.875 83.445312 C 68.425781 83.074219 68.054688 82.253906 68.054688 81.65625 C 67.976562 80.984375 68.203125 80.238281 68.648438 79.714844 C 69.023438 79.265625 70.367188 78.671875 70.367188 78.671875 " clip-rule="nonzero"/></clipPath><clipPath id="5f86f367a9"><path d="M 73.109375 71 L 78.890625 71 L 78.890625 76.839844 L 73.109375 76.839844 Z M 73.109375 71 " clip-rule="nonzero"/></clipPath><clipPath id="0529f716d8"><path d="M 73.203125 73.820312 C 75.066406 71.058594 76.335938 70.984375 77.007812 71.207031 C 77.753906 71.507812 78.574219 72.476562 78.722656 73.222656 C 78.871094 73.96875 78.574219 75.238281 78.050781 75.761719 C 77.453125 76.355469 76.335938 76.730469 75.515625 76.582031 C 74.769531 76.507812 73.796875 75.683594 73.425781 75.015625 C 73.128906 74.34375 73.203125 73.074219 73.574219 72.402344 C 74.023438 71.730469 75.140625 71.132812 75.8125 71.058594 C 76.410156 70.984375 77.082031 71.132812 77.53125 71.507812 C 78.125 71.953125 78.796875 73.074219 78.796875 73.820312 C 78.796875 74.640625 78.277344 75.683594 77.679688 76.207031 C 77.230469 76.65625 76.410156 76.804688 75.8125 76.804688 C 75.140625 76.730469 74.394531 76.355469 74.023438 75.910156 C 73.574219 75.460938 73.203125 74.117188 73.203125 74.117188 " clip-rule="nonzero"/></clipPath><clipPath id="f9c484d39c"><path d="M 61 69.582031 L 84.492188 69.582031 L 84.492188 116.609375 L 61 116.609375 Z M 61 69.582031 " clip-rule="nonzero"/></clipPath><clipPath id="d573d37200"><path d="M 69.84375 88.894531 C 81.1875 70.238281 82.15625 69.640625 82.828125 69.863281 C 83.5 70.015625 84.246094 70.835938 84.320312 72.027344 C 84.46875 76.058594 73.277344 92.175781 69.917969 99.636719 C 67.828125 104.414062 66.039062 108.890625 65.441406 111.800781 C 65.066406 113.292969 65.664062 114.636719 65.144531 115.382812 C 64.769531 115.980469 63.949219 116.578125 63.351562 116.503906 C 62.753906 116.429688 61.933594 115.757812 61.636719 114.785156 C 60.664062 111.578125 65.589844 97.921875 66.335938 92.175781 C 66.785156 88.667969 65.738281 84.640625 66.710938 83.667969 C 67.308594 83.148438 68.351562 83.148438 69.023438 83.519531 C 70.140625 84.117188 71.933594 87.101562 72.007812 88.222656 C 72.007812 88.96875 71.558594 89.566406 71.039062 89.9375 C 70.589844 90.234375 69.695312 90.3125 69.171875 90.085938 C 68.648438 89.789062 67.976562 88.59375 67.976562 87.921875 C 67.976562 87.402344 68.574219 86.65625 69.097656 86.429688 C 69.695312 86.132812 70.964844 86.429688 71.484375 86.878906 C 71.859375 87.25 72.082031 88.148438 71.933594 88.667969 C 71.785156 89.191406 71.1875 89.9375 70.664062 90.085938 C 70.066406 90.3125 69.097656 90.011719 68.351562 89.414062 C 67.15625 88.445312 65.292969 85.386719 65.144531 83.746094 C 65.066406 82.550781 65.664062 81.058594 66.410156 80.609375 C 67.082031 80.238281 68.574219 80.3125 69.246094 80.910156 C 70.21875 81.804688 70.441406 84.265625 70.515625 87.101562 C 70.515625 92.996094 66.785156 111.652344 65.292969 114.933594 C 64.917969 115.757812 64.695312 116.128906 64.246094 116.277344 C 63.726562 116.503906 62.679688 116.351562 62.15625 115.980469 C 61.710938 115.53125 61.488281 114.785156 61.488281 113.742188 C 61.5625 110.90625 64.320312 103.890625 66.785156 97.996094 C 70.140625 90.011719 77.679688 73.222656 80.738281 70.613281 C 81.558594 69.863281 82.304688 69.640625 82.828125 69.863281 C 83.5 70.089844 84.320312 71.132812 84.320312 72.027344 C 84.246094 73.523438 81.632812 75.683594 80.140625 78.148438 C 78.050781 81.65625 75.515625 89.863281 73.351562 91.355469 C 72.382812 92.027344 71.039062 92.101562 70.441406 91.730469 C 69.84375 91.28125 69.84375 88.894531 69.84375 88.894531 " clip-rule="nonzero"/></clipPath><clipPath id="f1ac903ff5"><path d="M 70 73.660156 L 80 73.660156 L 80 99.289062 L 70 99.289062 Z M 70 73.660156 " clip-rule="nonzero"/></clipPath><clipPath id="5ee3045833"><path d="M 74.84375 75.761719 C 75.738281 86.355469 75.960938 95.011719 74.917969 97.472656 C 74.542969 98.445312 73.949219 99.117188 73.277344 99.191406 C 72.605469 99.265625 71.335938 98.742188 70.964844 97.847656 C 70.140625 95.980469 73.128906 90.085938 73.5 86.730469 C 73.796875 83.96875 72.828125 80.757812 73.425781 79.191406 C 73.796875 78.296875 74.46875 77.625 75.066406 77.402344 C 75.515625 77.253906 76.113281 77.328125 76.484375 77.550781 C 77.007812 77.847656 77.304688 78.296875 77.605469 79.191406 C 78.574219 81.878906 80.140625 94.191406 79.320312 96.726562 C 79.097656 97.550781 78.648438 97.996094 78.125 98.144531 C 77.457031 98.371094 76.1875 97.921875 75.738281 97.472656 C 75.367188 97.027344 75.214844 96.132812 75.441406 95.609375 C 75.738281 95.011719 76.859375 94.265625 77.53125 94.265625 C 78.125 94.265625 78.871094 94.714844 79.097656 95.234375 C 79.394531 95.832031 79.246094 97.175781 78.796875 97.699219 C 78.425781 98.144531 77.53125 98.445312 77.007812 98.296875 C 76.410156 98.070312 75.8125 97.472656 75.367188 96.429688 C 74.097656 93.742188 72.382812 81.878906 73.425781 79.191406 C 73.875 78.074219 74.84375 77.402344 75.515625 77.328125 C 76.113281 77.253906 76.859375 77.699219 77.230469 78.222656 C 77.753906 78.96875 77.828125 80.238281 77.828125 81.730469 C 77.902344 84.117188 77.457031 88.296875 76.785156 91.28125 C 76.1875 93.96875 75.441406 97.847656 74.171875 98.742188 C 73.5 99.265625 72.457031 99.265625 71.859375 98.964844 C 71.335938 98.667969 70.964844 98.070312 70.8125 97.175781 C 70.367188 95.308594 71.484375 91.207031 71.410156 87.921875 C 71.335938 84.117188 69.769531 77.925781 70.140625 75.835938 C 70.292969 75.089844 70.515625 74.714844 70.886719 74.34375 C 71.261719 73.96875 71.933594 73.746094 72.457031 73.671875 C 72.976562 73.671875 73.648438 73.894531 74.023438 74.269531 C 74.46875 74.640625 74.84375 75.761719 74.84375 75.761719 " clip-rule="nonzero"/></clipPath><clipPath id="9a4daf16d7"><path d="M 69.417969 76.367188 L 85.8125 76.367188 L 85.8125 124.683594 L 69.417969 124.683594 Z M 69.417969 76.367188 " clip-rule="nonzero"/></clipPath><clipPath id="877b19c80d"><path d="M 85.589844 79.566406 C 76.335938 110.085938 74.769531 120.308594 73.351562 122.996094 C 72.902344 123.816406 72.605469 124.1875 72.15625 124.410156 C 71.785156 124.5625 71.261719 124.636719 70.886719 124.410156 C 70.367188 124.1875 69.546875 123.144531 69.472656 122.546875 C 69.472656 122.023438 69.917969 121.203125 70.367188 120.90625 C 70.8125 120.605469 71.710938 120.53125 72.230469 120.753906 C 72.753906 121.054688 73.351562 122.25 73.425781 122.84375 C 73.425781 123.21875 73.203125 123.664062 72.828125 123.964844 C 72.457031 124.261719 71.632812 124.5625 71.113281 124.488281 C 70.664062 124.488281 70.292969 124.1875 69.992188 123.890625 C 69.695312 123.515625 69.546875 123.070312 69.546875 122.097656 C 69.472656 119.039062 72.230469 108.890625 74.023438 101.953125 C 76.039062 94.339844 79.46875 81.207031 81.035156 78.222656 C 81.410156 77.402344 81.632812 77.101562 82.082031 76.878906 C 82.527344 76.582031 83.199219 76.433594 83.722656 76.507812 C 84.320312 76.65625 85.214844 77.328125 85.515625 77.925781 C 85.738281 78.371094 85.589844 79.566406 85.589844 79.566406 " clip-rule="nonzero"/></clipPath><clipPath id="a8668e0bc0"><path d="M 64.839844 79.382812 L 81.652344 79.382812 L 81.652344 110.988281 L 64.839844 110.988281 Z M 64.839844 79.382812 " clip-rule="nonzero"/></clipPath><clipPath id="8759d509d9"><path d="M 81.261719 82.921875 C 68.425781 110.234375 68.351562 110.457031 67.902344 110.609375 C 67.457031 110.832031 66.484375 110.90625 65.964844 110.609375 C 65.515625 110.382812 64.917969 109.636719 64.917969 109.039062 C 64.84375 108.367188 65.589844 107.175781 66.1875 106.875 C 66.636719 106.652344 67.605469 106.726562 68.054688 107.101562 C 68.574219 107.472656 69.023438 108.816406 68.875 109.414062 C 68.800781 109.859375 68.5 110.234375 68.128906 110.457031 C 67.679688 110.757812 66.710938 110.832031 66.1875 110.683594 C 65.738281 110.609375 65.367188 110.234375 65.21875 109.859375 C 64.917969 109.414062 64.917969 108.890625 65.066406 107.921875 C 65.738281 104.117188 74.695312 84.042969 76.785156 80.910156 C 77.304688 80.164062 77.53125 79.9375 78.050781 79.714844 C 78.574219 79.492188 79.246094 79.417969 79.769531 79.640625 C 80.367188 79.863281 81.1875 80.609375 81.410156 81.207031 C 81.632812 81.730469 81.261719 83 81.261719 83 " clip-rule="nonzero"/></clipPath><clipPath id="be89c94071"><path d="M 64 77.242188 L 72.652344 77.242188 L 72.652344 98.554688 L 64 98.554688 Z M 64 77.242188 " clip-rule="nonzero"/></clipPath><clipPath id="00b892ca2d"><path d="M 72.605469 80.460938 C 67.605469 98.070312 67.308594 98.21875 66.933594 98.371094 C 66.335938 98.519531 65.367188 98.445312 64.917969 98.070312 C 64.398438 97.625 63.949219 96.28125 64.171875 95.609375 C 64.398438 95.011719 65.664062 94.265625 66.335938 94.265625 C 66.933594 94.265625 67.753906 94.789062 67.976562 95.308594 C 68.277344 95.90625 68.128906 97.324219 67.679688 97.847656 C 67.308594 98.296875 66.335938 98.519531 65.738281 98.445312 C 65.292969 98.371094 64.84375 98.144531 64.621094 97.773438 C 64.246094 97.324219 64.097656 96.804688 64.097656 95.832031 C 64.097656 93.070312 66.710938 81.730469 67.753906 79.265625 C 68.128906 78.445312 68.277344 78.074219 68.800781 77.773438 C 69.246094 77.476562 69.917969 77.253906 70.515625 77.328125 C 71.039062 77.402344 71.710938 77.699219 72.082031 78.148438 C 72.457031 78.671875 72.605469 80.460938 72.605469 80.460938 " clip-rule="nonzero"/></clipPath><clipPath id="fa2262cef4"><path d="M 185.378906 338.519531 L 205.855469 338.519531 L 205.855469 353.835938 L 185.378906 353.835938 Z M 185.378906 338.519531 " clip-rule="nonzero"/></clipPath><clipPath id="ecc3ddfca7"><path d="M 186.625 349.089844 C 203.785156 338.570312 204.085938 338.644531 204.457031 338.867188 C 204.980469 339.09375 205.652344 339.765625 205.726562 340.359375 C 205.800781 341.03125 205.203125 342.375 204.605469 342.675781 C 204.011719 342.972656 202.59375 342.675781 202.144531 342.226562 C 201.695312 341.851562 201.398438 340.882812 201.621094 340.359375 C 201.769531 339.6875 202.890625 338.792969 203.5625 338.71875 C 204.160156 338.644531 204.980469 339.167969 205.351562 339.539062 C 205.652344 339.914062 205.800781 340.359375 205.800781 340.808594 C 205.726562 341.40625 205.503906 341.851562 204.832031 342.597656 C 202.816406 344.839844 191.996094 352.152344 189.382812 353.269531 C 188.5625 353.644531 188.191406 353.792969 187.667969 353.644531 C 186.996094 353.570312 186.101562 352.898438 185.726562 352.300781 C 185.429688 351.777344 185.429688 351.105469 185.578125 350.507812 C 185.726562 349.988281 186.625 349.089844 186.625 349.089844 " clip-rule="nonzero"/></clipPath><clipPath id="2b824cf9a8"><path d="M 199.597656 336.675781 L 205.546875 336.675781 L 205.546875 342.535156 L 199.597656 342.535156 Z M 199.597656 336.675781 " clip-rule="nonzero"/></clipPath><clipPath id="2da3251a61"><path d="M 200.949219 337.300781 C 204.308594 337.226562 205.128906 338.121094 205.351562 338.867188 C 205.503906 339.613281 205.203125 340.882812 204.679688 341.40625 C 204.160156 342.003906 202.964844 342.449219 202.21875 342.300781 C 201.472656 342.226562 200.429688 341.480469 200.128906 340.808594 C 199.757812 340.136719 199.832031 338.867188 200.203125 338.195312 C 200.578125 337.527344 201.621094 336.855469 202.367188 336.777344 C 203.1875 336.703125 204.308594 337.300781 204.757812 337.824219 C 205.203125 338.273438 205.425781 338.867188 205.425781 339.464844 C 205.351562 340.210938 204.832031 341.332031 204.234375 341.851562 C 203.710938 342.300781 202.964844 342.523438 202.367188 342.523438 C 201.769531 342.523438 200.949219 342.226562 200.503906 341.777344 C 199.980469 341.257812 199.605469 340.0625 199.605469 339.316406 C 199.683594 338.644531 200.578125 337.527344 200.578125 337.527344 " clip-rule="nonzero"/></clipPath><clipPath id="ba30699c90"><path d="M 228.484375 315 L 236.851562 315 L 236.851562 320.914062 L 228.484375 320.914062 Z M 228.484375 315 " clip-rule="nonzero"/></clipPath><clipPath id="4cc63bedd2"><path d="M 233.632812 320.886719 C 229.378906 319.765625 228.785156 318.796875 228.632812 318.125 C 228.484375 317.527344 228.632812 316.855469 228.933594 316.332031 C 229.230469 315.886719 229.679688 315.363281 230.277344 315.214844 C 230.949219 314.992188 232.214844 314.992188 232.8125 315.4375 C 233.484375 315.8125 234.082031 316.929688 234.082031 317.675781 C 234.082031 318.421875 233.484375 319.542969 232.960938 319.988281 C 232.515625 320.363281 231.769531 320.511719 231.246094 320.511719 C 230.722656 320.4375 230.050781 320.289062 229.605469 319.839844 C 229.082031 319.394531 228.558594 318.273438 228.558594 317.527344 C 228.632812 316.707031 229.230469 315.738281 229.976562 315.363281 C 230.949219 314.765625 233.335938 315.066406 234.453125 315.363281 C 235.125 315.585938 235.722656 315.8125 236.171875 316.332031 C 236.542969 316.929688 236.84375 318.125 236.691406 318.871094 C 236.542969 319.46875 236.023438 320.066406 235.574219 320.4375 C 235.050781 320.734375 233.632812 320.886719 233.632812 320.886719 " clip-rule="nonzero"/></clipPath><clipPath id="9a119e57c6"><path d="M 14.5625 45.058594 L 50.378906 45.058594 L 50.378906 80.875 L 14.5625 80.875 Z M 14.5625 45.058594 " clip-rule="nonzero"/></clipPath><clipPath id="737eea1c06"><path d="M 248.433594 344.933594 L 284.25 344.933594 L 284.25 380.410156 L 248.433594 380.410156 Z M 248.433594 344.933594 " clip-rule="nonzero"/></clipPath><clipPath id="1f8223b213"><path d="M 253.804688 45.265625 L 279.175781 45.265625 L 279.175781 70.636719 L 253.804688 70.636719 Z M 253.804688 45.265625 " clip-rule="nonzero"/></clipPath><clipPath id="25d025b8a1"><path d="M 19.933594 355.667969 L 45.304688 355.667969 L 45.304688 380.992188 L 19.933594 380.992188 Z M 19.933594 355.667969 " clip-rule="nonzero"/></clipPath><clipPath id="da90ebe4df"><path d="M 60 83 L 238 83 L 238 335.292969 L 60 335.292969 Z M 60 83 " clip-rule="nonzero"/></clipPath></defs><g clip-path="url(#8bfe3e7e8b)"><path fill="#ffffff" d="M 0 0.246094 L 296.238281 0.246094 L 296.238281 417.367188 L 0 417.367188 Z M 0 0.246094 " fill-opacity="1" fill-rule="nonzero"/><path fill="#ffffff" d="M 0 0.246094 L 296.238281 0.246094 L 296.238281 417.367188 L 0 417.367188 Z M 0 0.246094 " fill-opacity="1" fill-rule="nonzero"/></g><g fill="#010101" fill-opacity="1"><g transform="translate(288.143569, 387.070508)"><g><path d="M -4.828125 0 L -4.828125 1.765625 L -9.140625 1.765625 L -9.140625 22.359375 L -4.140625 19.125 L -4.140625 21.296875 L -10.1875 25.21875 L -12.46875 25.21875 L -12.46875 1.765625 L -16.78125 1.765625 L -16.78125 0 Z M -4.828125 0 "/></g></g><g transform="translate(266.535616, 387.070508)"><g><path d="M -10.796875 1.15625 C -12.484375 1.15625 -13.75 2.082031 -14.59375 3.9375 C -15.4375 5.800781 -15.859375 8.609375 -15.859375 12.359375 C -15.859375 16.117188 -15.4375 18.925781 -14.59375 20.78125 C -13.75 22.632812 -12.484375 23.5625 -10.796875 23.5625 C -9.109375 23.5625 -7.84375 22.632812 -7 20.78125 C -6.15625 18.925781 -5.734375 16.117188 -5.734375 12.359375 C -5.734375 8.609375 -6.15625 5.800781 -7 3.9375 C -7.84375 2.082031 -9.109375 1.15625 -10.796875 1.15625 Z M -10.796875 -0.484375 C -8.109375 -0.484375 -6.007812 0.640625 -4.5 2.890625 C -2.988281 5.148438 -2.234375 8.304688 -2.234375 12.359375 C -2.234375 16.410156 -2.988281 19.566406 -4.5 21.828125 C -6.007812 24.085938 -8.109375 25.21875 -10.796875 25.21875 C -13.492188 25.21875 -15.59375 24.085938 -17.09375 21.828125 C -18.601562 19.566406 -19.359375 16.410156 -19.359375 12.359375 C -19.359375 8.304688 -18.601562 5.148438 -17.09375 2.890625 C -15.59375 0.640625 -13.492188 -0.484375 -10.796875 -0.484375 Z M -10.796875 -0.484375 "/></g></g></g><g fill="#010101" fill-opacity="1"><g transform="translate(45.738591, 386.622826)"><g><path d="M -3.375 0 L -3.375 1.234375 L -6.390625 1.234375 L -6.390625 15.625 L -2.890625 13.359375 L -2.890625 14.875 L -7.109375 17.609375 L -8.71875 17.609375 L -8.71875 1.234375 L -11.734375 1.234375 L -11.734375 0 Z M -3.375 0 "/></g></g><g transform="translate(30.64101, 386.622826)"><g><path d="M -7.546875 0.8125 C -8.722656 0.8125 -9.601562 1.457031 -10.1875 2.75 C -10.78125 4.050781 -11.078125 6.015625 -11.078125 8.640625 C -11.078125 11.265625 -10.78125 13.222656 -10.1875 14.515625 C -9.601562 15.816406 -8.722656 16.46875 -7.546875 16.46875 C -6.359375 16.46875 -5.472656 15.816406 -4.890625 14.515625 C -4.304688 13.222656 -4.015625 11.265625 -4.015625 8.640625 C -4.015625 6.015625 -4.304688 4.050781 -4.890625 2.75 C -5.472656 1.457031 -6.359375 0.8125 -7.546875 0.8125 Z M -7.546875 -0.34375 C -5.671875 -0.34375 -4.203125 0.441406 -3.140625 2.015625 C -2.085938 3.597656 -1.5625 5.804688 -1.5625 8.640625 C -1.5625 11.472656 -2.085938 13.675781 -3.140625 15.25 C -4.203125 16.820312 -5.671875 17.609375 -7.546875 17.609375 C -9.429688 17.609375 -10.898438 16.820312 -11.953125 15.25 C -13.003906 13.675781 -13.53125 11.472656 -13.53125 8.640625 C -13.53125 5.804688 -13.003906 3.597656 -11.953125 2.015625 C -10.898438 0.441406 -9.429688 -0.34375 -7.546875 -0.34375 Z M -7.546875 -0.34375 "/></g></g></g><g fill="#010101" fill-opacity="1"><g transform="translate(251.413373, 39.367126)"><g><path d="M 3.375 0 L 3.375 -1.234375 L 6.390625 -1.234375 L 6.390625 -15.625 L 2.890625 -13.359375 L 2.890625 -14.875 L 7.109375 -17.609375 L 8.71875 -17.609375 L 8.71875 -1.234375 L 11.734375 -1.234375 L 11.734375 0 Z M 3.375 0 "/></g></g><g transform="translate(266.510954, 39.367126)"><g><path d="M 7.546875 -0.8125 C 8.722656 -0.8125 9.601562 -1.457031 10.1875 -2.75 C 10.78125 -4.050781 11.078125 -6.015625 11.078125 -8.640625 C 11.078125 -11.265625 10.78125 -13.222656 10.1875 -14.515625 C 9.601562 -15.816406 8.722656 -16.46875 7.546875 -16.46875 C 6.359375 -16.46875 5.472656 -15.816406 4.890625 -14.515625 C 4.304688 -13.222656 4.015625 -11.265625 4.015625 -8.640625 C 4.015625 -6.015625 4.304688 -4.050781 4.890625 -2.75 C 5.472656 -1.457031 6.359375 -0.8125 7.546875 -0.8125 Z M 7.546875 0.34375 C 5.671875 0.34375 4.203125 -0.441406 3.140625 -2.015625 C 2.085938 -3.597656 1.5625 -5.804688 1.5625 -8.640625 C 1.5625 -11.472656 2.085938 -13.675781 3.140625 -15.25 C 4.203125 -16.820312 5.671875 -17.609375 7.546875 -17.609375 C 9.429688 -17.609375 10.898438 -16.820312 11.953125 -15.25 C 13.003906 -13.675781 13.53125 -11.472656 13.53125 -8.640625 C 13.53125 -5.804688 13.003906 -3.597656 11.953125 -2.015625 C 10.898438 -0.441406 9.429688 0.34375 7.546875 0.34375 Z M 7.546875 0.34375 "/></g></g></g><g fill="#010101" fill-opacity="1"><g transform="translate(9.026029, 37.945572)"><g><path d="M 4.828125 0 L 4.828125 -1.75 L 9.140625 -1.75 L 9.140625 -22.34375 L 4.140625 -19.109375 L 4.140625 -21.28125 L 10.171875 -25.203125 L 12.46875 -25.203125 L 12.46875 -1.75 L 16.78125 -1.75 L 16.78125 0 Z M 4.828125 0 "/></g></g></g><g fill="#010101" fill-opacity="1"><g transform="translate(30.627255, 37.945572)"><g><path d="M 10.796875 -1.15625 C 12.484375 -1.15625 13.742188 -2.082031 14.578125 -3.9375 C 15.421875 -5.800781 15.84375 -8.601562 15.84375 -12.34375 C 15.84375 -16.101562 15.421875 -18.910156 14.578125 -20.765625 C 13.742188 -22.628906 12.484375 -23.5625 10.796875 -23.5625 C 9.097656 -23.5625 7.828125 -22.628906 6.984375 -20.765625 C 6.148438 -18.910156 5.734375 -16.101562 5.734375 -12.34375 C 5.734375 -8.601562 6.148438 -5.800781 6.984375 -3.9375 C 7.828125 -2.082031 9.097656 -1.15625 10.796875 -1.15625 Z M 10.796875 0.484375 C 8.109375 0.484375 6.007812 -0.640625 4.5 -2.890625 C 2.988281 -5.148438 2.234375 -8.300781 2.234375 -12.34375 C 2.234375 -16.40625 2.988281 -19.5625 4.5 -21.8125 C 6.007812 -24.070312 8.109375 -25.203125 10.796875 -25.203125 C 13.492188 -25.203125 15.59375 -24.070312 17.09375 -21.8125 C 18.59375 -19.5625 19.34375 -16.40625 19.34375 -12.34375 C 19.34375 -8.300781 18.59375 -5.148438 17.09375 -2.890625 C 15.59375 -0.640625 13.492188 0.484375 10.796875 0.484375 Z M 10.796875 0.484375 "/></g></g></g><g clip-path="url(#46894056ce)"><path stroke-linecap="butt" transform="matrix(0.746195, 0, 0, 0.746195, 30.637603, 45.234836)" fill="none" stroke-linejoin="miter" d="M -0.00118541 -0.000618015 L 316.102365 -0.000618015 L 316.102365 449.639721 L -0.00118541 449.639721 Z M -0.00118541 -0.000618015 " stroke="#000000" stroke-width="6" stroke-opacity="1" stroke-miterlimit="4"/></g><g clip-path="url(#55973e6e16)"><g clip-path="url(#5abdf5da71)"><path fill="#ffffff" d="M 65.066406 75.683594 L 77.210938 75.683594 L 77.210938 87.324219 L 65.066406 87.324219 Z M 65.066406 75.683594 " fill-opacity="1" fill-rule="nonzero"/></g></g><g clip-path="url(#5f86f367a9)"><g clip-path="url(#0529f716d8)"><path fill="#ffffff" d="M 70.21875 68.074219 L 81.78125 68.074219 L 81.78125 79.777344 L 70.21875 79.777344 Z M 70.21875 68.074219 " fill-opacity="1" fill-rule="nonzero"/></g></g><g clip-path="url(#f9c484d39c)"><g clip-path="url(#d573d37200)"><path fill="#ffffff" d="M 58.5 66.878906 L 87.304688 66.878906 L 87.304688 119.535156 L 58.5 119.535156 Z M 58.5 66.878906 " fill-opacity="1" fill-rule="nonzero"/></g></g><g clip-path="url(#f1ac903ff5)"><g clip-path="url(#5ee3045833)"><path fill="#ffffff" d="M 67.15625 70.6875 L 82.378906 70.6875 L 82.378906 102.199219 L 67.15625 102.199219 Z M 67.15625 70.6875 " fill-opacity="1" fill-rule="nonzero"/></g></g><g clip-path="url(#9a4daf16d7)"><g clip-path="url(#877b19c80d)"><path fill="#ffffff" d="M 66.484375 73.523438 L 88.574219 73.523438 L 88.574219 127.445312 L 66.484375 127.445312 Z M 66.484375 73.523438 " fill-opacity="1" fill-rule="nonzero"/></g></g><g clip-path="url(#a8668e0bc0)"><g clip-path="url(#8759d509d9)"><path fill="#ffffff" d="M 61.933594 76.65625 L 84.46875 76.65625 L 84.46875 113.714844 L 61.933594 113.714844 Z M 61.933594 76.65625 " fill-opacity="1" fill-rule="nonzero"/></g></g><g clip-path="url(#be89c94071)"><g clip-path="url(#00b892ca2d)"><path fill="#ffffff" d="M 61.113281 74.34375 L 75.664062 74.34375 L 75.664062 101.453125 L 61.113281 101.453125 Z M 61.113281 74.34375 " fill-opacity="1" fill-rule="nonzero"/></g></g><g clip-path="url(#fa2262cef4)"><g clip-path="url(#ecc3ddfca7)"><path fill="#ffffff" d="M 182.59375 335.734375 L 208.886719 335.734375 L 208.886719 356.703125 L 182.59375 356.703125 Z M 182.59375 335.734375 " fill-opacity="1" fill-rule="nonzero"/></g></g><g clip-path="url(#2b824cf9a8)"><g clip-path="url(#2da3251a61)"><path fill="#ffffff" d="M 196.621094 333.792969 L 208.429688 333.792969 L 208.429688 345.507812 L 196.621094 345.507812 Z M 196.621094 333.792969 " fill-opacity="1" fill-rule="nonzero"/></g></g><g clip-path="url(#ba30699c90)"><g clip-path="url(#4cc63bedd2)"><path fill="#ffffff" d="M 225.574219 312.230469 L 239.671875 312.230469 L 239.671875 323.871094 L 225.574219 323.871094 Z M 225.574219 312.230469 " fill-opacity="1" fill-rule="nonzero"/></g></g><g clip-path="url(#9a119e57c6)"><path fill="#000000" d="M 32.46875 45.058594 C 28.234375 45.058594 24.796875 48.667969 24.796875 53.117188 C 24.832031 55.914062 26.277344 58.28125 27.78125 60.53125 C 26.105469 59.261719 24.242188 58.496094 22.238281 58.488281 C 18 58.488281 14.5625 62.097656 14.5625 66.546875 C 14.5625 70.996094 18 74.605469 22.238281 74.605469 C 25.667969 74.550781 28.414062 72.148438 31.109375 70.128906 C 30.628906 76.160156 29.644531 79.542969 23.941406 80.875 L 41 80.875 C 35.292969 79.542969 34.3125 76.160156 33.828125 70.128906 C 36.496094 72.414062 39.292969 74.351562 42.703125 74.605469 C 46.941406 74.605469 50.378906 70.996094 50.378906 66.546875 C 50.378906 62.097656 46.941406 58.488281 42.703125 58.488281 C 40.648438 58.488281 38.871094 59.433594 37.160156 60.53125 C 38.863281 58.304688 39.980469 55.902344 40.144531 53.117188 C 40.144531 48.667969 36.707031 45.058594 32.46875 45.058594 Z M 32.46875 45.058594 " fill-opacity="1" fill-rule="nonzero"/></g><g clip-path="url(#737eea1c06)"><path fill="#000000" d="M 266.339844 380.75 C 262.105469 380.75 258.664062 377.140625 258.664062 372.691406 C 258.703125 369.890625 260.148438 367.523438 261.648438 365.273438 C 259.972656 366.542969 258.113281 367.308594 256.105469 367.316406 C 251.871094 367.316406 248.433594 363.707031 248.433594 359.257812 C 248.433594 354.808594 251.871094 351.199219 256.105469 351.199219 C 259.539062 351.257812 262.285156 353.660156 264.980469 355.675781 C 264.5 349.648438 263.515625 346.261719 257.8125 344.933594 L 274.867188 344.933594 C 269.164062 346.261719 268.183594 349.648438 267.699219 355.675781 C 270.367188 353.390625 273.164062 351.453125 276.574219 351.199219 C 280.8125 351.199219 284.25 354.808594 284.25 359.257812 C 284.25 363.707031 280.8125 367.316406 276.574219 367.316406 C 274.519531 367.316406 272.742188 366.371094 271.03125 365.273438 C 272.734375 367.503906 273.851562 369.90625 274.015625 372.691406 C 274.015625 377.140625 270.578125 380.75 266.339844 380.75 Z M 266.339844 380.75 " fill-opacity="1" fill-rule="nonzero"/></g><g clip-path="url(#1f8223b213)"><path fill="#000000" d="M 266.488281 45.265625 C 263.488281 45.265625 261.054688 47.820312 261.054688 50.972656 C 261.078125 52.957031 262.101562 54.632812 263.167969 56.226562 C 261.980469 55.328125 260.660156 54.785156 259.242188 54.777344 C 256.238281 54.777344 253.804688 57.335938 253.804688 60.488281 C 253.804688 63.636719 256.238281 66.195312 259.242188 66.195312 C 261.671875 66.15625 263.617188 64.453125 265.527344 63.023438 C 265.183594 67.292969 264.488281 69.691406 260.449219 70.636719 L 272.53125 70.636719 C 268.488281 69.691406 267.792969 67.292969 267.453125 63.023438 C 269.339844 64.644531 271.320312 66.015625 273.738281 66.195312 C 276.738281 66.195312 279.175781 63.636719 279.175781 60.488281 C 279.175781 57.335938 276.738281 54.777344 273.738281 54.777344 C 272.28125 54.777344 271.023438 55.449219 269.8125 56.226562 C 271.015625 54.648438 271.8125 52.945312 271.925781 50.972656 C 271.925781 47.820312 269.492188 45.265625 266.488281 45.265625 Z M 266.488281 45.265625 " fill-opacity="1" fill-rule="nonzero"/></g><g clip-path="url(#25d025b8a1)"><path fill="#000000" d="M 32.621094 381.039062 C 29.617188 381.039062 27.183594 378.480469 27.183594 375.328125 C 27.207031 373.347656 28.230469 371.671875 29.296875 370.078125 C 28.109375 370.976562 26.789062 371.519531 25.371094 371.523438 C 22.371094 371.523438 19.933594 368.96875 19.933594 365.816406 C 19.933594 362.664062 22.371094 360.109375 25.371094 360.109375 C 27.800781 360.148438 29.746094 361.847656 31.65625 363.277344 C 31.316406 359.007812 30.621094 356.609375 26.578125 355.667969 L 38.660156 355.667969 C 34.621094 356.609375 33.925781 359.007812 33.582031 363.277344 C 35.46875 361.660156 37.453125 360.285156 39.867188 360.109375 C 42.871094 360.109375 45.304688 362.664062 45.304688 365.816406 C 45.304688 368.96875 42.871094 371.523438 39.867188 371.523438 C 38.410156 371.523438 37.152344 370.855469 35.941406 370.078125 C 37.148438 371.65625 37.941406 373.355469 38.054688 375.328125 C 38.054688 378.480469 35.621094 381.039062 32.621094 381.039062 Z M 32.621094 381.039062 " fill-opacity="1" fill-rule="nonzero"/></g><g clip-path="url(#da90ebe4df)"><path fill="#000000" d="M 236.34375 211.828125 C 237.144531 209.507812 236.890625 206.8125 235.710938 204.621094 C 234.992188 203.273438 234.066406 201.96875 232.96875 200.914062 C 232.421875 200.367188 231.703125 199.988281 231.03125 199.609375 C 231.113281 197.542969 229.003906 194.003906 228.414062 192.402344 C 227.320312 189.453125 225.589844 186.628906 224.242188 183.808594 C 222.933594 181.027344 220.992188 178.5 219.390625 175.800781 C 217.914062 173.230469 216.609375 170.578125 214.921875 168.132812 C 214.078125 166.953125 212.6875 165.859375 211.464844 164.761719 C 211.253906 162.402344 211.125 160 210.621094 157.683594 C 210.070312 154.988281 208.132812 152.460938 206.699219 150.140625 C 205.054688 147.488281 203.367188 144.792969 201.425781 142.347656 C 199.613281 140.113281 198.644531 137.25 196.453125 135.3125 C 194.890625 133.921875 192.570312 133.121094 190.589844 132.066406 C 190.503906 131.601562 190.464844 131.140625 190.335938 130.675781 C 190.085938 129.75 188.945312 128.738281 189.03125 127.769531 C 189.242188 127.8125 189.578125 127.8125 189.746094 127.894531 C 189.832031 126.292969 188.144531 125.367188 187.386719 124.105469 C 187.597656 124.019531 187.765625 123.722656 188.144531 123.683594 C 187.808594 122.882812 186.542969 122.25 186.542969 121.40625 C 186.753906 121.324219 186.878906 121.195312 187.046875 121.113281 C 186.542969 120.058594 184.898438 119.636719 184.8125 118.5 C 184.980469 118.457031 185.148438 118.457031 185.320312 118.414062 C 184.898438 117.402344 182.832031 116.605469 182.875 115.425781 C 183.042969 115.382812 183.210938 115.382812 183.378906 115.339844 C 182.914062 114.792969 182.242188 114.328125 182.367188 113.570312 C 182.621094 113.527344 182.914062 113.359375 183.085938 113.316406 C 182.453125 112.265625 180.175781 111.632812 180.257812 110.324219 C 180.425781 110.285156 180.597656 110.285156 180.765625 110.242188 C 180.511719 109.019531 178.867188 108.386719 178.53125 107.25 C 178.699219 107.207031 178.867188 107.207031 179.035156 107.164062 C 179.035156 106.15625 177.644531 105.859375 177.601562 104.847656 C 178.023438 104.847656 178.277344 104.59375 178.65625 104.59375 C 177.9375 103.964844 176.589844 103.542969 176.335938 102.65625 C 176.503906 102.613281 176.675781 102.613281 176.886719 102.574219 C 176.292969 101.6875 174.269531 101.519531 174.269531 100.339844 C 174.777344 100.214844 175.199219 99.960938 175.664062 99.835938 C 174.269531 98.738281 172.753906 97.601562 171.148438 96.84375 C 172.753906 94.316406 174.1875 91.535156 173.890625 88.5 C 173.46875 83.90625 169.378906 82.515625 165.414062 84.285156 C 164.148438 84.875 162.96875 85.636719 161.875 86.476562 C 157.78125 84.203125 153.230469 82.601562 148.464844 83.402344 C 145.890625 83.867188 143.320312 84.414062 140.703125 84.246094 C 138.089844 84.074219 135.519531 83.277344 132.902344 83.992188 C 131.34375 84.414062 129.953125 85.085938 128.855469 86.054688 C 125.945312 84.328125 122.066406 82.390625 119.199219 84.457031 C 115.65625 86.984375 117.34375 92.753906 119.199219 95.746094 C 119.914062 96.886719 120.800781 97.9375 121.730469 98.949219 C 120.800781 100.425781 120.378906 102.320312 119.875 103.878906 C 120.167969 103.878906 120.421875 104.089844 120.757812 104.046875 C 120.675781 104.976562 119.875 105.902344 119.832031 106.828125 C 120.125 106.871094 120.292969 107.039062 120.546875 107.039062 C 120.925781 109.144531 120.042969 111.421875 120.210938 113.570312 C 120.378906 113.570312 120.546875 113.613281 120.757812 113.613281 C 120.757812 114.625 120.082031 115.59375 120.210938 116.605469 C 120.378906 116.605469 120.546875 116.605469 120.757812 116.644531 C 120.925781 117.613281 120.800781 118.5 120.632812 119.425781 C 120.757812 119.257812 121.097656 119.089844 121.265625 118.921875 C 121.476562 120.269531 120.886719 121.660156 121.179688 122.964844 C 121.308594 122.839844 121.6875 122.796875 121.855469 122.585938 C 122.066406 123.722656 121.476562 124.777344 121.730469 125.914062 C 121.980469 125.832031 122.53125 125.875 122.824219 125.703125 C 122.910156 126.714844 122.234375 127.683594 122.277344 128.695312 C 122.570312 128.527344 123.035156 128.527344 123.332031 128.316406 C 123.203125 129.792969 122.445312 130.972656 122.699219 132.613281 C 124.597656 132.488281 121.980469 135.351562 121.9375 136.238281 C 122.191406 136.195312 122.570312 136.28125 122.867188 136.238281 C 122.445312 136.871094 122.023438 137.585938 121.730469 138.304688 C 121.980469 138.261719 122.359375 138.34375 122.613281 138.304688 C 122.359375 139.0625 121.433594 139.820312 121.390625 140.789062 C 121.347656 141.335938 121.644531 141.925781 121.898438 142.390625 C 121.265625 142.894531 120 143.191406 119.410156 143.652344 C 118.398438 144.414062 117.511719 145.464844 116.457031 146.265625 C 115.992188 146.601562 114.980469 147.65625 113.96875 148.542969 C 111.648438 146.855469 108.613281 145.929688 105.914062 145.296875 C 104.3125 144.917969 103.046875 144.832031 101.359375 144.917969 C 101.066406 144.917969 100.644531 145.003906 100.179688 145.085938 C 99.082031 144.285156 97.734375 143.570312 96.765625 142.683594 C 95.164062 141.253906 93.476562 139.988281 91.875 138.554688 C 89.257812 136.195312 85.96875 134.132812 82.386719 133.835938 C 81.203125 133.753906 80.234375 133.835938 79.308594 134.046875 C 78.503906 133.203125 77.242188 132.277344 76.523438 132.363281 C 75.46875 132.488281 75.257812 133.792969 75.175781 134.972656 C 73.699219 134.511719 72.054688 133.835938 70.535156 134.171875 C 69.566406 133.078125 68.386719 131.433594 67.457031 132.402344 C 66.699219 133.164062 66.867188 134.722656 67.121094 136.070312 C 66.53125 136.195312 65.980469 136.449219 65.390625 136.53125 C 64.632812 136.617188 62.902344 136.113281 62.3125 136.660156 C 61.34375 137.585938 62.355469 139.523438 63.242188 140.914062 C 62.4375 141 61.597656 141.210938 60.835938 141.292969 C 60.121094 143.023438 61.214844 144.621094 62.355469 146.054688 C 57.378906 147.78125 64.632812 154.609375 66.910156 156.671875 C 68.808594 158.359375 70.410156 160.761719 72.519531 162.109375 C 74.542969 163.414062 77.410156 164.089844 79.726562 164.847656 C 80.445312 165.058594 81.164062 165.226562 81.878906 165.351562 C 82.765625 166.953125 86.054688 168.851562 87.445312 169.269531 C 88.5 169.566406 90.144531 169.269531 90.988281 169.945312 C 91.492188 170.367188 91.113281 171 91.664062 171.378906 C 91.957031 171.546875 93.011719 171.378906 93.390625 171.503906 C 93.644531 173.441406 93.390625 173.273438 95.203125 173.820312 C 96.847656 174.285156 96.425781 174.707031 96.636719 176.351562 C 97.523438 176.054688 99.082031 175.761719 99.800781 176.476562 C 100.433594 177.109375 100.097656 178.835938 100.519531 179.679688 C 101.445312 179.636719 102.246094 179.171875 103.132812 179.046875 C 103.214844 179.890625 103.257812 180.773438 103.34375 181.617188 C 104.398438 181.617188 105.453125 181.28125 106.546875 181.320312 C 106.886719 183.679688 106.757812 182.964844 108.910156 182.921875 C 110.808594 182.878906 109.878906 183.808594 109.964844 185.367188 C 111.355469 185.367188 112.492188 184.101562 113.886719 184.269531 C 114.011719 185.15625 113.886719 186.167969 114.308594 187.011719 C 115.53125 186.96875 116.710938 185.535156 117.847656 186.125 C 117.933594 186.714844 117.722656 188.191406 118.3125 188.527344 C 118.777344 188.78125 119.832031 187.808594 120.675781 188.230469 C 120.800781 189.117188 120.757812 190.085938 120.886719 190.96875 C 121.898438 190.378906 122.867188 189.578125 123.835938 188.90625 C 124.679688 189.496094 124.34375 190.507812 124.722656 191.308594 C 125.648438 190.84375 126.03125 189.707031 126.875 189.160156 C 127.335938 189.960938 127 190.929688 127.503906 191.730469 C 127.589844 191.6875 127.714844 191.644531 127.800781 191.601562 C 127.085938 193.414062 125.523438 195.183594 124.46875 196.363281 C 125.101562 196.40625 125.734375 196.320312 126.367188 196.320312 C 126.03125 197.25 124.890625 198.21875 124.847656 199.355469 C 125.355469 199.523438 125.859375 199.691406 126.367188 199.902344 C 125.734375 200.535156 124.722656 201.96875 124.847656 202.9375 C 125.230469 202.851562 125.777344 202.980469 126.15625 202.9375 C 126.070312 203.441406 123.457031 207.699219 125.820312 207.277344 C 125.820312 208.457031 124.636719 209.382812 124.554688 210.519531 C 124.425781 212.417969 125.101562 210.6875 125.820312 211.574219 C 126.578125 212.457031 123.753906 216.167969 126.03125 216.628906 C 125.566406 218.019531 124.597656 219.621094 124.808594 221.136719 C 125.101562 221.054688 125.566406 221.222656 125.902344 221.136719 C 126.070312 222.570312 125.398438 224.128906 125.4375 225.648438 C 125.480469 227.246094 125.355469 228.890625 125.566406 230.492188 C 125.734375 230.367188 126.03125 230.324219 126.242188 230.113281 C 126.324219 231.417969 125.4375 232.683594 125.777344 234.03125 C 125.945312 233.945312 126.324219 233.945312 126.453125 233.863281 C 126.578125 235.210938 125.1875 236.433594 125.230469 237.824219 C 125.480469 237.738281 125.859375 237.867188 126.113281 237.824219 C 126.410156 239.003906 125.945312 240.308594 126.03125 241.53125 C 126.28125 241.445312 126.664062 241.617188 126.914062 241.53125 C 127.167969 242.753906 126.242188 243.804688 126.367188 245.070312 C 126.453125 245.914062 127 246.546875 127.421875 247.21875 C 125.945312 248.863281 124.722656 251.054688 123.585938 252.78125 C 123.332031 253.160156 121.855469 254.71875 121.855469 255.097656 C 121.855469 255.855469 122.742188 255.855469 123.375 256.363281 C 122.53125 256.996094 121.433594 257.878906 121.011719 258.890625 C 120.503906 260.070312 121.265625 260.28125 121.097656 261.164062 C 120.886719 262.554688 117.003906 265.167969 120.378906 265.886719 C 119.664062 266.433594 118.734375 267.484375 118.523438 268.328125 C 118.230469 269.296875 118.734375 269.84375 118.566406 270.773438 C 118.101562 273.003906 114.898438 274.101562 117.765625 275.660156 C 117.175781 276.375 116.164062 277.007812 115.613281 277.851562 C 114.769531 279.074219 115.234375 278.734375 115.488281 279.621094 C 115.488281 279.664062 116.035156 279.789062 116.121094 280 C 116.289062 280.503906 115.867188 280.757812 115.742188 281.179688 C 115.53125 282.105469 115.109375 283.035156 115.023438 283.960938 C 116.835938 283.625 114.519531 288.257812 114.769531 289.394531 C 115.023438 289.355469 115.445312 289.480469 115.699219 289.394531 C 116.246094 291.503906 113.800781 293.398438 113.800781 295.464844 C 114.179688 295.421875 114.519531 295.714844 114.898438 295.632812 C 114.769531 296.980469 113.167969 297.992188 113.421875 299.421875 C 113.886719 299.382812 114.433594 299.464844 114.898438 299.382812 C 114.730469 300.351562 113.84375 301.234375 113.546875 302.203125 C 114.644531 302.457031 113.96875 303.972656 113.84375 304.941406 C 113.210938 305.617188 112.664062 306.25 112.453125 306.671875 C 111.566406 308.230469 112.957031 307.640625 114.097656 308.734375 C 113.125 309.28125 111.945312 309.410156 110.933594 309.746094 C 110.808594 310.546875 111.398438 310.925781 111.355469 311.726562 C 110.46875 311.980469 109.625 312.234375 108.742188 312.484375 C 108.65625 313.160156 108.867188 313.875 108.992188 314.464844 C 106.042969 315.644531 102.964844 317.835938 102.878906 321.292969 C 102.289062 321.710938 101.65625 322.132812 101.445312 322.683594 C 100.898438 324.070312 102.164062 324.832031 103.386719 324.957031 C 104.609375 325.082031 105.914062 324.621094 107.179688 324.746094 C 108.023438 324.832031 108.78125 325.210938 109.625 325.378906 C 109.667969 326.472656 109.878906 327.570312 110.636719 327.863281 C 111.566406 328.285156 112.453125 327.652344 113.253906 326.980469 C 114.011719 327.023438 114.855469 327.023438 115.488281 327.0625 C 116.585938 327.148438 117.554688 326.8125 118.566406 326.601562 C 119.070312 327.570312 120.125 328.453125 120.925781 328.453125 C 122.066406 328.496094 122.867188 327.695312 123.710938 327.023438 C 124.808594 327.949219 127.757812 326.683594 128.980469 326.515625 C 128.855469 328.242188 130.203125 328.03125 131.300781 327.441406 C 133.113281 326.472656 132.523438 326.179688 134.210938 327.148438 C 136.234375 328.328125 134.84375 326.558594 136.402344 325.84375 C 137.753906 325.210938 138.132812 327.78125 139.648438 327.359375 C 139.820312 326.683594 139.820312 324.324219 140.242188 323.945312 C 141 323.1875 141.96875 324.492188 142.941406 324.578125 C 142.941406 323.0625 142.347656 321.082031 143.066406 319.734375 C 146.355469 321.671875 144.457031 318.214844 144.414062 316.152344 C 144.753906 316.53125 145.300781 316.742188 145.765625 316.742188 C 145.722656 315.265625 144.164062 314.210938 144.035156 312.78125 C 144.964844 313.160156 145.847656 313.707031 146.902344 313.453125 C 147.070312 311.894531 145.679688 310.632812 145.933594 309.074219 C 146.355469 309.199219 146.902344 309.453125 147.242188 309.703125 C 147.242188 308.273438 147.113281 306.753906 146.988281 305.324219 C 147.664062 305.953125 148.503906 307.261719 149.558594 306.964844 C 149.433594 305.40625 149.601562 302.964844 150.78125 301.65625 C 151.121094 302.164062 151.585938 302.542969 151.921875 302.667969 C 153.1875 303.132812 154.03125 301.65625 155 300.898438 C 155.675781 302.582031 155.925781 301.910156 157.234375 301.320312 C 158.667969 300.730469 158.246094 301.023438 159.175781 302.5 C 159.722656 302.078125 160.480469 300.476562 161.242188 300.476562 C 161.957031 300.519531 162.589844 302.246094 163.011719 302.667969 C 163.558594 301.867188 163.855469 300.605469 164.191406 299.59375 C 165.164062 299.464844 165.5 300.8125 166.003906 301.488281 C 166.933594 301.109375 167.777344 300.351562 168.578125 299.675781 C 168.703125 300.308594 168.875 300.941406 169.210938 301.320312 C 169.632812 301.824219 169.886719 301.53125 170.054688 301.65625 C 170.179688 301.785156 170.941406 302.375 171.109375 302.457031 C 171.992188 302.878906 171.191406 303.003906 172.203125 302.878906 C 172.585938 302.835938 172.289062 302.035156 172.964844 302.078125 C 173.765625 302.164062 174.101562 303.933594 174.609375 304.394531 C 174.945312 303.761719 175.242188 303.171875 175.746094 302.667969 C 176.464844 303.089844 176.714844 305.40625 177.644531 305.324219 C 178.742188 305.238281 178.488281 302.878906 179.5 302.625 C 180.425781 303.933594 180.300781 305.449219 180.976562 306.839844 C 182.03125 306.292969 181.945312 304.902344 182.875 304.3125 C 183.464844 305.363281 183.546875 306.628906 183.925781 307.765625 C 184.265625 307.640625 184.644531 307.34375 185.023438 307.050781 C 185.277344 308.652344 185.699219 310.167969 186.332031 310.125 C 186.542969 310.800781 186.710938 311.433594 186.878906 312.105469 C 187.089844 312.0625 187.386719 312.148438 187.597656 312.148438 C 188.269531 313.371094 187.933594 315.351562 188.144531 316.742188 C 188.566406 316.488281 189.070312 316.363281 189.621094 316.363281 C 190.378906 317.960938 189.578125 319.941406 190.378906 321.542969 C 191.980469 320.113281 191.519531 323.988281 192.277344 324.664062 C 192.65625 324.410156 193.164062 324.242188 193.542969 324.03125 C 193.921875 328.160156 194.511719 333.847656 199.65625 333.089844 C 200.289062 334.058594 201.089844 335.027344 201.679688 335.070312 C 202.3125 335.113281 202.902344 333.972656 203.621094 333.089844 C 205.054688 333.382812 206.953125 333.511719 208.300781 333.089844 C 209.441406 334.140625 211.085938 335.238281 211.96875 334.941406 C 212.265625 334.394531 212.476562 333.636719 212.730469 333.003906 C 214.035156 333.046875 215.679688 332.542969 216.988281 332.414062 C 218.125 333.636719 219.519531 334.902344 220.992188 334.648438 C 221.332031 333.972656 221.753906 333.171875 222.046875 332.371094 C 223.902344 332.035156 226.097656 331.65625 227.191406 330.265625 C 229.636719 327.148438 225.589844 321.671875 225 318.34375 C 224.324219 314.464844 223.269531 310.882812 221.5 307.429688 C 221.414062 305.953125 220.65625 304.394531 220.867188 302.964844 C 221.246094 303.132812 221.625 302.964844 221.964844 303.046875 C 222.132812 301.53125 221.164062 300.222656 220.992188 298.832031 C 221.585938 299.085938 222.046875 299.507812 222.722656 299.421875 C 222.597656 297.527344 220.613281 295.96875 221.289062 293.945312 C 224.535156 294.324219 220.910156 287.878906 221.035156 286.445312 C 221.289062 286.574219 221.835938 286.53125 222.132812 286.699219 C 222.257812 284.59375 220.613281 282.65625 220.867188 280.632812 C 221.246094 280.632812 221.542969 280.335938 221.921875 280.335938 C 222.046875 278.609375 220.148438 277.386719 220.359375 275.617188 C 220.742188 275.660156 221.246094 275.449219 221.625 275.492188 C 221.625 273.046875 219.179688 270.816406 219.519531 268.539062 C 223.820312 268.75 219.644531 266.054688 219.8125 263.820312 C 220.277344 263.863281 220.78125 263.90625 221.289062 263.863281 C 221.035156 262.808594 217.367188 257.796875 219.980469 258.132812 C 219.8125 256.40625 217.492188 255.054688 217.832031 253.246094 C 218.378906 253.160156 218.96875 253.160156 219.519531 253.078125 C 219.011719 251.769531 217.578125 250.507812 217.578125 249.117188 C 218.085938 249.15625 218.589844 249.199219 219.054688 249.15625 C 218.714844 247.976562 218.125 247.09375 218.125 245.703125 C 218.296875 245.746094 218.503906 245.785156 218.632812 245.828125 C 218.589844 243.933594 216.609375 242.417969 216.820312 240.519531 C 217.367188 240.519531 217.789062 240.308594 218.296875 240.183594 C 218.042969 238.707031 216.058594 237.738281 215.976562 236.265625 C 216.648438 236.265625 217.324219 236.644531 218.042969 236.476562 C 217.28125 235.210938 215.214844 234.03125 215.554688 232.347656 C 216.101562 232.261719 216.691406 232.261719 217.242188 232.175781 C 216.480469 231.125 214.203125 229.945312 214.375 228.46875 C 215.214844 228.511719 216.1875 228.976562 217.070312 228.808594 C 215.636719 227.332031 213.613281 224.507812 213.277344 222.316406 C 215.132812 223.539062 217.832031 224.339844 219.476562 224.804688 C 220.992188 225.269531 225.800781 226.910156 226.980469 225.648438 C 226.476562 225.058594 226.308594 224.382812 226.222656 223.625 C 228.121094 224.003906 230.566406 223.707031 231.957031 222.867188 C 231.703125 222.023438 231.113281 221.136719 230.566406 220.253906 C 231.957031 220.378906 233.601562 220.253906 234.234375 219.75 C 235.414062 218.863281 234.109375 217.472656 233.265625 216.167969 C 234.65625 216.207031 236.300781 216 236.890625 215.535156 C 238.703125 214.566406 237.230469 212.878906 236.34375 211.828125 Z M 236.34375 211.828125 " fill-opacity="1" fill-rule="nonzero"/></g></svg>