<svg xmlns="http://www.w3.org/2000/svg" xmlns:xlink="http://www.w3.org/1999/xlink" width="396" zoomAndPan="magnify" viewBox="0 0 297.12 419.249996" height="559" preserveAspectRatio="xMidYMid meet" version="1.0"><defs><g/><clipPath id="d687fdb6dd"><path d="M 0 0.246094 L 296.238281 0.246094 L 296.238281 417.367188 L 0 417.367188 Z M 0 0.246094 " clip-rule="nonzero"/></clipPath><clipPath id="994e0374a0"><path d="M 30.125 42.132812 L 265.921875 42.132812 L 265.921875 375.683594 L 30.125 375.683594 Z M 30.125 42.132812 " clip-rule="nonzero"/></clipPath><clipPath id="27cc165db5"><path d="M 15.714844 42.132812 L 46.308594 42.132812 L 46.308594 90.636719 L 15.714844 90.636719 Z M 15.714844 42.132812 " clip-rule="nonzero"/></clipPath><clipPath id="c162f406d8"><path d="M 253.476562 41.851562 L 275.863281 41.851562 L 275.863281 77.667969 L 253.476562 77.667969 Z M 253.476562 41.851562 " clip-rule="nonzero"/></clipPath><clipPath id="ac2c7bc39a"><path d="M 249.917969 327.449219 L 280.511719 327.449219 L 280.511719 375.949219 L 249.917969 375.949219 Z M 249.917969 327.449219 " clip-rule="nonzero"/></clipPath><clipPath id="a2f5fef48e"><path d="M 19.617188 340.097656 L 42.003906 340.097656 L 42.003906 375.914062 L 19.617188 375.914062 Z M 19.617188 340.097656 " clip-rule="nonzero"/></clipPath><clipPath id="e1c5baa9bb"><path d="M 73.875 154.824219 L 236 154.824219 L 236 283.917969 L 73.875 283.917969 Z M 73.875 154.824219 " clip-rule="nonzero"/></clipPath><clipPath id="e650ddb5e2"><path d="M 75.417969 241 L 76.636719 241 L 76.636719 245.691406 L 75.417969 245.691406 Z M 75.417969 241 " clip-rule="nonzero"/></clipPath><clipPath id="709710e519"><path d="M 76.484375 242.460938 C 75.589844 241.789062 76.632812 245.59375 76.558594 245.59375 C 76.484375 245.667969 75.515625 242.757812 75.441406 241.9375 C 75.441406 241.566406 75.515625 241.191406 75.664062 241.117188 C 75.8125 240.96875 76.335938 241.117188 76.484375 241.265625 C 76.632812 241.488281 76.484375 242.460938 76.484375 242.460938 " clip-rule="nonzero"/></clipPath><clipPath id="d96bdd939f"><path d="M 84.085938 251.390625 L 91.496094 251.390625 L 91.496094 268.398438 L 84.085938 268.398438 Z M 84.085938 251.390625 " clip-rule="nonzero"/></clipPath><clipPath id="4d0df12405"><path d="M 91.410156 255.144531 C 91.035156 266.636719 90.289062 267.53125 89.542969 267.980469 C 88.945312 268.351562 88.050781 268.351562 87.378906 268.203125 C 86.78125 268.054688 85.960938 267.679688 85.589844 267.085938 C 85.066406 266.414062 84.691406 264.921875 84.917969 264.023438 C 84.992188 263.355469 85.515625 262.683594 86.109375 262.234375 C 86.632812 261.859375 87.378906 261.488281 88.125 261.5625 C 89.019531 261.636719 90.363281 262.234375 90.886719 263.054688 C 91.410156 263.800781 91.484375 265.292969 91.257812 266.1875 C 91.035156 266.859375 90.4375 267.457031 89.84375 267.832031 C 89.320312 268.128906 88.425781 268.351562 87.753906 268.277344 C 87.082031 268.203125 86.335938 267.832031 85.8125 267.382812 C 85.363281 266.933594 85.066406 266.339844 84.84375 265.441406 C 84.320312 263.875 84.097656 260.59375 84.097656 258.429688 C 84.171875 256.710938 84.246094 254.773438 84.769531 253.652344 C 85.140625 252.832031 85.664062 252.085938 86.335938 251.789062 C 87.15625 251.414062 88.796875 251.488281 89.542969 251.714844 C 90.140625 251.9375 90.511719 252.308594 90.8125 252.832031 C 91.183594 253.429688 91.410156 255.144531 91.410156 255.144531 " clip-rule="nonzero"/></clipPath><clipPath id="efc0998cce"><path d="M 76.664062 242.886719 L 83.691406 242.886719 L 83.691406 250.613281 L 76.664062 250.613281 Z M 76.664062 242.886719 " clip-rule="nonzero"/></clipPath><clipPath id="79e2e2aac5"><path d="M 76.707031 246.863281 C 77.378906 244.324219 77.902344 243.652344 78.574219 243.355469 C 79.320312 242.984375 80.886719 242.90625 81.707031 243.28125 C 82.527344 243.730469 83.351562 244.996094 83.5 245.894531 C 83.648438 246.789062 83.050781 248.207031 82.378906 248.804688 C 81.707031 249.398438 80.214844 249.773438 79.320312 249.550781 C 78.425781 249.324219 77.304688 248.28125 77.007812 247.460938 C 76.707031 246.5625 76.933594 245.070312 77.453125 244.324219 C 77.976562 243.578125 79.394531 242.90625 80.289062 242.984375 C 81.1875 242.984375 82.527344 243.730469 83.050781 244.550781 C 83.5 245.296875 83.574219 246.640625 83.425781 247.535156 C 83.351562 248.28125 82.976562 249.175781 82.378906 249.699219 C 81.859375 250.144531 80.960938 250.59375 80.214844 250.59375 C 79.320312 250.519531 77.902344 249.921875 77.378906 249.175781 C 76.859375 248.578125 76.707031 246.863281 76.707031 246.863281 " clip-rule="nonzero"/></clipPath><clipPath id="559f400647"><path d="M 66.511719 237.59375 L 167 237.59375 L 167 295 L 66.511719 295 Z M 66.511719 237.59375 " clip-rule="nonzero"/></clipPath><clipPath id="ec394bb4f0"><path d="M 78.871094 247.085938 C 74.695312 245.894531 74.097656 244.324219 74.097656 243.355469 C 74.171875 242.460938 74.621094 241.566406 75.292969 240.96875 C 75.960938 240.222656 77.457031 239.625 78.425781 239.550781 C 79.320312 239.550781 80.289062 239.996094 80.886719 240.519531 C 81.484375 241.042969 82.082031 242.011719 82.15625 242.832031 C 82.15625 243.804688 81.707031 245.371094 80.886719 246.042969 C 79.917969 246.863281 76.335938 246.9375 76.335938 246.789062 C 76.261719 246.640625 80.738281 245.371094 80.738281 245.222656 C 80.664062 245.070312 74.917969 246.265625 74.917969 246.265625 C 74.917969 246.265625 79.394531 245.445312 79.320312 245.371094 C 79.320312 245.222656 74.917969 245.894531 74.917969 245.59375 C 74.84375 245.371094 78.351562 243.355469 79.023438 243.804688 C 79.769531 244.324219 79.394531 247.308594 78.949219 248.878906 C 78.5 250.296875 76.933594 251.265625 76.410156 252.757812 C 75.886719 254.175781 75.960938 255.667969 75.960938 257.535156 C 75.8125 260.21875 75.886719 264.621094 76.1875 267.308594 C 76.410156 269.25 76.707031 270.667969 77.230469 272.234375 C 77.753906 273.875 78.5 275.515625 79.394531 276.933594 C 80.214844 278.277344 80.960938 279.472656 82.453125 280.515625 C 84.691406 282.082031 88.199219 283.277344 92.007812 284.097656 C 97.304688 285.21875 106.109375 285.367188 111.480469 285.21875 C 115.289062 285.066406 117.601562 284.320312 121.257812 284.023438 C 125.882812 283.726562 133.496094 284.320312 137.152344 283.648438 C 139.164062 283.277344 140.0625 282.828125 141.703125 281.933594 C 144.164062 280.589844 147.222656 278.277344 149.984375 275.816406 C 153.269531 272.980469 157.222656 266.5625 159.910156 265.367188 C 161.253906 264.769531 162.445312 264.996094 163.417969 265.292969 C 164.238281 265.519531 164.910156 266.039062 165.429688 266.5625 C 165.953125 267.160156 166.402344 267.832031 166.550781 268.652344 C 166.773438 269.621094 166.625 270.667969 166.253906 272.160156 C 165.28125 275.292969 162.222656 282.828125 159.089844 285.964844 C 156.625 288.5 153.34375 289.46875 150.132812 290.738281 C 146.925781 292.007812 143.34375 292.828125 139.910156 293.5 C 136.703125 294.097656 133.867188 294.46875 130.285156 294.695312 C 125.734375 294.917969 119.765625 294.917969 114.988281 294.542969 C 110.585938 294.246094 106.40625 293.796875 102.453125 292.902344 C 98.722656 292.007812 94.542969 290.738281 91.707031 289.246094 C 89.542969 288.054688 87.601562 286.484375 86.558594 285.21875 C 85.960938 284.472656 85.664062 283.800781 85.515625 282.980469 C 85.363281 282.234375 85.4375 281.261719 85.664062 280.515625 C 85.886719 279.769531 86.335938 278.949219 86.933594 278.351562 C 87.453125 277.753906 88.273438 277.308594 89.019531 277.007812 C 89.765625 276.785156 90.664062 276.710938 91.484375 276.859375 C 92.304688 277.007812 93.796875 277.679688 93.796875 277.828125 C 93.722656 278.054688 88.722656 277.457031 88.722656 277.160156 C 88.722656 276.785156 92.15625 276.1875 94.839844 275.816406 C 99.914062 275.292969 109.242188 274.84375 116.628906 275.367188 C 124.242188 275.964844 138.195312 281.113281 139.761719 279.246094 C 140.433594 278.425781 139.164062 276.113281 138.269531 274.84375 C 137.300781 273.5 135.433594 272.308594 133.941406 271.414062 C 132.449219 270.589844 131.03125 270.070312 129.390625 269.546875 C 127.523438 269.023438 125.136719 269.175781 123.269531 268.578125 C 121.628906 268.054688 119.914062 267.53125 118.570312 266.414062 C 117.152344 265.21875 115.585938 262.832031 115.136719 261.414062 C 114.914062 260.59375 114.988281 259.699219 115.210938 259.101562 C 115.363281 258.503906 115.660156 258.128906 116.109375 257.757812 C 116.628906 257.308594 117.601562 256.9375 118.347656 256.9375 C 119.019531 256.9375 119.914062 257.234375 120.4375 257.683594 C 120.957031 258.128906 121.480469 258.800781 121.554688 259.472656 C 121.703125 260.367188 121.40625 261.859375 120.808594 262.53125 C 120.210938 263.203125 118.792969 263.726562 117.824219 263.578125 C 116.929688 263.503906 115.734375 262.609375 115.289062 261.785156 C 114.914062 260.890625 115.0625 259.398438 115.4375 258.578125 C 115.734375 257.980469 116.40625 257.457031 117.003906 257.160156 C 117.601562 256.9375 118.496094 256.863281 119.167969 257.011719 C 119.839844 257.160156 120.511719 257.683594 120.957031 258.203125 C 121.332031 258.726562 121.628906 259.546875 121.703125 260.21875 C 121.703125 260.890625 121.40625 261.710938 121.03125 262.234375 C 120.660156 262.832031 119.988281 263.355469 119.316406 263.503906 C 118.421875 263.652344 116.78125 263.429688 116.035156 262.757812 C 115.363281 262.160156 114.914062 260.742188 114.988281 259.847656 C 115.0625 259.101562 115.585938 258.203125 116.109375 257.757812 C 116.480469 257.382812 116.78125 257.160156 117.527344 257.011719 C 119.765625 256.710938 128.121094 258.800781 131.703125 259.773438 C 133.867188 260.367188 135.210938 260.742188 136.925781 261.5625 C 138.792969 262.457031 140.734375 263.726562 142.375 264.996094 C 143.941406 266.265625 145.582031 267.457031 146.703125 269.023438 C 147.894531 270.515625 148.792969 272.308594 149.3125 274.023438 C 149.835938 275.664062 150.210938 277.457031 150.058594 279.246094 C 149.910156 281.113281 149.386719 283.351562 148.34375 284.992188 C 147.300781 286.558594 145.507812 288.128906 143.792969 288.875 C 142.074219 289.621094 140.582031 289.621094 138.046875 289.546875 C 133.121094 289.394531 124.019531 286.335938 116.257812 285.738281 C 107.378906 284.992188 91.035156 287.753906 87.453125 286.113281 C 86.410156 285.664062 86.261719 284.992188 85.886719 284.171875 C 85.515625 283.203125 85.4375 281.5625 85.664062 280.515625 C 85.8125 279.695312 86.261719 278.949219 86.933594 278.351562 C 87.679688 277.679688 89.171875 276.933594 90.214844 276.785156 C 91.109375 276.710938 91.707031 276.859375 92.675781 277.234375 C 94.394531 277.828125 96.707031 280.21875 99.242188 281.261719 C 102.304688 282.457031 105.808594 283.128906 110.136719 283.648438 C 116.035156 284.394531 125.585938 284.695312 131.480469 284.320312 C 135.734375 284.097656 138.867188 283.574219 142.226562 282.679688 C 145.359375 281.859375 148.714844 281.484375 151.179688 279.320312 C 154.238281 276.710938 155.878906 268.949219 158.042969 266.785156 C 159.089844 265.742188 159.984375 265.21875 161.027344 265.070312 C 162.148438 264.921875 163.566406 265.21875 164.460938 265.816406 C 165.429688 266.414062 166.253906 267.679688 166.550781 268.652344 C 166.847656 269.398438 166.847656 270.144531 166.625 270.964844 C 166.328125 272.160156 165.582031 273.351562 164.460938 274.84375 C 162.371094 277.53125 157.597656 282.382812 154.3125 285.21875 C 151.550781 287.457031 148.492188 289.46875 146.105469 290.738281 C 144.390625 291.710938 143.121094 292.304688 141.480469 292.828125 C 139.6875 293.351562 137.898438 293.648438 135.734375 293.722656 C 132.898438 293.949219 129.613281 293.277344 125.957031 293.425781 C 121.257812 293.5 115.511719 294.695312 109.839844 294.695312 C 103.496094 294.769531 95.066406 294.320312 89.765625 293.351562 C 86.035156 292.753906 83.050781 291.933594 80.664062 290.8125 C 78.796875 289.917969 77.605469 289.171875 76.113281 287.753906 C 74.097656 285.8125 71.484375 282.308594 70.140625 279.917969 C 69.171875 278.128906 68.800781 277.082031 68.277344 274.917969 C 67.382812 271.261719 66.5625 264.398438 66.5625 259.847656 C 66.5625 256.039062 67.15625 252.160156 67.753906 249.398438 C 68.128906 247.535156 68.5 246.117188 69.246094 244.699219 C 69.917969 243.355469 70.589844 241.863281 71.785156 241.042969 C 73.050781 240.074219 75.066406 239.699219 76.707031 239.625 C 78.277344 239.550781 79.84375 239.847656 81.1875 240.445312 C 82.679688 241.117188 84.691406 242.160156 85.363281 243.578125 C 86.109375 245.070312 85.886719 248.28125 84.917969 249.550781 C 83.945312 250.816406 81.484375 251.339844 79.84375 251.488281 C 78.203125 251.636719 76.410156 251.339844 75.066406 250.667969 C 73.722656 250.070312 72.457031 248.953125 71.710938 247.683594 C 70.886719 246.339844 70.21875 244.25 70.515625 242.683594 C 70.886719 241.117188 72.382812 239.101562 73.722656 238.355469 C 74.992188 237.683594 76.933594 237.683594 78.277344 238.132812 C 79.617188 238.65625 81.035156 240.148438 81.933594 241.414062 C 82.753906 242.609375 83.351562 244.101562 83.5 245.667969 C 83.574219 247.308594 83.351562 249.773438 82.378906 251.042969 C 81.484375 252.234375 79.394531 253.054688 77.902344 253.054688 C 76.410156 253.054688 74.46875 252.011719 73.277344 250.742188 C 72.007812 249.324219 70.8125 246.640625 70.886719 244.847656 C 70.964844 243.28125 72.082031 241.488281 73.277344 240.519531 C 74.46875 239.625 76.410156 238.953125 77.828125 239.175781 C 79.246094 239.476562 80.886719 240.894531 81.707031 242.160156 C 82.527344 243.355469 82.976562 245.070312 82.902344 246.488281 C 82.828125 247.980469 82.15625 249.625 81.335938 250.890625 C 80.367188 252.160156 78.871094 253.878906 77.378906 254.175781 C 75.886719 254.472656 73.5 253.652344 72.457031 252.460938 C 71.410156 251.339844 71.113281 249.027344 71.1875 247.386719 C 71.261719 245.894531 71.933594 244.476562 72.753906 243.132812 C 73.5 241.640625 74.621094 239.476562 75.960938 239.027344 C 77.230469 238.578125 80.589844 239.773438 80.515625 240.074219 C 80.515625 240.296875 75.960938 240.59375 75.960938 240.519531 C 75.960938 240.445312 78.425781 239.550781 79.320312 239.699219 C 79.992188 239.773438 80.441406 240.074219 80.886719 240.519531 C 81.410156 241.042969 82.082031 242.011719 82.15625 242.832031 C 82.15625 243.804688 81.707031 245.371094 80.886719 246.042969 C 79.917969 246.863281 77.378906 247.460938 76.261719 247.011719 C 75.292969 246.640625 74.394531 245.222656 74.171875 244.25 C 73.949219 243.355469 74.320312 242.3125 74.695312 241.640625 C 74.992188 241.117188 75.367188 240.667969 75.960938 240.371094 C 76.785156 239.996094 78.351562 239.699219 79.46875 239.996094 C 80.664062 240.371094 82.230469 241.488281 82.679688 242.460938 C 83.125 243.355469 82.828125 244.847656 82.378906 245.667969 C 82.007812 246.339844 81.113281 246.863281 80.441406 247.085938 C 79.917969 247.234375 78.871094 247.085938 78.871094 247.085938 " clip-rule="nonzero"/></clipPath><clipPath id="7d085f4687"><path d="M 73.042969 260.414062 L 162.894531 260.414062 L 162.894531 300.46875 L 73.042969 300.46875 Z M 73.042969 260.414062 " clip-rule="nonzero"/></clipPath><clipPath id="f5ef74b51c"><path d="M 157.222656 266.414062 C 160.207031 274.097656 160.804688 277.007812 160.582031 277.082031 C 160.433594 277.234375 159.535156 275.890625 159.535156 275.890625 C 159.460938 275.890625 160.65625 277.082031 160.953125 277.828125 C 161.328125 278.800781 161.476562 280.441406 161.105469 281.484375 C 160.730469 282.53125 159.761719 283.726562 158.789062 284.246094 C 157.820312 284.84375 156.253906 284.992188 155.207031 284.84375 C 154.386719 284.695312 153.640625 284.394531 153.042969 283.800781 C 152.148438 282.902344 151.179688 281.113281 151.179688 279.695312 C 151.105469 278.054688 152.074219 275.589844 153.195312 274.472656 C 154.015625 273.652344 155.507812 273.203125 156.550781 273.128906 C 157.371094 273.128906 158.195312 273.277344 158.941406 273.726562 C 159.835938 274.246094 160.953125 275.441406 161.328125 276.410156 C 161.699219 277.160156 161.773438 278.054688 161.699219 278.800781 C 161.625 279.621094 161.027344 281.1875 160.878906 281.113281 C 160.507812 281.039062 160.132812 274.996094 160.433594 274.917969 C 160.730469 274.84375 162.296875 277.90625 162.519531 279.546875 C 162.746094 281.1875 162.519531 283.203125 161.773438 284.621094 C 160.953125 286.113281 159.3125 287.082031 157.523438 288.277344 C 154.984375 289.84375 150.730469 291.933594 147.820312 292.605469 C 145.65625 293.050781 143.71875 292.902344 141.851562 292.679688 C 140.136719 292.457031 138.492188 292.007812 136.925781 291.335938 C 135.359375 290.738281 133.792969 289.917969 132.449219 288.875 C 131.03125 287.753906 129.613281 286.1875 128.644531 284.695312 C 127.75 283.351562 127.078125 281.933594 126.703125 280.367188 C 126.257812 278.726562 126.105469 276.710938 126.332031 274.917969 C 126.628906 273.128906 127.375 271.261719 128.195312 269.695312 C 128.941406 268.128906 129.914062 266.710938 131.03125 265.515625 C 132.226562 264.175781 133.71875 262.90625 135.210938 262.085938 C 136.554688 261.339844 137.824219 260.890625 139.539062 260.742188 C 142 260.519531 146.253906 261.191406 148.714844 261.859375 C 150.582031 262.382812 151.851562 262.980469 153.269531 263.875 C 154.613281 264.769531 155.953125 265.890625 156.925781 267.234375 C 157.96875 268.800781 158.789062 271.039062 159.164062 272.980469 C 159.535156 274.84375 159.460938 276.785156 159.238281 278.652344 C 159.015625 280.367188 158.566406 282.082031 157.894531 283.648438 C 157.148438 285.292969 156.253906 286.785156 154.835938 288.277344 C 153.042969 290.214844 150.433594 292.378906 147.300781 293.949219 C 143.269531 296.035156 137.898438 297.378906 132.152344 298.425781 C 124.914062 299.691406 114.464844 300.363281 107.152344 300.140625 C 101.40625 299.917969 95.664062 299.023438 91.855469 297.976562 C 89.394531 297.304688 87.976562 296.78125 86.035156 295.589844 C 83.796875 294.171875 81.1875 292.15625 79.320312 289.546875 C 76.933594 286.261719 74.695312 280.21875 73.949219 276.859375 C 73.5 274.84375 73.203125 273.203125 73.722656 271.710938 C 74.171875 270.292969 75.441406 269.023438 76.707031 268.128906 C 78.203125 267.011719 80.738281 265.667969 82.15625 265.816406 C 83.199219 265.890625 84.246094 266.933594 84.691406 267.679688 C 85.066406 268.277344 85.066406 269.097656 84.917969 269.769531 C 84.84375 270.441406 84.46875 271.1875 83.871094 271.636719 C 83.199219 272.160156 81.707031 272.605469 80.8125 272.382812 C 79.917969 272.160156 78.871094 271.039062 78.5 270.292969 C 78.203125 269.621094 78.277344 268.726562 78.425781 268.128906 C 78.648438 267.457031 79.171875 266.785156 79.695312 266.414062 C 80.289062 265.964844 81.113281 265.742188 81.78125 265.742188 C 82.453125 265.816406 83.277344 266.113281 83.796875 266.5625 C 84.320312 266.933594 84.84375 267.605469 84.917969 268.351562 C 85.066406 269.175781 84.246094 270.21875 84.171875 271.414062 C 84.023438 272.832031 84.320312 274.695312 84.769531 276.261719 C 85.214844 277.828125 85.886719 279.472656 86.707031 280.890625 C 87.527344 282.230469 88.425781 283.574219 89.542969 284.621094 C 90.664062 285.664062 91.558594 286.410156 93.347656 287.082031 C 96.707031 288.351562 103.496094 289.246094 109.09375 289.394531 C 115.289062 289.621094 122.898438 288.875 128.941406 287.828125 C 134.164062 286.933594 140.0625 285.441406 143.269531 283.949219 C 145.058594 283.128906 146.179688 282.457031 147.148438 281.335938 C 148.121094 280.144531 148.941406 278.425781 149.015625 276.859375 C 149.089844 275.367188 148.492188 273.203125 147.449219 272.160156 C 146.476562 271.1875 144.539062 270.816406 143.046875 270.890625 C 141.554688 270.890625 139.613281 271.488281 138.492188 272.457031 C 137.449219 273.351562 136.40625 275.21875 136.480469 276.5625 C 136.554688 277.980469 137.898438 279.84375 139.089844 280.738281 C 140.285156 281.710938 142.148438 282.308594 143.644531 282.382812 C 145.136719 282.382812 146.703125 281.1875 148.195312 281.113281 C 149.6875 280.964844 152 282.382812 152.746094 281.636719 C 153.640625 280.816406 152 276.5625 152.375 275.441406 C 152.523438 274.917969 152.746094 274.769531 153.195312 274.472656 C 153.867188 274.023438 155.433594 273.203125 156.550781 273.128906 C 157.671875 273.128906 159.089844 273.652344 159.910156 274.398438 C 160.804688 275.144531 161.550781 276.488281 161.699219 277.605469 C 161.851562 278.726562 161.179688 281.113281 160.878906 281.113281 C 160.433594 281.113281 159.3125 275.964844 159.535156 275.890625 C 159.6875 275.816406 161.105469 278.054688 161.328125 279.023438 C 161.476562 279.84375 161.402344 280.664062 161.105469 281.484375 C 160.730469 282.457031 159.6875 283.726562 158.789062 284.246094 C 158.117188 284.769531 157.296875 284.992188 156.476562 284.917969 C 155.433594 284.917969 153.941406 284.546875 153.042969 283.800781 C 152 282.980469 151.328125 281.636719 150.878906 279.84375 C 150.058594 276.933594 150.132812 269.769531 150.507812 267.234375 C 150.730469 266.1875 150.878906 265.59375 151.402344 264.996094 C 151.851562 264.398438 152.746094 263.949219 153.492188 263.875 C 154.238281 263.726562 155.285156 264.023438 155.878906 264.398438 C 156.476562 264.847656 157.222656 266.414062 157.222656 266.414062 " clip-rule="nonzero"/></clipPath><clipPath id="25cbe41a54"><path d="M 76 266.105469 L 95.972656 266.105469 L 95.972656 294.449219 L 76 294.449219 Z M 76 266.105469 " clip-rule="nonzero"/></clipPath><clipPath id="d1a30633c3"><path d="M 90.664062 290.8125 C 85.738281 288.050781 80.066406 284.621094 80.214844 282.976562 C 80.289062 281.859375 82.679688 280.21875 84.320312 280.292969 C 86.855469 280.441406 93.347656 285.964844 93.796875 288.425781 C 94.019531 289.992188 92.378906 292.15625 91.109375 292.753906 C 89.765625 293.425781 87.453125 292.679688 85.8125 292.082031 C 84.171875 291.410156 82.605469 290.367188 81.1875 289.097656 C 79.617188 287.53125 77.976562 284.917969 77.15625 283.277344 C 76.707031 282.230469 76.410156 281.335938 76.410156 280.515625 C 76.484375 279.84375 76.707031 279.246094 77.082031 278.726562 C 77.378906 278.203125 77.902344 277.679688 78.5 277.382812 C 79.246094 277.007812 80.515625 276.785156 81.335938 276.933594 C 82.007812 277.082031 82.378906 277.234375 83.050781 277.828125 C 84.46875 279.023438 86.261719 284.023438 88.125 285.515625 C 89.320312 286.558594 91.183594 286.113281 92.007812 287.082031 C 92.828125 287.976562 93.273438 289.769531 93.125 290.886719 C 92.976562 291.859375 92.230469 292.902344 91.484375 293.5 C 90.738281 294.097656 89.691406 294.320312 88.574219 294.320312 C 86.855469 294.394531 84.246094 293.796875 82.453125 292.902344 C 80.664062 292.007812 78.796875 290.515625 77.828125 289.023438 C 76.859375 287.679688 76.484375 286.484375 76.261719 284.472656 C 75.886719 280.890625 76.785156 272.160156 77.753906 269.25 C 78.203125 267.90625 78.648438 267.085938 79.46875 266.636719 C 80.289062 266.1875 81.78125 266.113281 82.605469 266.488281 C 83.425781 266.933594 84.320312 268.128906 84.46875 269.097656 C 84.542969 269.996094 84.023438 271.414062 83.351562 272.007812 C 82.679688 272.679688 81.1875 272.980469 80.289062 272.753906 C 79.394531 272.53125 78.351562 271.488281 77.976562 270.667969 C 77.679688 270.070312 77.679688 269.175781 77.902344 268.578125 C 78.125 267.90625 78.574219 267.160156 79.171875 266.785156 C 79.917969 266.339844 81.410156 266.113281 82.304688 266.414062 C 82.976562 266.5625 83.5 266.859375 83.945312 267.679688 C 85.214844 270.144531 83.277344 281.636719 85.515625 284.546875 C 87.007812 286.484375 90.8125 285.886719 92.007812 287.082031 C 92.828125 287.828125 93.125 289.023438 93.199219 289.84375 C 93.273438 290.589844 93.199219 291.261719 92.828125 291.859375 C 92.378906 292.679688 91.410156 293.648438 90.589844 294.023438 C 89.917969 294.320312 89.394531 294.394531 88.574219 294.320312 C 87.15625 294.171875 84.617188 293.125 83.125 292.15625 C 81.78125 291.261719 80.8125 290.214844 79.84375 288.796875 C 78.648438 287.082031 77.15625 284.171875 76.707031 282.457031 C 76.410156 281.335938 76.335938 280.441406 76.632812 279.546875 C 76.933594 278.726562 77.679688 277.828125 78.5 277.382812 C 79.246094 276.933594 80.515625 276.785156 81.335938 276.933594 C 82.007812 277.082031 82.453125 277.234375 83.125 277.828125 C 84.542969 279.171875 87.453125 283.425781 88.050781 286.039062 C 88.574219 288.128906 88.574219 291.707031 87.527344 292.15625 C 86.109375 292.753906 80.8125 288.128906 78.949219 285.8125 C 77.605469 284.171875 76.410156 282.230469 76.410156 280.589844 C 76.410156 279.171875 77.453125 277.15625 78.574219 276.410156 C 79.84375 275.742188 81.859375 275.890625 83.796875 276.636719 C 87.082031 277.90625 94.394531 284.472656 95.511719 286.558594 C 95.886719 287.230469 95.8125 287.605469 95.664062 288.203125 C 95.585938 288.875 95.140625 289.84375 94.542969 290.367188 C 93.945312 290.8125 92.976562 291.1875 92.230469 291.1875 C 91.707031 291.261719 90.664062 290.8125 90.664062 290.8125 " clip-rule="nonzero"/></clipPath></defs><g clip-path="url(#d687fdb6dd)"><path fill="#ffffff" d="M 0 0.246094 L 296.238281 0.246094 L 296.238281 417.367188 L 0 417.367188 Z M 0 0.246094 " fill-opacity="1" fill-rule="nonzero"/><path fill="#ffffff" d="M 0 0.246094 L 296.238281 0.246094 L 296.238281 417.367188 L 0 417.367188 Z M 0 0.246094 " fill-opacity="1" fill-rule="nonzero"/></g><g clip-path="url(#994e0374a0)"><path stroke-linecap="butt" transform="matrix(0.746195, 0, 0, 0.746195, 30.125007, 42.134083)" fill="none" stroke-linejoin="miter" d="M -0.00000963595 -0.0017029 L 316.108775 -0.0017029 L 316.108775 447.09448 L -0.00000963595 447.09448 Z M -0.00000963595 -0.0017029 " stroke="#e30613" stroke-width="6" stroke-opacity="1" stroke-miterlimit="4"/></g><g clip-path="url(#27cc165db5)"><path fill="#e30613" d="M 30.957031 42.132812 L 15.730469 66.285156 L 30.957031 90.4375 L 46.179688 66.285156 Z M 30.957031 42.132812 " fill-opacity="1" fill-rule="nonzero"/></g><g clip-path="url(#c162f406d8)"><path fill="#e30613" d="M 264.808594 41.851562 L 253.484375 59.820312 L 264.808594 77.785156 L 276.136719 59.820312 Z M 264.808594 41.851562 " fill-opacity="1" fill-rule="nonzero"/></g><g clip-path="url(#ac2c7bc39a)"><path fill="#e30613" d="M 265.15625 327.449219 L 249.933594 351.601562 L 265.15625 375.75 L 280.382812 351.601562 Z M 265.15625 327.449219 " fill-opacity="1" fill-rule="nonzero"/></g><g clip-path="url(#a2f5fef48e)"><path fill="#e30613" d="M 30.953125 340.097656 L 19.625 358.066406 L 30.953125 376.03125 L 42.277344 358.066406 Z M 30.953125 340.097656 " fill-opacity="1" fill-rule="nonzero"/></g><g clip-path="url(#e1c5baa9bb)"><path fill="#e30613" d="M -95.0625 373.636719 C -97.527344 378.230469 -100.550781 384.839844 -100.214844 390.214844 C -99.878906 390.105469 -99.320312 390.328125 -98.984375 390.328125 C -98.761719 393.351562 -99.097656 396.488281 -98.871094 399.625 C -98.3125 399.515625 -97.640625 399.851562 -97.078125 399.738281 C -96.519531 401.53125 -96.296875 403.660156 -96.070312 405.5625 C -95.734375 407.46875 -96.070312 410.605469 -95.175781 412.0625 C -92.933594 408.253906 -92.039062 419.34375 -91.925781 420.910156 C -91.480469 420.351562 -90.804688 419.902344 -90.132812 419.789062 C -89.351562 422.480469 -90.46875 425.953125 -89.238281 428.417969 C -86.324219 424.71875 -86.773438 434.355469 -86.101562 435.808594 C -85.765625 435.027344 -84.980469 432.671875 -83.972656 433.121094 C -83.414062 433.34375 -82.851562 436.816406 -82.628906 437.378906 C -81.621094 440.515625 -80.277344 443.652344 -78.484375 446.339844 C -74.789062 451.828125 -70.417969 454.628906 -64.816406 456.980469 C -67.394531 452.949219 -69.632812 448.804688 -71.539062 444.324219 C -77.699219 429.984375 -82.851562 415.757812 -85.542969 400.296875 C -87.558594 388.535156 -88.453125 376.550781 -87.667969 364.5625 C -90.695312 366.578125 -93.046875 369.941406 -95.0625 373.636719 Z M 157.324219 294.214844 C 157.324219 293.988281 157.433594 293.878906 157.546875 293.652344 C 157.324219 293.878906 157.324219 293.988281 157.324219 294.214844 Z M 83.5 480.507812 C 85.515625 480.507812 87.535156 480.730469 89.550781 480.394531 C 90.894531 480.171875 92.015625 479.609375 93.359375 479.273438 C 92.574219 478.714844 91.902344 478.265625 91.117188 477.707031 C 88.765625 476.027344 87.199219 476.363281 84.621094 477.816406 C 82.605469 478.9375 80.363281 479.945312 78.234375 480.953125 C 80.027344 480.730469 81.820312 480.507812 83.5 480.507812 Z M 198.996094 349.664062 C 197.988281 347.3125 196.644531 345.855469 194.851562 344.734375 C 189.808594 345.070312 184.320312 347.089844 179.839844 348.320312 C 173.566406 350 167.742188 350.785156 161.355469 351.457031 C 154.636719 352.128906 148.472656 353.472656 141.976562 355.714844 C 135.480469 357.84375 128.871094 359.410156 122.371094 361.652344 C 119.460938 362.660156 116.097656 361.761719 113.410156 360.082031 C 111.730469 359.074219 110.496094 358.066406 109.488281 356.945312 C 108.371094 359.1875 106.914062 361.539062 106.128906 363.441406 C 104.5625 366.804688 103.105469 370.390625 100.976562 373.414062 C 98.734375 376.660156 96.269531 379.910156 93.804688 383.046875 C 93.023438 384.054688 92.238281 385.175781 91.34375 386.296875 C 94.144531 389.878906 96.941406 393.800781 98.289062 398.171875 C 100.078125 404.109375 99.519531 411.835938 98.625 417.886719 C 97.617188 425.167969 94.589844 432.449219 91.902344 439.171875 C 88.878906 446.5625 84.285156 453.84375 79.242188 460.007812 C 77.117188 462.582031 74.652344 464.824219 72.074219 467.0625 C 73.644531 467.0625 75.210938 467.0625 76.777344 467.0625 C 80.363281 467.0625 83.949219 466.503906 87.535156 465.945312 C 90.78125 465.382812 93.808594 464.152344 97.167969 464.488281 C 100.191406 464.824219 102.878906 467.289062 106.015625 468.183594 C 107.699219 468.632812 112.851562 469.640625 114.53125 471.207031 C 118.789062 472.21875 124.390625 474.457031 123.605469 478.042969 C 122.148438 477.929688 121.027344 476.921875 119.460938 476.921875 C 118.898438 476.921875 118.339844 476.921875 117.78125 477.035156 C 117.667969 478.378906 116.769531 479.5 115.539062 480.394531 C 117.445312 481.402344 119.347656 482.972656 121.363281 483.753906 C 123.492188 484.652344 125.621094 484.988281 127.863281 485.324219 C 129.878906 485.660156 132.117188 485.882812 133.910156 487.339844 C 135.144531 488.347656 137.609375 491.371094 135.925781 492.941406 C 133.796875 490.589844 131.894531 490.589844 129.429688 490.925781 C 130.550781 493.5 132.230469 499.101562 129.878906 499.773438 C 128.308594 500.222656 127.527344 497.757812 126.515625 496.863281 C 125.507812 495.964844 124.277344 495.519531 123.042969 495.292969 C 123.269531 497.199219 124.164062 502.015625 121.589844 501.679688 C 120.46875 501.566406 119.90625 499.214844 118.789062 498.765625 C 117.667969 498.207031 116.210938 498.65625 115.089844 498.542969 C 109.9375 498.207031 104.5625 498.429688 99.519531 497.535156 C 98.0625 497.308594 96.382812 496.75 94.816406 495.964844 C 90.109375 496.191406 85.40625 497.199219 80.8125 497.421875 C 73.644531 497.871094 66.472656 497.644531 59.304688 497.644531 C 45.078125 497.644531 31.074219 500.335938 16.847656 501.230469 C 14.160156 501.453125 11.582031 500.894531 9.453125 499.550781 C 2.394531 500.335938 -4.996094 500.109375 -11.941406 500.558594 C -16.3125 500.78125 -20.230469 499.886719 -24.378906 498.65625 C -29.082031 497.308594 -34.011719 496.636719 -38.378906 494.171875 C -40.621094 492.941406 -42.636719 491.261719 -44.316406 489.246094 C -47.117188 489.691406 -49.804688 489.691406 -52.496094 489.691406 C -57.761719 489.691406 -64.707031 489.804688 -69.632812 488.011719 C -68.515625 487.339844 -67.503906 486.109375 -67.058594 484.988281 C -68.851562 485.4375 -70.640625 486.554688 -72.546875 487.003906 C -74.5625 487.453125 -76.914062 487.339844 -79.042969 487.226562 C -78.707031 486.332031 -78.035156 485.4375 -77.699219 484.539062 C -80.835938 484.316406 -84.085938 485.324219 -86.996094 484.425781 C -86.773438 484.316406 -86.550781 483.644531 -86.214844 483.308594 C -87.894531 481.515625 -92.039062 480.730469 -94.277344 479.722656 C -96.632812 478.601562 -99.433594 477.707031 -101.5625 476.027344 C -101.113281 475.914062 -100.886719 475.578125 -100.550781 475.464844 C -101.785156 474.234375 -104.921875 473.898438 -106.601562 473.226562 C -108.84375 472.328125 -111.082031 471.320312 -113.097656 470.3125 C -111.753906 467.511719 -111.417969 467.0625 -114.21875 465.609375 C -115.5625 464.9375 -117.691406 464.152344 -118.8125 463.03125 C -119.820312 462.023438 -119.707031 460.902344 -120.605469 459.78125 C -122.0625 457.992188 -125.199219 457.09375 -127.101562 455.75 C -129.34375 454.292969 -131.46875 452.613281 -133.710938 451.269531 C -136.511719 449.476562 -137.296875 446.898438 -139.535156 444.210938 C -142.226562 440.960938 -145.25 438.273438 -148.050781 435.25 C -143.457031 436.035156 -149.394531 430.320312 -150.179688 429.535156 C -153.652344 425.726562 -156.675781 421.472656 -160.035156 417.664062 C -159.140625 418.109375 -157.796875 419.453125 -157.011719 418.335938 C -156.003906 416.988281 -158.355469 414.636719 -159.027344 413.851562 C -161.828125 410.15625 -167.542969 405.5625 -168.324219 400.746094 C -165.636719 400.972656 -162.949219 402.089844 -164.964844 398.171875 C -166.421875 395.257812 -169.671875 392.570312 -170.34375 389.207031 C -169.335938 389.207031 -168.664062 390.214844 -167.765625 390.554688 C -167.652344 388.425781 -169.671875 385.734375 -170.566406 383.832031 C -171.460938 382.039062 -172.136719 379.910156 -173.03125 378.230469 C -172.136719 378.230469 -171.574219 378.789062 -170.679688 379.015625 C -170.117188 376.324219 -173.816406 372.742188 -174.710938 370.164062 C -175.269531 368.148438 -175.382812 366.132812 -176.054688 364.226562 C -176.503906 362.996094 -177.175781 361.652344 -177.398438 360.417969 C -175.945312 361.761719 -174.597656 363.21875 -172.917969 364.339844 C -172.695312 362.882812 -173.925781 361.203125 -174.375 359.859375 C -175.160156 357.507812 -175.71875 355.042969 -176.390625 352.578125 C -177.0625 349.664062 -177.625 346.753906 -177.398438 343.726562 C -175.71875 344.734375 -174.039062 347.089844 -172.246094 348.992188 C -172.359375 347.871094 -172.472656 346.753906 -172.472656 346.078125 C -173.03125 341.039062 -173.589844 339.132812 -168.4375 338.910156 C -168.886719 334.542969 -171.238281 330.621094 -171.015625 325.804688 C -169.445312 326.363281 -167.652344 327.597656 -165.75 327.484375 C -168.214844 323.117188 -169.109375 316.167969 -168.773438 311.128906 C -166.308594 310.679688 -164.742188 312.585938 -162.613281 312.921875 C -163.84375 303.960938 -166.757812 295.445312 -164.742188 286.148438 C -163.957031 286.597656 -163.0625 287.042969 -162.613281 288.050781 C -160.035156 282.898438 -163.398438 272.929688 -159.027344 268.113281 C -157.796875 269.007812 -156.898438 270.242188 -155.554688 270.464844 C -155.105469 267.441406 -154.660156 264.414062 -154.324219 261.390625 C -153.988281 258.589844 -154.882812 254.109375 -153.539062 251.867188 C -152.082031 253.101562 -150.738281 254.445312 -150.066406 256.238281 C -150.179688 252.316406 -149.394531 248.507812 -149.171875 244.585938 C -148.945312 240.332031 -149.730469 235.960938 -149.507812 231.816406 C -147.152344 232.265625 -145.585938 236.523438 -144.242188 238.3125 C -143.679688 234.617188 -142 231.03125 -141.105469 227.335938 C -140.992188 226.664062 -140.769531 225.878906 -140.65625 224.984375 C -140.992188 218.484375 -139.761719 211.652344 -142.898438 205.265625 C -145.472656 206.164062 -147.9375 205.714844 -150.402344 207.058594 C -149.171875 204.484375 -145.699219 202.132812 -145.136719 199.667969 C -149.617188 197.648438 -155.554688 199.890625 -160.261719 199.554688 C -160.035156 195.96875 -151.972656 192.609375 -159.363281 192.050781 C -163.507812 191.710938 -170.453125 191.710938 -174.597656 192.945312 C -174.375 190.480469 -172.695312 187.902344 -172.808594 185.550781 C -176.617188 185.328125 -179.863281 186.113281 -183.449219 187.679688 C -186.136719 188.800781 -190.28125 193.058594 -193.082031 192.496094 C -193.195312 189.472656 -192.1875 186.558594 -192.300781 183.648438 C -197.5625 182.414062 -207.980469 191.375 -212.125 194.738281 C -213.023438 191.824219 -212.351562 188.128906 -212.464844 185.101562 C -216.71875 184.429688 -221.984375 192.496094 -225.34375 194.847656 C -225.679688 190.257812 -225.234375 185.441406 -225.457031 180.847656 C -228.257812 180.621094 -230.050781 183.984375 -232.515625 184.542969 C -235.652344 176.140625 -224.335938 163.59375 -217.953125 159.675781 C -219.746094 158.890625 -222.320312 158.777344 -224 159.5625 C -223.890625 157.546875 -218.511719 153.738281 -216.945312 152.167969 C -214.703125 150.039062 -211.679688 149.03125 -209.664062 146.902344 C -213.359375 144.664062 -212.125 142.871094 -208.207031 141.078125 C -205.179688 139.734375 -201.707031 139.511719 -198.570312 138.277344 C -199.246094 137.941406 -200.140625 136.484375 -200.699219 136.148438 C -198.234375 133.910156 -194.761719 130.996094 -191.179688 129.429688 C -191.402344 129.316406 -191.625 129.09375 -191.738281 128.980469 C -189.5 124.722656 -181.878906 123.378906 -177.847656 121.8125 C -173.816406 120.355469 -170.566406 119.792969 -166.308594 119.457031 C -168.101562 118.785156 -171.460938 117.105469 -172.917969 115.875 C -163.84375 113.074219 -152.53125 110.273438 -143.007812 112.847656 C -143.792969 110.832031 -145.472656 109.265625 -146.371094 107.359375 C -139.648438 107.472656 -134.269531 110.832031 -128.109375 111.953125 C -128.894531 110.382812 -130.015625 108.59375 -130.6875 106.910156 C -127.550781 108.703125 -123.179688 108.367188 -119.597656 109.375 C -116.683594 110.160156 -113.546875 113.074219 -110.632812 112.960938 C -110.859375 110.945312 -112.089844 109.039062 -111.867188 106.910156 C -107.722656 106.6875 -104.359375 111.839844 -100.328125 110.945312 C -100.777344 109.9375 -101.113281 108.480469 -101.113281 107.246094 C -95.625 109.039062 -91.367188 112.402344 -87.332031 116.65625 C -87.332031 114.867188 -88.230469 113.410156 -88.007812 111.503906 C -83.300781 113.074219 -80.386719 116.546875 -76.132812 119.121094 C -76.691406 116.210938 -79.492188 112.511719 -79.042969 109.710938 C -72.996094 110.046875 -66.945312 122.371094 -63.25 126.738281 C -61.007812 129.429688 -59.214844 134.582031 -56.527344 136.484375 C -54.398438 138.054688 -54.175781 137.492188 -53.839844 134.132812 C -50.140625 135.703125 -48.574219 143.207031 -47.566406 146.792969 C -46.78125 145.558594 -46.332031 143.542969 -45.324219 142.199219 C -40.621094 145.113281 -38.605469 153.511719 -37.484375 158.890625 C -36.8125 157.65625 -36.585938 155.867188 -35.578125 154.855469 C -31.769531 158.890625 -30.425781 169.308594 -30.539062 174.683594 C -28.96875 174.347656 -28.074219 172.222656 -26.953125 170.875 C -23.257812 175.917969 -25.160156 186.113281 -24.601562 192.160156 C -23.703125 191.265625 -22.472656 190.257812 -21.128906 190.367188 C -19.558594 194.960938 -21.128906 200.449219 -21.128906 205.265625 C -20.230469 203.699219 -19 202.355469 -17.09375 202.691406 C -16.199219 207.957031 -19.222656 213.894531 -18.328125 219.046875 C -17.09375 218.148438 -15.75 216.804688 -14.519531 215.796875 C -15.414062 219.269531 -14.742188 223.304688 -15.191406 226.886719 C -15.640625 229.914062 -17.65625 233.496094 -17.433594 236.523438 C -15.863281 236.1875 -14.632812 234.28125 -13.398438 233.050781 C -14.855469 235.851562 -14.96875 239.996094 -15.75 243.242188 C -16.535156 246.378906 -19.894531 251.53125 -19.671875 254.332031 C -17.542969 253.550781 -15.863281 251.53125 -14.519531 249.851562 C -16.757812 255.902344 -19.335938 262.0625 -22.585938 267.664062 C -28.1875 277.632812 -36.699219 285.476562 -43.195312 294.4375 C -46.332031 298.695312 -49.246094 302.949219 -51.375 307.878906 C -51.597656 308.328125 -51.824219 308.886719 -52.160156 309.558594 C -41.851562 300.824219 -30.539062 293.542969 -18.886719 286.597656 C -5.894531 278.867188 6.652344 270.128906 20.320312 263.742188 C 32.53125 258.03125 46.085938 255.453125 58.183594 249.292969 C 69.945312 243.242188 81.707031 233.386719 90.558594 223.191406 C 98.511719 214.003906 106.128906 204.820312 115.316406 196.976562 C 114.644531 193.394531 114.753906 189.808594 114.867188 185.886719 C 115.089844 177.039062 116.996094 168.523438 122.261719 161.355469 C 124.949219 157.546875 127.1875 157.320312 130.101562 160.792969 C 132.117188 163.148438 134.246094 165.277344 136.375 167.402344 C 137.269531 165.386719 138.390625 163.371094 139.734375 161.464844 C 144.777344 154.519531 147.351562 161.804688 150.714844 166.285156 C 153.960938 170.539062 156.875 174.910156 159.003906 179.839844 C 163.371094 180.0625 167.855469 180.175781 172.335938 180.511719 C 182.863281 181.40625 192.386719 183.757812 201.011719 190.367188 C 207.621094 195.523438 211.765625 201.90625 215.910156 208.851562 C 218.601562 211.988281 221.625 214.902344 224.761719 217.8125 C 228.570312 221.398438 235.179688 227.222656 233.164062 233.160156 C 232.265625 235.625 230.699219 237.867188 228.570312 238.761719 C 227.898438 244.363281 221.847656 249.515625 216.359375 249.292969 C 211.207031 259.488281 200.453125 255.789062 191.042969 258.589844 C 180.175781 261.839844 171.214844 268 165.164062 278.304688 C 163.035156 281.890625 161.132812 285.921875 159.5625 289.957031 C 160.125 291.75 160.90625 293.429688 161.804688 294.773438 C 165.164062 300.039062 170.09375 302.167969 175.808594 303.398438 C 178.382812 303.960938 181.519531 304.070312 183.648438 305.863281 C 185.328125 307.207031 186.898438 308.777344 188.691406 309.898438 C 191.492188 309 195.859375 309.222656 197.761719 310.121094 C 200.898438 311.578125 202.246094 314.265625 203.925781 316.953125 C 208.519531 315.945312 212.550781 317.289062 214.902344 322.105469 C 216.246094 324.90625 217.703125 325.578125 220.167969 327.371094 C 221.0625 328.042969 223.082031 329.613281 224.089844 330.84375 C 228.683594 332.636719 228.792969 336.894531 230.699219 342.046875 C 231.257812 343.503906 237.867188 356.050781 234.394531 355.824219 C 233.273438 355.714844 232.601562 353.023438 231.929688 352.351562 C 231.820312 352.242188 231.59375 352.128906 231.480469 351.90625 C 232.601562 355.9375 233.386719 360.644531 231.371094 363.78125 C 230.699219 362.996094 229.914062 361.988281 229.128906 361.089844 C 224.984375 361.988281 225.097656 356.386719 223.191406 352.800781 C 222.855469 355.378906 222.746094 358.066406 223.417969 360.53125 C 224.425781 364.117188 224.871094 365.683594 222.855469 368.820312 C 222.074219 367.8125 221.847656 366.355469 221.398438 364.898438 C 217.253906 364.453125 217.703125 356.160156 215.464844 353.472656 C 213.671875 351.34375 211.429688 350.449219 210.308594 347.535156 C 209.75 346.078125 209.300781 343.839844 208.40625 342.269531 C 206.949219 344.0625 206.5 346.191406 206.5 348.769531 C 206.613281 352.128906 208.292969 354.707031 208.628906 357.953125 C 207.398438 358.179688 205.941406 356.945312 204.933594 355.714844 C 200.898438 355.601562 200.226562 352.464844 198.996094 349.664062 Z M 198.996094 349.664062 " fill-opacity="1" fill-rule="nonzero"/></g><g fill="#e30613" fill-opacity="1"><g transform="translate(18.911079, 30.811257)"><g><path d="M 15.890625 -11.09375 C 15.148438 -10.269531 14.296875 -9.648438 13.328125 -9.234375 C 12.367188 -8.828125 11.285156 -8.625 10.078125 -8.625 C 7.628906 -8.625 5.691406 -9.363281 4.265625 -10.84375 C 2.847656 -12.320312 2.140625 -14.347656 2.140625 -16.921875 C 2.140625 -19.429688 2.910156 -21.441406 4.453125 -22.953125 C 5.992188 -24.460938 8.050781 -25.21875 10.625 -25.21875 C 13.425781 -25.21875 15.578125 -24.171875 17.078125 -22.078125 C 18.578125 -19.992188 19.328125 -17.019531 19.328125 -13.15625 C 19.328125 -8.820312 18.4375 -5.460938 16.65625 -3.078125 C 14.875 -0.703125 12.367188 0.484375 9.140625 0.484375 C 8.265625 0.484375 7.34375 0.398438 6.375 0.234375 C 5.414062 0.0664062 4.4375 -0.179688 3.4375 -0.515625 L 3.4375 -4.625 L 5.296875 -4.625 C 5.429688 -3.507812 5.859375 -2.648438 6.578125 -2.046875 C 7.296875 -1.453125 8.257812 -1.15625 9.46875 -1.15625 C 11.613281 -1.15625 13.210938 -1.960938 14.265625 -3.578125 C 15.316406 -5.203125 15.859375 -7.707031 15.890625 -11.09375 Z M 10.5 -23.5625 C 8.925781 -23.5625 7.722656 -22.988281 6.890625 -21.84375 C 6.054688 -20.707031 5.640625 -19.066406 5.640625 -16.921875 C 5.640625 -14.773438 6.054688 -13.125 6.890625 -11.96875 C 7.722656 -10.820312 8.925781 -10.25 10.5 -10.25 C 12.070312 -10.25 13.273438 -10.800781 14.109375 -11.90625 C 14.941406 -13.019531 15.359375 -14.625 15.359375 -16.71875 C 15.359375 -18.914062 14.9375 -20.601562 14.09375 -21.78125 C 13.257812 -22.96875 12.0625 -23.5625 10.5 -23.5625 Z M 10.5 -23.5625 "/></g></g></g><g fill="#e30613" fill-opacity="1"><g transform="translate(277.719684, 387.070532)"><g><path d="M -15.890625 11.09375 C -15.148438 10.269531 -14.296875 9.648438 -13.328125 9.234375 C -12.367188 8.828125 -11.285156 8.625 -10.078125 8.625 C -7.628906 8.625 -5.691406 9.363281 -4.265625 10.84375 C -2.847656 12.320312 -2.140625 14.347656 -2.140625 16.921875 C -2.140625 19.429688 -2.910156 21.441406 -4.453125 22.953125 C -5.992188 24.460938 -8.050781 25.21875 -10.625 25.21875 C -13.425781 25.21875 -15.578125 24.171875 -17.078125 22.078125 C -18.578125 19.992188 -19.328125 17.019531 -19.328125 13.15625 C -19.328125 8.820312 -18.4375 5.460938 -16.65625 3.078125 C -14.875 0.703125 -12.367188 -0.484375 -9.140625 -0.484375 C -8.265625 -0.484375 -7.34375 -0.398438 -6.375 -0.234375 C -5.414062 -0.0664062 -4.4375 0.179688 -3.4375 0.515625 L -3.4375 4.625 L -5.296875 4.625 C -5.429688 3.507812 -5.859375 2.648438 -6.578125 2.046875 C -7.296875 1.453125 -8.257812 1.15625 -9.46875 1.15625 C -11.613281 1.15625 -13.210938 1.960938 -14.265625 3.578125 C -15.316406 5.203125 -15.859375 7.707031 -15.890625 11.09375 Z M -10.5 23.5625 C -8.925781 23.5625 -7.722656 22.988281 -6.890625 21.84375 C -6.054688 20.707031 -5.640625 19.066406 -5.640625 16.921875 C -5.640625 14.773438 -6.054688 13.125 -6.890625 11.96875 C -7.722656 10.820312 -8.925781 10.25 -10.5 10.25 C -12.070312 10.25 -13.273438 10.800781 -14.109375 11.90625 C -14.941406 13.019531 -15.359375 14.625 -15.359375 16.71875 C -15.359375 18.914062 -14.9375 20.601562 -14.09375 21.78125 C -13.257812 22.96875 -12.0625 23.5625 -10.5 23.5625 Z M -10.5 23.5625 "/></g></g></g><g fill="#e30613" fill-opacity="1"><g transform="translate(39.642591, 390.070117)"><g><path d="M -12.90625 9.015625 C -12.300781 8.335938 -11.609375 7.832031 -10.828125 7.5 C -10.046875 7.164062 -9.164062 7 -8.1875 7 C -6.195312 7 -4.625 7.597656 -3.46875 8.796875 C -2.3125 10.003906 -1.734375 11.65625 -1.734375 13.75 C -1.734375 15.78125 -2.359375 17.410156 -3.609375 18.640625 C -4.867188 19.867188 -6.546875 20.484375 -8.640625 20.484375 C -10.910156 20.484375 -12.65625 19.632812 -13.875 17.9375 C -15.09375 16.25 -15.703125 13.832031 -15.703125 10.6875 C -15.703125 7.164062 -14.976562 4.4375 -13.53125 2.5 C -12.082031 0.570312 -10.046875 -0.390625 -7.421875 -0.390625 C -6.710938 -0.390625 -5.96875 -0.320312 -5.1875 -0.1875 C -4.40625 -0.0507812 -3.601562 0.148438 -2.78125 0.421875 L -2.78125 3.765625 L -4.296875 3.765625 C -4.410156 2.847656 -4.757812 2.144531 -5.34375 1.65625 C -5.925781 1.175781 -6.707031 0.9375 -7.6875 0.9375 C -9.4375 0.9375 -10.738281 1.59375 -11.59375 2.90625 C -12.445312 4.226562 -12.882812 6.265625 -12.90625 9.015625 Z M -8.53125 19.140625 C -7.25 19.140625 -6.269531 18.675781 -5.59375 17.75 C -4.914062 16.820312 -4.578125 15.488281 -4.578125 13.75 C -4.578125 12 -4.914062 10.65625 -5.59375 9.71875 C -6.269531 8.789062 -7.25 8.328125 -8.53125 8.328125 C -9.800781 8.328125 -10.773438 8.773438 -11.453125 9.671875 C -12.128906 10.578125 -12.46875 11.878906 -12.46875 13.578125 C -12.46875 15.367188 -12.125 16.742188 -11.4375 17.703125 C -10.757812 18.660156 -9.789062 19.140625 -8.53125 19.140625 Z M -8.53125 19.140625 "/></g></g></g><g fill="#e30613" fill-opacity="1"><g transform="translate(253.476868, 27.813783)"><g><path d="M 12.90625 -9.015625 C 12.300781 -8.335938 11.609375 -7.832031 10.828125 -7.5 C 10.046875 -7.164062 9.164062 -7 8.1875 -7 C 6.195312 -7 4.625 -7.597656 3.46875 -8.796875 C 2.3125 -10.003906 1.734375 -11.65625 1.734375 -13.75 C 1.734375 -15.78125 2.359375 -17.410156 3.609375 -18.640625 C 4.867188 -19.867188 6.546875 -20.484375 8.640625 -20.484375 C 10.910156 -20.484375 12.65625 -19.632812 13.875 -17.9375 C 15.09375 -16.25 15.703125 -13.832031 15.703125 -10.6875 C 15.703125 -7.164062 14.976562 -4.4375 13.53125 -2.5 C 12.082031 -0.570312 10.046875 0.390625 7.421875 0.390625 C 6.710938 0.390625 5.96875 0.320312 5.1875 0.1875 C 4.40625 0.0507812 3.601562 -0.148438 2.78125 -0.421875 L 2.78125 -3.765625 L 4.296875 -3.765625 C 4.410156 -2.847656 4.757812 -2.144531 5.34375 -1.65625 C 5.925781 -1.175781 6.707031 -0.9375 7.6875 -0.9375 C 9.4375 -0.9375 10.738281 -1.59375 11.59375 -2.90625 C 12.445312 -4.226562 12.882812 -6.265625 12.90625 -9.015625 Z M 8.53125 -19.140625 C 7.25 -19.140625 6.269531 -18.675781 5.59375 -17.75 C 4.914062 -16.820312 4.578125 -15.488281 4.578125 -13.75 C 4.578125 -12 4.914062 -10.65625 5.59375 -9.71875 C 6.269531 -8.789062 7.25 -8.328125 8.53125 -8.328125 C 9.800781 -8.328125 10.773438 -8.773438 11.453125 -9.671875 C 12.128906 -10.578125 12.46875 -11.878906 12.46875 -13.578125 C 12.46875 -15.367188 12.125 -16.742188 11.4375 -17.703125 C 10.757812 -18.660156 9.789062 -19.140625 8.53125 -19.140625 Z M 8.53125 -19.140625 "/></g></g></g><g clip-path="url(#e650ddb5e2)"><g clip-path="url(#709710e519)"><path fill="#e30613" d="M 72.457031 238.132812 L 79.542969 238.132812 L 79.542969 248.65625 L 72.457031 248.65625 Z M 72.457031 238.132812 " fill-opacity="1" fill-rule="nonzero"/></g></g><g clip-path="url(#d96bdd939f)"><g clip-path="url(#4d0df12405)"><path fill="#e30613" d="M 81.113281 248.726562 L 94.46875 248.726562 L 94.46875 271.269531 L 81.113281 271.269531 Z M 81.113281 248.726562 " fill-opacity="1" fill-rule="nonzero"/></g></g><g clip-path="url(#efc0998cce)"><g clip-path="url(#79e2e2aac5)"><path fill="#e30613" d="M 73.722656 239.996094 L 86.484375 239.996094 L 86.484375 253.65625 L 73.722656 253.65625 Z M 73.722656 239.996094 " fill-opacity="1" fill-rule="nonzero"/></g></g><g clip-path="url(#559f400647)"><g clip-path="url(#ec394bb4f0)"><path fill="#e30613" d="M 63.574219 235.148438 L 169.710938 235.148438 L 169.710938 297.753906 L 63.574219 297.753906 Z M 63.574219 235.148438 " fill-opacity="1" fill-rule="nonzero"/></g></g><g clip-path="url(#7d085f4687)"><g clip-path="url(#f5ef74b51c)"><path fill="#e30613" d="M 70.738281 257.757812 L 165.554688 257.757812 L 165.554688 303.125 L 70.738281 303.125 Z M 70.738281 257.757812 " fill-opacity="1" fill-rule="nonzero"/></g></g><g clip-path="url(#25cbe41a54)"><g clip-path="url(#d1a30633c3)"><path fill="#e30613" d="M 73.277344 263.429688 L 98.648438 263.429688 L 98.648438 297.421875 L 73.277344 297.421875 Z M 73.277344 263.429688 " fill-opacity="1" fill-rule="nonzero"/></g></g></svg>