<svg xmlns="http://www.w3.org/2000/svg" xmlns:xlink="http://www.w3.org/1999/xlink" width="396" zoomAndPan="magnify" viewBox="0 0 297.12 419.249996" height="559" preserveAspectRatio="xMidYMid meet" version="1.0"><defs><g/><clipPath id="354bcc9627"><path d="M 0 0.246094 L 296.238281 0.246094 L 296.238281 417.367188 L 0 417.367188 Z M 0 0.246094 " clip-rule="nonzero"/></clipPath><clipPath id="302be488b9"><path d="M 30.125 42.132812 L 265.921875 42.132812 L 265.921875 375.683594 L 30.125 375.683594 Z M 30.125 42.132812 " clip-rule="nonzero"/></clipPath><clipPath id="bdae1f6097"><path d="M 15.714844 42.132812 L 46.308594 42.132812 L 46.308594 90.636719 L 15.714844 90.636719 Z M 15.714844 42.132812 " clip-rule="nonzero"/></clipPath><clipPath id="a61cf2e61e"><path d="M 253.476562 41.851562 L 275.863281 41.851562 L 275.863281 77.667969 L 253.476562 77.667969 Z M 253.476562 41.851562 " clip-rule="nonzero"/></clipPath><clipPath id="4368338279"><path d="M 249.917969 327.449219 L 280.511719 327.449219 L 280.511719 375.949219 L 249.917969 375.949219 Z M 249.917969 327.449219 " clip-rule="nonzero"/></clipPath><clipPath id="7e4cc96aa1"><path d="M 19.617188 340.097656 L 42.003906 340.097656 L 42.003906 375.914062 L 19.617188 375.914062 Z M 19.617188 340.097656 " clip-rule="nonzero"/></clipPath><clipPath id="c4f1f56d35"><path d="M 53.457031 118.640625 L 242 118.640625 L 242 299 L 53.457031 299 Z M 53.457031 118.640625 " clip-rule="nonzero"/></clipPath></defs><g clip-path="url(#354bcc9627)"><path fill="#ffffff" d="M 0 0.246094 L 296.238281 0.246094 L 296.238281 417.367188 L 0 417.367188 Z M 0 0.246094 " fill-opacity="1" fill-rule="nonzero"/><path fill="#ffffff" d="M 0 0.246094 L 296.238281 0.246094 L 296.238281 417.367188 L 0 417.367188 Z M 0 0.246094 " fill-opacity="1" fill-rule="nonzero"/></g><g clip-path="url(#302be488b9)"><path stroke-linecap="butt" transform="matrix(0.746195, 0, 0, 0.746195, 30.125007, 42.134021)" fill="none" stroke-linejoin="miter" d="M -0.00000963595 -0.00161952 L 316.108775 -0.00161952 L 316.108775 447.094563 L -0.00000963595 447.094563 Z M -0.00000963595 -0.00161952 " stroke="#e30613" stroke-width="6" stroke-opacity="1" stroke-miterlimit="4"/></g><g clip-path="url(#bdae1f6097)"><path fill="#e30613" d="M 30.957031 42.132812 L 15.730469 66.285156 L 30.957031 90.4375 L 46.179688 66.285156 Z M 30.957031 42.132812 " fill-opacity="1" fill-rule="nonzero"/></g><g clip-path="url(#a61cf2e61e)"><path fill="#e30613" d="M 264.808594 41.851562 L 253.484375 59.820312 L 264.808594 77.785156 L 276.136719 59.820312 Z M 264.808594 41.851562 " fill-opacity="1" fill-rule="nonzero"/></g><g clip-path="url(#4368338279)"><path fill="#e30613" d="M 265.15625 327.449219 L 249.933594 351.601562 L 265.15625 375.753906 L 280.382812 351.601562 Z M 265.15625 327.449219 " fill-opacity="1" fill-rule="nonzero"/></g><g clip-path="url(#7e4cc96aa1)"><path fill="#e30613" d="M 30.953125 340.097656 L 19.625 358.066406 L 30.953125 376.03125 L 42.277344 358.066406 Z M 30.953125 340.097656 " fill-opacity="1" fill-rule="nonzero"/></g><g clip-path="url(#c4f1f56d35)"><path fill="#e30613" d="M 77.308594 150.550781 C 77.355469 147.949219 77.402344 144.382812 79.6875 142.964844 C 82.382812 141.273438 84.164062 146.667969 85.125 148.359375 C 85.492188 149.042969 85.855469 149.683594 86.175781 150.371094 C 87.5 150.234375 89.101562 150.507812 90.335938 150.507812 C 92.4375 150.507812 94.585938 150.691406 96.640625 151.007812 C 96.871094 151.054688 97.191406 151.191406 97.554688 151.328125 C 99.429688 150.140625 101.03125 148.816406 102.492188 147.078125 C 103.773438 145.570312 105.785156 142.324219 108.113281 142.644531 C 110.582031 143.011719 110.855469 147.171875 111.085938 149.089844 C 111.40625 152.105469 111.632812 155.214844 111.359375 158.277344 C 111.132812 160.699219 110.398438 162.757812 109.210938 164.765625 C 109.941406 165.453125 110.71875 166.09375 111.359375 166.824219 C 112.640625 168.285156 113.964844 169.65625 115.289062 171.027344 C 118.351562 174.183594 121.324219 177.425781 124.613281 180.261719 C 130.691406 185.515625 138.050781 188.488281 145.042969 192.144531 C 147.191406 193.242188 149.296875 194.203125 151.261719 195.433594 C 148.519531 189.675781 145.320312 181.996094 145.730469 175.507812 C 146.050781 175.875 146.414062 176.285156 146.644531 176.878906 C 146.597656 174.503906 146.507812 172.078125 146.691406 169.703125 C 147.238281 170.070312 147.695312 170.753906 148.242188 171.121094 C 148.609375 165.636719 147.375 159.921875 149.707031 154.757812 C 149.613281 155.855469 149.933594 156.953125 150.164062 158.003906 C 151.214844 154.804688 150.710938 149.820312 153.410156 147.445312 C 153.820312 148.128906 154.046875 149 154.324219 149.777344 C 156.289062 145.9375 156.652344 141 159.988281 137.847656 C 160.128906 138.53125 160.21875 139.21875 160.308594 139.902344 C 161.453125 138.53125 162.09375 136.566406 163.328125 135.105469 C 164.285156 133.960938 165.246094 133.046875 166.390625 132.085938 C 166.390625 132.863281 166.34375 133.640625 166.433594 134.417969 C 167.210938 133.824219 167.851562 132.453125 168.492188 131.585938 C 169.632812 129.984375 170.914062 128.429688 172.195312 127.015625 C 174.433594 124.546875 177.3125 122.214844 180.191406 120.707031 C 179.6875 122.351562 178.316406 123.402344 177.90625 125.003906 C 182.339844 122.351562 187.003906 119.976562 192.121094 118.742188 C 191.433594 119.65625 190.429688 120.339844 189.882812 121.347656 C 191.984375 121.757812 194.542969 120.25 196.644531 119.929688 C 199.023438 119.5625 201.125 119.792969 203.457031 119.746094 C 202.496094 120.476562 201.214844 121.074219 200.667969 122.308594 C 203.089844 122.71875 205.878906 121.988281 208.4375 122.351562 C 210.496094 122.625 214.972656 123.3125 216.34375 124.957031 C 215.660156 125.140625 215.429688 125.507812 214.972656 125.917969 C 217.078125 125.917969 221.554688 126.96875 222.878906 128.566406 C 222.46875 128.75 222.195312 129.117188 221.785156 129.300781 C 225.441406 129.664062 229.417969 128.75 232.433594 131.355469 C 231.792969 132.085938 230.421875 132.085938 229.460938 132.316406 C 229.460938 132.542969 229.460938 132.726562 229.460938 132.957031 C 230.652344 133.503906 232.339844 134.28125 233.164062 135.46875 C 233.53125 135.699219 233.894531 136.019531 234.261719 136.429688 C 235.265625 137.617188 234.945312 138.714844 235.679688 139.859375 C 236.820312 141.6875 241.300781 143.375 240.570312 145.980469 C 240.019531 145.800781 239.472656 145.84375 238.832031 145.753906 C 240.386719 148.039062 242.992188 154.300781 240.15625 156.449219 C 239.699219 155.898438 239.609375 155.261719 239.015625 154.984375 C 238.558594 157.089844 238.375 159.417969 237.507812 161.429688 C 236.042969 161.566406 236.042969 159.464844 235.859375 158.367188 C 234.171875 158.78125 233.4375 162.527344 232.890625 163.898438 C 232.386719 161.523438 230.925781 159.007812 228.640625 158.140625 C 228.320312 159.191406 228.410156 160.882812 227.496094 161.476562 C 226.21875 160.378906 225.074219 157.726562 223.476562 157.410156 C 223.0625 158.734375 223.292969 160.332031 222.742188 161.613281 C 220.824219 159.007812 219.542969 155.625 215.980469 154.984375 C 215.933594 156.265625 216.160156 157.820312 216.390625 159.054688 C 214.425781 159.144531 210.722656 157.910156 209.214844 156.675781 C 209.03125 158.230469 209.304688 159.464844 210.265625 160.746094 C 209.398438 160.882812 207.890625 160.515625 206.5625 159.96875 C 205.421875 161.613281 204.691406 164.082031 204.507812 165.863281 C 207.25 164.21875 207.933594 163.53125 207.113281 167.1875 C 206.519531 169.703125 206.425781 172.492188 206.65625 175.050781 C 207.296875 174.273438 207.796875 172.765625 208.894531 172.675781 C 209.03125 174.820312 208.390625 177.609375 209.214844 179.621094 C 209.855469 179.117188 210.3125 178.25 210.953125 177.746094 C 212.277344 180.308594 210.90625 184.558594 212.597656 186.886719 C 212.824219 186.339844 213.238281 186.113281 213.558594 185.746094 C 213.785156 188.578125 213.785156 191.871094 213.417969 194.613281 C 214.609375 194.703125 215.15625 193.515625 216.160156 193.242188 C 216.34375 195.480469 216.023438 197.765625 216.023438 199.960938 C 216.894531 200.097656 217.304688 199.457031 218.082031 199.320312 C 218.171875 200.917969 217.671875 202.519531 217.898438 204.074219 C 218.628906 203.980469 219.222656 203.480469 219.957031 203.160156 C 220 203.980469 219.910156 206.265625 219.636719 208.1875 C 221.328125 207.363281 223.382812 207.136719 224.707031 208.1875 C 221.648438 210.792969 218.8125 214.265625 219.085938 218.5625 C 219.542969 218.289062 220.230469 218.152344 220.640625 217.875 C 220.367188 219.75 218.402344 225.007812 222.058594 222.949219 C 221.28125 225.007812 220.550781 226.011719 220.734375 228.433594 C 222.058594 228.25 223.246094 226.5625 224.664062 226.835938 C 223.476562 228.34375 220.6875 231.039062 220.734375 233.050781 C 222.515625 233.003906 224.25 232.136719 226.261719 232.089844 C 223.335938 233.507812 220.503906 238.445312 219.589844 241.507812 C 220.824219 241.507812 222.058594 240.820312 223.292969 240.59375 C 223.292969 242.742188 220.503906 245.164062 219.589844 247.082031 C 220.367188 246.304688 221.964844 246.03125 223.0625 246.167969 C 222.652344 248.5 219.542969 249.640625 218.859375 251.835938 C 219.863281 250.785156 221.144531 249.414062 222.5625 250.648438 C 220.414062 251.378906 219.042969 253.710938 217.625 255.355469 C 216.207031 257.046875 215.613281 258.371094 218.585938 257.960938 C 217.441406 258.921875 214.152344 261.980469 213.738281 263.492188 C 216.617188 264.863281 211.820312 266.964844 210.996094 267.648438 C 209.445312 268.976562 209.625 271.125 208.253906 272.449219 C 207.339844 273.363281 205.46875 273.363281 204.691406 274.367188 C 203.957031 275.328125 204.871094 275.601562 204.371094 276.472656 C 203.957031 277.15625 202.542969 277.292969 201.902344 277.523438 C 200.667969 278.023438 200.804688 277.980469 200.164062 278.894531 C 199.800781 279.394531 199.84375 280.171875 198.929688 280.765625 C 198.152344 281.316406 197.238281 281.5 196.371094 281.910156 C 198.886719 284.835938 191.160156 285.019531 192.347656 287.347656 C 190.566406 289.3125 187.871094 290.046875 185.402344 290.089844 C 185.722656 290.640625 185.859375 291.28125 185.8125 291.964844 C 183.847656 291.917969 181.746094 292.375 179.78125 292.511719 C 181.105469 294.9375 176.945312 294.386719 175.851562 294.480469 C 176.308594 294.796875 176.398438 295.253906 176.71875 295.621094 C 173.472656 295.757812 170.183594 296.261719 166.800781 296.125 C 164.195312 296.03125 161.636719 295.164062 159.121094 294.480469 C 157.339844 295.394531 155.28125 295.894531 153.410156 296.535156 C 147.191406 298.59375 140.929688 299.140625 134.441406 298.730469 C 131.195312 298.5 127.90625 297.953125 124.796875 296.992188 C 123.378906 296.535156 121.871094 296.351562 120.453125 295.851562 C 119.816406 295.621094 119.175781 295.347656 118.535156 295.074219 C 117.941406 295.804688 117.164062 296.398438 116.386719 296.445312 C 114.742188 296.582031 112.640625 296.167969 111.039062 295.851562 C 109.257812 295.484375 107.476562 295.117188 105.648438 294.890625 C 103.132812 294.570312 100.480469 293.976562 97.921875 293.792969 C 97.144531 293.882812 96.367188 293.929688 95.546875 293.929688 C 93.488281 293.929688 90.882812 293.382812 88.828125 293.882812 C 88.09375 294.066406 87.179688 295.621094 86.632812 294.753906 C 86.175781 293.976562 86.953125 293.015625 87.59375 292.285156 C 87.136719 292.238281 86.679688 292.148438 86.175781 292.285156 C 85.582031 292.421875 84.210938 292.96875 84.851562 291.828125 C 85.214844 291.140625 86.265625 290.960938 86.863281 290.683594 C 87.320312 290.457031 87.683594 290.183594 88.050781 289.863281 C 87.820312 289.769531 87.59375 289.726562 87.363281 289.679688 C 87.042969 289.632812 85.808594 289.863281 85.671875 289.542969 C 85.078125 288.21875 91.433594 287.484375 92.027344 287.210938 C 93.078125 286.664062 93.582031 285.703125 94.90625 285.839844 C 95.773438 285.933594 96.640625 286.113281 97.511719 286.296875 C 97.875 286.023438 98.425781 285.839844 98.746094 285.75 C 99.660156 285.519531 100.574219 285.839844 101.53125 286.070312 C 103.132812 286.480469 104.730469 286.617188 106.332031 286.570312 C 106.242188 286.480469 106.195312 286.390625 106.105469 286.296875 C 105.785156 285.976562 105.554688 285.75 105.1875 285.566406 C 104.914062 285.429688 104.320312 285.519531 104.183594 285.199219 C 103.816406 284.242188 106.148438 284.242188 107.292969 284.421875 C 107.019531 283.964844 106.742188 283.507812 106.515625 283.144531 C 105.921875 282.183594 105.1875 281.316406 104.59375 280.308594 C 104.320312 279.898438 104 279.488281 103.679688 279.121094 C 101.988281 277.523438 100.4375 275.875 99.109375 273.957031 C 97.054688 270.984375 95.089844 267.605469 93.945312 264.175781 C 92.804688 260.75 92.574219 256.863281 92.757812 253.253906 C 93.03125 247.722656 94.859375 242.558594 98.472656 238.582031 C 98.242188 238.261719 98.015625 237.941406 97.832031 237.621094 C 97.054688 236.339844 96.460938 234.96875 95.726562 233.644531 C 95.089844 232.457031 94.539062 231.039062 94.175781 229.714844 C 94.039062 229.210938 93.855469 228.617188 93.71875 228.023438 C 93.167969 229.210938 92.390625 230.308594 91.203125 231.175781 C 86.3125 234.832031 81.375 229.667969 76.53125 228.433594 C 73.882812 227.75 71.09375 228.070312 68.535156 227.019531 C 66.339844 226.105469 64.601562 224.871094 62.316406 224.457031 C 62.136719 225.601562 61.679688 226.742188 61.128906 226.5625 C 60.625 226.378906 60.125 225.371094 59.757812 225.007812 C 59.4375 224.6875 59.074219 224.367188 58.707031 224.09375 C 58.617188 224.824219 58.386719 225.507812 58.296875 226.242188 C 58.203125 227.019531 58.433594 227.976562 58.707031 228.707031 C 58.890625 229.210938 59.894531 230.261719 59.484375 230.8125 C 58.796875 231.769531 57.152344 228.984375 56.46875 227.75 C 56.285156 228.800781 56.011719 229.804688 56.148438 230.855469 C 56.238281 231.589844 56.789062 234.421875 55.371094 232.777344 C 54.226562 231.449219 54.777344 229.484375 54.457031 227.933594 C 54.089844 226.195312 53.132812 224.824219 53.496094 222.996094 C 53.769531 221.761719 54.457031 220.617188 55.1875 219.523438 C 55.050781 218.746094 55.140625 217.785156 55.371094 217.28125 C 55.78125 216.367188 56.832031 215.910156 57.425781 215.132812 C 58.019531 214.355469 58.523438 213.535156 58.980469 212.667969 C 59.894531 210.976562 61.449219 210.472656 63.140625 210.335938 C 63.507812 210.152344 63.917969 209.96875 64.28125 209.742188 C 65.058594 209.285156 65.746094 208.734375 66.523438 208.324219 C 68.167969 207.410156 69.90625 206.542969 71.550781 205.628906 C 71.6875 205.535156 71.824219 205.492188 72.007812 205.398438 C 72.417969 204.4375 72.554688 203.25 72.738281 202.292969 C 73.011719 200.917969 73.332031 199.59375 73.789062 198.269531 C 74.703125 195.574219 75.34375 192.96875 75.34375 190.085938 C 75.34375 189.449219 75.34375 188.625 75.207031 187.800781 C 72.648438 185.609375 69.082031 185.289062 66.707031 183.003906 C 66.203125 183.050781 65.699219 183.050781 65.195312 182.957031 C 61.90625 182.453125 59.757812 179.117188 59.394531 175.828125 C 58.617188 175.371094 57.976562 174.683594 57.792969 173.769531 C 57.335938 171.578125 59.851562 169.246094 61.039062 167.644531 C 62.226562 166.046875 63.507812 164.539062 64.785156 163.03125 C 65.195312 161.019531 65.792969 159.144531 67.070312 157.363281 C 69.035156 154.667969 71.550781 153.019531 74.429688 151.558594 C 75.296875 151.101562 76.257812 150.734375 77.308594 150.550781 Z M 77.308594 150.550781 " fill-opacity="1" fill-rule="nonzero"/></g><g fill="#e30613" fill-opacity="1"><g transform="translate(18.911079, 30.811357)"><g><path d="M 1.875 0 L 1.875 -1.765625 L 5.03125 -1.765625 L 5.03125 -22.984375 L 1.875 -22.984375 L 1.875 -24.765625 L 11.546875 -24.765625 L 11.546875 -22.984375 L 8.390625 -22.984375 L 8.390625 -13.625 L 19.0625 -22.984375 L 16.375 -22.984375 L 16.375 -24.765625 L 24.59375 -24.765625 L 24.59375 -22.984375 L 21.8125 -22.984375 L 11.171875 -13.65625 L 23.078125 -1.765625 L 25.890625 -1.765625 L 25.890625 0 L 20.140625 0 L 8.390625 -11.765625 L 8.390625 -1.765625 L 11.546875 -1.765625 L 11.546875 0 Z M 1.875 0 "/></g></g></g><g fill="#e30613" fill-opacity="1"><g transform="translate(277.719684, 387.070508)"><g><path d="M -1.875 0 L -1.875 1.765625 L -5.03125 1.765625 L -5.03125 22.984375 L -1.875 22.984375 L -1.875 24.765625 L -11.546875 24.765625 L -11.546875 22.984375 L -8.390625 22.984375 L -8.390625 13.625 L -19.0625 22.984375 L -16.375 22.984375 L -16.375 24.765625 L -24.59375 24.765625 L -24.59375 22.984375 L -21.8125 22.984375 L -11.171875 13.65625 L -23.078125 1.765625 L -25.890625 1.765625 L -25.890625 0 L -20.140625 0 L -8.390625 11.765625 L -8.390625 1.765625 L -11.546875 1.765625 L -11.546875 0 Z M -1.875 0 "/></g></g></g><g fill="#e30613" fill-opacity="1"><g transform="translate(39.642591, 390.070117)"><g><path d="M -1.515625 0 L -1.515625 1.421875 L -4.078125 1.421875 L -4.078125 18.671875 L -1.515625 18.671875 L -1.515625 20.109375 L -9.375 20.109375 L -9.375 18.671875 L -6.8125 18.671875 L -6.8125 11.0625 L -15.484375 18.671875 L -13.296875 18.671875 L -13.296875 20.109375 L -19.984375 20.109375 L -19.984375 18.671875 L -17.71875 18.671875 L -9.078125 11.09375 L -18.734375 1.421875 L -21.03125 1.421875 L -21.03125 0 L -16.359375 0 L -6.8125 9.546875 L -6.8125 1.421875 L -9.375 1.421875 L -9.375 0 Z M -1.515625 0 "/></g></g></g><g fill="#e30613" fill-opacity="1"><g transform="translate(253.476868, 27.813812)"><g><path d="M 1.515625 0 L 1.515625 -1.421875 L 4.078125 -1.421875 L 4.078125 -18.671875 L 1.515625 -18.671875 L 1.515625 -20.109375 L 9.375 -20.109375 L 9.375 -18.671875 L 6.8125 -18.671875 L 6.8125 -11.0625 L 15.484375 -18.671875 L 13.296875 -18.671875 L 13.296875 -20.109375 L 19.984375 -20.109375 L 19.984375 -18.671875 L 17.71875 -18.671875 L 9.078125 -11.09375 L 18.734375 -1.421875 L 21.03125 -1.421875 L 21.03125 0 L 16.359375 0 L 6.8125 -9.546875 L 6.8125 -1.421875 L 9.375 -1.421875 L 9.375 0 Z M 1.515625 0 "/></g></g></g></svg>