<svg xmlns="http://www.w3.org/2000/svg" xmlns:xlink="http://www.w3.org/1999/xlink" width="396" zoomAndPan="magnify" viewBox="0 0 297.12 419.249996" height="559" preserveAspectRatio="xMidYMid meet" version="1.0"><defs><g/><clipPath id="df7113dd4b"><path d="M 0 0.246094 L 296.238281 0.246094 L 296.238281 417.367188 L 0 417.367188 Z M 0 0.246094 " clip-rule="nonzero"/></clipPath><clipPath id="2c218360d4"><path d="M 30.125 42.132812 L 265.921875 42.132812 L 265.921875 375.683594 L 30.125 375.683594 Z M 30.125 42.132812 " clip-rule="nonzero"/></clipPath><clipPath id="03e859d8f1"><path d="M 15.714844 42.132812 L 46.308594 42.132812 L 46.308594 90.636719 L 15.714844 90.636719 Z M 15.714844 42.132812 " clip-rule="nonzero"/></clipPath><clipPath id="42a6561aa3"><path d="M 253.476562 41.851562 L 275.863281 41.851562 L 275.863281 77.667969 L 253.476562 77.667969 Z M 253.476562 41.851562 " clip-rule="nonzero"/></clipPath><clipPath id="7fffbc4e70"><path d="M 249.917969 327.449219 L 280.511719 327.449219 L 280.511719 375.949219 L 249.917969 375.949219 Z M 249.917969 327.449219 " clip-rule="nonzero"/></clipPath><clipPath id="cebd55f308"><path d="M 19.617188 340.097656 L 42.003906 340.097656 L 42.003906 375.914062 L 19.617188 375.914062 Z M 19.617188 340.097656 " clip-rule="nonzero"/></clipPath><clipPath id="144c5a3b68"><path d="M 167 207.097656 L 252.703125 207.097656 L 252.703125 264.554688 L 167 264.554688 Z M 167 207.097656 " clip-rule="nonzero"/></clipPath><clipPath id="4aa15cdc94"><path d="M 49.003906 152.089844 L 167.449219 152.089844 L 167.449219 265.511719 L 49.003906 265.511719 Z M 49.003906 152.089844 " clip-rule="nonzero"/></clipPath><clipPath id="f0d6c46252"><path d="M 224 396.21875 L 248.648438 396.21875 L 248.648438 411.8125 L 224 411.8125 Z M 224 396.21875 " clip-rule="nonzero"/></clipPath><clipPath id="ed0294ae18"><path d="M 227.515625 396.476562 C 234.15625 398.5625 237.214844 397.59375 238.855469 397.96875 C 239.976562 398.191406 240.796875 398.488281 241.46875 399.308594 C 242.511719 400.355469 242.4375 402.890625 243.558594 404.460938 C 244.675781 406.101562 248.109375 407.371094 248.410156 408.789062 C 248.632812 409.683594 247.960938 410.949219 247.363281 411.324219 C 246.839844 411.773438 245.796875 411.699219 245.199219 411.472656 C 244.753906 411.324219 244.304688 410.875 244.15625 410.429688 C 243.929688 409.90625 243.855469 408.863281 244.15625 408.265625 C 244.453125 407.742188 245.347656 407.144531 245.945312 407.070312 C 246.46875 406.996094 246.992188 407.070312 247.4375 407.371094 C 247.960938 407.816406 248.484375 409.308594 248.410156 409.980469 C 248.332031 410.503906 248.035156 410.949219 247.585938 411.25 C 247.066406 411.546875 246.246094 411.773438 245.421875 411.546875 C 244.082031 411.25 242.066406 409.609375 240.722656 408.191406 C 239.230469 406.699219 238.632812 403.636719 236.917969 402.742188 C 235.277344 401.921875 232.738281 403.191406 230.796875 402.890625 C 228.785156 402.59375 226.097656 401.699219 225.050781 400.878906 C 224.457031 400.355469 224.15625 399.90625 224.082031 399.308594 C 223.933594 398.789062 224.082031 398.042969 224.304688 397.59375 C 224.605469 397.070312 225.203125 396.625 225.722656 396.398438 C 226.246094 396.25 227.515625 396.476562 227.515625 396.476562 " clip-rule="nonzero"/></clipPath><clipPath id="39e6c2ff16"><path d="M 224.472656 247.234375 L 240.199219 247.234375 L 240.199219 274.925781 L 224.472656 274.925781 Z M 224.472656 247.234375 " clip-rule="nonzero"/></clipPath><clipPath id="a57984355c"><path d="M 224.53125 258.28125 C 225.5 252.609375 227.589844 249.847656 229.304688 248.726562 C 230.722656 247.757812 232.441406 247.234375 233.933594 247.460938 C 235.5 247.609375 237.4375 248.652344 238.484375 249.847656 C 239.453125 251.042969 239.753906 252.980469 239.976562 254.625 C 240.199219 256.265625 240.050781 258.28125 239.679688 259.695312 C 239.453125 260.742188 239.082031 261.710938 238.484375 262.457031 C 237.8125 263.128906 236.992188 263.726562 236.097656 264.023438 C 235.199219 264.25 234.007812 264.324219 233.035156 264.101562 C 232.140625 263.800781 231.246094 263.277344 230.648438 262.605469 C 229.902344 261.785156 229.304688 260.445312 229.15625 259.175781 C 229.007812 257.609375 229.753906 255.144531 230.425781 253.800781 C 230.796875 252.90625 231.246094 252.085938 231.917969 251.863281 C 232.738281 251.5625 234.605469 252.011719 235.273438 252.683594 C 236.023438 253.429688 236.097656 254.847656 236.171875 256.191406 C 236.320312 257.980469 236.023438 261.265625 235.273438 262.53125 C 234.828125 263.277344 234.082031 263.652344 233.335938 263.726562 C 232.441406 263.875 230.949219 263.355469 230.203125 262.53125 C 229.304688 261.5625 228.933594 259.472656 228.933594 257.90625 C 228.933594 256.339844 229.453125 254.398438 230.425781 253.207031 C 231.320312 252.085938 233.113281 250.816406 234.304688 250.964844 C 235.574219 251.117188 236.992188 252.757812 237.589844 254.546875 C 238.78125 257.609375 236.542969 265.816406 236.84375 269.175781 C 237.066406 271.039062 238.261719 272.457031 237.960938 273.425781 C 237.738281 274.097656 236.917969 274.695312 236.394531 274.769531 C 235.945312 274.84375 235.273438 274.472656 234.976562 274.097656 C 234.679688 273.800781 234.527344 273.054688 234.679688 272.605469 C 234.828125 272.160156 235.351562 271.636719 235.796875 271.488281 C 236.246094 271.339844 236.992188 271.488281 237.363281 271.785156 C 237.738281 272.085938 238.035156 272.832031 237.960938 273.277344 C 237.886719 273.800781 237.066406 274.621094 236.617188 274.769531 C 236.097656 274.84375 235.574219 274.695312 235.050781 274.25 C 234.082031 273.425781 232.738281 270.742188 232.363281 268.425781 C 231.84375 265.144531 233.707031 256.265625 233.859375 256.339844 C 234.007812 256.339844 234.453125 259.027344 233.933594 259.546875 C 233.484375 260.070312 231.695312 260.144531 231.171875 259.621094 C 230.5 258.875 230.574219 254.773438 231.394531 254.25 C 232.066406 253.800781 234.304688 254.847656 234.828125 255.519531 C 235.273438 256.117188 235.050781 257.832031 235.050781 257.832031 C 235.050781 257.832031 235.351562 253.429688 234.605469 252.683594 C 234.082031 252.160156 233.035156 252.160156 232.363281 252.308594 C 231.617188 252.460938 231.023438 252.90625 230.351562 253.652344 C 229.230469 254.921875 228.335938 259.398438 227.140625 260.070312 C 226.542969 260.445312 225.648438 260.367188 225.203125 260.070312 C 224.753906 259.773438 224.53125 258.28125 224.53125 258.28125 " clip-rule="nonzero"/></clipPath><clipPath id="37d0ea4eda"><path d="M 232 250.824219 L 253.835938 250.824219 L 253.835938 267.238281 L 232 267.238281 Z M 232 250.824219 " clip-rule="nonzero"/></clipPath><clipPath id="0e89ca5180"><path d="M 232.886719 250.890625 C 237.664062 251.5625 238.855469 257.683594 240.871094 259.695312 C 242.289062 261.191406 244.082031 262.085938 245.574219 262.53125 C 246.765625 262.90625 248.109375 262.308594 248.929688 262.605469 C 249.453125 262.832031 249.902344 263.128906 250.125 263.578125 C 250.347656 264.023438 250.421875 264.996094 250.199219 265.519531 C 249.976562 265.964844 249.601562 266.339844 249.078125 266.5625 C 248.332031 266.933594 246.917969 266.933594 245.871094 266.859375 C 244.902344 266.710938 244.15625 266.5625 243.183594 266.039062 C 241.617188 265.070312 238.855469 262.832031 237.738281 260.816406 C 236.691406 258.949219 236.171875 255.742188 236.46875 254.324219 C 236.617188 253.503906 236.992188 252.832031 237.589844 252.609375 C 238.1875 252.308594 239.527344 252.382812 240.050781 252.832031 C 240.574219 253.355469 239.828125 254.847656 240.347656 255.742188 C 240.945312 256.9375 242.960938 258.28125 244.082031 258.949219 C 244.902344 259.472656 245.574219 259.847656 246.320312 259.921875 C 247.066406 259.921875 247.738281 259.25 248.707031 259.175781 C 249.976562 259.175781 252.960938 259.398438 253.484375 260.144531 C 253.78125 260.59375 253.484375 261.785156 253.109375 262.085938 C 252.660156 262.457031 251.46875 262.605469 251.09375 262.308594 C 250.574219 261.9375 250.273438 260.367188 250.574219 259.921875 C 250.945312 259.472656 252.585938 259.25 253.035156 259.546875 C 253.40625 259.921875 253.558594 261.488281 253.257812 262.011719 C 252.960938 262.382812 252.214844 262.605469 251.765625 262.53125 C 251.320312 262.457031 250.722656 261.488281 250.496094 261.636719 C 250.199219 261.785156 250.722656 262.980469 250.421875 263.429688 C 250.050781 263.949219 249.003906 264.25 248.035156 264.398438 C 246.617188 264.546875 244.453125 264.25 242.886719 263.652344 C 241.394531 263.054688 239.902344 261.785156 238.933594 260.742188 C 238.1875 259.921875 237.738281 259.324219 237.363281 258.28125 C 236.917969 256.9375 236.394531 254.25 236.84375 253.28125 C 237.066406 252.757812 237.589844 252.535156 238.035156 252.382812 C 238.632812 252.308594 239.453125 252.308594 240.050781 252.832031 C 240.945312 253.726562 240.945312 257.535156 241.691406 258.875 C 242.140625 259.695312 242.664062 260.070312 243.257812 260.59375 C 243.929688 261.191406 244.527344 261.785156 245.421875 262.160156 C 246.617188 262.683594 249.003906 262.457031 249.75 263.128906 C 250.273438 263.578125 250.421875 264.472656 250.347656 265.070312 C 250.199219 265.667969 249.75 266.265625 249.078125 266.5625 C 248.109375 267.085938 246.167969 267.160156 244.527344 266.710938 C 242.363281 266.113281 239.378906 264.324219 237.589844 262.457031 C 235.722656 260.59375 233.410156 257.085938 233.558594 255.519531 C 233.632812 254.699219 235.199219 254.027344 235.050781 253.800781 C 234.976562 253.578125 233.707031 254.175781 233.1875 254.027344 C 232.738281 253.875 232.140625 253.429688 232.066406 252.980469 C 231.917969 252.460938 232.886719 250.890625 232.886719 250.890625 " clip-rule="nonzero"/></clipPath><clipPath id="6f5d95492e"><path d="M 187 342.15625 L 217.144531 342.15625 L 217.144531 362.570312 L 187 362.570312 Z M 187 342.15625 " clip-rule="nonzero"/></clipPath><clipPath id="5793387f62"><path d="M 196.101562 361.03125 C 191.996094 362.449219 190.578125 362.523438 189.535156 362.222656 C 188.636719 361.851562 187.445312 361.105469 187.144531 360.359375 C 186.921875 359.539062 187.21875 358.417969 187.890625 357.597656 C 188.789062 356.402344 190.953125 355.65625 193.117188 354.613281 C 196.324219 353.121094 202.292969 351.554688 205.578125 349.761719 C 207.964844 348.496094 210.054688 347.003906 211.472656 345.660156 C 212.515625 344.613281 212.816406 342.824219 213.785156 342.523438 C 214.53125 342.226562 216.097656 342.597656 216.546875 343.195312 C 216.992188 343.792969 216.992188 345.359375 216.621094 346.03125 C 216.320312 346.628906 215.277344 347.003906 214.679688 347.003906 C 214.15625 347.078125 213.636719 346.777344 213.261719 346.480469 C 212.890625 346.179688 212.515625 345.734375 212.441406 345.210938 C 212.292969 344.613281 212.441406 343.570312 212.964844 343.121094 C 213.488281 342.597656 215.054688 342.226562 215.726562 342.523438 C 216.398438 342.898438 217.144531 344.09375 216.992188 345.136719 C 216.917969 346.628906 214.605469 349.015625 213.039062 350.507812 C 211.472656 351.925781 210.128906 352.671875 207.816406 354.015625 C 203.636719 356.253906 192.59375 362.222656 189.460938 361.925781 C 188.265625 361.777344 187.445312 361.03125 187.144531 360.359375 C 186.921875 359.613281 187.371094 358.195312 187.890625 357.597656 C 188.265625 357.226562 188.9375 357 189.535156 357 C 190.054688 357 190.578125 357.597656 191.324219 357.597656 C 192.445312 357.671875 194.683594 355.808594 195.800781 356.179688 C 196.695312 356.402344 197.59375 357.671875 197.59375 358.492188 C 197.667969 359.3125 196.101562 361.03125 196.101562 361.03125 " clip-rule="nonzero"/></clipPath></defs><g clip-path="url(#df7113dd4b)"><path fill="#ffffff" d="M 0 0.246094 L 296.238281 0.246094 L 296.238281 417.367188 L 0 417.367188 Z M 0 0.246094 " fill-opacity="1" fill-rule="nonzero"/><path fill="#ffffff" d="M 0 0.246094 L 296.238281 0.246094 L 296.238281 417.367188 L 0 417.367188 Z M 0 0.246094 " fill-opacity="1" fill-rule="nonzero"/></g><g clip-path="url(#2c218360d4)"><path stroke-linecap="butt" transform="matrix(0.746195, 0, 0, 0.746195, 30.125007, 42.134021)" fill="none" stroke-linejoin="miter" d="M -0.00000963595 -0.00161952 L 316.108775 -0.00161952 L 316.108775 447.094563 L -0.00000963595 447.094563 Z M -0.00000963595 -0.00161952 " stroke="#e30613" stroke-width="6" stroke-opacity="1" stroke-miterlimit="4"/></g><g clip-path="url(#03e859d8f1)"><path fill="#e30613" d="M 30.957031 42.132812 L 15.730469 66.285156 L 30.957031 90.4375 L 46.179688 66.285156 Z M 30.957031 42.132812 " fill-opacity="1" fill-rule="nonzero"/></g><g clip-path="url(#42a6561aa3)"><path fill="#e30613" d="M 264.808594 41.851562 L 253.484375 59.820312 L 264.808594 77.785156 L 276.136719 59.820312 Z M 264.808594 41.851562 " fill-opacity="1" fill-rule="nonzero"/></g><g clip-path="url(#7fffbc4e70)"><path fill="#e30613" d="M 265.15625 327.449219 L 249.933594 351.601562 L 265.15625 375.753906 L 280.382812 351.601562 Z M 265.15625 327.449219 " fill-opacity="1" fill-rule="nonzero"/></g><g clip-path="url(#cebd55f308)"><path fill="#e30613" d="M 30.953125 340.097656 L 19.625 358.066406 L 30.953125 376.03125 L 42.277344 358.066406 Z M 30.953125 340.097656 " fill-opacity="1" fill-rule="nonzero"/></g><g clip-path="url(#144c5a3b68)"><path fill="#e30613" d="M 252.164062 249.796875 C 252.035156 249.160156 251.695312 248.605469 251.394531 248.007812 C 251.183594 247.539062 250.96875 247.113281 250.757812 246.644531 C 250.84375 246.601562 250.925781 246.519531 251.054688 246.476562 C 250.457031 246.007812 249.863281 245.582031 249.09375 244.984375 C 250.160156 245.113281 251.011719 245.242188 251.863281 245.324219 C 251.863281 245.242188 251.90625 245.15625 251.90625 245.113281 C 251.3125 244.8125 250.757812 244.472656 250.117188 244.132812 C 250.332031 243.792969 250.5 243.492188 250.585938 243.367188 C 249.308594 241.320312 247.09375 241.152344 245.175781 240.171875 C 246.328125 240.128906 247.433594 240.042969 248.753906 240 C 248.414062 239.703125 248.242188 239.53125 248.074219 239.363281 C 248.117188 239.277344 248.160156 239.191406 248.242188 239.105469 C 247.136719 238.980469 246.027344 238.894531 244.75 238.765625 C 245.007812 238.554688 245.09375 238.511719 245.261719 238.382812 C 244.964844 238.296875 244.707031 238.210938 244.453125 238.128906 C 244.453125 238.042969 244.453125 238 244.453125 237.914062 C 245.09375 237.785156 245.773438 237.699219 246.496094 237.574219 C 246.15625 237.359375 245.902344 237.191406 245.558594 236.933594 C 246.070312 236.722656 246.453125 236.59375 246.839844 236.464844 C 246.839844 236.421875 246.839844 236.339844 246.839844 236.296875 C 246.027344 236.210938 245.175781 236.125 244.070312 235.996094 C 244.664062 235.785156 244.964844 235.65625 245.132812 235.570312 C 243.386719 233.058594 240.960938 232.503906 238.0625 233.1875 C 238.574219 232.886719 239.085938 232.804688 239.554688 232.546875 C 239.808594 232.417969 240.195312 231.910156 240.109375 231.78125 C 239.9375 231.484375 239.554688 231.097656 239.214844 231.097656 C 238.660156 231.054688 238.105469 231.3125 237.554688 231.355469 C 237.042969 231.398438 236.53125 231.355469 236.019531 231.355469 C 236.019531 231.269531 236.019531 231.183594 235.976562 231.097656 C 236.53125 230.671875 237.042969 230.246094 237.636719 229.777344 C 237.210938 229.480469 236.871094 229.308594 236.574219 229.097656 C 234.871094 230.503906 234.015625 231.015625 231.25 230.886719 C 231.675781 230.332031 232.226562 229.992188 232.78125 229.566406 C 233.378906 229.097656 233.804688 228.628906 233.164062 228.160156 C 231.71875 228.5 230.480469 228.757812 229.203125 229.054688 C 229.375 228.714844 229.628906 228.289062 229.84375 227.820312 C 229.800781 227.734375 229.714844 227.691406 229.671875 227.605469 C 228.949219 227.945312 228.183594 228.289062 227.5 228.628906 C 227.074219 228.117188 226.691406 227.691406 226.308594 227.179688 C 225.5 227.945312 224.773438 228.671875 224.050781 229.394531 C 223.878906 229.265625 223.667969 229.140625 223.410156 228.925781 C 223.070312 229.949219 222.515625 230.289062 221.664062 229.523438 C 221.539062 229.394531 221.113281 229.4375 221.027344 229.566406 C 220.429688 230.246094 219.621094 230.035156 218.9375 230.246094 C 218.300781 230.417969 217.703125 230.886719 217.191406 231.3125 C 216.253906 232.078125 215.019531 232.546875 214.46875 233.824219 C 214.46875 233.824219 214.382812 233.824219 214.382812 233.867188 C 214.039062 234.039062 213.65625 234.25 213.144531 234.507812 C 212.890625 234.039062 212.421875 233.398438 212.210938 232.71875 C 210.890625 228.671875 208.035156 225.945312 204.371094 224.15625 C 201.730469 222.835938 198.835938 222.070312 196.066406 220.960938 C 195.128906 220.621094 194.105469 220.238281 193.46875 219.554688 C 191.847656 217.894531 190.445312 216.019531 188.824219 214.359375 C 187.84375 213.378906 186.695312 212.570312 185.589844 211.71875 C 184.992188 211.25 184.226562 210.910156 183.714844 210.355469 C 182.820312 209.417969 181.839844 208.738281 180.5625 208.523438 C 180.304688 208.480469 180.007812 208.226562 179.796875 208.011719 C 178.984375 207.117188 178.433594 207.117188 177.792969 208.140625 C 177.539062 208.523438 177.367188 208.992188 177.367188 209.460938 C 177.410156 211.632812 176.175781 212.910156 174.472656 213.890625 C 174.046875 214.148438 173.621094 214.445312 173.277344 214.785156 C 171.746094 216.148438 170.722656 217.765625 170.082031 219.769531 C 169.617188 221.300781 168.679688 222.664062 167.910156 224.070312 C 167.316406 225.179688 167.570312 226.242188 168.550781 226.585938 C 169.273438 226.839844 170 227.136719 170.722656 227.351562 C 171.277344 227.519531 171.914062 227.605469 172.46875 227.691406 C 172.894531 227.777344 173.320312 227.777344 173.746094 227.863281 C 173.789062 227.863281 173.746094 228.332031 173.746094 228.332031 C 173.320312 228.375 172.851562 228.414062 172.425781 228.375 C 170.339844 228.117188 167.867188 229.4375 167.316406 231.484375 C 166.890625 233.058594 167.058594 234.761719 168.167969 236.421875 C 168.210938 235.996094 168.335938 235.828125 168.59375 235.785156 C 168.847656 235.742188 169.148438 235.144531 169.574219 235.058594 C 170 234.976562 170.9375 235.058594 171.40625 234.847656 C 171.746094 234.675781 172.257812 234.507812 172.554688 234.632812 C 173.492188 235.101562 174.429688 235.65625 175.195312 236.339844 C 176.855469 237.785156 178.390625 239.363281 179.964844 240.894531 C 180.136719 241.023438 180.265625 241.238281 180.304688 241.40625 C 180.476562 242.046875 180.816406 242.386719 181.542969 242.300781 C 181.710938 242.300781 181.96875 242.34375 182.011719 242.472656 C 182.605469 243.707031 183.671875 245.027344 183.585938 246.21875 C 183.457031 247.839844 183.628906 249.242188 184.394531 250.605469 C 184.566406 250.90625 184.695312 251.246094 184.863281 251.542969 C 185.332031 252.394531 185.972656 253.207031 186.269531 254.101562 C 186.652344 255.421875 186.738281 256.824219 187.035156 258.445312 C 186.398438 258.1875 185.972656 257.976562 185.503906 257.847656 C 185.121094 257.71875 184.652344 257.421875 184.308594 257.507812 C 183.375 257.71875 182.4375 258.019531 181.667969 258.488281 C 181.160156 258.785156 180.773438 259.507812 180.648438 260.105469 C 180.519531 260.703125 180.945312 261.214844 181.710938 261.296875 C 181.96875 261.339844 182.265625 261.640625 182.4375 261.894531 C 182.863281 262.660156 183.457031 263.085938 184.351562 263.042969 C 184.863281 263.003906 185.375 262.917969 185.886719 262.875 C 186.3125 262.832031 186.695312 262.746094 187.121094 262.789062 C 187.675781 262.789062 188.230469 262.917969 188.824219 262.960938 C 189.933594 263.003906 191.039062 262.917969 192.105469 263.128906 C 193.425781 263.429688 194.660156 263.980469 195.9375 264.363281 C 196.152344 264.449219 196.40625 264.324219 196.664062 264.324219 C 197.300781 264.28125 197.898438 264.28125 198.535156 264.28125 C 199.003906 264.28125 199.515625 264.363281 199.984375 264.324219 C 200.582031 264.28125 201.175781 264.066406 201.773438 264.066406 C 203.351562 263.980469 204.925781 263.9375 206.460938 263.8125 C 207.226562 263.726562 207.992188 263.429688 208.757812 263.257812 C 209.609375 263.042969 210.464844 262.832031 211.316406 262.574219 C 211.953125 262.363281 212.933594 262.234375 213.105469 261.765625 C 213.699219 260.191406 213.828125 260.019531 215.488281 259.808594 C 216.765625 259.636719 217.960938 259.296875 219.238281 259 C 219.492188 258.957031 219.792969 258.914062 220.089844 258.914062 C 221.621094 258.785156 222.941406 257.378906 222.816406 255.847656 C 223.921875 255.589844 225.285156 255.675781 225.839844 254.3125 C 225.882812 254.183594 226.308594 254.183594 226.519531 254.183594 C 226.902344 254.183594 227.246094 254.226562 227.839844 254.3125 C 226.605469 253.121094 227.671875 252.609375 228.226562 252.011719 C 228.011719 251.671875 227.796875 251.332031 227.5 250.90625 C 228.992188 251.800781 230.3125 252.609375 231.84375 253.546875 C 231.335938 253.757812 230.992188 253.800781 230.90625 253.972656 C 230.523438 254.566406 230.011719 255.207031 229.929688 255.890625 C 229.84375 256.570312 230.609375 256.570312 231.164062 256.785156 C 231.632812 256.953125 232.101562 257.507812 232.355469 258.019531 C 232.65625 258.613281 232.738281 259.339844 232.78125 260.019531 C 232.78125 260.746094 232.953125 261.214844 233.71875 261.511719 C 234.316406 261.722656 234.871094 262.277344 235.507812 262.363281 C 238.660156 262.660156 241.855469 262.703125 245.007812 262.191406 C 246.964844 261.851562 248.882812 261.339844 250.84375 260.871094 C 251.695312 260.660156 252.121094 260.191406 251.777344 259.210938 C 251.566406 258.570312 251.097656 257.71875 252.035156 257.335938 C 251.820312 256.355469 251.609375 255.503906 251.394531 254.566406 C 251.652344 254.652344 251.90625 254.695312 252.246094 254.78125 C 252.246094 254.441406 252.375 254.183594 252.289062 253.972656 C 251.992188 253.332031 250.882812 252.695312 252.332031 252.140625 C 252.375 252.140625 252.375 252.011719 252.375 251.925781 C 252.164062 251.203125 252.289062 250.480469 252.164062 249.796875 Z M 252.164062 249.796875 " fill-opacity="1" fill-rule="nonzero"/></g><g clip-path="url(#4aa15cdc94)"><path fill="#e30613" d="M 67.804688 253.085938 C 68.21875 251.371094 66.503906 251.726562 65.914062 251.074219 C 65.734375 250.542969 65.617188 250.070312 65.441406 249.65625 C 65.203125 249.007812 64.96875 248.414062 64.730469 247.824219 C 64.671875 247.589844 64.554688 247.292969 64.375 247.234375 C 63.015625 246.703125 62.957031 245.402344 62.542969 244.277344 C 62.425781 243.863281 61.71875 243.628906 61.183594 243.273438 C 61.304688 243.097656 61.480469 242.800781 61.65625 242.503906 C 61.125 241.972656 60.0625 241.679688 60.890625 240.613281 C 60.949219 240.496094 60.238281 239.847656 59.886719 239.433594 C 60.0625 239.136719 60.359375 238.605469 60.710938 238.074219 C 60.238281 237.777344 59.886719 237.601562 59.472656 237.304688 C 59.886719 237.070312 60.121094 236.832031 60.535156 236.597656 C 60.179688 236.359375 59.886719 236.125 59.53125 235.886719 C 60.238281 235.058594 60.710938 234.230469 59.648438 233.285156 C 60.0625 232.8125 60.59375 232.339844 59.707031 231.75 C 59.53125 231.632812 59.648438 230.804688 59.886719 230.507812 C 60.179688 230.035156 60.769531 229.742188 60.238281 229.03125 C 60.179688 228.914062 60.535156 228.441406 60.710938 228.144531 C 60.121094 227.378906 60.417969 225.367188 61.480469 224.953125 C 61.066406 224.71875 60.769531 224.597656 60.417969 224.421875 C 62.011719 223.242188 62.011719 223.242188 61.007812 222.175781 C 61.421875 221.644531 61.894531 221.054688 62.308594 220.523438 C 62.25 220.523438 62.191406 220.523438 62.128906 220.523438 C 62.191406 220.167969 62.128906 219.695312 62.308594 219.398438 C 62.78125 218.570312 63.3125 217.746094 62.78125 216.738281 C 62.722656 216.5625 62.664062 216.324219 62.78125 216.148438 C 63.488281 215.144531 63.3125 214.140625 63.253906 212.957031 C 63.253906 211.597656 63.195312 210.476562 62.308594 209.410156 C 63.3125 208.523438 63.253906 208.347656 61.597656 207.285156 C 61.894531 207.046875 62.128906 206.871094 62.484375 206.574219 C 62.191406 206.339844 61.953125 205.984375 61.65625 205.925781 C 60.417969 205.746094 60.417969 204.980469 60.59375 204.035156 C 60.652344 203.796875 60.652344 203.324219 60.59375 203.324219 C 59.234375 203.03125 59.765625 201.789062 59.351562 200.960938 C 59.175781 200.960938 59 201.019531 58.703125 201.019531 C 58.40625 200.074219 58.289062 198.953125 56.871094 198.773438 C 57.046875 198.480469 57.226562 198.183594 57.460938 197.769531 C 56.988281 197.59375 56.515625 197.355469 55.984375 197.179688 C 56.042969 196.882812 56.101562 196.527344 56.160156 196.054688 C 55.039062 195.703125 54.980469 194.816406 55.214844 193.691406 C 54.507812 193.691406 53.855469 193.691406 53.207031 193.691406 C 53.382812 192.570312 53.5625 191.445312 53.738281 190.085938 C 53.03125 190.441406 52.617188 190.558594 52.261719 190.738281 C 51.671875 190.144531 53.382812 188.726562 51.433594 188.667969 C 51.613281 187.960938 51.789062 187.308594 51.964844 186.542969 C 51.492188 186.660156 51.199219 186.71875 50.605469 186.894531 C 51.019531 186.1875 51.316406 185.65625 51.613281 185.0625 C 51.199219 184.589844 50.785156 184.117188 50.429688 183.585938 C 50.371094 183.46875 50.488281 183.113281 50.664062 182.9375 C 50.960938 182.523438 51.257812 182.109375 51.613281 181.695312 C 51.550781 181.636719 51.492188 181.578125 51.375 181.519531 C 51.136719 181.695312 50.902344 181.871094 50.605469 182.109375 C 49.601562 180.867188 51.613281 180.277344 51.078125 179.214844 C 50.429688 179.15625 49.78125 179.09375 49.070312 178.976562 C 49.070312 178.859375 49.070312 178.742188 49.011719 178.621094 C 49.304688 178.503906 49.601562 178.445312 49.839844 178.269531 C 50.074219 178.148438 50.429688 177.914062 50.429688 177.796875 C 49.957031 176.554688 50.960938 176.199219 51.613281 175.785156 C 51.078125 175.429688 50.546875 175.078125 49.839844 174.664062 C 50.960938 174.308594 51.847656 174.070312 52.734375 173.777344 C 52.734375 173.660156 52.734375 173.539062 52.675781 173.363281 C 52.085938 173.304688 51.433594 173.246094 50.84375 173.246094 C 50.785156 173.1875 50.726562 173.066406 50.664062 173.007812 C 51.847656 172.535156 52.734375 171.945312 52.023438 171 C 52.675781 169.699219 53.148438 168.574219 53.855469 167.628906 C 54.210938 167.15625 55.039062 166.980469 55.570312 166.746094 C 55.453125 166.269531 55.335938 165.621094 55.273438 164.972656 C 55.273438 164.914062 55.925781 164.792969 56.457031 164.675781 C 56.457031 164.4375 56.515625 164.085938 56.515625 163.671875 C 56.574219 163.257812 56.632812 162.902344 56.632812 162.488281 C 57.046875 162.605469 57.460938 162.667969 57.816406 162.785156 C 58.113281 162.902344 58.347656 163.140625 58.464844 163.199219 C 60.296875 161.957031 58.464844 161.1875 57.875 159.890625 C 59.117188 160.125 60.0625 160.242188 61.066406 160.421875 C 60.890625 160.066406 60.652344 159.535156 60.417969 158.945312 C 61.183594 159.121094 61.835938 159.296875 62.78125 159.535156 C 62.425781 158.824219 62.191406 158.410156 61.953125 157.996094 C 62.898438 157.820312 63.785156 157.703125 64.671875 157.523438 C 64.847656 157.464844 65.027344 157.230469 65.203125 157.050781 C 65.855469 156.460938 66.386719 155.691406 67.449219 156.816406 C 67.625 155.753906 67.804688 154.867188 67.921875 154.15625 C 68.867188 154.097656 69.695312 154.214844 70.402344 153.980469 C 70.996094 153.742188 72.175781 153.449219 71.289062 152.148438 C 72.414062 152.5 73.242188 152.796875 74.1875 153.152344 C 74.363281 152.976562 74.601562 152.679688 74.953125 152.207031 C 75.367188 152.621094 75.78125 153.035156 76.195312 153.449219 C 76.3125 153.210938 76.492188 152.796875 76.726562 152.382812 C 77.910156 152.914062 79.089844 154.15625 80.507812 152.976562 C 80.804688 153.449219 81.101562 153.980469 81.574219 154.746094 C 81.988281 154.097656 82.164062 153.742188 82.460938 153.269531 C 82.933594 153.449219 83.40625 153.566406 83.9375 153.742188 C 84.171875 153.269531 84.410156 152.796875 84.765625 152.089844 C 85.058594 152.855469 85.238281 153.386719 85.472656 154.039062 C 86.003906 153.386719 86.066406 152.089844 87.363281 152.679688 C 87.542969 154.214844 87.542969 154.214844 88.960938 153.980469 C 89.019531 154.332031 89.019531 154.628906 89.078125 154.925781 C 89.667969 155.042969 90.203125 155.160156 90.96875 155.28125 C 91.027344 155.21875 91.207031 154.925781 91.441406 154.511719 C 92.210938 155.457031 92.859375 156.164062 93.511719 156.933594 C 93.511719 156.875 93.628906 156.640625 93.746094 156.460938 C 95.222656 156.34375 95.933594 157.40625 96.644531 158.46875 C 97.054688 158.175781 97.351562 157.996094 97.589844 157.878906 C 98.179688 158.175781 98.652344 158.410156 99.183594 158.648438 C 99.007812 158.945312 98.769531 159.296875 98.59375 159.652344 C 98.652344 159.710938 98.710938 159.769531 98.769531 159.890625 C 99.421875 159.417969 100.011719 158.882812 100.660156 158.410156 C 100.78125 158.46875 100.898438 158.589844 100.957031 158.648438 C 100.78125 159.0625 100.601562 159.535156 100.367188 160.125 C 101.074219 160.007812 101.726562 159.890625 102.492188 159.710938 C 102.433594 160.066406 102.375 160.421875 102.316406 160.714844 C 102.019531 162.074219 102.316406 162.667969 103.4375 163.492188 C 103.675781 163.671875 103.851562 164.203125 103.851562 164.558594 C 103.792969 165.03125 103.496094 165.503906 103.378906 165.621094 C 103.496094 166.332031 103.4375 166.804688 103.675781 167.15625 C 103.972656 167.570312 104.503906 167.808594 104.976562 168.164062 C 104.855469 168.28125 104.5625 168.515625 104.148438 168.871094 C 104.679688 168.929688 105.152344 168.988281 105.921875 169.050781 C 105.328125 169.582031 104.917969 169.875 104.5625 170.171875 C 105.152344 170.289062 105.742188 170.40625 106.628906 170.527344 C 106.097656 171 105.863281 171.234375 105.566406 171.53125 C 106.867188 173.363281 106.867188 174.367188 105.328125 175.429688 C 105.742188 175.667969 106.039062 175.84375 106.511719 176.140625 C 106.097656 176.4375 105.742188 176.671875 105.328125 177.027344 C 105.683594 177.617188 106.867188 178.03125 105.804688 178.859375 C 106.335938 179.035156 106.808594 179.214844 107.28125 179.390625 C 107.28125 179.449219 107.28125 179.566406 107.28125 179.628906 C 106.808594 179.804688 106.394531 179.921875 105.921875 180.101562 C 106.394531 181.578125 106.097656 181.871094 104.917969 182.226562 C 105.269531 182.34375 105.507812 182.464844 105.742188 182.523438 C 105.980469 182.640625 106.214844 182.699219 106.6875 182.878906 C 105.804688 183.351562 105.269531 183.765625 105.035156 184.769531 C 104.796875 185.714844 103.558594 186.421875 102.671875 187.308594 C 102.789062 187.488281 102.964844 187.78125 103.203125 188.253906 C 102.492188 188.195312 101.960938 188.195312 101.429688 188.136719 C 102.199219 189.140625 101.726562 190.441406 100.542969 190.855469 C 100.1875 190.972656 100.011719 191.445312 99.65625 191.683594 C 99.300781 191.917969 98.886719 191.976562 98.476562 192.390625 C 98.949219 192.511719 99.421875 192.746094 99.894531 192.746094 C 101.132812 192.6875 102.375 192.332031 103.558594 192.511719 C 105.742188 192.746094 107.929688 193.101562 110 193.75 C 112.480469 194.519531 114.902344 194.28125 117.328125 193.988281 C 120.28125 193.574219 123.117188 192.570312 125.480469 190.679688 C 127.136719 189.378906 128.4375 187.902344 128.792969 185.714844 C 129.085938 184.117188 129.441406 182.523438 129.972656 180.988281 C 130.625 179.15625 132.75 178.621094 134.167969 179.980469 C 135.234375 181.046875 135.941406 182.464844 136.769531 183.765625 C 137.125 184.296875 137.359375 184.886719 137.597656 185.476562 C 137.714844 185.476562 137.890625 185.476562 138.011719 185.476562 C 138.128906 185.0625 138.246094 184.648438 138.304688 184.175781 C 138.363281 182.40625 138.363281 180.632812 138.542969 178.859375 C 138.660156 177.085938 139.84375 175.726562 141.140625 175.609375 C 143.152344 175.371094 144.746094 176.257812 145.21875 178.207031 C 145.8125 180.691406 146.226562 183.171875 146.636719 185.714844 C 146.757812 186.542969 146.992188 187.132812 147.820312 187.546875 C 150.183594 188.847656 152.667969 189.96875 154.910156 191.503906 C 156.507812 192.628906 157.808594 194.164062 158.988281 195.703125 C 161.117188 197.828125 162.949219 200.546875 164.722656 203.265625 C 165.609375 204.683594 166.257812 206.21875 166.910156 207.757812 C 167.441406 208.878906 166.671875 209.589844 166.023438 210.296875 C 164.542969 211.953125 162.832031 213.371094 160.585938 213.785156 C 160.054688 213.902344 159.460938 214.199219 159.046875 214.554688 C 157.394531 216.03125 155.382812 216.03125 153.375 216.089844 C 151.660156 216.148438 149.890625 216.148438 148.117188 216.089844 C 145.691406 216.03125 144.097656 217.332031 142.914062 219.222656 C 141.675781 221.171875 140.90625 223.300781 140.257812 225.605469 C 139.132812 229.5625 137.242188 233.109375 133.164062 235.058594 C 131.15625 236.003906 131.214844 238.015625 131.449219 239.726562 C 131.746094 241.914062 132.457031 244.042969 133.105469 246.230469 C 133.875 248.769531 134.761719 251.253906 135.585938 253.734375 C 135.765625 254.265625 136 254.796875 136.179688 255.390625 C 136.945312 257.8125 138.71875 258.992188 141.082031 259.464844 C 141.851562 259.644531 142.679688 259.761719 143.445312 260 C 144.453125 260.351562 145.515625 260.707031 145.632812 261.949219 C 145.691406 263.011719 145.160156 263.957031 144.097656 264.3125 C 143.328125 264.546875 142.5 264.488281 141.675781 264.488281 C 140.667969 264.488281 139.664062 264.3125 138.660156 264.371094 C 135.113281 264.609375 132.632812 262.894531 130.742188 260.058594 C 129.382812 257.988281 127.726562 256.570312 124.949219 256.867188 C 122.585938 257.101562 120.164062 256.925781 117.800781 256.925781 C 117.148438 256.925781 116.5 257.042969 115.847656 257.28125 C 114.84375 257.632812 114.726562 258.699219 115.613281 259.230469 C 116.441406 259.761719 117.445312 260 118.390625 260.351562 C 119.691406 260.824219 120.105469 261.652344 119.277344 262.835938 C 118.507812 263.957031 117.503906 264.84375 116.027344 265.082031 C 114.195312 265.375 112.421875 265.554688 110.589844 264.667969 C 108.816406 263.839844 106.984375 264.3125 105.210938 265.082031 C 104.738281 265.316406 104.324219 265.671875 103.851562 265.730469 C 103.4375 265.789062 102.671875 265.554688 102.550781 265.257812 C 101.785156 263.191406 100.070312 262.953125 98.238281 262.714844 C 96.230469 262.480469 94.160156 262.304688 92.152344 261.890625 C 87.898438 261.003906 83.640625 260.175781 79.503906 259.054688 C 75.78125 258.046875 72.117188 256.6875 69.28125 253.851562 C 68.925781 253.4375 68.335938 253.320312 67.804688 253.085938 Z M 67.804688 253.085938 " fill-opacity="1" fill-rule="nonzero"/></g><g fill="#e30613" fill-opacity="1"><g transform="translate(18.911079, 30.811357)"><g><path d="M 15.828125 -6.765625 C 15.828125 -8.535156 15.382812 -9.910156 14.5 -10.890625 C 13.625 -11.867188 12.390625 -12.359375 10.796875 -12.359375 C 9.203125 -12.359375 7.960938 -11.867188 7.078125 -10.890625 C 6.203125 -9.910156 5.765625 -8.535156 5.765625 -6.765625 C 5.765625 -4.984375 6.203125 -3.601562 7.078125 -2.625 C 7.960938 -1.644531 9.203125 -1.15625 10.796875 -1.15625 C 12.390625 -1.15625 13.625 -1.644531 14.5 -2.625 C 15.382812 -3.601562 15.828125 -4.984375 15.828125 -6.765625 Z M 15.140625 -18.796875 C 15.140625 -20.296875 14.757812 -21.460938 14 -22.296875 C 13.238281 -23.140625 12.171875 -23.5625 10.796875 -23.5625 C 9.429688 -23.5625 8.363281 -23.140625 7.59375 -22.296875 C 6.832031 -21.460938 6.453125 -20.296875 6.453125 -18.796875 C 6.453125 -17.273438 6.832031 -16.09375 7.59375 -15.25 C 8.363281 -14.414062 9.429688 -14 10.796875 -14 C 12.171875 -14 13.238281 -14.414062 14 -15.25 C 14.757812 -16.09375 15.140625 -17.273438 15.140625 -18.796875 Z M 13.359375 -13.1875 C 15.234375 -12.925781 16.695312 -12.226562 17.75 -11.09375 C 18.800781 -9.96875 19.328125 -8.523438 19.328125 -6.765625 C 19.328125 -4.441406 18.585938 -2.648438 17.109375 -1.390625 C 15.640625 -0.140625 13.535156 0.484375 10.796875 0.484375 C 8.066406 0.484375 5.960938 -0.140625 4.484375 -1.390625 C 3.003906 -2.648438 2.265625 -4.441406 2.265625 -6.765625 C 2.265625 -8.523438 2.789062 -9.96875 3.84375 -11.09375 C 4.894531 -12.226562 6.367188 -12.925781 8.265625 -13.1875 C 6.585938 -13.488281 5.300781 -14.117188 4.40625 -15.078125 C 3.519531 -16.046875 3.078125 -17.285156 3.078125 -18.796875 C 3.078125 -20.785156 3.765625 -22.351562 5.140625 -23.5 C 6.515625 -24.644531 8.398438 -25.21875 10.796875 -25.21875 C 13.191406 -25.21875 15.078125 -24.644531 16.453125 -23.5 C 17.828125 -22.351562 18.515625 -20.785156 18.515625 -18.796875 C 18.515625 -17.285156 18.066406 -16.046875 17.171875 -15.078125 C 16.285156 -14.117188 15.015625 -13.488281 13.359375 -13.1875 Z M 13.359375 -13.1875 "/></g></g></g><g fill="#e30613" fill-opacity="1"><g transform="translate(277.719684, 387.070508)"><g><path d="M -15.828125 6.765625 C -15.828125 8.535156 -15.382812 9.910156 -14.5 10.890625 C -13.625 11.867188 -12.390625 12.359375 -10.796875 12.359375 C -9.203125 12.359375 -7.960938 11.867188 -7.078125 10.890625 C -6.203125 9.910156 -5.765625 8.535156 -5.765625 6.765625 C -5.765625 4.984375 -6.203125 3.601562 -7.078125 2.625 C -7.960938 1.644531 -9.203125 1.15625 -10.796875 1.15625 C -12.390625 1.15625 -13.625 1.644531 -14.5 2.625 C -15.382812 3.601562 -15.828125 4.984375 -15.828125 6.765625 Z M -15.140625 18.796875 C -15.140625 20.296875 -14.757812 21.460938 -14 22.296875 C -13.238281 23.140625 -12.171875 23.5625 -10.796875 23.5625 C -9.429688 23.5625 -8.363281 23.140625 -7.59375 22.296875 C -6.832031 21.460938 -6.453125 20.296875 -6.453125 18.796875 C -6.453125 17.273438 -6.832031 16.09375 -7.59375 15.25 C -8.363281 14.414062 -9.429688 14 -10.796875 14 C -12.171875 14 -13.238281 14.414062 -14 15.25 C -14.757812 16.09375 -15.140625 17.273438 -15.140625 18.796875 Z M -13.359375 13.1875 C -15.234375 12.925781 -16.695312 12.226562 -17.75 11.09375 C -18.800781 9.96875 -19.328125 8.523438 -19.328125 6.765625 C -19.328125 4.441406 -18.585938 2.648438 -17.109375 1.390625 C -15.640625 0.140625 -13.535156 -0.484375 -10.796875 -0.484375 C -8.066406 -0.484375 -5.960938 0.140625 -4.484375 1.390625 C -3.003906 2.648438 -2.265625 4.441406 -2.265625 6.765625 C -2.265625 8.523438 -2.789062 9.96875 -3.84375 11.09375 C -4.894531 12.226562 -6.367188 12.925781 -8.265625 13.1875 C -6.585938 13.488281 -5.300781 14.117188 -4.40625 15.078125 C -3.519531 16.046875 -3.078125 17.285156 -3.078125 18.796875 C -3.078125 20.785156 -3.765625 22.351562 -5.140625 23.5 C -6.515625 24.644531 -8.398438 25.21875 -10.796875 25.21875 C -13.191406 25.21875 -15.078125 24.644531 -16.453125 23.5 C -17.828125 22.351562 -18.515625 20.785156 -18.515625 18.796875 C -18.515625 17.285156 -18.066406 16.046875 -17.171875 15.078125 C -16.285156 14.117188 -15.015625 13.488281 -13.359375 13.1875 Z M -13.359375 13.1875 "/></g></g></g><g fill="#e30613" fill-opacity="1"><g transform="translate(39.642591, 390.070117)"><g><path d="M -12.859375 5.5 C -12.859375 6.9375 -12.5 8.050781 -11.78125 8.84375 C -11.070312 9.632812 -10.066406 10.03125 -8.765625 10.03125 C -7.472656 10.03125 -6.46875 9.632812 -5.75 8.84375 C -5.039062 8.050781 -4.6875 6.9375 -4.6875 5.5 C -4.6875 4.050781 -5.039062 2.925781 -5.75 2.125 C -6.46875 1.332031 -7.472656 0.9375 -8.765625 0.9375 C -10.066406 0.9375 -11.070312 1.332031 -11.78125 2.125 C -12.5 2.925781 -12.859375 4.050781 -12.859375 5.5 Z M -12.296875 15.265625 C -12.296875 16.484375 -11.984375 17.429688 -11.359375 18.109375 C -10.742188 18.796875 -9.878906 19.140625 -8.765625 19.140625 C -7.660156 19.140625 -6.796875 18.796875 -6.171875 18.109375 C -5.546875 17.429688 -5.234375 16.484375 -5.234375 15.265625 C -5.234375 14.035156 -5.546875 13.078125 -6.171875 12.390625 C -6.796875 11.710938 -7.660156 11.375 -8.765625 11.375 C -9.878906 11.375 -10.742188 11.710938 -11.359375 12.390625 C -11.984375 13.078125 -12.296875 14.035156 -12.296875 15.265625 Z M -10.84375 10.71875 C -12.375 10.507812 -13.566406 9.941406 -14.421875 9.015625 C -15.273438 8.097656 -15.703125 6.925781 -15.703125 5.5 C -15.703125 3.613281 -15.101562 2.160156 -13.90625 1.140625 C -12.707031 0.117188 -10.992188 -0.390625 -8.765625 -0.390625 C -6.546875 -0.390625 -4.835938 0.117188 -3.640625 1.140625 C -2.441406 2.160156 -1.84375 3.613281 -1.84375 5.5 C -1.84375 6.925781 -2.269531 8.097656 -3.125 9.015625 C -3.976562 9.941406 -5.171875 10.507812 -6.703125 10.71875 C -5.347656 10.957031 -4.304688 11.46875 -3.578125 12.25 C -2.859375 13.039062 -2.5 14.046875 -2.5 15.265625 C -2.5 16.878906 -3.054688 18.148438 -4.171875 19.078125 C -5.285156 20.015625 -6.816406 20.484375 -8.765625 20.484375 C -10.710938 20.484375 -12.242188 20.015625 -13.359375 19.078125 C -14.472656 18.148438 -15.03125 16.878906 -15.03125 15.265625 C -15.03125 14.046875 -14.671875 13.039062 -13.953125 12.25 C -13.234375 11.46875 -12.195312 10.957031 -10.84375 10.71875 Z M -10.84375 10.71875 "/></g></g></g><g fill="#e30613" fill-opacity="1"><g transform="translate(253.476868, 27.813812)"><g><path d="M 12.859375 -5.5 C 12.859375 -6.9375 12.5 -8.050781 11.78125 -8.84375 C 11.070312 -9.632812 10.066406 -10.03125 8.765625 -10.03125 C 7.472656 -10.03125 6.46875 -9.632812 5.75 -8.84375 C 5.039062 -8.050781 4.6875 -6.9375 4.6875 -5.5 C 4.6875 -4.050781 5.039062 -2.925781 5.75 -2.125 C 6.46875 -1.332031 7.472656 -0.9375 8.765625 -0.9375 C 10.066406 -0.9375 11.070312 -1.332031 11.78125 -2.125 C 12.5 -2.925781 12.859375 -4.050781 12.859375 -5.5 Z M 12.296875 -15.265625 C 12.296875 -16.484375 11.984375 -17.429688 11.359375 -18.109375 C 10.742188 -18.796875 9.878906 -19.140625 8.765625 -19.140625 C 7.660156 -19.140625 6.796875 -18.796875 6.171875 -18.109375 C 5.546875 -17.429688 5.234375 -16.484375 5.234375 -15.265625 C 5.234375 -14.035156 5.546875 -13.078125 6.171875 -12.390625 C 6.796875 -11.710938 7.660156 -11.375 8.765625 -11.375 C 9.878906 -11.375 10.742188 -11.710938 11.359375 -12.390625 C 11.984375 -13.078125 12.296875 -14.035156 12.296875 -15.265625 Z M 10.84375 -10.71875 C 12.375 -10.507812 13.566406 -9.941406 14.421875 -9.015625 C 15.273438 -8.097656 15.703125 -6.925781 15.703125 -5.5 C 15.703125 -3.613281 15.101562 -2.160156 13.90625 -1.140625 C 12.707031 -0.117188 10.992188 0.390625 8.765625 0.390625 C 6.546875 0.390625 4.835938 -0.117188 3.640625 -1.140625 C 2.441406 -2.160156 1.84375 -3.613281 1.84375 -5.5 C 1.84375 -6.925781 2.269531 -8.097656 3.125 -9.015625 C 3.976562 -9.941406 5.171875 -10.507812 6.703125 -10.71875 C 5.347656 -10.957031 4.304688 -11.46875 3.578125 -12.25 C 2.859375 -13.039062 2.5 -14.046875 2.5 -15.265625 C 2.5 -16.878906 3.054688 -18.148438 4.171875 -19.078125 C 5.285156 -20.015625 6.816406 -20.484375 8.765625 -20.484375 C 10.710938 -20.484375 12.242188 -20.015625 13.359375 -19.078125 C 14.472656 -18.148438 15.03125 -16.878906 15.03125 -15.265625 C 15.03125 -14.046875 14.671875 -13.039062 13.953125 -12.25 C 13.234375 -11.46875 12.195312 -10.957031 10.84375 -10.71875 Z M 10.84375 -10.71875 "/></g></g></g><g clip-path="url(#f0d6c46252)"><g clip-path="url(#ed0294ae18)"><path fill="#fefefe" d="M 221.097656 393.414062 L 251.453125 393.414062 L 251.453125 414.53125 L 221.097656 414.53125 Z M 221.097656 393.414062 " fill-opacity="1" fill-rule="nonzero"/></g></g><g clip-path="url(#39e6c2ff16)"><g clip-path="url(#a57984355c)"><path fill="#fefefe" d="M 221.546875 244.476562 L 242.960938 244.476562 L 242.960938 277.851562 L 221.546875 277.851562 Z M 221.546875 244.476562 " fill-opacity="1" fill-rule="nonzero"/></g></g><g clip-path="url(#37d0ea4eda)"><g clip-path="url(#0e89ca5180)"><path fill="#fefefe" d="M 229.082031 247.609375 L 256.445312 247.609375 L 256.445312 269.84375 L 229.082031 269.84375 Z M 229.082031 247.609375 " fill-opacity="1" fill-rule="nonzero"/></g></g><g clip-path="url(#6f5d95492e)"><g clip-path="url(#5793387f62)"><path fill="#fefefe" d="M 184.160156 339.539062 L 220.0625 339.539062 L 220.0625 365.285156 L 184.160156 365.285156 Z M 184.160156 339.539062 " fill-opacity="1" fill-rule="nonzero"/></g></g></svg>