<svg xmlns="http://www.w3.org/2000/svg" xmlns:xlink="http://www.w3.org/1999/xlink" width="396" zoomAndPan="magnify" viewBox="0 0 297.12 419.249996" height="559" preserveAspectRatio="xMidYMid meet" version="1.0"><defs><g/><clipPath id="0d14c2d82e"><path d="M 0 0.246094 L 296.238281 0.246094 L 296.238281 417.367188 L 0 417.367188 Z M 0 0.246094 " clip-rule="nonzero"/></clipPath><clipPath id="a147327ec6"><path d="M 30.125 42.132812 L 265.921875 42.132812 L 265.921875 375.683594 L 30.125 375.683594 Z M 30.125 42.132812 " clip-rule="nonzero"/></clipPath><clipPath id="792cd8de7a"><path d="M 15.714844 42.132812 L 46.308594 42.132812 L 46.308594 90.636719 L 15.714844 90.636719 Z M 15.714844 42.132812 " clip-rule="nonzero"/></clipPath><clipPath id="d068b106e5"><path d="M 253.476562 41.851562 L 275.863281 41.851562 L 275.863281 77.667969 L 253.476562 77.667969 Z M 253.476562 41.851562 " clip-rule="nonzero"/></clipPath><clipPath id="1e013c034b"><path d="M 249.917969 327.449219 L 280.511719 327.449219 L 280.511719 375.949219 L 249.917969 375.949219 Z M 249.917969 327.449219 " clip-rule="nonzero"/></clipPath><clipPath id="efdedb17ce"><path d="M 19.617188 340.097656 L 42.003906 340.097656 L 42.003906 375.914062 L 19.617188 375.914062 Z M 19.617188 340.097656 " clip-rule="nonzero"/></clipPath><clipPath id="885ec04aab"><path d="M 100 102 L 194 102 L 194 317 L 100 317 Z M 100 102 " clip-rule="nonzero"/></clipPath><clipPath id="977939ebe7"><path d="M 70.058594 120.226562 L 173.367188 93.519531 L 226.21875 297.972656 L 122.90625 324.679688 Z M 70.058594 120.226562 " clip-rule="nonzero"/></clipPath><clipPath id="2b84ad6992"><path d="M -152.261719 177.695312 L 173.5625 93.46875 L 251.0625 393.285156 L -74.761719 477.511719 Z M -152.261719 177.695312 " clip-rule="nonzero"/></clipPath><clipPath id="4353f3957d"><path d="M 71 320 L 143 320 L 143 325 L 71 325 Z M 71 320 " clip-rule="nonzero"/></clipPath><clipPath id="d658f8e8ca"><path d="M 70.058594 120.226562 L 173.367188 93.519531 L 226.21875 297.972656 L 122.90625 324.679688 Z M 70.058594 120.226562 " clip-rule="nonzero"/></clipPath><clipPath id="b5fc97856f"><path d="M -152.261719 177.695312 L 173.5625 93.46875 L 251.0625 393.285156 L -74.761719 477.511719 Z M -152.261719 177.695312 " clip-rule="nonzero"/></clipPath></defs><g clip-path="url(#0d14c2d82e)"><path fill="#ffffff" d="M 0 0.246094 L 296.238281 0.246094 L 296.238281 417.367188 L 0 417.367188 Z M 0 0.246094 " fill-opacity="1" fill-rule="nonzero"/><path fill="#ffffff" d="M 0 0.246094 L 296.238281 0.246094 L 296.238281 417.367188 L 0 417.367188 Z M 0 0.246094 " fill-opacity="1" fill-rule="nonzero"/></g><g clip-path="url(#a147327ec6)"><path stroke-linecap="butt" transform="matrix(0.746195, 0, 0, 0.746195, 30.125007, 42.134083)" fill="none" stroke-linejoin="miter" d="M -0.00000963595 -0.0017029 L 316.108775 -0.0017029 L 316.108775 447.09448 L -0.00000963595 447.09448 Z M -0.00000963595 -0.0017029 " stroke="#e30613" stroke-width="6" stroke-opacity="1" stroke-miterlimit="4"/></g><g clip-path="url(#792cd8de7a)"><path fill="#e30613" d="M 30.957031 42.132812 L 15.730469 66.285156 L 30.957031 90.4375 L 46.179688 66.285156 Z M 30.957031 42.132812 " fill-opacity="1" fill-rule="nonzero"/></g><g clip-path="url(#d068b106e5)"><path fill="#e30613" d="M 264.808594 41.851562 L 253.484375 59.820312 L 264.808594 77.785156 L 276.136719 59.820312 Z M 264.808594 41.851562 " fill-opacity="1" fill-rule="nonzero"/></g><g clip-path="url(#1e013c034b)"><path fill="#e30613" d="M 265.15625 327.449219 L 249.933594 351.601562 L 265.15625 375.75 L 280.382812 351.601562 Z M 265.15625 327.449219 " fill-opacity="1" fill-rule="nonzero"/></g><g clip-path="url(#efdedb17ce)"><path fill="#e30613" d="M 30.953125 340.097656 L 19.625 358.066406 L 30.953125 376.03125 L 42.277344 358.066406 Z M 30.953125 340.097656 " fill-opacity="1" fill-rule="nonzero"/></g><g clip-path="url(#885ec04aab)"><g clip-path="url(#977939ebe7)"><g clip-path="url(#2b84ad6992)"><path fill="#e30613" d="M 127.84375 296.851562 C 125.539062 288.824219 124.324219 280.449219 122.929688 275.597656 C 119.074219 262.171875 121.320312 238.890625 113.105469 213.320312 C 112.996094 212.976562 105.929688 197.273438 102.433594 184.910156 C 100.3125 177.402344 100.722656 172.925781 102.300781 171.023438 C 100.601562 169.738281 100.347656 161.09375 100.429688 159.101562 C 100.589844 155.21875 102.597656 154.777344 102.671875 156.550781 C 102.863281 161.214844 104.316406 165.558594 105.199219 169.9375 C 105.203125 169.960938 105.199219 169.984375 105.1875 170.007812 C 108.152344 170.550781 111.941406 174.761719 113.933594 181.78125 C 115.125 185.992188 115.75 191.152344 116.898438 195.816406 C 117.4375 198.003906 118.152344 200.058594 118.980469 201.902344 C 125.839844 217.242188 126.722656 199 126.292969 192.632812 C 125.296875 177.972656 124.605469 164.53125 121.582031 149.8125 C 119.277344 138.582031 121.667969 131.460938 124.78125 129.707031 C 124.339844 125.929688 123.929688 113.667969 124.476562 112.609375 C 125.59375 110.453125 126.773438 120.363281 126.78125 120.410156 C 127.421875 124.746094 127.4375 125.632812 127.527344 129.546875 C 130.074219 130.664062 132.367188 135.382812 132.425781 144.351562 C 132.449219 148.253906 132.527344 153.042969 132.671875 158.132812 C 133.238281 178.015625 133.53125 202.71875 139.1875 197.960938 C 146.820312 191.539062 141.777344 155.855469 141.726562 135.664062 C 141.707031 126.789062 143.507812 122.632812 145.699219 121.671875 C 145.339844 117.332031 145.175781 103.949219 145.742188 102.804688 C 146.898438 100.453125 147.882812 111.488281 147.890625 111.542969 C 148.457031 116.472656 148.445312 117.398438 148.460938 121.972656 C 151.34375 123.714844 153.925781 129.589844 153.296875 136.515625 C 152.164062 148.949219 149.796875 168.960938 150.730469 177.460938 C 151.027344 180.171875 147.800781 213.199219 155.242188 197.949219 C 160.332031 187.519531 158.871094 133.835938 170.472656 139.027344 C 171.269531 134.929688 174.273438 123.773438 175.078125 122.949219 C 176.773438 121.210938 175.019531 131.03125 175.015625 131.082031 C 174.324219 135.683594 174.097656 136.363281 172.867188 140.777344 C 173.230469 141.136719 173.601562 141.53125 173.988281 141.988281 C 175.539062 143.832031 176.34375 150.195312 174.304688 158.46875 C 172.070312 167.539062 167.964844 178.785156 165.269531 188.277344 C 160.382812 205.464844 162.195312 218.210938 174.679688 200.042969 C 175.171875 199.324219 177.097656 194.503906 179.777344 190.480469 C 182.109375 186.976562 184.160156 185.480469 185.761719 185.339844 C 189.097656 178.496094 188.820312 179.738281 190.285156 174.03125 C 191.042969 171.074219 192.917969 169.238281 193.050781 173.476562 C 193.195312 178.140625 192.007812 184.128906 188.855469 187.75 C 189.800781 190.28125 189.503906 194.402344 187.453125 198.144531 C 183.484375 205.386719 175.265625 219.789062 171.578125 234.871094 C 168.394531 247.894531 161.382812 286.183594 161.074219 296.550781 C 160.707031 308.953125 138.851562 335.230469 127.84375 296.851562 Z M 127.84375 296.851562 " fill-opacity="1" fill-rule="evenodd"/></g></g></g><g clip-path="url(#4353f3957d)"><g clip-path="url(#d658f8e8ca)"><g clip-path="url(#b5fc97856f)"><path fill="#e30613" d="M 83.011719 353.023438 C 87.210938 356.289062 89.277344 367.960938 89.875 374.203125 C 91.390625 377.933594 94.175781 382.855469 95.6875 384.664062 C 95.835938 384.355469 95.976562 384.023438 96.101562 383.675781 C 97.6875 379.332031 97.890625 378.105469 101.59375 376.707031 C 101.613281 376.65625 101.632812 376.601562 101.660156 376.546875 C 102.546875 374.628906 101.492188 367.597656 101.089844 365.390625 C 100.613281 362.808594 99.722656 355.617188 98.8125 353.53125 C 98.335938 352.441406 98.4375 349.765625 98.6875 348.035156 C 98.421875 346.992188 98.203125 345.929688 98.070312 344.847656 C 97.613281 341.035156 98.359375 336.910156 99.542969 333.921875 C 100.746094 330.890625 101.960938 331.046875 102.195312 326.015625 C 102.535156 318.648438 105.332031 317.914062 105.175781 326.667969 C 105.105469 330.769531 109.847656 335.78125 110.035156 343.859375 C 110.097656 346.570312 109.351562 349.644531 108.042969 353.125 C 106.441406 357.96875 107.140625 371.5 110.328125 374.851562 C 110.460938 374.992188 110.5625 375.117188 110.640625 375.234375 C 111.980469 375.320312 113.277344 375.53125 114.46875 375.851562 C 116.464844 372.445312 117.222656 364.546875 118.179688 360.078125 C 118.078125 359.765625 117.988281 359.4375 117.917969 359.09375 C 116.65625 352.96875 118.910156 345.828125 121.558594 340.566406 C 122.265625 339.164062 123.136719 339.035156 123.8125 337.734375 C 124.875 335.691406 124.90625 332.019531 124.539062 329.507812 C 124.171875 327.015625 126.558594 325.332031 127.082031 329.84375 C 127.441406 332.898438 127.515625 338.808594 128.921875 340.554688 C 131.480469 343.726562 131.847656 352.476562 130.058594 358.851562 C 129.320312 361.480469 127.847656 363.15625 126.167969 363.949219 C 123.890625 367.824219 121.855469 374.472656 121.382812 377.785156 C 121.199219 379.066406 120.972656 379.945312 120.566406 380.523438 C 120.636719 380.921875 120.636719 381.332031 120.550781 381.753906 C 120.171875 383.609375 120.832031 385.191406 121.921875 386.65625 C 125.308594 384.398438 126.144531 382.328125 127.296875 380.421875 C 128.230469 375.070312 131.917969 368.960938 131.9375 368.832031 C 134.6875 365.910156 135.902344 366.246094 137.683594 364.492188 C 138.566406 363.625 138.949219 362.152344 139.644531 360.652344 C 140.230469 359.390625 138.449219 357.117188 140.667969 356.96875 C 140.9375 356.949219 142.570312 359.242188 142.582031 360.535156 C 142.097656 362.523438 142.363281 365.597656 142.644531 367.875 C 142.996094 370.710938 143.011719 376.855469 142.089844 379.164062 C 140.015625 384.371094 136.109375 388.304688 133.597656 388.355469 C 133.503906 388.355469 133.417969 388.355469 133.328125 388.355469 C 132.460938 388.9375 131.46875 389.644531 131.121094 389.851562 C 130.542969 390.191406 128.59375 392.082031 127.644531 393.003906 C 131.3125 398.921875 125.875 406.769531 118.808594 403.703125 C 115.175781 402.125 113.28125 399.371094 109.546875 399.046875 C 107.058594 398.828125 103.640625 399.144531 100.523438 400.492188 C 97.121094 401.964844 94.804688 402.011719 93.265625 401.242188 C 88.410156 398.820312 90.042969 392.71875 91.816406 389.78125 C 91.402344 389.101562 90.625 387.828125 88.589844 385.917969 C 87.257812 384.664062 85.003906 379.585938 83.773438 375.941406 C 78.59375 371.730469 75.179688 362.640625 75.4375 356.859375 C 75.636719 352.429688 74.441406 348.066406 73.605469 346.9375 C 70.039062 342.125 72.457031 336.609375 77.523438 347.523438 C 80.699219 354.359375 79.660156 350.425781 83.011719 353.023438 Z M 112.4375 414.132812 C 105.40625 414.550781 105.617188 423.277344 109.101562 425.976562 C 112.832031 428.863281 120.601562 426.945312 120.230469 420.71875 C 119.957031 416.132812 116.890625 413.867188 112.4375 414.132812 Z M 98.011719 405.320312 C 91.175781 405.726562 88.167969 417.292969 97.796875 417.332031 C 99.652344 417.339844 101.277344 416.8125 102.527344 415.835938 C 107.273438 412.121094 104.636719 404.929688 98.011719 405.320312 Z M 98.011719 405.320312 " fill-opacity="1" fill-rule="evenodd"/></g></g></g><g fill="#e30613" fill-opacity="1"><g transform="translate(18.911079, 30.811257)"><g><path d="M 6.796875 -8.96875 L 15.890625 -8.96875 L 11.34375 -20.75 Z M -0.203125 0 L -0.203125 -1.765625 L 1.96875 -1.765625 L 10.796875 -24.765625 L 13.578125 -24.765625 L 22.421875 -1.765625 L 24.859375 -1.765625 L 24.859375 0 L 15.859375 0 L 15.859375 -1.765625 L 18.609375 -1.765625 L 16.53125 -7.203125 L 6.125 -7.203125 L 4.046875 -1.765625 L 6.765625 -1.765625 L 6.765625 0 Z M -0.203125 0 "/></g></g></g><g fill="#e30613" fill-opacity="1"><g transform="translate(277.719684, 387.070532)"><g><path d="M -6.796875 8.96875 L -15.890625 8.96875 L -11.34375 20.75 Z M 0.203125 0 L 0.203125 1.765625 L -1.96875 1.765625 L -10.796875 24.765625 L -13.578125 24.765625 L -22.421875 1.765625 L -24.859375 1.765625 L -24.859375 0 L -15.859375 0 L -15.859375 1.765625 L -18.609375 1.765625 L -16.53125 7.203125 L -6.125 7.203125 L -4.046875 1.765625 L -6.765625 1.765625 L -6.765625 0 Z M 0.203125 0 "/></g></g></g><g fill="#e30613" fill-opacity="1"><g transform="translate(39.642591, 390.070117)"><g><path d="M -5.53125 7.296875 L -12.90625 7.296875 L -9.21875 16.859375 Z M 0.15625 0 L 0.15625 1.421875 L -1.609375 1.421875 L -8.765625 20.109375 L -11.03125 20.109375 L -18.21875 1.421875 L -20.203125 1.421875 L -20.203125 0 L -12.875 0 L -12.875 1.421875 L -15.125 1.421875 L -13.4375 5.84375 L -4.96875 5.84375 L -3.28125 1.421875 L -5.5 1.421875 L -5.5 0 Z M 0.15625 0 "/></g></g></g><g fill="#e30613" fill-opacity="1"><g transform="translate(253.476868, 27.813783)"><g><path d="M 5.53125 -7.296875 L 12.90625 -7.296875 L 9.21875 -16.859375 Z M -0.15625 0 L -0.15625 -1.421875 L 1.609375 -1.421875 L 8.765625 -20.109375 L 11.03125 -20.109375 L 18.21875 -1.421875 L 20.203125 -1.421875 L 20.203125 0 L 12.875 0 L 12.875 -1.421875 L 15.125 -1.421875 L 13.4375 -5.84375 L 4.96875 -5.84375 L 3.28125 -1.421875 L 5.5 -1.421875 L 5.5 0 Z M -0.15625 0 "/></g></g></g></svg>