<svg xmlns="http://www.w3.org/2000/svg" xmlns:xlink="http://www.w3.org/1999/xlink" width="396" zoomAndPan="magnify" viewBox="0 0 297.12 419.249996" height="559" preserveAspectRatio="xMidYMid meet" version="1.0"><defs><g/><clipPath id="448d6d1b09"><path d="M 0 0.246094 L 296.238281 0.246094 L 296.238281 417.367188 L 0 417.367188 Z M 0 0.246094 " clip-rule="nonzero"/></clipPath><clipPath id="2e12cb3106"><path d="M 30.125 42.132812 L 265.921875 42.132812 L 265.921875 375.683594 L 30.125 375.683594 Z M 30.125 42.132812 " clip-rule="nonzero"/></clipPath><clipPath id="f029bc850d"><path d="M 15.714844 42.132812 L 46.308594 42.132812 L 46.308594 90.636719 L 15.714844 90.636719 Z M 15.714844 42.132812 " clip-rule="nonzero"/></clipPath><clipPath id="eecc30bba9"><path d="M 253.476562 41.851562 L 275.863281 41.851562 L 275.863281 77.667969 L 253.476562 77.667969 Z M 253.476562 41.851562 " clip-rule="nonzero"/></clipPath><clipPath id="b6ac01dc99"><path d="M 249.917969 327.449219 L 280.511719 327.449219 L 280.511719 375.949219 L 249.917969 375.949219 Z M 249.917969 327.449219 " clip-rule="nonzero"/></clipPath><clipPath id="8edddfbc14"><path d="M 19.617188 340.097656 L 42.003906 340.097656 L 42.003906 375.914062 L 19.617188 375.914062 Z M 19.617188 340.097656 " clip-rule="nonzero"/></clipPath><clipPath id="f47962c03a"><path d="M 49 125.679688 L 247 125.679688 L 247 292.078125 L 49 292.078125 Z M 49 125.679688 " clip-rule="nonzero"/></clipPath></defs><g clip-path="url(#448d6d1b09)"><path fill="#ffffff" d="M 0 0.246094 L 296.238281 0.246094 L 296.238281 417.367188 L 0 417.367188 Z M 0 0.246094 " fill-opacity="1" fill-rule="nonzero"/><path fill="#ffffff" d="M 0 0.246094 L 296.238281 0.246094 L 296.238281 417.367188 L 0 417.367188 Z M 0 0.246094 " fill-opacity="1" fill-rule="nonzero"/></g><g clip-path="url(#2e12cb3106)"><path stroke-linecap="butt" transform="matrix(0.746195, 0, 0, 0.746195, 30.125007, 42.133995)" fill="none" stroke-linejoin="miter" d="M -0.00000963595 -0.00158425 L 316.108775 -0.00158425 L 316.108775 447.094599 L -0.00000963595 447.094599 Z M -0.00000963595 -0.00158425 " stroke="#e30613" stroke-width="6" stroke-opacity="1" stroke-miterlimit="4"/></g><g clip-path="url(#f029bc850d)"><path fill="#e30613" d="M 30.957031 42.132812 L 15.730469 66.285156 L 30.957031 90.4375 L 46.179688 66.285156 Z M 30.957031 42.132812 " fill-opacity="1" fill-rule="nonzero"/></g><g clip-path="url(#eecc30bba9)"><path fill="#e30613" d="M 264.808594 41.851562 L 253.484375 59.820312 L 264.808594 77.785156 L 276.136719 59.820312 Z M 264.808594 41.851562 " fill-opacity="1" fill-rule="nonzero"/></g><g clip-path="url(#b6ac01dc99)"><path fill="#e30613" d="M 265.15625 327.449219 L 249.933594 351.601562 L 265.15625 375.75 L 280.382812 351.601562 Z M 265.15625 327.449219 " fill-opacity="1" fill-rule="nonzero"/></g><g clip-path="url(#8edddfbc14)"><path fill="#e30613" d="M 30.953125 340.097656 L 19.625 358.066406 L 30.953125 376.03125 L 42.277344 358.066406 Z M 30.953125 340.097656 " fill-opacity="1" fill-rule="nonzero"/></g><g clip-path="url(#f47962c03a)"><path fill="#e30613" d="M 188.5625 238.125 C 189.601562 240.058594 190.875 242.84375 190.734375 245.105469 C 190.59375 245.058594 190.355469 245.152344 190.214844 245.152344 C 190.121094 246.429688 190.261719 247.75 190.167969 249.070312 C 189.933594 249.023438 189.648438 249.164062 189.414062 249.117188 C 189.175781 249.871094 189.082031 250.769531 188.988281 251.570312 C 188.847656 252.371094 188.988281 253.695312 188.613281 254.308594 C 187.667969 252.703125 187.289062 257.375 187.242188 258.035156 C 187.054688 257.796875 186.769531 257.609375 186.488281 257.5625 C 186.15625 258.695312 186.628906 260.15625 186.109375 261.195312 C 184.882812 259.636719 185.074219 263.695312 184.789062 264.308594 C 184.648438 263.980469 184.316406 262.988281 183.894531 263.175781 C 183.65625 263.273438 183.421875 264.734375 183.328125 264.96875 C 182.902344 266.292969 182.335938 267.613281 181.582031 268.746094 C 180.023438 271.054688 178.183594 272.234375 175.824219 273.226562 C 176.910156 271.527344 177.855469 269.78125 178.65625 267.894531 C 181.25 261.855469 183.421875 255.863281 184.554688 249.351562 C 185.402344 244.398438 185.78125 239.351562 185.449219 234.300781 C 186.722656 235.152344 187.714844 236.566406 188.5625 238.125 Z M 82.265625 204.671875 C 82.265625 204.578125 82.21875 204.53125 82.171875 204.4375 C 82.265625 204.53125 82.265625 204.578125 82.265625 204.671875 Z M 113.359375 283.132812 C 112.507812 283.132812 111.660156 283.230469 110.8125 283.085938 C 110.246094 282.992188 109.773438 282.757812 109.207031 282.617188 C 109.535156 282.378906 109.820312 282.191406 110.148438 281.953125 C 111.140625 281.246094 111.800781 281.390625 112.886719 282.003906 C 113.734375 282.472656 114.679688 282.898438 115.574219 283.324219 C 114.820312 283.230469 114.066406 283.132812 113.359375 283.132812 Z M 64.714844 228.027344 C 65.140625 227.035156 65.707031 226.421875 66.460938 225.953125 C 68.582031 226.09375 70.894531 226.941406 72.78125 227.460938 C 75.425781 228.167969 77.878906 228.5 80.566406 228.78125 C 83.398438 229.066406 85.992188 229.632812 88.730469 230.574219 C 91.464844 231.472656 94.25 232.132812 96.988281 233.074219 C 98.214844 233.5 99.628906 233.125 100.761719 232.414062 C 101.46875 231.992188 101.988281 231.566406 102.414062 231.09375 C 102.882812 232.039062 103.496094 233.027344 103.828125 233.832031 C 104.488281 235.246094 105.101562 236.757812 106 238.03125 C 106.941406 239.398438 107.980469 240.765625 109.019531 242.085938 C 109.347656 242.511719 109.679688 242.984375 110.054688 243.457031 C 108.875 244.964844 107.695312 246.617188 107.128906 248.457031 C 106.375 250.957031 106.613281 254.210938 106.988281 256.761719 C 107.414062 259.828125 108.6875 262.894531 109.820312 265.726562 C 111.09375 268.839844 113.027344 271.90625 115.152344 274.5 C 116.046875 275.585938 117.085938 276.527344 118.171875 277.472656 C 117.511719 277.472656 116.851562 277.472656 116.1875 277.472656 C 114.679688 277.472656 113.167969 277.238281 111.660156 277 C 110.292969 276.765625 109.019531 276.246094 107.601562 276.386719 C 106.328125 276.527344 105.195312 277.566406 103.875 277.945312 C 103.167969 278.132812 100.996094 278.558594 100.289062 279.21875 C 98.496094 279.644531 96.136719 280.585938 96.46875 282.097656 C 97.082031 282.050781 97.554688 281.625 98.214844 281.625 C 98.449219 281.625 98.683594 281.625 98.921875 281.671875 C 98.96875 282.238281 99.34375 282.710938 99.863281 283.085938 C 99.0625 283.511719 98.261719 284.171875 97.410156 284.503906 C 96.515625 284.878906 95.617188 285.023438 94.675781 285.164062 C 93.824219 285.304688 92.882812 285.398438 92.128906 286.011719 C 91.609375 286.4375 90.570312 287.710938 91.277344 288.371094 C 92.175781 287.378906 92.976562 287.378906 94.015625 287.523438 C 93.542969 288.609375 92.835938 290.964844 93.824219 291.25 C 94.484375 291.4375 94.816406 290.398438 95.242188 290.023438 C 95.664062 289.644531 96.183594 289.457031 96.703125 289.363281 C 96.609375 290.164062 96.230469 292.191406 97.316406 292.050781 C 97.789062 292.003906 98.023438 291.015625 98.496094 290.824219 C 98.96875 290.589844 99.582031 290.777344 100.054688 290.730469 C 102.222656 290.589844 104.488281 290.683594 106.613281 290.304688 C 107.226562 290.210938 107.933594 289.976562 108.59375 289.644531 C 110.574219 289.738281 112.554688 290.164062 114.492188 290.257812 C 117.511719 290.449219 120.53125 290.351562 123.550781 290.351562 C 129.542969 290.351562 135.4375 291.484375 141.429688 291.863281 C 142.5625 291.957031 143.648438 291.722656 144.542969 291.15625 C 147.515625 291.484375 150.632812 291.390625 153.554688 291.578125 C 155.394531 291.675781 157.046875 291.296875 158.792969 290.777344 C 160.773438 290.210938 162.851562 289.929688 164.691406 288.890625 C 165.632812 288.371094 166.484375 287.664062 167.191406 286.816406 C 168.371094 287.003906 169.503906 287.003906 170.636719 287.003906 C 172.851562 287.003906 175.777344 287.050781 177.855469 286.296875 C 177.382812 286.011719 176.957031 285.492188 176.769531 285.023438 C 177.523438 285.210938 178.277344 285.683594 179.082031 285.871094 C 179.929688 286.058594 180.921875 286.011719 181.816406 285.964844 C 181.675781 285.589844 181.394531 285.210938 181.25 284.832031 C 182.570312 284.738281 183.941406 285.164062 185.167969 284.785156 C 185.074219 284.738281 184.976562 284.457031 184.835938 284.3125 C 185.542969 283.558594 187.289062 283.230469 188.234375 282.804688 C 189.226562 282.332031 190.402344 281.953125 191.300781 281.246094 C 191.113281 281.199219 191.015625 281.058594 190.875 281.011719 C 191.394531 280.492188 192.714844 280.351562 193.421875 280.066406 C 194.367188 279.691406 195.3125 279.265625 196.160156 278.839844 C 195.59375 277.660156 195.453125 277.472656 196.632812 276.859375 C 197.199219 276.578125 198.09375 276.246094 198.566406 275.773438 C 198.992188 275.351562 198.945312 274.878906 199.320312 274.40625 C 199.933594 273.652344 201.253906 273.273438 202.058594 272.707031 C 203 272.09375 203.898438 271.386719 204.839844 270.820312 C 206.019531 270.066406 206.351562 268.980469 207.292969 267.847656 C 208.425781 266.480469 209.699219 265.347656 210.878906 264.074219 C 208.945312 264.402344 211.445312 261.996094 211.777344 261.667969 C 213.238281 260.0625 214.511719 258.269531 215.929688 256.667969 C 215.550781 256.855469 214.984375 257.421875 214.65625 256.949219 C 214.230469 256.382812 215.222656 255.390625 215.503906 255.0625 C 216.683594 253.503906 219.089844 251.570312 219.421875 249.542969 C 218.289062 249.636719 217.15625 250.109375 218.003906 248.457031 C 218.617188 247.230469 219.988281 246.097656 220.269531 244.683594 C 219.84375 244.683594 219.5625 245.105469 219.183594 245.25 C 219.136719 244.351562 219.988281 243.21875 220.363281 242.417969 C 220.742188 241.664062 221.023438 240.765625 221.402344 240.058594 C 221.023438 240.058594 220.789062 240.292969 220.410156 240.390625 C 220.175781 239.257812 221.730469 237.746094 222.109375 236.660156 C 222.34375 235.8125 222.394531 234.964844 222.675781 234.160156 C 222.863281 233.640625 223.148438 233.074219 223.242188 232.558594 C 222.628906 233.125 222.0625 233.738281 221.355469 234.207031 C 221.261719 233.59375 221.78125 232.886719 221.96875 232.320312 C 222.296875 231.332031 222.535156 230.292969 222.816406 229.253906 C 223.101562 228.027344 223.335938 226.800781 223.242188 225.527344 C 222.535156 225.953125 221.828125 226.941406 221.070312 227.746094 C 221.117188 227.273438 221.164062 226.800781 221.164062 226.519531 C 221.402344 224.394531 221.636719 223.59375 219.46875 223.5 C 219.65625 221.660156 220.648438 220.007812 220.550781 217.976562 C 219.890625 218.214844 219.136719 218.734375 218.335938 218.6875 C 219.375 216.847656 219.75 213.921875 219.609375 211.796875 C 218.570312 211.609375 217.910156 212.410156 217.015625 212.550781 C 217.53125 208.777344 218.757812 205.191406 217.910156 201.277344 C 217.582031 201.464844 217.203125 201.652344 217.015625 202.078125 C 215.929688 199.90625 217.34375 195.707031 215.503906 193.679688 C 214.984375 194.058594 214.609375 194.578125 214.042969 194.671875 C 213.851562 193.398438 213.664062 192.125 213.523438 190.847656 C 213.382812 189.667969 213.757812 187.78125 213.191406 186.839844 C 212.578125 187.359375 212.011719 187.925781 211.730469 188.679688 C 211.777344 187.027344 211.445312 185.421875 211.351562 183.773438 C 211.257812 181.980469 211.589844 180.140625 211.492188 178.394531 C 210.503906 178.582031 209.84375 180.375 209.277344 181.128906 C 209.039062 179.574219 208.332031 178.0625 207.957031 176.507812 C 207.910156 176.222656 207.8125 175.894531 207.765625 175.515625 C 207.910156 172.777344 207.390625 169.902344 208.710938 167.210938 C 209.796875 167.589844 210.832031 167.402344 211.871094 167.964844 C 211.351562 166.882812 209.890625 165.890625 209.652344 164.851562 C 211.542969 164.003906 214.042969 164.945312 216.023438 164.804688 C 215.929688 163.296875 212.53125 161.878906 215.644531 161.644531 C 217.390625 161.503906 220.316406 161.503906 222.0625 162.023438 C 221.96875 160.984375 221.261719 159.898438 221.308594 158.90625 C 222.910156 158.8125 224.28125 159.144531 225.789062 159.804688 C 226.921875 160.277344 228.667969 162.070312 229.847656 161.832031 C 229.894531 160.558594 229.46875 159.332031 229.515625 158.105469 C 231.734375 157.585938 236.121094 161.363281 237.867188 162.777344 C 238.246094 161.550781 237.960938 159.992188 238.007812 158.71875 C 239.800781 158.4375 242.019531 161.832031 243.433594 162.824219 C 243.578125 160.890625 243.386719 158.859375 243.480469 156.925781 C 244.660156 156.832031 245.417969 158.246094 246.453125 158.484375 C 247.777344 154.945312 243.011719 149.660156 240.320312 148.007812 C 241.074219 147.679688 242.160156 147.632812 242.867188 147.960938 C 242.820312 147.113281 240.558594 145.507812 239.898438 144.847656 C 238.953125 143.953125 237.679688 143.527344 236.828125 142.628906 C 238.386719 141.6875 237.867188 140.933594 236.214844 140.175781 C 234.941406 139.609375 233.480469 139.515625 232.160156 138.996094 C 232.441406 138.855469 232.820312 138.242188 233.054688 138.101562 C 232.015625 137.15625 230.554688 135.929688 229.046875 135.269531 C 229.140625 135.222656 229.234375 135.128906 229.28125 135.082031 C 228.335938 133.289062 225.128906 132.722656 223.429688 132.0625 C 221.730469 131.449219 220.363281 131.214844 218.570312 131.070312 C 219.324219 130.789062 220.742188 130.082031 221.355469 129.5625 C 217.53125 128.382812 212.769531 127.203125 208.757812 128.289062 C 209.085938 127.4375 209.796875 126.777344 210.171875 125.976562 C 207.34375 126.023438 205.078125 127.4375 202.484375 127.910156 C 202.8125 127.25 203.285156 126.496094 203.566406 125.789062 C 202.246094 126.542969 200.40625 126.402344 198.898438 126.824219 C 197.671875 127.15625 196.347656 128.382812 195.121094 128.335938 C 195.214844 127.484375 195.734375 126.683594 195.640625 125.789062 C 193.894531 125.691406 192.480469 127.863281 190.78125 127.484375 C 190.96875 127.0625 191.113281 126.449219 191.113281 125.929688 C 188.800781 126.683594 187.007812 128.097656 185.308594 129.890625 C 185.308594 129.136719 185.6875 128.523438 185.59375 127.722656 C 183.609375 128.382812 182.382812 129.84375 180.589844 130.929688 C 180.828125 129.703125 182.007812 128.144531 181.816406 126.96875 C 179.269531 127.109375 176.722656 132.296875 175.164062 134.136719 C 174.222656 135.269531 173.464844 137.441406 172.335938 138.242188 C 171.4375 138.902344 171.34375 138.667969 171.203125 137.253906 C 169.644531 137.914062 168.984375 141.074219 168.558594 142.582031 C 168.230469 142.066406 168.039062 141.214844 167.617188 140.648438 C 165.632812 141.875 164.785156 145.414062 164.3125 147.679688 C 164.03125 147.160156 163.9375 146.40625 163.511719 145.980469 C 161.90625 147.679688 161.339844 152.066406 161.386719 154.332031 C 160.726562 154.191406 160.351562 153.292969 159.878906 152.726562 C 158.320312 154.851562 159.125 159.144531 158.886719 161.691406 C 158.511719 161.3125 157.992188 160.890625 157.425781 160.9375 C 156.765625 162.871094 157.425781 165.183594 157.425781 167.210938 C 157.046875 166.550781 156.527344 165.984375 155.726562 166.125 C 155.347656 168.34375 156.621094 170.84375 156.246094 173.015625 C 155.726562 172.636719 155.160156 172.070312 154.640625 171.648438 C 155.019531 173.109375 154.734375 174.808594 154.925781 176.316406 C 155.113281 177.589844 155.960938 179.101562 155.867188 180.375 C 155.207031 180.234375 154.6875 179.429688 154.167969 178.914062 C 154.78125 180.09375 154.828125 181.835938 155.160156 183.207031 C 155.492188 184.527344 156.90625 186.699219 156.8125 187.875 C 155.914062 187.546875 155.207031 186.699219 154.640625 185.988281 C 155.585938 188.539062 156.671875 191.132812 158.039062 193.492188 C 160.398438 197.691406 163.984375 200.992188 166.71875 204.769531 C 168.039062 206.558594 169.265625 208.351562 170.164062 210.429688 C 170.257812 210.617188 170.351562 210.855469 170.492188 211.136719 C 166.152344 207.457031 161.386719 204.390625 156.480469 201.464844 C 151.007812 198.210938 145.722656 194.53125 139.96875 191.839844 C 134.824219 189.433594 129.117188 188.347656 124.019531 185.753906 C 119.066406 183.207031 114.113281 179.054688 110.386719 174.761719 C 107.035156 170.890625 103.828125 167.023438 99.960938 163.71875 C 100.242188 162.210938 100.195312 160.699219 100.148438 159.050781 C 100.054688 155.324219 99.25 151.738281 97.035156 148.71875 C 95.902344 147.113281 94.957031 147.019531 93.730469 148.480469 C 92.882812 149.472656 91.984375 150.367188 91.089844 151.265625 C 90.710938 150.414062 90.238281 149.566406 89.671875 148.765625 C 87.550781 145.839844 86.464844 148.90625 85.050781 150.792969 C 83.683594 152.585938 82.453125 154.425781 81.558594 156.5 C 79.71875 156.597656 77.832031 156.644531 75.945312 156.785156 C 71.507812 157.164062 67.5 158.152344 63.867188 160.9375 C 61.082031 163.105469 59.335938 165.796875 57.589844 168.722656 C 56.457031 170.042969 55.183594 171.269531 53.863281 172.496094 C 52.257812 174.007812 49.476562 176.460938 50.324219 178.960938 C 50.703125 179.996094 51.363281 180.941406 52.257812 181.320312 C 52.542969 183.679688 55.089844 185.847656 57.402344 185.753906 C 59.574219 190.046875 64.101562 188.492188 68.066406 189.667969 C 72.640625 191.039062 76.414062 193.632812 78.964844 197.972656 C 79.859375 199.484375 80.664062 201.183594 81.324219 202.878906 C 81.085938 203.636719 80.757812 204.34375 80.378906 204.910156 C 78.964844 207.125 76.886719 208.023438 74.480469 208.542969 C 73.394531 208.777344 72.074219 208.824219 71.179688 209.578125 C 70.472656 210.144531 69.8125 210.808594 69.054688 211.277344 C 67.875 210.902344 66.035156 210.996094 65.234375 211.371094 C 63.914062 211.984375 63.347656 213.117188 62.640625 214.25 C 60.703125 213.828125 59.007812 214.390625 58.015625 216.421875 C 57.449219 217.601562 56.835938 217.882812 55.796875 218.640625 C 55.421875 218.921875 54.570312 219.582031 54.148438 220.101562 C 52.210938 220.855469 52.164062 222.648438 51.363281 224.820312 C 51.128906 225.433594 48.34375 230.71875 49.804688 230.621094 C 50.277344 230.574219 50.5625 229.441406 50.84375 229.160156 C 50.890625 229.113281 50.984375 229.066406 51.03125 228.972656 C 50.5625 230.667969 50.230469 232.652344 51.078125 233.972656 C 51.363281 233.640625 51.691406 233.21875 52.023438 232.839844 C 53.769531 233.21875 53.722656 230.859375 54.523438 229.347656 C 54.664062 230.433594 54.710938 231.566406 54.429688 232.605469 C 54.003906 234.113281 53.816406 234.773438 54.664062 236.09375 C 54.996094 235.671875 55.089844 235.058594 55.277344 234.445312 C 57.023438 234.253906 56.835938 230.765625 57.78125 229.632812 C 58.535156 228.734375 59.476562 228.359375 59.949219 227.132812 C 60.1875 226.519531 60.375 225.574219 60.753906 224.914062 C 61.367188 225.667969 61.554688 226.566406 61.554688 227.648438 C 61.507812 229.066406 60.800781 230.152344 60.65625 231.519531 C 61.175781 231.613281 61.789062 231.09375 62.214844 230.574219 C 63.914062 230.527344 64.195312 229.207031 64.714844 228.027344 Z M 64.714844 228.027344 " fill-opacity="1" fill-rule="nonzero"/></g><g fill="#e30613" fill-opacity="1"><g transform="translate(18.911079, 30.811374)"><g><path d="M 14.328125 0.484375 C 10.535156 0.484375 7.515625 -0.675781 5.265625 -3 C 3.023438 -5.332031 1.90625 -8.453125 1.90625 -12.359375 C 1.90625 -14.359375 2.207031 -16.144531 2.8125 -17.71875 C 3.414062 -19.300781 4.335938 -20.707031 5.578125 -21.9375 C 6.660156 -23.019531 7.894531 -23.835938 9.28125 -24.390625 C 10.675781 -24.941406 12.226562 -25.21875 13.9375 -25.21875 C 17.53125 -25.21875 20.429688 -24.035156 22.640625 -21.671875 C 24.847656 -19.316406 25.953125 -16.210938 25.953125 -12.359375 C 25.953125 -9.085938 25.125 -6.335938 23.46875 -4.109375 C 21.8125 -1.878906 19.523438 -0.441406 16.609375 0.203125 C 17.203125 0.941406 17.925781 1.488281 18.78125 1.84375 C 19.632812 2.195312 20.664062 2.375 21.875 2.375 L 22.390625 2.375 L 22.390625 5.4375 C 20.523438 5.351562 18.925781 4.898438 17.59375 4.078125 C 16.257812 3.253906 15.171875 2.054688 14.328125 0.484375 Z M 13.9375 -1.296875 C 16.644531 -1.296875 18.6875 -2.226562 20.0625 -4.09375 C 21.445312 -5.957031 22.140625 -8.710938 22.140625 -12.359375 C 22.140625 -16.015625 21.445312 -18.773438 20.0625 -20.640625 C 18.6875 -22.503906 16.644531 -23.4375 13.9375 -23.4375 C 11.21875 -23.4375 9.164062 -22.503906 7.78125 -20.640625 C 6.394531 -18.773438 5.703125 -16.015625 5.703125 -12.359375 C 5.703125 -8.710938 6.394531 -5.957031 7.78125 -4.09375 C 9.164062 -2.226562 11.21875 -1.296875 13.9375 -1.296875 Z M 13.9375 -1.296875 "/></g></g></g><g fill="#e30613" fill-opacity="1"><g transform="translate(277.719684, 387.070532)"><g><path d="M -14.328125 -0.484375 C -10.535156 -0.484375 -7.515625 0.675781 -5.265625 3 C -3.023438 5.332031 -1.90625 8.453125 -1.90625 12.359375 C -1.90625 14.359375 -2.207031 16.144531 -2.8125 17.71875 C -3.414062 19.300781 -4.335938 20.707031 -5.578125 21.9375 C -6.660156 23.019531 -7.894531 23.835938 -9.28125 24.390625 C -10.675781 24.941406 -12.226562 25.21875 -13.9375 25.21875 C -17.53125 25.21875 -20.429688 24.035156 -22.640625 21.671875 C -24.847656 19.316406 -25.953125 16.210938 -25.953125 12.359375 C -25.953125 9.085938 -25.125 6.335938 -23.46875 4.109375 C -21.8125 1.878906 -19.523438 0.441406 -16.609375 -0.203125 C -17.203125 -0.941406 -17.925781 -1.488281 -18.78125 -1.84375 C -19.632812 -2.195312 -20.664062 -2.375 -21.875 -2.375 L -22.390625 -2.375 L -22.390625 -5.4375 C -20.523438 -5.351562 -18.925781 -4.898438 -17.59375 -4.078125 C -16.257812 -3.253906 -15.171875 -2.054688 -14.328125 -0.484375 Z M -13.9375 1.296875 C -16.644531 1.296875 -18.6875 2.226562 -20.0625 4.09375 C -21.445312 5.957031 -22.140625 8.710938 -22.140625 12.359375 C -22.140625 16.015625 -21.445312 18.773438 -20.0625 20.640625 C -18.6875 22.503906 -16.644531 23.4375 -13.9375 23.4375 C -11.21875 23.4375 -9.164062 22.503906 -7.78125 20.640625 C -6.394531 18.773438 -5.703125 16.015625 -5.703125 12.359375 C -5.703125 8.710938 -6.394531 5.957031 -7.78125 4.09375 C -9.164062 2.226562 -11.21875 1.296875 -13.9375 1.296875 Z M -13.9375 1.296875 "/></g></g></g><g fill="#e30613" fill-opacity="1"><g transform="translate(39.642591, 390.070117)"><g><path d="M -11.640625 -0.390625 C -8.554688 -0.390625 -6.101562 0.550781 -4.28125 2.4375 C -2.457031 4.332031 -1.546875 6.863281 -1.546875 10.03125 C -1.546875 11.65625 -1.789062 13.109375 -2.28125 14.390625 C -2.769531 15.671875 -3.519531 16.816406 -4.53125 17.828125 C -5.40625 18.703125 -6.410156 19.363281 -7.546875 19.8125 C -8.679688 20.257812 -9.9375 20.484375 -11.3125 20.484375 C -14.238281 20.484375 -16.597656 19.523438 -18.390625 17.609375 C -20.191406 15.691406 -21.09375 13.164062 -21.09375 10.03125 C -21.09375 7.375 -20.414062 5.140625 -19.0625 3.328125 C -17.71875 1.523438 -15.859375 0.363281 -13.484375 -0.15625 C -13.972656 -0.757812 -14.5625 -1.203125 -15.25 -1.484375 C -15.945312 -1.773438 -16.785156 -1.921875 -17.765625 -1.921875 L -18.1875 -1.921875 L -18.1875 -4.421875 C -16.664062 -4.347656 -15.363281 -3.972656 -14.28125 -3.296875 C -13.207031 -2.628906 -12.328125 -1.660156 -11.640625 -0.390625 Z M -11.3125 1.046875 C -13.519531 1.046875 -15.179688 1.800781 -16.296875 3.3125 C -17.421875 4.832031 -17.984375 7.070312 -17.984375 10.03125 C -17.984375 13.007812 -17.421875 15.253906 -16.296875 16.765625 C -15.179688 18.273438 -13.519531 19.03125 -11.3125 19.03125 C -9.101562 19.03125 -7.4375 18.273438 -6.3125 16.765625 C -5.195312 15.253906 -4.640625 13.007812 -4.640625 10.03125 C -4.640625 7.070312 -5.195312 4.832031 -6.3125 3.3125 C -7.4375 1.800781 -9.101562 1.046875 -11.3125 1.046875 Z M -11.3125 1.046875 "/></g></g></g><g fill="#e30613" fill-opacity="1"><g transform="translate(253.476868, 27.813812)"><g><path d="M 11.640625 0.390625 C 8.554688 0.390625 6.101562 -0.550781 4.28125 -2.4375 C 2.457031 -4.332031 1.546875 -6.863281 1.546875 -10.03125 C 1.546875 -11.65625 1.789062 -13.109375 2.28125 -14.390625 C 2.769531 -15.671875 3.519531 -16.816406 4.53125 -17.828125 C 5.40625 -18.703125 6.410156 -19.363281 7.546875 -19.8125 C 8.679688 -20.257812 9.9375 -20.484375 11.3125 -20.484375 C 14.238281 -20.484375 16.597656 -19.523438 18.390625 -17.609375 C 20.191406 -15.691406 21.09375 -13.164062 21.09375 -10.03125 C 21.09375 -7.375 20.414062 -5.140625 19.0625 -3.328125 C 17.71875 -1.523438 15.859375 -0.363281 13.484375 0.15625 C 13.972656 0.757812 14.5625 1.203125 15.25 1.484375 C 15.945312 1.773438 16.785156 1.921875 17.765625 1.921875 L 18.1875 1.921875 L 18.1875 4.421875 C 16.664062 4.347656 15.363281 3.972656 14.28125 3.296875 C 13.207031 2.628906 12.328125 1.660156 11.640625 0.390625 Z M 11.3125 -1.046875 C 13.519531 -1.046875 15.179688 -1.800781 16.296875 -3.3125 C 17.421875 -4.832031 17.984375 -7.070312 17.984375 -10.03125 C 17.984375 -13.007812 17.421875 -15.253906 16.296875 -16.765625 C 15.179688 -18.273438 13.519531 -19.03125 11.3125 -19.03125 C 9.101562 -19.03125 7.4375 -18.273438 6.3125 -16.765625 C 5.195312 -15.253906 4.640625 -13.007812 4.640625 -10.03125 C 4.640625 -7.070312 5.195312 -4.832031 6.3125 -3.3125 C 7.4375 -1.800781 9.101562 -1.046875 11.3125 -1.046875 Z M 11.3125 -1.046875 "/></g></g></g></svg>