<svg xmlns="http://www.w3.org/2000/svg" xmlns:xlink="http://www.w3.org/1999/xlink" width="396" zoomAndPan="magnify" viewBox="0 0 297.12 419.249996" height="559" preserveAspectRatio="xMidYMid meet" version="1.0"><defs><g/><clipPath id="e8f136e017"><path d="M 0 0.246094 L 296.238281 0.246094 L 296.238281 417.367188 L 0 417.367188 Z M 0 0.246094 " clip-rule="nonzero"/></clipPath><clipPath id="a0554192a7"><path d="M 30.125 42.132812 L 265.921875 42.132812 L 265.921875 375.683594 L 30.125 375.683594 Z M 30.125 42.132812 " clip-rule="nonzero"/></clipPath><clipPath id="dae25299b9"><path d="M 15.714844 42.132812 L 46.308594 42.132812 L 46.308594 90.636719 L 15.714844 90.636719 Z M 15.714844 42.132812 " clip-rule="nonzero"/></clipPath><clipPath id="2f5af30880"><path d="M 253.476562 41.851562 L 275.863281 41.851562 L 275.863281 77.667969 L 253.476562 77.667969 Z M 253.476562 41.851562 " clip-rule="nonzero"/></clipPath><clipPath id="6606d10c9f"><path d="M 249.917969 327.449219 L 280.511719 327.449219 L 280.511719 375.949219 L 249.917969 375.949219 Z M 249.917969 327.449219 " clip-rule="nonzero"/></clipPath><clipPath id="87c210fa6f"><path d="M 19.617188 340.097656 L 42.003906 340.097656 L 42.003906 375.914062 L 19.617188 375.914062 Z M 19.617188 340.097656 " clip-rule="nonzero"/></clipPath><clipPath id="62d1fa775e"><path d="M 44.421875 135.75 L 251.863281 135.75 L 251.863281 282 L 44.421875 282 Z M 44.421875 135.75 " clip-rule="nonzero"/></clipPath></defs><g clip-path="url(#e8f136e017)"><path fill="#ffffff" d="M 0 0.246094 L 296.238281 0.246094 L 296.238281 417.367188 L 0 417.367188 Z M 0 0.246094 " fill-opacity="1" fill-rule="nonzero"/><path fill="#ffffff" d="M 0 0.246094 L 296.238281 0.246094 L 296.238281 417.367188 L 0 417.367188 Z M 0 0.246094 " fill-opacity="1" fill-rule="nonzero"/></g><g clip-path="url(#a0554192a7)"><path stroke-linecap="butt" transform="matrix(0.746195, 0, 0, 0.746195, 30.125007, 42.134083)" fill="none" stroke-linejoin="miter" d="M -0.00000963595 -0.0017029 L 316.108775 -0.0017029 L 316.108775 447.09448 L -0.00000963595 447.09448 Z M -0.00000963595 -0.0017029 " stroke="#e30613" stroke-width="6" stroke-opacity="1" stroke-miterlimit="4"/></g><g clip-path="url(#dae25299b9)"><path fill="#e30613" d="M 30.957031 42.132812 L 15.730469 66.285156 L 30.957031 90.4375 L 46.179688 66.285156 Z M 30.957031 42.132812 " fill-opacity="1" fill-rule="nonzero"/></g><g clip-path="url(#2f5af30880)"><path fill="#e30613" d="M 264.808594 41.851562 L 253.484375 59.820312 L 264.808594 77.785156 L 276.136719 59.820312 Z M 264.808594 41.851562 " fill-opacity="1" fill-rule="nonzero"/></g><g clip-path="url(#6606d10c9f)"><path fill="#e30613" d="M 265.15625 327.449219 L 249.933594 351.601562 L 265.15625 375.75 L 280.382812 351.601562 Z M 265.15625 327.449219 " fill-opacity="1" fill-rule="nonzero"/></g><g clip-path="url(#87c210fa6f)"><path fill="#e30613" d="M 30.953125 340.097656 L 19.625 358.066406 L 30.953125 376.03125 L 42.277344 358.066406 Z M 30.953125 340.097656 " fill-opacity="1" fill-rule="nonzero"/></g><g clip-path="url(#62d1fa775e)"><path fill="#e30613" d="M 251.234375 222.132812 C 250.410156 219.792969 249.375 217.074219 248.09375 214.992188 C 246.71875 212.742188 245.003906 210.714844 243.589844 208.46875 C 242.164062 206.210938 240.320312 204.089844 238.269531 202.445312 C 236.34375 200.894531 234.0625 200.09375 231.742188 199.425781 C 232.035156 197.945312 232.140625 196.476562 231.957031 194.960938 C 231.707031 192.902344 230.445312 187.660156 227.519531 188.765625 C 225.347656 189.585938 224.550781 193.417969 223.867188 196.097656 C 223.65625 195.261719 223.40625 194.4375 223.125 193.613281 C 222.515625 191.828125 221.808594 189.59375 220.179688 188.574219 C 218.402344 187.460938 216.835938 188.777344 216.15625 190.601562 C 215.367188 192.71875 215.230469 195.195312 214.921875 197.417969 C 214.789062 198.378906 214.738281 199.292969 214.773438 200.191406 C 213.742188 200.777344 212.78125 201.472656 211.65625 201.910156 C 210.273438 202.453125 209.007812 203.246094 207.617188 203.746094 C 204.371094 204.917969 200.925781 204.859375 197.535156 205.175781 C 196.117188 205.308594 194.441406 205.3125 192.984375 205.757812 C 188.101562 203.617188 182.882812 202.664062 177.699219 201.515625 C 171.886719 200.226562 165.929688 199.007812 159.917969 199.347656 C 154.386719 199.65625 150.050781 200.46875 144.695312 201.957031 C 141.921875 202.726562 138.035156 204.847656 135.585938 206.488281 C 133.375 207.972656 131.257812 209.207031 129.1875 210.894531 C 125.0625 214.253906 120.925781 217.550781 117.230469 221.480469 C 116.675781 220.9375 116.066406 220.425781 115.664062 219.820312 C 114.078125 217.460938 113.890625 214.878906 114.5 212.121094 C 114.867188 210.453125 115.230469 209.011719 116.058594 207.511719 C 116.484375 206.734375 117.039062 205.890625 117.417969 205.019531 C 118.335938 204.5625 119.238281 203.953125 119.214844 203.261719 C 118.535156 203 117.726562 203.527344 117.15625 203.976562 C 117.910156 202.777344 120.820312 201.65625 120.886719 200.351562 C 120.46875 200.203125 120.046875 200.222656 119.636719 200.175781 C 120.300781 199.84375 121.277344 199.496094 121.277344 198.5625 C 120.972656 198.328125 120.632812 198.1875 120.242188 198.128906 C 120.335938 197.097656 121.226562 196.890625 122.042969 197.117188 C 122.214844 196.148438 120.910156 195.882812 120.917969 195.039062 C 121.296875 195.242188 121.800781 195.445312 122.269531 195.449219 C 122.199219 194.449219 122.558594 193.480469 122.203125 192.523438 C 123.082031 192.558594 123.519531 193.238281 124.082031 193.824219 C 124.542969 192.289062 124.4375 191.28125 124.125 189.8125 C 125.773438 189.992188 126.761719 191.675781 128.339844 191.78125 C 127.742188 190.03125 127.070312 188.386719 125.585938 187.335938 C 127.027344 187.507812 128.28125 188.367188 129.695312 188.480469 C 128.90625 185.929688 127.21875 185.46875 125.386719 184.089844 C 126.625 183.078125 128.773438 183.910156 130.140625 184.246094 C 129.121094 183.007812 127.660156 182.332031 126.152344 181.917969 C 127.96875 181.3125 130.09375 182.644531 131.945312 182.886719 C 131.917969 182.144531 130.800781 181.40625 130.269531 180.921875 C 129.132812 179.886719 128.0625 178.992188 126.816406 178.195312 C 127.480469 177.75 128.753906 178.316406 129.59375 178.066406 C 128.183594 177.195312 126.546875 176.859375 124.878906 176.527344 C 125.542969 176.003906 127.292969 174.929688 127.390625 174.128906 C 126.605469 173.863281 125.757812 174.222656 124.988281 173.859375 C 125.695312 173.234375 126.648438 172.484375 127.515625 172.132812 C 126.296875 171.722656 124.871094 172.640625 123.636719 172.632812 C 124.714844 171.488281 126.394531 170.1875 127.875 169.828125 C 125.921875 169.476562 123.683594 170.066406 121.804688 170.785156 C 122.789062 170.085938 123.484375 169.164062 124.488281 168.460938 C 123.496094 168.203125 122.234375 168.898438 121.234375 169.019531 C 123.285156 166.546875 126.222656 164.132812 129.089844 162.953125 C 126.46875 162.242188 124.324219 162.957031 121.714844 163.308594 C 122.355469 162.433594 123.066406 161.664062 123.808594 160.847656 C 122.613281 160.824219 121.59375 161.324219 120.464844 161.632812 C 121.375 160.460938 122.402344 159.261719 123.277344 158.066406 C 122.472656 158.265625 121.632812 158.519531 120.84375 158.886719 C 121.003906 157.988281 121.011719 157.03125 121.003906 156.328125 C 120.359375 156.082031 119.71875 156.824219 119.230469 157.273438 C 119.34375 156.425781 119.796875 155.433594 119.605469 154.613281 C 118.859375 154.886719 118.289062 156.328125 117.449219 155.96875 C 117.589844 154.308594 118.375 151.625 117.71875 150.128906 C 117.164062 151.039062 116.226562 153.390625 115.144531 153.597656 C 114.941406 152.582031 115.128906 150.34375 114.238281 149.683594 C 113.054688 148.792969 112.90625 150.945312 112.25 151.558594 C 112.257812 150.21875 111.273438 149.113281 110.652344 148.042969 C 110.101562 147.085938 109.613281 145.671875 108.640625 145.175781 C 108.414062 145.921875 108.148438 149.253906 107.316406 149.445312 C 106.558594 149.621094 105.339844 143.195312 105.070312 142.625 C 104.382812 142.980469 104.433594 144.511719 104.019531 145.222656 C 103.699219 144.394531 103.632812 142.964844 102.941406 142.347656 C 102.570312 143.320312 102.390625 144.363281 102.078125 145.375 C 101.761719 144.34375 101.457031 141.808594 100.097656 141.890625 C 99.839844 142.816406 99.933594 143.820312 99.582031 144.707031 C 99.285156 144.523438 99 144.289062 98.722656 144.035156 C 98.375 142.925781 97.785156 141.765625 97.46875 141.078125 C 96.554688 139.089844 94.84375 137.78125 93.792969 135.898438 C 94.246094 136.914062 93.792969 138.832031 93.746094 139.984375 C 93.683594 141.527344 93.636719 143.097656 93.378906 144.640625 C 92.640625 143.542969 91.152344 138.453125 90.441406 138.207031 C 90.121094 138.980469 90.148438 140.113281 90.335938 141.40625 C 89.804688 140.777344 89.203125 140.214844 88.539062 139.734375 C 87.691406 139.128906 86.871094 138.476562 86.015625 137.867188 C 85.246094 137.316406 84.078125 136.222656 83.175781 136.085938 C 85.511719 138.183594 85.203125 142.828125 86.355469 145.6875 C 86.34375 145.695312 86.328125 145.699219 86.316406 145.707031 C 85.882812 145.1875 85.5625 144.269531 84.902344 144.070312 C 84.699219 144.796875 84.5625 145.550781 84.40625 146.296875 C 83.722656 144.816406 83.222656 143.230469 83.308594 141.824219 C 83.089844 142.863281 82.914062 143.890625 82.8125 144.925781 C 82.585938 144.570312 82.34375 144.214844 82.085938 143.855469 C 81.523438 143.074219 80.734375 142.558594 80.246094 141.730469 C 79.675781 140.761719 79.28125 139.679688 78.765625 138.699219 C 79.183594 141.597656 81.136719 145.089844 80.804688 148.171875 C 80.34375 147.371094 79.851562 146.519531 79.238281 145.957031 C 78.515625 145.289062 77.46875 145.074219 76.691406 144.558594 C 77.277344 146.253906 78.066406 148.515625 78.191406 150.304688 C 76.996094 150.222656 76.144531 148.828125 75.066406 148.582031 C 75.148438 149.75 76.253906 150.503906 76.277344 151.613281 C 74.8125 151.558594 73.800781 150.261719 72.726562 149.449219 C 71.496094 148.519531 69.8125 148.234375 68.292969 148.042969 C 69.132812 149.207031 70.632812 150.144531 71 151.542969 C 69.628906 151.386719 67.011719 150.949219 65.8125 151.808594 C 66.519531 151.964844 67.628906 152.320312 67.695312 153.195312 C 65.828125 153.921875 62.671875 155.921875 61.046875 157.203125 C 62.410156 157.476562 65.425781 158.816406 65.847656 160.539062 C 64.179688 161.234375 63.652344 162.285156 61.90625 162.402344 C 59.988281 162.53125 58.1875 162.789062 56.296875 163.046875 C 57.007812 163.144531 61.632812 163.230469 61.523438 164.484375 C 61.445312 165.355469 58.296875 164.921875 57.507812 165.613281 C 58.230469 166.25 59.246094 165.882812 60.09375 166.242188 C 59.351562 167.59375 56.367188 167.207031 55.984375 169.039062 C 57.257812 169.132812 61.304688 168.496094 58.527344 170.667969 C 56.386719 172.339844 53.414062 172.273438 51.246094 173.96875 C 52.792969 174.457031 54.542969 173.472656 56.183594 173.96875 C 55.738281 175.359375 52.722656 175.789062 51.824219 177.183594 C 52.511719 177.390625 54.855469 177.398438 54.066406 178.730469 C 53.667969 179.40625 51.351562 179.632812 50.621094 179.980469 C 47.964844 181.253906 46.371094 184.203125 44.40625 186.339844 C 46.769531 185.476562 49.535156 182.429688 52.234375 183.101562 C 50.164062 184.171875 46.824219 187 46.316406 189.570312 C 47.546875 189.757812 48.878906 188.347656 50.027344 188.601562 C 51.480469 188.925781 49.9375 189.539062 49.3125 189.925781 C 47.925781 190.789062 46.875 192.050781 46.136719 193.527344 C 47.097656 193.1875 48.0625 192.769531 48.953125 192.503906 C 50.472656 192.058594 52.0625 191.570312 53.566406 191.039062 C 51.976562 192.847656 50.128906 194.066406 48.738281 196.152344 C 47.898438 197.417969 47.234375 198.84375 46.613281 200.207031 C 46.058594 201.433594 45.199219 202.605469 44.898438 203.910156 C 46.519531 201.917969 48.191406 199.804688 49.964844 197.957031 C 51.386719 196.476562 52.957031 194.472656 54.902344 193.828125 C 54.546875 196.113281 52.835938 198.316406 52.375 200.707031 C 52.75 199.832031 53.738281 197.933594 54.75 197.855469 C 54.238281 201.121094 52.710938 205.105469 54.109375 208.265625 C 54.878906 204.542969 55.960938 200.820312 58.054688 197.636719 C 58.976562 196.238281 60.019531 195.257812 61.347656 194.253906 C 62.191406 193.613281 63.917969 192.039062 64.957031 192.292969 C 64.863281 193.84375 63.289062 195.941406 62.738281 197.410156 C 62.035156 199.292969 60.730469 202.296875 61.027344 204.359375 C 61.980469 203.941406 62.496094 201.40625 62.894531 200.417969 C 63.46875 199 64.019531 197.566406 64.566406 196.15625 C 65.324219 194.207031 67.085938 191.164062 68.644531 189.855469 C 68.683594 191.152344 67.511719 193.746094 68.066406 194.816406 C 69.050781 193.671875 69.136719 191.664062 70.339844 190.820312 C 70.726562 191.332031 70.242188 192.722656 70.171875 193.429688 C 70.042969 194.769531 69.878906 196.113281 69.726562 197.472656 C 69.472656 199.761719 68.789062 203.683594 69.972656 205.734375 C 71.03125 204.210938 71.082031 201.082031 71.398438 199.226562 C 71.730469 197.308594 72.230469 195.378906 72.800781 193.542969 C 73.375 191.695312 74.144531 189.910156 75.023438 188.1875 C 74.820312 189.402344 74.761719 190.738281 74.65625 191.90625 C 74.4375 194.351562 74.382812 197.617188 75.527344 199.730469 C 76.085938 198.480469 76.175781 197.078125 76.644531 195.785156 C 77.191406 194.277344 77.945312 192.78125 78.648438 191.351562 C 79.804688 188.988281 80.621094 186.550781 82.785156 184.988281 C 82.449219 186.398438 81.890625 188.304688 82.382812 189.636719 C 83.160156 188.304688 83.859375 185.800781 85.355469 185.199219 C 85.195312 186.277344 84.726562 187.226562 84.546875 188.308594 C 84.351562 189.492188 84.46875 190.660156 84.390625 191.835938 C 85.734375 190.566406 86.253906 188.28125 87.589844 186.855469 C 88.59375 185.785156 89.980469 184.921875 91.285156 184.316406 C 91.164062 185.765625 89.417969 186.949219 89.40625 188.40625 C 90.980469 187.765625 91.914062 187.441406 93.558594 187.957031 C 92.023438 188.195312 90.757812 189.511719 89.539062 190.445312 C 91.371094 190.863281 93.585938 191.191406 95.121094 192.441406 C 93.886719 192.378906 92.34375 192.75 91.222656 193.109375 C 89.839844 193.554688 88.746094 194.578125 87.386719 195.015625 C 90.414062 193.988281 93.785156 196.449219 95.605469 198.6875 C 93.453125 198.164062 91.292969 197.96875 89.136719 197.609375 C 90.460938 198.777344 92.792969 198.886719 93.898438 200.464844 C 93.046875 200.363281 90.582031 199.292969 90.144531 200.425781 C 92.132812 201.636719 93.574219 202.574219 94.730469 204.710938 C 92.386719 204.382812 91.351562 204.5 89.734375 206.464844 C 91.191406 206.84375 92.769531 205.34375 94.203125 206.523438 C 94.132812 207.300781 93.167969 207.914062 92.742188 208.59375 C 92.308594 209.277344 91.746094 210.257812 91.632812 211.066406 C 92.441406 211.101562 93.0625 210.085938 93.984375 210.214844 C 93.933594 211.394531 92.867188 213.472656 92.34375 214.5 C 93.175781 214.542969 94.035156 213.441406 94.828125 213.203125 C 94.96875 213.894531 94.214844 214.445312 93.886719 215.097656 C 93.507812 215.839844 93.332031 216.515625 93.195312 217.34375 C 93.835938 217.390625 94.480469 216.808594 95.164062 216.878906 C 95.128906 217.882812 94.203125 218.445312 94.203125 219.4375 C 95.214844 219.90625 96.320312 219.089844 97.375 219.554688 C 97.207031 220.628906 94.933594 221.046875 95.726562 222.128906 C 95.976562 222.472656 97.265625 222.75 97.710938 223.117188 C 98.089844 223.429688 98.4375 223.675781 98.574219 224.164062 C 98.152344 224.40625 97.683594 224.601562 97.390625 224.976562 C 98.398438 225.292969 99.964844 225.378906 100.367188 226.675781 C 100.742188 227.886719 99.660156 227.21875 99.476562 228.246094 C 100.753906 228.410156 101.46875 229.75 102.625 230.207031 C 103.320312 230.484375 104.039062 230.457031 104.742188 230.4375 C 104.664062 230.882812 104.507812 231.382812 104.460938 231.683594 C 105.6875 232.152344 106.78125 231.425781 108.011719 231.40625 C 107.777344 232.574219 106.753906 233.371094 106.605469 234.652344 C 107.230469 234.945312 107.773438 234.5 108.402344 234.460938 C 108.492188 235.113281 107.59375 236.992188 107.863281 237.476562 C 108.257812 238.183594 109.90625 237.074219 110.53125 236.679688 C 110.332031 238.027344 109.777344 239.273438 109.5625 240.609375 C 110.554688 240.71875 111.222656 239.117188 111.695312 240.394531 C 111.984375 241.179688 111.515625 243.285156 111.292969 244.117188 C 111.816406 244.148438 112.253906 243.480469 112.757812 243.226562 C 112.816406 244.316406 112.714844 245.382812 112.691406 246.453125 C 113.390625 246.414062 113.960938 245.472656 114.605469 245.039062 C 115.742188 246.09375 114.757812 249 114.457031 250.382812 C 114.179688 251.632812 113.945312 253.464844 113.527344 254.703125 C 113.421875 254.808594 113.316406 254.914062 113.210938 255.019531 C 111.015625 257.1875 107.125 258.285156 105.695312 261.167969 C 104.0625 264.457031 107.972656 266.484375 109.636719 268.503906 C 110.628906 269.703125 111.378906 271.09375 112.429688 272.238281 C 113.597656 273.519531 115.027344 274.464844 116.324219 275.582031 C 118.9375 277.828125 120.675781 280.246094 123.929688 281.585938 L 123.964844 281.507812 C 124.925781 281.996094 126.480469 281.996094 126.996094 281.230469 C 127.175781 280.964844 127.378906 280.203125 127.5 279.421875 L 127.78125 279.464844 C 128.652344 278.296875 128.65625 276.351562 128.03125 275.203125 C 126.570312 272.507812 123.757812 272.949219 121.316406 271.785156 C 120.40625 271.351562 119.03125 270.535156 118.464844 269.640625 C 118.242188 269.285156 117.980469 268.488281 117.804688 267.671875 C 119.039062 267.425781 120.226562 266.703125 121.429688 266.394531 C 123.066406 265.976562 124.84375 265.691406 126.476562 265.433594 C 129.609375 264.941406 132.546875 265.144531 135.394531 263.261719 C 135.886719 262.9375 136.351562 262.550781 136.804688 262.148438 C 137.710938 264 140.585938 264.554688 142.558594 264.839844 C 145.664062 265.289062 148.785156 265.660156 151.910156 266.042969 C 153.054688 266.183594 154.210938 266.175781 155.359375 266.222656 C 156.371094 266.585938 157.382812 267.007812 158.191406 267.078125 C 159.167969 267.160156 159.980469 267.082031 160.949219 266.902344 C 161.5 266.800781 162.230469 266.890625 162.84375 266.808594 C 163.96875 267.140625 165.230469 266.964844 165.527344 265.722656 C 165.867188 264.300781 163.929688 262.53125 162.835938 262.101562 C 162.632812 262.019531 162.4375 261.980469 162.246094 261.96875 C 161.644531 261.921875 161.0625 262.117188 160.425781 262.113281 C 159.5 262.113281 158.652344 261.71875 157.738281 261.628906 C 157.53125 261.605469 157.324219 261.597656 157.121094 261.597656 C 157.121094 261.597656 157.121094 261.597656 157.117188 261.597656 C 155.65625 261.597656 154.210938 262.046875 152.746094 261.695312 C 151.171875 261.316406 149.65625 260.316406 148.320312 259.386719 C 148.855469 258.074219 149.152344 256.449219 149.734375 255.304688 C 151.003906 252.800781 153.691406 251.175781 155.597656 249.144531 C 156.636719 248.042969 157.589844 246.851562 158.699219 245.800781 C 159.464844 245.074219 159.984375 244.070312 160.519531 243.214844 C 164.746094 244.597656 169.402344 244.597656 173.792969 243.914062 C 173.898438 243.898438 174.003906 243.878906 174.113281 243.863281 C 174.042969 244.746094 173.9375 245.636719 173.738281 246.558594 C 173.222656 248.859375 172.511719 251.257812 172.441406 253.621094 C 172.375 255.824219 172.625 257.625 171.871094 259.753906 C 171.328125 261.289062 171.59375 263.472656 172.109375 265.035156 C 172.753906 266.992188 175.394531 266.832031 177.148438 267.171875 L 177.183594 267.003906 C 177.933594 267.140625 178.742188 266.996094 179.523438 267.078125 C 180.371094 267.164062 181.9375 267.824219 182.757812 267.285156 C 183.304688 267.757812 183.9375 268.101562 184.609375 267.65625 C 185.929688 266.773438 185.398438 264.863281 184.835938 264.335938 C 183.941406 263.488281 182.785156 263.683594 181.578125 263.3125 C 180.746094 263.054688 179.964844 262.679688 179.234375 262.183594 C 179.707031 261.011719 179.871094 259.734375 180.222656 258.496094 C 181.03125 255.636719 182.015625 252.867188 183.257812 250.183594 C 183.933594 248.71875 184.503906 247.550781 185.738281 246.441406 C 186.3125 245.925781 187.25 244.550781 188.09375 243.832031 C 188.097656 244.007812 188.109375 244.1875 188.136719 244.355469 C 188.277344 245.234375 188.609375 246.066406 188.894531 246.890625 C 189.414062 248.402344 190.128906 249.757812 190.988281 251.074219 C 192.738281 253.75 195.605469 255.273438 198.054688 257.09375 C 200.554688 258.957031 202.671875 261.285156 205.246094 263.058594 C 207.777344 264.800781 210.566406 265.746094 212.863281 267.875 C 214.914062 269.78125 217.53125 271.085938 219.402344 273.164062 L 219.480469 273.132812 C 219.902344 274.292969 220.753906 274.988281 221.988281 275.53125 C 223.613281 276.25 224.558594 276.304688 225.847656 275.3125 C 226.097656 275.730469 226.222656 276.28125 226.707031 276.554688 C 228.078125 277.316406 229.082031 276.214844 229.550781 274.976562 C 230.464844 274.824219 231.433594 274.386719 231.125 273.222656 C 230.839844 272.152344 229.273438 272.097656 228.703125 271.265625 C 228.015625 270.28125 228.46875 269.050781 227.023438 268.726562 C 226.078125 268.507812 224.824219 269.082031 223.855469 269.195312 C 223.195312 269.277344 222.519531 269.261719 221.847656 269.289062 C 220.925781 268.121094 219.820312 267.054688 219.058594 265.792969 C 217.1875 262.6875 216.214844 259.050781 214.390625 255.945312 C 213.402344 254.265625 212.976562 252.234375 212.140625 250.46875 C 211.5 249.113281 211.152344 247.359375 210.503906 245.933594 C 211.121094 244.902344 211.710938 243.839844 212.164062 242.746094 C 212.785156 241.238281 212.453125 239.714844 212.675781 238.144531 C 212.886719 236.683594 213.527344 235.164062 214.074219 233.824219 C 214.945312 231.695312 216.792969 230.363281 218.738281 229.371094 C 219.925781 229.828125 221.421875 229.957031 222.402344 230.039062 C 224.117188 230.1875 225.996094 229.726562 227.714844 229.507812 C 228.800781 229.367188 229.53125 229.378906 230.554688 229.699219 C 231.511719 229.996094 232.847656 229.597656 233.570312 230.195312 C 234.65625 231.09375 236.914062 231.167969 238.265625 230.914062 C 238.980469 230.777344 240.265625 231.1875 240.710938 230.511719 C 241.066406 229.96875 242.46875 228.992188 242.949219 228.328125 C 244.304688 228.382812 245.789062 228.59375 247.09375 228.066406 C 247.660156 227.835938 248.109375 227.445312 248.453125 226.957031 C 249.300781 226.945312 250.121094 226.71875 250.753906 225.976562 C 251.691406 224.894531 251.683594 223.398438 251.234375 222.132812 Z M 251.234375 222.132812 " fill-opacity="1" fill-rule="nonzero"/></g><g fill="#e30613" fill-opacity="1"><g transform="translate(7.971999, 30.811374)"><g><path d="M 4.828125 0 L 4.828125 -1.765625 L 9.140625 -1.765625 L 9.140625 -22.359375 L 4.140625 -19.125 L 4.140625 -21.296875 L 10.1875 -25.21875 L 12.46875 -25.21875 L 12.46875 -1.765625 L 16.78125 -1.765625 L 16.78125 0 Z M 4.828125 0 "/></g></g><g transform="translate(29.579952, 30.811374)"><g><path d="M 10.796875 -1.15625 C 12.484375 -1.15625 13.75 -2.082031 14.59375 -3.9375 C 15.4375 -5.800781 15.859375 -8.609375 15.859375 -12.359375 C 15.859375 -16.117188 15.4375 -18.925781 14.59375 -20.78125 C 13.75 -22.632812 12.484375 -23.5625 10.796875 -23.5625 C 9.109375 -23.5625 7.84375 -22.632812 7 -20.78125 C 6.15625 -18.925781 5.734375 -16.117188 5.734375 -12.359375 C 5.734375 -8.609375 6.15625 -5.800781 7 -3.9375 C 7.84375 -2.082031 9.109375 -1.15625 10.796875 -1.15625 Z M 10.796875 0.484375 C 8.109375 0.484375 6.007812 -0.640625 4.5 -2.890625 C 2.988281 -5.148438 2.234375 -8.304688 2.234375 -12.359375 C 2.234375 -16.410156 2.988281 -19.566406 4.5 -21.828125 C 6.007812 -24.085938 8.109375 -25.21875 10.796875 -25.21875 C 13.492188 -25.21875 15.59375 -24.085938 17.09375 -21.828125 C 18.601562 -19.566406 19.359375 -16.410156 19.359375 -12.359375 C 19.359375 -8.304688 18.601562 -5.148438 17.09375 -2.890625 C 15.59375 -0.640625 13.492188 0.484375 10.796875 0.484375 Z M 10.796875 0.484375 "/></g></g></g><g fill="#e30613" fill-opacity="1"><g transform="translate(288.636968, 387.070532)"><g><path d="M -4.828125 0 L -4.828125 1.765625 L -9.140625 1.765625 L -9.140625 22.359375 L -4.140625 19.125 L -4.140625 21.296875 L -10.1875 25.21875 L -12.46875 25.21875 L -12.46875 1.765625 L -16.78125 1.765625 L -16.78125 0 Z M -4.828125 0 "/></g></g><g transform="translate(267.029015, 387.070532)"><g><path d="M -10.796875 1.15625 C -12.484375 1.15625 -13.75 2.082031 -14.59375 3.9375 C -15.4375 5.800781 -15.859375 8.609375 -15.859375 12.359375 C -15.859375 16.117188 -15.4375 18.925781 -14.59375 20.78125 C -13.75 22.632812 -12.484375 23.5625 -10.796875 23.5625 C -9.109375 23.5625 -7.84375 22.632812 -7 20.78125 C -6.15625 18.925781 -5.734375 16.117188 -5.734375 12.359375 C -5.734375 8.609375 -6.15625 5.800781 -7 3.9375 C -7.84375 2.082031 -9.109375 1.15625 -10.796875 1.15625 Z M -10.796875 -0.484375 C -8.109375 -0.484375 -6.007812 0.640625 -4.5 2.890625 C -2.988281 5.148438 -2.234375 8.304688 -2.234375 12.359375 C -2.234375 16.410156 -2.988281 19.566406 -4.5 21.828125 C -6.007812 24.085938 -8.109375 25.21875 -10.796875 25.21875 C -13.492188 25.21875 -15.59375 24.085938 -17.09375 21.828125 C -18.601562 19.566406 -19.359375 16.410156 -19.359375 12.359375 C -19.359375 8.304688 -18.601562 5.148438 -17.09375 2.890625 C -15.59375 0.640625 -13.492188 -0.484375 -10.796875 -0.484375 Z M -10.796875 -0.484375 "/></g></g></g><g fill="#e30613" fill-opacity="1"><g transform="translate(48.531158, 390.070117)"><g><path d="M -3.921875 0 L -3.921875 1.421875 L -7.421875 1.421875 L -7.421875 18.15625 L -3.375 15.53125 L -3.375 17.296875 L -8.265625 20.484375 L -10.125 20.484375 L -10.125 1.421875 L -13.640625 1.421875 L -13.640625 0 Z M -3.921875 0 "/></g></g><g transform="translate(30.971078, 390.070117)"><g><path d="M -8.765625 0.9375 C -10.140625 0.9375 -11.164062 1.691406 -11.84375 3.203125 C -12.53125 4.710938 -12.875 6.988281 -12.875 10.03125 C -12.875 13.09375 -12.53125 15.375 -11.84375 16.875 C -11.164062 18.382812 -10.140625 19.140625 -8.765625 19.140625 C -7.390625 19.140625 -6.359375 18.382812 -5.671875 16.875 C -4.992188 15.375 -4.65625 13.09375 -4.65625 10.03125 C -4.65625 6.988281 -4.992188 4.710938 -5.671875 3.203125 C -6.359375 1.691406 -7.390625 0.9375 -8.765625 0.9375 Z M -8.765625 -0.390625 C -6.585938 -0.390625 -4.882812 0.523438 -3.65625 2.359375 C -2.425781 4.191406 -1.8125 6.75 -1.8125 10.03125 C -1.8125 13.332031 -2.425781 15.898438 -3.65625 17.734375 C -4.882812 19.566406 -6.585938 20.484375 -8.765625 20.484375 C -10.960938 20.484375 -12.671875 19.566406 -13.890625 17.734375 C -15.109375 15.898438 -15.71875 13.332031 -15.71875 10.03125 C -15.71875 6.75 -15.109375 4.191406 -13.890625 2.359375 C -12.671875 0.523438 -10.960938 -0.390625 -8.765625 -0.390625 Z M -8.765625 -0.390625 "/></g></g></g><g fill="#e30613" fill-opacity="1"><g transform="translate(244.591255, 27.813899)"><g><path d="M 3.921875 0 L 3.921875 -1.421875 L 7.421875 -1.421875 L 7.421875 -18.15625 L 3.375 -15.53125 L 3.375 -17.296875 L 8.265625 -20.484375 L 10.125 -20.484375 L 10.125 -1.421875 L 13.640625 -1.421875 L 13.640625 0 Z M 3.921875 0 "/></g></g><g transform="translate(262.151335, 27.813899)"><g><path d="M 8.765625 -0.9375 C 10.140625 -0.9375 11.164062 -1.691406 11.84375 -3.203125 C 12.53125 -4.710938 12.875 -6.988281 12.875 -10.03125 C 12.875 -13.09375 12.53125 -15.375 11.84375 -16.875 C 11.164062 -18.382812 10.140625 -19.140625 8.765625 -19.140625 C 7.390625 -19.140625 6.359375 -18.382812 5.671875 -16.875 C 4.992188 -15.375 4.65625 -13.09375 4.65625 -10.03125 C 4.65625 -6.988281 4.992188 -4.710938 5.671875 -3.203125 C 6.359375 -1.691406 7.390625 -0.9375 8.765625 -0.9375 Z M 8.765625 0.390625 C 6.585938 0.390625 4.882812 -0.523438 3.65625 -2.359375 C 2.425781 -4.191406 1.8125 -6.75 1.8125 -10.03125 C 1.8125 -13.332031 2.425781 -15.898438 3.65625 -17.734375 C 4.882812 -19.566406 6.585938 -20.484375 8.765625 -20.484375 C 10.960938 -20.484375 12.671875 -19.566406 13.890625 -17.734375 C 15.109375 -15.898438 15.71875 -13.332031 15.71875 -10.03125 C 15.71875 -6.75 15.109375 -4.191406 13.890625 -2.359375 C 12.671875 -0.523438 10.960938 0.390625 8.765625 0.390625 Z M 8.765625 0.390625 "/></g></g></g></svg>