<svg xmlns="http://www.w3.org/2000/svg" xmlns:xlink="http://www.w3.org/1999/xlink" width="396" zoomAndPan="magnify" viewBox="0 0 297.12 419.249996" height="559" preserveAspectRatio="xMidYMid meet" version="1.0"><defs><g/><clipPath id="befffe9a43"><path d="M 0 0.246094 L 296.238281 0.246094 L 296.238281 417.367188 L 0 417.367188 Z M 0 0.246094 " clip-rule="nonzero"/></clipPath><clipPath id="1b74384df4"><path d="M 30.125 42.132812 L 265.921875 42.132812 L 265.921875 375.683594 L 30.125 375.683594 Z M 30.125 42.132812 " clip-rule="nonzero"/></clipPath><clipPath id="38eac76882"><path d="M 15.714844 42.132812 L 46.308594 42.132812 L 46.308594 90.636719 L 15.714844 90.636719 Z M 15.714844 42.132812 " clip-rule="nonzero"/></clipPath><clipPath id="efbb900a67"><path d="M 253.476562 41.851562 L 275.863281 41.851562 L 275.863281 77.667969 L 253.476562 77.667969 Z M 253.476562 41.851562 " clip-rule="nonzero"/></clipPath><clipPath id="ab8461f7c2"><path d="M 249.917969 327.449219 L 280.511719 327.449219 L 280.511719 375.949219 L 249.917969 375.949219 Z M 249.917969 327.449219 " clip-rule="nonzero"/></clipPath><clipPath id="f49d07b2a9"><path d="M 19.617188 340.097656 L 42.003906 340.097656 L 42.003906 375.914062 L 19.617188 375.914062 Z M 19.617188 340.097656 " clip-rule="nonzero"/></clipPath><clipPath id="97049deb70"><path d="M 178 135 L 243.769531 135 L 243.769531 280 L 178 280 Z M 178 135 " clip-rule="nonzero"/></clipPath><clipPath id="ff08bfb93e"><path d="M 52.011719 135 L 118 135 L 118 280 L 52.011719 280 Z M 52.011719 135 " clip-rule="nonzero"/></clipPath><clipPath id="19bebfa4af"><path d="M 118 274 L 118.421875 274 L 118.421875 284.054688 L 118 284.054688 Z M 118 274 " clip-rule="nonzero"/></clipPath></defs><g clip-path="url(#befffe9a43)"><path fill="#ffffff" d="M 0 0.246094 L 296.238281 0.246094 L 296.238281 417.367188 L 0 417.367188 Z M 0 0.246094 " fill-opacity="1" fill-rule="nonzero"/><path fill="#ffffff" d="M 0 0.246094 L 296.238281 0.246094 L 296.238281 417.367188 L 0 417.367188 Z M 0 0.246094 " fill-opacity="1" fill-rule="nonzero"/></g><g clip-path="url(#1b74384df4)"><path stroke-linecap="butt" transform="matrix(0.746195, 0, 0, 0.746195, 30.125007, 42.133995)" fill="none" stroke-linejoin="miter" d="M -0.00000963595 -0.00158425 L 316.108775 -0.00158425 L 316.108775 447.094599 L -0.00000963595 447.094599 Z M -0.00000963595 -0.00158425 " stroke="#e30613" stroke-width="6" stroke-opacity="1" stroke-miterlimit="4"/></g><g clip-path="url(#38eac76882)"><path fill="#e30613" d="M 30.957031 42.132812 L 15.730469 66.285156 L 30.957031 90.4375 L 46.179688 66.285156 Z M 30.957031 42.132812 " fill-opacity="1" fill-rule="nonzero"/></g><g clip-path="url(#efbb900a67)"><path fill="#e30613" d="M 264.808594 41.851562 L 253.484375 59.820312 L 264.808594 77.785156 L 276.136719 59.820312 Z M 264.808594 41.851562 " fill-opacity="1" fill-rule="nonzero"/></g><g clip-path="url(#ab8461f7c2)"><path fill="#e30613" d="M 265.15625 327.449219 L 249.933594 351.601562 L 265.15625 375.75 L 280.382812 351.601562 Z M 265.15625 327.449219 " fill-opacity="1" fill-rule="nonzero"/></g><g clip-path="url(#f49d07b2a9)"><path fill="#e30613" d="M 30.953125 340.097656 L 19.625 358.066406 L 30.953125 376.03125 L 42.277344 358.066406 Z M 30.953125 340.097656 " fill-opacity="1" fill-rule="nonzero"/></g><g clip-path="url(#97049deb70)"><path fill="#e30613" d="M 178.050781 263.035156 C 177.894531 257.234375 178.535156 251.382812 178.441406 247.875 C 178.179688 238.164062 183.746094 222.878906 182.664062 204.238281 C 182.652344 203.988281 180.625 192.183594 180.425781 183.253906 C 180.300781 177.828125 181.355469 174.886719 182.753906 173.882812 C 181.832031 172.71875 183.164062 166.855469 183.566406 165.527344 C 184.351562 162.941406 185.78125 162.996094 185.519531 164.203125 C 184.835938 167.375 185.058594 170.554688 184.890625 173.652344 C 184.890625 173.667969 184.882812 173.683594 184.871094 173.699219 C 186.773438 174.582031 188.59375 178.074219 188.710938 183.148438 C 188.78125 186.191406 188.304688 189.773438 188.265625 193.113281 C 188.246094 194.679688 188.371094 196.1875 188.605469 197.574219 C 190.554688 209.09375 194.324219 196.964844 195.140625 192.601562 C 197.023438 182.5625 198.898438 173.390625 199.425781 162.957031 C 199.824219 154.996094 202.675781 150.617188 205.078125 149.976562 C 205.4375 147.359375 207.296875 139.03125 207.847656 138.414062 C 208.972656 137.15625 208.042969 144.03125 208.039062 144.066406 C 207.714844 147.097656 207.574219 147.695312 206.953125 150.347656 C 208.472656 151.542969 209.195312 155.117188 207.675781 161.164062 C 207.011719 163.800781 206.230469 167.035156 205.441406 170.488281 C 202.363281 183.972656 198.261719 200.652344 202.898438 198.433594 C 209.152344 195.441406 211.96875 170.539062 215.449219 156.9375 C 216.976562 150.957031 218.914062 148.472656 220.558594 148.207031 C 221.070312 145.222656 223.289062 136.183594 223.867188 135.511719 C 225.058594 134.128906 223.800781 141.730469 223.792969 141.769531 C 223.320312 145.1875 223.148438 145.808594 222.363281 148.890625 C 224.003906 150.566406 224.71875 154.972656 223.089844 159.523438 C 220.164062 167.695312 215.085938 180.757812 214.234375 186.640625 C 213.964844 188.519531 206.046875 210.191406 213.707031 201.222656 C 218.949219 195.085938 227.308594 158.6875 234.214844 164.203125 C 235.464844 161.582031 239.429688 154.597656 240.113281 154.179688 C 241.558594 153.304688 238.667969 159.613281 238.65625 159.644531 C 237.390625 162.625 237.121094 163.039062 235.523438 165.800781 C 235.707031 166.105469 235.886719 166.433594 236.066406 166.808594 C 236.789062 168.320312 236.222656 172.742188 233.414062 177.960938 C 230.332031 183.675781 225.609375 190.535156 222.140625 196.453125 C 215.859375 207.175781 214.863281 216.074219 226.429688 206.011719 C 226.886719 205.613281 229.019531 202.703125 231.527344 200.460938 C 233.707031 198.507812 235.347656 197.859375 236.449219 198.042969 C 239.886719 194.015625 239.484375 194.804688 241.460938 191.21875 C 242.488281 189.359375 244.070312 188.449219 243.417969 191.324219 C 242.707031 194.492188 240.863281 198.316406 238.113281 200.203125 C 238.308594 202.074219 237.390625 204.792969 235.359375 206.957031 C 231.425781 211.144531 223.386719 219.410156 218.28125 228.921875 C 213.871094 237.132812 202.488281 261.691406 200.476562 268.617188 C 198.066406 276.902344 178.78125 290.789062 178.050781 263.035156 Z M 178.050781 263.035156 " fill-opacity="1" fill-rule="evenodd"/></g><g fill="#e30613" fill-opacity="1"><g transform="translate(18.911079, 30.811374)"><g><path d="M 4.34375 -18.859375 L 2.484375 -18.859375 L 2.484375 -23.265625 C 3.671875 -23.898438 4.863281 -24.382812 6.0625 -24.71875 C 7.257812 -25.050781 8.4375 -25.21875 9.59375 -25.21875 C 12.164062 -25.21875 14.195312 -24.59375 15.6875 -23.34375 C 17.1875 -22.09375 17.9375 -20.394531 17.9375 -18.25 C 17.9375 -15.820312 16.242188 -12.921875 12.859375 -9.546875 C 12.585938 -9.296875 12.382812 -9.101562 12.25 -8.96875 L 6 -2.71875 L 16.34375 -2.71875 L 16.34375 -5.765625 L 18.28125 -5.765625 L 18.28125 0 L 2.3125 0 L 2.3125 -1.8125 L 9.8125 -9.3125 C 11.476562 -10.96875 12.664062 -12.488281 13.375 -13.875 C 14.082031 -15.257812 14.4375 -16.71875 14.4375 -18.25 C 14.4375 -19.914062 14 -21.21875 13.125 -22.15625 C 12.257812 -23.09375 11.0625 -23.5625 9.53125 -23.5625 C 7.957031 -23.5625 6.738281 -23.171875 5.875 -22.390625 C 5.007812 -21.609375 4.5 -20.429688 4.34375 -18.859375 Z M 4.34375 -18.859375 "/></g></g></g><g fill="#e30613" fill-opacity="1"><g transform="translate(277.719684, 387.070532)"><g><path d="M -4.34375 18.859375 L -2.484375 18.859375 L -2.484375 23.265625 C -3.671875 23.898438 -4.863281 24.382812 -6.0625 24.71875 C -7.257812 25.050781 -8.4375 25.21875 -9.59375 25.21875 C -12.164062 25.21875 -14.195312 24.59375 -15.6875 23.34375 C -17.1875 22.09375 -17.9375 20.394531 -17.9375 18.25 C -17.9375 15.820312 -16.242188 12.921875 -12.859375 9.546875 C -12.585938 9.296875 -12.382812 9.101562 -12.25 8.96875 L -6 2.71875 L -16.34375 2.71875 L -16.34375 5.765625 L -18.28125 5.765625 L -18.28125 0 L -2.3125 0 L -2.3125 1.8125 L -9.8125 9.3125 C -11.476562 10.96875 -12.664062 12.488281 -13.375 13.875 C -14.082031 15.257812 -14.4375 16.71875 -14.4375 18.25 C -14.4375 19.914062 -14 21.21875 -13.125 22.15625 C -12.257812 23.09375 -11.0625 23.5625 -9.53125 23.5625 C -7.957031 23.5625 -6.738281 23.171875 -5.875 22.390625 C -5.007812 21.609375 -4.5 20.429688 -4.34375 18.859375 Z M -4.34375 18.859375 "/></g></g></g><g fill="#e30613" fill-opacity="1"><g transform="translate(39.642591, 390.070117)"><g><path d="M -3.53125 15.3125 L -2.015625 15.3125 L -2.015625 18.90625 C -2.984375 19.414062 -3.953125 19.804688 -4.921875 20.078125 C -5.898438 20.347656 -6.851562 20.484375 -7.78125 20.484375 C -9.875 20.484375 -11.523438 19.972656 -12.734375 18.953125 C -13.953125 17.941406 -14.5625 16.566406 -14.5625 14.828125 C -14.5625 12.859375 -13.1875 10.503906 -10.4375 7.765625 C -10.226562 7.554688 -10.066406 7.398438 -9.953125 7.296875 L -4.875 2.203125 L -13.265625 2.203125 L -13.265625 4.6875 L -14.84375 4.6875 L -14.84375 0 L -1.875 0 L -1.875 1.46875 L -7.96875 7.5625 C -9.320312 8.90625 -10.285156 10.140625 -10.859375 11.265625 C -11.429688 12.398438 -11.71875 13.585938 -11.71875 14.828125 C -11.71875 16.179688 -11.363281 17.238281 -10.65625 18 C -9.957031 18.757812 -8.988281 19.140625 -7.75 19.140625 C -6.46875 19.140625 -5.472656 18.820312 -4.765625 18.1875 C -4.066406 17.550781 -3.65625 16.59375 -3.53125 15.3125 Z M -3.53125 15.3125 "/></g></g></g><g fill="#e30613" fill-opacity="1"><g transform="translate(253.476868, 27.813812)"><g><path d="M 3.53125 -15.3125 L 2.015625 -15.3125 L 2.015625 -18.90625 C 2.984375 -19.414062 3.953125 -19.804688 4.921875 -20.078125 C 5.898438 -20.347656 6.851562 -20.484375 7.78125 -20.484375 C 9.875 -20.484375 11.523438 -19.972656 12.734375 -18.953125 C 13.953125 -17.941406 14.5625 -16.566406 14.5625 -14.828125 C 14.5625 -12.859375 13.1875 -10.503906 10.4375 -7.765625 C 10.226562 -7.554688 10.066406 -7.398438 9.953125 -7.296875 L 4.875 -2.203125 L 13.265625 -2.203125 L 13.265625 -4.6875 L 14.84375 -4.6875 L 14.84375 0 L 1.875 0 L 1.875 -1.46875 L 7.96875 -7.5625 C 9.320312 -8.90625 10.285156 -10.140625 10.859375 -11.265625 C 11.429688 -12.398438 11.71875 -13.585938 11.71875 -14.828125 C 11.71875 -16.179688 11.363281 -17.238281 10.65625 -18 C 9.957031 -18.757812 8.988281 -19.140625 7.75 -19.140625 C 6.46875 -19.140625 5.472656 -18.820312 4.765625 -18.1875 C 4.066406 -17.550781 3.65625 -16.59375 3.53125 -15.3125 Z M 3.53125 -15.3125 "/></g></g></g><g clip-path="url(#ff08bfb93e)"><path fill="#e30613" d="M 117.464844 263.035156 C 117.617188 257.234375 116.980469 251.382812 117.074219 247.875 C 117.332031 238.164062 111.769531 222.878906 112.847656 204.238281 C 112.863281 203.988281 114.890625 192.183594 115.089844 183.253906 C 115.214844 177.828125 114.15625 174.886719 112.761719 173.882812 C 113.683594 172.71875 112.351562 166.855469 111.949219 165.527344 C 111.164062 162.941406 109.734375 162.996094 109.996094 164.203125 C 110.679688 167.375 110.457031 170.554688 110.625 173.652344 C 110.625 173.667969 110.632812 173.683594 110.644531 173.699219 C 108.742188 174.582031 106.921875 178.074219 106.804688 183.148438 C 106.734375 186.191406 107.210938 189.773438 107.25 193.113281 C 107.265625 194.679688 107.144531 196.1875 106.910156 197.574219 C 104.957031 209.09375 101.191406 196.964844 100.371094 192.601562 C 98.492188 182.5625 96.617188 173.390625 96.089844 162.957031 C 95.691406 154.996094 92.839844 150.617188 90.4375 149.976562 C 90.078125 147.359375 88.21875 139.03125 87.667969 138.414062 C 86.542969 137.15625 87.472656 144.03125 87.476562 144.066406 C 87.796875 147.097656 87.941406 147.695312 88.5625 150.347656 C 87.042969 151.542969 86.320312 155.117188 87.839844 161.164062 C 88.503906 163.800781 89.285156 167.035156 90.074219 170.488281 C 93.152344 183.972656 97.253906 200.652344 92.617188 198.433594 C 86.359375 195.441406 83.546875 170.539062 80.066406 156.9375 C 78.535156 150.957031 76.601562 148.472656 74.957031 148.207031 C 74.445312 145.222656 72.226562 136.183594 71.644531 135.511719 C 70.457031 134.128906 71.714844 141.730469 71.71875 141.769531 C 72.195312 145.1875 72.367188 145.808594 73.152344 148.890625 C 71.511719 150.566406 70.796875 154.972656 72.425781 159.523438 C 75.351562 167.695312 80.425781 180.757812 81.277344 186.640625 C 81.550781 188.519531 89.46875 210.191406 81.808594 201.222656 C 76.566406 195.085938 68.207031 158.6875 61.300781 164.203125 C 60.050781 161.582031 56.085938 154.597656 55.398438 154.179688 C 53.957031 153.304688 56.847656 159.613281 56.859375 159.644531 C 58.125 162.625 58.394531 163.039062 59.992188 165.800781 C 59.808594 166.105469 59.628906 166.433594 59.449219 166.808594 C 58.722656 168.320312 59.292969 172.742188 62.101562 177.960938 C 65.183594 183.675781 69.90625 190.535156 73.375 196.453125 C 79.652344 207.175781 80.652344 216.074219 69.085938 206.011719 C 68.628906 205.613281 66.496094 202.703125 63.988281 200.460938 C 61.808594 198.507812 60.167969 197.859375 59.066406 198.042969 C 55.628906 194.015625 56.03125 194.804688 54.054688 191.21875 C 53.027344 189.359375 51.445312 188.449219 52.09375 191.324219 C 52.808594 194.492188 54.652344 198.316406 57.402344 200.203125 C 57.207031 202.074219 58.125 204.792969 60.15625 206.957031 C 64.089844 211.144531 72.128906 219.410156 77.234375 228.921875 C 81.644531 237.132812 93.027344 261.691406 95.039062 268.617188 C 97.445312 276.902344 116.734375 290.789062 117.464844 263.035156 Z M 117.464844 263.035156 " fill-opacity="1" fill-rule="evenodd"/></g><g clip-path="url(#19bebfa4af)"><path fill="#e30613" d="M 157.425781 293.050781 C 155.164062 295.980469 155.804688 304.199219 156.488281 308.507812 C 156.117188 311.28125 155.097656 315.078125 154.394531 316.558594 C 154.242188 316.378906 154.089844 316.179688 153.941406 315.964844 C 152.121094 313.320312 151.773438 312.527344 149.035156 312.230469 C 149.011719 312.199219 148.988281 312.167969 148.960938 312.136719 C 148.03125 310.996094 147.515625 306.078125 147.40625 304.523438 C 147.273438 302.703125 146.621094 297.707031 146.875 296.144531 C 147.003906 295.324219 146.472656 293.542969 146 292.421875 C 146 291.675781 145.960938 290.921875 145.859375 290.167969 C 145.503906 287.523438 144.285156 284.875 142.96875 283.070312 C 141.632812 281.238281 140.839844 281.554688 139.808594 278.207031 C 138.296875 273.304688 136.285156 273.300781 137.914062 279.167969 C 138.675781 281.914062 136.355469 286.117188 137.632812 291.585938 C 138.0625 293.421875 139.101562 295.359375 140.589844 297.476562 C 142.507812 300.457031 144.390625 309.691406 142.832031 312.503906 C 142.765625 312.621094 142.71875 312.722656 142.6875 312.8125 C 141.800781 313.105469 140.960938 313.472656 140.21875 313.894531 C 138.28125 311.949219 136.394531 306.765625 134.972656 303.921875 C 134.988281 303.695312 134.992188 303.457031 134.980469 303.214844 C 134.765625 298.871094 132 294.453125 129.304688 291.375 C 128.582031 290.554688 127.976562 290.617188 127.292969 289.859375 C 126.222656 288.667969 125.5625 286.203125 125.375 284.445312 C 125.1875 282.707031 123.285156 281.988281 123.71875 285.117188 C 124.007812 287.234375 124.988281 291.226562 124.34375 292.644531 C 123.175781 295.226562 124.449219 301.183594 126.761719 305.164062 C 127.714844 306.804688 129 307.675781 130.269531 307.917969 C 132.476562 310.128906 135.003906 314.25 135.898438 316.398438 C 136.246094 317.230469 136.550781 317.785156 136.925781 318.101562 C 136.945312 318.382812 137.019531 318.65625 137.152344 318.925781 C 137.726562 320.113281 137.558594 321.289062 137.082031 322.46875 C 134.40625 321.535156 133.484375 320.289062 132.375 319.203125 C 130.816406 315.765625 127.269531 312.292969 127.234375 312.210938 C 124.875 310.722656 124.117188 311.160156 122.613281 310.289062 C 121.863281 309.855469 121.351562 308.933594 120.621094 308.042969 C 120.007812 307.296875 120.8125 305.457031 119.292969 305.742188 C 119.109375 305.773438 118.410156 307.605469 118.625 308.476562 C 119.296875 309.730469 119.652344 311.84375 119.859375 313.429688 C 120.117188 315.398438 121.175781 319.539062 122.199219 320.929688 C 124.5 324.078125 127.816406 326.046875 129.515625 325.640625 C 129.578125 325.625 129.636719 325.609375 129.699219 325.59375 C 130.382812 325.835938 131.175781 326.140625 131.441406 326.21875 C 131.890625 326.347656 133.53125 327.28125 134.332031 327.734375 C 132.894531 332.359375 137.917969 336.695312 142.140625 333.402344 C 144.3125 331.707031 145.109375 329.523438 147.566406 328.652344 C 149.203125 328.074219 151.558594 327.691406 153.894531 328.058594 C 156.441406 328.457031 158.007812 328.085938 158.910156 327.300781 C 161.757812 324.824219 159.597656 321 157.894531 319.332031 C 158.050781 318.804688 158.355469 317.808594 159.390625 316.167969 C 160.070312 315.09375 160.703125 311.28125 160.898438 308.613281 C 163.652344 304.878906 164.371094 298.164062 163.191406 294.316406 C 162.285156 291.367188 162.328125 288.226562 162.695312 287.320312 C 164.261719 283.457031 161.671875 280.164062 160.160156 288.394531 C 159.214844 293.550781 159.226562 290.71875 157.425781 293.050781 Z M 148.246094 339.3125 C 153.054688 338.371094 154.429688 344.285156 152.554688 346.707031 C 150.546875 349.300781 144.980469 349.363281 144.144531 345.105469 C 143.53125 341.96875 145.203125 339.910156 148.246094 339.3125 Z M 156.425781 330.871094 C 161.097656 329.957031 165.136719 337.21875 158.660156 338.917969 C 157.414062 339.246094 156.226562 339.175781 155.214844 338.734375 C 151.375 337.0625 151.898438 331.761719 156.425781 330.871094 Z M 156.425781 330.871094 " fill-opacity="1" fill-rule="evenodd"/></g></svg>