<svg xmlns="http://www.w3.org/2000/svg" xmlns:xlink="http://www.w3.org/1999/xlink" width="396" zoomAndPan="magnify" viewBox="0 0 297.12 419.249996" height="559" preserveAspectRatio="xMidYMid meet" version="1.0"><defs><g/><clipPath id="ebc57ba407"><path d="M 0 0.246094 L 296.238281 0.246094 L 296.238281 417.367188 L 0 417.367188 Z M 0 0.246094 " clip-rule="nonzero"/></clipPath><clipPath id="66aa22d7e5"><path d="M 30.125 42.132812 L 265.921875 42.132812 L 265.921875 375.683594 L 30.125 375.683594 Z M 30.125 42.132812 " clip-rule="nonzero"/></clipPath><clipPath id="ee8a57c68e"><path d="M 15.714844 42.132812 L 46.308594 42.132812 L 46.308594 90.636719 L 15.714844 90.636719 Z M 15.714844 42.132812 " clip-rule="nonzero"/></clipPath><clipPath id="f8da5e13ce"><path d="M 253.476562 41.851562 L 275.863281 41.851562 L 275.863281 77.667969 L 253.476562 77.667969 Z M 253.476562 41.851562 " clip-rule="nonzero"/></clipPath><clipPath id="665252c369"><path d="M 249.917969 327.449219 L 280.511719 327.449219 L 280.511719 375.949219 L 249.917969 375.949219 Z M 249.917969 327.449219 " clip-rule="nonzero"/></clipPath><clipPath id="8e27dc80fb"><path d="M 19.617188 340.097656 L 42.003906 340.097656 L 42.003906 375.914062 L 19.617188 375.914062 Z M 19.617188 340.097656 " clip-rule="nonzero"/></clipPath><clipPath id="8690bf9082"><path d="M 48.171875 120 L 103 120 L 103 245 L 48.171875 245 Z M 48.171875 120 " clip-rule="nonzero"/></clipPath></defs><g clip-path="url(#ebc57ba407)"><path fill="#ffffff" d="M 0 0.246094 L 296.238281 0.246094 L 296.238281 417.367188 L 0 417.367188 Z M 0 0.246094 " fill-opacity="1" fill-rule="nonzero"/><path fill="#ffffff" d="M 0 0.246094 L 296.238281 0.246094 L 296.238281 417.367188 L 0 417.367188 Z M 0 0.246094 " fill-opacity="1" fill-rule="nonzero"/></g><g clip-path="url(#66aa22d7e5)"><path stroke-linecap="butt" transform="matrix(0.746195, 0, 0, 0.746195, 30.125007, 42.134083)" fill="none" stroke-linejoin="miter" d="M -0.00000963595 -0.0017029 L 316.108775 -0.0017029 L 316.108775 447.09448 L -0.00000963595 447.09448 Z M -0.00000963595 -0.0017029 " stroke="#e30613" stroke-width="6" stroke-opacity="1" stroke-miterlimit="4"/></g><g clip-path="url(#ee8a57c68e)"><path fill="#e30613" d="M 30.957031 42.132812 L 15.730469 66.285156 L 30.957031 90.4375 L 46.179688 66.285156 Z M 30.957031 42.132812 " fill-opacity="1" fill-rule="nonzero"/></g><g clip-path="url(#f8da5e13ce)"><path fill="#e30613" d="M 264.808594 41.851562 L 253.484375 59.820312 L 264.808594 77.785156 L 276.136719 59.820312 Z M 264.808594 41.851562 " fill-opacity="1" fill-rule="nonzero"/></g><g clip-path="url(#665252c369)"><path fill="#e30613" d="M 265.15625 327.449219 L 249.933594 351.601562 L 265.15625 375.75 L 280.382812 351.601562 Z M 265.15625 327.449219 " fill-opacity="1" fill-rule="nonzero"/></g><g clip-path="url(#8e27dc80fb)"><path fill="#e30613" d="M 30.953125 340.097656 L 19.625 358.066406 L 30.953125 376.03125 L 42.277344 358.066406 Z M 30.953125 340.097656 " fill-opacity="1" fill-rule="nonzero"/></g><g clip-path="url(#8690bf9082)"><path fill="#e30613" d="M 102.492188 230.722656 C 102.785156 225.773438 102.402344 220.757812 102.582031 217.765625 C 103.074219 209.480469 98.75 196.273438 100.191406 180.386719 C 100.210938 180.171875 102.269531 170.148438 102.691406 162.527344 C 102.945312 157.902344 102.128906 155.359375 100.964844 154.460938 C 101.785156 153.492188 100.808594 148.449219 100.503906 147.304688 C 99.902344 145.074219 98.683594 145.078125 98.871094 146.117188 C 99.367188 148.84375 99.085938 151.554688 99.144531 154.207031 C 99.144531 154.21875 99.152344 154.230469 99.160156 154.246094 C 97.511719 154.945312 95.859375 157.878906 95.617188 162.207031 C 95.472656 164.800781 95.78125 167.875 95.71875 170.726562 C 95.691406 172.066406 95.542969 173.351562 95.304688 174.527344 C 93.316406 184.3125 90.4375 173.847656 89.859375 170.101562 C 88.535156 161.472656 87.191406 153.589844 87.03125 144.664062 C 86.910156 137.855469 84.601562 134.035156 82.566406 133.425781 C 82.332031 131.175781 80.980469 124.015625 80.523438 123.472656 C 79.597656 122.367188 80.199219 128.265625 80.203125 128.292969 C 80.394531 130.890625 80.5 131.40625 80.957031 133.6875 C 79.625 134.664062 78.90625 137.699219 80.039062 142.90625 C 80.53125 145.171875 81.105469 147.957031 81.683594 150.929688 C 83.9375 162.53125 86.972656 176.890625 83.074219 174.863281 C 77.816406 172.132812 76.109375 150.792969 73.515625 139.078125 C 72.378906 133.929688 70.792969 131.753906 69.398438 131.480469 C 69.042969 128.917969 67.398438 121.136719 66.925781 120.546875 C 65.949219 119.332031 66.808594 125.859375 66.8125 125.894531 C 67.125 128.824219 67.25 129.359375 67.835938 132.015625 C 66.390625 133.398438 65.65625 137.140625 66.921875 141.074219 C 69.191406 148.132812 73.160156 159.429688 73.722656 164.476562 C 73.902344 166.089844 80.058594 184.816406 73.765625 176.941406 C 69.460938 171.554688 63.339844 140.242188 57.289062 144.757812 C 56.292969 142.488281 53.105469 136.410156 52.53125 136.035156 C 51.324219 135.246094 53.613281 140.714844 53.625 140.742188 C 54.621094 143.320312 54.839844 143.683594 56.128906 146.085938 C 55.960938 146.339844 55.796875 146.617188 55.632812 146.933594 C 54.972656 148.199219 55.335938 151.996094 57.589844 156.527344 C 60.0625 161.496094 63.902344 167.484375 66.699219 172.636719 C 71.761719 181.964844 72.367188 189.59375 62.769531 180.679688 C 62.390625 180.328125 60.648438 177.78125 58.574219 175.796875 C 56.765625 174.070312 55.382812 173.46875 54.4375 173.59375 C 51.613281 170.058594 51.9375 170.746094 50.347656 167.625 C 49.523438 166.007812 48.195312 165.1875 48.671875 167.664062 C 49.191406 170.386719 50.65625 173.703125 52.957031 175.390625 C 52.734375 176.984375 53.445312 179.332031 55.117188 181.238281 C 58.359375 184.921875 64.992188 192.203125 69.089844 200.46875 C 72.625 207.605469 81.660156 228.894531 83.1875 234.863281 C 85.011719 242.007812 101.09375 254.40625 102.492188 230.722656 Z M 102.492188 230.722656 " fill-opacity="1" fill-rule="evenodd"/></g><path fill="#e30613" d="M 141.9375 237.84375 C 139.558594 239.925781 138.746094 246.925781 138.609375 250.648438 C 137.839844 252.914062 136.363281 255.929688 135.53125 257.054688 C 135.433594 256.875 135.335938 256.6875 135.246094 256.480469 C 134.15625 253.964844 133.992188 253.242188 131.746094 252.542969 C 131.734375 252.511719 131.71875 252.484375 131.703125 252.453125 C 131.109375 251.34375 131.488281 247.136719 131.648438 245.816406 C 131.839844 244.265625 132.113281 239.96875 132.582031 238.699219 C 132.828125 238.035156 132.671875 236.453125 132.460938 235.4375 C 132.585938 234.808594 132.675781 234.171875 132.714844 233.523438 C 132.851562 231.246094 132.265625 228.824219 131.460938 227.09375 C 130.640625 225.339844 129.925781 225.476562 129.609375 222.5 C 129.148438 218.140625 127.464844 217.804688 127.863281 222.992188 C 128.050781 225.421875 125.410156 228.5625 125.585938 233.359375 C 125.644531 234.96875 126.195312 236.765625 127.09375 238.785156 C 128.214844 241.601562 128.273438 249.648438 126.5 251.75 C 126.429688 251.835938 126.371094 251.917969 126.328125 251.988281 C 125.539062 252.085938 124.777344 252.257812 124.082031 252.488281 C 122.777344 250.539062 122.050781 245.878906 121.324219 243.265625 C 121.375 243.074219 121.417969 242.878906 121.445312 242.671875 C 121.980469 238.996094 120.390625 234.835938 118.636719 231.8125 C 118.167969 231.003906 117.644531 230.957031 117.199219 230.210938 C 116.5 229.035156 116.351562 226.859375 116.480469 225.355469 C 116.609375 223.867188 115.136719 222.949219 114.980469 225.644531 C 114.878906 227.46875 115.042969 230.976562 114.269531 232.0625 C 112.863281 234.035156 112.953125 239.234375 114.238281 242.953125 C 114.765625 244.488281 115.699219 245.429688 116.722656 245.839844 C 118.210938 248.058594 119.652344 251.929688 120.046875 253.878906 C 120.203125 254.632812 120.367188 255.144531 120.628906 255.472656 C 120.601562 255.710938 120.617188 255.953125 120.683594 256.203125 C 120.972656 257.289062 120.636719 258.25 120.042969 259.160156 C 117.953125 257.941406 117.382812 256.742188 116.632812 255.648438 C 115.890625 252.507812 113.488281 249.015625 113.472656 248.9375 C 111.738281 247.304688 111.03125 247.546875 109.914062 246.566406 C 109.359375 246.082031 109.082031 245.226562 108.617188 244.359375 C 108.222656 243.632812 109.199219 242.21875 107.878906 242.207031 C 107.71875 242.207031 106.832031 243.625 106.867188 244.390625 C 107.226562 245.554688 107.179688 247.386719 107.089844 248.746094 C 106.980469 250.441406 107.1875 254.085938 107.816406 255.421875 C 109.230469 258.441406 111.683594 260.636719 113.175781 260.578125 C 113.230469 260.574219 113.28125 260.570312 113.335938 260.566406 C 113.871094 260.882812 114.484375 261.265625 114.695312 261.375 C 115.050781 261.558594 116.273438 262.609375 116.871094 263.125 C 114.902344 266.761719 118.402344 271.226562 122.484375 269.160156 C 124.585938 268.09375 125.613281 266.394531 127.816406 266.070312 C 129.285156 265.855469 131.320312 265.921875 133.21875 266.613281 C 135.289062 267.363281 136.664062 267.3125 137.550781 266.804688 C 140.34375 265.195312 139.160156 261.632812 138.007812 259.953125 C 138.226562 259.539062 138.644531 258.753906 139.78125 257.546875 C 140.527344 256.757812 141.6875 253.667969 142.289062 251.464844 C 145.214844 248.785156 146.917969 243.273438 146.5625 239.855469 C 146.289062 237.230469 146.84375 234.601562 147.300781 233.902344 C 149.246094 230.921875 147.617188 227.738281 144.996094 234.386719 C 143.355469 238.554688 143.832031 236.183594 141.9375 237.84375 Z M 126.632812 275.121094 C 130.816406 275.121094 131 280.304688 129.027344 282.027344 C 126.917969 283.871094 122.242188 283.007812 122.242188 279.300781 C 122.242188 276.570312 123.980469 275.121094 126.632812 275.121094 Z M 134.878906 269.386719 C 138.945312 269.386719 141.136719 276.144531 135.425781 276.503906 C 134.328125 276.574219 133.34375 276.316406 132.570312 275.78125 C 129.625 273.746094 130.933594 269.386719 134.878906 269.386719 Z M 134.878906 269.386719 " fill-opacity="1" fill-rule="evenodd"/><path fill="#e30613" d="M 191.574219 227.105469 C 191.445312 222.144531 191.988281 217.148438 191.910156 214.148438 C 191.6875 205.855469 196.441406 192.796875 195.519531 176.867188 C 195.507812 176.652344 193.777344 166.570312 193.605469 158.9375 C 193.5 154.304688 194.402344 151.789062 195.59375 150.929688 C 194.804688 149.9375 195.945312 144.925781 196.289062 143.792969 C 196.960938 141.582031 198.179688 141.628906 197.957031 142.660156 C 197.375 145.371094 197.5625 148.085938 197.417969 150.734375 C 197.417969 150.75 197.414062 150.761719 197.402344 150.773438 C 199.027344 151.527344 200.582031 154.515625 200.683594 158.847656 C 200.742188 161.445312 200.335938 164.507812 200.304688 167.359375 C 200.289062 168.699219 200.394531 169.988281 200.59375 171.171875 C 202.261719 181.015625 205.480469 170.652344 206.179688 166.925781 C 207.785156 158.347656 209.386719 150.511719 209.835938 141.59375 C 210.179688 134.792969 212.613281 131.050781 214.667969 130.507812 C 214.972656 128.269531 216.5625 121.152344 217.035156 120.625 C 217.996094 119.550781 217.203125 125.425781 217.199219 125.457031 C 216.921875 128.046875 216.800781 128.558594 216.269531 130.824219 C 217.566406 131.84375 218.1875 134.898438 216.886719 140.066406 C 216.320312 142.316406 215.652344 145.082031 214.980469 148.03125 C 212.347656 159.550781 208.84375 173.804688 212.804688 171.90625 C 218.152344 169.347656 220.554688 148.074219 223.527344 136.453125 C 224.835938 131.34375 226.488281 129.222656 227.894531 128.996094 C 228.332031 126.445312 230.226562 118.722656 230.722656 118.148438 C 231.738281 116.964844 230.664062 123.460938 230.660156 123.492188 C 230.253906 126.414062 230.109375 126.945312 229.4375 129.578125 C 230.835938 131.007812 231.449219 134.773438 230.054688 138.664062 C 227.554688 145.644531 223.21875 156.804688 222.492188 161.832031 C 222.261719 163.4375 215.492188 181.953125 222.039062 174.289062 C 226.519531 169.046875 233.664062 137.949219 239.5625 142.660156 C 240.632812 140.421875 244.015625 134.453125 244.601562 134.097656 C 245.835938 133.351562 243.367188 138.738281 243.355469 138.765625 C 242.277344 141.3125 242.042969 141.667969 240.679688 144.023438 C 240.835938 144.285156 240.992188 144.566406 241.144531 144.886719 C 241.761719 146.175781 241.277344 149.957031 238.878906 154.414062 C 236.242188 159.300781 232.210938 165.160156 229.246094 170.21875 C 223.878906 179.375 223.027344 186.980469 232.910156 178.382812 C 233.300781 178.042969 235.125 175.554688 237.265625 173.640625 C 239.128906 171.972656 240.527344 171.417969 241.46875 171.574219 L 241.472656 171.574219 C 244.410156 168.132812 244.0625 168.808594 245.753906 165.742188 C 246.628906 164.152344 247.984375 163.375 247.425781 165.835938 C 246.816406 168.539062 245.242188 171.808594 242.890625 173.417969 C 243.0625 175.015625 242.277344 177.34375 240.539062 179.191406 C 237.179688 182.765625 230.3125 189.828125 225.949219 197.957031 C 222.179688 204.972656 212.453125 225.953125 210.734375 231.875 C 208.679688 238.953125 192.199219 250.816406 191.574219 227.105469 Z M 191.574219 227.105469 " fill-opacity="1" fill-rule="evenodd"/><path fill="#e30613" d="M 157.433594 252.75 C 159.367188 255.25 158.816406 262.273438 158.234375 265.953125 C 158.550781 268.324219 159.421875 271.570312 160.023438 272.835938 C 160.152344 272.679688 160.28125 272.511719 160.410156 272.328125 C 161.964844 270.066406 162.261719 269.390625 164.601562 269.136719 C 164.621094 269.109375 164.640625 269.082031 164.664062 269.054688 C 165.457031 268.082031 165.898438 263.878906 165.996094 262.550781 C 166.105469 260.996094 166.664062 256.726562 166.449219 255.390625 C 166.335938 254.691406 166.792969 253.171875 167.195312 252.210938 C 167.195312 251.574219 167.226562 250.929688 167.3125 250.285156 C 167.617188 248.027344 168.660156 245.761719 169.785156 244.21875 C 170.925781 242.65625 171.601562 242.925781 172.484375 240.066406 C 173.777344 235.878906 175.496094 235.875 174.105469 240.886719 C 173.453125 243.234375 175.4375 246.824219 174.34375 251.496094 C 173.976562 253.066406 173.089844 254.722656 171.816406 256.53125 C 170.179688 259.078125 168.570312 266.964844 169.902344 269.367188 C 169.957031 269.46875 170 269.554688 170.027344 269.632812 C 170.785156 269.882812 171.5 270.195312 172.136719 270.558594 C 173.789062 268.898438 175.402344 264.464844 176.617188 262.039062 C 176.605469 261.84375 176.601562 261.640625 176.609375 261.433594 C 176.796875 257.722656 179.15625 253.949219 181.460938 251.316406 C 182.074219 250.613281 182.59375 250.667969 183.179688 250.023438 C 184.09375 249.003906 184.65625 246.898438 184.820312 245.398438 C 184.980469 243.910156 186.601562 243.296875 186.234375 245.96875 C 185.984375 247.78125 185.148438 251.191406 185.695312 252.402344 C 186.695312 254.609375 185.609375 259.695312 183.632812 263.097656 C 182.816406 264.5 181.71875 265.246094 180.636719 265.449219 C 178.75 267.339844 176.589844 270.863281 175.824219 272.699219 C 175.53125 273.40625 175.269531 273.878906 174.949219 274.152344 C 174.929688 274.390625 174.867188 274.625 174.757812 274.855469 C 174.261719 275.871094 174.40625 276.875 174.816406 277.882812 C 177.097656 277.085938 177.890625 276.019531 178.835938 275.09375 C 180.167969 272.15625 183.199219 269.1875 183.226562 269.117188 C 185.242188 267.847656 185.890625 268.21875 187.179688 267.476562 C 187.816406 267.109375 188.253906 266.320312 188.878906 265.558594 C 189.402344 264.921875 188.714844 263.347656 190.015625 263.589844 C 190.171875 263.621094 190.769531 265.183594 190.585938 265.925781 C 190.007812 267 189.703125 268.808594 189.527344 270.160156 C 189.308594 271.84375 188.402344 275.378906 187.53125 276.570312 C 185.5625 279.257812 182.730469 280.9375 181.28125 280.59375 C 181.226562 280.582031 181.175781 280.566406 181.125 280.554688 C 180.539062 280.761719 179.863281 281.019531 179.632812 281.085938 C 179.25 281.195312 177.847656 281.996094 177.164062 282.382812 C 178.394531 286.332031 174.097656 290.039062 170.492188 287.222656 C 168.636719 285.777344 167.953125 283.910156 165.855469 283.167969 C 164.457031 282.671875 162.445312 282.347656 160.449219 282.65625 C 158.273438 283 156.933594 282.683594 156.164062 282.011719 C 153.730469 279.894531 155.578125 276.628906 157.035156 275.203125 C 156.898438 274.75 156.640625 273.902344 155.753906 272.5 C 155.175781 271.582031 154.632812 268.324219 154.464844 266.046875 C 152.113281 262.855469 151.5 257.117188 152.507812 253.832031 C 153.28125 251.3125 153.242188 248.625 152.929688 247.851562 C 151.59375 244.550781 153.804688 241.738281 155.097656 248.769531 C 155.90625 253.175781 155.894531 250.757812 157.433594 252.75 Z M 165.277344 292.277344 C 161.167969 291.46875 159.992188 296.523438 161.59375 298.59375 C 163.3125 300.808594 168.066406 300.859375 168.777344 297.222656 C 169.304688 294.542969 167.875 292.785156 165.277344 292.277344 Z M 158.289062 285.0625 C 154.296875 284.28125 150.84375 290.484375 156.378906 291.9375 C 157.445312 292.21875 158.457031 292.160156 159.320312 291.78125 C 162.605469 290.351562 162.15625 285.824219 158.289062 285.0625 Z M 158.289062 285.0625 " fill-opacity="1" fill-rule="evenodd"/><g fill="#e30613" fill-opacity="1"><g transform="translate(18.911079, 30.811257)"><g><path d="M 11.859375 -8.390625 L 11.859375 -21.5625 L 3.40625 -8.390625 Z M 19.15625 0 L 7.875 0 L 7.875 -1.765625 L 11.859375 -1.765625 L 11.859375 -6.625 L 1.046875 -6.625 L 1.046875 -8.421875 L 11.890625 -25.21875 L 15.171875 -25.21875 L 15.171875 -8.390625 L 19.90625 -8.390625 L 19.90625 -6.625 L 15.171875 -6.625 L 15.171875 -1.765625 L 19.15625 -1.765625 Z M 19.15625 0 "/></g></g></g><g fill="#e30613" fill-opacity="1"><g transform="translate(277.719684, 387.070532)"><g><path d="M -11.859375 8.390625 L -11.859375 21.5625 L -3.40625 8.390625 Z M -19.15625 0 L -7.875 0 L -7.875 1.765625 L -11.859375 1.765625 L -11.859375 6.625 L -1.046875 6.625 L -1.046875 8.421875 L -11.890625 25.21875 L -15.171875 25.21875 L -15.171875 8.390625 L -19.90625 8.390625 L -19.90625 6.625 L -15.171875 6.625 L -15.171875 1.765625 L -19.15625 1.765625 Z M -19.15625 0 "/></g></g></g><g fill="#e30613" fill-opacity="1"><g transform="translate(39.642591, 390.070117)"><g><path d="M -9.640625 6.8125 L -9.640625 17.515625 L -2.765625 6.8125 Z M -15.5625 0 L -6.40625 0 L -6.40625 1.421875 L -9.640625 1.421875 L -9.640625 5.375 L -0.84375 5.375 L -0.84375 6.84375 L -9.65625 20.484375 L -12.328125 20.484375 L -12.328125 6.8125 L -16.171875 6.8125 L -16.171875 5.375 L -12.328125 5.375 L -12.328125 1.421875 L -15.5625 1.421875 Z M -15.5625 0 "/></g></g></g><g fill="#e30613" fill-opacity="1"><g transform="translate(253.476868, 27.813783)"><g><path d="M 9.640625 -6.8125 L 9.640625 -17.515625 L 2.765625 -6.8125 Z M 15.5625 0 L 6.40625 0 L 6.40625 -1.421875 L 9.640625 -1.421875 L 9.640625 -5.375 L 0.84375 -5.375 L 0.84375 -6.84375 L 9.65625 -20.484375 L 12.328125 -20.484375 L 12.328125 -6.8125 L 16.171875 -6.8125 L 16.171875 -5.375 L 12.328125 -5.375 L 12.328125 -1.421875 L 15.5625 -1.421875 Z M 15.5625 0 "/></g></g></g></svg>