<svg xmlns="http://www.w3.org/2000/svg" xmlns:xlink="http://www.w3.org/1999/xlink" width="396" zoomAndPan="magnify" viewBox="0 0 297.12 419.249996" height="559" preserveAspectRatio="xMidYMid meet" version="1.0"><defs><g/><clipPath id="4f57359db4"><path d="M 0 0.246094 L 296.238281 0.246094 L 296.238281 417.367188 L 0 417.367188 Z M 0 0.246094 " clip-rule="nonzero"/></clipPath><clipPath id="de28af67fe"><path d="M 30.125 42.132812 L 265.921875 42.132812 L 265.921875 375.683594 L 30.125 375.683594 Z M 30.125 42.132812 " clip-rule="nonzero"/></clipPath><clipPath id="a3f12412c2"><path d="M 15 39.023438 L 46 39.023438 L 46 65.140625 L 15 65.140625 Z M 15 39.023438 " clip-rule="nonzero"/></clipPath><clipPath id="efea831e93"><path d="M 250 351.613281 L 281 351.613281 L 281 377.730469 L 250 377.730469 Z M 250 351.613281 " clip-rule="nonzero"/></clipPath><clipPath id="9e849676af"><path d="M 18 361.253906 L 43 361.253906 L 43 382.476562 L 18 382.476562 Z M 18 361.253906 " clip-rule="nonzero"/></clipPath><clipPath id="79b6b9667f"><path d="M 252 35.402344 L 277 35.402344 L 277 56.628906 L 252 56.628906 Z M 252 35.402344 " clip-rule="nonzero"/></clipPath><clipPath id="955c6603b9"><path d="M 44 81.125 L 252.082031 81.125 L 252.082031 337 L 44 337 Z M 44 81.125 " clip-rule="nonzero"/></clipPath></defs><g clip-path="url(#4f57359db4)"><path fill="#ffffff" d="M 0 0.246094 L 296.238281 0.246094 L 296.238281 417.367188 L 0 417.367188 Z M 0 0.246094 " fill-opacity="1" fill-rule="nonzero"/><path fill="#ffffff" d="M 0 0.246094 L 296.238281 0.246094 L 296.238281 417.367188 L 0 417.367188 Z M 0 0.246094 " fill-opacity="1" fill-rule="nonzero"/></g><g clip-path="url(#de28af67fe)"><path stroke-linecap="butt" transform="matrix(0.746195, 0, 0, 0.746195, 30.125007, 42.134083)" fill="none" stroke-linejoin="miter" d="M -0.00000963595 -0.0017029 L 316.108775 -0.0017029 L 316.108775 447.09448 L -0.00000963595 447.09448 Z M -0.00000963595 -0.0017029 " stroke="#e30613" stroke-width="6" stroke-opacity="1" stroke-miterlimit="4"/></g><g clip-path="url(#a3f12412c2)"><path fill="#e30613" d="M 42.875 54.128906 L 30.882812 64.945312 L 30.671875 65.136719 L 30.460938 64.945312 L 18.46875 54.128906 C 14.996094 50.996094 14.640625 45.554688 17.675781 41.96875 C 19.328125 40.019531 21.640625 39.023438 23.96875 39.023438 C 25.917969 39.023438 27.875 39.726562 29.460938 41.152344 L 30.671875 42.246094 L 31.882812 41.152344 C 33.46875 39.726562 35.425781 39.023438 37.375 39.023438 C 39.703125 39.023438 42.015625 40.019531 43.667969 41.96875 C 46.703125 45.554688 46.347656 50.996094 42.875 54.128906 Z M 42.875 54.128906 " fill-opacity="1" fill-rule="nonzero"/></g><g fill="#e30613" fill-opacity="1"><g transform="translate(18.911079, 29.683269)"><g><path d="M 1.875 0 L 1.875 -1.765625 L 5.03125 -1.765625 L 5.03125 -22.984375 L 1.875 -22.984375 L 1.875 -24.765625 L 11.546875 -24.765625 L 11.546875 -22.984375 L 8.390625 -22.984375 L 8.390625 -13.625 L 19.0625 -22.984375 L 16.375 -22.984375 L 16.375 -24.765625 L 24.59375 -24.765625 L 24.59375 -22.984375 L 21.8125 -22.984375 L 11.171875 -13.65625 L 23.078125 -1.765625 L 25.890625 -1.765625 L 25.890625 0 L 20.140625 0 L 8.390625 -11.765625 L 8.390625 -1.765625 L 11.546875 -1.765625 L 11.546875 0 Z M 1.875 0 "/></g></g></g><g clip-path="url(#efea831e93)"><path fill="#e30613" d="M 253.191406 362.625 L 265.183594 351.804688 L 265.394531 351.613281 L 265.605469 351.804688 L 277.597656 362.625 C 281.070312 365.757812 281.425781 371.199219 278.390625 374.785156 C 276.738281 376.734375 274.425781 377.730469 272.101562 377.730469 C 270.148438 377.730469 268.191406 377.027344 266.605469 375.601562 L 265.394531 374.507812 L 264.183594 375.601562 C 262.597656 377.027344 260.640625 377.730469 258.691406 377.730469 C 256.363281 377.730469 254.050781 376.734375 252.398438 374.785156 C 249.363281 371.199219 249.71875 365.757812 253.191406 362.625 Z M 253.191406 362.625 " fill-opacity="1" fill-rule="nonzero"/></g><g fill="#e30613" fill-opacity="1"><g transform="translate(277.155456, 387.070053)"><g><path d="M -1.875 0 L -1.875 1.765625 L -5.03125 1.765625 L -5.03125 22.984375 L -1.875 22.984375 L -1.875 24.765625 L -11.546875 24.765625 L -11.546875 22.984375 L -8.390625 22.984375 L -8.390625 13.625 L -19.0625 22.984375 L -16.375 22.984375 L -16.375 24.765625 L -24.59375 24.765625 L -24.59375 22.984375 L -21.8125 22.984375 L -11.171875 13.65625 L -23.078125 1.765625 L -25.890625 1.765625 L -25.890625 0 L -20.140625 0 L -8.390625 11.765625 L -8.390625 1.765625 L -11.546875 1.765625 L -11.546875 0 Z M -1.875 0 "/></g></g></g><g clip-path="url(#9e849676af)"><path fill="#e30613" d="M 20.683594 370.203125 L 30.429688 361.410156 L 30.601562 361.253906 L 30.773438 361.410156 L 40.519531 370.203125 C 43.339844 372.746094 43.628906 377.171875 41.164062 380.082031 C 39.820312 381.667969 37.941406 382.476562 36.050781 382.476562 C 34.464844 382.476562 32.875 381.90625 31.585938 380.746094 L 30.601562 379.859375 L 29.617188 380.746094 C 28.328125 381.90625 26.738281 382.476562 25.152344 382.476562 C 23.261719 382.476562 21.382812 381.667969 20.042969 380.082031 C 17.574219 377.171875 17.863281 372.746094 20.683594 370.203125 Z M 20.683594 370.203125 " fill-opacity="1" fill-rule="nonzero"/></g><g fill="#e30613" fill-opacity="1"><g transform="translate(40.159399, 390.068227)"><g><path d="M -1.515625 0 L -1.515625 1.421875 L -4.078125 1.421875 L -4.078125 18.671875 L -1.515625 18.671875 L -1.515625 20.109375 L -9.375 20.109375 L -9.375 18.671875 L -6.8125 18.671875 L -6.8125 11.0625 L -15.484375 18.671875 L -13.296875 18.671875 L -13.296875 20.109375 L -19.984375 20.109375 L -19.984375 18.671875 L -17.71875 18.671875 L -9.078125 11.09375 L -18.734375 1.421875 L -21.03125 1.421875 L -21.03125 0 L -16.359375 0 L -6.8125 9.546875 L -6.8125 1.421875 L -9.375 1.421875 L -9.375 0 Z M -1.515625 0 "/></g></g></g><g clip-path="url(#79b6b9667f)"><path fill="#e30613" d="M 274.363281 47.679688 L 264.617188 56.472656 L 264.445312 56.625 L 264.273438 56.472656 L 254.527344 47.679688 C 251.703125 45.136719 251.417969 40.710938 253.882812 37.796875 C 255.226562 36.214844 257.105469 35.402344 258.996094 35.402344 C 260.582031 35.402344 262.171875 35.976562 263.460938 37.132812 L 264.445312 38.023438 L 265.429688 37.132812 C 266.71875 35.976562 268.308594 35.402344 269.894531 35.402344 C 271.785156 35.402344 273.664062 36.214844 275.003906 37.796875 C 277.472656 40.710938 277.183594 45.136719 274.363281 47.679688 Z M 274.363281 47.679688 " fill-opacity="1" fill-rule="nonzero"/></g><g fill="#e30613" fill-opacity="1"><g transform="translate(254.887026, 27.813783)"><g><path d="M 1.515625 0 L 1.515625 -1.421875 L 4.078125 -1.421875 L 4.078125 -18.671875 L 1.515625 -18.671875 L 1.515625 -20.109375 L 9.375 -20.109375 L 9.375 -18.671875 L 6.8125 -18.671875 L 6.8125 -11.0625 L 15.484375 -18.671875 L 13.296875 -18.671875 L 13.296875 -20.109375 L 19.984375 -20.109375 L 19.984375 -18.671875 L 17.71875 -18.671875 L 9.078125 -11.09375 L 18.734375 -1.421875 L 21.03125 -1.421875 L 21.03125 0 L 16.359375 0 L 6.8125 -9.546875 L 6.8125 -1.421875 L 9.375 -1.421875 L 9.375 0 Z M 1.515625 0 "/></g></g></g><g clip-path="url(#955c6603b9)"><path fill="#e30613" d="M 123.265625 292.601562 C 122.792969 292.636719 122.378906 292.894531 122.003906 293.246094 C 122.457031 293.058594 122.890625 292.84375 123.265625 292.601562 Z M 143.597656 172.699219 C 143.378906 171.683594 143.859375 170.644531 143.402344 169.632812 C 143.035156 168.792969 142.210938 168.394531 141.753906 167.542969 C 140.804688 165.773438 142.113281 163.550781 140.90625 162.003906 C 140.101562 160.972656 139.984375 162.171875 139.605469 160.769531 C 139.488281 160.351562 139.699219 159.523438 139.734375 159.082031 C 139.816406 158.132812 140.230469 156.894531 139.125 156.492188 C 138.832031 155.410156 139.226562 154.160156 138.921875 153.117188 C 138.511719 151.695312 138.359375 152.015625 136.710938 151.808594 C 136.882812 150.789062 136.230469 149.671875 136.289062 148.507812 C 136.339844 147.601562 136.472656 146.699219 136.5 145.792969 C 136.550781 143.476562 136.683594 141.097656 136.828125 138.734375 C 136.957031 136.546875 136.351562 134.589844 135.996094 132.457031 C 135.804688 131.320312 136 129.382812 135.890625 127.78125 C 134.585938 126.679688 133.441406 125.445312 132.183594 124.285156 C 126.867188 119.359375 120.734375 115.363281 115.464844 110.386719 C 112.851562 107.917969 110.960938 104.730469 108.921875 101.867188 C 107.28125 99.566406 105.171875 96.394531 106.089844 93.539062 C 105.601562 92.691406 105.253906 92.007812 105.359375 90.71875 C 105.449219 89.601562 105.554688 88.542969 106.152344 87.703125 C 105.238281 85.453125 105.875 81.992188 108.363281 81.558594 C 110.710938 81.144531 112.933594 82.566406 115.109375 83.152344 C 117.570312 83.8125 119.953125 84.773438 122.402344 85.433594 C 123.671875 85.769531 124.957031 85.648438 126.222656 85.925781 C 127.617188 86.226562 128.914062 86.976562 130.269531 87.417969 C 131.589844 87.851562 132.882812 88.210938 134.195312 88.488281 C 134.195312 88.492188 134.203125 88.488281 134.203125 88.488281 C 135.585938 88.242188 136.953125 87.859375 138.4375 87.546875 C 142.8125 86.601562 147.640625 85.175781 152.210938 84.984375 C 154.179688 84.902344 156.519531 85.074219 158.398438 85.582031 C 159.460938 85.863281 160.507812 86.300781 161.566406 86.578125 C 162.023438 86.703125 162.558594 86.765625 163.097656 86.84375 C 164.875 86.390625 166.539062 85.25 168.324219 84.910156 C 170.386719 84.507812 172.785156 84.925781 174.800781 85.433594 C 179.3125 86.566406 178.605469 91.9375 179.027344 95.859375 C 179.175781 95.972656 179.320312 96.089844 179.453125 96.21875 C 180.703125 97.433594 181.96875 98.65625 183.128906 99.945312 C 185.449219 102.53125 188.457031 104.710938 189.183594 108.113281 C 195.121094 110.632812 200.835938 113.195312 206.496094 116.566406 C 209.230469 118.199219 213.769531 120.085938 214.402344 123.519531 C 215.179688 127.738281 209.492188 130.808594 206.328125 132.4375 C 203.789062 133.746094 201.351562 134.355469 198.792969 134.582031 C 200.222656 135.746094 201.640625 137.011719 202.878906 138.15625 C 200.183594 137.523438 201.128906 140.351562 202.65625 141.222656 C 202.152344 141.136719 201.535156 141.230469 201.019531 141.167969 C 200.832031 142.761719 205.304688 144.230469 206.136719 145.644531 C 202.589844 146.355469 206.378906 149.523438 207.847656 151.058594 C 207.191406 150.984375 206.527344 150.796875 205.839844 150.777344 C 205.675781 152.140625 207.746094 154.070312 208.472656 155.265625 C 207.480469 155.675781 206.492188 155.480469 206.421875 156.726562 C 206.359375 157.890625 207.746094 158.308594 208.730469 158.820312 C 210.390625 159.6875 214.207031 160.273438 214.480469 162.453125 C 213.515625 162.453125 210.144531 162.75 210.703125 164.5625 C 211.21875 166.21875 216.121094 165.964844 215.621094 168.347656 C 215.109375 168.457031 214.597656 168.6875 214.054688 168.648438 C 213.496094 170.144531 216.941406 172.007812 217.863281 173.109375 C 218.671875 174.0625 218.765625 175.402344 219.09375 176.550781 C 224.410156 176.921875 225.78125 185.308594 228.007812 188.773438 C 231.671875 194.5 235.96875 199.648438 239.925781 205.152344 C 247.789062 216.097656 247.828125 228.046875 246.8125 240.832031 C 246.453125 245.355469 246.074219 249.910156 245.601562 254.441406 C 246.644531 257.933594 248.980469 261.796875 250.109375 264.546875 C 252.070312 269.328125 251.847656 275.378906 252.023438 280.59375 C 252.152344 284.507812 250.636719 287.832031 249.664062 291.515625 C 248.597656 295.554688 248.539062 299.726562 246.546875 303.539062 C 244.742188 306.996094 240.492188 310.707031 236.289062 311.261719 C 235.929688 312.101562 235.785156 313.117188 235.6875 313.746094 C 235.429688 315.398438 234.820312 316.613281 234.179688 318.078125 C 233.613281 319.363281 233.3125 320.707031 232.007812 321.570312 C 230.992188 322.242188 229.644531 321.957031 228.425781 321.914062 L 228.421875 321.914062 C 227.648438 322.261719 227.050781 322.808594 226.175781 323.125 C 224.828125 323.609375 222.929688 323.132812 221.515625 323.035156 C 220.105469 322.933594 219.328125 323.050781 218.585938 322.070312 C 218.542969 322.007812 218.496094 321.945312 218.460938 321.878906 C 215.65625 321.65625 213.847656 321.160156 212.351562 318.628906 C 211.5 317.191406 211.355469 315.574219 211.054688 313.972656 C 209.324219 313.757812 207.628906 313.472656 205.863281 313.242188 C 204.78125 313.097656 203.757812 313.117188 202.742188 313.152344 C 202.570312 313.964844 202.230469 314.839844 202.070312 315.414062 C 201.714844 316.648438 201.414062 317.738281 201.148438 319.039062 C 200.832031 320.542969 200.351562 321.972656 199.707031 323.328125 C 201.925781 323.925781 201.605469 330.34375 200.871094 331.835938 C 199.789062 334.023438 195.882812 334.363281 192.984375 334.332031 C 192.03125 334.863281 191.089844 335.636719 190.289062 335.992188 C 188.660156 336.710938 187.09375 336.785156 185.296875 336.648438 C 184.007812 336.546875 182.511719 336.703125 181.488281 335.890625 C 181.085938 335.574219 180.445312 334.910156 180.027344 334.222656 C 177.898438 334.242188 175.117188 335.105469 174.039062 333 C 173.0625 331.078125 174.449219 327.878906 175.417969 326.167969 C 176.550781 324.183594 177.816406 322.078125 179.863281 320.925781 C 181.296875 320.117188 182.792969 319.5625 184.257812 318.890625 C 184.289062 318.554688 184.320312 318.214844 184.421875 317.875 C 184.664062 317.074219 185.191406 316.441406 185.664062 315.726562 C 186.472656 314.515625 186.886719 313.324219 187.105469 311.988281 C 181.964844 313.300781 177.414062 314.695312 172.863281 313.847656 C 168.226562 316.128906 164.882812 315.535156 162.878906 313.449219 C 161.445312 311.960938 161.140625 309.164062 162.046875 307.371094 C 163.054688 305.375 165.515625 303.945312 167.5625 302.585938 C 166.949219 301.140625 166.207031 299.804688 165.4375 298.414062 C 165.035156 297.675781 164.574219 296.140625 163.972656 294.84375 C 162.484375 298.425781 159.082031 301.34375 157.675781 304.945312 C 156.917969 306.886719 157.074219 308.699219 156.582031 310.714844 C 156.09375 312.679688 154.734375 314.886719 153.972656 316.707031 C 153.671875 317.429688 153.042969 318.148438 152.265625 318.695312 C 152.113281 320.152344 152.238281 322.335938 151.359375 323.160156 C 150.1875 324.261719 147.25 323.859375 145.726562 324.644531 C 143.800781 325.632812 142.914062 326.4375 140.617188 326.265625 C 138.382812 326.09375 137.640625 325.820312 136.714844 324.554688 C 134.777344 324.585938 132.902344 324.882812 130.9375 325.082031 C 129.488281 325.222656 128.304688 325.457031 127.160156 324.359375 C 126.84375 324.054688 126.476562 323.59375 126.171875 323.082031 C 124.078125 322.757812 122.949219 321.996094 123.9375 319.429688 C 124.742188 317.324219 124.832031 313.703125 126.949219 312.671875 C 130.242188 311.074219 133.816406 310.679688 137.386719 310.484375 C 138.78125 309.308594 139.609375 307.292969 140.386719 305.832031 C 141.410156 303.890625 142.824219 302.054688 143.105469 299.890625 C 141.226562 299.691406 139.339844 298.882812 137.699219 297.953125 C 138.472656 297.25 139.324219 296.316406 139.921875 295.59375 C 138.765625 296.222656 134.125 295.785156 133.050781 295.410156 C 133.519531 294.464844 134.328125 293.625 134.539062 292.578125 C 133.589844 292.480469 132.636719 293.28125 131.71875 293.617188 C 130.351562 294.125 128.925781 294.207031 127.515625 294.703125 C 125.003906 295.578125 122.886719 295.765625 120.210938 295.351562 C 120.738281 294.847656 121.300781 293.894531 121.992188 293.25 C 120.984375 293.664062 119.847656 293.9375 118.882812 294.179688 C 117.785156 294.441406 116.339844 294.121094 115.253906 294.5625 C 117.339844 293.246094 118.214844 292.292969 118.519531 289.558594 C 117.304688 289.808594 115.953125 292.527344 114.921875 293.351562 C 113.078125 294.828125 110.902344 295.867188 108.617188 296.710938 C 103.601562 298.570312 98.085938 300.410156 92.734375 299.496094 C 93.691406 299.128906 95 298.210938 95.214844 297.15625 C 91.558594 298.652344 87.519531 300.058594 83.445312 299.378906 C 84.863281 298.65625 86.351562 297.636719 86.386719 295.945312 C 83.332031 297.753906 80 299.328125 76.734375 300.707031 C 74.066406 301.828125 71.289062 301.667969 68.464844 301.273438 C 69.519531 300.980469 70.246094 299.683594 70.085938 298.648438 C 69.007812 298.519531 68.136719 300.527344 67.359375 301.175781 C 66.535156 301.859375 65.472656 302.34375 64.554688 302.933594 C 62.148438 304.492188 60.269531 305.273438 57.75 305.203125 C 59.21875 305.082031 60.238281 303.160156 60.578125 301.949219 C 59.066406 302.066406 58.195312 303.085938 56.980469 303.777344 C 55.832031 304.4375 54.605469 304.785156 53.320312 305.097656 C 50.410156 305.804688 46.992188 306.445312 44 306.242188 C 46.171875 306.078125 47.996094 302.253906 48.53125 300.578125 C 49.371094 297.917969 50.308594 294.921875 52.601562 293.058594 C 51.652344 292.917969 50.609375 292.921875 49.640625 292.78125 C 51.25 290.6875 55.144531 286.027344 58.070312 286.296875 C 57.484375 285.707031 56.441406 285.898438 55.660156 285.699219 C 56.484375 284.789062 57.046875 283.886719 58.007812 283.21875 C 59.226562 282.367188 60.671875 282.625 61.855469 281.78125 C 61.3125 281.714844 60.734375 281.671875 60.1875 281.589844 C 60.988281 280.582031 62.5625 279.671875 63.832031 279.378906 C 64.875 279.140625 67.359375 279.457031 67.957031 278.859375 C 66.148438 278.6875 64.351562 278.308594 62.46875 278.257812 C 63.53125 276.878906 65.996094 275.890625 67.542969 275.136719 C 68.464844 274.6875 69.535156 274.128906 70.566406 273.953125 C 71.355469 273.816406 72.207031 274 72.988281 273.738281 C 72.96875 272.453125 70.886719 272.492188 69.863281 272.429688 C 70.480469 272.191406 74.71875 270.871094 74.816406 270.515625 C 75.171875 269.257812 72.167969 269.25 71.429688 269.128906 C 73.171875 267.957031 77.046875 266.957031 79.300781 267.097656 C 79.203125 266.929688 79.167969 266.429688 79.023438 266.214844 C 80.519531 265.636719 82.785156 266.335938 84.40625 266.355469 C 83.695312 264.703125 81.917969 264.667969 81.191406 263.148438 C 83.773438 262.132812 87.972656 263.832031 90.808594 263.613281 C 90.792969 263.367188 90.957031 263.054688 90.929688 262.816406 C 92.609375 262.355469 94.636719 262.925781 96.402344 262.9375 C 96.304688 262.246094 96.113281 261.503906 95.96875 260.863281 C 98.167969 261.375 101.933594 262.128906 104.136719 261.785156 C 104.082031 261.488281 104.324219 261.050781 104.269531 260.761719 C 106.6875 260.832031 109.128906 261.230469 111.554688 261.25 C 111.503906 260.929688 111.722656 260.503906 111.679688 260.191406 C 113.675781 260.023438 114.867188 261.261719 116.328125 262.175781 C 116.039062 260.867188 115.347656 258.398438 114.449219 257.546875 C 117.023438 258.621094 120.015625 258.574219 122.625 259.292969 C 123.566406 259.546875 124.796875 260.175781 125.785156 260.261719 C 127.558594 260.417969 127.140625 259.605469 127.347656 258.179688 C 128.621094 259.082031 129.875 259.542969 131.445312 260.128906 C 132.585938 260.550781 133.886719 261.273438 135.207031 261.117188 C 135.441406 260.546875 135.367188 260.066406 134.863281 259.796875 C 136.878906 260 138.914062 260.039062 140.929688 260.257812 C 143.023438 260.484375 144.914062 261.480469 146.792969 261.777344 C 146.6875 261.292969 146.535156 260.777344 146.367188 260.3125 C 148.242188 260.410156 149.980469 261.726562 151.941406 262.144531 C 153.707031 259.464844 153.617188 255.925781 154.449219 252.734375 C 154.964844 250.746094 156.042969 245.410156 157.382812 242.390625 C 156.359375 240.550781 155.136719 238.75 154.5 237.3125 C 152.382812 232.550781 151.882812 229.398438 151.671875 224.296875 C 151.492188 219.894531 149.339844 217.113281 149.351562 212.597656 C 149.363281 208.371094 148.828125 203.40625 149.472656 199.183594 C 149.484375 199.15625 149.492188 199.136719 149.492188 199.132812 C 149.464844 199.125 148.957031 200.136719 148.828125 200.476562 C 147.328125 199.246094 148.484375 195.097656 148.496094 193.035156 C 144.90625 196.332031 146.011719 186.753906 146.875 185.128906 C 142.234375 186.515625 144.125 178.535156 144.863281 175.09375 C 144.242188 174.25 143.753906 173.394531 143.597656 172.699219 Z M 143.597656 172.699219 " fill-opacity="1" fill-rule="nonzero"/></g></svg>