<svg xmlns="http://www.w3.org/2000/svg" xmlns:xlink="http://www.w3.org/1999/xlink" width="396" zoomAndPan="magnify" viewBox="0 0 297.12 419.249996" height="559" preserveAspectRatio="xMidYMid meet" version="1.0"><defs><g/><clipPath id="8485eefabb"><path d="M 0 0.246094 L 296.238281 0.246094 L 296.238281 417.367188 L 0 417.367188 Z M 0 0.246094 " clip-rule="nonzero"/></clipPath><clipPath id="dc6d47ae47"><path d="M 30.125 42.132812 L 265.921875 42.132812 L 265.921875 375.683594 L 30.125 375.683594 Z M 30.125 42.132812 " clip-rule="nonzero"/></clipPath><clipPath id="4a69fa9f72"><path d="M 14 38.738281 L 45 38.738281 L 45 64.855469 L 14 64.855469 Z M 14 38.738281 " clip-rule="nonzero"/></clipPath><clipPath id="5a99518c1f"><path d="M 250 351.621094 L 281 351.621094 L 281 377.738281 L 250 377.738281 Z M 250 351.621094 " clip-rule="nonzero"/></clipPath><clipPath id="74e9d8808b"><path d="M 18.140625 360.84375 L 44 360.84375 L 44 382.484375 L 18.140625 382.484375 Z M 18.140625 360.84375 " clip-rule="nonzero"/></clipPath><clipPath id="f223ee33de"><path d="M 252 35.402344 L 277.894531 35.402344 L 277.894531 57.042969 L 252 57.042969 Z M 252 35.402344 " clip-rule="nonzero"/></clipPath><clipPath id="c90c6f523c"><path d="M 44.632812 132.277344 L 251.328125 132.277344 L 251.328125 285.246094 L 44.632812 285.246094 Z M 44.632812 132.277344 " clip-rule="nonzero"/></clipPath></defs><g clip-path="url(#8485eefabb)"><path fill="#ffffff" d="M 0 0.246094 L 296.238281 0.246094 L 296.238281 417.367188 L 0 417.367188 Z M 0 0.246094 " fill-opacity="1" fill-rule="nonzero"/><path fill="#ffffff" d="M 0 0.246094 L 296.238281 0.246094 L 296.238281 417.367188 L 0 417.367188 Z M 0 0.246094 " fill-opacity="1" fill-rule="nonzero"/></g><g clip-path="url(#dc6d47ae47)"><path stroke-linecap="butt" transform="matrix(0.746195, 0, 0, 0.746195, 30.125007, 42.134026)" fill="none" stroke-linejoin="miter" d="M -0.00000963595 -0.00162593 L 316.108775 -0.00162593 L 316.108775 447.094557 L -0.00000963595 447.094557 Z M -0.00000963595 -0.00162593 " stroke="#e30613" stroke-width="6" stroke-opacity="1" stroke-miterlimit="4"/></g><g clip-path="url(#4a69fa9f72)"><path fill="#e30613" d="M 41.851562 53.84375 L 29.859375 64.660156 L 29.648438 64.851562 L 29.4375 64.660156 L 17.445312 53.84375 C 13.972656 50.710938 13.617188 45.269531 16.652344 41.683594 C 18.304688 39.734375 20.617188 38.738281 22.945312 38.738281 C 24.894531 38.738281 26.851562 39.441406 28.4375 40.867188 L 29.648438 41.960938 L 30.859375 40.867188 C 32.445312 39.441406 34.402344 38.738281 36.351562 38.738281 C 38.679688 38.738281 40.992188 39.734375 42.644531 41.683594 C 45.679688 45.269531 45.324219 50.710938 41.851562 53.84375 Z M 41.851562 53.84375 " fill-opacity="1" fill-rule="nonzero"/></g><g clip-path="url(#5a99518c1f)"><path fill="#e30613" d="M 253.191406 362.632812 L 265.183594 351.8125 L 265.394531 351.621094 L 265.605469 351.8125 L 277.597656 362.632812 C 281.070312 365.765625 281.425781 371.207031 278.390625 374.792969 C 276.738281 376.742188 274.425781 377.738281 272.101562 377.738281 C 270.148438 377.738281 268.191406 377.035156 266.605469 375.609375 L 265.394531 374.515625 L 264.183594 375.609375 C 262.597656 377.035156 260.640625 377.738281 258.691406 377.738281 C 256.363281 377.738281 254.050781 376.742188 252.398438 374.792969 C 249.363281 371.207031 249.71875 365.765625 253.191406 362.632812 Z M 253.191406 362.632812 " fill-opacity="1" fill-rule="nonzero"/></g><g clip-path="url(#74e9d8808b)"><path fill="#e30613" d="M 21.265625 369.96875 L 31.023438 361.003906 L 31.195312 360.84375 L 31.371094 361.003906 L 41.128906 369.96875 C 43.957031 372.5625 44.246094 377.074219 41.773438 380.042969 C 40.429688 381.65625 38.546875 382.484375 36.65625 382.484375 C 35.066406 382.484375 33.472656 381.902344 32.183594 380.71875 L 31.199219 379.8125 L 30.210938 380.71875 C 28.921875 381.902344 27.328125 382.484375 25.742188 382.484375 C 23.847656 382.484375 21.964844 381.65625 20.621094 380.042969 C 18.152344 377.074219 18.441406 372.5625 21.265625 369.96875 Z M 21.265625 369.96875 " fill-opacity="1" fill-rule="nonzero"/></g><g clip-path="url(#f223ee33de)"><path fill="#e30613" d="M 274.769531 47.921875 L 265.007812 56.882812 L 264.835938 57.042969 L 264.664062 56.882812 L 254.90625 47.921875 C 252.078125 45.324219 251.789062 40.816406 254.261719 37.84375 C 255.605469 36.230469 257.488281 35.402344 259.378906 35.402344 C 260.96875 35.402344 262.5625 35.988281 263.851562 37.167969 L 264.835938 38.074219 L 265.824219 37.167969 C 267.113281 35.988281 268.707031 35.402344 270.292969 35.402344 C 272.1875 35.402344 274.070312 36.230469 275.410156 37.84375 C 277.882812 40.816406 277.59375 45.324219 274.769531 47.921875 Z M 274.769531 47.921875 " fill-opacity="1" fill-rule="nonzero"/></g><g clip-path="url(#c90c6f523c)"><path fill="#e30613" d="M 248.476562 182.382812 C 248.472656 182.363281 248.464844 182.335938 248.464844 182.335938 C 248.464844 182.335938 248.484375 182.367188 248.492188 182.386719 C 248.488281 182.386719 248.480469 182.382812 248.476562 182.382812 Z M 132.636719 232.4375 C 132.757812 232.3125 132.859375 232.226562 132.945312 232.160156 C 132.546875 232.683594 132.15625 233.152344 131.78125 233.589844 C 132.078125 233.070312 132.390625 232.699219 132.636719 232.4375 Z M 199.167969 167.191406 C 199.164062 167.195312 199.160156 167.199219 199.160156 167.203125 C 199.148438 167.199219 199.136719 167.195312 199.121094 167.191406 C 199.136719 167.191406 199.148438 167.191406 199.167969 167.191406 Z M 199.550781 166.574219 C 199.699219 166.589844 199.851562 166.671875 199.851562 166.671875 C 199.851562 166.671875 199.65625 166.695312 199.394531 166.816406 C 199.445312 166.734375 199.496094 166.652344 199.550781 166.574219 Z M 199.980469 166.417969 C 199.980469 166.417969 199.777344 166.421875 199.613281 166.488281 C 199.664062 166.414062 199.71875 166.339844 199.773438 166.269531 C 199.898438 166.347656 199.980469 166.417969 199.980469 166.417969 Z M 199.539062 167.285156 C 199.40625 167.253906 199.296875 167.230469 199.175781 167.207031 C 199.179688 167.199219 199.183594 167.195312 199.183594 167.191406 C 199.332031 167.175781 199.464844 167.183594 199.582031 167.210938 C 199.566406 167.234375 199.554688 167.261719 199.539062 167.285156 Z M 250.117188 176.289062 C 250.5 176.542969 250.832031 176.605469 251.066406 176.597656 C 251.296875 176.597656 251.429688 176.523438 251.429688 176.523438 C 251.429688 176.523438 250.53125 176.367188 250.003906 175.699219 C 249.742188 175.367188 249.578125 175.210938 249.480469 175.132812 C 249.382812 175.058594 249.355469 175.0625 249.355469 175.0625 C 249.355469 175.0625 249.554688 174.96875 249.9375 175.164062 C 249.597656 174.691406 249.058594 174.46875 248.839844 174.484375 C 249.101562 174.230469 249.5 174.34375 249.5 174.34375 C 249.5 174.34375 249.289062 173.929688 248.996094 173.847656 C 249.355469 173.527344 249.871094 173.738281 249.871094 173.738281 C 249.871094 173.738281 249.777344 173.636719 249.617188 173.519531 C 249.460938 173.402344 249.253906 173.269531 249.035156 173.21875 C 249.363281 173.007812 249.980469 173.339844 250.457031 172.8125 C 250.128906 172.855469 249.328125 172.429688 249.019531 172.480469 C 248.988281 172.136719 249.570312 172.109375 249.570312 172.109375 C 249.570312 172.109375 249.378906 171.746094 249.03125 171.738281 C 249.253906 171.402344 249.90625 171.441406 249.90625 171.441406 C 249.90625 171.441406 249.421875 170.949219 249.007812 170.929688 C 249.222656 170.703125 249.613281 170.757812 249.613281 170.757812 C 249.613281 170.757812 249.371094 170.28125 248.933594 170.238281 C 249.140625 169.863281 249.789062 170.019531 250.140625 170.132812 C 250.488281 170.25 251.105469 170.109375 251.105469 170.109375 C 251.105469 170.109375 250.992188 170.097656 250.800781 170.039062 C 250.597656 169.976562 250.339844 169.863281 250.003906 169.675781 C 249.34375 169.296875 248.9375 169.105469 248.585938 169.1875 C 248.832031 168.84375 249.367188 168.824219 249.367188 168.824219 C 249.367188 168.824219 249.121094 168.496094 248.683594 168.464844 C 248.683594 168.464844 248.902344 168.269531 249.191406 168.351562 C 249.488281 168.433594 250.140625 168.515625 250.503906 168.316406 C 250.15625 168.242188 249.863281 168.15625 249.863281 168.15625 C 249.863281 168.15625 249.960938 168.144531 250.222656 168.046875 C 249.910156 168.0625 249.488281 167.914062 249.019531 167.59375 C 248.546875 167.277344 248.296875 167.339844 248.296875 167.339844 C 248.296875 167.339844 248.699219 167.097656 249.15625 167.195312 C 249.609375 167.296875 249.753906 167.140625 249.753906 167.140625 C 249.753906 167.140625 249.503906 167.207031 249.109375 166.957031 C 248.71875 166.707031 248.394531 166.671875 248.394531 166.671875 C 248.394531 166.671875 248.59375 166.546875 248.757812 166.558594 C 248.59375 166.421875 248.265625 166.417969 248.265625 166.417969 C 248.265625 166.417969 248.457031 166.195312 248.824219 166.113281 C 248.578125 166.015625 248.476562 166.035156 248.476562 166.035156 C 248.476562 166.035156 249.046875 165.8125 249.242188 165.472656 C 248.890625 165.660156 248.59375 165.730469 248.453125 165.675781 C 248.453125 165.675781 248.652344 165.570312 248.777344 165.398438 C 248.5625 165.472656 248.132812 165.511719 248.007812 165.445312 C 248.265625 165.367188 248.5625 165.164062 248.5625 165.164062 C 248.5625 165.164062 248.125 165.160156 247.933594 164.984375 C 248.246094 164.921875 248.796875 164.679688 249.269531 164.453125 C 249.742188 164.222656 250.128906 164 250.128906 164 C 250.128906 164 248.289062 164.253906 247.921875 163.988281 C 248.46875 163.835938 248.636719 163.753906 248.636719 163.753906 C 248.636719 163.753906 248.363281 163.710938 248.066406 163.636719 C 247.761719 163.566406 247.445312 163.46875 247.355469 163.34375 C 247.9375 163.441406 248.195312 163.273438 248.195312 163.273438 L 247.585938 163.019531 C 247.585938 163.019531 247.898438 162.765625 248.289062 162.488281 C 248.679688 162.210938 249.152344 161.90625 249.472656 161.828125 C 248.613281 161.917969 247.664062 162.316406 247.664062 162.316406 C 247.664062 162.316406 248.433594 161.738281 248.695312 161.621094 C 248.183594 161.507812 247.421875 161.785156 247.078125 161.609375 C 247.195312 161.273438 247.835938 161.140625 247.835938 161.140625 C 247.835938 161.140625 247.160156 160.917969 246.652344 160.90625 C 246.800781 160.613281 247.816406 160.503906 248.207031 160.503906 C 247.601562 160.316406 246.945312 160.164062 246.664062 160.191406 C 246.847656 159.976562 247.238281 159.921875 247.238281 159.921875 C 247.238281 159.921875 246.914062 159.664062 246.496094 159.722656 C 246.5625 159.660156 246.628906 159.597656 246.6875 159.527344 C 246.855469 159.445312 247.128906 159.359375 247.558594 159.386719 C 248.292969 159.425781 248.378906 158.902344 248.378906 158.902344 C 248.378906 158.902344 248.273438 158.992188 248.070312 159.035156 C 247.871094 159.078125 247.5625 159.082031 247.160156 158.933594 C 247.785156 158 248.105469 156.957031 248.214844 156.523438 C 248.417969 155.71875 249.429688 155.46875 249.429688 155.46875 C 249.429688 155.46875 248.761719 155.214844 248.402344 155.46875 C 248.402344 154.578125 248.902344 153.855469 249.375 153.585938 C 248.929688 153.480469 248.59375 153.585938 248.59375 153.585938 C 248.863281 152.871094 249.597656 152.136719 249.597656 152.136719 L 248.738281 152.332031 C 248.738281 152.332031 249.125 151.640625 249.652344 150.835938 C 249.234375 150.808594 248.042969 151.941406 248.234375 151 C 248.433594 150.054688 249.289062 148.28125 249.289062 148.28125 C 249.289062 148.28125 248.761719 148.335938 248.652344 148.085938 C 249.542969 147.285156 249.679688 145.0625 249.871094 143.617188 C 250.070312 142.175781 249.679688 140.371094 249.679688 140.371094 C 249.679688 140.371094 249.511719 140.621094 249.15625 140.871094 C 249.347656 140.09375 249.34375 138.597656 249.265625 137.945312 C 248.9375 138.597656 248.652344 138.484375 248.652344 138.484375 C 248.652344 138.484375 248.667969 138.457031 248.6875 138.410156 C 248.703125 138.382812 248.714844 138.351562 248.738281 138.304688 C 248.738281 138.304688 248.734375 138.300781 248.734375 138.296875 C 248.785156 138.179688 248.851562 138 248.917969 137.773438 C 248.917969 137.777344 248.917969 137.777344 248.917969 137.78125 C 248.925781 137.757812 248.929688 137.730469 248.9375 137.710938 C 248.964844 137.613281 248.988281 137.511719 249.015625 137.398438 C 249.027344 137.332031 249.042969 137.269531 249.054688 137.195312 C 249.074219 137.089844 249.085938 136.972656 249.101562 136.855469 C 249.109375 136.777344 249.121094 136.699219 249.125 136.613281 C 249.132812 136.480469 249.132812 136.339844 249.132812 136.199219 C 249.132812 136.121094 249.136719 136.046875 249.128906 135.964844 C 249.117188 135.738281 249.09375 135.503906 249.042969 135.261719 C 248.878906 134.449219 248.558594 133.738281 248.019531 132.996094 C 247.476562 132.261719 246.773438 133.003906 244.511719 134.75 C 242.246094 136.492188 239.410156 138.996094 236.496094 140.566406 C 233.582031 142.128906 230.863281 141.578125 230.863281 144.203125 C 230.558594 143.894531 230.914062 143.320312 231.144531 143.027344 C 231.371094 142.738281 231.429688 142.105469 231.429688 142.105469 C 231.429688 142.105469 231.222656 142.507812 230.636719 143.023438 C 230.074219 143.507812 229.785156 143.828125 229.742188 144.179688 C 229.730469 144.179688 229.71875 144.175781 229.710938 144.175781 C 229.488281 143.832031 229.597656 143.355469 229.597656 143.355469 C 229.597656 143.355469 229.210938 143.507812 229.058594 143.925781 C 229.058594 143.925781 228.925781 143.664062 229.085938 143.402344 C 229.246094 143.136719 229.511719 142.53125 229.414062 142.128906 C 229.242188 142.449219 229.078125 142.707031 229.078125 142.707031 C 229.078125 142.707031 229.09375 142.613281 229.066406 142.332031 C 228.996094 142.632812 228.726562 143.015625 228.292969 143.363281 C 227.859375 143.734375 227.859375 143.992188 227.859375 143.992188 C 227.859375 143.992188 227.726562 143.542969 227.941406 143.128906 C 228.15625 142.714844 228.039062 142.53125 228.039062 142.53125 C 228.039062 142.53125 228.039062 142.792969 227.699219 143.109375 C 227.355469 143.421875 227.230469 143.726562 227.230469 143.726562 C 227.230469 143.726562 227.160156 143.503906 227.214844 143.347656 C 227.039062 143.46875 226.953125 143.789062 226.953125 143.789062 C 226.953125 143.789062 226.785156 143.550781 226.800781 143.175781 C 226.640625 143.394531 226.636719 143.5 226.636719 143.5 C 226.636719 143.5 226.566406 142.894531 226.292969 142.613281 C 226.378906 143 226.375 143.304688 226.28125 143.425781 C 226.28125 143.425781 226.230469 143.207031 226.101562 143.03125 C 226.117188 143.265625 226.039062 143.6875 225.941406 143.785156 C 225.9375 143.519531 225.820312 143.175781 225.820312 143.175781 C 225.820312 143.175781 225.660156 143.5625 225.480469 143.730469 C 225.480469 143.730469 225.507812 143.515625 225.300781 143.277344 C 225.3125 143.394531 225.246094 143.515625 225.164062 143.621094 C 225.183594 143.488281 225.210938 143.386719 225.210938 143.386719 C 225.210938 143.386719 225.046875 143.574219 224.90625 143.84375 C 224.851562 143.867188 224.800781 143.890625 224.761719 143.890625 C 224.84375 143.609375 224.78125 142.921875 224.332031 142.566406 C 224.511719 143.128906 224.175781 143.460938 223.832031 143.578125 C 223.957031 143.292969 223.726562 142.765625 223.726562 142.765625 C 223.726562 142.765625 223.582031 143.289062 223.34375 143.527344 C 223.28125 143.445312 223.230469 143.382812 223.230469 143.382812 C 223.230469 143.382812 223.257812 143.480469 223.273438 143.605469 C 223.273438 143.605469 223.273438 143.609375 223.273438 143.609375 C 223.035156 143.390625 223.082031 143.160156 223.082031 143.160156 C 223.082031 143.160156 222.855469 143.597656 222.921875 143.863281 C 222.867188 143.820312 222.808594 143.777344 222.761719 143.730469 C 222.582031 143.5625 222.421875 143.175781 222.421875 143.175781 C 222.421875 143.175781 222.308594 143.519531 222.300781 143.785156 C 222.199219 143.6875 222.121094 143.265625 222.140625 143.03125 C 222.011719 143.207031 221.960938 143.425781 221.960938 143.425781 C 221.871094 143.304688 221.867188 143 221.953125 142.613281 C 221.675781 142.894531 221.605469 143.5 221.605469 143.5 C 221.605469 143.5 221.597656 143.394531 221.441406 143.175781 C 221.453125 143.550781 221.289062 143.789062 221.289062 143.789062 C 221.289062 143.789062 221.203125 143.46875 221.027344 143.347656 C 221.082031 143.503906 221.011719 143.726562 221.011719 143.726562 C 221.011719 143.726562 220.886719 143.421875 220.546875 143.109375 C 220.203125 142.792969 220.203125 142.53125 220.203125 142.53125 C 220.203125 142.53125 220.085938 142.714844 220.304688 143.128906 C 220.515625 143.542969 220.386719 143.992188 220.386719 143.992188 C 220.386719 143.992188 220.382812 143.734375 219.949219 143.363281 C 219.515625 143.015625 219.246094 142.632812 219.179688 142.332031 C 219.148438 142.613281 219.164062 142.707031 219.164062 142.707031 C 219.164062 142.707031 219 142.449219 218.832031 142.128906 C 218.730469 142.53125 219 143.136719 219.15625 143.402344 C 219.320312 143.664062 219.1875 143.925781 219.1875 143.925781 C 219.03125 143.507812 218.640625 143.355469 218.640625 143.355469 C 218.640625 143.355469 218.761719 143.855469 218.515625 144.203125 C 218.511719 144.203125 218.507812 144.203125 218.503906 144.203125 C 218.476562 143.84375 218.179688 143.519531 217.605469 143.023438 C 217.019531 142.507812 216.8125 142.105469 216.8125 142.105469 C 216.8125 142.105469 216.871094 142.738281 217.101562 143.027344 C 217.328125 143.320312 217.683594 143.894531 217.378906 144.203125 C 217.378906 141.578125 214.65625 142.128906 211.746094 140.566406 C 208.832031 138.996094 206 136.492188 203.734375 134.75 C 201.46875 133.003906 200.765625 132.261719 200.226562 132.996094 C 199.6875 133.738281 199.363281 134.449219 199.195312 135.261719 C 199.144531 135.511719 199.121094 135.75 199.105469 135.984375 C 199.105469 136.027344 199.105469 136.066406 199.105469 136.109375 C 199.101562 136.292969 199.101562 136.46875 199.113281 136.636719 C 199.121094 136.699219 199.128906 136.75 199.132812 136.804688 C 199.148438 136.945312 199.164062 137.082031 199.1875 137.203125 C 199.203125 137.277344 199.214844 137.339844 199.230469 137.40625 C 199.25 137.5 199.269531 137.585938 199.292969 137.664062 C 199.300781 137.703125 199.308594 137.746094 199.320312 137.78125 C 199.320312 137.777344 199.320312 137.773438 199.320312 137.765625 C 199.390625 137.996094 199.457031 138.179688 199.507812 138.300781 L 199.507812 138.304688 C 199.527344 138.355469 199.542969 138.390625 199.558594 138.417969 C 199.558594 138.421875 199.558594 138.421875 199.558594 138.421875 C 199.582031 138.460938 199.589844 138.484375 199.589844 138.484375 C 199.589844 138.484375 199.304688 138.597656 198.976562 137.945312 C 198.898438 138.597656 198.890625 140.09375 199.089844 140.871094 C 198.730469 140.621094 198.5625 140.371094 198.5625 140.371094 C 198.5625 140.371094 198.175781 142.175781 198.375 143.617188 C 198.5625 145.0625 198.699219 147.285156 199.589844 148.085938 C 199.480469 148.335938 198.953125 148.28125 198.953125 148.28125 C 198.953125 148.28125 199.8125 150.054688 200.007812 151 C 200.199219 151.941406 199.011719 150.808594 198.59375 150.835938 C 199.117188 151.640625 199.507812 152.332031 199.507812 152.332031 L 198.648438 152.136719 C 198.648438 152.136719 199.378906 152.871094 199.652344 153.585938 C 199.652344 153.585938 199.3125 153.480469 198.867188 153.585938 C 199.339844 153.855469 199.839844 154.578125 199.839844 155.46875 C 199.480469 155.214844 198.8125 155.46875 198.8125 155.46875 C 198.8125 155.46875 199.828125 155.71875 200.027344 156.523438 C 200.136719 156.957031 200.457031 158 201.082031 158.933594 C 200.675781 159.082031 200.371094 159.078125 200.171875 159.035156 C 199.96875 158.992188 199.867188 158.902344 199.867188 158.902344 C 199.867188 158.902344 199.949219 159.425781 200.6875 159.386719 C 201.117188 159.359375 201.390625 159.445312 201.554688 159.53125 C 201.617188 159.597656 201.683594 159.660156 201.746094 159.722656 C 201.332031 159.667969 201.003906 159.921875 201.003906 159.921875 C 201.003906 159.921875 201.398438 159.976562 201.582031 160.191406 C 201.296875 160.164062 200.640625 160.316406 200.03125 160.503906 C 200.425781 160.503906 201.441406 160.613281 201.589844 160.90625 C 201.078125 160.917969 200.410156 161.140625 200.410156 161.140625 C 200.410156 161.140625 201.046875 161.273438 201.167969 161.609375 C 200.820312 161.785156 200.0625 161.507812 199.546875 161.621094 C 199.808594 161.738281 200.578125 162.316406 200.578125 162.316406 C 200.578125 162.316406 199.628906 161.917969 198.769531 161.828125 C 199.089844 161.90625 199.5625 162.210938 199.953125 162.488281 C 200.34375 162.765625 200.660156 163.019531 200.660156 163.019531 L 200.046875 163.273438 C 200.046875 163.273438 200.300781 163.441406 200.886719 163.34375 C 200.796875 163.46875 200.480469 163.566406 200.175781 163.636719 C 199.878906 163.710938 199.609375 163.753906 199.609375 163.753906 C 199.609375 163.753906 199.773438 163.835938 200.324219 163.988281 C 199.953125 164.253906 198.113281 164 198.113281 164 C 198.113281 164 198.503906 164.222656 198.972656 164.453125 C 199.40625 164.664062 199.894531 164.875 200.214844 164.957031 C 200.191406 164.996094 200.175781 165.035156 200.152344 165.074219 C 199.945312 165.160156 199.679688 165.164062 199.679688 165.164062 C 199.679688 165.164062 199.828125 165.261719 200 165.347656 C 199.976562 165.390625 199.953125 165.429688 199.933594 165.476562 C 199.769531 165.46875 199.585938 165.441406 199.464844 165.398438 C 199.589844 165.570312 199.789062 165.675781 199.789062 165.675781 C 199.652344 165.730469 199.351562 165.660156 199 165.472656 C 199.140625 165.71875 199.476562 165.902344 199.652344 165.984375 C 199.640625 166.011719 199.621094 166.035156 199.609375 166.058594 C 199.554688 166.070312 199.507812 166.078125 199.421875 166.113281 C 199.480469 166.128906 199.507812 166.15625 199.558594 166.175781 C 199.453125 166.410156 199.375 166.640625 199.289062 166.875 C 199.238281 166.902344 199.1875 166.921875 199.132812 166.957031 C 198.984375 167.050781 198.863281 167.09375 198.761719 167.117188 C 198.429688 167.058594 198.234375 167.023438 198.234375 167.023438 C 198.234375 167.023438 198.261719 167.058594 198.5 167.148438 C 198.515625 167.164062 198.578125 167.195312 198.699219 167.21875 C 198.875 167.273438 199.121094 167.355469 199.449219 167.464844 C 199.445312 167.464844 199.445312 167.472656 199.441406 167.476562 C 199.425781 167.484375 199.402344 167.496094 199.382812 167.507812 C 199.050781 167.433594 198.648438 167.355469 198.183594 167.285156 C 197.277344 167.160156 196.160156 167.058594 194.949219 167.050781 C 193.726562 167.035156 192.449219 167.09375 191.210938 167.148438 C 189.96875 167.21875 188.746094 167.28125 187.625 167.339844 C 190.199219 167.277344 192.734375 167.4375 193.910156 167.53125 C 191.332031 167.542969 189.582031 167.402344 185.480469 167.484375 C 183.417969 167.511719 181.6875 167.378906 180.488281 167.261719 C 179.28125 167.140625 178.601562 167.023438 178.601562 167.023438 C 178.601562 167.023438 179.050781 167.261719 180.738281 167.480469 C 180.738281 167.480469 178.421875 167.492188 174.464844 166.863281 C 174.511719 166.976562 175.269531 167.117188 175.316406 167.125 C 175.234375 167.117188 172.75 166.882812 171.628906 166.726562 C 171.921875 166.847656 173.136719 167.082031 174.09375 167.207031 C 175.054688 167.328125 170.992188 167.175781 168.640625 166.960938 C 166.285156 166.757812 163.3125 166.683594 160.753906 166.894531 C 161.929688 166.894531 162.851562 166.933594 163.476562 166.96875 C 164.105469 167.007812 164.4375 167.027344 164.4375 167.027344 C 164.4375 167.027344 164.238281 167.035156 163.878906 167.046875 C 162.8125 167.078125 160.351562 167.144531 157.761719 167.097656 C 155.167969 167.039062 153.050781 167.125 151.464844 167.257812 C 150.933594 167.300781 150.460938 167.347656 150.050781 167.398438 C 151.148438 167.347656 152.28125 167.328125 153.140625 167.339844 C 154 167.371094 154.582031 167.386719 154.582031 167.386719 C 154.582031 167.386719 153.894531 167.40625 152.835938 167.429688 C 151.773438 167.5 150.335938 167.550781 148.855469 167.738281 C 145.890625 168.050781 142.914062 168.277344 142.914062 168.277344 C 142.914062 168.277344 143.0625 168.308594 143.378906 168.324219 C 143.6875 168.339844 144.164062 168.324219 144.824219 168.292969 C 143.328125 168.492188 141.421875 168.75 141.421875 168.75 C 141.421875 168.75 142.054688 168.742188 142.6875 168.671875 C 142.074219 168.773438 141.148438 168.898438 140.246094 169.035156 C 139.339844 169.152344 138.464844 169.273438 137.953125 169.359375 C 136.925781 169.503906 135.226562 169.773438 133.0625 170.628906 C 134.480469 170.125 135.75 169.910156 136.1875 169.875 C 134.917969 170.152344 133.890625 170.335938 131.375 171.289062 C 130.753906 171.550781 130.164062 171.769531 129.625 171.957031 C 129.097656 172.152344 128.621094 172.328125 128.226562 172.476562 C 127.421875 172.746094 126.925781 172.914062 126.925781 172.914062 C 126.925781 172.914062 127.011719 172.917969 127.21875 172.882812 C 127.417969 172.855469 127.738281 172.792969 128.207031 172.648438 C 128.207031 172.648438 128.050781 172.703125 127.777344 172.804688 C 127.503906 172.898438 127.117188 173.054688 126.660156 173.277344 C 126.203125 173.492188 125.652344 173.738281 125.078125 174.042969 C 124.515625 174.367188 123.90625 174.726562 123.300781 175.109375 C 122.714844 175.53125 122.144531 175.964844 121.617188 176.375 C 121.117188 176.828125 120.664062 177.257812 120.273438 177.625 C 119.894531 178 119.617188 178.351562 119.410156 178.578125 C 119.203125 178.8125 119.089844 178.945312 119.089844 178.945312 C 119.089844 178.945312 119.421875 178.609375 119.914062 178.101562 C 120.15625 177.835938 120.484375 177.578125 120.828125 177.292969 C 121.175781 177.015625 121.539062 176.699219 121.9375 176.4375 C 120.746094 177.375 119.839844 178.289062 119.101562 179.125 C 118.800781 179.1875 118.496094 179.25 118.199219 179.3125 C 116.410156 179.660156 115.011719 180.152344 114.496094 180.511719 C 115.234375 180.339844 116.121094 180.460938 116.121094 180.460938 C 114.199219 180.777344 112.667969 181.722656 112.667969 181.722656 C 112.667969 181.722656 113.0625 181.820312 113.367188 182.03125 C 111.105469 182.414062 110.652344 182.980469 110.652344 182.980469 L 110.988281 182.96875 C 110.988281 182.96875 110.535156 183.484375 109.707031 183.867188 C 110.390625 183.820312 111.117188 183.585938 111.675781 183.363281 C 112.234375 183.148438 112.636719 182.960938 112.636719 182.960938 C 112.636719 182.960938 111.875 183.710938 109.742188 184.46875 C 108.6875 184.867188 107.582031 185.519531 106.785156 186.113281 C 105.964844 186.675781 105.445312 187.171875 105.445312 187.171875 C 105.445312 187.171875 105.445312 187.171875 106.210938 187.171875 C 103.875 188.421875 101.816406 190.171875 101.816406 190.171875 C 101.816406 190.171875 102.050781 190.292969 103.320312 189.636719 C 102.457031 190.269531 100.058594 192.351562 98.609375 195.097656 C 99.609375 193.625 101.03125 192.195312 101.796875 191.75 C 101.113281 192.394531 100.519531 192.980469 99.925781 193.703125 C 99.3125 194.417969 98.6875 195.261719 98.015625 196.453125 C 97.3125 197.617188 96.394531 198.726562 95.636719 199.550781 C 94.871094 200.371094 94.316406 200.921875 94.316406 200.921875 C 94.316406 200.921875 94.429688 200.910156 94.640625 200.8125 C 94.847656 200.707031 95.160156 200.519531 95.570312 200.164062 C 95.570312 200.164062 94.925781 201.421875 93.023438 203.027344 C 93.199219 203.089844 93.625 202.777344 93.625 202.777344 C 93.625 202.777344 92.605469 203.941406 92.125 204.410156 C 92.367188 204.347656 92.984375 203.90625 93.421875 203.5 C 93.839844 203.101562 92.601562 205.101562 91.730469 206.136719 C 90.847656 207.175781 90.007812 208.613281 89.519531 209.992188 C 90.226562 208.878906 90.738281 208.300781 90.738281 208.300781 C 90.738281 208.300781 90.574219 208.730469 90.257812 209.351562 C 89.941406 209.972656 89.46875 210.789062 88.871094 211.574219 C 87.671875 213.140625 86.929688 214.449219 86.523438 215.335938 C 87.222656 214.261719 88.179688 213.273438 88.179688 213.273438 C 88.179688 213.273438 87.242188 214.550781 86.425781 216.113281 C 85.589844 217.667969 84.417969 219.101562 84.417969 219.101562 C 84.417969 219.101562 84.785156 218.921875 85.292969 218.285156 C 84.839844 219.089844 84.136719 220.078125 84.136719 220.078125 C 84.136719 220.078125 84.4375 219.800781 84.675781 219.480469 C 84.296875 220.160156 83.332031 221.441406 82.90625 221.941406 C 82.476562 222.441406 81.867188 223.324219 81.164062 224.621094 C 81.667969 223.816406 82.144531 223.164062 82.375 222.988281 C 81.878906 223.652344 81.484375 224.164062 80.605469 225.621094 C 80.167969 226.347656 79.6875 226.914062 79.351562 227.324219 C 79.007812 227.726562 78.785156 227.953125 78.785156 227.953125 C 78.785156 227.953125 78.984375 227.875 79.402344 227.433594 C 79.402344 227.433594 79.136719 227.757812 78.75 228.246094 C 78.34375 228.734375 77.804688 229.398438 77.277344 230.117188 C 76.210938 231.539062 75.179688 232.980469 75.179688 232.980469 C 75.179688 232.980469 75.886719 232.039062 76.6875 231.152344 C 75.625 232.511719 74.832031 233.53125 74.234375 234.257812 C 73.648438 234.996094 73.011719 235.648438 73.011719 235.648438 C 73.011719 235.648438 73.378906 235.351562 73.757812 234.941406 C 73.28125 235.523438 72.703125 236.054688 72.109375 236.671875 C 71.507812 237.296875 70.933594 237.898438 70.160156 238.707031 C 70.816406 238.035156 71.34375 237.554688 71.34375 237.554688 C 71.34375 237.554688 70.679688 238.234375 69.257812 239.679688 C 69.039062 239.902344 68.808594 240.128906 68.578125 240.351562 C 68.519531 240.410156 68.457031 240.46875 68.398438 240.523438 C 67.65625 241.230469 66.921875 241.886719 66.527344 242.230469 C 65.808594 242.839844 65.054688 243.453125 64.296875 244.070312 C 63.980469 244.328125 63.675781 244.585938 63.355469 244.84375 C 62.710938 245.355469 62.03125 245.878906 61.359375 246.394531 C 60.980469 246.6875 60.613281 246.976562 60.226562 247.269531 C 59.519531 247.800781 58.777344 248.34375 58.035156 248.882812 C 57.691406 249.136719 57.359375 249.386719 57.007812 249.640625 C 56.910156 249.707031 56.820312 249.773438 56.726562 249.839844 C 55.625 250.628906 54.496094 251.421875 53.3125 252.230469 C 52.199219 252.988281 51.21875 253.710938 50.339844 254.410156 C 50.339844 254.40625 50.339844 254.40625 50.339844 254.40625 C 50.324219 254.417969 50.3125 254.429688 50.300781 254.4375 C 48.367188 255.972656 46.980469 257.355469 46.074219 258.589844 C 46.066406 258.597656 46.058594 258.605469 46.054688 258.613281 C 45.339844 259.589844 44.921875 260.472656 44.765625 261.265625 C 44.753906 261.332031 44.738281 261.390625 44.730469 261.453125 C 44.714844 261.554688 44.707031 261.65625 44.699219 261.75 C 44.695312 261.835938 44.691406 261.910156 44.691406 261.992188 C 44.691406 262.078125 44.695312 262.160156 44.703125 262.246094 C 44.710938 262.332031 44.722656 262.421875 44.738281 262.507812 C 44.753906 262.578125 44.765625 262.648438 44.78125 262.71875 C 44.808594 262.816406 44.839844 262.917969 44.878906 263.011719 C 44.894531 263.066406 44.910156 263.121094 44.933594 263.167969 C 45 263.316406 45.074219 263.457031 45.160156 263.59375 C 45.359375 264.433594 46.078125 265.265625 46.917969 265.855469 C 47.773438 266.460938 48.761719 266.859375 49.703125 267.148438 C 51.597656 267.710938 53.324219 267.761719 54.125 267.644531 C 52.898438 268.1875 51.832031 268.179688 51.832031 268.179688 C 51.832031 268.179688 52.351562 268.25 53.105469 268.261719 C 53.855469 268.285156 54.832031 268.238281 55.746094 268.078125 C 54.449219 268.683594 53.179688 268.941406 52.230469 269.054688 C 51.757812 269.097656 51.363281 269.113281 51.09375 269.117188 C 50.820312 269.113281 50.667969 269.097656 50.667969 269.097656 C 52.308594 269.519531 54.519531 269.15625 56.511719 268.605469 C 58.515625 268.078125 61.222656 267.707031 64.007812 267.109375 C 62.441406 267.648438 60.429688 268.339844 60.429688 268.339844 C 60.429688 268.339844 61.222656 268.207031 62.257812 267.992188 C 63.304688 267.789062 64.59375 267.480469 65.625 267.226562 C 63.910156 267.824219 62.894531 268.3125 62.308594 268.648438 C 61.722656 268.996094 61.578125 269.210938 61.578125 269.210938 C 61.578125 269.210938 61.933594 268.960938 62.6875 268.644531 C 63.441406 268.324219 64.585938 267.933594 66.179688 267.582031 C 69.367188 266.863281 71.078125 265.9375 73.132812 264.847656 C 72.308594 265.613281 71.078125 266.328125 71.078125 266.328125 C 71.078125 266.328125 71.945312 266 73.015625 265.484375 C 74.085938 264.957031 75.359375 264.246094 76.183594 263.542969 C 74.820312 264.933594 73.144531 266.050781 70.859375 267.160156 C 72.53125 266.617188 74.027344 265.832031 75.078125 265.164062 C 75.601562 264.835938 76.023438 264.542969 76.308594 264.328125 C 76.585938 264.109375 76.75 263.988281 76.75 263.988281 C 76.75 263.988281 75.992188 264.703125 75.613281 265.511719 C 76.285156 264.875 77.152344 264.179688 77.839844 263.617188 C 78.539062 263.058594 79.042969 262.65625 79.042969 262.65625 C 79.042969 262.65625 78.617188 263.132812 78.082031 263.734375 C 77.570312 264.328125 76.980469 265.027344 76.742188 265.496094 C 78.058594 264.316406 79.917969 262.9375 81.378906 261.761719 C 82.816406 260.578125 83.898438 259.6875 83.898438 259.6875 C 83.898438 259.6875 83.277344 260.332031 82.917969 260.980469 C 83.785156 260.160156 84.640625 259.472656 85.289062 258.988281 C 85.925781 258.492188 86.339844 258.183594 86.339844 258.183594 C 85.699219 258.773438 85.207031 259.234375 84.839844 259.605469 C 84.472656 259.984375 84.230469 260.285156 84.074219 260.511719 C 83.761719 260.972656 83.78125 261.15625 83.78125 261.15625 C 83.78125 261.15625 84.039062 260.777344 84.679688 260.171875 C 85 259.863281 85.425781 259.507812 85.941406 259.089844 C 86.457031 258.664062 87.082031 258.1875 87.832031 257.6875 C 88.203125 257.4375 88.582031 257.179688 88.941406 256.914062 C 89.292969 256.628906 89.640625 256.347656 89.984375 256.074219 C 90.652344 255.519531 91.269531 254.984375 91.800781 254.519531 C 91.84375 254.476562 91.875 254.445312 91.910156 254.40625 C 91.917969 254.53125 91.921875 254.652344 91.921875 254.769531 C 91.597656 255.121094 91.21875 255.503906 90.722656 255.957031 C 90.085938 256.566406 89.617188 257.058594 89.285156 257.460938 C 88.941406 257.84375 88.726562 258.132812 88.601562 258.359375 C 88.34375 258.800781 88.421875 258.960938 88.421875 258.960938 C 88.421875 258.960938 88.609375 258.605469 89.199219 257.992188 C 89.734375 257.421875 90.597656 256.570312 91.941406 255.558594 C 91.957031 257.695312 91.785156 259.234375 91.785156 259.234375 C 91.785156 259.234375 91.449219 258.757812 91.277344 258.414062 C 91.191406 259.667969 91.410156 261.761719 91.410156 261.761719 C 91.410156 261.761719 90.585938 261.960938 90.242188 261.011719 C 90.023438 262.304688 91.667969 264.644531 90.890625 266.460938 C 90.761719 266.199219 89.761719 265.261719 89.761719 265.261719 C 89.761719 265.261719 90.929688 268.535156 90.929688 269.699219 C 90.585938 269.617188 90.023438 269.699219 90.023438 269.699219 C 90.023438 269.699219 91.25 270.078125 91.597656 274.207031 C 91.550781 275.117188 91.648438 276.007812 91.917969 276.742188 C 91.9375 276.800781 91.957031 276.855469 91.980469 276.910156 C 92.035156 277.042969 92.09375 277.167969 92.160156 277.285156 C 92.210938 277.382812 92.273438 277.464844 92.332031 277.550781 C 92.390625 277.628906 92.441406 277.710938 92.507812 277.785156 C 92.640625 277.9375 92.792969 278.074219 92.964844 278.183594 C 93.410156 278.460938 94.011719 278.632812 94.691406 278.746094 C 94.707031 278.746094 94.722656 278.746094 94.738281 278.75 C 95.613281 278.890625 96.625 278.933594 97.691406 278.960938 C 98.277344 278.976562 98.875 278.984375 99.472656 279.007812 L 99.46875 279.003906 C 99.78125 279.015625 100.097656 279.027344 100.40625 279.046875 C 103.21875 279.21875 106.230469 279.589844 107.179688 278.535156 C 107.785156 277.867188 107.59375 277.207031 106.839844 276.261719 C 106.664062 275.921875 106.390625 275.558594 106.101562 275.414062 C 105.773438 275.0625 105.410156 274.683594 104.988281 274.246094 C 104.859375 274.109375 104.722656 273.984375 104.582031 273.875 C 104.5 273.808594 104.417969 273.757812 104.332031 273.703125 C 104.332031 273.699219 104.328125 273.695312 104.324219 273.695312 C 103.011719 272.816406 101.492188 272.953125 100.40625 272.871094 C 100.25 272.855469 100.105469 272.839844 99.96875 272.8125 C 99.925781 272.804688 99.886719 272.796875 99.847656 272.785156 C 99.699219 272.75 99.5625 272.707031 99.445312 272.640625 C 99.429688 272.628906 99.414062 272.613281 99.398438 272.605469 C 99.277344 272.527344 99.171875 272.433594 99.101562 272.300781 C 99.046875 271.835938 99.003906 271.335938 98.96875 270.824219 C 98.960938 270.679688 98.953125 270.535156 98.945312 270.390625 C 98.921875 269.96875 98.90625 269.535156 98.898438 269.085938 C 98.894531 269.03125 98.894531 268.976562 98.894531 268.921875 C 98.890625 268.800781 98.890625 268.675781 98.890625 268.554688 C 98.886719 268.085938 98.890625 267.605469 98.90625 267.117188 C 98.90625 267.023438 98.910156 266.933594 98.914062 266.839844 C 98.914062 266.742188 98.921875 266.644531 98.925781 266.546875 C 98.941406 266.097656 98.964844 265.644531 98.996094 265.183594 C 99.011719 264.992188 99.027344 264.796875 99.039062 264.605469 C 99.085938 264.015625 99.140625 263.425781 99.214844 262.835938 C 99.226562 262.75 99.238281 262.664062 99.246094 262.578125 C 99.5 260.570312 99.890625 258.554688 100.445312 256.679688 C 101.039062 254.664062 101.808594 252.800781 102.800781 251.300781 C 102.800781 251.300781 103.515625 250.441406 103.683594 250.332031 C 103.722656 250.382812 103.441406 250.84375 103.441406 250.84375 C 103.441406 250.84375 103.546875 250.769531 103.714844 250.59375 C 103.878906 250.414062 104.117188 250.160156 104.375 249.789062 C 104.394531 249.941406 104.390625 250.175781 104.273438 250.464844 C 104.5625 250.242188 104.835938 249.746094 105.0625 249.304688 C 105.296875 248.882812 105.460938 248.507812 105.460938 248.507812 C 105.460938 248.507812 105.398438 249.199219 105.636719 249.546875 C 105.488281 249.035156 105.707031 248.515625 105.96875 248.144531 C 106.242188 247.773438 106.546875 247.539062 106.546875 247.539062 C 106.546875 247.539062 106.625 247.855469 106.339844 248.335938 C 107.109375 247.527344 108.007812 246.210938 108.007812 246.210938 C 108.007812 246.210938 108.109375 246.605469 107.53125 247.378906 C 108.597656 246.789062 109.070312 245.699219 109.234375 245.265625 C 109.253906 245.597656 108.757812 246.414062 108.757812 246.414062 C 108.757812 246.414062 108.929688 246.425781 109.183594 246.3125 C 109.429688 246.199219 109.769531 245.976562 110.128906 245.515625 C 110.476562 245.035156 110.882812 244.6875 111.199219 244.453125 C 111.507812 244.21875 111.722656 244.09375 111.722656 244.09375 C 111.722656 244.09375 111.386719 244.460938 110.699219 245.011719 C 112.003906 244.503906 112.792969 243.167969 112.792969 243.167969 C 112.792969 243.167969 112.628906 243.46875 112.679688 243.726562 C 113.335938 242.722656 113.976562 242.230469 114.441406 242 C 114.90625 241.769531 115.191406 241.777344 115.191406 241.777344 C 115.191406 241.777344 114.9375 242.222656 113.976562 242.773438 C 114.519531 242.710938 115.476562 242.332031 116.4375 241.359375 C 117.394531 240.371094 118.199219 240.128906 118.199219 240.128906 C 118.199219 240.128906 117.976562 240.609375 116.992188 241.324219 C 118.847656 240.671875 119.695312 239.355469 119.695312 239.355469 C 119.695312 239.355469 119.578125 240.019531 119.320312 240.328125 C 120.667969 239.222656 121.207031 238.441406 121.207031 238.441406 C 121.207031 238.441406 121.277344 238.984375 120.882812 239.4375 C 122.855469 237.894531 124.460938 237.023438 124.460938 237.023438 C 124.460938 237.023438 124.199219 237.554688 123.40625 238.070312 C 123.742188 237.945312 124.074219 237.800781 124.378906 237.644531 C 124.382812 237.644531 124.390625 237.640625 124.394531 237.636719 C 124.605469 237.53125 124.800781 237.421875 124.980469 237.316406 C 125.023438 237.292969 125.054688 237.273438 125.09375 237.25 C 125.457031 237.035156 125.738281 236.84375 125.894531 236.738281 C 125.914062 236.722656 125.917969 236.71875 125.933594 236.707031 C 125.996094 236.664062 126.035156 236.636719 126.035156 236.636719 C 126.035156 236.636719 125.691406 237.015625 125.40625 237.214844 C 126.117188 236.890625 126.851562 236.140625 126.851562 236.140625 C 126.820312 236.222656 126.789062 236.296875 126.75 236.367188 C 127.035156 236.035156 127.382812 235.65625 127.589844 235.625 C 127.976562 235.554688 128.199219 235.601562 128.601562 235.125 C 128.546875 235.332031 128.230469 235.628906 127.742188 235.832031 C 128.113281 235.945312 128.925781 235.414062 129.484375 234.878906 C 130.046875 234.34375 130.46875 233.433594 130.5625 233.886719 C 130.652344 234.328125 130.175781 234.523438 129.699219 234.800781 C 130.238281 234.738281 130.71875 234.40625 131.070312 234.097656 C 131.410156 233.785156 131.609375 233.480469 131.609375 233.480469 C 131.609375 233.480469 131.574219 233.660156 131.578125 233.816406 C 128.984375 236.761719 126.992188 237.859375 125.957031 239.113281 C 124.023438 241.445312 124.425781 244.910156 124.742188 248.347656 C 125.058594 251.789062 124.71875 254.773438 124.71875 254.773438 C 124.71875 254.773438 124.386719 254.296875 124.210938 253.953125 C 124.125 255.207031 124.339844 257.296875 124.339844 257.296875 C 124.339844 257.296875 123.519531 257.496094 123.175781 256.546875 C 122.957031 257.84375 124.601562 260.179688 123.824219 261.996094 C 123.691406 261.738281 122.699219 260.796875 122.699219 260.796875 C 122.699219 260.796875 123.867188 264.074219 123.867188 265.242188 C 123.519531 265.152344 122.957031 265.242188 122.957031 265.242188 C 122.957031 265.242188 122.976562 265.246094 123.003906 265.261719 C 123.007812 265.265625 123.007812 265.265625 123.011719 265.265625 C 123.042969 265.28125 123.085938 265.3125 123.144531 265.355469 C 123.148438 265.359375 123.152344 265.359375 123.15625 265.363281 C 123.179688 265.382812 123.207031 265.410156 123.238281 265.4375 C 123.242188 265.445312 123.246094 265.449219 123.253906 265.453125 C 123.28125 265.484375 123.3125 265.519531 123.34375 265.554688 C 123.351562 265.5625 123.359375 265.570312 123.367188 265.578125 C 123.398438 265.617188 123.429688 265.660156 123.460938 265.707031 C 123.472656 265.722656 123.480469 265.734375 123.488281 265.746094 C 123.519531 265.792969 123.554688 265.847656 123.585938 265.90625 C 123.601562 265.921875 123.609375 265.9375 123.621094 265.957031 C 123.652344 266.015625 123.6875 266.078125 123.722656 266.148438 C 123.734375 266.171875 123.742188 266.195312 123.753906 266.21875 C 123.789062 266.289062 123.820312 266.363281 123.855469 266.441406 C 123.867188 266.472656 123.882812 266.507812 123.894531 266.542969 C 123.925781 266.621094 123.957031 266.703125 123.984375 266.796875 C 124 266.835938 124.011719 266.878906 124.027344 266.921875 C 124.058594 267.015625 124.085938 267.113281 124.117188 267.214844 C 124.128906 267.265625 124.140625 267.316406 124.15625 267.371094 C 124.183594 267.476562 124.210938 267.585938 124.238281 267.703125 C 124.25 267.761719 124.261719 267.828125 124.273438 267.890625 C 124.300781 268.011719 124.324219 268.136719 124.347656 268.273438 C 124.359375 268.335938 124.367188 268.40625 124.378906 268.472656 C 124.398438 268.617188 124.421875 268.761719 124.441406 268.921875 C 124.453125 268.984375 124.457031 269.054688 124.464844 269.121094 C 124.488281 269.296875 124.503906 269.472656 124.523438 269.660156 C 124.523438 269.671875 124.523438 269.683594 124.523438 269.691406 C 124.515625 269.894531 124.507812 270.097656 124.511719 270.300781 C 124.515625 270.375 124.519531 270.445312 124.523438 270.519531 C 124.53125 270.710938 124.542969 270.894531 124.566406 271.078125 C 124.578125 271.164062 124.589844 271.246094 124.601562 271.328125 C 124.632812 271.515625 124.671875 271.691406 124.714844 271.867188 C 124.730469 271.921875 124.738281 271.976562 124.753906 272.03125 C 124.820312 272.25 124.898438 272.457031 124.996094 272.648438 C 125.015625 272.695312 125.042969 272.734375 125.0625 272.777344 C 125.144531 272.929688 125.238281 273.066406 125.339844 273.191406 C 125.375 273.238281 125.410156 273.28125 125.445312 273.324219 C 125.582031 273.472656 125.730469 273.613281 125.902344 273.71875 C 126.214844 273.917969 126.609375 274.050781 127.042969 274.160156 C 127.042969 274.160156 127.046875 274.160156 127.046875 274.160156 C 128.332031 274.480469 130.054688 274.480469 131.800781 274.523438 C 132.316406 274.539062 132.832031 274.554688 133.339844 274.585938 C 136.152344 274.757812 139.164062 275.128906 140.117188 274.074219 C 140.777344 273.339844 140.46875 272.609375 139.523438 271.503906 C 139.878906 271.605469 140.136719 271.710938 140.074219 271.535156 C 139.980469 271.253906 139.132812 270.375 138.574219 270.464844 C 138.40625 270.289062 138.234375 270.105469 138.050781 269.917969 C 138.050781 269.917969 138.054688 269.917969 138.054688 269.917969 C 138.007812 269.875 137.972656 269.832031 137.921875 269.785156 C 135.808594 267.578125 132.75 269.09375 132.03125 267.839844 C 131.988281 267.449219 131.949219 267.035156 131.917969 266.609375 C 131.90625 266.460938 131.898438 266.308594 131.890625 266.160156 C 131.875 265.882812 131.859375 265.601562 131.847656 265.3125 C 131.839844 265.085938 131.832031 264.859375 131.828125 264.628906 C 131.824219 264.417969 131.824219 264.203125 131.824219 263.988281 C 131.820312 262.9375 131.851562 261.839844 131.929688 260.710938 C 131.9375 260.617188 131.941406 260.523438 131.949219 260.429688 C 131.976562 260.050781 132.011719 259.664062 132.050781 259.28125 C 132.0625 259.171875 132.074219 259.0625 132.085938 258.953125 C 132.121094 258.582031 132.164062 258.210938 132.214844 257.835938 C 132.21875 257.8125 132.222656 257.785156 132.222656 257.761719 C 132.246094 257.601562 132.269531 257.4375 132.292969 257.277344 C 132.34375 256.945312 132.390625 256.609375 132.449219 256.273438 C 132.449219 256.269531 132.449219 256.265625 132.449219 256.261719 C 132.59375 255.421875 132.765625 254.59375 132.964844 253.777344 C 132.992188 253.65625 133.023438 253.535156 133.050781 253.410156 C 133.144531 253.046875 133.238281 252.691406 133.34375 252.332031 C 133.375 252.230469 133.40625 252.125 133.4375 252.019531 C 133.792969 250.847656 134.210938 249.734375 134.699219 248.71875 C 134.726562 248.660156 134.753906 248.597656 134.785156 248.539062 C 134.933594 248.234375 135.09375 247.945312 135.257812 247.660156 C 135.414062 247.382812 135.5625 247.097656 135.734375 246.84375 C 135.734375 246.84375 135.933594 246.589844 136.222656 246.230469 C 136.507812 245.867188 136.910156 245.433594 137.292969 245.066406 C 137.746094 244.625 138.003906 244.371094 138.1875 244.195312 C 138.390625 243.988281 138.492188 243.863281 138.492188 243.863281 C 138.492188 243.863281 138.261719 244.195312 137.878906 244.570312 C 138.773438 243.804688 139.3125 243.039062 139.972656 242.496094 C 139.742188 242.714844 139.613281 242.957031 139.613281 242.957031 C 139.613281 242.957031 139.964844 242.585938 140.414062 242.28125 C 140.886719 241.949219 141.472656 241.535156 142.246094 240.996094 C 141.75 241.449219 141.195312 241.820312 141.195312 241.820312 C 141.195312 241.820312 142.058594 241.308594 142.902344 240.761719 C 143.3125 240.476562 143.703125 240.195312 143.980469 239.972656 C 144.265625 239.75 144.4375 239.59375 144.4375 239.59375 C 144.203125 239.859375 144.1875 240.007812 144.1875 240.007812 C 144.1875 240.007812 144.652344 239.433594 145.519531 239 C 146.375 238.5625 146.691406 238.367188 147.054688 238.070312 C 146.976562 238.234375 146.605469 238.503906 146.121094 238.738281 C 146.917969 238.449219 147.398438 238.078125 147.691406 237.835938 C 147.980469 237.601562 148.6875 237.007812 149.101562 236.835938 C 148.917969 236.972656 148.769531 237.164062 148.769531 237.164062 C 148.769531 237.164062 149.347656 236.785156 149.8125 236.539062 C 149.457031 236.84375 149.378906 237.117188 149.378906 237.117188 C 149.378906 237.117188 150.179688 236.402344 151.09375 235.980469 C 152.011719 235.558594 152.734375 235.003906 152.734375 235.003906 C 152.734375 235.003906 152.199219 235.625 151.578125 236.015625 C 152.105469 235.832031 152.855469 235.417969 153.742188 234.695312 C 154.625 233.964844 155.640625 233.675781 155.640625 233.675781 C 155.640625 233.675781 155.320312 233.984375 154.675781 234.394531 C 155.5 234.191406 156.320312 233.722656 156.914062 233.175781 C 157.511719 232.640625 158.6875 231.972656 158.460938 232.234375 C 158.238281 232.496094 157.996094 232.914062 157.96875 233.082031 C 158.238281 232.773438 158.894531 232.175781 158.894531 232.175781 C 158.894531 232.175781 158.726562 232.449219 158.78125 232.582031 C 159.660156 231.394531 160.410156 231.085938 160.410156 231.085938 C 160.007812 231.570312 160.011719 231.902344 160.011719 231.902344 C 160.011719 231.902344 160.316406 231.554688 160.792969 231.121094 C 161.277344 230.695312 161.90625 230.140625 162.621094 229.816406 C 164.027344 229.128906 164.628906 228.5 165.394531 227.734375 C 165.132812 228.191406 164.316406 229.046875 163.433594 229.554688 C 165.09375 228.882812 166.265625 227.410156 166.644531 226.925781 C 166.265625 227.691406 166.347656 227.867188 166.347656 227.867188 C 166.347656 227.867188 166.59375 227.5625 166.933594 227.082031 C 167.285156 226.609375 167.710938 225.945312 168.109375 225.292969 C 168.082031 225.757812 168.082031 225.757812 168.082031 225.757812 C 168.082031 225.757812 168.371094 225.457031 168.714844 225 C 169.0625 224.546875 169.46875 223.9375 169.757812 223.363281 C 170.332031 222.214844 170.796875 221.820312 170.796875 221.820312 C 170.796875 221.820312 170.65625 222.03125 170.488281 222.324219 C 170.316406 222.621094 170.136719 223.015625 170.050781 223.382812 C 170.308594 222.933594 170.589844 222.679688 170.589844 222.679688 L 170.554688 222.863281 C 170.554688 222.863281 170.847656 222.597656 171.289062 221.410156 C 171.335938 221.550781 171.328125 221.753906 171.328125 221.753906 C 171.328125 221.753906 171.457031 221.546875 171.664062 221.214844 C 171.765625 221.042969 171.875 220.832031 171.988281 220.609375 C 172.015625 220.625 172.046875 220.644531 172.074219 220.660156 C 172.066406 220.6875 172.058594 220.714844 172.046875 220.738281 C 172.058594 220.722656 172.074219 220.6875 172.089844 220.667969 C 172.515625 220.929688 173.066406 221.152344 173.707031 221.121094 C 174.449219 221.089844 175.128906 221.207031 175.621094 221.335938 C 176.113281 221.46875 176.425781 221.589844 176.425781 221.589844 C 176.425781 221.589844 175.800781 221.601562 174.679688 221.339844 C 175.527344 221.929688 176.5625 222.066406 177.382812 222.054688 C 178.203125 222.039062 178.804688 221.890625 178.804688 221.890625 C 178.804688 221.890625 178.390625 222.15625 178.234375 222.476562 C 179.675781 222.160156 180.6875 222.234375 181.335938 222.417969 C 181.984375 222.597656 182.28125 222.863281 182.28125 222.863281 C 182.28125 222.863281 181.660156 223.214844 180.269531 222.832031 C 180.410156 222.960938 180.597656 223.085938 180.824219 223.199219 C 181.277344 223.429688 181.890625 223.609375 182.636719 223.667969 C 183.007812 223.699219 183.414062 223.695312 183.847656 223.65625 C 184.28125 223.617188 184.671875 223.605469 185.011719 223.613281 C 186.039062 223.628906 186.617188 223.800781 186.617188 223.800781 C 186.617188 223.800781 186 224.140625 184.460938 224.035156 C 185.734375 224.460938 186.816406 224.515625 187.585938 224.421875 C 187.859375 224.390625 188.074219 224.351562 188.261719 224.308594 L 188.535156 224.351562 C 188.535156 224.351562 188.519531 224.394531 188.484375 224.464844 C 188.308594 224.652344 188.09375 224.890625 187.972656 225.070312 C 188.050781 225.042969 188.121094 225.023438 188.199219 225 C 187.976562 225.355469 187.628906 225.859375 187.066406 226.5 C 187.679688 226.378906 188.132812 226.09375 188.132812 226.09375 C 188.132812 226.09375 186.863281 227.691406 186.585938 228.621094 C 187.410156 227.890625 188.019531 227.949219 188.019531 227.949219 L 186.652344 229.484375 L 187.765625 229.664062 C 187.765625 229.664062 187.136719 231.8125 186.398438 233.03125 C 187.292969 232.269531 187.648438 231.789062 187.648438 231.789062 C 187.648438 231.789062 187.015625 233.5625 185.808594 234.886719 C 186.679688 234.480469 187.828125 233.441406 187.828125 233.441406 C 187.828125 233.441406 185.746094 236.101562 185.332031 237.371094 C 186.546875 236.949219 187.453125 236.121094 187.453125 236.121094 L 185.355469 238.167969 L 186.855469 238.910156 L 185.800781 238.996094 C 185.800781 238.996094 186.761719 241.457031 187.027344 242.1875 C 186.191406 241.367188 185.816406 241.273438 185.816406 241.273438 C 185.816406 241.273438 186.886719 245.085938 186.988281 245.929688 C 186.207031 244.328125 185.769531 244.253906 185.769531 244.253906 C 185.769531 244.253906 186.371094 248.285156 186.710938 250.902344 C 186.710938 250.902344 186.109375 250.191406 186.082031 250.296875 C 186.058594 250.402344 186.4375 252.191406 186.4375 252.191406 L 185.964844 251.898438 C 185.964844 251.898438 185.820312 256.785156 186.019531 258.578125 C 185.671875 258.132812 185.207031 257.152344 185.207031 257.152344 L 185.621094 259.421875 C 185.621094 259.421875 184.769531 258.667969 184.804688 258.785156 C 184.835938 258.898438 185.394531 260.355469 185.394531 260.355469 L 184.839844 260.847656 L 185.5 261.710938 L 185.210938 262.304688 L 185.046875 262.648438 C 185.046875 262.648438 185.449219 263.230469 185.484375 264.988281 C 185.484375 264.988281 185.484375 264.988281 185.484375 264.984375 C 185.496094 265.5 185.480469 266.105469 185.410156 266.839844 C 184.992188 265.515625 184.742188 265.421875 184.742188 265.421875 L 185.214844 268.042969 L 184.535156 267.445312 L 185.136719 269.871094 L 184.484375 270.199219 L 185.09375 271.109375 L 184.320312 272.011719 L 184.75 272.945312 L 183.496094 275.234375 L 184.238281 275.351562 C 184.238281 275.351562 183.464844 276.855469 183.035156 277.8125 C 183.746094 277.007812 183.765625 277.335938 183.765625 277.335938 C 183.652344 277.71875 183.554688 278.085938 183.464844 278.449219 C 183.457031 278.472656 183.453125 278.496094 183.449219 278.519531 C 183.445312 278.535156 183.441406 278.546875 183.441406 278.558594 C 183.429688 278.605469 183.417969 278.648438 183.410156 278.695312 C 183.324219 279.0625 183.253906 279.417969 183.199219 279.757812 C 183.199219 279.769531 183.195312 279.785156 183.191406 279.796875 L 183.195312 279.792969 C 183.109375 280.347656 183.070312 280.859375 183.089844 281.332031 C 182.960938 281.570312 182.855469 281.820312 182.765625 282.023438 C 182.679688 282.226562 182.601562 282.441406 182.535156 282.667969 C 182.535156 282.667969 182.535156 282.667969 182.53125 282.667969 C 182.421875 283.042969 182.359375 283.433594 182.414062 283.8125 C 182.503906 284.417969 183.136719 284.582031 183.925781 284.621094 C 184.710938 284.667969 185.652344 284.589844 186.359375 284.714844 C 187.78125 284.957031 191.734375 285.582031 195.148438 284.398438 C 195.285156 284.351562 195.394531 284.289062 195.496094 284.210938 C 195.539062 284.175781 195.570312 284.136719 195.605469 284.097656 C 195.65625 284.050781 195.699219 284 195.734375 283.945312 C 195.773438 283.886719 195.808594 283.820312 195.835938 283.75 C 195.851562 283.710938 195.867188 283.671875 195.878906 283.632812 C 195.933594 283.46875 195.96875 283.285156 195.976562 283.085938 C 196.117188 283.277344 196.210938 283.394531 196.257812 283.257812 C 196.347656 282.976562 196.203125 281.777344 195.714844 281.503906 C 195.613281 281.175781 195.496094 280.832031 195.347656 280.480469 L 195.351562 280.480469 C 195.339844 280.457031 195.332031 280.429688 195.316406 280.402344 C 195.210938 280.152344 195.085938 279.9375 194.949219 279.753906 C 194.90625 279.699219 194.855469 279.660156 194.8125 279.609375 C 194.707031 279.488281 194.601562 279.371094 194.484375 279.28125 C 194.4375 279.246094 194.382812 279.21875 194.335938 279.183594 C 194.207031 279.097656 194.078125 279.019531 193.945312 278.957031 C 193.902344 278.9375 193.859375 278.921875 193.816406 278.90625 C 193.664062 278.847656 193.515625 278.796875 193.359375 278.757812 C 193.347656 278.753906 193.339844 278.75 193.328125 278.746094 C 193.261719 277.394531 193.136719 275.960938 193.03125 274.699219 C 192.921875 273.355469 193.105469 269.792969 193.40625 266.140625 C 193.460938 265.515625 193.519531 264.894531 193.574219 264.277344 C 193.917969 260.613281 194.355469 257.222656 194.707031 256.292969 C 194.710938 256.292969 194.710938 256.285156 194.714844 256.285156 C 194.714844 256.28125 194.714844 256.277344 194.714844 256.273438 C 195.476562 254.277344 195.492188 252.632812 195.492188 252.632812 L 195.378906 251.457031 L 195.851562 252 C 195.851562 252 196.726562 247.589844 197.496094 243.855469 C 198.269531 240.121094 198.207031 238.339844 198.207031 238.339844 C 198.207031 238.339844 198.464844 239.113281 198.738281 239.722656 C 199.078125 237.535156 198.914062 235.34375 198.914062 235.34375 L 199.339844 236.410156 C 199.460938 235.15625 199.355469 234.25 199.355469 234.25 L 199.855469 234.976562 C 199.855469 234.976562 199.496094 233.785156 199.882812 233.167969 C 200.070312 233.875 200.480469 234.535156 200.480469 234.535156 C 200.480469 234.535156 200.21875 233.683594 200.382812 232.222656 C 200.40625 232.007812 200.449219 231.800781 200.503906 231.601562 C 200.503906 231.601562 200.503906 231.605469 200.503906 231.605469 C 200.652344 231.027344 200.894531 230.53125 201.101562 230.164062 C 201.101562 230.160156 201.105469 230.160156 201.105469 230.15625 C 201.207031 229.976562 201.304688 229.828125 201.375 229.722656 C 201.445312 229.621094 201.5 229.546875 201.503906 229.53125 C 201.542969 229.457031 201.382812 230.105469 201.476562 231.042969 C 201.863281 229.832031 203.402344 227.644531 203.402344 227.644531 C 203.402344 227.644531 203.253906 228.648438 203.300781 229.121094 C 203.707031 228.019531 204.675781 227.226562 204.675781 227.226562 L 204.660156 228.089844 L 205.679688 226.300781 C 205.679688 226.300781 205.136719 227.621094 205.410156 227.746094 C 205.523438 227.632812 205.648438 227.488281 205.777344 227.332031 C 205.792969 227.316406 205.8125 227.292969 205.828125 227.273438 C 205.945312 227.132812 206.0625 226.980469 206.183594 226.816406 C 206.199219 226.796875 206.214844 226.777344 206.230469 226.753906 C 206.351562 226.589844 206.472656 226.421875 206.597656 226.25 C 206.613281 226.222656 206.628906 226.199219 206.648438 226.171875 C 206.761719 226.007812 206.871094 225.847656 206.980469 225.6875 C 207.011719 225.640625 207.039062 225.597656 207.070312 225.550781 C 207.082031 225.535156 207.09375 225.515625 207.105469 225.496094 C 207.109375 225.503906 207.109375 225.511719 207.117188 225.515625 C 207.21875 225.355469 207.367188 225.230469 207.519531 225.144531 C 207.519531 225.144531 207.519531 225.148438 207.519531 225.148438 C 207.503906 225.199219 207.488281 225.25 207.476562 225.304688 C 207.449219 225.476562 207.433594 225.644531 207.464844 225.804688 C 207.558594 225.554688 207.695312 225.28125 207.84375 225.015625 C 208.164062 224.9375 208.375 225.03125 208.054688 225.273438 C 207.484375 225.699219 207.386719 226.316406 207.386719 226.316406 C 207.386719 226.316406 207.449219 226.164062 207.683594 225.984375 C 207.917969 225.785156 208.320312 225.621094 209.046875 225.425781 C 209.304688 225.359375 209.5625 225.273438 209.824219 225.179688 C 209.867188 225.160156 209.914062 225.144531 209.957031 225.128906 C 210.210938 225.027344 210.464844 224.917969 210.703125 224.796875 C 210.703125 224.796875 210.707031 224.792969 210.710938 224.792969 C 210.945312 224.675781 211.160156 224.554688 211.355469 224.429688 C 211.394531 224.410156 211.425781 224.390625 211.457031 224.371094 C 211.652344 224.246094 211.824219 224.121094 211.96875 224.007812 C 211.972656 224.003906 211.980469 224 211.984375 223.996094 L 211.980469 223.992188 C 212.046875 223.941406 212.109375 223.886719 212.160156 223.832031 C 212.199219 223.84375 212.242188 223.855469 212.28125 223.863281 C 212.277344 223.871094 212.277344 223.878906 212.273438 223.886719 C 212.253906 223.929688 212.230469 223.976562 212.203125 224.023438 C 212.152344 224.113281 212.089844 224.207031 212.011719 224.300781 C 211.988281 224.332031 211.96875 224.359375 211.941406 224.386719 C 211.839844 224.5 211.710938 224.617188 211.5625 224.726562 C 211.523438 224.757812 211.480469 224.785156 211.4375 224.8125 C 211.265625 224.933594 211.078125 225.046875 210.847656 225.152344 C 211.167969 225.105469 211.46875 225.046875 211.757812 224.960938 C 212.046875 224.871094 212.324219 224.734375 212.582031 224.609375 C 212.753906 224.519531 212.902344 224.425781 213.054688 224.332031 C 213.058594 224.332031 213.058594 224.328125 213.0625 224.328125 C 213.367188 224.140625 213.644531 223.953125 213.875 223.769531 L 213.890625 223.769531 C 213.761719 223.980469 213.644531 224.179688 213.472656 224.429688 C 214.019531 224.21875 214.414062 223.855469 214.414062 223.855469 C 214.414062 223.855469 213.304688 225.640625 213.058594 226.605469 C 213.792969 225.75 214.328125 225.710938 214.328125 225.710938 L 213.128906 227.445312 L 214.113281 227.445312 C 214.113281 227.445312 213.570312 229.664062 212.929688 230.984375 C 213.710938 230.09375 214.019531 229.558594 214.019531 229.558594 C 214.019531 229.558594 213.476562 231.410156 212.417969 232.90625 C 213.1875 232.375 214.195312 231.164062 214.195312 231.164062 C 214.195312 231.164062 212.367188 234.121094 212.011719 235.4375 C 213.085938 234.832031 213.878906 233.871094 213.878906 233.871094 L 212.042969 236.21875 L 213.371094 236.722656 L 212.4375 236.972656 C 212.4375 236.972656 213.304688 239.25 213.542969 239.925781 C 212.796875 239.25 212.46875 239.210938 212.46875 239.210938 C 212.46875 239.210938 213.4375 242.8125 213.535156 243.628906 C 212.832031 242.171875 212.449219 242.171875 212.449219 242.171875 C 212.449219 242.171875 213.003906 246.054688 213.320312 248.582031 C 213.320312 248.582031 212.777344 247.980469 212.761719 248.082031 C 212.742188 248.191406 213.085938 249.902344 213.085938 249.902344 L 212.667969 249.6875 C 212.667969 249.6875 212.574219 254.527344 212.761719 256.273438 C 212.449219 255.886719 212.035156 254.996094 212.035156 254.996094 L 212.414062 257.167969 C 212.414062 257.167969 211.65625 256.566406 211.6875 256.671875 C 211.714844 256.777344 212.21875 258.128906 212.21875 258.128906 L 211.734375 258.699219 L 212.320312 259.449219 L 211.925781 260.445312 C 211.925781 260.445312 212.53125 261.273438 212.273438 264.53125 C 211.894531 263.285156 211.675781 263.234375 211.675781 263.234375 L 212.113281 265.742188 L 211.507812 265.261719 L 212.054688 267.558594 L 211.476562 267.988281 L 212.023438 268.792969 L 211.34375 269.808594 L 211.730469 270.660156 L 210.636719 273.121094 L 211.292969 273.121094 C 211.292969 273.121094 210.621094 274.722656 210.25 275.738281 C 210.871094 274.828125 210.890625 275.148438 210.890625 275.148438 C 210.839844 275.238281 210.789062 275.355469 210.738281 275.480469 C 210.722656 275.519531 210.703125 275.566406 210.6875 275.609375 C 210.683594 275.617188 210.683594 275.621094 210.679688 275.628906 C 210.667969 275.664062 210.65625 275.691406 210.644531 275.726562 C 210.625 275.78125 210.605469 275.839844 210.589844 275.898438 C 210.566406 275.960938 210.546875 276.027344 210.527344 276.097656 C 210.507812 276.164062 210.488281 276.234375 210.46875 276.304688 C 210.453125 276.367188 210.4375 276.425781 210.417969 276.488281 C 210.359375 276.71875 210.308594 276.964844 210.261719 277.21875 C 210.246094 277.296875 210.234375 277.375 210.21875 277.453125 C 210.191406 277.636719 210.164062 277.824219 210.140625 278.011719 C 210.128906 278.117188 210.117188 278.21875 210.105469 278.320312 C 210.089844 278.503906 210.078125 278.679688 210.070312 278.855469 C 210.066406 278.9375 210.058594 279.027344 210.058594 279.105469 C 210.058594 279.3125 210.066406 279.511719 210.082031 279.695312 C 209.859375 280.113281 209.699219 280.523438 209.605469 280.894531 C 209.597656 280.9375 209.589844 280.972656 209.582031 281.011719 C 209.558594 281.132812 209.523438 281.257812 209.511719 281.371094 L 209.507812 281.367188 C 209.507812 281.371094 209.507812 281.371094 209.507812 281.375 C 209.507812 281.390625 209.511719 281.402344 209.507812 281.421875 C 209.492188 281.59375 209.492188 281.753906 209.515625 281.894531 C 209.699219 283.105469 212.042969 282.554688 213.464844 282.796875 C 214.882812 283.039062 218.835938 283.664062 222.25 282.488281 C 222.382812 282.441406 222.496094 282.375 222.59375 282.296875 C 222.640625 282.261719 222.675781 282.21875 222.714844 282.175781 C 222.757812 282.132812 222.800781 282.085938 222.835938 282.03125 C 222.875 281.96875 222.910156 281.902344 222.941406 281.832031 C 222.957031 281.792969 222.96875 281.753906 222.984375 281.714844 C 223.035156 281.550781 223.070312 281.371094 223.078125 281.167969 C 223.222656 281.363281 223.316406 281.480469 223.359375 281.34375 C 223.453125 281.0625 223.304688 279.867188 222.820312 279.585938 C 222.785156 279.472656 222.753906 279.363281 222.710938 279.25 C 222.714844 279.25 222.714844 279.25 222.714844 279.25 C 222.710938 279.246094 222.710938 279.242188 222.710938 279.238281 C 222.625 278.992188 222.53125 278.746094 222.421875 278.484375 C 221.613281 276.5625 219.703125 276.699219 218.429688 276.675781 C 218.394531 276.671875 218.355469 276.664062 218.320312 276.664062 C 218.324219 276.640625 218.324219 276.617188 218.324219 276.59375 C 218.324219 276.300781 218.328125 275.980469 218.335938 275.636719 C 218.339844 275.554688 218.34375 275.464844 218.347656 275.382812 C 218.355469 275.101562 218.363281 274.796875 218.378906 274.480469 C 218.382812 274.367188 218.386719 274.261719 218.394531 274.144531 C 218.414062 273.746094 218.441406 273.316406 218.472656 272.859375 C 218.484375 272.75 218.492188 272.628906 218.5 272.515625 C 218.539062 272.011719 218.582031 271.488281 218.640625 270.914062 C 219.019531 268.019531 220.5 254.707031 221.164062 252.609375 C 221.824219 250.507812 221.832031 248.867188 221.832031 248.867188 L 221.71875 247.730469 L 222.140625 248.191406 C 222.140625 248.191406 222.144531 247.042969 222.230469 245.417969 C 222.234375 245.367188 222.234375 245.316406 222.238281 245.265625 C 222.246094 245.144531 222.253906 245.019531 222.261719 244.890625 C 222.347656 243.515625 222.488281 241.878906 222.738281 240.316406 C 222.757812 240.1875 222.78125 240.054688 222.800781 239.925781 C 223.457031 236.117188 223.394531 234.371094 223.394531 234.371094 C 223.394531 234.371094 223.628906 235.089844 223.871094 235.652344 C 224.15625 233.433594 223.996094 231.296875 223.996094 231.296875 L 224.382812 232.285156 C 224.476562 231.027344 224.382812 230.148438 224.382812 230.148438 L 224.828125 230.789062 C 224.828125 230.789062 224.507812 229.664062 224.84375 228.996094 C 225.011719 229.664062 225.375 230.257812 225.375 230.257812 C 225.375 230.257812 225.136719 229.453125 225.277344 227.984375 C 225.410156 226.515625 226.214844 225.230469 226.25 225.152344 C 226.28125 225.070312 226.148438 225.738281 226.234375 226.648438 C 226.234375 226.648438 227.128906 224.976562 227.316406 222.195312 C 227.769531 222.667969 227.789062 223.609375 227.789062 223.609375 C 227.789062 223.609375 228.363281 222.578125 228.382812 221.371094 C 228.675781 221.441406 228.9375 221.910156 228.9375 221.910156 L 229.144531 220.121094 L 229.375 220.667969 C 229.375 220.667969 230 219.40625 230.167969 218.226562 C 230.234375 218.179688 230.300781 218.136719 230.367188 218.085938 C 230.445312 218.292969 230.464844 218.515625 230.464844 218.515625 C 230.464844 218.515625 230.550781 218.261719 230.644531 217.867188 C 230.925781 217.644531 231.207031 217.410156 231.46875 217.148438 C 232.210938 216.429688 232.8125 215.625 233.183594 214.972656 C 233.578125 214.335938 233.785156 213.890625 233.785156 213.890625 C 233.5625 214.628906 233.785156 215.140625 233.785156 215.140625 C 233.785156 215.140625 233.871094 214.714844 234.136719 214.128906 C 234.40625 213.546875 234.847656 212.804688 235.527344 212.105469 C 236.921875 210.734375 237.269531 210.046875 237.640625 209.144531 C 237.683594 209.566406 237.324219 210.476562 236.550781 211.253906 C 237.265625 210.75 237.730469 210.167969 238.027344 209.625 C 238.34375 209.085938 238.515625 208.59375 238.636719 208.214844 C 238.90625 207.480469 239.484375 205.683594 240.035156 204.964844 C 239.855469 205.402344 239.839844 205.929688 239.839844 205.929688 C 239.839844 205.929688 240.429688 204.648438 241.007812 203.714844 C 240.726562 204.664062 240.992188 205.320312 240.992188 205.320312 C 240.992188 205.320312 241.140625 204.765625 241.421875 203.976562 C 241.675781 203.175781 242.066406 202.148438 242.652344 201.21875 C 243.246094 200.292969 243.597656 199.277344 243.878906 198.546875 C 244.148438 197.8125 244.28125 197.316406 244.28125 197.316406 C 244.28125 197.316406 244.167969 199.132812 243.632812 200.703125 C 244.304688 199.664062 245.164062 197.878906 245.535156 195.261719 C 245.632812 194.613281 245.828125 194.015625 245.960938 193.441406 C 246.09375 192.863281 246.25 192.347656 246.40625 191.90625 C 246.707031 191.03125 246.988281 190.472656 246.988281 190.472656 C 246.988281 190.472656 246.988281 191.503906 246.636719 193.257812 C 247.125 192.390625 247.5 191.394531 247.757812 190.390625 C 247.945312 189.363281 247.984375 188.316406 247.921875 187.398438 C 247.902344 186.476562 247.835938 185.257812 247.871094 184.363281 C 247.902344 183.464844 247.992188 182.886719 248.09375 183.253906 C 248.308594 183.992188 248.792969 184.964844 249.097656 185.226562 C 248.949219 184.769531 248.800781 184.042969 248.6875 183.433594 C 248.632812 183.089844 248.566406 182.792969 248.523438 182.589844 C 248.558594 182.589844 248.59375 182.589844 248.625 182.589844 C 248.75 182.773438 248.933594 182.996094 249.109375 183.027344 C 249.042969 182.871094 248.992188 182.730469 248.929688 182.578125 C 248.992188 182.574219 249.046875 182.582031 249.105469 182.574219 C 249.03125 182.558594 248.972656 182.53125 248.902344 182.511719 C 248.753906 182.144531 248.625 181.800781 248.515625 181.480469 C 248.699219 181.503906 248.882812 181.523438 249.066406 181.535156 C 249.585938 181.578125 250.039062 181.582031 250.039062 181.582031 C 250.039062 181.582031 249.613281 181.398438 249.160156 181.167969 C 248.796875 180.976562 248.417969 180.753906 248.234375 180.566406 C 248.222656 180.53125 248.210938 180.492188 248.203125 180.457031 C 248.683594 180.578125 248.863281 180.597656 248.863281 180.597656 C 248.863281 180.597656 248.648438 180.417969 248.433594 180.210938 C 248.253906 180.039062 248.105469 179.855469 248.035156 179.710938 C 248.03125 179.683594 248.027344 179.652344 248.023438 179.628906 C 248.449219 179.96875 248.738281 179.957031 248.738281 179.957031 C 248.609375 179.78125 248.480469 179.605469 248.339844 179.433594 C 248.339844 179.433594 248.4375 179.417969 248.585938 179.398438 C 248.609375 179.425781 248.636719 179.460938 248.652344 179.484375 C 248.875 179.726562 249.03125 179.8125 249.03125 179.8125 C 249.03125 179.8125 248.960938 179.648438 248.84375 179.363281 C 248.957031 179.351562 249.078125 179.335938 249.210938 179.324219 C 249.6875 179.28125 250.246094 179.25 250.566406 179.339844 C 249.773438 178.992188 248.75 178.863281 248.75 178.863281 C 248.75 178.863281 249.707031 178.746094 249.992188 178.777344 C 249.597656 178.417969 248.792969 178.285156 248.59375 177.960938 C 248.867188 177.730469 249.480469 177.933594 249.480469 177.933594 C 249.480469 177.933594 249.019531 177.40625 248.585938 177.140625 C 248.863281 176.964844 249.792969 177.375 250.132812 177.570312 C 249.710938 177.113281 249.210938 176.652344 248.945312 176.535156 C 249.207031 176.441406 249.582031 176.589844 249.582031 176.589844 C 249.582031 176.589844 249.410156 176.167969 248.972656 176.019531 C 248.972656 176.019531 249.34375 175.792969 250.117188 176.289062 " fill-opacity="1" fill-rule="nonzero"/></g><g fill="#e30613" fill-opacity="1"><g transform="translate(8.500956, 33.539796)"><g><path d="M 4.828125 0 L 4.828125 -1.765625 L 9.140625 -1.765625 L 9.140625 -22.359375 L 4.140625 -19.125 L 4.140625 -21.296875 L 10.1875 -25.21875 L 12.46875 -25.21875 L 12.46875 -1.765625 L 16.78125 -1.765625 L 16.78125 0 Z M 4.828125 0 "/></g></g><g transform="translate(30.108909, 33.539796)"><g><path d="M 10.796875 -1.15625 C 12.484375 -1.15625 13.75 -2.082031 14.59375 -3.9375 C 15.4375 -5.800781 15.859375 -8.609375 15.859375 -12.359375 C 15.859375 -16.117188 15.4375 -18.925781 14.59375 -20.78125 C 13.75 -22.632812 12.484375 -23.5625 10.796875 -23.5625 C 9.109375 -23.5625 7.84375 -22.632812 7 -20.78125 C 6.15625 -18.925781 5.734375 -16.117188 5.734375 -12.359375 C 5.734375 -8.609375 6.15625 -5.800781 7 -3.9375 C 7.84375 -2.082031 9.109375 -1.15625 10.796875 -1.15625 Z M 10.796875 0.484375 C 8.109375 0.484375 6.007812 -0.640625 4.5 -2.890625 C 2.988281 -5.148438 2.234375 -8.304688 2.234375 -12.359375 C 2.234375 -16.410156 2.988281 -19.566406 4.5 -21.828125 C 6.007812 -24.085938 8.109375 -25.21875 10.796875 -25.21875 C 13.492188 -25.21875 15.59375 -24.085938 17.09375 -21.828125 C 18.601562 -19.566406 19.359375 -16.410156 19.359375 -12.359375 C 19.359375 -8.304688 18.601562 -5.148438 17.09375 -2.890625 C 15.59375 -0.640625 13.492188 0.484375 10.796875 0.484375 Z M 10.796875 0.484375 "/></g></g></g><g fill="#e30613" fill-opacity="1"><g transform="translate(47.179505, 390.070117)"><g><path d="M -3.921875 0 L -3.921875 1.421875 L -7.421875 1.421875 L -7.421875 18.15625 L -3.375 15.53125 L -3.375 17.296875 L -8.265625 20.484375 L -10.125 20.484375 L -10.125 1.421875 L -13.640625 1.421875 L -13.640625 0 Z M -3.921875 0 "/></g></g><g transform="translate(29.619425, 390.070117)"><g><path d="M -8.765625 0.9375 C -10.140625 0.9375 -11.164062 1.691406 -11.84375 3.203125 C -12.53125 4.710938 -12.875 6.988281 -12.875 10.03125 C -12.875 13.09375 -12.53125 15.375 -11.84375 16.875 C -11.164062 18.382812 -10.140625 19.140625 -8.765625 19.140625 C -7.390625 19.140625 -6.359375 18.382812 -5.671875 16.875 C -4.992188 15.375 -4.65625 13.09375 -4.65625 10.03125 C -4.65625 6.988281 -4.992188 4.710938 -5.671875 3.203125 C -6.359375 1.691406 -7.390625 0.9375 -8.765625 0.9375 Z M -8.765625 -0.390625 C -6.585938 -0.390625 -4.882812 0.523438 -3.65625 2.359375 C -2.425781 4.191406 -1.8125 6.75 -1.8125 10.03125 C -1.8125 13.332031 -2.425781 15.898438 -3.65625 17.734375 C -4.882812 19.566406 -6.585938 20.484375 -8.765625 20.484375 C -10.960938 20.484375 -12.671875 19.566406 -13.890625 17.734375 C -15.109375 15.898438 -15.71875 13.332031 -15.71875 10.03125 C -15.71875 6.75 -15.109375 4.191406 -13.890625 2.359375 C -12.671875 0.523438 -10.960938 -0.390625 -8.765625 -0.390625 Z M -8.765625 -0.390625 "/></g></g></g><g fill="#e30613" fill-opacity="1"><g transform="translate(288.133472, 384.341941)"><g><path d="M -4.828125 0 L -4.828125 1.765625 L -9.140625 1.765625 L -9.140625 22.359375 L -4.140625 19.125 L -4.140625 21.296875 L -10.1875 25.21875 L -12.46875 25.21875 L -12.46875 1.765625 L -16.78125 1.765625 L -16.78125 0 Z M -4.828125 0 "/></g></g><g transform="translate(266.52552, 384.341941)"><g><path d="M -10.796875 1.15625 C -12.484375 1.15625 -13.75 2.082031 -14.59375 3.9375 C -15.4375 5.800781 -15.859375 8.609375 -15.859375 12.359375 C -15.859375 16.117188 -15.4375 18.925781 -14.59375 20.78125 C -13.75 22.632812 -12.484375 23.5625 -10.796875 23.5625 C -9.109375 23.5625 -7.84375 22.632812 -7 20.78125 C -6.15625 18.925781 -5.734375 16.117188 -5.734375 12.359375 C -5.734375 8.609375 -6.15625 5.800781 -7 3.9375 C -7.84375 2.082031 -9.109375 1.15625 -10.796875 1.15625 Z M -10.796875 -0.484375 C -8.109375 -0.484375 -6.007812 0.640625 -4.5 2.890625 C -2.988281 5.148438 -2.234375 8.304688 -2.234375 12.359375 C -2.234375 16.410156 -2.988281 19.566406 -4.5 21.828125 C -6.007812 24.085938 -8.109375 25.21875 -10.796875 25.21875 C -13.492188 25.21875 -15.59375 24.085938 -17.09375 21.828125 C -18.601562 19.566406 -19.359375 16.410156 -19.359375 12.359375 C -19.359375 8.304688 -18.601562 5.148438 -17.09375 2.890625 C -15.59375 0.640625 -13.492188 -0.484375 -10.796875 -0.484375 Z M -10.796875 -0.484375 "/></g></g></g><g fill="#e30613" fill-opacity="1"><g transform="translate(245.434751, 31.551716)"><g><path d="M 3.921875 0 L 3.921875 -1.421875 L 7.421875 -1.421875 L 7.421875 -18.15625 L 3.375 -15.53125 L 3.375 -17.296875 L 8.265625 -20.484375 L 10.125 -20.484375 L 10.125 -1.421875 L 13.640625 -1.421875 L 13.640625 0 Z M 3.921875 0 "/></g></g><g transform="translate(262.994831, 31.551716)"><g><path d="M 8.765625 -0.9375 C 10.140625 -0.9375 11.164062 -1.691406 11.84375 -3.203125 C 12.53125 -4.710938 12.875 -6.988281 12.875 -10.03125 C 12.875 -13.09375 12.53125 -15.375 11.84375 -16.875 C 11.164062 -18.382812 10.140625 -19.140625 8.765625 -19.140625 C 7.390625 -19.140625 6.359375 -18.382812 5.671875 -16.875 C 4.992188 -15.375 4.65625 -13.09375 4.65625 -10.03125 C 4.65625 -6.988281 4.992188 -4.710938 5.671875 -3.203125 C 6.359375 -1.691406 7.390625 -0.9375 8.765625 -0.9375 Z M 8.765625 0.390625 C 6.585938 0.390625 4.882812 -0.523438 3.65625 -2.359375 C 2.425781 -4.191406 1.8125 -6.75 1.8125 -10.03125 C 1.8125 -13.332031 2.425781 -15.898438 3.65625 -17.734375 C 4.882812 -19.566406 6.585938 -20.484375 8.765625 -20.484375 C 10.960938 -20.484375 12.671875 -19.566406 13.890625 -17.734375 C 15.109375 -15.898438 15.71875 -13.332031 15.71875 -10.03125 C 15.71875 -6.75 15.109375 -4.191406 13.890625 -2.359375 C 12.671875 -0.523438 10.960938 0.390625 8.765625 0.390625 Z M 8.765625 0.390625 "/></g></g></g></svg>