<svg xmlns="http://www.w3.org/2000/svg" xmlns:xlink="http://www.w3.org/1999/xlink" width="396" zoomAndPan="magnify" viewBox="0 0 297.12 419.249996" height="559" preserveAspectRatio="xMidYMid meet" version="1.0"><defs><g/><clipPath id="56a550b123"><path d="M 0 0.246094 L 296.238281 0.246094 L 296.238281 417.367188 L 0 417.367188 Z M 0 0.246094 " clip-rule="nonzero"/></clipPath><clipPath id="665d98c6c0"><path d="M 30.125 42.132812 L 265.921875 42.132812 L 265.921875 375.683594 L 30.125 375.683594 Z M 30.125 42.132812 " clip-rule="nonzero"/></clipPath><clipPath id="249b5f5831"><path d="M 15 39.304688 L 46 39.304688 L 46 65.421875 L 15 65.421875 Z M 15 39.304688 " clip-rule="nonzero"/></clipPath><clipPath id="b9223ad4b4"><path d="M 250 351.613281 L 281 351.613281 L 281 377.730469 L 250 377.730469 Z M 250 351.613281 " clip-rule="nonzero"/></clipPath><clipPath id="659f0ac609"><path d="M 18.128906 361.253906 L 44 361.253906 L 44 382.476562 L 18.128906 382.476562 Z M 18.128906 361.253906 " clip-rule="nonzero"/></clipPath><clipPath id="fcd39bb45b"><path d="M 251.125 35.402344 L 277 35.402344 L 277 56.628906 L 251.125 56.628906 Z M 251.125 35.402344 " clip-rule="nonzero"/></clipPath><clipPath id="c1b87dbc01"><path d="M 61.097656 65.5625 L 134 65.5625 L 134 162 L 61.097656 162 Z M 61.097656 65.5625 " clip-rule="nonzero"/></clipPath><clipPath id="49ace04fa7"><path d="M 163.101562 101.054688 L 234.960938 101.054688 L 234.960938 198.324219 L 163.101562 198.324219 Z M 163.101562 101.054688 " clip-rule="nonzero"/></clipPath><clipPath id="3c2bed6333"><path d="M 61.097656 208.945312 L 134 208.945312 L 134 306 L 61.097656 306 Z M 61.097656 208.945312 " clip-rule="nonzero"/></clipPath><clipPath id="6cbce156c8"><path d="M 163.101562 244.4375 L 234.960938 244.4375 L 234.960938 341.707031 L 163.101562 341.707031 Z M 163.101562 244.4375 " clip-rule="nonzero"/></clipPath></defs><g clip-path="url(#56a550b123)"><path fill="#ffffff" d="M 0 0.246094 L 296.238281 0.246094 L 296.238281 417.367188 L 0 417.367188 Z M 0 0.246094 " fill-opacity="1" fill-rule="nonzero"/><path fill="#ffffff" d="M 0 0.246094 L 296.238281 0.246094 L 296.238281 417.367188 L 0 417.367188 Z M 0 0.246094 " fill-opacity="1" fill-rule="nonzero"/></g><g clip-path="url(#665d98c6c0)"><path stroke-linecap="butt" transform="matrix(0.746195, 0, 0, 0.746195, 30.125007, 42.134083)" fill="none" stroke-linejoin="miter" d="M -0.00000963595 -0.0017029 L 316.108775 -0.0017029 L 316.108775 447.09448 L -0.00000963595 447.09448 Z M -0.00000963595 -0.0017029 " stroke="#e30613" stroke-width="6" stroke-opacity="1" stroke-miterlimit="4"/></g><g clip-path="url(#249b5f5831)"><path fill="#e30613" d="M 42.875 54.410156 L 30.882812 65.230469 L 30.671875 65.421875 L 30.460938 65.230469 L 18.46875 54.410156 C 14.996094 51.277344 14.640625 45.835938 17.675781 42.25 C 19.328125 40.300781 21.640625 39.304688 23.96875 39.304688 C 25.917969 39.304688 27.875 40.007812 29.460938 41.433594 L 30.671875 42.527344 L 31.882812 41.433594 C 33.46875 40.007812 35.425781 39.304688 37.375 39.304688 C 39.703125 39.304688 42.015625 40.300781 43.667969 42.25 C 46.703125 45.835938 46.347656 51.277344 42.875 54.410156 Z M 42.875 54.410156 " fill-opacity="1" fill-rule="nonzero"/></g><g fill="#e30613" fill-opacity="1"><g transform="translate(18.911079, 29.965325)"><g><path d="M 11.859375 -8.390625 L 11.859375 -21.5625 L 3.40625 -8.390625 Z M 19.15625 0 L 7.875 0 L 7.875 -1.765625 L 11.859375 -1.765625 L 11.859375 -6.625 L 1.046875 -6.625 L 1.046875 -8.421875 L 11.890625 -25.21875 L 15.171875 -25.21875 L 15.171875 -8.390625 L 19.90625 -8.390625 L 19.90625 -6.625 L 15.171875 -6.625 L 15.171875 -1.765625 L 19.15625 -1.765625 Z M 19.15625 0 "/></g></g></g><g clip-path="url(#b9223ad4b4)"><path fill="#e30613" d="M 252.90625 362.625 L 264.898438 351.804688 L 265.113281 351.613281 L 265.324219 351.804688 L 277.316406 362.625 C 280.789062 365.757812 281.144531 371.199219 278.109375 374.785156 C 276.457031 376.734375 274.144531 377.730469 271.816406 377.730469 C 269.867188 377.730469 267.910156 377.027344 266.324219 375.601562 L 265.113281 374.507812 L 263.902344 375.601562 C 262.316406 377.027344 260.359375 377.730469 258.410156 377.730469 C 256.082031 377.730469 253.769531 376.734375 252.117188 374.785156 C 249.082031 371.199219 249.4375 365.757812 252.90625 362.625 Z M 252.90625 362.625 " fill-opacity="1" fill-rule="nonzero"/></g><g fill="#e30613" fill-opacity="1"><g transform="translate(276.87343, 387.070053)"><g><path d="M -11.859375 8.390625 L -11.859375 21.5625 L -3.40625 8.390625 Z M -19.15625 0 L -7.875 0 L -7.875 1.765625 L -11.859375 1.765625 L -11.859375 6.625 L -1.046875 6.625 L -1.046875 8.421875 L -11.890625 25.21875 L -15.171875 25.21875 L -15.171875 8.390625 L -19.90625 8.390625 L -19.90625 6.625 L -15.171875 6.625 L -15.171875 1.765625 L -19.15625 1.765625 Z M -19.15625 0 "/></g></g></g><g clip-path="url(#659f0ac609)"><path fill="#e30613" d="M 21.246094 370.203125 L 30.992188 361.410156 L 31.164062 361.253906 L 31.339844 361.410156 L 41.082031 370.203125 C 43.90625 372.746094 44.195312 377.171875 41.726562 380.085938 C 40.386719 381.667969 38.503906 382.476562 36.613281 382.476562 C 35.03125 382.476562 33.4375 381.90625 32.152344 380.746094 L 31.167969 379.859375 L 30.179688 380.746094 C 28.894531 381.90625 27.300781 382.476562 25.71875 382.476562 C 23.824219 382.476562 21.945312 381.667969 20.605469 380.085938 C 18.136719 377.171875 18.425781 372.746094 21.246094 370.203125 Z M 21.246094 370.203125 " fill-opacity="1" fill-rule="nonzero"/></g><g fill="#e30613" fill-opacity="1"><g transform="translate(40.723451, 390.068227)"><g><path d="M -9.640625 6.8125 L -9.640625 17.515625 L -2.765625 6.8125 Z M -15.5625 0 L -6.40625 0 L -6.40625 1.421875 L -9.640625 1.421875 L -9.640625 5.375 L -0.84375 5.375 L -0.84375 6.84375 L -9.65625 20.484375 L -12.328125 20.484375 L -12.328125 6.8125 L -16.171875 6.8125 L -16.171875 5.375 L -12.328125 5.375 L -12.328125 1.421875 L -15.5625 1.421875 Z M -15.5625 0 "/></g></g></g><g clip-path="url(#fcd39bb45b)"><path fill="#e30613" d="M 274.082031 47.679688 L 264.335938 56.472656 L 264.164062 56.628906 L 263.992188 56.472656 L 254.246094 47.679688 C 251.421875 45.136719 251.132812 40.710938 253.601562 37.796875 C 254.941406 36.214844 256.824219 35.402344 258.714844 35.402344 C 260.300781 35.402344 261.890625 35.976562 263.175781 37.132812 L 264.164062 38.023438 L 265.148438 37.132812 C 266.433594 35.976562 268.027344 35.402344 269.609375 35.402344 C 271.503906 35.402344 273.382812 36.214844 274.722656 37.796875 C 277.191406 40.710938 276.902344 45.136719 274.082031 47.679688 Z M 274.082031 47.679688 " fill-opacity="1" fill-rule="nonzero"/></g><g fill="#e30613" fill-opacity="1"><g transform="translate(254.604971, 27.813899)"><g><path d="M 9.640625 -6.8125 L 9.640625 -17.515625 L 2.765625 -6.8125 Z M 15.5625 0 L 6.40625 0 L 6.40625 -1.421875 L 9.640625 -1.421875 L 9.640625 -5.375 L 0.84375 -5.375 L 0.84375 -6.84375 L 9.65625 -20.484375 L 12.328125 -20.484375 L 12.328125 -6.8125 L 16.171875 -6.8125 L 16.171875 -5.375 L 12.328125 -5.375 L 12.328125 -1.421875 L 15.5625 -1.421875 Z M 15.5625 0 "/></g></g></g><g clip-path="url(#c1b87dbc01)"><path fill="#e30613" d="M 78 77.03125 C 78.199219 72.9375 80.785156 68.40625 84.914062 67.140625 C 82.523438 69.445312 83.367188 74.601562 84.261719 76.804688 C 82.328125 76.078125 79.9375 76.191406 78 77.03125 Z M 73.371094 88.421875 C 76.460938 79.273438 83.320312 76.464844 88.472656 86.289062 C 90.609375 90.363281 93.226562 96.988281 93.019531 101.632812 C 92.542969 112.140625 80.296875 113.734375 74.90625 105.316406 C 73.757812 103.523438 73.015625 101.480469 72.617188 99.476562 C 71.886719 95.796875 72.214844 91.84375 73.371094 88.421875 Z M 107.585938 73.617188 C 106.457031 69.675781 102.910156 65.851562 98.605469 65.5625 C 101.453125 67.261719 101.808594 72.472656 101.4375 74.824219 C 103.152344 73.675781 105.507812 73.238281 107.585938 73.617188 Z M 114.6875 83.652344 C 109.597656 75.449219 102.277344 74.277344 99.496094 85.015625 C 98.34375 89.472656 97.308594 96.519531 98.570312 100.992188 C 101.425781 111.117188 113.714844 109.875 117.042969 100.449219 C 117.753906 98.441406 118.011719 96.285156 117.941406 94.242188 C 117.8125 90.496094 116.59375 86.722656 114.6875 83.652344 Z M 63.445312 105.789062 C 63.320312 102.289062 64.886719 98.539062 68.3125 97.171875 C 66.554688 99.074219 67.832031 103.367188 68.664062 105.105469 C 67.027344 104.730469 65.050781 104.992188 63.445312 105.789062 Z M 79.917969 121.605469 C 78.578125 118.167969 76.152344 114.683594 73.601562 112.261719 C 66.820312 105.832031 61.128906 108.863281 61.359375 117.9375 C 61.449219 121.609375 62.585938 125.949219 64.75 129.136719 C 71.570312 139.171875 84.796875 134.09375 79.917969 121.605469 Z M 128.308594 98.300781 C 127.636719 94.863281 125.253906 91.570312 121.609375 91.023438 C 123.75 92.472656 123.488281 96.941406 123.070312 98.824219 C 124.578125 98.089844 126.5625 97.890625 128.308594 98.300781 Z M 115.875 117.457031 C 116.398438 113.800781 117.964844 109.855469 119.894531 106.921875 C 125.03125 99.113281 131.265625 100.765625 133.113281 109.652344 C 133.855469 113.25 133.738281 117.734375 132.355469 121.332031 C 128.003906 132.660156 113.96875 130.726562 115.875 117.457031 Z M 86.554688 130.542969 C 83.824219 136.4375 82.488281 137.707031 79.074219 141.726562 C 67.492188 155.378906 81.214844 169.132812 95.34375 157.761719 C 100.613281 153.523438 102.992188 153.246094 109.089844 156.175781 C 125.441406 164.027344 135.667969 147.507812 121.28125 136.855469 C 117.042969 133.71875 115.453125 132.789062 111.449219 127.667969 C 110.140625 125.992188 108.761719 124.433594 107.230469 123.183594 C 101.855469 118.796875 94.4375 119.386719 89.992188 124.773438 C 88.621094 126.433594 87.53125 128.429688 86.554688 130.542969 " fill-opacity="1" fill-rule="evenodd"/></g><g clip-path="url(#49ace04fa7)"><path fill="#e30613" d="M 221.402344 114.109375 C 221.511719 110.011719 219.28125 105.296875 215.257812 103.722656 C 217.464844 106.199219 216.238281 111.273438 215.175781 113.40625 C 217.15625 112.824219 219.535156 113.121094 221.402344 114.109375 Z M 225.15625 125.8125 C 222.769531 116.460938 216.140625 113.140625 210.253906 122.542969 C 207.816406 126.441406 204.703125 132.851562 204.5625 137.5 C 204.238281 148.011719 216.328125 150.527344 222.339844 142.542969 C 223.621094 140.839844 224.519531 138.863281 225.066406 136.894531 C 226.070312 133.28125 226.046875 129.316406 225.15625 125.8125 Z M 192.160156 108.457031 C 193.585938 104.613281 197.410156 101.070312 201.726562 101.109375 C 198.757812 102.582031 198.007812 107.753906 198.199219 110.125 C 196.574219 108.847656 194.261719 108.238281 192.160156 108.457031 Z M 184.316406 117.921875 C 190.015625 110.132812 197.402344 109.515625 199.359375 120.4375 C 200.171875 124.964844 200.671875 132.070312 199.074219 136.4375 C 195.457031 146.316406 183.300781 144.148438 180.695312 134.496094 C 180.140625 132.441406 180.046875 130.269531 180.269531 128.238281 C 180.683594 124.507812 182.183594 120.839844 184.316406 117.921875 Z M 233.734375 143.882812 C 234.125 140.40625 232.84375 136.546875 229.53125 134.925781 C 231.140625 136.953125 229.542969 141.136719 228.582031 142.804688 C 230.238281 142.558594 232.191406 142.96875 233.734375 143.882812 Z M 216.105469 158.40625 C 217.707031 155.078125 220.390625 151.789062 223.117188 149.570312 C 230.363281 143.671875 235.808594 147.125 234.894531 156.152344 C 234.523438 159.8125 233.0625 164.050781 230.660156 167.066406 C 223.097656 176.554688 210.296875 170.488281 216.105469 158.40625 Z M 169.625 131.5 C 170.554688 128.121094 173.183594 125.019531 176.859375 124.746094 C 174.613281 126.03125 174.535156 130.507812 174.804688 132.417969 C 173.359375 131.570312 171.394531 131.222656 169.625 131.5 Z M 180.570312 151.539062 C 180.328125 147.859375 179.0625 143.804688 177.359375 140.730469 C 172.832031 132.554688 166.488281 133.730469 163.972656 142.453125 C 162.957031 145.984375 162.738281 150.464844 163.839844 154.15625 C 167.324219 165.78125 181.464844 164.917969 180.570312 151.539062 Z M 208.8125 166.8125 C 211.089844 172.902344 212.324219 174.265625 215.421875 178.53125 C 225.9375 193.019531 211.210938 205.695312 197.984375 193.289062 C 193.050781 188.660156 190.699219 188.207031 184.398438 190.664062 C 167.5 197.25 158.554688 180.003906 173.710938 170.476562 C 178.171875 167.667969 179.832031 166.863281 184.207031 162.058594 C 185.640625 160.488281 187.128906 159.039062 188.753906 157.90625 C 194.449219 153.941406 201.796875 155.09375 205.824219 160.800781 C 207.0625 162.558594 208 164.628906 208.8125 166.8125 " fill-opacity="1" fill-rule="evenodd"/></g><g clip-path="url(#3c2bed6333)"><path fill="#e30613" d="M 78 220.414062 C 78.199219 216.320312 80.785156 211.789062 84.914062 210.523438 C 82.523438 212.828125 83.367188 217.984375 84.261719 220.1875 C 82.328125 219.460938 79.9375 219.574219 78 220.414062 Z M 73.371094 231.804688 C 76.460938 222.65625 83.320312 219.847656 88.472656 229.671875 C 90.609375 233.742188 93.226562 240.371094 93.019531 245.015625 C 92.542969 255.523438 80.296875 257.117188 74.90625 248.699219 C 73.757812 246.902344 73.015625 244.863281 72.617188 242.859375 C 71.886719 239.179688 72.214844 235.226562 73.371094 231.804688 Z M 107.585938 217 C 106.457031 213.058594 102.910156 209.234375 98.605469 208.945312 C 101.453125 210.644531 101.808594 215.855469 101.4375 218.207031 C 103.152344 217.058594 105.507812 216.621094 107.585938 217 Z M 114.6875 227.035156 C 109.597656 218.832031 102.277344 217.660156 99.496094 228.398438 C 98.34375 232.855469 97.308594 239.902344 98.570312 244.375 C 101.425781 254.5 113.714844 253.257812 117.042969 243.832031 C 117.753906 241.824219 118.011719 239.667969 117.941406 237.625 C 117.8125 233.878906 116.59375 230.105469 114.6875 227.035156 Z M 63.445312 249.171875 C 63.320312 245.671875 64.886719 241.921875 68.3125 240.554688 C 66.554688 242.457031 67.832031 246.75 68.664062 248.488281 C 67.027344 248.113281 65.050781 248.375 63.445312 249.171875 Z M 79.917969 264.988281 C 78.578125 261.550781 76.152344 258.066406 73.601562 255.644531 C 66.820312 249.214844 61.128906 252.246094 61.359375 261.320312 C 61.449219 264.992188 62.585938 269.332031 64.75 272.519531 C 71.570312 282.554688 84.796875 277.476562 79.917969 264.988281 Z M 128.308594 241.683594 C 127.636719 238.246094 125.253906 234.953125 121.609375 234.40625 C 123.75 235.855469 123.488281 240.324219 123.070312 242.207031 C 124.578125 241.472656 126.5625 241.273438 128.308594 241.683594 Z M 115.875 260.839844 C 116.398438 257.183594 117.964844 253.238281 119.894531 250.304688 C 125.03125 242.496094 131.265625 244.148438 133.113281 253.035156 C 133.855469 256.632812 133.738281 261.117188 132.355469 264.714844 C 128.003906 276.042969 113.96875 274.109375 115.875 260.839844 Z M 86.554688 273.925781 C 83.824219 279.820312 82.488281 281.089844 79.074219 285.109375 C 67.492188 298.757812 81.214844 312.515625 95.34375 301.144531 C 100.613281 296.90625 102.992188 296.628906 109.089844 299.558594 C 125.441406 307.410156 135.667969 290.890625 121.28125 280.238281 C 117.042969 277.101562 115.453125 276.171875 111.449219 271.050781 C 110.140625 269.375 108.761719 267.816406 107.230469 266.566406 C 101.855469 262.179688 94.4375 262.769531 89.992188 268.15625 C 88.621094 269.816406 87.53125 271.8125 86.554688 273.925781 " fill-opacity="1" fill-rule="evenodd"/></g><g clip-path="url(#6cbce156c8)"><path fill="#e30613" d="M 221.402344 257.492188 C 221.511719 253.390625 219.28125 248.679688 215.257812 247.105469 C 217.464844 249.582031 216.238281 254.65625 215.175781 256.789062 C 217.15625 256.207031 219.535156 256.503906 221.402344 257.492188 Z M 225.15625 269.195312 C 222.769531 259.84375 216.140625 256.523438 210.253906 265.925781 C 207.816406 269.824219 204.703125 276.234375 204.5625 280.882812 C 204.238281 291.394531 216.328125 293.910156 222.339844 285.925781 C 223.621094 284.222656 224.519531 282.242188 225.066406 280.277344 C 226.070312 276.664062 226.046875 272.699219 225.15625 269.195312 Z M 192.160156 251.839844 C 193.585938 247.996094 197.410156 244.453125 201.726562 244.492188 C 198.757812 245.964844 198.007812 251.136719 198.199219 253.507812 C 196.574219 252.230469 194.261719 251.621094 192.160156 251.839844 Z M 184.316406 261.304688 C 190.015625 253.515625 197.402344 252.898438 199.359375 263.820312 C 200.171875 268.347656 200.671875 275.453125 199.074219 279.820312 C 195.457031 289.699219 183.300781 287.53125 180.695312 277.878906 C 180.140625 275.824219 180.046875 273.652344 180.269531 271.621094 C 180.683594 267.890625 182.183594 264.222656 184.316406 261.304688 Z M 233.734375 287.265625 C 234.125 283.789062 232.84375 279.929688 229.53125 278.308594 C 231.140625 280.335938 229.542969 284.519531 228.582031 286.1875 C 230.238281 285.941406 232.191406 286.351562 233.734375 287.265625 Z M 216.105469 301.789062 C 217.707031 298.460938 220.390625 295.171875 223.117188 292.953125 C 230.363281 287.054688 235.808594 290.507812 234.894531 299.535156 C 234.523438 303.195312 233.0625 307.433594 230.660156 310.449219 C 223.097656 319.9375 210.296875 313.871094 216.105469 301.789062 Z M 169.625 274.882812 C 170.554688 271.503906 173.183594 268.402344 176.859375 268.128906 C 174.613281 269.414062 174.535156 273.890625 174.804688 275.800781 C 173.359375 274.953125 171.394531 274.605469 169.625 274.882812 Z M 180.570312 294.921875 C 180.328125 291.242188 179.0625 287.1875 177.359375 284.113281 C 172.832031 275.9375 166.488281 277.113281 163.972656 285.835938 C 162.957031 289.367188 162.738281 293.847656 163.839844 297.539062 C 167.324219 309.164062 181.464844 308.300781 180.570312 294.921875 Z M 208.8125 310.195312 C 211.089844 316.285156 212.324219 317.648438 215.421875 321.914062 C 225.9375 336.402344 211.210938 349.078125 197.984375 336.671875 C 193.050781 332.042969 190.699219 331.589844 184.398438 334.046875 C 167.5 340.632812 158.554688 323.386719 173.710938 313.859375 C 178.171875 311.050781 179.832031 310.246094 184.207031 305.441406 C 185.640625 303.871094 187.128906 302.421875 188.753906 301.289062 C 194.449219 297.324219 201.796875 298.476562 205.824219 304.183594 C 207.0625 305.941406 208 308.011719 208.8125 310.195312 " fill-opacity="1" fill-rule="evenodd"/></g></svg>