<svg xmlns="http://www.w3.org/2000/svg" xmlns:xlink="http://www.w3.org/1999/xlink" width="396" zoomAndPan="magnify" viewBox="0 0 297.12 419.249996" height="559" preserveAspectRatio="xMidYMid meet" version="1.0"><defs><g/><clipPath id="3e953fd02a"><path d="M 0 0.246094 L 296.238281 0.246094 L 296.238281 417.367188 L 0 417.367188 Z M 0 0.246094 " clip-rule="nonzero"/></clipPath><clipPath id="87980fed8c"><path d="M 30.125 42.132812 L 265.921875 42.132812 L 265.921875 375.683594 L 30.125 375.683594 Z M 30.125 42.132812 " clip-rule="nonzero"/></clipPath><clipPath id="973c2ec994"><path d="M 15 39.304688 L 46 39.304688 L 46 65.421875 L 15 65.421875 Z M 15 39.304688 " clip-rule="nonzero"/></clipPath><clipPath id="b2289b4a30"><path d="M 249 351.613281 L 280 351.613281 L 280 377.730469 L 249 377.730469 Z M 249 351.613281 " clip-rule="nonzero"/></clipPath><clipPath id="90e7be02be"><path d="M 18.128906 361.253906 L 44 361.253906 L 44 382.476562 L 18.128906 382.476562 Z M 18.128906 361.253906 " clip-rule="nonzero"/></clipPath><clipPath id="c201189319"><path d="M 252 35.402344 L 277 35.402344 L 277 56.628906 L 252 56.628906 Z M 252 35.402344 " clip-rule="nonzero"/></clipPath><clipPath id="e596a38d1e"><path d="M 46.386719 109 L 250 109 L 250 308.898438 L 46.386719 308.898438 Z M 46.386719 109 " clip-rule="nonzero"/></clipPath></defs><g clip-path="url(#3e953fd02a)"><path fill="#ffffff" d="M 0 0.246094 L 296.238281 0.246094 L 296.238281 417.367188 L 0 417.367188 Z M 0 0.246094 " fill-opacity="1" fill-rule="nonzero"/><path fill="#ffffff" d="M 0 0.246094 L 296.238281 0.246094 L 296.238281 417.367188 L 0 417.367188 Z M 0 0.246094 " fill-opacity="1" fill-rule="nonzero"/></g><g clip-path="url(#87980fed8c)"><path stroke-linecap="butt" transform="matrix(0.746195, 0, 0, 0.746195, 30.125007, 42.134026)" fill="none" stroke-linejoin="miter" d="M -0.00000963595 -0.00162593 L 316.108775 -0.00162593 L 316.108775 447.094557 L -0.00000963595 447.094557 Z M -0.00000963595 -0.00162593 " stroke="#e30613" stroke-width="6" stroke-opacity="1" stroke-miterlimit="4"/></g><g clip-path="url(#973c2ec994)"><path fill="#e30613" d="M 42.875 54.410156 L 30.882812 65.230469 L 30.671875 65.421875 L 30.460938 65.230469 L 18.46875 54.410156 C 14.996094 51.277344 14.640625 45.835938 17.675781 42.25 C 19.328125 40.300781 21.640625 39.304688 23.96875 39.304688 C 25.917969 39.304688 27.875 40.007812 29.460938 41.433594 L 30.671875 42.527344 L 31.882812 41.433594 C 33.46875 40.007812 35.425781 39.304688 37.375 39.304688 C 39.703125 39.304688 42.015625 40.300781 43.667969 42.25 C 46.703125 45.835938 46.347656 51.277344 42.875 54.410156 Z M 42.875 54.410156 " fill-opacity="1" fill-rule="nonzero"/></g><g fill="#e30613" fill-opacity="1"><g transform="translate(18.911079, 29.965266)"><g><path d="M 17.078125 -24.765625 L 17.078125 -22.046875 L 5.734375 -22.046875 L 5.734375 -14.9375 C 6.304688 -15.34375 6.976562 -15.644531 7.75 -15.84375 C 8.519531 -16.039062 9.378906 -16.140625 10.328125 -16.140625 C 13.003906 -16.140625 15.113281 -15.394531 16.65625 -13.90625 C 18.207031 -12.425781 18.984375 -10.40625 18.984375 -7.84375 C 18.984375 -5.226562 18.203125 -3.1875 16.640625 -1.71875 C 15.078125 -0.25 12.878906 0.484375 10.046875 0.484375 C 8.910156 0.484375 7.742188 0.34375 6.546875 0.0625 C 5.359375 -0.207031 4.140625 -0.625 2.890625 -1.1875 L 2.890625 -6 L 4.765625 -6 C 4.859375 -4.4375 5.351562 -3.238281 6.25 -2.40625 C 7.15625 -1.570312 8.421875 -1.15625 10.046875 -1.15625 C 11.796875 -1.15625 13.140625 -1.726562 14.078125 -2.875 C 15.015625 -4.03125 15.484375 -5.6875 15.484375 -7.84375 C 15.484375 -9.988281 15.015625 -11.632812 14.078125 -12.78125 C 13.148438 -13.925781 11.804688 -14.5 10.046875 -14.5 C 9.054688 -14.5 8.179688 -14.320312 7.421875 -13.96875 C 6.660156 -13.613281 5.988281 -13.066406 5.40625 -12.328125 L 3.984375 -12.328125 L 3.984375 -24.765625 Z M 17.078125 -24.765625 "/></g></g></g><g clip-path="url(#b2289b4a30)"><path fill="#e30613" d="M 252.652344 362.625 L 264.644531 351.804688 L 264.855469 351.613281 L 265.070312 351.804688 L 277.0625 362.625 C 280.535156 365.757812 280.890625 371.199219 277.851562 374.785156 C 276.203125 376.734375 273.886719 377.730469 271.5625 377.730469 C 269.609375 377.730469 267.652344 377.027344 266.070312 375.601562 L 264.855469 374.507812 L 263.644531 375.601562 C 262.0625 377.027344 260.101562 377.730469 258.152344 377.730469 C 255.824219 377.730469 253.511719 376.734375 251.863281 374.785156 C 248.824219 371.199219 249.179688 365.757812 252.652344 362.625 Z M 252.652344 362.625 " fill-opacity="1" fill-rule="nonzero"/></g><g fill="#e30613" fill-opacity="1"><g transform="translate(276.617695, 387.070053)"><g><path d="M -17.078125 24.765625 L -17.078125 22.046875 L -5.734375 22.046875 L -5.734375 14.9375 C -6.304688 15.34375 -6.976562 15.644531 -7.75 15.84375 C -8.519531 16.039062 -9.378906 16.140625 -10.328125 16.140625 C -13.003906 16.140625 -15.113281 15.394531 -16.65625 13.90625 C -18.207031 12.425781 -18.984375 10.40625 -18.984375 7.84375 C -18.984375 5.226562 -18.203125 3.1875 -16.640625 1.71875 C -15.078125 0.25 -12.878906 -0.484375 -10.046875 -0.484375 C -8.910156 -0.484375 -7.742188 -0.34375 -6.546875 -0.0625 C -5.359375 0.207031 -4.140625 0.625 -2.890625 1.1875 L -2.890625 6 L -4.765625 6 C -4.859375 4.4375 -5.351562 3.238281 -6.25 2.40625 C -7.15625 1.570312 -8.421875 1.15625 -10.046875 1.15625 C -11.796875 1.15625 -13.140625 1.726562 -14.078125 2.875 C -15.015625 4.03125 -15.484375 5.6875 -15.484375 7.84375 C -15.484375 9.988281 -15.015625 11.632812 -14.078125 12.78125 C -13.148438 13.925781 -11.804688 14.5 -10.046875 14.5 C -9.054688 14.5 -8.179688 14.320312 -7.421875 13.96875 C -6.660156 13.613281 -5.988281 13.066406 -5.40625 12.328125 L -3.984375 12.328125 L -3.984375 24.765625 Z M -17.078125 24.765625 "/></g></g></g><g clip-path="url(#90e7be02be)"><path fill="#e30613" d="M 21.246094 370.203125 L 30.992188 361.410156 L 31.164062 361.253906 L 31.339844 361.410156 L 41.082031 370.203125 C 43.90625 372.746094 44.195312 377.171875 41.726562 380.085938 C 40.386719 381.667969 38.503906 382.476562 36.613281 382.476562 C 35.03125 382.476562 33.4375 381.90625 32.152344 380.746094 L 31.167969 379.859375 L 30.179688 380.746094 C 28.894531 381.90625 27.300781 382.476562 25.71875 382.476562 C 23.824219 382.476562 21.945312 381.667969 20.605469 380.085938 C 18.136719 377.171875 18.425781 372.746094 21.246094 370.203125 Z M 21.246094 370.203125 " fill-opacity="1" fill-rule="nonzero"/></g><g fill="#e30613" fill-opacity="1"><g transform="translate(40.723451, 390.068227)"><g><path d="M -13.875 20.109375 L -13.875 17.90625 L -4.65625 17.90625 L -4.65625 12.140625 C -5.125 12.460938 -5.671875 12.703125 -6.296875 12.859375 C -6.921875 13.023438 -7.617188 13.109375 -8.390625 13.109375 C -10.566406 13.109375 -12.28125 12.503906 -13.53125 11.296875 C -14.789062 10.097656 -15.421875 8.457031 -15.421875 6.375 C -15.421875 4.25 -14.785156 2.585938 -13.515625 1.390625 C -12.242188 0.203125 -10.460938 -0.390625 -8.171875 -0.390625 C -7.242188 -0.390625 -6.289062 -0.273438 -5.3125 -0.046875 C -4.34375 0.171875 -3.351562 0.507812 -2.34375 0.96875 L -2.34375 4.875 L -3.859375 4.875 C -3.941406 3.601562 -4.347656 2.628906 -5.078125 1.953125 C -5.816406 1.273438 -6.847656 0.9375 -8.171875 0.9375 C -9.585938 0.9375 -10.675781 1.40625 -11.4375 2.34375 C -12.195312 3.28125 -12.578125 4.625 -12.578125 6.375 C -12.578125 8.113281 -12.195312 9.445312 -11.4375 10.375 C -10.6875 11.3125 -9.597656 11.78125 -8.171875 11.78125 C -7.359375 11.78125 -6.644531 11.632812 -6.03125 11.34375 C -5.414062 11.050781 -4.867188 10.609375 -4.390625 10.015625 L -3.234375 10.015625 L -3.234375 20.109375 Z M -13.875 20.109375 "/></g></g></g><g clip-path="url(#c201189319)"><path fill="#e30613" d="M 274.644531 47.679688 L 264.898438 56.472656 L 264.726562 56.625 L 264.554688 56.472656 L 254.808594 47.679688 C 251.988281 45.136719 251.699219 40.710938 254.164062 37.796875 C 255.507812 36.214844 257.386719 35.402344 259.277344 35.402344 C 260.863281 35.402344 262.453125 35.976562 263.742188 37.132812 L 264.726562 38.023438 L 265.710938 37.132812 C 267 35.976562 268.589844 35.402344 270.175781 35.402344 C 272.066406 35.402344 273.945312 36.214844 275.289062 37.796875 C 277.753906 40.710938 277.46875 45.136719 274.644531 47.679688 Z M 274.644531 47.679688 " fill-opacity="1" fill-rule="nonzero"/></g><g fill="#e30613" fill-opacity="1"><g transform="translate(255.169052, 27.813783)"><g><path d="M 13.875 -20.109375 L 13.875 -17.90625 L 4.65625 -17.90625 L 4.65625 -12.140625 C 5.125 -12.460938 5.671875 -12.703125 6.296875 -12.859375 C 6.921875 -13.023438 7.617188 -13.109375 8.390625 -13.109375 C 10.566406 -13.109375 12.28125 -12.503906 13.53125 -11.296875 C 14.789062 -10.097656 15.421875 -8.457031 15.421875 -6.375 C 15.421875 -4.25 14.785156 -2.585938 13.515625 -1.390625 C 12.242188 -0.203125 10.460938 0.390625 8.171875 0.390625 C 7.242188 0.390625 6.289062 0.273438 5.3125 0.046875 C 4.34375 -0.171875 3.351562 -0.507812 2.34375 -0.96875 L 2.34375 -4.875 L 3.859375 -4.875 C 3.941406 -3.601562 4.347656 -2.628906 5.078125 -1.953125 C 5.816406 -1.273438 6.847656 -0.9375 8.171875 -0.9375 C 9.585938 -0.9375 10.675781 -1.40625 11.4375 -2.34375 C 12.195312 -3.28125 12.578125 -4.625 12.578125 -6.375 C 12.578125 -8.113281 12.195312 -9.445312 11.4375 -10.375 C 10.6875 -11.3125 9.597656 -11.78125 8.171875 -11.78125 C 7.359375 -11.78125 6.644531 -11.632812 6.03125 -11.34375 C 5.414062 -11.050781 4.867188 -10.609375 4.390625 -10.015625 L 3.234375 -10.015625 L 3.234375 -20.109375 Z M 13.875 -20.109375 "/></g></g></g><g clip-path="url(#e596a38d1e)"><path fill="#e30613" d="M 247.085938 142.183594 C 247.613281 141.25 248.222656 140.3125 248.710938 139.378906 C 248.753906 139.296875 248.792969 139.214844 248.832031 139.09375 C 248.832031 139.054688 248.875 139.054688 248.875 139.011719 C 248.914062 138.933594 248.957031 138.851562 248.996094 138.769531 C 248.996094 138.726562 249.035156 138.726562 249.035156 138.6875 C 249.078125 138.605469 249.117188 138.523438 249.160156 138.445312 C 249.160156 138.445312 249.160156 138.402344 249.160156 138.402344 C 249.199219 138.320312 249.238281 138.199219 249.28125 138.117188 C 249.28125 138.117188 249.28125 138.117188 249.28125 138.078125 C 249.320312 137.996094 249.363281 137.914062 249.363281 137.792969 C 249.363281 137.753906 249.363281 137.753906 249.402344 137.710938 C 249.441406 137.628906 249.441406 137.589844 249.484375 137.507812 C 249.484375 137.46875 249.484375 137.425781 249.523438 137.425781 C 249.523438 137.347656 249.566406 137.265625 249.566406 137.222656 C 249.566406 137.183594 249.566406 137.183594 249.605469 137.140625 C 249.648438 137.0625 249.648438 136.9375 249.648438 136.859375 C 249.648438 136.777344 249.6875 136.65625 249.6875 136.574219 C 249.6875 136.53125 249.6875 136.53125 249.6875 136.492188 C 249.6875 136.410156 249.6875 136.328125 249.6875 136.289062 C 249.6875 136.246094 249.6875 136.207031 249.6875 136.167969 C 249.6875 136.085938 249.6875 136.042969 249.6875 135.964844 C 249.6875 135.921875 249.6875 135.882812 249.6875 135.882812 C 249.6875 135.800781 249.6875 135.71875 249.6875 135.636719 C 249.6875 135.597656 249.6875 135.597656 249.6875 135.554688 C 249.6875 135.476562 249.648438 135.351562 249.648438 135.273438 C 249.648438 135.230469 249.648438 135.230469 249.648438 135.191406 C 249.648438 135.109375 249.605469 135.027344 249.605469 134.945312 C 249.605469 134.90625 249.605469 134.863281 249.566406 134.824219 C 249.566406 134.742188 249.523438 134.703125 249.523438 134.621094 C 249.523438 134.582031 249.484375 134.539062 249.484375 134.5 C 249.441406 134.417969 249.441406 134.335938 249.402344 134.296875 C 249.402344 134.253906 249.363281 134.214844 249.363281 134.214844 C 249.320312 134.09375 249.28125 134.011719 249.238281 133.890625 C 248.792969 133.035156 245.703125 134.050781 245.09375 134.132812 C 242.164062 134.621094 239.316406 135.230469 236.46875 135.800781 C 235.902344 135.921875 235.210938 136.449219 234.558594 136.65625 C 234.476562 136.53125 234.355469 136.371094 234.273438 136.246094 C 234.070312 135.964844 233.828125 135.679688 233.625 135.433594 C 233.378906 135.148438 233.175781 134.824219 232.890625 134.621094 C 232.769531 134.539062 232.648438 134.457031 232.484375 134.457031 C 230.941406 133.523438 228.011719 132.914062 227.078125 131.976562 C 225.570312 130.472656 218.863281 126.121094 217.03125 125.472656 C 216.421875 125.269531 216.339844 126.164062 215.242188 125.59375 C 213.25 124.617188 211.625 122.21875 209.507812 121.527344 C 209.222656 121.445312 209.101562 121.566406 209.019531 121.730469 C 208.695312 121.527344 208.371094 121.28125 208.003906 121.199219 C 207.800781 121.121094 207.636719 121.121094 207.433594 121.160156 C 207.597656 121.199219 207.761719 121.28125 207.882812 121.40625 C 208.125 121.609375 208.328125 121.890625 208.53125 122.136719 C 207.515625 121.566406 206.582031 120.671875 205.402344 120.265625 C 203.695312 119.695312 202.230469 120.144531 200.683594 119.371094 C 200.074219 119.085938 196.65625 118.109375 196.046875 117.867188 C 195.925781 117.746094 195.761719 117.582031 195.601562 117.460938 C 194.664062 116.441406 193.445312 114.898438 192.265625 114.53125 C 192.183594 114.492188 192.265625 114.855469 192.265625 115.140625 C 192.0625 115.019531 191.898438 114.9375 191.695312 114.855469 C 191.128906 114.574219 190.515625 114.328125 189.90625 114.085938 C 188.972656 113.71875 188.078125 113.394531 187.140625 113.066406 C 187.628906 113.433594 188.078125 113.800781 188.523438 114.164062 C 186.492188 113.515625 184.375 113.109375 182.222656 112.660156 C 179.742188 112.171875 176.773438 111.320312 174.332031 110.503906 C 174.007812 110.382812 172.582031 109.449219 172.175781 109.855469 C 172.015625 110.019531 172.175781 110.382812 172.257812 110.667969 C 172.054688 110.628906 171.769531 110.585938 171.527344 110.585938 C 168.640625 109.285156 167.417969 109.894531 165.914062 110.140625 C 165.710938 110.097656 165.546875 110.097656 165.34375 110.058594 C 164.613281 109.976562 163.839844 109.976562 163.109375 109.976562 C 162.132812 109.652344 160.425781 108.917969 159.855469 109.203125 C 159.203125 109.53125 160.179688 109.9375 158.917969 110.425781 C 158.757812 110.425781 158.59375 110.382812 158.390625 110.382812 C 158.066406 110.382812 157.78125 110.382812 157.457031 110.425781 C 156.96875 110.464844 156.519531 110.546875 156.074219 110.628906 C 155.625 110.710938 155.179688 110.832031 154.691406 110.914062 C 154.121094 110.832031 153.59375 110.75 153.023438 110.667969 C 152.453125 110.585938 151.882812 110.585938 151.316406 110.546875 L 149.851562 110.546875 C 149.527344 110.546875 148.914062 110.261719 148.589844 110.261719 C 148.386719 110.261719 148.265625 110.34375 148.265625 110.546875 C 148.265625 110.585938 148.304688 110.628906 148.347656 110.667969 C 147.613281 110.667969 146.800781 110.710938 145.945312 110.832031 C 141.757812 111.441406 137.855469 112.296875 134.195312 113.433594 C 134.074219 113.472656 133.949219 113.472656 133.828125 113.515625 C 133.585938 113.554688 133.382812 113.636719 133.136719 113.71875 C 132.8125 113.839844 132.445312 113.960938 132.121094 114.085938 C 132.039062 114.125 131.957031 114.164062 131.875 114.207031 C 127.242188 115.832031 122.847656 117.949219 118.414062 120.632812 C 117.722656 120.957031 116.992188 121.527344 116.828125 121.609375 C 116.34375 121.890625 115.855469 122.21875 115.40625 122.542969 C 115.324219 122.582031 115.242188 122.664062 115.121094 122.707031 C 115 122.789062 114.917969 122.867188 114.796875 122.949219 C 114.472656 123.195312 114.144531 123.476562 113.859375 123.722656 C 113.578125 124.007812 113.25 124.292969 113.007812 124.578125 C 112.804688 124.78125 112.601562 125.023438 112.4375 125.226562 C 112.152344 125.59375 111.867188 125.960938 111.582031 126.324219 C 109.226562 128.441406 107.191406 131 104.710938 133.074219 C 101.621094 135.636719 98.042969 138.484375 95.683594 141.617188 C 93.773438 144.175781 92.429688 147.308594 90.640625 149.910156 C 90.722656 149.75 90.761719 149.585938 90.84375 149.421875 C 90.476562 149.910156 90.113281 150.359375 89.746094 150.847656 C 89.175781 151.578125 88.648438 152.269531 88.078125 152.960938 C 87.835938 153.285156 87.589844 153.570312 87.347656 153.898438 C 86.980469 154.386719 86.613281 154.832031 86.289062 155.320312 C 86.046875 155.644531 85.84375 155.972656 85.636719 156.296875 C 85.3125 156.785156 85.027344 157.3125 84.703125 157.839844 C 84.378906 158.371094 84.09375 158.859375 83.808594 159.386719 C 83.359375 160.160156 82.953125 160.933594 82.507812 161.746094 C 82.546875 161.664062 82.628906 161.625 82.671875 161.542969 C 82.304688 162.234375 81.980469 162.882812 81.652344 163.617188 C 81.246094 164.550781 80.351562 165.566406 80.109375 166.542969 C 79.742188 167.96875 80.839844 168.050781 80.109375 169.472656 C 78.96875 171.75 76.9375 173.578125 75.796875 175.855469 C 75.351562 176.75 76.652344 176.34375 76.9375 176.628906 C 77.261719 176.953125 76.164062 178.703125 76.042969 178.90625 C 75.066406 180.859375 74.617188 182.769531 73.640625 184.761719 C 73.277344 185.496094 72.707031 187.609375 72.542969 187.285156 C 72.136719 189.277344 72.136719 189.277344 72.136719 189.277344 C 72.871094 188.179688 70.875 191.511719 70.511719 192.042969 C 69.210938 193.996094 67.867188 195.945312 66.566406 197.898438 C 64.085938 201.640625 56.601562 213.757812 56.601562 217.664062 C 56.601562 217.988281 56.804688 218.148438 56.96875 218.273438 C 56.726562 218.800781 56.480469 219.289062 56.277344 219.816406 C 55.667969 221.160156 55.140625 222.542969 54.609375 223.925781 C 55.179688 222.988281 55.789062 222.09375 56.398438 221.199219 C 54.773438 224.777344 52.414062 228.316406 51.640625 232.140625 C 51.4375 233.074219 53.308594 233.480469 53.023438 235.394531 C 52.496094 239.09375 50.828125 242.792969 49.933594 246.371094 C 49.6875 247.390625 50.015625 248.242188 50.21875 249.058594 C 50.136719 249.421875 50.054688 249.746094 50.015625 250.03125 C 49.933594 250.480469 49.894531 250.847656 49.851562 251.171875 C 49.8125 251.375 49.8125 251.578125 49.8125 251.742188 C 49.242188 253.164062 48.429688 254.507812 48.0625 256.011719 C 47.371094 258.816406 47.128906 261.132812 47.046875 263.574219 C 47.046875 263.574219 47.046875 263.617188 47.046875 263.617188 C 47.003906 263.941406 46.964844 264.226562 46.925781 264.550781 C 46.882812 265.039062 46.84375 265.484375 46.84375 265.972656 C 46.800781 266.460938 46.800781 266.910156 46.800781 267.398438 C 46.761719 268.128906 46.761719 268.820312 46.761719 269.59375 C 46.800781 269.429688 46.84375 269.269531 46.925781 269.144531 C 46.882812 270 46.800781 271.015625 46.761719 272.113281 C 46.640625 274.390625 46.476562 276.953125 46.4375 278.660156 C 46.4375 278.660156 46.4375 278.703125 46.4375 278.703125 C 46.4375 278.742188 46.4375 278.824219 46.4375 278.867188 C 46.4375 278.90625 46.4375 278.90625 46.4375 278.945312 C 46.4375 278.988281 46.4375 279.027344 46.4375 279.109375 C 46.4375 279.148438 46.4375 279.148438 46.4375 279.191406 C 46.4375 279.273438 46.4375 279.394531 46.4375 279.476562 C 46.4375 279.476562 46.4375 279.515625 46.4375 279.515625 C 46.4375 279.554688 46.4375 279.597656 46.4375 279.597656 C 46.4375 279.636719 46.4375 279.679688 46.4375 279.679688 C 46.4375 279.71875 46.4375 279.71875 46.4375 279.761719 C 46.4375 279.800781 46.4375 279.800781 46.4375 279.839844 C 46.4375 279.882812 46.4375 279.882812 46.4375 279.921875 C 46.4375 279.964844 46.4375 279.964844 46.4375 280.003906 C 46.4375 280.042969 46.4375 280.042969 46.4375 280.085938 C 46.4375 280.125 46.4375 280.167969 46.4375 280.167969 C 46.4375 280.167969 46.4375 280.207031 46.4375 280.207031 C 46.4375 280.246094 46.4375 280.289062 46.4375 280.328125 C 46.4375 280.328125 46.4375 280.371094 46.4375 280.371094 C 46.4375 280.410156 46.4375 280.410156 46.4375 280.453125 C 46.4375 280.453125 46.4375 280.492188 46.4375 280.492188 C 46.4375 280.492188 46.4375 280.53125 46.4375 280.53125 C 46.4375 280.53125 46.4375 280.53125 46.4375 280.574219 C 46.4375 280.574219 46.4375 280.613281 46.4375 280.613281 C 46.4375 280.613281 46.4375 280.65625 46.4375 280.65625 C 46.640625 280.859375 47.003906 280.53125 47.332031 280.246094 C 47.371094 280.613281 47.371094 280.980469 47.410156 281.304688 C 47.453125 281.753906 47.535156 282.199219 47.574219 282.6875 C 47.617188 283.011719 47.695312 283.339844 47.738281 283.664062 C 47.65625 285.820312 47.574219 288.179688 47.617188 288.542969 C 47.695312 289.519531 48.917969 292.894531 50.300781 296.027344 C 50.339844 297.003906 50.378906 297.9375 50.378906 298.628906 C 50.339844 299.726562 50.21875 300.335938 49.8125 299.644531 C 50.175781 300.460938 50.460938 299.890625 50.664062 298.628906 C 50.746094 298.183594 50.789062 297.695312 50.867188 297.164062 C 51.4375 298.386719 52.007812 299.484375 52.535156 300.335938 C 52.453125 300.621094 52.375 300.867188 52.292969 301.109375 C 52.414062 300.90625 52.496094 300.703125 52.617188 300.460938 C 53.105469 301.230469 53.550781 301.761719 53.878906 301.964844 C 54.652344 302.371094 53.757812 298.75 54.40625 299.402344 C 55.179688 300.175781 55.503906 301.921875 56.277344 302.980469 C 56.195312 303.386719 56.113281 303.671875 55.910156 303.875 C 56.113281 303.710938 56.277344 303.46875 56.398438 303.144531 C 56.601562 303.386719 56.804688 303.550781 57.050781 303.671875 C 56.847656 304.199219 56.601562 304.566406 56.195312 304.769531 C 56.644531 304.648438 56.96875 304.28125 57.210938 303.792969 C 57.414062 303.957031 58.027344 304.6875 58.839844 305.542969 C 58.839844 306.476562 58.71875 307.332031 58.3125 307.941406 C 58.757812 307.414062 58.960938 306.640625 59.082031 305.828125 C 59.246094 305.988281 59.367188 306.113281 59.53125 306.273438 C 59.488281 306.519531 59.488281 306.722656 59.449219 306.964844 C 59.488281 306.761719 59.570312 306.558594 59.613281 306.355469 C 60.222656 306.925781 60.832031 307.453125 61.484375 307.902344 C 61.484375 307.902344 61.484375 307.941406 61.484375 307.941406 C 61.441406 308.105469 61.402344 308.0625 61.359375 307.859375 C 61.402344 308.1875 61.484375 308.144531 61.523438 307.941406 C 62.09375 308.347656 62.660156 308.632812 63.148438 308.675781 C 65.46875 308.957031 66.242188 305.015625 66.402344 304.484375 C 66.6875 303.632812 67.625 296.71875 67.785156 296.597656 C 67.867188 296.515625 67.949219 296.515625 68.070312 296.515625 C 68.03125 296.800781 67.988281 297.082031 67.949219 297.367188 C 68.03125 297.125 68.109375 296.839844 68.191406 296.597656 C 68.597656 296.800781 69.046875 297.449219 69.128906 297.289062 C 70.0625 295.457031 69.980469 292.609375 70.226562 290.414062 C 70.347656 290.007812 70.429688 289.601562 70.550781 289.195312 C 71.203125 288.421875 72.992188 289.519531 73.234375 288.179688 C 73.765625 285.617188 73.804688 282.6875 74.414062 280.085938 C 74.457031 280.003906 74.457031 279.964844 74.496094 279.882812 C 74.617188 279.597656 74.738281 279.273438 74.820312 278.945312 C 74.863281 278.785156 74.902344 278.660156 74.902344 278.5 C 75.269531 278.011719 75.917969 278.90625 76.164062 278.175781 C 76.164062 278.132812 76.203125 278.09375 76.203125 278.050781 C 76.203125 278.050781 76.203125 278.011719 76.203125 278.011719 C 76.203125 277.96875 76.203125 277.929688 76.246094 277.890625 C 76.246094 277.890625 76.246094 277.847656 76.246094 277.808594 C 76.246094 277.765625 76.246094 277.726562 76.285156 277.6875 C 76.285156 277.644531 76.285156 277.644531 76.285156 277.605469 C 76.285156 277.5625 76.285156 277.523438 76.324219 277.484375 C 76.324219 277.441406 76.324219 277.441406 76.324219 277.402344 C 76.324219 277.359375 76.324219 277.320312 76.367188 277.28125 C 76.367188 277.238281 76.367188 277.199219 76.367188 277.199219 C 76.367188 277.15625 76.367188 277.117188 76.367188 277.117188 C 76.367188 277.074219 76.367188 277.035156 76.367188 276.996094 C 76.367188 276.953125 76.367188 276.953125 76.367188 276.914062 C 76.367188 276.871094 76.367188 276.832031 76.367188 276.792969 C 76.367188 276.75 76.367188 276.75 76.367188 276.710938 C 76.367188 276.546875 76.40625 276.382812 76.40625 276.179688 C 76.40625 276.179688 76.40625 276.140625 76.40625 276.140625 C 76.40625 276.058594 76.40625 276.019531 76.40625 275.9375 C 76.40625 275.9375 76.40625 275.9375 76.40625 275.898438 C 76.449219 275.410156 76.449219 274.839844 76.449219 274.3125 C 76.527344 270.691406 76.367188 265.972656 77.464844 264.917969 C 77.75 264.632812 78.398438 265.363281 78.683594 265.078125 C 80.269531 263.492188 77.097656 257.191406 78.683594 255.644531 C 79.417969 254.914062 80.3125 255.890625 80.757812 255.480469 C 81.164062 255.074219 80.800781 251.984375 80.921875 251.375 C 81.003906 250.925781 81.328125 250.480469 81.449219 249.992188 C 81.855469 248.367188 83.441406 249.464844 83.847656 248.609375 C 84.378906 247.59375 86.25 240.515625 87.46875 240.515625 C 87.46875 240.515625 87.46875 240.515625 87.507812 240.394531 C 87.183594 239.703125 88.566406 241.613281 88.851562 241.898438 C 89.949219 242.996094 90.84375 244.910156 90.4375 246.535156 C 89.339844 250.925781 86.167969 254.585938 85.433594 259.0625 C 84.785156 263.003906 85.476562 266.949219 86.816406 270.773438 C 86.859375 271.097656 86.898438 271.421875 86.980469 271.75 C 87.019531 271.953125 87.0625 272.113281 87.101562 272.316406 C 87.183594 272.601562 87.222656 272.886719 87.347656 273.132812 C 87.386719 273.292969 87.46875 273.496094 87.550781 273.660156 C 87.671875 273.902344 87.792969 274.1875 87.914062 274.433594 C 88.039062 274.675781 88.160156 274.921875 88.324219 275.207031 C 88.527344 275.613281 88.730469 275.976562 88.890625 276.382812 C 88.890625 276.140625 88.933594 275.898438 88.933594 275.691406 C 89.988281 277.847656 91.210938 279.964844 92.390625 281.914062 C 92.753906 282.523438 93.121094 283.136719 93.445312 283.785156 C 93.488281 283.867188 93.527344 283.90625 93.570312 283.988281 C 93.691406 284.191406 93.773438 284.394531 93.894531 284.597656 C 94.261719 285.332031 94.667969 286.0625 95.03125 286.835938 C 95.074219 286.875 95.074219 286.917969 95.113281 286.957031 C 95.113281 287 95.15625 287.039062 95.15625 287.078125 C 95.234375 287.203125 95.277344 287.324219 95.359375 287.445312 C 95.359375 287.488281 95.398438 287.527344 95.398438 287.566406 C 95.4375 287.609375 95.4375 287.648438 95.480469 287.691406 C 95.480469 287.730469 95.519531 287.730469 95.519531 287.769531 C 95.5625 287.851562 95.640625 287.972656 95.683594 288.054688 C 95.683594 288.097656 95.722656 288.097656 95.722656 288.136719 C 95.722656 288.179688 95.765625 288.21875 95.765625 288.257812 C 95.847656 288.382812 95.886719 288.503906 95.96875 288.625 C 95.96875 288.664062 96.007812 288.707031 96.007812 288.707031 C 96.007812 288.746094 96.050781 288.789062 96.050781 288.789062 C 96.128906 288.949219 96.210938 289.113281 96.292969 289.234375 C 96.292969 289.234375 96.292969 289.234375 96.292969 289.277344 C 96.332031 289.355469 96.375 289.398438 96.414062 289.480469 C 96.496094 289.601562 96.539062 289.683594 96.617188 289.804688 C 96.617188 289.84375 96.660156 289.84375 96.660156 289.886719 C 96.699219 289.96875 96.742188 290.046875 96.820312 290.128906 C 96.863281 290.210938 96.902344 290.292969 96.984375 290.375 C 97.023438 290.414062 97.023438 290.457031 97.066406 290.496094 C 97.066406 290.496094 97.066406 290.535156 97.105469 290.535156 C 97.148438 290.617188 97.1875 290.699219 97.269531 290.78125 C 97.308594 290.820312 97.351562 290.902344 97.390625 290.941406 C 97.433594 290.984375 97.433594 291.023438 97.472656 291.066406 C 97.472656 291.105469 97.511719 291.105469 97.511719 291.148438 C 97.554688 291.226562 97.59375 291.308594 97.675781 291.390625 C 97.714844 291.429688 97.714844 291.472656 97.757812 291.511719 C 97.796875 291.554688 97.839844 291.632812 97.878906 291.675781 C 97.917969 291.714844 97.917969 291.757812 97.960938 291.796875 C 98 291.878906 98.042969 291.917969 98.082031 292 C 98.082031 292 98.125 292.042969 98.125 292.042969 C 98.246094 292.203125 98.367188 292.367188 98.53125 292.570312 C 100.808594 295.417969 102.554688 298.996094 106.132812 300.175781 C 107.070312 300.5 108.332031 299.972656 109.265625 300.175781 C 109.875 300.296875 110.6875 300.703125 111.300781 300.539062 C 112.113281 300.335938 112.804688 299.890625 113.617188 299.726562 C 114.796875 299.441406 114.632812 298.101562 114.632812 297.125 C 114.632812 297.042969 114.632812 296.960938 114.632812 296.878906 C 114.59375 296.390625 114.429688 295.863281 114.1875 295.375 C 114.1875 295.375 114.1875 295.335938 114.1875 295.335938 C 114.144531 295.253906 114.144531 295.214844 114.105469 295.132812 C 114.105469 295.132812 114.105469 295.089844 114.066406 295.089844 C 114.023438 295.011719 113.984375 294.929688 113.941406 294.847656 C 113.941406 294.804688 113.902344 294.804688 113.902344 294.765625 C 113.859375 294.726562 113.820312 294.644531 113.820312 294.601562 C 113.820312 294.5625 113.78125 294.5625 113.78125 294.523438 C 113.738281 294.441406 113.699219 294.359375 113.65625 294.277344 C 113.65625 294.277344 113.65625 294.238281 113.617188 294.238281 C 113.578125 294.15625 113.535156 294.113281 113.496094 294.035156 C 113.496094 293.992188 113.453125 293.992188 113.453125 293.953125 C 113.414062 293.871094 113.375 293.789062 113.332031 293.75 C 113.25 293.628906 113.210938 293.546875 113.128906 293.425781 C 113.089844 293.382812 113.089844 293.34375 113.046875 293.300781 C 113.007812 293.261719 113.007812 293.21875 112.964844 293.179688 C 112.925781 293.097656 112.886719 293.015625 112.84375 292.976562 C 112.84375 292.9375 112.804688 292.9375 112.804688 292.894531 C 112.761719 292.855469 112.722656 292.773438 112.683594 292.734375 C 112.683594 292.691406 112.640625 292.691406 112.640625 292.652344 C 112.601562 292.570312 112.558594 292.527344 112.519531 292.449219 C 112.519531 292.449219 112.519531 292.40625 112.519531 292.40625 C 112.476562 292.324219 112.4375 292.246094 112.398438 292.164062 C 112.398438 292.121094 112.355469 292.121094 112.355469 292.082031 C 112.316406 292.042969 112.273438 291.960938 112.273438 291.917969 C 112.273438 291.917969 112.234375 291.878906 112.234375 291.878906 C 112.195312 291.796875 112.152344 291.714844 112.113281 291.632812 C 112.113281 291.632812 112.113281 291.59375 112.070312 291.59375 C 112.03125 291.511719 112.03125 291.472656 111.992188 291.390625 C 111.992188 291.351562 111.992188 291.351562 111.949219 291.308594 C 111.910156 291.226562 111.910156 291.148438 111.867188 291.066406 C 110.972656 288.382812 108.820312 285.371094 107.070312 283.175781 C 106.988281 283.054688 106.90625 282.972656 106.824219 282.851562 C 106.785156 282.808594 106.785156 282.769531 106.746094 282.769531 C 106.703125 282.6875 106.621094 282.605469 106.582031 282.523438 C 106.542969 282.484375 106.542969 282.445312 106.5 282.402344 C 106.460938 282.320312 106.378906 282.242188 106.335938 282.160156 C 106.296875 282.117188 106.296875 282.078125 106.257812 282.039062 C 106.175781 281.914062 106.132812 281.832031 106.054688 281.710938 C 106.054688 281.710938 106.054688 281.671875 106.054688 281.671875 C 105.972656 281.550781 105.929688 281.425781 105.851562 281.304688 C 105.808594 281.265625 105.808594 281.222656 105.769531 281.183594 C 105.726562 281.101562 105.6875 281.019531 105.644531 280.9375 C 105.605469 280.898438 105.605469 280.816406 105.566406 280.777344 C 105.523438 280.695312 105.484375 280.613281 105.441406 280.53125 C 105.402344 280.492188 105.402344 280.410156 105.363281 280.371094 C 105.320312 280.289062 105.28125 280.167969 105.238281 280.085938 C 104.914062 279.351562 104.589844 278.660156 104.265625 278.011719 C 103.53125 276.546875 102.636719 275.125 101.78125 273.660156 C 101.417969 273.050781 101.09375 272.441406 100.765625 271.828125 C 100.765625 271.828125 100.765625 271.789062 100.765625 271.789062 C 100.726562 271.667969 100.644531 271.585938 100.605469 271.464844 C 100.605469 271.464844 100.605469 271.421875 100.5625 271.421875 C 100.523438 271.300781 100.441406 271.21875 100.402344 271.097656 C 100.402344 271.097656 100.402344 271.058594 100.359375 271.058594 C 100.320312 270.933594 100.238281 270.8125 100.195312 270.691406 C 100.035156 270.324219 99.871094 269.960938 99.75 269.550781 C 99.75 269.511719 99.75 269.511719 99.710938 269.472656 C 99.667969 269.390625 99.628906 269.269531 99.585938 269.1875 C 99.585938 269.144531 99.546875 269.105469 99.546875 269.105469 C 99.503906 269.023438 99.503906 268.941406 99.464844 268.820312 C 99.464844 268.78125 99.425781 268.738281 99.425781 268.699219 C 99.382812 268.617188 99.382812 268.535156 99.34375 268.414062 C 99.34375 268.375 99.300781 268.332031 99.300781 268.292969 C 99.261719 268.210938 99.261719 268.089844 99.222656 268.007812 C 99.222656 267.964844 99.222656 267.925781 99.179688 267.925781 C 99.140625 267.804688 99.140625 267.683594 99.097656 267.519531 C 99.058594 267.355469 99.058594 267.195312 99.019531 267.03125 C 99.019531 266.992188 99.019531 266.910156 98.976562 266.867188 C 98.976562 266.789062 98.9375 266.664062 98.9375 266.582031 C 98.9375 266.503906 98.9375 266.460938 98.894531 266.378906 C 98.894531 266.300781 98.855469 266.21875 98.855469 266.136719 C 98.855469 266.054688 98.855469 265.972656 98.816406 265.894531 C 98.285156 261.011719 99.667969 256.09375 101.824219 251.78125 C 102.757812 249.953125 103.085938 247.714844 104.140625 245.925781 C 106.011719 242.835938 107.640625 239.539062 109.429688 236.367188 C 110.8125 233.929688 113.128906 231.734375 114.144531 229.128906 C 114.144531 229.128906 114.144531 229.128906 114.878906 230.1875 C 114.632812 230.269531 115.894531 233.117188 115.933594 233.480469 C 116.382812 236.734375 118.007812 240.230469 117.15625 243.527344 C 116.300781 247.023438 115.609375 250.925781 114.1875 254.300781 C 113.292969 256.375 111.949219 259.265625 112.355469 261.582031 C 112.925781 264.917969 114.429688 267.683594 116.058594 270.609375 C 117.644531 273.539062 118.863281 276.953125 120.773438 279.636719 C 123.011719 282.769531 125.328125 286.511719 127.035156 289.886719 C 128.746094 293.261719 132.28125 300.335938 136.554688 301.71875 C 136.632812 301.71875 136.675781 301.761719 136.757812 301.761719 C 136.796875 301.761719 136.796875 301.761719 136.835938 301.800781 C 136.878906 301.800781 136.960938 301.84375 137 301.84375 C 137.039062 301.84375 137.082031 301.84375 137.082031 301.882812 C 137.121094 301.882812 137.164062 301.882812 137.246094 301.921875 C 137.285156 301.921875 137.324219 301.921875 137.367188 301.921875 C 137.40625 301.921875 137.449219 301.921875 137.527344 301.921875 C 137.570312 301.921875 137.609375 301.921875 137.652344 301.921875 C 137.691406 301.921875 137.730469 301.921875 137.773438 301.921875 C 137.8125 301.921875 137.855469 301.921875 137.894531 301.921875 C 137.9375 301.921875 137.976562 301.921875 138.015625 301.921875 C 138.058594 301.921875 138.097656 301.921875 138.140625 301.921875 C 138.179688 301.921875 138.21875 301.921875 138.261719 301.921875 C 138.300781 301.921875 138.34375 301.921875 138.382812 301.921875 C 138.421875 301.921875 138.464844 301.921875 138.503906 301.921875 C 138.546875 301.921875 138.585938 301.921875 138.628906 301.921875 C 138.667969 301.921875 138.707031 301.921875 138.75 301.882812 C 138.789062 301.882812 138.832031 301.882812 138.871094 301.84375 C 138.910156 301.84375 138.953125 301.84375 138.992188 301.800781 C 139.035156 301.800781 139.074219 301.761719 139.113281 301.761719 C 139.15625 301.761719 139.195312 301.71875 139.238281 301.71875 C 139.277344 301.71875 139.316406 301.679688 139.359375 301.679688 C 139.398438 301.679688 139.441406 301.636719 139.480469 301.636719 C 139.523438 301.636719 139.5625 301.597656 139.644531 301.597656 C 139.683594 301.597656 139.726562 301.558594 139.765625 301.558594 C 139.804688 301.515625 139.886719 301.515625 139.929688 301.476562 C 139.96875 301.476562 140.007812 301.433594 140.050781 301.433594 C 140.089844 301.394531 140.171875 301.355469 140.214844 301.355469 C 140.253906 301.355469 140.292969 301.3125 140.292969 301.3125 C 140.375 301.273438 140.457031 301.191406 140.578125 301.152344 C 144.484375 298.546875 141.636719 292.40625 140.578125 289.234375 C 139.398438 285.738281 137.367188 282.769531 135.535156 279.597656 C 133.664062 276.34375 132.28125 272.765625 130.617188 269.429688 C 130.535156 269.226562 130.414062 269.023438 130.332031 268.820312 C 130.332031 268.78125 130.289062 268.738281 130.289062 268.699219 C 130.167969 268.496094 130.085938 268.292969 130.003906 268.089844 C 129.925781 267.925781 129.84375 267.761719 129.761719 267.601562 C 129.761719 267.558594 129.722656 267.519531 129.722656 267.480469 C 129.640625 267.316406 129.558594 267.113281 129.4375 266.949219 C 129.4375 266.910156 129.394531 266.867188 129.394531 266.828125 C 129.3125 266.625 129.234375 266.460938 129.109375 266.257812 C 129.03125 266.097656 128.949219 265.894531 128.867188 265.730469 C 128.867188 265.6875 128.828125 265.648438 128.828125 265.648438 C 128.746094 265.484375 128.664062 265.28125 128.582031 265.121094 C 128.582031 265.078125 128.542969 265.078125 128.542969 265.039062 C 128.460938 264.875 128.378906 264.714844 128.296875 264.511719 C 128.296875 264.511719 128.296875 264.46875 128.257812 264.46875 C 128.175781 264.304688 128.09375 264.101562 128.054688 263.941406 C 128.054688 263.898438 128.011719 263.859375 128.011719 263.820312 C 127.933594 263.65625 127.851562 263.453125 127.808594 263.289062 C 127.808594 263.289062 127.808594 263.25 127.808594 263.25 C 127.726562 263.085938 127.6875 262.925781 127.605469 262.71875 C 127.605469 262.679688 127.566406 262.640625 127.566406 262.640625 C 127.523438 262.476562 127.445312 262.273438 127.402344 262.109375 C 127.402344 262.070312 127.363281 262.03125 127.363281 261.988281 C 127.320312 261.824219 127.242188 261.664062 127.199219 261.460938 C 127.199219 261.460938 127.199219 261.417969 127.199219 261.417969 C 127.160156 261.257812 127.117188 261.054688 127.078125 260.890625 C 127.078125 260.851562 127.035156 260.808594 127.035156 260.769531 C 126.996094 260.605469 126.957031 260.402344 126.914062 260.199219 C 126.914062 260.160156 126.914062 260.117188 126.914062 260.078125 C 126.875 259.914062 126.875 259.753906 126.832031 259.589844 C 126.671875 258.695312 126.589844 257.757812 126.589844 256.785156 C 126.589844 253.488281 127.972656 250.113281 129.761719 246.859375 C 129.964844 246.65625 130.128906 246.453125 130.289062 246.25 C 130.289062 246.25 130.332031 246.210938 130.332031 246.210938 C 130.289062 246.292969 130.25 246.371094 130.167969 246.453125 C 130.898438 245.601562 131.589844 244.664062 132.203125 243.6875 C 132.609375 243.039062 132.972656 242.386719 133.339844 241.65625 C 133.664062 240.964844 133.992188 240.273438 134.277344 239.539062 C 134.398438 239.214844 134.519531 238.847656 134.640625 238.484375 C 134.925781 237.953125 135.210938 237.464844 135.453125 236.9375 C 137.246094 233.320312 138.585938 226.933594 139.035156 222.988281 C 139.847656 215.667969 138.21875 208.472656 137.488281 201.234375 C 137.246094 198.753906 136.144531 194.117188 136.351562 190.902344 C 136.511719 190.457031 136.675781 190.007812 136.835938 189.5625 C 136.960938 189.234375 137.039062 188.910156 137.164062 188.585938 C 137.285156 188.21875 137.367188 187.855469 137.449219 187.488281 C 139.886719 183.992188 145.457031 184.273438 148.632812 181.589844 C 149.039062 181.265625 150.011719 180.085938 151.070312 179.152344 C 152.617188 180.453125 154.324219 181.507812 155.992188 182.851562 C 157.78125 184.316406 159.894531 185.25 161.683594 186.632812 C 162.214844 187.039062 162.335938 187.691406 163.066406 188.179688 C 163.800781 188.667969 166.28125 189.234375 166.6875 190.007812 C 166.890625 190.457031 166.28125 190.539062 166.6875 190.945312 C 168.433594 192.691406 171.566406 192.734375 173.519531 194.074219 C 172.910156 194.765625 172.175781 195.417969 171.28125 196.027344 C 169.332031 197.328125 166.929688 198.101562 166.441406 200.867188 C 165.875 204.203125 165.914062 207.210938 167.460938 210.300781 C 168.273438 211.886719 170.304688 213.433594 172.300781 212.457031 C 175.308594 210.953125 176.8125 206.761719 178.441406 204.039062 C 179.414062 202.453125 180.878906 201.191406 182.019531 199.769531 C 182.464844 200.175781 182.871094 200.582031 183.15625 200.988281 C 184.253906 202.453125 183.644531 205.625 183.847656 207.375 C 184.132812 209.8125 183.5625 211.644531 183.15625 214.003906 C 182.507812 217.867188 184.050781 221.972656 186.449219 224.859375 C 187.957031 226.691406 188.199219 228.316406 190.394531 229.414062 C 190.964844 229.699219 191.414062 230.148438 192.183594 229.945312 C 192.792969 229.78125 193.078125 229.089844 193.40625 228.640625 C 194.828125 226.769531 194.707031 224.25 194.707031 221.933594 C 194.707031 217.011719 194.949219 212.050781 195.558594 207.210938 C 195.640625 206.558594 196.046875 206.03125 196.171875 205.421875 C 196.941406 201.964844 197.632812 197.53125 195.640625 194.320312 C 193.8125 191.351562 191.128906 188.585938 188.648438 186.0625 C 188.523438 185.941406 188.078125 185.496094 187.589844 185.046875 C 187.792969 182.933594 187.671875 180.410156 186.449219 179.152344 C 186.042969 178.746094 185.3125 178.132812 184.457031 177.484375 C 184.335938 177.402344 184.253906 177.320312 184.132812 177.238281 C 184.132812 177.238281 184.09375 177.199219 184.09375 177.199219 C 183.96875 177.117188 183.890625 177.035156 183.765625 176.953125 C 183.765625 176.953125 183.765625 176.953125 183.726562 176.953125 C 183.605469 176.875 183.523438 176.792969 183.402344 176.710938 C 183.359375 176.671875 183.320312 176.671875 183.277344 176.628906 C 183.199219 176.589844 183.15625 176.546875 183.074219 176.46875 C 183.035156 176.425781 182.996094 176.386719 182.914062 176.34375 C 182.832031 176.304688 182.75 176.222656 182.710938 176.183594 C 182.628906 176.140625 182.546875 176.058594 182.464844 176.019531 C 182.425781 175.980469 182.34375 175.9375 182.304688 175.898438 C 182.261719 175.855469 182.179688 175.816406 182.140625 175.777344 C 182.097656 175.734375 182.058594 175.695312 182.019531 175.695312 C 181.9375 175.652344 181.894531 175.613281 181.816406 175.574219 C 181.773438 175.53125 181.734375 175.53125 181.691406 175.492188 C 181.570312 175.410156 181.449219 175.328125 181.328125 175.246094 C 181.285156 175.207031 181.246094 175.207031 181.203125 175.164062 C 181.164062 175.125 181.082031 175.085938 181.042969 175.042969 C 181 175.003906 180.960938 175.003906 180.921875 174.960938 C 180.878906 174.921875 180.796875 174.882812 180.757812 174.839844 C 180.675781 174.800781 180.59375 174.71875 180.511719 174.675781 C 180.472656 174.636719 180.433594 174.636719 180.390625 174.597656 C 180.351562 174.554688 180.269531 174.515625 180.230469 174.515625 C 180.1875 174.472656 180.148438 174.472656 180.105469 174.433594 C 180.066406 174.394531 179.984375 174.351562 179.945312 174.3125 C 179.902344 174.3125 179.863281 174.269531 179.863281 174.269531 C 179.78125 174.230469 179.699219 174.191406 179.617188 174.148438 C 179.578125 174.148438 179.578125 174.109375 179.539062 174.109375 C 179.496094 174.066406 179.414062 174.027344 179.375 174.027344 C 179.335938 174.027344 179.335938 173.984375 179.292969 173.984375 C 179.210938 173.945312 179.132812 173.90625 179.089844 173.863281 C 178.886719 173.742188 178.480469 173.578125 178.03125 173.375 L 176.8125 171.789062 C 176.855469 171.789062 176.894531 171.789062 176.933594 171.789062 C 178.277344 171.789062 179.617188 171.789062 180.921875 172.117188 C 181.328125 172.195312 181.816406 171.832031 182.140625 171.992188 C 183.402344 172.644531 183.441406 173.171875 185.3125 172.808594 C 185.636719 172.726562 187.753906 172.15625 188.078125 172.480469 C 188.28125 172.683594 187.832031 172.808594 188.078125 172.886719 C 189.296875 173.171875 192.714844 173.171875 192.714844 173.011719 C 192.714844 173.011719 192.714844 173.011719 194.015625 172.808594 C 194.015625 172.96875 194.664062 172.96875 195.070312 173.253906 C 195.683594 173.742188 196.535156 174.515625 196.941406 175.207031 C 198.324219 177.523438 199.667969 180.085938 200.195312 182.769531 C 200.238281 182.972656 200.277344 183.21875 200.316406 183.460938 C 200.238281 183.503906 200.359375 183.503906 200.316406 183.542969 C 200.277344 183.582031 200.359375 183.542969 200.316406 183.582031 C 200.238281 183.664062 200.15625 183.625 200.277344 183.828125 C 200.316406 183.867188 200.316406 183.785156 200.398438 183.828125 C 200.441406 183.828125 200.441406 183.828125 200.441406 183.828125 C 201.050781 186.753906 201.742188 189.886719 201.742188 192.773438 C 201.742188 194.359375 202.433594 196.066406 203.328125 197.371094 C 203.449219 197.53125 203.9375 197.53125 204.101562 197.652344 C 204.101562 197.695312 204.140625 197.777344 204.140625 197.816406 C 204.179688 197.980469 204.261719 198.101562 204.304688 198.222656 C 204.386719 198.34375 204.464844 198.507812 204.507812 198.628906 C 204.589844 198.753906 204.75 198.996094 204.871094 199.199219 C 204.914062 199.320312 204.996094 199.445312 205.035156 199.523438 C 205.6875 200.5 207.191406 201.355469 208.371094 201.84375 C 208.53125 201.925781 208.734375 201.964844 208.898438 202.046875 C 209.425781 202.207031 211.625 203.835938 213.289062 202.535156 C 213.332031 202.492188 213.371094 202.453125 213.414062 202.414062 C 213.414062 202.414062 213.453125 202.371094 213.453125 202.371094 C 213.492188 202.332031 213.492188 202.332031 213.535156 202.289062 C 213.535156 202.289062 213.574219 202.25 213.574219 202.25 C 213.574219 202.207031 213.617188 202.207031 213.617188 202.167969 C 213.617188 202.167969 213.65625 202.128906 213.65625 202.128906 C 213.65625 202.085938 213.699219 202.085938 213.699219 202.046875 C 213.699219 202.046875 213.699219 202.003906 213.738281 202.003906 C 213.738281 201.964844 213.777344 201.964844 213.777344 201.925781 C 213.777344 201.925781 213.777344 201.882812 213.820312 201.882812 C 213.820312 201.84375 213.859375 201.800781 213.859375 201.800781 C 213.859375 201.800781 213.859375 201.761719 213.859375 201.761719 C 213.859375 201.722656 213.902344 201.679688 213.902344 201.597656 C 213.902344 201.558594 213.941406 201.476562 213.941406 201.4375 C 214.183594 200.175781 213.941406 198.425781 214.59375 197.246094 C 216.339844 194.074219 218.046875 189.277344 220.40625 186.472656 C 221.261719 185.453125 223.132812 182.484375 223.824219 181.386719 C 223.945312 181.183594 227.15625 178.582031 229.679688 176.101562 C 230.371094 175.410156 230.65625 174.3125 231.183594 173.539062 C 233.175781 170.53125 235.046875 167.683594 235.984375 163.941406 C 236.144531 163.289062 236.265625 164.226562 236.308594 164.1875 C 237.082031 163.414062 237.570312 161.542969 237.851562 160.160156 C 237.894531 160.039062 237.933594 159.957031 237.976562 159.835938 C 238.058594 159.632812 238.136719 159.425781 238.21875 159.183594 C 238.382812 158.65625 238.464844 158.167969 238.503906 157.597656 C 238.464844 157.636719 238.464844 157.679688 238.421875 157.71875 C 238.992188 155.890625 239.847656 154.183594 240.578125 152.515625 C 240.578125 152.472656 240.617188 152.472656 240.617188 152.433594 C 240.699219 152.1875 240.820312 151.984375 240.902344 151.742188 C 240.945312 151.699219 240.945312 151.660156 240.984375 151.578125 C 241.066406 151.417969 241.148438 151.214844 241.1875 151.050781 C 241.230469 150.96875 241.230469 150.929688 241.269531 150.847656 C 241.351562 150.601562 241.433594 150.398438 241.511719 150.15625 C 241.796875 149.300781 242.773438 148.8125 243.34375 148.246094 C 244.359375 147.226562 245.171875 145.519531 245.742188 144.179688 C 245.785156 144.054688 245.824219 143.972656 245.863281 143.851562 C 246.515625 143.160156 246.800781 142.671875 247.085938 142.183594 Z M 148.589844 110.425781 C 148.632812 110.425781 148.671875 110.464844 148.710938 110.464844 C 148.792969 110.503906 148.875 110.546875 148.957031 110.585938 L 148.46875 110.503906 C 148.46875 110.425781 148.507812 110.425781 148.589844 110.425781 Z M 148.589844 110.425781 " fill-opacity="1" fill-rule="evenodd"/></g></svg>