<svg xmlns="http://www.w3.org/2000/svg" xmlns:xlink="http://www.w3.org/1999/xlink" width="396" zoomAndPan="magnify" viewBox="0 0 297.12 419.249996" height="559" preserveAspectRatio="xMidYMid meet" version="1.0"><defs><g/><clipPath id="8b9d603d5a"><path d="M 0 0.246094 L 296.238281 0.246094 L 296.238281 417.367188 L 0 417.367188 Z M 0 0.246094 " clip-rule="nonzero"/></clipPath><clipPath id="2d956a6804"><path d="M 30.125 42.132812 L 265.921875 42.132812 L 265.921875 375.683594 L 30.125 375.683594 Z M 30.125 42.132812 " clip-rule="nonzero"/></clipPath><clipPath id="9bda833f92"><path d="M 15 39.304688 L 46 39.304688 L 46 65.421875 L 15 65.421875 Z M 15 39.304688 " clip-rule="nonzero"/></clipPath><clipPath id="ddef2b8cf1"><path d="M 250 352.175781 L 281 352.175781 L 281 378.292969 L 250 378.292969 Z M 250 352.175781 " clip-rule="nonzero"/></clipPath><clipPath id="8b3c300a96"><path d="M 19 361.253906 L 44 361.253906 L 44 382.476562 L 19 382.476562 Z M 19 361.253906 " clip-rule="nonzero"/></clipPath><clipPath id="6052efeedd"><path d="M 252 35.402344 L 277 35.402344 L 277 56.628906 L 252 56.628906 Z M 252 35.402344 " clip-rule="nonzero"/></clipPath><clipPath id="06e5ff6c5f"><path d="M 47 131.582031 L 132 131.582031 L 132 244 L 47 244 Z M 47 131.582031 " clip-rule="nonzero"/></clipPath><clipPath id="e5c6764edc"><path d="M 165.585938 173 L 249.367188 173 L 249.367188 286.042969 L 165.585938 286.042969 Z M 165.585938 173 " clip-rule="nonzero"/></clipPath></defs><g clip-path="url(#8b9d603d5a)"><path fill="#ffffff" d="M 0 0.246094 L 296.238281 0.246094 L 296.238281 417.367188 L 0 417.367188 Z M 0 0.246094 " fill-opacity="1" fill-rule="nonzero"/><path fill="#ffffff" d="M 0 0.246094 L 296.238281 0.246094 L 296.238281 417.367188 L 0 417.367188 Z M 0 0.246094 " fill-opacity="1" fill-rule="nonzero"/></g><g clip-path="url(#2d956a6804)"><path stroke-linecap="butt" transform="matrix(0.746195, 0, 0, 0.746195, 30.125007, 42.134021)" fill="none" stroke-linejoin="miter" d="M -0.00000963595 -0.00161952 L 316.108775 -0.00161952 L 316.108775 447.094563 L -0.00000963595 447.094563 Z M -0.00000963595 -0.00161952 " stroke="#e30613" stroke-width="6" stroke-opacity="1" stroke-miterlimit="4"/></g><g clip-path="url(#9bda833f92)"><path fill="#e30613" d="M 42.875 54.410156 L 30.882812 65.230469 L 30.671875 65.421875 L 30.460938 65.230469 L 18.46875 54.410156 C 14.996094 51.277344 14.640625 45.835938 17.675781 42.25 C 19.328125 40.300781 21.640625 39.304688 23.96875 39.304688 C 25.917969 39.304688 27.875 40.007812 29.460938 41.433594 L 30.671875 42.527344 L 31.882812 41.433594 C 33.46875 40.007812 35.425781 39.304688 37.375 39.304688 C 39.703125 39.304688 42.015625 40.300781 43.667969 42.25 C 46.703125 45.835938 46.347656 51.277344 42.875 54.410156 Z M 42.875 54.410156 " fill-opacity="1" fill-rule="nonzero"/></g><g fill="#e30613" fill-opacity="1"><g transform="translate(18.911079, 29.965277)"><g><path d="M 4.34375 -18.859375 L 2.484375 -18.859375 L 2.484375 -23.265625 C 3.671875 -23.898438 4.863281 -24.382812 6.0625 -24.71875 C 7.257812 -25.050781 8.4375 -25.21875 9.59375 -25.21875 C 12.164062 -25.21875 14.195312 -24.59375 15.6875 -23.34375 C 17.1875 -22.09375 17.9375 -20.394531 17.9375 -18.25 C 17.9375 -15.820312 16.242188 -12.921875 12.859375 -9.546875 C 12.585938 -9.296875 12.382812 -9.101562 12.25 -8.96875 L 6 -2.71875 L 16.34375 -2.71875 L 16.34375 -5.765625 L 18.28125 -5.765625 L 18.28125 0 L 2.3125 0 L 2.3125 -1.8125 L 9.8125 -9.3125 C 11.476562 -10.96875 12.664062 -12.488281 13.375 -13.875 C 14.082031 -15.257812 14.4375 -16.71875 14.4375 -18.25 C 14.4375 -19.914062 14 -21.21875 13.125 -22.15625 C 12.257812 -23.09375 11.0625 -23.5625 9.53125 -23.5625 C 7.957031 -23.5625 6.738281 -23.171875 5.875 -22.390625 C 5.007812 -21.609375 4.5 -20.429688 4.34375 -18.859375 Z M 4.34375 -18.859375 "/></g></g></g><g clip-path="url(#ddef2b8cf1)"><path fill="#e30613" d="M 252.886719 363.1875 L 264.878906 352.371094 L 265.089844 352.179688 L 265.304688 352.371094 L 277.296875 363.1875 C 280.769531 366.320312 281.125 371.765625 278.089844 375.347656 C 276.4375 377.296875 274.121094 378.292969 271.796875 378.292969 C 269.847656 378.292969 267.886719 377.589844 266.304688 376.164062 L 265.09375 375.070312 L 263.878906 376.164062 C 262.296875 377.589844 260.335938 378.292969 258.386719 378.292969 C 256.058594 378.292969 253.746094 377.296875 252.097656 375.347656 C 249.058594 371.765625 249.414062 366.320312 252.886719 363.1875 Z M 252.886719 363.1875 " fill-opacity="1" fill-rule="nonzero"/></g><g fill="#e30613" fill-opacity="1"><g transform="translate(276.852605, 387.634111)"><g><path d="M -4.34375 18.859375 L -2.484375 18.859375 L -2.484375 23.265625 C -3.671875 23.898438 -4.863281 24.382812 -6.0625 24.71875 C -7.257812 25.050781 -8.4375 25.21875 -9.59375 25.21875 C -12.164062 25.21875 -14.195312 24.59375 -15.6875 23.34375 C -17.1875 22.09375 -17.9375 20.394531 -17.9375 18.25 C -17.9375 15.820312 -16.242188 12.921875 -12.859375 9.546875 C -12.585938 9.296875 -12.382812 9.101562 -12.25 8.96875 L -6 2.71875 L -16.34375 2.71875 L -16.34375 5.765625 L -18.28125 5.765625 L -18.28125 0 L -2.3125 0 L -2.3125 1.8125 L -9.8125 9.3125 C -11.476562 10.96875 -12.664062 12.488281 -13.375 13.875 C -14.082031 15.257812 -14.4375 16.71875 -14.4375 18.25 C -14.4375 19.914062 -14 21.21875 -13.125 22.15625 C -12.257812 23.09375 -11.0625 23.5625 -9.53125 23.5625 C -7.957031 23.5625 -6.738281 23.171875 -5.875 22.390625 C -5.007812 21.609375 -4.5 20.429688 -4.34375 18.859375 Z M -4.34375 18.859375 "/></g></g></g><g clip-path="url(#8b3c300a96)"><path fill="#e30613" d="M 21.53125 370.203125 L 31.273438 361.410156 L 31.449219 361.253906 L 31.621094 361.410156 L 41.367188 370.203125 C 44.1875 372.746094 44.476562 377.171875 42.007812 380.085938 C 40.667969 381.667969 38.789062 382.476562 36.898438 382.476562 C 35.3125 382.476562 33.71875 381.90625 32.433594 380.746094 L 31.449219 379.859375 L 30.464844 380.746094 C 29.175781 381.90625 27.582031 382.476562 26 382.476562 C 24.109375 382.476562 22.230469 381.667969 20.886719 380.085938 C 18.417969 377.171875 18.707031 372.746094 21.53125 370.203125 Z M 21.53125 370.203125 " fill-opacity="1" fill-rule="nonzero"/></g><g fill="#e30613" fill-opacity="1"><g transform="translate(41.005478, 390.068299)"><g><path d="M -3.53125 15.3125 L -2.015625 15.3125 L -2.015625 18.90625 C -2.984375 19.414062 -3.953125 19.804688 -4.921875 20.078125 C -5.898438 20.347656 -6.851562 20.484375 -7.78125 20.484375 C -9.875 20.484375 -11.523438 19.972656 -12.734375 18.953125 C -13.953125 17.941406 -14.5625 16.566406 -14.5625 14.828125 C -14.5625 12.859375 -13.1875 10.503906 -10.4375 7.765625 C -10.226562 7.554688 -10.066406 7.398438 -9.953125 7.296875 L -4.875 2.203125 L -13.265625 2.203125 L -13.265625 4.6875 L -14.84375 4.6875 L -14.84375 0 L -1.875 0 L -1.875 1.46875 L -7.96875 7.5625 C -9.320312 8.90625 -10.285156 10.140625 -10.859375 11.265625 C -11.429688 12.398438 -11.71875 13.585938 -11.71875 14.828125 C -11.71875 16.179688 -11.363281 17.238281 -10.65625 18 C -9.957031 18.757812 -8.988281 19.140625 -7.75 19.140625 C -6.46875 19.140625 -5.472656 18.820312 -4.765625 18.1875 C -4.066406 17.550781 -3.65625 16.59375 -3.53125 15.3125 Z M -3.53125 15.3125 "/></g></g></g><g clip-path="url(#6052efeedd)"><path fill="#e30613" d="M 274.363281 47.679688 L 264.617188 56.472656 L 264.445312 56.625 L 264.273438 56.472656 L 254.527344 47.679688 C 251.703125 45.136719 251.417969 40.710938 253.882812 37.796875 C 255.226562 36.214844 257.105469 35.402344 258.996094 35.402344 C 260.582031 35.402344 262.171875 35.976562 263.460938 37.132812 L 264.445312 38.023438 L 265.429688 37.132812 C 266.71875 35.976562 268.308594 35.402344 269.894531 35.402344 C 271.785156 35.402344 273.664062 36.214844 275.003906 37.796875 C 277.472656 40.710938 277.183594 45.136719 274.363281 47.679688 Z M 274.363281 47.679688 " fill-opacity="1" fill-rule="nonzero"/></g><g fill="#e30613" fill-opacity="1"><g transform="translate(254.887026, 27.813812)"><g><path d="M 3.53125 -15.3125 L 2.015625 -15.3125 L 2.015625 -18.90625 C 2.984375 -19.414062 3.953125 -19.804688 4.921875 -20.078125 C 5.898438 -20.347656 6.851562 -20.484375 7.78125 -20.484375 C 9.875 -20.484375 11.523438 -19.972656 12.734375 -18.953125 C 13.953125 -17.941406 14.5625 -16.566406 14.5625 -14.828125 C 14.5625 -12.859375 13.1875 -10.503906 10.4375 -7.765625 C 10.226562 -7.554688 10.066406 -7.398438 9.953125 -7.296875 L 4.875 -2.203125 L 13.265625 -2.203125 L 13.265625 -4.6875 L 14.84375 -4.6875 L 14.84375 0 L 1.875 0 L 1.875 -1.46875 L 7.96875 -7.5625 C 9.320312 -8.90625 10.285156 -10.140625 10.859375 -11.265625 C 11.429688 -12.398438 11.71875 -13.585938 11.71875 -14.828125 C 11.71875 -16.179688 11.363281 -17.238281 10.65625 -18 C 9.957031 -18.757812 8.988281 -19.140625 7.75 -19.140625 C 6.46875 -19.140625 5.472656 -18.820312 4.765625 -18.1875 C 4.066406 -17.550781 3.65625 -16.59375 3.53125 -15.3125 Z M 3.53125 -15.3125 "/></g></g></g><g clip-path="url(#06e5ff6c5f)"><path fill="#e30613" d="M 66.414062 144.949219 C 66.648438 140.175781 69.660156 134.898438 74.46875 133.425781 C 71.6875 136.109375 72.667969 142.117188 73.710938 144.6875 C 71.460938 143.835938 68.671875 143.96875 66.414062 144.949219 Z M 61.019531 158.222656 C 64.621094 147.5625 72.613281 144.289062 78.621094 155.738281 C 81.109375 160.484375 84.160156 168.207031 83.914062 173.617188 C 83.363281 185.863281 69.089844 187.71875 62.808594 177.910156 C 61.46875 175.820312 60.605469 173.4375 60.140625 171.105469 C 59.292969 166.816406 59.675781 162.210938 61.019531 158.222656 Z M 100.894531 140.96875 C 99.578125 136.375 95.445312 131.921875 90.425781 131.582031 C 93.742188 133.5625 94.160156 139.636719 93.726562 142.375 C 95.726562 141.035156 98.472656 140.53125 100.894531 140.96875 Z M 109.167969 152.664062 C 103.238281 143.105469 94.707031 141.738281 91.464844 154.253906 C 90.121094 159.445312 88.914062 167.65625 90.386719 172.871094 C 93.710938 184.671875 108.03125 183.226562 111.910156 172.242188 C 112.742188 169.902344 113.039062 167.386719 112.957031 165.007812 C 112.808594 160.636719 111.386719 156.242188 109.167969 152.664062 Z M 49.453125 178.460938 C 49.304688 174.382812 51.132812 170.015625 55.125 168.421875 C 53.078125 170.636719 54.566406 175.636719 55.535156 177.664062 C 53.628906 177.226562 51.324219 177.535156 49.453125 178.460938 Z M 68.652344 196.894531 C 67.085938 192.886719 64.261719 188.828125 61.285156 186.007812 C 53.386719 178.511719 46.753906 182.046875 47.019531 192.617188 C 47.128906 196.898438 48.453125 201.957031 50.976562 205.671875 C 58.921875 217.367188 74.335938 211.449219 68.652344 196.894531 Z M 125.042969 169.738281 C 124.257812 165.730469 121.480469 161.890625 117.234375 161.253906 C 119.730469 162.941406 119.421875 168.148438 118.9375 170.34375 C 120.695312 169.488281 123.007812 169.257812 125.042969 169.738281 Z M 110.550781 192.058594 C 111.160156 187.800781 112.988281 183.199219 115.238281 179.78125 C 121.222656 170.679688 128.488281 172.609375 130.640625 182.960938 C 131.507812 187.15625 131.371094 192.382812 129.757812 196.574219 C 124.6875 209.773438 108.328125 207.523438 110.550781 192.058594 Z M 76.382812 207.308594 C 73.203125 214.179688 71.644531 215.65625 67.667969 220.339844 C 54.167969 236.25 70.160156 252.277344 86.625 239.027344 C 92.769531 234.089844 95.539062 233.769531 102.648438 237.179688 C 121.699219 246.328125 133.617188 227.078125 116.851562 214.664062 C 111.910156 211.007812 110.058594 209.925781 105.398438 203.957031 C 103.867188 202.007812 102.265625 200.191406 100.480469 198.734375 C 94.214844 193.621094 85.570312 194.304688 80.390625 200.585938 C 78.792969 202.519531 77.523438 204.84375 76.382812 207.308594 " fill-opacity="1" fill-rule="evenodd"/></g><g clip-path="url(#e5c6764edc)"><path fill="#e30613" d="M 233.53125 188.15625 C 233.660156 183.378906 231.054688 177.886719 226.371094 176.054688 C 228.945312 178.9375 227.511719 184.855469 226.273438 187.335938 C 228.582031 186.660156 231.351562 187.007812 233.53125 188.15625 Z M 237.902344 201.796875 C 235.121094 190.898438 227.398438 187.027344 220.539062 197.984375 C 217.699219 202.53125 214.070312 210 213.902344 215.414062 C 213.527344 227.667969 227.617188 230.597656 234.625 221.292969 C 236.117188 219.308594 237.160156 217.003906 237.800781 214.710938 C 238.972656 210.5 238.941406 205.878906 237.902344 201.796875 Z M 199.449219 181.570312 C 201.113281 177.089844 205.570312 172.960938 210.601562 173.007812 C 207.144531 174.726562 206.269531 180.753906 206.492188 183.515625 C 204.597656 182.027344 201.898438 181.316406 199.449219 181.570312 Z M 190.3125 192.601562 C 196.953125 183.523438 205.5625 182.804688 207.84375 195.535156 C 208.789062 200.808594 209.371094 209.089844 207.511719 214.179688 C 203.296875 225.691406 189.128906 223.164062 186.09375 211.914062 C 185.445312 209.519531 185.335938 206.992188 185.597656 204.621094 C 186.078125 200.277344 187.828125 196.003906 190.3125 192.601562 Z M 247.898438 222.855469 C 248.359375 218.800781 246.863281 214.304688 243.003906 212.414062 C 244.878906 214.78125 243.015625 219.652344 241.898438 221.597656 C 243.828125 221.3125 246.105469 221.789062 247.898438 222.855469 Z M 227.359375 239.777344 C 229.222656 235.902344 232.351562 232.070312 235.527344 229.480469 C 243.972656 222.605469 250.320312 226.632812 249.253906 237.152344 C 248.824219 241.417969 247.117188 246.359375 244.320312 249.871094 C 235.507812 260.929688 220.585938 253.859375 227.359375 239.777344 Z M 173.1875 208.421875 C 174.277344 204.488281 177.335938 200.871094 181.621094 200.554688 C 179.003906 202.050781 178.914062 207.269531 179.230469 209.496094 C 177.542969 208.503906 175.253906 208.101562 173.1875 208.421875 Z M 185.949219 231.777344 C 185.660156 227.488281 184.1875 222.761719 182.203125 219.179688 C 176.929688 209.652344 169.539062 211.023438 166.605469 221.1875 C 165.421875 225.304688 165.164062 230.523438 166.449219 234.824219 C 170.507812 248.375 186.988281 247.371094 185.949219 231.777344 Z M 218.859375 249.574219 C 221.511719 256.671875 222.953125 258.261719 226.5625 263.234375 C 238.816406 280.117188 221.652344 294.890625 206.242188 280.429688 C 200.488281 275.035156 197.75 274.507812 190.40625 277.371094 C 170.714844 285.046875 160.292969 264.949219 177.949219 253.84375 C 183.152344 250.570312 185.085938 249.636719 190.1875 244.035156 C 191.855469 242.207031 193.589844 240.515625 195.484375 239.199219 C 202.117188 234.578125 210.683594 235.917969 215.375 242.570312 C 216.820312 244.621094 217.910156 247.03125 218.859375 249.574219 " fill-opacity="1" fill-rule="evenodd"/></g></svg>