<svg xmlns="http://www.w3.org/2000/svg" xmlns:xlink="http://www.w3.org/1999/xlink" width="396" zoomAndPan="magnify" viewBox="0 0 297.12 419.249996" height="559" preserveAspectRatio="xMidYMid meet" version="1.0"><defs><g/><clipPath id="b54b1ad52a"><path d="M 0 0.246094 L 296.238281 0.246094 L 296.238281 417.367188 L 0 417.367188 Z M 0 0.246094 " clip-rule="nonzero"/></clipPath><clipPath id="00d1b7fcc6"><path d="M 30.125 42.132812 L 265.921875 42.132812 L 265.921875 375.683594 L 30.125 375.683594 Z M 30.125 42.132812 " clip-rule="nonzero"/></clipPath><clipPath id="de509e6be9"><path d="M 15 40.152344 L 46 40.152344 L 46 66.269531 L 15 66.269531 Z M 15 40.152344 " clip-rule="nonzero"/></clipPath><clipPath id="9673d461a3"><path d="M 250 351.613281 L 281 351.613281 L 281 377.730469 L 250 377.730469 Z M 250 351.613281 " clip-rule="nonzero"/></clipPath><clipPath id="9e7e73b170"><path d="M 18 361.253906 L 43.921875 361.253906 L 43.921875 382.476562 L 18 382.476562 Z M 18 361.253906 " clip-rule="nonzero"/></clipPath><clipPath id="e96ef7942e"><path d="M 252 35.402344 L 277 35.402344 L 277 56.628906 L 252 56.628906 Z M 252 35.402344 " clip-rule="nonzero"/></clipPath><clipPath id="07bec0f1bd"><path d="M 71 106 L 224 106 L 224 305 L 71 305 Z M 71 106 " clip-rule="nonzero"/></clipPath><clipPath id="1dece103fa"><path d="M 83.355469 97.796875 L 235.386719 114.71875 L 212.519531 320.144531 L 60.488281 303.222656 Z M 83.355469 97.796875 " clip-rule="nonzero"/></clipPath><clipPath id="fd6530cd44"><path d="M 83.355469 97.796875 L 446.746094 138.242188 L 415.875 415.605469 L 52.484375 375.160156 Z M 83.355469 97.796875 " clip-rule="nonzero"/></clipPath></defs><g clip-path="url(#b54b1ad52a)"><path fill="#ffffff" d="M 0 0.246094 L 296.238281 0.246094 L 296.238281 417.367188 L 0 417.367188 Z M 0 0.246094 " fill-opacity="1" fill-rule="nonzero"/><path fill="#ffffff" d="M 0 0.246094 L 296.238281 0.246094 L 296.238281 417.367188 L 0 417.367188 Z M 0 0.246094 " fill-opacity="1" fill-rule="nonzero"/></g><g clip-path="url(#00d1b7fcc6)"><path stroke-linecap="butt" transform="matrix(0.746195, 0, 0, 0.746195, 30.125007, 42.134083)" fill="none" stroke-linejoin="miter" d="M -0.00000963595 -0.0017029 L 316.108775 -0.0017029 L 316.108775 447.09448 L -0.00000963595 447.09448 Z M -0.00000963595 -0.0017029 " stroke="#e30613" stroke-width="6" stroke-opacity="1" stroke-miterlimit="4"/></g><g clip-path="url(#de509e6be9)"><path fill="#e30613" d="M 42.875 55.257812 L 30.882812 66.074219 L 30.671875 66.265625 L 30.460938 66.074219 L 18.46875 55.257812 C 14.996094 52.125 14.640625 46.679688 17.675781 43.097656 C 19.328125 41.148438 21.640625 40.152344 23.96875 40.152344 C 25.917969 40.152344 27.875 40.855469 29.460938 42.28125 L 30.671875 43.375 L 31.882812 42.28125 C 33.46875 40.855469 35.425781 40.152344 37.375 40.152344 C 39.703125 40.152344 42.015625 41.148438 43.667969 43.097656 C 46.703125 46.679688 46.347656 52.125 42.875 55.257812 Z M 42.875 55.257812 " fill-opacity="1" fill-rule="nonzero"/></g><g fill="#e30613" fill-opacity="1"><g transform="translate(18.911079, 30.811374)"><g><path d="M 6.796875 -8.96875 L 15.890625 -8.96875 L 11.34375 -20.75 Z M -0.203125 0 L -0.203125 -1.765625 L 1.96875 -1.765625 L 10.796875 -24.765625 L 13.578125 -24.765625 L 22.421875 -1.765625 L 24.859375 -1.765625 L 24.859375 0 L 15.859375 0 L 15.859375 -1.765625 L 18.609375 -1.765625 L 16.53125 -7.203125 L 6.125 -7.203125 L 4.046875 -1.765625 L 6.765625 -1.765625 L 6.765625 0 Z M -0.203125 0 "/></g></g></g><g clip-path="url(#9673d461a3)"><path fill="#e30613" d="M 253.191406 362.625 L 265.183594 351.804688 L 265.394531 351.613281 L 265.605469 351.804688 L 277.597656 362.625 C 281.070312 365.757812 281.425781 371.199219 278.390625 374.785156 C 276.738281 376.734375 274.425781 377.730469 272.101562 377.730469 C 270.148438 377.730469 268.191406 377.027344 266.605469 375.601562 L 265.394531 374.507812 L 264.183594 375.601562 C 262.597656 377.027344 260.640625 377.730469 258.691406 377.730469 C 256.363281 377.730469 254.050781 376.734375 252.398438 374.785156 C 249.363281 371.199219 249.71875 365.757812 253.191406 362.625 Z M 253.191406 362.625 " fill-opacity="1" fill-rule="nonzero"/></g><g fill="#e30613" fill-opacity="1"><g transform="translate(277.155456, 387.070053)"><g><path d="M -6.796875 8.96875 L -15.890625 8.96875 L -11.34375 20.75 Z M 0.203125 0 L 0.203125 1.765625 L -1.96875 1.765625 L -10.796875 24.765625 L -13.578125 24.765625 L -22.421875 1.765625 L -24.859375 1.765625 L -24.859375 0 L -15.859375 0 L -15.859375 1.765625 L -18.609375 1.765625 L -16.53125 7.203125 L -6.125 7.203125 L -4.046875 1.765625 L -6.765625 1.765625 L -6.765625 0 Z M 0.203125 0 "/></g></g></g><g clip-path="url(#9e7e73b170)"><path fill="#e30613" d="M 20.964844 370.203125 L 30.710938 361.410156 L 30.882812 361.253906 L 31.054688 361.410156 L 40.800781 370.203125 C 43.625 372.746094 43.914062 377.171875 41.445312 380.085938 C 40.105469 381.667969 38.222656 382.476562 36.332031 382.476562 C 34.746094 382.476562 33.15625 381.90625 31.867188 380.746094 L 30.882812 379.859375 L 29.898438 380.746094 C 28.613281 381.90625 27.019531 382.476562 25.4375 382.476562 C 23.542969 382.476562 21.664062 381.667969 20.324219 380.085938 C 17.855469 377.171875 18.144531 372.746094 20.964844 370.203125 Z M 20.964844 370.203125 " fill-opacity="1" fill-rule="nonzero"/></g><g fill="#e30613" fill-opacity="1"><g transform="translate(40.441425, 390.068227)"><g><path d="M -5.53125 7.296875 L -12.90625 7.296875 L -9.21875 16.859375 Z M 0.15625 0 L 0.15625 1.421875 L -1.609375 1.421875 L -8.765625 20.109375 L -11.03125 20.109375 L -18.21875 1.421875 L -20.203125 1.421875 L -20.203125 0 L -12.875 0 L -12.875 1.421875 L -15.125 1.421875 L -13.4375 5.84375 L -4.96875 5.84375 L -3.28125 1.421875 L -5.5 1.421875 L -5.5 0 Z M 0.15625 0 "/></g></g></g><g clip-path="url(#e96ef7942e)"><path fill="#e30613" d="M 274.644531 47.679688 L 264.898438 56.472656 L 264.726562 56.628906 L 264.554688 56.472656 L 254.808594 47.679688 C 251.988281 45.136719 251.699219 40.710938 254.164062 37.796875 C 255.507812 36.214844 257.386719 35.402344 259.277344 35.402344 C 260.863281 35.402344 262.453125 35.976562 263.742188 37.132812 L 264.726562 38.023438 L 265.710938 37.132812 C 267 35.976562 268.589844 35.402344 270.175781 35.402344 C 272.066406 35.402344 273.945312 36.214844 275.289062 37.796875 C 277.753906 40.710938 277.46875 45.136719 274.644531 47.679688 Z M 274.644531 47.679688 " fill-opacity="1" fill-rule="nonzero"/></g><g fill="#e30613" fill-opacity="1"><g transform="translate(255.169052, 27.813899)"><g><path d="M 5.53125 -7.296875 L 12.90625 -7.296875 L 9.21875 -16.859375 Z M -0.15625 0 L -0.15625 -1.421875 L 1.609375 -1.421875 L 8.765625 -20.109375 L 11.03125 -20.109375 L 18.21875 -1.421875 L 20.203125 -1.421875 L 20.203125 0 L 12.875 0 L 12.875 -1.421875 L 15.125 -1.421875 L 13.4375 -5.84375 L 4.96875 -5.84375 L 3.28125 -1.421875 L 5.5 -1.421875 L 5.5 0 Z M -0.15625 0 "/></g></g></g><g clip-path="url(#07bec0f1bd)"><g clip-path="url(#1dece103fa)"><g clip-path="url(#fd6530cd44)"><path fill="#e30613" d="M 116.167969 125.6875 C 117.542969 117.1875 123.992188 108.328125 132.898438 106.648438 C 127.378906 110.902344 127.9375 121.863281 129.296875 126.671875 C 125.433594 124.703125 120.414062 124.386719 116.167969 125.6875 Z M 103.863281 148.390625 C 112.4375 130.011719 127.410156 125.746094 135.886719 147.449219 C 139.398438 156.445312 143.324219 170.886719 141.808594 180.535156 C 138.371094 202.363281 112.4375 202.839844 103.140625 184.015625 C 101.160156 180.003906 100.085938 175.566406 99.71875 171.292969 C 99.054688 163.441406 100.65625 155.269531 103.863281 148.390625 Z M 178.730469 125.433594 C 177.289062 116.945312 170.773438 108.140625 161.851562 106.53125 C 167.398438 110.742188 166.933594 121.703125 165.613281 126.523438 C 169.460938 124.523438 174.476562 124.164062 178.730469 125.433594 Z M 191.21875 148.03125 C 182.503906 129.726562 167.492188 125.578125 159.195312 147.351562 C 155.753906 156.382812 151.949219 170.855469 153.546875 180.484375 C 157.152344 202.289062 183.09375 202.554688 192.234375 183.648438 C 194.183594 179.625 195.222656 175.175781 195.550781 170.898438 C 196.152344 163.042969 194.484375 154.886719 191.21875 148.03125 Z M 79.105469 182.339844 C 79.65625 175.007812 83.800781 167.542969 91.269531 165.484375 C 87.160156 169.046875 88.828125 178.300781 90.160156 182.121094 C 86.832031 180.960938 82.648438 181.050781 79.105469 182.339844 Z M 109.820312 219.1875 C 107.816406 211.695312 103.5625 203.859375 98.800781 198.214844 C 86.144531 183.214844 73.558594 188.222656 71.925781 207.214844 C 71.265625 214.902344 72.628906 224.226562 76.410156 231.382812 C 88.3125 253.917969 117.105469 246.390625 109.820312 219.1875 Z M 216.257812 181.78125 C 215.648438 174.449219 211.4375 167.019531 203.957031 165.027344 C 208.09375 168.550781 206.503906 177.820312 205.199219 181.65625 C 208.515625 180.46875 212.703125 180.519531 216.257812 181.78125 Z M 185.84375 218.875 C 187.785156 211.371094 191.976562 203.496094 196.6875 197.816406 C 209.222656 182.710938 221.851562 187.613281 223.644531 206.589844 C 224.363281 214.277344 223.074219 223.609375 219.351562 230.800781 C 207.636719 253.433594 178.78125 246.140625 185.84375 218.875 Z M 121.59375 239.382812 C 114.527344 251.058594 111.441406 253.394531 103.382812 260.992188 C 76.035156 286.796875 101.484375 318.699219 133.621094 298.246094 C 145.609375 290.621094 150.636719 290.601562 162.6875 298.132812 C 194.996094 318.320312 220.183594 286.207031 192.621094 260.628906 C 184.503906 253.097656 181.398438 250.785156 174.238281 239.167969 C 171.890625 235.367188 169.378906 231.792969 166.472656 228.828125 C 156.269531 218.417969 140.648438 217.925781 130.117188 228.136719 C 126.867188 231.285156 124.128906 235.199219 121.59375 239.382812 " fill-opacity="1" fill-rule="evenodd"/></g></g></g></svg>