<svg xmlns="http://www.w3.org/2000/svg" xmlns:xlink="http://www.w3.org/1999/xlink" width="396" zoomAndPan="magnify" viewBox="0 0 297.12 419.249996" height="559" preserveAspectRatio="xMidYMid meet" version="1.0"><defs><g/><clipPath id="7a7843083c"><path d="M 0 0.246094 L 296.238281 0.246094 L 296.238281 417.367188 L 0 417.367188 Z M 0 0.246094 " clip-rule="nonzero"/></clipPath><clipPath id="fc5af61b1f"><path d="M 30.125 42.132812 L 265.921875 42.132812 L 265.921875 375.683594 L 30.125 375.683594 Z M 30.125 42.132812 " clip-rule="nonzero"/></clipPath><clipPath id="ad4c95e1ea"><path d="M 15 39.304688 L 46 39.304688 L 46 65.421875 L 15 65.421875 Z M 15 39.304688 " clip-rule="nonzero"/></clipPath><clipPath id="4ffe866b52"><path d="M 250 351.613281 L 281 351.613281 L 281 377.730469 L 250 377.730469 Z M 250 351.613281 " clip-rule="nonzero"/></clipPath><clipPath id="a086b3d519"><path d="M 18 361.253906 L 43.921875 361.253906 L 43.921875 382.476562 L 18 382.476562 Z M 18 361.253906 " clip-rule="nonzero"/></clipPath><clipPath id="ab5142cf7e"><path d="M 252 35.402344 L 277 35.402344 L 277 56.628906 L 252 56.628906 Z M 252 35.402344 " clip-rule="nonzero"/></clipPath><clipPath id="ea801f67c7"><path d="M 65.207031 102.03125 L 230 102.03125 L 230 316 L 65.207031 316 Z M 65.207031 102.03125 " clip-rule="nonzero"/></clipPath></defs><g clip-path="url(#7a7843083c)"><path fill="#ffffff" d="M 0 0.246094 L 296.238281 0.246094 L 296.238281 417.367188 L 0 417.367188 Z M 0 0.246094 " fill-opacity="1" fill-rule="nonzero"/><path fill="#ffffff" d="M 0 0.246094 L 296.238281 0.246094 L 296.238281 417.367188 L 0 417.367188 Z M 0 0.246094 " fill-opacity="1" fill-rule="nonzero"/></g><g clip-path="url(#fc5af61b1f)"><path stroke-linecap="butt" transform="matrix(0.746195, 0, 0, 0.746195, 30.125007, 42.134021)" fill="none" stroke-linejoin="miter" d="M -0.00000963595 -0.00161952 L 316.108775 -0.00161952 L 316.108775 447.094563 L -0.00000963595 447.094563 Z M -0.00000963595 -0.00161952 " stroke="#e30613" stroke-width="6" stroke-opacity="1" stroke-miterlimit="4"/></g><g clip-path="url(#ad4c95e1ea)"><path fill="#e30613" d="M 42.875 54.410156 L 30.882812 65.230469 L 30.671875 65.421875 L 30.460938 65.230469 L 18.46875 54.410156 C 14.996094 51.277344 14.640625 45.835938 17.675781 42.25 C 19.328125 40.300781 21.640625 39.304688 23.96875 39.304688 C 25.917969 39.304688 27.875 40.007812 29.460938 41.433594 L 30.671875 42.527344 L 31.882812 41.433594 C 33.46875 40.007812 35.425781 39.304688 37.375 39.304688 C 39.703125 39.304688 42.015625 40.300781 43.667969 42.25 C 46.703125 45.835938 46.347656 51.277344 42.875 54.410156 Z M 42.875 54.410156 " fill-opacity="1" fill-rule="nonzero"/></g><g fill="#e30613" fill-opacity="1"><g transform="translate(18.911079, 29.965277)"><g><path d="M 14.328125 0.484375 C 10.535156 0.484375 7.515625 -0.675781 5.265625 -3 C 3.023438 -5.332031 1.90625 -8.453125 1.90625 -12.359375 C 1.90625 -14.359375 2.207031 -16.144531 2.8125 -17.71875 C 3.414062 -19.300781 4.335938 -20.707031 5.578125 -21.9375 C 6.660156 -23.019531 7.894531 -23.835938 9.28125 -24.390625 C 10.675781 -24.941406 12.226562 -25.21875 13.9375 -25.21875 C 17.53125 -25.21875 20.429688 -24.035156 22.640625 -21.671875 C 24.847656 -19.316406 25.953125 -16.210938 25.953125 -12.359375 C 25.953125 -9.085938 25.125 -6.335938 23.46875 -4.109375 C 21.8125 -1.878906 19.523438 -0.441406 16.609375 0.203125 C 17.203125 0.941406 17.925781 1.488281 18.78125 1.84375 C 19.632812 2.195312 20.664062 2.375 21.875 2.375 L 22.390625 2.375 L 22.390625 5.4375 C 20.523438 5.351562 18.925781 4.898438 17.59375 4.078125 C 16.257812 3.253906 15.171875 2.054688 14.328125 0.484375 Z M 13.9375 -1.296875 C 16.644531 -1.296875 18.6875 -2.226562 20.0625 -4.09375 C 21.445312 -5.957031 22.140625 -8.710938 22.140625 -12.359375 C 22.140625 -16.015625 21.445312 -18.773438 20.0625 -20.640625 C 18.6875 -22.503906 16.644531 -23.4375 13.9375 -23.4375 C 11.21875 -23.4375 9.164062 -22.503906 7.78125 -20.640625 C 6.394531 -18.773438 5.703125 -16.015625 5.703125 -12.359375 C 5.703125 -8.710938 6.394531 -5.957031 7.78125 -4.09375 C 9.164062 -2.226562 11.21875 -1.296875 13.9375 -1.296875 Z M 13.9375 -1.296875 "/></g></g></g><g clip-path="url(#4ffe866b52)"><path fill="#e30613" d="M 252.90625 362.625 L 264.898438 351.804688 L 265.113281 351.613281 L 265.324219 351.804688 L 277.316406 362.625 C 280.789062 365.757812 281.144531 371.199219 278.109375 374.785156 C 276.457031 376.734375 274.144531 377.730469 271.816406 377.730469 C 269.867188 377.730469 267.910156 377.027344 266.324219 375.601562 L 265.113281 374.507812 L 263.902344 375.601562 C 262.316406 377.027344 260.359375 377.730469 258.410156 377.730469 C 256.082031 377.730469 253.769531 376.734375 252.117188 374.785156 C 249.082031 371.199219 249.4375 365.757812 252.90625 362.625 Z M 252.90625 362.625 " fill-opacity="1" fill-rule="nonzero"/></g><g fill="#e30613" fill-opacity="1"><g transform="translate(276.87343, 387.070101)"><g><path d="M -14.328125 -0.484375 C -10.535156 -0.484375 -7.515625 0.675781 -5.265625 3 C -3.023438 5.332031 -1.90625 8.453125 -1.90625 12.359375 C -1.90625 14.359375 -2.207031 16.144531 -2.8125 17.71875 C -3.414062 19.300781 -4.335938 20.707031 -5.578125 21.9375 C -6.660156 23.019531 -7.894531 23.835938 -9.28125 24.390625 C -10.675781 24.941406 -12.226562 25.21875 -13.9375 25.21875 C -17.53125 25.21875 -20.429688 24.035156 -22.640625 21.671875 C -24.847656 19.316406 -25.953125 16.210938 -25.953125 12.359375 C -25.953125 9.085938 -25.125 6.335938 -23.46875 4.109375 C -21.8125 1.878906 -19.523438 0.441406 -16.609375 -0.203125 C -17.203125 -0.941406 -17.925781 -1.488281 -18.78125 -1.84375 C -19.632812 -2.195312 -20.664062 -2.375 -21.875 -2.375 L -22.390625 -2.375 L -22.390625 -5.4375 C -20.523438 -5.351562 -18.925781 -4.898438 -17.59375 -4.078125 C -16.257812 -3.253906 -15.171875 -2.054688 -14.328125 -0.484375 Z M -13.9375 1.296875 C -16.644531 1.296875 -18.6875 2.226562 -20.0625 4.09375 C -21.445312 5.957031 -22.140625 8.710938 -22.140625 12.359375 C -22.140625 16.015625 -21.445312 18.773438 -20.0625 20.640625 C -18.6875 22.503906 -16.644531 23.4375 -13.9375 23.4375 C -11.21875 23.4375 -9.164062 22.503906 -7.78125 20.640625 C -6.394531 18.773438 -5.703125 16.015625 -5.703125 12.359375 C -5.703125 8.710938 -6.394531 5.957031 -7.78125 4.09375 C -9.164062 2.226562 -11.21875 1.296875 -13.9375 1.296875 Z M -13.9375 1.296875 "/></g></g></g><g clip-path="url(#a086b3d519)"><path fill="#e30613" d="M 20.964844 370.203125 L 30.710938 361.410156 L 30.882812 361.253906 L 31.054688 361.410156 L 40.800781 370.203125 C 43.625 372.746094 43.914062 377.171875 41.445312 380.085938 C 40.105469 381.667969 38.222656 382.476562 36.332031 382.476562 C 34.746094 382.476562 33.15625 381.90625 31.867188 380.746094 L 30.882812 379.859375 L 29.898438 380.746094 C 28.613281 381.90625 27.019531 382.476562 25.4375 382.476562 C 23.542969 382.476562 21.664062 381.667969 20.324219 380.085938 C 17.855469 377.171875 18.144531 372.746094 20.964844 370.203125 Z M 20.964844 370.203125 " fill-opacity="1" fill-rule="nonzero"/></g><g fill="#e30613" fill-opacity="1"><g transform="translate(40.441425, 390.068299)"><g><path d="M -11.640625 -0.390625 C -8.554688 -0.390625 -6.101562 0.550781 -4.28125 2.4375 C -2.457031 4.332031 -1.546875 6.863281 -1.546875 10.03125 C -1.546875 11.65625 -1.789062 13.109375 -2.28125 14.390625 C -2.769531 15.671875 -3.519531 16.816406 -4.53125 17.828125 C -5.40625 18.703125 -6.410156 19.363281 -7.546875 19.8125 C -8.679688 20.257812 -9.9375 20.484375 -11.3125 20.484375 C -14.238281 20.484375 -16.597656 19.523438 -18.390625 17.609375 C -20.191406 15.691406 -21.09375 13.164062 -21.09375 10.03125 C -21.09375 7.375 -20.414062 5.140625 -19.0625 3.328125 C -17.71875 1.523438 -15.859375 0.363281 -13.484375 -0.15625 C -13.972656 -0.757812 -14.5625 -1.203125 -15.25 -1.484375 C -15.945312 -1.773438 -16.785156 -1.921875 -17.765625 -1.921875 L -18.1875 -1.921875 L -18.1875 -4.421875 C -16.664062 -4.347656 -15.363281 -3.972656 -14.28125 -3.296875 C -13.207031 -2.628906 -12.328125 -1.660156 -11.640625 -0.390625 Z M -11.3125 1.046875 C -13.519531 1.046875 -15.179688 1.800781 -16.296875 3.3125 C -17.421875 4.832031 -17.984375 7.070312 -17.984375 10.03125 C -17.984375 13.007812 -17.421875 15.253906 -16.296875 16.765625 C -15.179688 18.273438 -13.519531 19.03125 -11.3125 19.03125 C -9.101562 19.03125 -7.4375 18.273438 -6.3125 16.765625 C -5.195312 15.253906 -4.640625 13.007812 -4.640625 10.03125 C -4.640625 7.070312 -5.195312 4.832031 -6.3125 3.3125 C -7.4375 1.800781 -9.101562 1.046875 -11.3125 1.046875 Z M -11.3125 1.046875 "/></g></g></g><g clip-path="url(#ab5142cf7e)"><path fill="#e30613" d="M 274.363281 47.679688 L 264.617188 56.472656 L 264.445312 56.625 L 264.273438 56.472656 L 254.527344 47.679688 C 251.703125 45.136719 251.417969 40.710938 253.882812 37.796875 C 255.226562 36.214844 257.105469 35.402344 258.996094 35.402344 C 260.582031 35.402344 262.171875 35.976562 263.460938 37.132812 L 264.445312 38.023438 L 265.429688 37.132812 C 266.71875 35.976562 268.308594 35.402344 269.894531 35.402344 C 271.785156 35.402344 273.664062 36.214844 275.003906 37.796875 C 277.472656 40.710938 277.183594 45.136719 274.363281 47.679688 Z M 274.363281 47.679688 " fill-opacity="1" fill-rule="nonzero"/></g><g fill="#e30613" fill-opacity="1"><g transform="translate(254.887026, 27.813812)"><g><path d="M 11.640625 0.390625 C 8.554688 0.390625 6.101562 -0.550781 4.28125 -2.4375 C 2.457031 -4.332031 1.546875 -6.863281 1.546875 -10.03125 C 1.546875 -11.65625 1.789062 -13.109375 2.28125 -14.390625 C 2.769531 -15.671875 3.519531 -16.816406 4.53125 -17.828125 C 5.40625 -18.703125 6.410156 -19.363281 7.546875 -19.8125 C 8.679688 -20.257812 9.9375 -20.484375 11.3125 -20.484375 C 14.238281 -20.484375 16.597656 -19.523438 18.390625 -17.609375 C 20.191406 -15.691406 21.09375 -13.164062 21.09375 -10.03125 C 21.09375 -7.375 20.414062 -5.140625 19.0625 -3.328125 C 17.71875 -1.523438 15.859375 -0.363281 13.484375 0.15625 C 13.972656 0.757812 14.5625 1.203125 15.25 1.484375 C 15.945312 1.773438 16.785156 1.921875 17.765625 1.921875 L 18.1875 1.921875 L 18.1875 4.421875 C 16.664062 4.347656 15.363281 3.972656 14.28125 3.296875 C 13.207031 2.628906 12.328125 1.660156 11.640625 0.390625 Z M 11.3125 -1.046875 C 13.519531 -1.046875 15.179688 -1.800781 16.296875 -3.3125 C 17.421875 -4.832031 17.984375 -7.070312 17.984375 -10.03125 C 17.984375 -13.007812 17.421875 -15.253906 16.296875 -16.765625 C 15.179688 -18.273438 13.519531 -19.03125 11.3125 -19.03125 C 9.101562 -19.03125 7.4375 -18.273438 6.3125 -16.765625 C 5.195312 -15.253906 4.640625 -13.007812 4.640625 -10.03125 C 4.640625 -7.070312 5.195312 -4.832031 6.3125 -3.3125 C 7.4375 -1.800781 9.101562 -1.046875 11.3125 -1.046875 Z M 11.3125 -1.046875 "/></g></g></g><g clip-path="url(#ea801f67c7)"><path fill="#e30613" d="M 150.421875 313.5625 C 149.441406 313.667969 148.46875 313.78125 147.496094 313.898438 C 148.957031 312.972656 150.421875 312.050781 151.878906 311.121094 C 144.316406 311.964844 136.753906 312.800781 129.1875 313.644531 C 130.722656 312.910156 132.265625 312.171875 133.800781 311.4375 C 130.296875 311.992188 126.785156 312.558594 123.28125 313.113281 C 125.109375 312.335938 126.855469 311.355469 128.46875 310.203125 C 119.515625 311.503906 110.542969 311.402344 101.769531 309.089844 C 103.078125 308.746094 104.386719 308.390625 105.695312 308.042969 C 101.597656 308.027344 97.039062 307.824219 93.082031 306.792969 C 94.65625 306.21875 96.273438 305.757812 97.910156 305.421875 C 95.613281 304.863281 93.269531 304.496094 90.90625 304.3125 C 92.660156 303.65625 94.457031 303.105469 96.277344 302.664062 C 89.871094 301.125 83.476562 299.550781 77.085938 297.941406 C 79.738281 297.945312 82.382812 296.996094 84.421875 295.300781 C 82.554688 294.832031 80.636719 294.566406 78.714844 294.503906 C 80.660156 293.792969 82.605469 293.082031 84.550781 292.371094 C 81.15625 291.867188 77.730469 291.585938 74.296875 291.523438 C 77.710938 289.167969 80.996094 286.617188 84.125 283.898438 C 82.167969 284.121094 80.238281 284.636719 78.429688 285.417969 C 81.261719 283.273438 84.277344 281.378906 87.441406 279.753906 C 85.410156 280.210938 83.449219 280.972656 81.636719 281.996094 C 88.113281 276.152344 96.367188 272.308594 105.011719 271.105469 C 102.917969 270.792969 100.828125 270.488281 98.734375 270.175781 C 102.929688 268.867188 107.355469 268.3125 111.742188 268.535156 C 110.132812 268.113281 108.523438 267.699219 106.917969 267.277344 C 110.261719 267.003906 113.625 266.917969 116.984375 267.011719 C 118.554688 267.054688 120.292969 267.402344 121.851562 267.238281 C 122.894531 267.128906 123.828125 266.78125 124.914062 266.765625 C 127.09375 266.738281 130.773438 266.425781 132.773438 267.414062 C 131.839844 266.953125 130.90625 266.492188 129.972656 266.03125 C 134.445312 265.90625 138.074219 266.679688 142.351562 267.902344 C 139.371094 265.726562 135.957031 264.148438 132.367188 263.296875 C 132.917969 264.023438 133.609375 264.648438 134.382812 265.136719 C 131.78125 264.4375 129.300781 263.589844 126.59375 263.550781 C 127.863281 260.683594 129.535156 257.769531 130.222656 254.703125 C 130.820312 252.039062 131.429688 248.996094 131.496094 246.28125 C 131.59375 242.375 130.234375 237.914062 129.578125 234.054688 C 129.273438 232.257812 128.953125 230.449219 128.332031 228.730469 C 126.886719 224.753906 123.753906 221.414062 119.867188 219.730469 C 119.765625 220.484375 119.667969 221.242188 119.566406 222 C 117.511719 219.386719 115.875 216.445312 114.734375 213.328125 C 114.585938 214.648438 114.34375 215.957031 114 217.242188 C 111.75 213.257812 110.007812 208.988281 108.839844 204.558594 C 108.492188 205.628906 108.273438 206.734375 108.179688 207.855469 C 106.691406 204.757812 105.984375 201.292969 106.15625 197.863281 C 105.84375 198.90625 105.523438 199.953125 105.210938 200.992188 C 104.085938 197.492188 103.425781 193.847656 103.246094 190.171875 C 103.171875 188.675781 103.382812 187.21875 103.300781 185.753906 C 103.191406 183.984375 102.804688 182.214844 102.679688 180.441406 C 102.496094 177.824219 103.121094 176.542969 101.625 174.222656 C 100.398438 172.316406 98.472656 170.761719 97.582031 168.703125 C 97.960938 169.585938 103.054688 165.285156 103.371094 164.902344 C 98.734375 168.03125 92.386719 166.796875 87.167969 168.515625 C 87.550781 168.78125 87.828125 169.191406 87.949219 169.640625 C 86.632812 169.300781 85.273438 169.101562 83.914062 169.0625 C 84.328125 169.476562 84.589844 170.046875 84.628906 170.632812 C 82.242188 170.90625 79.777344 170.507812 77.59375 169.5 C 76.964844 169.210938 76.359375 168.875 75.679688 168.742188 C 75.152344 168.640625 74.601562 168.667969 74.070312 168.5625 C 73.007812 168.351562 72.128906 167.617188 71.304688 166.910156 C 69.230469 165.175781 67.140625 163.382812 65.679688 161.101562 C 65.460938 160.761719 65.246094 160.363281 65.335938 159.96875 C 65.4375 159.539062 65.859375 159.269531 66.242188 159.046875 C 69.300781 157.261719 72.238281 155.269531 75.019531 153.078125 C 77.78125 150.910156 80.503906 148.390625 81.609375 145.058594 C 82.265625 143.066406 82.292969 140.933594 82.589844 138.859375 C 83.140625 135.03125 85.785156 131.238281 87.726562 127.90625 C 89.65625 124.597656 92.179688 121.742188 96.078125 120.898438 C 98.070312 117.3125 97.734375 112.363281 97.109375 108.425781 C 96.8125 106.867188 95.890625 103.027344 98.144531 102.480469 C 100 102.03125 102.621094 105.207031 103.652344 106.308594 C 105.910156 108.746094 107.8125 111.476562 109.507812 114.320312 C 111.839844 118.234375 112.324219 122.171875 113.476562 126.589844 C 114.449219 124.699219 114.828125 122.503906 114.542969 120.398438 C 124.59375 121.582031 132.382812 127.582031 139.144531 134.84375 C 142.5625 138.519531 145.664062 142.484375 148.582031 146.566406 C 150.820312 149.6875 155.03125 154.074219 156.09375 157.785156 C 163.113281 178.34375 179.808594 192.433594 193.75 206.660156 C 203.121094 212.191406 209.328125 221.292969 212.273438 231.65625 C 213.71875 236.746094 214.429688 242.03125 214.640625 247.320312 C 214.835938 252.210938 211.164062 260.757812 214.824219 264.65625 C 218.363281 268.425781 223.589844 268.5625 226.6875 273.746094 C 230.21875 279.664062 230.878906 287.691406 225.734375 292.921875 C 224.035156 296.777344 220.421875 299.941406 217.277344 302.652344 C 215.613281 304.078125 213.832031 305.363281 211.957031 306.492188 C 210.976562 307.078125 209.96875 307.625 208.941406 308.117188 C 208.3125 308.421875 206.75 308.757812 206.324219 309.261719 C 207.136719 308.304688 208.3125 307.667969 209.566406 307.511719 C 201.949219 310.789062 194.03125 313.371094 185.941406 315.203125 C 186.585938 314.554688 187.234375 313.90625 187.875 313.261719 C 185.644531 313.96875 183.421875 314.671875 181.191406 315.378906 C 182.148438 314.753906 183.109375 314.132812 184.066406 313.507812 C 181.980469 314.390625 179.804688 315.050781 177.582031 315.476562 C 178.890625 314.640625 180.203125 313.808594 181.503906 312.972656 C 178.011719 313.667969 174.523438 314.359375 171.03125 315.054688 C 172.441406 314.359375 173.851562 313.667969 175.261719 312.972656 C 167.722656 313.933594 160.191406 314.890625 152.652344 315.851562 C 154.574219 315.277344 156.367188 314.28125 157.863281 312.949219 C 155.375 313.097656 152.894531 313.300781 150.421875 313.5625 Z M 150.421875 313.5625 " fill-opacity="1" fill-rule="nonzero"/></g></svg>