<svg xmlns="http://www.w3.org/2000/svg" xmlns:xlink="http://www.w3.org/1999/xlink" width="396" zoomAndPan="magnify" viewBox="0 0 297.12 419.249996" height="559" preserveAspectRatio="xMidYMid meet" version="1.0"><defs><g/><clipPath id="12c2bc45ed"><path d="M 0 0.246094 L 296.238281 0.246094 L 296.238281 417.367188 L 0 417.367188 Z M 0 0.246094 " clip-rule="nonzero"/></clipPath><clipPath id="b25e267546"><path d="M 30.125 42.132812 L 265.921875 42.132812 L 265.921875 375.683594 L 30.125 375.683594 Z M 30.125 42.132812 " clip-rule="nonzero"/></clipPath><clipPath id="03ec5884b0"><path d="M 15 39.304688 L 46 39.304688 L 46 65.421875 L 15 65.421875 Z M 15 39.304688 " clip-rule="nonzero"/></clipPath><clipPath id="e9d8665f03"><path d="M 250 351.894531 L 281 351.894531 L 281 378.011719 L 250 378.011719 Z M 250 351.894531 " clip-rule="nonzero"/></clipPath><clipPath id="431169d906"><path d="M 18.128906 361.253906 L 44 361.253906 L 44 382.476562 L 18.128906 382.476562 Z M 18.128906 361.253906 " clip-rule="nonzero"/></clipPath><clipPath id="3d8ce9ee17"><path d="M 252 35.402344 L 277 35.402344 L 277 56.628906 L 252 56.628906 Z M 252 35.402344 " clip-rule="nonzero"/></clipPath><clipPath id="05b1d3e6a9"><path d="M 44.632812 150.894531 L 251 150.894531 L 251 267 L 44.632812 267 Z M 44.632812 150.894531 " clip-rule="nonzero"/></clipPath></defs><g clip-path="url(#12c2bc45ed)"><path fill="#ffffff" d="M 0 0.246094 L 296.238281 0.246094 L 296.238281 417.367188 L 0 417.367188 Z M 0 0.246094 " fill-opacity="1" fill-rule="nonzero"/><path fill="#ffffff" d="M 0 0.246094 L 296.238281 0.246094 L 296.238281 417.367188 L 0 417.367188 Z M 0 0.246094 " fill-opacity="1" fill-rule="nonzero"/></g><g clip-path="url(#b25e267546)"><path stroke-linecap="butt" transform="matrix(0.746195, 0, 0, 0.746195, 30.125007, 42.134083)" fill="none" stroke-linejoin="miter" d="M -0.00000963595 -0.0017029 L 316.108775 -0.0017029 L 316.108775 447.09448 L -0.00000963595 447.09448 Z M -0.00000963595 -0.0017029 " stroke="#e30613" stroke-width="6" stroke-opacity="1" stroke-miterlimit="4"/></g><g clip-path="url(#03ec5884b0)"><path fill="#e30613" d="M 42.875 54.410156 L 30.882812 65.230469 L 30.671875 65.421875 L 30.460938 65.230469 L 18.46875 54.410156 C 14.996094 51.277344 14.640625 45.835938 17.675781 42.25 C 19.328125 40.300781 21.640625 39.304688 23.96875 39.304688 C 25.917969 39.304688 27.875 40.007812 29.460938 41.433594 L 30.671875 42.527344 L 31.882812 41.433594 C 33.46875 40.007812 35.425781 39.304688 37.375 39.304688 C 39.703125 39.304688 42.015625 40.300781 43.667969 42.25 C 46.703125 45.835938 46.347656 51.277344 42.875 54.410156 Z M 42.875 54.410156 " fill-opacity="1" fill-rule="nonzero"/></g><g fill="#e30613" fill-opacity="1"><g transform="translate(18.911079, 29.965208)"><g><path d="M 3.296875 -23.71875 C 4.585938 -24.207031 5.828125 -24.578125 7.015625 -24.828125 C 8.210938 -25.085938 9.328125 -25.21875 10.359375 -25.21875 C 12.785156 -25.21875 14.675781 -24.691406 16.03125 -23.640625 C 17.394531 -22.597656 18.078125 -21.148438 18.078125 -19.296875 C 18.078125 -17.796875 17.609375 -16.546875 16.671875 -15.546875 C 15.734375 -14.546875 14.398438 -13.867188 12.671875 -13.515625 C 14.703125 -13.234375 16.28125 -12.492188 17.40625 -11.296875 C 18.53125 -10.109375 19.09375 -8.570312 19.09375 -6.6875 C 19.09375 -4.375 18.316406 -2.597656 16.765625 -1.359375 C 15.210938 -0.128906 12.972656 0.484375 10.046875 0.484375 C 8.753906 0.484375 7.488281 0.34375 6.25 0.0625 C 5.019531 -0.207031 3.800781 -0.625 2.59375 -1.1875 L 2.59375 -6 L 4.4375 -6 C 4.550781 -4.40625 5.085938 -3.195312 6.046875 -2.375 C 7.015625 -1.5625 8.375 -1.15625 10.125 -1.15625 C 11.8125 -1.15625 13.144531 -1.644531 14.125 -2.625 C 15.101562 -3.601562 15.59375 -4.945312 15.59375 -6.65625 C 15.59375 -8.59375 15.085938 -10.0625 14.078125 -11.0625 C 13.078125 -12.070312 11.601562 -12.578125 9.65625 -12.578125 L 8.078125 -12.578125 L 8.078125 -14.265625 L 8.90625 -14.265625 C 10.84375 -14.265625 12.296875 -14.664062 13.265625 -15.46875 C 14.234375 -16.269531 14.71875 -17.476562 14.71875 -19.09375 C 14.71875 -20.539062 14.316406 -21.644531 13.515625 -22.40625 C 12.722656 -23.175781 11.578125 -23.5625 10.078125 -23.5625 C 8.585938 -23.5625 7.429688 -23.207031 6.609375 -22.5 C 5.785156 -21.800781 5.300781 -20.753906 5.15625 -19.359375 L 3.296875 -19.359375 Z M 3.296875 -23.71875 "/></g></g></g><g clip-path="url(#e9d8665f03)"><path fill="#e30613" d="M 252.90625 362.90625 L 264.898438 352.089844 L 265.113281 351.898438 L 265.324219 352.089844 L 277.316406 362.90625 C 280.789062 366.039062 281.144531 371.480469 278.109375 375.066406 C 276.457031 377.015625 274.144531 378.011719 271.816406 378.011719 C 269.867188 378.011719 267.910156 377.308594 266.324219 375.882812 L 265.113281 374.789062 L 263.902344 375.882812 C 262.316406 377.308594 260.359375 378.011719 258.410156 378.011719 C 256.082031 378.011719 253.769531 377.015625 252.117188 375.066406 C 249.082031 371.480469 249.4375 366.039062 252.90625 362.90625 Z M 252.90625 362.90625 " fill-opacity="1" fill-rule="nonzero"/></g><g fill="#e30613" fill-opacity="1"><g transform="translate(276.87343, 387.351891)"><g><path d="M -3.296875 23.71875 C -4.585938 24.207031 -5.828125 24.578125 -7.015625 24.828125 C -8.210938 25.085938 -9.328125 25.21875 -10.359375 25.21875 C -12.785156 25.21875 -14.675781 24.691406 -16.03125 23.640625 C -17.394531 22.597656 -18.078125 21.148438 -18.078125 19.296875 C -18.078125 17.796875 -17.609375 16.546875 -16.671875 15.546875 C -15.734375 14.546875 -14.398438 13.867188 -12.671875 13.515625 C -14.703125 13.234375 -16.28125 12.492188 -17.40625 11.296875 C -18.53125 10.109375 -19.09375 8.570312 -19.09375 6.6875 C -19.09375 4.375 -18.316406 2.597656 -16.765625 1.359375 C -15.210938 0.128906 -12.972656 -0.484375 -10.046875 -0.484375 C -8.753906 -0.484375 -7.488281 -0.34375 -6.25 -0.0625 C -5.019531 0.207031 -3.800781 0.625 -2.59375 1.1875 L -2.59375 6 L -4.4375 6 C -4.550781 4.40625 -5.085938 3.195312 -6.046875 2.375 C -7.015625 1.5625 -8.375 1.15625 -10.125 1.15625 C -11.8125 1.15625 -13.144531 1.644531 -14.125 2.625 C -15.101562 3.601562 -15.59375 4.945312 -15.59375 6.65625 C -15.59375 8.59375 -15.085938 10.0625 -14.078125 11.0625 C -13.078125 12.070312 -11.601562 12.578125 -9.65625 12.578125 L -8.078125 12.578125 L -8.078125 14.265625 L -8.90625 14.265625 C -10.84375 14.265625 -12.296875 14.664062 -13.265625 15.46875 C -14.234375 16.269531 -14.71875 17.476562 -14.71875 19.09375 C -14.71875 20.539062 -14.316406 21.644531 -13.515625 22.40625 C -12.722656 23.175781 -11.578125 23.5625 -10.078125 23.5625 C -8.585938 23.5625 -7.429688 23.207031 -6.609375 22.5 C -5.785156 21.800781 -5.300781 20.753906 -5.15625 19.359375 L -3.296875 19.359375 Z M -3.296875 23.71875 "/></g></g></g><g clip-path="url(#431169d906)"><path fill="#e30613" d="M 21.246094 370.203125 L 30.992188 361.410156 L 31.164062 361.253906 L 31.339844 361.410156 L 41.082031 370.203125 C 43.90625 372.746094 44.195312 377.171875 41.726562 380.082031 C 40.386719 381.667969 38.503906 382.476562 36.613281 382.476562 C 35.03125 382.476562 33.4375 381.90625 32.152344 380.746094 L 31.167969 379.859375 L 30.179688 380.746094 C 28.894531 381.90625 27.300781 382.476562 25.71875 382.476562 C 23.824219 382.476562 21.945312 381.667969 20.605469 380.082031 C 18.136719 377.171875 18.425781 372.746094 21.246094 370.203125 Z M 21.246094 370.203125 " fill-opacity="1" fill-rule="nonzero"/></g><g fill="#e30613" fill-opacity="1"><g transform="translate(40.723451, 390.068227)"><g><path d="M -2.6875 19.265625 C -3.726562 19.660156 -4.734375 19.960938 -5.703125 20.171875 C -6.671875 20.378906 -7.578125 20.484375 -8.421875 20.484375 C -10.390625 20.484375 -11.925781 20.054688 -13.03125 19.203125 C -14.132812 18.359375 -14.6875 17.179688 -14.6875 15.671875 C -14.6875 14.453125 -14.300781 13.4375 -13.53125 12.625 C -12.769531 11.8125 -11.691406 11.265625 -10.296875 10.984375 C -11.941406 10.742188 -13.222656 10.140625 -14.140625 9.171875 C -15.054688 8.210938 -15.515625 6.96875 -15.515625 5.4375 C -15.515625 3.550781 -14.878906 2.109375 -13.609375 1.109375 C -12.347656 0.109375 -10.535156 -0.390625 -8.171875 -0.390625 C -7.117188 -0.390625 -6.085938 -0.273438 -5.078125 -0.046875 C -4.078125 0.171875 -3.085938 0.507812 -2.109375 0.96875 L -2.109375 4.875 L -3.609375 4.875 C -3.703125 3.582031 -4.140625 2.601562 -4.921875 1.9375 C -5.703125 1.269531 -6.800781 0.9375 -8.21875 0.9375 C -9.59375 0.9375 -10.675781 1.332031 -11.46875 2.125 C -12.269531 2.925781 -12.671875 4.019531 -12.671875 5.40625 C -12.671875 6.988281 -12.257812 8.1875 -11.4375 9 C -10.625 9.8125 -9.425781 10.21875 -7.84375 10.21875 L -6.5625 10.21875 L -6.5625 11.59375 L -7.234375 11.59375 C -8.804688 11.59375 -9.984375 11.914062 -10.765625 12.5625 C -11.554688 13.21875 -11.953125 14.203125 -11.953125 15.515625 C -11.953125 16.679688 -11.628906 17.578125 -10.984375 18.203125 C -10.335938 18.828125 -9.40625 19.140625 -8.1875 19.140625 C -6.976562 19.140625 -6.035156 18.851562 -5.359375 18.28125 C -4.691406 17.707031 -4.300781 16.851562 -4.1875 15.71875 L -2.6875 15.71875 Z M -2.6875 19.265625 "/></g></g></g><g clip-path="url(#3d8ce9ee17)"><path fill="#e30613" d="M 274.453125 47.679688 L 264.707031 56.472656 L 264.535156 56.625 L 264.363281 56.472656 L 254.617188 47.679688 C 251.792969 45.136719 251.503906 40.710938 253.972656 37.796875 C 255.3125 36.214844 257.195312 35.402344 259.085938 35.402344 C 260.671875 35.402344 262.261719 35.976562 263.550781 37.132812 L 264.535156 38.023438 L 265.519531 37.132812 C 266.804688 35.976562 268.398438 35.402344 269.980469 35.402344 C 271.875 35.402344 273.753906 36.214844 275.09375 37.796875 C 277.5625 40.710938 277.273438 45.136719 274.453125 47.679688 Z M 274.453125 47.679688 " fill-opacity="1" fill-rule="nonzero"/></g><g fill="#e30613" fill-opacity="1"><g transform="translate(254.976176, 27.813783)"><g><path d="M 2.6875 -19.265625 C 3.726562 -19.660156 4.734375 -19.960938 5.703125 -20.171875 C 6.671875 -20.378906 7.578125 -20.484375 8.421875 -20.484375 C 10.390625 -20.484375 11.925781 -20.054688 13.03125 -19.203125 C 14.132812 -18.359375 14.6875 -17.179688 14.6875 -15.671875 C 14.6875 -14.453125 14.300781 -13.4375 13.53125 -12.625 C 12.769531 -11.8125 11.691406 -11.265625 10.296875 -10.984375 C 11.941406 -10.742188 13.222656 -10.140625 14.140625 -9.171875 C 15.054688 -8.210938 15.515625 -6.96875 15.515625 -5.4375 C 15.515625 -3.550781 14.878906 -2.109375 13.609375 -1.109375 C 12.347656 -0.109375 10.535156 0.390625 8.171875 0.390625 C 7.117188 0.390625 6.085938 0.273438 5.078125 0.046875 C 4.078125 -0.171875 3.085938 -0.507812 2.109375 -0.96875 L 2.109375 -4.875 L 3.609375 -4.875 C 3.703125 -3.582031 4.140625 -2.601562 4.921875 -1.9375 C 5.703125 -1.269531 6.800781 -0.9375 8.21875 -0.9375 C 9.59375 -0.9375 10.675781 -1.332031 11.46875 -2.125 C 12.269531 -2.925781 12.671875 -4.019531 12.671875 -5.40625 C 12.671875 -6.988281 12.257812 -8.1875 11.4375 -9 C 10.625 -9.8125 9.425781 -10.21875 7.84375 -10.21875 L 6.5625 -10.21875 L 6.5625 -11.59375 L 7.234375 -11.59375 C 8.804688 -11.59375 9.984375 -11.914062 10.765625 -12.5625 C 11.554688 -13.21875 11.953125 -14.203125 11.953125 -15.515625 C 11.953125 -16.679688 11.628906 -17.578125 10.984375 -18.203125 C 10.335938 -18.828125 9.40625 -19.140625 8.1875 -19.140625 C 6.976562 -19.140625 6.035156 -18.851562 5.359375 -18.28125 C 4.691406 -17.707031 4.300781 -16.851562 4.1875 -15.71875 L 2.6875 -15.71875 Z M 2.6875 -19.265625 "/></g></g></g><g clip-path="url(#05b1d3e6a9)"><path fill="#e30613" d="M 157.636719 209.042969 Z M 156.113281 217.238281 C 155.699219 219.214844 154.835938 221.109375 154.011719 222.921875 C 153.394531 224.320312 152.777344 225.722656 152.078125 227.078125 C 151.910156 227.410156 151.746094 227.699219 151.542969 227.984375 C 151.5 228.480469 151.171875 228.972656 151.128906 229.46875 C 151.089844 230.128906 151.007812 230.746094 151.007812 231.402344 C 151.007812 232.558594 151.128906 233.832031 151.5 234.945312 C 151.625 235.234375 151.746094 235.523438 151.910156 235.808594 C 152.242188 235.234375 152.488281 234.617188 152.777344 234.039062 C 153.148438 233.296875 153.558594 232.597656 153.972656 231.898438 C 154.175781 231.527344 154.382812 231.117188 154.671875 230.746094 C 154.628906 230.746094 154.628906 230.703125 154.589844 230.664062 C 154.382812 230.5 154.054688 230.332031 153.929688 230.085938 C 154.136719 230.003906 154.753906 229.714844 154.792969 229.507812 C 154.835938 229.304688 154.546875 229.34375 154.753906 229.140625 C 154.835938 229.058594 155.164062 229.058594 155.289062 229.058594 C 155.289062 228.6875 154.917969 228.398438 154.835938 228.066406 C 155.164062 227.945312 155.496094 227.902344 155.867188 227.820312 C 155.660156 227.617188 155.289062 227.203125 155.289062 226.875 C 155.617188 226.792969 155.867188 226.585938 156.152344 226.421875 C 156.152344 226.421875 156.195312 226.421875 156.195312 226.378906 C 156.441406 225.96875 156.648438 225.515625 156.894531 225.101562 C 157.183594 224.609375 157.472656 224.28125 157.84375 223.910156 C 157.472656 223.910156 157.140625 223.992188 156.769531 223.992188 C 156.976562 223.621094 157.472656 223.414062 157.757812 223.085938 C 158.089844 222.714844 158.460938 222.386719 158.832031 222.015625 C 158.542969 222.054688 157.882812 222.386719 157.757812 221.890625 C 158.089844 221.765625 158.5 221.398438 158.832031 221.148438 C 159.117188 220.902344 159.449219 220.613281 159.652344 220.324219 C 159.367188 220.242188 158.5 220.203125 159.078125 219.832031 C 159.285156 219.707031 160.148438 219.585938 159.941406 219.253906 C 159.859375 219.089844 159.53125 219.214844 159.449219 219.007812 C 159.367188 218.800781 159.53125 218.761719 159.695312 218.636719 C 160.148438 218.265625 160.519531 217.730469 160.808594 217.195312 C 160.972656 216.90625 161.09375 216.621094 161.21875 216.289062 C 160.683594 216.042969 160.148438 215.714844 159.53125 215.714844 C 159.777344 215.179688 160.394531 215.011719 160.683594 214.519531 C 160.4375 214.476562 159.570312 214.519531 159.570312 214.109375 C 159.613281 213.695312 160.765625 213.574219 160.191406 213.285156 C 160.066406 213.203125 159.695312 213.242188 159.613281 213.078125 C 159.488281 212.871094 159.738281 212.75 159.820312 212.582031 C 160.105469 211.964844 159.488281 212.417969 159.242188 212.171875 C 159.117188 212.007812 159.367188 211.636719 159.449219 211.472656 C 159.53125 211.183594 159.570312 210.9375 159.613281 210.648438 C 159.367188 210.648438 159.117188 210.894531 158.871094 210.855469 C 158.789062 210.523438 159.035156 209.785156 159.160156 209.453125 C 158.707031 209.578125 158.171875 209.785156 157.675781 209.824219 C 157.675781 212.417969 156.605469 214.847656 156.113281 217.238281 Z M 202.648438 204.183594 C 202.402344 204.59375 202.152344 204.964844 201.867188 205.335938 C 201.699219 205.5 201.496094 205.664062 201.332031 205.871094 C 201.289062 205.378906 201.332031 204.925781 201.125 204.472656 C 200.628906 205.171875 200.09375 206.117188 199.351562 206.570312 C 199.269531 206.117188 199.351562 205.460938 198.984375 205.128906 C 198.816406 205.746094 198.199219 206.613281 197.746094 207.066406 C 197.664062 206.652344 197.746094 206.117188 197.5 205.789062 C 197.046875 206.117188 196.675781 206.777344 196.304688 207.1875 C 195.894531 207.640625 195.523438 208.34375 195.03125 208.671875 C 194.945312 208.175781 194.90625 207.847656 194.699219 207.394531 C 192.929688 209.742188 190.335938 211.265625 187.824219 212.625 C 184.941406 214.191406 181.644531 215.054688 178.96875 217.03125 C 178.1875 217.609375 177.402344 218.265625 176.664062 218.882812 C 176.746094 219.214844 176.785156 219.542969 176.828125 219.832031 C 176.992188 220.574219 177.28125 221.273438 177.484375 221.972656 C 177.980469 223.621094 178.761719 225.1875 179.378906 226.792969 C 179.996094 228.355469 180.699219 229.796875 181.398438 231.320312 C 181.976562 232.597656 182.386719 233.917969 182.878906 235.234375 C 183.085938 235.808594 183.292969 236.429688 183.417969 237.046875 C 183.992188 238.15625 184.527344 239.3125 184.855469 240.503906 C 185.226562 241.863281 185.269531 243.46875 184.074219 244.335938 C 182.632812 245.40625 180.492188 245.199219 178.804688 245.324219 C 176.539062 245.53125 174.4375 246.230469 172.253906 246.765625 C 170.691406 247.136719 169.289062 247.136719 167.890625 246.433594 C 166.574219 246.601562 164.925781 246.722656 164.308594 245.242188 C 164.144531 244.910156 164.101562 244.625 164.144531 244.335938 C 163.855469 243.964844 163.648438 243.46875 163.648438 243.015625 C 163.609375 242.398438 163.9375 242.5625 164.308594 242.8125 C 164.554688 243.015625 164.84375 243.140625 165.089844 243.183594 C 164.925781 242.648438 164.882812 242.027344 165.050781 241.535156 C 165.214844 241.121094 165.460938 241.207031 165.707031 241.453125 C 165.914062 241.660156 166.039062 241.78125 166.242188 241.90625 C 166.613281 241.574219 166.941406 241.328125 167.519531 241.328125 C 168.136719 241.371094 168.753906 241.574219 169.332031 241.699219 C 169.207031 241.289062 169.25 240.875 169.332031 240.464844 C 169.496094 239.597656 170.03125 240.09375 170.445312 240.546875 C 170.484375 240.546875 170.484375 240.503906 170.527344 240.503906 C 170.773438 240.382812 171.019531 240.382812 171.351562 240.339844 C 172.339844 240.339844 173.367188 240.339844 174.316406 240.546875 C 174.851562 240.628906 175.34375 240.753906 175.839844 240.792969 C 176.210938 240.792969 176.578125 240.792969 176.910156 240.753906 C 177.28125 238.898438 176.003906 236.800781 174.808594 235.644531 C 174.355469 235.191406 173.78125 234.945312 173.246094 234.535156 C 172.625 234.082031 172.089844 233.546875 171.472656 233.050781 C 170.320312 232.105469 169.332031 231.117188 168.425781 229.921875 C 167.890625 229.261719 167.4375 228.5625 167.027344 227.820312 C 166.65625 228.4375 166.203125 229.058594 165.707031 229.59375 C 164.84375 230.539062 164.101562 231.570312 163.238281 232.515625 C 162.167969 233.75 161.09375 235.070312 159.941406 236.222656 C 159.367188 236.839844 158.789062 237.5 158.296875 238.15625 C 157.800781 238.777344 157.472656 239.476562 156.976562 240.09375 C 156.484375 240.753906 155.988281 241.453125 155.535156 242.109375 C 156.070312 242.851562 156.894531 243.511719 157.511719 244.171875 C 158.417969 245.160156 159.570312 245.859375 160.640625 246.640625 C 161.628906 247.382812 162.578125 248.289062 163.609375 248.988281 C 164.554688 249.648438 165.585938 250.222656 166.53125 250.925781 C 167.273438 251.460938 168.136719 252.570312 167.644531 253.476562 C 167.890625 253.972656 168.179688 254.753906 167.890625 254.960938 C 167.683594 255.082031 167.273438 254.835938 166.941406 254.628906 C 166.695312 254.917969 166.367188 255.164062 165.996094 255.207031 C 165.914062 255.207031 165.75 255.207031 165.625 255.207031 C 165.542969 255.703125 165.335938 256.277344 164.925781 256.195312 C 164.554688 256.113281 164.183594 255.785156 163.894531 255.414062 C 163.484375 255.453125 163.15625 255.453125 162.703125 255.25 C 162.453125 255.125 162.125 254.917969 161.835938 254.714844 C 161.261719 254.960938 160.476562 254.960938 159.941406 254.796875 C 159.078125 254.546875 158.5 253.972656 158.128906 253.1875 C 158.046875 253.230469 157.964844 253.3125 157.882812 253.3125 C 157.636719 253.394531 157.636719 253.355469 157.429688 253.105469 C 157.140625 252.695312 156.9375 252.242188 156.648438 251.789062 C 156.566406 251.871094 156.566406 252.160156 156.441406 252.160156 C 156.277344 252.199219 156.234375 251.914062 156.195312 251.832031 C 156.070312 251.542969 156.070312 251.007812 155.824219 250.84375 C 155.742188 250.925781 155.660156 251.089844 155.617188 251.253906 C 155.371094 251.253906 155.164062 250.222656 155.042969 249.976562 C 154.878906 249.976562 154.835938 250.183594 154.792969 250.304688 C 154.507812 250.183594 154.382812 249.566406 154.21875 249.277344 C 154.175781 249.234375 154.136719 249.03125 154.09375 249.03125 C 154.011719 248.988281 153.972656 249.113281 153.929688 249.113281 C 153.765625 249.070312 153.804688 249.195312 153.640625 248.988281 C 153.394531 248.699219 153.105469 248.328125 152.898438 247.960938 C 152.449219 248.617188 151.953125 249.234375 151.457031 249.894531 C 150.757812 250.757812 149.933594 251.582031 149.398438 252.570312 C 148.246094 254.671875 146.804688 256.730469 146.0625 259.078125 C 145.898438 259.65625 145.816406 260.230469 145.777344 260.808594 C 147.21875 261.589844 149.316406 261.261719 149.976562 263.15625 C 150.058594 263.359375 150.183594 263.773438 150.101562 264.0625 C 150.429688 264.515625 150.882812 265.339844 150.511719 265.625 C 150.304688 265.789062 149.8125 265.253906 149.648438 265.171875 C 149.523438 265.089844 149.398438 265.050781 149.277344 265.007812 C 149.316406 265.542969 149.277344 266.367188 148.90625 266.328125 C 148.699219 266.328125 148.289062 265.75 148.082031 265.585938 C 147.957031 265.503906 147.835938 265.421875 147.710938 265.378906 C 147.300781 265.667969 146.683594 265.707031 146.269531 265.585938 C 145.898438 265.503906 145.527344 265.296875 145.199219 265.089844 C 145.15625 265.050781 145.117188 265.050781 145.074219 265.007812 C 145.035156 265.339844 144.871094 265.667969 144.746094 265.957031 C 144.621094 266.203125 144.335938 266.902344 144.003906 266.945312 C 143.632812 266.984375 143.550781 266.203125 143.429688 265.957031 C 143.386719 265.832031 143.304688 265.707031 143.265625 265.585938 C 142.480469 265.421875 142.027344 265.007812 141.574219 264.226562 C 141.164062 263.527344 140.75 262.949219 140.214844 262.332031 C 139.105469 260.929688 139.640625 259.449219 140.296875 257.964844 C 140.382812 257.761719 140.464844 257.597656 140.546875 257.429688 C 140.835938 256.523438 141.039062 255.578125 141.328125 254.671875 C 141.945312 252.367188 141.738281 249.316406 143.550781 247.589844 C 144.375 246.804688 145.324219 246.105469 146.105469 245.242188 C 146.558594 244.746094 147.011719 244.253906 147.339844 243.636719 C 147.503906 243.304688 147.671875 242.933594 147.792969 242.5625 C 147.011719 241.535156 146.230469 240.546875 145.324219 239.683594 C 144.210938 238.652344 143.097656 237.703125 142.070312 236.59375 C 141.164062 235.605469 140.464844 234.574219 140.421875 233.175781 C 140.382812 231.773438 141.039062 230.539062 141.574219 229.304688 C 142.109375 228.027344 142.359375 226.792969 142.523438 225.472656 C 142.234375 225.597656 141.945312 225.761719 141.617188 225.925781 C 141.492188 225.144531 141.328125 224.363281 141.285156 223.578125 C 141.164062 223.867188 140.957031 224.03125 140.792969 224.320312 C 140.667969 223.867188 140.628906 223.167969 140.296875 222.757812 C 140.09375 223.003906 140.050781 223.539062 140.050781 223.867188 C 139.804688 223.457031 139.558594 222.796875 139.351562 222.34375 C 139.1875 221.933594 139.023438 221.480469 139.023438 221.027344 C 138.773438 221.316406 138.691406 221.726562 138.691406 222.136719 C 138.15625 221.726562 137.992188 220.574219 137.664062 219.957031 C 137.457031 220.449219 137.539062 220.902344 137.414062 221.398438 C 137.25 221.316406 137.210938 221.027344 137.128906 220.863281 C 137.003906 220.492188 136.839844 220.160156 136.714844 219.789062 C 136.550781 219.421875 136.550781 219.050781 136.46875 218.679688 C 136.261719 219.050781 136.097656 219.585938 135.890625 219.957031 C 135.316406 219.503906 135.6875 218.390625 135.316406 217.8125 C 135.027344 217.402344 134.738281 218.101562 134.574219 218.390625 C 134.039062 218.019531 133.75 216.867188 133.628906 216.25 C 133.628906 216.207031 133.628906 216.125 133.585938 216.085938 C 133.050781 216.371094 132.554688 216.867188 132.101562 217.195312 C 131.402344 217.691406 130.703125 218.226562 130.042969 218.800781 C 129.304688 219.460938 128.683594 220.242188 128.027344 220.984375 C 127.410156 221.644531 126.792969 222.386719 126.339844 223.207031 C 126.132812 223.578125 125.925781 223.992188 125.71875 224.363281 C 125.84375 225.226562 126.007812 226.089844 126.253906 226.957031 C 126.503906 227.902344 126.75 228.808594 127.160156 229.675781 C 127.574219 230.582031 128.148438 231.445312 128.683594 232.308594 C 129.136719 233.09375 129.671875 233.832031 130.167969 234.574219 C 130.664062 235.273438 131.074219 236.015625 131.609375 236.714844 C 132.515625 237.871094 133.460938 238.980469 134.410156 240.09375 C 134.738281 240.464844 134.984375 240.875 135.316406 241.246094 C 135.523438 241.453125 135.726562 241.660156 135.890625 241.863281 C 136.425781 242.195312 136.921875 242.5625 137.457031 242.851562 C 138.074219 243.183594 138.734375 243.675781 138.941406 244.417969 C 139.023438 244.664062 139.023438 245.035156 138.855469 245.28125 C 139.105469 245.859375 139.308594 246.722656 139.1875 247.09375 C 139.023438 247.546875 138.691406 246.972656 138.445312 246.804688 C 138.28125 246.683594 138.074219 246.601562 137.910156 246.519531 C 137.953125 247.09375 137.910156 247.960938 137.414062 247.875 C 137.128906 247.835938 136.839844 247.421875 136.632812 247.21875 C 136.46875 247.054688 136.261719 246.886719 136.097656 246.765625 C 135.523438 246.804688 134.902344 246.847656 134.410156 246.601562 C 134.328125 247.09375 134.121094 247.671875 133.792969 247.546875 C 133.503906 247.421875 133.339844 246.765625 133.175781 246.476562 C 133.132812 246.394531 133.09375 246.351562 133.050781 246.269531 C 132.351562 246.3125 131.691406 246.066406 131.113281 245.53125 C 130.457031 244.910156 129.796875 244.292969 129.507812 243.386719 C 129.425781 243.183594 129.386719 242.976562 129.34375 242.8125 C 128.480469 242.316406 127.65625 241.78125 127.203125 240.792969 C 126.707031 239.679688 126.460938 238.652344 125.636719 237.746094 C 123.125 234.90625 120.859375 231.855469 118.472656 228.851562 C 117.976562 228.234375 117.441406 227.53125 117.113281 226.75 C 116.535156 226.257812 116.125 225.679688 116.125 224.734375 C 116.167969 223.578125 116.824219 222.757812 117.484375 221.933594 C 118.554688 220.65625 119.75 219.542969 120.777344 218.226562 C 121.847656 216.867188 122.753906 215.464844 123.539062 213.902344 C 124.15625 212.667969 124.566406 210.894531 124.238281 209.453125 C 124.03125 209.867188 123.785156 210.277344 123.457031 210.441406 C 123.414062 209.949219 123.289062 209.371094 123.042969 208.960938 C 122.921875 209.617188 122.34375 210.152344 121.808594 210.484375 C 122.015625 209.742188 121.847656 209.207031 121.726562 208.464844 C 121.355469 209.082031 120.820312 209.535156 120.285156 209.988281 C 120.242188 209.207031 120.242188 208.671875 119.914062 207.929688 C 119.5 207.066406 119.171875 206.242188 118.964844 205.335938 C 118.679688 206.488281 119.089844 207.929688 118.226562 208.917969 C 118.101562 208.261719 118.101562 207.558594 117.773438 206.941406 C 117.648438 207.3125 117.523438 207.683594 117.402344 208.054688 C 117.15625 207.808594 117.238281 207.105469 116.90625 206.902344 C 116.742188 207.066406 116.703125 207.4375 116.617188 207.640625 C 116.453125 206.449219 115.382812 205.417969 115.753906 204.101562 C 115.546875 204.675781 115.261719 205.128906 115.136719 205.746094 C 115.054688 206.242188 115.09375 206.941406 114.890625 207.355469 C 114.765625 206.652344 114.558594 206.035156 114.230469 205.417969 C 113.941406 204.839844 113.859375 204.222656 113.777344 203.566406 C 113.449219 204.019531 113.367188 204.511719 113.324219 205.046875 C 113.078125 204.839844 112.832031 204.140625 112.746094 203.8125 C 112.417969 204.140625 112.625 204.839844 112.625 205.292969 C 112.417969 205.210938 112.296875 204.882812 112.171875 204.675781 C 111.964844 204.390625 111.757812 204.101562 111.59375 203.769531 C 111.390625 203.359375 111.265625 202.863281 111.058594 202.496094 C 110.8125 202.824219 110.976562 203.359375 110.769531 203.648438 C 110.152344 203.152344 110.359375 201.792969 109.867188 201.21875 C 109.78125 201.507812 109.78125 201.792969 109.699219 202.125 C 109.125 201.671875 109.207031 200.351562 109.164062 199.613281 C 109.082031 199.859375 108.917969 200.066406 108.792969 200.269531 C 108.710938 200.476562 108.710938 200.601562 108.671875 200.804688 C 108.136719 199.816406 108.257812 198.539062 107.804688 197.511719 C 107.519531 196.933594 107.230469 196.359375 106.816406 195.824219 C 106.734375 195.699219 106.613281 195.574219 106.488281 195.492188 C 106.488281 195.535156 106.488281 195.535156 106.488281 195.574219 C 106.613281 196.109375 106.734375 196.648438 106.859375 197.183594 C 107.066406 198.253906 107.230469 199.652344 106.816406 200.683594 C 106.695312 200.351562 106.570312 199.816406 106.324219 199.570312 C 106.324219 200.230469 106.199219 201.136719 105.953125 201.710938 C 105.910156 201.382812 105.746094 200.847656 105.542969 200.601562 C 105.417969 200.96875 105.542969 201.753906 105.292969 202 C 105.171875 201.710938 105.003906 201.421875 104.800781 201.21875 C 104.59375 201.589844 104.554688 202.246094 104.429688 202.660156 C 104.265625 203.316406 104.015625 203.976562 103.730469 204.59375 C 103.6875 204.058594 103.648438 203.441406 103.359375 202.988281 C 103.277344 203.234375 103.316406 203.523438 103.234375 203.769531 C 103.152344 204.101562 102.945312 204.390625 102.824219 204.71875 C 102.535156 205.417969 102.371094 206.488281 101.792969 207.023438 C 101.835938 206.367188 102.082031 205.5 101.710938 204.882812 C 101.628906 205.253906 101.382812 205.582031 101.257812 205.953125 C 101.09375 206.324219 100.929688 206.820312 100.640625 207.105469 C 100.558594 206.734375 100.765625 206.242188 100.804688 205.871094 C 100.886719 205.210938 100.804688 204.472656 100.683594 203.8125 C 100.558594 202.863281 99.898438 201.710938 99.324219 200.96875 C 99.363281 201.507812 99.527344 202.042969 99.570312 202.617188 C 99.609375 203.234375 99.527344 203.9375 99.445312 204.554688 C 99.28125 206.035156 98.703125 207.4375 98.417969 208.835938 C 98.375 208.09375 98.292969 207.3125 98.210938 206.570312 C 98.210938 207.023438 97.882812 207.519531 97.800781 207.929688 C 97.675781 208.300781 97.59375 208.835938 97.46875 209.164062 C 97.304688 208.21875 97.097656 207.273438 96.894531 206.28125 C 96.8125 206.652344 96.6875 207.066406 96.5625 207.4375 C 96.359375 208.011719 96.109375 208.507812 95.863281 209.042969 C 95.699219 209.414062 95.535156 209.988281 95.203125 210.277344 C 95.164062 209.703125 95.371094 208.710938 95.039062 208.21875 C 94.832031 209 94.503906 209.824219 93.96875 210.402344 C 93.886719 209.90625 93.929688 209.289062 93.597656 208.917969 C 93.476562 209.164062 93.433594 209.535156 93.351562 209.824219 C 93.226562 210.238281 93.023438 210.566406 92.855469 210.9375 C 92.445312 211.761719 91.867188 212.625 91.167969 213.242188 C 91.210938 212.582031 91.539062 212.007812 91.414062 211.308594 C 90.757812 211.925781 90.179688 212.75 89.519531 213.367188 C 89.480469 212.953125 89.6875 212.582031 89.851562 212.214844 C 90.058594 211.679688 90.222656 211.058594 90.261719 210.484375 C 90.304688 209.949219 90.222656 209.332031 90.097656 208.796875 C 90.058594 208.546875 89.933594 208.300781 89.933594 208.011719 C 89.933594 208.710938 89.5625 209.289062 89.234375 209.90625 C 88.902344 210.605469 88.617188 211.554688 88.121094 212.089844 C 88.082031 211.761719 88.164062 211.265625 87.914062 210.976562 C 87.792969 211.101562 87.75 211.390625 87.710938 211.59375 C 87.585938 211.964844 87.378906 212.335938 87.214844 212.707031 C 87.007812 213.160156 86.472656 214.230469 85.980469 214.394531 C 85.898438 214.023438 86.0625 213.65625 85.980469 213.324219 C 85.691406 213.324219 85.238281 214.109375 85.074219 214.355469 C 84.828125 214.683594 84.496094 215.179688 84.125 215.34375 C 84.085938 215.015625 84.25 214.601562 84.332031 214.273438 C 84.457031 213.738281 84.496094 213.203125 84.496094 212.667969 C 84.496094 212.253906 84.457031 211.84375 84.375 211.429688 C 84.085938 211.84375 83.757812 212.214844 83.46875 212.582031 C 83.015625 213.203125 82.398438 213.777344 81.777344 214.230469 C 81.65625 213.65625 81.945312 212.996094 81.863281 212.378906 C 81.65625 212.5 81.53125 212.707031 81.367188 212.871094 C 81.121094 213.160156 80.832031 213.367188 80.503906 213.574219 C 79.886719 213.941406 79.144531 214.230469 78.484375 214.5625 C 78.484375 214.3125 78.609375 213.941406 78.730469 213.738281 C 78.15625 214.191406 77.414062 214.273438 76.796875 214.683594 C 76.382812 214.972656 76.097656 215.464844 75.726562 215.714844 C 75.601562 214.929688 75.929688 214.148438 75.847656 213.40625 C 75.519531 213.695312 75.191406 213.984375 74.941406 214.355469 C 74.777344 214.601562 74.65625 214.972656 74.449219 215.136719 C 74.324219 214.808594 74.285156 214.3125 74.242188 213.941406 C 74.203125 213.695312 74.324219 213.324219 74.035156 213.367188 C 73.789062 213.367188 73.460938 214.023438 73.378906 214.191406 C 73.253906 214.394531 73.214844 214.726562 73.007812 214.890625 C 72.84375 214.683594 72.882812 214.394531 72.84375 214.109375 C 72.800781 213.613281 72.761719 213.121094 72.761719 212.625 C 72.761719 212.378906 72.761719 212.132812 72.761719 211.84375 C 72.308594 212.089844 71.855469 212.296875 71.402344 212.460938 C 70.660156 212.707031 69.878906 212.582031 69.136719 212.625 C 68.601562 212.667969 67.984375 212.707031 67.488281 212.914062 C 67.324219 212.996094 66.707031 213.53125 66.542969 213.449219 C 66.046875 213.203125 67.078125 212.007812 67.199219 211.71875 C 66.625 211.636719 66.171875 212.335938 65.675781 212.5 C 65.59375 212.089844 65.757812 211.71875 65.925781 211.347656 C 65.554688 211.347656 65.222656 211.429688 64.894531 211.59375 C 64.566406 211.71875 64.316406 212.007812 64.03125 212.132812 C 63.699219 211.019531 62.710938 212.542969 62.21875 212.542969 C 62.011719 212.007812 62.339844 211.472656 62.21875 210.9375 C 61.601562 210.9375 61.066406 211.511719 60.445312 211.511719 C 60.324219 210.855469 61.351562 210.523438 61.148438 209.824219 C 60.613281 209.785156 60.117188 210.070312 59.582031 210.238281 C 59.335938 210.320312 58.183594 210.691406 57.976562 210.359375 C 57.6875 209.90625 59.171875 208.796875 59.128906 208.09375 C 58.757812 208.21875 58.429688 208.546875 58.058594 208.710938 C 57.480469 208.917969 57.070312 208.960938 56.492188 208.796875 C 56.289062 208.753906 55.835938 208.710938 55.835938 208.464844 C 55.835938 208.300781 56.207031 207.847656 56.289062 207.683594 C 55.257812 207.683594 54.105469 207.765625 53.117188 207.355469 C 53.199219 207.023438 53.734375 207.023438 53.777344 206.613281 C 53.488281 206.449219 52.992188 206.53125 52.621094 206.367188 C 52.167969 206.160156 51.714844 205.914062 51.222656 205.707031 C 51.386719 205.378906 51.921875 205.253906 51.429688 204.882812 C 50.808594 204.347656 49.945312 204.058594 49.328125 203.484375 C 49.535156 203.441406 49.78125 203.523438 49.945312 203.359375 C 50.152344 203.113281 49.90625 202.863281 49.738281 202.699219 C 49.082031 202.042969 48.214844 201.589844 47.515625 200.929688 C 47.84375 200.96875 48.175781 201.300781 48.503906 201.21875 C 48.503906 200.683594 47.144531 199.980469 46.816406 199.652344 C 46.15625 199.078125 45.867188 198.335938 45.414062 197.59375 C 45.828125 198.003906 46.855469 198.625 47.476562 198.417969 C 46.488281 198.089844 45.828125 197.304688 45.457031 196.359375 C 45.210938 195.78125 44.921875 195.121094 44.714844 194.503906 C 45.003906 194.421875 45.414062 194.957031 45.664062 195.121094 C 45.992188 195.371094 46.320312 195.535156 46.734375 195.574219 C 47.433594 195.660156 48.132812 195.574219 48.832031 195.453125 C 48.546875 195.289062 48.257812 194.917969 48.050781 194.710938 C 47.761719 194.464844 46.9375 193.804688 46.9375 193.433594 C 47.308594 193.351562 47.804688 193.476562 48.214844 193.433594 C 48.628906 193.394531 49.203125 193.394531 49.492188 193.105469 C 49.328125 192.941406 49.082031 192.816406 49.082031 192.570312 C 49.863281 192.445312 50.644531 192.445312 51.429688 192.324219 C 51.46875 191.992188 51.058594 191.953125 51.015625 191.703125 C 51.921875 191.457031 52.871094 191.621094 53.816406 191.457031 C 53.570312 191.210938 53.15625 190.964844 52.789062 190.796875 C 53.28125 190.964844 53.859375 190.964844 54.351562 191.085938 C 54.96875 191.210938 55.585938 191.335938 56.207031 191.25 C 56.988281 191.128906 57.730469 191.085938 58.550781 191.167969 C 59.089844 191.210938 59.664062 191.457031 60.199219 191.375 C 60.117188 191.335938 59.625 191.085938 59.664062 190.921875 C 59.707031 190.714844 60.488281 190.675781 60.652344 190.675781 C 61.1875 190.632812 61.722656 190.714844 62.257812 190.839844 C 62.589844 190.921875 63.164062 191.210938 63.496094 191.085938 C 63.453125 190.839844 63.246094 190.675781 63.164062 190.429688 C 63.660156 190.550781 64.152344 190.632812 64.605469 190.757812 C 65.183594 190.921875 65.757812 191.210938 66.335938 191.375 C 66.253906 191.085938 65.925781 190.921875 65.84375 190.632812 C 66.5 190.882812 67.160156 191.085938 67.777344 191.335938 C 68.273438 191.539062 68.683594 191.789062 69.136719 192.035156 C 69.382812 192.15625 69.671875 192.363281 69.917969 192.363281 C 69.753906 192.035156 69.425781 191.746094 69.34375 191.417969 C 70.578125 191.871094 71.730469 192.28125 72.925781 192.898438 C 73.335938 193.105469 73.75 193.351562 74.160156 193.558594 C 74.367188 193.558594 74.574219 193.597656 74.777344 193.515625 C 75.066406 193.433594 75.066406 193.1875 75.394531 193.269531 C 75.847656 193.351562 76.300781 193.847656 76.753906 193.886719 C 76.671875 193.640625 76.46875 193.394531 76.46875 193.105469 C 77.125 193.0625 77.742188 194.132812 78.402344 193.929688 C 78.359375 193.640625 78.277344 193.351562 78.238281 193.023438 C 78.566406 192.980469 78.980469 193.269531 79.265625 193.433594 C 79.679688 193.640625 80.171875 193.96875 80.585938 194.132812 C 80.503906 193.640625 80.089844 193.269531 80.089844 192.734375 C 80.789062 193.1875 81.738281 193.433594 82.519531 193.597656 C 83.550781 193.847656 84.578125 193.558594 85.566406 193.433594 C 86.722656 193.269531 87.710938 192.488281 88.78125 191.992188 C 89.070312 191.621094 89.355469 191.335938 89.726562 191.085938 C 90.140625 190.839844 90.59375 190.882812 91.046875 190.757812 C 91.292969 190.675781 91.25 190.632812 91.375 190.429688 C 91.539062 190.179688 91.582031 190.140625 91.867188 190.058594 C 92.238281 189.933594 93.105469 189.976562 93.0625 189.480469 C 93.0625 189.273438 92.855469 189.070312 92.980469 188.863281 C 93.144531 188.574219 93.886719 188.535156 94.132812 188.453125 C 94.464844 188.328125 94.957031 188.285156 95.246094 188.039062 C 95.492188 187.832031 95.371094 187.75 95.328125 187.464844 C 95.203125 186.679688 96.359375 186.351562 96.894531 186.1875 C 97.140625 186.105469 97.675781 185.980469 97.675781 185.609375 C 97.675781 185.363281 97.386719 185.320312 97.511719 185.074219 C 97.632812 184.828125 98.210938 184.664062 98.417969 184.582031 C 98.789062 184.457031 99.199219 184.457031 99.570312 184.25 C 99.324219 183.960938 98.910156 183.839844 98.664062 183.59375 C 99.035156 183.304688 99.527344 183.054688 99.980469 182.808594 C 100.722656 182.316406 101.503906 181.863281 102.328125 181.574219 C 103.359375 181.203125 104.386719 180.957031 105.457031 180.625 C 105.746094 180.542969 105.996094 180.460938 106.28125 180.339844 C 107.148438 179.472656 107.804688 178.363281 108.589844 177.414062 C 109.246094 176.632812 110.03125 175.933594 110.730469 175.191406 C 111.511719 174.324219 112.296875 173.460938 113.078125 172.636719 C 114.683594 170.992188 116.703125 169.671875 118.597656 168.4375 C 119.460938 167.902344 120.285156 167.324219 121.148438 166.789062 C 122.054688 166.171875 122.921875 165.472656 123.867188 164.894531 C 124.484375 164.523438 125.144531 164.238281 125.800781 163.90625 C 126.460938 163.289062 127.121094 162.753906 127.863281 162.257812 C 132.144531 159.378906 137.167969 158.101562 142.234375 157.9375 C 146.0625 157.8125 149.851562 158.101562 153.640625 158.839844 C 155.535156 159.210938 157.390625 159.664062 159.160156 160.28125 C 159.035156 160.078125 158.914062 159.914062 158.707031 159.746094 C 159.324219 159.996094 160.066406 160.117188 160.726562 160.28125 C 161.136719 160.40625 161.507812 160.53125 161.835938 160.777344 C 162.042969 160.941406 162.207031 161.1875 162.496094 161.269531 C 162.496094 161.148438 162.453125 160.984375 162.535156 160.902344 C 162.988281 161.105469 163.8125 162.136719 164.265625 161.972656 C 164.265625 161.519531 164.265625 161.476562 164.71875 161.683594 C 165.253906 161.972656 165.789062 162.382812 166.367188 162.589844 C 166.367188 162.425781 166.324219 162.21875 166.367188 162.054688 C 166.574219 162.011719 166.859375 162.175781 167.027344 162.300781 C 167.4375 162.546875 167.847656 162.753906 168.261719 163.042969 C 168.507812 163.207031 168.796875 163.535156 168.921875 163.207031 C 168.960938 163.042969 168.878906 162.710938 168.878906 162.546875 C 169.332031 162.671875 169.785156 163 170.195312 163.207031 C 170.527344 163.414062 171.183594 164.070312 171.597656 163.949219 C 171.679688 163.660156 171.554688 163.289062 171.636719 163 C 172.171875 163.371094 172.667969 163.867188 173.246094 164.195312 C 173.449219 164.320312 173.902344 164.730469 174.148438 164.730469 C 174.398438 164.730469 174.273438 164.691406 174.316406 164.484375 C 174.4375 164.152344 174.355469 164.070312 174.726562 164.277344 C 175.097656 164.523438 175.714844 165.183594 176.167969 165.140625 C 176.085938 164.894531 176.003906 164.441406 176.085938 164.195312 C 176.414062 164.484375 176.785156 164.8125 177.15625 165.058594 C 177.363281 165.226562 177.855469 165.71875 178.144531 165.636719 C 178.144531 165.472656 178.0625 165.265625 178.1875 165.140625 C 178.558594 165.308594 178.96875 165.800781 179.378906 165.882812 C 179.710938 165.964844 179.546875 165.71875 179.628906 165.429688 C 180.246094 165.554688 180.574219 166.296875 181.109375 166.5 C 181.523438 166.667969 181.355469 166.214844 181.316406 165.882812 C 181.976562 166.046875 182.46875 167.035156 183.085938 167.121094 C 183.085938 166.914062 183.046875 166.707031 183.085938 166.5 C 183.417969 166.417969 183.703125 166.707031 183.953125 166.871094 C 184.40625 167.203125 184.773438 167.53125 185.144531 167.941406 C 185.023438 167.65625 184.773438 167.285156 184.816406 166.953125 C 185.144531 167.121094 185.476562 167.285156 185.804688 167.488281 C 186.050781 167.613281 186.300781 167.738281 186.503906 167.902344 C 186.585938 167.941406 186.792969 168.191406 186.875 168.191406 C 187.164062 168.191406 187 167.53125 187.082031 167.242188 C 188.027344 167.902344 189.304688 168.191406 190.128906 169.054688 C 190.335938 169.054688 190.582031 169.054688 190.789062 169.011719 C 191.035156 168.972656 191.28125 168.929688 191.527344 168.929688 C 191.859375 168.929688 192.269531 169.097656 192.558594 169.011719 C 192.515625 168.808594 192.351562 168.683594 192.351562 168.4375 C 192.765625 168.355469 193.175781 168.5625 193.589844 168.355469 C 193.835938 168.230469 193.792969 168.3125 193.710938 168.066406 C 193.628906 167.859375 193.464844 167.695312 193.421875 167.488281 C 194.207031 167.367188 194.945312 167.035156 195.730469 166.953125 C 196.019531 166.914062 196.222656 166.996094 196.101562 166.625 C 196.019531 166.378906 195.851562 166.296875 195.894531 166.007812 C 196.554688 165.71875 197.210938 165.84375 197.914062 165.761719 C 197.871094 165.347656 197.253906 165.140625 197.707031 164.773438 C 198.160156 164.402344 198.777344 164.894531 199.230469 164.648438 C 199.105469 164.359375 198.40625 164.03125 198.40625 163.785156 C 198.363281 163.414062 199.351562 163.371094 199.558594 163.414062 C 199.804688 163.414062 200.671875 163.742188 200.710938 163.371094 C 200.753906 163 200.136719 162.917969 200.136719 162.546875 C 200.792969 162.300781 201.371094 162.382812 202.070312 162.34375 C 201.949219 161.972656 201.414062 161.601562 201.414062 161.1875 C 201.90625 161.105469 202.402344 161.148438 202.894531 161.066406 C 203.390625 160.984375 203.800781 160.652344 204.253906 160.40625 C 203.800781 159.996094 203.429688 159.5 203.058594 158.925781 C 202.523438 158.101562 201.617188 157.070312 201.496094 156.082031 C 201.371094 155.011719 202.648438 155.054688 203.308594 155.136719 C 204.460938 155.21875 205.613281 155.382812 206.765625 155.382812 C 207.507812 155.382812 208.207031 155.382812 208.949219 155.464844 C 209.074219 155.382812 209.238281 155.300781 209.359375 155.175781 C 209.609375 154.96875 209.894531 154.722656 210.101562 154.476562 C 210.226562 154.3125 210.265625 154.230469 210.429688 154.1875 C 210.597656 154.148438 210.800781 154.148438 211.007812 154.148438 C 210.882812 154.066406 210.679688 154.023438 210.472656 153.898438 C 210.71875 153.777344 211.132812 153.570312 211.417969 153.570312 C 211.707031 153.527344 212.039062 153.652344 212.324219 153.488281 C 212.203125 153.363281 211.871094 153.28125 211.789062 153.160156 C 212.242188 153.117188 212.65625 152.828125 213.109375 152.789062 C 213.519531 152.746094 213.933594 152.871094 214.386719 152.789062 C 214.261719 152.664062 214.097656 152.582031 213.933594 152.5 C 214.054688 152.335938 214.46875 152.375 214.671875 152.335938 C 214.921875 152.253906 215.167969 152.210938 215.414062 152.171875 C 215.910156 152.128906 216.363281 152.253906 216.855469 152.171875 C 216.816406 151.964844 216.609375 151.882812 216.484375 151.800781 C 217.019531 151.71875 217.554688 151.636719 218.050781 151.59375 C 218.503906 151.59375 218.996094 151.757812 219.410156 151.675781 C 219.285156 151.511719 219.160156 151.429688 218.996094 151.304688 C 219.449219 151.222656 219.945312 151.222656 220.398438 151.265625 C 220.769531 151.265625 221.222656 151.429688 221.550781 151.386719 C 221.46875 151.265625 221.304688 151.058594 221.222656 151.015625 C 221.960938 150.894531 222.949219 151.304688 223.652344 151.46875 C 223.609375 151.386719 223.484375 151.265625 223.445312 151.183594 C 223.980469 151.140625 224.558594 151.511719 225.09375 151.46875 C 225.007812 151.347656 224.886719 151.265625 224.84375 151.097656 C 225.832031 151.46875 226.863281 151.675781 227.851562 152.003906 C 228.964844 152.417969 230.117188 152.707031 231.144531 153.28125 C 232.214844 153.898438 233.246094 154.519531 234.277344 155.257812 C 235.183594 155.917969 236.171875 156.824219 236.828125 157.769531 C 237.199219 158.304688 237.488281 158.925781 237.777344 159.5 C 238.023438 159.625 238.269531 159.746094 238.476562 159.828125 C 240.125 160.53125 241.8125 161.1875 243.5 161.808594 C 244.363281 162.136719 245.230469 162.546875 246.136719 162.878906 C 246.753906 163.082031 247.496094 163.332031 248.03125 163.742188 C 248.277344 163.785156 248.566406 163.824219 248.8125 163.867188 C 249.308594 163.949219 249.882812 163.90625 250.335938 164.195312 C 251.40625 164.855469 250.667969 166.296875 250.296875 167.160156 C 250.089844 167.65625 249.84375 167.902344 249.429688 167.984375 C 249.183594 168.972656 248.730469 169.878906 247.785156 170.289062 C 246.796875 170.742188 245.558594 170.496094 244.488281 170.496094 C 243.335938 170.496094 242.222656 170.371094 241.113281 170.085938 C 239.957031 169.753906 238.847656 169.261719 237.652344 169.136719 C 236.828125 169.054688 235.964844 169.011719 235.140625 169.136719 C 235.46875 169.550781 235.921875 169.835938 236.375 170.085938 C 237.160156 170.496094 237.734375 170.578125 238.558594 170.660156 C 239.257812 170.703125 240.042969 170.578125 240.742188 170.785156 C 241.484375 170.992188 241.730469 171.855469 242.265625 172.308594 C 242.511719 172.515625 242.925781 172.597656 243.007812 172.96875 C 243.089844 173.214844 242.925781 173.460938 242.757812 173.625 C 242.964844 173.707031 243.171875 173.75 243.417969 173.789062 C 243.542969 173.667969 243.625 173.503906 243.707031 173.378906 C 243.871094 173.089844 243.996094 172.515625 244.28125 172.347656 C 244.816406 172.0625 244.941406 173.171875 244.941406 173.875 C 245.722656 174.039062 246.671875 174.574219 246.054688 175.519531 C 245.476562 176.425781 244.199219 176.550781 243.253906 176.632812 C 240.945312 176.921875 238.476562 176.34375 236.210938 175.808594 C 235.222656 175.601562 234.277344 175.3125 233.289062 175.148438 C 233.082031 175.3125 232.835938 175.519531 232.710938 175.644531 C 232.300781 175.933594 231.929688 176.054688 231.476562 176.179688 C 230.980469 176.34375 230.324219 176.46875 229.785156 176.796875 C 229.828125 176.921875 229.828125 177.003906 229.871094 177.125 C 229.992188 177.539062 230.199219 177.867188 230.324219 178.28125 C 230.609375 179.226562 230.898438 180.175781 230.941406 181.203125 C 230.734375 180.957031 230.488281 180.585938 230.15625 180.503906 C 230.074219 181.367188 230.570312 182.398438 230.15625 183.261719 C 229.953125 182.808594 229.746094 182.605469 229.417969 182.316406 C 229.417969 182.890625 229.457031 183.425781 229.332031 184.003906 C 229.210938 184.621094 229.046875 185.199219 228.921875 185.816406 C 228.882812 185.363281 228.796875 184.828125 228.511719 184.496094 C 228.261719 184.867188 228.222656 185.570312 228.058594 186.023438 C 227.851562 186.558594 227.605469 187.09375 227.316406 187.585938 C 227.273438 186.925781 227.191406 186.308594 226.820312 185.734375 C 226.699219 185.855469 226.65625 186.105469 226.617188 186.269531 C 226.492188 186.597656 226.367188 186.886719 226.246094 187.214844 C 226.039062 187.75 225.832031 188.328125 225.546875 188.78125 C 225.503906 188.367188 225.378906 187.503906 224.96875 187.378906 C 224.515625 188.121094 224.308594 189.191406 223.609375 189.769531 C 223.484375 189.398438 223.570312 188.699219 223.199219 188.453125 C 222.746094 188.988281 222.703125 189.808594 222.292969 190.386719 C 222.085938 190.675781 222.128906 190.59375 222.042969 190.261719 C 221.960938 190.015625 221.878906 189.769531 221.757812 189.523438 C 221.507812 189.5625 221.222656 190.429688 221.097656 190.675781 C 220.851562 191.085938 220.5625 191.457031 220.355469 191.871094 C 220.316406 191.457031 220.148438 191.046875 220.066406 190.632812 C 220.066406 190.59375 220.066406 190.550781 220.027344 190.550781 C 219.984375 190.59375 219.984375 190.632812 219.945312 190.675781 C 219.699219 191.128906 219.449219 191.582031 219.246094 192.035156 C 219.039062 192.488281 218.75 192.898438 218.585938 193.394531 C 218.421875 193.804688 218.296875 194.300781 218.050781 194.667969 C 217.96875 194.050781 217.84375 193.0625 217.472656 192.570312 C 217.351562 193.765625 216.816406 195.039062 216.195312 195.988281 C 216.15625 195.492188 215.992188 194.585938 215.621094 194.257812 C 215.332031 194.503906 215.25 195.164062 215.085938 195.535156 C 214.921875 195.824219 214.507812 196.648438 214.179688 196.730469 C 214.097656 196.316406 213.972656 195.742188 213.683594 195.453125 C 213.355469 195.742188 213.191406 196.5625 212.984375 196.976562 C 212.65625 197.59375 212.242188 198.171875 211.957031 198.789062 C 211.914062 198.335938 211.789062 197.882812 211.625 197.46875 C 211.503906 197.183594 211.460938 196.933594 211.253906 197.222656 C 211.171875 197.347656 211.132812 197.636719 211.089844 197.800781 C 210.964844 198.128906 210.800781 198.417969 210.636719 198.707031 C 210.390625 199.160156 210.101562 199.652344 209.773438 200.023438 C 209.730469 199.695312 209.320312 198.171875 208.90625 198.625 C 208.824219 198.746094 208.785156 199.035156 208.742188 199.199219 C 208.660156 199.445312 208.535156 199.652344 208.414062 199.898438 C 208.25 200.230469 208.085938 200.847656 207.753906 201.011719 C 207.546875 200.519531 207.589844 199.777344 207.136719 199.40625 C 206.890625 199.652344 206.847656 200.394531 206.683594 200.722656 C 206.558594 201.054688 206.273438 202.125 205.941406 202.125 C 205.902344 201.792969 205.738281 201.011719 205.367188 200.929688 C 205.203125 201.136719 205.203125 201.382812 205.117188 201.628906 C 204.953125 202.042969 204.75 202.535156 204.460938 202.90625 C 204.089844 203.441406 203.59375 204.140625 203.101562 204.511719 C 203.019531 204.265625 203.101562 203.976562 203.101562 203.730469 C 203.101562 203.359375 203.019531 202.988281 202.9375 202.660156 C 203.308594 203.277344 202.894531 203.8125 202.648438 204.183594 Z M 202.648438 204.183594 " fill-opacity="1" fill-rule="nonzero"/></g></svg>