<svg xmlns="http://www.w3.org/2000/svg" xmlns:xlink="http://www.w3.org/1999/xlink" width="396" zoomAndPan="magnify" viewBox="0 0 297.12 419.249996" height="559" preserveAspectRatio="xMidYMid meet" version="1.0"><defs><g/><clipPath id="f3c35d9b91"><path d="M 0 0.246094 L 296.238281 0.246094 L 296.238281 417.367188 L 0 417.367188 Z M 0 0.246094 " clip-rule="nonzero"/></clipPath><clipPath id="9ee972942a"><path d="M 30.125 42.132812 L 265.921875 42.132812 L 265.921875 375.683594 L 30.125 375.683594 Z M 30.125 42.132812 " clip-rule="nonzero"/></clipPath><clipPath id="bae9cc6bdf"><path d="M 56 61.074219 L 240 61.074219 L 240 375.96875 L 56 375.96875 Z M 56 61.074219 " clip-rule="nonzero"/></clipPath></defs><g clip-path="url(#f3c35d9b91)"><path fill="#ffffff" d="M 0 0.246094 L 296.238281 0.246094 L 296.238281 417.367188 L 0 417.367188 Z M 0 0.246094 " fill-opacity="1" fill-rule="nonzero"/><path fill="#ffffff" d="M 0 0.246094 L 296.238281 0.246094 L 296.238281 417.367188 L 0 417.367188 Z M 0 0.246094 " fill-opacity="1" fill-rule="nonzero"/></g><g clip-path="url(#9ee972942a)"><path stroke-linecap="butt" transform="matrix(0.746195, 0, 0, 0.746195, 30.125007, 42.134026)" fill="none" stroke-linejoin="miter" d="M -0.00000963595 -0.00162593 L 316.108775 -0.00162593 L 316.108775 447.094557 L -0.00000963595 447.094557 Z M -0.00000963595 -0.00162593 " stroke="#e30613" stroke-width="6" stroke-opacity="1" stroke-miterlimit="4"/></g><g clip-path="url(#bae9cc6bdf)"><path fill="#e30613" d="M 140.246094 61.296875 L 140.144531 63.269531 C 140.101562 64.355469 140.011719 67.628906 139.945312 70.554688 L 139.84375 75.867188 L 136.859375 72.78125 C 133.40625 69.1875 132.945312 69.046875 132.960938 71.515625 C 132.96875 72.519531 134.375 74.871094 136.074219 76.753906 C 138.792969 79.765625 139.175781 80.714844 139.335938 84.71875 C 139.460938 87.742188 139.222656 89.09375 138.652344 88.742188 C 138.183594 88.453125 137.820312 87.6875 137.820312 87.046875 C 137.820312 86.40625 137.453125 85.882812 137.011719 85.882812 C 136.566406 85.882812 136.199219 84.472656 136.199219 82.746094 C 136.199219 79.15625 134.164062 76.644531 132.886719 78.648438 C 132.480469 79.289062 132.3125 80.242188 132.507812 80.773438 C 132.9375 81.953125 130.609375 81.183594 129.042969 79.636719 C 128.453125 79.054688 127.503906 78.597656 126.917969 78.597656 C 124.726562 78.597656 125.085938 80.882812 127.75 83.9375 C 130.921875 87.570312 131.09375 88.292969 128.992188 88.84375 C 127.957031 89.113281 127.605469 89.742188 127.878906 90.792969 C 128.332031 92.53125 130.503906 92.84375 131.976562 91.371094 C 133.078125 90.269531 133.105469 90.328125 133.292969 93.371094 C 133.445312 95.910156 133.304688 95.96875 130.535156 94.382812 C 127.820312 92.832031 127.296875 92.871094 127.296875 94.710938 C 127.296875 95.570312 128.480469 97.195312 129.925781 98.328125 C 131.902344 99.875 132.121094 100.285156 130.835938 99.949219 C 129.722656 99.65625 128.957031 99.945312 128.636719 100.78125 C 127.941406 102.597656 127.375 102.449219 121.984375 98.9375 C 119.339844 97.210938 116.773438 95.945312 116.292969 96.128906 C 114.609375 96.773438 115.679688 99.863281 118.039062 101.164062 L 120.417969 102.453125 L 118.242188 102.707031 C 117.054688 102.847656 115.894531 103.464844 115.660156 104.070312 C 115.207031 105.253906 117.230469 106.414062 118.441406 105.664062 C 118.847656 105.414062 119.203125 105.597656 119.203125 106.070312 C 119.203125 106.542969 119.839844 106.945312 120.617188 106.980469 C 121.648438 107.027344 121.71875 107.160156 120.898438 107.484375 C 120.039062 107.824219 120.207031 108.285156 121.628906 109.359375 L 123.527344 110.773438 L 120.136719 111.355469 C 116.652344 111.945312 115.855469 113.246094 117.9375 114.972656 C 118.722656 115.625 119.550781 115.691406 120.464844 115.175781 C 121.992188 114.320312 124.867188 114.800781 124.867188 115.910156 C 124.867188 116.304688 125.597656 116.644531 126.488281 116.644531 C 127.378906 116.644531 128.105469 116.277344 128.105469 115.832031 C 128.105469 115.386719 128.925781 115.035156 129.925781 115.050781 L 131.75 115.074219 L 129.75 116.71875 C 128.199219 118.011719 128.003906 118.515625 128.863281 119.046875 C 130.078125 119.796875 132.175781 119.246094 133.214844 117.90625 C 133.589844 117.421875 133.6875 118.03125 133.417969 119.273438 C 133.011719 121.128906 133.195312 121.5 134.554688 121.5 C 135.453125 121.5 136.214844 121.042969 136.25 120.488281 C 136.292969 119.796875 136.449219 119.839844 136.757812 120.613281 C 137.085938 121.441406 137.492188 121.21875 138.25 119.804688 L 139.285156 117.855469 L 140.296875 120.082031 C 140.855469 121.304688 141.054688 122.566406 140.726562 122.890625 C 140.402344 123.214844 137.5 123.613281 134.277344 123.777344 C 128.882812 124.050781 128.101562 123.886719 124.539062 121.625 C 120.992188 119.375 118.394531 119 118.394531 120.742188 C 118.394531 121.125 119.394531 122.015625 120.617188 122.714844 L 122.84375 123.980469 L 120.011719 123.449219 C 117.210938 122.933594 112.496094 120.507812 110.425781 118.488281 C 109.835938 117.917969 108.652344 117.453125 107.792969 117.453125 C 106.144531 117.453125 105.714844 119.019531 107.007812 120.3125 C 107.496094 120.796875 106.25 121.1875 103.621094 121.347656 C 101.328125 121.488281 99.144531 121.785156 98.789062 122.003906 C 96.128906 123.652344 102.683594 126.636719 107.441406 125.953125 L 110.703125 125.496094 L 108.425781 126.785156 C 107.046875 127.570312 106.238281 128.617188 106.402344 129.441406 C 106.796875 131.421875 110.292969 130.757812 112.523438 128.277344 C 113.5625 127.125 114.964844 126.371094 115.761719 126.558594 C 116.878906 126.824219 116.734375 127.09375 115.027344 127.796875 C 112.273438 128.9375 111.4375 130.269531 113.105469 130.910156 C 113.828125 131.1875 114.238281 131.878906 114.015625 132.453125 C 113.796875 133.027344 114.160156 133.699219 114.800781 133.945312 C 115.441406 134.191406 115.964844 134.070312 115.964844 133.691406 C 115.964844 133.03125 118.578125 131.894531 120.542969 131.695312 C 121.058594 131.640625 122.242188 130.890625 123.171875 130.050781 C 124.105469 129.207031 124.867188 128.789062 124.867188 129.113281 C 124.867188 129.953125 123.097656 131.605469 121 132.730469 C 120.003906 133.261719 119.203125 134.058594 119.203125 134.5 C 119.203125 136.027344 121.695312 136.265625 123.222656 134.882812 C 124.683594 133.558594 124.734375 133.570312 124.3125 135.183594 C 123.695312 137.546875 125.351562 137.3125 126.992188 134.804688 C 128.019531 133.238281 128.523438 132.992188 129.042969 133.792969 C 129.605469 134.664062 129.835938 134.65625 130.40625 133.769531 C 130.792969 133.171875 131.792969 132.777344 132.632812 132.882812 C 135.898438 133.296875 140.195312 130.378906 140.324219 127.648438 C 140.394531 126.171875 140.472656 126.21875 140.980469 127.976562 C 141.464844 129.644531 141.066406 130.457031 138.679688 132.605469 C 137.089844 134.035156 133.542969 136.386719 130.789062 137.839844 L 125.777344 140.472656 L 121.882812 138.523438 C 119.742188 137.453125 117.53125 136.503906 116.976562 136.398438 C 115.53125 136.125 115.726562 137.6875 117.382812 139.636719 C 118.65625 141.136719 118.648438 141.179688 117.40625 140.21875 C 116.648438 139.632812 115.71875 139.347656 115.332031 139.585938 C 114.945312 139.824219 113.617188 139.496094 112.371094 138.851562 C 109.390625 137.304688 108.460938 137.382812 109.007812 139.105469 C 109.371094 140.25 108.988281 140.503906 107.035156 140.445312 C 105.703125 140.40625 104.421875 140.160156 104.175781 139.914062 C 103.191406 138.929688 100.585938 140.378906 100.585938 141.914062 C 100.585938 143.15625 100.976562 143.441406 102.28125 143.101562 C 103.90625 142.675781 103.914062 142.714844 102.558594 144.214844 C 101.09375 145.835938 101.332031 146.058594 104.40625 145.808594 C 105.816406 145.695312 106.109375 145.96875 105.695312 147.046875 C 105.257812 148.1875 105.535156 148.378906 107.210938 148.058594 C 108.886719 147.738281 109.175781 147.929688 108.855469 149.148438 C 108.425781 150.800781 108.9375 150.980469 110.957031 149.90625 C 112.941406 148.851562 115.445312 152.203125 113.8125 153.726562 C 112.902344 154.578125 112.625 154.546875 112.269531 153.625 C 112.03125 152.992188 110.59375 152.46875 109.007812 152.410156 C 107.453125 152.351562 106.363281 152.628906 106.605469 153.019531 C 106.847656 153.410156 106.332031 153.527344 105.441406 153.296875 C 103.398438 152.761719 103.335938 153.992188 105.339844 155.242188 C 106.402344 155.90625 106.730469 156.796875 106.453125 158.253906 C 105.964844 160.816406 105.839844 160.835938 102.863281 158.328125 C 101.539062 157.21875 99.929688 156.304688 99.296875 156.304688 C 97.9375 156.304688 97.871094 156.703125 98.914062 158.660156 C 99.765625 160.246094 99.230469 160.285156 93.097656 159.113281 C 91.097656 158.734375 90.0625 158.839844 90.0625 159.417969 C 90.0625 160.464844 94.265625 162.78125 96.183594 162.78125 C 97.289062 162.78125 97.355469 162.984375 96.539062 163.972656 C 95.734375 164.941406 95.761719 165.273438 96.714844 165.640625 C 97.367188 165.890625 98.238281 166.019531 98.636719 165.945312 C 100.328125 165.628906 101.382812 166.085938 101.191406 167.03125 C 101.066406 167.652344 101.847656 168.019531 103.214844 167.992188 C 104.929688 167.957031 105.445312 168.332031 105.46875 169.613281 C 105.492188 171.210938 105.558594 171.195312 107.085938 169.359375 C 108.347656 167.839844 108.679688 167.730469 108.679688 168.800781 C 108.679688 169.546875 109.042969 169.9375 109.488281 169.664062 C 109.933594 169.386719 110.644531 170.105469 111.082031 171.253906 C 111.519531 172.40625 112.433594 173.550781 113.105469 173.8125 C 113.78125 174.070312 114.347656 174.785156 114.34375 175.402344 C 114.34375 176.023438 114.929688 176.542969 115.660156 176.542969 C 116.390625 176.542969 117.449219 177.160156 118.011719 177.933594 C 118.980469 179.257812 119.160156 179.246094 120.949219 177.730469 L 122.84375 176.136719 L 121.402344 177.832031 C 120.53125 178.867188 117.832031 180.042969 114.421875 180.867188 C 107.292969 182.589844 105.570312 182.535156 102.660156 180.613281 C 99.960938 178.835938 98.644531 179.167969 99.371094 181.449219 C 99.777344 182.730469 99.46875 183.019531 97.550781 183.019531 C 96.273438 183.019531 94.859375 182.65625 94.414062 182.207031 C 93.871094 181.664062 93.082031 181.773438 92.035156 182.539062 C 90.53125 183.636719 90.570312 183.738281 93.074219 185.167969 C 94.960938 186.246094 95.558594 187.066406 95.222656 188.128906 C 94.925781 189.074219 95.15625 189.539062 95.855469 189.441406 C 98.199219 189.125 99.109375 189.523438 98.664062 190.683594 C 97.886719 192.707031 100.839844 193.671875 103.089844 192.125 C 104.5625 191.109375 104.78125 191.0625 104.050781 191.972656 C 102.683594 193.675781 104 195.457031 106.125 194.78125 C 109.191406 193.808594 110.015625 195.363281 107.011719 196.449219 C 103.148438 197.84375 99.296875 197.816406 97.855469 196.375 C 96.257812 194.777344 93.777344 194.757812 94.386719 196.347656 C 94.765625 197.332031 94.203125 197.464844 91.226562 197.058594 C 86.871094 196.460938 86.328125 197.804688 90.339844 199.257812 C 92.289062 199.960938 92.976562 200.644531 92.71875 201.636719 C 92.285156 203.289062 94.84375 204.207031 96.816406 203.101562 C 97.890625 202.5 98.15625 202.734375 98.15625 204.34375 C 98.15625 205.984375 98.453125 206.265625 99.902344 205.886719 C 101.335938 205.511719 101.542969 205.671875 101.089844 206.847656 C 100.648438 208 100.875 208.222656 102.179688 207.882812 C 103.078125 207.648438 103.824219 207.78125 103.824219 208.1875 C 103.824219 209.605469 105.535156 208.894531 107.695312 206.59375 C 110.292969 203.820312 111.832031 203.207031 113.738281 204.191406 C 115.957031 205.332031 115.402344 206.253906 112.726562 205.859375 C 109.941406 205.449219 109.527344 206.683594 111.539062 209.550781 C 112.714844 211.230469 112.707031 211.347656 111.210938 211.347656 C 110.324219 211.347656 109.042969 211.894531 108.375 212.5625 C 107.707031 213.230469 106.621094 213.777344 105.949219 213.777344 C 105.273438 213.777344 104.511719 214.117188 104.253906 214.535156 C 103.996094 214.953125 102.367188 215.269531 100.636719 215.242188 C 98.90625 215.21875 97.019531 215.492188 96.4375 215.851562 C 95.855469 216.210938 94.199219 216.429688 92.769531 216.332031 C 90.613281 216.1875 90.128906 216.476562 89.910156 218 C 89.722656 219.328125 89.089844 219.859375 87.632812 219.921875 C 86.523438 219.972656 85.246094 220.113281 84.800781 220.226562 C 84.355469 220.339844 83.355469 220.355469 82.574219 220.277344 C 81.796875 220.199219 81.160156 220.457031 81.160156 220.835938 C 81.160156 221.90625 85.636719 224.300781 87.660156 224.300781 C 89.429688 224.300781 89.464844 224.34375 88.039062 225.917969 C 86.609375 227.5 86.625 227.539062 88.695312 227.539062 C 90.28125 227.539062 90.699219 227.839844 90.339844 228.777344 C 89.949219 229.800781 90.289062 229.933594 92.1875 229.484375 C 93.46875 229.183594 94.695312 228.949219 94.917969 228.953125 C 97.445312 229.003906 98.03125 229.28125 97.652344 230.269531 C 96.804688 232.472656 98.902344 232.410156 100.105469 230.195312 C 101.25 228.082031 101.3125 228.054688 101.34375 229.761719 C 101.363281 230.765625 101.667969 231.613281 102.003906 231.660156 C 106.949219 232.382812 107.757812 232.144531 108.753906 229.738281 L 109.769531 227.308594 L 110.476562 229.230469 L 111.183594 231.179688 L 112.753906 229.15625 C 114.304688 227.136719 114.304688 227.132812 114.320312 228.953125 C 114.34375 231.410156 115.789062 231.269531 116.421875 228.75 C 116.699219 227.636719 117.289062 226.726562 117.710938 226.726562 C 118.132812 226.726562 118.21875 227.121094 117.914062 227.613281 C 117.527344 228.238281 118.152344 228.34375 119.988281 227.941406 C 121.933594 227.515625 122.542969 227.613281 122.289062 228.371094 C 121.792969 229.863281 116.722656 232.394531 114.21875 232.394531 C 113.035156 232.394531 111.902344 232.847656 111.691406 233.40625 C 111.453125 234.027344 109.871094 234.382812 107.566406 234.34375 C 105.507812 234.304688 103.824219 234.5625 103.824219 234.898438 C 103.824219 236.457031 106.632812 238.140625 108.855469 237.910156 C 110.179688 237.769531 111.320312 237.976562 111.386719 238.390625 C 111.601562 239.738281 106.855469 240.496094 95.324219 240.945312 C 82.328125 241.449219 77.113281 242.019531 77.113281 242.890625 C 77.113281 243.226562 76.199219 243.332031 75.085938 243.121094 C 73.9375 242.898438 73.0625 243.101562 73.0625 243.601562 C 73.0625 244.734375 75.707031 246.15625 77.84375 246.15625 C 78.765625 246.15625 79.539062 246.519531 79.539062 246.964844 C 79.539062 247.410156 79.144531 247.773438 78.679688 247.773438 C 78.214844 247.773438 77.03125 248.527344 76.050781 249.46875 L 74.277344 251.1875 L 76.910156 250.835938 C 78.648438 250.597656 79.539062 250.804688 79.539062 251.464844 C 79.539062 252.066406 80.1875 252.304688 81.160156 252.046875 C 82.0625 251.8125 82.777344 252.023438 82.777344 252.527344 C 82.777344 253.835938 84.835938 253.644531 86.015625 252.226562 C 86.570312 251.558594 87.375 251.011719 87.835938 251.011719 C 88.296875 251.011719 88.09375 251.664062 87.355469 252.476562 C 86.621094 253.292969 86.015625 254.203125 86.015625 254.503906 C 86.015625 255.359375 89.101562 255.148438 89.65625 254.25 C 90.460938 252.953125 91.53125 253.308594 92.085938 255.058594 C 92.734375 257.105469 93.660156 257.09375 96.589844 255.007812 L 98.941406 253.339844 L 98.433594 255.816406 C 97.824219 258.863281 99.296875 259.109375 102.582031 256.527344 C 104.742188 254.828125 104.804688 254.828125 103.949219 256.425781 C 102.945312 258.304688 103.429688 259.195312 105.113281 258.550781 C 105.742188 258.308594 106.804688 258.554688 107.464844 259.105469 C 108.300781 259.800781 108.679688 259.839844 108.679688 259.207031 C 108.679688 258.707031 109.226562 258.296875 109.894531 258.296875 C 110.5625 258.296875 111.109375 258.796875 111.109375 259.433594 C 111.109375 260.21875 111.824219 260.515625 113.335938 260.34375 C 121.761719 259.390625 110.863281 264.289062 101.066406 265.859375 C 94.660156 266.886719 94.019531 266.847656 91.910156 265.453125 C 90.664062 264.632812 89.203125 263.964844 88.648438 263.960938 C 86.972656 263.953125 87.507812 265.574219 89.457031 266.414062 C 90.792969 266.992188 90.308594 267.054688 87.636719 266.644531 C 85.632812 266.335938 83.082031 266.132812 81.96875 266.1875 C 80.855469 266.242188 78.140625 265.765625 75.949219 265.125 C 73.757812 264.488281 71.84375 264.070312 71.699219 264.214844 C 70.855469 265.058594 76.035156 268.398438 78.933594 268.871094 L 82.375 269.425781 L 79.339844 269.527344 C 77.222656 269.597656 76.300781 269.996094 76.300781 270.84375 C 76.300781 271.511719 76.941406 272.117188 77.71875 272.183594 C 78.5 272.25 79.5 272.382812 79.945312 272.488281 C 80.390625 272.589844 81.277344 272.714844 81.917969 272.765625 C 82.777344 272.832031 82.667969 273.160156 81.511719 274.003906 C 79.511719 275.46875 80.464844 276.519531 82.703125 275.320312 C 84.09375 274.574219 84.398438 274.652344 84.398438 275.75 C 84.398438 276.789062 84.976562 277 87.027344 276.710938 C 88.476562 276.507812 90.386719 276.078125 91.277344 275.75 C 92.875 275.164062 92.851562 275.171875 91.304688 276.433594 C 89.726562 277.71875 90.0625 278.015625 92.695312 277.75 C 93.5 277.667969 94.109375 278.167969 94.109375 278.886719 C 94.109375 280.617188 94.765625 280.476562 96.691406 278.328125 L 98.335938 276.507812 L 97.019531 278.710938 C 96.304688 279.917969 95.730469 281.273438 95.730469 281.746094 C 95.730469 282.996094 99.699219 282.070312 101.597656 280.378906 C 103.1875 278.960938 103.199219 278.984375 102.585938 280.960938 C 101.730469 283.703125 100.734375 284.285156 93.277344 286.527344 C 87.078125 288.386719 86.707031 288.410156 83.359375 287.132812 C 79.714844 285.738281 74.683594 285.34375 74.683594 286.449219 C 74.683594 286.804688 75.105469 287.554688 75.644531 288.09375 C 76.300781 288.75 75.21875 288.648438 72.332031 287.789062 C 69.96875 287.089844 67.480469 286.714844 66.792969 286.980469 C 65.734375 287.386719 65.828125 287.789062 67.398438 289.460938 L 69.246094 291.433594 L 66.511719 290.648438 C 62.992188 289.640625 58.714844 289.640625 58.089844 290.648438 C 57.445312 291.691406 62.859375 293.90625 66.058594 293.910156 L 68.613281 293.910156 L 66.234375 295.808594 C 63.886719 297.6875 63.910156 300.152344 66.261719 299.25 C 67.042969 298.949219 67.398438 299.4375 67.398438 300.816406 C 67.398438 302.25 67.820312 302.816406 68.941406 302.816406 C 69.800781 302.816406 71.066406 303.371094 71.75 304.054688 C 72.777344 305.085938 73.261719 305.113281 74.632812 304.257812 C 75.539062 303.691406 76.300781 302.953125 76.300781 302.613281 C 76.300781 302.273438 76.941406 302.644531 77.746094 303.421875 C 79.292969 304.925781 79.734375 306.863281 78.527344 306.863281 C 78.132812 306.863281 78.070312 307.253906 78.375 307.75 C 78.761719 308.371094 78.164062 308.488281 76.402344 308.101562 C 74.789062 307.746094 73.875 307.847656 73.875 308.40625 C 73.875 308.902344 72.300781 309.292969 70.230469 309.292969 C 66.4375 309.292969 65.722656 309.992188 67.804688 311.71875 C 68.613281 312.390625 70.328125 312.570312 72.863281 312.25 L 76.707031 311.769531 L 73.695312 313.363281 C 71.605469 314.472656 70.832031 315.351562 71.167969 316.222656 C 71.46875 317.007812 72.144531 317.269531 72.964844 316.929688 C 73.683594 316.632812 74.824219 316.304688 75.492188 316.195312 C 76.160156 316.089844 76.25 316.15625 75.695312 316.347656 C 73.644531 317.054688 74.703125 318.351562 76.910156 317.839844 C 78.503906 317.472656 78.796875 317.554688 77.945312 318.121094 C 75.804688 319.539062 77.707031 319.953125 80.273438 318.625 C 81.652344 317.914062 82.777344 317.675781 82.777344 318.09375 C 82.777344 318.511719 82.324219 319.035156 81.765625 319.230469 C 81.210938 319.429688 81.035156 319.894531 81.386719 320.269531 C 81.738281 320.644531 83.0625 320.550781 84.347656 320.066406 C 86.261719 319.34375 86.625 319.394531 86.269531 320.320312 C 85.957031 321.132812 86.246094 321.285156 87.332031 320.902344 C 88.59375 320.453125 88.675781 320.5625 87.785156 321.507812 C 86.957031 322.390625 84.171875 322.605469 75.039062 322.46875 C 67.96875 322.367188 63.351562 322.605469 63.351562 323.078125 C 63.351562 323.503906 63.917969 323.863281 64.617188 323.863281 C 65.316406 323.863281 66.394531 324.375 67.019531 325 C 67.992188 325.972656 67.972656 326.203125 66.890625 326.617188 C 66.199219 326.882812 64.484375 327.09375 63.074219 327.097656 C 60.097656 327.113281 58.058594 328.167969 58.773438 329.324219 C 59.65625 330.753906 63.671875 331.015625 66.992188 329.855469 C 71.421875 328.3125 71.660156 328.402344 69.371094 330.691406 C 66.515625 333.546875 66.722656 335.265625 69.800781 334.382812 C 71.121094 334.003906 72.578125 333.453125 73.039062 333.167969 C 73.5 332.886719 73.90625 333.324219 73.972656 334.132812 C 74.042969 334.9375 74.152344 336.007812 74.203125 336.535156 C 74.25 337.058594 74.539062 337.753906 74.835938 338.050781 C 75.472656 338.691406 80.347656 335.960938 80.347656 334.964844 C 80.347656 334.589844 80.679688 334.5 81.109375 334.761719 C 81.605469 335.070312 81.605469 335.980469 81.109375 337.292969 C 80.679688 338.417969 80.347656 339.703125 80.347656 340.152344 C 80.347656 341.222656 84.175781 338.453125 88.011719 334.613281 C 90.878906 331.746094 91.285156 332.238281 88.621094 335.34375 C 87.964844 336.109375 87.675781 337.351562 87.960938 338.101562 C 88.429688 339.316406 88.695312 339.246094 90.542969 337.519531 L 92.640625 335.597656 L 92.363281 337.621094 C 92.109375 339.480469 91.554688 339.722656 85.609375 340.707031 C 81.433594 341.398438 78.695312 341.503906 77.894531 341.011719 C 75.867188 339.757812 71.445312 339.015625 71.445312 339.921875 C 71.445312 340.375 72.082031 340.914062 72.863281 341.113281 C 73.640625 341.3125 72.457031 341.308594 70.230469 341.113281 C 66.976562 340.828125 66.382812 340.949219 67.195312 341.769531 C 68.742188 343.332031 68.394531 343.914062 66.183594 343.492188 C 63.566406 342.988281 59.894531 343.925781 60.519531 344.933594 C 60.785156 345.363281 61.832031 345.714844 62.84375 345.714844 C 66.304688 345.714844 65.820312 346.832031 61.605469 348.523438 C 54.421875 351.410156 55.992188 353.558594 63.375 350.953125 C 67.113281 349.632812 68.574219 349.863281 65.828125 351.332031 C 64.902344 351.828125 64.160156 352.808594 64.160156 353.507812 C 64.160156 354.484375 64.648438 354.65625 66.308594 354.242188 C 68.21875 353.761719 68.363281 353.839844 67.421875 354.972656 C 65.242188 357.601562 67.554688 357.609375 71.167969 354.972656 C 72.851562 353.746094 72.921875 353.757812 72.457031 355.554688 C 72.023438 357.246094 72.109375 357.328125 73.34375 356.316406 C 74.558594 355.316406 74.640625 355.363281 74.152344 356.71875 C 73.667969 358.058594 73.859375 358.015625 75.617188 356.417969 C 77.679688 354.539062 78.949219 354.699219 78.171875 356.71875 C 77.554688 358.332031 79.496094 358.117188 82.574219 356.238281 C 84.039062 355.34375 85.207031 355.039062 85.207031 355.53125 C 85.207031 356.078125 86.054688 356.222656 87.433594 355.910156 C 88.9375 355.570312 89.265625 355.640625 88.445312 356.136719 C 87.777344 356.539062 85.226562 357.277344 82.777344 357.78125 C 77.503906 358.871094 75.867188 359.753906 76.679688 361.070312 C 77.238281 361.972656 78.328125 361.875 83.183594 360.566406 C 84.421875 360.230469 84.183594 360.742188 82.171875 362.6875 C 80.722656 364.085938 79.539062 365.398438 79.539062 365.625 C 79.539062 366.429688 84.039062 365.429688 86.621094 364.054688 C 89.460938 362.546875 89.894531 363.007812 88.011719 365.496094 C 86.371094 367.671875 86.527344 368.628906 88.445312 368.128906 C 89.496094 367.851562 90.0625 368.121094 90.0625 368.859375 C 90.0625 370.375 90.804688 370.292969 92.691406 368.582031 C 94.1875 367.230469 94.253906 367.238281 93.984375 368.785156 C 93.550781 371.253906 98.039062 370.511719 100.433594 367.722656 L 102.304688 365.546875 L 101.773438 368.179688 C 101.070312 371.660156 103.101562 371.75 106.25 368.378906 C 107.5 367.046875 108.625 365.953125 108.78125 365.953125 C 108.9375 365.953125 109.117188 366.894531 109.1875 368.050781 C 109.371094 371.234375 110.6875 372.09375 112.371094 370.125 C 113.703125 368.574219 113.894531 368.542969 114.878906 369.824219 C 115.851562 371.089844 115.960938 371.070312 116.421875 369.441406 C 116.71875 368.390625 117.359375 367.851562 118.015625 368.101562 C 118.710938 368.371094 119.3125 367.734375 119.65625 366.355469 C 120.03125 364.863281 120.410156 364.488281 120.847656 365.195312 C 121.195312 365.757812 122.242188 366.339844 123.175781 366.484375 C 124.492188 366.683594 125.265625 365.945312 126.640625 363.121094 C 128.414062 359.46875 130.285156 358.0625 129.320312 361.097656 C 128.699219 363.054688 129.167969 363.109375 131.773438 361.398438 C 132.871094 360.679688 133.796875 359.3125 133.847656 358.363281 C 133.921875 356.980469 134.03125 356.917969 134.328125 358.058594 C 134.945312 360.417969 136.199219 358.78125 136.226562 355.582031 C 136.246094 353.160156 136.390625 352.863281 137.0625 354.011719 C 137.515625 354.792969 138.644531 355.429688 139.566406 355.429688 C 141.160156 355.429688 141.222656 355.726562 140.703125 361.703125 C 140.339844 365.878906 139.492188 369.289062 138.175781 371.898438 C 137.402344 373.425781 136.753906 374.785156 136.429688 375.539062 L 156.5625 375.539062 C 157.457031 374.824219 157.054688 373.570312 156.132812 371.367188 C 154.699219 367.929688 154.144531 360.914062 155.273438 360.539062 C 155.714844 360.390625 156.707031 361.351562 157.5 362.691406 C 158.976562 365.1875 160.789062 366.109375 159.953125 363.929688 C 158.996094 361.4375 160.503906 362.800781 161.597656 365.421875 C 162.472656 367.511719 163.171875 368.136719 164.632812 368.027344 C 165.679688 367.949219 167.066406 368.265625 167.691406 368.734375 C 168.511719 369.347656 168.929688 369.324219 169.160156 368.632812 C 169.375 367.996094 170.015625 368.199219 171.058594 369.242188 C 173.140625 371.324219 174.179688 371.226562 173.6875 368.988281 C 173.457031 367.925781 173.570312 367.519531 173.964844 368.027344 C 174.898438 369.222656 177.484375 370.09375 177.484375 369.214844 C 177.484375 368.398438 181.949219 368.6875 184.285156 369.644531 C 185.515625 370.148438 185.746094 369.992188 185.347656 368.964844 C 185.074219 368.246094 185.273438 367.515625 185.804688 367.320312 C 186.542969 367.046875 186.550781 366.695312 185.78125 365.878906 C 183.941406 363.929688 184.703125 363.679688 187.726562 365.21875 C 191.070312 366.921875 192.003906 366.671875 190.382812 364.535156 C 189.515625 363.394531 189.503906 363.300781 190.359375 364.054688 C 190.945312 364.578125 191.917969 364.824219 192.535156 364.585938 C 193.148438 364.351562 193.671875 364.484375 193.671875 364.890625 C 193.671875 365.296875 194.164062 366.320312 194.785156 367.167969 C 195.753906 368.496094 196.109375 368.554688 197.261719 367.597656 C 198.425781 366.632812 198.75 366.75 199.894531 368.382812 L 201.210938 370.253906 L 201.941406 368.304688 C 202.617188 366.496094 202.742188 366.460938 203.714844 367.773438 C 204.996094 369.511719 205.566406 369.539062 207.152344 367.953125 C 208.140625 366.964844 208.195312 366.472656 207.40625 365.523438 C 206.863281 364.867188 206.660156 364.335938 206.953125 364.335938 C 207.246094 364.332031 207.0625 363.515625 206.546875 362.511719 C 205.761719 360.988281 206.054688 361.078125 208.34375 363.144531 C 213.378906 367.699219 213.710938 367.867188 215.148438 366.433594 C 215.863281 365.71875 216.160156 364.695312 215.828125 364.132812 C 215.492188 363.554688 215.90625 363.648438 216.792969 364.359375 C 221.070312 367.792969 225.402344 368.472656 222.484375 365.246094 C 221.164062 363.789062 221.207031 363.675781 223.316406 363.144531 L 225.519531 362.589844 L 223.140625 360.667969 C 220.03125 358.125 221.695312 358.117188 226.152344 360.667969 C 228.089844 361.773438 230.148438 362.683594 230.703125 362.691406 C 232.335938 362.707031 231.867188 361.414062 229.894531 360.464844 C 228.253906 359.671875 228.378906 359.578125 231.335938 359.527344 C 233.144531 359.496094 235.328125 358.941406 236.191406 358.289062 C 237.6875 357.15625 237.667969 357.101562 235.359375 357.074219 C 231.890625 357.035156 219.5625 354.792969 216.992188 353.734375 C 213.847656 352.441406 213.25 350.460938 216.359375 351.636719 C 219.089844 352.664062 220.46875 351.816406 218.460938 350.347656 C 217.292969 349.492188 217.671875 349.390625 220.761719 349.636719 C 224.710938 349.953125 225.550781 348.957031 222.609375 347.460938 C 221.03125 346.660156 221.300781 346.558594 224.734375 346.730469 C 229.367188 346.957031 230.671875 345.433594 226.679688 344.453125 L 224.023438 343.792969 L 226.65625 343.492188 C 229.738281 343.125 230.007812 342.289062 227.464844 340.988281 C 225.976562 340.222656 226.609375 340.121094 230.90625 340.480469 C 235.75 340.886719 236.019531 340.820312 234.574219 339.671875 C 233.710938 338.984375 232.367188 338.433594 231.589844 338.433594 C 230.808594 338.433594 229.941406 338.03125 229.640625 337.546875 C 229.300781 336.996094 229.808594 336.710938 231.007812 336.8125 C 234.390625 337.09375 236.570312 336.828125 236.570312 336.105469 C 236.570312 335.71875 234.003906 335.148438 230.878906 334.839844 C 227.753906 334.53125 225.371094 333.984375 225.59375 333.625 C 225.816406 333.265625 228.148438 332.488281 230.777344 331.90625 C 235.742188 330.804688 238.882812 329.15625 237.886719 328.160156 C 237.378906 327.652344 232.875 328.386719 226.859375 329.984375 C 225.011719 330.472656 225.058594 330.320312 227.59375 328.136719 C 231.761719 324.542969 229.410156 324.171875 223.394531 327.480469 C 217.351562 330.800781 213.894531 331.070312 207.203125 328.769531 C 199.613281 326.15625 187.300781 319.90625 186.386719 318.195312 C 185.25 316.074219 185.894531 316.136719 187.953125 318.347656 C 188.863281 319.320312 189.625 319.820312 189.625 319.460938 C 189.625 319.101562 190.171875 319.261719 190.835938 319.816406 C 191.839844 320.648438 192.050781 320.570312 192.050781 319.359375 C 192.050781 318.140625 192.464844 318.289062 194.582031 320.269531 L 197.109375 322.648438 L 196.628906 320.042969 C 196.144531 317.472656 196.179688 317.449219 198.351562 318.371094 C 199.558594 318.886719 201.097656 319.730469 201.765625 320.246094 C 204.902344 322.660156 205.269531 322.605469 204.699219 319.765625 C 204.269531 317.617188 204.355469 317.242188 205.128906 318.019531 C 206.539062 319.425781 209.859375 319.269531 209.859375 317.792969 C 209.859375 316.28125 211.167969 316.207031 212.035156 317.664062 C 212.390625 318.261719 213.695312 319.378906 214.917969 320.167969 C 216.753906 321.351562 217.144531 321.398438 217.144531 320.421875 C 217.144531 319.773438 216.417969 318.597656 215.527344 317.792969 C 214.636719 316.984375 213.90625 315.941406 213.90625 315.488281 C 213.90625 315.039062 214.113281 314.910156 214.386719 315.1875 C 214.664062 315.460938 215.464844 315.121094 216.160156 314.425781 C 217.035156 313.550781 218.351562 313.285156 220.457031 313.566406 C 222.554688 313.847656 223.636719 313.632812 223.925781 312.882812 C 224.242188 312.058594 224.976562 311.972656 227.011719 312.554688 C 234.148438 314.601562 235.464844 312.269531 228.578125 309.773438 C 223.925781 308.085938 223.335938 307.234375 227.691406 308.484375 C 233.230469 310.070312 240.433594 308.867188 237.382812 306.863281 C 236.714844 306.425781 234.527344 306.011719 232.523438 305.953125 C 229.433594 305.859375 229.230469 305.78125 231.234375 305.347656 C 232.535156 305.066406 233.757812 304.324219 233.964844 303.703125 C 234.28125 302.753906 233.003906 302.644531 226.125 303.121094 C 218.023438 303.679688 217.894531 303.679688 218.890625 302.082031 C 220.371094 299.710938 219.355469 299.296875 215.324219 300.667969 C 213.144531 301.40625 210.347656 301.71875 208.164062 301.449219 C 203.484375 300.878906 188.003906 295.691406 186.183594 294.089844 C 184.28125 292.414062 184.390625 291.253906 186.386719 291.890625 C 187.292969 292.175781 188.003906 292.03125 188.003906 291.558594 C 188.003906 290.683594 189.21875 290.933594 193.265625 292.699219 C 194.601562 293.28125 197.535156 293.773438 199.792969 293.785156 C 202.050781 293.796875 204.238281 293.882812 204.648438 293.964844 C 206.542969 294.324219 206.742188 293.773438 205.332031 292.089844 C 204.316406 290.882812 204.636719 291.019531 206.269531 292.496094 C 209.066406 295.03125 209.859375 295.242188 209.859375 293.484375 C 209.859375 292.414062 210.121094 292.421875 211.933594 293.609375 C 213.15625 294.410156 214.25 294.660156 214.566406 294.214844 C 214.859375 293.796875 216.195312 292.980469 217.523438 292.394531 C 219.847656 291.371094 219.886719 291.292969 218.382812 290.195312 C 216.550781 288.855469 217.019531 288.742188 219.902344 289.839844 C 221.46875 290.4375 222 290.378906 222 289.585938 C 222 288.945312 224.054688 288.105469 227.261719 287.4375 C 230.15625 286.832031 232.523438 286.007812 232.523438 285.617188 C 232.523438 285.222656 232.867188 285.140625 233.308594 285.414062 C 233.75 285.6875 234.757812 285.542969 235.535156 285.109375 C 236.769531 284.417969 236.65625 284.234375 234.699219 283.742188 C 233.011719 283.320312 232.578125 282.824219 232.929688 281.71875 C 233.273438 280.636719 232.910156 280.203125 231.539062 280 C 230.226562 279.808594 231.160156 279.238281 234.726562 278.101562 C 240.253906 276.34375 241.617188 274.75 236.773438 275.699219 C 232.300781 276.578125 221.191406 276.777344 221.191406 275.976562 C 221.191406 275.597656 221.554688 275.296875 222 275.296875 C 222.445312 275.296875 222.8125 274.925781 222.8125 274.484375 C 222.8125 274.042969 221.082031 273.710938 218.964844 273.753906 C 213.65625 273.859375 205.164062 272.085938 204.648438 270.742188 C 204.359375 269.984375 204.882812 269.628906 206.242188 269.628906 C 207.339844 269.628906 208.242188 269.277344 208.242188 268.84375 C 208.242188 268.414062 208.789062 268.261719 209.453125 268.515625 C 210.121094 268.773438 210.667969 268.554688 210.667969 268.035156 C 210.667969 267.414062 211.28125 267.535156 212.464844 268.363281 C 213.453125 269.058594 215.183594 269.617188 216.308594 269.605469 L 218.359375 269.578125 L 216.488281 268.011719 L 214.640625 266.46875 L 218.511719 266.214844 L 222.40625 265.9375 L 219.574219 264.570312 L 216.738281 263.203125 L 219.21875 263.179688 C 220.796875 263.160156 222.414062 262.414062 223.621094 261.128906 C 224.667969 260.015625 225.894531 259.105469 226.378906 259.105469 C 226.859375 259.105469 227.738281 258.363281 228.300781 257.460938 C 229.78125 255.09375 227.894531 254.617188 223.242188 256.199219 C 218.222656 257.902344 217.183594 257.855469 217.703125 255.867188 C 218.210938 253.914062 218.078125 253.902344 212.996094 255.566406 C 209.128906 256.828125 208.726562 256.792969 202.550781 255.035156 C 194.21875 252.660156 192.082031 250.4375 198.503906 250.808594 C 199.164062 250.847656 199.960938 250.480469 200.273438 249.976562 C 200.671875 249.332031 201.34375 249.480469 202.472656 250.507812 C 203.742188 251.652344 204.800781 251.851562 207.382812 251.417969 C 211.058594 250.796875 211.289062 250.488281 209.253906 248.8125 C 207.796875 247.613281 208.335938 247.648438 211.808594 249.039062 C 213.050781 249.535156 213.261719 249.386719 212.84375 248.304688 C 212.460938 247.308594 212.769531 246.964844 214.007812 246.964844 C 215.136719 246.964844 215.546875 246.582031 215.246094 245.800781 C 215.003906 245.160156 215.222656 244.457031 215.753906 244.234375 C 216.433594 243.949219 216.339844 243.484375 215.398438 242.714844 C 214.171875 241.710938 214.21875 241.472656 216.007812 239.753906 C 218.921875 236.949219 218.382812 236.363281 214.109375 237.730469 C 203.488281 241.140625 199.59375 241.34375 196.984375 238.566406 C 195.507812 236.992188 195.421875 236.566406 196.402344 236.1875 C 197.0625 235.9375 198.695312 236.132812 200.046875 236.644531 C 203.503906 237.949219 204.246094 236.648438 201.359375 234.316406 C 199.339844 232.683594 199.203125 232.378906 200.550781 232.496094 C 203.382812 232.742188 205.003906 232.417969 205.003906 231.585938 C 205.003906 231.140625 204.367188 230.753906 203.585938 230.726562 C 202.441406 230.683594 202.480469 230.523438 203.863281 229.964844 C 204.804688 229.585938 205.792969 228.707031 206.066406 227.992188 C 206.496094 226.867188 206.335938 226.816406 204.777344 227.691406 C 201.953125 229.269531 185.082031 229.027344 181.527344 227.359375 C 179.046875 226.195312 178.914062 226.027344 180.59375 225.96875 C 182.125 225.917969 182.441406 225.578125 182.085938 224.222656 C 181.6875 222.707031 181.777344 222.648438 182.996094 223.691406 C 184.769531 225.210938 187.195312 226.0625 187.195312 225.160156 C 187.195312 224.769531 187.925781 224.625 188.8125 224.855469 C 189.71875 225.09375 190.433594 224.882812 190.433594 224.375 C 190.433594 223.878906 191.34375 223.492188 192.457031 223.492188 C 195.148438 223.492188 195.015625 222.683594 191.898438 220.125 L 189.292969 218 L 193.621094 218.683594 C 198.082031 219.390625 199.703125 219.097656 198.855469 217.722656 C 198.027344 216.382812 200.203125 214.585938 202.652344 214.585938 C 205.410156 214.585938 205.789062 213.25 203.183594 212.691406 C 202.148438 212.46875 202.585938 212.324219 204.195312 212.386719 C 206.035156 212.457031 206.957031 212.167969 206.824219 211.527344 C 206.714844 210.984375 207.007812 210.539062 207.507812 210.539062 C 208.117188 210.539062 208.085938 210.125 207.382812 209.273438 C 206.710938 208.46875 205.574219 208.144531 204.246094 208.414062 C 203.097656 208.648438 202.625 208.65625 203.183594 208.414062 C 205.050781 207.601562 204.222656 206.304688 202.171875 206.820312 C 200.527344 207.234375 200.277344 207.074219 200.703125 205.960938 C 201.085938 204.964844 200.917969 204.785156 200.121094 205.277344 C 199.523438 205.648438 198.105469 206.019531 196.960938 206.113281 C 195.8125 206.207031 193.972656 206.539062 192.863281 206.847656 L 190.839844 207.402344 L 193.0625 205.503906 C 195.636719 203.296875 196.007812 202.003906 193.722656 203.230469 C 191.464844 204.4375 189.808594 204.335938 191.066406 203.078125 C 192.882812 201.261719 192.164062 199.828125 190.308594 201.558594 C 189.355469 202.445312 187.449219 203.707031 186.058594 204.367188 C 181.113281 206.714844 167.769531 203.519531 167.769531 199.992188 C 167.769531 199.285156 167.316406 198.273438 166.78125 197.738281 C 166.132812 197.089844 166.113281 196.777344 166.707031 196.777344 C 167.191406 196.777344 167.789062 197.324219 168.046875 197.992188 C 168.34375 198.765625 169.5 199.167969 171.183594 199.105469 C 172.644531 199.050781 174.660156 199.285156 175.660156 199.613281 C 177.15625 200.101562 177.480469 199.882812 177.480469 198.5 L 177.480469 196.828125 L 180.238281 198.449219 C 182.222656 199.617188 183.160156 199.828125 183.578125 199.15625 C 183.898438 198.640625 183.660156 197.875 183.046875 197.460938 C 182.085938 196.816406 186.8125 196.902344 190.027344 197.589844 C 190.472656 197.683594 191.664062 197.484375 192.683594 197.15625 C 194.394531 196.609375 194.425781 196.445312 193.242188 195.132812 C 192.050781 193.820312 192.117188 193.691406 194.023438 193.210938 C 196.363281 192.625 196.828125 191.109375 194.683594 191.0625 C 193.789062 191.042969 194.164062 190.625 195.695312 189.925781 C 197.03125 189.3125 199.191406 187.921875 200.5 186.835938 L 202.851562 184.863281 L 199.894531 184.308594 C 198.253906 184 196.910156 183.402344 196.910156 182.96875 C 196.910156 182.511719 195.964844 182.394531 194.683594 182.714844 C 192.738281 183.199219 192.566406 183.125 193.46875 182.03125 C 195.03125 180.132812 192.703125 179.554688 190.304688 181.246094 C 189.183594 182.039062 186.75 182.628906 184.414062 182.664062 C 181.222656 182.710938 180.769531 182.550781 182.160156 181.929688 C 183.734375 181.226562 183.890625 180.570312 183.199219 177.480469 C 183.164062 177.332031 181.914062 177.96875 180.414062 178.894531 C 178.917969 179.820312 176.457031 180.570312 174.953125 180.566406 C 169.90625 180.546875 161.21875 177.1875 155.703125 173.101562 C 153.578125 171.53125 154.027344 171.207031 156.488281 172.519531 C 157.761719 173.203125 158.058594 173.089844 158.082031 171.914062 C 158.105469 170.535156 158.144531 170.519531 158.941406 171.886719 C 159.398438 172.675781 160.105469 173.125 160.507812 172.875 C 160.914062 172.625 162.164062 173.023438 163.292969 173.761719 C 165.316406 175.085938 165.328125 175.066406 165.339844 172.773438 C 165.347656 171.5 165.621094 170.867188 165.949219 171.355469 C 166.65625 172.417969 169.714844 174.113281 170.929688 174.113281 C 171.40625 174.113281 171.847656 173.292969 171.890625 172.292969 C 171.96875 170.5625 171.988281 170.574219 172.523438 172.496094 C 172.832031 173.609375 173.257812 174.351562 173.460938 174.164062 C 173.664062 173.976562 174.585938 174.226562 175.507812 174.722656 C 176.875 175.453125 177.394531 175.335938 178.292969 174.089844 C 178.898438 173.25 179.707031 172.765625 180.085938 173 C 180.46875 173.238281 180.53125 172.488281 180.238281 171.332031 C 179.734375 169.316406 179.800781 169.257812 181.933594 170.066406 C 184.566406 171.066406 185.382812 170.570312 183.957031 168.851562 C 183.105469 167.828125 183.191406 167.640625 184.386719 167.640625 C 185.75 167.640625 185.730469 167.550781 184.414062 166.097656 C 183.648438 165.25 183.367188 164.355469 183.78125 164.097656 C 184.195312 163.839844 185.171875 164.34375 185.957031 165.210938 C 187.1875 166.574219 187.980469 166.695312 191.117188 166.070312 C 191.28125 166.039062 191.03125 165.53125 190.535156 164.933594 C 189.480469 163.664062 190.105469 162.78125 192.078125 162.78125 C 192.84375 162.78125 194.339844 162.0625 195.390625 161.1875 L 197.3125 159.59375 L 194.886719 159.441406 C 193.550781 159.359375 191.5625 159.371094 190.484375 159.46875 C 188.773438 159.625 188.644531 159.476562 189.574219 158.355469 C 191.34375 156.222656 190.097656 156.230469 186.96875 158.355469 C 183.574219 160.660156 181.53125 161.0625 183.148438 159.113281 C 184.003906 158.082031 183.957031 157.953125 182.84375 158.378906 C 181.300781 158.972656 181.074219 157.875 182.464844 156.484375 C 184.539062 154.410156 182.339844 154.722656 179.785156 156.863281 C 174.753906 161.078125 174.136719 161.214844 168.453125 159.492188 C 162.492188 157.691406 158.496094 155.4375 157.296875 153.195312 C 156.5625 151.820312 156.730469 151.628906 158.484375 151.726562 C 159.59375 151.792969 160.671875 152.410156 160.886719 153.09375 C 161.105469 153.777344 162.050781 154.390625 162.988281 154.460938 C 164.355469 154.5625 164.59375 154.238281 164.226562 152.839844 C 163.820312 151.289062 163.992188 151.34375 165.667969 153.296875 C 166.707031 154.503906 168.355469 155.496094 169.363281 155.496094 C 170.949219 155.496094 171.136719 155.1875 170.726562 153.144531 C 170.117188 150.082031 172.015625 149.234375 173.992188 151.703125 C 175.339844 153.390625 179.894531 154.574219 179.910156 153.246094 C 179.914062 152.917969 178.730469 151.675781 177.28125 150.464844 C 175.269531 148.78125 174.992188 148.253906 176.089844 148.238281 C 176.882812 148.226562 177.734375 148.734375 177.988281 149.402344 C 178.242188 150.066406 178.757812 150.4375 179.125 150.210938 C 179.492188 149.984375 180.011719 150.164062 180.289062 150.613281 C 180.570312 151.066406 181.773438 151.449219 182.945312 151.449219 C 184.984375 151.449219 185.007812 151.390625 183.503906 150.285156 C 181.988281 149.171875 182.011719 149.101562 184.210938 148.261719 C 185.464844 147.785156 186.921875 147.394531 187.449219 147.378906 C 187.976562 147.363281 187.5 146.832031 186.386719 146.214844 C 184.414062 145.121094 184.433594 145.09375 187.5 145.378906 C 189.484375 145.5625 191.066406 145.25 191.800781 144.519531 C 193.578125 142.738281 192.316406 141.738281 188.308594 141.738281 C 186.070312 141.738281 184.863281 141.402344 185.171875 140.902344 C 186.191406 139.25 183.203125 139.222656 179.835938 140.851562 C 175.707031 142.847656 174.941406 142.945312 175.558594 141.332031 C 175.851562 140.570312 175.550781 140.117188 174.75 140.117188 C 173.949219 140.117188 173.648438 139.667969 173.941406 138.902344 C 174.484375 137.484375 174.203125 137.433594 171.539062 138.449219 C 169.804688 139.109375 169.613281 139.003906 169.96875 137.636719 C 170.394531 136.011719 169.035156 135.445312 168.148438 136.878906 C 167.867188 137.332031 166.15625 138.476562 164.328125 139.410156 C 161.390625 140.90625 160.632812 140.980469 157.75 140.117188 C 155.0625 139.3125 154.722656 139.007812 155.855469 138.371094 C 156.609375 137.949219 157.246094 137.054688 157.246094 136.375 C 157.246094 135.414062 156.417969 135.1875 153.578125 135.363281 C 150.816406 135.53125 149.546875 135.1875 148.367188 133.996094 C 146.589844 132.199219 144.875 125.78125 145.988281 125.09375 C 146.679688 124.664062 147.066406 126.390625 146.773438 128.609375 C 146.699219 129.175781 147.410156 130.730469 148.367188 132.074219 C 149.753906 134.023438 150.34375 134.316406 151.25 133.566406 C 151.875 133.046875 152.414062 131.675781 152.464844 130.503906 C 152.539062 128.824219 152.660156 128.71875 152.972656 130 C 153.582031 132.515625 155.683594 134.453125 157.800781 134.453125 C 159.457031 134.453125 159.609375 134.226562 158.890625 132.882812 C 157.832031 130.90625 157.824219 130.167969 158.863281 130.808594 C 159.308594 131.085938 159.675781 130.925781 159.675781 130.453125 C 159.675781 129.984375 160.039062 129.59375 160.484375 129.59375 C 160.929688 129.59375 161.292969 130.105469 161.292969 130.734375 C 161.292969 132.183594 166.023438 136.226562 167.011719 135.613281 C 167.417969 135.363281 167.769531 134.457031 167.769531 133.589844 C 167.769531 132.726562 168.132812 132.023438 168.601562 132.023438 C 169.074219 132.023438 169.246094 131.566406 168.957031 131.011719 C 168.671875 130.453125 169.109375 130.824219 169.945312 131.847656 C 170.777344 132.867188 171.742188 133.4375 172.070312 133.109375 C 172.398438 132.78125 173.457031 132.386719 174.445312 132.25 C 176.640625 131.945312 179.910156 130.332031 179.910156 129.542969 C 179.910156 129.226562 178.828125 128.523438 177.507812 127.976562 C 176.1875 127.429688 175.1875 126.5625 175.28125 126.054688 C 175.378906 125.539062 174.347656 125.085938 172.980469 125.042969 C 170.148438 124.949219 166.027344 123.023438 167.566406 122.511719 C 168.121094 122.328125 168.578125 121.648438 168.578125 121.019531 C 168.578125 119.734375 164.53125 119.40625 163.265625 120.589844 C 162.042969 121.734375 158.863281 122.480469 158.863281 121.625 C 158.863281 121.199219 159.785156 120.625 160.9375 120.335938 C 162.664062 119.902344 162.859375 119.589844 162.050781 118.617188 C 161.253906 117.652344 161.371094 117.449219 162.609375 117.425781 C 164.410156 117.398438 167.457031 115.242188 166.730469 114.519531 C 166.453125 114.238281 164.558594 113.835938 162.53125 113.609375 C 158.480469 113.152344 158.5 113.164062 159.699219 110.925781 C 160.476562 109.476562 160.671875 109.453125 162.457031 110.625 C 164.257812 111.804688 164.410156 111.765625 164.910156 110.191406 C 165.203125 109.269531 165.785156 108.722656 166.199219 108.980469 C 166.613281 109.234375 166.960938 109.070312 166.960938 108.597656 C 166.960938 108.128906 167.6875 107.738281 168.578125 107.738281 C 169.46875 107.738281 170.195312 107.222656 170.195312 106.601562 C 170.195312 105.363281 168.488281 104.5 166.074219 104.5 C 164.234375 104.5 163.988281 103.015625 165.71875 102.351562 C 166.386719 102.097656 166.757812 101.621094 166.554688 101.289062 C 166.347656 100.957031 167.089844 100.210938 168.199219 99.621094 C 170.925781 98.160156 170.25 96.8125 166.78125 96.8125 L 163.921875 96.8125 L 165.972656 94.128906 C 167.570312 92.039062 167.78125 91.253906 167.007812 90.488281 C 166.238281 89.726562 165.453125 90.140625 163.367188 92.410156 C 160.890625 95.101562 160.636719 95.203125 159.773438 93.828125 C 159.265625 93.011719 158.484375 92.359375 158.054688 92.359375 C 157.09375 92.359375 154.535156 96.890625 153.984375 99.59375 C 153.574219 101.59375 146.125 107.976562 145.003906 107.285156 C 144.683594 107.085938 144.527344 104.925781 144.625 102.476562 C 144.71875 100.03125 144.480469 98.027344 144.09375 98.027344 C 143.703125 98.027344 143.5 96.679688 143.636719 95.042969 C 143.847656 92.554688 144.253906 91.949219 146.140625 91.449219 C 148.097656 90.929688 148.347656 91.046875 147.9375 92.335938 C 147.199219 94.660156 149.171875 95.253906 150.746094 93.167969 C 151.574219 92.066406 152.355469 91.652344 152.667969 92.15625 C 153.21875 93.050781 156.4375 92.578125 156.4375 91.601562 C 156.4375 90.847656 152.40625 87.078125 151.707031 87.175781 C 151.40625 87.214844 150.53125 87.074219 149.757812 86.871094 C 147.472656 86.273438 148.960938 85.136719 151.378906 85.632812 C 155.433594 86.464844 159.09375 86.308594 159.445312 85.277344 C 159.636719 84.722656 159.261719 84.265625 158.613281 84.265625 C 157.960938 84.265625 156.984375 83.714844 156.4375 83.050781 C 155.886719 82.386719 155.109375 82.046875 154.714844 82.292969 C 154.320312 82.535156 154.007812 82.449219 154.007812 82.089844 C 154.007812 81.730469 155.101562 80.703125 156.4375 79.8125 C 158.886719 78.175781 159.558594 76.980469 158.03125 76.980469 C 156.554688 76.980469 151.253906 79.433594 150.542969 80.445312 C 150.121094 81.046875 150.039062 80.734375 150.339844 79.660156 C 150.609375 78.699219 150.480469 77.695312 150.0625 77.4375 C 149.179688 76.890625 145.914062 82.097656 145.914062 84.039062 C 145.914062 84.753906 145.671875 85.113281 145.382812 84.820312 C 145.09375 84.53125 144.34375 84.910156 143.738281 85.683594 C 142.777344 86.90625 142.695312 86.574219 143.054688 83.128906 C 143.390625 79.925781 144.152344 78.363281 147.101562 74.90625 C 149.109375 72.558594 150.769531 70.113281 150.769531 69.46875 C 150.769531 67.523438 146.703125 68.800781 145.863281 71.011719 C 144.527344 74.527344 143.054688 73.308594 143.359375 68.9375 C 143.578125 65.746094 143.292969 64.542969 141.941406 63.09375 Z M 134.757812 89.703125 C 135.128906 89.726562 136.007812 90.429688 137.007812 91.550781 C 138.675781 93.414062 139.4375 95.097656 139.4375 96.9375 C 139.4375 98.414062 139.285156 99.644531 139.109375 99.644531 C 138.675781 99.644531 137.628906 97.136719 137.261719 95.21875 C 137.097656 94.351562 136.425781 93.058594 135.769531 92.335938 C 135.113281 91.609375 134.582031 90.507812 134.582031 89.90625 C 134.582031 89.753906 134.636719 89.695312 134.757812 89.703125 Z M 132.785156 101.59375 C 134.324219 101.707031 138.0625 104.28125 138.652344 105.84375 C 139.707031 108.617188 139.109375 109.132812 137.289062 107.003906 C 136.488281 106.074219 135.386719 105.3125 134.835938 105.3125 C 133.898438 105.3125 131.6875 102.179688 132.28125 101.695312 C 132.394531 101.601562 132.566406 101.578125 132.785156 101.59375 Z M 154.894531 108.195312 C 155.085938 108.195312 155.324219 108.230469 155.574219 108.296875 C 156.910156 108.644531 156.597656 109.125 153.476562 111.507812 C 151.453125 113.050781 149.085938 114.378906 148.242188 114.441406 C 147.394531 114.507812 146.722656 114.824219 146.722656 115.175781 C 146.722656 115.527344 146.3125 115.832031 145.835938 115.832031 C 145.359375 115.832031 145.089844 115.015625 145.230469 114.011719 C 145.453125 112.4375 145.917969 112.214844 148.542969 112.445312 C 150.878906 112.648438 151.578125 112.414062 151.578125 111.433594 C 151.578125 110.730469 152.125 110.167969 152.792969 110.167969 C 153.460938 110.167969 154.007812 109.65625 154.007812 109.03125 C 154.007812 108.484375 154.308594 108.191406 154.894531 108.195312 Z M 145.507812 119.78125 L 147.40625 120.714844 C 148.449219 121.222656 150.179688 121.414062 151.25 121.144531 C 152.355469 120.867188 153.199219 121.007812 153.199219 121.472656 C 153.199219 121.929688 152.847656 122.308594 152.4375 122.308594 C 152.03125 122.308594 151.171875 122.496094 150.542969 122.738281 C 149.910156 122.980469 148.53125 122.410156 147.457031 121.472656 Z M 154.386719 121.777344 C 154.570312 121.804688 154.839844 121.992188 155.222656 122.308594 C 156.125 123.058594 156.4375 123.074219 156.4375 122.359375 C 156.4375 121.832031 156.835938 121.664062 157.347656 121.980469 C 157.992188 122.378906 157.824219 122.894531 156.789062 123.648438 C 154.707031 125.175781 154.007812 125.007812 154.007812 123.015625 C 154.007812 122.121094 154.082031 121.734375 154.386719 121.777344 Z M 166.578125 124.738281 C 167.273438 124.738281 167.636719 125.101562 167.363281 125.546875 C 166.714844 126.59375 165.339844 126.59375 165.339844 125.546875 C 165.339844 125.101562 165.886719 124.738281 166.578125 124.738281 Z M 147.53125 137.6875 C 147.976562 137.6875 148.339844 139.507812 148.339844 141.734375 C 148.339844 145.839844 148.21875 146.191406 147.253906 145.226562 C 146.390625 144.363281 146.640625 137.6875 147.53125 137.6875 Z M 141.359375 148.488281 C 141.648438 148.441406 141.867188 148.617188 141.867188 148.96875 C 141.867188 149.441406 141.5 149.832031 141.054688 149.832031 C 140.019531 149.832031 140.019531 149.257812 141.054688 148.617188 C 141.167969 148.546875 141.261719 148.507812 141.359375 148.488281 Z M 147.886719 150.210938 C 147.933594 150.207031 148.007812 150.273438 148.0625 150.414062 C 148.285156 150.960938 148.292969 152.054688 148.089844 152.839844 C 147.882812 153.628906 147.699219 153.191406 147.683594 151.855469 C 147.671875 150.851562 147.746094 150.222656 147.886719 150.210938 Z M 137.816406 150.640625 C 138.261719 150.640625 138.628906 150.796875 138.628906 150.992188 C 138.628906 151.191406 138.261719 151.578125 137.816406 151.855469 C 137.375 152.128906 137.007812 151.972656 137.007812 151.5 C 137.007812 151.027344 137.375 150.640625 137.816406 150.640625 Z M 133.769531 152.257812 C 134.214844 152.257812 134.582031 152.417969 134.582031 152.613281 C 134.582031 152.808594 134.214844 153.199219 133.769531 153.472656 C 133.324219 153.75 132.960938 153.589844 132.960938 153.117188 C 132.960938 152.648438 133.324219 152.257812 133.769531 152.257812 Z M 116.925781 152.285156 C 117.476562 152.339844 118.164062 152.703125 118.695312 153.371094 C 120.335938 155.441406 123.054688 155.714844 124.5625 153.953125 C 125.898438 152.394531 127.800781 152.375 126.839844 153.929688 C 126.585938 154.34375 126.933594 154.6875 127.597656 154.6875 C 128.265625 154.6875 129.042969 154.324219 129.320312 153.878906 C 129.972656 152.820312 131.34375 152.8125 131.34375 153.878906 C 131.34375 154.332031 130.339844 155.101562 129.117188 155.574219 C 127.894531 156.042969 124.808594 156.609375 122.289062 156.835938 C 118.269531 157.203125 117.59375 157.0625 116.824219 155.625 C 116.339844 154.71875 115.964844 153.59375 115.964844 153.117188 C 115.964844 152.503906 116.371094 152.230469 116.925781 152.285156 Z M 191.191406 195.160156 C 191.664062 195.160156 192.050781 195.523438 192.050781 195.96875 C 192.050781 197.007812 191.476562 197.007812 190.835938 195.96875 C 190.5625 195.523438 190.71875 195.160156 191.191406 195.160156 Z M 123.527344 204.871094 C 124.023438 204.871094 123.0625 205.601562 121.402344 206.492188 C 118.460938 208.066406 116.773438 208.507812 116.773438 207.707031 C 116.773438 207.203125 122.332031 204.871094 123.527344 204.871094 Z M 193.417969 239.453125 C 194.308594 239.445312 195.195312 239.539062 195.746094 239.753906 C 196.851562 240.1875 196.308594 240.371094 193.871094 240.414062 C 191.980469 240.445312 190.433594 240.332031 190.433594 240.160156 C 190.433594 239.730469 191.929688 239.460938 193.417969 239.453125 Z M 211.527344 243.828125 C 211.808594 243.816406 212.148438 243.863281 212.441406 243.980469 C 213.085938 244.238281 212.875 244.421875 211.933594 244.460938 C 211.082031 244.496094 210.601562 244.300781 210.871094 244.03125 C 211.003906 243.894531 211.246094 243.839844 211.527344 243.828125 Z M 211.730469 263.988281 C 211.769531 263.976562 211.828125 263.988281 211.882812 263.988281 C 212.328125 263.988281 213.238281 264.339844 213.90625 264.773438 C 214.574219 265.203125 214.757812 265.554688 214.3125 265.554688 C 213.867188 265.554688 212.957031 265.203125 212.289062 264.773438 C 211.703125 264.394531 211.476562 264.0625 211.730469 263.988281 Z M 70.734375 296.695312 C 71.117188 296.636719 71.226562 296.804688 71.011719 297.148438 C 70.738281 297.589844 70.191406 297.960938 69.773438 297.960938 C 68.609375 297.960938 68.851562 297.359375 70.253906 296.820312 C 70.433594 296.75 70.605469 296.714844 70.734375 296.695312 Z M 83.8125 303.652344 L 85.65625 305.625 L 87.480469 307.597656 L 88.871094 305.472656 C 90.136719 303.539062 90.3125 303.5 91.046875 304.8125 C 91.648438 305.890625 92.015625 305.980469 92.488281 305.21875 C 92.933594 304.5 93.261719 304.699219 93.652344 305.925781 C 94.203125 307.671875 95.726562 308.359375 95.726562 306.863281 C 95.726562 306.417969 96.726562 306.050781 97.949219 306.054688 L 100.175781 306.054688 L 97.75 307.34375 C 96.183594 308.167969 94.089844 308.46875 91.878906 308.230469 C 89.996094 308.023438 88.65625 308.195312 88.894531 308.582031 C 89.535156 309.617188 88.324219 309.425781 85.835938 308.128906 C 84.5625 307.464844 83.558594 307.316406 83.40625 307.773438 C 83.261719 308.207031 82.480469 308.304688 81.6875 308 C 80.34375 307.484375 80.378906 307.316406 82.039062 305.546875 Z M 102.628906 304.535156 C 102.800781 304.535156 102.964844 304.539062 103.113281 304.585938 C 103.71875 304.789062 103.347656 305.160156 102.25 305.445312 C 100.90625 305.796875 100.589844 305.691406 101.1875 305.09375 C 101.542969 304.738281 102.121094 304.539062 102.628906 304.535156 Z M 94.410156 337.902344 C 94.699219 337.851562 94.914062 338.027344 94.914062 338.382812 C 94.914062 338.851562 94.550781 339.242188 94.105469 339.242188 C 93.070312 339.242188 93.070312 338.667969 94.105469 338.027344 C 94.21875 337.957031 94.3125 337.917969 94.410156 337.902344 Z M 94.410156 337.902344 " fill-opacity="1" fill-rule="nonzero"/></g><g fill="#e30613" fill-opacity="1"><g transform="translate(26.449406, 383.405233)"><g><path d="M 2.3125 -4.828125 L 2.3125 -1.65625 L 0.78125 -1.65625 C 0.75 -2.539062 0.535156 -3.203125 0.140625 -3.640625 C -0.242188 -4.078125 -0.832031 -4.296875 -1.625 -4.296875 C -2.695312 -4.296875 -3.441406 -3.957031 -3.859375 -3.28125 C -4.285156 -2.613281 -4.5 -1.300781 -4.5 0.65625 L -4.5 18.671875 L -1.375 18.671875 L -1.375 20.109375 L -9.796875 20.109375 L -9.796875 18.671875 L -7.234375 18.671875 L -7.234375 0.546875 C -7.234375 -1.671875 -6.785156 -3.269531 -5.890625 -4.25 C -5.003906 -5.238281 -3.578125 -5.734375 -1.609375 -5.734375 C -0.960938 -5.734375 -0.3125 -5.65625 0.34375 -5.5 C 1 -5.351562 1.65625 -5.128906 2.3125 -4.828125 Z M 2.3125 -4.828125 "/></g></g></g><g fill="#e30613" fill-opacity="1"><g transform="translate(29.602943, 345.454975)"><g><path d="M -11.3125 1.046875 C -13.519531 1.046875 -15.179688 1.800781 -16.296875 3.3125 C -17.421875 4.832031 -17.984375 7.070312 -17.984375 10.03125 C -17.984375 13.007812 -17.421875 15.253906 -16.296875 16.765625 C -15.179688 18.273438 -13.519531 19.03125 -11.3125 19.03125 C -9.101562 19.03125 -7.4375 18.273438 -6.3125 16.765625 C -5.195312 15.253906 -4.640625 13.007812 -4.640625 10.03125 C -4.640625 7.070312 -5.195312 4.832031 -6.3125 3.3125 C -7.4375 1.800781 -9.101562 1.046875 -11.3125 1.046875 Z M -11.3125 -0.390625 C -9.945312 -0.390625 -8.691406 -0.164062 -7.546875 0.28125 C -6.398438 0.726562 -5.394531 1.390625 -4.53125 2.265625 C -3.519531 3.265625 -2.769531 4.398438 -2.28125 5.671875 C -1.789062 6.953125 -1.546875 8.40625 -1.546875 10.03125 C -1.546875 11.65625 -1.789062 13.109375 -2.28125 14.390625 C -2.769531 15.671875 -3.519531 16.816406 -4.53125 17.828125 C -5.40625 18.703125 -6.410156 19.363281 -7.546875 19.8125 C -8.679688 20.257812 -9.9375 20.484375 -11.3125 20.484375 C -14.238281 20.484375 -16.597656 19.523438 -18.390625 17.609375 C -20.191406 15.691406 -21.09375 13.164062 -21.09375 10.03125 C -21.09375 8.425781 -20.84375 6.976562 -20.34375 5.6875 C -19.851562 4.40625 -19.101562 3.265625 -18.09375 2.265625 C -17.21875 1.378906 -16.210938 0.710938 -15.078125 0.265625 C -13.941406 -0.171875 -12.6875 -0.390625 -11.3125 -0.390625 Z M -11.3125 -0.390625 "/></g></g></g><g fill="#e30613" fill-opacity="1"><g transform="translate(29.602943, 307.504718)"><g><path d="M -1.515625 0 L -1.515625 1.421875 L -4.078125 1.421875 L -4.078125 18.671875 L -1.515625 18.671875 L -1.515625 20.109375 L -9.375 20.109375 L -9.375 18.671875 L -6.8125 18.671875 L -6.8125 11.0625 L -15.484375 18.671875 L -13.296875 18.671875 L -13.296875 20.109375 L -19.984375 20.109375 L -19.984375 18.671875 L -17.71875 18.671875 L -9.078125 11.09375 L -18.734375 1.421875 L -21.03125 1.421875 L -21.03125 0 L -16.359375 0 L -6.8125 9.546875 L -6.8125 1.421875 L -9.375 1.421875 L -9.375 0 Z M -1.515625 0 "/></g></g></g><g fill="#e30613" fill-opacity="1"><g transform="translate(29.602943, 269.55446)"><g><path d="M -1.515625 0 L -1.515625 1.421875 L -4.078125 1.421875 L -4.078125 18.671875 L -1.515625 18.671875 L -1.515625 20.109375 L -17.71875 20.109375 L -17.71875 15.640625 L -16.0625 15.640625 L -16.0625 18.453125 L -6.8125 18.453125 L -6.8125 11.71875 L -13.40625 11.71875 L -13.40625 14.234375 L -15.0625 14.234375 L -15.0625 7.5625 L -13.40625 7.5625 L -13.40625 10.078125 L -6.8125 10.078125 L -6.8125 1.65625 L -16.28125 1.65625 L -16.28125 4.46875 L -17.9375 4.46875 L -17.9375 0 Z M -1.515625 0 "/></g></g></g><g fill="#e30613" fill-opacity="1"><g transform="translate(29.602943, 231.604202)"><g><path d="M -13.21875 9.984375 C -13.84375 9.816406 -14.378906 9.523438 -14.828125 9.109375 C -15.285156 8.703125 -15.695312 8.128906 -16.0625 7.390625 L -18.984375 1.421875 L -21.4375 1.421875 L -21.4375 0 L -16.6875 0 L -13.546875 6.40625 C -12.953125 7.644531 -12.398438 8.441406 -11.890625 8.796875 C -11.390625 9.160156 -10.703125 9.34375 -9.828125 9.34375 L -6.8125 9.34375 L -6.8125 1.421875 L -9.65625 1.421875 L -9.65625 0 L -1.515625 0 L -1.515625 1.421875 L -4.078125 1.421875 L -4.078125 18.671875 L -1.515625 18.671875 L -1.515625 20.109375 L -11.71875 20.109375 C -13.675781 20.109375 -15.1875 19.640625 -16.25 18.703125 C -17.320312 17.773438 -17.859375 16.453125 -17.859375 14.734375 C -17.859375 13.359375 -17.46875 12.269531 -16.6875 11.46875 C -15.90625 10.675781 -14.75 10.179688 -13.21875 9.984375 Z M -6.8125 10.796875 L -10.796875 10.796875 C -12.148438 10.796875 -13.148438 11.113281 -13.796875 11.75 C -14.441406 12.394531 -14.765625 13.390625 -14.765625 14.734375 C -14.765625 16.085938 -14.441406 17.082031 -13.796875 17.71875 C -13.148438 18.351562 -12.148438 18.671875 -10.796875 18.671875 L -6.8125 18.671875 Z M -6.8125 10.796875 "/></g></g></g><g fill="#e30613" fill-opacity="1"><g transform="translate(269.157209, 66.974184)"><g><path d="M -2.3125 4.828125 L -2.3125 1.65625 L -0.78125 1.65625 C -0.75 2.539062 -0.535156 3.203125 -0.140625 3.640625 C 0.242188 4.078125 0.832031 4.296875 1.625 4.296875 C 2.695312 4.296875 3.441406 3.957031 3.859375 3.28125 C 4.285156 2.613281 4.5 1.300781 4.5 -0.65625 L 4.5 -18.671875 L 1.375 -18.671875 L 1.375 -20.109375 L 9.796875 -20.109375 L 9.796875 -18.671875 L 7.234375 -18.671875 L 7.234375 -0.546875 C 7.234375 1.671875 6.785156 3.269531 5.890625 4.25 C 5.003906 5.238281 3.578125 5.734375 1.609375 5.734375 C 0.960938 5.734375 0.3125 5.65625 -0.34375 5.5 C -1 5.351562 -1.65625 5.128906 -2.3125 4.828125 Z M -2.3125 4.828125 "/></g></g></g><g fill="#e30613" fill-opacity="1"><g transform="translate(266.003672, 104.924442)"><g><path d="M 11.3125 -1.046875 C 13.519531 -1.046875 15.179688 -1.800781 16.296875 -3.3125 C 17.421875 -4.832031 17.984375 -7.070312 17.984375 -10.03125 C 17.984375 -13.007812 17.421875 -15.253906 16.296875 -16.765625 C 15.179688 -18.273438 13.519531 -19.03125 11.3125 -19.03125 C 9.101562 -19.03125 7.4375 -18.273438 6.3125 -16.765625 C 5.195312 -15.253906 4.640625 -13.007812 4.640625 -10.03125 C 4.640625 -7.070312 5.195312 -4.832031 6.3125 -3.3125 C 7.4375 -1.800781 9.101562 -1.046875 11.3125 -1.046875 Z M 11.3125 0.390625 C 9.945312 0.390625 8.691406 0.164062 7.546875 -0.28125 C 6.398438 -0.726562 5.394531 -1.390625 4.53125 -2.265625 C 3.519531 -3.265625 2.769531 -4.398438 2.28125 -5.671875 C 1.789062 -6.953125 1.546875 -8.40625 1.546875 -10.03125 C 1.546875 -11.65625 1.789062 -13.109375 2.28125 -14.390625 C 2.769531 -15.671875 3.519531 -16.816406 4.53125 -17.828125 C 5.40625 -18.703125 6.410156 -19.363281 7.546875 -19.8125 C 8.679688 -20.257812 9.9375 -20.484375 11.3125 -20.484375 C 14.238281 -20.484375 16.597656 -19.523438 18.390625 -17.609375 C 20.191406 -15.691406 21.09375 -13.164062 21.09375 -10.03125 C 21.09375 -8.425781 20.84375 -6.976562 20.34375 -5.6875 C 19.851562 -4.40625 19.101562 -3.265625 18.09375 -2.265625 C 17.21875 -1.378906 16.210938 -0.710938 15.078125 -0.265625 C 13.941406 0.171875 12.6875 0.390625 11.3125 0.390625 Z M 11.3125 0.390625 "/></g></g></g><g fill="#e30613" fill-opacity="1"><g transform="translate(266.003672, 142.8747)"><g><path d="M 1.515625 0 L 1.515625 -1.421875 L 4.078125 -1.421875 L 4.078125 -18.671875 L 1.515625 -18.671875 L 1.515625 -20.109375 L 9.375 -20.109375 L 9.375 -18.671875 L 6.8125 -18.671875 L 6.8125 -11.0625 L 15.484375 -18.671875 L 13.296875 -18.671875 L 13.296875 -20.109375 L 19.984375 -20.109375 L 19.984375 -18.671875 L 17.71875 -18.671875 L 9.078125 -11.09375 L 18.734375 -1.421875 L 21.03125 -1.421875 L 21.03125 0 L 16.359375 0 L 6.8125 -9.546875 L 6.8125 -1.421875 L 9.375 -1.421875 L 9.375 0 Z M 1.515625 0 "/></g></g></g><g fill="#e30613" fill-opacity="1"><g transform="translate(266.003672, 180.824958)"><g><path d="M 1.515625 0 L 1.515625 -1.421875 L 4.078125 -1.421875 L 4.078125 -18.671875 L 1.515625 -18.671875 L 1.515625 -20.109375 L 17.71875 -20.109375 L 17.71875 -15.640625 L 16.0625 -15.640625 L 16.0625 -18.453125 L 6.8125 -18.453125 L 6.8125 -11.71875 L 13.40625 -11.71875 L 13.40625 -14.234375 L 15.0625 -14.234375 L 15.0625 -7.5625 L 13.40625 -7.5625 L 13.40625 -10.078125 L 6.8125 -10.078125 L 6.8125 -1.65625 L 16.28125 -1.65625 L 16.28125 -4.46875 L 17.9375 -4.46875 L 17.9375 0 Z M 1.515625 0 "/></g></g></g><g fill="#e30613" fill-opacity="1"><g transform="translate(266.003672, 218.775216)"><g><path d="M 13.21875 -9.984375 C 13.84375 -9.816406 14.378906 -9.523438 14.828125 -9.109375 C 15.285156 -8.703125 15.695312 -8.128906 16.0625 -7.390625 L 18.984375 -1.421875 L 21.4375 -1.421875 L 21.4375 0 L 16.6875 0 L 13.546875 -6.40625 C 12.953125 -7.644531 12.398438 -8.441406 11.890625 -8.796875 C 11.390625 -9.160156 10.703125 -9.34375 9.828125 -9.34375 L 6.8125 -9.34375 L 6.8125 -1.421875 L 9.65625 -1.421875 L 9.65625 0 L 1.515625 0 L 1.515625 -1.421875 L 4.078125 -1.421875 L 4.078125 -18.671875 L 1.515625 -18.671875 L 1.515625 -20.109375 L 11.71875 -20.109375 C 13.675781 -20.109375 15.1875 -19.640625 16.25 -18.703125 C 17.320312 -17.773438 17.859375 -16.453125 17.859375 -14.734375 C 17.859375 -13.359375 17.46875 -12.269531 16.6875 -11.46875 C 15.90625 -10.675781 14.75 -10.179688 13.21875 -9.984375 Z M 6.8125 -10.796875 L 10.796875 -10.796875 C 12.148438 -10.796875 13.148438 -11.113281 13.796875 -11.75 C 14.441406 -12.394531 14.765625 -13.390625 14.765625 -14.734375 C 14.765625 -16.085938 14.441406 -17.082031 13.796875 -17.71875 C 13.148438 -18.351562 12.148438 -18.671875 10.796875 -18.671875 L 6.8125 -18.671875 Z M 6.8125 -10.796875 "/></g></g></g></svg>