<svg xmlns="http://www.w3.org/2000/svg" xmlns:xlink="http://www.w3.org/1999/xlink" width="396" zoomAndPan="magnify" viewBox="0 0 297.12 419.249996" height="559" preserveAspectRatio="xMidYMid meet" version="1.0"><defs><g/><clipPath id="4f9e5c5f53"><path d="M 0 0.246094 L 296.238281 0.246094 L 296.238281 417.367188 L 0 417.367188 Z M 0 0.246094 " clip-rule="nonzero"/></clipPath><clipPath id="cdb827ff86"><path d="M 249 339.679688 L 283 339.679688 L 283 377.738281 L 249 377.738281 Z M 249 339.679688 " clip-rule="nonzero"/></clipPath><clipPath id="2a3ef5c6d3"><path d="M 19 353.511719 L 43 353.511719 L 43 380.101562 L 19 380.101562 Z M 19 353.511719 " clip-rule="nonzero"/></clipPath><clipPath id="245ed24893"><path d="M 254 45.894531 L 278.914062 45.894531 L 278.914062 72.484375 L 254 72.484375 Z M 254 45.894531 " clip-rule="nonzero"/></clipPath><clipPath id="ed2a00696c"><path d="M 13 46.167969 L 48 46.167969 L 48 84.226562 L 13 84.226562 Z M 13 46.167969 " clip-rule="nonzero"/></clipPath><clipPath id="0fd8bf1b3f"><path d="M 30.636719 45.234375 L 266.433594 45.234375 L 266.433594 380.753906 L 30.636719 380.753906 Z M 30.636719 45.234375 " clip-rule="nonzero"/></clipPath><clipPath id="0aaf585175"><path d="M 67.511719 283.113281 L 89.808594 283.113281 L 89.808594 300.273438 L 67.511719 300.273438 Z M 67.511719 283.113281 " clip-rule="nonzero"/></clipPath></defs><g clip-path="url(#4f9e5c5f53)"><path fill="#ffffff" d="M 0 0.246094 L 296.238281 0.246094 L 296.238281 417.367188 L 0 417.367188 Z M 0 0.246094 " fill-opacity="1" fill-rule="nonzero"/><path fill="#ffffff" d="M 0 0.246094 L 296.238281 0.246094 L 296.238281 417.367188 L 0 417.367188 Z M 0 0.246094 " fill-opacity="1" fill-rule="nonzero"/></g><g fill="#000000" fill-opacity="1"><g transform="translate(276.414769, 387.070532)"><g><path d="M -4.34375 18.859375 L -2.484375 18.859375 L -2.484375 23.265625 C -3.671875 23.898438 -4.863281 24.382812 -6.0625 24.71875 C -7.257812 25.050781 -8.4375 25.21875 -9.59375 25.21875 C -12.164062 25.21875 -14.195312 24.59375 -15.6875 23.34375 C -17.1875 22.09375 -17.9375 20.394531 -17.9375 18.25 C -17.9375 15.820312 -16.242188 12.921875 -12.859375 9.546875 C -12.585938 9.296875 -12.382812 9.101562 -12.25 8.96875 L -6 2.71875 L -16.34375 2.71875 L -16.34375 5.765625 L -18.28125 5.765625 L -18.28125 0 L -2.3125 0 L -2.3125 1.8125 L -9.8125 9.3125 C -11.476562 10.96875 -12.664062 12.488281 -13.375 13.875 C -14.082031 15.257812 -14.4375 16.71875 -14.4375 18.25 C -14.4375 19.914062 -14 21.21875 -13.125 22.15625 C -12.257812 23.09375 -11.0625 23.5625 -9.53125 23.5625 C -7.957031 23.5625 -6.738281 23.171875 -5.875 22.390625 C -5.007812 21.609375 -4.5 20.429688 -4.34375 18.859375 Z M -4.34375 18.859375 "/></g></g></g><g clip-path="url(#cdb827ff86)"><path fill="#000000" d="M 275.347656 339.679688 C 268.550781 341.207031 267.820312 345.222656 267.308594 352.613281 C 268.488281 350.640625 270.636719 349.183594 274.140625 349.195312 C 279.902344 349.214844 283.761719 352.597656 282.390625 359.898438 C 281.003906 367.257812 270.636719 370.113281 265.921875 377.738281 C 261.210938 370.113281 250.84375 367.257812 249.457031 359.898438 C 248.085938 352.597656 251.785156 349.214844 257.707031 349.195312 C 261.210938 349.183594 263.359375 350.640625 264.539062 352.613281 C 264.027344 345.222656 263.296875 341.207031 256.5 339.679688 Z M 275.347656 339.679688 " fill-opacity="1" fill-rule="nonzero"/></g><g fill="#000000" fill-opacity="1"><g transform="translate(38.107003, 386.622419)"><g><path d="M -3.03125 13.171875 L -1.734375 13.171875 L -1.734375 16.265625 C -2.566406 16.703125 -3.398438 17.035156 -4.234375 17.265625 C -5.078125 17.492188 -5.898438 17.609375 -6.703125 17.609375 C -8.503906 17.609375 -9.925781 17.171875 -10.96875 16.296875 C -12.007812 15.429688 -12.53125 14.25 -12.53125 12.75 C -12.53125 11.050781 -11.347656 9.023438 -8.984375 6.671875 C -8.796875 6.492188 -8.65625 6.359375 -8.5625 6.265625 L -4.1875 1.90625 L -11.421875 1.90625 L -11.421875 4.03125 L -12.765625 4.03125 L -12.765625 0 L -1.609375 0 L -1.609375 1.265625 L -6.859375 6.5 C -8.015625 7.65625 -8.835938 8.71875 -9.328125 9.6875 C -9.828125 10.664062 -10.078125 11.6875 -10.078125 12.75 C -10.078125 13.914062 -9.773438 14.828125 -9.171875 15.484375 C -8.566406 16.140625 -7.726562 16.46875 -6.65625 16.46875 C -5.550781 16.46875 -4.695312 16.191406 -4.09375 15.640625 C -3.5 15.097656 -3.144531 14.273438 -3.03125 13.171875 Z M -3.03125 13.171875 "/></g></g></g><g clip-path="url(#2a3ef5c6d3)"><path fill="#000000" d="M 37.363281 353.511719 C 32.613281 354.578125 32.101562 357.382812 31.746094 362.546875 C 32.570312 361.167969 34.070312 360.148438 36.519531 360.160156 C 40.542969 360.171875 43.242188 362.535156 42.28125 367.636719 C 41.3125 372.78125 34.070312 374.773438 30.777344 380.101562 C 27.484375 374.773438 20.238281 372.78125 19.273438 367.636719 C 18.3125 362.535156 20.898438 360.171875 25.035156 360.160156 C 27.484375 360.148438 28.984375 361.167969 29.808594 362.546875 C 29.449219 357.382812 28.941406 354.578125 24.191406 353.511719 Z M 37.363281 353.511719 " fill-opacity="1" fill-rule="nonzero"/></g><g fill="#000000" fill-opacity="1"><g transform="translate(259.036358, 39.372536)"><g><path d="M 3.03125 -13.171875 L 1.734375 -13.171875 L 1.734375 -16.265625 C 2.566406 -16.703125 3.398438 -17.035156 4.234375 -17.265625 C 5.078125 -17.492188 5.898438 -17.609375 6.703125 -17.609375 C 8.503906 -17.609375 9.925781 -17.171875 10.96875 -16.296875 C 12.007812 -15.429688 12.53125 -14.25 12.53125 -12.75 C 12.53125 -11.050781 11.347656 -9.023438 8.984375 -6.671875 C 8.796875 -6.492188 8.65625 -6.359375 8.5625 -6.265625 L 4.1875 -1.90625 L 11.421875 -1.90625 L 11.421875 -4.03125 L 12.765625 -4.03125 L 12.765625 0 L 1.609375 0 L 1.609375 -1.265625 L 6.859375 -6.5 C 8.015625 -7.65625 8.835938 -8.71875 9.328125 -9.6875 C 9.828125 -10.664062 10.078125 -11.6875 10.078125 -12.75 C 10.078125 -13.914062 9.773438 -14.828125 9.171875 -15.484375 C 8.566406 -16.140625 7.726562 -16.46875 6.65625 -16.46875 C 5.550781 -16.46875 4.695312 -16.191406 4.09375 -15.640625 C 3.5 -15.097656 3.144531 -14.273438 3.03125 -13.171875 Z M 3.03125 -13.171875 "/></g></g></g><g clip-path="url(#245ed24893)"><path fill="#000000" d="M 259.78125 72.484375 C 264.53125 71.417969 265.039062 68.609375 265.398438 63.445312 C 264.574219 64.828125 263.074219 65.84375 260.625 65.835938 C 256.597656 65.820312 253.902344 63.460938 254.863281 58.359375 C 255.828125 53.214844 263.074219 51.21875 266.367188 45.894531 C 269.660156 51.21875 276.902344 53.214844 277.871094 58.359375 C 278.832031 63.460938 276.246094 65.820312 272.109375 65.835938 C 269.660156 65.84375 268.160156 64.828125 267.332031 63.445312 C 267.691406 68.609375 268.203125 71.417969 272.953125 72.484375 Z M 259.78125 72.484375 " fill-opacity="1" fill-rule="nonzero"/></g><g fill="#000000" fill-opacity="1"><g transform="translate(19.941725, 36.835309)"><g><path d="M 4.34375 -18.859375 L 2.484375 -18.859375 L 2.484375 -23.265625 C 3.671875 -23.898438 4.863281 -24.382812 6.0625 -24.71875 C 7.257812 -25.050781 8.4375 -25.21875 9.59375 -25.21875 C 12.164062 -25.21875 14.195312 -24.59375 15.6875 -23.34375 C 17.1875 -22.09375 17.9375 -20.394531 17.9375 -18.25 C 17.9375 -15.820312 16.242188 -12.921875 12.859375 -9.546875 C 12.585938 -9.296875 12.382812 -9.101562 12.25 -8.96875 L 6 -2.71875 L 16.34375 -2.71875 L 16.34375 -5.765625 L 18.28125 -5.765625 L 18.28125 0 L 2.3125 0 L 2.3125 -1.8125 L 9.8125 -9.3125 C 11.476562 -10.96875 12.664062 -12.488281 13.375 -13.875 C 14.082031 -15.257812 14.4375 -16.71875 14.4375 -18.25 C 14.4375 -19.914062 14 -21.21875 13.125 -22.15625 C 12.257812 -23.09375 11.0625 -23.5625 9.53125 -23.5625 C 7.957031 -23.5625 6.738281 -23.171875 5.875 -22.390625 C 5.007812 -21.609375 4.5 -20.429688 4.34375 -18.859375 Z M 4.34375 -18.859375 "/></g></g></g><g clip-path="url(#ed2a00696c)"><path fill="#000000" d="M 21.007812 84.226562 C 27.804688 82.699219 28.535156 78.683594 29.046875 71.292969 C 27.867188 73.265625 25.71875 74.722656 22.214844 74.710938 C 16.453125 74.691406 12.59375 71.308594 13.96875 64.007812 C 15.351562 56.644531 25.71875 53.792969 30.433594 46.167969 C 35.144531 53.792969 45.511719 56.644531 46.898438 64.007812 C 48.269531 71.308594 44.570312 74.691406 38.652344 74.710938 C 35.144531 74.722656 33 73.265625 31.816406 71.292969 C 32.332031 78.679688 33.0625 82.699219 39.859375 84.226562 Z M 21.007812 84.226562 " fill-opacity="1" fill-rule="nonzero"/></g><g clip-path="url(#0fd8bf1b3f)"><path stroke-linecap="butt" transform="matrix(0.746195, 0, 0, 0.746195, 30.637603, 45.234822)" fill="none" stroke-linejoin="miter" d="M -0.00118541 -0.000598774 L 316.102365 -0.000598774 L 316.102365 449.63974 L -0.00118541 449.63974 Z M -0.00118541 -0.000598774 " stroke="#000000" stroke-width="6" stroke-opacity="1" stroke-miterlimit="4"/></g><path fill="#000000" d="M 73.539062 175.183594 C 73.539062 175.183594 54.917969 192.8125 51.542969 223.546875 C 48.171875 254.285156 55.238281 273.703125 68.066406 274.492188 C 80.894531 275.285156 88.722656 272.585938 85.601562 236.699219 C 82.484375 200.8125 79.152344 170.257812 73.539062 175.183594 " fill-opacity="1" fill-rule="nonzero"/><g clip-path="url(#0aaf585175)"><path fill="#000000" d="M 83.117188 284.574219 C 83.117188 284.574219 69.324219 280.410156 67.84375 286.574219 C 66.363281 292.75 74.566406 302.097656 83.785156 299.960938 C 93.007812 297.816406 90.683594 286.609375 83.117188 284.574219 " fill-opacity="1" fill-rule="nonzero"/></g><path fill="#000000" d="M 93.542969 173.449219 C 93.542969 173.449219 114.925781 187.589844 123.554688 217.296875 C 132.183594 246.992188 128.578125 267.335938 116.078125 270.324219 C 103.574219 273.3125 95.398438 272.003906 92.277344 236.121094 C 89.15625 200.242188 87.160156 169.566406 93.542969 173.449219 " fill-opacity="1" fill-rule="nonzero"/><path fill="#000000" d="M 102.992188 282.851562 C 102.992188 282.851562 115.863281 276.363281 118.378906 282.183594 C 120.902344 288.011719 114.4375 298.632812 104.988281 298.113281 C 95.539062 297.589844 95.886719 286.160156 102.992188 282.851562 " fill-opacity="1" fill-rule="nonzero"/><path fill="#000000" d="M 195.957031 122.097656 C 195.957031 122.097656 175.878906 138.042969 169.855469 168.378906 C 163.835938 198.707031 169.191406 218.664062 181.90625 220.558594 C 194.621094 222.457031 202.648438 220.441406 202.652344 184.425781 C 202.652344 148.410156 201.980469 117.675781 195.957031 122.097656 " fill-opacity="1" fill-rule="nonzero"/><path fill="#000000" d="M 196.027344 231.910156 C 196.027344 231.910156 182.640625 226.554688 180.632812 232.574219 C 178.628906 238.59375 185.988281 248.621094 195.355469 247.289062 C 204.726562 245.949219 203.386719 234.582031 196.027344 231.910156 " fill-opacity="1" fill-rule="nonzero"/><path fill="#000000" d="M 216.042969 122.097656 C 216.042969 122.097656 236.117188 138.042969 242.136719 168.378906 C 248.160156 198.707031 242.808594 218.664062 230.09375 220.558594 C 217.378906 222.457031 209.347656 220.441406 209.347656 184.425781 C 209.347656 148.410156 210.015625 117.675781 216.042969 122.097656 " fill-opacity="1" fill-rule="nonzero"/><path fill="#000000" d="M 215.96875 231.910156 C 215.96875 231.910156 229.355469 226.554688 231.367188 232.574219 C 233.367188 238.59375 226.007812 248.621094 216.640625 247.289062 C 207.269531 245.949219 208.609375 234.582031 215.96875 231.910156 " fill-opacity="1" fill-rule="nonzero"/></svg>