<svg xmlns="http://www.w3.org/2000/svg" xmlns:xlink="http://www.w3.org/1999/xlink" width="396" zoomAndPan="magnify" viewBox="0 0 297.12 419.249996" height="559" preserveAspectRatio="xMidYMid meet" version="1.0"><defs><g/><clipPath id="92c93af51a"><path d="M 0 0.246094 L 296.238281 0.246094 L 296.238281 417.367188 L 0 417.367188 Z M 0 0.246094 " clip-rule="nonzero"/></clipPath><clipPath id="97e6bfebd6"><path d="M 249 339.679688 L 283 339.679688 L 283 377.738281 L 249 377.738281 Z M 249 339.679688 " clip-rule="nonzero"/></clipPath><clipPath id="8ec843df15"><path d="M 19 353.511719 L 43 353.511719 L 43 380.101562 L 19 380.101562 Z M 19 353.511719 " clip-rule="nonzero"/></clipPath><clipPath id="f8ae954f91"><path d="M 254 45.894531 L 278.914062 45.894531 L 278.914062 72.484375 L 254 72.484375 Z M 254 45.894531 " clip-rule="nonzero"/></clipPath><clipPath id="d86d0b4699"><path d="M 13 46.167969 L 48 46.167969 L 48 84.226562 L 13 84.226562 Z M 13 46.167969 " clip-rule="nonzero"/></clipPath><clipPath id="3d94669470"><path d="M 30.636719 45.234375 L 266.433594 45.234375 L 266.433594 380.753906 L 30.636719 380.753906 Z M 30.636719 45.234375 " clip-rule="nonzero"/></clipPath><clipPath id="9714400cad"><path d="M 80.4375 301.242188 L 86.21875 301.242188 L 86.21875 307.160156 L 80.4375 307.160156 Z M 80.4375 301.242188 " clip-rule="nonzero"/></clipPath><clipPath id="91197ece28"><path d="M 80.960938 305.738281 C 80.960938 302.453125 81.859375 301.632812 82.605469 301.410156 C 83.351562 301.261719 84.617188 301.558594 85.140625 302.082031 C 85.738281 302.601562 86.109375 303.796875 86.035156 304.542969 C 85.886719 305.363281 85.140625 306.335938 84.46875 306.707031 C 83.796875 307.007812 82.527344 306.929688 81.859375 306.558594 C 81.1875 306.183594 80.515625 305.140625 80.441406 304.320312 C 80.441406 303.574219 81.035156 302.453125 81.558594 301.933594 C 82.007812 301.558594 82.605469 301.335938 83.199219 301.335938 C 83.945312 301.410156 85.066406 301.933594 85.589844 302.527344 C 86.035156 303.199219 86.1875 304.394531 86.035156 305.140625 C 85.886719 305.738281 85.289062 306.335938 84.769531 306.632812 C 84.246094 307.007812 83.425781 307.15625 82.828125 307.007812 C 82.230469 306.929688 81.113281 305.960938 81.113281 305.960938 " clip-rule="nonzero"/></clipPath><clipPath id="6cd8a6d4d8"><path d="M 44.015625 309.832031 L 50 309.832031 L 50 334.847656 L 44.015625 334.847656 Z M 44.015625 309.832031 " clip-rule="nonzero"/></clipPath><clipPath id="cf843b280e"><path d="M 44.324219 332.003906 C 45.292969 321.707031 44.027344 313.871094 44.472656 311.78125 C 44.621094 311.109375 44.773438 310.8125 45.144531 310.511719 C 45.59375 310.140625 46.5625 309.839844 47.160156 309.917969 C 47.683594 309.992188 48.128906 310.289062 48.429688 310.664062 C 48.726562 311.109375 49.023438 312.082031 48.875 312.675781 C 48.726562 313.273438 48.054688 314.09375 47.457031 314.246094 C 46.785156 314.394531 45.292969 313.945312 44.847656 313.421875 C 44.472656 312.902344 44.324219 311.855469 44.621094 311.335938 C 44.921875 310.664062 46.191406 309.839844 46.9375 309.917969 C 47.683594 309.992188 48.429688 310.664062 48.949219 311.707031 C 50.070312 314.167969 49.769531 321.855469 49.769531 325.734375 C 49.695312 328.421875 49.695312 331.183594 49.25 332.675781 C 49.023438 333.421875 48.800781 333.867188 48.351562 334.242188 C 47.980469 334.539062 47.308594 334.839844 46.710938 334.839844 C 46.191406 334.839844 45.441406 334.539062 45.070312 334.167969 C 44.621094 333.71875 44.324219 332.003906 44.324219 332.003906 " clip-rule="nonzero"/></clipPath><clipPath id="9e123decad"><path d="M 37 203.554688 L 48.664062 203.554688 L 48.664062 340.59375 L 37 340.59375 Z M 37 203.554688 " clip-rule="nonzero"/></clipPath><clipPath id="a4f1983612"><path d="M 47.683594 334.09375 C 43.726562 335.136719 43.203125 334.316406 42.90625 333.273438 C 42.234375 331.257812 42.160156 324.839844 42.980469 323.050781 C 43.429688 322.152344 44.101562 321.480469 44.773438 321.480469 C 45.441406 321.40625 46.488281 322.003906 47.011719 322.976562 C 48.351562 325.4375 48.652344 336.628906 47.53125 339.019531 C 47.160156 339.914062 46.339844 340.511719 45.742188 340.511719 C 45.070312 340.511719 44.175781 339.839844 43.578125 338.867188 C 42.308594 336.628906 41.191406 328.199219 41.636719 325.960938 C 41.785156 325.0625 42.085938 324.542969 42.609375 324.242188 C 43.128906 323.945312 44.398438 324.09375 44.921875 324.390625 C 45.367188 324.617188 45.519531 324.988281 45.742188 325.660156 C 46.265625 327.226562 46.9375 333.347656 46.191406 334.988281 C 45.816406 335.808594 44.921875 336.40625 44.324219 336.332031 C 43.578125 336.332031 42.683594 335.660156 42.234375 334.617188 C 40.890625 331.707031 42.683594 321.78125 42.382812 315.214844 C 42.160156 308.425781 39.773438 297.753906 40.667969 294.621094 C 40.964844 293.574219 41.488281 292.902344 42.160156 292.753906 C 42.832031 292.53125 44.175781 292.976562 44.695312 293.875 C 45.742188 295.664062 43.726562 301.335938 43.578125 305.515625 C 43.429688 310.214844 44.996094 318.125 43.800781 320.511719 C 43.355469 321.558594 42.308594 322.304688 41.636719 322.230469 C 40.964844 322.152344 40.144531 321.40625 39.699219 320.214844 C 38.429688 317.003906 40.144531 306.707031 39.921875 298.722656 C 39.699219 288.800781 37.085938 270.964844 37.832031 265.21875 C 38.054688 263.128906 39.324219 261.191406 39.101562 261.113281 C 38.953125 260.964844 37.757812 262.683594 37.757812 262.683594 C 37.757812 262.683594 38.875 260.890625 39.546875 260.816406 C 40.144531 260.742188 41.039062 261.414062 41.5625 262.382812 C 42.609375 264.25 42.382812 269.769531 42.308594 273.425781 C 42.234375 276.933594 42.234375 282.082031 41.117188 283.875 C 40.59375 284.769531 39.546875 285.441406 38.953125 285.292969 C 38.28125 285.21875 37.535156 284.320312 37.234375 283.277344 C 36.636719 281.039062 38.429688 276.039062 38.726562 271.636719 C 39.101562 265.816406 37.90625 254.175781 38.726562 251.265625 C 38.953125 250.445312 39.175781 249.996094 39.699219 249.773438 C 40.21875 249.472656 41.414062 249.398438 41.9375 249.921875 C 42.980469 250.890625 42.757812 253.953125 43.054688 257.308594 C 43.652344 264.398438 43.128906 282.679688 43.800781 290.738281 C 44.175781 295.367188 45.964844 299.46875 45.292969 301.632812 C 44.996094 302.679688 44.25 303.648438 43.578125 303.796875 C 42.832031 303.871094 41.710938 303.351562 41.191406 302.304688 C 39.621094 299.46875 41.785156 288.722656 41.785156 281.710938 C 41.710938 274.25 39.324219 261.636719 40.964844 258.652344 C 41.488281 257.535156 42.53125 257.085938 43.28125 257.085938 C 43.875 257.160156 44.472656 257.683594 44.996094 258.726562 C 46.710938 262.457031 47.832031 285.515625 46.113281 289.546875 C 45.667969 290.8125 44.773438 291.484375 44.027344 291.484375 C 43.355469 291.484375 42.308594 290.738281 41.863281 289.621094 C 40.742188 287.082031 42.757812 280.144531 42.757812 274.171875 C 42.757812 266.039062 41.785156 251.9375 40.964844 245.148438 C 40.519531 241.414062 38.875 238.355469 39.398438 236.566406 C 39.699219 235.519531 40.667969 234.625 41.414062 234.476562 C 42.085938 234.402344 43.054688 234.921875 43.503906 235.746094 C 44.472656 237.460938 43.726562 243.132812 43.503906 246.265625 C 43.355469 248.878906 43.355469 252.011719 42.53125 253.355469 C 42.011719 254.175781 41.191406 254.773438 40.519531 254.773438 C 39.773438 254.699219 38.800781 253.878906 38.355469 252.832031 C 37.460938 250.445312 39.472656 243.878906 39.699219 239.402344 C 39.921875 235 38.875 228.355469 39.621094 226.117188 C 39.921875 225.296875 40.371094 224.851562 40.890625 224.625 C 41.414062 224.402344 42.234375 224.402344 42.90625 224.777344 C 43.949219 225.445312 46.113281 228.582031 46.039062 229.773438 C 46.039062 230.445312 45.367188 231.117188 44.847656 231.34375 C 44.25 231.566406 43.203125 231.566406 42.53125 230.894531 C 40.667969 229.328125 38.128906 218.957031 38.355469 216.417969 C 38.503906 215.375 38.875 214.777344 39.472656 214.402344 C 39.996094 214.03125 41.488281 214.628906 41.785156 214.179688 C 42.160156 213.359375 38.429688 209.851562 38.355469 208.507812 C 38.28125 207.761719 38.652344 207.089844 39.101562 206.792969 C 39.546875 206.417969 40.445312 206.269531 40.964844 206.417969 C 41.414062 206.566406 42.011719 206.941406 42.160156 207.316406 C 42.234375 207.835938 41.414062 209.402344 41.117188 209.402344 C 40.742188 209.402344 40.070312 207.539062 40.144531 206.71875 C 40.21875 205.746094 40.964844 204.253906 41.710938 203.882812 C 42.382812 203.582031 43.578125 204.03125 44.398438 204.554688 C 45.441406 205.300781 47.308594 207.464844 47.011719 208.582031 C 46.785156 209.851562 43.726562 211.566406 42.382812 211.867188 C 41.488281 212.015625 40.21875 211.792969 39.847656 211.269531 C 39.472656 210.746094 39.847656 209.179688 40.21875 208.808594 C 40.519531 208.507812 41.039062 208.359375 41.414062 208.582031 C 41.9375 208.808594 42.90625 210.375 42.683594 210.894531 C 42.457031 211.417969 40.890625 211.867188 40.371094 211.71875 C 39.921875 211.566406 39.546875 210.820312 39.472656 210.375 C 39.398438 209.925781 39.699219 209.253906 40.070312 208.957031 C 40.371094 208.65625 41.117188 208.433594 41.5625 208.582031 C 42.011719 208.730469 42.609375 209.253906 42.757812 209.628906 C 42.90625 210.074219 42.757812 210.820312 42.457031 211.195312 C 42.234375 211.566406 41.488281 211.941406 41.039062 211.867188 C 40.59375 211.867188 39.996094 211.417969 39.699219 211.046875 C 39.472656 210.820312 39.398438 210.074219 39.472656 210 C 39.621094 210 40.964844 211.792969 40.890625 211.867188 C 40.816406 211.941406 39.847656 211.34375 39.621094 210.894531 C 39.398438 210.523438 39.398438 209.851562 39.699219 209.402344 C 40.144531 208.65625 43.054688 207.6875 43.054688 207.6875 C 43.054688 207.6875 41.117188 208.882812 40.964844 208.730469 C 40.816406 208.582031 41.636719 207.015625 42.234375 206.71875 C 42.832031 206.417969 44.25 206.492188 44.472656 206.867188 C 44.695312 207.316406 43.726562 209.253906 43.28125 209.328125 C 42.90625 209.328125 41.863281 207.910156 42.011719 207.464844 C 42.160156 206.941406 43.652344 206.121094 44.175781 206.269531 C 44.621094 206.492188 44.921875 207.6875 44.996094 208.433594 C 44.996094 209.328125 44.773438 210.894531 44.101562 211.34375 C 43.429688 211.792969 41.9375 211.417969 40.964844 211.046875 C 39.996094 210.597656 38.429688 209.328125 38.355469 208.507812 C 38.28125 207.835938 38.953125 206.792969 39.546875 206.492188 C 40.070312 206.269531 40.816406 206.269531 41.414062 206.644531 C 42.53125 207.238281 43.875 209.925781 44.546875 211.492188 C 45.070312 212.6875 45.441406 213.804688 45.441406 214.851562 C 45.441406 215.671875 45.21875 216.566406 44.773438 217.238281 C 44.324219 217.761719 43.578125 218.285156 42.832031 218.359375 C 42.011719 218.507812 40.070312 218.058594 40.070312 217.910156 C 40.070312 217.761719 42.085938 216.941406 42.832031 217.460938 C 44.546875 218.582031 46.488281 227.6875 46.039062 229.773438 C 45.890625 230.597656 45.367188 231.042969 44.847656 231.34375 C 44.324219 231.566406 43.503906 231.566406 42.90625 231.191406 C 41.785156 230.597656 39.472656 227.3125 39.621094 226.117188 C 39.773438 225.371094 40.742188 224.550781 41.414062 224.476562 C 42.085938 224.402344 43.203125 225 43.726562 226.042969 C 44.996094 228.207031 44.175781 235.074219 44.027344 239.625 C 43.800781 244.25 43.800781 251.265625 42.53125 253.355469 C 42.011719 254.25 41.191406 254.773438 40.519531 254.773438 C 39.773438 254.699219 38.800781 253.953125 38.355469 252.832031 C 37.234375 250.070312 38.429688 238.503906 39.472656 236.042969 C 39.847656 235.148438 40.371094 234.773438 40.890625 234.625 C 41.339844 234.402344 41.9375 234.402344 42.382812 234.699219 C 43.203125 235.222656 43.949219 236.566406 44.546875 238.578125 C 46.113281 243.730469 46.5625 259.398438 46.859375 267.757812 C 47.085938 273.949219 47.308594 279.695312 46.9375 283.949219 C 46.636719 286.785156 46.414062 289.917969 45.441406 290.886719 C 44.921875 291.484375 44.101562 291.632812 43.503906 291.410156 C 42.90625 291.261719 42.308594 290.664062 41.863281 289.621094 C 40.59375 286.636719 40.742188 275.515625 40.742188 269.769531 C 40.667969 265.367188 39.996094 259.921875 41.117188 258.128906 C 41.636719 257.382812 42.609375 257.011719 43.28125 257.085938 C 43.875 257.234375 44.472656 257.683594 44.996094 258.726562 C 46.5625 262.308594 45.964844 279.398438 45.890625 287.457031 C 45.890625 293.277344 46.265625 300.441406 45.144531 302.605469 C 44.695312 303.351562 44.101562 303.722656 43.578125 303.796875 C 42.980469 303.871094 42.160156 303.648438 41.636719 303.125 C 40.890625 302.378906 40.667969 300.886719 40.292969 298.5 C 39.101562 291.039062 37.832031 255.742188 38.726562 251.265625 C 38.875 250.519531 38.953125 250.296875 39.324219 249.996094 C 39.699219 249.699219 40.59375 249.324219 41.117188 249.472656 C 41.710938 249.699219 42.308594 250.445312 42.683594 251.636719 C 43.949219 255.59375 43.203125 273.949219 42.234375 279.621094 C 41.710938 282.15625 41.265625 284.320312 40.292969 284.992188 C 39.699219 285.441406 38.578125 285.292969 38.054688 284.917969 C 37.535156 284.546875 37.308594 283.875 37.160156 282.902344 C 36.9375 280.964844 38.207031 276.710938 38.355469 273.425781 C 38.503906 269.84375 36.863281 264.101562 37.832031 262.234375 C 38.28125 261.339844 39.324219 260.742188 39.996094 260.816406 C 40.59375 260.890625 41.117188 261.339844 41.5625 262.382812 C 43.28125 265.964844 43.503906 283.128906 43.875 292.828125 C 44.324219 301.558594 44.546875 313.421875 44.175781 317.824219 C 44.101562 319.394531 44.101562 320.289062 43.652344 321.035156 C 43.355469 321.632812 42.683594 322.152344 42.160156 322.230469 C 41.488281 322.230469 40.445312 321.78125 39.996094 321.183594 C 39.472656 320.585938 39.621094 319.765625 39.546875 318.347656 C 39.25 314.617188 39.324219 302.15625 39.996094 297.828125 C 40.292969 295.738281 40.519531 294.023438 41.265625 293.277344 C 41.785156 292.753906 42.609375 292.53125 43.128906 292.679688 C 43.726562 292.753906 44.25 293.125 44.695312 293.875 C 45.519531 295.214844 45.667969 297.902344 45.964844 301.261719 C 46.636719 307.902344 46.9375 326.332031 46.636719 331.40625 C 46.5625 333.199219 46.636719 334.167969 46.191406 334.988281 C 45.890625 335.585938 45.367188 336.183594 44.773438 336.257812 C 44.175781 336.40625 43.054688 336.03125 42.609375 335.511719 C 42.011719 334.914062 42.011719 334.019531 41.863281 332.898438 C 41.5625 331.035156 41.117188 326.855469 41.710938 325.4375 C 42.011719 324.691406 42.457031 324.167969 43.054688 324.09375 C 43.652344 323.871094 44.695312 324.019531 45.292969 324.765625 C 46.859375 326.480469 48.277344 336.855469 47.53125 339.019531 C 47.308594 339.839844 46.710938 340.210938 46.191406 340.359375 C 45.742188 340.585938 45.144531 340.585938 44.773438 340.359375 C 44.101562 339.914062 43.652344 338.71875 43.28125 337.226562 C 42.609375 334.242188 41.863281 325.289062 42.980469 323.050781 C 43.503906 322.003906 44.546875 321.40625 45.292969 321.480469 C 45.890625 321.480469 46.636719 322.230469 47.011719 322.976562 C 47.605469 324.316406 47.160156 327.675781 47.085938 329.390625 C 47.011719 330.511719 47.308594 331.855469 46.859375 332.300781 C 46.414062 332.601562 44.621094 332.300781 44.546875 332.078125 C 44.546875 331.855469 45.519531 331.257812 46.039062 331.183594 C 46.5625 331.109375 47.234375 331.183594 47.605469 331.480469 C 47.980469 331.78125 48.203125 332.527344 48.203125 332.972656 C 48.203125 333.347656 47.683594 334.09375 47.683594 334.09375 " clip-rule="nonzero"/></clipPath><clipPath id="1d6f652b6b"><path d="M 38.492188 208.789062 L 46.683594 208.789062 L 46.683594 225.328125 L 38.492188 225.328125 Z M 38.492188 208.789062 " clip-rule="nonzero"/></clipPath><clipPath id="f820dbe5e8"><path d="M 42.234375 223.433594 C 39.175781 219.402344 39.25 218.507812 39.621094 217.984375 C 39.847656 217.613281 40.519531 217.238281 41.039062 217.238281 C 41.488281 217.238281 41.9375 217.539062 42.53125 217.984375 C 43.578125 218.878906 46.339844 222.015625 46.339844 223.28125 C 46.414062 224.027344 45.742188 224.851562 45.21875 225.074219 C 44.695312 225.296875 44.027344 225.296875 43.429688 224.925781 C 42.308594 224.105469 40.292969 219.777344 40.21875 218.207031 C 40.144531 217.3125 40.371094 216.492188 40.816406 216.121094 C 41.265625 215.746094 42.234375 215.671875 42.90625 215.96875 C 43.949219 216.417969 45.441406 218.582031 45.816406 219.550781 C 46.039062 220.074219 46.113281 220.449219 45.964844 220.894531 C 45.816406 221.34375 45.292969 222.015625 44.847656 222.164062 C 44.324219 222.386719 43.652344 222.3125 43.054688 221.941406 C 42.011719 221.269531 40.59375 218.65625 39.921875 216.714844 C 39.175781 214.777344 38.503906 211.417969 39.027344 210.148438 C 39.324219 209.476562 40.144531 208.957031 40.667969 208.957031 C 41.191406 208.957031 42.160156 209.703125 42.234375 210.222656 C 42.382812 210.820312 41.488281 212.089844 40.964844 212.3125 C 40.519531 212.464844 39.773438 212.164062 39.472656 211.867188 C 39.175781 211.492188 38.875 210.820312 39.027344 210.375 C 39.101562 209.851562 39.546875 209.328125 39.996094 209.105469 C 40.371094 208.957031 41.039062 208.808594 41.5625 209.253906 C 42.980469 210.300781 46.191406 219.105469 45.964844 220.894531 C 45.890625 221.492188 45.59375 221.714844 45.21875 221.941406 C 44.773438 222.238281 44.101562 222.386719 43.503906 222.164062 C 42.457031 221.789062 40.445312 219.328125 40.21875 218.207031 C 40.070312 217.460938 40.292969 216.492188 40.816406 216.121094 C 41.265625 215.746094 42.53125 215.746094 43.28125 216.269531 C 44.546875 217.164062 46.636719 221.714844 46.339844 223.28125 C 46.265625 224.179688 45.367188 225.074219 44.773438 225.148438 C 44.101562 225.296875 43.28125 224.699219 42.609375 224.027344 C 41.488281 223.058594 39.472656 220.449219 39.324219 219.253906 C 39.25 218.582031 39.546875 218.058594 39.847656 217.6875 C 40.144531 217.386719 40.59375 217.238281 41.039062 217.238281 C 41.488281 217.238281 42.160156 217.539062 42.53125 217.984375 C 42.832031 218.359375 42.609375 219.179688 42.90625 219.703125 C 43.28125 220.371094 44.695312 220.820312 44.847656 221.492188 C 44.996094 222.089844 44.621094 223.058594 44.175781 223.433594 C 43.726562 223.730469 42.234375 223.433594 42.234375 223.433594 " clip-rule="nonzero"/></clipPath><clipPath id="9e7e95e544"><path d="M 38 140.300781 L 61.675781 140.300781 L 61.675781 209.550781 L 38 209.550781 Z M 38 140.300781 " clip-rule="nonzero"/></clipPath><clipPath id="6d7ae47cd2"><path d="M 44.027344 176.644531 C 41.414062 169.332031 41.785156 168.585938 42.234375 168.289062 C 42.609375 167.988281 43.429688 167.988281 43.800781 168.140625 C 44.175781 168.289062 44.472656 168.4375 44.695312 168.960938 C 45.367188 170.304688 45.890625 176.050781 45.292969 177.839844 C 44.996094 178.808594 44.398438 179.707031 43.800781 179.78125 C 43.128906 179.929688 42.234375 179.332031 41.636719 178.511719 C 40.371094 176.644531 39.175781 169.035156 39.324219 166.945312 C 39.324219 166.125 39.546875 165.675781 39.847656 165.304688 C 40.144531 165.003906 40.667969 164.707031 41.117188 164.78125 C 41.636719 164.929688 42.457031 165.527344 42.980469 166.421875 C 43.949219 168.289062 44.847656 175.003906 44.101562 176.945312 C 43.726562 177.914062 42.832031 178.660156 42.234375 178.660156 C 41.5625 178.660156 40.816406 177.988281 40.292969 176.945312 C 38.875 173.960938 39.621094 160.601562 39.921875 155.527344 C 40.070312 152.617188 39.996094 150.082031 40.742188 148.8125 C 41.191406 148.140625 41.9375 147.695312 42.53125 147.695312 C 43.128906 147.695312 43.800781 148.140625 44.25 148.960938 C 45.21875 150.753906 45.144531 157.09375 44.996094 160.003906 C 44.921875 161.945312 44.996094 163.960938 44.324219 164.707031 C 43.949219 165.15625 43.128906 165.304688 42.609375 165.15625 C 42.160156 165.078125 41.636719 164.78125 41.265625 164.035156 C 40.070312 161.574219 39.175781 146.722656 40.371094 144.1875 C 40.816406 143.367188 41.488281 142.992188 42.085938 142.992188 C 42.609375 142.992188 43.28125 143.441406 43.800781 144.113281 C 44.695312 145.378906 46.265625 149.261719 45.964844 150.679688 C 45.816406 151.574219 44.996094 152.394531 44.398438 152.46875 C 43.800781 152.542969 42.609375 151.722656 42.457031 151.125 C 42.234375 150.527344 42.832031 149.632812 43.429688 148.886719 C 44.398438 147.617188 46.5625 146.199219 48.503906 145.007812 C 50.742188 143.738281 54.171875 142.246094 56.261719 141.648438 C 57.53125 141.277344 58.652344 140.976562 59.546875 141.125 C 60.292969 141.277344 61.113281 141.796875 61.410156 142.320312 C 61.636719 142.769531 61.636719 143.515625 61.410156 143.960938 C 61.1875 144.410156 60.742188 144.707031 59.992188 144.933594 C 58.128906 145.605469 52.085938 145.453125 48.578125 145.230469 C 45.59375 145.007812 41.5625 145.007812 40.21875 143.960938 C 39.472656 143.441406 39.027344 142.394531 39.175781 141.875 C 39.324219 141.277344 40.21875 140.679688 41.117188 140.53125 C 42.683594 140.378906 45.21875 142.320312 47.757812 142.769531 C 51.113281 143.367188 57.605469 142.542969 59.472656 143.367188 C 60.21875 143.664062 60.515625 144.035156 60.742188 144.484375 C 60.890625 144.859375 60.890625 145.378906 60.742188 145.753906 C 60.515625 146.199219 60.21875 146.574219 59.472656 146.871094 C 57.007812 148.066406 44.25 150.453125 41.5625 149.558594 C 40.519531 149.1875 39.921875 148.363281 39.847656 147.769531 C 39.773438 147.171875 40.292969 146.425781 40.964844 145.976562 C 42.234375 145.15625 45.519531 145.605469 48.128906 145.007812 C 51.414062 144.261719 57.160156 141.648438 59.023438 141.5 C 59.695312 141.425781 59.992188 141.5 60.292969 141.722656 C 60.742188 142.023438 61.1875 142.695312 61.261719 143.214844 C 61.261719 143.738281 60.964844 144.335938 60.515625 144.785156 C 59.992188 145.453125 59.171875 145.828125 57.980469 146.425781 C 55.667969 147.617188 49.398438 149.632812 47.382812 150.976562 C 46.488281 151.574219 46.113281 151.722656 45.667969 152.765625 C 44.621094 155.007812 45.441406 161.796875 44.847656 165.527344 C 44.398438 168.511719 43.503906 171.644531 42.832031 173.585938 C 42.457031 174.632812 42.011719 176.050781 41.785156 176.050781 C 41.5625 175.972656 41.265625 174.109375 41.636719 173.511719 C 42.011719 172.839844 43.355469 172.167969 44.027344 172.242188 C 44.546875 172.242188 45.21875 172.839844 45.441406 173.289062 C 45.59375 173.660156 45.59375 173.960938 45.519531 174.632812 C 45.292969 176.421875 43.726562 183.882812 42.308594 184.628906 C 41.636719 185.003906 40.21875 184.480469 39.996094 183.882812 C 39.621094 182.839844 42.90625 178.210938 44.175781 177.464844 C 44.847656 177.167969 45.519531 177.167969 45.964844 177.464844 C 46.488281 177.691406 47.011719 178.4375 47.085938 179.332031 C 47.160156 181.046875 44.847656 186.195312 43.355469 187.242188 C 42.609375 187.765625 41.339844 187.765625 40.816406 187.390625 C 40.292969 187.09375 40.070312 186.195312 40.144531 185.300781 C 40.292969 183.808594 42.234375 180.078125 43.355469 179.40625 C 43.949219 179.035156 44.621094 179.035156 45.070312 179.257812 C 45.59375 179.480469 46.039062 179.929688 46.191406 180.675781 C 46.636719 182.988281 44.398438 193.882812 42.457031 195.898438 C 41.5625 196.792969 39.996094 197.089844 39.25 196.71875 C 38.652344 196.34375 38.429688 195.300781 38.355469 194.105469 C 38.207031 191.941406 39.621094 185.972656 40.816406 184.332031 C 41.339844 183.511719 42.011719 182.988281 42.683594 182.988281 C 43.28125 182.988281 44.25 183.660156 44.621094 184.554688 C 45.519531 186.867188 42.90625 194.628906 42.832031 198.957031 C 42.683594 202.390625 44.324219 206.867188 43.429688 208.359375 C 42.980469 209.105469 41.710938 209.476562 41.191406 209.328125 C 40.667969 209.105469 40.144531 208.0625 40.21875 207.539062 C 40.292969 207.015625 41.117188 206.195312 41.636719 206.121094 C 42.160156 205.972656 42.832031 206.269531 43.128906 206.644531 C 43.429688 207.089844 43.503906 208.210938 43.28125 208.65625 C 43.054688 209.105469 42.382812 209.402344 41.863281 209.476562 C 41.414062 209.476562 40.890625 209.179688 40.519531 208.730469 C 39.847656 207.910156 39.25 206.195312 39.027344 204.480469 C 38.578125 201.792969 38.953125 197.390625 39.324219 193.957031 C 39.699219 190.523438 39.921875 185.375 41.117188 183.882812 C 41.636719 183.210938 42.53125 182.914062 43.128906 183.0625 C 43.652344 183.136719 44.398438 183.734375 44.621094 184.554688 C 45.070312 186.347656 43.28125 192.839844 41.785156 194.179688 C 40.890625 195.003906 39.175781 195.375 38.652344 194.851562 C 37.535156 193.585938 41.039062 181.945312 42.683594 180.003906 C 43.28125 179.332031 44.101562 179.035156 44.695312 179.109375 C 45.21875 179.257812 46.039062 179.929688 46.191406 180.675781 C 46.414062 182.09375 44.25 186.71875 42.980469 187.539062 C 42.308594 187.914062 41.265625 187.765625 40.816406 187.390625 C 40.371094 187.019531 40.070312 186.195312 40.144531 185.300781 C 40.292969 183.585938 42.457031 178.808594 43.800781 177.765625 C 44.472656 177.242188 45.441406 177.167969 45.964844 177.464844 C 46.488281 177.691406 47.085938 178.511719 47.085938 179.332031 C 47.085938 180.824219 44.546875 184.40625 43.203125 185.824219 C 42.308594 186.71875 41.265625 187.613281 40.519531 187.539062 C 39.699219 187.390625 38.578125 186.121094 38.355469 184.855469 C 37.90625 182.316406 40.742188 174.109375 42.382812 172.765625 C 42.980469 172.167969 43.949219 172.09375 44.472656 172.316406 C 44.996094 172.617188 45.59375 173.4375 45.59375 174.183594 C 45.59375 175.300781 43.875 177.617188 42.757812 178.289062 C 41.863281 178.808594 40.519531 178.960938 39.699219 178.660156 C 39.027344 178.363281 38.355469 177.617188 38.128906 176.570312 C 37.609375 174.183594 40.890625 167.617188 41.488281 163.363281 C 42.011719 159.707031 41.414062 154.929688 41.785156 152.765625 C 42.011719 151.722656 42.085938 151.351562 42.53125 150.605469 C 43.203125 149.558594 44.324219 148.515625 45.890625 147.46875 C 48.726562 145.605469 56.933594 141.796875 59.023438 141.5 C 59.695312 141.425781 59.992188 141.5 60.292969 141.722656 C 60.742188 142.023438 61.1875 142.695312 61.261719 143.214844 C 61.261719 143.738281 60.964844 144.335938 60.515625 144.785156 C 59.769531 145.53125 58.128906 145.976562 56.261719 146.574219 C 52.832031 147.617188 43.949219 150.304688 41.5625 149.558594 C 40.59375 149.1875 39.847656 148.363281 39.847656 147.769531 C 39.847656 147.171875 40.445312 146.425781 41.414062 145.902344 C 44.027344 144.410156 56.261719 142.621094 59.023438 143.289062 C 59.992188 143.515625 60.515625 143.960938 60.742188 144.484375 C 60.964844 144.859375 60.890625 145.378906 60.742188 145.753906 C 60.515625 146.199219 60.21875 146.648438 59.472656 146.871094 C 57.457031 147.617188 50.441406 146.945312 46.9375 146.199219 C 44.175781 145.679688 40.816406 144.933594 39.847656 143.738281 C 39.25 143.066406 39.027344 141.949219 39.324219 141.425781 C 39.699219 140.753906 41.414062 140.53125 42.757812 140.53125 C 44.398438 140.457031 46.339844 141.5 48.652344 141.722656 C 51.859375 142.023438 58.652344 140.679688 60.441406 141.425781 C 61.113281 141.722656 61.488281 142.246094 61.5625 142.695312 C 61.636719 143.289062 61.335938 144.261719 60.816406 144.632812 C 60.21875 145.082031 58.949219 144.632812 57.832031 144.859375 C 56.335938 145.230469 54.398438 146.277344 52.53125 147.097656 C 50.441406 147.992188 46.710938 149.261719 45.964844 150.230469 C 45.667969 150.679688 46.039062 151.199219 45.816406 151.574219 C 45.519531 151.945312 44.921875 152.46875 44.398438 152.46875 C 43.875 152.542969 43.128906 152.171875 42.609375 151.5 C 41.5625 150.378906 40.371094 146.351562 40.292969 145.007812 C 40.292969 144.484375 40.371094 144.113281 40.59375 143.8125 C 40.890625 143.367188 41.5625 142.992188 42.085938 142.992188 C 42.609375 142.992188 43.28125 143.367188 43.800781 144.113281 C 45.070312 146.351562 45.292969 157.019531 45.144531 160.675781 C 44.996094 162.46875 44.921875 164.035156 44.324219 164.707031 C 43.875 165.15625 43.128906 165.304688 42.609375 165.15625 C 42.160156 165.078125 41.636719 164.78125 41.265625 164.035156 C 40.292969 161.871094 39.699219 150.304688 40.964844 148.441406 C 41.488281 147.769531 42.382812 147.617188 42.980469 147.769531 C 43.503906 147.917969 44.101562 148.589844 44.324219 149.335938 C 44.695312 150.679688 43.800781 152.84375 43.726562 155.304688 C 43.578125 159.632812 44.695312 169.035156 44.472656 173.0625 C 44.324219 175.152344 44.324219 176.945312 43.800781 177.839844 C 43.503906 178.289062 43.128906 178.511719 42.683594 178.585938 C 42.160156 178.660156 41.414062 178.660156 40.964844 178.210938 C 39.847656 177.019531 39.472656 171.722656 39.398438 169.332031 C 39.324219 167.765625 39.324219 165.976562 39.847656 165.304688 C 40.21875 164.855469 41.039062 164.78125 41.5625 164.855469 C 41.9375 164.929688 42.308594 165.078125 42.609375 165.601562 C 43.726562 167.167969 45.667969 175.601562 45.292969 177.839844 C 45.144531 178.808594 44.773438 179.480469 44.175781 179.707031 C 43.652344 179.929688 42.382812 179.628906 41.863281 178.960938 C 40.816406 177.542969 40.964844 171.421875 41.414062 169.707031 C 41.5625 168.960938 41.785156 168.511719 42.234375 168.289062 C 42.757812 167.988281 43.800781 168.066406 44.472656 168.585938 C 45.742188 169.632812 47.457031 174.183594 47.308594 175.824219 C 47.234375 176.71875 46.5625 177.542969 46.039062 177.691406 C 45.441406 177.839844 44.027344 176.644531 44.027344 176.644531 " clip-rule="nonzero"/></clipPath><clipPath id="7f1682c3f8"><path d="M 37.566406 196.453125 L 45.898438 196.453125 L 45.898438 211.742188 L 37.566406 211.742188 Z M 37.566406 196.453125 " clip-rule="nonzero"/></clipPath><clipPath id="5c03a9593b"><path d="M 41.265625 210.449219 C 39.175781 203.285156 39.25 202.6875 39.699219 202.390625 C 40.144531 202.015625 41.191406 201.941406 42.011719 202.238281 C 43.203125 202.6875 45.667969 205.074219 45.816406 206.269531 C 45.890625 207.015625 45.21875 208.136719 44.695312 208.433594 C 44.175781 208.65625 43.28125 208.359375 42.683594 207.910156 C 41.5625 207.164062 39.699219 204.480469 39.472656 203.210938 C 39.398438 202.539062 39.621094 201.941406 39.996094 201.570312 C 40.292969 201.195312 40.742188 200.972656 41.191406 200.972656 C 41.710938 200.972656 42.382812 201.195312 42.832031 201.644531 C 43.578125 202.390625 44.472656 204.851562 44.324219 205.898438 C 44.175781 206.644531 43.652344 207.464844 43.054688 207.6875 C 42.53125 207.910156 41.636719 207.6875 41.039062 207.164062 C 39.847656 206.269531 38.355469 203.136719 37.980469 201.269531 C 37.609375 199.851562 37.609375 197.914062 38.128906 197.242188 C 38.429688 196.792969 39.101562 196.496094 39.621094 196.644531 C 40.144531 196.71875 40.964844 197.464844 41.117188 197.988281 C 41.191406 198.433594 40.964844 199.179688 40.59375 199.480469 C 40.292969 199.777344 39.546875 200.078125 39.101562 199.925781 C 38.578125 199.777344 37.832031 198.957031 37.757812 198.359375 C 37.683594 197.914062 37.980469 197.167969 38.429688 196.941406 C 38.875 196.644531 40.445312 196.867188 40.816406 197.316406 C 41.117188 197.6875 40.519531 198.507812 40.742188 199.328125 C 41.117188 200.898438 44.25 203.957031 44.25 205.449219 C 44.25 206.34375 43.652344 207.390625 43.054688 207.6875 C 42.53125 207.910156 41.5625 207.6875 41.039062 207.164062 C 40.21875 206.417969 39.25 203.882812 39.472656 202.761719 C 39.621094 201.941406 40.59375 201.121094 41.191406 200.972656 C 41.710938 200.824219 42.308594 201.195312 42.832031 201.644531 C 43.800781 202.464844 45.667969 205 45.816406 206.269531 C 45.890625 207.015625 45.519531 207.910156 45.070312 208.210938 C 44.621094 208.507812 43.726562 208.507812 42.980469 208.210938 C 41.785156 207.6875 39.472656 205.148438 39.175781 203.957031 C 39.101562 203.359375 39.324219 202.761719 39.699219 202.390625 C 39.921875 202.089844 40.371094 201.867188 40.816406 201.867188 C 41.265625 201.867188 41.863281 202.015625 42.308594 202.539062 C 43.28125 203.582031 44.621094 207.761719 44.546875 209.402344 C 44.472656 210.300781 44.101562 211.195312 43.652344 211.492188 C 43.203125 211.71875 42.457031 211.640625 42.011719 211.417969 C 41.636719 211.269531 41.265625 210.449219 41.265625 210.449219 " clip-rule="nonzero"/></clipPath><clipPath id="8cbd1fdbf8"><path d="M 39 203 L 45.933594 203 L 45.933594 214.40625 L 39 214.40625 Z M 39 203 " clip-rule="nonzero"/></clipPath><clipPath id="226694239a"><path d="M 42.457031 213.132812 C 39.027344 204.402344 39.101562 203.808594 39.472656 203.507812 C 39.921875 203.210938 41.488281 203.136719 41.9375 203.507812 C 42.308594 203.808594 42.457031 204.554688 42.382812 205 C 42.308594 205.449219 41.785156 206.121094 41.339844 206.269531 C 40.816406 206.34375 39.398438 205.746094 39.175781 205.226562 C 38.953125 204.777344 39.324219 203.582031 39.773438 203.285156 C 40.21875 202.988281 41.191406 202.988281 41.785156 203.359375 C 43.054688 204.253906 44.621094 208.730469 45.292969 210.449219 C 45.59375 211.34375 45.890625 211.867188 45.890625 212.539062 C 45.816406 213.058594 45.59375 213.65625 45.21875 213.957031 C 44.847656 214.253906 44.101562 214.402344 43.652344 214.253906 C 43.128906 214.105469 42.457031 213.132812 42.457031 213.132812 " clip-rule="nonzero"/></clipPath><clipPath id="2c3162b6aa"><path d="M 273.625 223.324219 L 279.410156 223.324219 L 279.410156 229.285156 L 273.625 229.285156 Z M 273.625 223.324219 " clip-rule="nonzero"/></clipPath><clipPath id="3a3b720c40"><path d="M 273.628906 226.269531 C 275.496094 223.507812 276.765625 223.359375 277.511719 223.65625 C 278.179688 223.953125 279.003906 224.925781 279.226562 225.671875 C 279.375 226.417969 279.003906 227.609375 278.480469 228.207031 C 277.957031 228.730469 276.765625 229.179688 276.019531 229.027344 C 275.269531 228.878906 274.226562 228.132812 273.929688 227.460938 C 273.628906 226.714844 273.628906 225.523438 274.078125 224.851562 C 274.449219 224.179688 275.570312 223.582031 276.316406 223.507812 C 276.914062 223.359375 277.585938 223.582031 278.03125 223.953125 C 278.628906 224.402344 279.226562 225.523438 279.226562 226.269531 C 279.300781 227.015625 278.703125 228.132812 278.179688 228.65625 C 277.660156 229.027344 276.914062 229.253906 276.242188 229.179688 C 275.644531 229.179688 274.898438 228.804688 274.449219 228.355469 C 274.003906 227.910156 273.628906 226.566406 273.628906 226.566406 " clip-rule="nonzero"/></clipPath><clipPath id="4f38f71007"><path d="M 273.003906 284 L 281.699219 284 L 281.699219 292.78125 L 273.003906 292.78125 Z M 273.003906 284 " clip-rule="nonzero"/></clipPath><clipPath id="c08d0ae0a6"><path d="M 280.496094 290.964844 C 275.867188 292.53125 274.300781 291.558594 273.703125 290.589844 C 273.109375 289.621094 273.03125 287.828125 273.480469 286.785156 C 274.003906 285.738281 275.421875 284.621094 276.539062 284.472656 C 277.660156 284.246094 279.449219 284.84375 280.195312 285.664062 C 281.015625 286.484375 281.464844 288.277344 281.242188 289.394531 C 281.015625 290.441406 279.824219 291.859375 278.777344 292.304688 C 277.734375 292.753906 275.867188 292.378906 274.898438 291.859375 C 274.152344 291.484375 273.554688 290.664062 273.332031 289.84375 C 273.109375 288.800781 273.40625 287.007812 273.929688 286.039062 C 274.449219 285.21875 275.347656 284.472656 276.242188 284.246094 C 277.285156 283.949219 279.152344 284.320312 280.046875 284.917969 C 280.792969 285.441406 281.390625 286.558594 281.539062 287.457031 C 281.6875 288.351562 281.015625 290.292969 281.015625 290.292969 " clip-rule="nonzero"/></clipPath><clipPath id="c6f85edce5"><path d="M 79.109375 141.367188 L 217.152344 141.367188 L 217.152344 276.429688 L 79.109375 276.429688 Z M 79.109375 141.367188 " clip-rule="nonzero"/></clipPath><clipPath id="5636288cbf"><path d="M 206.472656 395.171875 L 212.519531 395.171875 L 212.519531 401.175781 L 206.472656 401.175781 Z M 206.472656 395.171875 " clip-rule="nonzero"/></clipPath><clipPath id="048104a39e"><path d="M 210.351562 400.878906 C 207.144531 400.132812 206.546875 399.011719 206.546875 398.265625 C 206.546875 397.445312 207.144531 396.398438 207.816406 395.953125 C 208.414062 395.503906 209.679688 395.355469 210.425781 395.652344 C 211.097656 395.953125 211.917969 396.921875 212.070312 397.667969 C 212.21875 398.414062 211.917969 399.683594 211.398438 400.207031 C 210.800781 400.726562 209.605469 401.175781 208.859375 401.027344 C 208.113281 400.878906 207.144531 400.058594 206.769531 399.460938 C 206.546875 398.863281 206.472656 398.191406 206.621094 397.667969 C 206.84375 396.921875 207.667969 396.027344 208.335938 395.652344 C 208.933594 395.355469 209.679688 395.207031 210.351562 395.429688 C 211.023438 395.652344 211.992188 396.476562 212.292969 397.148438 C 212.515625 397.742188 212.515625 398.5625 212.292969 399.160156 C 212.070312 399.757812 210.949219 400.652344 210.949219 400.652344 " clip-rule="nonzero"/></clipPath></defs><g clip-path="url(#92c93af51a)"><path fill="#ffffff" d="M 0 0.246094 L 296.238281 0.246094 L 296.238281 417.367188 L 0 417.367188 Z M 0 0.246094 " fill-opacity="1" fill-rule="nonzero"/><path fill="#ffffff" d="M 0 0.246094 L 296.238281 0.246094 L 296.238281 417.367188 L 0 417.367188 Z M 0 0.246094 " fill-opacity="1" fill-rule="nonzero"/></g><g fill="#000000" fill-opacity="1"><g transform="translate(272.481686, 387.070532)"><g><path d="M 2.859375 -5.9375 L 2.859375 -2.046875 L 0.96875 -2.046875 C 0.925781 -3.140625 0.660156 -3.953125 0.171875 -4.484375 C -0.304688 -5.023438 -1.03125 -5.296875 -2 -5.296875 C -3.320312 -5.296875 -4.242188 -4.878906 -4.765625 -4.046875 C -5.285156 -3.210938 -5.546875 -1.59375 -5.546875 0.8125 L -5.546875 22.984375 L -1.6875 22.984375 L -1.6875 24.765625 L -12.0625 24.765625 L -12.0625 22.984375 L -8.90625 22.984375 L -8.90625 0.6875 C -8.90625 -2.050781 -8.359375 -4.023438 -7.265625 -5.234375 C -6.171875 -6.453125 -4.40625 -7.0625 -1.96875 -7.0625 C -1.1875 -7.0625 -0.390625 -6.96875 0.421875 -6.78125 C 1.234375 -6.59375 2.046875 -6.3125 2.859375 -5.9375 Z M 2.859375 -5.9375 "/></g></g></g><g clip-path="url(#97e6bfebd6)"><path fill="#000000" d="M 275.296875 339.679688 C 268.5 341.207031 267.769531 345.222656 267.253906 352.613281 C 268.4375 350.640625 270.585938 349.183594 274.089844 349.195312 C 279.851562 349.214844 283.710938 352.597656 282.335938 359.898438 C 280.953125 367.261719 270.582031 370.113281 265.871094 377.738281 C 261.160156 370.113281 250.789062 367.257812 249.40625 359.898438 C 248.03125 352.597656 251.734375 349.214844 257.652344 349.195312 C 261.15625 349.183594 263.304688 350.640625 264.488281 352.613281 C 263.972656 345.222656 263.242188 341.207031 256.445312 339.679688 Z M 275.296875 339.679688 " fill-opacity="1" fill-rule="nonzero"/></g><g fill="#000000" fill-opacity="1"><g transform="translate(35.395695, 386.622419)"><g><path d="M 2 -4.15625 L 2 -1.421875 L 0.671875 -1.421875 C 0.648438 -2.191406 0.46875 -2.765625 0.125 -3.140625 C -0.207031 -3.515625 -0.71875 -3.703125 -1.40625 -3.703125 C -2.320312 -3.703125 -2.960938 -3.410156 -3.328125 -2.828125 C -3.691406 -2.242188 -3.875 -1.113281 -3.875 0.5625 L -3.875 16.0625 L -1.1875 16.0625 L -1.1875 17.296875 L -8.421875 17.296875 L -8.421875 16.0625 L -6.21875 16.0625 L -6.21875 0.46875 C -6.21875 -1.4375 -5.832031 -2.8125 -5.0625 -3.65625 C -4.300781 -4.507812 -3.070312 -4.9375 -1.375 -4.9375 C -0.832031 -4.9375 -0.28125 -4.867188 0.28125 -4.734375 C 0.851562 -4.609375 1.425781 -4.414062 2 -4.15625 Z M 2 -4.15625 "/></g></g></g><g clip-path="url(#8ec843df15)"><path fill="#000000" d="M 37.363281 353.511719 C 32.613281 354.578125 32.101562 357.382812 31.746094 362.546875 C 32.570312 361.167969 34.070312 360.148438 36.519531 360.160156 C 40.542969 360.171875 43.242188 362.535156 42.28125 367.636719 C 41.3125 372.78125 34.070312 374.773438 30.777344 380.101562 C 27.484375 374.773438 20.238281 372.78125 19.273438 367.636719 C 18.3125 362.535156 20.898438 360.171875 25.035156 360.160156 C 27.484375 360.148438 28.984375 361.167969 29.808594 362.546875 C 29.449219 357.382812 28.941406 354.578125 24.191406 353.511719 Z M 37.363281 353.511719 " fill-opacity="1" fill-rule="nonzero"/></g><g fill="#000000" fill-opacity="1"><g transform="translate(261.747665, 39.372594)"><g><path d="M -2 4.15625 L -2 1.421875 L -0.671875 1.421875 C -0.648438 2.191406 -0.46875 2.765625 -0.125 3.140625 C 0.207031 3.515625 0.71875 3.703125 1.40625 3.703125 C 2.320312 3.703125 2.960938 3.410156 3.328125 2.828125 C 3.691406 2.242188 3.875 1.113281 3.875 -0.5625 L 3.875 -16.0625 L 1.1875 -16.0625 L 1.1875 -17.296875 L 8.421875 -17.296875 L 8.421875 -16.0625 L 6.21875 -16.0625 L 6.21875 -0.46875 C 6.21875 1.4375 5.832031 2.8125 5.0625 3.65625 C 4.300781 4.507812 3.070312 4.9375 1.375 4.9375 C 0.832031 4.9375 0.28125 4.867188 -0.28125 4.734375 C -0.851562 4.609375 -1.425781 4.414062 -2 4.15625 Z M -2 4.15625 "/></g></g></g><g clip-path="url(#f8ae954f91)"><path fill="#000000" d="M 259.78125 72.484375 C 264.53125 71.417969 265.039062 68.609375 265.398438 63.445312 C 264.574219 64.828125 263.074219 65.84375 260.625 65.835938 C 256.597656 65.820312 253.902344 63.460938 254.863281 58.359375 C 255.828125 53.214844 263.074219 51.21875 266.367188 45.894531 C 269.660156 51.21875 276.902344 53.214844 277.871094 58.359375 C 278.832031 63.460938 276.246094 65.820312 272.109375 65.835938 C 269.660156 65.84375 268.160156 64.828125 267.332031 63.445312 C 267.691406 68.609375 268.203125 71.417969 272.953125 72.484375 Z M 259.78125 72.484375 " fill-opacity="1" fill-rule="nonzero"/></g><g fill="#000000" fill-opacity="1"><g transform="translate(23.822201, 36.835368)"><g><path d="M -2.859375 5.9375 L -2.859375 2.046875 L -0.96875 2.046875 C -0.925781 3.140625 -0.660156 3.953125 -0.171875 4.484375 C 0.304688 5.023438 1.03125 5.296875 2 5.296875 C 3.320312 5.296875 4.242188 4.878906 4.765625 4.046875 C 5.285156 3.210938 5.546875 1.59375 5.546875 -0.8125 L 5.546875 -22.984375 L 1.6875 -22.984375 L 1.6875 -24.765625 L 12.0625 -24.765625 L 12.0625 -22.984375 L 8.90625 -22.984375 L 8.90625 -0.6875 C 8.90625 2.050781 8.359375 4.023438 7.265625 5.234375 C 6.171875 6.453125 4.40625 7.0625 1.96875 7.0625 C 1.1875 7.0625 0.390625 6.96875 -0.421875 6.78125 C -1.234375 6.59375 -2.046875 6.3125 -2.859375 5.9375 Z M -2.859375 5.9375 "/></g></g></g><g clip-path="url(#d86d0b4699)"><path fill="#000000" d="M 21.007812 84.226562 C 27.804688 82.699219 28.535156 78.683594 29.046875 71.292969 C 27.867188 73.265625 25.71875 74.722656 22.214844 74.710938 C 16.453125 74.691406 12.59375 71.308594 13.96875 64.007812 C 15.351562 56.644531 25.71875 53.792969 30.433594 46.167969 C 35.144531 53.792969 45.511719 56.644531 46.898438 64.007812 C 48.269531 71.308594 44.570312 74.691406 38.652344 74.710938 C 35.144531 74.722656 33 73.265625 31.816406 71.292969 C 32.332031 78.679688 33.0625 82.699219 39.859375 84.226562 Z M 21.007812 84.226562 " fill-opacity="1" fill-rule="nonzero"/></g><g clip-path="url(#3d94669470)"><path stroke-linecap="butt" transform="matrix(0.746195, 0, 0, 0.746195, 30.637603, 45.234822)" fill="none" stroke-linejoin="miter" d="M -0.00118541 -0.000598774 L 316.102365 -0.000598774 L 316.102365 449.63974 L -0.00118541 449.63974 Z M -0.00118541 -0.000598774 " stroke="#000000" stroke-width="6" stroke-opacity="1" stroke-miterlimit="4"/></g><g clip-path="url(#9714400cad)"><g clip-path="url(#91197ece28)"><path fill="#fefefe" d="M 77.457031 298.351562 L 89.019531 298.351562 L 89.019531 310.007812 L 77.457031 310.007812 Z M 77.457031 298.351562 " fill-opacity="1" fill-rule="nonzero"/></g></g><g clip-path="url(#6cd8a6d4d8)"><g clip-path="url(#cf843b280e)"><path fill="#fefefe" d="M 41.339844 306.929688 L 52.757812 306.929688 L 52.757812 337.835938 L 41.339844 337.835938 Z M 41.339844 306.929688 " fill-opacity="1" fill-rule="nonzero"/></g></g><g clip-path="url(#9e123decad)"><g clip-path="url(#a4f1983612)"><path fill="#fefefe" d="M 34.175781 200.898438 L 51.1875 200.898438 L 51.1875 343.515625 L 34.175781 343.515625 Z M 34.175781 200.898438 " fill-opacity="1" fill-rule="nonzero"/></g></g><g clip-path="url(#1d6f652b6b)"><g clip-path="url(#f820dbe5e8)"><path fill="#fefefe" d="M 36.042969 205.972656 L 49.398438 205.972656 L 49.398438 228.199219 L 36.042969 228.199219 Z M 36.042969 205.972656 " fill-opacity="1" fill-rule="nonzero"/></g></g><g clip-path="url(#9e7e95e544)"><g clip-path="url(#6d7ae47cd2)"><path fill="#fefefe" d="M 35.144531 137.546875 L 64.546875 137.546875 L 64.546875 212.421875 L 35.144531 212.421875 Z M 35.144531 137.546875 " fill-opacity="1" fill-rule="nonzero"/></g></g><g clip-path="url(#7f1682c3f8)"><g clip-path="url(#5c03a9593b)"><path fill="#fefefe" d="M 34.773438 193.660156 L 48.800781 193.660156 L 48.800781 214.539062 L 34.773438 214.539062 Z M 34.773438 193.660156 " fill-opacity="1" fill-rule="nonzero"/></g></g><g clip-path="url(#8cbd1fdbf8)"><g clip-path="url(#226694239a)"><path fill="#fefefe" d="M 36.117188 200.300781 L 48.875 200.300781 L 48.875 217.296875 L 36.117188 217.296875 Z M 36.117188 200.300781 " fill-opacity="1" fill-rule="nonzero"/></g></g><g clip-path="url(#2c3162b6aa)"><g clip-path="url(#3a3b720c40)"><path fill="#fefefe" d="M 270.644531 220.523438 L 282.210938 220.523438 L 282.210938 232.222656 L 270.644531 232.222656 Z M 270.644531 220.523438 " fill-opacity="1" fill-rule="nonzero"/></g></g><g clip-path="url(#4f38f71007)"><g clip-path="url(#c08d0ae0a6)"><path fill="#fefefe" d="M 270.347656 281.261719 L 284.523438 281.261719 L 284.523438 295.660156 L 270.347656 295.660156 Z M 270.347656 281.261719 " fill-opacity="1" fill-rule="nonzero"/></g></g><g clip-path="url(#c6f85edce5)"><path fill="#000000" d="M 217.09375 269.410156 C 217.09375 269.328125 217.09375 269.273438 217.09375 269.1875 C 217.09375 268.996094 217.066406 268.804688 217.066406 268.609375 C 217.066406 268.554688 217.066406 268.472656 217.039062 268.417969 C 217.011719 268.171875 217.011719 267.949219 216.984375 267.730469 C 216.597656 264.234375 215.578125 261.066406 215.578125 257.378906 C 215.578125 250.714844 215.359375 243.890625 216.019531 237.28125 C 216.351562 233.839844 216.902344 230.070312 216.460938 226.601562 C 216.238281 224.894531 215.660156 223.296875 215.386719 221.617188 C 215.246094 220.765625 214.832031 219.964844 214.363281 219.195312 C 214.390625 219.113281 214.421875 219.058594 214.449219 218.972656 C 214.449219 218.972656 214.449219 218.972656 214.449219 218.945312 C 214.476562 218.863281 214.53125 218.753906 214.558594 218.671875 C 215.027344 217.542969 215.550781 216.46875 215.796875 215.203125 C 216.074219 213.882812 216.101562 212.476562 216.378906 211.15625 C 216.820312 208.980469 215.109375 209.640625 213.953125 208.871094 C 211.910156 207.496094 209.648438 205.953125 207.527344 205.238281 C 207.058594 205.070312 206.5625 205.070312 206.09375 204.960938 C 205.707031 204.027344 205.042969 203.117188 204.796875 202.125 C 204.300781 200.171875 204.4375 198.273438 204.714844 196.261719 C 204.824219 195.546875 204.21875 194.859375 204.273438 194.445312 C 204.4375 193.507812 204.851562 192.738281 205.15625 191.914062 C 205.265625 191.554688 204.851562 191.140625 204.933594 190.675781 C 205.070312 189.847656 205.679688 189.078125 205.953125 188.277344 C 206.175781 187.617188 205.320312 187.234375 205.457031 186.628906 C 205.652344 185.71875 205.816406 184.753906 206.121094 183.847656 C 206.449219 183.378906 206.917969 182.9375 207.746094 182.609375 C 207.746094 182.609375 207.746094 182.609375 208.382812 181.230469 C 208.382812 181.257812 208.382812 181.285156 208.355469 181.3125 C 208.355469 181.3125 208.355469 181.3125 208.355469 181.339844 C 208.355469 181.367188 208.355469 181.367188 208.355469 181.367188 C 208.355469 181.367188 208.355469 181.367188 208.355469 181.394531 C 208.355469 181.394531 208.355469 181.425781 208.355469 181.425781 C 208.355469 181.425781 208.355469 181.453125 208.355469 181.453125 C 208.355469 181.453125 208.355469 181.453125 208.382812 181.453125 C 208.382812 181.453125 208.382812 181.453125 208.410156 181.425781 C 208.574219 181.285156 208.960938 180.515625 209.234375 179.964844 C 209.347656 179.746094 209.429688 179.578125 209.484375 179.496094 C 209.59375 179.277344 209.730469 179.054688 209.84375 178.808594 L 209.871094 178.78125 C 209.925781 178.699219 209.953125 178.617188 210.007812 178.503906 C 210.007812 178.476562 210.035156 178.476562 210.035156 178.449219 C 210.0625 178.421875 210.0625 178.367188 210.089844 178.339844 C 210.117188 178.285156 210.144531 178.203125 210.171875 178.148438 C 210.171875 178.121094 210.199219 178.09375 210.199219 178.066406 C 210.230469 178.011719 210.230469 177.984375 210.257812 177.925781 C 210.257812 177.898438 210.285156 177.871094 210.285156 177.84375 C 210.3125 177.789062 210.3125 177.734375 210.339844 177.679688 C 210.339844 177.652344 210.367188 177.625 210.367188 177.597656 C 210.394531 177.542969 210.421875 177.460938 210.421875 177.40625 C 210.421875 177.378906 210.449219 177.347656 210.449219 177.320312 C 210.476562 177.265625 210.476562 177.210938 210.476562 177.183594 C 210.476562 177.15625 210.503906 177.128906 210.503906 177.101562 C 210.53125 177.019531 210.53125 176.964844 210.558594 176.882812 C 210.558594 176.855469 210.558594 176.828125 210.558594 176.828125 C 210.558594 176.769531 210.585938 176.714844 210.585938 176.660156 C 210.585938 176.632812 210.585938 176.605469 210.585938 176.578125 C 210.585938 176.523438 210.585938 176.46875 210.585938 176.414062 C 210.585938 176.386719 210.585938 176.359375 210.585938 176.332031 C 210.585938 176.25 210.585938 176.191406 210.585938 176.109375 C 210.585938 176.082031 210.585938 176.054688 210.585938 176.027344 C 210.585938 175.972656 210.585938 175.917969 210.558594 175.863281 C 210.558594 175.835938 210.558594 175.808594 210.558594 175.78125 C 210.558594 175.699219 210.53125 175.613281 210.503906 175.53125 C 210.3125 174.707031 209.816406 173.523438 209.347656 172.835938 C 208.960938 172.230469 207.855469 171.761719 207.582031 171.074219 C 206.5625 168.566406 203.167969 165.871094 200.742188 164.660156 C 196.882812 162.730469 193.269531 160.695312 188.914062 160.199219 C 186.183594 159.894531 183.316406 160.253906 180.585938 160.527344 C 178.933594 160.695312 177.195312 160.117188 175.566406 160.335938 C 171.625 160.832031 167.679688 161.246094 163.738281 160.667969 C 161.394531 160.335938 158.914062 158.628906 156.898438 157.5 C 153.949219 155.820312 150.75 154.582031 147.550781 153.507812 C 146.144531 153.039062 144.464844 152.820312 143.03125 153.09375 C 142.535156 153.207031 141.789062 152.820312 141.539062 153.289062 C 141.539062 153.289062 141.539062 153.289062 141.070312 153.839844 C 140.988281 154.03125 140.4375 153.949219 139.914062 154.03125 C 138.753906 154.195312 137.40625 154.773438 136.328125 155.214844 C 132.605469 156.703125 128.222656 157.886719 124.195312 157.390625 C 122.292969 157.140625 120.558594 156.398438 118.679688 156.097656 C 118.570312 156.070312 118.433594 156.042969 118.324219 156.015625 C 118.269531 156.015625 118.242188 155.984375 118.183594 155.984375 C 118.101562 155.957031 118.019531 155.957031 117.9375 155.929688 C 117.882812 155.929688 117.828125 155.902344 117.800781 155.902344 C 117.714844 155.875 117.660156 155.875 117.578125 155.847656 C 117.523438 155.820312 117.46875 155.820312 117.414062 155.792969 C 117.332031 155.765625 117.273438 155.738281 117.191406 155.738281 C 117.136719 155.710938 117.082031 155.710938 117.027344 155.683594 C 116.945312 155.65625 116.863281 155.628906 116.777344 155.601562 C 116.722656 155.574219 116.640625 155.546875 116.585938 155.546875 C 116.503906 155.519531 116.394531 155.492188 116.308594 155.464844 C 116.253906 155.4375 116.226562 155.4375 116.171875 155.40625 C 116.089844 155.378906 116.007812 155.351562 115.953125 155.324219 C 115.953125 155.324219 115.925781 155.324219 115.925781 155.324219 C 115.8125 155.296875 115.730469 155.269531 115.621094 155.242188 C 114.601562 154.96875 115.070312 154.773438 114.988281 154.746094 C 114.792969 154.691406 113.71875 154.25 113.910156 153.894531 C 113.992188 153.757812 114.078125 153.617188 114.1875 153.480469 C 114.214844 153.453125 114.214844 153.425781 114.242188 153.398438 C 114.296875 153.34375 114.351562 153.289062 114.378906 153.234375 C 114.433594 153.179688 114.492188 153.125 114.546875 153.039062 C 114.574219 153.011719 114.574219 152.984375 114.601562 152.984375 C 114.628906 152.929688 114.683594 152.902344 114.710938 152.847656 C 114.738281 152.820312 114.765625 152.792969 114.765625 152.765625 C 114.792969 152.738281 114.820312 152.683594 114.875 152.628906 C 114.902344 152.601562 114.902344 152.574219 114.929688 152.546875 C 114.960938 152.488281 114.988281 152.460938 115.015625 152.40625 C 115.042969 152.378906 115.042969 152.351562 115.070312 152.324219 C 115.097656 152.242188 115.152344 152.160156 115.179688 152.078125 C 115.207031 151.96875 115.261719 151.828125 115.289062 151.71875 C 115.289062 151.71875 115.289062 151.691406 115.289062 151.691406 C 115.316406 151.582031 115.34375 151.445312 115.34375 151.332031 C 115.34375 151.332031 115.34375 151.304688 115.34375 151.304688 C 115.371094 151.195312 115.371094 151.058594 115.398438 150.949219 C 115.398438 150.949219 115.398438 150.921875 115.398438 150.921875 C 115.457031 150.121094 115.429688 149.324219 115.539062 148.527344 C 115.839844 146.679688 116.0625 143.816406 115.015625 142.082031 C 114.960938 142 114.929688 141.945312 114.875 141.890625 C 114.847656 141.863281 114.820312 141.808594 114.792969 141.78125 C 114.710938 141.671875 114.628906 141.5625 114.519531 141.476562 C 114.40625 141.367188 112.835938 142.054688 112.644531 142.082031 C 110.214844 142.578125 107.265625 144.917969 106.464844 147.3125 C 106.410156 147.480469 106.355469 147.617188 106.300781 147.78125 C 106.273438 147.835938 106.273438 147.890625 106.246094 147.949219 C 106.21875 148.058594 106.164062 148.167969 106.109375 148.277344 C 106.082031 148.332031 106.050781 148.386719 106.023438 148.46875 C 105.96875 148.609375 105.914062 148.746094 105.859375 148.882812 C 105.832031 148.964844 105.804688 149.046875 105.777344 149.132812 C 105.75 149.214844 105.722656 149.269531 105.695312 149.351562 C 105.667969 149.433594 105.640625 149.542969 105.582031 149.625 C 105.554688 149.683594 105.527344 149.765625 105.527344 149.820312 C 105.5 149.929688 105.445312 150.066406 105.417969 150.175781 C 105.417969 150.203125 105.390625 150.261719 105.390625 150.289062 C 105.335938 150.425781 105.308594 150.589844 105.28125 150.726562 C 105.226562 150.921875 105.199219 151.113281 105.171875 151.304688 C 105.144531 151.554688 105.058594 153.09375 104.921875 153.09375 C 104.921875 153.09375 104.921875 153.09375 104.371094 152.902344 C 104.066406 152.738281 103.570312 152.984375 103.265625 152.820312 C 103.238281 152.792969 103.183594 152.765625 103.15625 152.765625 C 103.15625 152.765625 103.128906 152.738281 103.128906 152.738281 C 103.101562 152.710938 103.074219 152.710938 103.046875 152.683594 C 103.046875 152.683594 103.019531 152.65625 103.019531 152.65625 C 102.992188 152.628906 102.964844 152.601562 102.9375 152.574219 C 102.9375 152.574219 102.910156 152.546875 102.910156 152.546875 C 102.882812 152.515625 102.855469 152.488281 102.796875 152.433594 C 102.796875 152.433594 102.796875 152.433594 102.769531 152.40625 C 102.742188 152.351562 102.6875 152.324219 102.660156 152.269531 C 102.632812 152.242188 102.578125 152.1875 102.550781 152.132812 C 102.523438 152.105469 102.523438 152.105469 102.496094 152.078125 C 102.46875 152.050781 102.441406 152.023438 102.441406 151.996094 C 102.414062 151.96875 102.386719 151.9375 102.386719 151.910156 C 102.328125 151.855469 102.273438 151.773438 102.246094 151.71875 C 102.109375 151.554688 102 151.359375 101.859375 151.195312 C 101.859375 151.195312 101.859375 151.195312 101.832031 151.167969 C 101.804688 151.113281 101.777344 151.085938 101.75 151.03125 C 101.75 151.03125 101.75 151.003906 101.722656 151.003906 C 101.695312 150.976562 101.667969 150.921875 101.640625 150.894531 C 101.640625 150.894531 101.613281 150.867188 101.613281 150.867188 C 101.585938 150.839844 101.558594 150.78125 101.53125 150.753906 C 101.53125 150.753906 101.53125 150.726562 101.503906 150.726562 C 101.476562 150.699219 101.421875 150.644531 101.390625 150.617188 C 100.289062 149.515625 98.746094 148.773438 97.230469 148.167969 C 96.789062 148.003906 95.382812 146.902344 94.828125 147.175781 C 94.800781 147.175781 94.800781 147.203125 94.773438 147.230469 C 94.773438 147.230469 94.773438 147.230469 94.746094 147.257812 C 94.746094 147.285156 94.71875 147.285156 94.71875 147.3125 C 94.71875 147.3125 94.71875 147.34375 94.691406 147.34375 C 94.691406 147.371094 94.664062 147.371094 94.664062 147.398438 C 94.664062 147.425781 94.664062 147.425781 94.636719 147.453125 C 94.636719 147.480469 94.636719 147.480469 94.609375 147.507812 C 94.609375 147.535156 94.609375 147.535156 94.609375 147.5625 C 94.609375 147.589844 94.609375 147.589844 94.609375 147.617188 C 94.609375 147.644531 94.609375 147.671875 94.609375 147.671875 C 94.609375 147.699219 94.609375 147.699219 94.609375 147.726562 C 94.609375 147.753906 94.609375 147.78125 94.609375 147.808594 C 94.609375 147.835938 94.609375 147.835938 94.609375 147.863281 C 94.609375 147.890625 94.609375 147.921875 94.609375 147.949219 C 94.609375 147.976562 94.609375 147.976562 94.609375 148.003906 C 94.609375 148.03125 94.609375 148.058594 94.609375 148.085938 C 94.609375 148.113281 94.609375 148.113281 94.609375 148.140625 C 94.609375 148.167969 94.609375 148.195312 94.609375 148.25 C 94.609375 148.25 94.609375 148.277344 94.609375 148.277344 C 94.609375 148.304688 94.609375 148.332031 94.609375 148.386719 C 94.609375 148.386719 94.609375 148.414062 94.609375 148.414062 C 94.609375 148.441406 94.609375 148.5 94.609375 148.527344 C 94.609375 148.527344 94.609375 148.527344 94.609375 148.554688 C 94.609375 148.582031 94.609375 148.636719 94.609375 148.664062 C 94.609375 148.691406 94.609375 148.746094 94.609375 148.773438 C 94.609375 148.855469 94.636719 148.9375 94.636719 148.992188 C 94.855469 150.371094 94.773438 152.242188 95.519531 153.535156 C 95.519531 153.535156 95.519531 153.5625 95.546875 153.5625 C 95.601562 153.671875 95.65625 153.757812 95.738281 153.839844 C 95.824219 153.949219 96.207031 154.363281 96.511719 154.746094 C 96.511719 154.773438 96.539062 154.773438 96.539062 154.800781 C 96.566406 154.828125 96.566406 154.828125 96.59375 154.859375 C 96.621094 154.886719 96.648438 154.914062 96.648438 154.941406 C 96.648438 154.941406 96.675781 154.96875 96.675781 154.96875 C 96.703125 154.996094 96.730469 155.050781 96.761719 155.078125 C 96.898438 155.269531 96.980469 155.4375 96.898438 155.519531 C 96.84375 155.574219 96.816406 155.601562 96.761719 155.628906 C 96.703125 155.65625 96.648438 155.683594 96.59375 155.738281 C 96.59375 155.738281 96.566406 155.765625 96.566406 155.765625 C 96.511719 155.792969 96.457031 155.820312 96.402344 155.847656 C 96.375 155.847656 96.375 155.875 96.347656 155.875 C 96.292969 155.902344 96.261719 155.929688 96.207031 155.929688 C 96.042969 156.015625 95.878906 156.070312 95.710938 156.179688 C 95.710938 156.179688 95.710938 156.179688 95.683594 156.179688 C 95.601562 156.207031 95.546875 156.261719 95.464844 156.289062 C 95.464844 156.289062 95.4375 156.289062 95.4375 156.316406 C 95.382812 156.34375 95.296875 156.398438 95.242188 156.453125 C 95.242188 156.453125 95.242188 156.453125 95.214844 156.480469 C 95.160156 156.535156 95.105469 156.59375 95.050781 156.648438 C 94.195312 157.5 93.449219 158.242188 92.734375 159.179688 C 91.796875 160.417969 91.191406 162.375 90.695312 163.832031 C 90.140625 165.484375 88.570312 167.027344 87.523438 168.402344 C 86.640625 169.585938 86.007812 171.15625 84.929688 172.230469 C 84.046875 173.109375 83.136719 174.074219 82.394531 175.066406 C 81.261719 176.578125 79.636719 177.816406 79.222656 179.828125 C 79.222656 179.882812 79.195312 179.964844 79.195312 180.019531 C 79.195312 180.046875 79.195312 180.046875 79.195312 180.074219 C 79.195312 180.128906 79.167969 180.210938 79.167969 180.296875 C 79.167969 180.296875 79.167969 180.296875 79.167969 180.324219 C 79.167969 180.378906 79.140625 180.460938 79.140625 180.515625 C 79.140625 180.542969 79.140625 180.542969 79.140625 180.570312 C 79.140625 180.652344 79.140625 180.707031 79.140625 180.789062 C 79.140625 180.789062 79.140625 180.816406 79.140625 180.816406 C 79.140625 180.875 79.140625 180.957031 79.140625 181.011719 C 79.140625 181.039062 79.140625 181.039062 79.140625 181.066406 C 79.140625 181.148438 79.140625 181.203125 79.140625 181.285156 C 79.140625 181.3125 79.140625 181.3125 79.140625 181.339844 C 79.140625 181.394531 79.140625 181.480469 79.140625 181.535156 C 79.140625 181.5625 79.140625 181.5625 79.140625 181.589844 C 79.140625 181.671875 79.167969 181.726562 79.167969 181.808594 C 79.167969 181.835938 79.167969 181.835938 79.167969 181.863281 C 79.167969 181.917969 79.195312 182.003906 79.195312 182.058594 C 79.195312 182.085938 79.195312 182.085938 79.195312 182.113281 C 79.195312 182.195312 79.222656 182.25 79.25 182.332031 C 79.25 182.359375 79.25 182.359375 79.25 182.386719 C 79.277344 182.441406 79.277344 182.496094 79.304688 182.582031 C 79.304688 182.609375 79.304688 182.609375 79.332031 182.636719 C 79.359375 182.71875 79.386719 182.773438 79.386719 182.855469 C 79.386719 182.882812 79.386719 182.882812 79.414062 182.910156 C 79.441406 182.964844 79.472656 183.019531 79.5 183.101562 C 79.5 183.101562 79.5 183.128906 79.527344 183.128906 C 79.554688 183.1875 79.582031 183.269531 79.609375 183.324219 C 79.609375 183.351562 79.636719 183.351562 79.636719 183.378906 C 79.664062 183.433594 79.691406 183.488281 79.746094 183.542969 C 79.746094 183.542969 79.746094 183.542969 79.746094 183.570312 C 79.773438 183.597656 79.800781 183.652344 79.828125 183.679688 C 79.828125 183.679688 79.828125 183.679688 79.855469 183.707031 C 79.855469 183.738281 79.882812 183.738281 79.882812 183.765625 C 79.882812 183.765625 79.882812 183.765625 79.882812 183.792969 C 79.910156 183.820312 79.910156 183.847656 79.941406 183.875 C 79.941406 183.875 79.941406 183.902344 79.96875 183.902344 C 79.996094 183.929688 80.023438 183.984375 80.050781 184.011719 C 80.078125 184.039062 80.078125 184.039062 80.105469 184.066406 C 80.132812 184.09375 80.160156 184.121094 80.1875 184.148438 C 80.214844 184.175781 80.214844 184.175781 80.242188 184.203125 C 80.269531 184.230469 80.296875 184.230469 80.324219 184.257812 C 80.351562 184.285156 80.351562 184.285156 80.378906 184.316406 C 80.410156 184.34375 80.4375 184.34375 80.464844 184.371094 C 80.492188 184.371094 80.519531 184.398438 80.519531 184.398438 C 80.546875 184.425781 80.574219 184.425781 80.628906 184.453125 C 80.65625 184.453125 80.65625 184.480469 80.683594 184.480469 C 80.738281 184.507812 80.792969 184.535156 80.847656 184.535156 C 81.457031 184.726562 82.171875 184.671875 82.78125 184.863281 C 83.304688 185.058594 83.910156 185.773438 84.378906 186.078125 C 85.261719 186.683594 86.75 186.65625 87.824219 186.65625 C 87.824219 186.65625 87.824219 186.65625 89.617188 187.121094 C 89.34375 186.847656 90.472656 186.515625 90.777344 186.1875 C 91.605469 185.277344 92.898438 184.480469 93.976562 184.011719 C 94.445312 183.820312 94.828125 183.378906 95.296875 183.214844 C 98.167969 182.140625 100.703125 180.433594 103.542969 179.304688 C 104.535156 178.917969 106.410156 178.945312 107.457031 179.113281 C 107.734375 179.167969 108.09375 179.414062 108.394531 179.304688 C 108.699219 179.195312 108.644531 178.503906 108.863281 178.257812 C 109.445312 177.679688 111.042969 178.699219 111.566406 178.78125 C 111.925781 178.835938 112.257812 178.808594 112.617188 178.863281 C 112.617188 178.863281 112.617188 178.863281 113.773438 179.222656 C 113.554688 178.835938 114.902344 180.707031 115.757812 180.929688 C 117.136719 181.257812 117.164062 181.78125 118.296875 182.550781 C 119.480469 183.351562 120.613281 183.046875 121.4375 184.316406 C 122.761719 186.269531 124.03125 188.390625 125.519531 190.398438 C 126.097656 191.167969 127.007812 191.582031 127.449219 192.464844 C 128.25 194.058594 128.882812 195.710938 129.683594 197.308594 C 129.738281 197.417969 129.792969 197.5 129.847656 197.613281 C 129.90625 197.695312 129.933594 197.804688 129.988281 197.886719 C 130.015625 197.914062 130.015625 197.96875 130.042969 197.996094 C 130.070312 198.078125 130.125 198.132812 130.152344 198.21875 C 130.179688 198.246094 130.179688 198.300781 130.207031 198.328125 C 130.234375 198.410156 130.289062 198.464844 130.316406 198.546875 C 130.34375 198.574219 130.34375 198.628906 130.375 198.65625 C 130.402344 198.738281 130.457031 198.824219 130.484375 198.878906 C 130.511719 198.90625 130.511719 198.933594 130.539062 198.988281 C 130.59375 199.097656 130.648438 199.207031 130.703125 199.316406 C 130.757812 199.429688 130.8125 199.539062 130.871094 199.648438 C 130.871094 199.675781 130.898438 199.703125 130.898438 199.730469 C 130.925781 199.8125 130.980469 199.894531 131.007812 199.980469 C 131.035156 200.007812 131.035156 200.0625 131.0625 200.089844 C 131.089844 200.171875 131.117188 200.253906 131.144531 200.308594 C 131.171875 200.363281 131.171875 200.390625 131.199219 200.445312 C 131.226562 200.53125 131.253906 200.613281 131.28125 200.667969 C 131.3125 200.695312 131.3125 200.75 131.339844 200.777344 C 131.367188 200.859375 131.394531 200.941406 131.421875 201.023438 C 131.421875 201.050781 131.449219 201.109375 131.449219 201.136719 C 131.476562 201.246094 131.503906 201.328125 131.53125 201.4375 C 131.53125 201.4375 131.53125 201.464844 131.53125 201.464844 C 131.558594 201.574219 131.585938 201.714844 131.613281 201.824219 C 131.613281 201.851562 131.613281 201.878906 131.613281 201.90625 C 131.667969 202.265625 131.722656 202.59375 131.722656 202.925781 C 131.722656 202.925781 131.722656 202.925781 132.109375 204.714844 C 131.28125 205.402344 131.613281 207.273438 131.28125 208.265625 C 130.289062 211.265625 129.492188 214.40625 128.582031 217.460938 C 127.808594 220.019531 125.933594 222.472656 124.582031 224.726562 C 123.894531 225.882812 123.589844 227.480469 123.230469 228.773438 C 122.542969 231.308594 123.175781 234.0625 122.789062 236.621094 C 122.433594 239.152344 121.300781 241.523438 120.941406 244.027344 C 120.417969 247.796875 119.316406 251.707031 118.101562 255.339844 C 117.136719 258.203125 116.0625 261.121094 115.179688 264.039062 C 115.152344 264.097656 115.152344 264.152344 115.125 264.179688 C 114.902344 264.867188 114.710938 265.554688 114.519531 266.242188 C 114.492188 266.324219 114.460938 266.410156 114.460938 266.492188 C 114.378906 266.820312 114.269531 267.179688 114.1875 267.507812 C 114.078125 268.003906 113 270.675781 113.773438 271.0625 C 114.324219 271.335938 115.648438 270.566406 116.199219 270.429688 C 117.054688 270.207031 118.183594 270.59375 118.984375 270.207031 C 120.03125 269.683594 120.695312 268.527344 121.054688 267.507812 C 121.21875 267.070312 121.300781 266.050781 121.632812 265.71875 C 121.796875 265.554688 122.320312 265.335938 122.488281 265.003906 C 122.542969 264.894531 122.570312 264.8125 122.625 264.703125 C 122.625 264.675781 122.652344 264.648438 122.652344 264.617188 C 122.679688 264.535156 122.707031 264.480469 122.734375 264.398438 C 122.734375 264.371094 122.761719 264.316406 122.761719 264.289062 C 122.789062 264.207031 122.816406 264.125 122.816406 264.039062 C 122.816406 264.011719 122.84375 263.984375 122.84375 263.957031 C 122.902344 263.738281 122.957031 263.519531 122.984375 263.269531 C 122.984375 263.242188 122.984375 263.214844 123.011719 263.1875 C 123.039062 263.105469 123.039062 262.996094 123.039062 262.914062 C 123.039062 262.882812 123.039062 262.855469 123.039062 262.800781 C 123.039062 262.691406 123.066406 262.609375 123.066406 262.5 C 123.066406 262.472656 123.066406 262.445312 123.066406 262.445312 C 123.09375 262.195312 123.121094 261.949219 123.121094 261.671875 C 123.121094 261.671875 123.121094 261.644531 123.121094 261.644531 C 123.148438 261.371094 123.148438 261.121094 123.175781 260.847656 C 123.175781 260.738281 123.203125 260.601562 123.203125 260.488281 C 123.203125 260.488281 123.203125 260.460938 123.203125 260.460938 C 123.230469 259.9375 123.285156 259.445312 123.371094 258.949219 C 123.671875 257.046875 124.335938 255.148438 124.941406 253.332031 C 125.246094 252.449219 125.132812 251.351562 125.382812 250.414062 C 125.742188 249.039062 126.539062 247.6875 126.734375 246.285156 C 126.898438 245.128906 127.035156 243.835938 127.3125 242.734375 C 127.589844 241.632812 128.386719 240.613281 128.664062 239.539062 C 128.96875 238.300781 129.160156 237.335938 129.738281 236.179688 C 130.539062 234.554688 131.972656 233.398438 132.660156 231.695312 C 133.242188 230.234375 133.214844 228.832031 133.515625 227.289062 C 133.847656 225.582031 135.558594 224.039062 136.441406 222.582031 C 138.09375 219.828125 139.582031 216.882812 140.796875 213.882812 C 141.375 212.394531 141.761719 210.714844 142.644531 209.394531 C 142.808594 209.144531 143.386719 208.183594 143.609375 207.6875 C 143.5 207.523438 143.5 207.523438 143.5 207.523438 C 143.746094 207.273438 143.746094 207.410156 143.609375 207.6875 C 143.691406 207.796875 143.855469 208.019531 144.132812 208.402344 C 143.96875 209.285156 144.546875 210.386719 144.820312 211.210938 C 145.347656 212.808594 145.84375 214.679688 146.035156 216.332031 C 146.558594 220.929688 145.152344 225.472656 145.816406 230.070312 C 146.503906 234.996094 149.179688 239.621094 150.75 244.300781 C 151.992188 248.046875 152.542969 252.175781 153.09375 256.058594 C 153.507812 259.03125 153.671875 262.03125 153.699219 265.03125 C 153.699219 265.664062 153.730469 266.269531 153.730469 266.902344 C 153.730469 266.902344 153.730469 266.929688 153.730469 266.929688 C 153.730469 267.566406 153.730469 268.199219 153.730469 268.832031 C 153.730469 269.738281 152.570312 272.519531 153.289062 273.207031 C 153.5625 273.484375 157.671875 273.839844 160.234375 272.878906 C 161.421875 272.410156 161.808594 269.710938 162.195312 268.695312 C 162.222656 268.609375 162.25 268.554688 162.25 268.472656 C 162.25 268.445312 162.25 268.445312 162.25 268.417969 C 162.25 268.335938 162.277344 268.28125 162.277344 268.199219 C 162.277344 268.199219 162.277344 268.171875 162.277344 268.171875 C 162.277344 268.085938 162.277344 268.003906 162.277344 267.921875 C 162.277344 267.894531 162.277344 267.867188 162.277344 267.867188 C 162.277344 267.785156 162.25 267.703125 162.25 267.648438 C 162.25 267.621094 162.25 267.621094 162.25 267.59375 C 162.222656 267.507812 162.222656 267.398438 162.195312 267.316406 C 162.195312 267.289062 162.195312 267.261719 162.167969 267.234375 C 162.140625 267.152344 162.140625 267.070312 162.113281 266.988281 C 162.113281 266.960938 162.113281 266.929688 162.082031 266.929688 C 162.054688 266.820312 162.027344 266.738281 161.972656 266.628906 C 161.972656 266.601562 161.945312 266.574219 161.945312 266.546875 C 161.917969 266.464844 161.890625 266.382812 161.863281 266.296875 C 161.863281 266.269531 161.835938 266.242188 161.835938 266.214844 C 161.808594 266.105469 161.753906 266.023438 161.699219 265.914062 C 161.699219 265.886719 161.671875 265.859375 161.671875 265.832031 C 161.640625 265.746094 161.585938 265.664062 161.558594 265.582031 C 161.53125 265.554688 161.53125 265.5 161.503906 265.472656 C 161.449219 265.363281 161.421875 265.28125 161.367188 265.167969 C 161.339844 265.140625 161.339844 265.113281 161.3125 265.085938 C 161.285156 265.003906 161.230469 264.949219 161.203125 264.867188 C 161.171875 264.8125 161.144531 264.785156 161.144531 264.730469 C 161.117188 264.675781 161.089844 264.589844 161.035156 264.535156 C 161.007812 264.453125 160.953125 264.371094 160.925781 264.289062 C 160.898438 264.234375 160.871094 264.207031 160.871094 264.152344 C 160.761719 263.902344 160.621094 263.683594 160.511719 263.433594 C 160.179688 262.773438 159.878906 262.195312 159.765625 261.757812 C 158.445312 257.101562 158.828125 255.617188 158.140625 250.828125 C 157.976562 249.585938 158.085938 248.265625 157.863281 247.054688 C 157.480469 245.15625 156.816406 243.285156 156.515625 241.355469 C 156.320312 240.117188 156.402344 238.851562 156.15625 237.640625 C 155.632812 235.050781 156.375 232.132812 156.015625 229.519531 C 155.742188 227.507812 156.652344 224.8125 156.015625 222.882812 C 155.546875 221.453125 155.578125 219.964844 155.578125 218.394531 C 155.578125 216.992188 155.988281 215.039062 155.660156 213.6875 C 155.355469 212.503906 155.660156 211.074219 155.4375 209.835938 C 155.164062 208.128906 154.777344 206.53125 154.445312 204.851562 C 154.003906 202.648438 154.722656 200.035156 154.722656 197.804688 C 154.722656 197.777344 154.75 197.75 154.75 197.722656 C 154.832031 197.75 155.078125 197.804688 156.046875 198.050781 C 155.824219 197.832031 155.90625 197.472656 156.265625 197.582031 C 157.257812 197.832031 158.359375 198.492188 159.269531 198.933594 C 159.4375 199.015625 159.738281 199.347656 159.988281 199.207031 C 160.207031 199.097656 160.179688 198.574219 160.347656 198.4375 C 160.511719 198.273438 161.203125 198.601562 161.339844 198.65625 C 162.113281 198.878906 162.882812 199.484375 163.765625 199.234375 C 164.261719 199.097656 164.621094 198.628906 165.117188 198.519531 C 166 198.355469 166.714844 199.097656 167.679688 199.015625 C 169.363281 198.851562 171.15625 198.078125 172.753906 198.078125 L 173.609375 198.464844 L 175.015625 199.097656 C 175.015625 199.042969 175.015625 199.015625 175.070312 198.960938 C 175.097656 198.933594 175.238281 199.179688 175.265625 199.179688 L 175.042969 199.070312 C 175.070312 199.261719 175.429688 199.457031 175.511719 199.511719 C 176.339844 199.925781 177.113281 200.226562 177.800781 200.859375 C 179.539062 202.429688 181.246094 203.972656 183.289062 205.128906 C 184.5 205.816406 185.90625 206.367188 187.148438 207.054688 C 187.753906 207.382812 188.167969 207.988281 188.777344 208.347656 C 189.355469 208.652344 190.042969 208.734375 190.566406 209.117188 C 191.503906 209.808594 192.527344 210.578125 193.410156 211.320312 C 193.792969 211.625 194.042969 212.175781 194.484375 212.394531 C 195.144531 213.660156 195.808594 214.925781 196.550781 216.167969 C 198.675781 219.71875 201.210938 223.050781 203.472656 226.574219 C 203.335938 227.316406 203.226562 228.03125 203.167969 228.609375 C 202.867188 231.996094 201.929688 234.832031 200.964844 238.082031 C 200.027344 241.246094 199.503906 244.523438 198.316406 247.632812 C 197.214844 250.578125 195.945312 253.359375 195.171875 256.386719 C 194.953125 257.296875 195.285156 258.257812 195.171875 259.167969 C 195.171875 259.277344 195.144531 259.386719 195.144531 259.5 C 195.144531 259.5 195.144531 259.5 195.144531 259.527344 C 195.144531 259.582031 195.144531 259.636719 195.144531 259.664062 C 195.144531 259.773438 195.117188 259.882812 195.117188 259.992188 C 195.117188 260.050781 195.117188 260.078125 195.117188 260.132812 C 195.117188 260.601562 195.117188 261.09375 195.171875 261.5625 C 195.171875 261.617188 195.171875 261.671875 195.199219 261.726562 C 195.199219 261.785156 195.226562 261.867188 195.226562 261.921875 C 195.253906 262.058594 195.253906 262.222656 195.285156 262.363281 C 195.285156 262.417969 195.3125 262.472656 195.3125 262.527344 C 195.339844 262.71875 195.394531 262.914062 195.421875 263.105469 C 195.421875 263.160156 195.449219 263.1875 195.449219 263.242188 C 195.476562 263.40625 195.53125 263.546875 195.558594 263.683594 C 195.585938 263.765625 195.585938 263.820312 195.613281 263.902344 C 195.640625 264.039062 195.695312 264.152344 195.722656 264.289062 C 195.753906 264.371094 195.78125 264.425781 195.78125 264.507812 C 195.835938 264.648438 195.890625 264.8125 195.945312 264.949219 C 195.972656 265.003906 195.972656 265.03125 196 265.085938 C 196.082031 265.253906 196.136719 265.445312 196.222656 265.609375 C 196.25 265.664062 196.277344 265.746094 196.304688 265.804688 C 196.359375 265.914062 196.414062 266.050781 196.46875 266.160156 C 196.496094 266.242188 196.550781 266.296875 196.578125 266.382812 C 196.632812 266.492188 196.691406 266.628906 196.773438 266.738281 C 196.800781 266.792969 196.828125 266.847656 196.855469 266.902344 C 196.9375 267.070312 197.046875 267.234375 197.160156 267.398438 C 197.1875 267.453125 197.214844 267.507812 197.242188 267.566406 C 197.324219 267.675781 197.40625 267.8125 197.460938 267.921875 C 197.488281 267.976562 197.542969 268.03125 197.597656 268.117188 C 197.683594 268.226562 197.765625 268.335938 197.847656 268.445312 C 197.875 268.5 197.929688 268.554688 197.957031 268.609375 C 198.070312 268.777344 198.207031 268.941406 198.316406 269.078125 C 198.976562 269.90625 199.53125 271.585938 199.886719 272.628906 C 200.082031 273.234375 200.824219 274.253906 200.824219 274.253906 C 200.824219 274.253906 201.183594 273.898438 201.265625 273.675781 C 201.460938 273.070312 201.984375 272.683594 202.203125 272.105469 C 202.425781 271.472656 202.894531 271.253906 203.195312 270.757812 C 203.75 269.851562 203.777344 268.363281 203.914062 267.34375 C 204.105469 266.050781 204.132812 262.773438 203.195312 261.867188 C 202.894531 261.5625 203.417969 259.636719 203.417969 259.304688 C 203.417969 259.113281 203.417969 258.921875 203.390625 258.726562 C 203.390625 258.671875 203.390625 258.617188 203.390625 258.5625 C 203.390625 258.398438 203.363281 258.230469 203.363281 258.066406 C 203.363281 258.039062 203.363281 258.011719 203.363281 257.984375 C 203.335938 257.792969 203.308594 257.597656 203.308594 257.40625 C 203.308594 257.351562 203.28125 257.296875 203.28125 257.242188 C 203.253906 257.074219 203.253906 256.9375 203.226562 256.773438 C 203.195312 256.554688 203.167969 256.332031 203.140625 256.113281 C 203.140625 256.085938 203.140625 256.058594 203.140625 256.03125 C 203.113281 255.863281 203.113281 255.699219 203.085938 255.535156 C 203.085938 255.480469 203.085938 255.453125 203.058594 255.398438 C 203.03125 255.203125 203.03125 255.011719 203.003906 254.789062 C 203.003906 254.761719 203.003906 254.761719 203.003906 254.734375 C 203.003906 254.542969 202.976562 254.378906 202.976562 254.183594 C 202.976562 253.496094 203.03125 252.78125 203.226562 252.09375 C 204.601562 247.304688 205.292969 242.042969 207.277344 237.417969 C 207.582031 236.703125 207.886719 235.960938 208.214844 235.21875 C 209.015625 237.171875 209.648438 239.179688 210.0625 241.191406 C 210.257812 242.15625 209.816406 243.171875 209.980469 244.164062 C 210.199219 245.457031 210.339844 247 210.117188 248.292969 C 209.761719 250.414062 210.476562 252.726562 210.117188 254.875 C 209.402344 259.25 209.648438 262.941406 209.648438 267.453125 C 209.648438 267.703125 209.621094 267.921875 209.59375 268.117188 C 209.59375 268.171875 209.566406 268.226562 209.566406 268.253906 C 209.566406 268.308594 209.539062 268.363281 209.539062 268.417969 C 209.539062 268.472656 209.511719 268.5 209.511719 268.554688 C 209.484375 268.609375 209.484375 268.664062 209.457031 268.722656 C 209.429688 268.777344 209.429688 268.804688 209.402344 268.859375 C 209.375 268.914062 209.347656 268.96875 209.347656 269.023438 C 209.320312 269.050781 209.320312 269.105469 209.292969 269.132812 C 209.261719 269.1875 209.234375 269.242188 209.207031 269.300781 C 209.179688 269.328125 209.179688 269.355469 209.152344 269.382812 C 208.988281 269.710938 208.824219 270.015625 208.628906 270.316406 C 208.628906 270.34375 208.601562 270.34375 208.601562 270.371094 C 208.574219 270.429688 208.546875 270.484375 208.519531 270.539062 C 208.492188 270.566406 208.492188 270.621094 208.464844 270.648438 C 208.4375 270.703125 208.410156 270.757812 208.382812 270.785156 C 208.355469 270.839844 208.324219 270.867188 208.324219 270.921875 C 208.296875 270.976562 208.269531 271.035156 208.269531 271.0625 C 208.242188 271.117188 208.242188 271.144531 208.214844 271.199219 C 208.1875 271.253906 208.1875 271.28125 208.160156 271.335938 C 208.132812 271.390625 208.132812 271.445312 208.105469 271.5 C 208.078125 271.554688 208.078125 271.585938 208.050781 271.640625 C 208.023438 271.695312 208.023438 271.777344 207.996094 271.832031 C 207.996094 271.886719 207.96875 271.914062 207.96875 271.96875 C 207.941406 272.078125 207.914062 272.191406 207.886719 272.300781 C 207.828125 272.574219 207.554688 275.960938 207.828125 276.210938 C 208.023438 276.402344 215.578125 276.429688 215.796875 276.210938 C 216.074219 275.933594 215.882812 275.273438 216.019531 274.914062 C 216.40625 273.730469 217.121094 271.335938 217.121094 270.125 C 217.121094 269.90625 217.121094 269.65625 217.09375 269.410156 Z M 217.09375 269.410156 " fill-opacity="1" fill-rule="nonzero"/></g><g clip-path="url(#5636288cbf)"><g clip-path="url(#048104a39e)"><path fill="#fefefe" d="M 203.5625 392.445312 L 215.292969 392.445312 L 215.292969 404.085938 L 203.5625 404.085938 Z M 203.5625 392.445312 " fill-opacity="1" fill-rule="nonzero"/></g></g></svg>