<svg xmlns="http://www.w3.org/2000/svg" xmlns:xlink="http://www.w3.org/1999/xlink" width="396" zoomAndPan="magnify" viewBox="0 0 297.12 419.249996" height="559" preserveAspectRatio="xMidYMid meet" version="1.0"><defs><g/><clipPath id="d84d47ff81"><path d="M 0 0.246094 L 296.238281 0.246094 L 296.238281 417.367188 L 0 417.367188 Z M 0 0.246094 " clip-rule="nonzero"/></clipPath><clipPath id="e9f33a9626"><path d="M 248 339.679688 L 282 339.679688 L 282 377.738281 L 248 377.738281 Z M 248 339.679688 " clip-rule="nonzero"/></clipPath><clipPath id="3129cfd763"><path d="M 19 353.511719 L 43 353.511719 L 43 380.101562 L 19 380.101562 Z M 19 353.511719 " clip-rule="nonzero"/></clipPath><clipPath id="f90b1dabd6"><path d="M 254 45.894531 L 278.914062 45.894531 L 278.914062 72.484375 L 254 72.484375 Z M 254 45.894531 " clip-rule="nonzero"/></clipPath><clipPath id="8206557ddb"><path d="M 13 45.605469 L 48 45.605469 L 48 83.660156 L 13 83.660156 Z M 13 45.605469 " clip-rule="nonzero"/></clipPath><clipPath id="e5995bcbc8"><path d="M 30.636719 45.234375 L 266.433594 45.234375 L 266.433594 380.753906 L 30.636719 380.753906 Z M 30.636719 45.234375 " clip-rule="nonzero"/></clipPath><clipPath id="e8016dd5f6"><path d="M 39.15625 92.773438 L 257 92.773438 L 257 324.839844 L 39.15625 324.839844 Z M 39.15625 92.773438 " clip-rule="nonzero"/></clipPath></defs><g clip-path="url(#d84d47ff81)"><path fill="#ffffff" d="M 0 0.246094 L 296.238281 0.246094 L 296.238281 417.367188 L 0 417.367188 Z M 0 0.246094 " fill-opacity="1" fill-rule="nonzero"/><path fill="#ffffff" d="M 0 0.246094 L 296.238281 0.246094 L 296.238281 417.367188 L 0 417.367188 Z M 0 0.246094 " fill-opacity="1" fill-rule="nonzero"/></g><g fill="#000000" fill-opacity="1"><g transform="translate(275.516084, 387.070532)"><g><path d="M -1.875 0 L -1.875 1.765625 L -5.03125 1.765625 L -5.03125 22.984375 L -1.875 22.984375 L -1.875 24.765625 L -11.546875 24.765625 L -11.546875 22.984375 L -8.390625 22.984375 L -8.390625 13.625 L -19.0625 22.984375 L -16.375 22.984375 L -16.375 24.765625 L -24.59375 24.765625 L -24.59375 22.984375 L -21.8125 22.984375 L -11.171875 13.65625 L -23.078125 1.765625 L -25.890625 1.765625 L -25.890625 0 L -20.140625 0 L -8.390625 11.765625 L -8.390625 1.765625 L -11.546875 1.765625 L -11.546875 0 Z M -1.875 0 "/></g></g></g><g clip-path="url(#e9f33a9626)"><path fill="#000000" d="M 274.449219 339.679688 C 267.652344 341.207031 266.921875 345.222656 266.410156 352.613281 C 267.589844 350.640625 269.738281 349.183594 273.242188 349.195312 C 279.003906 349.214844 282.863281 352.597656 281.492188 359.898438 C 280.105469 367.257812 269.738281 370.113281 265.023438 377.738281 C 260.3125 370.113281 249.945312 367.257812 248.558594 359.898438 C 247.1875 352.597656 250.886719 349.214844 256.808594 349.195312 C 260.3125 349.183594 262.460938 350.640625 263.640625 352.613281 C 263.128906 345.222656 262.394531 341.207031 255.597656 339.679688 Z M 274.449219 339.679688 " fill-opacity="1" fill-rule="nonzero"/></g><g fill="#000000" fill-opacity="1"><g transform="translate(38.107003, 386.622419)"><g><path d="M -1.3125 0 L -1.3125 1.234375 L -3.515625 1.234375 L -3.515625 16.0625 L -1.3125 16.0625 L -1.3125 17.296875 L -8.0625 17.296875 L -8.0625 16.0625 L -5.859375 16.0625 L -5.859375 9.515625 L -13.3125 16.0625 L -11.4375 16.0625 L -11.4375 17.296875 L -17.1875 17.296875 L -17.1875 16.0625 L -15.234375 16.0625 L -7.8125 9.53125 L -16.125 1.234375 L -18.09375 1.234375 L -18.09375 0 L -14.0625 0 L -5.859375 8.21875 L -5.859375 1.234375 L -8.0625 1.234375 L -8.0625 0 Z M -1.3125 0 "/></g></g></g><g clip-path="url(#3129cfd763)"><path fill="#000000" d="M 37.363281 353.511719 C 32.613281 354.578125 32.101562 357.382812 31.746094 362.546875 C 32.570312 361.167969 34.070312 360.148438 36.519531 360.160156 C 40.542969 360.171875 43.242188 362.535156 42.28125 367.636719 C 41.3125 372.78125 34.070312 374.773438 30.777344 380.101562 C 27.484375 374.773438 20.238281 372.78125 19.273438 367.636719 C 18.3125 362.535156 20.898438 360.171875 25.035156 360.160156 C 27.484375 360.148438 28.984375 361.167969 29.808594 362.546875 C 29.449219 357.382812 28.941406 354.578125 24.191406 353.511719 Z M 37.363281 353.511719 " fill-opacity="1" fill-rule="nonzero"/></g><g fill="#000000" fill-opacity="1"><g transform="translate(259.036358, 39.372536)"><g><path d="M 1.3125 0 L 1.3125 -1.234375 L 3.515625 -1.234375 L 3.515625 -16.0625 L 1.3125 -16.0625 L 1.3125 -17.296875 L 8.0625 -17.296875 L 8.0625 -16.0625 L 5.859375 -16.0625 L 5.859375 -9.515625 L 13.3125 -16.0625 L 11.4375 -16.0625 L 11.4375 -17.296875 L 17.1875 -17.296875 L 17.1875 -16.0625 L 15.234375 -16.0625 L 7.8125 -9.53125 L 16.125 -1.234375 L 18.09375 -1.234375 L 18.09375 0 L 14.0625 0 L 5.859375 -8.21875 L 5.859375 -1.234375 L 8.0625 -1.234375 L 8.0625 0 Z M 1.3125 0 "/></g></g></g><g clip-path="url(#f90b1dabd6)"><path fill="#000000" d="M 259.78125 72.484375 C 264.53125 71.417969 265.039062 68.609375 265.398438 63.445312 C 264.574219 64.828125 263.074219 65.84375 260.625 65.835938 C 256.597656 65.820312 253.902344 63.460938 254.863281 58.359375 C 255.828125 53.214844 263.074219 51.21875 266.367188 45.894531 C 269.660156 51.21875 276.902344 53.214844 277.871094 58.359375 C 278.832031 63.460938 276.246094 65.820312 272.109375 65.835938 C 269.660156 65.84375 268.160156 64.828125 267.332031 63.445312 C 267.691406 68.609375 268.203125 71.417969 272.953125 72.484375 Z M 259.78125 72.484375 " fill-opacity="1" fill-rule="nonzero"/></g><g fill="#000000" fill-opacity="1"><g transform="translate(19.941725, 36.271286)"><g><path d="M 1.875 0 L 1.875 -1.765625 L 5.03125 -1.765625 L 5.03125 -22.984375 L 1.875 -22.984375 L 1.875 -24.765625 L 11.546875 -24.765625 L 11.546875 -22.984375 L 8.390625 -22.984375 L 8.390625 -13.625 L 19.0625 -22.984375 L 16.375 -22.984375 L 16.375 -24.765625 L 24.59375 -24.765625 L 24.59375 -22.984375 L 21.8125 -22.984375 L 11.171875 -13.65625 L 23.078125 -1.765625 L 25.890625 -1.765625 L 25.890625 0 L 20.140625 0 L 8.390625 -11.765625 L 8.390625 -1.765625 L 11.546875 -1.765625 L 11.546875 0 Z M 1.875 0 "/></g></g></g><g clip-path="url(#8206557ddb)"><path fill="#000000" d="M 21.007812 83.660156 C 27.804688 82.136719 28.535156 78.117188 29.046875 70.726562 C 27.867188 72.703125 25.71875 74.160156 22.214844 74.144531 C 16.453125 74.125 12.59375 70.746094 13.96875 63.441406 C 15.351562 56.082031 25.71875 53.226562 30.433594 45.605469 C 35.144531 53.226562 45.511719 56.082031 46.898438 63.441406 C 48.269531 70.746094 44.570312 74.125 38.652344 74.144531 C 35.144531 74.160156 33 72.703125 31.816406 70.726562 C 32.332031 78.117188 33.0625 82.136719 39.859375 83.660156 Z M 21.007812 83.660156 " fill-opacity="1" fill-rule="nonzero"/></g><g clip-path="url(#e5995bcbc8)"><path stroke-linecap="butt" transform="matrix(0.746195, 0, 0, 0.746195, 30.637603, 45.234822)" fill="none" stroke-linejoin="miter" d="M -0.00118541 -0.000598774 L 316.102365 -0.000598774 L 316.102365 449.63974 L -0.00118541 449.63974 Z M -0.00118541 -0.000598774 " stroke="#000000" stroke-width="6" stroke-opacity="1" stroke-miterlimit="4"/></g><g clip-path="url(#e8016dd5f6)"><path fill="#000000" d="M 76.972656 119.339844 C 77.832031 117.296875 77.113281 115.085938 77.695312 113.03125 C 78.027344 111.867188 78.175781 110.558594 79.3125 109.746094 C 79.757812 109.425781 79.816406 108.84375 80.011719 108.359375 C 80.164062 107.984375 80.128906 107.390625 80.808594 107.480469 C 81.503906 107.574219 81.375 108.203125 81.242188 108.484375 C 80.773438 109.46875 81.207031 110.394531 81.273438 111.339844 C 81.425781 113.507812 81.160156 115.664062 81.074219 117.828125 C 81.035156 118.886719 81.953125 119.363281 82.71875 119.773438 C 83.210938 120.039062 83.589844 119.425781 83.992188 119.132812 C 85.433594 118.070312 86.257812 116.601562 86.886719 114.96875 C 87.179688 114.210938 87.78125 113.746094 88.632812 113.929688 C 89.457031 114.109375 89.613281 114.753906 89.675781 115.53125 C 89.714844 116.007812 89.621094 116.679688 90.15625 116.964844 C 91.082031 117.464844 91.933594 116.988281 92.742188 116.570312 C 92.855469 116.511719 92.847656 116.160156 92.847656 115.945312 C 92.847656 115.253906 93.1875 114.777344 93.835938 114.628906 C 94.488281 114.476562 95.066406 114.667969 95.382812 115.339844 C 95.660156 115.933594 95.902344 116.535156 95.894531 117.207031 C 95.890625 117.757812 96.296875 118.011719 96.710938 118.171875 C 97.148438 118.34375 97.296875 117.914062 97.472656 117.636719 C 98.449219 116.082031 99.308594 115.683594 100.355469 116.347656 C 101.324219 116.960938 100.925781 118.03125 101.089844 118.882812 C 101.210938 119.511719 101.324219 120.066406 101.71875 120.570312 C 101.878906 120.773438 101.96875 120.671875 101.984375 120.539062 C 102.191406 119.035156 103.277344 117.808594 103.464844 116.359375 C 103.664062 114.800781 105.160156 113.992188 105.347656 112.484375 C 105.394531 112.09375 105.828125 111.875 106.28125 111.992188 C 106.710938 112.101562 106.585938 112.472656 106.59375 112.761719 C 106.65625 115.164062 106.304688 117.5 105.492188 119.769531 C 105.347656 120.179688 105.6875 119.980469 105.792969 119.9375 C 106.371094 119.707031 106.96875 119.78125 107.5625 119.753906 C 108.371094 119.71875 109.152344 119.765625 109.394531 120.710938 C 109.640625 121.65625 109.039062 122.324219 108.3125 122.660156 C 106.914062 123.304688 105.675781 124.105469 104.699219 125.308594 C 104.242188 125.867188 104.503906 126.488281 104.507812 127.078125 C 104.507812 127.285156 104.75 127.042969 104.878906 126.996094 C 105.816406 126.625 106.609375 125.875 107.730469 125.976562 C 108.25 126.019531 108.65625 126.207031 108.914062 126.632812 C 109.660156 127.875 110.148438 129.164062 110.152344 130.675781 C 110.15625 133.515625 110.101562 136.3125 108.949219 138.988281 C 108.765625 139.417969 108.414062 140.261719 108.910156 140.515625 C 109.597656 140.871094 110.113281 140.214844 110.511719 139.628906 C 110.800781 139.207031 111.113281 138.800781 111.457031 138.421875 C 113.582031 136.066406 114.007812 133.09375 113.957031 130.183594 C 113.890625 126.375 113.738281 122.554688 116.074219 119.382812 C 117.074219 118.023438 118.164062 116.609375 119.414062 115.394531 C 119.664062 115.15625 120.035156 115.171875 120.269531 115.375 C 120.585938 115.648438 120.472656 116.03125 120.351562 116.394531 C 119.542969 118.800781 118.636719 121.183594 117.996094 123.636719 C 117.734375 124.625 117.800781 125.75 118.191406 126.84375 C 118.589844 127.953125 118.167969 129.226562 118.660156 130.398438 C 118.851562 130.851562 118.925781 131.386719 119.191406 131.824219 C 119.636719 132.558594 120.726562 132.25 121.316406 131.125 C 123.09375 127.734375 124.953125 124.34375 125.199219 120.417969 C 125.285156 119.039062 124.886719 117.632812 124.839844 116.234375 C 124.730469 113.195312 124.816406 110.144531 124.605469 107.113281 C 124.472656 105.183594 124.253906 103.269531 124.671875 101.375 C 124.882812 100.414062 125.328125 99.496094 125.734375 98.585938 C 126.269531 97.378906 126.859375 96.199219 127.441406 95.019531 C 127.648438 94.601562 128.128906 94.492188 128.488281 94.445312 C 129.503906 94.316406 130.203125 93.363281 131.28125 93.453125 C 131.527344 93.476562 131.761719 93.496094 131.820312 93.761719 C 131.875 93.992188 131.925781 94.261719 131.6875 94.449219 C 129.425781 96.234375 129.109375 98.867188 128.617188 101.4375 C 128.441406 102.335938 128.507812 103.234375 128.429688 104.128906 C 128.082031 108.019531 128.882812 111.726562 130.066406 115.40625 C 130.566406 116.964844 130.601562 118.652344 131.148438 120.226562 C 131.644531 121.652344 133.019531 121.671875 134.066406 122.089844 C 134.691406 122.339844 135.269531 121.441406 135.515625 120.898438 C 135.972656 119.882812 136.695312 119.191406 137.558594 118.585938 C 139.085938 117.507812 139.65625 115.820312 140.40625 114.230469 C 141.417969 112.085938 142.144531 109.839844 142.8125 107.574219 C 143.660156 104.695312 144.746094 101.898438 145.585938 99.011719 C 146.144531 97.09375 145.984375 94.953125 147.230469 93.226562 C 147.4375 92.941406 147.628906 92.839844 147.929688 92.882812 C 148.222656 92.925781 148.324219 93.117188 148.328125 93.40625 C 148.351562 94.417969 148.222656 95.375 148.957031 96.332031 C 149.558594 97.117188 148.707031 98.070312 148.546875 98.960938 C 148.128906 101.292969 147.296875 103.53125 146.9375 105.886719 C 146.710938 107.351562 146.050781 108.714844 145.847656 110.21875 C 145.550781 112.445312 145.171875 114.65625 145.222656 116.910156 C 145.234375 117.398438 147.011719 117.625 147.582031 117.34375 C 150.511719 115.910156 151.78125 113.054688 153.507812 110.582031 C 154.519531 109.128906 155.695312 107.808594 156.207031 106.03125 C 156.554688 104.816406 156.308594 103.601562 156.566406 102.386719 C 156.816406 101.21875 156.550781 99.988281 157.289062 98.851562 C 157.535156 98.46875 156.910156 97.726562 156.980469 97.0625 C 157.027344 96.613281 157.113281 96.386719 157.617188 96.386719 C 158.105469 96.386719 158.183594 96.597656 158.285156 97.039062 C 158.453125 97.769531 158.382812 98.570312 159.109375 99.171875 C 160.035156 99.941406 159.589844 101.183594 159.777344 102.195312 C 160.125 104.070312 160.394531 105.988281 160.226562 107.925781 C 160.132812 108.992188 159.957031 110.019531 159.210938 110.96875 C 159.996094 110.660156 160.691406 110.359375 161.40625 110.117188 C 162.199219 109.847656 162.878906 110.050781 163.15625 110.882812 C 163.414062 111.667969 163.128906 112.289062 162.3125 112.617188 C 161.710938 112.855469 161.125 113.125 160.609375 113.601562 C 161.523438 113.292969 162.460938 113.035156 163.347656 112.660156 C 164.28125 112.265625 165.203125 112.027344 165.910156 112.914062 C 166.449219 113.585938 166.285156 114.359375 165.511719 114.804688 C 164.535156 115.363281 163.492188 115.800781 162.503906 116.335938 C 162.007812 116.601562 161.570312 116.96875 161.117188 117.414062 C 162.257812 116.636719 163.019531 117.738281 163.953125 117.90625 C 164.648438 118.035156 164.902344 118.683594 164.785156 119.359375 C 164.671875 120.007812 164.25 120.410156 163.550781 120.429688 C 163.28125 120.4375 163.011719 120.449219 162.746094 120.425781 C 161.636719 120.335938 160.625 120.316406 160.261719 121.738281 C 160.140625 122.21875 159.523438 122.40625 159.089844 122.6875 C 156.683594 124.257812 154.554688 126.1875 152.289062 127.933594 C 150.554688 129.269531 148.527344 130.230469 146.601562 131.304688 C 142.964844 133.335938 139.148438 134.992188 135.371094 136.742188 C 135.03125 136.902344 134.6875 137.128906 134.4375 137.40625 C 133.179688 138.820312 131.242188 138.097656 129.785156 138.9375 C 127.636719 140.175781 125 140.316406 122.960938 141.761719 C 121.929688 142.488281 121.261719 143.667969 120.289062 144.535156 C 118.503906 146.117188 116.484375 147.378906 114.617188 148.839844 C 114.0625 149.277344 113.21875 149.011719 112.679688 149.535156 C 112.578125 149.636719 112.21875 149.816406 112.488281 149.886719 C 113.527344 150.152344 114.175781 151.261719 115.488281 151.035156 C 116.859375 150.800781 118.046875 151.261719 118.527344 152.792969 C 118.65625 153.207031 118.636719 153.648438 118.421875 153.917969 C 117.636719 154.902344 118.453125 155.097656 119.074219 155.148438 C 120.125 155.234375 120.925781 156.519531 122.011719 155.894531 C 122.722656 155.484375 123.332031 154.964844 124.203125 154.988281 C 124.679688 155 124.917969 155.117188 125.019531 155.714844 C 125.085938 156.101562 125.851562 155.855469 126.128906 155.714844 C 126.738281 155.40625 127.066406 155.035156 127.84375 155.675781 C 128.222656 155.988281 129.417969 155.472656 130.089844 154.941406 C 130.882812 154.3125 130.964844 154.3125 131.539062 155.09375 C 131.574219 155.140625 131.730469 155.09375 131.832031 155.097656 C 132.917969 155.117188 134.070312 154.488281 135.054688 155.511719 C 135.222656 155.683594 135.691406 155.558594 136.019531 155.574219 C 136.386719 155.589844 136.71875 155.726562 136.683594 156.132812 C 136.617188 156.972656 137.164062 156.714844 137.507812 156.570312 C 138.058594 156.339844 138.472656 155.832031 139.042969 156.6875 C 139.292969 157.0625 140.015625 156.578125 140.507812 156.445312 C 140.847656 156.351562 141.234375 156.429688 141.199219 156.683594 C 141.089844 157.40625 141.433594 157.570312 142.125 157.503906 C 141.828125 157.859375 141.210938 157.574219 141.277344 157.980469 C 141.34375 158.367188 141.898438 158.210938 142.210938 158.332031 C 143.246094 158.734375 144.253906 159.03125 145.394531 158.734375 C 145.757812 158.636719 145.953125 159.140625 145.871094 159.511719 C 145.570312 160.894531 146.644531 160.226562 147.019531 160.175781 C 147.679688 160.089844 148.207031 159.832031 148.171875 160.871094 C 148.167969 160.988281 148.855469 161.121094 149.214844 161.261719 C 149.351562 161.316406 149.605469 161.289062 149.546875 161.53125 C 149.523438 161.617188 149.328125 161.710938 149.207031 161.714844 C 148.953125 161.722656 148.761719 161.886719 148.789062 162.066406 C 148.820312 162.289062 149.058594 162.390625 149.320312 162.390625 C 150.097656 162.386719 150.878906 162.378906 151.652344 162.429688 C 151.824219 162.441406 152.175781 162.394531 152.183594 162.722656 C 152.191406 163.011719 151.921875 163.117188 151.703125 163.226562 C 151.441406 163.359375 151.175781 163.480469 150.585938 163.757812 C 152.289062 163.65625 153.640625 164.039062 154.988281 163.609375 C 155.296875 163.511719 155.5625 163.621094 155.675781 163.960938 C 155.820312 164.394531 155.46875 164.5625 155.191406 164.6875 C 154.90625 164.816406 154.566406 164.832031 154.222656 164.902344 C 154.375 165.167969 154.519531 165.382812 154.921875 165.160156 C 155.066406 165.078125 155.433594 165.113281 155.496094 165.214844 C 156.203125 166.386719 157.847656 166.363281 158.472656 167.800781 C 159.015625 169.039062 160.539062 169.394531 161.726562 170.03125 C 164.601562 171.570312 167.835938 171.546875 170.894531 172.285156 C 175.507812 173.402344 180.191406 173.703125 184.941406 173.054688 C 186.484375 172.847656 188.089844 173.15625 189.667969 173.203125 C 190.464844 173.226562 191.246094 173.230469 192.027344 172.917969 C 193.65625 172.265625 195.375 172.21875 197.117188 172.21875 C 201.089844 172.21875 205.101562 171.726562 209.003906 172.671875 C 211.851562 173.359375 214.863281 173.355469 217.574219 174.429688 C 219.960938 175.378906 222.4375 176.066406 224.792969 177.109375 C 226.640625 177.925781 228.597656 178.507812 230.355469 179.527344 C 231.34375 180.101562 232.457031 180.5 233.367188 181.128906 C 235.359375 182.503906 236.722656 184.464844 237.28125 186.863281 C 237.449219 187.589844 237.015625 188.238281 236.394531 188.644531 C 235.703125 189.09375 234.957031 189.054688 234.234375 188.660156 C 234.136719 188.605469 233.988281 188.503906 233.933594 188.535156 C 233.742188 188.65625 233.941406 188.765625 233.976562 188.890625 C 234.640625 191.277344 235.25 193.683594 236.546875 195.832031 C 237.410156 197.261719 238.269531 198.667969 238.746094 200.3125 C 239.300781 202.234375 238.988281 204.113281 238.808594 205.996094 C 238.535156 208.875 237.734375 211.664062 236.613281 214.300781 C 234.652344 218.910156 235.335938 223.605469 235.726562 228.332031 C 235.957031 231.148438 236.875 233.742188 238.183594 236.183594 C 238.925781 237.570312 240.226562 238.597656 241.070312 239.984375 C 242.015625 241.535156 242.464844 243.285156 243.394531 244.84375 C 244.5625 246.8125 245.328125 249.019531 247.105469 250.605469 C 248.203125 251.582031 248.449219 252.878906 248.121094 254.21875 C 247.757812 255.707031 248.105469 257.058594 248.597656 258.417969 C 249.007812 259.5625 248.753906 260.742188 248.808594 261.902344 C 248.832031 262.382812 248.898438 262.804688 249.132812 263.25 C 249.820312 264.570312 250.082031 266.042969 250.152344 267.5 C 250.261719 269.742188 250.210938 271.992188 250.171875 274.238281 C 250.132812 276.777344 250.804688 279.167969 251.589844 281.535156 C 251.914062 282.511719 251.667969 283.527344 251.929688 284.523438 C 252.640625 287.242188 253.445312 289.980469 253.265625 292.820312 C 253.101562 295.371094 253.285156 297.890625 253.523438 300.414062 C 253.570312 300.898438 253.828125 301.378906 254.050781 301.832031 C 254.863281 303.503906 254.5 305.296875 254.699219 307.035156 C 254.785156 307.777344 255.621094 308.464844 256.195312 309.109375 C 256.914062 309.921875 257.042969 310.792969 256.433594 311.632812 C 255.796875 312.511719 254.875 312.808594 253.828125 312.324219 C 253.539062 312.1875 253.304688 312.234375 253.207031 312.484375 C 252.859375 313.375 252.417969 314.214844 252.265625 315.203125 C 252.113281 316.195312 251.386719 316.996094 250.785156 317.796875 C 249.121094 320.019531 246.625 321.113281 244.3125 322.433594 C 243.128906 323.109375 241.714844 322.222656 241.511719 320.789062 C 241.417969 320.132812 241.070312 320.019531 240.519531 320.265625 C 239.484375 320.726562 238.582031 320.5 237.960938 319.597656 C 237.375 318.734375 237.484375 317.851562 238.25 317.082031 C 239.867188 315.464844 241.730469 314.1875 243.746094 313.121094 C 243.902344 313.039062 244.019531 313.003906 244.03125 312.796875 C 244.144531 310.535156 245.242188 308.53125 245.710938 306.371094 C 246.113281 304.523438 246.347656 302.621094 246.445312 300.730469 C 246.566406 298.34375 246.871094 295.929688 246.027344 293.574219 C 245.511719 292.125 245.648438 290.550781 245.859375 289.101562 C 246.1875 286.820312 245.722656 284.652344 245.457031 282.445312 C 245.238281 280.601562 245.316406 278.625 244.644531 276.953125 C 243.867188 275.023438 243.574219 272.871094 242.128906 271.167969 C 241.195312 270.070312 240.769531 268.53125 239.71875 267.511719 C 238.421875 266.253906 237.78125 264.628906 237.402344 263.046875 C 236.871094 260.816406 235.691406 259.050781 234.378906 257.308594 C 232.882812 255.320312 231.496094 253.199219 229.726562 251.480469 C 228.296875 250.089844 227.238281 248.417969 225.78125 247.066406 C 224.589844 245.960938 223.570312 244.773438 222.984375 243.089844 C 221.988281 240.210938 220.371094 237.59375 218.394531 235.222656 C 217.765625 234.46875 216.980469 233.933594 216.296875 233.304688 C 215.542969 232.613281 214.65625 232.789062 214.027344 232.359375 C 213.265625 231.835938 212.570312 231.167969 211.8125 230.601562 C 211.367188 230.265625 211.128906 230.21875 210.785156 230.78125 C 209.773438 232.449219 208.464844 233.976562 207.691406 235.742188 C 207.183594 236.90625 206.71875 238.261719 206.941406 239.671875 C 206.996094 240.015625 206.742188 240.398438 206.707031 240.769531 C 206.480469 243.140625 206.816406 245.503906 207.144531 247.820312 C 207.707031 251.769531 207.570312 255.640625 206.871094 259.542969 C 206.722656 260.367188 207.007812 261.339844 207.121094 262.21875 C 207.347656 263.953125 208.082031 265.867188 206.738281 267.566406 C 205.382812 269.28125 204.890625 271.46875 203.710938 273.285156 C 203.367188 273.820312 203.007812 274.335938 202.863281 274.980469 C 202.800781 275.25 202.714844 275.417969 203.070312 275.398438 C 203.054688 275.710938 202.101562 275.25 202.695312 275.980469 C 202.785156 276.09375 202.6875 276.566406 202.550781 276.632812 C 201.183594 277.335938 201.585938 278.847656 201.011719 279.902344 C 200.726562 280.425781 200.460938 280.988281 200.335938 281.566406 C 200.070312 282.808594 199.507812 283.941406 199.214844 285.183594 C 198.691406 287.402344 197.828125 289.542969 197.277344 291.757812 C 196.789062 293.730469 196.476562 295.757812 196.195312 297.773438 C 196.019531 299.003906 194.984375 299.75 194.675781 300.890625 C 194.496094 301.554688 194.152344 302.175781 193.875 302.808594 C 193.703125 303.195312 194.046875 303.378906 194.199219 303.632812 C 194.0625 303.851562 193.800781 303.371094 193.722656 303.730469 C 193.691406 303.859375 193.4375 304.140625 193.878906 304.070312 C 193.835938 304.175781 193.800781 304.363281 193.746094 304.367188 C 193.273438 304.421875 193.285156 304.78125 193.269531 305.105469 C 193.15625 307.523438 192.253906 309.734375 191.398438 311.941406 C 191.117188 312.664062 191.058594 313.308594 191.234375 314.023438 C 191.703125 315.898438 191.132812 317.03125 189.339844 317.488281 C 188.359375 317.742188 187.675781 317.230469 187.398438 316.238281 C 187.359375 316.09375 187.304688 315.953125 187.257812 315.8125 C 187.140625 315.917969 187.015625 316.015625 186.910156 316.132812 C 185.640625 317.523438 184.9375 319.421875 182.886719 320.097656 C 181.210938 320.648438 179.472656 321.164062 178.097656 322.378906 C 177.371094 323.019531 176.769531 323.871094 175.578125 323.539062 C 175.015625 323.386719 174.472656 323.085938 174.359375 322.597656 C 174 321.0625 172.746094 321.484375 171.863281 321.496094 C 170.476562 321.515625 169.382812 320.386719 169.632812 319.015625 C 169.824219 317.957031 170.125 317.25 171.414062 317.351562 C 171.980469 317.394531 172.546875 317.0625 173 316.636719 C 174.058594 315.652344 175.480469 315.425781 176.734375 314.839844 C 177.417969 314.519531 178.011719 314 178.625 313.542969 C 180.050781 312.476562 181.207031 311.09375 182.535156 309.960938 C 184.230469 308.511719 184.539062 306.402344 185.699219 304.726562 C 186.398438 303.714844 186.957031 302.433594 187.640625 301.308594 C 187.769531 301.097656 187.609375 300.839844 187.609375 300.617188 C 187.625 298.367188 189.082031 296.664062 189.816406 294.703125 C 191.269531 290.820312 191.605469 286.753906 192.199219 282.722656 C 192.605469 279.976562 192.96875 277.210938 194.089844 274.625 C 194.613281 273.414062 193.71875 272.390625 193.601562 271.261719 C 193.558594 270.839844 193.359375 270.425781 193.355469 270.011719 C 193.328125 266.46875 193.4375 262.921875 193.285156 259.386719 C 193.207031 257.632812 192.59375 255.90625 192.363281 254.152344 C 192.039062 251.667969 191.867188 249.164062 191.585938 246.671875 C 191.296875 244.101562 191.351562 241.503906 190.980469 238.933594 C 190.875 238.183594 190.722656 237.414062 190.695312 236.644531 C 190.6875 236.414062 190.484375 236.445312 190.378906 236.519531 C 187.621094 238.4375 184.246094 239.125 181.460938 241.039062 C 180.085938 241.980469 178.332031 242.195312 176.65625 242.417969 C 175.300781 242.601562 173.929688 242.695312 172.640625 243.21875 C 171.578125 243.648438 170.433594 243.734375 169.316406 243.761719 C 165.863281 243.839844 162.402344 243.804688 158.960938 243.402344 C 158.597656 243.359375 158.535156 243.554688 158.566406 243.839844 C 158.789062 246.03125 158.28125 248.1875 158.054688 250.328125 C 157.875 252.078125 157.9375 253.820312 157.792969 255.558594 C 157.679688 256.875 157.753906 258.191406 158.160156 259.507812 C 158.703125 261.261719 158.984375 263.097656 158.949219 264.949219 C 158.910156 266.914062 159.738281 268.746094 159.738281 270.707031 C 159.738281 273.324219 160.441406 275.859375 160.730469 278.4375 C 160.957031 280.433594 161.636719 282.363281 161.652344 284.355469 C 161.679688 287.914062 162.824219 291.0625 164.648438 294.039062 C 165.75 295.835938 165.996094 297.929688 166.660156 299.875 C 167.46875 302.234375 167.160156 304.898438 168.441406 307.085938 C 169.5 308.902344 169.378906 311.207031 171.0625 312.757812 C 171.824219 313.460938 171.230469 315.941406 170.421875 316.214844 C 169.804688 316.425781 169.414062 315.914062 169.007812 315.707031 C 167.824219 315.101562 167.5 316.109375 167.003906 316.652344 C 166.339844 317.386719 166.6875 318.671875 165.695312 319.277344 C 166.332031 320.160156 165.636719 320.871094 165.386719 321.640625 C 165.347656 321.757812 165.210938 321.960938 165.203125 321.957031 C 164.515625 321.621094 164.128906 322.332031 163.691406 322.40625 C 162.421875 322.617188 161.3125 323.382812 160.007812 323.378906 C 159.421875 323.375 158.949219 323.609375 158.445312 323.933594 C 157.734375 324.390625 156.9375 324.296875 156.28125 323.71875 C 155.691406 323.199219 155.148438 323.289062 154.535156 323.664062 C 153.710938 324.164062 152.878906 324.152344 152.148438 323.488281 C 151.007812 322.453125 151.042969 321.519531 152.285156 320.300781 C 153.175781 319.429688 154.113281 318.597656 155.027344 317.746094 C 155.402344 317.398438 155.738281 317.050781 155.832031 316.488281 C 155.964844 315.6875 156.5 315.152344 157.3125 315.046875 C 158.9375 314.835938 159.472656 313.59375 160.128906 312.359375 C 160.992188 310.738281 160.488281 309.136719 160.34375 307.507812 C 160.109375 304.828125 159.371094 302.234375 159.132812 299.539062 C 159.003906 298.054688 158.59375 296.488281 158.171875 294.984375 C 157.503906 292.621094 157.066406 290.183594 156.304688 287.851562 C 155.699219 285.984375 155.242188 284.007812 153.980469 282.417969 C 152.648438 280.742188 151.324219 279.078125 150.113281 277.300781 C 148.71875 275.25 148.476562 272.988281 148.152344 270.730469 C 147.613281 266.992188 146.796875 263.324219 145.941406 259.65625 C 145.277344 256.796875 144.875 253.867188 143.523438 251.230469 C 142.316406 248.878906 141.09375 246.539062 139.613281 244.332031 C 138.703125 242.972656 137.941406 241.464844 137.371094 239.929688 C 136.589844 237.835938 136.703125 237.929688 134.515625 238.105469 C 132.746094 238.253906 132.917969 239.5 132.859375 240.546875 C 132.753906 242.457031 132.828125 244.378906 132.832031 246.296875 C 132.832031 248.203125 132.832031 250.097656 132.246094 251.949219 C 131.671875 253.765625 131.875 255.65625 131.84375 257.523438 C 131.800781 260.234375 131.40625 262.824219 130.230469 265.363281 C 129.601562 266.726562 129.71875 268.5 129.746094 270.085938 C 129.800781 273.417969 128.800781 276.511719 127.761719 279.589844 C 127.464844 280.464844 126.648438 281.171875 126.042969 281.929688 C 124.933594 283.328125 124.433594 284.953125 124.453125 286.6875 C 124.484375 289.671875 124.152344 292.582031 123.554688 295.519531 C 123.070312 297.902344 123.269531 300.441406 123.257812 302.871094 C 123.25 304.417969 123.160156 305.929688 122.960938 307.445312 C 122.589844 310.261719 122.691406 313.089844 122.691406 315.914062 C 122.691406 316.542969 122.816406 317.171875 122.894531 317.800781 C 123.058594 319.144531 122.28125 319.976562 121.214844 320.464844 C 120.558594 320.761719 119.859375 320.179688 119.53125 319.679688 C 118.480469 318.078125 117.574219 319.007812 116.738281 319.785156 C 116.289062 320.207031 116.027344 320.851562 115.738281 321.421875 C 115.550781 321.789062 116.128906 321.628906 116.140625 321.925781 C 115.917969 321.910156 115.636719 321.789062 115.515625 322.078125 C 115.410156 322.328125 115.617188 322.394531 115.804688 322.488281 C 115.867188 322.519531 115.886719 322.796875 115.824219 322.875 C 115.683594 323.046875 115.652344 322.839844 115.59375 322.753906 C 114.839844 323.421875 113.824219 322.761719 112.964844 323.304688 C 112.589844 323.542969 111.839844 324.027344 111.222656 323.445312 C 111.039062 323.273438 111 323.480469 110.921875 323.542969 C 109.367188 324.730469 107.574219 324.773438 105.925781 323.6875 C 105.445312 323.367188 104.992188 323.621094 104.597656 323.921875 C 103.765625 324.550781 102.886719 324.621094 102.128906 323.925781 C 101.40625 323.265625 100.96875 322.507812 101.589844 321.402344 C 102.457031 319.851562 104.007812 319.28125 105.332031 318.34375 C 106.988281 317.171875 109.199219 316.851562 110.570312 315.503906 C 112.183594 313.917969 114.105469 312.457031 114.550781 309.832031 C 114.917969 307.671875 115.902344 305.605469 116.679688 303.523438 C 116.976562 302.726562 116.832031 301.917969 116.96875 301.132812 C 117.351562 298.953125 117.847656 296.792969 118.191406 294.605469 C 118.554688 292.289062 119.25 289.894531 118.964844 287.640625 C 118.621094 284.941406 118.578125 282.191406 117.992188 279.523438 C 117.382812 276.765625 117.78125 274.089844 118.664062 271.492188 C 118.988281 270.539062 119.28125 269.597656 119.253906 268.628906 C 119.183594 265.917969 119.667969 263.171875 118.703125 260.511719 C 117.410156 256.933594 116.996094 253.109375 115.722656 249.535156 C 114.636719 246.480469 114.691406 243.417969 114.945312 240.273438 C 115.039062 239.097656 114.472656 237.878906 114.496094 236.683594 C 114.523438 235.339844 113.640625 234.816406 112.773438 234.242188 C 111.210938 233.207031 109.9375 231.90625 108.902344 230.351562 C 108.757812 230.136719 108.5625 229.902344 108.335938 229.808594 C 106.375 228.980469 106.652344 227.164062 106.421875 225.570312 C 106.308594 224.78125 106.054688 224.144531 105.296875 223.664062 C 104.707031 223.285156 104.238281 222.640625 103.867188 222.023438 C 102.753906 220.195312 101.289062 218.722656 99.695312 217.308594 C 98.125 215.910156 97.296875 214.148438 97.359375 211.871094 C 97.398438 210.328125 97.09375 208.707031 96.578125 207.179688 C 96.492188 206.917969 96.429688 206.933594 96.210938 207.007812 C 94.972656 207.421875 93.714844 206.808594 93.296875 205.554688 C 93.191406 205.25 93.046875 205.0625 92.765625 204.9375 C 91.175781 204.246094 90.382812 202.957031 90.023438 201.324219 C 89.933594 200.910156 89.738281 200.609375 89.242188 200.414062 C 88.050781 199.949219 87.617188 198.921875 87.675781 197.695312 C 87.699219 197.148438 87.804688 196.738281 87.0625 196.472656 C 86.382812 196.234375 86.4375 195.394531 86.34375 194.75 C 86.308594 194.53125 86.320312 194.203125 86.066406 194.207031 C 85.757812 194.214844 85.875 194.554688 85.855469 194.757812 C 85.5625 197.769531 86.117188 200.851562 85.148438 203.800781 C 84.75 205.019531 84.199219 206.191406 82.9375 206.761719 C 82.503906 206.957031 82.753906 207.355469 82.476562 207.609375 C 81.753906 208.261719 81 207.75 80.300781 207.714844 C 79.136719 207.65625 78.347656 206.785156 77.464844 206.082031 C 76.621094 205.40625 76.683594 204.585938 76.515625 203.730469 C 76.238281 202.359375 75.152344 201.164062 75.523438 199.664062 C 75.890625 198.167969 76.03125 196.664062 75.988281 195.132812 C 75.964844 194.398438 75.882812 193.828125 74.941406 193.558594 C 72.902344 192.976562 71.046875 191.953125 69.332031 190.699219 C 68.332031 189.96875 68.117188 188.734375 67.527344 187.738281 C 66.671875 186.296875 66.5 184.550781 65.398438 183.191406 C 64.796875 182.445312 64.65625 181.40625 63.886719 180.675781 C 62.703125 179.550781 61.253906 179.121094 59.71875 179.847656 C 58.457031 180.449219 57.320312 181.3125 56.351562 182.296875 C 54.816406 183.859375 53.277344 183.738281 52.015625 181.933594 C 51.617188 181.359375 51.160156 180.804688 50.050781 180.960938 C 48.234375 181.214844 46.199219 181.578125 44.835938 179.589844 C 44.496094 179.09375 43.921875 179.671875 43.515625 179.832031 C 41.15625 180.78125 39.15625 179.417969 39.351562 176.957031 C 39.40625 176.296875 39.710938 175.734375 40.039062 175.195312 C 41.042969 173.554688 40.628906 171.621094 41.167969 169.898438 C 42.371094 166.066406 43.980469 162.425781 47.488281 160.113281 C 49.011719 159.109375 50.777344 158.476562 52.40625 157.625 C 52.949219 157.339844 53.410156 156.894531 53.917969 156.53125 C 54.910156 155.820312 56.109375 156.035156 57.203125 155.90625 C 60.96875 155.464844 64.761719 155.230469 68.519531 154.730469 C 69.15625 154.648438 70.035156 154.535156 70.617188 153.925781 C 70.933594 153.59375 71.421875 153.511719 71.882812 153.550781 C 73.558594 153.691406 74.410156 152.269531 75.648438 151.585938 C 75.699219 151.558594 75.703125 151.449219 75.726562 151.375 C 75.613281 151.351562 75.496094 151.328125 75.378906 151.300781 C 73 150.695312 70.492188 150.835938 68.148438 150.050781 C 67.429688 149.808594 66.804688 149.511719 65.972656 149.816406 C 64.671875 150.289062 63.84375 148.882812 62.671875 148.765625 C 59.484375 148.441406 56.496094 147.082031 53.226562 147.082031 C 50.296875 147.085938 48.226562 145.257812 46.226562 143.34375 C 44.398438 141.589844 42.675781 139.800781 41.644531 137.425781 C 41.183594 136.355469 41.082031 135.242188 41.046875 134.136719 C 40.960938 131.304688 40.632812 128.40625 42.144531 125.789062 C 42.863281 124.542969 42.421875 123.175781 42.710938 121.878906 C 42.957031 120.769531 43.964844 120.085938 44.097656 119.003906 C 44.242188 117.824219 44.898438 118.101562 45.523438 118.445312 C 45.964844 118.6875 45.925781 119.265625 45.632812 119.511719 C 45.070312 119.976562 45.113281 120.4375 45.171875 121.085938 C 45.3125 122.636719 45.234375 124.199219 44.933594 125.734375 C 44.886719 125.972656 44.820312 126.21875 44.824219 126.457031 C 44.832031 127.929688 44.847656 129.398438 44.429688 130.839844 C 44.121094 131.898438 44.925781 132.738281 45.09375 133.714844 C 45.441406 135.765625 46.738281 137.289062 48.316406 138.417969 C 49.566406 139.3125 51.144531 139.746094 52.585938 140.371094 C 52.652344 140.398438 52.847656 140.324219 52.847656 140.296875 C 52.847656 140.179688 52.835938 140.03125 52.761719 139.949219 C 52.144531 139.25 51.71875 138.371094 50.765625 138 C 50.308594 137.820312 50.105469 137.351562 49.804688 136.996094 C 46.757812 133.414062 46.789062 129.207031 47.199219 124.878906 C 47.328125 123.523438 48.082031 122.40625 48.304688 121.105469 C 48.410156 120.476562 48.992188 120.238281 49.605469 120.34375 C 50.285156 120.464844 50.675781 120.996094 50.644531 121.617188 C 50.476562 125.183594 51.253906 128.59375 52.210938 131.988281 C 52.390625 132.632812 52.886719 132.777344 53.359375 133.046875 C 54.121094 133.480469 54.855469 133.96875 55.597656 134.441406 C 55.941406 134.660156 56.257812 134.6875 56.621094 134.441406 C 57 134.183594 57.023438 133.8125 57.058594 133.433594 C 57.074219 133.273438 57.019531 133.097656 57.070312 132.960938 C 57.734375 131.136719 57.410156 129.585938 55.878906 128.308594 C 54.449219 127.109375 53.863281 125.414062 53.386719 123.699219 C 52.75 121.417969 51.484375 119.285156 51.71875 116.792969 C 51.808594 115.859375 51.863281 114.921875 51.921875 113.984375 C 51.941406 113.644531 52.140625 113.449219 52.4375 113.527344 C 52.839844 113.632812 53.371094 113.558594 53.558594 114.074219 C 53.976562 115.210938 54.074219 116.625 54.828125 117.4375 C 56.316406 119.046875 56.59375 121.132812 57.5625 122.921875 C 57.605469 123.003906 57.683594 123.070312 57.746094 123.144531 C 57.816406 123.054688 57.90625 122.972656 57.960938 122.875 C 58.402344 122.0625 58.320312 121.132812 58.546875 120.269531 C 58.785156 119.386719 59.023438 118.445312 60.203125 118.597656 C 61.253906 118.734375 61.546875 119.496094 61.601562 120.511719 C 61.730469 122.800781 61.289062 125.042969 61.195312 127.3125 C 61.183594 127.601562 61.171875 127.839844 61.550781 127.984375 C 62.679688 128.429688 63.933594 128.660156 64.894531 128.015625 C 65.492188 127.613281 66.25 126.9375 66.34375 125.980469 C 66.558594 123.886719 65.695312 121.980469 65.371094 119.988281 C 65.089844 118.261719 64.339844 116.351562 65.707031 114.652344 C 65.941406 114.363281 65.574219 113.625 66.359375 113.734375 C 67.007812 113.824219 66.832031 114.476562 67.070312 114.839844 C 68.328125 116.757812 68.050781 119.027344 68.644531 121.082031 C 68.859375 121.839844 69.371094 122.566406 70.085938 123.007812 C 70.941406 123.535156 71.632812 124.195312 72.121094 125.070312 C 72.53125 125.796875 72.890625 125.121094 73.242188 125.019531 C 74.933594 124.515625 75.128906 123.964844 74.480469 122.359375 C 73.5625 120.101562 73.460938 117.707031 73.605469 115.3125 C 73.652344 114.578125 74.265625 114.246094 75.003906 114.308594 C 75.746094 114.371094 76.097656 114.824219 76.207031 115.554688 C 76.402344 116.824219 76.1875 118.183594 76.972656 119.339844 Z M 94.824219 139.804688 C 94.585938 137.839844 95.089844 136.019531 96.277344 134.574219 C 97.421875 133.175781 97.828125 131.628906 98.070312 129.929688 C 97.847656 130.023438 97.617188 130.074219 97.4375 130.199219 C 96.265625 131.027344 95.011719 131.679688 93.601562 131.992188 C 92.433594 132.253906 92.167969 132.902344 92.554688 134.015625 C 92.957031 135.183594 93.199219 136.394531 93.421875 137.621094 C 93.550781 138.34375 93.707031 139.421875 94.824219 139.804688 Z M 81.984375 145.714844 C 80.761719 144.25 79.316406 143.019531 79.082031 140.976562 C 79.007812 140.308594 78.625 139.675781 78.382812 139.027344 C 77.84375 139.296875 77.597656 139.839844 77.234375 140.277344 C 77.207031 140.308594 77.160156 140.328125 77.148438 140.363281 C 76.875 141.148438 75.761719 141.902344 76.542969 142.714844 C 77.332031 143.539062 78.488281 144.015625 78.378906 145.425781 C 78.375 145.449219 78.429688 145.488281 78.464844 145.503906 C 79.625 145.980469 80.800781 146.160156 81.984375 145.714844 Z M 81.984375 145.714844 " fill-opacity="1" fill-rule="nonzero"/></g></svg>