<svg xmlns="http://www.w3.org/2000/svg" xmlns:xlink="http://www.w3.org/1999/xlink" width="396" zoomAndPan="magnify" viewBox="0 0 297.12 419.249996" height="559" preserveAspectRatio="xMidYMid meet" version="1.0"><defs><g/><clipPath id="db59bcf600"><path d="M 0 0.246094 L 296.238281 0.246094 L 296.238281 417.367188 L 0 417.367188 Z M 0 0.246094 " clip-rule="nonzero"/></clipPath><clipPath id="5cd59312e8"><path d="M 249 339.679688 L 283 339.679688 L 283 377.738281 L 249 377.738281 Z M 249 339.679688 " clip-rule="nonzero"/></clipPath><clipPath id="9f0c8c99f2"><path d="M 19 353.511719 L 43 353.511719 L 43 380.101562 L 19 380.101562 Z M 19 353.511719 " clip-rule="nonzero"/></clipPath><clipPath id="82369327e2"><path d="M 254 45.894531 L 278.914062 45.894531 L 278.914062 72.484375 L 254 72.484375 Z M 254 45.894531 " clip-rule="nonzero"/></clipPath><clipPath id="a97a7ca764"><path d="M 13 46.167969 L 48 46.167969 L 48 84.226562 L 13 84.226562 Z M 13 46.167969 " clip-rule="nonzero"/></clipPath><clipPath id="6371fc91f1"><path d="M 30.636719 45.234375 L 266.433594 45.234375 L 266.433594 380.753906 L 30.636719 380.753906 Z M 30.636719 45.234375 " clip-rule="nonzero"/></clipPath><clipPath id="6f34b96c85"><path d="M 83.6875 328.421875 L 101.492188 328.421875 L 101.492188 342.148438 L 83.6875 342.148438 Z M 83.6875 328.421875 " clip-rule="nonzero"/></clipPath><clipPath id="be2456e83f"><path d="M 83.6875 208.320312 L 101.492188 208.320312 L 101.492188 222.046875 L 83.6875 222.046875 Z M 83.6875 208.320312 " clip-rule="nonzero"/></clipPath></defs><g clip-path="url(#db59bcf600)"><path fill="#ffffff" d="M 0 0.246094 L 296.238281 0.246094 L 296.238281 417.367188 L 0 417.367188 Z M 0 0.246094 " fill-opacity="1" fill-rule="nonzero"/><path fill="#ffffff" d="M 0 0.246094 L 296.238281 0.246094 L 296.238281 417.367188 L 0 417.367188 Z M 0 0.246094 " fill-opacity="1" fill-rule="nonzero"/></g><g fill="#000000" fill-opacity="1"><g transform="translate(276.362163, 387.070556)"><g><path d="M -11.859375 8.390625 L -11.859375 21.5625 L -3.40625 8.390625 Z M -19.15625 0 L -7.875 0 L -7.875 1.765625 L -11.859375 1.765625 L -11.859375 6.625 L -1.046875 6.625 L -1.046875 8.421875 L -11.890625 25.21875 L -15.171875 25.21875 L -15.171875 8.390625 L -19.90625 8.390625 L -19.90625 6.625 L -15.171875 6.625 L -15.171875 1.765625 L -19.15625 1.765625 Z M -19.15625 0 "/></g></g></g><g clip-path="url(#5cd59312e8)"><path fill="#000000" d="M 275.296875 339.679688 C 268.5 341.207031 267.769531 345.222656 267.253906 352.613281 C 268.4375 350.640625 270.585938 349.183594 274.089844 349.195312 C 279.851562 349.214844 283.710938 352.597656 282.335938 359.898438 C 280.953125 367.257812 270.582031 370.113281 265.871094 377.738281 C 261.160156 370.113281 250.789062 367.257812 249.40625 359.898438 C 248.03125 352.597656 251.734375 349.214844 257.652344 349.195312 C 261.15625 349.183594 263.304688 350.640625 264.488281 352.613281 C 263.972656 345.222656 263.242188 341.207031 256.445312 339.679688 Z M 275.296875 339.679688 " fill-opacity="1" fill-rule="nonzero"/></g><g fill="#000000" fill-opacity="1"><g transform="translate(38.107003, 386.622491)"><g><path d="M -8.28125 5.859375 L -8.28125 15.0625 L -2.375 5.859375 Z M -13.390625 0 L -5.5 0 L -5.5 1.234375 L -8.28125 1.234375 L -8.28125 4.625 L -0.734375 4.625 L -0.734375 5.890625 L -8.3125 17.609375 L -10.609375 17.609375 L -10.609375 5.859375 L -13.90625 5.859375 L -13.90625 4.625 L -10.609375 4.625 L -10.609375 1.234375 L -13.390625 1.234375 Z M -13.390625 0 "/></g></g></g><g clip-path="url(#9f0c8c99f2)"><path fill="#000000" d="M 37.363281 353.511719 C 32.613281 354.578125 32.101562 357.382812 31.746094 362.546875 C 32.570312 361.167969 34.070312 360.148438 36.519531 360.160156 C 40.542969 360.171875 43.242188 362.535156 42.28125 367.636719 C 41.3125 372.78125 34.070312 374.773438 30.777344 380.101562 C 27.484375 374.773438 20.238281 372.78125 19.273438 367.636719 C 18.3125 362.535156 20.898438 360.171875 25.035156 360.160156 C 27.484375 360.148438 28.984375 361.167969 29.808594 362.546875 C 29.449219 357.382812 28.941406 354.578125 24.191406 353.511719 Z M 37.363281 353.511719 " fill-opacity="1" fill-rule="nonzero"/></g><g fill="#000000" fill-opacity="1"><g transform="translate(259.036358, 39.372554)"><g><path d="M 8.28125 -5.859375 L 8.28125 -15.0625 L 2.375 -5.859375 Z M 13.390625 0 L 5.5 0 L 5.5 -1.234375 L 8.28125 -1.234375 L 8.28125 -4.625 L 0.734375 -4.625 L 0.734375 -5.890625 L 8.3125 -17.609375 L 10.609375 -17.609375 L 10.609375 -5.859375 L 13.90625 -5.859375 L 13.90625 -4.625 L 10.609375 -4.625 L 10.609375 -1.234375 L 13.390625 -1.234375 Z M 13.390625 0 "/></g></g></g><g clip-path="url(#82369327e2)"><path fill="#000000" d="M 259.78125 72.484375 C 264.53125 71.417969 265.039062 68.609375 265.398438 63.445312 C 264.574219 64.828125 263.074219 65.84375 260.625 65.835938 C 256.597656 65.820312 253.902344 63.460938 254.863281 58.359375 C 255.828125 53.214844 263.074219 51.21875 266.367188 45.894531 C 269.660156 51.21875 276.902344 53.214844 277.871094 58.359375 C 278.832031 63.460938 276.246094 65.820312 272.109375 65.835938 C 269.660156 65.84375 268.160156 64.828125 267.332031 63.445312 C 267.691406 68.609375 268.203125 71.417969 272.953125 72.484375 Z M 259.78125 72.484375 " fill-opacity="1" fill-rule="nonzero"/></g><g fill="#000000" fill-opacity="1"><g transform="translate(19.941725, 36.835343)"><g><path d="M 11.859375 -8.390625 L 11.859375 -21.5625 L 3.40625 -8.390625 Z M 19.15625 0 L 7.875 0 L 7.875 -1.765625 L 11.859375 -1.765625 L 11.859375 -6.625 L 1.046875 -6.625 L 1.046875 -8.421875 L 11.890625 -25.21875 L 15.171875 -25.21875 L 15.171875 -8.390625 L 19.90625 -8.390625 L 19.90625 -6.625 L 15.171875 -6.625 L 15.171875 -1.765625 L 19.15625 -1.765625 Z M 19.15625 0 "/></g></g></g><g clip-path="url(#a97a7ca764)"><path fill="#000000" d="M 21.007812 84.226562 C 27.804688 82.699219 28.535156 78.683594 29.046875 71.292969 C 27.867188 73.265625 25.71875 74.722656 22.214844 74.710938 C 16.453125 74.691406 12.59375 71.308594 13.96875 64.007812 C 15.351562 56.644531 25.71875 53.792969 30.433594 46.167969 C 35.144531 53.792969 45.511719 56.644531 46.898438 64.007812 C 48.269531 71.308594 44.570312 74.691406 38.652344 74.710938 C 35.144531 74.722656 33 73.265625 31.816406 71.292969 C 32.332031 78.679688 33.0625 82.699219 39.859375 84.226562 Z M 21.007812 84.226562 " fill-opacity="1" fill-rule="nonzero"/></g><g clip-path="url(#6371fc91f1)"><path stroke-linecap="butt" transform="matrix(0.746195, 0, 0, 0.746195, 30.637603, 45.234836)" fill="none" stroke-linejoin="miter" d="M -0.00118541 -0.000618015 L 316.102365 -0.000618015 L 316.102365 449.639721 L -0.00118541 449.639721 Z M -0.00118541 -0.000618015 " stroke="#000000" stroke-width="6" stroke-opacity="1" stroke-miterlimit="4"/></g><path fill="#000000" d="M 88.5 242.074219 C 88.5 242.074219 73.632812 256.175781 70.9375 280.765625 C 68.246094 305.359375 73.886719 320.894531 84.132812 321.523438 C 94.375 322.15625 100.625 319.996094 98.136719 291.289062 C 95.644531 262.578125 92.984375 238.132812 88.5 242.074219 " fill-opacity="1" fill-rule="nonzero"/><g clip-path="url(#6f34b96c85)"><path fill="#000000" d="M 96.152344 329.589844 C 96.152344 329.589844 85.136719 326.257812 83.953125 331.191406 C 82.773438 336.128906 89.324219 343.609375 96.683594 341.898438 C 104.046875 340.183594 102.191406 331.21875 96.152344 329.589844 " fill-opacity="1" fill-rule="nonzero"/></g><path fill="#000000" d="M 104.476562 240.683594 C 104.476562 240.683594 121.550781 252 128.441406 275.765625 C 135.332031 299.519531 132.453125 315.796875 122.46875 318.1875 C 112.484375 320.582031 105.957031 319.53125 103.464844 290.824219 C 100.972656 262.121094 99.375 237.578125 104.476562 240.683594 " fill-opacity="1" fill-rule="nonzero"/><path fill="#000000" d="M 112.019531 328.210938 C 112.019531 328.210938 122.296875 323.019531 124.308594 327.675781 C 126.320312 332.335938 121.160156 340.839844 113.617188 340.421875 C 106.070312 340.003906 106.34375 330.855469 112.019531 328.210938 " fill-opacity="1" fill-rule="nonzero"/><path fill="#000000" d="M 186.253906 199.601562 C 186.253906 199.601562 170.21875 212.359375 165.414062 236.628906 C 160.605469 260.890625 164.878906 276.859375 175.03125 278.375 C 185.183594 279.890625 191.59375 278.28125 191.597656 249.46875 C 191.597656 220.652344 191.0625 196.066406 186.253906 199.601562 " fill-opacity="1" fill-rule="nonzero"/><path fill="#000000" d="M 186.308594 287.457031 C 186.308594 287.457031 175.621094 283.171875 174.019531 287.988281 C 172.414062 292.804688 178.292969 300.828125 185.773438 299.761719 C 193.253906 298.6875 192.183594 289.59375 186.308594 287.457031 " fill-opacity="1" fill-rule="nonzero"/><path fill="#000000" d="M 202.292969 199.601562 C 202.292969 199.601562 218.320312 212.359375 223.128906 236.628906 C 227.9375 260.890625 223.664062 276.859375 213.511719 278.375 C 203.359375 279.890625 196.945312 278.28125 196.945312 249.46875 C 196.945312 220.652344 197.480469 196.066406 202.292969 199.601562 " fill-opacity="1" fill-rule="nonzero"/><path fill="#000000" d="M 202.234375 287.457031 C 202.234375 287.457031 212.921875 283.171875 214.527344 287.988281 C 216.125 292.804688 210.25 300.828125 202.769531 299.761719 C 195.289062 298.6875 196.355469 289.59375 202.234375 287.457031 " fill-opacity="1" fill-rule="nonzero"/><path fill="#000000" d="M 88.5 121.972656 C 88.5 121.972656 73.632812 136.074219 70.9375 160.664062 C 68.246094 185.257812 73.886719 200.792969 84.132812 201.417969 C 94.375 202.054688 100.625 199.894531 98.136719 171.1875 C 95.644531 142.476562 92.984375 118.03125 88.5 121.972656 " fill-opacity="1" fill-rule="nonzero"/><g clip-path="url(#be2456e83f)"><path fill="#000000" d="M 96.152344 209.488281 C 96.152344 209.488281 85.136719 206.152344 83.953125 211.089844 C 82.773438 216.027344 89.324219 223.507812 96.683594 221.796875 C 104.046875 220.078125 102.191406 211.117188 96.152344 209.488281 " fill-opacity="1" fill-rule="nonzero"/></g><path fill="#000000" d="M 104.476562 120.582031 C 104.476562 120.582031 121.550781 131.898438 128.441406 155.664062 C 135.332031 179.417969 132.453125 195.695312 122.46875 198.085938 C 112.484375 200.476562 105.957031 199.429688 103.464844 170.722656 C 100.972656 142.019531 99.375 117.476562 104.476562 120.582031 " fill-opacity="1" fill-rule="nonzero"/><path fill="#000000" d="M 112.019531 208.109375 C 112.019531 208.109375 122.296875 202.917969 124.308594 207.574219 C 126.320312 212.234375 121.160156 220.734375 113.617188 220.320312 C 106.070312 219.902344 106.34375 210.753906 112.019531 208.109375 " fill-opacity="1" fill-rule="nonzero"/><path fill="#000000" d="M 186.253906 79.5 C 186.253906 79.5 170.21875 92.257812 165.414062 116.527344 C 160.605469 140.789062 164.878906 156.757812 175.03125 158.273438 C 185.183594 159.789062 191.59375 158.175781 191.597656 129.363281 C 191.597656 100.550781 191.0625 75.960938 186.253906 79.5 " fill-opacity="1" fill-rule="nonzero"/><path fill="#000000" d="M 186.308594 167.355469 C 186.308594 167.355469 175.621094 163.070312 174.019531 167.886719 C 172.414062 172.703125 178.292969 180.722656 185.773438 179.660156 C 193.253906 178.585938 192.183594 169.492188 186.308594 167.355469 " fill-opacity="1" fill-rule="nonzero"/><path fill="#000000" d="M 202.292969 79.5 C 202.292969 79.5 218.320312 92.257812 223.128906 116.527344 C 227.9375 140.789062 223.664062 156.757812 213.511719 158.273438 C 203.359375 159.789062 196.945312 158.175781 196.945312 129.363281 C 196.945312 100.550781 197.480469 75.960938 202.292969 79.5 " fill-opacity="1" fill-rule="nonzero"/><path fill="#000000" d="M 202.234375 167.355469 C 202.234375 167.355469 212.921875 163.070312 214.527344 167.886719 C 216.125 172.703125 210.25 180.722656 202.769531 179.660156 C 195.289062 178.585938 196.355469 169.492188 202.234375 167.355469 " fill-opacity="1" fill-rule="nonzero"/></svg>