<svg xmlns="http://www.w3.org/2000/svg" xmlns:xlink="http://www.w3.org/1999/xlink" width="396" zoomAndPan="magnify" viewBox="0 0 297.12 419.249996" height="559" preserveAspectRatio="xMidYMid meet" version="1.0"><defs><g/><clipPath id="83e15124cb"><path d="M 0 0.246094 L 296.238281 0.246094 L 296.238281 417.367188 L 0 417.367188 Z M 0 0.246094 " clip-rule="nonzero"/></clipPath><clipPath id="2d86bc9b8a"><path d="M 249 339.679688 L 283 339.679688 L 283 377.738281 L 249 377.738281 Z M 249 339.679688 " clip-rule="nonzero"/></clipPath><clipPath id="42b36d92c2"><path d="M 18 353.234375 L 43 353.234375 L 43 380.09375 L 18 380.09375 Z M 18 353.234375 " clip-rule="nonzero"/></clipPath><clipPath id="a917d0b992"><path d="M 254 45.894531 L 279 45.894531 L 279 72.753906 L 254 72.753906 Z M 254 45.894531 " clip-rule="nonzero"/></clipPath><clipPath id="7edc83b58b"><path d="M 13 46.175781 L 48 46.175781 L 48 84.234375 L 13 84.234375 Z M 13 46.175781 " clip-rule="nonzero"/></clipPath><clipPath id="fb4831c430"><path d="M 30.636719 45.234375 L 266.433594 45.234375 L 266.433594 380.753906 L 30.636719 380.753906 Z M 30.636719 45.234375 " clip-rule="nonzero"/></clipPath><clipPath id="01cf3e580b"><path d="M 157 175.96875 L 258.320312 175.96875 L 258.320312 241.636719 L 157 241.636719 Z M 157 175.96875 " clip-rule="nonzero"/></clipPath><clipPath id="e1fb033f43"><path d="M 37.789062 175.96875 L 139.480469 175.96875 L 139.480469 241.636719 L 37.789062 241.636719 Z M 37.789062 175.96875 " clip-rule="nonzero"/></clipPath></defs><g clip-path="url(#83e15124cb)"><path fill="#ffffff" d="M 0 0.246094 L 296.238281 0.246094 L 296.238281 417.367188 L 0 417.367188 Z M 0 0.246094 " fill-opacity="1" fill-rule="nonzero"/><path fill="#ffffff" d="M 0 0.246094 L 296.238281 0.246094 L 296.238281 417.367188 L 0 417.367188 Z M 0 0.246094 " fill-opacity="1" fill-rule="nonzero"/></g><g clip-path="url(#2d86bc9b8a)"><path fill="#000000" d="M 275.578125 339.679688 C 268.78125 341.207031 268.050781 345.222656 267.539062 352.613281 C 268.71875 350.640625 270.867188 349.183594 274.371094 349.195312 C 280.132812 349.214844 283.992188 352.597656 282.617188 359.898438 C 281.234375 367.261719 270.867188 370.113281 266.152344 377.738281 C 261.441406 370.113281 251.074219 367.257812 249.6875 359.898438 C 248.316406 352.597656 252.015625 349.214844 257.933594 349.195312 C 261.441406 349.183594 263.585938 350.640625 264.769531 352.613281 C 264.253906 345.222656 263.523438 341.207031 256.726562 339.679688 Z M 275.578125 339.679688 " fill-opacity="1" fill-rule="nonzero"/></g><g clip-path="url(#42b36d92c2)"><path fill="#000000" d="M 37.273438 353.234375 C 32.460938 354.308594 31.941406 357.144531 31.578125 362.363281 C 32.414062 360.96875 33.9375 359.941406 36.417969 359.949219 C 40.5 359.960938 43.234375 362.351562 42.261719 367.503906 C 41.28125 372.699219 33.9375 374.714844 30.597656 380.09375 C 27.257812 374.714844 19.914062 372.699219 18.933594 367.503906 C 17.960938 362.351562 20.582031 359.964844 24.777344 359.949219 C 27.257812 359.941406 28.78125 360.96875 29.617188 362.363281 C 29.253906 357.144531 28.734375 354.308594 23.921875 353.234375 Z M 37.273438 353.234375 " fill-opacity="1" fill-rule="nonzero"/></g><g clip-path="url(#a917d0b992)"><path fill="#000000" d="M 259.867188 72.753906 C 264.683594 71.679688 265.203125 68.84375 265.566406 63.625 C 264.726562 65.019531 263.207031 66.046875 260.722656 66.039062 C 256.644531 66.027344 253.910156 63.636719 254.882812 58.484375 C 255.863281 53.289062 263.207031 51.273438 266.546875 45.894531 C 269.882812 51.273438 277.226562 53.289062 278.207031 58.484375 C 279.183594 63.636719 276.5625 66.023438 272.367188 66.039062 C 269.882812 66.046875 268.363281 65.019531 267.527344 63.625 C 267.890625 68.84375 268.40625 71.679688 273.222656 72.753906 Z M 259.867188 72.753906 " fill-opacity="1" fill-rule="nonzero"/></g><g fill="#000000" fill-opacity="1"><g transform="translate(11.510524, 40.471123)"><g><path d="M 4.828125 0 L 4.828125 -1.765625 L 9.140625 -1.765625 L 9.140625 -22.359375 L 4.140625 -19.125 L 4.140625 -21.296875 L 10.1875 -25.21875 L 12.46875 -25.21875 L 12.46875 -1.765625 L 16.78125 -1.765625 L 16.78125 0 Z M 4.828125 0 "/></g></g><g transform="translate(33.118477, 40.471123)"><g><path d="M 10.796875 -1.15625 C 12.484375 -1.15625 13.75 -2.082031 14.59375 -3.9375 C 15.4375 -5.800781 15.859375 -8.609375 15.859375 -12.359375 C 15.859375 -16.117188 15.4375 -18.925781 14.59375 -20.78125 C 13.75 -22.632812 12.484375 -23.5625 10.796875 -23.5625 C 9.109375 -23.5625 7.84375 -22.632812 7 -20.78125 C 6.15625 -18.925781 5.734375 -16.117188 5.734375 -12.359375 C 5.734375 -8.609375 6.15625 -5.800781 7 -3.9375 C 7.84375 -2.082031 9.109375 -1.15625 10.796875 -1.15625 Z M 10.796875 0.484375 C 8.109375 0.484375 6.007812 -0.640625 4.5 -2.890625 C 2.988281 -5.148438 2.234375 -8.304688 2.234375 -12.359375 C 2.234375 -16.410156 2.988281 -19.566406 4.5 -21.828125 C 6.007812 -24.085938 8.109375 -25.21875 10.796875 -25.21875 C 13.492188 -25.21875 15.59375 -24.085938 17.09375 -21.828125 C 18.601562 -19.566406 19.359375 -16.410156 19.359375 -12.359375 C 19.359375 -8.304688 18.601562 -5.148438 17.09375 -2.890625 C 15.59375 -0.640625 13.492188 0.484375 10.796875 0.484375 Z M 10.796875 0.484375 "/></g></g></g><g clip-path="url(#7edc83b58b)"><path fill="#000000" d="M 21.007812 84.234375 C 27.804688 82.707031 28.535156 78.691406 29.046875 71.300781 C 27.867188 73.273438 25.71875 74.730469 22.214844 74.71875 C 16.453125 74.699219 12.59375 71.316406 13.96875 64.015625 C 15.351562 56.652344 25.71875 53.800781 30.433594 46.175781 C 35.144531 53.800781 45.511719 56.652344 46.898438 64.015625 C 48.269531 71.316406 44.570312 74.699219 38.652344 74.71875 C 35.144531 74.730469 33 73.273438 31.816406 71.300781 C 32.332031 78.6875 33.0625 82.707031 39.859375 84.234375 Z M 21.007812 84.234375 " fill-opacity="1" fill-rule="nonzero"/></g><g clip-path="url(#fb4831c430)"><path stroke-linecap="butt" transform="matrix(0.746195, 0, 0, 0.746195, 30.637603, 45.234705)" fill="none" stroke-linejoin="miter" d="M -0.00118541 -0.00044164 L 316.102365 -0.00044164 L 316.102365 449.639897 L -0.00118541 449.639897 Z M -0.00118541 -0.00044164 " stroke="#000000" stroke-width="6" stroke-opacity="1" stroke-miterlimit="4"/></g><g clip-path="url(#01cf3e580b)"><path fill="#010101" d="M 168.207031 241.871094 C 169.523438 242.023438 171.902344 241.75 172.332031 239.691406 C 172.8125 237.390625 174.898438 230.433594 181.242188 228.683594 C 187.582031 226.933594 195.773438 229.8125 198.472656 229.8125 C 201.429688 229.8125 205.007812 227.246094 209.207031 226.621094 C 213.410156 226 218.542969 227.945312 223.445312 226.621094 C 227.554688 225.515625 238.925781 220.320312 242.269531 218.453125 C 245.617188 216.585938 258.996094 208.574219 258.296875 206.707031 C 257.597656 204.839844 246.472656 211.21875 244.917969 209.664062 C 243.359375 208.105469 248.730469 204.296875 247.636719 202.039062 C 246.550781 199.78125 233.636719 212.460938 229.277344 208.105469 C 224.921875 203.75 247.5625 190.835938 246.003906 188.347656 C 244.449219 185.859375 221.964844 206.082031 216.289062 202.582031 C 210.609375 199.082031 227.644531 177.949219 223.523438 176.054688 C 220.644531 174.734375 216.753906 188.890625 209.128906 197.992188 C 201.503906 207.09375 196.957031 212.425781 195.125 210.59375 C 193.296875 208.769531 199.328125 203.75 201.660156 198.695312 C 203.996094 193.636719 209.285156 179.945312 206.640625 178.542969 C 203.996094 177.144531 203.761719 185 200.417969 190.214844 C 197.070312 195.425781 194.675781 198.082031 191.78125 200.714844 C 188.359375 203.828125 186.898438 216.351562 178.710938 216.351562 C 172.023438 216.351562 168.4375 204.765625 166.039062 198.894531 C 164.679688 195.566406 161.558594 192.042969 159.960938 193.636719 C 158.367188 195.230469 161.75 203.824219 162.765625 205.460938 C 164.0625 207.5625 167.976562 212.308594 165.992188 213.28125 C 163.019531 214.738281 161.804688 211.691406 160.816406 210.441406 C 159.574219 208.859375 157.007812 208.027344 157.007812 209.816406 C 157.007812 210.828125 158.09375 215.964844 160.042969 218.6875 C 161.984375 221.410156 164.785156 224.054688 165.644531 228.957031 C 166.289062 232.65625 166.109375 233.40625 165.875 235.179688 C 165.601562 237.242188 162.917969 241.246094 168.207031 241.871094 " fill-opacity="1" fill-rule="nonzero"/></g><g clip-path="url(#e1fb033f43)"><path fill="#010101" d="M 127.902344 241.871094 C 126.589844 242.023438 124.207031 241.75 123.777344 239.691406 C 123.296875 237.390625 121.210938 230.433594 114.871094 228.683594 C 108.53125 226.933594 100.339844 229.8125 97.636719 229.8125 C 94.683594 229.8125 91.105469 227.246094 86.902344 226.621094 C 82.703125 226 77.566406 227.945312 72.667969 226.621094 C 68.558594 225.515625 57.183594 220.320312 53.839844 218.453125 C 50.492188 216.585938 37.113281 208.574219 37.8125 206.707031 C 38.511719 204.839844 49.636719 211.21875 51.195312 209.664062 C 52.75 208.105469 47.382812 204.296875 48.472656 202.039062 C 49.5625 199.78125 62.472656 212.460938 66.832031 208.105469 C 71.1875 203.75 48.550781 190.835938 50.105469 188.347656 C 51.660156 185.859375 74.144531 206.082031 79.824219 202.582031 C 85.503906 199.082031 68.464844 177.949219 72.589844 176.054688 C 75.464844 174.734375 79.355469 188.890625 86.980469 197.992188 C 94.605469 207.09375 99.15625 212.425781 100.984375 210.59375 C 102.8125 208.769531 96.78125 203.75 94.449219 198.695312 C 92.117188 193.636719 86.824219 179.945312 89.46875 178.542969 C 92.117188 177.144531 92.347656 185 95.695312 190.214844 C 99.039062 195.425781 101.4375 198.082031 104.328125 200.714844 C 107.75 203.828125 109.210938 216.351562 117.398438 216.351562 C 124.089844 216.351562 127.675781 204.765625 130.074219 198.894531 C 131.429688 195.566406 134.550781 192.042969 136.148438 193.636719 C 137.742188 195.230469 134.363281 203.824219 133.347656 205.460938 C 132.046875 207.5625 128.136719 212.308594 130.117188 213.28125 C 133.09375 214.738281 134.304688 211.691406 135.292969 210.441406 C 136.535156 208.859375 139.105469 208.027344 139.105469 209.816406 C 139.105469 210.828125 138.015625 215.964844 136.070312 218.6875 C 134.125 221.410156 131.324219 224.054688 130.46875 228.957031 C 129.824219 232.65625 130 233.40625 130.234375 235.179688 C 130.507812 237.242188 133.191406 241.246094 127.902344 241.871094 " fill-opacity="1" fill-rule="nonzero"/></g><g fill="#000000" fill-opacity="1"><g transform="translate(288.149972, 387.070532)"><g><path d="M -4.828125 0 L -4.828125 1.765625 L -9.140625 1.765625 L -9.140625 22.359375 L -4.140625 19.125 L -4.140625 21.296875 L -10.1875 25.21875 L -12.46875 25.21875 L -12.46875 1.765625 L -16.78125 1.765625 L -16.78125 0 Z M -4.828125 0 "/></g></g><g transform="translate(266.542019, 387.070532)"><g><path d="M -10.796875 1.15625 C -12.484375 1.15625 -13.75 2.082031 -14.59375 3.9375 C -15.4375 5.800781 -15.859375 8.609375 -15.859375 12.359375 C -15.859375 16.117188 -15.4375 18.925781 -14.59375 20.78125 C -13.75 22.632812 -12.484375 23.5625 -10.796875 23.5625 C -9.109375 23.5625 -7.84375 22.632812 -7 20.78125 C -6.15625 18.925781 -5.734375 16.117188 -5.734375 12.359375 C -5.734375 8.609375 -6.15625 5.800781 -7 3.9375 C -7.84375 2.082031 -9.109375 1.15625 -10.796875 1.15625 Z M -10.796875 -0.484375 C -8.109375 -0.484375 -6.007812 0.640625 -4.5 2.890625 C -2.988281 5.148438 -2.234375 8.304688 -2.234375 12.359375 C -2.234375 16.410156 -2.988281 19.566406 -4.5 21.828125 C -6.007812 24.085938 -8.109375 25.21875 -10.796875 25.21875 C -13.492188 25.21875 -15.59375 24.085938 -17.09375 21.828125 C -18.601562 19.566406 -19.359375 16.410156 -19.359375 12.359375 C -19.359375 8.304688 -18.601562 5.148438 -17.09375 2.890625 C -15.59375 0.640625 -13.492188 -0.484375 -10.796875 -0.484375 Z M -10.796875 -0.484375 "/></g></g></g><g fill="#000000" fill-opacity="1"><g transform="translate(48.602702, 385.107483)"><g><path d="M -3.453125 0 L -3.453125 1.25 L -6.53125 1.25 L -6.53125 15.96875 L -2.96875 13.65625 L -2.96875 15.21875 L -7.28125 18.015625 L -8.90625 18.015625 L -8.90625 1.25 L -11.984375 1.25 L -11.984375 0 Z M -3.453125 0 "/></g></g><g transform="translate(33.160282, 385.107483)"><g><path d="M -7.71875 0.828125 C -8.925781 0.828125 -9.828125 1.488281 -10.421875 2.8125 C -11.023438 4.144531 -11.328125 6.148438 -11.328125 8.828125 C -11.328125 11.515625 -11.023438 13.519531 -10.421875 14.84375 C -9.828125 16.175781 -8.925781 16.84375 -7.71875 16.84375 C -6.507812 16.84375 -5.601562 16.175781 -5 14.84375 C -4.394531 13.519531 -4.09375 11.515625 -4.09375 8.828125 C -4.09375 6.148438 -4.394531 4.144531 -5 2.8125 C -5.601562 1.488281 -6.507812 0.828125 -7.71875 0.828125 Z M -7.71875 -0.34375 C -5.789062 -0.34375 -4.285156 0.457031 -3.203125 2.0625 C -2.128906 3.675781 -1.59375 5.929688 -1.59375 8.828125 C -1.59375 11.722656 -2.128906 13.976562 -3.203125 15.59375 C -4.285156 17.207031 -5.789062 18.015625 -7.71875 18.015625 C -9.644531 18.015625 -11.144531 17.207031 -12.21875 15.59375 C -13.289062 13.976562 -13.828125 11.722656 -13.828125 8.828125 C -13.828125 5.929688 -13.289062 3.675781 -12.21875 2.0625 C -11.144531 0.457031 -9.644531 -0.34375 -7.71875 -0.34375 Z M -7.71875 -0.34375 "/></g></g></g><g fill="#000000" fill-opacity="1"><g transform="translate(251.053506, 40.912071)"><g><path d="M 3.453125 0 L 3.453125 -1.25 L 6.53125 -1.25 L 6.53125 -15.96875 L 2.96875 -13.65625 L 2.96875 -15.21875 L 7.28125 -18.015625 L 8.90625 -18.015625 L 8.90625 -1.25 L 11.984375 -1.25 L 11.984375 0 Z M 3.453125 0 "/></g></g><g transform="translate(266.495925, 40.912071)"><g><path d="M 7.71875 -0.828125 C 8.925781 -0.828125 9.828125 -1.488281 10.421875 -2.8125 C 11.023438 -4.144531 11.328125 -6.148438 11.328125 -8.828125 C 11.328125 -11.515625 11.023438 -13.519531 10.421875 -14.84375 C 9.828125 -16.175781 8.925781 -16.84375 7.71875 -16.84375 C 6.507812 -16.84375 5.601562 -16.175781 5 -14.84375 C 4.394531 -13.519531 4.09375 -11.515625 4.09375 -8.828125 C 4.09375 -6.148438 4.394531 -4.144531 5 -2.8125 C 5.601562 -1.488281 6.507812 -0.828125 7.71875 -0.828125 Z M 7.71875 0.34375 C 5.789062 0.34375 4.285156 -0.457031 3.203125 -2.0625 C 2.128906 -3.675781 1.59375 -5.929688 1.59375 -8.828125 C 1.59375 -11.722656 2.128906 -13.976562 3.203125 -15.59375 C 4.285156 -17.207031 5.789062 -18.015625 7.71875 -18.015625 C 9.644531 -18.015625 11.144531 -17.207031 12.21875 -15.59375 C 13.289062 -13.976562 13.828125 -11.722656 13.828125 -8.828125 C 13.828125 -5.929688 13.289062 -3.675781 12.21875 -2.0625 C 11.144531 -0.457031 9.644531 0.34375 7.71875 0.34375 Z M 7.71875 0.34375 "/></g></g></g></svg>