<svg xmlns="http://www.w3.org/2000/svg" xmlns:xlink="http://www.w3.org/1999/xlink" width="396" zoomAndPan="magnify" viewBox="0 0 297.12 419.249996" height="559" preserveAspectRatio="xMidYMid meet" version="1.0"><defs><g/><clipPath id="25eaaef2ea"><path d="M 0 0.246094 L 296.238281 0.246094 L 296.238281 417.367188 L 0 417.367188 Z M 0 0.246094 " clip-rule="nonzero"/></clipPath><clipPath id="fcf93f8cef"><path d="M 248 340.527344 L 282 340.527344 L 282 378.582031 L 248 378.582031 Z M 248 340.527344 " clip-rule="nonzero"/></clipPath><clipPath id="99ab640d1d"><path d="M 18.226562 353.511719 L 43 353.511719 L 43 380.101562 L 18.226562 380.101562 Z M 18.226562 353.511719 " clip-rule="nonzero"/></clipPath><clipPath id="800b3a2f34"><path d="M 254 45.894531 L 278 45.894531 L 278 72.484375 L 254 72.484375 Z M 254 45.894531 " clip-rule="nonzero"/></clipPath><clipPath id="2e46df15ff"><path d="M 13 46.328125 L 48 46.328125 L 48 84.382812 L 13 84.382812 Z M 13 46.328125 " clip-rule="nonzero"/></clipPath><clipPath id="8612f3d8bf"><path d="M 30.125 45.234375 L 265.921875 45.234375 L 265.921875 380.753906 L 30.125 380.753906 Z M 30.125 45.234375 " clip-rule="nonzero"/></clipPath><clipPath id="adfe23ab17"><path d="M 68 78.59375 L 74.253906 78.59375 L 74.253906 84.371094 L 68 84.371094 Z M 68 78.59375 " clip-rule="nonzero"/></clipPath><clipPath id="a278b55f6a"><path d="M 71.335938 78.671875 C 73.574219 79.714844 74.171875 80.835938 74.171875 81.65625 C 74.097656 82.402344 73.425781 83.445312 72.828125 83.894531 C 72.15625 84.265625 70.886719 84.339844 70.21875 84.042969 C 69.472656 83.667969 68.722656 82.699219 68.574219 81.953125 C 68.5 81.207031 68.875 80.011719 69.472656 79.417969 C 69.992188 78.894531 71.1875 78.59375 71.933594 78.746094 C 72.679688 78.894531 73.648438 79.714844 73.949219 80.460938 C 74.246094 81.132812 74.171875 82.402344 73.648438 83.074219 C 73.128906 83.746094 71.558594 84.339844 70.664062 84.339844 C 69.992188 84.265625 69.246094 83.894531 68.875 83.445312 C 68.425781 83.074219 68.054688 82.253906 68.054688 81.65625 C 67.976562 80.984375 68.203125 80.238281 68.648438 79.714844 C 69.023438 79.265625 70.367188 78.671875 70.367188 78.671875 " clip-rule="nonzero"/></clipPath><clipPath id="be9e046967"><path d="M 73.109375 71 L 78.890625 71 L 78.890625 76.839844 L 73.109375 76.839844 Z M 73.109375 71 " clip-rule="nonzero"/></clipPath><clipPath id="6fe5a9d200"><path d="M 73.203125 73.820312 C 75.066406 71.058594 76.335938 70.984375 77.007812 71.207031 C 77.753906 71.507812 78.574219 72.476562 78.722656 73.222656 C 78.871094 73.96875 78.574219 75.238281 78.050781 75.761719 C 77.453125 76.355469 76.335938 76.730469 75.515625 76.582031 C 74.769531 76.507812 73.796875 75.683594 73.425781 75.015625 C 73.128906 74.34375 73.203125 73.074219 73.574219 72.402344 C 74.023438 71.730469 75.140625 71.132812 75.8125 71.058594 C 76.410156 70.984375 77.082031 71.132812 77.53125 71.507812 C 78.125 71.953125 78.796875 73.074219 78.796875 73.820312 C 78.796875 74.640625 78.277344 75.683594 77.679688 76.207031 C 77.230469 76.65625 76.410156 76.804688 75.8125 76.804688 C 75.140625 76.730469 74.394531 76.355469 74.023438 75.910156 C 73.574219 75.460938 73.203125 74.117188 73.203125 74.117188 " clip-rule="nonzero"/></clipPath><clipPath id="984b1b17fd"><path d="M 61 69.582031 L 84.492188 69.582031 L 84.492188 116.609375 L 61 116.609375 Z M 61 69.582031 " clip-rule="nonzero"/></clipPath><clipPath id="b677d52b76"><path d="M 69.84375 88.894531 C 81.1875 70.238281 82.15625 69.640625 82.828125 69.863281 C 83.5 70.015625 84.246094 70.835938 84.320312 72.027344 C 84.46875 76.058594 73.277344 92.175781 69.917969 99.636719 C 67.828125 104.414062 66.039062 108.890625 65.441406 111.800781 C 65.066406 113.292969 65.664062 114.636719 65.144531 115.382812 C 64.769531 115.980469 63.949219 116.578125 63.351562 116.503906 C 62.753906 116.429688 61.933594 115.757812 61.636719 114.785156 C 60.664062 111.578125 65.589844 97.921875 66.335938 92.175781 C 66.785156 88.667969 65.738281 84.640625 66.710938 83.667969 C 67.308594 83.148438 68.351562 83.148438 69.023438 83.519531 C 70.140625 84.117188 71.933594 87.101562 72.007812 88.222656 C 72.007812 88.96875 71.558594 89.566406 71.039062 89.9375 C 70.589844 90.234375 69.695312 90.3125 69.171875 90.085938 C 68.648438 89.789062 67.976562 88.59375 67.976562 87.921875 C 67.976562 87.402344 68.574219 86.65625 69.097656 86.429688 C 69.695312 86.132812 70.964844 86.429688 71.484375 86.878906 C 71.859375 87.25 72.082031 88.148438 71.933594 88.667969 C 71.785156 89.191406 71.1875 89.9375 70.664062 90.085938 C 70.066406 90.3125 69.097656 90.011719 68.351562 89.414062 C 67.15625 88.445312 65.292969 85.386719 65.144531 83.746094 C 65.066406 82.550781 65.664062 81.058594 66.410156 80.609375 C 67.082031 80.238281 68.574219 80.3125 69.246094 80.910156 C 70.21875 81.804688 70.441406 84.265625 70.515625 87.101562 C 70.515625 92.996094 66.785156 111.652344 65.292969 114.933594 C 64.917969 115.757812 64.695312 116.128906 64.246094 116.277344 C 63.726562 116.503906 62.679688 116.351562 62.15625 115.980469 C 61.710938 115.53125 61.488281 114.785156 61.488281 113.742188 C 61.5625 110.90625 64.320312 103.890625 66.785156 97.996094 C 70.140625 90.011719 77.679688 73.222656 80.738281 70.613281 C 81.558594 69.863281 82.304688 69.640625 82.828125 69.863281 C 83.5 70.089844 84.320312 71.132812 84.320312 72.027344 C 84.246094 73.523438 81.632812 75.683594 80.140625 78.148438 C 78.050781 81.65625 75.515625 89.863281 73.351562 91.355469 C 72.382812 92.027344 71.039062 92.101562 70.441406 91.730469 C 69.84375 91.28125 69.84375 88.894531 69.84375 88.894531 " clip-rule="nonzero"/></clipPath><clipPath id="0fa0cfb9e6"><path d="M 70 73.660156 L 80 73.660156 L 80 99.289062 L 70 99.289062 Z M 70 73.660156 " clip-rule="nonzero"/></clipPath><clipPath id="47b0685bbe"><path d="M 74.84375 75.761719 C 75.738281 86.355469 75.960938 95.011719 74.917969 97.472656 C 74.542969 98.445312 73.949219 99.117188 73.277344 99.191406 C 72.605469 99.265625 71.335938 98.742188 70.964844 97.847656 C 70.140625 95.980469 73.128906 90.085938 73.5 86.730469 C 73.796875 83.96875 72.828125 80.757812 73.425781 79.191406 C 73.796875 78.296875 74.46875 77.625 75.066406 77.402344 C 75.515625 77.253906 76.113281 77.328125 76.484375 77.550781 C 77.007812 77.847656 77.304688 78.296875 77.605469 79.191406 C 78.574219 81.878906 80.140625 94.191406 79.320312 96.726562 C 79.097656 97.550781 78.648438 97.996094 78.125 98.144531 C 77.457031 98.371094 76.1875 97.921875 75.738281 97.472656 C 75.367188 97.027344 75.214844 96.132812 75.441406 95.609375 C 75.738281 95.011719 76.859375 94.265625 77.53125 94.265625 C 78.125 94.265625 78.871094 94.714844 79.097656 95.234375 C 79.394531 95.832031 79.246094 97.175781 78.796875 97.699219 C 78.425781 98.144531 77.53125 98.445312 77.007812 98.296875 C 76.410156 98.070312 75.8125 97.472656 75.367188 96.429688 C 74.097656 93.742188 72.382812 81.878906 73.425781 79.191406 C 73.875 78.074219 74.84375 77.402344 75.515625 77.328125 C 76.113281 77.253906 76.859375 77.699219 77.230469 78.222656 C 77.753906 78.96875 77.828125 80.238281 77.828125 81.730469 C 77.902344 84.117188 77.457031 88.296875 76.785156 91.28125 C 76.1875 93.96875 75.441406 97.847656 74.171875 98.742188 C 73.5 99.265625 72.457031 99.265625 71.859375 98.964844 C 71.335938 98.667969 70.964844 98.070312 70.8125 97.175781 C 70.367188 95.308594 71.484375 91.207031 71.410156 87.921875 C 71.335938 84.117188 69.769531 77.925781 70.140625 75.835938 C 70.292969 75.089844 70.515625 74.714844 70.886719 74.34375 C 71.261719 73.96875 71.933594 73.746094 72.457031 73.671875 C 72.976562 73.671875 73.648438 73.894531 74.023438 74.269531 C 74.46875 74.640625 74.84375 75.761719 74.84375 75.761719 " clip-rule="nonzero"/></clipPath><clipPath id="0a8c992bfd"><path d="M 69.417969 76.367188 L 85.8125 76.367188 L 85.8125 124.683594 L 69.417969 124.683594 Z M 69.417969 76.367188 " clip-rule="nonzero"/></clipPath><clipPath id="9addf69a8d"><path d="M 85.589844 79.566406 C 76.335938 110.085938 74.769531 120.308594 73.351562 122.996094 C 72.902344 123.816406 72.605469 124.1875 72.15625 124.410156 C 71.785156 124.5625 71.261719 124.636719 70.886719 124.410156 C 70.367188 124.1875 69.546875 123.144531 69.472656 122.546875 C 69.472656 122.023438 69.917969 121.203125 70.367188 120.90625 C 70.8125 120.605469 71.710938 120.53125 72.230469 120.753906 C 72.753906 121.054688 73.351562 122.25 73.425781 122.84375 C 73.425781 123.21875 73.203125 123.664062 72.828125 123.964844 C 72.457031 124.261719 71.632812 124.5625 71.113281 124.488281 C 70.664062 124.488281 70.292969 124.1875 69.992188 123.890625 C 69.695312 123.515625 69.546875 123.070312 69.546875 122.097656 C 69.472656 119.039062 72.230469 108.890625 74.023438 101.953125 C 76.039062 94.339844 79.46875 81.207031 81.035156 78.222656 C 81.410156 77.402344 81.632812 77.101562 82.082031 76.878906 C 82.527344 76.582031 83.199219 76.433594 83.722656 76.507812 C 84.320312 76.65625 85.214844 77.328125 85.515625 77.925781 C 85.738281 78.371094 85.589844 79.566406 85.589844 79.566406 " clip-rule="nonzero"/></clipPath><clipPath id="6dbe3c9949"><path d="M 64.839844 79.382812 L 81.652344 79.382812 L 81.652344 110.988281 L 64.839844 110.988281 Z M 64.839844 79.382812 " clip-rule="nonzero"/></clipPath><clipPath id="3a146ded2e"><path d="M 81.261719 82.921875 C 68.425781 110.234375 68.351562 110.457031 67.902344 110.609375 C 67.457031 110.832031 66.484375 110.90625 65.964844 110.609375 C 65.515625 110.382812 64.917969 109.636719 64.917969 109.039062 C 64.84375 108.367188 65.589844 107.175781 66.1875 106.875 C 66.636719 106.652344 67.605469 106.726562 68.054688 107.101562 C 68.574219 107.472656 69.023438 108.816406 68.875 109.414062 C 68.800781 109.859375 68.5 110.234375 68.128906 110.457031 C 67.679688 110.757812 66.710938 110.832031 66.1875 110.683594 C 65.738281 110.609375 65.367188 110.234375 65.21875 109.859375 C 64.917969 109.414062 64.917969 108.890625 65.066406 107.921875 C 65.738281 104.117188 74.695312 84.042969 76.785156 80.910156 C 77.304688 80.164062 77.53125 79.9375 78.050781 79.714844 C 78.574219 79.492188 79.246094 79.417969 79.769531 79.640625 C 80.367188 79.863281 81.1875 80.609375 81.410156 81.207031 C 81.632812 81.730469 81.261719 83 81.261719 83 " clip-rule="nonzero"/></clipPath><clipPath id="4f5e3d65f2"><path d="M 64 77.242188 L 72.652344 77.242188 L 72.652344 98.554688 L 64 98.554688 Z M 64 77.242188 " clip-rule="nonzero"/></clipPath><clipPath id="a54a0e646f"><path d="M 72.605469 80.460938 C 67.605469 98.070312 67.308594 98.21875 66.933594 98.371094 C 66.335938 98.519531 65.367188 98.445312 64.917969 98.070312 C 64.398438 97.625 63.949219 96.28125 64.171875 95.609375 C 64.398438 95.011719 65.664062 94.265625 66.335938 94.265625 C 66.933594 94.265625 67.753906 94.789062 67.976562 95.308594 C 68.277344 95.90625 68.128906 97.324219 67.679688 97.847656 C 67.308594 98.296875 66.335938 98.519531 65.738281 98.445312 C 65.292969 98.371094 64.84375 98.144531 64.621094 97.773438 C 64.246094 97.324219 64.097656 96.804688 64.097656 95.832031 C 64.097656 93.070312 66.710938 81.730469 67.753906 79.265625 C 68.128906 78.445312 68.277344 78.074219 68.800781 77.773438 C 69.246094 77.476562 69.917969 77.253906 70.515625 77.328125 C 71.039062 77.402344 71.710938 77.699219 72.082031 78.148438 C 72.457031 78.671875 72.605469 80.460938 72.605469 80.460938 " clip-rule="nonzero"/></clipPath><clipPath id="b2807f9a42"><path d="M 185.378906 338.519531 L 205.855469 338.519531 L 205.855469 353.835938 L 185.378906 353.835938 Z M 185.378906 338.519531 " clip-rule="nonzero"/></clipPath><clipPath id="d49bbd91d3"><path d="M 186.625 349.089844 C 203.785156 338.570312 204.085938 338.644531 204.457031 338.867188 C 204.980469 339.09375 205.652344 339.765625 205.726562 340.359375 C 205.800781 341.03125 205.203125 342.375 204.605469 342.675781 C 204.011719 342.972656 202.59375 342.675781 202.144531 342.226562 C 201.695312 341.851562 201.398438 340.882812 201.621094 340.359375 C 201.769531 339.6875 202.890625 338.792969 203.5625 338.71875 C 204.160156 338.644531 204.980469 339.167969 205.351562 339.539062 C 205.652344 339.914062 205.800781 340.359375 205.800781 340.808594 C 205.726562 341.40625 205.503906 341.851562 204.832031 342.597656 C 202.816406 344.839844 191.996094 352.152344 189.382812 353.269531 C 188.5625 353.644531 188.191406 353.792969 187.667969 353.644531 C 186.996094 353.570312 186.101562 352.898438 185.726562 352.300781 C 185.429688 351.777344 185.429688 351.105469 185.578125 350.507812 C 185.726562 349.988281 186.625 349.089844 186.625 349.089844 " clip-rule="nonzero"/></clipPath><clipPath id="f4c99a1e28"><path d="M 199.597656 336.675781 L 205.546875 336.675781 L 205.546875 342.535156 L 199.597656 342.535156 Z M 199.597656 336.675781 " clip-rule="nonzero"/></clipPath><clipPath id="77875f1e12"><path d="M 200.949219 337.300781 C 204.308594 337.226562 205.128906 338.121094 205.351562 338.867188 C 205.503906 339.613281 205.203125 340.882812 204.679688 341.40625 C 204.160156 342.003906 202.964844 342.449219 202.21875 342.300781 C 201.472656 342.226562 200.429688 341.480469 200.128906 340.808594 C 199.757812 340.136719 199.832031 338.867188 200.203125 338.195312 C 200.578125 337.527344 201.621094 336.855469 202.367188 336.777344 C 203.1875 336.703125 204.308594 337.300781 204.757812 337.824219 C 205.203125 338.273438 205.425781 338.867188 205.425781 339.464844 C 205.351562 340.210938 204.832031 341.332031 204.234375 341.851562 C 203.710938 342.300781 202.964844 342.523438 202.367188 342.523438 C 201.769531 342.523438 200.949219 342.226562 200.503906 341.777344 C 199.980469 341.257812 199.605469 340.0625 199.605469 339.316406 C 199.683594 338.644531 200.578125 337.527344 200.578125 337.527344 " clip-rule="nonzero"/></clipPath><clipPath id="50ce0520c2"><path d="M 228.484375 315 L 236.851562 315 L 236.851562 320.914062 L 228.484375 320.914062 Z M 228.484375 315 " clip-rule="nonzero"/></clipPath><clipPath id="c57177c153"><path d="M 233.632812 320.886719 C 229.378906 319.765625 228.785156 318.796875 228.632812 318.125 C 228.484375 317.527344 228.632812 316.855469 228.933594 316.332031 C 229.230469 315.886719 229.679688 315.363281 230.277344 315.214844 C 230.949219 314.992188 232.214844 314.992188 232.8125 315.4375 C 233.484375 315.8125 234.082031 316.929688 234.082031 317.675781 C 234.082031 318.421875 233.484375 319.542969 232.960938 319.988281 C 232.515625 320.363281 231.769531 320.511719 231.246094 320.511719 C 230.722656 320.4375 230.050781 320.289062 229.605469 319.839844 C 229.082031 319.394531 228.558594 318.273438 228.558594 317.527344 C 228.632812 316.707031 229.230469 315.738281 229.976562 315.363281 C 230.949219 314.765625 233.335938 315.066406 234.453125 315.363281 C 235.125 315.585938 235.722656 315.8125 236.171875 316.332031 C 236.542969 316.929688 236.84375 318.125 236.691406 318.871094 C 236.542969 319.46875 236.023438 320.066406 235.574219 320.4375 C 235.050781 320.734375 233.632812 320.886719 233.632812 320.886719 " clip-rule="nonzero"/></clipPath></defs><g clip-path="url(#25eaaef2ea)"><path fill="#ffffff" d="M 0 0.246094 L 296.238281 0.246094 L 296.238281 417.367188 L 0 417.367188 Z M 0 0.246094 " fill-opacity="1" fill-rule="nonzero"/><path fill="#ffffff" d="M 0 0.246094 L 296.238281 0.246094 L 296.238281 417.367188 L 0 417.367188 Z M 0 0.246094 " fill-opacity="1" fill-rule="nonzero"/></g><g fill="#010101" fill-opacity="1"><g transform="translate(275.568692, 387.916618)"><g><path d="M -6.796875 8.96875 L -15.890625 8.96875 L -11.34375 20.75 Z M 0.203125 0 L 0.203125 1.765625 L -1.96875 1.765625 L -10.796875 24.765625 L -13.578125 24.765625 L -22.421875 1.765625 L -24.859375 1.765625 L -24.859375 0 L -15.859375 0 L -15.859375 1.765625 L -18.609375 1.765625 L -16.53125 7.203125 L -6.125 7.203125 L -4.046875 1.765625 L -6.765625 1.765625 L -6.765625 0 Z M 0.203125 0 "/></g></g></g><g clip-path="url(#fcf93f8cef)"><path fill="#010101" d="M 274.433594 340.5625 C 267.578125 342.085938 266.839844 346.101562 266.324219 353.484375 C 267.515625 351.511719 269.679688 350.054688 273.214844 350.066406 C 279.023438 350.085938 282.917969 353.464844 281.53125 360.761719 C 280.136719 368.117188 269.679688 370.96875 264.925781 378.582031 C 260.175781 370.96875 249.71875 368.117188 248.320312 360.761719 C 246.9375 353.464844 250.667969 350.089844 256.640625 350.066406 C 260.171875 350.054688 262.339844 351.511719 263.53125 353.484375 C 263.011719 346.101562 262.277344 342.085938 255.421875 340.5625 Z M 274.433594 340.5625 " fill-opacity="1" fill-rule="nonzero"/></g><g fill="#010101" fill-opacity="1"><g transform="translate(38.107003, 386.622491)"><g><path d="M -4.75 6.265625 L -11.109375 6.265625 L -7.921875 14.5 Z M 0.140625 0 L 0.140625 1.234375 L -1.375 1.234375 L -7.546875 17.296875 L -9.484375 17.296875 L -15.671875 1.234375 L -17.375 1.234375 L -17.375 0 L -11.078125 0 L -11.078125 1.234375 L -13 1.234375 L -11.546875 5.03125 L -4.28125 5.03125 L -2.828125 1.234375 L -4.734375 1.234375 L -4.734375 0 Z M 0.140625 0 "/></g></g></g><g clip-path="url(#99ab640d1d)"><path fill="#010101" d="M 37.3125 353.535156 C 32.523438 354.601562 32.007812 357.40625 31.648438 362.5625 C 32.480469 361.1875 33.992188 360.167969 36.460938 360.175781 C 40.519531 360.191406 43.242188 362.550781 42.273438 367.648438 C 41.296875 372.789062 33.992188 374.78125 30.671875 380.101562 C 27.351562 374.78125 20.046875 372.789062 19.070312 367.648438 C 18.101562 362.550781 20.710938 360.191406 24.878906 360.175781 C 27.351562 360.167969 28.863281 361.1875 29.695312 362.5625 C 29.335938 357.40625 28.820312 354.601562 24.03125 353.535156 Z M 37.3125 353.535156 " fill-opacity="1" fill-rule="nonzero"/></g><g fill="#010101" fill-opacity="1"><g transform="translate(258.524913, 39.372554)"><g><path d="M 4.75 -6.265625 L 11.109375 -6.265625 L 7.921875 -14.5 Z M -0.140625 0 L -0.140625 -1.234375 L 1.375 -1.234375 L 7.546875 -17.296875 L 9.484375 -17.296875 L 15.671875 -1.234375 L 17.375 -1.234375 L 17.375 0 L 11.078125 0 L 11.078125 -1.234375 L 13 -1.234375 L 11.546875 -5.03125 L 4.28125 -5.03125 L 2.828125 -1.234375 L 4.734375 -1.234375 L 4.734375 0 Z M -0.140625 0 "/></g></g></g><g clip-path="url(#800b3a2f34)"><path fill="#010101" d="M 259.320312 72.460938 C 264.109375 71.394531 264.625 68.589844 264.984375 63.429688 C 264.152344 64.808594 262.640625 65.828125 260.171875 65.816406 C 256.109375 65.804688 253.390625 63.441406 254.359375 58.347656 C 255.335938 53.207031 262.640625 51.214844 265.960938 45.894531 C 269.28125 51.214844 276.585938 53.207031 277.5625 58.347656 C 278.53125 63.441406 275.921875 65.804688 271.75 65.816406 C 269.28125 65.828125 267.769531 64.808594 266.9375 63.429688 C 267.296875 68.589844 267.8125 71.394531 272.601562 72.460938 Z M 259.320312 72.460938 " fill-opacity="1" fill-rule="nonzero"/></g><g fill="#010101" fill-opacity="1"><g transform="translate(19.941725, 37.788102)"><g><path d="M 6.796875 -8.96875 L 15.875 -8.96875 L 11.34375 -20.734375 Z M -0.203125 0 L -0.203125 -1.75 L 1.96875 -1.75 L 10.796875 -24.75 L 13.578125 -24.75 L 22.421875 -1.75 L 24.84375 -1.75 L 24.84375 0 L 15.84375 0 L 15.84375 -1.75 L 18.59375 -1.75 L 16.53125 -7.1875 L 6.125 -7.1875 L 4.046875 -1.75 L 6.765625 -1.75 L 6.765625 0 Z M -0.203125 0 "/></g></g></g><g clip-path="url(#2e46df15ff)"><path fill="#010101" d="M 21.078125 84.347656 C 27.933594 82.824219 28.671875 78.8125 29.1875 71.425781 C 27.996094 73.398438 25.832031 74.855469 22.296875 74.84375 C 16.484375 74.824219 12.59375 71.445312 13.980469 64.148438 C 15.375 56.796875 25.832031 53.945312 30.582031 46.328125 C 35.335938 53.945312 45.792969 56.796875 47.1875 64.148438 C 48.574219 71.445312 44.84375 74.820312 38.871094 74.84375 C 35.335938 74.855469 33.171875 73.398438 31.980469 71.425781 C 32.496094 78.808594 33.234375 82.824219 40.089844 84.347656 Z M 21.078125 84.347656 " fill-opacity="1" fill-rule="nonzero"/></g><g clip-path="url(#8612f3d8bf)"><path stroke-linecap="butt" transform="matrix(0.746195, 0, 0, 0.746195, 30.126155, 45.234836)" fill="none" stroke-linejoin="miter" d="M -0.00154827 -0.000618015 L 316.102002 -0.000618015 L 316.102002 449.639721 L -0.00154827 449.639721 Z M -0.00154827 -0.000618015 " stroke="#000000" stroke-width="6" stroke-opacity="1" stroke-miterlimit="4"/></g><g clip-path="url(#adfe23ab17)"><g clip-path="url(#a278b55f6a)"><path fill="#ffffff" d="M 65.066406 75.683594 L 77.210938 75.683594 L 77.210938 87.324219 L 65.066406 87.324219 Z M 65.066406 75.683594 " fill-opacity="1" fill-rule="nonzero"/></g></g><g clip-path="url(#be9e046967)"><g clip-path="url(#6fe5a9d200)"><path fill="#ffffff" d="M 70.21875 68.074219 L 81.78125 68.074219 L 81.78125 79.777344 L 70.21875 79.777344 Z M 70.21875 68.074219 " fill-opacity="1" fill-rule="nonzero"/></g></g><g clip-path="url(#984b1b17fd)"><g clip-path="url(#b677d52b76)"><path fill="#ffffff" d="M 58.5 66.878906 L 87.304688 66.878906 L 87.304688 119.535156 L 58.5 119.535156 Z M 58.5 66.878906 " fill-opacity="1" fill-rule="nonzero"/></g></g><g clip-path="url(#0fa0cfb9e6)"><g clip-path="url(#47b0685bbe)"><path fill="#ffffff" d="M 67.15625 70.6875 L 82.378906 70.6875 L 82.378906 102.199219 L 67.15625 102.199219 Z M 67.15625 70.6875 " fill-opacity="1" fill-rule="nonzero"/></g></g><g clip-path="url(#0a8c992bfd)"><g clip-path="url(#9addf69a8d)"><path fill="#ffffff" d="M 66.484375 73.523438 L 88.574219 73.523438 L 88.574219 127.445312 L 66.484375 127.445312 Z M 66.484375 73.523438 " fill-opacity="1" fill-rule="nonzero"/></g></g><g clip-path="url(#6dbe3c9949)"><g clip-path="url(#3a146ded2e)"><path fill="#ffffff" d="M 61.933594 76.65625 L 84.46875 76.65625 L 84.46875 113.714844 L 61.933594 113.714844 Z M 61.933594 76.65625 " fill-opacity="1" fill-rule="nonzero"/></g></g><g clip-path="url(#4f5e3d65f2)"><g clip-path="url(#a54a0e646f)"><path fill="#ffffff" d="M 61.113281 74.34375 L 75.664062 74.34375 L 75.664062 101.453125 L 61.113281 101.453125 Z M 61.113281 74.34375 " fill-opacity="1" fill-rule="nonzero"/></g></g><g clip-path="url(#b2807f9a42)"><g clip-path="url(#d49bbd91d3)"><path fill="#ffffff" d="M 182.59375 335.734375 L 208.886719 335.734375 L 208.886719 356.703125 L 182.59375 356.703125 Z M 182.59375 335.734375 " fill-opacity="1" fill-rule="nonzero"/></g></g><g clip-path="url(#f4c99a1e28)"><g clip-path="url(#77875f1e12)"><path fill="#ffffff" d="M 196.621094 333.792969 L 208.429688 333.792969 L 208.429688 345.507812 L 196.621094 345.507812 Z M 196.621094 333.792969 " fill-opacity="1" fill-rule="nonzero"/></g></g><g clip-path="url(#50ce0520c2)"><g clip-path="url(#c57177c153)"><path fill="#ffffff" d="M 225.574219 312.230469 L 239.671875 312.230469 L 239.671875 323.871094 L 225.574219 323.871094 Z M 225.574219 312.230469 " fill-opacity="1" fill-rule="nonzero"/></g></g><path fill="#000000" d="M 131.761719 100.105469 C 131.761719 100.105469 99.617188 125.683594 89.980469 174.347656 C 80.339844 222.992188 88.910156 255.007812 109.265625 258.046875 C 129.617188 261.089844 142.464844 257.859375 142.472656 200.085938 C 142.472656 142.3125 141.398438 93.011719 131.761719 100.105469 " fill-opacity="1" fill-rule="nonzero"/><path fill="#000000" d="M 131.871094 276.257812 C 131.871094 276.257812 110.441406 267.667969 107.230469 277.324219 C 104.015625 286.980469 115.796875 303.066406 130.796875 300.929688 C 145.792969 298.78125 143.648438 280.542969 131.871094 276.257812 " fill-opacity="1" fill-rule="nonzero"/><path fill="#000000" d="M 163.910156 100.105469 C 163.910156 100.105469 196.046875 125.683594 205.683594 174.347656 C 215.320312 222.992188 206.757812 255.007812 186.40625 258.046875 C 166.050781 261.089844 153.195312 257.859375 153.195312 200.085938 C 153.195312 142.3125 154.261719 93.011719 163.910156 100.105469 " fill-opacity="1" fill-rule="nonzero"/><path fill="#000000" d="M 163.792969 276.257812 C 163.792969 276.257812 185.21875 267.667969 188.4375 277.324219 C 191.644531 286.980469 179.859375 303.066406 164.863281 300.929688 C 149.867188 298.78125 152.011719 280.542969 163.792969 276.257812 " fill-opacity="1" fill-rule="nonzero"/></svg>