<svg xmlns="http://www.w3.org/2000/svg" xmlns:xlink="http://www.w3.org/1999/xlink" width="396" zoomAndPan="magnify" viewBox="0 0 297.12 419.249996" height="559" preserveAspectRatio="xMidYMid meet" version="1.0"><defs><g/><clipPath id="a3014466cb"><path d="M 0 0.246094 L 296.238281 0.246094 L 296.238281 417.367188 L 0 417.367188 Z M 0 0.246094 " clip-rule="nonzero"/></clipPath><clipPath id="3fb02fac6b"><path d="M 249 339.679688 L 283 339.679688 L 283 377.738281 L 249 377.738281 Z M 249 339.679688 " clip-rule="nonzero"/></clipPath><clipPath id="8eb240a816"><path d="M 19 353.511719 L 43 353.511719 L 43 380.101562 L 19 380.101562 Z M 19 353.511719 " clip-rule="nonzero"/></clipPath><clipPath id="b1b80daf67"><path d="M 254 45.894531 L 278.914062 45.894531 L 278.914062 72.484375 L 254 72.484375 Z M 254 45.894531 " clip-rule="nonzero"/></clipPath><clipPath id="8c570ac92a"><path d="M 13 46.167969 L 48 46.167969 L 48 84.226562 L 13 84.226562 Z M 13 46.167969 " clip-rule="nonzero"/></clipPath><clipPath id="de81faa0e2"><path d="M 30.636719 45.234375 L 266.433594 45.234375 L 266.433594 380.753906 L 30.636719 380.753906 Z M 30.636719 45.234375 " clip-rule="nonzero"/></clipPath><clipPath id="b6cc86ae3d"><path d="M 52.464844 100.917969 L 243.492188 100.917969 L 243.492188 316.957031 L 52.464844 316.957031 Z M 52.464844 100.917969 " clip-rule="nonzero"/></clipPath></defs><g clip-path="url(#a3014466cb)"><path fill="#ffffff" d="M 0 0.246094 L 296.238281 0.246094 L 296.238281 417.367188 L 0 417.367188 Z M 0 0.246094 " fill-opacity="1" fill-rule="nonzero"/><path fill="#ffffff" d="M 0 0.246094 L 296.238281 0.246094 L 296.238281 417.367188 L 0 417.367188 Z M 0 0.246094 " fill-opacity="1" fill-rule="nonzero"/></g><g fill="#000000" fill-opacity="1"><g transform="translate(276.362163, 387.070556)"><g><path d="M -15.890625 11.09375 C -15.148438 10.269531 -14.296875 9.648438 -13.328125 9.234375 C -12.367188 8.828125 -11.285156 8.625 -10.078125 8.625 C -7.628906 8.625 -5.691406 9.363281 -4.265625 10.84375 C -2.847656 12.320312 -2.140625 14.347656 -2.140625 16.921875 C -2.140625 19.429688 -2.910156 21.441406 -4.453125 22.953125 C -5.992188 24.460938 -8.050781 25.21875 -10.625 25.21875 C -13.425781 25.21875 -15.578125 24.171875 -17.078125 22.078125 C -18.578125 19.992188 -19.328125 17.019531 -19.328125 13.15625 C -19.328125 8.820312 -18.4375 5.460938 -16.65625 3.078125 C -14.875 0.703125 -12.367188 -0.484375 -9.140625 -0.484375 C -8.265625 -0.484375 -7.34375 -0.398438 -6.375 -0.234375 C -5.414062 -0.0664062 -4.4375 0.179688 -3.4375 0.515625 L -3.4375 4.625 L -5.296875 4.625 C -5.429688 3.507812 -5.859375 2.648438 -6.578125 2.046875 C -7.296875 1.453125 -8.257812 1.15625 -9.46875 1.15625 C -11.613281 1.15625 -13.210938 1.960938 -14.265625 3.578125 C -15.316406 5.203125 -15.859375 7.707031 -15.890625 11.09375 Z M -10.5 23.5625 C -8.925781 23.5625 -7.722656 22.988281 -6.890625 21.84375 C -6.054688 20.707031 -5.640625 19.066406 -5.640625 16.921875 C -5.640625 14.773438 -6.054688 13.125 -6.890625 11.96875 C -7.722656 10.820312 -8.925781 10.25 -10.5 10.25 C -12.070312 10.25 -13.273438 10.800781 -14.109375 11.90625 C -14.941406 13.019531 -15.359375 14.625 -15.359375 16.71875 C -15.359375 18.914062 -14.9375 20.601562 -14.09375 21.78125 C -13.257812 22.96875 -12.0625 23.5625 -10.5 23.5625 Z M -10.5 23.5625 "/></g></g></g><g clip-path="url(#3fb02fac6b)"><path fill="#000000" d="M 275.296875 339.679688 C 268.5 341.207031 267.769531 345.222656 267.253906 352.613281 C 268.4375 350.640625 270.585938 349.183594 274.089844 349.195312 C 279.851562 349.214844 283.710938 352.597656 282.335938 359.898438 C 280.953125 367.257812 270.582031 370.113281 265.871094 377.738281 C 261.160156 370.113281 250.789062 367.257812 249.40625 359.898438 C 248.03125 352.597656 251.734375 349.214844 257.652344 349.195312 C 261.15625 349.183594 263.304688 350.640625 264.488281 352.613281 C 263.972656 345.222656 263.242188 341.207031 256.445312 339.679688 Z M 275.296875 339.679688 " fill-opacity="1" fill-rule="nonzero"/></g><g fill="#000000" fill-opacity="1"><g transform="translate(38.107003, 386.622491)"><g><path d="M -11.109375 7.75 C -10.585938 7.175781 -9.988281 6.742188 -9.3125 6.453125 C -8.644531 6.171875 -7.890625 6.03125 -7.046875 6.03125 C -5.328125 6.03125 -3.972656 6.546875 -2.984375 7.578125 C -1.992188 8.609375 -1.5 10.023438 -1.5 11.828125 C -1.5 13.578125 -2.035156 14.976562 -3.109375 16.03125 C -4.191406 17.082031 -5.628906 17.609375 -7.421875 17.609375 C -9.378906 17.609375 -10.878906 16.878906 -11.921875 15.421875 C -12.972656 13.972656 -13.5 11.894531 -13.5 9.1875 C -13.5 6.15625 -12.875 3.804688 -11.625 2.140625 C -10.382812 0.484375 -8.640625 -0.34375 -6.390625 -0.34375 C -5.773438 -0.34375 -5.128906 -0.28125 -4.453125 -0.15625 C -3.785156 -0.0390625 -3.101562 0.128906 -2.40625 0.359375 L -2.40625 3.234375 L -3.703125 3.234375 C -3.796875 2.453125 -4.09375 1.851562 -4.59375 1.4375 C -5.101562 1.019531 -5.78125 0.8125 -6.625 0.8125 C -8.113281 0.8125 -9.222656 1.375 -9.953125 2.5 C -10.691406 3.632812 -11.078125 5.382812 -11.109375 7.75 Z M -7.328125 16.46875 C -6.234375 16.46875 -5.394531 16.066406 -4.8125 15.265625 C -4.226562 14.460938 -3.9375 13.316406 -3.9375 11.828125 C -3.9375 10.328125 -4.226562 9.171875 -4.8125 8.359375 C -5.394531 7.554688 -6.234375 7.15625 -7.328125 7.15625 C -8.429688 7.15625 -9.273438 7.539062 -9.859375 8.3125 C -10.441406 9.09375 -10.734375 10.21875 -10.734375 11.6875 C -10.734375 13.21875 -10.4375 14.394531 -9.84375 15.21875 C -9.257812 16.050781 -8.421875 16.46875 -7.328125 16.46875 Z M -7.328125 16.46875 "/></g></g></g><g clip-path="url(#8eb240a816)"><path fill="#000000" d="M 37.363281 353.511719 C 32.613281 354.578125 32.101562 357.382812 31.746094 362.546875 C 32.570312 361.167969 34.070312 360.148438 36.519531 360.160156 C 40.542969 360.171875 43.242188 362.535156 42.28125 367.636719 C 41.3125 372.78125 34.070312 374.773438 30.777344 380.101562 C 27.484375 374.773438 20.238281 372.78125 19.273438 367.636719 C 18.3125 362.535156 20.898438 360.171875 25.035156 360.160156 C 27.484375 360.148438 28.984375 361.167969 29.808594 362.546875 C 29.449219 357.382812 28.941406 354.578125 24.191406 353.511719 Z M 37.363281 353.511719 " fill-opacity="1" fill-rule="nonzero"/></g><g fill="#000000" fill-opacity="1"><g transform="translate(259.036358, 39.372554)"><g><path d="M 11.109375 -7.75 C 10.585938 -7.175781 9.988281 -6.742188 9.3125 -6.453125 C 8.644531 -6.171875 7.890625 -6.03125 7.046875 -6.03125 C 5.328125 -6.03125 3.972656 -6.546875 2.984375 -7.578125 C 1.992188 -8.609375 1.5 -10.023438 1.5 -11.828125 C 1.5 -13.578125 2.035156 -14.976562 3.109375 -16.03125 C 4.191406 -17.082031 5.628906 -17.609375 7.421875 -17.609375 C 9.378906 -17.609375 10.878906 -16.878906 11.921875 -15.421875 C 12.972656 -13.972656 13.5 -11.894531 13.5 -9.1875 C 13.5 -6.15625 12.875 -3.804688 11.625 -2.140625 C 10.382812 -0.484375 8.640625 0.34375 6.390625 0.34375 C 5.773438 0.34375 5.128906 0.28125 4.453125 0.15625 C 3.785156 0.0390625 3.101562 -0.128906 2.40625 -0.359375 L 2.40625 -3.234375 L 3.703125 -3.234375 C 3.796875 -2.453125 4.09375 -1.851562 4.59375 -1.4375 C 5.101562 -1.019531 5.78125 -0.8125 6.625 -0.8125 C 8.113281 -0.8125 9.222656 -1.375 9.953125 -2.5 C 10.691406 -3.632812 11.078125 -5.382812 11.109375 -7.75 Z M 7.328125 -16.46875 C 6.234375 -16.46875 5.394531 -16.066406 4.8125 -15.265625 C 4.226562 -14.460938 3.9375 -13.316406 3.9375 -11.828125 C 3.9375 -10.328125 4.226562 -9.171875 4.8125 -8.359375 C 5.394531 -7.554688 6.234375 -7.15625 7.328125 -7.15625 C 8.429688 -7.15625 9.273438 -7.539062 9.859375 -8.3125 C 10.441406 -9.09375 10.734375 -10.21875 10.734375 -11.6875 C 10.734375 -13.21875 10.4375 -14.394531 9.84375 -15.21875 C 9.257812 -16.050781 8.421875 -16.46875 7.328125 -16.46875 Z M 7.328125 -16.46875 "/></g></g></g><g clip-path="url(#b1b80daf67)"><path fill="#000000" d="M 259.78125 72.484375 C 264.53125 71.417969 265.039062 68.609375 265.398438 63.445312 C 264.574219 64.828125 263.074219 65.84375 260.625 65.835938 C 256.597656 65.820312 253.902344 63.460938 254.863281 58.359375 C 255.828125 53.214844 263.074219 51.21875 266.367188 45.894531 C 269.660156 51.21875 276.902344 53.214844 277.871094 58.359375 C 278.832031 63.460938 276.246094 65.820312 272.109375 65.835938 C 269.660156 65.84375 268.160156 64.828125 267.332031 63.445312 C 267.691406 68.609375 268.203125 71.417969 272.953125 72.484375 Z M 259.78125 72.484375 " fill-opacity="1" fill-rule="nonzero"/></g><g fill="#000000" fill-opacity="1"><g transform="translate(19.941725, 36.835343)"><g><path d="M 15.890625 -11.09375 C 15.148438 -10.269531 14.296875 -9.648438 13.328125 -9.234375 C 12.367188 -8.828125 11.285156 -8.625 10.078125 -8.625 C 7.628906 -8.625 5.691406 -9.363281 4.265625 -10.84375 C 2.847656 -12.320312 2.140625 -14.347656 2.140625 -16.921875 C 2.140625 -19.429688 2.910156 -21.441406 4.453125 -22.953125 C 5.992188 -24.460938 8.050781 -25.21875 10.625 -25.21875 C 13.425781 -25.21875 15.578125 -24.171875 17.078125 -22.078125 C 18.578125 -19.992188 19.328125 -17.019531 19.328125 -13.15625 C 19.328125 -8.820312 18.4375 -5.460938 16.65625 -3.078125 C 14.875 -0.703125 12.367188 0.484375 9.140625 0.484375 C 8.265625 0.484375 7.34375 0.398438 6.375 0.234375 C 5.414062 0.0664062 4.4375 -0.179688 3.4375 -0.515625 L 3.4375 -4.625 L 5.296875 -4.625 C 5.429688 -3.507812 5.859375 -2.648438 6.578125 -2.046875 C 7.296875 -1.453125 8.257812 -1.15625 9.46875 -1.15625 C 11.613281 -1.15625 13.210938 -1.960938 14.265625 -3.578125 C 15.316406 -5.203125 15.859375 -7.707031 15.890625 -11.09375 Z M 10.5 -23.5625 C 8.925781 -23.5625 7.722656 -22.988281 6.890625 -21.84375 C 6.054688 -20.707031 5.640625 -19.066406 5.640625 -16.921875 C 5.640625 -14.773438 6.054688 -13.125 6.890625 -11.96875 C 7.722656 -10.820312 8.925781 -10.25 10.5 -10.25 C 12.070312 -10.25 13.273438 -10.800781 14.109375 -11.90625 C 14.941406 -13.019531 15.359375 -14.625 15.359375 -16.71875 C 15.359375 -18.914062 14.9375 -20.601562 14.09375 -21.78125 C 13.257812 -22.96875 12.0625 -23.5625 10.5 -23.5625 Z M 10.5 -23.5625 "/></g></g></g><g clip-path="url(#8c570ac92a)"><path fill="#000000" d="M 21.007812 84.226562 C 27.804688 82.699219 28.535156 78.683594 29.046875 71.292969 C 27.867188 73.265625 25.71875 74.722656 22.214844 74.710938 C 16.453125 74.691406 12.59375 71.308594 13.96875 64.007812 C 15.351562 56.644531 25.71875 53.792969 30.433594 46.167969 C 35.144531 53.792969 45.511719 56.644531 46.898438 64.007812 C 48.269531 71.308594 44.570312 74.691406 38.652344 74.710938 C 35.144531 74.722656 33 73.265625 31.816406 71.292969 C 32.332031 78.679688 33.0625 82.699219 39.859375 84.226562 Z M 21.007812 84.226562 " fill-opacity="1" fill-rule="nonzero"/></g><g clip-path="url(#de81faa0e2)"><path stroke-linecap="butt" transform="matrix(0.746195, 0, 0, 0.746195, 30.637603, 45.234836)" fill="none" stroke-linejoin="miter" d="M -0.00118541 -0.000618015 L 316.102365 -0.000618015 L 316.102365 449.639721 L -0.00118541 449.639721 Z M -0.00118541 -0.000618015 " stroke="#000000" stroke-width="6" stroke-opacity="1" stroke-miterlimit="4"/></g><g clip-path="url(#b6cc86ae3d)"><path fill="#010101" d="M 241.878906 144.578125 C 241.878906 144.578125 240.605469 143.765625 240.953125 145.503906 C 241.757812 149.539062 240.835938 154.570312 240.402344 158.589844 C 239.78125 164.355469 238.277344 170.035156 235.480469 175.140625 C 232.589844 180.417969 228.199219 185.839844 222.535156 188.246094 C 222.535156 188.246094 219.292969 189.171875 220.566406 185.8125 C 221.882812 182.335938 223.40625 179.296875 226.105469 176.683594 C 228.613281 174.253906 231.578125 172.195312 233.40625 169.15625 C 234.660156 167.070312 236.980469 163.761719 237.050781 161.261719 C 237.101562 159.386719 235.347656 161.304688 234.894531 161.863281 C 233.804688 163.203125 233.441406 164.898438 232.519531 166.332031 C 230.6875 169.199219 227.160156 172.679688 223.65625 173.363281 C 225.667969 171.425781 227.484375 169.28125 228.886719 167.027344 C 232.519531 161.210938 233.796875 154.148438 233.316406 147.375 C 233.222656 146.089844 233.078125 137.039062 230.390625 137.417969 C 228.964844 137.625 229.957031 140.828125 230.011719 141.671875 C 230.1875 144.273438 229.921875 146.601562 229.515625 149.152344 C 228.515625 155.402344 226.707031 161.828125 222.675781 166.882812 C 221.863281 167.90625 220.804688 169.375 219.640625 170.523438 C 219.640625 166.695312 217.554688 154.191406 214.3125 150.71875 C 214.3125 150.71875 212.386719 149.664062 213.210938 153.148438 C 215.050781 160.960938 215.125 167.480469 214.269531 172.828125 C 208.207031 173.035156 206.601562 164.796875 206.203125 158.710938 C 205.914062 154.300781 207.808594 150.105469 209.742188 146.261719 C 210.394531 144.960938 211.074219 143.632812 212.050781 142.542969 C 213.136719 141.328125 215.027344 140.59375 215.4375 138.878906 C 215.839844 137.230469 214.0625 137.710938 213.007812 138.105469 C 211.207031 138.773438 209.664062 139.996094 208.453125 141.472656 C 206.03125 144.429688 204.070312 147.777344 202.613281 151.296875 C 200.410156 156.625 195.429688 151.179688 195.429688 151.179688 C 193.761719 149.253906 192.652344 146.800781 191.960938 144.367188 C 190.699219 139.917969 190.226562 135.367188 190.308594 130.746094 C 190.335938 129.203125 191.28125 127.070312 190.957031 125.585938 C 190.664062 124.25 189.769531 124.707031 189.085938 125.617188 C 188.128906 126.882812 187.855469 128.488281 187.582031 130.007812 C 187.226562 132.027344 187.476562 134.15625 186.464844 136.007812 C 185.65625 137.492188 183.085938 138.617188 181.53125 137.398438 C 178.609375 135.105469 178.011719 131.023438 178.109375 127.535156 C 178.152344 125.863281 178.335938 124.261719 178.578125 122.601562 C 178.75 121.398438 179.835938 119.820312 179.542969 118.597656 C 179.132812 116.882812 177.75 118.066406 177.183594 119.050781 C 175.730469 121.589844 175.625 125.386719 175.394531 128.246094 C 175.164062 131.144531 173.074219 131.375 171.453125 129.289062 C 170.046875 127.476562 171.019531 123.410156 171.300781 121.378906 C 171.496094 119.988281 173.953125 113.558594 172.503906 112.667969 C 171.691406 112.171875 170.316406 114.472656 170.019531 115.039062 C 169.269531 116.4375 168.808594 118.011719 168.316406 119.515625 C 165.917969 126.777344 166.492188 134.601562 169.253906 141.683594 C 170.601562 145.140625 167.894531 148.527344 164.472656 145.871094 C 162.757812 144.546875 161.316406 142.8125 160.234375 140.894531 C 162.6875 137.621094 165.566406 133.472656 160.5625 134.734375 C 159.773438 134.933594 159.054688 135.5625 158.417969 136.375 C 157.855469 134.382812 157.253906 132.242188 157.34375 130.179688 C 157.390625 129.007812 157.730469 127.859375 157.816406 126.683594 C 157.847656 126.285156 157.957031 124.808594 157.125 125.480469 C 156.847656 125.703125 156.605469 126.089844 156.421875 126.445312 C 154.128906 130.921875 154.410156 136.792969 155.226562 142.191406 C 154.136719 144.457031 153.109375 146.765625 151.6875 148.84375 C 149.859375 151.515625 146.457031 155.394531 143.019531 155.753906 C 139.71875 156.105469 141.28125 151.691406 141.28125 151.691406 C 145.105469 141.195312 144.410156 127.785156 142.84375 123.441406 C 142.375 122.136719 141.007812 120.515625 139.976562 122.496094 C 139.554688 123.3125 139.980469 124.605469 140.046875 125.46875 C 140.425781 130.558594 139.335938 135.75 138.160156 140.675781 C 137.390625 143.90625 136.574219 148.371094 134.203125 150.890625 C 131.1875 154.097656 127.929688 163.351562 126.011719 169.320312 C 117.679688 170.542969 111.253906 156.390625 111.0625 155.964844 C 111.058594 155.957031 111.058594 155.953125 111.058594 155.953125 C 111.03125 155.570312 111.003906 155.179688 110.984375 154.789062 C 110.253906 141.90625 113.316406 127.246094 113.65625 126.566406 C 114.207031 125.460938 116.570312 118.5625 113.65625 121.871094 C 109.832031 126.21875 107.398438 137.6875 106.878906 142.203125 C 106.371094 146.609375 103.296875 145.285156 103.144531 145.214844 L 103.140625 145.214844 C 96.828125 134.050781 98.539062 123.09375 98.539062 123.09375 C 98.375 122.035156 98.410156 120.9375 98.445312 119.875 C 98.632812 114.316406 99.15625 108.429688 100.507812 103.027344 C 100.636719 102.511719 101.125 101.488281 100.589844 101.0625 C 100.1875 100.742188 99.535156 101.019531 99.179688 101.269531 C 98.003906 102.089844 97.519531 103.835938 97.03125 105.105469 C 96.417969 106.707031 95.941406 108.398438 95.796875 110.109375 C 95.730469 110.863281 95.945312 113.371094 94.839844 113.597656 C 94.042969 113.761719 93.777344 112.230469 93.722656 111.695312 C 93.609375 110.609375 93.476562 109.285156 93.734375 108.210938 C 94.253906 106.007812 93.039062 106.242188 93.039062 106.242188 C 92.359375 106.714844 91.945312 107.488281 91.691406 108.25 C 90.449219 111.964844 91.476562 115.992188 90.195312 119.714844 C 89.808594 120.847656 88.878906 122.289062 88.167969 120.433594 C 87.488281 118.640625 87.523438 116.34375 87.707031 114.464844 C 87.941406 112.144531 88.054688 110.640625 86.4375 111.914062 C 84.816406 113.191406 83.65625 121.761719 83.65625 124.078125 C 83.65625 125.074219 83.535156 126.546875 82.734375 127.25 C 81.5625 128.277344 81.171875 123.902344 81.023438 123.226562 C 80.578125 121.222656 80.230469 119.320312 80.097656 117.269531 C 80.070312 116.847656 80.109375 116.035156 79.53125 116.070312 C 79.128906 116.101562 78.730469 116.835938 78.558594 117.128906 C 77.402344 119.097656 77.285156 122.804688 77.863281 126.390625 C 78.445312 129.984375 76.707031 131.839844 76.128906 130.796875 C 75.546875 129.753906 73.929688 125.582031 73.695312 123.613281 C 73.460938 121.644531 72.03125 123.1875 71.957031 123.613281 C 66.519531 153.445312 83.277344 173.484375 100.773438 185.898438 C 96.105469 188.023438 87.6875 190.589844 77.167969 186.972656 C 65.050781 182.808594 53.546875 193.34375 52.539062 211.125 C 52.523438 211.402344 52.507812 211.675781 52.5 211.957031 C 52.425781 213.878906 52.472656 215.882812 52.65625 217.960938 C 52.65625 217.964844 52.65625 217.964844 52.65625 217.96875 C 52.828125 219.925781 53.117188 221.953125 53.539062 224.039062 C 58.636719 249.289062 79.023438 290.757812 86.4375 295.160156 C 93.847656 299.558594 100.800781 298.402344 104.503906 288.902344 C 108.210938 279.40625 112.921875 276.394531 119.253906 276.394531 C 121.511719 276.394531 124.78125 273.886719 127.925781 269.988281 C 127.738281 273.171875 126.945312 276.941406 124.890625 281.257812 C 120.492188 290.523438 129.527344 305.582031 135.199219 313.925781 C 140.875 322.261719 147.363281 311.839844 146.898438 301.644531 C 146.503906 293.003906 147.113281 287.363281 151.117188 283.160156 C 151.832031 282.40625 152.664062 281.695312 153.617188 281.027344 C 156.992188 278.652344 160.316406 273.445312 162.660156 269.152344 C 162.957031 268.609375 163.238281 268.082031 163.5 267.578125 C 165.9375 270.460938 168.667969 272.902344 170.816406 275.121094 C 173.617188 278.007812 176.761719 278.25 179.132812 277.8125 C 181.242188 277.425781 182.742188 276.511719 182.859375 276.4375 C 182.863281 276.4375 182.863281 276.4375 182.863281 276.4375 C 186.375 277.949219 190.523438 278.753906 194.023438 278.59375 C 201.589844 278.246094 201.398438 269.039062 200.101562 265.5625 C 198.804688 262.089844 199.140625 260.351562 199.140625 260.351562 C 204 241.238281 189.234375 233.941406 181.589844 226.644531 C 173.945312 219.347656 176.03125 207.59375 176.03125 207.59375 C 175.996094 207.445312 175.964844 207.304688 175.925781 207.160156 C 179.1875 205.929688 184.144531 204.535156 190.105469 204.40625 C 200.992188 204.171875 225.433594 199.484375 234.695312 185.582031 C 240.582031 176.757812 243.847656 164.84375 243.632812 154.238281 C 243.566406 151.011719 243.171875 147.566406 241.878906 144.578125 Z M 152.054688 155.582031 C 153.851562 153.21875 155.132812 150.710938 156.289062 148.089844 C 156.3125 148.21875 156.335938 148.339844 156.363281 148.464844 C 157.175781 152.640625 158.402344 156.765625 159.96875 160.753906 C 158.683594 161.707031 157.46875 162.578125 156.398438 163.226562 C 152.730469 165.453125 149.445312 165.136719 147.1875 164.097656 C 144.929688 163.054688 149.273438 159.234375 152.054688 155.582031 Z M 181.417969 196.066406 C 177.5625 195.976562 173.570312 196.949219 170.609375 197.910156 C 159.613281 186.300781 137 182.441406 137 182.441406 C 137.808594 181.515625 138.625 180.726562 139.238281 180.183594 C 141.878906 177.820312 143.679688 174.671875 146.367188 172.355469 C 149.925781 169.289062 154.542969 169.453125 158.605469 167.558594 C 159.824219 166.988281 160.960938 166.296875 162.039062 165.53125 C 162.453125 166.410156 162.882812 167.273438 163.332031 168.128906 C 166.089844 173.414062 169.375 178.554688 173.109375 183.207031 C 175.804688 186.558594 178.6875 189.875 181.8125 192.832031 C 183.019531 193.980469 184.246094 195.234375 185.59375 196.226562 C 184.207031 196.167969 182.8125 196.097656 181.417969 196.066406 " fill-opacity="1" fill-rule="nonzero"/></g></svg>