<svg xmlns="http://www.w3.org/2000/svg" width="234" height="333"><g transform="translate(0 -719.4)"><rect width="233.2" height="332.2" x=".4" y="719.7" rx="8.9" ry="8.9" style="fill:#fff;fill-opacity:1;stroke:gray;stroke-width:.75590551;stroke-linecap:butt;stroke-linejoin:miter;stroke-miterlimit:4;stroke-dasharray:none;stroke-opacity:1"/><path d="M2406.7 536.5h85.3v295.7h-85.3z" style="fill:#000;fill-opacity:1;stroke:none" transform="matrix(.05661 0 0 .05676 -21.7 766.7)"/><path d="M2917.9 395.1a250.2 250.2 0 1 1-468.5 138.5 250.2 250.2 0 1 1-129-236.4 250.4 250.4 0 0 1 257.3-429.5 250.2 250.2 0 0 1-.4 430 250.8 250.8 0 0 1 340.6 97.4z" style="fill:#000;fill-opacity:1;stroke:none" transform="matrix(.05661 0 0 .05676 -21.7 766.7)"/><path d="M2406.7 536.5h85.3v295.7h-85.3z" style="fill:#000;fill-opacity:1;stroke:none" transform="matrix(.01887 0 0 .01892 -29.2 764.8)"/><path d="M2917.9 395.1a250.2 250.2 0 1 1-468.5 138.5 250.2 250.2 0 1 1-129-236.4 250.4 250.4 0 0 1 257.3-429.5 250.2 250.2 0 0 1-.4 430 250.8 250.8 0 0 1 340.6 97.4z" style="fill:#000;fill-opacity:1;stroke:none" transform="matrix(.01887 0 0 .01892 -29.2 764.8)"/><path d="M2406.7 536.5h85.3v295.7h-85.3z" style="fill:#000;fill-opacity:1;stroke:none" transform="matrix(.01887 0 0 -.01892 171.4 1007)"/><path d="M2917.9 395.1a250.2 250.2 0 1 1-468.5 138.5 250.2 250.2 0 1 1-129-236.4 250.4 250.4 0 0 1 257.3-429.5 250.2 250.2 0 0 1-.4 430 250.8 250.8 0 0 1 340.6 97.4z" style="fill:#000;fill-opacity:1;stroke:none" transform="matrix(.01887 0 0 -.01892 171.4 1007)"/><path d="M2406.7 536.5h85.3v295.7h-85.3z" style="fill:#000;fill-opacity:1;stroke:none" transform="matrix(.05661 0 0 .05676 -21.7 867)"/><path d="M2917.9 395.1a250.2 250.2 0 1 1-468.5 138.5 250.2 250.2 0 1 1-129-236.4 250.4 250.4 0 0 1 257.3-429.5 250.2 250.2 0 0 1-.4 430 250.8 250.8 0 0 1 340.6 97.4z" style="fill:#000;fill-opacity:1;stroke:none" transform="matrix(.05661 0 0 .05676 -21.7 867)"/><path d="M2406.7 536.5h85.3v295.7h-85.3z" style="fill:#000;fill-opacity:1;stroke:none" transform="matrix(.05661 0 0 -.05676 -21.7 1005)"/><path d="M2917.9 395.1a250.2 250.2 0 1 1-468.5 138.5 250.2 250.2 0 1 1-129-236.4 250.4 250.4 0 0 1 257.3-429.5 250.2 250.2 0 0 1-.4 430 250.8 250.8 0 0 1 340.6 97.4z" style="fill:#000;fill-opacity:1;stroke:none" transform="matrix(.05661 0 0 -.05676 -21.7 1005)"/><g style="font-style:normal;font-variant:normal;font-weight:700;font-stretch:normal;font-size:3.77913785px;line-height:0%;font-family:'Levenim MT';-inkscape-font-specification:'Sans Bold';letter-spacing:0;word-spacing:0;fill:#000;fill-opacity:1;stroke:none;stroke-width:.31492817"><path d="M26.2 754.5q0 4-2.8 6.1-2.5 2-6.6 2-9.3 0-9.3-8.8l.1-.8q.3-.2.7-.2h2.5q.4 0 .7.2l.2.6q.3 2.4 1.3 3.5 1.2 1.3 3.6 1.3 2 0 3.1-1.1 1.3-1.1 1.3-3 0-4.1-4.4-4.8-.5 0-.8-.2-.2-.4-.2-3.2 0-.4.2-.7l3-.9q1.5-.7 1.5-3 0-3.3-4-3.3-1.9 0-2.9.9-.5.4-1.1 1.6-.4 1-.9 1H9q-1 0-1-1 0-3.2 2.6-5.1 2.3-1.7 5.7-1.7 3.8 0 6.3 1.6 2.8 2 2.8 5.6 0 4.5-4.3 6 5.2 2.3 5.2 7.4z" aria-label="3" style="font-size:40.00067139px;line-height:1.25;stroke-width:.31492817" transform="scale(1.00959 .9905)"/></g><g style="font-style:normal;font-variant:normal;font-weight:700;font-stretch:normal;font-size:3.77913785px;line-height:0%;font-family:'Levenim MT';-inkscape-font-specification:'Sans Bold';letter-spacing:0;word-spacing:0;fill:#000;fill-opacity:1;stroke:none;stroke-width:.31492817"><path d="M-205.6-1034.2q0 4-2.8 6-2.5 2-6.6 2-9.3 0-9.3-8.7l.1-.8q.3-.2.7-.2h2.5q.4 0 .7.2l.2.6q.3 2.4 1.3 3.5 1.2 1.2 3.6 1.2 2 0 3.2-1 1.3-1.1 1.3-3 0-4.1-4.5-4.8l-.8-.3q-.2-.3-.2-3.1 0-.4.2-.7l3-1q1.5-.6 1.5-2.9 0-3.4-4-3.4-1.8 0-2.9 1-.5.4-1.1 1.6-.4.9-.9.9h-2.5q-1 0-1-.9 0-3.2 2.6-5.1 2.3-1.7 5.7-1.7 3.9 0 6.3 1.6 2.9 1.9 2.9 5.6 0 4.4-4.4 6 5.2 2.3 5.2 7.4z" aria-label="3" style="font-size:40.00067139px;line-height:1.25;stroke-width:.31492817" transform="scale(-1.00959 -.9905)"/></g></g></svg>