<svg xmlns="http://www.w3.org/2000/svg" width="234" height="333"><g transform="translate(0 -719.4)"><rect width="233.2" height="332.2" x=".4" y="719.7" rx="8.9" ry="8.9" style="fill:#fff;fill-opacity:1;stroke:gray;stroke-width:.75599998;stroke-linecap:butt;stroke-linejoin:miter;stroke-miterlimit:4;stroke-dasharray:none;stroke-opacity:1"/><g style="stroke-width:3.18132734"><path d="M2406.7 536.5h85.3v295.7h-85.3z" style="fill:#000;fill-opacity:1;stroke:none;stroke-width:3.18132734" transform="matrix(.05649 0 0 .05667 37 867)"/><path d="M2917.9 395.1a250.2 250.2 0 1 1-468.5 138.5 250.2 250.2 0 1 1-129-236.4 250.4 250.4 0 0 1 257.3-429.5 250.2 250.2 0 0 1-.4 430 250.8 250.8 0 0 1 340.6 97.4z" style="fill:#000;fill-opacity:1;stroke:none;stroke-width:3.18132734" transform="matrix(.05649 0 0 .05667 37 867)"/></g><g style="stroke-width:3.18132734"><path d="M2406.7 536.5h85.3v295.7h-85.3z" style="fill:#000;fill-opacity:1;stroke:none;stroke-width:3.18132734" transform="matrix(.05649 0 0 .05667 -79.7 767)"/><path d="M2917.9 395.1a250.2 250.2 0 1 1-468.5 138.5 250.2 250.2 0 1 1-129-236.4 250.4 250.4 0 0 1 257.3-429.5 250.2 250.2 0 0 1-.4 430 250.8 250.8 0 0 1 340.6 97.4z" style="fill:#000;fill-opacity:1;stroke:none;stroke-width:3.18132734" transform="matrix(.05649 0 0 .05667 -79.7 767)"/></g><g style="stroke-width:3.18132734"><path d="M2406.7 536.5h85.3v295.7h-85.3z" style="fill:#000;fill-opacity:1;stroke:none;stroke-width:3.18132734" transform="matrix(.01883 0 0 .0189 -29 765)"/><path d="M2917.9 395.1a250.2 250.2 0 1 1-468.5 138.5 250.2 250.2 0 1 1-129-236.4 250.4 250.4 0 0 1 257.3-429.5 250.2 250.2 0 0 1-.4 430 250.8 250.8 0 0 1 340.6 97.4z" style="fill:#000;fill-opacity:1;stroke:none;stroke-width:3.18132734" transform="matrix(.01883 0 0 .0189 -29 765)"/></g><g style="font-style:normal;font-variant:normal;font-weight:700;font-stretch:normal;font-size:3.77201033px;line-height:0%;font-family:'Levenim MT';-inkscape-font-specification:'Sans Bold';letter-spacing:0;word-spacing:0;fill:#000;fill-opacity:1;stroke:none;stroke-width:.99999994"><path d="m25.8 753-7.7 24q-.3 1-1.5 1h-3q-1 0-1-.6t3.9-11.6l4.5-12.6h-9.1q0 .9-.4 2.6l-.6.2H8.5q-1 0-1-.8l.7-6.4h17.6Z" aria-label="7" style="font-size:41.88299561px;line-height:1.25;stroke-width:.99999994" transform="scale(1.02988 .971)"/></g><g style="stroke-width:3.18132734"><path d="M2406.7 536.5h85.3v295.7h-85.3z" style="fill:#000;fill-opacity:1;stroke:none;stroke-width:3.18132734" transform="matrix(.01883 0 0 -.0189 171.2 1006.7)"/><path d="M2917.9 395.1a250.2 250.2 0 1 1-468.5 138.5 250.2 250.2 0 1 1-129-236.4 250.4 250.4 0 0 1 257.3-429.5 250.2 250.2 0 0 1-.4 430 250.8 250.8 0 0 1 340.6 97.4z" style="fill:#000;fill-opacity:1;stroke:none;stroke-width:3.18132734" transform="matrix(.01883 0 0 -.0189 171.2 1006.7)"/></g><g style="font-style:normal;font-variant:normal;font-weight:700;font-stretch:normal;font-size:3.77201033px;line-height:0%;font-family:'Levenim MT';-inkscape-font-specification:'Sans Bold';letter-spacing:0;word-spacing:0;fill:#000;fill-opacity:1;stroke:none;stroke-width:.99999994"><path d="m-201.4-1071.7-7.7 24.2q-.3 1-1.5 1h-3q-1 0-1-.7 0-.5 3.9-11.5l4.4-12.7h-9q0 .9-.4 2.6l-.6.2h-2.4q-1 0-1-.7l.6-6.5h17.7z" aria-label="7" style="font-size:41.88299561px;line-height:1.25;stroke-width:.99999994" transform="scale(-1.02988 -.971)"/></g><g style="stroke-width:3.18132734"><path d="M2406.7 536.5h85.3v295.7h-85.3z" style="fill:#000;fill-opacity:1;stroke:none;stroke-width:3.18132734" transform="matrix(.05649 0 0 .05667 -21.4 817)"/><path d="M2917.9 395.1a250.2 250.2 0 1 1-468.5 138.5 250.2 250.2 0 1 1-129-236.4 250.4 250.4 0 0 1 257.3-429.5 250.2 250.2 0 0 1-.4 430 250.8 250.8 0 0 1 340.6 97.4z" style="fill:#000;fill-opacity:1;stroke:none;stroke-width:3.18132734" transform="matrix(.05649 0 0 .05667 -21.4 817)"/></g><g style="stroke-width:3.18132734"><path d="M2406.7 536.5h85.3v295.7h-85.3z" style="fill:#000;fill-opacity:1;stroke:none;stroke-width:3.18132734" transform="matrix(.05649 0 0 .05667 37 767)"/><path d="M2917.9 395.1a250.2 250.2 0 1 1-468.5 138.5 250.2 250.2 0 1 1-129-236.4 250.4 250.4 0 0 1 257.3-429.5 250.2 250.2 0 0 1-.4 430 250.8 250.8 0 0 1 340.6 97.4z" style="fill:#000;fill-opacity:1;stroke:none;stroke-width:3.18132734" transform="matrix(.05649 0 0 .05667 37 767)"/></g><g style="stroke-width:3.18132734"><path d="M2406.7 536.5h85.3v295.7h-85.3z" style="fill:#000;fill-opacity:1;stroke:none;stroke-width:3.18132734" transform="matrix(.05649 0 0 .05667 -79.7 867)"/><path d="M2917.9 395.1a250.2 250.2 0 1 1-468.5 138.5 250.2 250.2 0 1 1-129-236.4 250.4 250.4 0 0 1 257.3-429.5 250.2 250.2 0 0 1-.4 430 250.8 250.8 0 0 1 340.6 97.4z" style="fill:#000;fill-opacity:1;stroke:none;stroke-width:3.18132734" transform="matrix(.05649 0 0 .05667 -79.7 867)"/></g><g style="stroke-width:3.18132734"><path d="M2406.7 536.5h85.3v295.7h-85.3z" style="fill:#000;fill-opacity:1;stroke:none;stroke-width:3.18132734" transform="matrix(.05649 0 0 -.05667 -79.7 1004.8)"/><path d="M2917.9 395.1a250.2 250.2 0 1 1-468.5 138.5 250.2 250.2 0 1 1-129-236.4 250.4 250.4 0 0 1 257.3-429.5 250.2 250.2 0 0 1-.4 430 250.8 250.8 0 0 1 340.6 97.4z" style="fill:#000;fill-opacity:1;stroke:none;stroke-width:3.18132734" transform="matrix(.05649 0 0 -.05667 -79.7 1004.8)"/></g><g style="stroke-width:3.18132734"><path d="M2406.7 536.5h85.3v295.7h-85.3z" style="fill:#000;fill-opacity:1;stroke:none;stroke-width:3.18132734" transform="matrix(.05649 0 0 -.05667 37 1004.8)"/><path d="M2917.9 395.1a250.2 250.2 0 1 1-468.5 138.5 250.2 250.2 0 1 1-129-236.4 250.4 250.4 0 0 1 257.3-429.5 250.2 250.2 0 0 1-.4 430 250.8 250.8 0 0 1 340.6 97.4z" style="fill:#000;fill-opacity:1;stroke:none;stroke-width:3.18132734" transform="matrix(.05649 0 0 -.05667 37 1004.8)"/></g></g></svg>