<svg xmlns="http://www.w3.org/2000/svg" width="234" height="333"><g transform="translate(0 -719.4)"><rect width="233.2" height="332.2" x=".4" y="719.7" rx="8.9" ry="8.9" style="fill:#fff;fill-opacity:1;stroke:gray;stroke-width:.75599998;stroke-linecap:butt;stroke-linejoin:miter;stroke-miterlimit:4;stroke-dasharray:none;stroke-opacity:1"/><g style="stroke-width:3.18132734"><path d="M2406.7 536.5h85.3v295.7h-85.3z" style="fill:#000;fill-opacity:1;stroke:none;stroke-width:3.18132734" transform="matrix(.05649 0 0 .05667 -79.7 833.7)"/><path d="M2917.9 395.1a250.2 250.2 0 1 1-468.5 138.5 250.2 250.2 0 1 1-129-236.4 250.4 250.4 0 0 1 257.3-429.5 250.2 250.2 0 0 1-.4 430 250.8 250.8 0 0 1 340.6 97.4z" style="fill:#000;fill-opacity:1;stroke:none;stroke-width:3.18132734" transform="matrix(.05649 0 0 .05667 -79.7 833.7)"/></g><g style="stroke-width:3.18132734"><path d="M2406.7 536.5h85.3v295.7h-85.3z" style="fill:#000;fill-opacity:1;stroke:none;stroke-width:3.18132734" transform="matrix(.01883 0 0 .0189 -29 765)"/><path d="M2917.9 395.1a250.2 250.2 0 1 1-468.5 138.5 250.2 250.2 0 1 1-129-236.4 250.4 250.4 0 0 1 257.3-429.5 250.2 250.2 0 0 1-.4 430 250.8 250.8 0 0 1 340.6 97.4z" style="fill:#000;fill-opacity:1;stroke:none;stroke-width:3.18132734" transform="matrix(.01883 0 0 .0189 -29 765)"/></g><g style="stroke-width:3.18132734"><path d="M2406.7 536.5h85.3v295.7h-85.3z" style="fill:#000;fill-opacity:1;stroke:none;stroke-width:3.18132734" transform="matrix(.01883 0 0 -.0189 170.7 1006.7)"/><path d="M2917.9 395.1a250.2 250.2 0 1 1-468.5 138.5 250.2 250.2 0 1 1-129-236.4 250.4 250.4 0 0 1 257.3-429.5 250.2 250.2 0 0 1-.4 430 250.8 250.8 0 0 1 340.6 97.4z" style="fill:#000;fill-opacity:1;stroke:none;stroke-width:3.18132734" transform="matrix(.01883 0 0 -.0189 170.7 1006.7)"/></g><g style="stroke-width:3.18132734"><path d="M2406.7 536.5h85.3v295.7h-85.3z" style="fill:#000;fill-opacity:1;stroke:none;stroke-width:3.18132734" transform="matrix(.05649 0 0 -.05667 -79.7 1004.8)"/><path d="M2917.9 395.1a250.2 250.2 0 1 1-468.5 138.5 250.2 250.2 0 1 1-129-236.4 250.4 250.4 0 0 1 257.3-429.5 250.2 250.2 0 0 1-.4 430 250.8 250.8 0 0 1 340.6 97.4z" style="fill:#000;fill-opacity:1;stroke:none;stroke-width:3.18132734" transform="matrix(.05649 0 0 -.05667 -79.7 1004.8)"/></g><g style="stroke-width:3.18132734"><path d="M2406.7 536.5h85.3v295.7h-85.3z" style="fill:#000;fill-opacity:1;stroke:none;stroke-width:3.18132734" transform="matrix(.05649 0 0 .05667 -79.7 767)"/><path d="M2917.9 395.1a250.2 250.2 0 1 1-468.5 138.5 250.2 250.2 0 1 1-129-236.4 250.4 250.4 0 0 1 257.3-429.5 250.2 250.2 0 0 1-.4 430 250.8 250.8 0 0 1 340.6 97.4z" style="fill:#000;fill-opacity:1;stroke:none;stroke-width:3.18132734" transform="matrix(.05649 0 0 .05667 -79.7 767)"/></g><g style="stroke-width:3.18132734"><path d="M2406.7 536.5h85.3v295.7h-85.3z" style="fill:#000;fill-opacity:1;stroke:none;stroke-width:3.18132734" transform="matrix(.05649 0 0 .05667 -21.4 867)"/><path d="M2917.9 395.1a250.2 250.2 0 1 1-468.5 138.5 250.2 250.2 0 1 1-129-236.4 250.4 250.4 0 0 1 257.3-429.5 250.2 250.2 0 0 1-.4 430 250.8 250.8 0 0 1 340.6 97.4z" style="fill:#000;fill-opacity:1;stroke:none;stroke-width:3.18132734" transform="matrix(.05649 0 0 .05667 -21.4 867)"/></g><g style="stroke-width:3.18132734"><path d="M2406.7 536.5h85.3v295.7h-85.3z" style="fill:#000;fill-opacity:1;stroke:none;stroke-width:3.18132734" transform="matrix(.05649 0 0 .05667 37 767)"/><path d="M2917.9 395.1a250.2 250.2 0 1 1-468.5 138.5 250.2 250.2 0 1 1-129-236.4 250.4 250.4 0 0 1 257.3-429.5 250.2 250.2 0 0 1-.4 430 250.8 250.8 0 0 1 340.6 97.4z" style="fill:#000;fill-opacity:1;stroke:none;stroke-width:3.18132734" transform="matrix(.05649 0 0 .05667 37 767)"/></g><g style="stroke-width:3.18132734"><path d="M2406.7 536.5h85.3v295.7h-85.3z" style="fill:#000;fill-opacity:1;stroke:none;stroke-width:3.18132734" transform="matrix(.05649 0 0 .05667 37 833.7)"/><path d="M2917.9 395.1a250.2 250.2 0 1 1-468.5 138.5 250.2 250.2 0 1 1-129-236.4 250.4 250.4 0 0 1 257.3-429.5 250.2 250.2 0 0 1-.4 430 250.8 250.8 0 0 1 340.6 97.4z" style="fill:#000;fill-opacity:1;stroke:none;stroke-width:3.18132734" transform="matrix(.05649 0 0 .05667 37 833.7)"/></g><g style="stroke-width:3.18132734"><path d="M2406.7 536.5h85.3v295.7h-85.3z" style="fill:#000;fill-opacity:1;stroke:none;stroke-width:3.18132734" transform="matrix(.05649 0 0 -.05667 -79.7 938)"/><path d="M2917.9 395.1a250.2 250.2 0 1 1-468.5 138.5 250.2 250.2 0 1 1-129-236.4 250.4 250.4 0 0 1 257.3-429.5 250.2 250.2 0 0 1-.4 430 250.8 250.8 0 0 1 340.6 97.4z" style="fill:#000;fill-opacity:1;stroke:none;stroke-width:3.18132734" transform="matrix(.05649 0 0 -.05667 -79.7 938)"/></g><g style="stroke-width:3.18132734"><path d="M2406.7 536.5h85.3v295.7h-85.3z" style="fill:#000;fill-opacity:1;stroke:none;stroke-width:3.18132734" transform="matrix(.05649 0 0 -.05667 37 1004.8)"/><path d="M2917.9 395.1a250.2 250.2 0 1 1-468.5 138.5 250.2 250.2 0 1 1-129-236.4 250.4 250.4 0 0 1 257.3-429.5 250.2 250.2 0 0 1-.4 430 250.8 250.8 0 0 1 340.6 97.4z" style="fill:#000;fill-opacity:1;stroke:none;stroke-width:3.18132734" transform="matrix(.05649 0 0 -.05667 37 1004.8)"/></g><g style="stroke-width:3.18132734"><path d="M2406.7 536.5h85.3v295.7h-85.3z" style="fill:#000;fill-opacity:1;stroke:none;stroke-width:3.18132734" transform="matrix(.05649 0 0 -.05667 37 938)"/><path d="M2917.9 395.1a250.2 250.2 0 1 1-468.5 138.5 250.2 250.2 0 1 1-129-236.4 250.4 250.4 0 0 1 257.3-429.5 250.2 250.2 0 0 1-.4 430 250.8 250.8 0 0 1 340.6 97.4z" style="fill:#000;fill-opacity:1;stroke:none;stroke-width:3.18132734" transform="matrix(.05649 0 0 -.05667 37 938)"/></g><g style="font-style:normal;font-variant:normal;font-weight:700;font-stretch:normal;font-size:3.77201033px;line-height:0%;font-family:'Levenim MT';-inkscape-font-specification:'Sans Bold';letter-spacing:0;word-spacing:0;fill:#000;fill-opacity:1;stroke:none;stroke-width:.99999994"><path d="M26.9 734.1q0 6-2.2 9.7-2.6 4.8-8.1 4.8-3.3 0-5.4-1.3-2.5-1.6-2.5-4.7 0-.6.9-.6h2.8q.6 0 1 .6.5 1 .9 1.2.7.6 2.3.6 2.5 0 4-2.3 1-2 1.2-4.7-2.3 1.7-5.4 1.7-4 0-6.3-2.8-2.2-2.6-2.2-6.6 0-4.3 2.4-6.7 2.4-2.5 6.7-2.5 9.9 0 9.9 13.6zm-5.3-4.3q0-2-1-3.5-1.3-1.6-3.3-1.6-2.1 0-3.3 1.5-1.1 1.5-1.1 3.6 0 2.2 1 3.6 1.2 1.5 3.4 1.5 2 0 3.3-1.5 1-1.4 1-3.6z" aria-label="9" style="font-size:39.19482803px;line-height:1.25;stroke-width:.99999994" transform="scale(.9908 1.0093)"/></g><g style="font-style:normal;font-variant:normal;font-weight:700;font-stretch:normal;font-size:3.77201033px;line-height:0%;font-family:'Levenim MT';-inkscape-font-specification:'Sans Bold';letter-spacing:0;word-spacing:0;fill:#000;fill-opacity:1;stroke:none;stroke-width:.99999994"><path d="M-209.3-1021.3q0 6-2.1 9.7-2.7 4.7-8.2 4.7-3.3 0-5.4-1.2-2.5-1.6-2.5-4.7 0-.6 1-.6h2.8q.5 0 .9.6.6 1 .9 1.2.8.6 2.3.6 2.5 0 4-2.3 1-2 1.2-4.7-2.3 1.7-5.4 1.7-4 0-6.3-2.8-2.2-2.6-2.2-6.6 0-4.3 2.4-6.7 2.4-2.5 6.7-2.5 9.9 0 9.9 13.6zm-5.2-4.3q0-2-1.2-3.5-1.2-1.7-3.2-1.7t-3.3 1.6q-1.1 1.4-1.1 3.6t1 3.6q1.3 1.5 3.4 1.5 2 0 3.3-1.5 1-1.4 1-3.6z" aria-label="9" style="font-size:39.19482803px;line-height:1.25;stroke-width:.99999994" transform="scale(-.9908 -1.0093)"/></g></g></svg>