<svg xmlns="http://www.w3.org/2000/svg" width="234" height="333"><g transform="translate(0 -719.4)"><rect width="233.2" height="332.2" x=".4" y="719.7" rx="8.9" ry="8.9" style="fill:#fff;fill-opacity:1;stroke:gray;stroke-width:.75590551;stroke-linecap:butt;stroke-linejoin:miter;stroke-miterlimit:4;stroke-dasharray:none;stroke-opacity:1"/><g style="stroke-width:3.18132639"><path d="M2406.7 536.5h85.3v295.7h-85.3z" style="fill:#000;fill-opacity:1;stroke:none;stroke-width:3.18132639" transform="matrix(.01883 0 0 .0189 -29 765)"/><path d="M2917.9 395.1a250.2 250.2 0 1 1-468.5 138.5 250.2 250.2 0 1 1-129-236.4 250.4 250.4 0 0 1 257.3-429.5 250.2 250.2 0 0 1-.4 430 250.8 250.8 0 0 1 340.6 97.4z" style="fill:#000;fill-opacity:1;stroke:none;stroke-width:3.18132639" transform="matrix(.01883 0 0 .0189 -29 765)"/></g><g style="stroke-width:3.18132639"><path d="M2406.7 536.5h85.3v295.7h-85.3z" style="fill:#000;fill-opacity:1;stroke:none;stroke-width:3.18132639" transform="matrix(.01883 0 0 -.0189 170.7 1006.7)"/><path d="M2917.9 395.1a250.2 250.2 0 1 1-468.5 138.5 250.2 250.2 0 1 1-129-236.4 250.4 250.4 0 0 1 257.3-429.5 250.2 250.2 0 0 1-.4 430 250.8 250.8 0 0 1 340.6 97.4z" style="fill:#000;fill-opacity:1;stroke:none;stroke-width:3.18132639" transform="matrix(.01883 0 0 -.0189 170.7 1006.7)"/></g><g style="stroke-width:3.18132639"><path d="M2406.7 536.5h85.3v295.7h-85.3z" style="fill:#000;fill-opacity:1;stroke:none;stroke-width:3.18132639" transform="matrix(.03766 0 0 .03778 -33.6 773.2)"/><path d="M2917.9 395.1a250.2 250.2 0 1 1-468.5 138.5 250.2 250.2 0 1 1-129-236.4 250.4 250.4 0 0 1 257.3-429.5 250.2 250.2 0 0 1-.4 430 250.8 250.8 0 0 1 340.6 97.4z" style="fill:#000;fill-opacity:1;stroke:none;stroke-width:3.18132639" transform="matrix(.03766 0 0 .03778 -33.6 773.2)"/></g><g style="font-style:normal;font-variant:normal;font-weight:700;font-stretch:normal;font-size:3.77201176px;line-height:0%;font-family:'Levenim MT';-inkscape-font-specification:'Sans Bold';letter-spacing:0;word-spacing:0;fill:#000;fill-opacity:1;stroke:none;stroke-width:1"><path d="M23.4 846.6q0 4-.4 5.7-.7 3-3 4.5-1.8 1.2-4.3 1.2-5.2 0-8.8-4.6l4.3-4q2.4 2.7 4.3 2.7 1.4 0 1.8-1.6l.1-2.7v-22h6z" aria-label="J" style="font-size:43.70262146px;line-height:1.25;stroke-width:1" transform="scale(1.13562 .88058)"/></g><g style="font-style:normal;font-variant:normal;font-weight:700;font-stretch:normal;font-size:3.77201176px;line-height:0%;font-family:'Levenim MT';-inkscape-font-specification:'Sans Bold';letter-spacing:0;word-spacing:0;fill:#000;fill-opacity:1;stroke:none;stroke-width:1"><path d="M-182.6-1165.4q0 4-.4 5.7-.7 3-3 4.5-1.8 1.2-4.4 1.2-5.1 0-8.8-4.6l4.3-4q2.4 2.7 4.4 2.7 1.3 0 1.7-1.6.2-.8.2-2.7v-22h6z" aria-label="J" style="font-size:43.70262146px;line-height:1.25;stroke-width:1" transform="scale(-1.13562 -.88058)"/></g><g style="stroke-width:3.18132639"><path d="M202.7 912.7c-3 3.7-15.3-22.7-23.3-42.7-3.9-9.8-9.1-17.9-7-20.5 5.7-5.3 20.5-.5 31.2 7a89.2 89.2 0 0 1 19.5 20.1zM102.3 893l-.3-14.7c9.9-8.2 24-20 38.3-35.2l-37.2.2-2.9-12.8.4-559.2s40.7 38.9 41.8 39c.6 0-.3 232-.3 387.3.3.8-21.5.3-23 10.4-.9 6.7 23.7 5.8 24.1 6.3-.1 69.8-1.2 119.9-.7 119.9 18.7 0 22.6.7 22.6.7-21.1 20-43 36.4-62.8 58zm133-71.7c-3.3-6-8.5-29.2-12.5-28.6-18.4 5.5-24.3-19.4-5.3-20.7 7.2-.5 15.2 8.2 19.7 19 2.2 5.6 0 32.6-2 30.3zm4.1-34.7c-5.4-8.2-10.5-38-20.4-36.3-9 1.9-14.8-5.4-14-11.8 4.7-17.8 37.8-.8 46.4 3.3-4.3 9-10.4 31.4-12 44.8zm-69.2-81.8c-2.3-.9 3.7-9.9 3.8-20.2 0-11.7-5.7-24.7-5-26.6 21.6-15.6 51-32.4 56.4-23.4 5.4 38 2.6 59.2-3.6 87.6l-4.1 2s-6.9-1.2-12-3.6l-26.5-12.4ZM518.5 418c-4-29.3-1-75 4.7-93 2.2-6.1 43.4 19.2 46.7 21.1 3 1.8 4.5 1.5 2.6 9.2-2.1 9-1.8 19.4 1.2 31.3 1.2 4.5 2 6.2-1 8.2-3.2 2-53.1 26.2-54.2 23.2zm-19.4-121.7c.9-1.9 4.3-23.8 5.4-24 3.4-.2 8.5 21.6 17.3 28.8 16.6-1.8 18.5 8.6 15.2 13.6.8 2.2-5.3 7-11 6.5-14.4-5.2-33.7-9.7-26.9-25zM277 278c-4.7-3 4.2-24.9 29.5-19.8 11-18.9 11.6-61.5 16.8-64 8-2.8 88.7-23.3 86.2-5.3-2.6 19.3-6.9 112.3-37.3 135.2-3 3.3 48 35.2 48 35.2s54-30.9 51-30.4c-1.4.3-2.5 26.3-3.3 68.3-.8 40.6 5.6 69.7 19 112.6-1.8 5.2 10.2 31.1 23.5 56.9 15.1 29.2 35.6 58.7 35.6 58.7-35.3-11-67.7-6.8-107.3-19.4l-2.1 144.2s20.5 9.9 24.4 14.4c2 2.3 2.2 5.3 2.4 8.1.8 11-9.2 23.9-28.2 19.6-6 19.2-14.6 64.3-15 64.3-29 3.6-58.3 7.4-87.7 6 0 0 4.4-14.6 6.1-36.4.6-8 1-16.5 2.1-25.6 3.8-33.5 14.5-70 31.8-72.4-3.4 1.2-43.8-31-49.3-33.3a726.2 726.2 0 0 0-52.7 29.2s4-26.5 4.2-54.3c.3-29.9-2-62.9-3-71.4-7.8-49.2-29.5-94-47-127.5-7.1-13.5-17.7-35-17.7-35 26-2.7 55.4-1.4 101.3 11.3l-2.4-144.7c.4 1.3-11.8-4.7-23-11.2-6-3.6-5.3-12.9-6-13.3zm229-32.3c.2-1.5 1-18 1-18 7.2 7.8 13 30.6 14.4 30.2 0 0 9.2-1.3 12 1.5 9.4 9.2.2 20-9.2 18-9.3-2.2-19.5-17-18.2-31.7zm94.8 493.5s-2.1-256.8-1.9-386.2c10-1.5 20.4 4.7 29.8-8.4-5-9.5-19.1-6.6-29.8-8.6l.1-119.2s-17.8-.3-17.8-1.4c0-1 9.2-9 26.6-25.6l7.8-7.8c8.8-8.7 22.7-23.4 23.4-22.8 5.4 4.3 4.9 11.2-20.5 32.9-18.5 15.7-19.2 14.7 1.2 14.5 19.5-.4 22-1.8 19.2 4.6 0 2.7 2.3 4.7 1.8 5.1-.6.5-.7 561.1-.7 561.1zM542 141c.2.4 2.7 1.3 5.5 4 11.2 17 17 38.5 25.8 53.3-18.3 7.5-43.6-9.2-49.7-23.7C516.3 156.2 538 131 542 141z" style="display:inline;fill:#e2cf00;fill-opacity:1;stroke-width:5.67895746" transform="matrix(.31382 0 0 .31485 .3 720.8)"/><path d="m96 116.6.6 815.8 551.4-.2-1.2-815.8ZM278.7 288l2 3.2s-1.4.3-2.3.9c-64 21.7-133.2 70.2-134.4 71.6l1.3-53.7-42.8-41.1.4-145.7 166.2.2 48.7 75.2c-3 19.7-10.6 57.8-10.6 57.8-4.5-1-19.6-2.3-27.8 8.4-3.9 5.2-6 12.2-.7 23.2zM590 456l6.4-7.4-11.2.5 7.7-7.6-12.3-.3 9.6-7.5-13-.2 9.7-7.3-14.2.5 10.1-8h-14l10.5-8-13.7-.2 8.9-7.3-12-.1 13.6-8.8a63 63 0 0 0 21.3 3.9v59zm9.9-102.3c31.6.2 38.4-15.4.2-18 0 0-3-77.3-2-109.3 0-3.9.4-8.3.4-8.3l-20.8-.5s56-55.5 61.2-60c4.5 186.8 3.7 620.5 3.7 620.5L600 738.7l-.3-122.6c-14.2-13.4-22.4-32.8-30.9-45.5l-23.3-10.4 5.5-17.3-2.3-5-7.4 24.5 25.6 11.2 2.7 5-4.4 23.1 24.2 7.7 4.2 5.3-1.6 22.5 5 1.4v4.5l-5-.4-1.8 25.3 6.8 1.8v5.7l-6-.1a38 38 0 0 1-7-6.7l2.4-28-30.6-5.8-2.3-3 5.7-28-32.2-9c3.3 7.4 7.7 14.4 11.3 21.8-4.4 1.2-9 1.4-13.5 2.3-1.2 37.9.1 77.3-1.2 113-26 1.6-13.8-.6-25-.5-4.4 0-8 3.3-8 7.4 0 2.6 1.4 4.8 3.6 6.2l-4.4 1.4-7.8-8.1 16.3-14.4v-4.2l-20.4 18.7 8.8 9.3-5.2 2.5-8-7.8s-17.3 16.2-16.2 16.5c.6.2 1.5 1 2.1 1.8 12.3 24.4-4.5 36-24.7 29.3-5.1 22.4-10 42.7-14.1 66-15.2 5.2-86.2 8.1-87 6.9 0 0-1.8-1.6-1.9-2.4.4-1-2 2.2-2 2.2 0 1.4-62-1.5-92.5-7 0 0-.6-2.6-.3-6.2.5-7.1-.1-7 7-6 14.3.9 25.5-3.6 30-15.3 2.5-6.5 1.3-12.4-2.5-30-3.6-17-3.7-15.1-3.2-17.4.5-2.7 3.7-5.7 8.2-9.1 3.4-2.5 3.8-7.4 1-4.7-1.9 2.5-5.2 3.4-8.2 4.9-7 3.3-6.8 6.6-2.7 20.6 2 6.5 4 13.6 4 14.4.3 2.6-.7 1.5-5-1.1-2.6-1.9-5.7-3.3-8.4-4.8-8.4-4.2-4.7.4 3.4 5.3 6.3 4.4 7.4 6.2 2 4.1a32.2 32.2 0 0 0-20.2 1c-1.2.7-2.1.6-2.3-.5-.3-1.6.8-5.7 1.3-15.2 1.2-24 7.3-49.5 24.7-64.3 24.8-21 65.5-6.7 88 13l2.5-3.5c-15.2-11.7-41.4-26.4-67-23.6a436 436 0 0 1 34.3-21.8c16.2 10.8 28.1 21.6 45.9 33.4l3-2-48.8-35.7-52.7 32 3-42-22.8 18.6 17.6 24-18.7 17.8s3.1-.4-.3 5c-5.3 9.9-8.5 25.7-11 41.8.5 12-2.7 25.3-3.7 35.8a88.6 88.6 0 0 0-7.7-24c-3.7-8.7-5.1-8.7-9.2-7.4-22.4 1.7-12.2-38 14.2-12 1.1 1 3 2.4 3.1 2.2.6-1.6-7-22.6-9.9-27.4-3-5-3-5.8-7.7-5.4-8.6.8-11.5-2-12.3-10.3 1.1-15.8 19.6-9.1 31.5-4.2 1 .7-5.6-5.6-8-7.8-3.2-3-3.7-5-3.7-5l.7-8.4 18.2-15.2-14.9-20.3.6-7.3 16-17.5-17-17-.2-6.1 13.8-16.9-18.4-13.7-1-5.4s12-20.3 11.7-21c-.3-.6-20-13.2-20-13.2l-2-8.5 8.6-21.6-20.5-10.9-3.8-9.7 5.8-20-21.3-9.1-6-11.3 4-21-23.9-6.6-6.3-9.2.8-18.5-5.8-.6v-4.5h6.6s-.5-.7.2-9.8c1.3-15.5 1.4-15-2.6-15.6-8.5-1.4-6.6-6.2 2-5.3l3.5.4c2.3.4 4 3.2 4 3.2l-2 28.7 30.6 4.7 3 3.6-5.2 26.6 28.6 7.7 3.9 6.4-8.2 27.6 28.9 11.8 1.9 5.1-12.3 24.6L254 541l1.7 5.9-14.8 25.3 30.6 20.5s-.9-2-2-5.3l-24.3-16 12.3-21.6s1 1.5 2 1.2c-.6-3.6-1-7.2-1.3-10.8l-12.5-30 40.5-25.1c-17.3-9.7-39.2-9.4-59.3-13 0 0-.9-2.6-2.4-5-5.9-8.6-11.1-19.6-17.6-31 4.8-2 6.9-1.8 12-2.7 0 0 13.2-75.3 23.5-112.2 0 0 1.6.5 2.3.5 5 0 9-3.7 9-8.3a8 8 0 0 0-3-6.3l3.5-.8c1.6 0 8.2 6.7 8.2 6.7l-17 15.5-.2 5.2 21.9-20.6-9-8.8 4.4-2 7.3 7.5 16.4-15.5 4.2 2.6c-5.5 6.7-9.1 8.9-17.4 16.8 4.3 4.7 21 19.6 21 19.6v-5.1l-16.5-14.8 16-14.7 1-1s12.8 5 13.6 5c-5.4-4-15.2-7.6-20.4-11.1-24-13-1.2-40 20.9-33.2.6 2.1 12.2-56.8 11-60 1.1-9.2 1.4-7.9-2-13.1-10.3-21.9-40.2-63.2-40.2-63.2l269.8-1.3c-2.8 5-5.6 9.2-7.8 15 0 0 15.2 14.6 20.7 33.8 3 10.7 7.5 20.7 15.3 27.8.1.2-.3.6-.8.8-21.3 7-45.6-9.9-53-29l-12.3 18.4c5.5.6-81.5-9.2-102.8-6.8 1.8.3 4 1.8 2.8 7.3-2.2 9.5-6 44-6 44-4.4 33.4-7.8 75.4-31.8 89.3 0 0 3.7 3.6 6.8 5.4.1 0-2.8-2.7-2.9-3 0-1 .7-1.6 1.4-2.1 5-3.8 11.2-11.7 11-11.9 19.8 15.9 50.7 29.5 69.4 24 7.3-1.5 10.6-8 14.5-2.7a352.6 352.6 0 0 0-2.9 85.3c3 55.4 16.2 87.2 29.3 126.5a522.8 522.8 0 0 0-41.5 23.6c-.2 2.8 41.9 11.7 58.4 10.2 0 0 3.4 3 3.4 2.4l-.3-.6a7.3 7.3 0 0 0 4-6.5c.1-4-3.5-7.3-7.9-7.3-.8 0-1.6 0-2.3.3l-3.9-8.8 23.4 9.4-7.6 23.6 2.5 5.2 9.3-30.7L506 552l-2-5.5 12.4-23.2-26.7-14.6-1-4.7 14.3-25-25.8-18.3 19-22.5-23.3-18 .2-3 19.4-20.5-20-18.9-.5-7.6 21.8-17.8-18.8-25.1c7.9-4.9 12.2-10.4 17.4-15.9l4.5 1.9-16.6 11.6 17.7 23.7 18.8-15.6-10.1-15.3 6.2 2.6 5.7 8.2-1 8.4-18.6 15.5 16 21.3v4l-17 18.2 20.1 20.6-16.6 19.4 20.8 16.4-.6-5-15.3-11.9 11.8-13.1c.9-8-1-21.5 3.4-27.5-7-6.4-3.3-21.9.2-26.8-6.8-7.5-3-23.7 1.4-24.4-5.2-6-3-18 1.3-22 1.3-.7-18.5-7.3-31-15.3 10.4-17.9 8-34.7 11.3-40.8 4.5 12 10.3 24.8 15.2 34 .6 1 1.7.8 3.3.8 20.7 1.7 18.7 17.5 3.2 21.5 0 0 31.6 21.7 47.6 24.1.2.4 0 1-.5 2a50.2 50.2 0 0 0-4 18.4c-1.1 9.8 4 24.8 4 24.8l-6.6 3.8c-1.3 5.1-8.6 5.2-9.3 9 1.5 15.8 35 76.5 42 83.4 2.8-43.3-2.2-90.3.4-133.6zm-7.8 110.5 5.4-4.1-.1 6.5zm5.3 10-2.8-1.9 2.8-2.8zm-337.9 77c.5 2.9 1.1 5.9 1.8 8.8a8.4 8.4 0 0 0-6.7 8c0 4.6 4 8.3 9 8.3.7 0 1.4-.1 2-.3 1.4 4.6 2.8 8.6 3.8 11.5l1.9 1.2c-5-15.8 4.6-24.3-9.5-37.4-.2-.7-1.2-.5-2.3-.2zm291.6-428 87.8.7v29.8L571.2 220l26.1.3-.4 113.8c-7.2 2.7-14 7-20.6 11l-41.1-21-3-1.4s1.1-.3 3.6-1.8c4.6-2.8 6.4-9.7 4.3-14.9-3.4-8.5-10.6-7-16.5-7-5-3.5-9.2-15.3-12.6-23.1-1.6-3.4-3.2-6-3.6-8-.3-1.9-.3-3.5-.3-3.5s.8.3 2 2.5c6.5 12.7 21.8 18.9 30 6.9 4-7.4 1.3-15.9-5.7-18.2-2-.7-9.3 0-9.3 0-.4.2-5.2-6.2-12-27.5-2.8-8.8-3.5-28-.8-30.7 4.5-5 5.7-12 9.5-17.1 1.7-3.2 1.6-1.2 4.3 2.3a52.2 52.2 0 0 0 40.4 21c10.5-.4 13.8-3.7 11.3-6.5a44.5 44.5 0 0 1-11.5-19.9c-4.4-15.6-9-29.5-21-41.6zm-44.7 74c1.1 1 .3 2.5 0 5.2-.5 6.9-.6 7-4.9 5.2-8.2-3.3-19.7-.4-26.7 6.6-8.8 8.7-9.1 17.8-3.7 35.7 6.3 20.1 6.1 22.7-1.4 26.9-4.5 3.5-9.2 11-7.4 11a81 81 0 0 1 9.2-6.6c8.7-5.6 11.5-8.4 7.5-18.6-4-10-7.1-19.8-5.5-20.4.8-.3 3.8 3 5.7 4 3.8 2 11.8 5.7 12.8 5.7 1.4 0 0-1-4-3.3-10.5-6.4-14.8-12.1-4.7-8.5 5.5 2 11.2.8 14.5-.1 3.8-1.2 5.7-2.3 6.1-1 .6 6.2 0 12.6-.4 18.8l-1.1 9.4c-2 18-5.4 33.3-14 43.1-28.9 32.8-61.7 23.2-98.6-3.1 13.8-35.1 13-62.5 16.4-73.6 3.1-1 6.9.8 9.2 2 5.1 2.7 11 4.3 16.6 4.6 5.2.3 6.1-.4 5.6 1a44 44 0 0 1-14 4.4c-9.3 1.8-8.6 3.8-.7 3.1a57 57 0 0 0 24.9-8.9c5.9-3.6 6-3.6 4.5-8.1-.4-1.1-1.2-2.8 1.6-3.7 3-1 2.5-2 .9-3.3-.4-.3-1.5-.4-1.9-.7-.5-.4 0-2 0-2.3-10.7-8.4-29.6-8.6-45.2 0-.8-.3-1.6-1.4-.8-3 1.6-3.3 18.4-7.2 30.3-7.4 5.4 0 6.5.6 14.6 3 3.4.9 5.2 1.1 5.6.6.6-1-.6-4.2-3.1-6-8.7-5.7-21.4-5.2-38.8 1-9.2 3.5-8.3 4.6-5.3-12.2.9-4.7 1.8-8.3 1.8-8.3s81.1 2.8 94.4 7.9zm-12.5 16c4.3 0 8.2 1 10.5 3 3.4 3.4-.1 4.5-5.5 2.6-6.7-2.4-14.5-1-20.4 2.4-3.9 2.2-4.7 1-1.5-2.2a25 25 0 0 1 17-5.9zm-61.6 5.7c7.5 0 14.3 1.2 17.1 4.1 2.6 2.7.1 3-6.3.6-9-3.2-21-2.2-31 2.3-5.1 2.4-6.7 2.8-6 .2 3-4.3 15.3-7.1 26.2-7.2zm59.8 2.2c7.1 0 13.1 1.6 12 5-.4 1.2-.7.5-5.8-1a35.9 35.9 0 0 0-18.2.9c-6 1.6-7.2 2-4.5-.5 3.3-3 10.2-4.4 16.5-4.4zm14.5 3.3c7.2 10.3 8.4 25.3 16 33.5 14.3-2.4 21 9.9 9 18-6 3.1-13.4.8-18.9-7.4-5.2-7.9-6.6-12.6-6.7-17.6.4-10.4-.2-16 .6-26.5zm-83.1 4.6 3.1.4c2.3 7.1 7.4 7.6 10.5.1l2.3.4c-3.6 9.1-12.7 9.5-16-.9zm-5 .2c1.4 0 2.5 1.2 3 2.9 1.3 3.8-.1 3.3-3 1.7-2.8-1.6-5-2.7-3.4-3.4 1.3-.6 2.2-1 3.5-1.2zm27 2.4c1.2 1.3 1.4 2.2 0 3.1-1.4.7-2.4 1.1-3.7 1.5-1.2.4-2 .1-1.5-1.6a12 12 0 0 1 2-4.3c1.3-.2 2.6.6 3.3 1.3zm38.2-.8 2.5.2c2.6 6.5 8.7 6.3 11 .7h2.3c-4.2 10-12.8 8.2-15.8-.9zm-4.5.9c2.4 0 4.7 3.1 3.4 4.8-1.3 1-7.2-.2-7.7-2.2-.2-1.2 2-2.6 4.3-2.6zm23 .6c1.2.3 1.2 1 1.2 1.2.6 2.7-2.9 3.6-3.6 2.6-.5-.6 1.4-2.7 2.5-3.8zm-54.8 28.5a10.4 10.4 0 0 0-8.2 11.3c.3 4.2 2.6 7.6 6 8.4 7 1.4 11.9-3 19-4.9 3-.7 2.3-4.3.4-6-2.6-2-6.4-.7-11.6 3-10.3 7.1-12.7-6.7-3.4-9.1 1.5-.4.8-3.5-2.2-2.7zM145.2 579.3l4 1.1-4 4.3v-5.4zm11 14.9-8.2 8.4 11.1-.7-7.5 7.2 11.5.4-8.5 8.1 11.4-.2-8.4 7.8 10.7.3-7 7.2 11.7-.9-8.6 8.6 12.6-.2-9.6 8H180l-3.8 3.9 3.4 1.5c3.4-1.4 23.2-7 23.9-11.3-4.4-1.1-17.3 4.9-18.1 3.9-5.1-21-27.3-67.3-42-80.9l-1.1 131c-.4.4-.8.5-1.2.7-2.2 1-5 .4-7 1-7.4-.3-19.8 11.2-13.3 13.4 3.4.7 22.1 3.7 22.2 4.6 2.2 38-1.5 76 .1 116.6 5.3.7 22.4 1.6 22.4 1.6s-63 60.5-64.3 59.3c1.6-64.9 1-191.8-.2-192.3 0-3.8 1.4-11.8 1.4-11.8l-.7-403.8s-.4-1.8-1.2-3c-1.3-2-1.3-2.4-1.4-8.5-.5-3.7 0-4.7 0-4.7l43 42 .4 117.3s40.3 55.6 49.6 81.2c20.6 38.2 18.3 93.8 30.7 115.2h.8c.3 3 .3 4.3.8 4.8 1 6.9 2 16.4 2 16.4l-4.6 6.6 5 6v15.8l-6.7 6.3 6.1 7.2-1.7 14.8-4.8 3.9 2.7 3.4s.5 5.3-.6 11.4c-.8 4.1-5.2 3.6-14.4-.7-13-4.6-26.4-12.8-36.8-19 .7-7.7 11-25.3-3.3-44.7-5.4-3.6-20.8-2.3-22.2-2.9l.2-59.7m0-6.9 7-1-7 6.4zm332.5-297.5c-.5 0-1.3.5-2.2 1.5-1 1-2.5.7-6.4.5-4.2-.3-5.3-.2-8 .7-3.2 1-3.3 1-5.5.2a12.3 12.3 0 0 0-8.6-.7c-4 1-6.3.8-8.7-.3-2.4-1.1-3.2-.9-4 1.1-.4.9-2 4.1-2.9 5.3-2.6 3.6-2 4.2 3.5 2.7 3.7-1 10.5-1.7 15.6.2 3.8 1.5 8.4 1 14-1.2 4.7-1.9 9.5-2.5 14.1 1 2.7 2.2 2.6.6 1.9-3.7-.8-4.9-1.3-7.5-2.8-7.3zm-182.9 15c-5 0-9 3.7-9 8.3 0 4.5 4 8.3 9 8.3 2.4-1.8 3.6-16.3 0-16.6zm173.9.3a37 37 0 0 1-21.5 1.6c-6.7-1.8-5.1 2.8 2.1 3.4 5 .4 4.7.4.8 3.7-3.3 2.9.8 2.7 3 1 2.8-2.2 10-1.6 14 .1 1.9.8 2-2.4 0-3-5.4-1.8-4.1-2 1.7-3.7 2.2-.4 2.3-4-.1-3.1zM294.9 308c2.9 1 1 10.6 0 11-3.3 0-6-2.5-6-5.5s2.7-5.6 6-5.5zm-48 .2c2.3-.7 4 2.8 4 5.2 0 3-2.8 5.5-6 5.5-4.1-3.6-4.8-7.7-.2-10a75 75 0 0 1 2.2-.7zm23.7 8.2-19.3 17.9 18.9 17.6 18.9-18zm227.8 7.4c2.7 0 5 2 5 4.6 0 2.5-2.3 4.6-5 4.6-2.8 0-5-2-5-4.6 0-2.6 2.2-4.6 5-4.6zm-228 5.7c2.7 0 5 2 5 4.6 0 2.6-2.3 4.6-5 4.6-2.8 0-5-2-5-4.6 0-2.5 2.2-4.6 5-4.6zm204.4 4.7 13.8 17-17 14 1-8.7a7.6 7.6 0 0 0 6.5-7.2c0-3.1-2.1-5.8-5.1-6.9zm-229.4.6-.2 4.7 17.3 15.9-17.2 16.4.2 4.5 21.4-21zm49 .1-21.2 20 20.4 20.7.3-5.2-16-15.4 16.4-15zm306.3 3.6c4.3 0 8 1.3 9.2 3.9.8 1.5 1.3 2.7 2.6 3.3 2.5 1 6 .3 6.1-.5.3 0-4-.4-4.7-1-3.4-2.8-2.8-4.5 2-4.2 1.5 0 5.8.1 6 1.7.9 5.4-6.9 9.3-16.8 8.6-7-1.1-7 1.4-7.6 4.9-.3 1.1-1.4 3-2.3 4.4-2.5 4.1-3.3 3.5-1.6 5.1 1.7 2 4 4.6 3.9 7l-.1 21.7s-14.9 0-20-3.5c-5.4-9-9-28.6-1-39.4 2.7-3.2 6.7-4.7 11.4-8.1 3.6-2.6 8.6-4 13-4zm-83.8 2.3-.5 6.3c-3.8.6-6.7 3.6-6.7 7.2 0 3.3 2.3 6 5.4 7l-.5 5.5-11-14.6zm-43.2 4.2a5 5 0 0 1 2.8 4.3 5 5 0 0 1-3.7 4.6zm-229.3 2c-7.6 3.7-5 17.8 0 16.6 5 0 9-3.7 9-8.3 0-4.5-4-8.3-9-8.3zm49.7.3c-5 0-9 3.7-9 8.3 0 4.6 4 8.3 9 8.3 6.5-2 2.8-16.3 0-16.6zm222 2.4-.8 9a5 5 0 0 1-3-4.4 5 5 0 0 1 3.8-4.6zm-271.7.1c3.3 0 6 2.5 6 5.5s-2.7 5.6-6 5.6c-2 .3-3.2-10.1 0-11zm49.7.3c4 .3.6 9.7 0 11-3.4 0-6-2.5-6-5.5s2.7-5.5 6-5.5zm201.7 5.5L476 373.9l19.5 20 16.4-18.3zM270 358.9l-19 18 18 17.2 19-18.5zm-125 9.7 7 6.8h-7.2zm349.4 1.1c2.7 0 5 2 5 4.6 0 2.6-2.3 4.6-5 4.6-2.8 0-5-2-5-4.6 0-2.5 2.2-4.6 5-4.6zM269.9 372c2.8 0 5 2 5 4.6 0 2.6-2.2 4.6-5 4.6-2.7 0-5-2-5-4.6 0-2.5 2.3-4.6 5-4.6zm24.6 5.4-21 20 20.3 20 .2-4.7-16.2-15.1 16.5-15.6zm-49.5 0 .2 5 17 15.5-17.9 16.5.7 4.4 21.9-20.8zm227.2 5.8 15.2 14-15.2 15.5v-8c3.1-1 5.4-3.8 5.4-7 0-3.3-2.3-6-5.4-7zm42 .7.1 5.7c-3.4.9-6 3.7-6 7.1 0 3.6 2.8 6.6 6.4 7.3l.1 4.5-12-12.3zM162 386s5 5 6.8 7a7.9 7.9 0 0 0-2.2 5.4c0 4.6 4 8.3 9 8.3 1.4 0 2.8-.3 4-.8l5 6.4-24-3.6zm132.3 3.5c-5 0-9 3.7-9 8.2 0 4.6 4 8.3 9 8.4 9-1.7 7.2-16.2 0-16.6zm-50.1.2c-5 0-9 3.7-9 8.3 0 4.6 4 8.3 9 8.3 4.9 0 9-3.7 9-8.3 0-4.6-4-8.3-9-8.3zm270 2.4.4 9.2a5 5 0 0 1-3.7-4.7 5 5 0 0 1 3.4-4.5zm-220 .1c6 2 4.1 11.4 0 11-3.2 0-6-2.4-6-5.5 0-3 2.8-5.5 6-5.5zm-50 .3c3.3 0 6 2.5 6 5.5s-2.8 5.5-6 5.5c-3.4 0-6-2.5-6-5.5s2.6-5.5 6-5.5zm227.9.8c1.6.8 2.7 2.4 2.7 4.3 0 1.8-1 3.4-2.7 4.2zm-301.4 2 7 8.3-2.1.3c-3.3 0-6-2.4-6-5.5 0-1.2.4-2.2 1-3.1zm324 4.1-16.4 18.3 20.2 16.5 14.3-16.3zm-224.7 2-20.2 18.8L264 434l-7.9-.8-11.4-10.7-.3 3.5 6.2 6.6-6.6-.3 1.2 2.9c16.3.4 31.9 4.9 47.7 7.8l1-2-5.9-1.4 5.6-6v-4.7l-9.7 9.4-3.3-.7 13.7-12.9-1-4-16.7 15.8-4.9-1 17-16zm225.6 11.1c2.7 0 5 2 5 4.6 0 2.5-2.3 4.6-5 4.6-2.8 0-5-2-5-4.6 0-2.5 2.2-4.6 5-4.6zm-226.3 2.1c2.7 0 5 2 5 4.6 0 2.6-2.3 4.6-5 4.6-2.8 0-5-2-5-4.6 0-2.5 2.2-4.6 5-4.6zm-113 1.2-2.1 22.4 26 6.4 3.3-24zm-11.5 1.1 3.7.2-.5 13.9-3.7-3.3zm48.3 6.2 5.6 8.2a8 8 0 0 0-2.6 5.8c0 4.6 4 8.3 9 8.3.9 0 1.8-.1 2.6-.3l3.3 5.2-22.3-6zM473 425l17.5 13.2-13.7 15.4-.9-6.6c3.1-1 5.3-3.7 5.3-7 0-3.8-3.2-6.9-7.2-7.3zm-303.5-.2c2.8 0 5 2.1 5 4.6 0 2.6-2.3 4.7-5 4.6-2.8 0-5-2-5-4.6 0-2.5 2.2-4.6 5-4.6zm350.6 2c-4.4 0-8 3.2-8 7.3 0 4 3.6 7.3 8 7.3 1.7 1.2 2.2-12.6 0-14.7zm0 2.4c.5 2.2 1 10.3 0 9.8-3 0-5.3-2.2-5.3-5 0-2.6 2.4-4.8 5.3-4.8zm-319.6 4.5 5.8 8.8-1.1.1c-3.3 0-6-2.5-6-5.5 0-1.3.5-2.5 1.3-3.4zm273.8 1.6a5 5 0 0 1 4.2 4.8c0 1.9-1.2 3.5-3 4.3zm23.8 4.3L483.3 458l22.4 16.2 12.8-20zm-338.4 7 16.8 4.6-3.2 15.8c-.3-.9-1.2-2.6-2.4-4.6a7.8 7.8 0 0 0 1.1-4c0-4.6-4-8.3-9-8.3h-.7l-2.6-3.4zm24.9 4-5.5 25.1 25.2 9.4 6.2-26.6zm316.4.5c2.7 0 5 2 5 4.6 0 2.6-2.3 4.6-5 4.6-2.8 0-5-2-5-4.6 0-2.5 2.2-4.6 5-4.6zm-336.6 2c2.6.5 4.6 2.7 4.6 5.3l-.1 1-4.5-6.4zm358 1-13.6 23.5 23 14.8-1.6-5-16.4-11.1 9.5-16.1zm-326.7 8.2c2.8 0 5 2 5 4.6 0 2.5-2.2 4.6-5 4.6-2.7 0-5-2.1-5-4.6 0-2.6 2.3-4.6 5-4.6zm23.8 2.3 5.4 8.6a8 8 0 0 0-3.7 6.7c0 4.6 4 8.3 9 8.3.8 0 1.5-.1 2.2-.3l3.8 7.6-23.3-9.4zm308 .5c-2-.5-4 .8-5.5 2a7 7 0 0 0-2.4 5.3c0 4 3.5 7.4 8 7.4 6-1.3 2.7-14.1 0-14.7zm-48.4 2 19 12.5-11.1 19.7-2.5-9.3a7.3 7.3 0 0 0 4.6-6.7c0-4-3.6-7.3-8-7.3h-.1l-1.9-9zm48.4.4c3.3 1 2.2 9.5 0 9.8-2.9.4-5.3-2.2-5.3-4.9s2.4-4.9 5.3-4.9zm-301.3 8.3 4.9 9.6h-.9c-3.3 0-6-2.5-6-5.5 0-1.6.8-3 2-4zm255.4 2.7c2.7.2 4.8 2.3 4.8 4.8 0 1.8-1 3.4-2.6 4.2l-2.2-9zm25 2.5-13 23.7 24 13.6 11.2-23zm-322.3 4.2 14.8 6.2-4.2 14.1-1.8-3.4a7.8 7.8 0 0 0 1.4-4.4c0-4.3-3.5-7.8-8-8.3zm23.4 6.7-7.3 23.7 23.1 11.2 10.6-24zm-19.4.8c1.9 1 3.2 2.8 3.2 5l-.1 1zm322.7 2.4c2.7 0 5 2 5 4.6 0 2.5-2.3 4.6-5 4.6-2.8 0-5-2.1-5-4.6 0-2.6 2.2-4.7 5-4.6zm22 1.3-11.2 24.8 25.4 13-2-4.6-18.6-10 8-18zm-316 7.9c2.8 0 5 2 5 4.6 0 2.5-2.2 4.6-5 4.6s-5-2-5-4.6c0-2.6 2.3-4.6 5-4.6zm323.9 4c-4.4 0-8 3.3-8 7.4 0 4 3.5 7.5 8 7.4 8-.2 3.9-14.8 0-14.7zm-299.1.5a58 58 0 0 1 3.7 8 8 8 0 0 0-4 6.8c0 4.4 3.8 8 8.5 8.3h1l1.4 5-19.9-9.6c2.8-6.9 5.2-11.7 9.3-18.5zm299 2c2.4 1 3 9.5 0 9.8-2.9 0-5.3-2.2-5.2-4.9 0-2.7 2.3-4.9 5.3-4.9zm-49 2.8 19.6 10.4-9.9 19.5-2.9-9a7.2 7.2 0 0 0 3.5-6c0-4-3.5-7.4-7.9-7.4zm-245.3 5.9 3.1 9.5c-3.1-.1-5-2.5-5-5.4a5 5 0 0 1 2-4.1zm248.6 4.1a5 5 0 0 1 4.3 4.9c0 1.4-.6 2.6-1.6 3.5zm-292 .3 15.2 8.2-6.9 16.3-2-6a7.9 7.9 0 0 0 2.2-5.3c0-3.9-2.8-7.1-6.7-8zm316 .7-9.3 22.7 26.5 12.9L543 537zm-313 8c1.5 1 2.5 2.6 2.5 4.5 0 .6-.1 1.3-.4 1.9zm19.8 1.1-10.8 23 22.4 13.6 11.7-24zm301.4 4.1c2.8 0 5 2 5 4.6 0 2.5-2.2 4.6-5 4.6s-5-2-5-4.6c0-2.5 2.3-4.6 5-4.6zm26.2 10.1a7.6 7.6 0 0 0-3.5 6.5c0 4.1 3.5 7.4 8 7.4 1 0 1.8 0 2.6-.3 2.3-2.8-1-13.7-7-13.6zm-321-1c2.8 0 5 2 5 4.6 0 2.5-2.2 4.6-5 4.6-2.7 0-5-2-5-4.6 0-2.6 2.3-4.6 5-4.6zm326.6 12.2c-.3.2-.7.3-1.1.2-3 0-5.4-2.2-5.4-4.9 0-1.5.8-2.9 2-3.8 4.6-3.1 5.3 9.2 4.5 8.5zm-297 3.6c.8 3.8 1.8 7.3 2.8 10.7l-1.2.1c-3.3 0-6-2.5-6-5.5 0-2.5 1.8-4.7 4.3-5.3zm278 3-7 25.5 26.6 9 5-24.2zm-323.7 0 14.1 9s-4.6 10-8.4 15.5l-1.1-4.7c2.3-1.5 3.9-4 3.9-6.8 0-4-3.2-7.5-7.3-8.2zm298 1.5a5 5 0 0 1 5.2 5c0 1.7-.6 2.4-2 3.3-1.2-2.4-2.8-4.8-4.3-8 .4-.2.6-.3 1-.3zm-296.1 6.4c2 .9 3.6 2.8 3.6 5 0 1.5-.6 2.8-1.6 3.8zm21.1 3.8-12.8 20.4 18.7 13.3 14.7-20.5zm309.6 1c2.8 0 5 2.1 5 4.6 0 2.6-2.3 4.6-5 4.6-2.8 0-5-2-5-4.6 0-2.5 2.2-4.6 5-4.6zm23 6.4 3.2 4.7a7 7 0 0 0-1.6 4.4c0 4 3.6 7.4 8 7.4.6 0 1.1 0 1.7-.2l2.6 3.8-16.6-5.6zm-328.8 5c2.8 0 5 2.2 5 4.7s-2.2 4.6-5 4.6c-2.7 0-5-2-5-4.6 0-2.6 2.3-4.6 5-4.6zm333.6 2 5 7h-.2c-4.7 0-6.6-3.6-4.8-7zm-309.6 0-18.2 22 24 16.5-.4-5-17.5-11.5 13.4-16.4zm264.4 7.7 24 7-5.2 21.8-5.6-8.6a7 7 0 0 0 2.5-5.3c0-4.1-3.6-7.4-8-7.4-.9 0-1.7.1-2.5.4zM271.2 603c-4.6.4-8.1 4-8.1 8.2 0 4.6 4 8.3 9 8.3 2.2.3 2.6-3 0-2.7-3.4 0-6-2.5-6-5.6 0-2.9 2.4-5.3 5.6-5.5l-.5-2.7zm293 2.7-4.3 25.3 27.1 5.4 2-23zm-338.8.2 12.8 8.7-9.7 12.5-.5-3.5c2.3-1.5 3.8-4 3.8-6.8 0-3.6-2.5-6.7-6-7.8zm314 3.5c2.8 0 5.2 2.2 5.2 5 0 1.2-.5 2.2-1.3 3.1l-5.1-8h1.1zm-86 3.3c.6.2 2.2.3 2 .8l-4.6 4.7.5 4.1 7.7-8 3 1-10.7 10.2-.5 3.7 14.4-13 6.1 1.6-16.8 15.2 19.3 18 19.3-18.1-13.7-13.8 6.8.6c2.9 3 6 7.8 11.2 10.3l-.5-3.6c-.2.2-6.3-5.3-5.4-6.2l5.4.4s7.8-2.1-2-2.1c-12.8 0-26.5-4-37.5-7-1.3-.4-3.1-1.3-4-1.4-2.3 2.1-5 1.7 0 2.6zm-227-.4c1.4 1 2.4 2.6 2.4 4.5 0 1.3-.5 2.5-1.3 3.4zm347.6 4.8c2.8 0 5 2.1 5 4.6 0 2.6-2.2 4.6-5 4.6s-5-2-5-4.6c0-2.5 2.3-4.6 5-4.6zm-327.8.1-15.5 18.2 17.6 15.6 18-19.5zm349.7 5 1.2.3.1 12.4-2-.4zM474.3 628c2.8 0 5 2 5 4.6 0 2.6-2.2 4.6-5 4.6-2.7 0-5-2-5-4.6 0-2.5 2.3-4.6 5-4.6zm-225.7 1c2.8 0 5 2.1 5 4.7 0 2.5-2.2 4.6-5 4.6-2.7 0-5-2.1-5-4.6 0-2.6 2.3-4.6 5-4.6zm24 3.7-20 22 21.5 20.7v-4.6l-16.8-16.3 15.7-16.8zm225 2.3-20.7 19.3 20.6 19.7.5-4.4-16-14.9 15-14.2zm-45.5 2v5.2l13 12.2-13.3 12.5v5.3l19-18zm106 2.4 24.4 4.2-1.5 21.3-5.9-6.6a7 7 0 0 0 1.6-4.4c0-4-3.5-7.3-8-7.3-1.2 0-2.4.2-3.4.7zm-328.6 3.4 12 11.6-11.5 12v-4.1a8.3 8.3 0 0 0 5.4-7.6c0-3.6-2.4-6.6-5.8-7.8zm44.6 3c-4 .8-7 4-7 8s3 7.3 7 8.1V659c-2.4-.7-4-2.8-4-5.2 0-2.4 1.7-4.4 4-5.1zm176.7 1c-3.8 2.2-2.1 14.9 0 14.7 4.3 0 7.9-3.3 7.9-7.4 0-4-3.5-7.3-8-7.4zM498 648c-4.4 0-8 3.3-8 7.4 0 4 3.5 7.3 8 7.3 3.5-1 2-14 0-14.7zm70.8 1c2.9 0 5.3 2.2 5.3 5 0 .8-.3 1.6-.8 2.4l-6.3-7.1c.6-.2 1.1-.3 1.8-.3zm-118 .2a5 5 0 0 1 5.2 5c0 2.6-2.3 4.8-5.3 4.8.3-1.8-1-10 0-9.8zm-221.1.9c1.6 1 2.7 2.6 2.7 4.6 0 1.8-1 3.5-2.5 4.5zm268.3.4c.6 2 1.4 10.1 0 9.8-3 0-5.4-2.2-5.4-5 0-2.6 2.4-4.8 5.4-4.8zm-24.2 7-19.4 17.9 19.8 18.7 18.8-18.4zm-224.1.8-17.5 17.2 16.8 20.1 19.7-18zm-94.3.5c5.3 0 10.3.8 12.3 4.1 8.2 10.1 5.8 31 .1 38-12.7 10.7-20 13.5-34.3 11 1.6-6-5.3-9.2-6.3-7.9 0 0-.6 1.1 0 1.2 5 .6 4.6 6 4 6-5.5-.1-9 0-9.6-2.3-.3-1.4.5-3.5 3.7-6 3.8-2.7 21-2.6 21-2.6.1 0 0-4.5 1.8-7.1 1.5-2.3 3.6-4.9 2.1-6a8 8 0 0 1-4.5-6.5c-.6-6.3.4-21.2.2-21.4 3-.2 6.2-.5 9.5-.5zm318.4 12c2.7 0 5 2 5 4.5 0 2.6-2.3 4.6-5 4.6-2.8 0-5-2-5-4.6 0-2.5 2.2-4.6 5-4.6zm-224 1.4c2.7 0 5 2.1 5 4.6 0 2.6-2.3 4.6-5 4.6-2.8 0-5-2-5-4.6 0-2.5 2.2-4.6 5-4.6zm247.7 4.7-20.3 19 21.6 20.7-.7-5.6-15.5-14.8 15.2-14.6zm-45.9.3-.5 5.2 14.3 14-13 12.3-.2 6 19.2-18.6zM229.2 684l11.5 14.9-13.7 11 .4-4.2c4-.9 7-4.2 7-8 0-3.6-2.4-6.5-5.7-7.8zm43 3-.6 7.8a8.4 8.4 0 0 0-6.4 8 8 8 0 0 0 5.2 7.5l-1 8.3-13.8-18.5Zm324.7 1.2.4 52 40.7 39 .2 145.8-168 .7-43.2-67.6c-1-1.3-2.1-.9-3-2.2l12.8-63c20.2 8.5 37.2-13.6 26.2-31.6 62.3-20.8 133.9-73 133.9-73zm-99.3.2c-4.4 0-8 3.3-8 7.3 0 4.1 3.6 7.4 8 7.4s2.7-2.5 2.7-6.6c0-4 1.7-8-2.7-8zm-46.5.4c-2.2 2.3-3.5 14.8 0 14.7 4.4-.1 8-3.3 8-7.4 0-4-3.5-7.3-8-7.3zm46.5 2c3 0 1.6 2.7 1.6 5.4s1.3 4.5-1.6 4.5c-3 0-5.3-2.3-5.3-5s2.4-4.8 5.3-4.8zm-46.5.4c3 0 5.3 2.2 5.3 5 0 2.6-2.3 4.8-5.3 4.8.3-.8-1.3-9.4 0-9.8zM228.5 693c1.7 1 2.8 2.7 2.8 4.7 0 2.3-1.5 4.3-3.7 5zm42.9 5-.7 9.3a5.4 5.4 0 0 1-2.5-4.4c0-2.1 1.3-4 3.2-5zm202 2-18.9 17.4 19.7 18.9L493 718zm-225.1 4-19.9 14.7 12.7 18 4.5 2.5 18.2-14.3zm-79.7 1.1 46.7 23s-12.1 4.7-11.8 12.2c.5 8.3 5.9 15.1 16.6 12.6 2.5-.4 3.6.6 6 5.7 4.5 9.8 9 20.6 7.3 20.3-5.8-4.3-4.9-4.5-11.6-7.3-12.6-3.2-20.3 7.6-16.3 16.3 3.7 8 9.8 8.5 16 7.7 1 .2 1.7 1.1 2.3 2.2A75 75 0 0 1 231 818c3.6 15.5 4.4 34.8 1.7 39.7l-8.6 15.9c-9.7-17.2-31-32.2-54.8-26.9-.8.5-1 2.9.1 4.3 7.8 9.4 9 18 11.8 27.1 7 23.6 21.4 37.1 21.2 34.7l-7.5 12.5s-64.9.2-91.4 0v-28.8L173 831l-27.5-1 1.1-113.2c10-2 22-11.6 22-11.6zm305.3 7.6c2.8 0 5 2 5 4.6 0 2.6-2.2 4.6-5 4.6s-5-2-5-4.6c0-2.5 2.3-4.6 5-4.6zM246 717.2c2.8 0 5 2 5 4.6 0 2.6-2.2 4.6-5 4.6-2.7 0-5-2-5-4.6 0-2.5 2.3-4.6 5-4.6zm205.5 4.5.5 4.5 13.6 13.2-12.6 11.9c-1.9 2.3-6.6 1.8-8 2 0 0 .2 1.7 1.3 2.1 1.2.5 2.6.4 3.2.7 1.3.7 2.2.8 2.2.8l18.4-17.3zm.2 10.2c-3.3 1-2.7 14 0 14.7 4.4 0 8-3.2 8-7.3 0-4-3.6-7.4-8-7.4zm46.9 2c.3 1.3.8 9.8 0 9.9-3 0-5.4-2.2-5.4-5 0-2.6 2.4-4.8 5.4-4.8zm-46.9.5c3 0 5.3 2.2 5.3 4.9s-2.4 4.9-5.3 4.9c-.7-1.1-1.9-9.6 0-9.8zm-164.3 2.2c-.8.2-1.9 0-2.8 0-2.7 0-6.2-1.8-7-1.4-.8.4-.5 2-.5 2.8.1.7 2.2.9 3.1 1.4 1.4.9 1 1.2-.6 1.5-1.4.3-2.5.4-3.4 1.6-.6.7-.6 2 .3 2 5.6-.1 12.6-2.2 19.2-.1 3.8 1.2 6.2 2 6.9 1.5 1.2-1-3.2-4.9-7.5-5.6-4.2-.8-5.8-.5-4.4-1.6.7-.7 1.7-.4 1.8-.8.2-1.3-.8-2.5-2-2.7-1.2-.2-2.2 1-3.1 1.4zm23.8 12.2c-.5 0-1.1.3-2 1-2.5 1.5-6.5 3.6-16 1.2a27.9 27.9 0 0 0-14.5.6c-2.7.7-6.5 1.4-9.6 0-3-1.2-6.2-3.2-5.6-1.2l.3 5.4c.1 4.2.4 7.8 3.8 4.4 1.4-1.4 3.1-1.4 6.4-.2 2.3.8 4 1.4 5.7.3 2.6-1.5 4.8-1.9 9.4-.4 2.3.7 4.6.7 7.4-.9 4.7-2.6 7.7 0 9.5 2.7 1.4 2.1 2.1-1 4.7-7.3 1.4-3 1.8-5.6.5-5.6zm-22.5 23.7c-2.5 1.3-6.1 1.7-8.7 3.3-5.5 3.5-.3 6.4 3.5 5.7 1.5-.4 3.3-1 5.3-2.3 6.9-4.2 10.7-3.6 11.3 1.5.7 5.5-8.5 8-7.6 10.5 1.1 1.7 5.6-.6 8.3-4 8.2-10.2-.8-20.6-12-14.7zm35.4 28.8c-9.3 1-23.2 5-30.3 10-5.5 3.9-7 4.9-4.7 6.5 2.2 1.4 3.8 1.5.9 4.2-1 1-2.9 3-2.9 3.5 0 2 13.2 7.9 20.7 8.8 5.8.7 15.2 0 20.2-2 6.7-2.4 7-4.1.6-2.4a52 52 0 0 1-16.7 2 57.6 57.6 0 0 1-13.6-3c-8-2.7-6.7-5.8 1.5-3.1a44 44 0 0 0 32.2-.8c4.4-1.8 5.6-3.2 6.4-2.6l.7 1.4c.3.7.3-1.7.7-5.4l.7-7.2s-.7 1.7-.7 2.6c.1 5.4-2.7 5.4-10.8 1.2-9.4-4.8-14-4.3-23-4.3-4 0-4.1-1 1.4-2.7l12.7-3.8c5-1.5 6.4-3.1 4-2.9zM253 812.1c3.4 0 6.5 2.7 7.3 8l-3.4-.3c-1.1-7.8-7.2-6-9.6-1.4h-3c2.3-4.2 5.7-6.3 8.7-6.3zm8.7.5c1.4-.1 7.8 2.8 8.2 3.7.4 1-2 2-4.2 2.6-2.4.6-2 .7-2.7-.6-1.1-1.9-3-5.6-1.3-5.7zm-16.5.4c.1.8-1.9 3.9-3.3 4.2-1.6.5-3-1.5-1.6-2.6 1.3-.6 4.7-2.8 5-1.6zm66.3.5c4.3-.2 8.3 3.8 8.7 8.6H318c-2-10-10.3-7.7-12.2-.7l-2.5-.6c2.1-5.2 5.2-7.2 8.2-7.3zm-8.5.7c1.2-.1 1 .8-.4 3.4-.7 1.3-1.2 2-2.3 2-1.6-.3-2.7-.8-3.5-2-.6-1.1.7-2 3.5-2.8a15 15 0 0 1 2.7-.6zm18.2.7c.7 0 2.1.5 4.3 1.4 5.5 2.2 6.2 3.2 3.3 4.4l-3.2 1.3c-2.6.8-2.6-.6-3.3-2.2L321 817c-.7-1.4-.8-2 .2-2zm-81.5 8.3c1 0 3 1.1 7 2.5 5.7 1.9 11.6 1.2 19.2-1 3.2-1 4.3-1.6 3 .1-1 1.4-6.3 3.8-10.8 4.8-8.2 1.9-19-1.7-19-5.6 0-.5.2-.8.6-.8zm27.3 6.5c.8 0 0 1.1-1.8 3a20.3 20.3 0 0 1-11 5.3c-8.9 1.4-16.2-.8-16.3-5.4 0-3.3.6-3.3 5-1.2 3.7 1.8 12 2.2 18.7.2 2.3-.5 4.5-1.8 5-1.9h.4zm68.2 4.5a341 341 0 0 1-20.5 4.4 46 46 0 0 1-22.5-2.3c-4-1.8-5.3-.8-3.6 2.7 1.2 2.2 2.9 4.6 7.9 6.3 7.3 2.3 24.5-1.5 37.3-7.6 7.4-3 6-4.8 1.4-3.5zm-111 46.5 11.6-18c77.7 14 161.9 4 187.7.7 0 0 28 43 38.1 58 1 1.6 3.6 7 3.6 7l-265.6-.5c3.7-6.9 7.3-15.8 7.3-15.8-8.2-3-14.4-14.2-18.3-23.6-3.4-8.3-9.3-28.5-17.1-38.3 13.6-7.1 47.9 8.8 52.7 30.5z" style="display:inline;fill:#131f67;fill-opacity:1;stroke-width:5.67895746" transform="matrix(.31382 0 0 .31485 .3 720.8)"/><path d="m462.8 926.4-263-.3 34.3-63c64 9 127 7.9 189.3-1.1l39.4 64.4zm-359.4-50.7-.7-30.5h34.1zm286-199.7-.2-98.4 48.1 29.3-1.9 99.8zm-115-23.4c1.8-35.1-7.3-68-14.3-101.2l50-30.1 2.5 111zm-131-92.5 1.4-126.8c44.8 59.5 72 118.7 79.7 200.2-12.2 4.6-24.1 9.5-36.6 13.6a1139 1139 0 0 0-44.6-87zm454.2 55.1c-41.4-48.6-66.3-115.1-79.2-194.8l38-17c12.5 28.2 24.7 56.8 40.6 80.2zM434 528.6l-3.9-106.4 38-21.2a518 518 0 0 0 15.6 99.5zm-82.5-56.9-41-22 2.5-96.2 37.4 27.1zm256.2-266.4c3-10 22.7-22.9 31.2-29.8l-.4 28.5s-29.3 1.8-30.8 1.3zm-287.2-15.7-42.5-67 266.5-1.7-34.3 67.3c-70.6-12-131-6.7-189.7 1.4Z" style="display:inline;fill:#d40000;fill-opacity:1;stroke-width:5.67895746" transform="matrix(.31382 0 0 .31485 .3 720.8)"/><path d="M441.8 791.2c.7.1 8.9-5 13.2-12.5 4.6-8.4.5-16.6 1.8-16.7 8.5 2.4 6 17.3 3 22-2.4 4-7.2 6.7-12.2 7.5-4.9.7-5.8-.3-5.8-.3zm14-32.7c-1.8 0-2.5-.2-3.6-1.3-1.6-1.5-3.5-2.5-4.5-2.4-1.3.2-2 0-2-.7 0-.5.6-.6 2.9-.4 1.3 0 4.1-1.9 4.1-1.9l.3-141.2c12 4.6 30 7.3 43.9 8.8l.7 125.9s20.3-9.8 27.7-13.7l.4-112.7 14.4-1.4-22.6-42.6c-3.2 2.3-48-1.6-59-8.3l40.7-23.4a638.5 638.5 0 0 1-11.3-34.6c0-.4-.8-.3-1-.7-.8-2.9-1.4-4.2-2.2-7v-2a397 397 0 0 1-15.9-98c.1-.3 1.4 0 1.4 0l-.2-20.3-1.5.9.2-9.2 1.5-1.3.2-5.1-2-1.1 1-15.3 2-.3 1.1-24.3-51.7 30.8s-33.7-22.3-48.4-33.9c16.2-10.1 20.6-30 24.6-46.4a255 255 0 0 0 6.7-43.3c1.3-15 4-34.2 6.2-43.7 1.3-5.7 1.3-6.3-.6-6.4-.6 0 0-.2 1.5-.4 33.1-1.2 68.7 3.4 100.3 7.2l10.5-18.3s1.6 4.5 3.3 7.7a53 53 0 0 0 36.3 22.7c3.2.4 8.4-.5 12.2-1.9 1.3-.5 2.3-1.1 2.4-1.7 0-.7-1-1.3-2.4-2.5a18 18 0 0 1-3.3-4.2 103 103 0 0 1-7.8-18.3c-5.4-13.4-9.5-29.6-22.2-36.7l8.8-16.1-274.9-.3 42.5 66 1.7 2.7c1.2 2.1 1.7 1.8 1.7 1.8a619.2 619.2 0 0 1-12 68.2s-.5-1.8-8.6-1.7c-23.7.3-32 24.5-12.2 35.2 1.8 1 5 3 8.1 4.5l12.3 6.6-13.6-5.7-1.2 145.4s-28.3-8-47-8.7l.4-126-26.1 13-1.4 112.6-14.3.8 6.6 12.9a363.6 363.6 0 0 0 17.5 27.8c19 .5 38.6 3.2 56.2 10.5l-41 24.5C260.6 554 282 619 270 724l2.9-1.7.8-11.3 51-32.2 62.9 46.7-5.6-.1c-16-.6-27.4 14.5-31.3 27.2-6.8 22.2-7.8 27.7-11 63a301 301 0 0 1-7.3 40.7c-1.6 6.7-1.4 7.4-1.4 7.4 32 1 65.4-2.1 90.5-7.2 0 0 10.7-46.3 14.5-66a20 20 0 0 0 9.9 2.7c24.8-2.4 22.7-33.8 10-34.7zM346.1 123.7l13 42.1-32 2.7L301 124zm195.9-.3-32.9 64c-68.7-9-108.3-9.9-188 .4L279.6 124h11l31.1 51 46.5-4.3-12.8-46.6 12.3-.4 12.6 45.8 71.8-.2 7-45.3 13.2.1-8.9 46.3 42.4 5 24.6-51.8zm-92.2.5-4.2 38.9-59.5.3-9.4-39.4zm72-.7-20.2 46.2-29.4-3.7 8-42zm36.2 45.3c1.3 4 2.6 7.8 3 8.6 4.7 12 6.7 16 9.8 20 .5.6.7.5 0 1.1-14.5 6.5-40.6-9.6-46.9-24.2l4.3-7.4c1.8 3.3.5 6.5 1.7 9.5.3 1.2 3.3-8.5 3.3-8.5s2.8 4.3 3.2 12.6c0 1.3 3.7-5.5 3.7-5.5 4.7 5.7 4.4 15.7 4.4 15.7 5.2-5.8 2-9.2 10 5.8 1-1.6.5-3.2 1.8-2.8 3.5 1.3 8.5 3.6 10.3 3.1-2.3-2.7-7-4.2-8.2-7.8 0 0 3.6.3 3.9.1-4.1-2-8.1-3.9-11.2-7.9 1-.3 4.6.3 4.5 0-5.6-4.7-14-8.5-1.9-7.4-7.8-5.1-16.6-8.7-3-8.3-9.7-4.3-12.3-6.9-10.5-7.6 1-.4 4 1.2 8.6-.2-7.8-3-11-4.3-11.4-5.3-.4-1.1 3.4-1.8 6-4.3 0 0-3.2.6-4.6-.7 0 0 1.5-4.1 2.7-6.5 10 8.4 14 20.3 16.5 28zm84.4-16.1L576.2 218l21.4.3.8 119c7.5.9 20.4 0 25.3 4.6 3 4.1-8.7 12.2-15.3 10.5-4.5-1-10-.2-10-.2l.3 132.5c-14-24.2-24.8-39.5-40.4-81.5 4.6-2.9 9.2-5 10-5.6-6-13.3-10.1-34.3-1.7-52.6l5.8 3.1a57.4 57.4 0 0 0 1 43l1.6-1.5s-1.7-3-2.8-6.5c-1-3-2.4-6.8-2.4-10.8-.2-7.1 0-13.2 1.8-19l2-5.4c.5-.8 1-1.6 1-1.9-17-6.3-29.3-15.6-44-22.3l-1.3-.7c-1.9-1-1.4-1.2 1.5-2.3 6.2-2.2 8.7-5 8.5-10.4-.1-7.8-4.7-10.9-14.5-10.4-3.6.2-3.9.2-4.5-1a211.2 211.2 0 0 1-9-18.8c-2-4.2-4.4-8.6-5.3-13-.5-2.2-1.9-3-2.3-.8A120 120 0 0 1 494 302a44 44 0 0 0-2.4 5.6c.5.4 8.3 3.8 12 5.2 14.4 5.4 21 8.8 18.7 9.6-1.6.6-2.1 1.6-2.5 4.4-1 7.4-1 11.1.4 13.5 1.4 2.4 1.4 2.6-1 4-2 1.2-1.5 1.2-2 7.4-.7 7.3-.3 12-.3 12l3.6 4.2-3.7 4.1-.8 19.2 4.9 3.5-4.6 4.1 1.6 17.5s-.6 1.6-1.4 2.4c7.7 74 37.6 148.6 82.6 199.4l.3 121.5 44 40.7zm-3.5 7.8v9.6l-37.6 37.1 37.5.7v8h-57.5zm-.6 16.2v26.8h-28zm-257.1 13.2 5.8-.2c-.2 5.4-2.6 30.4-5.4 52.2-3.1 24.7-9.6 46-10.8 46l-5.6-3.2c9.3-28.3 11.9-64.7 16-94.8zm26.5-.7c-.8 15.2-4.3 26-5.4 44-1.4 22-5.5 49.4-16.3 72.1a35.4 35.4 0 0 1-19.7 18.3c-16.5 5.9-30.4-13-19.3-26.7 8.8-11 22.6-10.8 26.8.3 3.4 9.1-7.7 20.6-16.6 17-6.1-2.5-4.5-12.7 2.4-15.1 2.9-1 5.3 2.4 3.9 5.4-1.2 2.3-1.3 3.8.2 2.8 6.3-4 1.6-13.7-6.2-10.1-10.3 4.8-8.6 19 1.8 19.6 13.2 1.2 23.4-13.7 30-42.2 7.2-31.8 5.4-60.3 12.3-85.3zm-16.9.5 7-.2c-.6 2.4-.7 5-1.2 7.8-2.7 16.7-4.4 41-7.2 60.2-4 27-11.1 43.3-11.3 41.3-.8-3.2-3-5.9-4.7-8.5a190 190 0 0 0 12-49.6c2-18 2.7-34.6 5.4-51zm-29.6 1.5 6-.3a552.9 552.9 0 0 1-11.5 82c-1 4.3-1.4 6.1-2.2 6.4-1 .4-2.6-1-6.5-3 6 .8 10.8-60.7 14.2-85zm9.5-.5 6.6-.6a915 915 0 0 1-6 51.6c-3.3 22.1-7.6 41.7-9.6 41.4l-5.6-1.7c3.7 1 13-65 14.6-90.7zm-12.6.6c-4.3 27-4.8 58.7-13.8 84l-6.2-2.7c1.7.5 6.2-16.4 7.7-35.6 1.3-16.7 4.6-34.9 5.6-45zm-10.2 1c-2.5 9.6-2.5 23.6-4.3 35.4-2.3 14.5-4.8 44-8.5 43.4l-6.3-3c3.3 1 9.2-55 12.7-74.9zm-16.6 2.4 6.4-.8c-3.1 21.8-8.8 72.8-12 73.1l-6.1-3a620 620 0 0 0 11.7-69.3zm-4 .8c-2.7 24-5.2 48.3-10.8 67l-6.6-2.7s4.6-20.6 6.8-35c2.1-14.2 2.5-16.3 3.2-20 1.5-8.2 1.9-8.5 1.9-8.5zm281.8 25-.8 115.3-7.3-.3.5-115.2zm17.2.9c2.8 0 5 2 5 4.6 0 2.5-2.2 4.6-5 4.6-2.7 0-5-2-5-4.6 0-2.6 2.3-4.6 5-4.6zM509 263.3c5.1 8.7 9 11.9 13.6 13.6 8.2 3 19.6-4.4 15.5-14.8-2.2-5.4-7.7-6.2-14.7-5.2 0 0-3-2-6.5-11.8a199.5 199.5 0 0 0-10.7-23.7c-.4 14.6-4.2 29.9 2.8 41.9zm125-31.5c2.7 0 4.9 2 4.9 4.6 0 2.5-2.3 4.6-5 4.6-2.8 0-5-2-5-4.6 0-2.5 2.3-4.6 5-4.6zm-13.8.2c2.8 0 5 2 5 4.6 0 2.5-2.2 4.6-5 4.6-2.7 0-5-2.1-5-4.6 0-2.6 2.3-4.6 5-4.6zm-111.8-1.3c4.6 8.9 5.6 15.5 10 23.6l3.8 6.5c14.7-6.4 20.3 9.6 8.4 14.7-11.7 5-24.9-14-23.6-34.7.4-5.6 1.4-10 1.4-10zm118.4 12.1c2.7 0 5 2 5 4.6 0 2.6-2.3 4.6-5 4.6-2.8 0-5-2-5-4.6 0-2.5 2.2-4.6 5-4.6zm13.2 8.7v9.8l-26.1 23.3V275zm-342.7 7.1c5 0 7.4 1.4 4.1 2.7-11 4-15.8 10.3-16.4 21.5 0 5.6.7 6.4-3.1 3.2-9.6-12.4 4.3-27.5 15.4-27.4zm9.2 4c1.2 0 2.4.2 3.6.5 3 .9 1.8 1-3.1 4-9.4 5.7-12.3 11.3-12.7 22.9-.2 1.7.2 3.2 0 3.9 0 .6-.8.4-1.2.4-1.8-.3-3-2-3.5-3.6-6-11 5.2-27.6 16.9-28zm10.2 3.9a4 4 0 0 1 2 .4c2.4 1 1.5 1.2-2.7 4a26.7 26.7 0 0 0-12.1 20.2c-.6 5.2 3.8 11.3-4 6.2-5.3-4-4.2-14.8 1.5-22.2 3.6-4.5 10.9-8.6 15.3-8.6zm323.2-1.9v11.2l-26 22.8v-11.4zM325 270.1c3 0 4.3 1.8.9 3.8a26.3 26.3 0 0 0-13 24c.4 5.8.6 6.8-3.4 3-6.6-6.3-2-23.3 10.8-29.6a11 11 0 0 1 4.7-1.2zm8.7 3.3c4.8-.1 5.5 2.1 1.1 5a29 29 0 0 0-13.7 23.2c0 4-.3 4.4-2.2 3.1-9.5-6.7.8-30.3 13.7-31.3h1zm171.3.9c1.2 0 3.3 4 6.7 12.1a80.6 80.6 0 0 0 9.4 18.1c.4.1 1.8-.3 3.3-1a8.6 8.6 0 0 1 7.8 15.3c-7.7 4-15-.3-21.6-12.8-7.8-14.6-10-25.5-6.1-31.4.1-.2.3-.3.5-.3zm-162.5 3.8a8 8 0 0 1 3.8.8c2.9 1.3 2.5 2.3-1.9 4.7a21.1 21.1 0 0 0-8.8 7.5c-4 5.6-4.7 7.7-4.7 15 0 5.8-2 6.1-5.7.9-6.6-9 6.6-28.5 17.3-28.9zm11 5.3c4.2-.1 7 1.5 3 3.5-13.1 6.4-18.6 15.5-16.1 26.7.7 3.6-3.6.6-6.3-4.2-3.8-7 3.3-20.6 13.1-24.7 2-.9 4.3-1.3 6.3-1.3zm147.4 10.5c.8 0 1.8 2 3.9 7a133.1 133.1 0 0 0 5.4 11.6c-.8 1.2-6.8-.7-8.8-2.7a13.4 13.4 0 0 1-2-14.1c.6-1.2 1-1.8 1.5-1.8zm125.5 8.6c2.8 0 5 2.1 5 4.6 0 2.6-2.2 4.6-5 4.6-2.7 0-5-2-5-4.6 0-2.5 2.3-4.6 5-4.6zm-511.5 6.8c2.7 0 5 2.1 5 4.7 0 2.5-2.3 4.5-5 4.5-2.8 0-5-2-5-4.6 0-2.5 2.2-4.6 5-4.6zm206 1.7c5.5-.2 7.2 2.2 8 9.8.7 5.2 2 5.7 10.9 4.3 9.4-1.4 12.5 1 13.2 10 .5 7 .5 7 11.2 7.1 10.5 0 11.7 1 12.9 11 .9 7.5.6 7.2 11 7.1 11.4-.1 12.5.7 13.2 10 .7 7.7 1.2 8.2 8.5 7.6 7-.5 20.2-.6 22.6 0 6.2 1.2 6.4 1 7.7-6.7 1.8-10 4-11.2 17.3-10 6.6.6 7.3.5 8.3-4.8 1.2-7.1 2.8-9.2 2.7-3 0 15.5-1.1 16.2-12.4 13.5-8.4-2.1-8.6-.5-9.5 7-.7 6.6-2 9.3-4.6 10.3-2 .8-9 .1-11.7-.6-1-.3-7.6-.4-15.4-.4-18.7.2-18.9.2-18.9-11.9 0-5-1.2-6.2-11-6-12.2.4-11.6.7-13.7-12.9-.7-4.7-1-4.9-11.3-4.7-11 0-13.6.2-12.9-8.4.6-7.8-1.5-9.9-10.7-7.9-9.8 2.1-11.7-1.7-12.7-8.7-.9-6.5-1.5-4.9-6.2-5.2-5.2-.4-4.6-5.8 1-6.3l2.6-.2zm313.2 2.7c2.8 0 5 2 5 4.6 0 2.5-2.2 4.6-5 4.6s-5-2-5-4.6c0-2.5 2.3-4.6 5-4.6zm-14 .2c2.7 0 5 2.1 5 4.7 0 2.5-2.3 4.5-5 4.5-2.8 0-5-2-5-4.6 0-2.5 2.2-4.6 5-4.6zM122.2 321c2.8 0 5 2 5 4.6 0 2.5-2.2 4.6-5 4.6-2.7 0-5-2-5-4.6 0-2.6 2.3-4.6 5-4.6zm-14 0c2.8 0 5 2.1 5 4.7 0 2.5-2.2 4.6-5 4.6s-5-2-5-4.6c0-2.6 2.3-4.6 5-4.6zm260.7 4.3 51.8 35.7 49.1-30.2-.3 11-48.8 29.9-61.5-44zm258 .9c2.8 0 5 2 5 4.6 0 2.5-2.2 4.6-5 4.6-2.7 0-5-2.1-5-4.6 0-2.6 2.3-4.6 5-4.6zM542 332l12.3 18.4-12.3 8.2 11.1 13.2-12 11.4 13.2 7.7-12.4 16-17.2 7 17.2-20.8-14.2-9 13.5-13.4-12-14.6 12.5-9-13.5-20.4.9-1zm-227.3-4.4 91 63s8.4 5.8 10.8 7.2c5.1 3 6.1 1.8 11.2-1.4 11.6-6.3 39.5-23.7 39.5-23.7l-.3 9s-28 19.3-43.6 27.3c-2.2 1.1-4.5 0-6.2-1-33.8-24.8-68.4-48.8-102.7-73zM524 329c.4.6 1.6.8 2.2 1.7 4 5.8 11.4 16 11.4 16l-12.9 9.4 11.8 14.2-14.7 13.8 15 9.4s-9.4 13.1-16.4 19.1l-.2-10.2 6-6.7-6.9-4.4v-14l7-6.8-6.4-6 1.2-15.4 6.1-4.5-5-6.4zm-409 2.6c2.7 0 4.9 2 4.9 4.6 0 2.6-2.3 4.6-5 4.6-2.8 0-5-2-5-4.6 0-2.5 2.3-4.6 5-4.6zM638.6 349l-25.3 21.6v-9.8l25.4-23zm-509.2-11v11.8l-27.1 23v-11.4zm509.3 14v11.8l-25.4 22V374zm-29.8 1.8v382l29.4 28.6v9.6L601 738.4l-.3-384.2zm-479.5-1.7v13.3l-27.2 22.8v-12.6zm185.1 2.7 35.8 25.7-.3 89.6a231.6 231.6 0 0 0-37-21.2zM627 384c2.8 0 5 2 5 4.6 0 2.6-2.3 4.6-5 4.6-2.8 0-5-2-5-4.6 0-2.5 2.2-4.6 5-4.6zm-265.8 4v91.5l-7-6-.4-90.6zm-244.5.7c2.7 0 5 2 5 4.6 0 2.5-2.3 4.6-5 4.6-2.8 0-5-2.1-5-4.6 0-2.6 2.2-4.6 5-4.6zm517 7.1c2.7 0 5 2 5 4.6 0 2.5-2.3 4.6-5 4.6-2.8 0-5-2-5-4.6 0-2.5 2.2-4.6 5-4.6zm-14.3.6c2.8 0 5 2 5 4.6 0 2.5-2.2 4.6-5 4.5-2.7 0-5-2-5-4.6 0-2.5 2.3-4.5 5-4.5zm-254.2-.8 21.8 18.9-22.6 19.6-.1-9 12.5-11.2-12.6-12zm8.3 1.7 18.2 12.4-2.9 3.2zM124 399.9c2.7 0 5 2 5 4.6 0 2.5-2.3 4.5-5 4.5-2.8 0-5-2-5-4.6 0-2.5 2.2-4.5 5-4.5zm-14.7.2c2.8 0 5 2 5 4.6 0 2.5-2.2 4.6-5 4.6-2.7 0-5-2-5-4.6 0-2.6 2.3-4.6 5-4.6zm357.9 2c3.4 36.6 5.8 62 16 96.4l-47.1 27.7.6-105.9zM596.9 486l-.4 125.5a393.1 393.1 0 0 1-75.8-191.1s23.8-10.1 35.4-16.3c12.3 26.5 7 26.5 40.8 81.9zm30.6-78.3c2.7 0 5 2 5 4.6 0 2.5-2.3 4.6-5 4.6-2.8 0-5-2-5-4.6 0-2.6 2.2-4.6 5-4.6zM116.8 412c2.7 0 5 2 5 4.6 0 2.5-2.3 4.6-5 4.6-2.8 0-5-2-5-4.6 0-2.6 2.2-4.6 5-4.6zm277.9 0 17.2 12.1v9.2L391.4 415zm-6 4.8 21.6 19.7-22.7 20.8-22.3-19.5zm162.9.9-20.9 7.8c7.9 66.6 28.5 116.6 56.4 157.1l.7-93.4c-14.3-21-25.2-46.4-36.2-71.5zm87.6 1.4v10.5l-26 22V441zm-250.5 5.5L374.9 437l13.9 12.4L402 437zm-259.4-1.7v11.2l-26 22.9v-12zm290.1 6.6.1 106.6-5.7 2.5.5-111.4zm-31 1.6 6.3 5.8-6.6 6-6.1-5.8zm250.8 1.4v12l-26 22.4-.4-11.5zm-287.3 45c26.8 21.4 47.3 53.8 70 72a170 170 0 0 0 43.4 22.2 134 134 0 0 0 38.2 6l10.9.2 4.6 7.5h-7.6l-.6 26.5c8 .4 16 0 23.8-.9l2.8 4.9a203.5 203.5 0 0 1-142.1-37.4 206.6 206.6 0 0 1-41.6-45c-28.2-40.7-78-60.4-124.4-61l-3.8-5.4 7.7.2s.8-5.1 1-13.8c0-9.8 0-11.5-.8-11.8-5.7-.6-22.6-.3-22.1.4l-3.5-5.8c55.3-5.2 109.7 12.6 144.1 41.2zM129.2 437v11l-25.8 22.3v-11zm283.3 1.2-.7 9.8-12.3 11.2 13 11.7-.2 8.2-23-19.8zm-168.3 3.3c-1.2 0-2 .1-2 .3-.4.5-.2 4.7-1.2 19.9-.4 5.5-.8 5.6 4.2 6.1 4.3.2 13.8 2.4 20.1 3.1 5.4.7 4.3-.8 5.8-4.7 1.6-4.3 2.5-8.1 4.5-14.3 2-5.6 1-5.8-11-7.9a167 167 0 0 0-20.4-2.5zm119.9-.8 20.8 19.2-20.6 19.2-.3-9.2c4-3.3 8.7-7 12.2-10.6L364 448zM259.4 447l2.3 3.4 5.3.8-.9 3.5 2.7 3.6-3.3 2.3v4.3l-4.1-.2-3.7 2.4-2.9-3.3-4.2-.2.2-4.8-2.7-2.1 3.3-2.7-.4-4.3 5.2.8zm-33.8 5.8 3.3 2-3.4 2.1-.2 3.3-2 1.6-7.6-13.6 5 1.8 3.7-2.3zm60.7-3.1c-2.7 0-3 4.5-5.9 13-4 12-4.3 10.9 3.4 13.4 3.4 1 10 3.1 13.4 4.6 8.4 3.7 8.4 3.7 11.6-1.3 1.4-2.2 4-7.6 6-10.4 4.5-7 4.7-6.6-3.8-10.4-5-2.2-8-3.2-18.5-7-3-1.2-4.8-2-6.2-2zm8.4 7.9 3.7 2.1 4.1-1.6.8 4.1 4.5 1.7-1.3 4 2 3-3.8.7-2.8 5.6-4.2-2.8-4.5 1.5-1.3-3-4.6-2 1.7-3.5-2.3-4.5 5.3-.4zm92.5 4.3 23 20.8-21 19.4-23-21zm240.2 4c2.7 0 5 2.1 5 4.7 0 2.5-2.3 4.6-5 4.6-2.8 0-5-2.1-5-4.6 0-2.6 2.2-4.6 5-4.6zm-301.7.7c-1.4 0-2.1 1.2-3.3 3.3-.5 1-3.3 5.9-6 9.6-5.9 8.6-5.9 8.1 0 11.5 2.5 1.4 8.3 5.8 13.2 10 4.6 3.8 4.1 2.9 14-6.2 6.5-6 10.4-7.6 8-10.8-6.2-4.8-11.2-8.3-17.8-13-4.4-3-6.6-4.4-8.1-4.4zm62.5 2.4-13.6 12.3L390 494l12.7-12zm-232.6-4.4v96c15 23.5 30.2 47.2 38.2 73.7l21.9-9.9c-10.4-78.3-34.7-121.8-60-159.8Zm-39 6c2.8 0 5 2 5 4.6 0 2.5-2.2 4.5-5 4.5-2.7 0-5-2-5-4.6 0-2.5 2.3-4.6 5-4.5zm271.8 5.4 6.5 5.5-6 6-6.6-6.2zm245 1.2c2.8 0 5 2 5 4.6 0 2.5-2.2 4.6-5 4.6-2.7 0-5-2-5-4.6 0-2.6 2.3-4.6 5-4.6zm-13.3.4c2.7 0 5 2.1 5 4.6 0 2.6-2.3 4.6-5 4.6-2.8 0-5-2-5-4.6 0-2.5 2.2-4.6 5-4.6zm-291.4-.6 3.8 2.6 4.5-1.8.3 4.9 4 1.8-2.5 3.4 1.5 4.5-4.4.1-3.4 4.2-3-2.8-6 .4-1-4.7-2.5-1.8 2-3.1-1.5-4.2 5.1-.3zm-219.4 4.8c2.7 0 5 2.1 5 4.6 0 2.6-2.3 4.6-5 4.6-2.8 0-5-2-5-4.6 0-2.5 2.2-4.6 5-4.6zm14.3.2c2.8 0 5 2 5 4.6 0 2.6-2.2 4.6-5 4.6-2.7 0-5-2-5-4.6 0-2.5 2.3-4.6 5-4.6zm288.7 11.3-12 10.2 11.8 11.3-.4 8.6-20.7-19.1 21.1-19.1zm-117.6-2.4-44.6 27.3-2.7-6.9 39.8-24zm332-1.8c2.7 0 5 2.1 5 4.6 0 2.6-2.3 4.6-5 4.6-2.8 0-5-2-5-4.6 0-2.5 2.2-4.6 5-4.6zm-267.5 2.5c-2.1.1-4.2 2.4-8.2 6.3-4 3.8-8.6 8.3-9.6 9-3 2-3 2.5 2.4 8 1.7 1.7 4.8 5.2 6.9 7.8 2.1 2.5 5.5 5.7 6.2 6.4 2.2 2 3.4 1.6 13.5-5 12.2-8 12.2-6.9 1-20.3-6.5-7.7-9.6-12.4-12.2-12.2zM116.4 494c2.8 0 5 2 5 4.6 0 2.5-2.2 4.6-5 4.6-2.7 0-5-2-5-4.6 0-2.5 2.3-4.6 5-4.6zm261.8 2 8 8-.7.8zm260.6 2v14L614 533v-12.6zm-278.2 3.8 3 3.8 5.2-.3-.8 4.5 2.7 1.9-2.6 3.4-.2 4.3-4.3-1-3.4 3.9-3.4-3.7-4 .4v-4.5l-4-2.1 2.9-3v-5l6-.1zm123 .4 2.4 7-62.1 37.2-5.5-5.8zm-162.7 4.5 5 3.4-65.3 38.6-2-5zM130.3 505v11.5l-27.5 24.3V529zm258.1 3 .8-.6 21.3 19-4 3.9zm-58.9 5.5.5 111.4-5.7-3.6.6-105.7zm3.5 2.6 4.7 3.7-4.5 4zm305.8-.6v11.3l-24.9 21.7v-11.8zm-508.5 4.8V531l-27.6 24.2v-10.7zm256.3 1.8c-.8 0-1.5.4-2.7 1.2l-5.5 3.5a108 108 0 0 0-14.1 9.3c-.6 1.3 6.9 10.3 17.3 21.2 4 4.2 4 5 8 1.3 3.4-3.4 15.3-12.8 15-15.3-.7-2.9-4.8-6.1-15-18.9-1.3-1.6-2.1-2.3-3-2.3zm-46.2 1 16.3 21.7-2.2 2-20-18.3zm-32 2.6v104l-30.8 20c.6.3-3.7-62.5-15.4-96zm76.3 3.7 3 5.2 4.6-.7-.6 4.8 3.8 2.8-3.8 4.8.5 3.4-4.4-1-4.1 4-2.8-5-5.9.1.9-4.7-4.1-3.2 4.5-2.4.6-4.4 3.8.4zm26.7.9.5 4.2-2.8-2.2zm-78.5 7.4v-6l19.5 17.4-20 17.2.1-8.2 11.4-10zm161.7-3.1 2.8 7.7-40.3 22.8-8-4zm132.4 13c2.8 0 5 2 5 4.5 0 2.6-2.3 4.6-5 4.6-2.8 0-5-2-5-4.6 0-2.5 2.3-4.6 5-4.6zm-255.8 14.6-14.2-13 1.8-1.8zm36.4-11.7a72.9 72.9 0 0 0-15 16.4c0 1.8 14 13 22.6 18.1 2.6 1.6 3.7 1.6 4.7.2 14.7-20.2 15.3-19.5 9.5-23.5-5.9-4.1-12.8-10.3-17.5-12.5-2-.9-2.3-.3-4.3 1.3zm-53 1L378 572l-21.6 19.2-22.4-21.8zM117 552.6c2.8 0 5 2 5 4.6 0 2.5-2.2 4.6-5 4.6s-5-2-5-4.6c0-2.6 2.3-4.6 5-4.6zm294.2 4.5 3.9 3.2 4.6-1.1 1 4.2 4.6 1.6-2.4 4.3.3 5.4-4.5-.7-3.2 4.4-4.6-4.3-5.3.5.3-4.8-4.6-2.1 3-3.1-2-4.3 5.7.8zm222.5 2.2c2.8 0 5 2 5 4.6 0 2.5-2.2 4.6-5 4.6-2.7 0-5-2.1-5-4.6 0-2.6 2.3-4.6 5-4.6zm-291.2 10.5 13.7 13 12.7-11.2-13.4-13.1zM620 559.4c2.7 0 5 2 5 4.6 0 2.6-2.3 4.6-5 4.6-2.8 0-5-2-5-4.6 0-2.5 2.2-4.6 5-4.6zm-510 4.3c2.8 0 5 2 5 4.6 0 2.6-2.2 4.6-5 4.6-2.7 0-5-2-5-4.6 0-2.5 2.3-4.6 5-4.6zm14.6 0c2.8 0 5 2.1 5 4.7 0 2.5-2.2 4.6-5 4.6-2.7 0-5-2.1-5-4.6 0-2.6 2.3-4.6 5-4.6zm230.9 1.4 6.2 6-5.8 5.6-6.5-6.2zm85.1 4.2a96.7 96.7 0 0 0-13.4 20.6c0 .8 4.2 3.3 9.4 5.6 4.5 2 19 7.3 20.4 7.6 2.9.7 3.4-.4 3.9-2.1.2-1 1.4-4.5 2.7-8.3 4.5-13.5 5.8-12.9-.9-15-2.3-.6-9.5-2.9-14-4.8-4.6-2-6.6-3.7-8-3.6zm186 2.6c2.7 0 5 2 5 4.6 0 2.6-2.3 4.6-5 4.6-2.8 0-5-2-5-4.6 0-2.5 2.2-4.6 5-4.6zm-238.2 6 .7 90.4-7.7-5.5V572zm-34.3 15.4L333 613l-.1-10 11.9-10-12.1-11.6.3-7.8c7.7 5.8 14.3 13 21.2 19.6zm-237.3-17.6c2.7 0 5 2 5 4.6 0 2.5-2.3 4.6-5 4.6-2.8 0-5-2.1-5-4.6 0-2.6 2.2-4.6 5-4.6zm326.8.2 4.3 3.3 3.6-2 2 3.4 5.2.6-2.3 5.2 3 4-5 .8-1.3 5.5-4.9-2.7-3.7 1.5-2.7-4.6-5.8-.3 3.1-5-3-4 4.3-.3zm-65.3.3v8l-9.3 8.5 9.2 9.3v9.3l-19.2-18zm98.2 5.3c-1.9 0-2 2-3.4 8l-2.3 8c-2.8 9-3.1 9.3 5.5 10.8 5 .7 26.5 5.4 27 2.2.5-5.4.9-18 1-22.4.2-1.4-.2-2.8-1.8-3-9.8-1-20.7-3.4-26-3.6zm-84 .3c12.2 7.7 24 15.6 38.1 22.6l.3 93-38.6-26.6zm245.9.6v11.3l-25.8 22.7v-10.9zM487.5 586l2.2 4.4 4.7-1.4v5.3l4.2 2.4-5 2.1-.5 6.4-5.1-1.4-4.2 2.4-3.8-3.6-4.5-.1 1.7-5.7-3-2.6 4.3-2 .3-5 4.6 2.5zm-356.8-1.3v11l-28 23.8V610zm392 7.4 6.2 9.8-2.3 4-4.2-2-4.6 1.6.7-5.2-3.6-2.6 3.6-3-.1-4zm-166.2 3 21.5 20.6-22 20.8-21.4-20.8zm281.9 13.2-25.8 22v-10.7l25.8-22.5zm-507.7-9.6v10.8l-28 24.1v-9.9zm225.9 4.2-14 12.7 13.8 12.8 14-12.5zm.1 7.3 6 5.6-5.7 5.5-6.2-5.6zm-24 7.8 21.3 20.1-2.4 2.7-18.9-13.5zm45.8 1.6.6 9.1-11.7 9.2 10.6 10.3.3 9.4-20.2-19.2zm248.4 9.6c2.7 0 5 2 5 4.6 0 2.5-2.3 4.6-5 4.6-2.8 0-5-2-5-4.6 0-2.6 2.2-4.6 5-4.6zm-509.6 5c2.8 0 5 2 5 4.5 0 2.6-2.3 4.6-5 4.6-2.8 0-5-2-5-4.6 0-2.5 2.2-4.6 5-4.6zm102 2.9-15.7 21.6 12.4 7.7-11.8 14.5 12.2 13.6-12.3 9.7 12.5 19.7c-5-1-10-4-14.6-6.1l-9.4-16.5 10.8-8.6-11-11.7 11.6-12.6-11.5-7.5 12.6-17.8zm413.5 3.3c2.8 0 5 2.1 5 4.6 0 2.6-2.2 4.6-5 4.6s-5-2-5-4.6c0-2.5 2.3-4.6 5-4.6zm-309.3-.7L431.9 717l-.4 10.2-108.5-77-46.1 29.9.4-11zm296 1.3c2.8 0 5 2.1 5 4.6 0 2.6-2.2 4.6-5 4.6-2.7 0-5-2-5-4.6 0-2.5 2.3-4.6 5-4.6zm-252.7 9.6-1.1.2-11.8-8 2.5-2.7 10.4 10.5zM124.7 646c2.7 0 5 2 5 4.6 0 2.5-2.3 4.6-5 4.6-2.8 0-5-2.1-5-4.6 0-2.6 2.2-4.6 5-4.6zm-13.5 0c2.8 0 5 2 5 4.6 0 2.5-2.2 4.6-5 4.6-2.7 0-5-2-5-4.6 0-2.6 2.3-4.6 5-4.6zm515.6 6.7c2.8 0 5 2 5 4.6 0 2.5-2.2 4.6-5 4.6-2.7 0-5-2-5-4.6 0-2.6 2.3-4.6 5-4.6zm-509.6 4.5c2.8 0 5 2 5 4.6 0 2.5-2.2 4.6-5 4.6-2.7 0-5-2.1-5-4.6 0-2.6 2.3-4.6 5-4.6zm521 9.1v10.2L614 698.2v-9.8zM309.8 669c3.6 0 8.4.1 15 .4 5.6.1 11.7.3 13.7.2 7.7-.2 10.3 2.3 10.4 10 .1 6.8 0 6.8 9.8 7.2 11.7.5 14.8 3.2 15 13.4 0 4 3.5 5.6 10.3 4.7 10.8-1.4 12.9 0 14.1 9.2 1 7.7.5 7.3 10.4 7.2 10.6 0 13 1.6 13 9.1.1 4.4 1.3 5.7 5.4 6 4.4.4 6.2 2.5 4 4.6-.3.3-2.4.6-5.6.6-6.7 0-9-1.9-10.2-9-.9-5-1.4-5.2-10.4-5-11.4.3-12.3-.4-13.6-9.6-1-8-2.5-8.7-12.3-7-7.2 1.2-11-1.7-11.9-9.1-1-8.4-1.4-8.7-11.6-9-10.2-.4-13-2-13.1-7.7-.1-8.7-1.3-9.5-13.8-9.2-6.1.2-12.4 0-16-.3-7.5-.7-7.5-.7-8.2 6-1.2 10-2.8 11-17.2 10-6-.5-6.4-.2-6.9 4-.5 5.3-2.6 8.5-4.2 6.6-.9-1-.9-1.2 0-9 1-8.6 1-8.6 13.3-7.8 8.3.6 7.9 1 8.8-6 1-8.5 1-10.4 11.8-10.5zM131 668v11l-28.5 24.3v-10.8zm88.4 13.2 6.2 7.8-2 14.5-5.3 3.6 3.7 7-1.2 8.4-1.5.8-10.3-18.5 12.2-10-12.5-14 11.9-14.7-12.3-8 14.8-20c2.6-2.9 2.7 8.5 2.7 8.5l-6.1 8.5 6.8 5.5V674l-7.1 7zm7.8-6.6.7-18.1-5.3-3.9 4-6.3-.2-16-1.2-.8c-10-115.3-71.2-183.5-80.8-199 0 0-2.1-1.5-1.7-5.5.2-1.7.3-11.9.2-22.6-.3-54.6.3-92 .3-92l-45-44.3.3 16.2 2.2 1.5-.2 73.6-1.8.1s-.6 19.8-.5 33.4l2.7.1-.3 50.6-2.2.3v32.7h2.5s.6 34.4-.4 51.1l-1.8.1v32.6l2.2.2v46.6l-2.5.4.6 30.7 2.1.1c.8 19 .3 52 .3 52H99l.6 30.6h1.7l-.6 53.7-1.5.2.5 31.7 1.7.1-.3 26.4-1.2.1-.3 9.9 1.3 2.6v35.1l-1 .4-.2 17.6 69.8-65-25.7-.7v-21c.2-34.7.7-62.7-.4-96.5-.3-.3-2.9-.7-5.7-.8-13.2-.8-16.8-1.8-16.8-4.7 0-3.6 6-8 11-8.1 1 0 3-1 3-1l-1.1-385-31.2-30.1.1-9.6 38.5 37.6.9 384.7 1.4-.7.3-129.2c19.7 27.2 30.7 54.2 41.6 81.1l4-1.3-1.3-.4a302.6 302.6 0 0 0-43.6-85.5l.5-125.2c46.9 61.3 69.5 116.3 78.9 195.7l-23.8 11-2.4 2.8-18 8.2-1.7-2.6-10.9 7c8.4 13.5 8.1 33 1.2 43.2l3 1.7c.2.8 11.3-21-1-43.2l8-4.6c11.7 22.3 6.3 46.3.7 52.5 0 0 8.5 5 14.6 8a115 115 0 0 0 20.4 8.8c5 1.8 8-.3 8-.4l2.4-12.4-3.8-4.8 4.4-3.2 2-19.1-4.7-4.4zm411 5.6v12.3L614 713.7v-12zM131 692.8l-28.5 24v-10l28.5-24.6zm497.5 17c2.8 0 5 2 5 4.5 0 2.6-2.2 4.6-5 4.6-2.7 0-5-2-5-4.6 0-2.5 2.3-4.6 5-4.6zm-486.2 6.8-.1 113.4h-7.5l.5-114.8zm-25.1-1c2.7 0 5 2 5 4.5 0 2.6-2.3 4.6-5 4.6-2.8 0-5-2-5-4.6 0-2.5 2.2-4.6 5-4.6zm504.2 5c2.8 0 5 2 5 4.5 0 2.6-2.2 4.6-5 4.6-2.7 0-5-2-5-4.6 0-2.5 2.3-4.6 5-4.6zm13.5.1c2.7 0 5 2 5 4.6 0 2.6-2.3 4.6-5 4.6-2.8 0-5-2-5-4.6 0-2.5 2.2-4.6 5-4.6zm-510 6.3c2.8 0 5 2.1 5 4.6 0 2.6-2.2 4.6-5 4.6-2.7 0-5-2-5-4.6 0-2.5 2.3-4.6 5-4.6zm256.9.5c26 3 19 28 8 33.3-14.8 6.4-26.8-6.5-17.2-19.6 7-9.6 20.3-3.2 15.1 7.3-2.9 5.9-8.9 5.2-8.8-.8 2.1-5.7.2-3.6-1.5-1.6-5.3 6.3 5.3 13 10.8 6.7 3.3-3.8 4-8.3 2.9-12-2-6.1-9.7-9.7-18.5-4a86.2 86.2 0 0 0-19.2 43.3c-6.6 35.6-7 73.2-12.7 82.7l-6.1-.2c9-40.8 9-75.7 18.6-107.9 4.8-16 16.9-27.3 28.6-27.2zm-270.5-.2c2.8 0 5 2.1 5 4.7 0 2.5-2.2 4.5-5 4.5-2.7 0-5-2-5-4.6 0-2.5 2.3-4.6 5-4.6zm105.5.8c-6.9.1-13.8 5.3-13.3 12 .6 8.1 5.8 11.8 14.4 11 4.6-.5 4.5-.6 7.6 4.6a138 138 0 0 1 10 27.1c-3.4-4.3-11.7-12.3-19.2-12-8.2.5-15 7.7-9 17.8 3.3 4.9 9.2 5.9 15.1 4.3 8.9 12.7 10.5 25.4 13.3 40.2 0 0 3.6-31.6 4.6-44.3 2-19.3 5-31.8 13.1-47.2a160 160 0 0 0-21.3-9c-2.9-1-6-1-8.8-2.8-2-1.2-4.2-1.7-6.5-1.7zm412.3 3c2.7 0 5 2.1 5 4.7 0 2.5-2.3 4.6-5 4.6-2.8 0-5-2.1-5-4.6 0-2.6 2.2-4.6 5-4.6zm-398.3 9.7a64 64 0 0 1 10.5 25.8c.2 4.7-.8 10.3-1.7 15.7-.4 2.6-1.5 0-3.4-5.7-8-23.5-10.2-28-15.8-26.9-3.2.7-6.5.8-8.7-.3-7-3.6-7.7-15.7 2.7-18 8.2-1.7 13.5 5 16.4 9.4zm-.2-5.8c10.4 3.8 17 9.4 15 18.7-.8 3.4-1.3 6.3-2.3 6-1.2-.5-2.8-4.7-6-11.8-.7-2.4-8.1-12.9-6.7-13zm171.4.6c.5 0 1.4.4 2.6 1.4 8.1 7.4 3.7 24.1-7.2 29-4.5 2.8-12.7 2.3-12.8-.5 0-1 .3-1.3 1.4-1.3 9.2 0 18.9-11.7 16.2-24.1-.3-2-1-4.4-.2-4.5zm-284.6 3.7c2.7 0 5 2 5 4.6 0 2.5-2.3 4.6-5 4.6-2.8 0-5-2-5-4.6 0-2.5 2.2-4.6 5-4.6zm293.2 1.8c.5-.1 2.5.7 3.8 2.1 7.7 8.6 1.4 23.1-10.7 28.1-4.6 2.3-8.5.7-7.5-1.6 8.3-3.2 16-11.3 15.2-22.5-.3-3.9-1.7-6-.8-6.1zm-163 1.3 2.7 1.3-1.1 2.2c-.6-1.4-.6-1.9-1.7-3.5zm171.7 1.2c.6 0 2-.2 3.3 1 5 4.4 5.7 16.9 1 23a38.2 38.2 0 0 1-11.3 8.7c-2.5.3-4.1.6-8.2-1-1.3-.1.6-1.3 3.2-2.6 9-4.8 15-13.4 13.4-21.4-1-5-2.6-7.7-1.4-7.7zm9.1 4c2.4.2 4.2 2.1 5.4 3.8 5.9 7.8 1 24.3-11.2 27.6-8 2.3-11 .2-4.5-3.3 9.4-5 14.3-15 11.6-22.7-1.3-3.8-2.6-5.3-1.3-5.4zm9.8 5.7c2.8 0 5 2 6 4.1 2.3 5 1.9 12.2-1.1 17.1-3 5-8.9 9.1-15.3 9.7-1.7.2-3.2 0-4.4-.6-2.9-1.1-1.9-1.3 3.4-3.8a21 21 0 0 0 12.3-22c-.5-3.5-2-4.5-1-4.5zm-307.3-2v12l-27.7 24.1v-11.8zm235.3 1.8a67 67 0 0 1 4 8.8c-6.5 8.6-8.3 22.7-9.4 33.4-3.7 30.3-7.5 66.9-9.2 67.2l-7.2.2c2.8 1.6 6.4-50.3 12-83.2.4-2.5 6.4-28 9.8-26.4zm83.7 5.5c9.5 6 4.4 24.4-8.8 29-4.8 1.7-6.6 2-8.7 0-1.4-1.3-2.7-1.7.8-2.8 9.8-2.4 16.7-10.8 15-20.5-.1-2.4-2.6-8.7 1.7-5.7zm-76.9 5 4.3 2.6c-4.7 12.8-6.4 28-8.3 42.5-2.4 17.7-4.4 36-7.3 53.3l-6.6.3c3.5-10.8 5.1-40.8 8.6-66 2-12.6 4.2-30.1 9.3-32.7zm7.5 4.2 5.5 3c-2 7.1-4.3 15-5.4 22.5-2.6 16.7-3.6 36.9-9.5 68l-6 .5c1.5-10 4.4-32.3 6.9-52.8 2.8-23.8 7.3-41.8 8.5-41.2zm-249.6-1v11.8L103 802.1v-11zm259 4.8 5.3 2.8c-3.6 13.1-5.3 25.3-7.1 37.2-2.5 16.1-4.3 31.7-7.6 49.4l-6.4.4c3.2-13.6 7-45.4 9.8-67.8 1.7-13 5.1-22.3 6-22zm-152.5 26.6c0 9-2 22.9-2 22.9-1 .4-3.5-20.4-12.6-29.9-11.2 4.9-20.7-6.6-13.1-14.4 14.8-11.7 27.7 13.3 27.7 21.4zm160.8-23 7.7 3.3c-1-.2-2.7 4.7-4.5 12.4-5.5 23.4-11 69.4-11.8 69.4l-6 .4c2-12.4 4.7-31.9 7.5-49.2 3.1-19.5 6.1-36.2 7.1-36.3zm10.8 4.5 5.8 3.2c-.5-.3-2.6 5.5-3.6 9.5-5.4 23.3-7.8 43.7-11.1 66.3l-6.4.8c-.5.6 5.6-44.5 10.6-67.3 1.7-7.7 4.2-12.8 4.7-12.5zm9.1 4 6.3 3c-6.9 17.8-7.5 34.9-14.1 70.8l-6.7 1a598 598 0 0 1 12-70c.8-3 2.5-4.7 2.5-4.8zm9 4.2 7.1 2.7-15 65.8-6 .8c3.8-19 5.8-41 10.9-58.3 1-3.6 1.6-7.8 3-11zM118.3 798c2.8 0 5 2 5 4.6 0 2.5-2.2 4.6-5 4.6-2.7 0-5-2-5-4.6 0-2.5 2.3-4.6 5-4.6zm6.5 10.8c2.8 0 5 2 5 4.6 0 2.5-2.2 4.6-5 4.6-2.7 0-5-2-5-4.6 0-2.5 2.3-4.6 5-4.6zm-13 .3c2.8 0 5 2 5 4.6 0 2.5-2.2 4.6-5 4.6-2.7 0-5-2.1-5-4.6 0-2.6 2.3-4.6 5-4.6zm6.3 10.6c2.7 0 5 2 5 4.6 0 2.5-2.3 4.6-5 4.6-2.8 0-5-2-5-4.6 0-2.6 2.2-4.6 5-4.6zm45 15.4-59.8 55.7-.2-11.1 41-37-41.3-.7.1-7.6zm-27.4 10.6-32 28.1-.3-28.6zm34.2 2s-.1 1.1 2.9 6c8.7 14 10.7 27 18.4 42a44.5 44.5 0 0 0 14.4 17l-9.6 16.2 271.6-.2-43.4-70c-69 11.7-131 9.5-189.3 0-3.3 4.2-7 12.6-10.5 18.7-8.7-21.6-36.5-35.6-54.5-29.6zm10 2c14.3-.2 26.2 6.1 36.8 19.5 3.4 4.2 4.7 6.1 4.7 8-.3 2-4.8 8.6-4.8 8.6s-2.6-6.6-3.2-9.7c-3.9 13-5.4-2.1-6.9-6.1-4.7 12.6-7.2-4.8-7-9.5-6.4 8.1-6-5.2-9-7.7-.1 7-4.6 2.2-10.4.7 3 4 9 6.6 1.3 7.5 7.6 4.8 11.4 4 4 6.7 5.7 2.9 15 6.3 4.7 8.2 6.3 3.7 16.3 5.2 5.5 8.7 8.2 4.6 19 4.3 3.7 8 5.6 3 15.4 4.1 4.4 6.7 1.7.7 4.6 2.5 4.6 2.5l-4.7 7s-1.7-.2-2.9-1.3c-5-4.9-9.9-13.8-14.2-26.3-3.3-9.2-7-18.9-11.3-27-2.3-4.2-2-4.4 4.6-4.5zm242.5 16 37.5 59.3h-9l-33-50.6L373 879l14.7 45.3-13.3.3-13.1-44.6c-25 1-48.8 1.1-69.5-.4l-7.1 45.2-12.7-.4 8-44.8-41.9-5-22.8 50.2-13.1.2c8.5-13.1 29.6-55.6 33.6-59.7 91.4 13.6 138.9 6.3 186.5.4zm-8.8 13.7L442 925l-45.7.2L381 883zm-170.8 1.2c9 2.4 18.7 3 28.4 3.3l-8.3 40.7-40.5-.1zm113.8 4.9 10.7 39.6-76.1.3 6.3-39.5c20 1.1 39.5.1 59.1-.4z" style="display:inline;fill:#000;stroke-width:5.67895746" transform="matrix(.31382 0 0 .31485 .3 720.8)"/></g><g style="stroke-width:3.18132639"><path d="M2406.7 536.5h85.3v295.7h-85.3z" style="fill:#000;fill-opacity:1;stroke:none;stroke-width:3.18132639" transform="matrix(.03766 0 0 -.03778 83.1 998.5)"/><path d="M2917.9 395.1a250.2 250.2 0 1 1-468.5 138.5 250.2 250.2 0 1 1-129-236.4 250.4 250.4 0 0 1 257.3-429.5 250.2 250.2 0 0 1-.4 430 250.8 250.8 0 0 1 340.6 97.4z" style="fill:#000;fill-opacity:1;stroke:none;stroke-width:3.18132639" transform="matrix(.03766 0 0 -.03778 83.1 998.5)"/></g></g></svg>