<svg xmlns="http://www.w3.org/2000/svg" width="234" height="333"><g transform="translate(0 -719.4)"><rect width="233.2" height="332.2" x=".4" y="719.7" rx="8.9" ry="8.9" style="fill:#fff;fill-opacity:1;stroke:gray;stroke-width:.75590551;stroke-linecap:butt;stroke-linejoin:miter;stroke-miterlimit:4;stroke-dasharray:none;stroke-opacity:1"/><g style="stroke-width:3.18132639"><path d="M2406.7 536.5h85.3v295.7h-85.3z" style="fill:#000;fill-opacity:1;stroke:none;stroke-width:3.18132639" transform="matrix(.01883 0 0 .0189 -29 765)"/><path d="M2917.9 395.1a250.2 250.2 0 1 1-468.5 138.5 250.2 250.2 0 1 1-129-236.4 250.4 250.4 0 0 1 257.3-429.5 250.2 250.2 0 0 1-.4 430 250.8 250.8 0 0 1 340.6 97.4z" style="fill:#000;fill-opacity:1;stroke:none;stroke-width:3.18132639" transform="matrix(.01883 0 0 .0189 -29 765)"/></g><g style="stroke-width:3.18132639"><path d="M2406.7 536.5h85.3v295.7h-85.3z" style="fill:#000;fill-opacity:1;stroke:none;stroke-width:3.18132639" transform="matrix(.01883 0 0 -.0189 171.2 1006.7)"/><path d="M2917.9 395.1a250.2 250.2 0 1 1-468.5 138.5 250.2 250.2 0 1 1-129-236.4 250.4 250.4 0 0 1 257.3-429.5 250.2 250.2 0 0 1-.4 430 250.8 250.8 0 0 1 340.6 97.4z" style="fill:#000;fill-opacity:1;stroke:none;stroke-width:3.18132639" transform="matrix(.01883 0 0 -.0189 171.2 1006.7)"/></g><g style="stroke-width:3.18132639"><path d="M2406.7 536.5h85.3v295.7h-85.3z" style="fill:#000;fill-opacity:1;stroke:none;stroke-width:3.18132639" transform="matrix(.03766 0 0 .03778 -33.6 773.2)"/><path d="M2917.9 395.1a250.2 250.2 0 1 1-468.5 138.5 250.2 250.2 0 1 1-129-236.4 250.4 250.4 0 0 1 257.3-429.5 250.2 250.2 0 0 1-.4 430 250.8 250.8 0 0 1 340.6 97.4z" style="fill:#000;fill-opacity:1;stroke:none;stroke-width:3.18132639" transform="matrix(.03766 0 0 .03778 -33.6 773.2)"/></g><g style="font-style:normal;font-variant:normal;font-weight:700;font-stretch:normal;line-height:0%;font-family:'Levenim MT';-inkscape-font-specification:'Sans Bold';letter-spacing:0;word-spacing:0;fill:#000;fill-opacity:1;stroke:none;stroke-width:3.18132639"><path d="M101.8 91H86.6l-6-7.6q-7.3 4-16.3 4-15 0-25.1-10.1Q29 67 29 52q0-9.6 4.6-17.6 4.6-8.1 12.9-13 8.1-4.7 17.5-4.7 14.6 0 24.8 10.4 10 10.5 10 25.1Q99 66 90.2 76zM86.2 52.3q0-9.4-6.3-16-6.4-6.9-15.8-6.9-9.7 0-16 6.7Q42 42.5 42 52.3q0 11.2 8 17.7 6.2 5 14.2 5 4.6 0 8.6-1.7l-12-15.5H76l6 7.8q4.2-6 4.2-13.4z" aria-label="Q" style="font-size:93.65592194px;line-height:1.25;stroke-width:3.18132639" transform="matrix(.25896 0 0 .38155 .3 720.8)"/></g><g style="font-style:normal;font-variant:normal;font-weight:700;font-stretch:normal;line-height:0%;font-family:'Levenim MT';-inkscape-font-specification:'Sans Bold';letter-spacing:0;word-spacing:0;fill:#000;fill-opacity:1;stroke:none;stroke-width:3.18132639"><path d="M-799.8-774.3H-815l-6-7.7q-7.3 4-16.4 4-14.9 0-25-10.1-10.1-10.3-10.1-25.2 0-9.5 4.6-17.6 4.6-8.1 12.9-13 8.1-4.7 17.5-4.7 14.6 0 24.7 10.4 10.1 10.5 10.1 25.1 0 13.7-8.8 23.6zm-15.7-38.8q0-9.5-6.2-16.1-6.4-6.9-15.8-6.9-9.7 0-16 6.7-6.1 6.6-6.1 16.3 0 11.2 8 17.7 6.2 5 14.2 5 4.6 0 8.6-1.7l-12-15.5h15.2l6 7.8q4.1-6 4.1-13.3z" aria-label="Q" style="font-size:93.65592194px;line-height:1.25;stroke-width:3.18132639" transform="matrix(-.25896 0 0 -.38155 .3 720.8)"/></g><g style="stroke-width:3.18132639"><path d="M2406.7 536.5h85.3v295.7h-85.3z" style="fill:#000;fill-opacity:1;stroke:none;stroke-width:3.18132639" transform="matrix(.03766 0 0 -.03778 83.1 998.5)"/><path d="M2917.9 395.1a250.2 250.2 0 1 1-468.5 138.5 250.2 250.2 0 1 1-129-236.4 250.4 250.4 0 0 1 257.3-429.5 250.2 250.2 0 0 1-.4 430 250.8 250.8 0 0 1 340.6 97.4z" style="fill:#000;fill-opacity:1;stroke:none;stroke-width:3.18132639" transform="matrix(.03766 0 0 -.03778 83.1 998.5)"/></g><g style="display:inline;stroke-width:3.18132639"><path d="M376.6 1111.8c4.1-52.3 1.7-108.6 4.5-151.2-1.5-3 4.4-11.2 4.7-11.2-3.4-6.4-4.4-22.6.1-37 35.8-130.2 99-231.2 164-325.3C600.2 744.4 435.7 852.5 399.8 989c-12 47.3-10.6 80.4-15.5 123.1zm-271.5-1L-86 808.5l42.5-20 196 321.8Zm257.4-553.1c1.6 8.6 8.4 13.3 15.6 9.4 7-3.7 7.9-4 3.4 2.8-9.8 14.8 9.6 29.6 22.4 16.9 4.5-4.6 5.3-12 1.3-15.8-4.5-4.4-5.5-6.6 1.2-3.2 17 7 26.6-17.5 10.2-26-4.2-2-12.5-.3-15.7 3-3.8 3.8-4.3 2.4-3.2-.6.6-1.8 1-4.7 2.5-8.2 1.1-2.7 2-6.4 2-6.4h-17.4s1.3 4 2.7 7.3c1.3 3.2 1.8 5.6 2.4 6.9 2.3 4.7-.5 3-5.1-.6-6.6-5-15-3.7-19.7 2.7a20 20 0 0 0-2.6 11.8zm27.8-243.9 37.4-.7L467.5 427c-33.5 54.2-43 115.6-5.5 178.4l-118.4-1c28.8-93.8 34.2-193.4 46.7-290.5zm37.4 147.9c5-4.4 5.8-12.6 1.3-18-5.7-6.9-4.3-7.2 3.3-2.7 11 6.5 21.8-7.2 15.4-19.6-4-7.8-17.5-9.7-22.7-2.8-4.4 5.7-3.9.4-.5-7.2 1.3-2.8 3-8.1 3-8.1l-18 .2 3.5 8.4c3.2 8.8 3.3 11.5-1.8 5.9-10.9-9.4-24-2.9-24.2 10.5 0 10.2 9.2 16.9 17.4 12.2 5-2.9 7.2-3.5 1.6 3-4 6.4-2.7 14.6 2.4 18.4 6.9 4.3 14.3 4.1 19.3-.2zm-250.5 32.5c1.4-1 2-.3 1 1.1-.7 1.2-2.7 3-4.4 4.8-8.5 9.3 2.3 21.4 15.9 19.7 9.3-1.2 14.9-15.7 8.1-21.5-2.2-1.5-4-1.9-5.6-3.9-.1-.8.3-1.4 1-1 1.3.5 3.7 2.5 5 2.9 8.6 2.4 15-1 17.3-7.1 1.5-7 .3-14.6-5.4-18.6a13.2 13.2 0 0 0-18 3.3c-4.7 6.2-5.3.3-1.3-8.3 1.4-3.2 2.5-7.8 2.5-7.8l-16.7.7s.9 3.6 2.3 7.7c3.6 9.4 6.2 12.1 1.6 7.2-20.2-12.2-27.2 4-27.6 10.5-.7 12.2 17 19.3 24.3 10.3zm83.4-182.9 30 .5c-24 120-71.5 220.4-150.3 288.9l-146.9-2.1-70.2-50.3 27.7-35.2c186.3 21.3 266.7-70.2 309.7-201.8ZM122.3 588.8c8.9-3.8 12.6-13.7 6.9-20.4-5.2-6.1-5.7-8 2.3-3.2 10.7 6.4 21.3-6 16.2-18.4-3.2-7.7-13.6-10.2-21.1-5-6.7 4.8-6.5 2.6-3-5.1 1.7-3.8 3.1-10 3.1-10l-18.4.1s1.3 4.4 2.6 7.4c3 7 4 10.1 2.6 10.1-.6 0-2.9-2.1-4.2-3.3-3.6-3.5-13.6-4.2-17.4-.7-11.1 10.4-5.1 28.8 9 25.6 9-2 11-5.5 3.5 3-9.4 10.3 4.8 25.5 18 20zm-116-5c7.7-3.4 10.3-12.2 6.1-17.9-4.2-5.7-6.3-9.4 1.3-4.2 10 5.2 19-1.5 19-13 0-12-13.5-17.9-23.6-10.7a16.7 16.7 0 0 1-4.1 2.3c-1.2 0 1-6.5 3.5-10.8l3-5.6L-7 523s1 5 2.4 9c2.8 7.8 3.5 10.4-1.6 5.9-13.7-13-28.6 3.2-23 17.5 3 8 12.5 8.1 18 4.2 5.2-3.9 2.5 1.3-1 5.4-9.6 11.2 4.2 25.4 18.4 18.9zM850 291.6l.7 22.3-240 195.5-9.8-15.4zm-884.9 31.8c34.5-24 73-67.3 111-89.7 26.7 63.5-38.4 124.6-111 89.7Zm628.5-9c-33-118.6 129.5-108.9 108.8-84Zm-772.1-85.8L59 39.2l10.6 16.3-250.7 200.7Zm647-186.4c.6 2 7.7 9.7 7.7 10.4-2-1.5-14-8.4-20-1.9a22.4 22.4 0 0 0-4.6 14.1c2.4 10.7 14.5 14.6 23.2 7.4 2.5-2 4.7-4.6 5.2-3.7.4.8-1 4.4-2.1 7.3-1.3 3-6.1 9.2-2.7 9.3l16.7.1s-.5-3.9-2.5-8.3c-3.6-8-3.4-12.5 1-6.6 8.7 11.5 25.8 2.2 24.2-11.5-1.2-9.8-11.1-15.5-18.5-11-.8.6-3.2 2.9-3.5 2.9-.9 0 1.6-3.7 3.3-6.8 5.5-10.3-2.5-20-14.8-19a17 17 0 0 0-8.4 3 13.6 13.6 0 0 0-4.2 14.3zm204.3-94A415.4 415.4 0 0 0 743 .3L720.3 35C569.8 19.5 459.6 77.8 412 238.8l-24.9 4.5c10.5-100.6 45.3-200.1 146.2-296.6ZM528.2-29.4c0 4.8 8.7 10.5 6.7 11.8-.9.5-6-4.1-8.4-4.4-17.4-2-21.3 25-4.1 28.2a22 22 0 0 0 12.5-3c2.8-2.3 4.7-4.2 5.3-4 1 .4-1.4 5.2-3.4 8.8-1.8 3.3-4.3 9.8-4.3 9.8a49 49 0 0 0 19.8.3s-1.8-5.7-3.5-10c-2.2-5.5-2.6-9-1.1-8.7.6.2 1.4 2 2.7 3.1C559 10 571.5 7 575-4.5c3.2-10.7-9.6-22-18.7-16-3.2 2-3.1.4 0-4.3 3-4.2 2.3-10.8-.2-14.7-9.4-10.2-28.2-3.2-27.9 10zM669.8 4.2c-.4-2.4.2-1.7 2.7 1 7.8 8.3 21.5 7.1 25-3.8 3.7-10.8-6.8-23.4-16-19.3-5 2.2-5 1.4-2.2-2.1 7.2-9.1-.5-21.4-12.6-21.4-11.1 0-17.8 10.6-12.5 19.9 2.2 3.8 1.4 4.6-2.4 2.6-11.3-5.6-22.1 12.2-14 23 4.9 6.3 16.2 7.1 22.8 1 3.4-3.3 3.4-1.7.8 5-2.2 6-4.7 10.8-4.7 10.8l19.6.4s-5-10-6.5-17.1zM246.3 241s-28.3-81.5-37.9-120.6C230.6 69 260.8 19 212-56l120.9 1c-38.3 84.3-41.5 298-50.3 298.4Zm11.6-95s-5.9-8.2-6.2-14.9c-.6-4.2.5-4.5 2.6-.1 10.7 12 25.4.7 25.6-9.9 1.3-9.6-9.9-18-17.2-13.2-5 3.3-6.5 2.3-1.9-4 6.5-8.7-.3-20.3-11.7-20.3-14.8 0-20.7 13.8-10.2 23.8 7.8 7.4.5 3-5.7.3-12-5.2-20.2 7-14.9 19.6 3.7 8.7 14.7 11 21.3 4.1 3.6-3.7 6.9-6 4.9-.2-1 4.7-6.6 14.5-6.6 14.5zm20.2-129.9s-7-9-8.2-15.8c-.4-2.5 1.3-1.8 5.3 1.7 13 11.3 31-8.5 19-20.9-4-4.2-8.3-5.5-13.2-3-6.1 3.1-5.6 1.6-2.5-1.7a13.2 13.2 0 0 0-.5-17.8c-13.1-12-34.2 5.4-22 18.1 5.2 5.6 2.7 4.8-3.2 1.2-11-6.8-23.6 11.4-15.3 22.2 9.8 8.5 17.3 4.4 24.2-.8 1.5-.7 2.8-1 2.8-.4 0 1.2-7 17.3-7 17.3zM120-36.2c-7.4-.6-11.9-69.6-2.6-91.3 20.2-91.8 79.6-158.2 116.8-214.2C293.8-425 288-564.6 290.5-559l8.3 1s-7.4 81.8-4.1 118.7c3.4 32.6 2.5 34.6.2 37.8-.7 3 .1 11.9-.6 14.9-27.4 120-91 243-156.3 335.6zm604.7-203.4L530.4-553.7l47.6-3.8c17.3 28.2 186.2 296.6 186.2 296.6z" style="fill:#d40000;fill-opacity:1;stroke-width:3.18132639" transform="matrix(.16369 -.00142 .00154 .15142 61.7 844.5)"/><path d="M-105 1114c23.4-82.2-35.4-274.7-73.2-300.2 44.7-1.4 98.4 0 96.8-4.2 0 0 186.6 301 185 302.5-1.5 1.5-208.6 2-208.6 2zm775.1-459.3c-46-7-27.4-45 2.3-48.7-3.9.6 3.3-19 27.3-26.7 5.5-9.7 10-26.5 15-34.2-14.3 4.5-31.9 16.4-96.8 6.1 6-30.7 68.3-35.3 90.6-30.3 13 3.2 25.5 22.6 29.5 23 40-6.1 90.3 30.5 74.6 67-2.5 5.2-8.4-6.3-21.8-11.3-43.3-16.2-46-39.8-56-50.4-3.5-.7-23.2 37-23.2 37l5.8 26c10.4-.9 56.3 28.2-1.5 47-16.5 54.7-46.1 15.6-45.8-4.5zm111.8-244c-2.4-2.6 2.2-19.6 8.1-29.4 3.2-5.2 10.6-8.7 14.8-8 7.6 1.5 6.3 12.6-4.1 44.9-.5 4.7-10.8 5-18.8-7.5zm-914.2-237.4c-12.6-.1-1-34.4 7-45.2 2.6-3.3 12.6 4 13 9 .9 8.9-13.2 39.9-20 36.2zm-6.4-233.6C-123.3-56.4-99-40.7-87.6-32-73.2-21-77.4 0-65.9 2c7.9-3.8 22.6-38.3 22.6-38.3s3.8-17.8-6.3-23.4c-25.2-14-24.6-28.7-23-30 7.7-19.4 22.7-15.8 30.8-16.8.3-10.6.2-33.2 22.2-30.6 19.3 2 21 29.7 12.8 29.8-.2-.4 36.6-4.8 36 19.4-.4 13-22.3 29.6-29 23.5 0 0 3.3 26.2-29.7 34.8-7.7 7.7-14.4 40.9-14.3 38 20-17.8 51-21.6 100-14.6-31 55.9-114.6 28.6-121 17.7-42.1-13.2-81.5-30.3-73.9-72Zm363-130.8c44.6 4.5 93.6-9 130.6-1.1 4.3.6 8.8 6.9 11.3 8.3 19 10.7 39.2 7.7 70.2-3.7 7.7-2.8 149.3-.1 149.3-.1 31.7 48 88 138.3 89.3 135.2 0 0-78.5-1.7-114.6 0-25.5 1.2-10.6 4.9-28.2 5.4C407.4 44.5 381.6 245 381.6 245s39.5-10 49.6 1c50.2-141.7 143.3-205.6 272-191.5 59.4 6.6 129.7 65.9 129.7 65.9L704.4 222.6c-98-50.9-142 95.3-112 96L851 112s4.2 17.1 3.8 17.7c-18.6 23.8-327 268.5-327 268.5l-13.3-15s-8.5 7.4-13 12.4a27 27 0 0 0 8.3 21.4c-61 48-64 137.1-20 186.3 0 0-19.8 1.2-21.9 1.5-25.2 4-49.8-120.3.7-177.5-24.6-49.6-39.4-116.9-42.5-120 .6 7.9-39.8 4.8-39.8 4.8-4.2 100.2-15.7 198.4-40.9 292.9l185.5 6-80.5 136.2s-88.6-3.2-126.7-6.3c-39.6-23.6-62.8-6.2-100.3 2-53.3 1-131.6-2.4-131.6-1.7-26-53.1-54.2-92.2-92.5-138-4.8-8.2 157.6-1.3 157.6-1.3s82.7-122 97.8-156.5c11.9-27 38.9-125.3 38.9-125.3 1.1 5.1-14.5-25.9-51.6-25.6-33 204-276.5 270-421 137l-1.1-23.8L144.7 150l14 16.7c-3-2.5-199.3 157.2-196 156.2C20 353.8 87 330.1 80.3 231c46-32.5 87-70.5 127.1-109.3.9-1.5 43.3 98.1 42 117.2 25.1-8.2 39.7 9.6 39.3 6.6-8.4-57.4 44.3-274.3 45.5-299.3-27.8-2.5-64.8-1.9-122.8-4.8C257 32 240 92.9 174.4 147.8l-13.5-17.3c5.5 3.1 96-73.4 25.1-190-3.3.2-38-3.6-38-3.6s72.5-112.1 76.3-128zM574.2-560s203.2-2.6 203.2 3.4c-7.7 109 16.6 208.8 77 301.6 0 0-90-4.2-88.4-3z" style="fill:#e2cf00;fill-opacity:1;stroke-width:3.18132639" transform="matrix(.16369 -.00142 .00154 .15142 61.7 844.5)"/><path d="m3920.8 104.6-1056-1.3 6.6 1694.8h1054.7zm-96.5 6.7c-.1 0-13.7 179.3 80 296.8-57.2-8.7-90 0-123.3 23.6l4.6 4.7c45.8-28.2 84.7-20.8 124.5-16.4l-1.1 230.8c-.3 11.2-46.5 6.2-75.8-15.8a137.8 137.8 0 0 1-45.5-47c-2.7-3-19.3-34-50-92.9-15.5-29.9-36-70.7-52.8-102.3a3795 3795 0 0 1-32.3-62.2 2278 2278 0 0 0-33.4-64.7c-22.5-41-58.9-112.7-71.8-138.4-2.9-6.6-7.3-9.7.5-9.5 1.8 0 3.5.2 4.5.4 1.4.7 3-2.4 3-2.4zM2884 1081.8l-.7-18.2 306.9-253 9.8 12.5zm296.5-443.4a93 93 0 0 1-4 1.4c-8-35.1-3.5-82 5.8-117.4 13.6-49 38.9-88.3 67-127.8 64.3-90.2 92.8-158.2 91.7-279.3l9.2 1c-.4 19.1-3 33.5-3.7 59-1.2 27.2-.7 48 2.2 74.6 1.4 13.1 2.3 21.6 0 23.3-1 .9-2 5.4-1 7-.1 3.7-.6 11-.6 11-14.7 72-93.7 257-166.6 347.2zm38.4 164-16.3-20s-12.5-10-1.3-21.4c32.5-33 32.7-74.8 1.3-112.5-2-4.8 9.8-29 9.8-29l24.7.5c38.6 47 49.1 129.8-18.2 182.4zm22.7-186.2c.8-3.2-36.6-2-36.6-2 23.2-34.6 43-70.2 62.4-106 30.1-54 71.9-148.8 85-217.4 9.7 80.3 23.9 199.5 92.6 204.2 22.6 1.5 48.7-13.9 53-11.3l142.7-1.2c29.3 59.4 60.7 97.6 98 138.2a368.2 368.2 0 0 0 91 35.2c17.9 4.5 19.6 1.5 55 6.6a71.6 71.6 0 0 0 23.4-2.6c-28.3 22.2-60.9 16-96.8 6.4-2-.5-4-1.2-6.2-2l-27 40.9c-60.4-14.3-254-4.2-305 206.3 0 0 5.2 2.7 4 1.3 40.5-182.8 211.7-219.2 293.4-201l-7 10.7c-135.5-16.6-245.8 68.2-272 188.3l2.5 2.4c50.9-181.7 264.6-248.9 397-123l24.4-17.2-.8 23.3-325.8 273-13-13.5s-2.3 1.7-4.9 3.9c-8.4 7-11.7 8.7-9.3 12.6 2.3 3.9 11.4 12.7 11.8 13.7-54 44-71.1 128.9-19.8 188.3 5.7 6.3 4.7 8 3.6 1-46-50.2-40.2-138.8 17.3-180.8l11.5 15.2c-25.3 55.5-38.7 142 27.7 149.5 23.9 63.9-3.5 139.5-34.1 190.2-32.4 58.4-71.7 106.9-96.3 170.5-11.9 26.6-30.8 105.3-29.8 165.4h-7.2c0-24.6 1.7-53.7 1.9-72.3 1-90.7.8-85.3 2.9-87.6.6-.8 2.5-1.6 2.7-2.3.3-1-1.5-2.8-2.2-5a30 30 0 0 1-1.7-9.6c0-3.4 3.2-8.3 2.6-9.4-14.3-50-15.4-140-61.6-181.4-22.6-19.4-52.7-20.2-91.6-4.2-86 .1-73.2 4.5-142.6.6-28.7-52.6-63.5-103.8-101.2-141.7-17.6-19.7-42-30.4-65-44.6a110 110 0 0 1 31-38.7c2.4-3.3 4-7 7.1-9.9 234 22.5 284.7-204 274-198.3l-2 1.8c-64 233.4-291.6 225-406 124 0 0-16.2 14-16.3-1.4 0-14 5-18 5-18l321.3-262c5.8 3.8 12.2 16.3 14.8 14.9 5.9-3.2 14.6-9.5 14.4-13.3-.3-2.9-11.8-21-11.8-21 86-89 47.2-128.7 19.6-189.7zm121.7-500c1.6 0 3 .8 4.1 2.5 2 3.1-5.8 21.2-10.6 24.3-4.6 3-5-.5-1.6-18 1-5 4.7-8.7 8.1-8.7zm471.3.4h74.4l.5 285.7c-55.5-78.1-83.7-168.1-74.9-285.7zm-451.3.7c1.9-.1 3.5.4 4 1.8 2 4.8-9 25.6-22.5 42.8-7 9-10.5 11.6-12.7 9.4-1.8-4-1.8-8.8 4.7-16.2 5.3-6.1 14.3-20.5 18-28.5 1.7-4.7 3.3-9 8.5-9.3zm76.4 1c2.2 0 4.4 0 5 1 13 26.5 37.5 50.4 62.5 63.2 3.6 2 2 7.2 3.1 10.9-28-4.2-65-44-74.8-73 0-2.2 2-2.1 4.2-2.1zm44 0c5.5 5.7 14.3 12.5 16.3 19 1.2 4 2.1 8.6 1.3 10.7-4.9 3-29.2-25.1-28.2-28.4 3-2 7-2.5 10.6-1.3zm-105.3-.4c2.4 0 6 0 6.6 1.7 3 12.3-25 60.2-45.5 73.7-7.3 4.8-7.7 3.6-7.2-4.5.4-5.5 1-5 8.4-12.1a143.3 143.3 0 0 0 28.7-39.8c8.2-17.9 6.2-19 9-19zm19 .2c2.7 0 5.2.9 5.9 2 1 1.7-.3 4.3-1.2 7.5-9.2 26.1-32.2 63.8-59.2 85.2-10.5 8-12.3 8-13-.4-.5-4.8 1.8-6.2 6.7-9.6a143.3 143.3 0 0 0 52.2-71.6c1.6-5.5 1-10.4 4-12 1.4-.8 3-1.1 4.6-1.1zm142 45.3c1.2 1.9 9 14.1 2.6 9.5-2.6-2.2-7.4-7.6-15-16.2-18-20.5-18.6-19.2-18.2-24.3.1-6.6-4.6-17.5 5.6-14.7 10.1 11.8 16.4 31 25 45.7zm-82-45c2.1 0 4.5.4 6.5.8 11.9 22.3 40.8 41.9 40.7 41.8 0 0 .8 9.7-.3 11.4-.6 3-46-31.5-51-52.1.5-1.3 2.1-1.8 4.2-1.8zm-32.2.5c10.6 19.5 32.6 64 84.3 82 3.7.7 7.6 11.3 4.8 14.2-28.3-8.2-79.7-36-97.2-96 1.7-1.6 6.3-1.3 8-.2zm-13.9 3.8c-1.8 0 24.4 75.5 99 98 6.4 2 10.1 4.8 9.7 8.6-.5 4.9-.3 5.5-7.5 1.9-20.3-10.7-49.3-15.6-73.5-3.3-3.8 1.9-7.6 7.1-4.6 10.4 1.8 1.7 6 .4 11.5-1.7 28.1-11 71.3-4.5 78.9 12.7 5.4 12.3 6.3 21.3 3.4 22.8-2.3 1.1-6.1-3-12.9-8.9-21.4-18.8-47-24-67.4-6-4.4 4-8.8 3.3-10.3 4.9-1.5 1.6.3 5 1.5 8.5 1.3 3.6 1.4 4.6 0 7.6a31.7 31.7 0 0 0-1.6 13.4c.5 9.6 6.9 18 25.2 30.6 14.3 10 25.5 15.5 8 1.4-30-24.3-35.4-34.2-16-25.8 19.5 7.8 46.4 0 65.5-14.6 6.5 0 10.3-1.2 13.8 1.3 14.2 33.4 25.8 77.8 44.7 120.9-22.6 25.5-101.2 88-157.2 85.7-48.4-2-65.5-81.1-76.2-124.9-3.6-18.5-7.7-37.4-7.2-63.5 0 0 .9-.7 2.1-.5 8.1 1.6 22 2.6 29.2 1 12.9-3 15.4-5.3 16.2-3.5.9 2.3-4.5 7.3-13.9 13.7-4 2.8-15.9 8.5-14.6 9.4 2.8 1.9 17.1-5.8 19.6-7.8 3.7-3.2 6.3-3.4 8-1.6 2.2 2 2.6-.2-4.3 17-7.7 19-7 20.8 8 32.5 5.2 4 9.9 8.1 11 9.9 1.5 2.3 2.4 5 3.1 6 2.5 3.3 1-2.1-.5-10.7-1.8-6.4-8-12.8-12.5-15.9-8.1-5.6-6.9-11.2-.1-30.4 19.9-57 14.8-82.3-7-94.6-10-5.6-37.6-4.1-46.3 3.2-4.3 3.5-3.7-3.5-3-4 52.5-36 64.8-70.5 78.2-103.7zm101.4 27.8c14.9 14.8 33.4 35 44.6 49.2 6.1 7.6 9.4 15.5 14.3 23.5.9 1.4 1.8 3 1.2 3.7-.3.3-2.4-1-3.6-1.8-11-8.2-56-59.6-56-59.6-2.1-8.4-3.6-11.3-.5-15zm8.9 35s39 42.6 61.5 63.6c4.4 9.2 12.8 22.5 12.6 24.8-.1 1-4.8-2.7-4.8-2.7-24.7-22.7-47.6-48.4-71.3-72.6.2 0-2-10-2-14.2.6-2 3 .2 4 1zm84.8 109.3c5.2 8.5 9 16.2 11.6 21.2 4.2 8 2.8 8.2-1 5.3-27.9-22.9-51.3-50.8-77.6-76.3a474 474 0 0 1-10.3-11.3c.3.2-8.6-18.4-3-18 4.3 1.6 7.2 6.3 10 9.3 13.8 14.8 40 40.2 70.3 69.8zm-244-61c11.6-.4 23 2.6 28.7 9.7 5.2 6.4 7.3 16.6 4.4 19.6-1.8 1.8-8.2-3.4-8.2-3.4-27.2-15.2-36.5-7.9-51.3-3.4-2 .6-4.3-5-1.6-10.6 5.4-9.4 19.1-11.6 28-12zm171 14.4c29 29.1 58.5 61.5 90 86.6 4.3 3.7 7.4 6.1 9.4 8.1l13.7 27.8c-33.7-23.5-109.6-104.7-108.8-104.2.8.4-6.3-14.8-4.4-18.3zm-57 4.8c5.4 0 11.2 1.7 15.8 3.5 14.6 5.8 23.8 12 8.7 10-21.1-3-28.3-3.1-36-1.9-14.4 2.3-15.5 4-16.8 1.7-3.3-6 12.5-13.1 28.4-13.3zm-119.7 1.8c5.3 0 11 1 16.7 3.5 17.9 7.9 21 13 5.8 10.5-8-1.3-22.4-1.1-32.8 1.5-3.3.9-7 2.8-7.8 3-3.7 1.3-4.7-1.5-3.1-6.1 2.7-8 11.1-12.4 21.2-12.4zm129.6 22.8 3.7.3c-4.7 26-30.8 23.5-37.8 1h3.7c13.8 21.5 24 8.8 30.4-1.3zm14.5 1.3c12-.1 11.3 7.1-1.3 12-9.6 3.7-10.7 3-7.2-4.1 3.4-7 3-7.8 8.5-7.9zm-124.3 1c1.2 23.5-31.6 27.8-33.6 2.2l3.1-.2c10.8 20.2 23.2 8 27-2zm14.6 3.2c3.7 2.5 1.4 6-6.6 11-7.3 4.5-9.2-1-3.2-8.6 2.5-2.5 6.7-4.5 9.8-2.4zm57 0c1.4-.5 4.8 5.9 1.9 7.4-1.8.9-4.3-1.7-4.6-3.6-.2-1.5.7-3.2 2.6-3.8zm98.2 1.4c21.9 24.2 44 48.4 108.4 100.9 0 0 9.1 16.2 11 22.5-1.5 2-2.3 1.7-6.8-.5-42-32.5-81.2-72-111.8-108.6-1.4-5.2-4.7-10.2-.8-14.3zm-208.8 2.4c2.5 0 6 5.5 4 8.9-1.5 1.2-4-.7-5-2.3a6 6 0 0 1-.4-5.5c.4-.7.9-1 1.4-1zm218 33.4c-.2-.8 101.8 102.6 114.8 100.6 6.1 3.6 21.3 33 21.3 33 .4 1 .4 2.6-2.1 1.4-17.2-8.5-89.3-68.3-126.2-112.9a178 178 0 0 1-7.9-22zm-121.3 15.2c17.8 8.6 10.1 26.2-8.6 15-14.8-9-26.6-9.8-26.5-2 0 3.3 4 7.5 8 7.5 7.3.4 14 3.1 21.1 4.7 11.2 2.4 19.6-.6 22.4-7.4 4.8-11.5-6.5-24.1-14-23.5-7.5.7-5.6 4.3-2.4 5.7zm140.8 28.3c-1.2-1.1 50.7 55.8 121.6 102.9 2.7 3.1 9.6 19.6 10.7 21.8-.3 1.5-1.9 0-1.9 0-35.7-20.7-83-61.7-127.7-108.3 0 0-4.3-10.3-5.6-17 1-.4 2 .2 3 .6zm-118 20.5c-1.6.2-3.8 2.6-6.4 4.1-5.5 3-7.2 3.8-20.6-.2-7.3-2.2-8.4-2-12.8 1.2-3.8 2.8-5.9 3.2-10.1 1.4-7.6-3.5-11.1-1-18.2 1.5-6.7 2.4-9-.5-15-2a124 124 0 0 0-.4 25.2c.3.3 6.3-3.6 9.7-5.4 5.8-3 5-2.5 13.6-2.1a66.5 66.5 0 0 0 33.5-2c10.5-2.9 18.7-2.3 26 3.6 4.4 3.6 10.3 3 6.9-3.6a41.5 41.5 0 0 1-3.6-14c.5-4.6-.5-7.6-2.3-7.7h-.3zm134.8 19c23.9 23 53.4 58 122.7 98.5 3.6 6.3 8.5 14.7 11.6 21.3.3 1.8-.1 3.4-2 2.8-42.8-27.2-66.6-40.4-126-99-3.7-5.9-7.7-16-10.7-24.2.6-2.3 3.4 0 4.3.6zm-10.1 8.7 26.5 49.8-89.4-.1a345.8 345.8 0 0 0 62.9-49.7zm-148.1 1.2c-14.7 5.8-17 7-31.5 3.5-8.5-2.1-6.1 2.8-1.8 4.8a39 39 0 0 0 32.8-2.5c3.9-2.5 6.5-8.3.5-5.8zm-15.1 15.3c-15.4.2-29.9 5.6-31 11.8-.1 1.2 1.1 2.6 3.5 1.2 10.4-6.3 36.3-8.3 55.8-1.3 3.2 1.2 3.7-.8.4-3.5-7.3-6-18.2-8.3-28.7-8.2zm195 21.3c29 26.7 56.8 51.3 119 87 4.6 9.8 11 21.5 12.2 22.5-58.4-28.3-122-84.2-122-84.2s-10-17.8-12.2-25.5c-.2-2.6 2.2-.4 3 .2zm20 41.6s53.2 45 113.9 75.6c2.4 2.4 8.5 16.9 10.5 18.4 2 1.6-2.4 1.6-6.7-.7-31.8-14.6-100-61.5-100-61.5-6.5-10.7-15.8-21.8-17.8-31.8zM3016 679.6a335 335 0 0 0 13.1-31.5c14.5.2 21.6-5.3 26.8-11.8l23-.5c-.4-9.8 0-23.8 0-23.8 10.2-10.5 17-22.6 1.4-41 0 0-.7-8.6-.9-23.3-7.2-1.1-23.5-.4-23.5-.4-13.1-18.5-36.4-13.8-43.5 0 0 0-10.5.6-17.6.6l-1.4 21.2s-30.7 21 1.1 45.5l-.4 20.7c6 .5 10.2 0 18 1.6 0 0-12.2 28.2-20.2 41.6-2.7.7-2-.9-5.4-10.2-4-11-13-23.1-20.6-29-10.3-8-24.4-10.5-34.3-17.4-9.5-6.7-16.2-15.3-19.3-13.7-1 3.3-2 22.6 1.5 35 5 20.4 34.4 33.3 58.8 43 2 1.3 3.6 3.1 3.6 3.8 0 3.4-3.2 2.3-11.2 1.5-12.2-1.2-17.2 2.1-21.4 12.5-1.3 2.6-4.3 7-6.8 9.9-2.4 2.9-5 5.7-5.4 7-.3 1.2-2.8 7.5-5.3 12.8-1.6 3.2-4.1 6.6-4.3 11.4-.6 14.6-.8 34.2 1.4 46.5 1.6 9.1 13 14.3 17 15 6 1.2 7.2 7.3 6.2 12.4-4.6 24.8-19 40-23.5 31.8-1.2-2.1-2.5-12.3-2.8-12.1-.2 0-2.4 8.6-1.6 12 1 3.8 5.7 6.5 10.4 4.8 7-2.5 12.5-9.4 16.8-25.2 1.8-6.4 3.5-10 6.5-10.5 5.5.4 14.1 11.8 14.1 11.8-28.7 23.9-83.8 67.2-83.8 67.2l-2-782.2 454 .9c2.5 62-5 114.2-27.3 169.4-26.4 59.5-67.3 103.7-98.7 158.5-37.8 66.1-50 134.7-37 203.7-38.7 50.6-71.3 75-102.2 98.4 0 0-23.2-24.3-36-38l11.8-.7c29.3-3.3 61.1-7.4 73.4-38 1.7-3.4 1-5-1-5.4-23 3.2-43 0-56 .9-32 2.2-45.5 13.3-45.5 13.3zm3.5 22.5s-36.9-17.5-39.6-18c-16-3-54.9-23.2-61.4-37-.9-1.7-3-26.8-3.7-32 .2-1.5.9-1.5 2.5-.3 4.1 2.8 20.2 13.3 26.1 16.2 24.5 12 34 20.4 40 38.3a52 52 0 0 0 4 10.1c2 2.2 2.8 2 5.3.1A121 121 0 0 0 3013 640c.7-1.6 2-3.3 1.2-5.6-1.9-6.5-6.6-14.8-1.8-21.1-15.3.7-30-10.5-28.2-21.8 4.1-20.8 13-17 29.5-20.1-1.9-48.2 43.2-36.5 43-3 49.6 4.2 26.2 50-2.6 43 11.4 26-22.8 35.8-27.7 31.4-1.9 8.4-15 35.5-17.7 43.6 36.7-26 95.7-14.5 104.3-16.2-21.3 44.6-91 33.8-93.4 31.9zm661-164.2c9.3 7.2 88.3 56.6 102.9 57.7 0 0 7 7.9 12.7 15 5.4 6.6 7.4 7.7 8 9 .6 1.4-2 1.3-2.5 1.2-35.5-15.4-71.7-31.7-102.4-57.4-4.2-3.5-5.1-5-7.2-7.8-2.7-3.6-10.7-16.4-11.6-17.7zm26.1 39.9c36.2 20.3 66.9 40 99.8 50.6 4.7 1.7 7.1 1.9 9.5 3.5a423 423 0 0 0 14.7 9.3c15 8.8 16.6 8.4 12.9 9.8-4.2 1.7-30.6-6-52.8-14.3-39.6-14.6-53.6-22.9-67.9-35.8-3.2-3.3-18.2-21.3-16.2-23.1zM2986.1 691c3-.1 8 1.8 13 5.7 5.4 4.1 18.8 12.9 24.3 15.2l3.7 1.5 35.5 40.4-91.5 74.4-9.8-10.1c-2.2-2.4-1.6-4.4 1.2-7.2 2.2-2.2 2.4-6.9 2-9.2-.5-3.5-.4-7.4 4-10.6a10 10 0 0 0 3.8-8.4c0-1 2-4.3 5-6.5 6.4-4.7 8.4-10.4 6.2-17.1-1-2.9-1.4-3.6 2.3-6a17 17 0 0 0 8.6-14.9c.1-1-.2-2-.3-2.9-1.3-6.7 4.7-5 9.6 3.5 2.7 4.6 3.4 12.2 4.8 20.9 1.5 10.1 2.6 13 3.2 11.5 3.2-8.2-.6-39.1-10-43.3-13.7-6.2-25.2-18.7-21.8-23.6 1.2-1.7 1.4-1 9.8 2.8 5 2.3 9.5 4 10.1 4.1 9.7.3 3.9-3.8.7-4.3a43 43 0 0 1-16.5-9.8c-2.2-4-1-6 2-6.1zm-23.4 5.3c9-.1 10.6 2.3 10.7 10 0 4.5 1.8 8 9 17 2.8 3.8 4.8 6.6 4.6 8-.3 2.4-1.2 0-11-1.2-3.6-.4-5.3-.5-6.6 1.3-3.4 5-10.5-.2-15-7.6-10.5-17.7-6.8-27.4 8.3-27.5zM3133 707l97.3 119.1-11 8.5-97.7-117.4zm-16.3 7.3 10.4 17.6s-30.1 25.8-38 33l-208.7 169.7-2-23.7zm-175.6 3.2c1.9 0 4 2.5 7.1 7.2 2.7 4 8.4 12.2 14.5 17.9 11.9 10.9 13 9.9 3.4 11-3.8.3-5-.1-7.4 5.7-7 8.8-28-22.7-23-34.8 1.9-4.7 3.5-7 5.4-7zm34 17c1.7 0 4 .6 6.7 2.3 5.2 2.1 5.5 3.3 4.7 8.3-.9 4.7-4.4 5.9-11.5-.3-5.4-5-4.5-10 0-10.2zm155.2 3 11.5 14.7-259.5 209.9v-24.2c6.4.8 172.7-143.7 248-200.4zm-201.2 2.4c.7-.2 1.8 2.2 4.6 6.5a74.4 74.4 0 0 0 17.4 19.3c5.8 4.4 6.5 6.8 2.5 6.8-1.7 0-4 1.8-5.3 4-2.4 4.2-2.6 3.2-6.4 1a28 28 0 0 1-13-14.3c-2.1-6-2.3-15-.7-21.5.3-1.2.6-1.8.9-1.8zm41 16.7a8.6 8.6 0 0 1 7 13.7c-2.5 2.4-4.7 3.5-9.5.7-6.4-3.8-7.6-9.6-2.3-12.8 1.6-1 3.2-1.5 4.8-1.6zm-42.6 16.7c1.4 0 3.9 2 8 6.2 3.3 3.3 9 6.2 11.2 7.4 5 2.8 5.2 3.8 2.5 6-1.2 1-5 1-6 4.1-3 8.7-15.6-1.4-16.8-13.8-.6-6.4-.7-9.8 1-10zm31.7 1c8.3.4 12.2 10 5.6 14.8-3.6 2.6-12.7-2-13.6-6.8-.6-3 4.8-8.1 8-8zm193.5 7.2a8.7 8.7 0 1 1 0 17.4 8.7 8.7 0 0 1 0-17.4zm-26 3.6a8.7 8.7 0 1 1 0 17.4 8.7 8.7 0 0 1 0-17.4zm-174 11.6h1.6c8 .4 8.4 8 3.7 12-2.8 2.5-5.4 3.3-9 .3-6.6-5.2-4.2-11.9 3.7-12.3zm193.4 12.7a8.7 8.7 0 1 1 0 17.4 8.7 8.7 0 0 1 0-17.4zm762.7.5.4 22-306.8 255.2-10.4-13.6zm-780.4 1.9-22.7 51-6.8-13.2h-17l5.3-15.2-10-12.2zm482.8 211.8 40.4-32.3c-17.4-87.7 52-122.6 117.9-97.1l41-35c-76-64-255-20.6-199.3 164.4zm-546.1-171.4a8.7 8.7 0 1 1 0 17.4 8.7 8.7 0 0 1 0-17.4zm-26.4 2.2c4.8 0 8.4 3.6 8.4 8.4 0 4.8-3.6 9-8.4 9a8.7 8.7 0 0 1 0-17.4zm140.4 17.6-40 32c10.3 84-30.6 126.8-118.4 98l-42.5 33.7c114.8 78.9 265-22.8 200.9-163.7zm-123.2 7.6a8.7 8.7 0 1 1 0 17.4 8.7 8.7 0 0 1 0-17.4zm842 2.2a8.7 8.7 0 1 1-8.7 8.7c0-4.8 3.9-8.7 8.7-8.7zm-860 2-25.6 50.7-6.4-15.3-17.2.3 5.6-17.7-10.8-9zm825.6 5.4 8 13.4 16.8.4-6.4 12.7 12.2 12.5-54.8 13.5zM2976.9 926c4.8 0 8.7 3.8 8.7 8.6a8.7 8.7 0 0 1-17.4 0c0-4.8 4-8.6 8.7-8.6zm-25 1c4.8 0 8.7 3.8 8.7 8.6a8.7 8.7 0 0 1-17.4 0c0-4.8 4-8.7 8.7-8.7zm869.4 5a8.7 8.7 0 1 1 0 17.5 8.7 8.7 0 0 1 0-17.4zm87.9 1.4.3 19.3c-80 70.7-248.4 207-248.4 207l-10.4-13.4s171.2-140 258.5-212.9zm-939.9 18.9a8.7 8.7 0 1 1 0 17.3 8.7 8.7 0 0 1 0-17.3zm869.8 2a8.7 8.7 0 1 1 0 17.4 8.7 8.7 0 0 1 0-17.4zm-24.6 1.6a8.7 8.7 0 1 1 0 17.4 8.7 8.7 0 0 1 0-17.4zm97 3-.7 24.6c-77.5 66.2-236.2 197.5-235.6 197.6l-12-16.5S3837 1014.7 3911.6 959zm-958.1-3.5-24 54-10.3-14.6-15-1 3.5-14.6-13.9-9.4zm829.8 21.3 15.3-2.9-2.7 15.6 10.8 11.3-56.3 12.4 27.2-50.5zm84.1 263c11.4 17.1 10.7 35.7 6 38.6-5-2.8-9.5-7.8-14.7-10-26.2-11.3-47.1-20.6-50.9-37.2-14.3-37.7 50.1-5.6 59.6 8.6zm-137.8-100 88.2-71.8s13.6 7 16.1 10.2c1 3.5-1.5 4.5-5.1 7.8-1.7 2-2.7 4.1-2.8 8.7 0 5 1.5 7.1-.5 9.3-3.3-.2-6 4.2-5.8 7.7.1 2.7-3.4 5.6-5.5 7.7-3.6 3.6-4.7 4.3-7 16.5-.2 1.2-.2 4.3-1.9 6-5 .4-8.8 13-11.1 13.7-3.7-.2-9.6-4.8-11-11.5-1-4.4-.8-12.9.3-18.3a53.2 53.2 0 0 0 1.3-14c-1-3.6-3.3-1.4-3.3 3.7 0 2-.8 8.3-2 14.1-1.4 5.8-5 13.6-3.3 18.2 2.3 6.9 11.2 9.8 15.1 13.5 10.5 9.5 12.7 14.2 14 16.3 8.3 15.3 8.3 17.9 6.2 29.4-1.2 6.6-7.6 5.5-11.5 2.8 0 0-24.8-18-35.6-27a121 121 0 0 1-34.8-43zm33.5 49.4c9.4 3.9 34 21.7 34 21.7l-22.4 46.7c4.1 7.3 5.8 25.5 5.8 25.5 28.4-2.2 43.7 45.6-.5 41.2 5 29.6-42.6 52.8-41.3-.2-49.6 3.8-33-52.4-2.3-41.8-1-23.8 15-27 26.1-32.8 9.2-10.4 14.8-33.9 14.8-33.9l-2.2-7.2c-9.4 16.5-49.5 21.2-93.5 12.5 12-28.3 48-27.5 81.5-31.7zm-87.6 35.6c-1.5 5.6-1.5 5.5 5.3 4.8 3.4-.3 17.2-.3 26.9.1 17.7 1.4 45.5 1.5 59.5-9.2 2.7-2.5 4.2-2.4 4.7-1 1.2 7-12.4 29.6-12.4 29.6l-22.4 12.4s-9.1.4-20.5.1l-.2 20.2c-9 5.3-24.2 27.8.4 45.1l-.9 22 21.7.4c14.4 13.7 26 13.7 39.3.7h25l-.2-23.7c12.3-9.9 14-26.7 1.5-40l-.3-24.1h-19.2s-4-3-4-5.4c-.1-1.6 14-28.7 16.6-32.5 3.5-5 2.6-2.2 8.1 9.4 8 16.6 16 23.4 36.2 33.1 18.1 8.8 24.6 12.9 29.8 17.9 4.2 4 6.6 2.7 8.3-3.2a48.6 48.6 0 0 0-5-38.6c-15.3-25.6-42-26.8-46.3-32.7-.6-1.4 4.8-3 10.7-5.6 10.2-6.2 25-24.8 26.9-32.3a47 47 0 0 1 3.8-17.5c2-4.4 2.2-6.5 2.1-18.5-1.8-6.9-.1-15.8.7-18.8 1-6.2-2.4-13.6-7-22.6-1.8-8.3-1.4-6.1 4-25 .9-3 7-29.2-.8-31 0 .2.8 1 1 1.4 1.3 2.7 2 14 .9 17.2-.5 1.3-1.4 4.6-2 7.3-4.7 21-7.5 26.4-11.8 21.8-1-1.1-4.9-2.7-7.9-4.7-5.6-3.7-5.1-5.6-3.7-12.6.3-1 2.5-10.7 2.3-10.5-1.2 3.4-2 12-6 14-2 .4-4.8-1.4-10.2-6-2-1.8-6.5-5-6.5-5s63.8-53.6 87.5-71.4l-.2 794.9-450.7.2c-5.7-49.3 9.1-114.4 33.7-179.6 15.1-40.4 36.9-70.3 61.4-106.4 47-68.8 82.7-138.7 69-227.3-1.8-13.1-3.7-19.4-3-23 5.7-10.7 28.4-43.2 45-56.8 24.3-19.8 58.1-49.5 60.9-47.8 8 15.6 17.6 28.2 30.3 37.7 2.2 2.5 2.3 4.6-2.9 5.7-33.6-.3-68.1 7-79.4 36.8zm-782.6-225.9a8.7 8.7 0 1 1 0 17.4 8.7 8.7 0 0 1 0-17.4zm842.6 2a8.7 8.7 0 1 1 0 17.4 8.7 8.7 0 0 1 0-17.4zm18.9 23.8a8.7 8.7 0 1 1 0 17.4 8.7 8.7 0 0 1 0-17.4zm-28.1 3.7a8.7 8.7 0 1 1 0 17.4 8.7 8.7 0 0 1 0-17.4zm-31 19.8 15.6-.7c-2 5.6-3 11.4-4.1 17.3l12.8 9.4-55.4 9.4 23.9-49zm-37.8 143-93.3-120.3 11.3-9 94 119zm-11.4-116.8a8.7 8.7 0 1 1 0 17.3 8.7 8.7 0 0 1 0-17.3zm195.8 13.4c7.5 6 0 14.1-7.3 10.9-6.2-2.6-5.7-9-.8-11.5 3-1.5 5.4-1.1 8 .6zm10 5.6c7.8.2 16.3 18.5 14.8 24-2.3 6.2-4.5 6.4-15.4-2.8-10.8-9.2-11-9.5-6.6-14.5 2.4-2.8 3.6-6.5 7.2-6.7zm-184.4 3.4a8.7 8.7 0 1 1 0 17.4 8.7 8.7 0 0 1 0-17.4zm-26.9 3.3a8.7 8.7 0 1 1 0 17.4 8.7 8.7 0 0 1 0-17.4zm190.8 6.2c8.6 1.3 10.9 7.8 7 12.6-5.5 6.5-17.5.6-14.6-7.2a8.2 8.2 0 0 1 7.6-5.4zm15.4 9.8c3.4-.3 8.4 4.4 14 12 6.2 8.7 6.7 11.5 5 16.8-2.6 7.7-4.3 9-9.8 1.6-2.1-2.8-7-9.5-10.5-13.1-7.5-7.8-8.6-5.8-4.2-11.8 2-2.8 3.5-5.3 5.5-5.5zm-20.1 9.1c7.7 4 8.4 9.2 3.8 12.8-5.3 3-14.8-.5-16.6-5.8-2.7-7.8 5.5-11.7 12.8-7zm13 11.5c4.4-.3 8 4.2 13.3 12.8 9 14.6 9.6 19.6 1.8 29.2-5.5 7-6.1 7.3-11.6-3.7a86 86 0 0 0-20.7-26c-3.3-2.7-4.4-6.4-2-6.7l6.4-.3c4.2-.1 5.7-.7 8-3a7.6 7.6 0 0 1 4.8-2.3zm-31.3 11.4c4-.2 9.3 2 13.2 6.5 4.4 4.7 4 9-4.8 9.8-3.9 1.5-14.5-5.5-14.6-10.2 0-3.9 2.7-6 6.2-6.1zm20.5 17h.6c3.7.1 5.5 3.7 9.6 11.9 6.3 12.6 4.5 19.5-6.4 25-7.3 3.8-13 5-14 .6-.2-1.2-.2-4.9-.8-8.4-.8-4.7-1.9-9.6-6-15.9-6.7-10-7.9-13.5-.6-10.6a14 14 0 0 0 12.5-1c2-1 3.6-1.5 5-1.6zm-36.9 20.3c-2.5 0-4.1 1.5-3.4 5.6 2.3 1.1 5.9 0 8.6 1 3.7 1.4 6 7.4 10 6.4.3-5-9.6-13-15.2-13zm-752.1 87.9c-20.3-9.7-70.6-32-94.9-32.4-44.9-12.6-48-6.9-63.7-11a169.5 169.5 0 0 1 161.9 40.3c9.5 9.5 4.3 6.7-3.3 3.1zm53.1 196.7c47.7 82.7 92.2 176.1 166.9 314.4l-7.2 2.3-284.6.5c14-152.8-68.5-298.4-74-292.6 64.4 1.1 118-11.3 129.2-35l-9.2-2.7c-37.5 32.4-91.9 33.9-129.4 23.9.9-79.6-3.6-163.7-1.1-243.3 44.3-3.3 79 13 103.6 45.4 41.3 54.4 69.3 123.7 105.8 187zm-130.5-220.6c11.4-.9 73.7 24.7 101.6 43.9 7.7 8 19 22 19 23.3 0 3.7-5.4-.9-32.3-16.2a628.1 628.1 0 0 0-65-30.6s-1.5-1.8-4.1-3.8c-7.3-5.7-21.6-15.8-19.2-16.6zm30.3 29c-.7-.1 61.8 22.5 111.4 62 6.6 5.3 14.7 25 14.7 25-4.4-8.4-82.8-55.3-110.4-66l-15.7-21zm22 30c3.4-2 94.6 51.9 108 65.8 6 4.6 20.3 27.1 20.3 31.6 0 4-4.4.6-12.5-7a434.7 434.7 0 0 0-103.3-68.1zm17 31.3c42.8 18.2 96.6 61.8 123.8 87.7a50.5 50.5 0 0 1 12.5 21c.6 2.8-.8 2.6-1.4 4.1-35.2-40.4-112.6-86.5-122.8-90.1 0 2.5-8.5-15.7-12.2-22.7zm142.2 126c5 5 12.8 22.6 11 24.8-.8 1-.8.5-2.8-1-11.3-11.2-69.2-62.5-117.5-91.3-4.5-2.3-19.7-26.3-16.5-26.7 25.3 8.2 97.5 65.8 125.8 94.2zm-104.4-57.3c.8 0 2.3 1 5 2.5 44.3 24.5 108.7 86.2 120.9 101 2.8 4.6 7.1 13 6.8 18.1-.5 4-2.1.6-20.1-17a645.5 645.5 0 0 0-97.2-78.6c-6.8-4.7-5.5-5.3-10.4-13.8-5-8.6-6.9-12.4-5-12.3zm284 .9c31.7.9 44.1 24.9 63.6 69.1 16 43.6 22.7 83.6 23.4 115.4 0 2.1-3.8.3-5.6-.2-8.5-2.2-19-4.4-31.3-1.3-9 2.3-17.6 2-8.3-4 3-2 11-9.4 15.3-12.1 8.7-5.4 3.4-5.3-5.2-1.1-6.5 3.2-11 7.3-13.6 8-1.7.3-.6-5.1 1-9 9.2-22.7 12-36.2-1.8-40.4a33.8 33.8 0 0 1-11-6.9c-2-1.8-3.5-9.1-4.1-9.4-.7-.3-1.1 6.7-1.1 7.7 0 3.7 4.7 11 10.3 15 9.6 7 11.5 8.8 6.3 25a550 550 0 0 0-10.2 33.6l-3 11.6a124 124 0 0 0-2 34.8c3.2 24 29 35.7 63.6 22.4 3.2-1.2 4.6 0 4.6 0-27.6 28-58.5 45.9-76.5 102.5-23.2-46.7-56-83.3-110.7-98l-.8-9.8c19 9.2 56 21.6 79.4 7.6 12.6-8.6 8.8-14-6.5-8.2-18.1 7-50.9 6.2-67.2-3-3.4-1.8-6.8-.2-7.7 0-.9-5.4-8.7-26.1-7.6-33.9-.7-1 5-1.1 6 .3 4.6 6 27.6 24 51.5 22.6a44 44 0 0 0 31.9-15.1c.9-.8 5-1.4 5.6-2 1-1 .3-2.6.3-3.1-.3-.8-1.8-3.1-2.9-5.7a10.1 10.1 0 0 1-1.3-6.3c0-1.5 1-2.3 1.8-3.4.8-2 .6-4.5.1-5.9a3.6 3.6 0 0 1-.7-5.3c3.2-3.7-27.8-32-33.9-32-2.2.1-.9 4.1 3.6 7.1 15.7 10.5 27.2 24.2 24.6 26-2 1.3-9-1.7-16.2-3.4-14.5-3.4-31.8-5.5-50.6 8-7 5.8-25.6 6.7-25.6 6.7-.2-10.1-43-123.2-43.1-118.3 15.6-18.1 64.5-61 113.5-79.6 15-5 31.2-7.5 42.1-6zm-185.8 25.3 89 1.4c-22.4 11.2-63 51.6-63 51.6-11.7-23.4-15.2-35-26-53zm-76.9 11.7c6.6 0 77.3 57.6 87.3 71.2 1.2 1.6 8.4 9.2 15.9 16.7 18.3 18.3 25.8 29 25.9 36.5 0 3.5-3.2 1.2-8.1-4.2a521.3 521.3 0 0 0-105.6-93.8c-5.1-2.8-21-24-15.6-26.3h.2zm241.5 10.6c-2 0-1.6 1.9-.5 3.6 11.2 10 40.7 9.5 51 1.5 9.2-7.3-3-3.5-6.7-1.8-8.9 3.8-18.3 3.3-30.6 0-7.2-1.8-11.2-3.2-13.2-3.3zm27.3 16.1c-10.3.1-21.1 3.2-18.7 7 .8 1.4 3.7 4 10.4.3 9.8-4.8 29.8 1.6 30.4 1.7 2 .5-6.6-5.7-9.6-7-3.2-1.4-7.8-2-12.5-2zm-249.3 10.8c38 23.2 84.2 69.7 112 102.8 4.6 5.7 8 12.8 8 17 0 5.9-1.3 2.6-26.5-23a726.9 726.9 0 0 0-69.3-62.5c-11.9-8.7-14-9.8-19.6-20-5.2-9.7-7-14.5-4.6-14.3zm236.4 7.7c-7 3.4-16.6 2.7-25.8-.5-8.3-2.8-6.4-.4-3.2 8.7a55 55 0 0 1 2.4 10.9c0 2 0 2.2 5.9-1.1 5-2.9 6.2-3.9 17.1-1.3 11.1 2.6 11.3 1.6 16.5-1.1 4.6-2.4 5.5-3.8 8.7-2.6 6 2.5 13 3.5 20.8-.6 6-3.1 8-1 10.7.4 3.8 1.9 5.2.7 3.8-3-.6-1.6-1.7-8-1.8-10 0-3.9-1-7.3-2.6-6.5-6 3-10.8 6.2-16.5 6-10.5-.1-19.7-6.4-36 .7zm-462.3 8c94.5 117.8 77.8 287.6 74.7 286.2l-74.2.4zm246 23.8c37.8 26.5 82.7 72.6 107.7 104.5 4.2 5.6.8 7.3 2.9 14 .7 2.4-3.4-1.2-15.4-14.1-15-16-39.6-40.2-55.8-54.2-17.7-15.4-22.8-19.2-26.6-24.4-3-4.4-15.1-25.2-12.8-25.8zM3343 1534h-1.2c-13.4.7-20.2 15.7-8.7 26.4 4.3 4 11.2 6.3 11.2 4.2 0-.5-2.2-2.7-3.7-3.9-9.6-7.3-8.6-18.8 2.3-19 3.8 0 4 1.4 12.8 7.6 10.3 7.4 22.4 7.4 22.3 0-.1-5.4-2.2-11-11.4-10.1-2.4.2-5.6.5-8.4-.3-2.7-.6-5-2.3-6.1-2.8-3.2-1.4-6.3-2-9-2.1zm-188 34.7c28.9 19.4 68.6 63.3 88.9 89.1 4.6 6.1 5 12.8 3 16.4-.4.7-4-1.5-4-1.5-23.4-27.6-50-52.7-76.1-78.3 0 0-15.6-25-11.8-25.7zm280.1 42-6.2 3c-9.5-14.1-18.1-14.3-25.4 2.3l-4.6-1.2c-3.5-3.8 12.4-39.9 36.2-4.1zm-1.4-12.1c2.6 0 7.2 1.5 8.3 4.1 1.1 2.5-.2 5.2-3.8 5.1-.5 0-4-4.2-5.7-6.8-1.3-1.6-.7-2.5 1.2-2.4zm-106.1 17.3-7 .3c-13.3-17.5-23.2-5.7-29.2 1.6l-7.5-1c1.2-19.2 35.1-26 43.7-.9zm68-15c1 .1 2 .3 3 .7-2.7 4.1-3.2 7.6-3.8 11.4-2.7 1.1-6.6 3.5-9.5.5-5.3-4.9 3-12.7 10.3-12.5zm-109.2 2c3.3 0 2.3-.2.9 1.7a33.3 33.3 0 0 0-4.5 8.1c-.4 2.1-.8 2.8-2.7 3-3.7 0-11.2-1.3-11.1-1.2-2.9-2.7 8.9-11.3 17.4-11.6zm42.3 2.5c2.2-.3 1.7 2.9 1 4.1-1.4 1.6-2 2.2-2.7.1-.4-1-1-1.7-1.5-2.3-1-1.4-1-1.5.4-1.7l2.8-.2zm114.2 14c8.1-.3 2.7 13.5-8.6 16.9-12.5 6.3-26.9 4.8-41.5-3.5-8.3-4.8-10.8-9.8-3.6-7.8 27.4 7.6 34 6.2 50.5-4.5 1-.8 2-1 3.2-1.2zm-263-3c27.3 23 47.8 49.1 69.5 73.2 4.3 5.3 6.4 10.5 5.5 14-1 4.4-10-6-10-6 .3 0-53-56.9-53-56.9s-13.6-24.2-12-24.3zm81.4 8c1.9 0 5.6.9 11.7 2.4 26.1 8 34 7.7 49 .7 9.7-4.4 13.6-3.7 9.5 2.9-7.5 12.2-34.2 13.5-54.2 6.7a54 54 0 0 1-15-8.8c-2.8-2.8-3.5-4-1-4zm120.7 8c1.5-.1 4.4 1.7 8 3.7 22 12.4 38.1 10.1 51.6 1.8 2.5-2.2 3.8-1.2 4.1 1 1.2 7.6 1.5 13-2 16.7-2 2-5.4 3-10.6 4.8-21.2 7.1-47 2-52-14-1.6-8.1-2.6-13.8.9-14zm-174 34.1h.3c1.5.3 5 3.4 10.6 9.7 29.2 33 45.3 52.1 42.4 61.7-.3 0-.5 2-1.7 1-16-13.9-29.2-29-39-44.9-10.6-17.3-15-27.3-12.6-27.5zm235.2 23.3c-24.6 18.8-54.5 63.7-57.1 85.7-.5 4.2-.1 7.4-1.7 9-1.2 1.2-4 1.3-7.7.5-2.3-.4-1.7-.6-2.3-3.2-2.1-10.1 7.6-35.5 27.6-65.5 10.5-15.7 34.4-37 41-37.1 4.5 1.8.2 10.8.2 10.6zm-182.3-10.2c1.7 0 4.4.9 8.2 2.5 22.1 9.4 30.3 12.9 44.7 24.6 26.6 21.7 56.2 73.3 47.5 78.1-3.8 2.2-6.5.8-8-4a160.8 160.8 0 0 0-80.3-85.6c-12.1-6-13.4-5.3-14.3-10.2-.7-3.7 0-5.3 2.2-5.4zm182 19c2.2-.2 2.7 3.8 2 12-.6 6.6-1 6.4-8.4 14.2-11.8 9.6-25.8 32-32.3 55 0 .7-.6 2.5-1.7 3.4-3 2.6-6.9 1.4-9.5 1.3-1.9-1-1.4-5.1-1-7.5a167.7 167.7 0 0 1 39.5-68.7c5.9-6.3 9.4-9.6 11.4-9.7zm-177.4.6c11.7-.3 53.3 30.8 70.1 58 11 17.7 14 25 11.5 27.6-1.4 1.4-7.3 1.6-10.4.4-2.8-1.1-3.9-5.4-9.1-15.3a122 122 0 0 0-55-54.4 23 23 0 0 1-7.4-4.4c-1.4-3-3.3-11.3.3-12zm6.3 23c3.6.7 13.7 7.3 22.1 13.4 14.9 11 37.5 44.3 32.8 49-1.5 1.6-6.7 1.6-9.3.6-16-28.3-36.6-41.8-45-49.7-2.6-4.3-8.5-14.3-.6-13.3zm-33 5c.6-.1 3.4 2.6 8.5 8 15 15.6 24.4 33 22.2 41.8-1.9 7.4-4 3.3-21.1-29.3-7.2-13.7-10.7-20.2-9.6-20.4zm204.3.5c.3 9-.4 11.2-1.3 16-.7 3.3-2.9 4.8-4.9 7.3a94.3 94.3 0 0 0-13.7 26.1c-2.5 7.2-1.3 8.9-10.1 7.9-4-.5-3.1-1.6-1.5-6.3 5.5-15.5 18.8-40.5 31.5-51zm-169.8 17c.2-4.6 40.1 35.5 34.6 40-5.2 1-8.3 1.1-10.4-.7-4.3-9.6-23.3-27.7-23.3-27.7zm167.6 12.6h.2c1.8.4.8 25.1-.7 27.1a14.3 14.3 0 0 1-11 0c-1.8-1-2.3-2.7-1.7-4.6 1.7-4.8 10.3-21.9 13.2-22.5zm-150.6 27.2c-1.2 2-9 2.3-12 0-.9-.6-1.8-12.9-.7-15 3-2 13.7 12.4 12.7 15z" style="fill:#131f67;fill-opacity:1;stroke-width:3.18132639" transform="matrix(.1637 .00026 -.00029 .15143 -438.6 741)"/><path d="m3575.8 106.6 5 6.5-29.3.2c4.8 4 113 221.9 251.5 473.6 23 44.1 66.6 60 117.4 62l-134.5-216.5c14.4-7.8 42.8-28.7 60-24.8 1 5.3 6.2 3.2 6.2-1.5l6.2.1 2.2 3.4h26.2l2-3 22.6 3.2c-60.2-74.2-92-188.5-81.6-300.1l-199.6.4-2.7-3.5zm-24.3 6.7c0-.1-.2-.2-.2 0zm-229.4 145.2c-22.7 73.3-78.8 133.6-112.2 194.3-35.7 66.2-44 123.9-34 187l6.5.5a1083.6 1083.6 0 0 0 168.1-350c.7-2.7-.5-7.4.1-10-1.4-3.3-.2-6.8.7-7.7 2-2 1.3-10-.2-23-3.6-39-2.9-69.5.4-104.7 2.5-27.1 2.3-31.4 2.3-31.4l-13-.2c2.4 46.1-3.7 102.9-18.7 145.2zm313.4-142 21.5.4c3.3 65.5 58.4 74 67 73-14.2 44.3 9.1 92.9 65.3 99.8-13 41 9.9 95.1 54.8 93.6l4.7 3c-2.9 6-3.5 18.1-3.3 18.3-10 .7-15.4 2.2-22 3.5-58-87.5-188-291.6-188-291.6zm190.4 0c-6.5 73.1 8.2 173.5 42.5 232.9 0 0-1 4-1.8 5-3.2 5-4.9.7-6.8-3.3-7.4-13.5-21.2-15.6-27.2-8-13.4 18.1 1 25.3 12.3 35.6-46-2.8-61.3-53.4-50.6-78.4-.3 4.8 2.3 12 5.7 17 12.9 19.7 31.7 3.1 26.3-12.4a87.7 87.7 0 0 0-10.4-17s11.2-1.7 15.7-4.5c4.3-2.6 7-7.3 5.9-13.8-.9-5.1-1.1-7.4-3.9-12a18.6 18.6 0 0 0-14.3-6.9c-9.5.7-10.7 7.2-16.9 11.7-1.5-11.8-9-20.8-21.3-18.5-9.4 1.7-16.1 11.6-10.4 24 2.9 6.4 7 8.4 11 13.9-66-7.4-58.8-85.9-51.5-84.5 0 0 2-.3 1.4 2.7-3.8 19.2 20 30.6 30.5 16.7 6.7-11.3-7.6-29.2-7.6-29.2s9.5-2 13.8-4.5c17.3-10-1.1-38.6-17.2-31.5-5.6 2.5-7 7.7-12.5 10.5-3.7-4-4-8.5-10.5-12.2-18.1-10.1-29.5 13.8-19.4 24.3 4 4.2 11.3 8 10 8.6-56.2-7-55.7-65.9-54.4-65.4zm-482.8.5h7.7c-2.2 34.8-7.2 80.8-4 114.8 3.8 32.5 4 37.1 1.7 40.4-3.2 3.5-1.5 5.2-1 8.1 1 5.4 1 5.4.3 8.5a709.8 709.8 0 0 1-26.6 84c-36.2 99.7-95.1 208.4-141.4 265.4 0-.2-2 .2-2.1 0a288.6 288.6 0 0 1 28.5-173c28.6-55.2 73.6-102.3 100.3-160A397.9 397.9 0 0 0 3343 117zm284.6-.4 188.3 293-34.3 16.8-192.8-308.7Zm110.4 57.2a8.8 8.8 0 1 1 0 17.7 8.8 8.8 0 0 1 0-17.7zm62.4 97.7a9 9 0 1 1 0 18 9 9 0 0 1 0-18zM3351.7 289c3.2 12.7-59.8 204.3-149.3 326.3l39 .8 1.3 4.3c54.7 80.8 20.5 152.4-23.7 185.6l15.3 20.4-13.8 11.2-13.8-16.4c-112 84-330.8 270.1-330.8 270.1l1.3 29.9 17-13.5c111 107.4 346.2 101.5 407.9-120.1l16.5.3c-37.3 162.5-189.1 226.1-303.7 199.2l-26.9 38.5 7.2 3.9c-1.3-2-2.5-2.8-.6-4.7l22.8-29.3c171.5 22 275-75.1 308.6-206.6l21.9.4a534.6 534.6 0 0 1-144.4 283.7c-53.2-.2-147-1.4-147-1.4 34.2 33 99.3 133.9 102 144.1 0 0 67 2.2 138.8.4 26.4-11.9 61.6-16.6 78-8.3 29 14.6 56.2 68.7 68.4 155.4 3.2 22.4 6 31.9 6.9 36.4.2.8 2.1 1.4 2.4 1.2 1.1-.5-1.8 4-1.9 7.4-.1 3.3 0 8.4 1.6 10.1 2 2.3 1.8 3.7 1.5 4.7-.2.6-4 4.3-4 4.3-.7 50.5-.4 96.4-3.1 158.6h9.9c0-100 30.1-192.6 76.7-256.3 28.2-41.9 58.2-87 74.7-129.9a245.4 245.4 0 0 0 11.3-142l-6.9.5c-40.9-28.1-57.6-88-7.1-130.8l-17.9-23.2c-50.3 39-61.9 110.7-9.7 170.2h-20.4c-51-63.6-39.7-136.5 19.1-188.6l-13.1-16.7 14.3-12.6 12.9 14.1 328.3-274.3-.2-30-25.2 20.4c-147.3-136.1-365.6-40.6-397.7 123.4l-20 .2c42-176.5 196.6-226.4 308.5-202.9l27.6-41.7c-20.3-5.8-40.1-19.2-58.8-35.2-7.9-6.7-12.9-10.8-18.6-17.5-53-56-89-133.8-90.6-133.9l-144-.3c-21.2 10.4-57.4 22.3-77.3 6.3-42.6-34.5-57-104-62.8-148.7-1.8-13.9-3.3-38-4.6-46.1-.8-1.5-2.4-1.6-3.8-1.3zm510.8 77.3a8.7 8.7 0 1 1 0 17.4 8.7 8.7 0 0 1 0-17.4zm18.7 10.2a108 108 0 0 1 17 28.8c-3.4-.2-6.5.9-10.1-2a40 40 0 0 0-10.3-23zm-26.3 13c2.9 1.4 5.2 12.4 3.2 14.3-3.5.7-6 .4-7.1-.8-1.8-2.9 1.6-13 3.9-13.6zm-573 95.5 133.8.2c23.2 17.8 46 15.4 79 1.1h148.7l8.4 15.3h-377.1c2-5.7 7.2-16.6 7.2-16.6zm-11 23.8h384.9l9.7 15.7h-404.2zm37.1 22.8h43.2l-16 27.1h-44.5zm96 0h41.1l-18.3 27.1h-40.9zm133.2 0-17.3 27.1h-42l18-26.9zm51.7 0h41.3l-15.4 27.1H3572Zm-554.5 4.2c-26.7-.3-21.8 35.2-19.3 34-16.8-3.8-29.2 4.2-31.3 18.5-1.6 11.4 9.5 27.6 29 25.3-2.7 3 0 20.2 2.6 21.8 0 0 .3 2.4-10 23.8-12.1 25.4-14.6 26.6-20.1 10-6-18-15.1-27-39-38.7-6.3-3-15.3-8.4-20-12-10.6-8-10.8-7.8-10.3 8.5.7 21.1 7.1 30.4 29.7 43 11 6 32.3 14.7 36.1 14.7 2.7 0 12.6 4.4 27.3 12.2 2.9 1.5 12.7 7 25.3 8.2 13.4.9 43.4-2.2 60.9-12.3 9.8-5.7 13.5-10.7 20.8-25.2 0 0-24.7 1.3-36-1.7-23.5-1.3-35.2 0-53 9.3-14.8 7.7-15.7 9-9.4-3.7 2.8-5.9 5.4-12.8 7.8-19.6 2.6-6.9 3.3-7.4 9.8-8 14.3-1.5 22.4-9.8 23.7-24 .4-3.9-.2-8-.2-8 9.7 1.5 29.6-3.3 29-23.4-.6-18.1-13.5-22.3-29.3-23.5 2-9.3-4.8-29-24-29.2zm.3 5.6c23.5.2 23 21.7 12.7 34L3035 565l-10.1 9.3c-11-7-11-33.1 9.8-33zm641.7.3 11.5 17h-23.8zm-437.8 24.5h44.1L3265 591h-41.8s9.4-16 15.4-25zm139.2 0L3361 592h-38.6l15.4-25.3zm51.7 0h39.9l-15.8 27.6h-39.4zm93.9 0h40.4l-16.5 27.6h-39.8Zm91.5 0h41.6l-17.2 27.6h-40zm-579.6 5 19.9 20-19.4 19.5-20-19.1zm50.3 19.6c-3.5 23.2-25.9 22-32.2 10.6l9-10.4-11.1-11c10.9-17.4 37-6.8 34.3 10.8zm-66.6-11.2-10.7 12.1L3020 603c-7.5 10.6-36.7 9.7-30.8-15.6 3.7-16.1 20-19 29.8-7.8zm680.2-3 12.2 17-23 .2zm-479 20.8L3714 599l13.2 16.2c-172.4 3-341.2-2.8-517.3-3zM3046.6 608c19.6 12 5.1 37.3-15.9 33-15.6-6.9-18.8-23.1-4.7-32.5l11 9zm169.3 9.7h-13.4l-13.2 15.4c49.7 52.3 47.8 97.6 1.6 137.1l18.6 20.8c51.9-44.3 63.3-114 6.4-173.3zm51 2c27.8 43.4 51.9 125.8-31 201.1l-10-12c72.2-70.5 55.2-129.8 22.9-188.6zm7.7 1 112.2.5c-24 91.5-40.9 145.3-43.4 288.4l-32.4.2c3.5-3.3-16.8-86.4-40.5-115.2 49.7-84.4 23-132 4.1-173.8zm-352.7.2c2 0 6 2.5 13.7 7.1 7 4.2 16 9.5 20.2 11.8 15.4 8.7 23 16.8 27.4 29.2 3.3 9.3 1.3 9.5-8.2.8-7-6.6-14.4-12.2-33.1-25-6.6-4.5-8.7-3.7-4.9 1.7 2.8 4 8.7 8.5 20.7 15.8 8.7 5.3 20.6 15.9 19.7 17.5-.9 1.4-2.3 1.3-6.5-.6l-13.9-5.7c-24.4-9.9-34.8-22-36.3-42.3-.5-7-1-10.3 1.2-10.3zm511.7.4s3.4 4.5 3.8 6.3c1 4-3 7.7-15.4 13.3-4.2 1.8-7.8 2.9-7.7 5.4.6 5.8 11.8 14.7 10.4 22.6-2.6 6.1-18 12-22 19.3 0 4.9 10.1 12.4 8.7 19.1-.8 2-4 4.1-8.8 8.3-9.9 8.5-10.5 9.8-6.9 16.5 8.4 15.4 8.7 14.3-2.7 25.3-11.6 11-11.4 10.9-5.8 20.5 5.9 10.3 5.6 9.9-2.4 16.5-7.8 6.5-7.5 7.8-3.3 16 4 7.7 5 7.8-1.8 13.9-8 7-9.5 7.8-3.9 16.7 5.9 9.2 6.3 8.8-.3 16.3-6.2 7.1-6.9 7.4-3.5 12.3 4.2 6 5 7.7.6 14.3-4.8 7.3-4.8 6.8-.4 13.5 3.7 5.6 3 12 3 12h-13.8s-.1-8-1.7-11c-4-7.1-3.9-9.3.8-15.6 4.8-6.5 4-7-.5-13.5-4.5-6.6-3.8-6.5 2-14 5.4-6.8 5.7-10 2.6-14-7.2-9.2-7.2-13 0-19.2 5.7-4.7 6.2-6.8 1.4-14.7-4.7-7.9-5.3-8.6 3.3-16.4 8.8-8 8.7-7.8 2.8-16.8-5.7-8.8-5.4-9.4 3.8-18 9.3-8.6 9.5-8.6 3.3-19.5-5.7-10.3-5.7-10 5.5-20 11-9.3 14.9-10.5 3.8-23.8-6.2-10.5-1.8-11.6 8.3-16.8 17.9-11 9.7-10.2 2.3-26.4-6.3-10.8-2.7-10.9 8.2-16.3 2.7-1.2 5.7-2.5 8.8-4.2 7.3-4 3.3-7.8 3.3-7.8zm23.3.3 53.5.7c-62 79.2-91.9 180.5-102.6 287.4l-20.2-.3c-1.3-83.5 25-187.8 69.3-287.8zm274.9 1.8c30.6 25.8 53.3 40.6 69.4 46.4 0 0-21.6 35.8-23.2 34.5-124.2-24-272 48.5-305.3 204.6l-19.6.1a428.8 428.8 0 0 1 53-165.8c29.5-51.8 56.6-82 97.6-120.2zM3518 622l26.4.5s5 6 7.2 8c11.4 13 12.4 10.4-12.7 24.6-15.9 8.9-22.9 13-23.8 16.8-.7 3.8 6.9 11.3 7.8 16.3 0 .6-21.5 15-25.4 17-5.5 2.7-5.7 5-.3 14.3 6.2 10.8 5.7 10.4-7.7 19.8-13.1 9.1-15.7 8.2-10.1 17.3 7.7 12.6 4 15.4-14 25.2-4.7 2.5-4.8 5-1.6 13.6 4.5 12 5.6 10.7-3.8 17.2-11 7.6-13 7.8-10.6 12.5 7.2 13.6 10 17 .5 21.4-7.3 3.4-7.5 5.3-3.4 14.3 4 9 5 8.6-2.1 13.7-6.7 4.7-10.6 3.7-4.1 11.4 5.1 6 4.6 10.9.5 14.6-3.6 1.6-5.3 8.4-4.2 8.5l-9.3.3c-7.2-9.8 1.3-15.4 2.6-16.3 1.2-2.3-.3-3.9-3.2-9.2-4-7.2-3.9-8.1 2-12.4 5.8-4.3 6-3.1 2-12.6-4.5-11.1-4.3-12.4 2.9-17.5 7-5 7-6.2 2.3-15.8-5-10.2-5-10.2 7.4-18.5 8.8-5.9 9-5.5 4.3-16.3-3.2-7.5-1-10 11-18.2 6.8-4.7 7.3-5.6 4.1-11.2-8.8-15.3-8.7-15.8 6.5-25.7 12.5-8 12.4-8.8 7.6-19.5-5.2-11.7-5.7-10.8 11.4-21 14.1-8.5 14.9-8 9-18.2-7.1-12.6-6.7-10.6 21.5-26.7 10.2-7 19.3-4.5 9.2-16.4-4.4-5.7-9.9-11.8-9.9-11.8Zm-497.8 20.8c1.9 0 3.4 2.3 3.3 6.8-.3 6.3-3.3 12.5-6.1 18.7-6 12.7-12 22.1-15 22.1-7.4.1-7.2-1.5 2.6-20.7a354 354 0 0 0 9.8-20.6c1.5-4.2 3.6-6.2 5.3-6.3zm90.6 28.8c.1 26.8-84.2 40.4-88.6 26.8 14.7-11.5 58.2-6.4 67.4-16.7-11.1-.6-26.2 1.2-36.5 1.4-12.8.2-33.6 5.7-33.8 8-1.3-7 22-20.4 40.6-21.2 17.4-.7 36.2 1.3 50.9 1.7zm7.2 41s-164.4 136-245.7 201.8l.5 29.4 260.1-213Zm-.5 6.7 10.5 12.8L2883.9 931l-.8-20.9zm771.6 69.8-8.8 9.4c-238.4-177.4-458 92-336.9 284.6a49.1 49.1 0 0 1-9.5 8.7C3399 868 3657.2 606.3 3889.2 789zM3758 750.2c13.5.2 38.4 9.4 49 22.1 12.2 14.8 8.7 21.3-7 7.4-16.6-12.1-30.4-15-7.2-.6 5.1 3.2 9.7 9.3 10 10 .8 2.5-3.5 0-23-7.2-11.5-4.2-26.2-15.6-30-23.4-2.9-5.8 1.1-8.3 8.2-8.3zm-50.2.5c4.2 0 8 .3 10.7 1 17 5 22.4 7.5 28.8 12.4 4.3 3.4 3 5.8-2.1 3.7-6-2.5-24.6-8-27.9-7.7-4.8.5 0 3.6 7 5.4 15.4 3.8 23 7.8 12 8-5.7.8-30.8.9-37.6 0-11.5-1.3-28.6-11.7-24.6-15.4 4.2-4 21-7.3 33.7-7.4zm-48.9 16c20.2.2 31.2 7.8 9 9.3-38 6-45.2 14.3-3.1 4.4 9.8-2.3 9.6 1.3 2.8 4.6-5.5 2.7-12.4 4-18.2 6.8a82.3 82.3 0 0 1-43.5 1.8c-13.7-5.2 29.3-27.2 53-27zm162.7 3.4c10.2.3 32 15.1 41.7 29 6.4 9 3.2 15.6-6.4 8.3-1.9-1.5-15.7-13.2-16.4-13.4-1.3-.5 11.4 11.6 13.3 15 1.6 2.8 5.2 9.5-1.6 9.6-10.7-1.3-35.9-29.4-36-43.3 0-3.7 2-5.3 5.4-5.2zm-126.8 8c4.3-.2 2.1 2-6 7.7-14.5 10.3-7 8.3 10.1-.5a64.8 64.8 0 0 1 19.4-6.5c4.6-1.4 1 4.3-6.4 10.2a136.5 136.5 0 0 1-45.6 25.5c-15.6 3.9-18.9 4.4-13.1-5.4 9.1-15.4 22.5-27.8 35.2-30.2l6.4-.9zm52.5.2c6.5-.1 14.5 1.2 27.1 4 9 2.7 6.6 3.3-4 4.5-20 2.1-11.8 4.5 7.7 4.1 26.6-.2-13.3 9.6-26.2 11.6-10.1.4-13 0-35-4-8.5-1.6-3.4-7.8 12.4-15.4a40.6 40.6 0 0 1 18-4.8zm164.2 3.6.7 17.1-321.7 269-11-12zM3802 796.6c12.9-.2 31.4 8.7 29.4 14-.7 2-2.2 2-12-.6-6.4-1.7-17.9-3.5-16.4-2 .6.4 9.5 3.8 13 4.7 11.3 2.7 24.9 9 21.9 11-5.3 3.2-10 .7-16.3 0-15.6-2.1-41.1-10-45.3-14-4.8-4.4 12-13 25.7-13.1zm-150 1c2.3.1 3.1 2.3 1 5.2-3.4 4.4-5 8.1-8 13.6-10.7 16.6-17.5 23.2-27.8 29.6-10.4 6.4-11.9 5.3-11-8a45.8 45.8 0 0 1 25.2-35.5c6.5-.9 10.3-2.6 3.4 5.6-12 14.4-3.8 13 7.5-3.5 3.6-5.2 7.4-7.1 9.7-7zm-41.8 2c7-.1 9.3 2.4.4 6.6-8.5 4-25.5 15.8-25.9 17-.7 2.3 5.7-1.2 16.2-7 14-7.6 15.3-7.4 8.5 1.4a98.2 98.2 0 0 1-40.7 27c-20.4 5.5-19.9 1.6-8.5-13.5 10.8-16.4 20-24.2 33.9-28.7 6-2 11.9-2.8 16-2.9zm-344.6 2.4c73.7 127.2 32.8 256.4-52.8 322.2-89.4 69-228.5 64.8-310.6-17.8l11.4-10.8s129.4 132 292.5 14.9c82.7-59.4 116.9-199.7 48.6-297.5zm-330.3.3a1 1 0 0 0-.6.1c-2.4 1.6-11.8 29.1-13.7 40.5-.5 3.3.3 6.6 3 9.3 2 1.9 5 .6 6 .3 6.3-2.9 9.7-7.2 15.2-20.9a36.4 36.4 0 0 0 3.4-19.6c-.3-1.2-2.3-4.2-4.8-5.9a22.7 22.7 0 0 0-8.5-3.8zm1.4 5.7c3 0 8.8 4.8 9.6 8.2 0 6-3.4 15.9-6 14.4-4.2-5.3-9.1-2-10-3.9-.5-5.8 3.3-13.5 5.9-18.6h.6zm796.3 4.8c32.8 0 65.4 9.6 89.3 30.8l-12.8 11.7a139.8 139.8 0 0 0-160.2-1.3c-38.3 26.7-72.3 85.9-39 169.2l-12 10.9c-37.3-67-17.3-155.6 48.6-197.5a162.8 162.8 0 0 1 86.1-23.8zm-484.8 9.8c1 0 2.5 3.2 2.4 7.2-.2 4.8-2.3 11-5.5 12.4-3.7 1.5-6-9.4-6-9.4 2.3-3.6 5.3-7.2 9.1-10.2zm587 3.7 3.7.1c3.7.5 3.7 3.8.3 7-3.8 3.3-5.7 3.5-9.4.8-3.4-2.5-3.6-4.3-.7-6.4a13 13 0 0 1 6-1.5zm-629.7.8 11 13.4-37.8 30.3-4.5.3-288.5 239v-21.3zm602.8 32.3-39.3 32.4c-78.5-40.8-141.5 32-119.3 98l-34 29.5c-60.7-166.8 117-223.9 192.6-159.9ZM3602.6 834h.3l.8.5c1.4 1.4-1.3 23.5-3.4 27.6-.7 1.5-1.3 3.4-1.3 4.3 0 1.8-7.2 17-13 27a64.5 64.5 0 0 0-5 11c-4.5 22-14.3-13.3-10.9-33.7 1.7-9.6 15.3-29.5 19.2-28 2 .7 2 2.3-1.6 10-9.9 21.3-12.3 32.4-2 11.7 12-23.9 15-30 16.9-30.4zm-667.5.5c1.5 0 2.6.9 3.3 2.6.4 1.4.9 4.4 0 6-2 4.4-6.1 7.4-10.3 7.2-1.9-.2-4-1.8-4.2-3.8-.2-1.8.3-4.9 2.5-7.2 3-3 6.3-5 8.7-4.8zm299.2 1.4c4.6.2 9.5 12.7 6.4 18.4-2.6 4.7-3 3.8-7.5-5.2-2.4-4.8-4.2-10-4.2-10l3.8-3 1-.2h.4zm-7.9 5.2s4.9 8.9 6.1 16c.7 4.3.6 3.5-4.1 1.7-3.8-2.3-4.6-3.7-6.9-6.6-1.5-2.7-3-4.7-3-4.7zm29.4 2c2.5-.1 5.2 2.4 7.6 8.5 9.1 23 8.3 48.7-2 60.9-1.7 2-2 2-4.1.8-1.7-1-1.8-12-.2-15 .5-1 2-7.6 2-11.3.4-8.8-2-10-3.2-1.7-1.4 9.4-2.8 16-5.4 10.3-1.3-2.9-2-5.7-3-8.8-5-19.9 1-43.5 8.3-43.8zm-39.7 5.8s8.8 11.4 12.4 15.4c1.2 2.2 1.2 2.8-.8 3.5-3.5 1.4-15.2-6.4-19.8-8.8-2.4-2-1.4-3.5-1.4-3.5 3.2-2.4 6.4-4.7 9.6-6.6zm346.6.4c4.7 0 4.7 1.6-.3 8.8-28 40.2-22.3 34.2-4.6 12.3 10-12.3 11.6-13.4 12.7-10.7.8 2-11 25.8-17 34.5a72 72 0 0 1-19.3 14.6c-13.3 6.7-11.8 4-7-12.6 6.3-26 22-46.7 35.5-46.9zm-363 14c76.6 190.5-133.2 274.1-228 186l11.1-8.8c131.7 89.3 261.7-53.8 202.2-165.7 0 0 5.4-4.5 14.7-11.6zm17.7 4.5c12.6 1.3 31.3 24.4 32.2 37.3 2 9.1-.6 10.7-5 4.3-7.6-14-6.7-5.2-.3 8.7 3.4 7 4.2 15.4.7 15.8-4.9-1-15.4-17.7-18.6-24.6-7.6-15.1-8.2-12.5-12.4-35-.8-4.2.3-6.4 3.4-6.5zm-38.1 6.3c58.4 112-67.2 246.4-195 159.5l38.4-30.4c66.6 32 141-7.7 119.7-99.6zm582.3 20.9-105.3 87.7c-21.7-72.7 57.9-114.3 105.3-87.7zm-195.6-.2c3.4-.7 6.4 21.3 7 52.2.6 30.2 1.4 33.2-8 22.1-4-4.5-8.8-8.9-11-13-6.2-11.7-4.2-24.1-2.5-41.4 1.6-16 7.4-13.6 6.5 3.3-.6 10.9-.5 24.4 1.2 24.4.6 0 .8-1.1.4-2.6-.8-3 2.9-38 4.4-42.2.7-1.8 1.4-2.7 2-2.8zM3275.8 908c7.6 3 9.8 28.4 1.5 53a35.3 35.3 0 0 1-17 21.6c-5.8 3-7.2 2-4.6-3.2a87.4 87.4 0 0 0 9.3-28.7c.8-10.9-5-2.2-4.4 2.5-4.5 20.2-10.4 23.3-9.7 2a51.8 51.8 0 0 1 10-33.3c3.8-5.4 7.8-12.9 15-13.9zm264.1 2.6c3.1 0 3.9 4.2 1.1 12.4-2 5.6-8.6 24-7.8 24 .5-.1 7.6-16.6 9-19.3 2.4-4.4 3.3-5.3 5.4-5 2 8 0 18.3-1 26.7-4.4 22-19.4 44.7-25.1 38-9.4-11-5-55.7 7.4-69.2 4.7-5.2 8.6-7.7 11-7.6zm-401 3.3c11.3 77.9-53 111.1-108.4 87.6 1.1-.3 108.4-87.6 108.4-87.6zm262.5 1.5 11.2 14.7 20.5 1-10.5 15.5 10.5 19.8-23 .4-13 15.2-11.5-13.7-20-1 11.7-18.6-9.5-17.8 21.6-1zm-172 6.7c2.6 0 15.2 16.7 16.5 22.8 3.8 14.9 2.4 43-3 42-5.8-20.2-3.5-30.7-5.6-28.4-3.6 3.8 2.2 34.8.3 42.4-.9 2-4-.4-7.5-5.4-9.3-13.3-8-65.7-1-73.4h.3zm684.6 31.5-253 209.6 14.6 18.8 238.9-197.2zm-365.4 3.6c1.1-.2 3.6 1.6 8.4 6.8 8.2 11.1 17 26.5 20.2 38.3 1.2 4.6 3.2 10.7 4.4 13.5 1.7 4.3 1.9 5.5.8 6.8-4.3 5.4-22.7-8.2-28.6-21.2-8.3-18.3-8.5-34.8-.2-18.7 3 5.8 6.8 14.3 6.8 11 0-1-3.7-13.3-6.5-18.8-1.8-3.4-8.1-17.1-5.3-17.7zm362.7 5.1.5 17.4-235.6 197-9.2-11.2 244.3-203.2zM3543.4 973c1.1.1 1.7 1.7 1.4 5.3-1.1 11.4-4 36.3-3.3 38.5.3 1.4 3.7-16.5 4.5-19.6 4-16.6 10.1 23 6.4 40.6-.5 2.8-1.7 7.3-2.3 10-.6 2.8-2.6 7.5-3.4 8.8-6.7 10.5-22.4-31.3-19.7-52.6 1.6-13.3 12.5-31.4 16.4-31zm-272.6 9.2c3.1-.2 3.7 2.8 3.2 9.2-1.8 21.8-16.3 44.7-32.2 50.8-15.8 6-17.2 4.8-7.9-6.5 7.1-8.6 11.5-17.6 10.3-18.7-.7-.7-2.3 3-8 10.3-7.3 9.3-8.5 1.4-1.9-12.2a55.4 55.4 0 0 1 21.6-25c7.6-5.1 12.2-7.8 15-8zm143.3 6.6a691.1 691.1 0 0 1-71.8 284.5l-42.2.1c51.7-76.1 84.7-170.4 93.9-284.2zm18.6.1s6.3 6.6 8.9 11c2.8 4.9 3.6 9.2-1.5 12.8-6 5-8.5 3.2 1.2 15.8 5.2 6.6 3.5 7.7-2.9 13.3-6.6 5.7-7 6-.8 13.8 6.5 8.3 7.7 9.6-.8 16-7.7 5.8-7.8 7.2-1.8 16.6 5.5 8.7 7.2 8.6-3.4 17.5-9 7.7-9.3 5.6-.5 19.7 3.2 5.2 3 5.5-3 10.8-14.4 12.8-13.7 12-11.6 15.4 15.9 22.7 8.7 22-6.9 33-3.1 2.6-2.3 5.7 4.7 17 6 9.7 5.1 11.8-8.9 21.4-14.5 10-15 11.4-7.7 21.6 7.2 10 7.3 9.4-4.3 19.7-5.3 4.7-9.6 9-9.6 9H3358s5.5-5 9.2-7.7c21.2-15.6 21-14 12.1-25.3-7.9-10-7-10.6 1-16.4 5.7-4 13.4-8.3 19.3-12.5 3.1-2.3.8-4.1-4.4-14-5.9-11-6.2-9.8 4.7-18.7 11.9-9.9 12-9.5 5.6-22-6.5-12.4-6.6-11.3 1.6-18 12.2-10 12.8-9.4 6.4-20.9-5.1-9.2-5.2-8.9 3.4-17.5 8.7-8.7 7.7-8.2 2.5-16.1-5.2-8.1-5-9.2 2-15.3 7.4-6.6 6.3-6.2.2-14.7-6.1-8.3-6-7.7 1.4-14.1 3.9-3.4 7.8-6.9 7.5-8.5-.5-4-4.5-10-8.3-15.5-1.4-2.2 1.5-2.8 6.1-7.6 4.7-5 4.5-3.7 1-10.2l-5.6-9.4zm-69.1.2 7.3.2s1.3 1.7 3 3.4c4.7 4.8 5 7.7.2 10.2-4.6 2.5-2.8 6 1 11.6 4 5.9 4 5.2-1.8 11-6 4.9-9 6.3-2.5 15.4 3.8 4.3 3.3 8.7-2.5 12.5-4.5 3-11.9 5.4-4 16.5 3.8 8 4 7.5-3.9 13.1-10.6 7.5-12.6 6.2-7.7 17.2 5.4 12.2 6 12.4-5.2 20.5-12.9 9.5-13.3 10.3-8 21.6 5.5 11.5 5.6 8.6-8 19.2-10 7.8-12.3 8.2-9.3 14.7 5.5 12 7.9 15.3-8.3 23.6-18.7 9.6-19.7 10.3-10.7 24.5 7.3 11.6 5.7 10-6.4 16.9-17.4 10-25 14.4-25.6 17.5-.4 3.5 13.6 14 13.6 14l-24.3.6s-10.3-8.3-14.2-12.1c-11-10.7-11.1-7.2 25.4-25 20.2-9.7 18.5-7.5 15.2-13.2-9.7-16.9-10-18.7 8.2-27.8 15.9-8 13.1-8.6 9.3-20.7-3.4-10.5-2.9-9.5 5.5-15.7 20.2-15 19.7-13.5 16.5-20.8-3.1-7.2-5.5-10.6-3.2-14.2 7.3-10.4 22.8-12.6 16.5-25-3-8-4-9.9 4.9-16.8 8-6.7 8-5.9 3-14.7-6.3-8.1-5.4-9.5 3.7-15.8 6.6-6 6.5-5.9 2.8-11.7-5-8-4.8-8.3 2.4-14.6 6-5.2 7-5.4 3.2-11.1-5-7.6-4.2-9.2 2.4-13 4-2.2 4-3.1 3.7-7-.1-.7-2.2-5-2.2-5zm91.2.5h33.8c10.8 62.8 29.7 88.6 40.6 108.4-42.8 68.7-33 125.8-7 176.3l-107.1-.4a940 940 0 0 0 39.7-284.3zm-232.3.2c1.2 0 2 2 4.2 5.5 6.8 11.6 2 28-8 45.1-7.4 12.9-8.7 3-5.3-15.4 2.1-11.7-3.8 5.8-6.6 19.9-1.5 7.6-5.1 13.8-9.1 13.4-3.8-.6-2.6-11.3-2.5-13.7.9-16.8 7.2-28.8 19.4-45.5 4.6-6.4 6.5-9.2 7.9-9.3zm345.5 33c1.6 0 3.8.6 6.6 2.2 2.2 1.2 6 3.6 8.7 5 9.4 5.2 10.2 6.8 5.7 12-5.5 6.4-9 4-18.6-6.7-6.4-7.2-6.5-12.3-2.4-12.5zm-3.2 14.1c1.6 0 4.7 1.7 7.7 5.2 6.2 7 5.5 13-1.4 11.3-2.8-4-4.2-10.3-6.9-14.9-.6-1-.3-1.6.6-1.6zm302.4 1c-6 0-16 7.9-18 16-5.8 24.5-5.8 23.4-.6 27l3.5 2.3c3 2.4 7.2 6.1 7.7 5.4 5 0 12.6-31.5 12.3-38 .3-6.8.6-7.6-1.1-10.7-.8-1.4-2.2-2-3.8-2zm-307 .5c.4-.1 1 .1 1.6.6 3.9 4 5.5 10.9 7.5 16 0 1-.5 2.8-1 3.8-3.4 6.6-8.7.2-9.3-11-.3-6.3 0-9.2 1.3-9.4zm306 4.8h.8c4 .2 3.4 4.4-2.2 10.4-3 3.2-9 4.7-11 2.7-3-2.8 3-10.7 9.6-12.5 1.1-.4 2-.5 2.8-.6zm-679.8 3.5h.7c2.1 0 3.9 1 5.2 2.6 2.7 3.4 1.6 8.5.3 12.8-3.2 11.2-24.2 33-31.7 33-4.5-.8 14.3-24.6 14.9-28.7-1.4-1.3-13 12.1-18.5 21.4-2.5 4.3-5.3 9.5-6.8 10.4-4 .4-8.5 3-8.5.3.6-12 24-37.9 32-45.1 4.8-4.6 9-6.7 12.4-6.7zm56.3 1c18-.1-17.5 39.3-40.4 45-7.2 1.8-20.4 2.3-21.3.8-1-1.5.1-2.7 3-3.5 4.8-1.2 28.3-16.2 28.3-18 0-2.1-9.8 1.5-18 6.9-5.4 3.4-8 2.7-5-1.5a63.6 63.6 0 0 1 53.4-29.6zm312.1.1c1 .1 2 2.2 2.7 6.7 3.3 8.5 3.4 10.8.3 13.3-5.2 4.2-6.5 3-6.5-6.8 0-8 1.8-13.3 3.5-13.2zm-594 11.3s6.6 2.4 3.9 5.6c-2 2.1-10 .3-10-.4zm905.8.2c2.2-.1 2.2 1.9 1 6.9-.5 2.6-3.1 16.4-7.7 20.2-.6.4-7.2-3.6-9-5.4-.9-.8-3.5-2.8-3.8-4-1.1-4.2 0-9.7 3.2-12.4 1.3-1 3.8-1.6 5.1-1.6 1 0 4.2-1 7-2.3 1.8-.8 3.2-1.3 4.2-1.4zm-903.4 9.5c4.3 0 9.6.5 14.1 2 13.3 3.9 37.7 14.8 41.5 18.4 5.4 5.2-8.8 10.8-26 11-9 0-10.8-1.8-23.4-9.4-1.6-1-8.9-5.8-6.8-7.6 2.4-2.4 9.4.7 18.1 5.1 2.9 1.5 9.8 1 9.8-.2 0-1.5-17.5-8-30.6-12.2-8.6-2.7-8.4-5.4-3-6.6a47 47 0 0 1 6.3-.5zm-17.2 6s3.6 3.2 8.3 6.7a64 64 0 0 1 15.1 14.8c6 7.3 15.4 25.3 14.3 28.6-2.4 7.5-27.5-5.7-48-26.2a134.6 134.6 0 0 1-10.7-11.7l7.9-7s6.9 5.7 14.8 12.7c15 13.2 14.8 8.7-.2-5.2-4.2-4-8.1-7.4-8.1-7.4.2-2.6 2.6-4.8 6.6-5.3zm614 .6s8 8.4 11 12.2c-49 47.8-67.6 114.6-20.4 185.7h-22.7c-42.4-83.6-22.3-146.4 32-197.9zm-413.7 2c3-.1.3 3.4-5.1 12.6-10.1 17.2-12.1 21.5-28.5 25.8-4.2 1-10.2.2-12.7.5-7 .9-3.9 0 7-7 14.8-9.7 2.2-4.7-11.7 2.4-8 4.1-16.3 4-17 1.8-.5-1.2 3.2-4.3 5.5-6.4 21-18.8 27.5-18 47-24.8 8.6-3 13.4-4.8 15.5-4.9zm-88 17.2a96 96 0 0 1 21 2.2c4.3 1 11 1.8 5.3 7a71.3 71.3 0 0 1-37 15c-1.9 0-28.6-1.8-23-7.6 1.2-.6 4.9-.5 8-1 14.8-2.8 10.8-5.2-7.4-4.3-22.9 1.3-24-1.1-6.6-5.8a151.3 151.3 0 0 1 39.7-5.5zm122.2 1.7c10.1 0 18 1.7 18 5.6.2 6.3-19.1 20-31.7 22.8l-9.5 2c-4.4 1-28.8.2-31.2-.6-11.4-4.2-3.5-5.8 17.5-8.3 9.2-1 13.5-3.4 13.5-5.1 0-.9-6.7-1.1-16.8.1-11.1 1.5-9-1.8 5-9a86.5 86.5 0 0 1 35.2-7.5zm-188.3 8.7c1.4 0 4.8 1.2 10.6 3.6 12.1 3.6 28.9 7.6 40.3 20 9.3 9 11.5 12 9.6 15-2.4 3.9-31 1-43.2-4.2a57.2 57.2 0 0 1-21.8-17c-10.5-15.4-6.1-19.4 7.3-8.7 16 13 18.5 14.3 21.3 13.7 1.2-.3-1.6-3-7-7-13.6-10-20.2-15.4-17.1-15.4zm99.3 16.5a53 53 0 0 1 29.6 7c16.4 5.8 12.4 11-16.7 18.2a53.8 53.8 0 0 1-40-5.5c-23.4-14.5-21.9-17.3 4.4-10.9 8.6 2.1 17.1 2.5 17.7 1 .4-1.3-10-4-18.5-6.8-9.2-3-1.3-2.7 17-3h6.5zm675.3 62.4-4.3 2.1c-1 .6-9.2 1.6-18 2.3a127.5 127.5 0 0 0-40 8.4c-16 6.4-26.7 26.3-26.7 26.3 12-.8 79.8 11.4 98.6-13 4-5.1-10 38.6-17.3 40.5-17.8-2.1-25.4 26-23.6 24.7-18 7-32 11.1-27.4 32 2 9.2 11.2 20 30.8 17.3-5.3 36.3 39 45.6 44 2 0 0 8.6-1.7 12-2.1 20.2-4.8 25.1-34.4-4.6-43.8-8.2-2.4-8.7-4-8.7-4a27 27 0 0 0-3.7-21.4c6.6-15.6 23-45.8 23-45.8zm3.2 9c4 5.5-17.3 14.5-40 16.4-5 .5-16.2 1.5-16.5 2-2.4 4.3 43.9 1.2 58.3-6.9 5-2.8 5.4-.3 3.2 4-16.7 21.5-57.1 16.2-88.8 12.4-1.8-1.8-.2-4 6.9-9.8 13-10.5 22.3-14 42.8-16.2 5.7-.1 31.5-5 34-1.9zm25 22.3c-3 9.2-18.1 37.5-18.1 37.5-1.9 1.9-8.6 3.2-8-4 0-7.6 14.4-39.3 18.3-39.9 4.6-.3 8 3 7.8 6.4zm9.6 2.1c4.5 32.5 29.1 40.2 52.7 50.4 6.3 2.9 11.5 8 17.8 11.2 11.6-16-1.5-46.8-22-56.9-15.3-7.1-29.3-12.8-37.9-12.2-5 .4-10.5 3.6-10.6 7.5zm12.7-1.9c2.6 0 6.4.7 20.2 4.4a52.3 52.3 0 0 1 39.3 41.1c.2.9 1.3 16.5-2.3 16-5.4-1.6-8.4-7-17-10.7-11-4.5-26.2-10.5-35.5-19a36.6 36.6 0 0 1-12.6-20.5c-1-6.6 1.3-7.3 6.8-2 12.3 9.8 24.5 13.2 36.7 22.7 3.4 2.6 15.6 9.4 7.3 1a154.2 154.2 0 0 0-31-19.9c-12.3-5.9-19-13-12-13zm-937.8 32.4L3019 1466c-34.4 18.1-51.3 26-108.4 21.6l.2 2.9-24.2-1.4c41.9 65.3 93.5 150.6 78.9 299.3l170-.1s2.7 2.5 3 2.6c2.4 1.7 6.2-3 6.2-3l76.7-.3 2 2.5 35.8-.3s-163.5-306-245.7-458c-33.7-61-68.9-88-134.1-84zm880.2 7.2c9.2-.2 18.3 6 18.4 18.3 0 6.4-5.4 15.3-5.4 15.3l-12.4-11.9-12 12c-5.8-5-9.3-14.1-7.4-19.4a22 22 0 0 1 18.8-14.3zm-144.4 4.3c11.9 46 24.6 109.6-77.8 256.3-60.6 86.8-80.5 168.6-82.9 268.6h-6.1c2.9-54.8 3.3-154.3 3.3-154.3l5.7-5s-2.6-4.3-3.7-9.2c-2-8.4-.4-5.6 4.6-28 21-108.5 157-328.4 157-328.4zm-547 21.2 519.2 2.3-7 13.7-502.3-3.6zm692 4 19.4 18.7-18.9 21.1-19.8-20.7zm-15.7 7.9-10.6 11.2 9.2 9.6c-9.4 19.7-34.4 4.3-33.6-10.4 1-17.3 21.2-24.4 35-10.4zm33.3 22.2 8.4-10.6-9.5-10.4c15.5-15.3 30.2-1.8 31.6 11 1.5 13.6-19.8 29-30.5 10zm-615-13 42.6.4-15.8 29.6-43.2-.2zm94.8.2h39l-16.4 30h-39.6zm92.2 0h41.5l-16.8 30H3332Zm92.8 0h42.4l-15.4 30h-44zm94.5 0h40.8l-16.5 30h-42zm-451.4.2h27.5l-11.3 19.7zm685 18.9c15.6 12.6 4.7 33.4-11.7 33.7-11.3.3-27.6-18.8-10-34.4l11.9 10.8zm-577.9 16h40l-15 27h-39.2zm88.8.2h43.8l-15.4 27h-41.7zm93.8 0h43.6l-14.2 27h-44zm93.5 0h43.2l-13.4 27H3453zm-356.7 1h27.5l-11.7 21.6zm20.8 31.3 404.7 3.6-6.9 13.1h-387.6zm14.2 23.5 379.2 1-8.7 18.1-131-.6c-25.6-19-54.8-10.3-88.1.6 0 0-100.4 1-139.8 0zm-126.1 77 200 315.7-44.2-.5-190-297zm-40.1 20.5 188.8 295c-8.7-.1-16.7.4-25.4.3a75.3 75.3 0 0 0-66.9-82.3c15.7-64.4-31.3-91.5-62.7-96.7 12.7-83.7-56.6-95.6-57.6-94.8.3-6.8-1-11.8-1.9-17.5l25.7-4zm-30.6 4.7c-.4 1.8 3.5 18.4-4 15.4l-.5-15.4zm-39.8.4c2.7 11.1 8.4 13.3 16.2 20.8 0 0-10 1.6-12.2 0-4.2-2.8-12.8-20.9-12.8-20.9zm29.6 18.8a8.7 8.7 0 1 1 0 17.3 8.7 8.7 0 0 1 0-17.3zm17.1 6.7c24.8-1.7 60.9 25 51.4 74.8-1.7-3.5-3.6-11.1-7.7-16.6-17-23-37.3 8.6-23.7 21.5 6.7 6.3 9.8 8.8 9.1 9.4-15.3-2.9-27 10.7-20.5 25.7 10.6 19.5 25.3 9.2 33.9-2.4 0 0 5.2 17.4 10.5 19.7 8 3.4 19-1 22.8-10.6 5.6-14.4-8-18-11-26 28.7.8 65.3 42.8 48.7 79.3 2.1-8.3-6.8-27-24-22.1-8.7 3-11.7 15.6-4.7 28.5 2.2 4.2 3.4 5.7 3.4 5.7s-7.5 1-9.5 2.2c-22.4 13.8 6.5 51.5 23.2 28 1.7-2.8 4.5-6 4.5-6 2.8 5.2 3.6 12.6 8.7 15.1 20.7 10.4 29.9-11.5 21.2-22.3-5-6-10.4-13-10.4-13-.9-4 62 12.5 54.3 73.7l-166.6-.3c15.4-93.9-22-201.3-41-234l8.2-11c2 4 5.5 14.3 11.6 16.2 19.3 6.3 25.2-7.3 22.6-21.1-1.3-7.4-11.7-13.4-15-14.4zm44.1 88.3a8.2 8.2 0 1 1 0 16.5 8.2 8.2 0 0 1 0-16.5zm62.6 97.9a8.3 8.3 0 1 1 0 16.6 8.3 8.3 0 0 1 0-16.6z" style="fill:#000;stroke-width:3.18132639" transform="matrix(.1637 .00026 -.00029 .15143 -438.8 741)"/></g></g></svg>