<svg xmlns="http://www.w3.org/2000/svg" width="234" height="333"><g transform="translate(0 -719.4)"><rect width="233.2" height="332.2" x=".4" y="719.7" rx="8.9" ry="8.9" style="fill:#fff;fill-opacity:1;stroke:gray;stroke-width:.75590551;stroke-linecap:butt;stroke-linejoin:miter;stroke-miterlimit:4;stroke-dasharray:none;stroke-opacity:1"/><g style="stroke-width:3.18132639"><path d="M2406.7 536.5h85.3v295.7h-85.3z" style="fill:#000;fill-opacity:1;stroke:none;stroke-width:3.18132639" transform="matrix(.01883 0 0 .0189 -29 765)"/><path d="M2917.9 395.1a250.2 250.2 0 1 1-468.5 138.5 250.2 250.2 0 1 1-129-236.4 250.4 250.4 0 0 1 257.3-429.5 250.2 250.2 0 0 1-.4 430 250.8 250.8 0 0 1 340.6 97.4z" style="fill:#000;fill-opacity:1;stroke:none;stroke-width:3.18132639" transform="matrix(.01883 0 0 .0189 -29 765)"/></g><g style="stroke-width:3.18132639"><path d="M2406.7 536.5h85.3v295.7h-85.3z" style="fill:#000;fill-opacity:1;stroke:none;stroke-width:3.18132639" transform="matrix(.01883 0 0 -.0189 171.2 1006.7)"/><path d="M2917.9 395.1a250.2 250.2 0 1 1-468.5 138.5 250.2 250.2 0 1 1-129-236.4 250.4 250.4 0 0 1 257.3-429.5 250.2 250.2 0 0 1-.4 430 250.8 250.8 0 0 1 340.6 97.4z" style="fill:#000;fill-opacity:1;stroke:none;stroke-width:3.18132639" transform="matrix(.01883 0 0 -.0189 171.2 1006.7)"/></g><g style="stroke-width:3.18132639"><path d="M2406.7 536.5h85.3v295.7h-85.3z" style="fill:#000;fill-opacity:1;stroke:none;stroke-width:3.18132639" transform="matrix(.03766 0 0 .03778 -33.6 773.2)"/><path d="M2917.9 395.1a250.2 250.2 0 1 1-468.5 138.5 250.2 250.2 0 1 1-129-236.4 250.4 250.4 0 0 1 257.3-429.5 250.2 250.2 0 0 1-.4 430 250.8 250.8 0 0 1 340.6 97.4z" style="fill:#000;fill-opacity:1;stroke:none;stroke-width:3.18132639" transform="matrix(.03766 0 0 .03778 -33.6 773.2)"/></g><g style="font-style:normal;font-variant:normal;font-weight:700;font-stretch:normal;font-size:3.77201176px;line-height:0%;font-family:'Levenim MT';-inkscape-font-specification:'Sans Bold';letter-spacing:0;word-spacing:0;fill:#000;fill-opacity:1;stroke:none;stroke-width:1"><path d="M27.8 722.4h-6l-8.4-12v12H8v-27h5.3v9.3l7.3-9.4H27l-9.5 12.1z" aria-label="K" style="font-size:37.72449112px;line-height:1.25;stroke-width:1" transform="scale(.95622 1.04578)"/></g><g style="font-style:normal;font-variant:normal;font-weight:700;font-stretch:normal;font-size:3.77201176px;line-height:0%;font-family:'Levenim MT';-inkscape-font-specification:'Sans Bold';letter-spacing:0;word-spacing:0;fill:#000;fill-opacity:1;stroke:none;stroke-width:1"><path d="M-216.9-971.7h-6l-8.5-12v12h-5.2v-27.1h5.2v9.3l7.4-9.3h6.2l-9.5 12z" aria-label="K" style="font-size:37.72449112px;line-height:1.25;stroke-width:1" transform="scale(-.95622 -1.04578)"/></g><g style="stroke-width:3.18132639"><path d="M2406.7 536.5h85.3v295.7h-85.3z" style="fill:#000;fill-opacity:1;stroke:none;stroke-width:3.18132639" transform="matrix(.03766 0 0 -.03778 83.1 998.5)"/><path d="M2917.9 395.1a250.2 250.2 0 1 1-468.5 138.5 250.2 250.2 0 1 1-129-236.4 250.4 250.4 0 0 1 257.3-429.5 250.2 250.2 0 0 1-.4 430 250.8 250.8 0 0 1 340.6 97.4z" style="fill:#000;fill-opacity:1;stroke:none;stroke-width:3.18132639" transform="matrix(.03766 0 0 -.03778 83.1 998.5)"/></g><g style="stroke-width:3.18132639"><path d="m538.1 123.1-275 1.3 34.9 61.4c71.5-6 134.1-.7 199.4 1.3zm-187.8 216c-.3.3-11.5 3-10.3 5.4 29.1 57.8 42.1 105 54.3 164.4 6.1-4.6 16-4.4 16-4.4-4.8-22.1 25.2-24.9 25.4-1.8 5.7 1.3 11.6 1.3 16.8 6.7 2.4-65 27.5-132.3 60-178.9-37 13.6-91.3 47.5-91.3 47.5s-45.1-17.3-71-39zM575 346c-49.2 43.4-68.5 163.7-65 165.4-63.4-2-82.6 63-27.6 98-2.2 6.7-7.6 12.3-11.7 18.3 5.6 3 11.8 3.6 18 4.3 4.7 5.1 9.3 11 14.4 11.6 5.6-3.3 9.5-8 14-12.1 5.8-1.4 11.5-2.9 17-5.2-4.8-6.2-10.6-12.6-10.7-18.4 47.8-31.3 41.3-73.8-1.9-95.6 12.9-71.7 31.6-117.4 53.4-150zm-339 55.4c-6.3 2.8-9.7 8.8-14.2 13.4-6.3.3-12.3 2.3-18.2 4.7 0 0 14.3 18.3 13.4 19.3-46.3 28.1-46 69.2-1.5 96.3 7.5 58.4-46 151-48.7 148.3l-.1 19.1c37.2-38.2 58.3-107.7 62-164.8 76.1-4.7 78.8-73 26.4-98.6-4-3.4 13.2-19.3 13.2-19.3-4.4-4-11.7-4.4-18-5-4-4.4-7.6-8.8-14.3-13.4zm322 47.2c10.7 22.2 50-4.9 56.9 7 5.5 6.6 17.6 7.3 17-4-2.4-11.1-10.3-13.6-41.8-8.8-12 1.9-16.8 3-16.7-2-8.3-9.3-15.4 3.3-15.4 7.8zm36.5 32.4c-8.8 0-10.3 32-10.2 41.6-25.6 37.4 52.4 33.2 18.7-7.6 1.2-5.3-4.3-14-4.2-17.9-2.7-.3-4-14.7-4.3-16.1zM145 500.2c-13.9.3-29 12.1-6.9 29 1.5.5-.7 4.1 0 9.6 6.3 12.5 4.6 31 9.2 28.2 5.4-3.3 10-17.1 8.8-36.4-.1-1.3-2-2.6-1.6-4 12.5-19 2-26.6-9.5-26.4zm141.5 35.9c-3.6 62.5-20.1 123.9-57.5 177 32.2-13.8 63.5-31.8 93.7-47.2l70.7 40.6c4-1.6 7-2.5 9.6-5-32.5-44.1-42.6-107.8-56.8-165.3-5.4 3.5-15.6 5.3-15.6 5.3-.7 20-23.3 26.4-27.9.4zm-170.6 48.8c-7.6.4-13.3 17.7 8.1 20.3 15 2 34.4-4.9 44-1.7 11 16.5 21-7.8 6.2-11.7-16-4.3-48.5 6.8-52.1-2.6-1.9-3.2-4.1-4.4-6.2-4.3zM244 855.7l-42.7 70 272.7-1.6-35.7-66.6c.6-.8-119 13.2-194.3-1.8z" style="fill:#e2cf00;fill-opacity:1;stroke-width:3.18132639" transform="matrix(.31544 .0011 -.0011 .31518 .2 720.3)"/><path d="m303.2 191.8 4.5 9.8c58.5-6.6 119.8-13.4 181.1 1 0 0 4.5-9 4.5-9.6-57.2-13.5-185-10-190-1.2zm59.3 137.7 55.7 33.4 38-24.9-6.8-9.4c-23.6 48.2-65 10.1-80.5-12.6 0 0-4.3 8.8-6.4 13.5zm149.7 16.2c3.8-.1 6 1.3 8 5 2.1 4 3 3 1.5-2.1-2.2-8.1 7-13.4 15.8-8 6.3 4 6 13.4-.8 15.1-5.6 1.4-5.7 2.8-.9 2.6 8.8-.4 11.1 10.4 5 15.8-7.3 6-16.4 1.7-17.3-6-.3-2-.8-2-1.6-.8a19.5 19.5 0 0 0-2 12.2l-13-7.4c4.7-2.1 7.5-3.4 10.8-6.6.5-.4.8-.8.8-1 0-.3-1.5.2-4.1.4-7.8.8-13.9-4-12.3-10.8 1.4-5.8 4.7-8.3 10-8.4zM455 534.4a67.9 67.9 0 0 1 56-23.2c3-62.7 26.5-118.5 64-168.7l-41.3-23-16.5 9.2c-39.9 52.4-64.3 119-62.2 205.7zM145.6 387.9s-28 19.4-41 28.8l.7 172.9 3.6 1.1c.3.4-.3-2.5 1.4-3.9a19 19 0 0 1 4.7-2.8c3.6-1.2 3.8-3.4.4-5.3-2.6-1.5-3.6-3.8-3.3-7.6.3-2.7.1-3.3-1-5.2-1.6-2.2-1.7-5.1-.4-8.1.6-1.4.5-1.8-.6-3.7a8.9 8.9 0 0 1-.5-7.7c.4-1 .7-3.4.7-5.2-.2-6.8 6-11.4 17.3-12.9 4.4-.5 4.5-.7 2.5-4.1-11.5-19.5 14.3-29.6 16.2-26.5zm352.6 9.6c10.4-.1 19 7.6 19.2 17.3.1 9.7-8.2 17.7-18.7 17.8-10.4.2-19-7.6-19.2-17.3-.1-9.7 8.2-17.6 18.7-17.8zm.2 3.2c-8.4 0-15 6.4-15 14.2.1 7.8 7 14 15.4 13.9 8.4-.1 15-6.5 15-14.3-.2-7.8-7-14-15.4-13.8zm.4 4.4c5.6 0 10.3 4.1 10.4 9.4a10 10 0 0 1-10.1 9.7c-5.7 0-10.4-4.1-10.5-9.4 0-5.3 4.5-9.6 10.2-9.7zm-376 7.2c.8 0 1.7.1 2.5.4 4.7 1.4 6.4 5.2 3.8 8.9-2 2.8-1.8 3 1.7 1.9 2.8-1 4.2-.7 6.4 1.3 6.5 6-3.2 16.1-9.6 10-3.2-3-3.5-2.1-1.3 3 .7 1.8 2 4.4 2 4.4l-9.5-.1 2.2-5.2c1.6-3.9 1.6-4.5-1.7-2-7.7 5.6-16.3-4-9.3-10.2 1.4-1.3 3.7-1.4 6.9-.2 2.3.9 2.6.3.9-1.8-3.8-4.4-.3-10.3 5-10.4zm194.4 15.5c-3.8 23.2-.5 55.7-.6 73 10.2 1.9 10.3 8.3 11.9 16.3 5-1.6 15.7 5.2 17.2 4.6 1.1-23.5-12-91.8-28.5-93.9zM486 451.1c14.4 1 11.7 11.4 7.4 15.6-2 2.2-1.7 3.2.5 2 6.1-3.5 11-1 13 4.9 3.3 10-11 18.7-17.3 9.7-2.2-3.1-3.5-2.4-3 .8.4 3 3.6 9.5 3.6 9.5l-14.1-1.2s4.3-6.7 5-8.5c1.6-3.7.8-4.7-2.2-1.7-8.9 7.5-21.2-2.1-15.4-12 2.8-5 8-6.6 13.6-2.7 3.8 2.3 4.6 1.3 1.2-1.5-6.3-5.2-.8-15.6 7.7-15zm-362.3 8.2h.4a8 8 0 0 1 3.8 1c3.5 1.8 4.5 5.4 2.3 8.6-1.3 1.8-1 3 .5 1.7 2-1.6 6.4-.5 8 2 4.4 6.3-4 14.6-9.5 9.3-2.4-2.3-3.4-2.4-3-.9.7 3 2.7 7.8 2.7 7.8l-9.8.2s2.1-5.2 2.6-7.8c.4-2-.5-1.8-2.8.7-2.3 2.4-4.4 2.6-7.3.8-7.1-4.4-1.4-15.7 6-11.9 2.6 1.3 3 .6 1-1.9-3.6-4.4 0-9.4 5-9.6zm509.1-4c-15.8 15.2-10.9 6.2-3.5 17.8 0 7.6 4.8 13.6 1 25.7-1.2 2.3-1.3 3.5-.6 5.8-1.2 13.4-12.7 13.2-24 15.3 2-.1 17.8 27-11.8 29.2l.3 110.7 46.5-31.8-.2-172.8zm-348.6 58.4c-13.2 7.9-31.7 27.6-55 23.3-2.8 69-27.2 122.5-62 168.5 12 6.6 25.2 14.5 37.5 19.6 10.4-5 16.2-7 26.5-14.9 41.8-60 55.1-125.7 53-196.5zm109.3 12.6c2.4 35.5 8.6 69 28.5 96l1.3-75.4c-7-1.5-12.8-5.8-15-17.8zm-143.7 21 13.3.2s-3 5.6-4.3 8.7c-1.6 3.8-.8 4.6 2.2 2 4-3.5 10.2-3.8 13.5-.7 8.8 8.1-.4 21.4-10.7 15.6-4.5-2.5-5.2-1.7-1.7 1.9 6.9 5.9-.3 14.4-8.3 14.4a9.9 9.9 0 0 1-10-9c-.3-3 1.3-6 4.1-7.5 3-1.5.9-2.5-2.3-.9-10.3 5.2-17.2-8-9.4-15.6 4.5-4.3 9.2-4 13.8.2 3.2 3 4.3 2.7 3.4-.8-1-3.8-3.6-8.6-3.6-8.6zm358.7 10.3h9.5c-1 2.2-2.1 4.5-2.9 6.6-.8 2.4-.2 2.7 2.3.4 6.6-4.1 13.6 0 12.1 6.5-1 4.4-5 6.6-9.6 4.7-4.1-1.7-2.8-1-.5 1.6 2.8 3.1 2 6.7-1.6 9.1-6.5 4.3-15-2.8-10.8-9 2.6-3.6 1.4-3.2-.9-1.4-3.5 2.3-8.7-1-8.8-5.6-.4-6.6 6.8-10.4 12-5.7 2.3 2 3 1.7 1.8-1-1-2-1.3-4.2-2.6-6.2zm.5 48.3 10-.1s-.2.7-1.7 3.4c-1.8 3.1-1.5 6.4.4 4.2 3.1-3.8 9.9-2.7 12.1 1.8 2.6 5.4-2.4 11.2-7.7 9-3.4-1.4-3.6-1.1-1.3 1.9 2.2 3 1.2 6.5-2.4 8.7-7 4.1-15.4-4.2-9.5-9.5 1.5-1.4 1-2-.9-1.1-7.7 3.9-13.4-5.8-6.7-11.5 2.8-2.4 5-2.3 9.7.7 1.4 1 1.7 0 .7-2.4a27 27 0 0 0-2.7-5.1zm-370.4 5.8c11.1-.1 20.3 8 20.4 18.4.2 10.3-8.7 18.8-19.8 19-11 0-20.2-8.2-20.4-18.5-.1-10.3 8.7-18.7 19.8-18.9zm.3 3.3c-9.2.2-16.4 7.1-16.3 15.6.1 8.4 7.6 15.2 16.7 15 9.2 0 16.5-7 16.3-15.5-.1-8.4-7.6-15.2-16.7-15zm.2 6c5.6-.1 10.2 4 10.3 9.2 0 5.2-4.4 9.5-10 9.6-5.7 0-10.3-4-10.4-9.3 0-5.2 4.4-9.5 10-9.6zm-25.4 45 11.6 5.3s-5.5 4.2-7.7 6.3c-2.8 2.7-2.6 4 1.2 2.7 7.2-2.5 14.4 1.3 14.5 8.2.2 9.2-11.6 13.7-17.2 6.7-1.7-2.1-3.7-3-3-1.3 2 4.2.8 9.4-2.5 11.5-2.7 1.7-7.6 2.2-10 1-8.5-4-9-13-.9-16.7 4.1-1.8 4.2-3.5.2-2.5-8.3 1.9-13.2-7.5-7.2-14 6.4-6.7 16.8-5.3 18 4.8.2 1.8 1.5.5 2.1-2.3.7-2 .9-9.7.9-9.7zm108.2 15.2s-42.5 22.5-41.2 23.4l9.4 12.1c21-44.3 71.6-7.6 79.7 15 1.7 1 2 .8 4 1.6.1-1.6 3.6-17.3 3.6-17.3zm-68.2 163c-2.1 2.6-9.2 9.6-8.3 9.8 62.4 12.5 126.8 11.5 192.4 4.9l-5-14.6c-64.7 15.3-179 0-179 0z" style="fill:#d40000;fill-opacity:1;stroke-width:3.18132639" transform="matrix(.31544 .0011 -.0011 .31518 .2 720.3)"/><path d="m96 117.3 3.8 815 548.2-1.7-3.3-814.2Zm166.7 5.9 273.4-1c-12.8 30.8-49.7 79.6-48 79.7-56.9-8.7-115.5-13-181 0zm-160.4 2 153.5-.2 50.6 84.1s3 5.3 1.2 10.8c-2 6-3.6 8.6-5.4 11.7.2-1.7-14.6-3.5-13.3 8.3.8 7.9 11.6 12.4 19.7 6.2 1.3-.1 1.3 1 1 3-.8 4.5-6 19-9.5 19.9-18.2-13.8-24.7 11.4-12.4 16.4 7 3 18 .5 23-7.4 4-6 3.5-5 4.7 2.3l1.5 7.3c1 4.5 0 5.4-8 7.4-6.6 2.3-13.2 3.6-19.9 5a20.7 20.7 0 0 0-18.8 20.8c0 2.3 0 3.3-.5 4a591.3 591.3 0 0 0-164.6 87.4zM450.2 325c-2-3-8.3-18.4-10-24.8-4.5-31.3-5.3-68.5-10.1-97.6l6.3.7s2.4 8.4 5 31.2c1.2 11.3 2.5 34.8 3.6 45.5 1.6 16 9.4 41.7 14.2 48.2 8 10.5 23.8 3.7 18.5-8.8-2.8-6.5-13.4-5.5-12 1.3 0 1.2 1-.9 2.6-2.1 4.6-1.7 9.8 2.8 7 8.1-3.3 6.9-13.2 3.8-16.5-4.9-4-10.3 9.3-18 19.2-11.7 11.1 7 11.1 24.7 2.2 30.3-15 5-25.1-5-30-15.4zm37 13c-.6-.3 0-1.4.8-4 2.7-9.5 1-17-5.7-24-3.7-3.9-5.1-4.6-3.1-5.3 4-1.5 13.2 4.6 15.7 10.7 2.5 6 3 12-.4 18.7-2.4 1.5-6.2 4.4-7.3 4zm11.3-6.3c0-1.1.8-4.7 1-6.4.7-6.7-2.7-13.4-8.6-18.7-5-4.5-5.5-5-.7-5 12.1-.2 20 18 14.3 27-1.5 1.5-5.9 4.4-6 3zm10.3-6.2c3.6-15.6-12.7-26-13-25.5.8-3.5 7.3-1.5 9.5-.1 8.2 5 13 18.5 7.9 26a5 5 0 0 1-2.1 2c-1.7 1-2.7 1.8-3 1.1-.3-.5.6-2.8.7-3.5zm-143-50.6c1.7-1.5 2.3-1.6 5.5-.4 10.2 3.5 18.4-3.3 16-10.4-.9-2.6-4.7-5.4-7-5.6-4-.4-4 1.5.2 3 5 1.7 5.6 6.7 1 9-5.2 3.3-13.8-5.1-20.2-4.4-3 .8-5 3.5-3.2 6.7 1.3 2.2 5.9 3.6 7.8 2.1zm-11.3-1c-3.5-1.5-4.9-1.5-4.2-5.1.4-2.4 4-18.3 5.8-24.4 5.2-18.4.3-28.6-14.3-32.7a37.3 37.3 0 0 0-28.6 3.6l-1.8-5.2c42.4-10.3 114.7-8 114.4-7.6 1.4 5.2 2 10.5 2.5 15.8 0 0-13.5-6.1-20.6-8.2-10.9-3-28 .3-31.1 6.1-1.8 3.3-.9 5.5 6.5 1.8 12-6 36.4-1.4 45 5 2 1.4 1.9 1.7 2 3.5 0 2.6.2 2.7-3.8.8-20.5-9.8-38-8.6-44.1 4.2-1.4-.4-6.8-1.3-6.8-1.3l5.8 7.9 1 8.2s9.4 4.8 14.6 6.8c5 2 2.1 0-4.1-4.1-4.6-3-1-4 2-2.8 6.3 1.3 15.3 3 25.8-3.2 3.3-1.9 10.8-.2 10.9.7 0 0 1 7.1 2 22.1a331 331 0 0 0 1.9 20.2c1.6 11.5 2 12.2-4.4 6.6-2.2-1.8-5.9-4.9-6-4.7-.7 3.6 8.9 9.8 11.1 12 3.4 3.2 6.1 11.6 4.8 12-.9.4-10-6.8-17.2-13.3a70 70 0 0 0-6.8-5.5c-1.5 1 4.5 7.2 10.2 12 6.6 5.5 7.3 6 5.1 6.8-4 1.5-7.8-.4-17.7-8-1-.7-4.7-3.2-5-3-.8 1 8.4 9.1 10.4 9.8 4 1.3 5 4.8 2 6.2-2 .9-9.7-3-15.7-7.9-1.1-.9-4.2-2.4-4.4-2.2-1.2.8 5.6 6.2 12.1 9.8 6.4 3.6 7.4 4.5 5.8 7.4-1.5 3-15.5-4-22.5-11.2-1.4-1.6-2.6-2.2-2.3-1.7 3 7.8 13 13.4 20.5 15.6 1.3.4 3.2 1 4 1.6 2.2 1.5 1.7 3.2-.6 4-7.9 2.1-20.4-6.8-29.4-16.1-1-.4-.4.8-.1 1.2 7.5 11 21.8 19.5 30.4 18 5-1 9 .4 9 2 .1 1.2-2.7 3.3-8 3.7-12.3.8-31.5-11.7-42.6-27.5-.4-.5-.8-.7-.8-.4-.3 3.4 6.6 11.6 12 16.3 15.8 14 30.8 18.7 42.5 10.9 6.6-4.8 13-15.2 3.1-18.6-5.2-1.9-8.5 4.8-4 2.9 5.8-.7 7.2 2.2 6.4 5-1.5 4.6-6.4 5.3-10.5 3.4-7-3.6-5.5-15.7 3.6-17.8a13.9 13.9 0 0 1 16.2 10.7c1.5 9.5-10 19.8-19.3 22.3-31.5 8.8-56.2-32-56.3-32.8-1.6-2.9-3.5-4.4-4.7-1-1.3 4.7-8.4 18.7-12.2 18.6 1.2-5 6.2-13.2 5-20.5-2.1 6-6.6 18.7-15 25.5-2.3 1.9-8.7 4-4.3-.7 5.4-7 12.4-16.6 11-25.6-1.5 2-2.3 7.1-3.9 10.5-4 8.5-13 18.5-18.9 20.1-4.3 1.2-3.9-.1.6-4.5 4.7-4.6 13.2-18.3 12.6-24.2-.2-2.6-8.7 22.5-24.8 29.4-4.3 1.5-6.7-.4-6.7-.4 6.3-3.4 23.6-19.3 22-37.3l-2.3 6.7c-5.9 17.2-18.6 28.5-28.4 29.5-7.9.7-13.4-2.2-11.4-3.5 10.2 0 18.6-3.2 25.1-12.5a50.2 50.2 0 0 0 5.1-40.4c-3.6-14.4-4.4-27.4-5.7-41.2 11.2 3.5 22.5 5.9 33.4 2-1.1 4-3 4.6-5.8 7.7-2.1 2.3-1.4 2.8 6.7-2.5 2.4-1.6 3.3-2.8 3.7-2.4.7.7-.4 5-2.8 13.4-3.5 12.6-2.6 13.6 10.5 18.3a9 9 0 0 1 4.2 2.7l2.8 4.2c.5.3.3-3.7 0-4.7a9.1 9.1 0 0 0-3.5-5.4c-2.6-2.2-6.3-2.4-8.7-3.4zM602 439l.1-13.1 13.8 9-.2 4.4zm-23.5 2.9-.5-243.1 15.8-9.8a115 115 0 0 1 2 39.5c-2 6-3 32.7-.6 46.3 1.9 10.8 1.5 28.7-.2 37.2-.7 3.4-.2 19 1.1 33.6 1 11 .7 21.1-.7 27-1.2 4.5-.8 20.8.5 27a202 202 0 0 1 1.4 40.3c-2.3 2.4-20 2.8-18.8 2zm20.9-254.5 15.8 9.8v10.5l-15.3-9.3zm-158.8 17 6.6.4c2.6 12.6 3.8 27 4.8 41.4a204 204 0 0 0 9 61.1l-5 4.7c-8.2-17.6-8.9-45.4-10.7-64.2a321 321 0 0 0-4.8-43.4zm160-2.2 14.4 9 .1 11.3-14.4-8.8zm-150.5 3 5.8.6c1.8 15 4.5 25.2 5.5 41.8 1.3 21.4 5.3 39 7.8 55.7l-4.3 1.3c-3 1.3-7.7-18.5-9.9-58.6-.6-12-2.8-25.7-4.9-40.8zm8.8.6 6.9 1.1c3 38 7.8 73.8 12.9 94.3l-6 .3c-7.4-29.2-8-63-13.8-95.7zm10 1.3 6.3 1c7.6 87 12.3 86 13.8 89.3l-7 2.6c-7.4-25-8.9-60.2-13.3-92.9zm28.7 85.5c-1 3-3.6 2.6-6.4 3-3.2-8-5-17.6-6.3-27-3-20.4-4-39.6-7-59.9l7.6.8c-.3.1 5.3 71.3 12.1 83zM334.8 216c10 .5 18.3 4.6 19 10.7.2 1.3-1 .7-2.3-.3-8.6-6-18.3-8-30.1-4-2.6.8-4.7 2.2-5.8 2-1-.6-1.4-2.1-.6-3.3 2.8-4.3 14.9-5.3 19.8-5.1zm-23.1 12.2c.2 9.6-2.3 14.9-7.7 17-6.6 2.8-15-3-10.9-9.4 3.1-4.8 8.4-3.3 9.4 1.7l8.3-17.1s.9 5.4.9 7.8zm303.4-1.5v9.8l-15.4-9.5 1-9.5zm-272-1.3c7.6 2.8 10.4 6.2 10.7 7.7-.4 1-1.2.3-6.7-2.4a28.2 28.2 0 0 0-29.3.5c-2.4.4-2.7-.9-.2-3.3a28 28 0 0 1 25.6-2.5zm57.4-1.9c6.7-.2 14.6 1.4 21.3 4.5 3 1.4 5.7 2.3 7.6 3.9 1.6.7 1.7 4 .5 4.2-1 .1-2.6-.6-5.1-2.2-16-9.6-27.4-8.4-36.6-2.5-.5.3-2.1.7-2.7.6-1.8-.1-1.9-.8-1.2-1.7a24 24 0 0 1 16.2-6.8zm199.3 7 15.3 10v9.7l-16.3-10.5zm-277.3 4h2.2c5.2 11.8 11.8 5.7 14.5 1l2.7.4c-4.2 15.7-21.6 7.5-19.4-1.5zm-3.9 1.5c2.6.3 2.5 3 3.3 4.9 1.8 4.3-5 .7-6.1-.4-2-2 .8-4.3 2.8-4.5zm76-.5c6.7 9.4 10.5 3.9 14.3-.2l1.8.5c-.5 6.7-12.7 13.9-18.4 0zm20.4 1.1c.8 0 2.2.5 3.5 1 3.6 1.3 3.4 2.3-.6 4-6.4 2.6-8.6 3-6.7-.8 1-1.7 1.8-4 3.8-4.2zm-25.1 1.4c1.6 1.1 2.7 2.3 2.8 4.3.2 1.4-4.8-.2-4.8-2.4.1-1.4 1-2.6 2-1.9zm-44.4.6c3.3 1 2.9 2.5.6 3.9-4.1 2-5.9 1.7-3.2-1.7 1.2-1.5 1.5-2.2 2.6-2.2zm253.2 4.9 16.7 10.8-.2 10-16.6-10.5c-.8-4.3 0-7.2.1-10.3zM311.2 259c.8 0 1.1 2.4 1.3 6 .3 5.9-6.1 14-12.7 16.9-7.8 3.4-16.2-1.4-14.8-8.4 1.3-6.6 11.2-6.8 11.6-.8-1 1.6.4 2.9 1 2.8 2.5-.7 8.6-5.7 11-11.4 1-2.2 1.6-4.4 2.2-5h.4zm287-1.8 16.7 11.2v10l-16.4-10.6c-.6-4.4-.4-7.6-.2-10.6zm-201.6 15.7c-1.3 2-.3 5.4 2.3 2.4 6.6-7.1 16.2 1.8 11 7.5-4.6 5.2-10.3 3.5-22.4-.8-8.8-3-10.2-2-12.4.2-1.8 1.9-.9 5.6 1.5 5.6 7.1 1.5 13.3 3 20.7 4.4 15.6 3 25.2-15.7 10.9-22.6-3.4-1.6-10.5.5-11.6 3.3zm-69 2.1c-6.1 5-1.1 18.4 7.8 19.6 2 .3 4.7.2 7.9-.7 6.3-1.7 13.2-5.1 13.5-7.1 1.3-9.1-13.4-1-15.3.1-4.6 2.6-9.5 2.3-12-.8-5.5-7 4.4-15 10.5-6.4 1.5 2.1 1-1.5-.7-4-2.4-3.5-8.4-3.3-11.8-.7zm271.8-2.9 15.6 10.3v9.5l-15.2-10.1zm1.2 14 14.8 9.9.2 9.9-15.5-9.5c.3-3.6.4-7 .5-10.3zm-83 5.7c13 .2 20.3 18 13.5 25.4-2 2.3-3.7 2.8-4.6 2-.2-.2.1-2.2.2-4.4a20 20 0 0 0-6.8-17.6c-4.3-4-6-5.4-2.3-5.4zm-160.2 2.8c-2.5.8-5 2.5-7.1 2-2-.3-3 .6-3.7 2-3 5.6-2 7.4 3.8 4.2 2.8-1.5 3.8-1 11.3.4 5.4 1 9 .8 13.7-.3 5.9-1.4 9.4-1.5 12.3 0 3 1.5 5 3.5 5.1 1.9-.3-2-2.2-7-2.6-8.7-.2-.9-1.7-.1-3 0-5 .3-10.7-3.8-14.5-1.6-3 1.7-3.4 2.1-7.5-.1-3-1.7-5.2-.7-7.8.2zM514 296c8.8 6.8 11 12.9 10.2 17.8-.4 3.6-.7 7.6-4.5 9.8-.7.3-1.8.5-2.8.6 3-10.2-.5-19.4-13-29.2a9.5 9.5 0 0 1 10 1zm-198.7 0 1.2.1c1.6.5 1.8 4.2.6 5.4-1.2 1.1-2.2.2-3.6-2.8-1-1.6 0-2.7 1.8-2.8zm-8.2 2.8c3.2 0 4.5 2.7 5 4.9.5 1.8-.1 7.4-1.8 5.5a17 17 0 0 0-3.6-6c-3-2.2-2.8-4.3.4-4.4zm-9 2.8 1.8.1c5 .8 8.8 8.2 7.7 12.5-2.7 4.5-3.7 1.4-4.5-2.7a25 25 0 0 0-4-5.7c-2.7-2.9-3-4.2-1-4.2zm302-2.2 15.2 10.2v10.9l-16-10c.4-3.8.6-7.4.7-11zm-312 4.4c7.5 0 14 8.1 11.6 16-3 8-17.5 6.3-15.1-1.8.7-2.3 3.3-4 6-2.6 3.6 2.2 3.2-1.3.9-2.5-3.7-1.9-8.7-.7-9.8 3-3.8 13.3 14.5 17.8 24.5 4.1 3.7-5 7.6-10.3 9.8-12.6 2-2 2.4-1.8 2.1.8-1.3 12.3-10.5 27.7-27.9 26.9-16.8-1.5-22.1-18.1-9.4-28.5a11.6 11.6 0 0 1 7.3-2.8zm89.4.7c-6.2 2.8-11.8 3.8-17.8 1.4-4.5-1.8-4.5.1-2.5 1.8 5.6 4.4 15.9 2.4 20.3-.1 1.4-.8 1.9-3.2 0-3zm237.9 19.7v10l-17-10.7c-.3-2.4 0-6 .5-9.7zm-16.5 3.3 16.3 10 .4 9.8-15.8-9.1zm1.2 13.8 15.5 10 .2 10.7-15.4-9.4zm-378.7 11.2-9.5 26.7 6.2.3 4.2 7 4.3-7.1 6.6-.5zm379.3 3.6 15 9.5.2 10-15.6-10zm-.6 12.1 15.3 10.3.3 10.5-17.3-10.8zm-343.3 6-9.4 28.5 5.3-.7 5 7.6 5-6.8 4.7.2zm-70.8 2-9 28.4h6l5.1 7.2 4.4-7 6.9-.1zm412 5.3 18.1 11.7.1 11.2-17.4-10.9zm17.9 26.5.2 9.8-15.2-10-1.6-10.9zm-321.4 1.7-11 28.8h7.3l4.5 7 3.6-7h6zm307.4 2.9 14.1 8.9-.1 10-13.8-8.6zM335.6 529l-8-7.2c0-.5 6.6-3.5 10.7-1.6 5.4 2.5 8.2 11.5 2.1 16.3-4.8 3.7-12.2.6-12.3.1zm-7-11.8c0-11-6.2-13.9-11.4-16.1 0 0-.8-70-.7-72l-1.5-8-1.3-.3c.3 7 .8 79.7.6 80.2-9.6 1-12.4 7-13.2 15.3-7.6-.6-12.5 3.7-12.7 4.4-2.8-3.6-.7-8.8-2.9-12.5-6.7 21.7 6.4 34.7 17.7 33.5 1.8 20.9 26.6 24.6 25.8-.7 30-1.6 19.8-27.2-.5-23.8zm-140.9-87.8L177 457.8l7.6-.9 2.7 5.3c12.2-10 18.4 5.4 12.2-7.8zm412.5 50.3c1.4-.1 3.2 1 3.6 2.6.3 4.8-6.7 3.7-6.9.7-.1-2.1 2-3.3 3.3-3.3zm4.5 31c3-2.3 7.7-1 7.8 2.4 0 3-3.7 4-6.6 2.3-2.3-1.3-2.4-3.7-1.2-4.7zm.4 8.4c16.3 1.1 28.5-9.2 23.3-16.6 4.3-5 .8-8 2-11 3.4-3.2.5-10.3-.3-10.3-.7-9.6-3.7-10.8-8.2-15.8-1.3-1.5 3.2-3 4.9-5.5-4.6 1.6-9-1.5-9-2.2l-1.9-2.2c-30.2 1.3-57.3 3.3-56.3 41.3-4.3 16.1 3 30.5 24.1 26 4.6-3.8 1.6-9.3 1-12-1.8-7.3.3-12 .9-15.5 1.8-10.6 10.2-20.5 11-3.8 1.5-2.1.8-2.4 3.3-3.3 5.8-2 5.8 3.5 4.6 5.7-.8 1.1-2 1-3.1.9-1.7-.2-3.9-.8-4-1.4-.4 1.8 3.1 5 2.8 6.6-.5 1.5-.8 1.4.7.4 7.3-4.8 11.9 6 1.3 4.7 5.2 2.6-2.5 10.1 2.9 14zm-10.8-58c5.8-.3 7.1-.4 6.9 2.4 1 5.1 2.5 7.5 9.7 7 7.3-.9 9.6-1.3 2.3 2.8-3.7 1.5-5 1.8-9.3 1.4-4.5-.3-4.1-.8-6.7.6-1.4.8-3 1.8-4 2l-4.8.9a30 30 0 0 1-7.8 15.8c-5 5.3-7.6 6.2-1.5 5.9 2.3 0 1.2-1 2.2 7.6.3 3 1 6.6 1.4 7.7 1.6 4 1.8 6-4.3 6.2-15.3 1-18.8-12.7-16.8-19.8.2-1.1.9-4.8 1-7.7 0-1.6-.3-3-.2-4.5.3-13.2 3.7-16.7 16.3-25.2 3.8-2.6 10.6-3.1 15.6-3.2zm13.5.6c7-.1 13.8 3 10.4 5-2.2 1.4-10.1.9-12.3-.6-2.8-1.9-1.8-4.3 1.9-4.4zM293.3 473l-2.8 4.6-3 21.4.6 4.3 5.7 7 4.6-7.2 7.2.1zm329.7-2.1c4.6.8 4.8 4.7 3.6 7-2.5 5.3-19.6 7.8-19.6 7.8-.2-2.2.2-4.4-1.6-7 0 0 11.4-2.7 13.8-4.7 1.6-1.4 2.6-3 3.8-3.1zm3.4 11.9c1.7 0 2.5 1.1 3 3.4.2 1.2-.3 2.2-1.4 3.6a31.1 31.1 0 0 1-20.9 6.2c-.3-.3.4-5 .8-7 5.8.2 15.7-4.7 18.5-6.2zm-173.8 27c-5.8-7.9-18.8-6.7-17.4-6.2.1-6.7-1.1-15.8-12-16.8-11-.8-16.7 12.7-12.5 18.4-6.8-2.6-17 4-17 4.6-1 0-8.7 19.1 14.9 20 2.1 9.1 5.8 13.5 13.3 17.2l.2 73.6 2.7 3.4.2-77.2c12-.5 13.6-13.3 12.7-16.3a22 22 0 0 0 14.3-3.6l1.4 12.5s2.9-4.4 2.2-6.8c-5.2-72.3 23-150.5 60-201.3 2-2 2.6-4.6 3.6-4.6l14.7-7.6a504.2 504.2 0 0 1 41.4 22.7l.5 103a358 358 0 0 1 48.7-3.9s-4.3-1.6-4.4-4.3l-1.3-241.2-21.8-13.2s-18 10.9-23 14.6l.5 142-38.7-21 .7-6.7c-.6-19.4-10.9-25.9-30.4-20.1-2.6.7-4.4 1.4-5.7.4-8.2-22.3-12-80.8-11.9-80.8l55-86.6 93.5-.5 1.6 330.8 3.4 173.4-47.7 32.2-.7-111s-6.8-3-8.6-3.3c-.7 0-1.6 1.4-.3 2.1 1.7 1 6 2.5 6 2.5l1 110S573.2 672 565 676.8a695.6 695.6 0 0 1-37.3 18c-4.5 2-9 3.6-9.4 4-15.8 6.2-30 10.6-43.2 17.1-9 3.5-8.6 0-10.5-2.7a58.9 58.9 0 0 0-63.2-10.3c-3 1-6.9 2-9.4 3.6-.8.5-2 1-3 1.3a14 14 0 0 0-5.1 2.2 22.4 22.4 0 0 0-6.4 8.9c-1 2-4 11.9-4.4 14.7-.1.5 1 .4 1 .5.1.2 3-11.9 4.2-14.1 2.5-4.9 5.6-7.8 7.2-8.2.8-.1 1.4 1 .4 2.6-2 3.4-3.7 10.7-4.2 14-.4 3-.5 5.3.1 5.4.1.1 3-9 4.3-12.3 3.3-8.5 5.4-12 8.7-13.8 3.3-1.8 4-1.6 3.4.4-5 9-7 15.7-8 25.2 0 1.9 1 2 1.8-1.2 2.7-10 6.4-23.5 15.2-27.5 3.7-1.6 5.4-1.5 5-.4a52 52 0 0 0-13 30.2c0 1.5.7 1.2 2-2 3.6-12 8.8-22.3 15-27.3 2.5-2 5.4-2.5 7.8-2.8 7.4-.8 7.6 1.7 1.2 5.2-7.3 4-15.7 18.3-16.7 29-.3 3.8 1.1 4.2 2.1-.8 4.4-21.4 24.2-35.6 40-29 7.2 3 8.5 7 2.2 5.2-12.5-3.7-26.5 4.6-32.3 16.1-5.2 10.5-5 16-1.4 30 2.5 12.9 7.4 29.4 5.8 42-1.8 2.5-7.2-1-13.7-1.7a26 26 0 0 0-12.7.5c-3.5 1.3-5.6 1.6-6.2-.1-.2-.6 2.7-3.4 4-5 2.1-2.4 1-2.8-2-.1-1.5 1.3-4.6 4.3-5.4 4.5-1.9.4-2-1.6-.5-6.6 5.3-19.3 3.9-19.6-5.2-23.5-9-3.2-6.1-4.8-10-8-2.9 2.1 3.6 11.4 10.9 13.5 6 1.6 5.2 4.5 2.6 12.1-2.6 10.7-7.2 24.8-4.5 34.3 5.5 20 27.3 19.6 44 11.5l2 5c-14 5.4-88.6 10-113.6 7.3-2-6.3-2.2-8-3-15.4 0 0 15.5 6.5 23.3 7.7 9.6 1.4 24.5 1.4 28.3-6.8 1.2-2.4 0-4.5-3.3-3a63.8 63.8 0 0 1-25.1 4 63.7 63.7 0 0 1-21.6-5.6c-2-1.1-3.8-3.4-2.2-6.3 1.4-.3 3.3 1.2 4.5 1.7 12.8 6 19.8 7.2 28.2 5 6.3-1.8 14.8-8.2 12.7-10-2.1.7-9.2 6.2-14.1 7.5-10.1 2.4-20.8-1.4-31.3-7.7-3.3-2.6-1.8-4.5 2.2-2.4 15.7 7.3 22.2 12.2 37.2 2 3.4-2.4 5.2-2 7.2-.7 7.8 6.5 7.8 2.8 2-3.9a18.9 18.9 0 0 1-3.2-6c-.5-1.6-.7-3.3-1.7-4.4-1.8-1.9-5-2.8-8.6-4.3-5.3-2.2-7-1.1-3.1.6 6.8 3.1 10 6.4 1.6 4.6a34.6 34.6 0 0 0-27.7 3.3c-5.7 2.6-8.2 5.3-9.5-.5-2.8-12.1 0-28.6-3.9-49.8-.7-4-1.6-6.6-.6-7.2 1.1-.7 4 2 7.7 6.6 1.6 2.2 4.9 6.3 4.9 5.5 0-4.5-7.4-13-13.6-16.3-3.5-1.8-5.8-10.2-1.9-8.4 3 1.4 18.7 14.2 21.7 18.7 1.4 2.2 2.6.8 1.1-1.7a59 59 0 0 0-8.1-9.1c-6.4-5.8-7.1-5.5-6-6.7 2.5-2.3 7.7.7 16.9 8.4 2.3 2.8 5.5 5.3 5 4 1-2.2-8.2-11.4-13.7-13.9-1-.6-1.1-1.2-1-2.4.5-4.3 11 2 19.8 9.5 3.3 2.8.6-2.4-3.2-6-3-2.8-7.8-6.3-11.1-7.5-3.2-1.2-3.5-3.9-.9-5 8.8-.3 17.9 8 23.3 14.6 1.5 1.8 2.9 3.2 1.3-.2a33 33 0 0 0-22.7-17.3c-5.8-.9-5.7-5.8-.2-5.3 6 .6 16 5.7 24.4 13.6 2.5 2.3 6.6 7.5 5.8 4.4a51.3 51.3 0 0 0-29-20.9c-4-1-15.8 1.1-15.9-.8 0-1.4 1.3-2.2 5-3.4 14.6-4.5 36 7.2 47.6 25 .8 1.3 2.4 1.8 2.5 1.6a54 54 0 0 0-37-30.1c-9.5-1.4-19 .8-23.6 6.7-5.1 6.7-3.1 15.6 4.6 14.9 4-.4 3.7-2.5 3.6-2.6-.3-.2-2.6.8-4 .6-5.3-1-4.8-9.8 3-9 8.7 1 10 14 .1 16.7-9 2.5-12.4-1.4-14.9-6-3.6-6.6.3-17.4 6.7-21.6 18-11.6 40.8-1.9 53.6 9.6 6.4 5.7 11 12.5 14 19.8.7 1.7 2 1.6 1.6-.2-18.1-42.9-72.1-47.5-80.1-14.6 0 0-.3 1-5.5-5.9-8.4-11-21-13.6-36.5-6-15.6 5.5-20.9 9-31.7 14.1-1.6.6-11.6 7-13.2 5.6-15.4-9.4-28.8-12.6-36-19.6.2-1.2-1.1-20.4-1.1-20.4l.3-82.9c.1-.8-8 .6-21.8 2.6-36.5 6.7-33.3-11-38.1-12.3-2.6-.5-2.4.5-3-63.3l-1-72.5c-.3-21.3-.3-39-.1-39.4.2-.4 2.2-2 4.6-3.6 8.9-5.8 13.9-9.4 33.3-23.1 4.4-3.1 5.5-3.7 5.5-3.7 2.3 38.4.3 78.7 1.3 111.7h1.7l-.6-110.8c-3.4-.8 76.7-44.3 120.5-58.4.8-.2 2.9.6 2.9.6 25.2 28.6 91.4 20 96.8-14.9 11 21.3 59.2 62.6 81.2 12.8 0 0 8 14.3 14.8 15.2 15.4 2 17.1-.3 51-15.6a324.6 324.6 0 0 0-62.8 182.3zM432 496c.8 2.4 1.1 5.5.4 8-1 2-2.5 1.9-2.5 1.9l-7.5-6-7.3 6.4s-4.5-4.2-2-10a11 11 0 0 1 18.9-.3zm194-1c4.7-.2 2.2 5-4.9 8.4-4.4 2.2-8.1 2.8-9.7 2a7 7 0 0 1 .4-5.6c3-1.4 11.3-4 14.1-4.7zm-310.3 9.7c5.4-.1 10 3.4 10.1 9.7a11 11 0 0 1-1.3 5l-8.9-6-6.8 6.7c-1.2.4-5.3-4.5-2.5-9.7a11 11 0 0 1 9.4-5.7zm129 2.9c7.4 3.1 8.7 12.9 1.4 16.6-3.5 1.8-9 2.8-11.5-.8l7.4-7.5-8.5-6.6c-.3-.3 6.5-3.6 11.1-1.7zm179.9-2.6c1.3 0 1.6.5 2 1.6 1 3.2-1.6 6.4-6.2 7.4-4.3 1-4 1.4-6-2.1-1.5-2.8-2-2.7.5-3.6 3-.9 6.2-2 9.7-3.3zm-213.3 5-7.6 7.1 8 7.8c.4 1-9.3 5-14.3-1.1-3.3-4-1.4-11.5 3.2-14.1 4.8-2.7 11.6-.5 10.7.3zm11.5-.9c4.7 0 8.6 3.5 8.7 7.8 0 4.4-3.7 8-8.5 8.1-4.7 0-8.6-3.4-8.6-7.8-.1-4.4 3.7-8 8.4-8zm-117 13.4-7.7 7.5 8.3 8.3s-6.5 1-8.9.6c-11.3-2-10.2-14.2-1.4-17.5 3.7-1.2 6.4-.8 9.7 1.1zM155.1 525s1.5 15.8 2.9 21.2c-1 6.2-5.2 10.4-7.1 16.7-1 2.8-5 6.6-5.7 2.6-2.8-4.9-.1-11-2.4-14.4-1.2-3.3-.8-5.1-1.6-8.5-1.7-2.8-3-4.1-2.9-6.6-.4-11.2-3.4-9-8.8-8-4.4 1.3-10.3 1.8-13.8 4.2-7.6 5-3.4 7.8-6.3 15.2.5 3.3 1.3 4.5.7 7.3-3 13.3 2.5 12.2 2.3 12.4-2.2 3.1.5 10 1.6 9.6 6.6 1.5 4.2 6 6.3 8.4 2.2 2.2 2 3.4 11 3.6 16.3 1.2 42.2-1 47.8-19.5 3.5-26 8.6-48.8-24-44.2zm161.8-2.5c4.5 0 8.3 3.3 8.4 7.5a8 8 0 0 1-8.2 7.8c-4.5 0-8.3-3.3-8.4-7.5a8 8 0 0 1 8.2-7.8zm-154.7 4c3.1 0 6.7.6 9.7 3.2 6.4 5.7 6.7 10.9 3.8 32.7-.8 6.2-3.1 11.3-6.2 13.6a58 58 0 0 1-20 9.1c-3.4.8-6.3.8-8.5.8-2.4 0-3.9-1-4-3 .5-5-5.1-5.5-8.3-5.2-5.8.2-6.4.7-2.8-1.9 4.1-3 13.6-3 15.4-1.2 3.7-3.5 7.6-3.9 12.3-4.4-.7-1-2.4-4.7-1.3-7.2 2.5-4 6.6-11 10.9-13.7 4.3-5.2.6-2.8-2-2.7-1.5 0-1.4-.4-1.6-1.4-1.1-4-2.6-11.6-2.6-16 0-2.2 2.2-2.7 5.2-2.7zM135 532c1.7 1.4 1.6 3.3-.1 4.7-2 1.7-6 .8-6.1-2.3.3-3.1 4.2-4 6.2-2.4zm288.4 11c-7 .3-12.7-6.6-10-13.5 1.4-1.8 2-1.6 2-1.6l7.9 6.6 7.5-7.4c6.3 7 1 15.3-7.4 15.9zm-296.8-10.7c-.6 2 .1 4 .2 5-1.3.9-7.2 2.5-10.3 4a2.6 2.6 0 0 1-3.5-3c.8-3.3 6-5.4 9.7-6.4 1.1-.2 3-.3 3.9.4zm1.2 9.3c2.1-.3 1.5 4 .7 6.2-.8 1.5-3 1.5-5.2 1.6-3.7.2-8.3 4.1-10.3 3.5-.7-.3-1.1-2-1.2-3 .4-5.6 10.6-7.7 16-8.3zm11.2 5.9c-.7 1-3 1.4-4.9 1-3-.9-3.5-5-.8-6.4 4.8-1.5 7.7 2.7 5.7 5.4zm306.4-9.4-4.2 6-6.4-.2 10.4 29.4 4.8-11.5 2-15.8zm-136 2.5 8.2 6.2 7-6.7c5.2 10.8-.8 15.7-7.2 15.6-7-.1-14.6-6.3-8-15.1zM130 551.7c2.6-.4 1.5 6 1.1 6.3-1.6.5-8.8 1.4-11.8 3.7-6.4 4.7-9.1 1.8-6.1-3.7 2.8-3.3 13-6.2 16.8-6.3zm8.1.3c2.9-.2 4.9 2.7 3.1 5.5-2.3 2-6.5.5-6.4-2.3 0-1.9 1.6-3 3.3-3.2zm-4.2 16.5c.4 1.5-.2 1-3.1 1.9-1.7.4-4.3 1.5-7 2.7-4 1.9-5 2.9-6.5 2.7-1-.3-2.4-.7-2.7-1.8-1.4-4.2 2.3-8.4 10.9-11.4a36 36 0 0 1 6-1.2c3 0-.2 4.2 2.4 7.1zm5.1-6.3c4.2 0 5 5 1.8 6-7.2 1.7-6.6-6-1.8-6zm-5.1 18.8c1.2 1 1.3 2.8 0 3.7-2.4 1-11.6.1-11.7-2.3 0-1.6 3-2 6-2.1 2.8 0 4.8-.1 5.7.7zm415.5 2.6-7.5 9.5 10.1 23.6 9.3-28.6-7.3 2.7zm-429 24.3c1.7 72.9 1.4 239.7 1.4 239.7l22.3 14.1 23.5-15.7-.6-137.3 34.4 17.5s1 1.4.9 8c-2.4 18.2 16.5 30 29 22.8 5-2 5.3-2.2 6.3-.8 2.9 3.9 6 20.6 6.6 31.3.8 16 5.3 48.8 6.4 49l-56 88.2-87.5.4-1-328c4.6 5 6.6 8.3 14.2 10.8zm325.3-7-4.2 6h-5l8.8 30.5 10.8-29.8-6-.7zM164.8 844s-10.9 7.3-14.4 9.4c-1.8.7-2.7.8-3.1-.8-.5-2 .3-5.8 1-12 .8-5.9.8-6.2-.3-14.4-1-8.6-1.2-9-.3-20.3 1-12.7 1.2-25 0-32.6-1-7.3-1-23.8-.1-33 1-11.3.6-21.2-1-29.4-2.8-14.6-3.3-19.6-.3-30.6 1-4.1 1.6-6.3 1.4-13.2-.3-7.6-.4-10.1-3.4-27a69 69 0 0 1-.2-26.6c.3-3.1.4-5.2 1.7-6.2 1.5-1.1 17-2 17-2zM124 608.3l17-.2c-1.3 5-1.6 8.7-1.8 12.3l-15-9.2zm.3 6.3 14.9 9c0 3.9-.3 7.5.3 11.3l-15.1-9.3zm0 14.3 16 10.2c.6 4 1.9 7.9 2.4 11.4l-18.1-11.3zm515.9 4 .8 290.8-158.8.7-50.3-89.8s.5-8.2 1.7-12.4c1.5-5.1 2-6.2 4-6.5 5.7 2.7 12-.9 14-4.9 2.3-4.9-2.5-12.3-9.9-13.9-3.2-.7-6.8.7-10.4 3.2-2 1.6-2.5 1.8-3 .4-.9-3.2 2.1-11.8 7.6-19.2 3-4 3.8-5.3 4.8-3.7 4 6.3 12.4 5 15.6 1.5 3.9-4.4 3-14.2-5.7-16.8-17.3-5.2-25.2 10.9-25 10.8l-3.6-19.2c20.7-4.7 32.7-6.4 39.2-12.2a24 24 0 0 0 7-19.6s57.6-21.7 84.5-35.1c46.4-23.2 87.5-54 87.5-54zm-87.7 2.1-4.2 7h-6l12.2 29.3 9.3-30.6-5.8.5zM125 643.4l18.3 11.7c.4 3.8 1 7.1.4 11.4l-19.2-11.8Zm356.7-3.6-4.6 5.6-5.2-.5 10.3 29c3-8.4 6-19.8 9-28.2l-4.8.2zm-357 18.5 19 11.6c0 3.6.2 7-1.2 9.5l-17.8-10.6zM517 660l-4.6 8.2-6.1-.8 11 27.9 11.9-27.6-7.4.3zm-392.3 11.8L141 683c.2.2-1 5.1-.7 8l-15.6-9zm.4 13.9 15.3 9.7c0 3.7.3 7.2 1 10.3l-16.7-10Zm-.3 14 17.7 11.7 1 9.4-18.8-11zm145.6 4c17 5.8 32.8 35.8 32.4 74.5-.4 27 8.4 65.4 8.2 65 0 0-5 .5-6.3-.5a234.5 234.5 0 0 1-9.5-57.8c-.9-14.4-1.7-28.5-2.7-31.8-2.8-11.6-5.8-25-13.8-33.9-6.2-6.6-13.3-7.8-17.5-.3-3.5 6 3.8 16.2 9.9 12.8 1.4-.7 2.3-2 .4-2-6.3.9-10.5-7.2-6.6-11 7-6.8 19.3 8.3 13.6 16.6-2.5 3.6-9 4.2-14.3 2.9a20.3 20.3 0 0 1-10.7-26.5c3-6.5 9.5-10.3 16.9-8zm-20.6 3.8c1.4 0 .5 2.4-.8 6.1-3 8.8 2.6 22.5 10.4 25.3 2.4 1.4 2.2 2 .7 2.8-5.1 2.7-14.3-5.3-16.8-14.2-1.7-6.4-1.3-14 2-17.2 1.8-1.7 3.3-2.6 4.3-2.8h.2zm-125.1 5.2 18.8 11.5a29 29 0 0 1 0 11.2l-19-12.2Zm113.9-.1c1.4 0 .8 2.1.5 6a22.5 22.5 0 0 0 9.1 21.5c3 2.4 3.8 3.1 2.5 4.3-1.8 1.8-7-.6-11-4.5-7.4-7.2-10-20.7-4.1-25.7 1.3-1 2.2-1.6 3-1.6zm210 1.6c8-.3 14.8 2.6 15.6 11.7 1 13.4-12.4 20.7-21.8 13-8.4-7.7.1-19.8 9.9-14 4.9 2.8-1 9.3-5 6-1.7-1.6-2.5-.6-1.2 1.1 3.8 5.3 11.4 1 10.8-3.8-1-9.2-13.2-9-17.8-5.4-6.3 4.9-11.8 12.1-16 17.4-3.3 4.6-4 4.5-3.6-1.2 1.4-15 16.5-24.4 29-24.8zM228.8 717c1.2 0 .7 1.7.8 6 .6 11.4 5.7 18.4 12.2 22.4 2.2 2.2-.6 3.8-4.7 2.7-9.4-2.7-19-21.3-11-29.4 1.1-1 2-1.7 2.7-1.7zm-9.1 3.7c1.3 0 .5 2.4.6 7.1.3 10 3.6 14.8 11.6 20.8 2.6 2 2.9 1.8 1.9 2.9-2.8 2.9-12-1.2-16-7.2-4.6-7-5.3-17.8-1-21.8 1.3-1.1 2.2-1.8 2.9-1.8zm-9.1 4.8c1 0 .5 1.8.6 6 .4 10.5 3 15.6 10.1 20.4 4.5 3 5.6 2.2 4.2 3.4-2.4 2-9 .3-13.9-3.6-7.3-5.8-9.4-20-3.4-24.9 1-.8 1.8-1.3 2.4-1.3zM125 727l18.1 11.6-.5 9.9-18-11.4zm317.2 18.4c-7.4-1.4-10.2-6.3-9.3-12 .3-1.8 1.4-2.9 2.7-.4 1.1 3.9 3.9 9.3 7.7 10.3 1.5.4.3 2.4-1.1 2.1zM283.3 734c8.4 19.5 8.2 40.7 9.6 60.8 1.8 26.7 7 44.7 8.6 47.7 0 0-8.1.1-8.6-1 0 0-7.6-35.4-6.5-52.9.1-19.6-4-36.8-6.5-44.6-2.7-6.8-2.8-2.3 3.4-10zM125 741.5l17.4 10.6c-.2 3.6-.3 7.2-.2 10.9L125 751.7zm234.6-1c0 .7 2.6 1.2 6.5.3 4.4-1 8.7-.8 12 0 3.7 1 4-.1.8-1.4-1.6-.7-4-2.1-7.8-2-3.8 0-11.5 2-11.5 3.2zm70.7-.3 3 3.6c2.2 2.4 2.9 2.5 1.8 3.4-2.3 2.3-7.3-1-7.8-5.2-.5-3 1.2-5 3-1.8zM274 741c8.1 10.8 9.3 36 9.5 54a248 248 0 0 0 6.5 45.8c-1.7.9-4 .6-6-.2-2.1-2.5-3.4-9.6-5.9-28.9a431 431 0 0 1-2-33.4c-.3-11.2-7-35.5-7-35.5s2.5-1.7 4.9-1.8zm-9.1 2.7c7.4 15.4 8.6 30.7 9 49.2.3 17.5 4.5 38 6 47.1-2.4.3-5 .5-6.1-.6a9.2 9.2 0 0 1-1.6-3.9c-3.3-15.1-4.1-31.6-5.1-45.6-1.5-21.6-1.8-27-5.1-37.7-2-6.1-2.6-6-1.2-7.2a7.8 7.8 0 0 1 4.1-1.3zm83.5 3.5c.2 7.2 1.2 4.3 4 3.1 2-.1 3.7 1 7.5 2.2 4.8 1.7 4.4 2.2 7.8.7 2.1-1 3.8-1.3 4.8-.5 4 3 9.1 1.3 12-1.2 2.3-1 4.8-.5 6.7-.3 2.7.2 2-1.4 2.4-4.6.3-3-1-3.2-4.1-2.2-3.3 1-6.6 1.1-9.4.3-7.3-2-12.6-.7-16.2-.2-8.5 1.3-9 .5-11-.7-1.4-.8-3.7-2.4-4.6-2.3-.8 0-.5 2.6.1 5.7zM424 744c.8-.4 1.2.6 2.3 2 1.9 2.2 2.5 3.3.9 3.5-4.2.6-5.3.2-5.1-2.2.1-2 .6-2.7 1.9-3.3zm-167.9 3.4c6.2 5.7 7.7 38 8.4 44.9 2.3 37.5 6.1 43 4.1 45.8-2.3 0-3.1.7-4.6-1.2-5.3-13.7-5-27.9-5.8-42.2a158 158 0 0 0-6.1-38.8c-2-6.3-2-6.4 1.5-8 .6-.4 2-.6 2.5-.5zm-8.2 4.5c2.1 4.5 6.5 25.3 7 43.2.5 14.2 4.2 42 4.9 42.2-2.3.2-5-.2-6-1.8-6.7-27.4-4.6-54-12.3-81.6.4-1.3 2.9-3.5 6.4-2zM125 755.3l18.1 12 .4 10.3-18.5-12.2zm269-1.3c-10.2 3.6-12.8 6.7-11.2 9.3 1.3 2.3 5.4 1.5 16.3-2.7 8.1-3.2 10.7-1.8 12.3 3 0 7-7.4 7.8-11.5 6.8-1.8 0-1.6.1.3 2.3 8.5 6.1 18.8-5.9 13.6-13.5-4-7-11-8.9-19.8-5.2zm-64.1 2.8c-8.4 6.2-5.4 17.2 1.6 18.9 2 .9 4.8.5 6-.2 1-.7 1-1.7-1.1-2-6.5-1-10.2-5.5-7-10 3-4.4 8.6-3.5 19.5.8 9.4 3.8 13.5 2.6 14.7-1.9.4-2-.2-3.9-4.7-4-12.5-.4-20.8-7.5-29-1.6zm112.8 17c-.5-3.2-6.1 0-9.8 5.7-3.6 5.5-4 6.3-4.8.6-1-8.6 8.6-15.4 14.5-15.6 7.3-.7 12 3 12.2 7.3.4 8.5-10.6 8.6-12 2zm-318-5.1 19 12.2s.7 6.5.3 10l-19-11.3Zm230 4c-8.3 5.3-3.4 14.9 2.5 16 6.1 1.1 6.5-2.9.4-4-3.2-1.2-4-4.1-2.8-6.3 3-4.5 8.3-1.6 11.4-.2 7 3 10.6 4.2 12.8 2 3.9-3.7.4-10.5-4.7-8-1.4.6-2.5 1.2-5.4.5-4.5-.9-10-1.8-14.1 0zm-230 10.5 19 12-.6 10.6-17.7-12zm.5 14.6 17.7 11.7c-.3 4.5-.1 6.2 0 9.1L125 807.9zm313.6 2.2c14.2 1.3 9.5 16.5-.5 12.4-2.6-1.9-3.4-1.7-6.3 5-3.8 8.4-4.7 7.7-4.2-2 .4-9.7 5.1-15.3 11-15.4zm-112 2.3c.3 0 .5 0 .7.2 1 1-2 5-4.4 7.3-1.8 1-6.1-1.9-5-3.3 1.2-1.4 6.3-4 8.6-4.2zm18.9 7.8-2.5.4c-3.9-8-11.9-6.1-14.3 1.2l-3.5-.3c3.5-9 16.1-14.6 20.3-1.3zm71.6 1.8-4.3.3c-3.9-8.6-9.3-10-14-1.4l-3.3-.9c5.7-10.9 15.3-11.7 21.6 2zm-21.5-9.8c2.2-.1 2 .8-.4 3.7-2 2.6-2.5 3-4.5 1.6-3.2-2.3 2.2-5.1 4.9-5.3zm20.4.3c.4 0 .9 0 1.4.2 4.5 1 6.5 3 4.3 5.4-1.3 1.6-2.6 2.2-3.5 1.2-3-4.6-4.7-7-2.2-6.8zm-67 2.7c.5 1.7-1 2.9-2.6 1.5a3.5 3.5 0 0 1-1.2-2.3c1-.9 3.5-.2 3.8.8zM125 810.9l18.2 12.2c.6 4.3.7 7.5.7 10.5L125.3 822zm265.8 3.7c10.5 6.7 22.8 6.6 30.5.7 1.7-1.3 3.2-1.3 3.2 0-1 4.6-14.5 10.6-25 7.2-5.7-1.8-10.4-3.7-14.2-8.7-2.2-3.2 2.4-1.1 5.5.8zm-4.5 3.3c15.4 12.3 27.6 8.9 36.8 2.7 1.4-.4 1.4.8 1.7 2.9.4 2.7-2 4-8.7 6-12.8 3.5-28-.4-30.6-8.4-.4-1.6-1-3.6.8-3.2zM125 825.2l18.5 11.8-.6 9-18-11.3zm.3 13.8 17.5 11v7.4l-17-11.2zm126.8 3.5c74.4 15.6 127.2 8.2 179-.2l45.8 83.4-276.4.4c18-27.1 33-56.8 51.6-83.6z" style="fill:#131f67;fill-opacity:1;stroke-width:3.18132639" transform="matrix(.31544 .0011 -.0011 .31518 .2 720.3)"/><path d="m259 120.4 13.8 23.9v1.1l7.6 13.8 1.2.7 1.7 3 .2 1.5 4.3 6.3v1.3l18 31.2c14.8-5.2 137-14.5 182.3.7l6.6-10.4h1.5l11.7-18.9-.2-1.6 3.9-4.1.5-1.9 12.9-18.6v-3l16-24.8zm276.7 3.6s-8.4 14.9-12.7 21a8.8 8.8 0 0 0-13 9c-16.5-5.8-20.4 12.4-7.7 16.5-6.5 5.3-12.8-.7-17.7-4.7-4.9 1.1-15 4.4-20.7-5.3l4.8 2.5c13.5 3.8 14.6-13.1 4.5-15.9-1.2-.3-3.6-.4-3.6-.4 3.4-13-18.3-17.5-18.7-2 0 0-2.6-.3-4.5 0-11.5 2-8.9 17.7 2.9 16.9 1.6-.1 3 .2 3 .2-.2 2.5-14.4 7.3-24.6-1.4-4.8 3.5-12.5 7.8-22.5-.8 6.6-.2 12.9-2 12.8-8.9 0-4.5-4.4-8.5-10.7-8.7-.4-5-4.4-9.9-9.6-10.2-6.5.3-9.7 5.1-9.8 10.2-5.4.5-10.5 5-9.3 10 1.6 7 7.3 7.9 14 6.6-8 12-21.2 5.7-25.2 1.9-4.8 4.1-13.2 9.8-23.5 2 5.5-.8 11.6-3.8 10.6-11-.8-5.5-7.6-7.2-10.6-6.9 0-3.7-3-9.8-10.1-9.2-7.8.7-7.3 9.8-7.2 9.9-6.4-.5-11.1 6.5-9.3 11 2.3 5.4 7 7.1 15.5 5.6-10 8.7-16.4 5.4-21.8 3.5-4.9 4.7-11.3 6.2-18 2 14.9.7 12.5-23.5-5-14.7-1.5-4.6-3.8-10.2-13-8.9l-10.5-18.7zm-137.9 23.9c.8 0 1.5 0 2.3.4 2.3 1.1 2.7 3 1.3 5.8-.5 1-1.2 2.2-1 3.2 16.2 27.9 52.1 15.4 55.5 2.5.2-.8-.2-1.7-.7-2.6-1.4-2.2-1.2-3.9.6-5.4 3.8-3 9.3.6 7.1 4.8-.6 1.1-1.2 2.3-.7 3.8 9.2 19.4 27.5 20.9 43 13.2-7.2 11.8-34.7 19-46.2-9.4-18.5 23.2-47.7 22.7-61-3.4-12 26.7-48 27.3-61 5.2-12 25.3-39.7 19.6-47.5 3.7 25.7 17.3 42.6-.8 45.7-8.5 0 0-.6-.9-1.4-1.6-3.3-3-3.2-6.5.2-8 4.3-1.7 8.4 2.2 6.2 6-.7 1-1.2 1.3-.8 2.2 8 17.3 47.4 22.4 55.4-2a5 5 0 0 0-.6-3.6c-1.8-3 .5-6.2 3.6-6.3zm-115 9.8c6.2.3 4.5 5.3 3.2 5.6zm230.8 3c0 .2-3.8 6.5-3.8 6.5-2-3-1.5-6.8 3.8-6.4zm-21 32s-4 8.2-5.3 8.9c-73.6-17.5-176.3-2.3-178.9-.6l-4.5-7.9c64.6-12 129-9.4 188.7-.3zM368.2 314c-7 25.4-24.3 28-45 31.1-25.8 3.8-42.6-4.9-50.5-18.2 0 0-36.8 13-50.2 20.4 28 12 64.8 38.2 85.8 68.1 7.5 9.1 7.1 7 7.1 27v59.4c11.6 1.7 12.2 9 11.6 17.3 9.3-3.8 18.2.8 18.1 9 0 14.8-15.8 10.8-19 9.1 5 13.2-1 18.6-7.1 19.2-7.6.8-16.3-2.5-13.7-17.6-8.3 3-18.8-2.4-20.2-11.5l-.4-15.3c20.4-35.6-5.2-64.6-29.3-74.2 0 0 6.8-13 15.6-16.7.9-.3-5.3-8.8-15.8-7-4.9.2-3.7.1-8.3-5.3-9-10.8-13.2-11.6-22 0-3.8 5-4.7 5.2-9.2 5.3-5 .1-12.8 3.5-14.4 6.4-.4.7 1.6 1.4 4.2 4.3 3.8 4 9.6 9.6 8.6 15.3-19.8 7.5-52.7 40.4-18 82.4l-25.1.3-1.2-149.7-17.4 9 .8 117.3-5-1.6c.4-37.4-.2-74.8-1.5-112.1l-45.8 31 2 175.8 4.9 1c3.6 24 54.8 7.2 57.7 9.3l.7 97.7-2.3 4.8 40.7 20.7 37.3-18s5-.8 7-1.8c15.4-7.5 27-5.8 35.4 5.3l6 7.8c3.2-19.7 22-27 40.4-21.8 13.5 3.8 31.9 16.2 37.5 31.4 0 0 1 2.3 2 3.3l.8.4c0-.4-.9-2.3-1.2-3.3-18.9-40.2-72.1-46.4-80.3-13.5l-7.6-9.8 39.7-22.6 54.1 33.1s-2.5 11.6-2.8 16.7l1 .4.8-4.6c.9-5.5 2.4-10 4.6-13.6 1.2-2.1 2.7-3.9 4.4-5.2 3.2-1.7 6.2-1.5 9.5-4.4l-7.9-5.5-.2-17.6 16 20.7c5-1 24.4-6.5 36-.5 1.2.4 18.2-4.1 28.7 17.8l50.8-19.6s3.2-1.7 3.2-2.1c-50.6-17.3-101.7-78.7-96.8-79.7 0 0-.1-6.3.3-21.7.4-17.3.2-34.8.5-52.1-17.3-5.1-13-18-13-18-10.3 2-12 .2-14.6-1.5l-1.8-16.3c6.2-4.9 10-5.3 17.6-3.8 0 0-3.7-7-.3-12.9a13 13 0 0 1 16.5-4.3c7.8 5 5.3 15.4 4.2 16.8 8.2-3.4 18.1.4 20.6 7.9a387 387 0 0 1 8-66.1 359.2 359.2 0 0 1 41.3-100c3-4.7 6.8-9.5 9.8-14 2.9-4 4.2-6.6 4.2-6.6s-3.9 2-8 3a51 51 0 0 0-11 3.6 63.3 63.3 0 0 1-14.5 7.7c-16.3 5.9-27.2-2.9-34-16.3-3.7 17-20.5 31.4-45.2 22.5-14-7-18.4-11.3-31.4-29.3-1.1-1.8-4-4-4-4zm.6 2.7c9.2 17 23 29 36.5 33.8 24 7.4 39.9-7 44.4-20l4.6 7.2-36.4 24-54.9-32.4a85 85 0 0 0 5.8-12.6zm165.2 1.2-16.3 9s-10.8 16.1-14.5 22.2a328.7 328.7 0 0 0-49.1 184.5l1.3 1.3-3.5 6a34.5 34.5 0 0 0-4.6 20.3 53.4 53.4 0 0 0 34.4 47.7s-3.1 7.9-8.9 13.5c-3.8 3.7-4.6 3.8-3.3 5.7 2 2.5 8 4.7 15.5 4.6 2.7 0 2.7 0 7.6 5 9.6 9.7 12.5 9.5 21.2-1.5 2.6-3.3 4-4 7.9-4.2 5.6-.1 15.8-4.3 15.7-6.2-6.9-2.9-14.8-17.4-13.6-17.6 37.6-18.5 45.6-56.7 18.2-84.9l26.2-.4 1 152.7 16.7-10-.4-118.8c1.8.4 3.7 1.6 7.2 2l1 112.4s3.4-1.3 6.4-3a1033 1033 0 0 0 43.3-29.7l-1-173.2h-3.8l.6 173-44.5 30.3-.3-107.6 4.8-.6a16.6 16.6 0 0 0 10.5-27.2c-3.1-3.6-1-3.4 5.6-4.5 11.6-1 18-9 14.6-14.9-1.4-2.5.4-2.2 1.7-4.6.8-1.8.6-4.1.3-6-.5-2.3.6-3.4 1.2-5 1-2.3 0-5-1.6-7.2-1.8-2.4-1.3-5-1.4-6.5 0-3.5-1.4-4-5.4-7.4-3-2.6-.6-3.2 3.8-5.3 7-3.4 7.5-15.2-1.8-20.3-5-2.7-14-2.5-33.8.4-7.4 1.1-16.2 1.8-16.2 1.8s0-67.7-.6-102.5zm0 2.4s40 21.7 39.6 22.3c-13.4 17-63.5 85.1-63.8 167.3-36.8-4.2-51.8 22.4-53.6 22.3A318.4 318.4 0 0 1 518 329zm-25.2 13.2-.2 2.5-7.9 11-.2-11zm-12.3 3.9.3 17.7-16.2 11.5-1-18.5zm-150.4 4 8.3 5.4-.3 17.5-12.6-21.2zm228.3 6V360c-32 42-48.7 89.8-53.9 150.4l-7.7-.2a274 274 0 0 1 61.6-162.9zm-216.8 1.2 19.8 12-.9 20-17.9-10.6-1.7-4.1zm119.6.9L477 368l-15.3 10.5-.7-18.5zm-184.9 4.9c2.3 0 4.1 1.5 4.5 4.4 1.7 12.4 11.8 8.8 14.3 12.5.9 1.3-1.3 2.4-8.2 1.9-12.8-.9-22-10.4-15.5-16.7a7.8 7.8 0 0 1 5-2.1zm88 8 16.9 10v20.5l-16.6-9.4zm77 0 1.3 18.2-18.5 11.4-.6-18zm35.1 0-10.6 21-61.8 41.3-51.3-30.8-9.6-20.2 60 36.2zm-166.7 8.4c16.4-.2 29 16 33.3 30.2a72.4 72.4 0 0 1 4 27.6c.3 15.2.8 17.8 3.9 20 1.9 1.3 2.4.9 2.7-1.8.5-6 8.2-2.3 8.3 4 .1 7-8.1 9.2-14.2 3.9-3.3-2.9-3.3-2.9-4.4 2.7-.6 3.8-5.4 27.3 6.7 33.1 2.3.2 2.8-1.4 1.1-3.4-3.4-4 3.4-8.5 8.9-6 6.6 3 6 13-1.1 16.5-8.2 4-18.7-.5-23.6-10.3-3.6-7.1-3.6-17 0-31.8a89.5 89.5 0 0 0 2.9-16.3c.1-1.7.3-3.6.5-4.1.4-1.6-.5-1.7-3.4-.3-8 3.7-16.6 1-18.8-5.8-2.5-8 7.3-16.5 13.3-11.3 2.3 2 2 3.8-.7 5.1-4.8 2.2-3.2 7.9 1.9 6.7 16.6-4.6 1.4-47.8-17.3-50.8-12.4-2-22 11-13.1 18 3.5 2.8 7 1.3 6.3-2.5-1.1-5.4 6.6-4.9 9.5.7 4.6 9-7.4 16.3-18.6 11.3-20.1-11-6.4-35 11.9-35.4zm74.4 3.4 16.6 10.4.2 20-16.5-9zm36.6 1.8v18.4l-16 10.8v-19.6zm43 12-8.1 21.2-51.7 32.8-42.5-24.8-7.4-19.6 50.2 30.2zm-335 1.6v107c-16.7.7-26.3 16-13.8 30.6l-4.7.6c-11.3 1.4-18.9 7-17.4 13.7.5 2 0 4.2-.6 5.2a8 8 0 0 0 .6 7.3c1 1.9.9 2.6.3 4-1.3 3-1 5.3.5 7.6 1.9 1.7 1.3 3 1 5.8-.2 3.8.5 5.3 3.1 6.8 3.4 2 4.6 5 .8 4.8-1.9-.1-8.5 5.9-8.5 5.9l-.7-171.9zm90.7 13.7c3 0 6.1 3.5 10.5 9.4 2.7 4.2 2.8 3.6 8.9 3.4 6.2.4 10 2 11.7 3.7.6.7-1 .9-5 4.6-4.1 3.8-4.7 5.4-7.4 9.7-1 1.6-3.1 1.7-4.1.3-.8-1.2 1.2-5 5.1-9.3 5.5-5 4.4-5.4-3.6-4.7-5.6.6-6.2.3-8.3-2.8-6.4-11.7-9.7-11.3-15.8.3-1.7 3.3-1 3-8.2 2.6-5.7-.4-7 .9-3.9 3.7 5 3.8 7 12.7 6.7 12.6l-3.9.3-1.7-3.3c-1-2.5-3.8-6.4-6.8-9.4-4.4-4.4-2-6.7 7.6-7.7 5.4-.5 5.5-.6 8-4 4.3-5.9 7.2-9.4 10.2-9.4zM469.6 414l-5.6 18-44 28.7-35.8-22.2-4.8-17.2 41.2 24.2zm-151.8 14.4s12.7 23 17.3 38c4 13 9.6 50.5 8.1 52.8-3-4-13.4-3-13.6-3 .9-4.4-3-13.3-11.7-15zm144.8 8.5-4.4 18-37.5 25.1-31-19.6-4-17.4 34.3 21.2zm-218 1 5 1.5.8 32.5 37.5 5.8.9 5.6-43.4-6.5c-.5-13.9-.7-39-.7-39zm-19 1 1 37.7c-.3-.1-31.2 4-43 6.8l.7-5.1s21.4-4.4 37-6l-.1-32.5zm349 6.9s5 .4 16-1.4c28.2-4.5 35.8-2.7 39.4 5.4 4 12.5-10.8 12.8-13.5 4.8-1.6-5.1-7.7-4-27.9.5-17.2 3.8-28.2.7-28-8.4.2-9.3 11.7-10.1 14-1zM343.2 439c3.5 0 6.4 2.5 6.4 5.7 0 3.3-2.7 6-6.2 6s-6.3-2.6-6.4-5.8c0-3.2 2.7-5.9 6.2-6zm-91.4 1 4.4 1.2.8 24.7c9.6 2 29.6 5.5 29.6 5.5l1.1 4.8c-8.4-1.8-35.2-5.9-35.2-5.9-.8-10.7-.7-30.3-.7-30.3zm-32.5.4s0 19.7-.3 30.3c.1-.1-22.8 3.4-34.4 5.6l1-4 29.2-5.8c-.2-7.7-.2-24.7-.2-24.7zm16.4 4.3c2.8 0 5 2 5.1 4.6 0 2.6-2.2 4.7-5 4.8-2.8 0-5-2-5.1-4.6a5 5 0 0 1 5-4.8zm380.9 12.2c3 4.3 5.7 4.2 8.8 3.8-.8.2-4.4 2.2-4.2 2.8 0 .4-1.6 5.8 1 6 9.3.8 4.5 9.8 5.7 11.2 2.5 2.7 4.3 4.4 2.6 7.7-1.5 3-3.8 2.9-2 5.4 3.7 5.2-1.5 6.3-1 9.8.3 2.2 1.1 5 .3 6.7-2.6 5-11.6 7.9-21.7 8.3-1.4 0-.3-2.1-1-3.5-2.5-1.4-1.1-3.9-.3-5.5.9-2.1.9-2.1-.7-3.2-4.3-2.5-4-3.6-3.7-5.4 1-5.3 0-5.8-1.7-6.6-2.1-1-1.8-3.2-.9-6 .7-2 .2-2.5-.8-4.3-.6-1-.8-1.7-.8-2.3.3-2.8-2.3-2.8-6 0-3.1 5-4.2 11.5-6.2 15.6-1.5 3.2-1.7 6.5 0 13.9 3.5 11.2 1 13-12.6 10.6C561 519.5 558 509.4 561 497c.4-2 .3-4 .1-5.5a24.5 24.5 0 0 1 7.7-22.4c10.7-9.3 16-10.7 38.1-9.4 8.7.5 9.4 1 9.4 1s0-3.8.3-3.9zM457 459.4l-2.6 17.4-20.8 13.6c-9.8-7.2-17.3-4.8-24.2 3-5.5-2.6-16.4-9.6-16.4-9.6l-2.8-19.8 30.3 19.5zm-221 4.1c2.8 0 5 2 5.1 4.7 0 2.6-2.2 4.7-5 4.7-2.7 0-5-2-5.1-4.6 0-2.6 2.2-4.7 5-4.8zm217.5 17.8-1.1 16.8-7.4 5.1-7.5-.7-1.7-10.3zm-217.6.2c2.8 0 5 2 5.1 4.6 0 2.6-2.2 4.7-5 4.8-2.8 0-5-2-5.1-4.6a5 5 0 0 1 5-4.8zm20.4.5c2.8 0 5 2 5 4.6.1 2.6-2 4.8-4.9 4.8-2.8 0-5-2-5.1-4.6a5 5 0 0 1 5-4.8zm-40.6.9c2.8 0 5.1 2 5.2 4.6 0 2.6-2.2 4.8-5 4.8s-5.1-2-5.2-4.6a5 5 0 0 1 5-4.8zm376.5.8c1.5-.1 3.6 1.8 2.6 4.8-1.4 3.3-.5 4.5 1.8 7.2 2 2.3 1.6 2.6 1.3 4-.4 9.7 6.3 5.6 3.4 12.6-.6 1.5.2 3.7.5 5.5-.7-1.7-13-1.5-14 .2-1.8-.3-4-11-2.3-12.4.3 0 1.6 1.8 2.2 2.8 1.7 2.7 2 2.6 1.5-.5-2-12-.8-24.2 3-24.2zm-315.5.8c2.8 0 5.1 2 5.1 4.6 0 2.6-2.2 4.7-5 4.8-2.7 0-5-2-5-4.6-.1-2.6 2.1-4.8 5-4.8zm-82 .9c2.8 0 5 2 5.1 4.6 0 2.6-2.2 4.7-5 4.8a5 5 0 0 1-5.1-4.7c0-2.6 2.2-4.7 5-4.7zm198.5 1.3 15.2 9.2c.3 2.8-.1 7 .9 8.4-10-.9-15 4.3-15 4.3zm-155.7 7.6a170 170 0 0 1 47.7 7l-1.2 5a204.6 204.6 0 0 0-95.2.3l-2.5-5.2a180.5 180.5 0 0 1 51.2-7.1zm-93.8 6.7c4.3 0 8.8 1.5 11.9 4.7 5.9 6.1 3 17.5-5.3 21-12.4 5.5-25.4-6-20.1-18 2.2-4.9 7.9-7.6 13.5-7.7zm308 1.5-.1 5-3.8-3zm-79.2.2c5.5 0 10 4 10.1 9 0 5.2-4.3 9.4-9.8 9.5-5.5 0-10-4-10-9.1-.1-5.1 4.2-9.3 9.7-9.4zM144 503a8 8 0 0 0-4.5 1.4c-2.7 2.2 0 2.3 3.5 3 6.2 1 7.9 6 7.3 11.3-.5 4.9 1.3 4.8 2.7 3 5.8-7.4.8-18.1-9-18.7zm288.4 2.4-.3.2c.1 0 .2 0 .3-.2zm-196.4 3c7.5-.2 8.2 11.1 1.7 23.8-2 3.8-3 3.4-5.2-2.4-5.3-14.2-4.2-21.3 3.5-21.5zm17.2.3a5 5 0 0 1 4 1.6c4 4.2 1 11-9.7 21.6-2.6 2.6-4 3.6-5 3.6-2.6 0-2.6-.4.5-9.5 1.3-4 2.6-8.5 2.9-9.9.9-4.4 4.2-7.3 7.3-7.4zm-26.9 10.1c.7 3.2 2 7.5 2.8 9.7a15 15 0 0 1 1.3 4.7c-.7 1.7-5.4-.6-8.8-4.3-6.9-7.3-9.6-13.7-8.2-17.2 2.1-2.7 7.4-4 9.8-1.5 2.6 2.5 3 7.8 3.1 8.6zm47-7.3c7.3 4-1 13-17.2 20.4-6.9 3.2-6.4 1.7-1.1-4.6 2-2.4 4.6-6.3 6-8.7 2.9-5.3 5.7-10.6 12.4-7.1zm-71.8 0c2.3 0 4.7 2.3 9 8 2 2.7 5 6.4 7 8.3 1.9 2 3.4 3.8 3.3 4.2-.7 4.1-23.2-8.8-24.8-14.2-.6-3.4 2.3-6.3 5.5-6.3zm321.3 11.9c4 7.7 4.3 12.5 1 14.2-4.8 2.5-10.9-1.3-11-6.8 0-1.8-2-8.3-4-12.4-1.5-3.5-1.7-5.6-.4-5.8 5 .7 12.3 7.1 14.4 10.8zm-27-5.9a62.7 62.7 0 0 0-3.1 13.3c0 .8-.5 2.4-1.1 3.6-4.2 7.9-13.9 1.5-10.3-6.7 3.2-7.4 11.4-15.1 14.7-15.4 2.2-.2.1 4.6-.1 5.2zm6.6-4.2c1.7-.2 3 3.1 5.1 8.6 2.8 7.5 2.7 13.4-.3 15.8-6.6 5.4-13.4-2.4-10.8-12 2.1-7.8 4.2-12.3 6-12.4zm-219.3 1.3c8 111.2-53.3 196.8-57.7 199l-20.9 10.7-36.6-18.5a278.2 278.2 0 0 0 62.4-168.1 58 58 0 0 0 52.8-23zm201.3.4c2.6-.7.8 1.4-1.7 4.8-2.8 3.6-6.3 13.5-9 15.1-6.3 2.8-13.4-2.5-9.6-7.2a51 51 0 0 1 20.3-12.7zm37.3.7c1 0 2.8.6 5.5 1.8 13 6 19.5 13.8 13.9 17.5-4 2.6-8.1.6-12-6.3a62.2 62.2 0 0 0-5.4-7.8c-3-3.4-3.6-5.2-2-5.2zm73.4 4c8.3-.1 15.2 6 15.4 13.9 0 7.8-6.6 14.2-15 14.3-8.4 0-15.3-6.1-15.4-14-.1-7.7 6.6-14 15-14.2zm-4.7 3.7c-9.8 4-6.9 18.4 1.7 20.5 3.5.9 8-.5 6.1-2-11.2-3.4-11.3-11-6.8-16.7.8-.9-.2-2.1-1-1.8zm-411 19.7c-.3 8.2 1.6 17.6-2.6 26.4-6.4 13.6-26.7 19.8-37.6 18.6-2.3-1-4.9-1.7-7.1-.9a6 6 0 0 1-4.5-.1c-1.4-.6-2.7.2-4-.3-1.6-1-4.2-3.2-4-4.9.6-2.3.4-4-2.6-4.9-4.1-1-5-3-3.7-9.1.2-1.3.6-2-.4-2.5-3-1.9-4.1-5.4-2.1-9 1.3-2.2 2.3-3.6 0-5.3-1-2-.8-2.7 1.1-5.2 2.2-2.3 2.5-2.6 1.2-4.6-3-4.5.4-7.8 4.5-9.7a69 69 0 0 1 16-3.8c2.2.1 2.2 1.9 3.5 3.6 1.9 2.8-.8 6.7.7 8.2 2.3 1 3.3 2.8 3.1 4.5 0 3.8.2 5.1 1.3 6.7 1.2 1.8 1.7 5 .6 7.3-1 2-1 1.8.4 3 1.3 1.1 2 7 1.5 6.8l5.7-.5c-.6.6 2-10.8 8.5-19.6-.3-6.9-3.2-13.2-3-22.3 14-4.6 24 6.4 23.6 17.6zM396 527.7c2 1.4 12 4 12.3 3.7-.3 4.4 2.6 13 13 16 .2 12.3 0 69.5 0 69.5-14.4-22.6-23.4-51.7-25.3-89.2zm-242.7 2s.6 1.6 1.1 4.8c.9 6.5 0 7.4-2 3-2.1-5.3-2.2-1.2.2 10.7.6 2.9.6 3.6-.2 5.5l-2 6.3c-2 6.5-3 8.4-5 3.2-1.1-2.7-2-3-1.2-5.2.9-2.6.7-4.5-1.2-7-.3-.4-1-1.4-1-4 .5-6.1-2.4-6.2-3-7.7.1-2.4-1-8.1.7-8 1.5.2 6.7.3 9.1-.6l4.5-1zm216.3.7c5.4 0 9.8 4 9.9 9 0 5-4.3 9-9.7 9.1-5.3 0-9.8-3.9-9.9-8.9 0-5 4.3-9.1 9.7-9.2zM219 536l7.4 1.3c1.6.5.4 95.1-58.8 163.4l-.5-15.8c28.2-37.8 48.4-84.2 51.9-148.9zm125.3 2 1.4 22.6c-4.2-3.3-14.8-9.4-14.7-9.5v-8.4s9.1.6 13.3-4.7zm-57 .3c1.8.7 3.4 2.3 4.9 3.5l-4.8 3zm169.4 1.2c31.9 8.8 63.3 8.5 94.4 2l2.1 5.6a187 187 0 0 1-100.5-1.9zM302 543.6l1.7 9.7-18 10.9.9-14.8 9.4-5.7zm159.5 8.1c2.9 0 5.3 2.1 5.3 4.8 0 2.7-2.3 5-5.2 5-3 0-5.3-2.1-5.3-4.8a5 5 0 0 1 5.2-5zm82 .4c2.9 0 5.3 2.1 5.3 4.8 0 2.7-2.3 5-5.2 5-3 0-5.3-2.1-5.3-4.8a5 5 0 0 1 5.2-5zM390 567.3a87.2 87.2 0 0 1-1.2 37c-1 3.6-1.5 16.2-1.5 16.2-.5.7 18-14.3 24 5.3 2.1 6.8-6.2 13.2-11.8 11.3-1.1-.4-.8-3.7.2-5.7 3.2-5.8-5.7-8.9-10.8-3.7-11.6 12 .4 42.5 18.7 45.4 15.2 2.5 27.3-11.5 17.2-19.9-4.4-3.7-11.5 1.4-8.3 6 3.5 5-2.9 7-7.7 2.4-8.4-8 1-20.1 13.7-17.3 20.4 4.2 16.2 33.7-5.1 35.4-16.3 1.3-27.3-5.3-34.2-17-6.5-11.2-7-20.2-4-39.9 1.8-11.7.3-21.5-3.2-21.5-2 0-3.4 1-3.7 3-.6 4.3-1.2 5.1-4 3.6-3.7-2-5.8-8.4.2-12.7 6.2-4.4 14.2 2.5 13.8 3.7.2-.2.8-1.4 1.6-6.4 2.7-16.3-3.3-33.5-10.6-30.8-1.6.6-1.5 1.3.7 2.4 4.9 2.6.5 9.2-5.6 8.5-8.8-1-10.8-12.3-3-17.3 12-6 22 3.5 24.6 12zm-59.7-13.6s15.5 8.8 16.3 11a141 141 0 0 1 1.2 14.1l-27-15.6-38.5 22.1c.6-4.9 3.4-17.4 3.4-17.4l20.5-12c.1.7 14.2 9.3 24.1-2.2zm192.7.9c2.9 0 5.3 2.1 5.3 4.8 0 2.7-2.3 5-5.2 5-2.9 0-5.3-2.2-5.3-4.9s2.3-4.9 5.2-5zm-41.1 0c3 0 5.3 2.2 5.4 4.9 0 2.7-2.3 4.9-5.3 5a5.2 5.2 0 0 1-5.3-4.9c0-2.7 2.3-5 5.2-5zm20.6 1.2c3 0 5.4 2 5.4 4.8 0 2.7-2.3 4.9-5.2 5-3 0-5.3-2.2-5.3-4.9s2.2-5 5.1-5zm-51.7 6.9c14 2.7 28 5.5 41.4 6.8l.6 38.2-4-.2-.5-34.1c-13-.9-25.2-3.5-36.6-6.2zm104 1.2-.8 4.5s-24.2 3.9-36.8 5.4c-.2 7.7-.2 33.4-.2 33.4l-4.8.8v-39c14.3-1.4 28.6-3 42.5-5.2zm-234 2.2 28.5 17.4 3.3 18.5-33.1-20.4-41.4 25.7 3.5-17.4zm131.4 3.4c11.5 2.3 23 4.6 34.4 5.5l.4 30.7-5.2-1.3-.4-24.9a242 242 0 0 1-27.4-4.1zm101.3 1-1 4.1s-18.3 2.6-27.7 4.2c-.9.1-.5 27-.5 27l-4.6.6-.5-31.3zm-51.3 3.4c2.9 0 5.3 2.1 5.3 4.8 0 2.7-2.3 5-5.2 5-2.9 0-5.3-2.1-5.3-4.8 0-2.7 2.3-5 5.2-5zm-181.8 11L354 606s4 11 4.8 17L320 600l-48.5 29.8 5.6-18.4zm-204 .7c2 0 4 1.3 5.1 4.1 1.5 4 4.2 5.2 11.4 5 14-.6 28.8-6.8 42-2.2 6.5 2.3 8.8 11.1 3.4 13.4-5.8 2.5-8.3 1-10.4-3.4-1.9-1.8-4.2-1.5-16.8.5-5.6.9-12.1 1.6-17.6 2-14 1-21.8-3-23.6-10.8-1.1-5 3.3-8.6 6.6-8.6zm385.5 7.1c3 0 5.3 2.1 5.3 4.8a5 5 0 0 1-5.2 5c-2.9 0-5.3-2.1-5.3-4.8 0-2.7 2.3-5 5.2-5zm-103 6c3.7 0 6.8 2.8 6.9 6.3 0 3.5-3 6.4-6.8 6.4s-6.9-2.7-7-6.3c0-3.5 3-6.4 6.8-6.4zm-78.5 4.4 40.6 25.1 7 19-47.1-28.5-57.7 34.8 7-19.4zm200 6c2.4 6.2 7 11 11.8 15.9 0 0-2.7 4.7-12.2 4.4-5.3-.1-5.5.6-7.3 4-3 4-5.3 6.8-7.2 8.2-3.4 2.4-9.7-1.2-14.9-8.5-1.8-2.6-2.6-3.3-8.3-3.2-8.8.2-12-2-7.4-5.7 4-4.5 6.8-9.4 10.4-14l3.9.3c.2.6-3 9.6-7.6 13.3-2.3 2.4 1 3.3 6.5 2.2 3.6-1 4.5-.6 7.2 4.4 5.5 9.7 8.3 9.2 14.8-.6 2.3-4.4 2.2-4.8 8.5-3.5 6.7.6 8.8-.2 6-2.4a35.1 35.1 0 0 1-8.7-14.7zM320.6 622s50 30.4 50 29.8l10 21.9-58.8-36.3-71.8 43.4 10.7-21.8zm2 20 17.4 10.6v19.2l-17.9-11.1zm-4.6.5.4 19-15.7 8.6-.9-17.8zm-19.8 12.2-.2.7.4.2h.1l.6 17.1-18 11.6V665zm46.1.2 16.4 10.2.7 20.3-17.8-10.8zm20.3 12.4L381 678l.6 20.3-16.8-10.5zm-87.2 0v18.8L261 696.7l-.8-19.1zm173.3 24.3c-3.3 3.1-4.5 2.7-7.3-2.5a13.8 13.8 0 0 0-13.5-7.8c-7.9.1-2.7-4.7 5.7-5.2 14.5-.6 21.9 8.4 15 15.5zm-194.2-11 .5 18.8-16.3 7.8-.5-8.9 8.4-13.6zm-21 25 .6 3.5-3 1zm196.1 135.5a507.7 507.7 0 0 1-181.5.7L228.7 876h-1.5l-5.6 8.8.6 1s-18 32-25.4 42c88.1-.8 281.6-1.2 281.6-1.2l-11.8-22 .6-.6-11.6-23-3.8-4s-2.3-4.1-4-8.6c-1.6-4-8.5-15.3-8.5-15.3h-1zm-179 4.8c1 .7 87.8 15.9 178 .3l4.9 7.6c-78.9 16.9-193 .8-188.5-.8zm1.5 15c8-.2 16 3.8 21.4 10.4a57 57 0 0 1 4.6 8.3s3.8-5.9 7.5-8.8c5.7-4.4 13-8.1 23.6-7.8 9.7.4 20.5 5.3 30.2 19.4 2.4-8.1 34.5-36 60.9-1.3 3-9.2 17.1-27.6 40-14.7l3.1 6.5c-13.5-8.8-35.7-2.9-41 10.8-.4 1.7.2 2.5.9 4.2 7 9.2-11.2 9-5.8 1.5 1-1.7 1-3.1-.5-5.3a38.7 38.7 0 0 0-26.4-13c-10.9.1-22.9 6.8-26.9 12.9-1.4 2.2-1.8 4.4-.5 6.4 1 2 .6 3.6-1 4.8-3.7 2.8-8.4-.4-6.6-4.6 1.2-1.9 1-4.1-1.4-7.3a36.3 36.3 0 0 0-26-12.8c-14.1.3-28.4 9.7-27.5 17.5.4 3.4-.6 4.7-3.6 4.3-3.6-.5-4-3.7-1.4-6.3.3-.8 1-2.8-.2-4.3-15-18.7-37.2-13.3-42.3-9a23 23 0 0 1 18.9-11.7zm-13.3 13c5.6 0 11.6 4 13.6 7 1.3-1.3 14-6.9 20.1 1.1-16-1-16.3 14.8-4.4 16.3-5.4 15.3 18.9 16.2 17.4 1.8 18.1 2.5 15.9-18.8-1.2-16.6 9-6 15-4 25.8 2.9 3.6-4.4 18.4-8.5 22-.9-17-1-14 17.2-1.4 17.4-3.8 12.6 21.1 17.2 17.3-1.6 15.7 1 13.5-18.7-1.7-17 1.2-3.7 16.5-5.2 23.3 1.6 6.2-5.2 13-8.9 25.5-1.3-17-2.6-17.1 17.8-1.4 16.5-1.5 13.6 20.8 13.8 17-1.8 17-4.3 7.7-21-4.8-16.5 5.6-6 15-3.2 18.7-2 11.5-12.2 21.6-2 21.6-2-20.1-1.9-15.7 24.6 3.8 15 0 5.5 2.5 10.2 10.5 11L472 923l-268.8 1.6 14.8-24.2c1.5.5 10 1.2 12-8.1 17.6 5.2 18.8-14 5.6-17 1.6-1 3.4-1.4 5.2-1.4zm-10.4 7c1.7 2.6.2 4.3-2.8 4.3 0 0 2-2.6 2.8-4.4zm221 3.3 1.8 3.4c-1.9-.7-2-1.4-1.7-3.4z" style="fill:#000;stroke-width:3.18132639" transform="matrix(.31544 .0011 -.0011 .31518 .2 720.3)"/></g></g></svg>