<svg xmlns="http://www.w3.org/2000/svg" width="234" height="333"><g transform="translate(0 -719.4)"><rect width="233.2" height="332.2" x=".4" y="719.7" rx="8.9" ry="8.9" style="fill:#fff;fill-opacity:1;stroke:gray;stroke-width:.75599998;stroke-linecap:butt;stroke-linejoin:miter;stroke-miterlimit:4;stroke-dasharray:none;stroke-opacity:1"/><g style="stroke-width:3.18132734"><path d="M2406.7 536.5h85.3v295.7h-85.3z" style="fill:#000;fill-opacity:1;stroke:none;stroke-width:3.18132734" transform="matrix(.05649 0 0 .05667 -21.4 767)"/><path d="M2917.9 395.1a250.2 250.2 0 1 1-468.5 138.5 250.2 250.2 0 1 1-129-236.4 250.4 250.4 0 0 1 257.3-429.5 250.2 250.2 0 0 1-.4 430 250.8 250.8 0 0 1 340.6 97.4z" style="fill:#000;fill-opacity:1;stroke:none;stroke-width:3.18132734" transform="matrix(.05649 0 0 .05667 -21.4 767)"/></g><g style="stroke-width:3.18132734"><path d="M2406.7 536.5h85.3v295.7h-85.3z" style="fill:#000;fill-opacity:1;stroke:none;stroke-width:3.18132734" transform="matrix(.01883 0 0 .0189 -29 765)"/><path d="M2917.9 395.1a250.2 250.2 0 1 1-468.5 138.5 250.2 250.2 0 1 1-129-236.4 250.4 250.4 0 0 1 257.3-429.5 250.2 250.2 0 0 1-.4 430 250.8 250.8 0 0 1 340.6 97.4z" style="fill:#000;fill-opacity:1;stroke:none;stroke-width:3.18132734" transform="matrix(.01883 0 0 .0189 -29 765)"/></g><g style="stroke-width:3.18132734"><path d="M2406.7 536.5h85.3v295.7h-85.3z" style="fill:#000;fill-opacity:1;stroke:none;stroke-width:3.18132734" transform="matrix(.01883 0 0 -.0189 171.2 1006.7)"/><path d="M2917.9 395.1a250.2 250.2 0 1 1-468.5 138.5 250.2 250.2 0 1 1-129-236.4 250.4 250.4 0 0 1 257.3-429.5 250.2 250.2 0 0 1-.4 430 250.8 250.8 0 0 1 340.6 97.4z" style="fill:#000;fill-opacity:1;stroke:none;stroke-width:3.18132734" transform="matrix(.01883 0 0 -.0189 171.2 1006.7)"/></g><g style="stroke-width:3.18132734"><path d="M2406.7 536.5h85.3v295.7h-85.3z" style="fill:#000;fill-opacity:1;stroke:none;stroke-width:3.18132734" transform="matrix(.05649 0 0 -.05667 -21.4 1004.8)"/><path d="M2917.9 395.1a250.2 250.2 0 1 1-468.5 138.5 250.2 250.2 0 1 1-129-236.4 250.4 250.4 0 0 1 257.3-429.5 250.2 250.2 0 0 1-.4 430 250.8 250.8 0 0 1 340.6 97.4z" style="fill:#000;fill-opacity:1;stroke:none;stroke-width:3.18132734" transform="matrix(.05649 0 0 -.05667 -21.4 1004.8)"/></g><g style="font-style:normal;font-variant:normal;font-weight:700;font-stretch:normal;font-size:3.77201033px;line-height:0%;font-family:'Levenim MT';-inkscape-font-specification:'Sans Bold';letter-spacing:0;word-spacing:0;fill:#000;fill-opacity:1;stroke:none;stroke-width:1"><path d="m27 735.6-.7 5.6H7.9q.5-4.9 4-8.6l6.2-5.3q3.2-2.8 3.2-5.6 0-1.9-1-3-1.1-1.1-3-1.1-2.1 0-3.2 1.1-.7.8-1 2.4-.4 1.7-.6 2H9.4q-.5 0-.8-.2l-.1-.9q0-4 2.6-6.3 2.5-2.3 6.6-2.3 3.7 0 6.1 2 2.5 2.1 2.5 5.8 0 3.6-2.8 6.6-1 1.1-5.5 4.6-3.4 2.6-4.1 4.7h9v-1.7q.3-1 1.2-1h2q1 0 .9 1.2z" aria-label="2" style="font-size:39.34608078px;line-height:1.25;stroke-width:1" transform="scale(.98105 1.01931)"/></g><g style="font-style:normal;font-variant:normal;font-weight:700;font-stretch:normal;font-size:3.77201033px;line-height:0%;font-family:'Levenim MT';-inkscape-font-specification:'Sans Bold';letter-spacing:0;word-spacing:0;fill:#000;fill-opacity:1;stroke:none;stroke-width:1"><path d="m-211.5-1002.6-.7 5.6h-18.4q.4-4.8 4-8.5l6.2-5.3q3.2-2.9 3.2-5.7 0-1.9-1-3-1.1-1.1-3-1.1-2.1 0-3.2 1.1-.7.8-1 2.4-.4 1.7-.6 2h-3.2l-.7-.1-.1-1q0-4 2.6-6.3 2.5-2.3 6.6-2.3 3.7 0 6 2 2.6 2.2 2.6 5.8 0 3.7-2.8 6.7-1 1-5.5 4.6-3.4 2.6-4.2 4.6h9l.1-1.7q.3-.9 1.2-.9h1.9q1.1 0 1 1z" aria-label="2" style="font-size:39.34608078px;line-height:1.25;stroke-width:1" transform="scale(-.98105 -1.01931)"/></g></g></svg>