<svg xmlns="http://www.w3.org/2000/svg" width="234" height="333"><g transform="translate(0 -719.4)"><rect width="233.2" height="332.2" x=".4" y="719.7" rx="8.9" ry="8.9" style="fill:#fff;fill-opacity:1;stroke:gray;stroke-width:.75590551;stroke-linecap:butt;stroke-linejoin:miter;stroke-miterlimit:4;stroke-dasharray:none;stroke-opacity:1"/><path d="M58.6 814 87 785.8l-28.3-28.3-28.2 28.3Zm0 200.3L87 986l-28.3-28.4L30.4 986Zm0-100.1L87 885.9l-28.3-28.4L30.4 886ZM175.4 814l28.2-28.3-28.2-28.3-28.3 28.3Zm0 200.3 28.2-28.3-28.2-28.4L147 986zM117 864.1l28.2-28.3-28.2-28.3-28.2 28.3Zm58.4 50.1 28.2-28.3-28.2-28.4L147 886zM17.2 780.7l9.4-9.4-9.4-9.5-9.4 9.5zM216.8 991l9.4 9.5-9.4 9.4-9.4-9.4z" style="fill:red;fill-opacity:1;stroke:none;stroke-width:1"/><g style="font-style:normal;font-variant:normal;font-weight:700;font-stretch:normal;font-size:3.77201176px;line-height:0%;font-family:'Levenim MT';-inkscape-font-specification:'Sans Bold';letter-spacing:0;word-spacing:0;fill:red;fill-opacity:1;stroke:none;stroke-width:1"><path d="m25.8 753-7.7 24q-.3 1-1.5 1h-3q-1 0-1-.6t3.9-11.6l4.5-12.6h-9.1q0 .9-.4 2.6l-.6.2H8.5q-1 0-1-.8l.7-6.4h17.6Z" aria-label="7" style="font-size:41.88301086px;line-height:1.25;stroke-width:1" transform="scale(1.02988 .971)"/></g><g style="font-style:normal;font-variant:normal;font-weight:700;font-stretch:normal;font-size:3.77201176px;line-height:0%;font-family:'Levenim MT';-inkscape-font-specification:'Sans Bold';letter-spacing:0;word-spacing:0;fill:red;fill-opacity:1;stroke:none;stroke-width:1"><path d="m-201.4-1071.7-7.7 24.2q-.3 1-1.5 1h-3q-1 0-1-.7 0-.5 3.9-11.5l4.4-12.7h-9q0 .9-.4 2.6l-.6.2h-2.4q-1 0-1-.7l.6-6.5h17.7z" aria-label="7" style="font-size:41.88301086px;line-height:1.25;stroke-width:1" transform="scale(-1.02988 -.971)"/></g></g></svg>