<svg xmlns="http://www.w3.org/2000/svg" width="234" height="333"><g transform="translate(0 -719.4)"><rect width="233.2" height="332.2" x=".4" y="719.7" rx="8.9" ry="8.9" style="fill:#fff;fill-opacity:1;stroke:gray;stroke-width:.75590551;stroke-linecap:butt;stroke-linejoin:miter;stroke-miterlimit:4;stroke-dasharray:none;stroke-opacity:1"/><path d="M58.6 814 87 785.8l-28.3-28.3-28.2 28.3Zm0 200.3L87 986l-28.3-28.4L30.4 986Zm0-100.1L87 885.9l-28.3-28.4L30.4 886ZM175.4 814l28.2-28.3-28.2-28.3-28.3 28.3Zm0 200.3 28.2-28.3-28.2-28.4L147 986zm0-100.1 28.2-28.3-28.2-28.4L147 886zM17.2 780.7l9.4-9.4-9.4-9.5-9.4 9.5zM216.8 991l9.4 9.5-9.4 9.4-9.4-9.4z" style="fill:red;fill-opacity:1;stroke:none;stroke-width:1"/><g style="font-style:normal;font-variant:normal;font-weight:700;font-stretch:normal;font-size:3.77201176px;line-height:0%;font-family:'Levenim MT';-inkscape-font-specification:'Sans Bold';letter-spacing:0;word-spacing:0;fill:red;fill-opacity:1;stroke:none;stroke-width:.99999994"><path d="M26.9 739q0 4.2-2.5 6.7-2.4 2.5-6.7 2.5-9.8 0-9.8-13.6 0-6 2-9.8 2.7-4.7 8.3-4.7 3.2 0 5.3 1.3 2.6 1.6 2.6 4.6 0 .7-1 .7h-2.8q-.6 0-1-.6-.5-1-.8-1.2-.8-.7-2.3-.7-2.6 0-4 2.4-1 2-1.2 4.7 2.2-1.8 5.3-1.8 4 0 6.3 2.8Q27 735 27 739zm-5-.1q0-2.2-1.1-3.6-1.2-1.6-3.3-1.6-2.1 0-3.3 1.6-1 1.4-1 3.6 0 2 1 3.5 1.3 1.6 3.3 1.6 2 0 3.3-1.6 1-1.4 1-3.5z" aria-label="6" style="font-size:39.17512512px;line-height:1.25;stroke-width:.99999994" transform="scale(.9903 1.0098)"/></g><g style="font-style:normal;font-variant:normal;font-weight:700;font-stretch:normal;font-size:3.77201176px;line-height:0%;font-family:'Levenim MT';-inkscape-font-specification:'Sans Bold';letter-spacing:0;word-spacing:0;fill:red;fill-opacity:1;stroke:none;stroke-width:.99999994"><path d="M-209.4-1015.5q0 4.2-2.5 6.7-2.4 2.5-6.7 2.5-9.8 0-9.8-13.7 0-6 2.1-9.7 2.6-4.7 8.2-4.7 3.2 0 5.3 1.3 2.6 1.6 2.6 4.6 0 .7-1 .7h-2.8q-.6 0-1-.7l-.8-1.2q-.8-.6-2.3-.6-2.6 0-4 2.4-1 1.9-1.2 4.7 2.2-1.8 5.3-1.8 4 0 6.3 2.8 2.3 2.6 2.3 6.7zm-5-.1q0-2.2-1.1-3.6-1.2-1.6-3.3-1.6-2.1 0-3.3 1.6-1 1.4-1 3.6 0 2 1 3.5 1.3 1.6 3.3 1.6 2 0 3.3-1.6 1-1.4 1-3.5z" aria-label="6" style="font-size:39.17512512px;line-height:1.25;stroke-width:.99999994" transform="scale(-.9903 -1.0098)"/></g></g></svg>