<svg xmlns="http://www.w3.org/2000/svg" width="234" height="333"><g transform="translate(0 -719.4)"><rect width="233.2" height="332.2" x=".4" y="719.7" rx="8.9" ry="8.9" style="fill:#fff;fill-opacity:1;stroke:gray;stroke-width:.75590551;stroke-linecap:butt;stroke-linejoin:miter;stroke-miterlimit:4;stroke-dasharray:none;stroke-opacity:1"/><path d="M58.6 814 87 785.8l-28.3-28.3-28.2 28.3Zm0 200.3L87 986l-28.3-28.4L30.4 986ZM175.4 814l28.2-28.3-28.2-28.3-28.3 28.3Zm0 200.3 28.2-28.3-28.2-28.4L147 986zM117 914.2l28.2-28.3-28.2-28.4L88.8 886ZM17.2 780.7l9.4-9.4-9.4-9.5-9.4 9.5zM216.8 991l9.4 9.5-9.4 9.4-9.4-9.4z" style="fill:red;fill-opacity:1;stroke:none;stroke-width:1"/><g style="font-style:normal;font-variant:normal;font-weight:700;font-stretch:normal;font-size:3.77201176px;line-height:0%;font-family:'Levenim MT';-inkscape-font-specification:'Sans Bold';letter-spacing:0;word-spacing:0;fill:red;fill-opacity:1;stroke:none;stroke-width:.99999994"><path d="M26.8 742.3q0 4.4-2.7 7-2.6 2.5-7 2.5-4.2 0-6.6-2-2.7-2.2-2.7-6.3 0-.7 1-.7h2.6l.8.1.2.5q.3 2.2 1.2 3.2 1 1 3.3 1 2.1 0 3.5-1.5 1.2-1.4 1.2-3.6 0-5.5-4.5-5.5-1.6 0-3.2 1.2h-3.3l-.8-.2-.2-.4q0-2.8.3-7l.5-7H25l1 .2v3.2q0 .7-1 .7H14.2q.1 1-.1 3.2-.3 2.1-.2 3.2 2-1.3 4.2-1.3 4 0 6.3 2.8 2.3 2.5 2.3 6.6z" aria-label="5" style="font-size:39.90935898px;line-height:1.25;stroke-width:.99999994" transform="scale(.9951 1.00492)"/></g><g style="font-style:normal;font-variant:normal;font-weight:700;font-stretch:normal;font-size:3.77201176px;line-height:0%;font-family:'Levenim MT';-inkscape-font-specification:'Sans Bold';letter-spacing:0;word-spacing:0;fill:red;fill-opacity:1;stroke:none;stroke-width:.99999994"><path d="M-208.4-1020.7q0 4.3-2.7 6.9-2.6 2.6-7 2.6-4.1 0-6.6-2-2.6-2.3-2.6-6.4 0-.6 1-.6h3.3l.2.6q.3 2.2 1.3 3.1 1 1.1 3.2 1.1t3.5-1.5q1.3-1.5 1.3-3.7 0-5.4-4.5-5.4-1.6 0-3.3 1.1h-3.2l-.9-.1q-.2-.2-.2-.5 0-2.7.3-7l.5-7h14.6q.6 0 1 .2l.1 2.8v.6q-.1.6-1.1.6h-10.6l-.2 3.2-.2 3.2q2-1.2 4.2-1.2 4 0 6.4 2.7 2.2 2.6 2.2 6.7z" aria-label="5" style="font-size:39.90935898px;line-height:1.25;stroke-width:.99999994" transform="scale(-.9951 -1.00492)"/></g></g></svg>