<svg xmlns="http://www.w3.org/2000/svg" width="234" height="333"><g transform="translate(0 -719.4)"><rect width="233.2" height="332.2" x=".4" y="719.7" rx="8.9" ry="8.9" style="fill:#fff;fill-opacity:1;stroke:gray;stroke-width:.75590551;stroke-linecap:butt;stroke-linejoin:miter;stroke-miterlimit:4;stroke-dasharray:none;stroke-opacity:1"/><path d="M58.6 814 87 785.8l-28.3-28.3-28.2 28.3Zm0 200.3L87 986l-28.3-28.4L30.4 986ZM175.4 814l28.2-28.3-28.2-28.3-28.3 28.3Zm0 200.3 28.2-28.3-28.2-28.4L147 986zM17.2 780.7l9.4-9.4-9.4-9.5-9.4 9.5zM216.8 991l9.4 9.5-9.4 9.4-9.4-9.4z" style="fill:red;fill-opacity:1;stroke:none;stroke-width:1"/><g style="font-style:normal;font-variant:normal;font-weight:700;font-stretch:normal;font-size:3.77201176px;line-height:0%;font-family:'Levenim MT';-inkscape-font-specification:'Sans Bold';letter-spacing:0;word-spacing:0;fill:red;fill-opacity:1;stroke:none;stroke-width:1"><path d="m28.4 706.8-.1.7-.7.2H15.8q-1.4 0-1.4-1.4v-1.6q0-.6.3-.8l1-.1h4.5v-2.9H10q-1.6 0-1.6-1.5v-1l.1-1q0-.6.7-1.6l10.7-14q.5-.6 1.2-.6h2.5q.8 0 .8 1v15h1.5l1.1-.1q1 0 1.3.5.2.4.2 2.4v.5q-.1.4-.9.4h-3.2v2.9H26l1-.1q1.1 0 1.3.5.2.5.2 2.6zm-8-19.7q-1 1.5-7.6 10h7.4v-6.7l.1-3.3z" aria-label="4" style="font-size:37.69855499px;line-height:1.25;stroke-width:1" transform="scale(.93673 1.06755)"/></g><g style="font-style:normal;font-variant:normal;font-weight:700;font-stretch:normal;font-size:3.77201176px;line-height:0%;font-family:'Levenim MT';-inkscape-font-specification:'Sans Bold';letter-spacing:0;word-spacing:0;fill:red;fill-opacity:1;stroke:none;stroke-width:1"><path d="m-221.4-952.9-.1.8-.7.2h-11.9q-1.3 0-1.3-1.4v-1.6q0-.7.3-.8.2-.2 1-.2h4.5v-2.8h-10.3q-1.6 0-1.6-1.5v-1l.1-1q0-.7.7-1.6l10.7-14q.5-.7 1.2-.7h2.5q.8 0 .8 1v15h2.6q1 0 1.3.4.2.5.2 2.4v.6q-.2.4-.9.4h-3.2v2.8h2.6q1.1 0 1.3.5.2.4.2 2.5zm-8-19.6-7.6 10h7.4v-6.7l.1-3.3z" aria-label="4" style="font-size:37.69855499px;line-height:1.25;stroke-width:1" transform="scale(-.93673 -1.06755)"/></g></g></svg>