<svg xmlns="http://www.w3.org/2000/svg" width="234" height="333"><g transform="translate(0 -719.4)"><rect width="233.2" height="332.2" x=".4" y="719.7" rx="8.9" ry="8.9" style="fill:#fff;fill-opacity:1;stroke:gray;stroke-width:.75590551;stroke-linecap:butt;stroke-linejoin:miter;stroke-miterlimit:4;stroke-dasharray:none;stroke-opacity:1"/><path d="m17.2 761.8 9.4 9.5-9.4 9.4-9.4-9.4z" style="fill:red;fill-opacity:1;stroke:none;stroke-width:1"/><g style="font-style:normal;font-variant:normal;font-weight:700;font-stretch:normal;font-size:3.77201176px;line-height:0%;font-family:'Levenim MT';-inkscape-font-specification:'Sans Bold';letter-spacing:0;word-spacing:0;fill:red;fill-opacity:1;stroke:none;stroke-width:1"><path d="M23.4 846.6q0 4-.4 5.7-.7 3-3 4.5-1.8 1.2-4.3 1.2-5.2 0-8.8-4.6l4.3-4q2.4 2.7 4.3 2.7 1.4 0 1.8-1.6l.1-2.7v-22h6z" aria-label="J" style="font-size:43.70262146px;line-height:1.25;stroke-width:1" transform="scale(1.13562 .88058)"/></g><g style="font-style:normal;font-variant:normal;font-weight:700;font-stretch:normal;font-size:3.77201176px;line-height:0%;font-family:'Levenim MT';-inkscape-font-specification:'Sans Bold';letter-spacing:0;word-spacing:0;fill:red;fill-opacity:1;stroke:none;stroke-width:1"><path d="M-182.6-1165.4q0 4-.4 5.7-.7 3-3 4.5-1.8 1.2-4.4 1.2-5.1 0-8.8-4.6l4.3-4q2.4 2.7 4.4 2.7 1.3 0 1.7-1.6.2-.8.2-2.7v-22h6z" aria-label="J" style="font-size:43.70262146px;line-height:1.25;stroke-width:1" transform="scale(-1.13562 -.88058)"/></g><path d="m58.6 804.6 18.9-18.9-18.9-18.9-18.8 19ZM216.8 991l9.4 9.5-9.4 9.4-9.4-9.4zm-41.4 13.9 18.8-19-18.8-18.8-18.9 18.9z" style="fill:red;fill-opacity:1;stroke:none;stroke-width:1"/><g style="display:inline;stroke-width:3.18132639"><g style="stroke-width:3.18132639"><path d="m-2766 1374.7-3.4-1700.4 1054.7 2 1.3 1697.8zm378-1416.9c-37.7-10.2-36.8 27.2-9.2 28.6 31 2.7 44.2-50 29.5-70.8 0 0-13 39.7-20.3 42.2zm-244.7 211.9-45.3 20.2-.2 33.8c18.9-15 33.6-33.4 45.5-54zm309.2 1016c-9-4.5-19.7-14.1-18-15.8.8-.9 5.6.7 10 2.6 35.4 15 62.8 14 105-1.3 3.3-1.2 8 4.9 6.2 8.2-18.6 27.7-79.1 17.9-103.2 6.3zm-18.7-41.4c-8.1-12.3 2.6-3 6.3.5 26.2 24.3 61.6 32.6 92.1 9.6 1.4-1.6 1.6-3 1.2-4.1-.9-2.3-.9.1-14 4.7-29.2 10.9-53.8 2-77.8-16.5-10-7.6-14.5-11.4-14.5-13.4 0-1.8 1.8-3 5.2-2.4 2 .4 7.8 1.6 12 2 7.3.5 6.7.2 14.2-3.2a76 76 0 0 1 47.6-7.1c3.8.7 8.7 2 9.4 1.7 3.7-1.2-1.8-6.2-16-17.4-2.8-2.2-6.3-4.1-7.4-6-1.8-3 .1-3.8 2.2-3.8 5.8 0 32 22 41 35 2.7 4 4.6 4.4 4.6 8.5-.5 4.3-1.2 8.3 3.4 14.3a60 60 0 0 1 6.6 11.6c0 .3-.7 2.5-3.7.5-1.4-.3-2-1.8-4.6-1.4a39 39 0 0 0-9.7 4c-36.7 23.6-70.6 12-98.1-17.1zm80.4-1.7c.8 0-2.5-13.5-6.2-17.5-7.3-7.9-18.4-9.3-25.1-1.3-3.8 4.6-8 17.3-8 17.3s6 1.7 7.6 1.7c.2-2.9.2-10.8 6-15.4 3-2.3 9.2-2.2 11.6-.4 4.8 2.4 6.8 12 6.8 15.6 2.7.8 8.7.1 7.3 0zm-44.4-19.6c-5.1 2.3-11.9 3.9-13.4 7.4-2 4.5 5.1 6 8.9 7.5 5.2 2.5 5.3 1.5 7-2.4l3.7-8.8c3.9-7.4 0-6.4-6.2-3.7zm56 13c3-3 3.6-5 1-8.3-1.2-1.5-4.7-3-8.4-4.3-4.8-1.7-6.9-3.6-3.9 2.9l4.3 9.3c2.2 4.4 4.2 3.2 7 .4zm-490-317.1c1.9 0 20-6 26.4-8.8 6.3-2.4 7.1-2.4 4.6-5.9-1-1.3-1.8-5-1.3-9.1l.5-5.7c-11.2-2.3-27.8 3.9-33.5 11.7-4 5-3.7 16 3.3 17.8zm-2.2 27.8c3.3 3.4 4.3 3.5 14.4-.3a41 41 0 0 1 16.3-5.7c12.2-3.2 12.2-2 8.7-9.8a17 17 0 0 1-1.6-9.9c.6-4 1-4.5-1.2-5.2-5.8-1.8-33 8.4-38 16.3-3.3 5.6-2.9 10.3 1.4 14.6zm639.5 240.6a72.7 72.7 0 0 0-6.2 10.5c-2.2 5.5-.9 6.6 0 17.4.6 6.2.7 16 .7 21.2 0 10-.1 13 3 13.7 2.7.5 3.9-1.5 5.2-6.8.6-2.6 2.2-5.3 2.6-7 2-11.2 5.5-30 13.6-37.9 1.2-.9 4.5-1.5 10.4-1.5 7.4-.1 9.7-.3 12-2 12.8-11.3 2.7-25.8-8.8-26.8-13.2-1.1-31.5 17.2-32.5 19.2zm50.9-4.7c.8 12.9-12 21.7-25.1 18.7-5.3-1.4-7-.2-10.5 7.4-7.7 20.8-10.7 41.6-12.8 55.2-.9 12.2-5.4 44-2.1 54.2a3278 3278 0 0 0 119.4 141l255.5.4 1.5-300.8-74.2-70.1.2-111.3c-79.4 37.5-158.6 75.4-237.9 113.1 17.3 55.4-41.3 67-54.1 30-11.2 10.1-20.3 65.1-16.2 67.8 0 0 1.5 2 4-2.4a44 44 0 0 1 15-16c16.5-10.2 36.1-5.2 37.3 12.8zm-203.3-5.7c-12.6-10-5.9-25.1 4.6-29.7 5.5-2.4 14.3-2 24 1.4 8.6 4 13.8 3.4 22.5 2.3 5.9-.7 4.8 11.5-1.3 14.7-4.3 2.2-14.1 1.1-26-5.7-20.7-11.7-29.8 3.5-17 17.3 7.1 7.5-5 1.5-6.8-.3zM-2680 894.8c11-7 6.5-19.6-3.8-21.7-13.8.3-17.3 16.2-7.4 21.7 0 1.9-5 .3-7.6-1.7-4.1-3-.4-15.1-4.2-15.6-3 0-31.5 10.1-34.6 12.1-12.8 7.3-.8 23.8 6.7 21.9 15.4-4 36.5-7.4 51-16.7zm-63.8-23.5c.3 7.3 2.3 10.6 7.1 10.7 10-1.8 19.4-6.6 28.8-9.6 7.3-2.4 10.3-5.1 4.7-9.7-1.7-2-3.2-4.7-2.4-10 2-6 .5-6.3-2-6.6-2.6-.3-8.4 2.1-23.4 7.9-7.9 3-9.4 4.3-11.4 8.6a24 24 0 0 0-1.4 8.7zm83.3 94.5a60 60 0 0 0 5.5-18c-.7-5.2-4.6-6.4-8.1-3-4.2 3.8-3 9.5-5.6 13.8-.8 1.5-1.8 3.6-1.5 4.5 1.3 4.6 7 5.4 9.7 2.7zm32.7-69.5c128-136.3 207.4-325 68.6-585.2-15.5-6.6-20.3 18.7-21.8 19.7l-17.7 15.5c93.9 162 77.6 348.2-37.3 480.7l.2 8.4c.2 18.5 5.6 17.7 13.3 9 8.3-8.7 2.8-1.6-.6 2-3 3-7.5 9.2-8.8 10.8 1.5 11 8.5 31.8 4.1 39.1zm-8.5-41c-1.3-3.6-2.7-12-3.4-18.5-.4-4.2-.6-8.2-.8-12.3-1.4-8.2-4.7-27-7.4-31.2-3-4.4-10.1-7.7-18.1-8.2-6.8-.4-7.4-.3-8.9 1.9-2.5 3.8-.7 23 1.8 30.1 2.9 8.3 1.2 12.8-1.1 21-.9 3-1.1 3.2.3 3.4 6.4-.5 8.5-8.3 11-6 1 .9-1.3 7.3-4.3 13.8-3.1 6.9-4 16.3-.3 28 2 6.4 1.2 8.5 0 12.4a77 77 0 0 0-2.5 18.7c3 10 1.5 14.5-.2 17.8-3.8 8.5-6.8 20-4.7 26.5.9 2.8 3.2.4 5-4.5 2.6-9.6 5.8-11.7 13.6-11.7 5.8 0 6.3 2 8.2-.6 4.3-5.8 14.9-26.5 15-32.2 4.2-14.7 4.4-27.3-3.2-48.3zm61.3 96.6c3.4-1.3 8.8-8.7 8.8-11.2 0-2.8-21.5-23.7-30.4-29.5-4-2.6-6-.7-13.1 9-6.4 8.5-7.2 8.5-6 10.2 1.4 2 23.2 16.2 30.5 20.2 2.5 1.4 6.8 2.6 10.2 1.3zm40.2-37.2c-3.2-2.4-28.9-31-36.5-32.3-3-.6-12.2 10-12.2 12.4 0 1.7 16 18 27.4 28a23 23 0 0 0 8 5c3.6-1.8 12.8-9.3 13.3-13zm27.3-26.8c0-1.7-2.8-5.2-9.8-12-17.6-17.3-27.4-25.2-30.5-25.2-3.4 1.1-9.5 11.4-9.8 15a498 498 0 0 0 34.4 31.4c4.7 4.6 15-6 15.7-9.2zm27.6-27.6c.8-2.6-.7-4.7-4.4-8.3l-21-20.5c-18.4-18.2-18.5-18.2-24.4-9.7-6.2 8.8-6.1 8.8 12 26.5 19.2 18.8 23.7 22.6 26.7 22.6 4.6-2.1 9.5-5.7 11.1-10.6zm-206.5-16.5c-3.3-1-6.2-.4-8.8 1.6-13.6 11.6 5.8 26.6 13.7 17.2 5.3-5.2 5.1-16.4-5-18.8zm234.9-12.2c0-2-4-6.3-17.8-19.4-34-32.5-32.5-31.3-36.3-29.3a26 26 0 0 0-7 13.3c0 2.4 3.4 5.8 28.6 29.4 14.8 13.8 19.2 17.3 21.8 17.3 4-2 10.5-6.4 10.7-11.3zm-234 1.3c6.6-3 7.9-10.2 4-16a10.4 10.4 0 0 0-17.5 7.2c1.3 7.8 7.9 11 13.4 8.8zm262-28.6c0-3.9-58.4-58.4-62.5-58.4-2.8 0-4.8 2.3-7.5 8.4-2.3 5.4-2 8.6.8 11.3 4.2 4.1 15.5 14.5 26.2 24.1 6.3 5.8 13.6 12.6 16.1 15.2 6 6.2 12.6 11 15.2 11 3.6-2.1 8.6-5 11.7-11.6zm-265.1-7a9 9 0 0 0-2-6.1c-4-4.3-11.5-2-13.4 3.6-1.7 13.3 14.8 13.9 15.4 2.5zm43.2-424.7 11.4-34.9 34.9-.9 4.9-34.6 35.8-5.2.6-35.8 34.3-4.7-2-38.4 31.8-7.5-1.6-35.6 28.9-8.8-1.2-31 5-3.8-12.5-12.8-10.8 3.5-.2 31.8-28.9 9.3 3 35.2-29.1 6.6-.4 38.3-33.5 3.7-2.4 33.8-32.7 6.4-5 33-31.7 2.2-9.7 29-21 .3v19.5zm379.3 624.2c-1-2.6 1.8-2.2 6.8 1 5.2 3.3 12.8 6 18.2 6a127 127 0 0 0 17.9-3.2c9-3.3 17-3.5 26.5-1.5 7 1 14 1.7 15.6 1.7 4.7.7 12.6-5 14.7-8.7 5.8-9.9 4.4 8 4.4 10 .2 9.2 1.3 19.7-5.3 14.8-3.8-2-10.6-3.7-16-.1-5.5 3.6-10 4.4-16.4.5-5.2-2-8-2.5-11.9 1.2-4.3 4-15 2.6-20.6.7-9.8-1.6-15.2-3-21.8 2.2-3.4 2-4.3.5-7-7.3-2.6-7.7-4.7-16.3-5-17.3zm24.9-6.4c-.7-1 4.6-6.1 8.1-8 10.4-5.3 31-5.1 45.7.3 7.7 2.9 8.9 7.7 1.4 6.7-15.5-3.2-35-6-50 1.2-1.2.7-5 .2-5.2-.2zm13.1-24.3c-10.6-4-15.8-8.2-15.8-9.5 0-1.4 2.2-1.2 10.6 1.1a55.2 55.2 0 0 0 36.1 2.5c8-3 12.1-4.9 12.1-3 0 1.8-3.3 6.8-8.9 9.6a51.8 51.8 0 0 1-34-.7zm230.9-29.6 7.9-1-2.8-33 29.1-8.6-2-32.8 31-10.6-1.9-36.9 32.2-6.3 4.2-32.3 30.4-2.2 6.3-35 32.7-1.2 6.7-29.2 21.7-.1v-16.4l-34 .1-7.1 31.6-32 .9-6.7 34.7-33.5-.3-4.3 37.4-31.5 5.2v40.3l-30.4 7.8 2.4 34.5-30.3 11 3.4 32.9zm203-772.8c-4.4 3-6 9.2-4.7 14.2 4.3 11.3 19.4 7.8 21.1-.5 1-3.5-1.4-8.9-5.5-10-.8-.3-3.3 0-4.7-1.4-1-1 5-4 8.6-2.9 4.4 1.5 8 7.3 8 12.3 0 2-.5 4.9.2 5.9 7.3-.2 15.6-4.2 23.4-6.4 13.2-3.6 18-11.2 15-20-2.4-7.5-10-10.4-19.9-6.7-13.6 5.2-29.6 7.6-41.5 15.5zm-563.4 808.6c44.7-31.4 71-49.3 128.4-52.4-20.5-8.4-23.8-19.5-29.6-30-71 6.7-108.7 29.3-142.5 50.5 14 6.6 28.5 14.2 43.7 32zm249.1-43.5c-21.7-15.3-47.5-24.6-74.2-31.7l-20.5 21.2c-1.2-.8 59.4.6 94.7 10.5zm208-201.5c-139.7-214.7-45.8-403.7 51.3-524 3.1-4 4-4.2 3.2-7.4-1-4.1-2-25-1.4-37-179.6 178-184.2 409.9-71.5 593.9 8-7.2 24.3-16.8 18.4-25.5zm21-18.4c-23-38.2-145.1-245 41.5-475.8 0 0-.7-11.7-2-16.2-2.6-7.9-6.5-11-6.5-11-78.3 117.6-192.2 264.8-50 520.5zm-106.9-389.3a27.4 27.4 0 0 0 6.9-14c0-3-2.2-5.5-23.3-26.9-28-28.5-32.9-32.8-36.5-32.8-3.4 0-12.2 8.4-12.2 11.6 0 1.5 8.2 10.4 27.7 29.9 36.2 36 34.5 34.6 37.4 32.2zm25.9-52.4c0-1.7-2.6-5.1-8.8-11.5-16.2-16.7-39.3-37.8-41.4-37.8-2.5 0-9.6 5.7-11.5 9.3-1.3 2.5-1.3 3.1.3 5.5a725 725 0 0 0 49.3 47.5c6.2 5.6 11.8-8.7 12-13zm14-21.3c2.8-1.6 8.3-11.7 7.6-14.3-.3-1.2-9.5-11.1-20.4-22-21.6-21.5-22.8-22.2-28.2-17.4-4.9 4.3-8 8.7-7.3 10.4.7 2.2 33 35 39.6 40.4 5.2 4.2 5.9 4.4 8.7 2.9zm164.8-1.6c10.1-9.8-1.4-20.4-9.8-15.5-3.5 2.2-5.6 7-4.5 10.2 1.8 5.2 9 8.1 14.3 5.3zm20-2.5c17.2-4.5 25.5-7.5 29-12.9 2.5-3.7 2.8-6 0-12-2.6-5.6-5.6-7.3-16.3-1.4-7.4 4-23.9 6-29.6 9.4-2.3 2-1.2 2 .6 3.1 4.2 2.7 6.2 4.5 5.7 8-1 7.5-.1 8.7 10.7 5.8zm-18.1-27c8.3-4.2 6.6-14.5-2.7-18.6-12.3-3.2-20.2 11.6-10.1 18.8 2.7 1.9 9.5 1.5 12.8-.1zm27.7-4.1c12-4.1 16.7-7.4 20.2-14 2.7-5.3 1.5-7.7 1.2-12.8-.6-7.7-4.5-6.8-15.7-2.8-5.5 2.1-31.7 9.5-32.1 12.2 12.7 7.3 9.4 11 9.5 20.3.7 2.1 6.6.6 16.9-2.9zm-164.4-12.3c0-3.5-33.7-36.5-37.3-36.5-5.5 0-13.5 8.6-12.3 13.4a385 385 0 0 0 36 36.3c5.6 3.2 13.2-8 13.6-13.2zm19.4-20.6c1.4-1.1 4-4.1 5.7-6.6 3.6-5.2 3.4-8.2-1-11-1.6-1-8.6-7.4-15.7-14.2-7-6.8-13.7-12.7-14.8-13-5.8-.9-16.3 8.4-15.2 13.2.6 2.5 26.4 28 32.2 31.7 3.7 2.5 5.5 2.5 8.8-.1zm45.6-49.2c0-.9-5.9-4.7-15.3-9.8-28.7-15.6-29.2-15.7-38.1-8.4-3.1 2.5-5.6 5.4-5.6 6.4s6.2 7.6 14.1 15.1c16.5 15.6 20.5 19 22.8 19 4.8-3.5 21.4-18 22-22.3zm40.2-14.6c3.5-4.3 7.5-19 5.6-22-1.8-1.7-6.2-1.4-8.4.5-2.2 2-7.6 20.5-6.8 22.7.9 2.2 6.5 1.2 9.6-1.2zm-313.5 625.8c2.7-.3 8-3.6 15.7-10.3 8.3-7 34.5-22.9 37.3-29.2 1.3-3.7.4-8.8-2.4-9.2-2-.3-2.5 1.3-19.9 13.8a631.6 631.6 0 0 0-35.5 26.8c-1.3 3.4 1.7 7.8 4.8 8.1zm-2.5 101.2c18-12.5 32.5-25.3 55.8-39.7 1.8-2.4 2.1-6 1-8.9-1.4-3.5-3.2-2.1-10.3 2.8-17.2 11.6-35 25.3-49.8 35.4-4.7 3.2-8.7 5-7.7 6.8 1.3 2.4 8.6 3.1 11 3.6zm17.4 7.6c11.8-9.6 26-18.8 38.5-28.2 1.8-1.7 2.3-7.7.4-10-1.4-2-.2-1.7-3.7.3a722.2 722.2 0 0 0-41.3 28.4c-3.3 2.7-6 4.1-5.2 5a29 29 0 0 0 11.3 4.5zm14.9 7.5c2.4-1.7 23.4-15 25-16.8 2-2 1.4-11.2-.5-12-5.3 4.3-33.2 21.3-33.3 24 2.9 2.6 6.6 5 8.8 4.8zm22.4 1.8c3.2-3 3.8-3.4 3.9-6.7.1-6-1.4-5.7-9.9.4-6 3.8-9.6 6.5-8.5 8.8 4.2 6.7 10.2 1.4 14.5-2.5zm2.3 12.3c1.7-.6 1.7-1.5 1.4-3.6-.2-2.3-.6-2.2-3.1-2.2-6.8.2-.7 6.4 1.7 5.8zm-81.6-33.5a63 63 0 0 1 14.4-25.9c28.2-25 19.6-55.7 1.8-80.7 23-32.3 46-66.4 65.8-97.7v-51l2.6.4c-.9 111 4.2 293 4.2 293l22.9 17.6-3.1 1.5c3.8-.6-66.7-44.7-108.6-57.2zm20.7-12.7c19.5-14.7 38.4-26.3 57.8-42 2-1.7 3.3-1.8 3.3-5.6.1-7.3-1.3-7.4-8.6-2.2-3.2 2.3-14.9 10.5-26 18-11.6 7.8-22.4 14.8-24.5 17.3-11 12.6-15 18.5-13.8 20.3 1.1 2 3.3-.1 11.8-5.8zm21.3-35.7c10-6.6 34-23.2 36.1-25.3 3.8-3.5 4.5-9.2 1-9.9-1.6-.3-20.2 12-35.9 24-7.6 5.7-9.3 7-9.3 12.5 0 3.3 2 2.7 8-1.3zm10-25.9c30.7-21.8 29.9-20 29.2-28.1-.2-2.8-.8-4-2-4.2-1-.2-6.4 3.7-12.5 8-6.2 4.3-13.4 10-17.1 12.6-10.7 7.4-14.2 9.4-14.2 13.6 0 4.2 1.1 6.9 3 6.9.7 0 6.8-4 13.5-8.8zm-4.5-16.9c14.2-10 29.8-21.3 31.9-24 2.6-3.2 2.1-10.3-1.2-10.3A623 623 0 0 0-2117 743c-1.5 1.4-3.5 2.7-4.1 4.5-.1 2.3 2.8 5.4 4 5.5 2.3 0 5.9-2.6 12.7-7.5zm-9.2-33.8c10.8-7.3 20.6-16 31.4-23.4 8-5.5 10.3-7.2 9.8-14.2-.2-4-3.8-1.7-17.4 7.4-10 6.7-14.6 9.3-18.2 13.9-2.4 5.7-10.7 11.1-11 17.7-.1 2.5 1.5 1.3 5.4-1.4zm33.2-44c8.3-5.5 9-5.6 8.2-13-1.2-9-2-8.5-10 3.6-5.2 8-7 10.2-6.2 11.7 1.3 2.6 2.8 1.1 8-2.3zm-30.2-67.2c-1-4.1-2.2-3.2-6.3.4-7.7 6.8-9 11.7-4.1 14.2 2.5 1.4 4.5 1.2 6-2.1 3.2-7.2 4.1-9.7 4.4-12.5zm-43 63.8a21 21 0 0 0-9-10.5c-3.5-1.8-5.6-1.5-8.8 2.7-3 3.8-1.6 6.1 2.9 11.8 3.3 4.2 4.6 5.6 7.3 5.6 3.1-1.3 8.2-5.5 7.5-9.6zm-166.7 160.2c-2.2-4.2-6.9-8.7-9-8-2.3.9-4.5 4-4.5 6.1 1 4.2 4.5 7 7.2 7 5-.6 8.2-1.5 6.3-5zm20.3-6.4c-4.4-4.7-13-14.9-14.5-14.9-2.2 0-7.5 5.6-7.5 7.9 0 2.7 8 13.7 10.5 14.6 6.7-.6 18.9.1 11.5-7.6zm25 1.3c-.4-2.3-25-28.5-26.9-28.5-2.3 0-7 5.1-7 7.5 0 2 8 12.3 15.3 20 3.7 3.9 4 4.4 8.5 3.7 5-.7 11.3.3 10.2-2.7zm43.7-5.9c0-5.3-2.7-8.2-13.9-20.3l-15.2-16.9c-8.3-9.5-11.9-12.4-15.2-12.4-2.6 0-6.7 4.2-6.7 7 0 1.7 20.6 25.2 39.2 45.2 4 4.4 6 5.7 9.9 3.6 2.3-1.5 2-4.2 2-6.2zm-32.1-63c-4.2 3.4-5.7 4.8-5.7 7 0 3.6 35.4 42.5 38.5 42.5 1.9 0 1.6-.3 2.7-4.5 2.2-12.7-1.3-16.4-10.5-24.8-6.1-5.6-18.5-25-25-20.3zm62.5-26.1c-10-11.8-15.4-17.3-17.4-17.3-1.4 0-3.4 1.4-5.6 3.8-3.7 3.5-3.4 3.4-1 7.6 1.2 2.1 4.6 6.4 7.5 9.4 5.5 5.6 8.3 7.4 10.9 4.7 2.3-2.4 8-5.2 5.6-8.2zm-5.2-29.5c-2.4 0-6.4 4.3-6.4 6.7 0 2 8 12 13.6 17 4.5 4.1 6.6 5.2 9.8 2.5a8 8 0 0 0 .3-9.1c-4-4.6-12.7-16.9-17.3-17.1zm27.8 2.9c0-3.5-10.2-16.6-13.4-18-2.6 0-8.3 6.3-8.3 9.1 0 1.6 2.2 5 5.9 9.3 7.2 8.3 9 10.2 10.6 8.9 2.6-2.2 5.3-6 5.2-9.3zm11.4-14.8c.7-3-1-5.9-5.1-11-5-6.3-7.6-6.7-12.3-1.8-1.8 1.8-2.6 3.4-2.6 4.2 0 2.5 10.6 16 12.6 16 4.5-.6 6-4 7.4-7.4zm-18.6 33.3c-1 4.4-2.8 7.2-7 9.2-32.4 23.4-31.3 61.4-38.2 96.5-52.4-.6-135.3 21-134.8 22l278.6-281s3.4 1 1.3 3.4c-22.5 16.2-21.1 47.7-36 63.5-24.7 30-47.7 55.9-64 86.4zm-151.2 114.8c.5-3.2-2.5-4-5-1.5s-1.5 4.5 2 4c1.9-.1 2.8-.9 3-2.5zm85.8-11.8c1-2.7-1.4-5.2-16.3-21.7-15.1-16.8-18.5-20.7-21.2-20.7-2.2 0-7.6 5.5-7.6 7.7 0 1 2.4 4.4 5.3 7.6 2.9 3 8.4 9.2 12.2 13.6 6.6 7.5 9.8 11.2 12.3 13 2.5 1.6 4.3 1.5 8.3 1.5 5.4 0 6.6.2 7-1zm25.9-52.7c1-3.3 2.5-6.2 2.5-7.5 0-2.3-19-21.7-22.3-23.8-3.9-2.5-11.1 5.6-9.3 10.4.5 1.3 6.1 8 12.6 14.8 8.2 8.7 12.3 12.8 13.6 12.6 1.3-.2 1.5-2.2 2.9-6.5zm8-20.5a15 15 0 0 0 2.5-6c0-1.4-3.2-5.3-7.8-10.4-8.5-9.6-10.7-10.7-15.3-6.2-4.7 4.4-3.1 6.5 5 15.7 10.3 11.6 11.4 13 15.5 7zm72.9-91.3c3.2-3.8 3.2-5.6.3-9a78 78 0 0 0-4-4.8c-2.6-3.2-6-2.7-9.6 1.4-1.7 2-2.8 4-2.8 4.6 0 .6 1.8 3.3 4 6 5 5.8 8.2 6.5 12.1 1.8zm11.2-14.4c2.1-3.3 1.2-7-2.9-10.6-3.8-3.5-5.7-3.7-8.4-.7-3.6 4-3 5.3.9 9.6 4.3 4.8 7.8 5.6 10.4 1.7zm9-12c3-3 2.9-5.5.2-9-2.5-3.1-5.1-4-7.8-2.6-4.5 2.5-4 6.7.5 11.5 2.7 2.9 4 3.2 7 .1zm-213.2 599.4c57 6.4 118.3 10.9 226.4-6l.5-36.6c-33.7 26.3-78 8.3-80.5-22-.3-27 7-58 13-80.2 4.5-16.5 5.8-22.8 1.6-26-9.3-5.3-25.9-6-30.1-17-2-5.7-2.2-11.9.7-7.5a58 58 0 0 0 20.6 9c14.6 3.2 17 4.3 18.6 10.3 1 3.8-1.4 16.9-5.2 28.7-2.8 8.5-6 22-6 24.7 0 2.8 2.2 3.3 4.8 2.5 1-.3 6.2-5.5 9.4-8.4 14-12.5 18.2-12.1 6.1.1a169.6 169.6 0 0 0-11.3 12.1c0 2.6 2.4 2.3 7.8.4a62 62 0 0 1 36.5 1.7c10.8 5.4 11.2 5.2 11-11.2-2-30.7-7-67-17-95.3-15.2-43.2-46.9-83.3-93.6-81.5-57 3-91.4 25.7-130.2 52.9 23.4 52-10.4 91.7-22.7 97-1.2.5 15.3 52.8 22.4 79.4 6.4 24.2 17.2 73 17.2 73zm242.7-1253.4c-1.3-3.5-33-106.8-42-150-85.7-5-149-12.1-224.6 9.3 0 0-1.6 29.1-.8 30.5.8 3.6 3.4 3.5 5.5 2.4 34.9-19.2 72.7-10.6 75.3 36.7 1 18-5 30.7-6.2 47.9-1 14.9-12.7 34.8-5.6 46.2 1 1.4 6 4.1 12.8 7 12.8 5.5 17.8 10.6 18.8 19 1.4 5.7-2.2 9.6-3.2 3.7-.7-3.8-1.4-7.1-17.2-12.5-15.4-5.3-19.5-11.4-21-14.6-2.2-4.5-1.8-7.6.2-14.7 4.2-15 8.4-30.4 8-37.7-.2-2.6-3-1.3-6.7 1.8-4.7 4-24.8 17.2-25.4 16.7a40 40 0 0 1 9-11c6.8-6.5 15.3-14.4 15.3-15.9 0-2.5-1-.7-7.7 1.2a54 54 0 0 1-33.7-1.2c-7.6-3.3-12.9-5.3-14-3.4-2.8 46 4 93.4 23.3 130.4C-2317 100-2281 142-2227 132.5c55.9-9.7 110.3-54.7 108.3-54.7-20.8-47.2 3-82.4 24.3-103.4zm-442.8 1256.5c-24.8-24.8-87.2-51.8-130-64.2-3.5-.7-6.9-2.3-7 1.7l-.4 85.1-76.6 71.8 1.3 35 162.6-.7 108-158.3s5.1-.9 5.7-1.9c-19.8-84-49.6-151.1-68.6-184.7.3.4-27.2 22.2-51.5-5-13.6-15.2-5.2-42 7.7-51.8-11-8-33.5-22.5-48.3-26.7-3-.8-7.6 5.5-9.1 11-2.7 9.2-7.2 17.4-10.3 26.7-3.3 7.7-6.5 8.8-11.4 6.7-7.7-2.3-9.8-3.1-9.8-3.1l.3 100a210.8 210.8 0 0 1 137.4 158.4zM-2291.4 162l17.6-19a491.3 491.3 0 0 1-90.8-19 299.4 299.4 0 0 0 73.2 38zm-96.3-53.5c31 10.3 70 34.3 118.9 25.3-44.5-17.7-78.3-59-92.7-143-3.2 16.4-9.7 50.3-20 54-14.4-55.8-72.3-23.4-49 22-58.8 40.4-129.3 63.2-193.3 94.3 0 0-9.7 29.5-57.6 70-9-47.5 1.7-118-3.9-165.6l-75.2-71c1.2 13.5.7 21.9 0 37.7 2.1 2.8 5 4.2 7.9 6 4.8 273.5-1.7 544-1.6 792.5-.8 152.3 3.2 311 1 454.7l-2.8 5.2.1 34.4 76.8-73.1s-3.6-51.9.4-91.5c48.5 9.8 93.6 32.5 134.1 57.5 5.1 1.4-24.8-99.6-133.7-144.4 0 0-.2-31.6-.2-100.1 0-66.2-1-73.2-2.5-74.2-4.4 4.7-60.1 23.5-63 20.4 1.5.4-15.7-117.1-.8-135l53.3 1.1c15.3 12.3 9.1-2.6 18-5.1 5.3-1.4 30 8.2 30 8.2 101.6-120 91.5-317.3 18.5-428.3-18.7 15.1-38.5 35.7-57.3 44.5-.2-.6-.3-61.2-.3-61.2 97.1-62.3 202.7-242.9 196-243.5 0 0 30 29.3 41.7 45.9l-95.8 138.8c22 44.2 44.1 84.3 58.6 123.2 2 5.3 8 5.1 9.4 10.7 1.3 4.7-4.5 11.3-3.7 16.5 20.3 77.3 24.9 159.4 4.9 233.8-4.2 16.8 3.5 30.3 13.8 43 .9 1-9.6-9.1-10.5-9.7-3.6-2.1-9.6 5.4-10.9 15 .9 5.8 4 6.8 8.2 11.5a1340 1340 0 0 1 49.8 48.4c11.5 11.7 14.4 12.2 22.2 3.9 2.2-2 4.5-4.8 6.6-6.5.4.6 3.2-2.4 4.2-3.3l173.1-169c20.1-19.7-172.8 177.3-172.8 177.3l-116.6 114.5c-23.7 23.4-26.9 28.5-27.8 30.2-1.7 3.2 7.6 3 11.9 2.4.3 0-3.6 1-7.6 1-24.3-5.5-32.6 21.4-48 26.8-40.6 28.9-13.3 75.2 25.5 60l9.5-4.6a872.5 872.5 0 0 1 73.4 192.6l-6.4 3-102.4 153.5h580.7c-41.7-41.5-77.2-92.5-113.3-130.6-58 17.3-233 13.8-230.3 6.2 0 0-26.5-107.3-41.5-160 47.6-40.8 42.7-105.2-26.4-134a259.3 259.3 0 0 1 150.4-56.4c16 40.7 53.7 43.3 71.4 6 .1-.5 66.8 20.5 91.4 43-36.5-3.7-72.4-11-109-12.7a134.2 134.2 0 0 1 75.3 83.6c5.2 13.6 13 58.2 15 58.4 0 0 12.2-51.6 21.7-48.8 24 50.2 65.5 12.5 48-27.5 61.3-29.2 130.2-61.9 186.5-89 16.5-24.8 57-71.9 59.6-72.1 0 0 74.4-426.1 74.4-568.6-2.5-171.2 3.4-361.9-4-522v-46h-157.2l-112.1 165s-.9 2.5-.8 3.7A788.2 788.2 0 0 0-1930.8 42c42.5-32.1 78.4 20.8 46.5 51.5-6 5.8-4.4 7.2 1.6 11.2 5.9 4 46.3 24.3 48.1 24.3 7.3-10.9 9.4-26.9 14.4-39.1 1.2-4.7 4.7-5.2 11.8-4.4 9 1 9 4.8 8.6-52.7l-.2-49.4c-54.5-25.1-126.7-89-130-155.4 31.4 23 103.9 56.3 123.2 59.3 8.5 2.4 7.2-12.4 7.5-18.4 2.3 1.6 3.1 24.5 3.1 24.5-32-9.7-48.8-7.7-128.6-54 13.7 65.3 79 116.8 126.5 140.3 0 0 2 31 1.9 65.7-.3 106 .7 110.7.7 110.7s26.1-6.7 33.4-10.3c13-10.3 33.6-2.4 36.5 5.2 4.2 40 .2 77.1-.7 115.3-22.1 1.6-34.2 6.2-45.1 6.7-7.1-1-11.4-1-15-5-10.6-22.9-10-8.4-11.2 8.7-1 5-27.4-3.7-30-5.3-114.1 131.4-104.4 282.6-27 422.7 12.9-8.6 35-25.1 57-36 .5 17.9.8 54.5.8 54.5-89.3 65.6-196.3 239.2-192.7 239.7L-2026 909s22.9-36.3 30.9-46c1-1 1.5-12.3 1.5-12.3l55.5-80.2a1049 1049 0 0 1-60-126.1c-1-3.7-5.4-19.4-4.5-20.8-37-167.2 3.1-250.4.2-256.7 0 0-.5-3.4-1.3-4-1.2-1 .3-2 1.7-4.4 2.6-4.6 6.8-14 5.4-17-1-2-31-32-56.8-56.7-13.5-13-13-14.5-20-7.4-2.6 2.7-9 10.1-9 10.1-92.9 86-166.7 164.3-260 255.9l-4.4-4c135.7-135 272.6-268.5 407-404.7l-23.6.4c.6-1.7 1.6-3.3 3-3.7a75 75 0 0 0 35.1-9.2c19.2-14.2 46.7-33.3 48.8-52-1.3-36.2-31.8-41.5-53.8-23.8-30.6-55-54.9-121-67.8-182.8-.7-3-5-8.4-5.6-11.9 6.5-20.5 110.5-162 110.5-162h-583.6l111 132.2c0-5.3 158.3-24 230.8-1.9l44.2 156.8c-40.1 38.8-52 102.6 21.8 135.8 1.4 3-7 8.2-7 8.2 1.2-2 3.2-4 2.4-5.7-20-8.7-41.2-30.7-41.2-30.7-44.4 34.7-85.9 54-126.5 55.7 0 0 21.5 14.6 25.6 30.5 0 0-2-.2-2.5-.8-4.4-5.4-14.5-22.8-23-28-14.5-3.4-23-1-34.5 7l-15.5 14.9c-35.4-10.8-74.8-28.4-96.5-55.2zm-6 383.8 16.3-16c1.8-11.8 5-26.9 18.7-43.3 15.2-18.2 32-35.3 44.3-51.5 14.8-19.5 22.9-37 19-45.3 22-4 42.4-23.4 43-58.8.3-18.6 9.2-45.8 10-45.4 0 0 154.2-5.2 260.3-106.4 0 0 7.4 1.6 5.7 3-40.2 40.2-83 70-133.5 88.8L-2388.7 496zm31-32c4.1-4.1 5-5.5 2.7-7.4-3.6-3-10.5 3.2-10.5 9.3 0 4 3.1 2.8 7.7-1.8zm14.4-14.1c3.3-3.2 3.2-5.5.4-8.2-3.7-3.8-9.2-1.5-11 4.6-2 6.1 5.4 8.6 10.6 3.6zm12.7-12.9c1.7-2 3-3.9 3-4.4 0-2.1-5.2-7-7.6-7-3 0-8.3 5-8.3 7.8 0 2.4 5.3 7.2 8 7.2 1 0 3.2-1.6 4.9-3.6zm12-23.9c-3.8-3.2-6.3-3.2-9.5 0-3.6 3.6-3.2 7.6 1.1 11.4 3.3 3.4 4.7 3 9.2.3 3.7-3.8 4.4-7.4-.8-11.7zm14-2.1c4.1-3.5 3.5-6.3-1-10.8-4.7-4.7-8.3-4.7-11.6.3a8.6 8.6 0 0 0-1.5 4.2c0 1.9 7.7 8.8 9.8 8.8 1.1 0 2.6-1 4.3-2.5zm13.5-13.4c3.5-3.6 3-6.2-2-11.3-4.1-4.4-7-4.7-10.8-1.3-3.8 3.6-3 7.3 1.3 11.6 4.4 4.4 7.6 5 11.5 1zm15.3-15.5c2.6-2.7 1.9-2.4 0-5.4-2.7-4.5-10.9-12-13.2-12-3 0-5.5 4.6-5.5 9.3 0 4.5 2.3 6.4 8 11 4 3 2.8 3.3 5.7 1.6 1.7-1 4-3 5-4.5zm12.2-11c5.5-6.3 4.4-7.5-8.8-21.5-4.5-4.7-5.4-5.2-8.6-5-3 .3-3.3 1-4.9 4.3-2.9 5.9-.7 8.9 7.6 17.8 8.6 9 9.8 9.8 14.7 4.3zm13.5-14.6c2.2-1.9 3.6-4 3.6-5.4a51 51 0 0 0-14.6-16.5c-2.7-1.6-5.5-.7-9 2.3-2.1 1.8-2 2.3-1.6 4.3a61.2 61.2 0 0 0 16.9 17.7c1 0 2.8-.7 4.7-2.4zm13.5-13c2.3-2.4 4-5.2 4-6.4 0-2.7-11.5-16-15-18-3-1.5-4.8-.8-7.8 3.4-3.5 4.8-2.2 7 4.7 15 6.5 7.4 8.6 9.7 9.8 9.7.4 0 2-1.5 4.3-3.8zm12.7-13.8c3-1.7 6.7-5.5 5.2-8.5a239.1 239.1 0 0 0-24-25.7c-4.3-2.3-4.2 1-4.2 11.6v5.5l9.3 9.1c13.6 13.3 10.6 10 13.7 8zm16.5-15c1.6-1.7 3-4.4 3-5.4-8.3-10.2-32.7-42.5-37.2-41.3-.4.1-.6.1-1 1-1 3.3-1.5 10-.7 15.4 7.7 7.4 25.9 31.5 30 33 2.5 1 3.5-.4 5.9-2.8zm13-13.8c1.6-1.5 2.9-3.5 2.9-4.5s-2.7-4.3-5.6-7.7c-3-3.4-8.6-10.3-12.6-15.3-23-28.7-24.7-30.9-28.2-28-2.3 2-2.8 8.7-1.7 11.2a401 401 0 0 0 35.3 42.5c5.1 5 6.1 5.5 10 1.8zm13.3-12.7c2-1.8 3.6-4.3 3.6-5.5 0-1.1-3.7-5.8-7.6-10.3a1201 1201 0 0 1-14.4-17.3c-10.3-12.7-10.4-13.2-18-14-11.8-1.2-10.2 1.4 3 16.8a696 696 0 0 1 13.4 16.4c9.9 12.4 14.2 17 16.1 17 .9 0 2-1.2 4-3.1zm13.5-13.2c6-5 4.8-6.7-14.6-26.8-6.4-6.6-6.9-7.6-11.8-7.6-5 0-6.6 1-6.6 3.4 0 1.5 25.3 31.6 27.2 32.4 2.5 1 2.7 1.2 5.8-1.4zm14.2-14.5c1.6-1.7 2.9-4 2.9-5 0-2.1-5.5-9.1-10.7-13.6-2.4-2.1-5.4-4.3-7.4-4.3-3.3 0-9 1.8-10 3.4-.6 1 7 10.3 14.4 18.1 4.9 5.2 6.8 5.7 10.8 1.4zm12.4-12.4c3.2-3.1 3.1-6 0-10.2-2.4-3-3-3.3-7.9-3.3-9 0-9.3 2.3-2.3 9.8 5.2 5.5 6.7 7.3 10.2 3.7zm13.4-13c3.5-4.6.5-7-5.3-4.4-1.4.6-2.1 2.3-2.4 3-1.8 4.7 4.3 5.6 7.7 1.3zm-222.6 37.7c-12.8 8.2-34.5 23.6-49.2 33.9a46 46 0 0 0 0 12.2c8.4-5.7 35.2-22.8 47.3-32.4.7-3.6 1.5-10 2-13.7zm23.6-37.3c-.4-2.2-1.8-.8-5.6 2.4-5 4.2-47.3 35.6-58.6 43.5-4.3 3-8.3 5.5-8.7 6.6-.5 1-.9 9.5.7 11.6 9.2-7 52.7-36.2 53.4-37.2 4.5-7.2 14.5-19.7 18.8-26.9zm-4.8 94.5s-52 62.4-68.6 93.5c0 0-.1 35.5-.6 56l-2.8.8s-.3-54.9-1-114.5c-1.7-148.8-3.2-184.9-3.2-184.9l-16.8-12.3-.7-5.9s74.8 52.4 111.2 60.7c-26.6 41.8-51.3 58-17.5 106.6zm-61.6 74.6c1-2.5.3-2.4-1.8-2.3-1.6 0-2.5 1.5-2.5 3.1-.1 1.8 0 2.3 1.5 2 1-.2 2.3-1.6 2.8-2.8zm12.5-18.5c7.5-9.2 13.6-15.2 14.7-22-4.7.9-32.3 20.2-32.7 22.2.3 10.2-2 11.5 6.3 7 3.7-2 6.7-4.5 11.7-7.2zm2.3-22.8c8-6.7 37.3-22.4 40.7-30.1 1.3-3.6-2.9-7-3.5-6.6.5.4-42 25.9-57.4 39.2-1.4 1.7-1 4.7-.1 7 1.7 4.5 5 1 20.3-9.5zm-9.7-12.2 34.5-23.7c8.7-6 10.5-8.1 7.3-12.6-1.2-1.8-3-2.9-5.8-1.6-25.3 17.6-27.5 20.6-46.7 33-1.3 3.4-1 8.5 1 10.4 1.5 0 4-1.7 9.7-5.5zm-.1-19c23-16.7 35.4-25.1 36.3-27 .9-2 1.1-9.9-.4-10.8-8.5 6.6-31.4 20.6-47 33.3-.5 2.6-1 8.4.3 9.7 3.2 1.3 4.1-.4 10.8-5.2zm-2.7-60.2c16.7-12.4 32.2-23.2 49.7-34.9 14.7-9.8 17.2-12 11.5-14.9-2-1-5.9-2.6-8.4-1.8-19.6 15.9-41.5 31-62.3 46.5-.5 2.3 0 6.8-.1 8.8-.2 3.2 4 .5 9.6-3.7zm-2.3-17.7c1.3-1.2 10.1-7 19.5-13.8 25-18.1 28-19.9 28-21.8 0-5.3-7.2-6.4-13.8-1-12.1 9.8-41 27.7-41 30.3-.2 3.7-.8 7.4.3 9 1.4 2.1 3.4.4 7-2.7zm7.2-24.6c25.5-17.8 24.5-17 24.5-20.1 0-2.8-2.5-1.6-6.4-1.9-3.7-.2-3.7.8-10.7 6.1-15 11.2-20.4 14.3-22 17.6-.4 1-.8 5.2.1 6.1 1.8 1.8 3.9-.4 14.5-7.8zm1.7-17.7c5-4.1 9-7.2 9.3-8 .7-2-3-5.3-5.9-5.3-3 0-5.5 1.6-13 8.1-6.8 5.8-8.2 4.6-7.6 7.9.3 1.9.3 6 1 6.8 1.6 2 5-.2 16.2-9.5zm-10.4-11.5c5.4-4.5 6.6-5.4 2.6-9.4-3.5-3.5-7.7-4.4-9.9-2.2-1.2 1.6 0 11-.1 12.8-.2 3 3.8 2 7.4-1.2zm115.6-97.9c0-2 9.4-8.8 16.4-10.4 9-2 20.2-1 28.1 3 6.8 3.4 14.2 11.6 3.3 6.6a65.7 65.7 0 0 0-39.3-1c-5.8 3-8.5 3.8-8.5 1.8zm-7-34.4a65 65 0 0 1 15.3 3c13.8 3.7 25.2 1.6 39.7-2.6 3.4-1 5.1 1.4 3 3.1a55 55 0 0 1-25.2 8.9c-18.1 1.6-37.6-7.6-32.8-12.4zm-89-26.7c7.7-3.8 17.2-57 14.2-66.1-9.5 14.5-20.2 21-35.3 18.5-24.8-4.1-25.7-34.7-6.5-37.7 7.6-1.3 17 3.8 18.5 2.6 8.2-3.8 14.6-31.3 16.6-40.1 1.4-8.7 3.6-32.8 4-40.5.6-16.4 0-40.4 0-40.4l-120.7-144.4-264.2-1.1s-.9 202.2-.3 305.6l74.9 71.8 1 116a3821.9 3821.9 0 0 0 243.6-116.2c-9.1-11-8.9-38.6 7.9-49a29.5 29.5 0 0 1 46.3 21zm66.2 24.6c.6-6.6 5.5-12 5.8-18.6 0-1.5 1.2-3.2 5.1-1.1 5.2 2.7 6.7.8 12.5-1.9 10.3-4.7 13.3-4.6 21.2-1.5 5.1 2.8 6.7 2.8 11.5.3 6.6-4.4 13.6-5.8 19.3-3.8 8.7 3 11.7 4.7 16.6 2.3 2.5-1.2 5.6-5.7 6.1-5.3 3.6 5.2 2.8 13.5 5.1 18.2 4 7.9 2.4 13.5-2.3 9.7-9.9-8.2-17.6-8.4-31.8-4.9-8.4 2-12.6 3.7-21.8 2.6-28.6-3.4-30.5-2.6-36.3 1.3-5.7 3.8-10 4.2-11 2.7zm76.8-51.9c-8.3-2-17.7-9.5-24.5-7.5-8.5.5-13.3-9.4-9-14.8 7.5-7.2 19 0 23.4 3.4 9.7 7.4 11 8 15 8 16-.4 13-15.4 5.2-20.9-4.6-4.8-5-8-4-9.1 1.5-2 6.1-.3 11.1 5 9.7 9 9.9 27-2 32.5-5.8 3.2-9.7 4.8-15.2 3.4zm33.6-52a189.2 189.2 0 0 1-24.3-22c-6-7.3-8.3-12-7.5-17.9.5-4.5 1.2-7.3-1.7-8.8-3.1-1.6-6.1-8.5-5.5-12.1.2-1 3.7-.4 5.8 2.2 2.7.5 2.1-1.1 5-3 30.7-20.6 55.2-16.6 84.2-2.5 8.4 4 30.4 20.7 18.6 15.3-.7-.4-8.4-3.7-16.2-7.6-25.1-12-53.2-19.4-76-3.9-3.9 2.8-6.3 4.9-3.2 4.9 12.8-2.5 25.5-7.9 38.7-7 19.6.2 31.5 10 46.2 16.6 16 7.2 19.1 9.6 13.3 15.5-1.7 1.8-3 1.8-10.7 1.2-8.3-.6-9-.4-13.7 2.6a70.7 70.7 0 0 1-42.2 11c-16.7-1.5-18.5-2.8-18.8-.4-.2 1.5 3.3 4.2 8.3 8.7 3.7 3.4 8.7 8.4 9.2 9.2 1.4 2.5-5 1.3-9.5-2zm-4.7-26.7c0-2-3.7-10.5-6-12.7-2-2.1-3.7-1.3-8.1 1.8-3.4 2.4-3.8 4.3-.7 7 6.6 5.9 14.8 7.3 14.8 4zm25 1.2c6.8-3.3 13.6-14.8 10.5-18.5-1.9-2.2-3.5-.1-7 6.1-1.7 3-4.6 6.8-5.8 7.7-5.5 3.8-12.8.2-15.8-8.3-1.8-5-3.8-8.3-6-6.4-3.8 3.5.6 16.2 8.3 19.5a20.6 20.6 0 0 0 15.8-.1zm21-1.9c6.8-2.1 10-5.2 9.4-8.1-.4-2.5-5.3-5.4-8.7-5.4-1.5 0-4.4 0-5.4 1.3-2.4 3.1-6 12.5-6.2 13.5.8 2 3.1 1.1 10.8-1.3zm23.5-50.8c-34-13-60.8-18.2-93.1-4.4-10.4 4.5-16.3 5-16.8 1.3-.5-3 7-12.2 15-16.5a86.2 86.2 0 0 1 72.4-.4c8.5 4.2 32.3 21 32.3 22.6 0 1.7-2.2.4-9.8-2.6zm397.7 380.7c8-4.2 11.8-12.6 6.8-17.6-1.4-1.4-3.5-1.4-5.1-1.4-2.9 0-24.1 5.7-28.2 7.9-2.7 1.4-1.8 4 .8 6.3 1.2 1 2 3.3 2.3 5.8.2 3.3-.4 6.2 1.7 5.7 4.3-1 11.2-2 21.7-6.7zm-30.2 7.8c2.3-4.2 1.3-10-4.8-13.5-3.1-1.6-5.6-.7-8.2 2.9-6 11 9 15.7 13 10.6zm-30.4 5.2c1.3-14 .7-55.5.7-55.5s-7.5 6.4-12.3 6.6c1.7-6 3.6-8.3 6.3-14.2a96 96 0 0 0 2-23.8c-.5-7-5.4-7.2-.3-19.7a26 26 0 0 0-.3-21c-1.4-4-2-6.2 1.9-11.1 3.5-4.6 2-7 2-16.6 0-13.3 0-15.4-4-4.7-6 8.9-8.8 7.2-18 6.1-8.9 20-19.2 40.7-19.6 57.9-.3 10.7-.4 12.4 6.3 35a61.6 61.6 0 0 1 3.5 21.4c.1 9.7.8 13 2.3 18.4 2.6 9.6 13.3 25.3 29.5 21.2zm-308.5 893.9v-20s-31.9 9.8-48.1 3.8c-16.7-4.5-16.7-5.4-16.3-3.6.6 3.3 13 9.8 24.4 12.5 8.1 1.9 24.3 0 32.2-2.4 4.5-1.3 5 0 3.2 1.3-19.6 15.4-44.5 8.3-60.1-4.4-8.3-8.2-14-8.2-9.4 2.7 21.4 43.5 74.7 17.9 74.1 10zm-21.5-29.7 7.2.1s-2.2-12.7-6-16.4c-7.7-7.5-18.6-6.4-25.5 1a47.8 47.8 0 0 0-5.6 15.5l5.9.1c2.2-5.6 11.4-32 24-.3zm-29.1-19.2c-4.2-1.1-13.2 3-17.6 5.9-1.7 1.8-1.7 2 .3 4.6 4.2 5.6 10.7 8.2 11.1 6.1 2-2.9 6.6-15.5 6.2-16.6zm48 14.1c1-3.9-2.7-10.6-8.4-12.9-2.5-.6-5-1.1-4.2 1.6.8 3 2.5 8 4 11.4 1.2 2.5 2 3.8 4.4 2.9 2-.7 3.6-1.3 4.2-3zm312-265v-33.8a446.5 446.5 0 0 0-46.2 57.3zm-522.1-932.7c7.2-3.1 12.5-12.6 10.7-17.4-1.1-3-4.1-.5-7.2 3.8-4.9 7.1-6.1 7.9-10.4 7.9-4.6 0-6.4-1.2-9.5-7.3-2.2-5.9-3.7-6.8-5.8-4.2-1 1.1-.8 2.7.4 7 3.2 11 11.5 14.6 21.8 10.2zm19.7-3.5c8-2.8 9.7-3.7 9.3-6.3-.4-2.8-6.8-6.6-10.4-5.9-2.6 1.6-9.4 12.3-9 14.3 1 1.5 3.6.1 10.1-2.1zm-46.3-4.7c-.3-2.5-.6-4.9-1.3-5.7-2.6-3.1-8-1-8 3 0 3 4.2 6.4 7.7 6.4 2.4 0 2 .6 1.6-3.7zm45.4-20.2c11.4 4.3 17.2 4.8 11-1-8.6-9.6-47.7-20.4-68.7-5-1.5 2.2-1.2 10.4.4 10 17.1-11.6 39-11 57.3-4zm-39.1-32.7c-9.6 3.2-18.6 8.2-19.8 12.9-1.9 7.5 1.5 7.6 14 3.6a60.4 60.4 0 0 1 48.1 5.1c10.5 7.6 13.6 5 11.8-1.3-5.9-21.2-38.6-25-54.1-20.3z" style="fill:#131f67;fill-opacity:1;stroke-width:3.18132639" transform="matrix(.16424 .0002 -.00021 .15103 485.2 807.1)"/><path d="m2924.2 750.5-70.7 70 1 82.8c7.1 13-109-37.1-127.3-52.3 2.2 55.3 77.7 118.3 126.7 141.4l1.4 175.6s19.7-7.7 30.6-11.4c8-2.8 26.5-2.6 32.5-5.5 9.7-120.4 17.9-277 5.8-400.6zm-392.8 86.7c-6.8 0-11 2-10.9 6.4-2-.4 26.1 103.3 39 146.6-25 25.3-51 69-13.8 109.6 8 8.6 22.5 16 36.4 24.3 6.2 6-75.8 58.8-148.7 58.8-23.4-51.3-56-23-74-5-14.2-1.3-66.7-32.5-93.6-50.5-.4-.2-.1-7.7 0-9 1.8 12.2 105.2 38.6 109.9 26.3-3 0-46.4-29.3-58.9-58.3a566 566 0 0 1-28.6-77.5c-5.8 16.6-3.8 39.6-19.8 47.8-4.7-54-81.8-26.5-43.5 26.3-21.5 6.4-40 17.5-60.9 26.8 43.8 59.6 104 99.2 167.7 122.6-8.3 17.9-58 58.2-17.2 105.6 1.8 1.5-39 46-59 80.7-15 26.2-10.5 46.3-8.8 47 55.2-63.4 86.3-116.9 86.3-116.9-.5 7.4 65.5 3.4 64.4-56a169 169 0 0 1 10.5-48.4c100.8 4.8 187.4-31.1 260.6-106.5 0 0 14.9 4.3 24.3 5.8 4.7.7 11.4-2.4 12.5-2.7 4.2-.2 10.3-1 16-4.3 7.9-4.3 15.8-11.9 24.1-18.7 11-8.8 21.9-17.4 25.8-26.5 4.4-10.2 1-22.4-2.8-33.3-23.5-27.6-39 2.1-49.5-1.8-36.1-49.1-66.3-188.1-71.2-189.2-20.2-4-89.3-30.5-116.3-30zm-248 94.8c-2.8.2-12.5 43.4-21 43-36.4-23.3-37.2 25.1-6 23 26.5-2 41.2-44.5 27-66zm-388.7 82.3c1.2 262.7 6 525.4 12.1 788.1 23.8-5.9 41-10.3 64.3-.2 2.2-74.6-4.4-263-2.8-445.6 88.8-69 151.1-145.1 195-244.7l-135.6 63.5s-44.3 63.5-58.5 67.6c-2-9-4.2-116.5-2.4-162.6zm301.2 162.5-26.7 38.5s.7 132.3 2.2 196.1c1.1 12.7 12.6 24.3 3.4 35.7 5.6 0 30.3 171.7 6.9 241.3-4.2 12.5-.3 21.3 6.2 24.1l50.8 51.5a80 80 0 0 0 45 0c48-44 116.3-121 116.3-121l-180.4-170.4c-15.5-41.4-23.7-295.8-23.7-295.8zm657.4 551.9c-130.6 97.6-186.7 236.5-187.6 235.6.5 1.6-.6 7.3 7.6 2.8a2969.6 2969.6 0 0 1 120.7-57.8c20.6-24.8 36.5-48.7 60.1-72.3 0 0 2.6 107.7.5 161.7 21.3 15.8 72 65.4 72 65.4s14-765-16.3-784.4c-29.2 5.6-44 16.3-54.9-17.6-7.7 155.7 0 312-2 466.6zM2569.7 1298c-31.5 25.8-139.8 132-139.6 133.1 28.7 48.2 142.2 144.7 196.6 198.6l7.8 274.9c8-10.8 13.8-20.9 22.5-31.7 0 0-1.4-139.1-4.8-204.4-1-19.3-5.4-34.5-4-36.2-15.3-79.2-21.6-166.7 0-251.6-51.3-44.2-67.7-73.7-78.5-82.7zm8.4 314-.2.1c-26.6 37.9-77.5 120.1-81.1 120-1.1-2.5-52.6-.2-62.3 32.1-8.2 24.1-8.8 46.3-14.8 71.2-103.2-3.4-178.8 29.3-258.4 102.7-22.7.8-42.5 2.7-56.5 7.9-11.6 4.3-17.9 12-25 17.3-20.3 14.6-25.8 27.1-24.8 42.4 1.8 27.7 50.8 31.7 53.3 12.1 2.5 0 48 103.8 52.4 121.5 10.7 28.6 22.2 82.1 23.5 82.2 18.3 1.2 121 30 121.4 19.6 9.7-4.2-35.7-152.7-35.7-152.7 79.3-66.6-8.2-137.7-28.7-135.1 45.2-32.2 97-53.9 154.2-56.7 8.8 31.8 49.9 48 70.5 5.9 0 0 88.9 31.8 88.5 42.3-36.6-5.5-66.7-8.4-103.3-11.9 70.2 38.1 72.3 88.3 86.7 138.3 2-8.8 20.4-47.5 20.4-47.5 23.9 52.8 69.1 16.1 50.5-26.5l56.3-26.1c6.5-3.3-84.2-105.3-166.7-119.8 4.1-7.6 5.8-14.7 10-21 20.8-20.2 36.8-50 5.2-85.5 20.8-29.2 69.3-99.6 66.2-100.8 0 0 1-33-1.6-32zm-678.3 324.5c-.8 0-2.3 244.2-.6 365.4-2 5-3.3 31.8-3.3 31.8l75.1-70.6 2.3-91.2c19.6-4.7 141.9 57.4 132 57 9.4-3.9-56.4-128-133-141.8-1.5-70.4-2.2-150-4.2-171.5-26.7 5.1-68.3 21-68.3 20.9zm667 146.9c-21 6.2-29.8 50.5-23 72 1.2 3.9.4 4.7 3.8.8 8.2-12 5.6-36 20-48.6 38.3 11.5 34.5-38.2-.8-24.2z" style="fill:#e2cf00;fill-opacity:1;stroke:none;stroke-width:3.18132639" transform="matrix(.16424 .0002 -.00021 .15103 -278.5 653.3)"/><path d="m-2570.8 1359.2 99.5-150.2c118.7 39.7 240 40.4 362.4 20.8l109.5 129.4h-44.7l-69-98.4c-25 5.8-50.9 8.3-76.7 11.9l32.2 86.5h-35l-25.4-85.6c-59.5 2.3-100-3-141.2-7.8l-14.9 93.4h-35.7l24.1-96.4c-28-5.3-56.4-9.8-79.9-17.4l-73 113.8zm114-88.4 41.2 11.2-20.1 77.2h-75.6zm106.6 88.4 11.6-68.2c27.8 5.5 64 6.6 102 6.2l18 62zm195.4-63.2 32.6-8.6 48.8 71.8h-59.4zM-2630 861.8c158.8-184.7 137.7-378.7 50-535.1l18.6-19.2c101.5 166.7 123 403.9-64 587.6-2-11-4.6-33.3-4.6-33.3zm633.4-207.2c22.9 38.9 36.8 78.2 61 117.2l-57.3 77.4zM-2679.9 777c-1.5-122 .3-369 .3-369l53.6-41c64.2 78 99.2 283.1-16 419.7-8.4-6.1-31.2-3.6-38-9.7zm761-24.6c-147-248-72.3-428.8 69.4-589.3.4 12.3 1.4 24.7 2.5 37-121.7 139.3-170.3 345.2-51 531.6zm-266.2-36 67-91.3s12.6-36.2 23.3-47l12.3-10.8c4 4 11.9 9 11.6 13.4-.2 4.3-6.6 27-6.6 27l-78.3 114.5s-23.7-4.2-29.3-5.8zm356-442.8c2.2-2.4 28.8 8.7 28.8 8.7l1.7 374.8-53.2 34.2c-15.5 7.9-136.1-238.2 22.8-417.7zm-560.4 157.9c24.2-33 49.7-61.6 73.2-91.9 6 2.1 22 2.5 22 2.5 1.7.9-5.3 25.1-22.7 41.8-17.5 17.8-59 66.6-60.3 91.1-.3 7.6-17.3 16.3-17.3 16.3l-12.1-12.8c3.7-18.7 9.5-33 17.2-47zm-151.1-143.8 53.3-69.2 5.3 183.8zm174.5-466.1-105.6-132h51.1l63 93.4 75.2-8.6-26.5-84.8h31.2l22 83.4a1776 1776 0 0 1 135.2 9.1l22.5-92.5h31.8l-28.9 96.8 85 22.3 75.8-119h37.6L-2004-156.7c-140.4-42.2-253.1-37.3-362.1-21.8zm304.3-55.3 24-76.7h72l-55 87.7zm-174-18.6-15.3-58h126.8l-16.3 64.8a572.4 572.4 0 0 0-95.3-6.8zm-152.1-58h50.6l19.7 60-29.2 3.3z" style="fill:#d40000;fill-opacity:1;stroke-width:3.18132639" transform="matrix(.16424 .0002 -.00021 .15103 485.2 807.1)"/><path d="M2162.6 693.4 2285 839.6c25.4-9.1 153.8-23.8 230.8-6.2a3020.2 3020.2 0 0 0 42.6 153.5s-4.8 5.6-8.3 9.2c-49.1 56.7-14.3 111.4 30.7 129.2-8.2 16.9-94.4 58.9-146.9 53.9 0-.6-16.1-38.5-49-25.7-11.2 4.4-15.9 12.8-24.6 21-31.3-9.4-72.7-30-94.3-52.7 40.3 20 80 30.9 119.8 25.6 0 0-5-4.1-10.5-6.7-3.4-1.6-11.5-6.4-18-10.9-18.6-12.4-30.9-27.5-43.5-53.2-14.6-26-17-54.1-25-78.9-4.3 12.7-6 46.2-17.1 53.1-2.9 2-3.4 1.4-5.6-5.7-8.4-25.8-39.3-22.5-49.5-4.2-5.2 15.8-4.4 22.7 2.1 37.3l-18.7 10.4v3.1l-11.6 5.5-2.4-1.6c-53.6 25.9-106.1 52.8-160.8 77.6 0 0-29 48.2-55.7 67.4l-1-163.7-78.7-71-.4 38.9 5.7 6c1 273.9.1 543.4.3 792.1l.4 229-4.8.3-.3 26.7 5.4 1.2-.7 37.7-2.8.2-.4 23.8 4.3.7-.1 134.8-4.3 5.4.1 38.5 82.2-78 1.8-88.9c64.9 12.2 132.6 58.8 132.6 58.8-11.4-74.4-90.2-135.7-135.5-148l.1-176.2s-33.6 14-50.3 16.2c-8.2 1.2-11.4 0-15.3-6-2.9-4.3-3-8.3-.4-17.3 1.3-4.1 1.2-5.2-.3-9.5-2.1-5.9-2.1-8.5 0-19 2.1-6.1 1.2-9.4-1.1-15-2.5-6.2-2.7-7.3-1.6-10.8 2.7-9.2 2.9-10.7 1.4-14.8-2.8-8.1-2.9-14-.3-19.1 12.2-20.4 39.3-15.4 54-14.6 7.5 8.3 12 13 12.7.9 5.2-14.4 25.5.3 35 6.4 80.6-108 120.4-254.3 19.2-437.5l-56.2 45v-56.3c74.7-48 158.7-157 195-243 12.1 14.2 26 28.1 39.1 42.4l-8.6 14.3-2.5-1.4c-23.1 44.2-86 127.7-87 126.8a1263 1263 0 0 1 61.6 130.8l4.6-2 4.1 13.2-8.1 2.4c27.5 90.4 28.4 174 7.7 251.1l4.9 20.5s29.1 28.2 37 36.5l43.4 42 26.6-26-1.6-2.2 233.1-231.4 14.6 13.9c-142.8 143.8-390.8 392-390.8 392l-8.6 1.3c-4.9.7-12 1-16.7.7-7.6-.5-8.5-.4-14.6 2.5a58.7 58.7 0 0 0-20 17.2c-3.5 4.1-6 6-9.8 7.3-48.6 29-4.6 87.4 36.7 56.6a769 769 0 0 1 70.1 192c0 .5-5.4 2.4-5.4 2.4l-109 161.5h42l4.3-7.4h-31.4l100.2-144.8c127.5 34.7 244.5 39.7 363.3 19l103.4 125.8h-41l5.8 7.4 53 .9-121.4-143.4c-43.5 11.6-158.3 21-230.3 8.8-11-53.5-29.1-111.6-42.6-157.9 68.7-53.8 17.2-124.7-25.2-134.6-2-4 86-57.4 148.7-53.7 18 43.1 57.2 36.7 71.4 4.6 26 9.6 59.7 19.1 86.5 40.4a591.5 591.5 0 0 0-111.2-12.6c64.8 25.1 83 78 91 128 1.4 8.3 5.8 19 5.8 19 5.5-18 10-36.7 21-52.1 5 17.6 23.3 31.4 41.9 20.9 10.7-7.8 14.5-21.2 11-39.7l-1.4-8 14.4-7.8 2 1.6s15.7-6.7 23.5-10.5c1.3-.6-1.4-3-1.4-3l145.6-68.7c-.6-.3 36.7-51.2 58-70.8.7 61 .6 86 .5 158.4l8.3 8c7.3 7.1 23.2 21.9 59 54.8 8 7.4 13.7 11 13.7 11l-1.1-1065.8h-1.2v-20.5l1.7-.1v-53.4l-1.5-.8V915l2-1.5.1-144-2.3-.4-.1-34.5-81.2 85.8.6 81c-36.2-4.7-81-27.9-111.9-46.6-10-6-15.5-7.7-15.2-4.2 4.4 48.2 74.1 121.9 127.7 141.2l.1 181.3s12.7-6.3 20.4-9.6l1.2 3.2 17.3-7.1 1.4-3.8 15-1.9c.1 3.1.6 2.7.6 2.7 13.4 3.7 19.3 12.8 14 23-2 3.5-2.3 8.3-.8 9.6 5.8 9.1 7.3 17.2.3 25.8-2.7 4.4-2.6 7 .1 11.6 7.3 14.6 3.1 13.6-2.3 22.3-1.2 6.6 6 10.8 3.6 17-1.1 4-5.4 8.8-8.3 11-3.4 2.5-6.2-2.1-6.2-2.1s-10.8 4.6-18.6 6.1c-7.7 2.5-20.8 7-25.4-3.4-2.6-5.9-.5-11.3-.7-17.8l-11.2-1.3-.4 30c-6.4 3.4-32-9.7-32-9.7-109.4 142-106.4 299.4-25.2 431.2.8 2.1 57.3-38.6 57.3-38.6s-.2 33.4.3 51.5a746.7 746.7 0 0 0-190.5 237.6l-30.7-36.4c5.3-4.7 5.5-12 5.4-17.7l22.2-33.2.2-8.6 58-81c.9 5-59.8-108.6-67.9-145.5l4-1.1c-27.2-103-21.6-175.2-2-259.2l-5.6-5.5-76.4-76.3a4018 4018 0 0 0-18.6 17.3c-1 .9-5.6.3-6.5 1.2a3561 3561 0 0 0-117.2 115c-1 1 .7 5.1-.3 6.2-38.4 39.4-78.1 77-116.9 116.3l-14.2-13.5c137.4-137.3 396.3-392.4 396.3-392.4s1-2 2.9-2.1a88 88 0 0 0 20.7-4c8.5-2 10-2.6 13.5-6.3 2.2-2.3 5.8-5.5 8-7a564 564 0 0 0 25.7-21.7 36.5 36.5 0 0 0 13-26.8c-.2-16.5-11.1-30.6-25.2-32.6a42.2 42.2 0 0 0-23.1 6.2c-4.5 3-6.6 4.3-8.5 3-28-56.9-55.3-128.4-66.9-187.4-.6-3.7-.2-4.8 2.8-9.5l9.1-14.3c25.1-36.2 54.2-80.3 81.5-120l13.3-19.3 6.6-11H2722l-5.3 8.6h35.5l-105.8 152.3c-195.1-63.7-355-23.3-358.8-22.5L2182.1 702h48.2l-5.9-8.5zm95 0 5.3 8.5h50.6l-2.8-8.5zm84.3 8.5h31.2l-1.8-8.5h-32zm55.9-8.5 2 8.5h126.8l2.2-8.5zm155 8.5h31.8l2.4-8.5h-32zm62.9-8.5-2.7 8.5h72l5.4-8.5zm308 58.8 1.2 23.6-52 54.7.1 76.4-15-3.5-.7-79zm-14.5 50.3c.5 23.4-3.3 45.8 2.9 69.7 3 11.8 9.2 25.5 10 39.4l-17.2-.4c-2.1-7-3-14.7-5.6-23.4-6.3-21.2-11.4-43.7-6.7-66.2zm-373.9 38.2c.6 1.1 2.7 11 4.6 20.2 9 50.4 21 87.7 33.3 125.8 15.6 47.9 38.8 108.2 61.3 136.1 3 3.5 4.4 7.5 3.3 9.2-1.8 3-11-1.1-17.1-7.6a99.5 99.5 0 0 1-11-16.8 560 560 0 0 1-19.4-39.5 886 886 0 0 0-9.2-23.5 574 574 0 0 1-19.8-56.5c-5.4-17.8-10.3-36.5-16.4-55.3a678.9 678.9 0 0 1-21-83.3c-.8-4.2-2.1-9-1.6-10 3-2.3 11.5-1.4 13 1.2zm5.5 1.9c-1-.8 9-1 12.1 1.7 1 1 2.6 6.8 4 14.4 9 46.3 22.5 94.2 38.2 139.6 12.5 36.2 26.2 71.1 43.2 99.4 5.3 9.4 12.6 19.4 21.8 30.3 5.1 6 5.5 7 4.2 8.6-1.8 2-4.7 1.8-10.5-1a47 47 0 0 1-16.6-16l-6.3-9a646.7 646.7 0 0 1-54.2-126.5c-14.2-43-27-86.4-35.6-136.5 0-1.7-.2-3.3-.3-5zm31.6 6.5c2.2 2.3 3.4 6.5 5.3 15.5 10.5 43 19 81.3 31.4 116.6 6.7 19 12.4 37.9 19.6 55.8a304.6 304.6 0 0 0 42.4 76.2 101 101 0 0 0 24.5 21c6 3.5 6.9 4.4 6.5 6.5-.6 1.8-6.4 2.6-8.3 2.5-9.4-1.7-23.3-9-27.3-14.4-28.8-31-49.4-82-64.4-123.8-25.8-72-46.5-161.8-42.6-159-.3-2 10.3.3 12.9 3.1zm12.3 2.6c1 0 2 .2 3.2.5 5.4 1.5 6 2.2 7.4 8.2 9.2 41 19 77.3 29.8 111.7a640 640 0 0 0 40.2 102.8c13 25.4 29.5 42.8 47.3 51.7 5 2.5 9.6 5 10 5.4.5.5.4 1.8-.2 3-1 1.7-2 2-6.4 2-8-.1-13.6-2.6-22.3-8.4-22.6-15.6-42.4-51-51.1-71a803.8 803.8 0 0 1-29.3-77.6c-15.9-49.8-25.7-82.7-33-124.6 0-2.4 1.7-3.7 4.4-3.7zm339.2 67.1-.1 14.6c-57 3.8-115.4-20.3-162.4-42 35.4 47 73.1 88.6 162.4 97.2l.1 15c-116.2-1.6-198-119.3-193.8-148.7 47.9 31 134.2 66.6 193.8 64zm-320.7-61.6c2.7.1 6.5 1.3 8 2.8 9.5 35.4 16.4 74.8 32.1 114.3 19.3 48.6 30 91.4 65.8 131.4 11.1 11.5 33 11.1 33 11.1s-2.8 6.2-6.5 7.2a39.7 39.7 0 0 1-18.9-.3c-20.7-8.7-36.5-30.9-44.7-45.9-7.7-11.2-26.4-57.5-41.8-104.7-16.8-51.4-30.6-104.9-29-115.7a4 4 0 0 1 2-.2zm19.1 6c1.4 0 3.2.5 5.4 1.5 2.3 1.1 3.3 1.8 4.6 6.2.7 2.9.6 7.3 2 14.5 8 37 19.2 67 30.3 96.4a583.5 583.5 0 0 0 35.7 79.8c7 12.4 14 24 18.4 28.5 12 12 32.2 12.5 38.2.7 3.4-6.8 2.7-17.5-3.9-23-5-5-16.6-2.9-17 3 0 1.6 3 .9 7 .4 11.7-1.4 15.3 19.2.4 22.6-19 4.4-32-21.2-15.3-36.9 28.3-19.2 49.9 7 43.2 32.3-6.5 14.9-17.3 22.5-31.6 23-18.5.6-26.1-5.1-45-32.6-21.7-34.8-31.2-68.8-46.4-107a465.5 465.5 0 0 1-28.7-107.9c.4-1 1.3-1.5 2.7-1.5zm18 5.9c1.6 0 5.1 1 6.7 1.9 1 .6 2.3 1.9 2.3 1.9 25.4 92.8 46.6 148.4 68.2 187.7 0 0-.3 7.2-1.7 9.3-2.6 3.7-3.9 2.7-7.2-3a1009.9 1009.9 0 0 1-38.6-85.4c-14.2-35.2-26.8-71.7-32.2-106.4.3-4.5-.7-5.7 2.5-6zm171.6 53a6.5 6.5 0 1 1 0 13.1c-3.6 0-6.5-3-6.5-6.5 0-3.6 3-6.5 6.5-6.5zm-528.8-1.1c-7.5 10.3-13.7 47-21.6 47.5-8.6-.1-19.1-5-25.9 2.8-8.2 9.4-3.2 20 7 25.7a35.3 35.3 0 0 0 20.6 1.1c24.7-8.3 34.1-48.3 20-77.1zm553.5 9.7a9.4 9.4 0 1 1 0 18.8 9.4 9.4 0 0 1 0-18.8zm-553 4.4c8.4 21.2-1 46.6-11.2 55.2-9.5 7.8-24.4 8.9-32.8 1.2-7.1-6.6-4-22.6 9.2-21.4 4.4.1 9.7 4.2 12.7 8.4 8.6 1 18.5-42.6 22-43.4zm585.8 5.2a10.6 10.6 0 1 1 0 21.3 10.6 10.6 0 0 1 0-21.3zm37.7 7.5a10.8 10.8 0 1 1 0 21.7 10.8 10.8 0 0 1 0-21.7zm-350.2 49.3c1.6 0 2.8 1.6 3.8 4.7 2.2 6.5 2.2 7.2-1.3 11.5-33.3 46.2-3 93.4 45.4 98.5 4 .3 6.1 5 8.3 10.3-.3 2.5-.3 2.5-11.3 2.7-7.2.1-12.9-.3-16.5-1.3a88.3 88.3 0 0 1-46.1-34c-9.8-16.4-11.4-33.3-5.4-55.8 3.8-14.4 8.8-24 16.4-31.9 3-3.1 5-4.7 6.7-4.7zm316.2 5.1.6 158.5-17 6.1.8-168.5zm32 6.2c21 52.2 21.9 100 2.9 143.5l-19.2 2.8c26.3-61.3 15.1-105.2.3-147.6zm-1008.3 8.7 68.2 64.4 2.4 717.5-10.9-3.8-4.3-705.8-55.4-50.8zm666.5 2h.3c1.9.3 3.5 2.6 5 7 1.9 5 1.8 5.2-.2 10.3-9.4 23-1.7 44.8 21.4 51.7 5.5 1.7 6.4 2.6 9.6 9.4 2.1 4.5 3 6 2.3 7-1.2 1-4.2 1.3-12.9-.6a55.4 55.4 0 0 1-31.2-79.2c2-3.4 3.7-5.3 5.3-5.5h.4zm-274-2.8s7.2 25.4 6.5 31.1c-1.8 11.2-17.7 29-31.5 35.4-12.8 5-32.2 2.5-40.3-6-29.5-34.5 25.5-69.1 39.3-33.2 8.3 23.5-25.5 29-27 11 0-4.7 1.5-6.1 5.9-9.2 3.9-2.7 3.4-5 0-5-12.7 4.6-13 16.4-7.2 23.8 11.5 12 25.7 5 35.5-3.8 13.2-12 15.8-29 18.8-44.1zm285 26.2c.6 0 14.1 32.2 15.9 36.8-.5 3.3-4 3-10-1.2-6.1-4.2-8-7.3-10.5-17.2-.8-3.5-2.1-16.3 4.5-18.4zm-274 13.6c3 0 6 11 4.6 16.5-2.4 9.7-27.8 26-45.6 29.4l-8.5 1.6c-3.7.7-8-1.4-12.5-6-3.1-3.2-4.6-6.4-3.9-7.2.7-.6 8.8.8 15.8.7 19.4.3 34.3-13.7 45.9-30.3 1.7-2.6 3.6-4.7 4.1-4.7zm-385.8 8s13.1 12 20 18.8c-.7 31.6-12.4 66-12.4 94.2.3 24.6 16.2 45 17.8 66.5 1 13.8-3 34.4-9.9 50-6.4 14.5-9.7 30-9.7 45 .8 35 26 73.2 17.1 107.7-8.3 32.5-17.7 51.3-15.2 68.5 4.8 33.3 22.5 62.8 17.8 90.5-4.4 25.8-16 51.5-14.8 74.8 1.5 26.8 11.5 49.3 14.3 73.8 1.9 16-2.6 40.7-2.6 40.7l-18.4 1.6c10-37.8-5-71.9-10.8-108.1-4.9-30.9 9-55.4 13-81.8 2.6-16.3-.3-31.9-8.4-52.7-16-38.5-10.2-63.5 1.3-97 14.3-35.7-5.4-63.9-10.3-98-2.5-29.5-.5-50.3 10.5-76.5 8.3-25.2 10.6-39.8-1.7-64a81.5 81.5 0 0 1-9.8-44.4c4-40 14.8-62.4 12.2-109.5zm394.5 16c2.9 0 4.3 2 4.3 6 0 7.5-11.1 17-30.7 26.2-10.2 4.8-16.1 5.5-22.1 2.7-5.6-2.6-5.3-5 .8-6.7a91.8 91.8 0 0 0 38.7-21.8c4-3.5 8-6.4 9-6.4zm-88.8 5.1c50.6 54.3 100.3 82.2 138.3 95.2l-6 14.2c-49.9-19.3-100.8-46.2-144-104zm97.6 8.9c1.3 0 6.5 6.5 6.5 8.3 0 1-1.9 4.3-4.2 7.2a39.8 39.8 0 0 1-14.7 11.1c-11.3 6.2-18.2 7.7-23 5.1-5-2.5-3.3-4.7 8.9-11.9a140 140 0 0 0 18.7-13.3c4-3.6 7.4-6.5 7.8-6.5zm-134.2 8a309 309 0 0 0 157.8 114.7l-10 13.3c-57.3-19.8-113.5-55.5-164.8-118.5zm145 7c2 0 6.7 5.3 6.7 7.7 0 1-1 3.2-2 4.6a99.2 99.2 0 0 1-18.8 14c-3.8 2-6.7 2-11 0-5-2.5-4-4.6 4-9.9 4-2.5 10-7.3 13.5-10.5a31 31 0 0 1 7.5-6zm-167 4.1c-1.2 1.5-61.2 138.8-188.2 236.1l-.6-22.8c70.4-55.7 121.5-132.1 160-198.8zm179 9.9c2 0 3.3 1.2 4.6 3.8 1.6 3-.1 5.8-7.2 11.2-4.5 3.3-6.1 4-9.8 3.9-9.4-.2-9.2-2.4 1.2-11.7 5.4-4.8 8.7-7.1 11.2-7.2zm245.2 6.8 26.5 2c7.1 5-103.5 77.3-180.1 70.8l2-17.3c67.3 2 153.5-52.4 151.6-55.5zm-227 6.8c6 3.4 13.6 7.4 11.7 8.7-2.8 1.8-20.7.6-24.9-1.6-3-1.6-2.9-2.5 1.4-7.3 5.2-5.9 6.1-3 11.8.2zm-236-4.4c-42 74-91.9 141.6-149.7 185.6l-.8-39.2c55-42.3 96.7-119.7 96.8-120zm525.4 4.8 12.8 7.5c-80 74-166.4 105.9-249.4 97.9l6.7-15c134.7 10.6 224.2-89 229.9-90.4zm19.4 2.6s4.3-.6 3.9.3c-26.6 26-63 53.8-87 69.3-113 116.2-209.8 207.8-308.4 311.3l-15.7-16.5 14.3-15.1c0-29.8 36.5-63.2 58.1-89 9-10.1 26-36.3 24.1-47.3-.7-2.5-.7-3.5-.7-3.5 34.2-6.8 42.4-34.6 43.1-59.1a159 159 0 0 1 9.3-44.8c155 12.4 254.7-101.6 259-105.6zm-270 17.1c17.6 0 31 13.9 30.9 33.6-.2 8.2-3 14.5-14.3 36.3-10.8 18.6-12.2 30-16.5 51.5l-11-9.9-20 18 .3-26.2s6.9-8.8 18-21.4c14.2-15.7 27-36 26.5-47.3-.4-11.4-12.4-20.6-24.7-13.2-10.7 7.5-15.6 21-21.9 61.3-1.1 7.2-2.2 15.6-2.7 17.4-1.6 5-17 19.6-17 19.6-1.4 0-7.5-29.6-7.5-29.6l-15.6 2.6a206 206 0 0 0 41.2-68c8.4-15.4 19-24.5 34.4-24.7zm-339.4 6.3s-31 64.5-85.5 106.5l-.4-25.3c31.7-24.6 55.8-66.9 55.8-66.8zm747.6 1.6c-107.8 111.7-248.5 317.2-74 606l23.1-26.6c-140.6-261.2-41-396.6 51.6-532.4zm-583 9.2c31.6 22.5 64.5 44.8 107.1 59-2.2 7.5-60.8 56.8-18.8 102.4 1.8 2.4-2.7 8.2-9.5 16.4-20.1 27.4-40.2 47-57 77.9l-.6 58-16.8-14.8zm578.8 5.4.7 33c-160.1 194.8-142.1 370-51.6 531.5l-17.3 17.6c-148.4-255.4-55.8-448 68.2-582.1zm-395.2 19.6c-7 18.6-38 50.6-38 50.6s4.2-31.1 6.8-41a64 64 0 0 1 10.7-22.4c12.5-13.7 25 1.8 20.5 12.8zm-212.5-17.5 3 260.8-22.5-22.7-3.3-199.5zm-30.4 51 4.5 177.1a1067 1067 0 0 0-54.7-110.6l50.2-66.5zm177.8 55.4s3.5-2.9 8.9-9c11.6-11.9 12.7-12 11.6 4-.4 6.1 0 14 0 14 6.8-4 22.9-23 27.5-19.6 3.5 3.3 6.3 10.2 6.4 20.9-.4 21-12.3 40.2-31 46.5a49.2 49.2 0 0 1-50.7-81.7c3.5-3.8 13.7-10.8 18.6-9.4 6.1 11 6 23.4 8.7 34.3zm515-18.8c3 8.3 6.9 16.4 17.4 20.1-1.6 253.6-.4 702.6-.4 702.6l51 47.9-.3 20.9-67.6-61.9s-3.6-529.5 0-729.6zm50.7 11.8c1.8 24.5-2.4 50.3 1.8 75.5 4.2 17.4 10.5 33.1 11 50.3a120 120 0 0 1-7.2 46.5 106.8 106.8 0 0 0-6.3 33c-2.5 21.3 4.4 40.5 9.7 57.5 7 22.5 5 49.6-6.2 85.5a70.2 70.2 0 0 0-4.2 30c1.5 24.6 10.3 47.9 14.8 72 2.4 13.8 0 31.9-8.6 62.5a206.8 206.8 0 0 0-6.5 38.7c0 8 2.6 23.2 5 29.8 11.9 31 12.4 36.5 13 55.2.1 14-3.9 28.1-8.9 40.4-8.2 19.7-2.8 39.9 0 62l-20.3-17.4a74.9 74.9 0 0 1 1.7-50.7c7.9-22.1 9.9-24.2 9.8-36.9-.2-16.8-9.8-36.7-13.8-48.6a98.9 98.9 0 0 1-.1-64c3.5-10.9 8.5-32.3 9.6-41 2.1-16.7.5-30-7.9-63.5-4-16.4-5-22.7-5.2-39a176 176 0 0 1 6.7-49c7-29 7-46.3-2.1-73.1a120.8 120.8 0 0 1-7.6-55 88 88 0 0 1 8.6-29.3 91.5 91.5 0 0 0 3.6-63.4c-11.2-42.5-11-64-9.9-102.4zm-57.2 13.9c-1.7 173.8 0 372.7 0 372.7s-51.4 36-51.2 34.2c-66.3-109.4-91.6-270.5 24.2-415.9 0 0 18.7 8 27 9zm-783 41.4c94 175.3 106.1 352.4-49.1 534 5 16.1 4.2 31.1 1.7 45.8 30.2-23.6 273-266 68.5-603.5zm478.5-14.3 46.1 2.7 3.1 39.7-15 14.8-.4-15.6c-.2-9-1.5-16.8-2.3-16.5-.8.3-1.6 10.7-2.3 22.1l-.7 17-5.1 5.2c-7 6.9-8.3 6.3-8.6-3.3-.6-21-.5-22.5-2-21-.9.9-1.4 8.1-1.6 19a127 127 0 0 1-1.3 18.3c-1.2 3-10 10.9-12.2 10.9-2.1 0-2-3-2-16.1 0-11-1.2-17.1-3-13-.4.9-1.1 11.9-1.3 20.8-.1 8.9-.7 17-1.3 18-1.9 3.6-11 11.3-12.5 10.7-2.3-1-2.9-7.5-2.8-18.4 0-5.4.9-9.9-1.2-11.4-2-1.4-2.4 4.8-1.9 20.5l-.1 17.2-5.8 6.3c-9.2 9.4-9.8 9-9.8-7.3.4-13 0-18.6-2.6-17.6s-1.5 7.3-1 20c.4 11.4.3 17-.5 18.5a52 52 0 0 1-6.6 7.4c-3 3-6.7 7-7.2 7-.7-13.6-1.8-43.1-1.8-43.1l-48.1-2.1s9.8-11.7 14-14c2.2-1.1 5.6-1.3 17.6-.8 8.2.4 19.3-.3 20.3-.7 3.6-1.4-4-2.6-14.6-3.3-7-.5-8.9-.3-16.7-1.5l7-7.2 5.2-5.2 15.4.5a81 81 0 0 0 17.2-.3c9-1.8.6-3.9-9.8-4-10 0-15.8 0-15.8-2.2s11.3-12.5 14.5-13.1c1.7-.4 10-.7 18.3-.8 14.4-.1 19.7-.3 18.9-2.7-.8-2.4-10.4-1.7-16.8-2-17.6 0-18.4-.7-6.4-11.2l5.9-5.2 11 .4c16.7.4 24.8-.2 24.8-1.8 0-1.5-10.8-2.8-20-2.8h-10c4-5.3 8.5-9.7 13.3-14.4l15-.3c10.8.1 17.5.6 17.7-1.4.2-2-4-2-9-2-6.7 0-14.7-.7-15.8-1.7-1.2-1.2 1-4.3 5.7-8.6l4.9-4.4zm-456.6.5c129 210.8 82.5 438.5-61.4 580.2l-4.2-27.7c135.8-165 159.5-335.6 49.6-536.2zm240 28.3c-23.2 34.9-58.6 69.2-72 97.6-2.7 3.2-3.6 10.5-7.9 11.9-2.1 0-2.8-4-2.3-13.3.4-7 1-9.4 4.5-16.2 18.2-33.4 39.4-57.4 62.8-89zm5.4 3.4 21.4 1.4c-4.8 15.1-11.2 26-18.8 35.7-9.7 12.6-21.4 25.3-35 40.8-19.7 22.5-29.6 45.4-28.7 55.4-5 5.2-8.3 8.8-14.6 14.1l-12.5-11.5c9.3-47.4 54.1-91 88.2-135.9zm261.9 19.3 7 .4c23.6 1.4 38.5 2.8 39.3 3.9.5.6 1.2 4.2 1.6 8 .5 5.8 0 9.7-3 23.5-2 9-4.3 17.1-5 17.9-2.8 2.7-3.9 0-5.2-13-.7-7.7-1-13.3-2-12.7a53 53 0 0 0-1.3 14.9c.8 16.2.7 20.1-4.3 25-8.9 8.6-9.3 7.7-10-7.5a82.5 82.5 0 0 0-2.2-16c-2-1.8-2.6 7-2.6 21.7v15.7l-4.2 4.6c-5.4 6-7.2 6.8-9.2 4.8-1.3-1.2-.8-4-.8-13 0-10.5-1.8-16.6-3.9-14.5-.3.3-.4 10.6-.5 19.4 0 9 0 16.8-.2 17.5a39.1 39.1 0 0 1-12.1 12.2c-2.1 0-3.8-11.6-3.8-21.1 0-6.3-1.4-7.5-2.7-4-.3.9-.6 9.8-.6 17.8v14.5l-5.9 6c-7.8 8.2-9.1 7.7-9.1-3.4 0-9.6-.7-14.7-2.6-14.7-1.1 0-1.4 4.6-1.4 15.3a97 97 0 0 1-1 16.3c-.6 1.5-3.2 5-5.8 7.5a20.9 20.9 0 0 1-5.8 4.8c-1.1 0-2.6-9-2.2-13v-12.7c-.2-14.8.8-14.1-22.8-14.9-27.5-.8-28-1-19.6-9 7.8-7.7 6.7-7.4 25-6.2 14.7 1 16.5 1 18-.5.9-1 1.4-1.9 1-2.2a78 78 0 0 0-12.4-1.1c-18.1-1-19.7-2.3-12-10l4.3-4.4h18.6c12.6 0 21.1-.6 21.6-1.3 1.2-2-3.8-2.4-15.7-3.1-6.4-.4-12.5-1-13.4-1.2-3-1-2-4 3.2-8.8l5-4.6h16.3c15.3 0 22.7-1 22.7-3 0-1.4-3-2-10.8-2.1-11-.1-18.5-1.2-19-2.7 2.7-5.2 6.5-8.2 10.8-12.5l16.7.6c16.8.6 22 0 22-3 0-1.5-7.1-2.6-16.4-2-6 .3-13.3-1.1-13.3-3.2 0-1 2.4-4 5.4-7l5.4-5.3 16.3.6c9.2.4 18.9.3 19.6-.2 2.7-1.8-3.6-3.3-13.8-3.9-15.9-1-17-2.1-8.5-10zm-570 8.7c84.8 151.7 72 294.5-18 416a81.9 81.9 0 0 0-33.3-10.5l-2.3-366zm605.7 59.3c1.7-.3 1.7 2.5 1.2 8.4-.4 4.7-1.1 9.7-1.6 11-1 2.5-1.8 2.7-10 1.5-9.4-1.3-9.2-3 1-13.2 5-4.9 7.9-7.5 9.4-7.7zM2177 1448l16.7.1s.9 28.4 3.2 44.8l36.3 1.7-14.1 14.7-27.6-1s-8.3-40.2-14.5-60.3zm432.5 17.1c5 0 18.5 2.3 20 3.8 1.3 1.3 1.3 4.3.2 22.6-.3 6.6-.7 20.8-.8 31.5-.2 19.4-.2 19.5-2.4 19.8-3 .4-3.3-.6-4.1-13.4a40 40 0 0 0-2.3-13.8c-1-.3-.9 6-.9 19.2v17c-2.9 2.3-5.6 5.5-8.9 7.2-2 0-3-3.2-4-12-1-8.9-2-15.1-3.2-13.1-.3.4-.2 10 .4 18l1 14.2-6.4 6.5c-6.5 6.6-7.3 7-8.4 5.4-2.4-6.5 1-36.5-4.9-40.3-1-.5-8.7-.7-17.8-1-15.3-.7-24-1-26.2-2.8-1.3-1.1 6-9.5 9.7-11.2 2.7-1.2 5.7-1.3 18.3-.4 14.7 1 22 .8 20.1-1-.5-.5-8-1.6-13.8-2.2-11.7-1.1-15.9-2.3-15.9-4.5 2.8-4.9 6.1-7.7 10.1-11.9l5.7.6 16.5 1.8c5.9.7 17.8.8 13 .4 1.6-1.6-4.5-3.2-13-4.3-16-2-17.4-3.7-9.4-11.6l5-4.9c8.3.6 16.8.9 25.1 2.1 6 1 9.4.7 9.4-1.4 0-1.4-3-1.4-10.4-2.8-2.7-.6-16.4-.4-16.6-4.4 3.2-4.5 9-12.7 14.9-13zm-372 34.5c2.5-.2 2.6 5.8 2.9 21.4.3 17.2.6 20.1 2 21.6 1.4 1.4 5 2 20 2.7 23.1 1.1 23.7 1.5 15.6 9.3-5.7 5.5-6 4.8-10.6 4.2-12.2-1.4-30-1-30.7 0-1.2 2 0 2.4 11.2 3.3 13.6 1 17.3 1.5 17.3 3.8 0 1-2.3 4-5.1 6.6l-5.1 4.8-14.3-.6c-15-.6-22.8-.8-22.8 1.2 0 1.3 8.6 2.6 22.2 4 3.6.3 7.2.4 7.4 1 .4 1.4-6.4 10-10.7 13.1-3.4 2.6-4.6 1.2-19.7.8-15.3-.3-16.7.3-13.8 3.1.7.7 3.2.8 9 1.2 9.4.6 14 2 14 4.4 0 2.2-8.6 11-12.6 12.9-3.5 1.7-5 1.7-12.7.7-6.2-.9-7.3-2.2-7.2-8l1-37.2c1-34.6 1.2-36.4 5.8-35.7 2 .3 2.4 2.6 3 14.4.5 12.4 1 15 3.1 15 .8 0 1-5 .4-17-.7-18.8-.8-21.5 5-27 2.5-2.4 4.5-4.3 5.7-2.5 2.4 7.3 1.7 15.4 2.4 22.8 0 7.4 2.8 9 3.5 1.9-.3-11.3-.4-21.4-.5-33.4l7-6.8c3.6-3.7 6-6 7.4-6zm-44.9 14c2.8-.5 18.2-.2 20.5.3a68.1 68.1 0 0 1-17.9 17.6c-1.4.1-2.9-14.9-2.6-18zm437.4 34 3.3 23-25.2-1.7zm-339.8 3.7h.4c1.9.7 2.4 5.2 3.1 26.6.4 10.1 1 18 1.7 18.8.7.9 3.8 1.3 9.7 1.3 4.7 0 13.7.3 19.9.6 13.5.8 13.8 1.4 5.8 9.3l-5.5 5.4-16.9-.7c-17.3-.7-20.2-.4-20.2 2 0 1.6 3 2.4 8.5 2.2 2.2 0 7.7.3 12.3.7 10 1 10.3 1.7 2.7 9.8l-5.4 5.9-5.3-.7c-8.5-1.2-30.8-1-32 .4-2.1 2 .6 3 10.7 3.6 15.8 1 18.5 1.4 18.5 3.2 0 .9-2.2 3.8-5 6.5l-4.8 5-20-1.1c-14-.3-18.8 0-19.2.9-.5 1.6 1.8 2 16.3 3.6 13.8 1.4 15.9 2.8 10.6 9.4-5.8 7.2-8 8-19 7a92 92 0 0 0-26-.1c-2.8 1.8 0 3 8.6 3.6 13 1 20.5 2.3 20.5 4.2 0 2.2-4.3 7.7-8.4 10.8l-3.4 2.6-14.8-1.5c-14.7-1.6-22.3-.8-20.2 1.3.6.6 6.1 1.4 12.2 1.9 11.1.8 16.6 2.2 16.6 4.5 0 .7-2.8 4-6.3 7.5-3.5 3.4-7.4 5.7-7.4 5.7l-45.5-4s-2.3-8.2 2.2-30.2c4.2-20 5.9-24.4 7.8-20.7.6 1 1 5.9 1.5 9.2.9 8 2.8 13 4 13 1.3 0 1.3-4.8-.4-16-2.4-15.5-2.7-16.1 3.3-22.4 5-5.3 8-6.6 9.5-4.2.4.7 1 7.8 1.7 13.7 1 10.4 1.6 12.8 3 11.4.9-.8 1.5-3.8.5-19.2l-1.2-15 6.7-6.8c6-6.2 6.8-6.7 8-5 .8 1 1.8 7.5 2.2 15.2.7 11.3 1.6 15 3.2 13.4.8-.8.4-26.6-.4-32.5-.6-4-.3-4.5 4.6-10 6-6.6 9-9.3 10.6-9.4 2.1 0 3.3 6.5 3.3 15 0 9.2.7 12.9 1.6 14 2.2 3 2.4-7.4 2-17.6l-.7-18.7 6-6c5.8-5.8 6.3-6 7.9-4.5 1.3 1.4 1.2 4.5 1.8 14 .8 13 3.3 19.4 4 10.3.5-2 .4-6 0-8.9-.5-2.8-.9-9.2-.9-14.2 0-7.7.4-9.7 2.3-12.7 2.7-4.4 10.6-11.2 13.1-11.4zm262.9 14.2s10.1 8.7 10.1 11.1c0 1.2-4 6-9.5 11.3-10 9.8-11 11.5-12.1 22-.4 4-2.4 9.3-7 18.6a251 251 0 0 1-8.8 15.5c-16 19.1-31.1 36.7-59.2 77.1-1.6 3.7-1.7 7.5-3.3 10.5a12.9 12.9 0 0 1-5.4 4.7 54 54 0 0 0-28.6 36.8c-1.6 7.1-2.6 13.5-5.5 35.4-1.1 9-5 24.6-5 24.6-60.5-.8-117 9.7-167.4 38zm80.6 9.3 13.5 61-13.9-.3-1.3-44.3-43.2-4.1 15.4-15zm-65.5 5.6c3.7 3.7 8.3 7.9 11.7 12-11.6 38.6-48.1 88.7-84.5 138.3l-26.6-2.9a776 776 0 0 1 54.8-72.9c6.8-8.2 11.4-16 17.5-28.2 2.2-4.4 6-15.7 9-27.6 6.2-7.6 18.2-18.6 18.1-18.7zm14.4 13.5 20 20.4 5 289a371.4 371.4 0 0 0-106.6-56.2l6.8-15.5 7.5-8c26.5-28.8 20.6-59.7.4-81.5 24.6-35.9 46.9-62.6 65.6-97.6l-.2-24c-.3-22.1 1.5-26.6 1.5-26.6zm-240.8 12c2-.1 2.3 5.2 2.9 20.3.5 14.2 1 21 2 22.4 1.3 2 2.5 2.1 19.2 2.6 17.6.6 21.3 1 21.3 3 0 .5-2.3 3.2-5 6l-5 5-15.8-.2c-8.3.3-18.2.1-18.5.3-1.4 1.3 3.8 3 11.5 3.1 4.8 0 12.3.9 13.2 1.2 3 1.1 1.6 4-4.9 10.3l-6.5 6.3-14.2-.3a124 124 0 0 0-18.7.5c-4.3 1.4-2.1 2.6 5 2.7 12 .2 20.3 1.2 20.7 3 .2 1-2 4.3-5 7.4l-5.4 5.7-21-.8c-19.8.1-22.5 1.6-6 3.3a381 381 0 0 1 16.7 2.2c.4 0 1 .8 1.3 1.7.7 1.8-7.3 10.8-11.6 13-2.2 1.1-3.7 1.2-7.5.3-4.5-1-23.7-.8-25.8.4-1.7 1 2 2.3 7.4 2.4 8 .1 17.6 2.5 17.6 4.4 0 1.6-4 6.6-8.4 10.4-2 1.7-6.8.2-20 .6-9.2.3-15.2 1.2-15.2 1.8 0 .5 4.5 2.3 10.3 2.7 5.7.4 13.6 1.8 14.2 2.3 1.3 1.4-9 13.5-9 13.5l-43.6-.7-4-46.2 3.7-4.3c8.4-9.6 10.2-8.2 11.9 9 1.2 12.8 2 16.6 4 14.8.6-.7.3-8-.4-18.6l-1-17.7c0-2.4 10-12.9 11.9-12.5 1.9.4 3 4.7 4 16.5.8 9.8 1.3 12.4 3.2 10.5.9-.9 1-6 .1-18.3l-1.2-16 4.3-5c8.4-10.1 10-9 11.1 7.3.7 11 1.8 16.8 3.8 16.8.7 0 .7-8.3.3-20.7l-.6-18.6 5.2-5.4c3-3 6-5.3 6.6-5.3 2 0 3.2 4.7 4.5 15.7 1.5 12.4 2 14.5 3.2 13.3.5-.5.4-8-.3-17.6l-1.5-18.4 6.4-6.6c3.6-3.5 7.1-6.3 8-6.2 1.9.4 3.1 6 3.3 13.9.1 7.3 1.4 13.7 3 15.3.8.8 1-3.7.9-16.9-.3-20.2-.9-21.8 8.2-31.3 2.5-2.5 4-4.1 5.2-4.2zm235.7 8.3.2 28.3c-11.3 24.2-37.5 59.7-64 97.9l-13.9-7.5c33.2-43.5 61-84 77.7-118.7zm-379 9h2.1c7.2.4 7.4 2.9.7 9.1-2.8 2.6-6 4.7-7.2 4.7-2 0-2.1-.3-1.5-5.7.8-6.6 1.6-8.1 6-8.2zm432.6 20.3 19.5 19.2 5 207-20.7 33.6zm24.5 27.3c17.6 41.5 36 80.4 56.2 112l-52.3 73.8zm-176 64.5c24-.4 46.2 18.7 49 38 5.2 22.2-6.2 46.1-25 53.5-6.5 2.3-10.3 2.5-10.3 2.5-2.3-13.4-1.3-26.3-4.4-39.9 0 0-11.2 14.8-17.6 20-3.2 1.9-4.7 2.3-4.3-2l.8-24.2-27.8 28.8s-2.2-3.1-5-10.3a50 50 0 0 1 44.6-66.4zm369.6-1.8.6 25.3c-43.6 33.8-105.8 105-159.1 197.9l-23.5 9.9c36.2-86.4 112.5-174.4 182-233zm.5 33.3.5 37.7a574.1 574.1 0 0 0-101 124.4 7382 7382 0 0 0-48.5 23.6c-3.9-1 85.7-140.5 149-185.7zm-388 32.3c1.7 0 1.6 3.4 1 8.3-1.2 11.1-2.5 15.1-6.6 20.6-14 16.6-36.5 39.2-39.5 60.3-1.6 11.2 7.2 21.7 15.8 20.7 26.8-3.4 29.7-51 32-74.5 1-5.8 1.3-10.7 2.3-12.5 5.7-7.2 11.7-14.2 19.3-20l3.3 36.5 15.1-5c-42.5 57.8-30.3 61.4-52.8 85-20.8 22.1-61.3-3-51-36.5 9-22.5 23-45 26.7-69.2l1.7-12.2 9.6 20.2c5-4.8 19.3-20.9 23-21.7zm389.6 12.5v26c-20 22.3-37 39.4-57.3 70.3l-32.2 14.7c21-40 55.5-77.5 89.5-111zm-393.5 22.9s2.2 12.1-2.5 34.1c-2.3 10.5-12.3 41-28.2 33.8-13.5-12 3-34 11.2-44.5 6.4-7.5 13.4-15.6 19.5-23.4zm-42.3 3-8.8 18.9c-79 .3-155.5 28.5-223.7 86l-17.3-5.6c72.3-68.3 161.8-101.5 249.8-99.2zm82.9 14.5c89 29.8 130 73.2 163.6 118.8l-14 7.2c-35.3-45.6-78.8-87.3-159.8-111.5zm-101.9 28.1-3.8 16.1c-49.7 1.5-102.3 19.2-153.4 54.7l-18.5-3a313.3 313.3 0 0 1 175.7-67.8zm227.6 108.7-15.8 7.5c-47.1-61.1-89.7-78.5-138.2-94.1l5.3-13.6c65 17.3 112.8 50.3 148.7 100.2zm-657.1-72 1.3 163-11.3-2.2-1.6-157.8zm-26.3 8.8c-21.7 81.1-4.9 102.2 3 149.5l-18-2.9a216.2 216.2 0 0 1-4.5-142.5zm545 12.5c1.3 1.2-1.1 5.2-4.5 7.2-3.2 2-2.5 1.6-7.7-.2-5-1.9-11.4-6.6-11.4-8.4 3.7 0 20.3-.1 23.6 1.4zm15.2 1.1c3 .4 11.6.2 12.1 2.9.2 1.6-3.2 4.2-10 8.9-10.5 7.1-14 8.5-17.1 5.1-3-3.2-2-6.5 2.8-11 4.8-4.4 7.5-6 12.2-5.9zm-357.1 1.8c6 0 16.7 7.4 23.2 16 6.5 10.3 14 20.8 20.2 31.2a436.6 436.6 0 0 1 33.4 72 964.3 964.3 0 0 1 48.6 171c-.2 4.7-4.3 4.7-7.7 3.5-1.7-.5-3.5-1.7-3.8-2.6-4.9-13.7-6.5-27.8-10.2-41.6-9.3-34.5-12.6-54.3-30.4-103a708.2 708.2 0 0 0-37.3-87.5 203 203 0 0 0-34.2-47.5c-3.8-3.7-8.4-7-8.4-7.8 0-2.4 2.4-3.7 6.6-3.7zm380 1.9c5.5 1.3 18.9 2.9 13.8 7.3-18.8 7.3-25 15.1-35 23.1-1.4 0-7.4-7.3-7.4-9.2 8.1-10 18.3-14.2 28.5-21.2zm-352.8 0c7.9-.3 15.6 10 19.2 16.3 24.3 35.7 45 86.5 62 136.4a800 800 0 0 1 35.2 141.7c-.5 1.2-2.7 1.6-5.3 1.6-5 0-5.7-1.2-7-5.2-12.6-60.5-29.6-123-50.1-176a513.5 513.5 0 0 0-41.1-85.1c-12-17.6-18.8-26.8-18.3-28.2.3-1 2.3-1.4 4.6-1.4h.8zm-54.1 1c10.6 0 28.2 12.7 40.1 28.9 25.3 34.7 39.8 75.2 54.9 114.6 17.2 45 29.7 95.2 37.1 134.6 1.3 5.6 3.4 8.1-2 9.9-8-2.3-7.9-2-10.2-12-3.1-10.5-4-21.1-7-31.9-17.1-61.4-36.2-129.5-68-185-38.1-61-49.2-44-55.4-54.9.5-2.4 4.8-4 10.5-4.1zm91.8 15c32.7 57 47.2 92 57.1 126.5 15.2 52.2 33 93.9 41 154.8 0 0-8.7.2-12.2-1.2a36.3 36.3 0 0 1-3.8-12.5c-7.9-43-20.7-94-34.3-134.1a568.7 568.7 0 0 0-58-128.2c-6.7-11-8-15.4-3.9-15.6 7.4.5 10.7 6.2 14 10.3zm341.4-6c1.6 0 2.2-.3 5 .7 4.3 1.5 5.7 2.4 6 4.1.3 2.5-2.4 3.3-10.8 5.3a87.7 87.7 0 0 0-28.4 15.8c-4.2 3.5-7.7 7.2-8.7 7.2-2 0-7-5.4-7-7.7 6.9-10.4 28.7-24.8 44-25.5zm-451.6 1.3c27.7.9 49.5 33 60.8 54.8 4.5 8.5 10.2 17.8 14.6 27.5a932.4 932.4 0 0 1 51 153.8c4.4 19.4 9.6 33.7 7.8 37.5-2.3 1.4-7.1.3-9.4-1.6-1.4-1.2-2.2-5.6-4.7-13.7-6.5-20.8-17.2-80.2-45.1-142.7-.6-1.4-14.2-40.9-37.5-78.3a63.5 63.5 0 0 0-39-28c-7-1.2-9-.3-8.6-4.1.2-2.5 1-3.1 4.8-4.3 1.7-.5 3.4-.8 5.3-.9zm173.4 128.8c-1.9 0-3.5-3.6-4.8-9.6-.6-2.9-1.5-5 4-8.4 34.4-36.6 4.8-90.4-38.4-95-4-.6-9.2-.7-10.7-1.2-2.2-1.3-6.3-9-8-12.2 59.8-14.5 123.2 71.1 58 126.4zm297.9-119.6c3.5.9 11.3 8 10.3 9.7-1.1 1.8-7.8 1.9-17.5 3.6-20.6 3.7-29.4 17-39 27-2 .7-4-.8-5.9-4a18.3 18.3 0 0 1-2.5-6.4c10.7-15.6 39.3-31.3 54.6-29.9zm-485.4 4.6c17.5 0 35 8.5 44.8 22.3 35.9 53.7 76.2 173 85.8 232-1 1.8-3.5 2-8.5.6-2.8-.8-2.4-1.7-4.2-7.2a1222 1222 0 0 0-38.1-122.7 738 738 0 0 0-24.6-56.2c-5.3-11-15.8-30.4-19.8-36.4-9.5-17.7-28.5-22.9-40.5-17.2-12.5 6.8-14 22.8-4.6 30 7.9 5.4 20.3 4.5 24.8-4 1.6-3 1-6.7 0-7.6-.9-1-2.6-.7-3 .3.6 10.4-12.7 11.1-18.5 7-9.3-7-3-28.9 22.2-20 9.8 5 13 14.8 8.4 25-4.7 10.6-12 15.4-23.4 15.4-13.7-.3-29.3-10-29.5-27.3 0-13 6-23.7 17.3-31 4.2-2.6 5.8-3 11.4-3zm148 8c42.5 2 62 52 39.7 82-5.7 7.3-9.3 6-11.8-3.4-1.2-3.8-2.5-4.3 1-7.3 19.8-19 3.5-56-29.2-57.5 0 0-6.2-9-6.8-13.7 2.2-.7 5.2 0 7.2 0zm353.8 3.5c3.2.8 10 7.3 10 9.6 0 2.7-1.3 2.2-8.9 1-17.8-3.3-35.7 7-50.6 29.6-7.2 13.5-8.1 12.2-12 .6-1.9-6-2-5.9 5.7-16.9a60.8 60.8 0 0 1 55.8-24zm16.6 22.9c14.9 13.6 8 43.4-12.2 46.5-17.8 2-33.6-17.2-22.4-30.3 7.3-7.9 16.4-8.7 22-1.9 5.8 7 3.3 16.6-5 17.6-.9.3-1.7 1.1-1.7 1.7 0 1.7 7.3 1.2 9.8-.8a16 16 0 0 0 .7-20c-4-5.4-12.5-9.6-19.3-6.9-12 4.3-24.1 20.5-31 41-2 5.7-3.2 11.1-4 12.4-1.7 2.6-1.6 2.5-3.2 1.5-1.4-.9-4-13.4-4-18.1 0-3.7 3.2-13.2 7.3-21.4 13-24.1 42.1-40.2 63-21.3zm-363.8-6c17.4 1 31.2 25.6 23.6 42.7-2.3 3.2-5.7 5.3-7.3 3.3-.5-.7-3.2-8.7-6.9-17.3-3.7-8.5-7.1-16.8-8.2-18.9-2.7-5.9-4.7-10-1.2-9.9zm-118 14.2a708 708 0 0 1 50 114.5 627.5 627.5 0 0 1 24.6 87c.5 2.7 1.1 4.1 0 5.3-2 2-11.4-2.9-11.4-2.9-16.6-57-30-114.2-69.3-186.8 0 0-1.8-2.9-2.2-4.7-.5-4.6.8-10.3 3.6-13.6 1-1.2 2.6-1.2 4.7 1.2zm-222 66.2c93.6 6.3 166 45.7 204.6 149.9-13.7-7.8-83.4-61.2-203.5-68.3l-.2-14.5c86-.7 170.1 44.2 168.3 43.5-32-66-112.5-92.8-169.5-94.6zm649.2 21c-5.9 9.3-5.6 9-8.5 17 .4 2.5.8 18.6 1.2 28 .5 12 .9 17.3 1.8 18.4 1.6 2 4.9 2.3 6.3.5.6-.6 1.5-3.2 2.2-5.7 7.7-29.2 11.3-40.1 14.4-43.7 2.1-2.7 2.8-2.4 11.3-1.5 19 1.7 25.5-21 13-30.2-16.6-9.2-34.3 6.3-41.7 17.3zm20.1 6.3c-13.6 11.2-14 27.3-18.1 42.2-2.2 10-5.4 15.3-6.6.2-2.3-21 .6-36.6 9.7-48.9 5.6-9 14.8-15.1 23.1-15.7 17.8-1.2 19.7 13 14.7 20.5-3.6 5.5-13.6 8-22.8 1.7zm-644.6 6.7a12.2 12.2 0 1 1 0 24.4 12.2 12.2 0 0 1 0-24.4zm38.9 8.3a10.9 10.9 0 1 1 0 21.8 10.9 10.9 0 0 1 0-21.8zm35.4 12c4.9 0 8.8 4 8.8 8.9a8.9 8.9 0 1 1-17.7 0c0-5 4-9 8.9-9zm25.1 15.9a6.9 6.9 0 1 1 0 13.7 6.9 6.9 0 0 1 0-13.7zm-88 21.9a75 75 0 0 0 2.5 36.1c6.9 20.2 3.7 56.3 3.7 56.3l-20.3 20.3c1.5-18.9 3.7-38.8 2.7-54.7-.7-10.6-5.5-20.5-6.8-31-1.1-9.9.6-29.5.6-29.5zm32.9 6 .7 86.2-69.5 67.4-.1-17.8 59.3-58.8-1.3-79.8zm171.5 196.5-4.6 7.4h78.4l1.7-7.4zm101.5 0-1.8 7.4h36.3l1.2-7.4H2241zm59.5 0-1.2 7.4h134.8l-2-7.4zm157.6 0 2.1 7.4h36l-3-7.4zm60 0 2.6 7.4h61.7l-5-7.4z" style="fill:#000;stroke-width:3.18132639" transform="matrix(.16424 .0002 -.00021 .15103 -278.5 653.3)"/></g></g></g></svg>