<svg xmlns="http://www.w3.org/2000/svg" width="234" height="333"><g transform="translate(0 -719.4)"><rect width="233.2" height="332.2" x=".4" y="719.7" rx="8.9" ry="8.9" style="fill:#fff;fill-opacity:1;stroke:gray;stroke-width:.75590551;stroke-linecap:butt;stroke-linejoin:miter;stroke-miterlimit:4;stroke-dasharray:none;stroke-opacity:1"/><g style="font-style:normal;font-variant:normal;font-weight:700;font-stretch:normal;font-size:3.77201176px;line-height:0%;font-family:'Levenim MT';-inkscape-font-specification:'Sans Bold';letter-spacing:0;word-spacing:0;fill:red;fill-opacity:1;stroke:none;stroke-width:1"><path d="M32.3 622.4h-4.8l-1.8-2.4q-2.3 1.3-5.2 1.3-4.7 0-7.9-3.2-3.1-3.2-3.1-8 0-3 1.4-5.5 1.5-2.5 4-4 2.6-1.5 5.6-1.5 4.6 0 7.7 3.2 3.2 3.3 3.2 8 0 4.2-2.8 7.4zm-4.9-12.2q0-3-2-5-2-2.2-5-2.2t-5 2q-1.9 2.2-1.9 5.2 0 3.5 2.5 5.6 2 1.6 4.5 1.6 1.4 0 2.7-.6l-3.8-4.9h4.8l2 2.5q1.2-1.9 1.2-4.2z" aria-label="Q" style="font-size:29.43927002px;line-height:1.25;stroke-width:1" transform="scale(.82383 1.21385)"/></g><g style="font-style:normal;font-variant:normal;font-weight:700;font-stretch:normal;font-size:3.77201176px;line-height:0%;font-family:'Levenim MT';-inkscape-font-specification:'Sans Bold';letter-spacing:0;word-spacing:0;fill:red;fill-opacity:1;stroke:none;stroke-width:1"><path d="M-251.7-837.2h-4.8l-1.9-2.4q-2.3 1.3-5.1 1.3-4.7 0-8-3.2-3-3.2-3-8 0-3 1.4-5.5t4-4q2.6-1.5 5.5-1.5 4.6 0 7.8 3.3 3.2 3.2 3.2 7.8 0 4.3-2.8 7.5zm-5-12.2q0-3-2-5-2-2.2-4.9-2.2-3 0-5 2.1-2 2-2 5.1 0 3.6 2.6 5.6 2 1.6 4.5 1.6 1.4 0 2.7-.6l-3.8-4.8h4.8l1.9 2.4q1.3-1.9 1.3-4.2z" aria-label="Q" style="font-size:29.43927002px;line-height:1.25;stroke-width:1" transform="scale(-.82383 -1.21385)"/></g><path d="m17.2 761.8 9.4 9.5-9.4 9.4-9.4-9.4zM216.8 991l9.4 9.5-9.4 9.4-9.4-9.4zM58.6 804.6l18.9-18.9-18.9-18.9-18.8 19Zm116.8 200.3 18.8-19-18.8-18.8-18.9 18.9z" style="fill:red;fill-opacity:1;stroke:none;stroke-width:1"/><g style="display:inline;stroke-width:3.18132639"><g style="stroke-width:3.18132639"><path d="M1830.2 94.6s163.7 236.6 219.2 278.6c4 1.9 72.5-11.2 72.5-11.2-35-84-57.6-170.8-34.9-268.2zm91 374.1c-112.9 31.9-225.5 61.8-347.8 10l-133.6 129c-1 3.3 173.1 78.3 175.9 70.1l-43 136.9 99 21.7L1717 691s136.5-13.1 199.8-34.9c48.2-16.5 98-28.5 141-64.4-88.8-53.4-136.7-123.5-136.6-122.9zM1242.6 507c-42.8-26.2-76.2 27.8-45 54.7-3.6 15.8-4.8 39.2 10.4 49.5 14 8.9 40.1-.3 43.9-.2.3 0 .7 28.3-1.5 28.3-4-.2-19.3-13.2-28.8-16-31.8-9.6-76.7-14.3-75.9-12.6 1.3 2.7-8 9.3 27.6 31.6 13.3 8.3 55-1 88.2 9.4 20.3 6.4 40.2 17 51.2 11.7a76 76 0 0 0 35.3-39c1.5-16.4-83.4 19-78.2 19.5l-.3-32.9c34.2 3.8 65.1-21 31.5-63.5 25-24.9-10-84.2-58.4-40.5zM1385 657.3c-84 84.8-256 244-256 244l1.8 118.7 168 150.3c13.3-159.5 104-308.5 190.3-383 8-22.6-85.8-122-104-130zm599.3 29.4c-12.6 98-24.1 231.9-190.6 380.6 28.8 49.1 65.6 99 118.4 123 3.7 8.4 152.7-154.2 244.3-231L2156 855zm-750.1 21c-.4 2.2-6.5 28-8 27.2 0 1.4 17-6.2 18.9-13.3 1.6-6.2 5.5-14.6 5.8-15.8-3.8-26.5-11-7.7-16.7 2zm-62.3 68.6c-6 14.6-11.7 41.4-9.6 58.9 29.8 14.9 37.9-47.1 29.8-53-4.8-2.1-16.1-6-20.2-5.9zm920.3 284.5c-2.8 12.4-2.2 16 3.3 18.4 9.6 4.3 14-.8 21.7-21 4.6-12 8.7-30 5-37.2-18.3-12.8-28 30.4-30 39.8zm-450.7-29c-5.8 0-11.5.4-16.7 1.6-49.2 11.3-45.5 97.2-53.8 131.5-154.5 22-195.4 32.6-237.7 50-65.8 27-86.7 43.5-104.1 57.1 11-1.3 129 108.9 135.1 124.4-7.5-21.3 228.6-73.2 354.3-21 15.4 5.4 132.8-114 129.1-127.4 15.3-26.7-148-56.7-168.6-73.3-16.9-91 114-140.8 23.4-138.1-16.5.4-40.1-5-61-4.9zm411 102c-3 3.5-5.9 5.3-9.7 9.4l-8.6 11.3 6.3 10.2 16-17.8zm-115.3 114.4c17-7.6 77.2-36.8 79.7-30l-1.2 29.2c-9.2-3-68.7 6.8-34.3 68.1-21.6 48.7 26.6 73.8 60.4 41.6 70.8 24.3 61.3-46.5 46.7-58 11.5-17.9-3-56-10.2-56 0 0 61.8 13.9 55.8 2.9-2.8-5-6.2-13.7-20-22.9-15.8-10.5-43.6-6.7-66.1-11.4-24-5-39.5-13.6-59.8-14.9-30.5 2.8-59 29.6-51 51.4zm-688.5 230-85.1 22.7s27.5 63.9 37 120.9c11.7 69.7 2.4 145.4 2.4 145.4l247 1.3z" style="fill:#e2cf00;fill-opacity:1;stroke:none;stroke-width:3.18132639" transform="matrix(.16419 0 0 .1515 -152.9 745.2)"/><path d="M821.2 1216.9c-108.4-154.7-208.9-302-342.2-464.1 0 0 .1-62.7.6-124.9l409.7 587.5ZM1040.7 967a639.9 639.9 0 0 0-18.1-94.9l74.8-70.5c-8.1 63-20.5 111.4-56.7 165.4zm357.5-222.3c16.7 22.2-11.6 34.5-22.2 24.7-21.6-20.1 10-40.8 22.2-24.7zm-741.7-140c-12.5 7.9 22.3-194 117.6-298.3 58 166-44.3 259.2-117.6 298.2zm470.1-.8-63.3-17 31.5-88.6s59.5 14 54.4 32.3c-16.5 59.8-22.6 73.3-22.6 73.3zm-293-34a542.2 542.2 0 0 0 42.1-91l90-12.5-52.1 101.1zm381.5-124.2c-49-97.6 8.7-252 115.3-294.5a469.4 469.4 0 0 1-115.3 294.5zM885.8 418c2.2-34.6-1.8-71-6.6-103l222.8 29.6 7.8 93.4zm163-148.3c7.6-29.7 14.3-54.4 29-78.5 16.1.5 82-10.3 73.5 2.5-17.9 22.8-26.4 60-38.1 83.3-12.3-1.3-68 8.3-64.3-7.3zm-147.5-17c-22.5-8-53.3-10.2-65.3-27.6l23.4-74.3 69.4 21.3zM1096.1-456l54.4-.5S1411.9-122 1509.9 8.1c-3.3 13.3 1 125.5 1 125.5C1372.2-61.6 1096.1-456 1096.1-456zM594.9 10.7C580.2-5 603.5-19 613.2-5c8.5 12.4-10.6 23.9-18.3 15.6Zm293.3-54.8c.8-77.5 55.8-169.5 55.2-167.2-.7-.1 7.8 75.8 18.4 99.7-2.9 4.2-71 72.3-73.6 67.5z" style="fill:#d40000;fill-opacity:1;stroke-width:3.18132639" transform="matrix(.16419 0 0 .1515 -46.3 828.6)"/><path d="m1118.2 80.6-2 1695.7 1055 .2-.4-1693.2zm964.2 13.3c-8.6 93.8-10.1 167.3 38.6 264.6-8.8 9.3-75 11.9-96 22.8-.3 2.6 5.4 7.1 5.4 7.1 21.9-10 107-19.3 107-19.3-35.6-62.2-65-181.8-42.9-273.5l61.5.2-.4 451.8s4.8 87.2 6.7 136.4a2387.3 2387.3 0 0 1-104.5-145.3c-34.4-48.3-72.7-105-112-158.3-11.6-16.8-28.1-38.5-41.6-58.1-21.1-30.3-38.7-53.8-60.6-86.3-23.4-33.8-46-64.4-73.8-103.5-23.6-33.4-24.7-37.3-24.7-37.3Zm-403.7 1.7c39.8 69.3 111.2 92.7 129.1 97.4l10.4 15.2A227 227 0 0 1 1668 104.4c-1.7-2.6-1.5-8.6-1.5-8.6zm-39.5 0c-11 26.2-26.4 41.2-41 57l.5-16.8a144 144 0 0 0 29.3-40.2zm19.3 0s.4 4.5-1 8.2c-8.4 27.2-60.8 79-59.3 71.2l-.6-13.3c-.2.5 39.4-37.7 49.8-66zm-38 0c-4.2 7.6-19.4 30.6-20.8 24.3l1.4-24.3zm119.7 0c6.6 9.6 12.6 16.6 19.5 26.4 1.3 1.8 2.1 4 1.8 4.9-1 2.7-4.2.7-12.9-7-14.2-12.6-23.9-24.3-23.9-24.3zm-53 0h12.8c26.7 44.3 74.6 68 91.1 73 4.4 5 9.2 13.8 11 15.8-44.6-12-94.6-49.8-115-88.8zm31.3-.2c14.2 20.5 36.4 34.9 49 44.7 6.7 5.3 15.6 16 14.8 18.2-28-8.8-60.6-39.7-75.6-62.7zm-54.8 12.7 7.8 12.4a264.3 264.3 0 0 1-73.8 81l-.2-16.3c35.7-25.7 51.1-51.5 66.2-77zm12.6 18a239.3 239.3 0 0 0 148.2 90.8s4.4 4 10.8 12.7c8.2 11.1 8.3 11.5 9.4 29.7.7 33.3 11.5 78.4 22.2 106.8-1.3 7-2.5 10.6-15.8 28.6-55.5 74.9-173.6 145.7-231.8 49-19.4-31-21.3-90.3-22.6-127.4l.6-3.3c1.4-6.7 3.3-5.6 13.8-2.8 10.6 4.6 21.7 1 33-2.1 12.8-5.2 14-1.2 1.5 10.3a82 82 0 0 0-9 9.8c.6-.3 7.8-3.2 11-5.6 9.9-7.6 12.2-4.7 8.6 3.6-15.6 35.2-18.4 36.6 3.5 46.3 4.6 2 7.7 4.3 10.2 6.6 15 14 9.6 6.5 5.5 0-6.5-10.1-.7-15.5 10.2-9.2 7.3 4.2 16.8 7.6 22 6 10-3.3 13.1-14.3 10.1-26.5-2.4-6.7-16.1-18.5-13-6.1 8.3-.4 15.5 11.3 8.3 19.3-5.5 7.3-15.1 3.3-30-6.5-8.1-6.1-18-3-17.7 4.6.3 5-7 3.9-11.6-2.6-2.6-3.6-.8-14 4-23.7 30.8-61.8 4.9-121.7-48.4-104.8l-11 3.3-.4-23.6c30.6-21.3 63-55.3 78.4-83.3zm31.1 110.8c-8 9.7-5.2 18.3 12.4 9.7 14.4-7.1 16.4-8 32-8.5 22.2-.8 42.1 6.2 66.8 21.4 16.3 10 18.7 10.7 14.2 4.5-13.2-25.3-91.1-63.6-125.4-27zm-75.4 3c15.5 3.8 30.2 14 27.7 18.2-1 1.5-1.9 1.8-3.8.8-11.3-5.6-29.3-14.7-55.2-3.6-2.9 1.2-4.5-.7-4.5-4.1 0-6.7 11.4-12 23.3-12.5 4.2 0 8.8.2 12.5 1.1zm89.5 19.5c-9.2 4.8-12.3 7.3-16.2 5.2-9.3-5.1-7.4-1.1-1.6 9.2 4.1 7.2 4 8.7 3.5 13.1-.7 4.8-.6 5 4 10.2a127.4 127.4 0 0 0 30.7 31.3 90 90 0 0 0 10 5.9c1.2 0 .8-1-1.6-3.3-16.8-16.2-30-30.7-13-24.5 20 6.5 39-1.6 54.5-6.9 6.3-2 13-3.6 14.6-3.6 14.4 0 17.7-6 8.6-15-31-34.9-56.8-43-93.5-21.6zm73.7 6.5c6.4 6 9.8 9.2 9.1 10.7-.7 1.7-5.6-1.1-13.9-5.5-16.6-9-35.5-11-59.1-4.2-18.3 5.3-13-3.1 7.5-11a53 53 0 0 1 56.4 10zm-171-12c14-.2 28.5 4.4 38.2 12.8 6.8 5.9 1.9 7.2-9.2 2.7-16.7-7-30.8-8-44.5-1.6-4.3 2-9.2 4.4-10.6 4.3-2.3-1.6-3.3-6.1-1.3-9.3 5.5-5.4 16.5-8.7 27.3-8.9zm230.5 4.9c1 0 2.6 1.6 4.9 4.9 4.2 5.8 4.3 8.7.9 19-4.3 12.6-6 10.5-7-7-.7-11.3-.7-17 1.2-17zm13.9 18.9c1.6-.2 3.5 2.6 6.4 8.4 2.1 4 1.6 5.3-4.9 24.3-2.7 8-5.2 14.3-5.3 14.3-2 1.6-1.8 1.5-2.6.4-4.6-6-4.3-17.5-.3-31.3 3-10.5 4.6-15.8 6.7-16.1zm-126 1.4 3.5.7c-.3 28.1 21.5 22.4 24.4 2.5 0 0 5.3-.6 6.2.7 2.5 4.2-3.4 16.3-12.4 20.2-6.6 3-15.4 2.2-20.7-2.7-1.5-2.7-6-13.2-5.2-17.5 1-2.6 2.6-3.7 4.1-3.9zm-13 3.3h.6c2.2.1 3.7.7 4.5 3.3l4.7 14.3c-3.4 4-16.5-4.2-16.4-10.5a7 7 0 0 1 6.6-7zm-88.6 0c3.3-.3 4.5 0 4.9 3.1 1 9.3-8.2 19.4-20.3 20-11.6 1.2-18-7.8-17.6-16.6 0-6.7 5.8-7.6 6.5-2.3 1.8 15.3 14.9 16.2 20.9 7.8 2.2-3.3 1.7-11.5 5.6-12zm143.3 3.1c1 0 2.2.3 4 1 12 3.8 12.3 5.6 2 9.3-12.2 4.5-13 5-10.1-3.5 1.6-4.8 2-6.7 4-6.8zm-127.6 1.3c9 .6 9.7 8.1 1.9 10.7-11.7 5.1-15.7 4.8-11.1-2.8 2.4-5.4 4.6-7.7 9.2-7.9zm-55.8 2.8c1.1 0 2.3.4 3.6 1.3 1.4 4 3.6 7.2 5.4 11.4-1.8 1.8-6.2 1.8-9-.4-5.5-4.5-4.6-12.3 0-12.3zm280.5 8.7c3.4 0 7 5.5 8.1 9.6-12 15.5-10.2 44.6-13 53.3-2.4 7.1-3.2 1-10-17.5-2.7-7.4 11-44.5 14.2-45.3l.7-.1zm12.3 16a14 14 0 0 1 7 10.5c.4 3.3-1.2 7.6-2.2 11.8-2.4 10-5.7 29.1-7 46.7-.4 7.5-.4 14.2-.8 14.9-3.6 7.1-11.3-12-10.6-27.4 2.4-12.2 3.7-54.9 13.7-56.6zm17.1 21.9c1.8 2.3 2.8 4.2 3.4 6.2.9 3.6.1 7.8-2 16.9-5.5 24-4.7 50-1.1 76.5.8 5.6-3.1 2.8-9-6.8a53.2 53.2 0 0 1-6.3-21.3c-2.1-19 1.8-44.6 5.2-64.8 1.5-9 2.5-16.8 9.8-6.7zm9.3 14.6 9.7 11.7s-4.2 27-4.1 41.3a629 629 0 0 0 6.6 68.7c-6-6.7-8.8-10.7-15.3-19-.8 0-6.4-57.7-2.5-79.8 2.3-13.4 5.6-23 5.6-23zm15.2 23.3c1.6-.1 3.7 1.7 6.3 5.4a17 17 0 0 1 3.7 10.1c0 3-1.4 5.3-1.5 10.7a468 468 0 0 0 9.5 90.8c1.9 10.4-1.8 6.2-8-.4-5.6-6-5.7-8.3-8.7-16.8-.6-1.7-6.6-60.4-6.6-64.9.2-18.2.7-28.4 2.8-32.8.7-1.4 1.5-2.1 2.5-2.1zm-35.3 64s-11.3 5.8-14.3 3.7c-4.8-13-22-47.9-22.3-54 .3-2 7-11.3 7-11.3 9.6 20.7 18.2 41.8 29.6 61.5zm-213-42c-3.4 4-7.4 2.4-15.7-1.2-4.2-1.3-3.5.4-10.5 4a18.4 18.4 0 0 1-10.9 2.9c-4.7 0-6.4-1.7-6.4 1.6a79 79 0 0 1-1.4 14.4c-1.5 5.9-2.9 8.5-2 9.5 2.4 2.2 4.4.8 9.5-4 8.4-8.2 14-5.8 23.4-2.8 10.6 3.4 12.8 4.7 22.6 1.3 13.8-4.9 22-4.9 27.6-1.4 9.4 6 12.3 5.7 8.4-10.8-1.3-5.3-1.4-13.5-2.1-15-1-1.6-3.3 3-5.8 4.7-4.9 3.3-7.3 3.2-18.2-.3-6.4-2.1-13.6-9-18.4-2.8zm174.6 2.2c4.2 9.9 21 43 20.4 46.7-3.2 2.9-7.6 5-10.2 2.4-8.3-15.2-10.9-23.5-17.6-40.6-2-4 4-14.5 7.4-8.5zm89.8-1.2c1.2-.2 3.6 2.3 5.5 4.7 5.7 7.7 6 8.7 6.2 16.9.7 29.7 4.4 64.7 12.8 91.7 1.7 5.4 4.8 11.8 4.4 12.7-2.8 4-15.8-6.9-19.7-23.6a464.5 464.5 0 0 1-10.4-57.7c-2.2-25.3-2.1-43.4 1.2-44.7zM1851 413.5c4.8 9.3 10.9 25.3 15 35 1.8 4.1-7.7 7.4-9.9 6-3.8-2.9-5.6-10.9-8-15.7-8-17.3-9.5-17.7-5-23.1 2.6-3.8 5.9-8.4 7.9-2.2zm119.1 10.7c.7 0 1.7.6 2.8 2.1 5 6 8.4 10.5 9.7 14.9 1 3.2.2 5.6.6 11.4.9 15.1 4.9 35.8 16.1 78.1 1.1 4.2 2.6 9 2.4 10.4-1 7.8-12.4-4.8-15.8-17.9-3.8-14.7-10.8-33.6-13-51-4.2-27.7-6.5-48-2.8-48zM1841 435.4c9.4 22 10.2 22 4.2 23.8-6.3 1.8-6.7 1.2-14-13.8-5.5-11-6.6-12.4-2-16.4 7-8.2 8.7-.3 11.8 6.4zm-132-5.4c-1 0-4.3 2.4-7.4 3.7a54.8 54.8 0 0 1-30.3.7c-15-6-10.8 1.8 2.5 6.6 10.3 3.5 30.8.8 34-5.7 1.9-2 2.6-5.4 1.2-5.3zm114.2 11.6c8.5 13 11 18.3 9.6 19.3-1.3 1.4-8 4-10.8 2.6-3.5-1.7-6.5-9.8-8-16.1 1-3.1 6.6-8.7 9.2-5.8zm-212 5.5c3.8 0 13.6 13.3 11.6 15.6-.5 1.3-4.2.1-12.8-2.3-2.9-1-9.4-1.9-7.3-6 1-2 7-7.3 8.5-7.3zm203 18.1c-.9 2.3-7.3 2.8-10 2.7-2.3-4.9-3-7.2-3.6-10.4 1-2 5.3-7 7.4-6a69.3 69.3 0 0 1 6.2 13.7zm176-12.7c1.4 0 3.7 2.4 7.2 7.4 6.6 9.3 5.7 8.7 10.4 31 5.3 25.5 11.7 43.6 18.2 69.5 0 4.3-1.7 3.2-6.5.3-7.8-4.8-10.4-10-12.8-23.9-4.2-22.7-13-43.7-16.5-70.6-1.8-8.9-2-13.8 0-13.7zm-196.8 9c4.6 0 4 7 2.7 8.2-3.4 3-12.7 2-14.3 2.2-3.6-5.6 8.6-10.1 11.6-10.3zm220.3 24.2c1.3.2 5 5.4 11.8 15 6.5 9.2 5.1 7.6 9 22.8 5.6 21 14.7 36 20.1 55.3 0 2.2-2.6 1.9-5.2.9-5-2.1-9.4-5.6-13.6-9-2.9-3.2-2.8-7.1-11.3-36.3-3-10.6-3.9-13.3-7.7-29.3-3.2-13.4-4.7-19.6-3.1-19.4zm-709.9 62.6c22.3 41 14 59.1-33.9 64.8-3.4-.5-.2 21-.3 30.6 24-13.8 53-17 79.8-25.6-7.3 23.3-20 49.7-58.8 45.7-40.4-31.3-88-12.5-120.4-25.2a42.6 42.6 0 0 1-24.5-29.4c21.1 2.1 45 6.6 65.3 5.1-22.3-17.1-15.7-41-12.6-51.8-26.1-33-4.3-70 33.6-61.3 4 .9 11.7 4.7 11.7 4.7 36.5-32.8 79-2 60.1 42.4zm740-20c1.4-.1 4.8 3.8 11.5 13.2 19.9 27.8 37 53.7 36.8 55.2-.8 4.8-21.6-3.6-26.8-10.5-6-7.8-22.7-48-22.7-54.5 0-2 .3-3.3 1.1-3.4zm-810 119.2c10.4 1.5 13.3 2.4 13.2 6.4.9 3.5-25.1 4-28.7 1.4-2.8-2 .9-6.5 3.6-7.6 4-1.2 8-.8 12-.2zm716.4 3.7c-145.2 68.6-204.6 251-131.3 390.7l-10 7.3c-72-147.8-18.5-306.1 98.3-386.1 4.7-3.4 15.2-6 20-9.2 0 0-47.6 10.9-63.7 17.2-3.3-.1-13 3.3-23.2 14.5-9 8.3-37.3 47.2-36.4 48.6l-75 3 .1 2.7 73.6-1.7c-75.7 124.8-57.1 243.5-10.3 326.5l1.1.8c2.7 1.8 9.9-3.4 24.7-17.5l17.1-16c9.2-8.4 22.3-22.9 31.3-33.4-51-103.8-.7-240.5 118.5-302.1.2-3.3-1.3-13.3-1.3-13.3s-4.5-4-7.2-3.7c-132.8 58.5-186 203.8-132 335.9l-8.9 9.7c-67.8-136.8 5-307.8 132-356.2 0-3.1-2.8-7-6.2-4.7a270.4 270.4 0 0 0-129.7 364.7l-8.5 7.5c-76.4-151.7 4.1-321.7 130.3-379.8 3.8-.8-3.3-5.4-3.3-5.4zm-739 1.4s-.9 8 2 10.8c1.3 5.8-.8 5.2-5.7 4-12.1-2.9-2.7 4 7.2 9.5 9.7 5.5 8.4 5.3 0 10.7-5.8 3.6-5.2 5-4.4 7.7 1.1 4 1.9 1.4 4.3-.8 5-4.6 8.9-5.7 13.3-5.7 6.6 0 7.3 5.3 6.1 9.5-2.6 8.7-11.5 8.2-18.9 6-12-3.5-31.6-24.3-31.3-36.5-.8-11 14.2-15.7 27.5-15.2zm54 2.7c4.6 1.7 10.5 4 17 6.7a99.8 99.8 0 0 1 23.6 11.3c17.7 11.7 16.6 35.3 15.4 37.7l-91.4 86.6-10-5c-15.4-7.9-19.1-12-10.6-16.3 4.2-2.1 5.5-6.7 6-11 .9-6 .6-5 4.1-7.7 6.2-4.7 6.5-6.7 6.5-14.5 0-5.2.6-7.5 2.4-10.8 1.5-2.6 3.1-8 4.2-14.2.1-1 .2-3.5.4-4.4 1-4.8 2.6-6.3 3.6-7.4 1-1 2.7-4.8 3.8-8 2.6-7.2 2.1-6.2 6.2-5.4 6 1.2 5.2 4.7 4.5 10.2-.3 2.7-2.1 4.6-1.5 4a19 19 0 0 1 5.3-2.7c1.9-.5 3.8.2 4.3 3.2.2 1.7-.5 4.7-.4 7.1 0 6.2.3 13.6 1.7 18.4 6.8 23.4 5.5 20.2 3.2.7a78.8 78.8 0 0 1-.6-17.2c.5-4 1.7-9 3.2-11.7 4-7 4.3-8.4-4.4-11.8-3.3-1.3-8.8-3.6-10-5.8a17.4 17.4 0 0 0-10.9-7.7c-13-3.1-20.7-15.8-18.8-17.7 1.2-1.2 6.5.4 9.8.5 12 .5 14.6-.2 19.9-4.7 2.8-2.4 4-4.6 6.3-4.8 2.4 0 5.4 1.8 7.2 2.4zm622 14c-122.7 99.3-144.2 260-83 384l-10.6 8.3c-77-145.4-25.3-302.3 69.3-388.1zm-708.8 11.9c2.2-.3 4.6 3 13.2 12.1a85.7 85.7 0 0 0 15 13.4c7.2 3.5 5.7 2-.3 7.8-6.2 7-2.8 12.8-10.1 9.3-19.1-9-32.6-35.4-20.1-41.8.9-.5 1.6-.8 2.3-.9zM1169 709c.5 0 1 0 1.5.2 2.4.6 5.2 5 8.3 8a61 61 0 0 0 19.2 15.4c6.7 3 6.9 3.7 2.2 8.9a15.8 15.8 0 0 0-3.2 5.4c-.4 1.3-.5 3-1.9 3.2-7.4 1.4-32.2-13.6-33.1-24 .8-9.6 3.2-16.8 7-17zm52.4 3c4.3-.2 6.8 3.6 6.8 9.8 0 4.3-2.4 6-7.3 7.9-10.5 4-17-3.6-9.7-11.9 3.1-3.5 7.3-5.8 10.2-5.9zm-6.4 25c8 0 10.2 6.7 4.4 12.5-5.4 5.4-16.4 5.4-16.4-.5 0-4.7 7-12 12-12zm-49 8c5.3 1.6 18.3 11 24 12.1.3 3.2-3.5 4 2 10 2.4 2.7 2.6 4.5.5 5.7-6.6 3.5-29.2-7.6-30.7-18.9-.8-5.5 1-8.7 4.1-8.9zm29.5 13.6c7.8.3 16.6.5 15.7 4.3-.7 2.7-3.5 9.8-7 8.5-1.8-.7-3.5-2.4-4.7-3.6-4.2-4-5.3-9.3-4-9.2zm294.8 32.3c22.7 20.5 105.2 235.3-66.7 391.8l-36.5 11c165-129.7 137.6-313.7 93-393.1 0-2.3-.6-2-4.7 1.6-3.6 3.3-4 4-2.5 4.6 50.3 77.5 69.1 296.3-129.2 401.9-3.3 3.4 3.4 2.9 3.4 2.9.4-2.9 89.3-24.5 83-25 83-73.3 155.1-248.1 65.3-400.4-2.2-1.5-5.1 4.7-5.1 4.7zm-28.6 24.3-1.2 4.8c72 141.3 3.3 314.4-130.5 378.5 2.2 1.6 4.7 2.7 7.1 3.8 151.8-81.7 195.5-254.6 129.3-388.6zm-12 10-1 5.1c59.7 120.3 12.4 287.1-129.8 354.8-1.4 7.3 0 5.2 6.7 4.8 164.5-88.2 180-256 128.5-365zm-10.3 14.4c-4.6 6.2-13.1 9.3-16 17.2 47.8 126.4-14 248-118.5 299.2-.1 6.4-4.7 22.1 6.4 19.6 129.2-58.5 185.4-214.1 129-336.5l-.9.5zm649 244.3c4.7.3 9 1.7 13.4 2.3 16 2 26.5 13.8 19.3 20.9-2.4 2.3-5.7 1-16-4.1-4.9-2.3-5.7-4.5-6.6-9.8-1.2-6.4-2.5-7-4.1-2-1.6 4.9-3.4 8-8.9 6.7-15.3-3.6-9.5-14.2 2.9-14zm-171.7 107.5c-38.5-21.9-86.1-61.3-113.3-106.1a644.4 644.4 0 0 0-29.5 71.6l-60.4-17-.7 1.3 59.7 17.2-5.8 20c-.6 2.1-9.9 24.9-9.9 24.9l93.4 43.5c-5.8 9-12.1 15-20.1 23.4a18 18 0 0 0-4.7 11l129.5-123.6s16.7 24.8 22.9 30.4c5.8 5.3 7.6 6.5.8 8.1-30.4 4.5-54 27.5-45.8 58.4 1.4 3.4 4 2.2 9.8-1.5 20.2-18.2 69.6-35.2 71.3-30.9l.2 19.7c-53.2.8-47.7 39.8-43.9 60.8 0 .4-15.3 13.9-15.3 13.9 5.4 2.8 10.7 5.8 15.8 9.3-4.7 26 17.5 63.8 61.1 44.5a214 214 0 0 1 11.5 12.6c4.5-5.2 9.6-17.3 9.6-17.3 21.7 9.8 66.6-12.2 43.7-62.5l12.6-12-12.1-7.7a61.4 61.4 0 0 0-10-35.4s20.5 5.3 35.6 6.1c9.4.9 17.2 1.1 16.5-4.5-.3-1.7-1.7-9.8-2.6-12.5-4.5-13.2-28-22.8-50.7-24.1-3.7-.2-7.7-.1-8.5-1-1.4-1.9 1.2-4.4 3.7-4 12.4 2.2 24.4-7 26.6-18.8.4-2 3-5.8 6.6-9.8 6.5-7 7-6.9 6.9-17.1-.1-7.1 1.1-8.7 4.4-13.5a33 33 0 0 0 4-24.8c-.6-3-3.4-7-1-14.3 3.8-11.8-4.6-22.6-15.6-28.7-.9-.3-.6.6-1.3 1.4-10 3.1-22.2-4-22.2-4-2.5-1.2 8.5-65.2 31.3-59.5 3.8 2.3 5.4 13.4 5.2 13.6 1 0 1.6-6.5.1-10.9-1.5-4.5-5-8.9-11.9-7.6-5.3 1-11.4 8-14.1 11.5-10.7 13.6-10.8 22.3-14.4 36.7-1.7 6.8-1.8 6.4-11.3-1-6.8-5.2-10-7-7.7-10 1-1.4 5.4-5.9 5.4-5.9l82.6-79.4v795.7h-467l3.3-102.3c8.8-71.9-6.6-222.9-18.3-237 9-10.2 37-34.5 35.4-35.6l-3.7-2.2-14.8 13.5-36.4-11c-15.5-10.7-31.4-20.7-47.9-24.9-26.8-6.9-78.6 15.1-78.7 15.3a430.8 430.8 0 0 0-148 39.5c-3.5-3.3-8.3-13.9-8.4-13.8-42.6-59.3-84.6-92.6-141.8-133.1l72.5-40-171.8-179.6-1.5-145.8 248.9-238c1.5-4 79.4 55.1 108.4 103.2 5.6-23.5 16-44.9 24.6-68 .9-2 49.5 18 64 18.9 2 0 3.8-2.2 3.8-2.2l-64.1-20.9 13-37.5s4.7-10.2-.5-12c-29.3-9.4-56.7-26-84.7-40.3 0 0 13-14.5 13.3-15.2.2-.6 5.5-8.4 4.2-11A26475.2 26475.2 0 0 1 1328 703.2c-3.3-18.5-8.5-25-19.7-36.4 6.1-.3 15.7-6.4 21.3-10.4 17-12.4 26.3-34.5 24-47.5-16.3 5.2-31 11.3-51.5 15a65.7 65.7 0 0 0-29 12.9l-1-20.6c0 .2 27.5 4.8 40.2-13.7 11-15.9 6.5-34 4-43.3.3-2.1-.3-1.9 4.4-6.2 3.5-3.2 9-7.4 9-7.4.2-1.2-14.3-6.5-16.7-11.4 3.8-38.2-26.7-53-52.6-46.2-4.8 1.5-7.1 2.4-12.8-4l-7.8-8.3s-3 7-4.6 10.1c-5 10-6.5 7-17.4 7.5-27.7 1.4-40 23.8-33.7 51.2 1.5 6.4.8 5.4-3.4 13.6-2.1 4.2-5.7 9.5-5.7 9.5s5.1 2.8 8.5 4.3c5.1 2.3 5.4 5 5.3 10a51 51 0 0 0 9.6 28.1 159 159 0 0 1-58-8c3 30.2 25.3 41.4 52.6 45.9 0 0-2.9 2.6-6 3.8-6.3 1.9-10.3 7.5-10.2 12.5-1 4.8-4 9.6-6.9 12.2-4.2 3.6-7.7 8.8-6 18.8-.5 7.3-2.2 9.4-4.4 12.1a22.8 22.8 0 0 0-4.6 18.5 78 78 0 0 1 .8 18.2c-1.2 12.5 3.3 17.2 9 26 3.7 5.8 3 6 2.1 10-2 10-4.2 15.2-6.4 22.8-5 17-5.1 29.8-1 33.1 6 5 13 3.5 16.2 2.5 24-7.4 20-31.1 21.2-47 .7-4 2-6 3.4-5.9 6.8 8 14 12.6 23.3 17.7a1508 1508 0 0 1-93.6 88.3l1-795.9h463s.5 6-.6 34.7c-2 58.5-4.4 119.8-.6 179.5.7 20.7.2 41 3.2 61.5 2.9 19.9 4.2 41.3 13.5 59.9 3.7 10 3.8 9.3-10.4 22.4-7 6.5-13 13.4-12.7 14.6.1.4-.3 1.9.8 1 .7-.5 5.9-5.7 6.4-6.3 3.9-4.6 10.4 1.3 32.4 7.5a59.4 59.4 0 0 1 15 8.6c33 27.8 79.3 19.1 114 4a73.5 73.5 0 0 1 28-6.6c58.4-7 121-32.5 120.8-32.4l7.6 12.5s2.9-.5 5 2.6c33.6 63.5 143.4 136.1 141.5 132.8l-71.8 39.7c52.2 64.6 171.8 174.1 171.8 174.1l-2.8 157.5c-32 25.7-60.3 55-88.5 83.8-8.1 8-13.9 12.6-10.8 12.8 7.3-1.2 13.7 6 19.6 11 3.8 4.3 2.9 3.9-1.5 9.6-3 4-4.1 5.3-4.2 8.2.2 5.6.1 9.4-5 13.6-3 4-4.8 6.5-5.4 11.1-.6 4.7-.5 7.6-3.7 11.7-5.4 1.2-6 9-5 12.6 5.7 5.6 3.1 11.7 3.6 10.4-10.8 11.7-22.1 22-14.9 5.5a47 47 0 0 0 4.4-11.2s-5.2 5.4-8 8c-4 3.8-5.6 1.6-5.7-10.4a79 79 0 0 0-5.9-24.2c-.9-1.3-1 1-.6 9.8.5 11.4 1.9 14.8-2.1 26.2-5.5 15.5-9.4 17.7-.5 17.2 8.4-.5 15.5-.6 19.2 4.4 1.2 1.7 2.8 4.6 6.2 6.3 7 3.8 12.4 8 16.3 12.2 12.4 13.5 8.8 25.6-15.2 17.4-12.7-4.4-4.4-9.8 9.2-8.5 8.4.8 9.8-2.3 2.5-4.6-13.4-2.4-15.6-4-24.4 6.6a86.4 86.4 0 0 1-68.3-41.5c-4.2-7-5.4-8.4-2.5-12.4 1.1-1.6.4-1.1-1.5 1-2 2.2-7.4 4-9.2 5.7-12.5 12.4-25.2 25.8-36.5 36zm162.1-87.4c6.3.7 6.2 6 .6 11.2-5.3 4-9 4.7-12 1.7-5.2-5.3 1.6-13 11.4-13zm18.4 3.6c5.1 0 11.6 2.4 19.3 8.8 9.3 7.6 11.4 26.2 3 29.4-3.6 1.3-4.2 0-11.7-7.2a68.3 68.3 0 0 0-16.1-11.8c-11.1-5.2-12.5-7.2-5-10.8 1.5-.9 3.6-2.8 4.5-4.3 2-3 2.5-4 6-4zm-12 24.7c1.5 0 3.5 1 6.6 2.6 18.7 10.3 27.8 26.3 21.5 35.3-4.2 6-11 3.7-16-4.7a52.3 52.3 0 0 0-19.4-15.3c-10-5-10.3-5.8-3-9.2a15 15 0 0 0 6.6-6c1.7-3 1.8-2.7 3.7-2.7zm6 38.2c14.2 14.1 12.6 21.8 3.4 27.5-6.3 4-16.4 5-19.7 1.7-5.3-4.7-5.2-10 .7-11.7 5.5-1.2 3.5-3.4-1.7-4.7-18.3-5.2-29.6-15-9.6-12.9 5.7.7 11.2-3.8 14.2-7.3 4.3-5.3 10.2 4.9 12.7 7.4zm-964.8 5.5 413 591.1-333.9-.6s-1.2-4.4 1.5-39.8c4-48-2.2-89.8-13.6-136.7 1.5-.2-16-57-29.5-84.7-2.5-5.8-2-6.4 6-7.4 23.6-3.8 49-9.5 72.6-19.5 11-1 27.1 3.3 26.3 2-.4-.7-14.3-13.4-14.3-13.4a401.6 401.6 0 0 1-107.6 24.8c44.4 75.7 60.3 178.6 47 271.1l-64-.2-.2-455.2zm73.8 87.5c5.8-.2 20.4 10 22.2 17.8.3 1.5 4 11 8.3 19.8.1 1.7 14.4 27.5 8.1 25.3-12.5-17-34.8-46-40.5-60 0-2 .3-2.8 2-2.9zm44.6 25.9c.8 4.3 5.1 15.4 8.6 22.8 8.9 19.2 22.7 49.2 19.9 57.8-2 5.8 0 5.5-5-1.7l-12-16.7c-4.6-6-1.6-.5-4.1-10.3-6.2-28-16.1-42.6-22.6-58.9-2.3-7.6 12.3 3.9 15.2 7zm8 4.2c1.2.9 17.5 12.4 19.2 14 5.8 20.7 29 86.7 23 98.6a53.8 53.8 0 0 1-12.2-17.8c-2.7-31.6-12.7-54.4-23.4-78-3-7-5.5-14.1-6.6-16.8zm30.7 23.2a36.7 36.7 0 0 1 13.6 13.5c2 3.5 3 7.7 5 16.3 6 27 17.2 54.3 12.2 83.1-3.2 4.3-10.1-5.4-11.1-15-3.3-32-6-47.2-17.3-84.6-2.2-7.3-3.8-13-2.4-13.3zm26.3 24.8c1.1 0 3.4 2 7.2 5.6 7.3 7 8.4 9.5 8.4 21 .3 16.8 5.9 36 6.7 53 .5 9.8 2.3 35.2.8 36.7-2.1 3-11.6-7.8-10.9-24.3 1.2-19.8.2-34.7-8.2-69-4-15.9-5.9-22.6-4.2-23h.2zm762.4-100.1c29.5 19 19 53.9 12.7 58.2a36.6 36.6 0 0 1-42.6 59.3c-29.8 29.6-80.8 4.8-61.2-44 0 0-37.3-71.3 36.3-66.5 0 0 1.3-28.9-.8-30.2-26.3-1.8-62 23.6-72.2 30.6-5.6 3.4-6.8 1.7-6.8 1.7-1.4-15-1.4-21.8 4.6-30.1 10.7-14.6 28.2-19.5 51.3-24.6 28.5 8.8 55.6 22.6 82 20.5a90 90 0 0 1 43.6 10c9.5 4.4 14.5 21.3 14.5 21.3-15 7.8-61.4-6.2-61.4-6.2zm-14-105.8c0-5.2 5.8-10.9 11.5-10.2 7.8.6 8.8 9.8 1.9 13.2-2 1.6-8.5-.7-8.8 1 .4 3.2-2.7 1.9-3.4.7a7.7 7.7 0 0 1-1.3-4.7zm-4.8 20.1c2.9-2 5.3-2.2 8.1-2.6 4.5-.5 10.1.2 11.4 4.8 1.2 4.6-7.5 7.3-14.6 7.4-3.6 0-7.7.7-8.8-1.8-1-2.4 2.4-6.7 3.9-7.8zm-893-325.5c5.7-19.8 2.2-30.9 11.7-55.2l23 7.6s1 24-3.6 37.3c-4.7 13.3-20 24-31 10.3zm172 535.1c2.8.3 9.5 9.9 12.5 18.6 2.8 8 1.9 18.3 3.9 27a312 312 0 0 1 3 68.7c-.5 4.5-3.4 2.7-7.4-1.6-5.8-6.3-5-6.4-5-23.7a533 533 0 0 0-4.7-59c-2.8-13.8-4-26.9-3.3-29.2.2-.6.6-.9 1-.8zm270.2 3.6c29.7 4.7 53.5 25 67.1 58.4 13.2 34 16.4 80.4 18.5 123-.2 10.2-4.4 7.6-15.4 1.3-12-5.9-14.6-4.2-32.2-.1-11 2.5-10-5 8-17.4 6.2-4 13.4-9.3 11-10.1-1.2-.4-6.7 1-10.6 4.3-17.7 14.3-22.5 17.7-17.4 3.8 1.3-3.5 5.4-13.2 7-17.9 6.5-17.5-.9-25-22.7-36-5.4-2.8-9-7.4-3.5 2.3 4.4 7.9-4.8 14.3-16.2 5-7.9-6.4-23.8-2.1-29 5.9-4.9 7.8-2.2 22.3 7.6 27 8.6 3.7 11.8 1 3.5-4.8-10.8-7.4-8.7-20 3.4-20 3 0 8.2 3.4 21.5 10.6 9.5 5.2 16.3 3 16.3-4.7 0-5.2 3-4.7 9.2-1.6 8.5 4.1 7.5 7.9 3 19.5-3 8.2-4.4 17.4-7.2 26-7 28.5-8 61-.2 71 21 26.9 43.1 24 62 6.3l-.7 29.4c-19.4 15.6-42 26.1-77 83.7-12.1-15.3-64.3-77.8-148.1-92l-18.9-25.7c.3-1.6-14-96-23.5-128 0 0 10.4-15.8 19.8-27.4 37.6-46.3 101.2-99.4 164.7-91.8zm-109.3 26.7c-3.2 1-4.2-5.4-2.5-6.6 3.9-.3 5.2-.2 9.1.1 3 .2 2.9 3.5-6.6 6.5zm-141.4-4.8c4.2 3 9.3 11 14.3 18.3 2.8 4 1.2 10.8 1.7 17.4l2.3 34.4c1.3 18.5-.5 34-3.2 39.6-2.8 6.7-8.4 2.1-9.8-7-.3-2.2 1.5-25 1.5-37.5 0-21.5-5.5-48-6.8-65.2zm126.9-.1c1.4 0 2.6 0 3.5 1.2 4.5 5.8 6.4 9.3 2.3 12.5-5.5 4.5-10.4 3.4-13.5-5.3-1.9-6.1 2.7-8 7.7-8.4zm-16.8 5a28.3 28.3 0 0 1 10.2 18.1c-.4 1.7-1.9 3.2-5.1 5.8-3.3 3-4.3 2.8-7.9-3-5.7-8.8-8.3-14.6-7.2-17.7 2.8-2.9 6.5-4 10-3.1zm198 1.2c8.1.7 16.1 4.4 24 6.3l-12 11.6c-3.6-6-7.7-12-12-17.9zm-216 6c4.4 5.9 12.2 21 11.7 26.7-1 1.9-2.9 3.6-4.7 4.7-1.5.4-2.8-2.2-7.9-11.1-8.7-15.5-11.2-19.8-6.7-21.7 2.4-.2 6-.1 7.5 1.5zm-17.7 3.7a96 96 0 0 1 16.9 33.8 7.6 7.6 0 0 1-1.8 4.6c-7.3 8-5.4 6.6-16.4-15.8-9.2-18.5-11.6-20.3-5.5-22.4a12 12 0 0 1 6.8-.2zm-17.5 6c3.2 0 4.1 5.3 10.3 17.5 10.5 23 14.4 26.2 12 28.7-2.9 3.6-4.6 6.2-7.3 1.7-6.3-10.2-12.6-23.2-18.4-34.7-4.7-8.6-5.1-9.6-2.1-11.7a11 11 0 0 1 5.5-1.5zm186.3 6.5c-4 1.1-19.7 6.1-10 7 2 .2 6.9-1 10.3-1.3 9.8-.6 30.1 1.2 29.4-.7-1.9-7-24.4-6.3-29.7-5zm-200 2.2c0 .4 2.6 4.9 5.1 9.3 14.9 28.6 23.1 39 20.5 43.6-2.2 2.7-5.6 6.2-7.5 5.3-3.2-1.3-7.5-10.7-18.1-31.9-11-22-12.1-23.6-6.5-26.4 2.3-1 5.1-1.9 6.6 0zm-14.7 10c6.8 11.2 5.9 9.7 5.8 45.8 0 22.4-3 36.7-6.7 42.3-2 2.9-5.4 1.2-7.1-4.5-.8-2.6 1.4-6.4 1.8-10.5 2.7-27 .8-54 .9-79.6 2-.2 4.1 4.8 5.3 6.6zm175.8 9c3.2 4.5 2.4 8.1 2.4 14.2 0 8.6.6 9.3 6.5 5 5.3-4 5.7-4.2 15.1 2.2 5.6 3.8 12.7 4.2 17.2 0 3.2-3 4.3-1.6 8.6-.5 4.7 2.6 6 3 16.1-1.8 6.8-3 7-3.5 11-1.4 7.2 6.3 8.2 4 7.3-4.1 0-2.9.8-8.2 1.7-11.7 3.5-14.5-2.2-14.7-9.8-5.4-3 3.6-9.4 5.1-15.6 2.2-8.8-4.1-22.6-2.5-32.8-.7-12 2-17.7-1.3-22.5-5.5-2.8-2.3-9-4.4-9.7-2.6-.7 1.8.7 4.6 4.5 10zm-161.8 20.3c1.6-.3 3.9 4.2 7.3 13.7 4.3 12.2-3.3 54.7-8 61.7-2.3 3.6-4 5.9-9-.9-1.9-3-.4-4 1.6-12.3 3-12.7 5.5-33.3 5.7-42.8 0-12.5.7-19 2.4-19.4zm15.4 41.3c1.1 0 2.4 2.5 4.1 7.4a53.2 53.2 0 0 1-2 29.3c-1.8 5.7-3.6 11.8-6.8 17-1 2.8-6.7 1.8-8.2-4.6-1-4 2.4-9 4-15.4l4.4-18.8c1.7-10 3-15 4.5-15zm119 18.8h-.3l-.1.2c-.3.2 11.6 13.1 14.8 16.7 1.6 1.5 16 18.8 7 14.8a61 61 0 0 0-64.8 10.9c-2 2-3.7 0-9.8-.5-12.5-1-17 4-9.4 10.2 1.1 1 3.6 1.4 4.7 2.9 1 1.4.7 3.9 1.2 4.6 24.3 32.2 69.2 38.4 97.4 17.4 3.5-2.7 5.5-3.6 8.8-2.6 6.6 2 7.2-3.5 1.4-11.2-2.6-3.4-5.7-7.2-3.9-8.3 3.6-3.1 5.4-8.2-.8-10-4.3-1.3-9.1-6.1-11.6-12.8-2.8-7.8-30.4-31.7-34.6-32.3zm-110 14.1c5.2 0 5.4 31-.4 40.5-3 3.6-9.8-3-8.8-10a213 213 0 0 1 7.7-29.7c.5-.5 1-.8 1.4-.8zm107.4 19.5c4.4 0 10.5 2 15.3 6.3 2.6 2.3 7.1 12.5 5.3 16.5-.6 2-6 1.9-6.5.4-3-20.5-19.7-23.5-25-4.3 0 0-3.4 2.9-3.9-2.7 1.2-11 6.3-16.1 14.8-16.2zm134.2 1.7c5.2 0 10.3 2.6 12.9 8.3 1.8 4 2 7.2 1.3 9-.6 1.3-2.3.7-2.3.7-8.5-23.2-20-12.5-24.2.3 0 0-4.3 1.4-4.9 0-.5-1.4-.2-4 1.6-7.6a18 18 0 0 1 15.5-10.6zm-113.2 1.5c3-.2 8.1 2.3 12 6.1 3.9 4 4.3 6.3 1.1 9.2-1.9 1.8-8.6 3.5-9.9.4l-5.7-13.2c-.5-1.2 1.2-2.4 2.5-2.5zm-40.7.6c3.3 0 4 .8-1.2 13-1.2 2.6-14.7-1.2-12-6.2 3.8-4 9.8-6.8 13.2-6.8zm135.3 1c1.3 0 2.4.1 2.9.7-1.2.5-6.3 13.4-6.3 13.4-4.9-.6-10.6 0-11.7-3.9-1-3.7 1-6 7.8-8.6 2-.7 5-1.5 7.3-1.6zm39.5 3.3c5.1 1.9 6.3 6.2 5.6 8.4-.5 1.7-2.9 1.7-4.6.4-1.6-1.9-4-5-3.8-7.2.5-2.2 1.2-2.2 2.8-1.6zm-254.8 12c1.6 2.9 4.4 19.6 1.1 19.2-3.2-.8-4.7-5.9-5.3-10.4-.1-1 2.8-8.8 4.2-8.9zm56.3 8.9c1.5-.2 5.2 1 10.8 4.2a84.3 84.3 0 0 0 57.1 5.7c11.5-3 14.5-4.8 16-2.8 2.8 3.4-1.5 6.7-17.8 12.2-17.8 6-36.3 5-60.6-12.2-6.6-4.6-7.4-6.9-5.5-7.1zm203.5 4.6c3 5.6-7.3 11-12.5 12.5a53.7 53.7 0 0 1-37.3-4l-2.3-1.5c-7.7-5.8-4.5-9.9 4.1-5.4a52 52 0 0 0 38 .8c5-2.4 8.4-5.4 10-2.4zm-227.7 10.5c-1 .2.7 2.8 4.3 6.7 25 28.1 84.9 43.4 118.5 14.4 10.6-9.9 9-14.3-7.7-6.4-18.3 6-44.5 6.8-67 3.5-11.1-1.6-29.2-5.8-38.4-12.5-5.8-4.2-8.8-6-9.7-5.7zm173 .8c1.5.2 4.2.7 10 3.8 8.5 4.4 27.8 2.9 34.1.5 13.3-4.9 16 1.4 3.4 8.3a38.2 38.2 0 0 1-44.7-5.7c-3.6-3.2-5.5-7.1-4-7.4l1.1.5zm-166.4 49.8c49.4 4.6 124 53.6 153 112.5h-16.7c-29.2-46.4-74.1-83.7-127.4-97.6-2.2-1.6-10-12.8-8.9-14.9zm219.3 10.8-2.3 16.3a264 264 0 0 0-61.1 71.3c-4.7-.2-7-5.9-6.2-9.7 18-35.6 39.6-55.2 69.6-77.9zm-199.6 12.8c11.3-.8 85 38.8 109.9 88.9H1581c-28-36.4-59-60.1-86.6-69.7-6.7-7-14-19-9.7-19.2zM1682 1684l-.1 22a189.2 189.2 0 0 0-40.6 55.6h-13.7s-3-6-2-9.8c15.6-28 30.5-48.5 56.4-67.8zm-112 77.6h-13a150.9 150.9 0 0 0-43.1-40.1c-6.3-7.8-13.3-17.3-10.5-18.9.2-5.7 58.9 34 66.8 59zm112.3-44.8-.3 12.7a485 485 0 0 0-23.7 32h-11.2c10.3-22.2 36.1-50.7 35.2-44.7zm-152.1 24.6c4 1.1 19 15.4 18.5 20.2l-6.7-.2c-3.8-4.8-8.3-9.8-11-14.6-1.6-3.1-2.6-6-.8-5.4zm149.5 4h.1l-.1 16.2h-11.4c-1.2-.3 5.5-12.3 11.4-16.2z" style="fill:#131f67;fill-opacity:1;stroke-width:3.18132639" transform="matrix(.16419 0 0 .1515 -152.9 745.2)"/><path d="M1915.8 91.7c-55.6 0-111.8.3-174.4 1l422.2 599 .3-133-135.4-175a511 511 0 0 1 98-18.6c-38-84.4-57-163.7-40.2-272.4-60-.6-115-1-170.6-1zm163.4 3.8c-3.3 38.4-7.6 81.2-.7 128.7-22-8-27 5.6-30.7 7-4.2-9.1-19.5-25-36.8-6.3-9 9.7-4.7 28 16.3 36.3-24 1.8-36.4-18.6-40.6-39.8-13-8.3-26.6-16.4-27.9-45.5l6.6 1.1c-2.2 20.3 18.9 30.6 31.2 21 8-6.2 8.9-15.6 5.7-30.3 6.4-1.3 21.4-7.5 17.5-26.8-5.5-26.6-32.8-23.5-45.3-6-10.4-12.8-29.4-15.2-37 4.7-4.3 11.1 5.4 23.6 16.4 26-24.5 4.7-36.8-29-38.2-51.8l-10-18c66-.3 94.9-.3 173.5-.3zm-330.9.7h49l357.9 463 .7 115.4zm124 0 7.8.1a101.2 101.2 0 0 0 69.6 84.6c2.1 33.3 18.2 78.6 79.1 93.8-1.8 37.6 22.4 73.6 48.2 90.8 0 0-7 1.7-12.4 2.3-34.8-27.6-43.3-68.2-46.8-85-1.2-2.4-4.5-3-7.1-3.6a107.4 107.4 0 0 1-65-64.7l-6.5-29.3c0-3.8-.7-2-9.6-5.3-23-8.4-44.1-33.2-53.7-62.9-5-15.6-3.6-20.8-3.6-20.8zm-31.6.1h27.5s.2 4.9.6 8c3.7 29.2 29.9 65.9 56.6 78 3.8 1.8 9 4.2 10.3 5.3 7.5 47.9 29.2 76.7 75 96.5.7.7 2.8 1.2 3.4 2.1 6.2 29.6 19.9 64 45.8 82.8l-11.2 1.2zm134.2 50.2a11.3 11.3 0 1 1 0 22.6 11.3 11.3 0 0 1 0-22.6zM1596 208c.6 1.7-153.7 132.2-138.7 377.7l-4.5 5 1.2 1.8c-5 5.8-10 10.4-15.5 16 32 20.4 87.7 42.7 88 42.1l-10.7 24.7 66.6 21.5-9 23.5-65.5-21.8c-9.5 21-15.2 43.2-22.1 65.1-.7 1.8-2.2 1-4.6-2.5-34.6-59-105.7-101.7-103.3-97.4l-252.2 239.2-1.7 148 174.5 179.8s-50.5 24.8-74.4 41.2c18.6 15.1 39.6 26.8 58 41.1 38.3 27 64.1 66.6 88.9 93.4 116.8-57.9 234.4-54.6 336-19.5-11.8 12.5-25 23.3-37.2 36.8 29.5 77.5 20 231.3 18.6 235.5A510 510 0 0 0 1829 1272l26-26c-.6-1.3-64.8-35.7-91.6-43.2l7.4-23.5-64.1-20 7.1-18.8 64 18.5c12-29.7 24.8-71.2 24.8-71.2a328.6 328.6 0 0 0 111.5 108.1L2165 956l-1.7-154.2L1992.5 631l71-37c-6.7-5.6-16.6-10.8-23.7-16.3-.5-.4 1.5-1.6 1-2-1.8-1.4-3.1-2.5-5-3.7-.4-.3-1.6 1.5-2 1.2-24.2-16.9-48.3-33.5-67.3-53.7-.4-.5.3-2.7-.2-3.2-9.9-10.5-19.7-20.3-29.7-30.7-4.7-4.7-12.4-15.8-12.4-15.8l-.4-3.7-10.8-13.6c-34.7 20.5-182.7 71.9-326 15l27.3-27.2c-7.3-17.5-12-37-13.9-53-7.5-64-4.6-179.5-4.6-179.5zm451.4 36.3a11.9 11.9 0 1 1 0 23.8 11.9 11.9 0 0 1 0-23.8zm37.2 14.1c6 29.6 19.3 72.4 32.5 101.3l-15.7 1.7c-12.9-8.3-26.5-20.5-27.9-37.7-34.7.2-44.9-54.2-32.2-47.7-1.6 18.6 11.7 26 24.8 24.1 11.3-1.6 21-17.1 7.6-34.3 6-2.3 9-4.1 10.9-7.4zm-492.3 87.3c2.4 37.8 9.8 65.3 16.7 93.8l-68.7 64.8c5.4-59.1 22.8-112 52-158.6zM1921.5 470l8.7 12.5c-99.2 58.3-268.4 62.4-371.6 13.3l13.7-13c90.7 40.9 238.3 44 349.2-12.8zm-644.1 19.5c-10-.1-21.5 3.7-33.8 13-45.5-20.8-75.3 27.7-47.1 59.8-4.2 23-7.3 27.4 10 50.8-18.4 2.3-41.7-2.5-61.6-5.6 3.4 34.2 52.4 42.2 72.8 38.4 22-4.7 42.7 6.2 43.7 6.4 12.9 3.6 21 9.9 33.7 12.9 21 5 51.9-19.7 56.3-43.1.5-3.2 1.4-6-.3-6.5-14.4 3.7-30.2 8.9-44.2 12a83.5 83.5 0 0 0-34.6 14.8l-.8-28.2c71.2 3.4 40.2-64.4 36.2-67.3 13.2-26.8-2.7-57-30.3-57.4zm647.8 2.1 15.5 37.3-41.2 14-10.5-36.5zm-650.8 1.1c24.2.3 45.9 25.8 22.6 54.3 45.1 39.8-12.7 82.4-40.2 52.9-36.6 33.5-75.5-1.5-55-38-39.1-35 9-82 42-51.7a35.7 35.7 0 0 1 30.6-17.5zm281.3 13.7a10.5 10.5 0 1 1 0 21 10.5 10.5 0 0 1 0-21zm-268.4.8c-.6 0-1.3.2-2 1-1.3 0-3.8 4.4-10.2 11.8-11.1 13-12.3 13-12.3 13a29.4 29.4 0 0 0-27.6 3.2s-9-1.7-21.2-12c-5.6-4.6-8.6-5.6-9.6-3.1-1 2.6 1.5 5.3 12.3 12.6 14.8 10.1 14 9.3 14 9.3-1 9 .4 16.2 3.8 22.9 0 0-2.6 6.3-13.2 20.1-3 4-5.4 8.2-5.4 9.5 0 5.4 4.7 1.7 15.5-11.9l10-13c12.7 4.4 17.1 1.7 25-1.1 0 0 2.8 2 9.7 7.5 12.6 10.1 15.4 11.2 17 10 2-1.8 1.8-2.4-3-5.8-14.3-10.4-19.2-16.3-19.2-16.3a36.6 36.6 0 0 0-3.4-26.6s.2-1.4 8.3-10.4c5.9-6.6 14-17 13.5-18.5.1-1-.7-2.3-2-2.2zm292 2.2 37.1 11.6-8.1 38.5-39.6-12.7zm268.5 9.5 10.3 37.6-38.6 10.3-6.3-40zm27 .6a10.5 10.5 0 1 1 0 21 10.5 10.5 0 0 1 0-21zm87.8 1.4 32.4 28.9-36 18.1-17.3-37.6zm-305.9 8.3 37.7 4.5-1.5 40.5-43.3-5.8zm-130.7.5 42 18.4-15.2 42.2-43-18.4zm108 3.2a10.5 10.5 0 0 1 0 21 10.5 10.5 0 1 1 0-21zm135.7 0 5.1 40.6-39.1 2.4-.8-41.2zm26.9 4.7a10.5 10.5 0 1 1 0 21 10.5 10.5 0 0 1 0-21zm-544.7 3.8a10.8 10.8 0 1 1 0 21.7 10.8 10.8 0 0 1 0-21.7zm463.3-.4a10.5 10.5 0 1 1 0 21 10.5 10.5 0 0 1 0-21zm184.3 2.6 15.2 41.7L1872 599l-12.1-42.7zm30 1.1a10.5 10.5 0 1 1 0 21 10.5 10.5 0 0 1 0-21zm73.9 11.8 27.6 19.6-13.7 7.6c-3.6-8.6-9.9-18.8-14-27.2zm-394.9 3.8 40.8 8.9-6.2 42.7-44.5-8.9zm-121.3 2.4 21.7 10.1-14.3 35.6-35-18.6zm96.8 2.3a10.5 10.5 0 1 1 0 21 10.5 10.5 0 0 1 0-21zm235.6 2.3 7.3 42.7-46 6.5-2.9-43.6zm172.2.8a10.5 10.5 0 1 1 0 21 10.5 10.5 0 0 1 0-21zm-32.6.3 15.2 37.7-45 18.8-13.3-37.7zm-114.8 2.8a10.5 10.5 0 1 1 0 21 10.5 10.5 0 0 1 0-21zm-152 4.2 43.1.8-.5 43.2-47.2-1.3Zm344.5 3 16.9 11.8c-174.3 112-419.2 126-610.3 15.6l12.3-12.3c172.2 103.1 423.7 88.6 581-15zm-367.8 5a10.5 10.5 0 1 1 0 21 10.5 10.5 0 0 1 0-21zm88.4 2.3a10.5 10.5 0 1 1 0 21 10.5 10.5 0 0 1 0-21zm-205 5.8 44.9 13-7.7 35.5-49.3-14.2zm-29.8.2a10.5 10.5 0 1 1 0 21 10.5 10.5 0 0 1 0-21zm349.2 7.6 10.8 39.8-49.7 10.7-6-39.2zm28.6 5.8a10.5 10.5 0 1 1 0 21 10.5 10.5 0 0 1 0-21zm-649.5 6.2-.1 27.9c-8.3-6.8-17.6-14-27.1-21.4a52 52 0 0 0 27.2-6.5zm-102.4.6c2.2 0 7.5 1.9 13.9 1.9 20.2-.1 58 6.2 69.2 15.4 3.8 3 9.3 5.8 12.4 10.7 0 2.3-3.4 2.4-8.2-.6-9.4-5.9-25-11-45.9-14-3.8-.5-4.2-.3-4.2 1.5 0 2.2 3.4 3.4 14.4 5.2 14.3 2.4 17.3 3.8 20.4 4.6 8.5 2.3 3 5.4-5.6 6.3-35.5 3.3-62-12-67.4-29.4-.5-1.2 0-1.5 1-1.6zm494.4.7 44.7 5.7-2 37.4-49-5.6zm-379.7 3.2c7.8 6.1 2.4 24.7-1.8 30.2-2.8 3-9.2 1.4-9.2-2.9 1-3.9-.4-22.3.5-28 3-1.8 7.6-1.3 10.5.7zm517.5 1.7 2.3 38.5-48.7 2.2.4-37.8zm-164.4 2.6a10.5 10.5 0 1 1 0 21 10.5 10.5 0 0 1 0-21zm-271.5.5c1.8 28.3-41.6 47.5-57.8 38.8-7.2-3.9-4.2-6.2 10-9.1 18.5-4.9 30.6-9.7 30.7-13.1 0-2.1-2.8-1.9-10.4 1-11.5 3.8-23.6 5.5-34.6 10.5-8.3 3.7-11.5 5-13.4 2.8-3.9-4.8 14.5-16.7 33.5-19.9 14.3-2.3 28.8-10 42-11zm462.8 3.5a10.5 10.5 0 1 1 0 21 10.5 10.5 0 0 1 0-21zm-97.7 7.7a10.5 10.5 0 1 1 0 21 10.5 10.5 0 0 1 0-21zm234 17.9c70.3 66.9 147.3 144 210.8 207.3l-.3 99.4-242.6 230.6c-44-26.8-81.1-60.3-115.4-119.9 3.9-3.3 7.3-5.4 10.2-9l-12.6 7.5c-44.8-71.6-63.8-214.2 12.3-328.5l-76.9 2.8 12.6-26.2 83.6-4.5 33.8-36.3s10.7-2 19.6-4c8.8-2 26.8-7.2 40-11.5 13.2-4.2 24.4-7.7 24.9-7.7zM1376.7 668s72.2 39.2 112.3 117.8c-129.6 111.5-178.5 241.4-189.5 376.5-70.6-66-106.2-102.5-170-166.6l2.3-95.6zm272.6 12.5a1006 1006 0 0 0-49.2 130.6l-20-6s13-5.4 18.7-8.9l-10.4-16.8 19.8-8-11.7-14.3 20-11.7-10-12.6 18.4-9.1-11.4-13.2 19.3-10.7-10.1-12.6zm6.1 0 5.7 1.1c.7-.2-3.7 10.5-3.2 10.9 7 1.4 7.4 1 9.5 1.7l5.4-11 8.8 1.6c-17.8 40-36.7 83.7-47.6 131l-10.3-2.1s3-10 3-11.3c-1.2-.3-7-2.7-8.8-3.5l-4.3 13.2-8.2-.3c13.4-51.7 36.7-109 50-131.2zm33.7 1.6 18.3 15.2-20.8 8 10.8 14.4-22 8 12.6 14.9-21.8 8 13 18-22.7 7.7 14.3 15.9-20.5 9.6 12.3 12.1-13.5 4.4c-2 .6-10.7-1.6-10.7-1.6 13-46 29-92.9 50.7-134.6zm-446.3 7.7c-5 3.3-2.2 10.4-8.5 16.5-1 1.1-1.1 3.7-1.5 5.8-.3 1.7-5.3 21.7-5.3 21.7s1.2-1.5 3.2-8c1.8-5.3 3.2-15.7 4.2-17.4 4.7-1.4 5.4-16.7 10.1-14.6 2.8 1.2 2.2 3.7.7 9.6-3.4 11.7-4.7 16.6 1 8.6 8.7-10.4 9.6-19.8-.2-21.8l-3.7-.4zm131 4.3L1147.2 907l-.7 79.4 78.9 80 56 54.3c20.3-121.6 67-237.6 181.8-338a273.6 273.6 0 0 0-89.3-88.6zm611.2 2.2c-133.2 62.6-163.8 191-122.6 307.3C1926 922 1975.7 845.3 1985 696.4Zm-474.1 6.5 60.5 19.5-22.8 77.7-54.5-16.6-5.5-13.7zm467.4 2a480.7 480.7 0 0 1-113.1 285 227 227 0 0 1 113.1-285zm-325.8.6-3.8 9.7 8.3 2.3 3.6-9.8zm-8.4 22.8-3.4 9.8 8.6 3 3.2-10zM2001 730c-18.7 144.1-96.5 275.2-178.8 342 26.2 42.6 57 70 88.4 92.7L2142.3 943l-1-74Zm-612.3 38.2-2 8s2.8-2.5 9.8-6.3c45.5-22.7 30.8 11.8 9.4 24.6-4.8 2.5-9.7 5.5-9.7 5.5l9.5 2c27.6 5.7 21.7 21.9-7.1 19.4-4.3-.4-9.3-1.2-9.3-1 0 .3 1.7 6.3 3.7 11.4 9.8 24.4-8.4 26.3-20.3 10.8-1.6-2.2-5.4-8.2-5.4-8.2s-1.2 4.6-1.9 9c-10.3 38.3-35.7 37.3-26.2-1.6 1.2-4 2.6-11.2 2.6-11.2s-5.7 3.4-12 6.2c-32.8 14.7-38.2-.4-8.3-22.5 8.5-6.3 11.4-8.8 11.4-8.8a87 87 0 0 1-14.5-2.3c-23.8-6-30.2-20.2 8-19.5 5.7 0 11.4.4 11.4.4s-1.9-8.1-3.8-14.3c-9.3-28.6 9.3-32 25-6.4 3.3 5.4 4.3 5.5 4.3 5.5-.5 0 1-9.8 4.8-18.8 19-35.1 26.3-3 20.6 18.1zm409.8-28.4c-16 28.1-29.8 56-36.4 85.2l-62-1c4.3-25.9 15.3-52.8 28.3-81.2 25.2-.7 48-1.8 70-3zM1635 752.4l-3.5 10.3 9 2.8 3.2-10zm-463 19.4c-6.5 17.2-8.8 36.4-12.4 51.8-1.6 9 0 12.6 5.3 14.6 7.6 2.9 18.6-1 24.8-9.8 3.4-5 6-15.2 6.5-33.2l.5-16.1c-9.4-1.8-15.8-4.3-24.6-7.3zm454.7 2.2-3 9.5 8.6 3.3 3.4-9.6zm400.9 3.6c10.5.3 12.5 1.2 22 6.8l18.4 19a25.3 25.3 0 0 0 17.6 43.7c6.9 0 17.8-7.4 17.8-7.4l29.1 30.3c-17 7.4-33.6-9.7-39.9-16.5-1.4-1.6-1.8-2.7-1.8-2.7s.2.8-.4 4.2c-2.4 13.4-15.7 53.1-28.4 51-14.3-2.4.3-59.1.4-57.8-9.8 10.4-57.6 21.4-54.3 9.9 6.7-23 42.5-32 47.2-36-19-11.4-43.2-43.2-27.7-44.5zm-853.2.7a44 44 0 0 1 14.4 3c1.9.4 2 2 2.2 3.5 0 6.8 1.7 26.8-4.6 27-7-.1-13.6 1.4-18.2 4.9-3.7 2.8-5 .8-4-6.5 1-7 4.5-21.8 6-27.8.3-2.4 2.3-4.2 4.2-4zm189.2.3a25.4 25.4 0 1 0 0 50.8 25.4 25.4 0 0 0 0-50.8zm0 8.9a16.5 16.5 0 1 1 0 33 16.5 16.5 0 0 1 0-33zm130.9.3c58.2 100.4 51.4 238.2-17.2 338.4l73.8-5.1-9.7 18.8-78.6 7.7c-12 11-23 23.6-34.8 35.3v4.2c-27 6.2-54 13.4-81.5 23.3a907.5 907.5 0 0 1-41.6-43.4l1.8-9.2c187-95.4 132.2-286.6 119-302.3 20.1-24.1 44-46.8 68.8-67.7zm518.8 18.2a13.7 13.7 0 1 1 0 27.4 13.7 13.7 0 0 1 0-27.4zm60.9 3.7 23 23.7a16.5 16.5 0 1 1-23-23.7zm-789 3a13.7 13.7 0 1 1 .1 27.3 13.7 13.7 0 0 1 0-27.3zm-102 5.7c6.5 2.2 5 8.2-3.3 13.4-5.4 3.4-10.3 4.2-15 1.7-9-4.8 9.6-18.2 18.4-15zm106 33.6-82.5 79.9c5.2-13.3 5.3-26.5 5.7-39.8 24.9 2.6 35.3-10 31.7-36 16 1 32.7-.7 45.2-4.1zm132.4 9c38.3 109.3 5 224.9-114.8 291.8 5-104.7 48.9-204.7 114.8-291.7zm109 9.7c65.8 17.2 140.6 25.2 218.3 25.2a513 513 0 0 0 8.1 91 816.9 816.9 0 0 0-220.8-23.9c3.3-31.2-2-66.7-5.5-92.3zm487.5 16.1-70 81.9 3-44.7c23.5 3 32-9.5 28.5-34 12.8 1.6 25.7-.7 38.5-3.2zm-680.2 4.5-5.5 32.7c-14 .4-27.7 5.4-27.5 36.6l-41.7-.5zm770.4 6a13.7 13.7 0 1 1 0 27.5 13.7 13.7 0 0 1 0-27.4zm-833.9 4.2a13.7 13.7 0 1 1 0 27.5 13.7 13.7 0 0 1 0-27.5zm803.3 14-7.3 49.6c-19-1.7-35 1.3-30 34.8-16.2-1.6-38.6 2.2-53.7 3.5zm-68.3 9a13.7 13.7 0 1 1 0 27.5 13.7 13.7 0 0 1 0-27.4zm-835.5 10.7a13.7 13.7 0 1 1 0 27.4 13.7 13.7 0 0 1 0-27.4zm45.5 16.2c17.5 4 9.4 44.8 5.5 55.9-.3.2 48.8-25.8 51.8-14.3 1.9 23-40.7 39.1-40.7 39.1s28.7 25 29.5 40.7c0 10-12 8.2-27.7-4.6l-16.5-16.1a25.3 25.3 0 1 0-35.9-35.7c-3.6-3.5-7.7-7.6-13.3-12.8-9-8.5-15.4-15.2-14.5-18.3 12-8.4 35.7 14.2 37.9 16.3-1.8-4.4 11.3-47.8 24-50.2zm-24 50.2c.2.2.3.4.5.4l-.4-.4zm746.5-18.3c8.3-.1 7.8 18.8 4.8 28.7-2 7.5-4 13.6-4 13.6s7-5.5 10.1-7c22.7-10.5 31.2 1.5 19.7 15.4-5.5 7.2-13 8.8-19 14.8 8.6.4 18.6 2.3 26 6.7 5.9 3.5 10.4 7.7 10.4 10.3 0 5.9-14.4 9-27.8 7.5-5.8.2-16.5-2.9-16.5-2.9s4.4 7.5 6 12c5 14 3.3 30.3-4 30.3-12.1-3.3-18-16.8-22.8-26.5-3.9 10.8-7.7 22.4-16.4 30.4-8.6 8-13 1.4-12.6-12.1.2-5.4 4.2-21.4 4.2-21.4-51 17.2-47.3-6.1-7.4-26.5-24.6-11.7-39.5-22.3 2.2-24.7-1-1-8.4-23.3-.5-28.6 7.2-4.8 22.6 11.9 23.4 12.7-.3-1.7 4-14.7 11.4-23.8 5.6-6.3 9.8-8.9 12.8-9zm-47 48.6zm223.4-14.7c-8.8.8-14.4 8.7-18.5 15.5-.8 1.4-2.4 2-3 3.8-3.6 11.8-6.8 26-8.8 43.7 5.6 2.4 18.3 6.3 24 4.2 1.5-.7 1-4.8 1.6-6.1 8.8-22.4 13.2-39 13.2-49.3 0-8.3-2.8-12.3-8.5-11.8zm-913.5-1a16.5 16.5 0 0 1 10.2 29.4c-10.6-10.6-16-16.2-23.2-23.2 3-3.8 7.7-6.2 13-6.2zm916.7 7.8c2.2 5.4-5 11.3-14.2 11.3-5.5 0-7.3.7-4.9-4 3-5.9 14.8-17.6 19-7.3zm-124.4-3.8a13.7 13.7 0 1 1 0 27.4 13.7 13.7 0 0 1 0-27.4zm-723.2 1a13.7 13.7 0 1 1 0 27.4 13.7 13.7 0 0 1 0-27.4zm648.6 5.5a25.4 25.4 0 1 0 0 50.8 25.4 25.4 0 0 0 0-50.8zm-339.1 3.4c-6.7 29.3-17 57.2-30 84.9-24.4 1.4-50.8 2.6-68.3 5 29-50.8 29.8-62.8 40.5-89.7zm42 4.2c6.9.8 14.4 1.8 21.2 3.1a798 798 0 0 1-50.3 132.5l-13-2-6-7.6 20.4-8.1-16-16.4 26.5-8-16.2-16 26.1-6.6-14-17 23.5-9.1-15-19.3 25-6.8zm297.1 1.3a16.5 16.5 0 1 1 0 33 16.5 16.5 0 0 1 0-33zm-271.2 2.5 8.7 1.4-2.7 9.3 10 2.2 3.2-10.1s8 .7 8.8 1.3c-10.4 42.5-47.2 131.3-47.7 130.8l-9.4-1.4 2.5-9-8.9-1.2v-.1l-4.2 9.7-9.4-.8c22.8-52 38.3-91.9 49-132.1zm463.2 3.4c7 0 6.5 3.5 1.5 16.7-4.8 12.4-6.6 17.4-8.9 19-5.5 3.9-17.4.6-16.4-5.1 3.1-18.5 4.2-26.4 9-28.9 5-1 9.8-1.7 14.8-1.7zm-428.2 1.5 22.8 4.4-19 11.3 12 14.1-23.3 10 14.2 14.7-22.6 9.2 13.7 16.2-23.4 9.8 16 13.9-26.4 8.3 10 15.3-9.9 5.5-12.2-1.9c20.3-47.3 33.3-86.2 48.1-130.8zm56 11.3 44.5 12.1 9 16-21 70.5-59.4-17.4zm-88.6 6.8-4.3 11.6 9.8 2 3.8-11.9zm-8.6 26.7-4.3 11.5 9.2 1.9 4.4-11.8zm-8.7 23.4-4.4 11.5 9 1.8 4.3-11.5zm418.7 21.2s-4.6 3.3-5.8 4.7c1 2.7 3.9 6.7 3.4 9.4-.3 2-2.6 3.6-6 7.2-8.3 9.8-11.3 8.7-6.4-1.7 1.6-3.3 2.3-6.3 2.3-6.3-2 2.7-3.4 6-4.7 8.5l-5.4 10.3c5.4 1.9 9 5.9 12.4 8.4 0 0 1.7-4.7 3-9.2a16 16 0 0 1 9-11c2.7-1.4 5.1-4 5.1-4-4.5-4.5-5-11.1-7-16.3zm-428 2.8-4.6 12.3 9 2.2 5-12.5zm-504.2 30.9c-.8 48.9.8 81.1-.9 133.8l132.4 171.6-20.7 7s-.2 2.3-1.3 2.7a965 965 0 0 1-74.2 15.5c34.2 78 56.3 175.4 41 272.7l342.7-.9zm724.8 82.9-11.9 11.8c-174.2-94.3-414.3-94-589.4 20.3l-14.3-10.5c191.2-122.5 426.4-121.7 615.6-21.6zm-718.4-65.8 403.4 579.5-47.4.6-355.6-465.2zm865.6 10.5s-11.6 3-21.4 6.2c-28 9-41.2 25.2-38.6 47.7.8 6.6 2.5 6.5 14-.7 26.6-16.9 28.3-17.6 61.6-27.4 2.6-.7 6.3-.2 6.3-.2l-1.5 26.3c-55.4-.2-52.4 43.9-36.5 66.8-5.5 10.6-17.8 47.6 22.5 61.7 20 4 41.3-12.4 40.7-13.2 37 17.5 80-11.8 46.5-62.7 12.6-22.2 3.7-38.7-8.3-52.8 0 0 2 .1 19.5 3.4 26.6 4.9 36.8 4 36.8 4 0-24-19.8-34.6-61.2-37.9-29.2 4.2-80.4-21.4-80.4-21.2zm-446.5 2.8h6l-2 41-45 2-3-40.8c15.6-1 30-2.2 44-2.2zm54 1 48.3 5.9-7.3 38.2-44.5-4.8zm390.8.4c5 0 3.9 5-2 6.2-8.6 1.7-30.9 14.7-30.9 18 0 2.2 1.1 2 9.3-2.4 4-2.2 12.5-6 18.8-8.3a409 409 0 0 0 16-6.4c7.5-3.4 11.2-1 8.5 5.3-1.7 4.2-2.5 4.6-19.8 10a89.8 89.8 0 0 0-28.6 12.7 245 245 0 0 1-14.6 8.5c-10.3 5.3-12.4 5.3-12.3-1.8-.6-21.2 22.8-37.1 54.6-41.7h1zm-417.1 5a11 11 0 1 1 0 21.9 11 11 0 0 1 0-21.9zm-119.5 3 3.6 37-44.3 11.4-10.2-38.3c17-4.2 34-7.1 50.9-10.2zm570.4 2.7c12.1 1.9 11.2 29.7 5 34.5-9.6 6.9-15.5-7.5-11.2-26.6 1.2-5.7 3.4-7.7 6.2-7.9zm-545.3 1.5a11 11 0 1 1 0 21.9 11 11 0 0 1 0-21.9zm216.3 3.2 50 13.7-12.2 38.7-47-13.2zm-27.3.8a11 11 0 1 1 0 21.8 11 11 0 0 1 0-21.8zm409.6 3.2c21.5.2 50 11 50 27.7-.4 4.8-45.1-1.5-65.8-9.8-7.3-3-16.3-12-16.3-15.7 0-2.3 4.4-2.1 6.2 0 3 3.6 13.2 7.3 36.9 13.3 18.2 4.5 20 4.7 20 2 0-2.6-10.8-6-22.4-8-5.8-1-11.3-2.7-20.3-3.5-4.2 0-5.2-2.6-1.7-4.4 3.8-1.1 8.4-1.6 13.4-1.6zm-38.1 8.6c5.4 2.6 7.4 7.7 10.4 10.3-3.7 1.8-5.4 3.6-11.4 4 0-4-1-8.7 1-14.3zm-655.6 3a11 11 0 1 1 0 22 11 11 0 0 1 0-22zm-29.4 3.1 11.8 38-42.3 18.3-15-37.5c14.6-7.7 30.6-13.3 45.5-18.8zm195.6 6.2s33.7 0 45.4.2l-2.8 42.8-42 .3zm-45 2.4 2.3 42.6-40.5 5.5-8-43zm256 .3a11 11 0 1 1 0 22 11 11 0 0 1 0-22zm293 1c24.7.1 48.3 28.5 23.9 58.2 40 30.8-3.5 82.5-38.8 52.3-50.5 49.7-78.8-17.7-57.9-35.6-30.8-50.7 7-82.8 46.2-60.4a31.9 31.9 0 0 1 26.7-14.5zm-412.7 1.3 44.4 9.8-9 42.2-43.3-8.8zm147 1 40.7 20.2-31.5 30.3-23.4-11.7zm-260.4 4.8a11 11 0 1 1 0 21.8 11 11 0 0 1 0-21.8zm87.8 1.3a11 11 0 0 1 0 22c-16.1-2.6-11.8-21.6 0-22zm-202.4 6.2 10 42.2-41.2 14-14.7-41.2zm28.3 3a11 11 0 1 1 0 21.9 11 11 0 0 1 0-21.9zm609.2 19.5c-3 3.8-7.1 8.3-7.1 8.3a28.2 28.2 0 0 0-26.8 2l-13.5-10.8c-11.2-9-15-11-15-7.3 0 .8 3.8 4.7 8.5 8.6a97 97 0 0 1 15.1 14.7c-3 9.7-3 17.4 2.8 25.6 0 0 .3 1.1-4.2 5.8-8 8.4-16.3 21.5-14.4 23.4 2.4 2.4 9.1-3.3 17.5-14.7 6-8 7.8-8.3 7.8-8.3 10.3 2.8 16 5.3 26.1-3.1 0 0 3.9 1.1 11.6 7.5 12 9.9 16.3 12 17.6 8.7 1.1-2.8-.5-4.6-10.7-12.3-6.6-5-14-11-14-11a25 25 0 0 0-3.6-24.8s.2.6 11.2-13.6c7.3-9.5 8.5-10.6 6.1-12.7-3.2-4.2-13.9 12.6-15 14zm-317.4-12.1 40.1 16.8-14.3 42-38.7-15.9zm-441.1 2.8a11 11 0 1 1 0 21.9 11 11 0 0 1 0-22zm410.1 1.1a11 11 0 1 1 0 21.9 11 11 0 0 1 0-21.9zm-438.1 3 13 32.5-29.8-22.2zm329 8.4 40 4.7-6.4 38-34.4-3zm-43.6 0-.4 39.2-38 1.6-3.2-39zm-195.2 7.2a11 11 0 1 1 0 21.9 11 11 0 0 1 0-21.9zm-30.2.8 15.4 39.3-24 11.6-32-30.4zm142.7.5 6.2 37.4-39.5 9.8-9.6-38zm565.5.4a15.6 15.6 0 1 1 0 31.2 15.6 15.6 0 0 1 0-31.2zm-462.9 1.2a11 11 0 1 1 0 21.8 11 11 0 0 1 0-21.8zm107.8 4 42.1 13.6-14.1 33.8-36.5-9.9zm-187 1.4a11 11 0 1 1 0 21.9 11 11 0 0 1 0-22zm160.4 4a11 11 0 1 1 0 21.9 11 11 0 0 1 0-21.9zm-267.9 12.8 14.6 33.5-39.7 17.1-17.3-34zm28.1 2a11 11 0 1 1 0 22 11 11 0 0 1 0-22zm146.3 10.1c65.1-.1 124 13.5 171.2 33l-14.1 13.2c-153.2-52.6-253.3-28.9-356 16.2l-10.4-12.8a476 476 0 0 1 209.3-49.6zm173.2.4a11 11 0 1 1 0 22 11 11 0 0 1 0-22zm-399 24c8.7.5 9.5 17 5.5 12.2l-9.8-11.3c1.6-.7 3-1 4.2-.9zm409.3 6.8c-.3 12.4-12 95.8-51.8 153a405.9 405.9 0 0 0-17.2-86.7s42.7-39.5 69-66.3zm-508.4 126.3L1442 1763l-21.7-.2c-4.5-20.5-11-41.4-24-57a97.7 97.7 0 0 0-38.6-31c-11.3-5-12.8-4-13.5-12.6-3.4-48.8-42.9-79.5-73.1-91.2-3-29.5-16.3-58.5-49.6-82.9zm-20.1 6.7c18.9 13 39.6 24.2 50.7 75.4.9 10.7 1.5 9.6 10 12.7 33 9.7 61.6 49.3 64.1 84 0 10.4 3.4 11.3 16.3 16.7a102 102 0 0 1 41.5 34.5c13.8 19.9 18.7 50 17.5 48.6h-11.4c-8.1-51-40.2-71.3-74.2-80.9a91.3 91.3 0 0 0-72.9-97.9c1.2-51.8-32.4-73.2-54-90.6 4-1.6 12.4-2.5 12.4-2.5zm-33.5 7.1c17 5.6 29.8 29.1 28.5 40 22.3 2.8 45.7 24.4 40.6 46.8-1.7 1-4.3 1.2-6.9-1.4 6-43.6-59-22-33 9.5l-11.7 7.6c-9.3-43.6-20.8-68.3-33.3-99.8 4.5-1.2 15.8-2.7 15.8-2.7zm53.9 91.4a10.4 10.4 0 1 1 0 20.9 10.4 10.4 0 0 1 0-20.9zm55.9 47a45 45 0 0 1 32 41.4l-5.4-.1c-8.7-39.9-54.2-18.2-35.2 13.6-24.3 9-22.4 31.4-15.2 40.2 9.9 12.2 35 11.9 42.7-7 23.6 30.6 56.2-3.7 27.4-32.1 23.5 8.6 27.3 40.1 23.8 50 11 3.7 23.5 21 21.8 21H1207s8.5-71.2-.5-124.9c11.7 2.9 19.6 5.7 33-10.2 21.9 18.1 37.6 4.5 36.5-11.1-1.7-11-7.4-16.4-16.7-22.2 19.1-4.7 33.6 28.4 32 41.5zm19.6 50.2a10.8 10.8 0 1 1 0 21.5 10.8 10.8 0 0 1 0-21.5z" style="fill:#000;fill-opacity:1;stroke:none;stroke-width:3.18132639" transform="matrix(.16419 0 0 .1515 -152.9 745.2)"/></g></g></g></svg>