<svg xmlns="http://www.w3.org/2000/svg" width="234" height="333"><g transform="translate(0 -719.4)"><rect width="233.2" height="332.2" x=".4" y="719.7" rx="8.9" ry="8.9" style="fill:#fff;fill-opacity:1;stroke:gray;stroke-width:.75590551;stroke-linecap:butt;stroke-linejoin:miter;stroke-miterlimit:4;stroke-dasharray:none;stroke-opacity:1"/><path d="M58.6 814 87 785.8l-28.3-28.3-28.2 28.3Zm0 200.3L87 986l-28.3-28.4L30.4 986Zm58.4-50 28.2-28.4-28.2-28.3-28.2 28.3Zm-58.4-50.1L87 885.9l-28.3-28.4L30.4 886ZM175.4 814l28.2-28.3-28.2-28.3-28.3 28.3Zm0 200.3 28.2-28.3-28.2-28.4L147 986zM117 864.1l28.2-28.3-28.2-28.3-28.2 28.3Zm58.4 50.1 28.2-28.3-28.2-28.4L147 886zM17.2 780.7l9.4-9.4-9.4-9.5-9.4 9.5zM216.8 991l9.4 9.5-9.4 9.4-9.4-9.4z" style="fill:red;fill-opacity:1;stroke:none;stroke-width:1"/><g style="font-style:normal;font-variant:normal;font-weight:700;font-stretch:normal;font-size:3.77201176px;line-height:0%;font-family:'Levenim MT';-inkscape-font-specification:'Sans Bold';letter-spacing:0;word-spacing:0;fill:red;fill-opacity:1;stroke:none;stroke-width:1"><path d="M27.2 731.2q0 4.1-3 6.2-2.5 2-6.7 2t-6.7-2.1Q8 735.1 8 731q0-4.3 4.5-6.3-3.5-2.2-3.5-6.3 0-3.6 2.8-5.4 2.4-1.4 6.2-1.4 3.4 0 5.7 1.7 2.4 1.9 2.4 5.2 0 3.9-3.5 6.2 4.6 2 4.6 6.5zm-5.9-12q0-3.5-3.8-3.5-1.7 0-2.7 1-1 .8-1 2.5t1 2.6q1 1 2.7 1 1.7 0 2.7-1 1.1-1 1.1-2.6zm1 11.8q0-2-1.4-3-1.3-1.1-3.3-1.1-2 0-3.2 1-1.4 1.2-1.4 3.1 0 2 1.3 3.2 1.3 1 3.3 1 2 0 3.3-1 1.3-1.2 1.3-3.2z" aria-label="8" style="font-size:38.71057892px;line-height:1.25;stroke-width:1" transform="scale(.97855 1.02192)"/></g><g style="font-style:normal;font-variant:normal;font-weight:700;font-stretch:normal;font-size:3.77201176px;line-height:0%;font-family:'Levenim MT';-inkscape-font-specification:'Sans Bold';letter-spacing:0;word-spacing:0;fill:red;fill-opacity:1;stroke:none;stroke-width:1"><path d="M-212-1002.5q0 4-2.8 6.2-2.6 1.9-6.8 1.9-4.2 0-6.8-2-2.8-2.2-2.8-6.3 0-4.3 4.5-6.3-3.4-2.2-3.4-6.3 0-3.6 2.8-5.4 2.3-1.4 6.1-1.4 3.5 0 5.7 1.6 2.5 2 2.5 5.3 0 3.9-3.5 6.2 4.6 1.9 4.6 6.5zm-5.8-12q0-3.5-3.8-3.5-1.7 0-2.7 1-1 .8-1 2.5t1 2.6q1 1 2.7 1 1.6 0 2.7-1t1.1-2.6zm.9 11.8q0-2-1.4-3-1.2-1.2-3.2-1.2t-3.3 1.1q-1.3 1.2-1.3 3.1 0 2 1.3 3.1 1.2 1 3.3 1 2 0 3.3-1 1.3-1 1.3-3z" aria-label="8" style="font-size:38.71057892px;line-height:1.25;stroke-width:1" transform="scale(-.97855 -1.02192)"/></g></g></svg>