<svg xmlns="http://www.w3.org/2000/svg" width="234" height="333"><g transform="translate(0 -719.4)"><rect width="233.2" height="332.2" x=".4" y="719.7" rx="8.9" ry="8.9" style="fill:#fff;fill-opacity:1;stroke:gray;stroke-width:.75590551;stroke-linecap:butt;stroke-linejoin:miter;stroke-miterlimit:4;stroke-dasharray:none;stroke-opacity:1"/><path d="m117 914.2 28.2-28.3-28.2-28.4L88.8 886ZM17.2 780.7l9.4-9.4-9.4-9.5-9.4 9.5zM216.8 991l9.4 9.5-9.4 9.4-9.4-9.4z" style="fill:red;fill-opacity:1;stroke:none;stroke-width:1"/><g style="font-style:normal;font-variant:normal;font-weight:700;font-stretch:normal;font-size:3.77201176px;line-height:0%;font-family:'Levenim MT';-inkscape-font-specification:'Sans Bold';letter-spacing:0;word-spacing:0;fill:red;fill-opacity:1;stroke:none;stroke-width:1"><path d="M32 627.5h-4.6l-1.8-4.9H16l-2 4.9H9.4l9-23.5H23zm-8.1-9.2-3.1-8.1-3.2 8z" aria-label="A" style="font-size:32.76629639px;line-height:1.25;stroke-width:1" transform="scale(.83055 1.20403)"/></g><g style="font-style:normal;font-variant:normal;font-weight:700;font-stretch:normal;font-size:3.77201176px;line-height:0%;font-family:'Levenim MT';-inkscape-font-specification:'Sans Bold';letter-spacing:0;word-spacing:0;fill:red;fill-opacity:1;stroke:none;stroke-width:1"><path d="M-249.7-844h-4.6l-1.9-4.9h-9.6l-2 4.9h-4.6l9.1-23.5h4.6zm-8.2-9.2-3-8.1-3.2 8z" aria-label="A" style="font-size:32.76629639px;line-height:1.25;stroke-width:1" transform="scale(-.83055 -1.20403)"/></g></g></svg>