<svg xmlns="http://www.w3.org/2000/svg" width="234" height="333"><g transform="translate(0 -719.4)"><rect width="233.2" height="332.2" x=".4" y="719.7" rx="8.9" ry="8.9" style="fill:#fff;fill-opacity:1;stroke:gray;stroke-width:.75590551;stroke-linecap:butt;stroke-linejoin:miter;stroke-miterlimit:4;stroke-dasharray:none;stroke-opacity:1"/><path d="m117 814 28.2-28.3-28.2-28.3-28.2 28.3Zm0 200.3 28.2-28.3-28.2-28.4L88.8 986Zm0-100.1 28.2-28.3-28.2-28.4L88.8 886ZM17.2 780.7l9.4-9.4-9.4-9.5-9.4 9.5zM216.8 991l9.4 9.5-9.4 9.4-9.4-9.4z" style="fill:red;fill-opacity:1;stroke:none;stroke-width:1"/><g style="font-style:normal;font-variant:normal;font-weight:700;font-stretch:normal;font-size:3.77201176px;line-height:0%;font-family:'Levenim MT';-inkscape-font-specification:'Sans Bold';letter-spacing:0;word-spacing:0;fill:red;fill-opacity:1;stroke:none;stroke-width:1"><path d="M26.4 754.4q0 4-2.8 6.2-2.5 2-6.6 2-9.3 0-9.3-8.9 0-.4.2-.7.2-.2.6-.2h2.6l.6.2.2.6q.3 2.4 1.4 3.5 1.1 1.2 3.5 1.2 2 0 3.2-1 1.2-1.2 1.2-3 0-4.1-4.4-4.8l-.8-.3q-.2-.3-.2-3.1 0-.4.2-.7l3-1q1.5-.6 1.5-2.9 0-3.3-4-3.3-1.8 0-2.9.9-.5.4-1 1.6-.5 1-1 1H9.2q-1 0-1-1 0-3.2 2.6-5.1 2.3-1.7 5.7-1.7 3.9 0 6.3 1.6 2.9 2 2.9 5.6 0 4.4-4.4 6 5.2 2.2 5.2 7.3z" aria-label="3" style="font-size:39.92524338px;line-height:1.25;stroke-width:1" transform="scale(1.00925 .99083)"/></g><g style="font-style:normal;font-variant:normal;font-weight:700;font-stretch:normal;font-size:3.77201176px;line-height:0%;font-family:'Levenim MT';-inkscape-font-specification:'Sans Bold';letter-spacing:0;word-spacing:0;fill:red;fill-opacity:1;stroke:none;stroke-width:1"><path d="M-205.5-1033.7q0 4-2.8 6.1-2.5 2-6.6 2-9.2 0-9.2-8.8l.1-.8.7-.1h2.5l.7.1.1.7q.4 2.4 1.4 3.5 1.2 1.2 3.5 1.2 2 0 3.2-1 1.3-1.2 1.3-3.1 0-4-4.4-4.8-.6 0-.8-.2-.2-.3-.2-3.1l.2-.8 2.9-.8q1.5-.7 1.5-3 0-3.4-4-3.4-1.8 0-2.8 1-.6.4-1.1 1.6-.5.9-.9.9h-2.5q-1 0-1-.9 0-3.2 2.6-5.1 2.3-1.7 5.6-1.7 3.9 0 6.3 1.6 2.9 1.9 2.9 5.6 0 4.4-4.4 6 5.2 2.2 5.2 7.3z" aria-label="3" style="font-size:39.92524338px;line-height:1.25;stroke-width:1" transform="scale(-1.00925 -.99083)"/></g></g></svg>