<svg xmlns="http://www.w3.org/2000/svg" width="234" height="333"><g transform="translate(0 -719.4)"><rect width="233.2" height="332.2" x=".4" y="719.7" rx="8.9" ry="8.9" style="fill:#fff;fill-opacity:1;stroke:gray;stroke-width:.75590551;stroke-linecap:butt;stroke-linejoin:miter;stroke-miterlimit:4;stroke-dasharray:none;stroke-opacity:1"/><path d="M58.6 814 87 785.8l-28.3-28.3-28.2 28.3Zm0 200.3L87 986l-28.3-28.4L30.4 986Zm0-66.7L87 919.2 58.6 891l-28.2 28.3Zm0-66.8L87 852.5l-28.3-28.3-28.2 28.3ZM175.4 814l28.2-28.3-28.2-28.3-28.3 28.3Zm0 200.3 28.2-28.3-28.2-28.4L147 986zm0-66.7 28.2-28.4-28.2-28.3-28.3 28.3Zm0-66.8 28.2-28.3-28.2-28.3-28.3 28.3ZM117 914.2l28.2-28.3-28.2-28.4L88.8 886ZM17.2 780.7l9.4-9.4-9.4-9.5-9.4 9.5zM216.8 991l9.4 9.5-9.4 9.4-9.4-9.4z" style="fill:red;fill-opacity:1;stroke:none;stroke-width:1"/><g style="font-style:normal;font-variant:normal;font-weight:700;font-stretch:normal;font-size:3.77201176px;line-height:0%;font-family:'Levenim MT';-inkscape-font-specification:'Sans Bold';letter-spacing:0;word-spacing:0;fill:red;fill-opacity:1;stroke:none;stroke-width:1"><path d="M26.9 734.1q0 6-2.2 9.7-2.6 4.8-8.1 4.8-3.3 0-5.4-1.3-2.5-1.6-2.5-4.7 0-.6.9-.6h2.8q.6 0 1 .6.5 1 .9 1.2.7.6 2.3.6 2.5 0 4-2.3 1-2 1.2-4.7-2.3 1.7-5.4 1.7-4 0-6.3-2.8-2.2-2.6-2.2-6.6 0-4.3 2.4-6.7 2.4-2.5 6.7-2.5 9.9 0 9.9 13.6zm-5.3-4.3q0-2-1-3.5-1.3-1.6-3.3-1.6-2.1 0-3.3 1.5-1.1 1.5-1.1 3.6 0 2.2 1 3.6 1.2 1.5 3.4 1.5 2 0 3.3-1.5 1-1.4 1-3.6z" aria-label="9" style="font-size:39.19484329px;line-height:1.25;stroke-width:1" transform="scale(.9908 1.0093)"/></g><g style="font-style:normal;font-variant:normal;font-weight:700;font-stretch:normal;font-size:3.77201176px;line-height:0%;font-family:'Levenim MT';-inkscape-font-specification:'Sans Bold';letter-spacing:0;word-spacing:0;fill:red;fill-opacity:1;stroke:none;stroke-width:1"><path d="M-209.3-1021.3q0 6-2.1 9.7-2.7 4.7-8.2 4.7-3.3 0-5.4-1.2-2.5-1.6-2.5-4.7 0-.6 1-.6h2.8q.5 0 .9.6.6 1 .9 1.2.8.6 2.3.6 2.5 0 4-2.3 1-2 1.2-4.7-2.3 1.7-5.4 1.7-4 0-6.3-2.8-2.2-2.6-2.2-6.6 0-4.3 2.4-6.7 2.4-2.5 6.7-2.5 9.9 0 9.9 13.6zm-5.2-4.3q0-2-1.2-3.5-1.2-1.7-3.2-1.7t-3.3 1.6q-1.1 1.4-1.1 3.6t1 3.6q1.3 1.5 3.4 1.5 2 0 3.3-1.5 1-1.4 1-3.6z" aria-label="9" style="font-size:39.19484329px;line-height:1.25;stroke-width:1" transform="scale(-.9908 -1.0093)"/></g></g></svg>