<svg xmlns="http://www.w3.org/2000/svg" width="234" height="333"><g transform="translate(0 -719.4)"><rect width="233.2" height="332.2" x=".4" y="719.7" rx="8.9" ry="8.9" style="fill:#fff;fill-opacity:1;stroke:gray;stroke-width:.75590551;stroke-linecap:butt;stroke-linejoin:miter;stroke-miterlimit:4;stroke-dasharray:none;stroke-opacity:1"/><path d="M58.6 814 87 785.8l-28.3-28.3-28.2 28.3Zm0 200.3L87 986l-28.3-28.4L30.4 986Zm0-66.7L87 919.2 58.6 891l-28.2 28.3Zm0-66.8L87 852.5l-28.3-28.3-28.2 28.3ZM175.4 814l28.2-28.3-28.2-28.3-28.3 28.3Zm0 200.3 28.2-28.3-28.2-28.4L147 986zm0-66.7 28.2-28.4-28.2-28.3-28.3 28.3Zm0-66.8 28.2-28.3-28.2-28.3-28.3 28.3ZM117 981l28.2-28.4-28.2-28.3-28.2 28.3Zm0-133.5 28.2-28.4-28.2-28.3L88.8 819Z" style="fill:red;fill-opacity:1;stroke:none;stroke-width:1"/><g style="font-style:normal;font-variant:normal;font-weight:700;font-stretch:normal;font-size:3.77201176px;line-height:0%;font-family:'Levenim MT';-inkscape-font-specification:'Sans Bold';letter-spacing:0;word-spacing:0;fill:red;fill-opacity:1;stroke:none;stroke-width:1"><path d="M23.8 544.6v.7H12.4q-.9 0-.9-1v-1q0-1 .9-1H16v-13h-4.3q-1 0-1-1l.1-.7v-.7q0-.5 1-.5h2q2.3 0 2.8-1.5h2.7v17.4h2l1.4-.1q.8 0 1 .4l.1 2z" aria-label="1" style="font-size:28.97036934px;line-height:1.25;stroke-width:1" transform="scale(.72185 1.38533)"/></g><g style="font-style:normal;font-variant:normal;font-weight:700;font-stretch:normal;font-size:3.77201176px;line-height:0%;font-family:'Levenim MT';-inkscape-font-specification:'Sans Bold';letter-spacing:0;word-spacing:0;fill:red;fill-opacity:1;stroke:none;stroke-width:1"><path d="M38 518.6q0 9.6-6.6 9.6-6.8 0-6.8-9.7 0-10 7-10 6.5 0 6.5 10zm-3.4-.3q0-7-3.3-7-1.9 0-2.7 2.8-.5 1.7-.5 4.3 0 7 3.2 7 2 0 2.7-2.8.6-1.7.6-4.3z" aria-label="0" style="font-size:27.65928841px;line-height:1.25;stroke-width:1" transform="scale(.69919 1.43023)"/></g><path d="m17.2 780.7 9.4-9.4-9.4-9.5-9.4 9.5z" style="fill:red;fill-opacity:1;stroke:none;stroke-width:1"/><g style="font-style:normal;font-variant:normal;font-weight:700;font-stretch:normal;font-size:3.77201176px;line-height:0%;font-family:'Levenim MT';-inkscape-font-specification:'Sans Bold';letter-spacing:0;word-spacing:0;fill:red;fill-opacity:1;stroke:none;stroke-width:1"><path d="M-300.3-734.3q0 .4-.2.6-.3.2-.7.2h-10.4q-1 0-1-1v-1.2q0-.9 1-.9h3.4v-13h-4.3q-.9 0-.9-1v-.7l.1-.8q0-.4 1-.4h1.9q2.4 0 2.8-1.5h2.7v17.4h2l1.4-.1q.8 0 1 .4.2.4.2 2z" aria-label="1" style="font-size:28.97036934px;line-height:1.25;stroke-width:1" transform="scale(-.72185 -1.38533)"/></g><g style="font-style:normal;font-variant:normal;font-weight:700;font-stretch:normal;font-size:3.77201176px;line-height:0%;font-family:'Levenim MT';-inkscape-font-specification:'Sans Bold';letter-spacing:0;word-spacing:0;fill:red;fill-opacity:1;stroke:none;stroke-width:1"><path d="M-296.6-720.2q0 9.7-6.7 9.7-6.8 0-6.8-9.7 0-10.1 7-10.1 6.5 0 6.5 10.1zm-3.5-.3q0-6.9-3.2-6.9-2 0-2.7 2.7-.5 1.8-.5 4.3 0 7 3.2 7 1.9 0 2.7-2.8.5-1.7.5-4.3z" aria-label="0" style="font-size:27.65928841px;line-height:1.25;stroke-width:1" transform="scale(-.69919 -1.43023)"/></g><path d="m216.8 991 9.4 9.5-9.4 9.4-9.4-9.4z" style="fill:red;fill-opacity:1;stroke:none;stroke-width:1"/></g></svg>