<svg xmlns="http://www.w3.org/2000/svg" width="234" height="333"><g transform="translate(0 -719.4)"><rect width="233.2" height="332.2" x=".4" y="719.7" rx="8.9" ry="8.9" style="fill:#fff;fill-opacity:1;stroke:gray;stroke-width:.75590551;stroke-linecap:butt;stroke-linejoin:miter;stroke-miterlimit:4;stroke-dasharray:none;stroke-opacity:1"/><g style="font-style:normal;font-variant:normal;font-weight:700;font-stretch:normal;font-size:3.77201176px;line-height:0%;font-family:'Levenim MT';-inkscape-font-specification:'Sans Bold';letter-spacing:0;word-spacing:0;fill:red;fill-opacity:1;stroke:none;stroke-width:1"><path d="M27.8 722.4h-6l-8.4-12v12H8v-27h5.3v9.3l7.3-9.4H27l-9.5 12.1z" aria-label="K" style="font-size:37.72449112px;line-height:1.25;stroke-width:1" transform="scale(.95622 1.04578)"/></g><g style="font-style:normal;font-variant:normal;font-weight:700;font-stretch:normal;font-size:3.77201176px;line-height:0%;font-family:'Levenim MT';-inkscape-font-specification:'Sans Bold';letter-spacing:0;word-spacing:0;fill:red;fill-opacity:1;stroke:none;stroke-width:1"><path d="M-216.9-971.7h-6l-8.5-12v12h-5.2v-27.1h5.2v9.3l7.4-9.3h6.2l-9.5 12z" aria-label="K" style="font-size:37.72449112px;line-height:1.25;stroke-width:1" transform="scale(-.95622 -1.04578)"/></g><path d="m17.2 761.8 9.4 9.5-9.4 9.4-9.4-9.4zM216.8 991l9.4 9.5-9.4 9.4-9.4-9.4zM58.6 804.6l18.9-18.9-18.9-18.9-18.8 19Zm116.8 200.3 18.8-19-18.8-18.8-18.9 18.9z" style="fill:red;fill-opacity:1;stroke:none;stroke-width:1"/><g style="stroke-width:3.18132639"><g style="display:inline;stroke-width:3.18132639"><g style="stroke-width:3.18132639"><path d="M1122 32.4c.6 512.3 6 1141.8 6.4 1699.8l1060-.3-7.2-1697Zm313.3 10.9c182.9 5 366.9-.5 551.1 1 0 0-67 116.6-87.2 153.3-4.5 8-5 13.7-2.5 17 3.7 5.3 3.4 14-.8 19-1.7 2.3-2.5 3.7-2.7 5-.1 1.3 1 2.7 2 5 3.3 11.2-5.2 19-14 22.5-6 2.4-19.2 4-29 3.6-61-3-181-54.6-230.4-58.6-34.3-9.6-78.6-6.3-115-4.2-7 .4-5.8-15.7-5.8-15.7-5.7-53-43.3-99.2-65.7-148zm561 4.8 172.9.2.7 27.9-72.7 74.5-12.2 12.8-.5 67.2c-49.5-26.6-59.4-58.4-68.5-93.4-82.8 61-86.7 194.9 3.7 263.7.8-29.9 23.6-88.7 64-93l.6 233-49.7-48.5-108 1.4c17.7-29 18.1-51.9 6.6-79-19.4-44.2-49.4-145.2-47-144.9 0 0 .8-2.2 3.2-2.7 9-2 14.7-10.7 12.1-21-.5-3.4-.4-2.6 1.8-7 8.8-15-1.6-31.2-1.6-31.2zm-573.1 1.4 64.8 117.2s-.8 5.4-.5 8.6c.5 4.5 2 8.5 4.7 12.8 1.7 2.8 3 6.6 3.3 10.1.7 5.8.7 5.8 9.2 13.5 1.8 1.6 2.1 2.6 1.5 4.3-2.9 7.1-1.2 21.7 4.4 39 7 22 8.8 21.7-4.3 51-2.7 6.2-6 14.4-9.6 22-16.2 33.2-18.7 42.2 9.1 60 7.8 4.9 10.1 9.2 8.2 19.2-1.6 7.8-1.9 12.8 1.9 17.2 2.4 2.8 4.6 3.3 4 5.5-.4 1.5-2.2 8-1.6 13.5 1.6 14.7-15.4 36.4-31 44-3 2.2-4-.5-5.7-3.6-16-28.1-56.1-16.7-58.8 16.9-.7 8.9-.4 12.7-2.7 14.6-.8.7-3.1 2-3.1 2s-60 39-98 59c-2.5 1.3-4.7 3.4-6.5 3.8-2 .4-3.5 0-4.8-1.2-14-26.8-6.3-58.4-5-69.6-.3-4-3.7-4.7-8.9-4.7-8.6-.1-21 8.6-23.8 16.8-2.3 7-3.8 11.5-5.9 11.5-2 0-3.1-2.9-8.3-12.9a147.3 147.3 0 0 0-22.7-35.7c-8.1-9.6-15-11-23-3.7-5.5 5-5.3.6-10-1.9-8-5.5-20.3-.6-20.6 7.2-.2 6.5-.3 11.4-6.9 11.9-7.3.4-10.5 10-8.4 23.4 1 7.2 1.3 8.3-1 11-7 8.4-8 14.3-4 26.2 11.1 33.9 27.2 56.7 42.4 87.5 0 0-38.5 21.9-61.4 34.6l-.6-630.4zM2172.4 83l1 547.6-82.8-81.3s-1.6-105-1.6-147.9c.1-42.9.7-85.8.6-93.7-.2-8 .4-42 .7-76.8.5-73-6.2-64 7.4-78zm-161.7 65.7 4.5 13.2c-34.6 19.9-77 130.6.8 211.8l-1.5 16.8c-81.7-74-66.6-180.2-3.8-241.8zm6 15.6c11.8 24.5 25.4 46.3 43.8 59.6-10 23.7-14.2 50 2.7 85.2-11.9 6.5-28.3 23.7-45.3 59-61.4-62.1-47.7-152.1-1.3-203.8zm-457.3 46.4c34 0 69.6 5.6 102.2 15.4 20.6 104 56.7 173.8 56.5 214.5 0 0-2.8-.5-8.9-4.9-14.8-10.7-34.3-4.7-44.8 9-9.9 12.9.1 30.8-5 38.4-9.6 14-34.3 40-38.4 39.2-3-.6-2.5-2 8-18.2 11-16.9 19.5-32.2 16-36-1.6-1.6-2.5 1.8-10.7 16-19.3 33.6-36.3 54.4-43 51.7-3.2-1.3-1.5-4 12.8-23 16.1-21.3 20.6-34.6 19-40.5-1.2-4.6-3.7 2.7-10.4 15.9-7.2 13.8-20.1 29.3-30.5 44.1a27.3 27.3 0 0 1-13 11c-4 1.7-10.5 4.6-14.2 4.1-2-.2-.6-1.4 2-4a245 245 0 0 0 48.4-67.5c1.5-3-.7-7.2-3.2-4.1-15.5 27.1-37 61-60.2 75.9-5 3.2-12.6 5.9-19.3 5.3-11.5-.3-7.5-2.9 3-9.6 22.4-14.3 53.7-55.6 58.8-70.2 1.2-3.5-.1-5.5-2.3-5.2-18.4 29.4-42.8 61.8-71 75.3-15.2 7.3-34.4 8.8-43.9 4.2-7-3.4-5.2-4.6 7.1-5.4 29.6-2.9 64.2-30.6 81.3-60 10-16.2 3-12.5-8.5 3.2-19.5 26.7-58.4 52.4-82.5 50.4-24.3-1.5-38.3-20.4-35.2-36.5a28 28 0 0 1 22.5-22.7c23.3-4.9 38.6 32 17.2 39-7.3 2.4-10 .6-7.4-2.3 15.9-7 8.8-26-4.6-27.9-8.4-1.2-18.1 4.5-18.5 17.5.2 9.7 8.2 19.2 24.3 19.4 19 .3 48.2-13.4 65.9-38.6 12.5-19.3 1-12.8-8.4 0-8.3 11.4-35 27.3-37 26.7l1-13c.3 2.2 41-25.7 38.6-46.4-1.5-15 .7-19.6 16.4-19.5 11.7.2 26.6 4.3 31 9.7 4.4 5.3 9.4 7 7.2-2-3.6-14.6.7-17-7.8-14.2-5.8 2-11-2.8-16.8-6.9a38.4 38.4 0 0 0-24.2-6.2c-7.2.3-10.5-.1-9.3-7 .8-4.8 1.7-9.1.3-12.3-2.3-5.1-11.3-10.4-21.6-18-12-8.9-9.8-9.4 16-68.8 10.8-24.9 10.8-30 4.3-48.4-10.2-29-11.8-40.7 7.4-44.8 10.8-1.2 22-1.8 33.4-1.8zm109 16.8 10 2.9s31.1 106.2 49 158.1a223 223 0 0 1 10.5 57.3c-.5 27.7-16 47.6-35 49.7a33.9 33.9 0 0 1-34.8-20.4c-5.6-14.2-1.4-31 14.9-36.8 28-10 48.6 25.8 21 36.9-14.2 5.7-27.7-4.6-21.3-16.6 4.5-8.4 17.2-7.5 20.2 1.2 2.4 9.2 6.5 4.9 4.7-1.4-5.2-19.9-30.8-15.2-32.9 3.2 0 22.7 25 28 39.8 15.3 11.5-10.2 12.7-28.7 9.8-44.7-4-33.2-22.7-76.3-36-125.5-6.8-24.6-16.4-54-19.9-79.2zm396.7 1.2 18.7 7.4-.4 61.7-15.9 5.5c-20.8-31.8-3.5-74.6-2.4-74.6zm-379.4 4 13.7 5.3c7.5 43.5 43 126.8 55.4 189 3.5 37.2 4 48.2-21.2 68v-.2h-13.7s0-.8 6-5.3c33-24.8 13.3-79.4.8-121.3-21.8-67-41.3-135.6-41-135.5zm-128.2 4.4a47 47 0 0 0-5.3.2c-20.7 1-24.1 2.4-24.2 6.9 0 8.5 3.4 12.2 22.6 10.1a127 127 0 0 1 57.4 8c19 8.1 23.5 10 30.3 13.6 17.1 8.8 14.1 0-1.3-10.1-31.6-20.8-53.5-29-79.5-28.7zm149.3 3 12.8 4.9s3.4 10 4.7 15.8c12.5 55.5 46.6 118 50.5 183 1 21.4-2.7 41.2-18.3 50.9h-11.8c12.6-12.6 21-16.2 17.5-59.7-5.6-56-42.5-125.8-55.5-195zm22.8 9 11.9 4.4c13.6 75 81.4 187.2 38.3 241.3H1769a71.4 71.4 0 0 0 12.2-48.5c-4.2-68.2-39-134.4-51.6-197.2zm19.9 6.9 12.8 4c17.3 76 84 200.6 36.5 235l-9.4-.2c35.8-67-18.5-136.2-39.9-238.8Zm22.3 7c4 2.3 9.5 3.3 13.8 4.6 13.4 57.5 38 114 49.2 167.6 3.8 29.3-2.7 51.3-21 59.6h-4c16.5-25 13.4-56.4 4.6-90.5-11.9-45.7-35-96-42.6-141.2zm-201.4 1c-6 0-12.1 1-18.7 3-6.7 2.6-6 7.9.3 6.8l8.4-1.5c15.3-2.7 34.2 2.9 57.1 16.7 5.5 3.4 11.5 6.6 13 7.7 4.2 3.2 8.7 3.1 7.2-.9a70 70 0 0 0-17.3-12.8c-16.7-10-32.2-18.7-50-19zm223.1 5 12.9 2c24.2 111.4 77.4 180.5 31.9 221.8h-11.4c12.4-12.7 18-32.6 14-56.1-4.3-24-16.7-62.1-27-95.6-11.9-38.9-21.5-71.7-20.4-72zm18.5 3.2 10.9 2c12.8 45.3 34.4 101.4 47.5 148 8 28.8 4.8 64.2-13.1 70.7l-9.2.2c15.2-20.4 17.4-41.6 10.4-69-14.3-56.2-35.9-105.2-46.5-151.9zm67.3 0c11 47 37.4 118.5 47 143.2 12.6 25.3 8.8 62.6-10.2 77.4l-9 .2c10.9-10.2 14.6-27.3 12.9-45-5-50.2-40.4-119.7-53.3-173.2zm-47.9 2.3 11.3 1c11.3 49 33.2 96.8 47.4 145.8 2.6 11.1 5 24.6 4 34.6-2 20.9-10.6 37.4-18.2 37.4h-7.7c15.8-19 15-44.6 8.3-72.3-11.2-45.7-38.3-100.7-45-146.5Zm-292.9.3c-4.7 0-4.7 4.3 2.8 10.8 4.5 4 4.2 2.7 4 5.2-1.2 11 .5 20.9 5 9.7 1.2-3 3-6.4 4.7-6 3.3 1 1.6 7.1 3.2 10.2 2.7 5.4-.2 6.7-6.7 5-4.7-1.2-5 1.4-8 4.6-5 5.7-4.2 9.1 3.7 7.4 1.3-.3 2.4 0 3.4.3 2.4.5 4.7 2 10.5 6.6 7.5 5.7 18.2 13.4 25.1 14.5 11 1.9 8.6-3.4-.4-6.9-7.8-3-17.5-11.2-17.4-13.5 0-1.8 2.4-.7 16.4-4.6a143 143 0 0 0 18.3-7c6-2.8 6.2-2.8 15.5-2.5 15.8.5 18.3 0 7.2-8.3-22.5-16.6-52.5-27.5-68.4-20.6-4.8 2.1-4.7.8-8.1-1.2a23.7 23.7 0 0 0-10.8-3.8zm321.5 1.4c15.5 60 45.6 113.7 53 170.6a54 54 0 0 1-14.6 46h-9.1c-1.4.1 12.7-21.7 11.5-40.3.3-10-.7-20.6-3.6-31.1-17.7-50.6-35-96.4-48.6-144.6zM1578.9 296h.2c4.3.7 4.4 2.4 3.2 4.6l-5 9.6s-4.4.8-5.3-.3c-1.5-2.2 4.2-13.5 6.9-13.9zm10.8 2c.4 0 1 .2 2 .6 4 1.6 11 4.9 8 7.4-3.6 3-17.6 4.4-17 3.2l4.7-8.7c1-1.8 1.5-2.5 2.3-2.5zm-43 52.4a2 2 0 0 0-1 .2c-.7.5 1.1 3.8 3.8 7.5 12.4 16.7-4.8 21.7-17 12.7-11.5-9-29.3-8.1-26.7 1.3.9 3.3 0 5 6.4 5 5.7.1 7.2.4 12.4 4 19.7 13.5 45.3-4.6 32.8-24-2.3-3.7-8.2-6.9-10.7-6.7zm48.7 26.1c-7.1 0-11.7 5.4-2.7 7 32.1 5.8 10.6 39-12 21.9-20.4-18.4-47.7-18.3-48-5.2 0 3.3 0 3.4 4.9 4.3a176.2 176.2 0 0 1 43.8 14.6c13.6 5 31-1.5 34.4-13 3.2-10.4.7-29.6-20.4-29.6zm-402.4 107c4.3 0 8.9 3.8 12.1 9.3 7.6 12.7 16.7 34.1 22.6 45.9 1.4 3 1.5 5.6 1.4 7 .5 7 2.8 9.5 6.9 6.4 4-3 9.6-8.2 3-9-6.6-5-10.2-12.2-6.2-16.7 3-3.3 1.9-5.4-.5-5.5-9.3-.2-23-27.7-16.6-33.6 8.8-8 18.5 2 39.1 42.9 9.1 18 9.5 37.8 1.7 28-2.6-2.5-2-1.2-5.2 6.6-2.3 5.9-4.2 8.6-13.1 17.2-10.9 10.4-17.5 18.7-17.7 20.5-.5 3.4 5.9.2 10.5-5.8 10.3-10 10.7-12.8 10.6.6-.1 12-.7 14.3 1.4 14.2 3.4-.2 5.2-9.7 6.8-21.2 2-10.4 7.3-15.6 16.3-21.4 2.4-1.6 2.5-2.7 2-7.2-1.7-14.7 6.7-42 10.5-35.3.5 1.6 2.2 5.1 3 7.6.7 3.9 3.2 8.2 6.9 8.5 4.6 3.4 4.6 5.3 6.2 18 .5 4 2.3 10.2 3.6 13.5 2.4 6.2 4.5 9.7 3.2 11.6l-2.6 2.6-75.2 44.5s-5.9 3.2-8 4.1c-6 2.7-9.6.7-12.5-3.7-16-23.7-26.9-50.3-38-75-6.8-14.5-.2-24.1 8.5-12.4 3.4 4.6 1.6 7.5 0 16.3-.3 1.6 1.1 1 4 1.5 4.3-.5 6.4 3.4 6.3 10-2.8 9.6 1 4.4 2.9 4 3.4 0 4.2 2.1 6.1 6 1.3 5.6 3.7 4 7.3.3 3-3 3-3-3-10A150 150 0 0 1 1169 522a18 18 0 0 1 .1-9.9c4.7-10.5 11.1-10.5 18.2 4.1 1.2 2.5 3.6 6.6 5.3 9 2.7 4 4.4 7.3 4.3 13.5-2.1 5.3-2.4 5.4-.6 6.1 4.4 1.8 12.4 9.9 12.8 17.1.3 7.4 1.6 11.3 7.4 7 6.6-5 3.8-7-2.7-13.4-6.9-8.2-7.3-15.2-3.2-21 .6-2 .4-2.6-2.2-2.3-7.9.7-15.6-9.3-10-17 2.5-4.4 2.2-5.6-1.4-5.7-1.9 0-5 .3-6.5-.6-2.3-4.4-7.2-10.5-7.2-15.5 2.3-7 6-10 9.7-9.9zm470.8.4c13 8 26 16.3 40.6 20a223.8 223.8 0 0 1-134 106.7c1.5 7.8 2.6 15.6 10.1 20.4-.2-1.2-3.6-15-2.8-18 62.8-16 118.2-77.6 132.3-109.3l276.3-3c-204.8 196.5-213 473-45.8 704.8l-19.2 11.2c-128.8-192.9-127.5-378.7-88.9-503.2a499.2 499.2 0 0 1 113.9-194.2s-149.8-2-224.4.7a318.2 318.2 0 0 1-35.5 45.8s38-36.6 37-43c69 0 140.3-4 209.3.8-80.7 96.6-120.5 196.4-127.4 290.3-.3 12.2-1 5.4-5 9.9l-12.8 19.7-10.2-20.5c-7-2.3-20.7 1.3-26.5-.8-28.4 126.8.4 279.8 37.7 379.6 0 0-9.3 5.3-20.9 4.4-12.6-2.8-15.7.7-26.7 2.9-12.6 2.4-17 2.4-19.8 5.6a29.4 29.4 0 0 1-7.5 6c-30.7 11-66.7 52.9-66.7 52.3l-33.8-15.2c31.2-61.1 67.7-83.1 132-110.2l-6-27.3c-68.5 25.4-112 56-146.3 115.2-41.7-.6-210.4-1.8-210.5-1.2 68.8-78.3 123-196.3 129-288.4 1.4-17.9-1.1-9.3 6.8-14.6l12.5-14.9 9.8 14.7s7 9 11.5 1.5c12.6-128.4-.7-274.7-62.5-376.7 11-.7 21.9-1 32.4 5.2 24.2 54.8 38.4 122.4 44.6 173.2a829.7 829.7 0 0 1-1.2 198l4 .6c12.1-79.9 8-164.9-3-239.2-5.7-38.7-24-99.3-36.5-127.3-3.5-7.8-6.2-9.8-3-10.9 75.4-6.3 110-31.5 137.2-71.6zm-208.9 6.7a10.4 10.4 0 1 1 0 20.9 10.4 10.4 0 0 1 0-20.9zm566.4 5.3a622 622 0 0 0-58.4 62.8 8121 8121 0 0 0 167.8 223.5s17.8-10.5 17.8-11.9c0-.6-1.4-4.1-1.8-3.4a82.4 82.4 0 0 1-14.4 9.5l-163-213.9s8.9-10.5 11.6-13.9c12.6-4.1 47.9-47.8 49.6-46.9 27.6 21.2 110.9 110.8 143 138.3l.4 248.8c-3.4 10-92.1 48.4-154.8 191.5-31.6 17.7-66.5 27.2-99 42.5 0 0 8.3 13 12.3 16.6-5-10.7-5.8-12.8 5.5-17.3l234.5-95.7-.4 19.4-3.8 33.3c-63.8 39.4-117.7 55.9-205.6 115.2-6.3 1.5-11.3 7.5-18 7.9-224.4-330.6-81-579.7 50-704.8zm-731 17c6.1 0 4.6 14.3 2.3 19.2-4.5 3.5-9 .4-9-6.3.1-2.2-.3-4.2-.8-4.5-3.4-2.2 2.2-8.5 7.5-8.5zm137.1 8.8c5.2 4 7 9.1 9 14.4-7-1.1-25.6-6.5-16.9-10.6zm-33.9 18.5c161.9 244.8 154.7 504.9-26 702l228.6-.4c29-57.4 77.5-92.4 139.6-114l5.4 18.1c-71.3 22.9-107.4 60.8-136 113.4h-272.7c104.8-112.7 152.7-208 160.3-336.7 7.2-122.7-24-234.7-118.8-369.4zm45.6 2.8 38.2 18-5.6 39.2-40-18.4zm-68.8 11c204.2 308.9 116.6 526.1-46.4 707l-30 .4-70-65 1.2 395.2s-68.2 66.8-76 74.8c-7.8 7.5-13.6-4-13.6-4l.2-523.8 3-20.5 1-113 43.4-22.9 163.2 213.9s-6.6 9.6-9.6 11.3c-2 1.2-.6 3 1 2.8 4.7-.6 17.7-15.2 15-17.5a14793.8 14793.8 0 0 1-169.2-216.9l-45.8 24s1.3-93.8.5-129.7c1.8-8.5 8.1-6.2 12.4-10a341 341 0 0 0 112.9-115.5l12.8-22.6c3.6-5.9 12.5-24.1 17.6-35.8 3-6.5 6-14.3 7.2-15.3 31.7-10.3 65-25 97-38.2l-46-68.9Zm-125.1 4c-1.8 0-6.1 1.9-12 7.3-11 10-25.4 26.2-25.5 29.3 3 1 5.6-.6 7.9-3 9.2-13.5 23.3-18.8 31.6-30.6 1.3-2.2 0-3-2-3zm102.8 14.3s31.7 46.1 39.8 58.4c-83.5 33-170.8 76.7-248.2 105V717l12.2-33.2zm124.2 30.5 31.2 16.1-8.8 35.2-31.5-17.6Zm25.7 58.6 25.7 18.7-11.7 29.8-25.9-17.7zm-209.3 21.9s-4 13.8-10.6 26.2c-31.7 55.2-62.8 104.2-127 146.8-2.4-2.2-9.4-14.4-9.4-14.4l-.7-16.4c34-27.3 63.4-47.4 108.5-127.6l13-5.3 11.2 4.8 7.5-13.4zm133.5.1c-29.5 62.8-58.7 127.5-105.8 176.4l129 180c42.4-127.1 26.7-246.2-23.2-356.4zm-162.3 13.7-6.1 10.7 10.7 6.2 6.2-10.7zm-17.5 1.1a269.8 269.8 0 0 1-104.4 121.4l-1.8-76.7Zm8.3 15.6-6.2 10.8 10.7 6.1 6.2-10.7zm263.6 2.3 23.2 22-13.8 24.4-23.8-19.7Zm356.2 10.8-.1.1c-40.9 127-28.6 248.3 27.5 354a736.5 736.5 0 0 1 103.7-187.2c-33-43.3-127.8-168.2-131.2-166.9Zm-629 2-6.5 10.6 10.6 6.5 6.5-10.5zm178.3 14.9a347 347 0 0 1 14 236.2l-92-116.2c33.7-41.8 56.1-81.4 78-120zm-187.8.3-7 10.2 10.3 7 7-10.2zm-10.2 14.6-7.7 9.8 9.8 7.6 7.6-9.8zm303 10.4 20.9 19.8-13.2 25.7-21.1-19.4zm-315 4.8-8 9.4 9.3 8 8-9.4zm672 2.8 92.7 119.8c-31 37-56.8 80.4-79.9 127.4-25.8-81-37.5-160.7-12.9-247.2zm-685.1 12.1-8.6 9 9 8.5 8.5-8.9zm216.8 12-42.5 61.4 48.7 62.2a300 300 0 0 0-6.2-123.6zm-230.6 2-9.2 8.4 8.4 9.1 9.1-8.4zm-13.5 12-9.6 7.8 7.8 9.6 9.6-7.8zM1532 821l17.4 20.4-17.7 21-16.5-18.7zm221.7 3.7 11.8.4c-19.4 191.6 18.8 288.6 52.5 372.9 0 0 0 3.3-1.2 4.3-5.5 2-16.6 4-25.5-3.9-45.5-116.8-55.4-260.6-37.6-373.7zm-600 2.5-10 7.2 7.2 10 10-7.2zM1896 834c-3 0-5.7 78.8 5.7 117.3l42.7-57.9zm-110.5 13 14.3 19.1-15.1 20.7-15.5-19.6zm-643.4 5.2c.7-.1 1.9 1.9 4.2 3.5 2 2.2 1.8 2-.6 4-3.7 2.9-4.9 2.4-4.8-2.2.3-3.9.6-5.2 1.2-5.3zm390.7 14.4 15.8 22.6-17.5 22.5-15-23.7zm251.5 28.6 16.6 20.3-14.3 22.2-18.1-21.2zm385 4.3 1.4 23.3-5.8-8.5-10.5 8.1 7.3 9.8 9.3-7.2.5 9.4c-58.5 42.3-83.8 91-107.5 127.4l-10.6 4.4-12-3.8-5.9 10.4-10.2 2.4c-.3 0 20.5-44.6 56.1-90 31.8-40.5 87.7-86 87.8-85.7zm6.7 36.5.5 83-104.8 40.5c27.2-46.3 59.3-89.3 104.3-123.5zm-26-10-9.6 7.8 8.3 9.4 9.5-7.8zm-14.7 12.4-9.3 8.3 8.6 9.1 9.2-8.3zm-350 4.6 19.8 21-14.5 24.9-20.5-19.7Zm335 8.9-8.6 8.8 9.5 9.1 8.6-8.8zm-13.6 14-8.3 9.1 10.1 8.7 8.3-9.1zm-13.6 15.6-7.8 9.7 10.5 8 7.7-9.6zm-301 14.9 24.7 16-12 29.4-24.7-18.8zm289 0-7.2 10.2 11.1 7.6 7.4-10.4zm-11.1 16-6.7 10.4 11.2 7.2 6.7-10.7zm-10 15.7-6.2 10.7 11.7 6.7 6.2-10.9zm-9 16.2-6.2 10.8 13 5.5 5-10.2zm-245.5 6.7 25.3 17-11.2 30.9-26.7-19zm366.6 30.2 1.2 633.4-278.3 1s-13-23-40.3-75.8c-11.5-22.4-21.2-32-22.2-49.7 1-10.4-3.8-22.2-12.3-27-3-1.6-7.7.4-6.1-4.1 1.8-5-3.7-12.5-5.1-14-1.7-3-.7-3.6-.8-14.2a71.9 71.9 0 0 0-3-22.1c-5.5-19.5-6.7-29.3-3.5-39.4a561.6 561.6 0 0 1 27.8-69.1c6.5-14 5.5-19.5-14.3-29.6-14.8-7.6-16.8-7.5-14.9-18.6.9-5.2 1.7-8.5.6-11-.7-1.6-3.1-3.7-4.6-5-1.9-1.6-1.3-5 .7-7.5s2-6 0-12c-4-12.5 5.1-29 22.4-40.4 7.7-5 7.4-4 15.4 4.4 23.3 24.4 58 9 58-25.4 0-10.8-3.6-10.2 6.5-15.2a1905 1905 0 0 1 104.8-60.8c4.6 9.4 6.2 17.4 9 27.6 2.6 8.6 2.3 9.3 1.3 26.2-.8 15.2-1.3 18.8 2.3 19.8 20.4 2.2 25.1-5 29-18.2 1.7-5.8 5-4.6 7-2.2 7.8 14.1 17.6 28.9 24 39 8.1 12.7 21.7 19.1 28.8 13 1.5-5 2.8-5 11.8-3 11 2.5 17.1-3.7 18.2-11.7.4-3.2-2-3 4-6.3 14.5-10.7 9-25.4 6.7-34.2.2.4 6.3-3.7 6.4-12 .7-43-36.6-104.9-35.7-103.3zm-351.4 24.8 29.5 14.3-7 35.3-30.3-13.7zm287.6 13.1c17 19.8 29.4 52.7 35.7 74.1 3.1 10.7 3.5 22.9.7 24.6-2.7 1.6-4-.1-3.5-6.5.4-5.3.6-9.5-1.7-9.4-6.6 1.7-6.9-8.3-6.2-10.7.5-1.5 1.3-2.6 1.6-3.5 1.7-3.9-2.6-3.3-7-3.4-3.9.1-4.9-2.3-4.7-6-.1-4-5.6-3.3-8.6-.2-2.9 2.9-2.3 6.2 1.6 8.6 5.4 3.3 10.6 11.6 23.4 40.1 7.4 16.6 5.2 28.3-3.6 28.2-6.1-.2-13.3-17-19-29.4-1.6-3.2 2.2-6.8 3.5-8.5 3.4-4.5 2.9-5.9-2.2-6-4.7 0-6.7.4-9.5-5.4-1-2.2-1.9-5.5-1.5-7.7 2.4-6.4-2.5-8-7.4-5.5-6.1 2.6-6 8 3.3 17 6 9.8 4.4 9-1.3 15.7-1.2 2.4-.5 3.8 2 3.8 7.2-2.2 15 10.8 13 15.2-2.3 2-8.3 8.9-2.5 7.5 11.9-3.2 19.1 14.2 12.1 20-10.4 5.3-12.9 3.7-29-28.4-4.9-10-10.9-20.6-11.6-21.7-.8-1.1-1-4-1-6.5.6-5.8-1.8-7-6.9-4.8-3.8 1-7.2 4-2.4 7 5.6 9.7 7.6 11.2 4.5 13.7-7 5.5-4 5.3 3.9 6.9 3.8 1.1 5.8 3.1 6.8 5.5 4 9 11.3 21.9 12 24.5 2.4 6.7-2 9.7-7.8 9.4-6.1.1-9-4.7-12-8.9-11.1-15.5-19.1-30.9-30.5-48.5l1.5-16.4s3 .6 4.7-.2c3.2-1.6 5.2-6.7 7-13.6 3-5.9 20.7-19.4 27.5-26.7 1.2-.8 2.3-2.2 2.3-3 0-2.7-7.7-.9-12.7 4.9-7.4 6.5-10.5 4.3-10.3-4-.7-10.4-7-5.2-7.3 4.8-.8 8-3.6 12.9-9.2 17.3-10.5 8.4-8.7 6.3-8.3 18 .9 20.4-7 37.1-12.1 26-1.8-4-4-8.4-8.6-8.6-3.2-.1-4.8-3.3-6.6-11.2-2.7-12.8-6.4-21-9.8-32.7zm-262 44 34 13.5-6.3 35.6-33.8-12.9zm259.7 3.2c-.2 0-.5 0-.8.2-9.6 7.2-18.4 15.4-28.9 21.6-4 2.3-8.5 8.3-8.5 10 0 1.5 4.6 1.4 9.2-.5 4.3-2 29-25.1 29-27.3 1.8-1.8 1.6-4.1 0-4zm-312.8 43.3c8 0 3.4 2.3-14.2 14.5-17.2 12-45.4 49.6-48.7 63.5-1.5 6.4 2.5 6.9 7-1.9 20.9-40 60.3-76.6 96.4-75 17.6.8 27.2 5.6 12.5 7.7-40 5-70 27.8-96.3 73.4 0 1 2.4 1 5.2-.8 24-29.4 51-68.2 98.6-65.1 34.2 2 44 42.8 15.5 56.7-24.8 12.2-47.7-17.4-27.1-34.9 6.7-5.7 10.8-3.2 4.4 2.6-13.7 12.5 3.1 34.8 20 26.3 10.1-4.3 14.2-18.9 5.2-29.9-20-24.5-63-5.9-93 33.8-3.2 4.1-6 13.2-3.3 12.2 4.7-2 7.5-5.6 10.2-9.7a90.3 90.3 0 0 1 33.5-30.3c11.2-6.2 11.9-5 7.7 5.7-1.8 4.5-3.2 6-7.5 8.8-18.3 12.5-29.7 29.2-30.1 39.9-.3 7.8 5.4 18-.8 20-10.5 5-39 1-46.8-9-5.5-7-7.7-2.9-3.5 8.6 2.7 7.6 2.6 12 6.8 11.1 5.2-2.7 8.8-2 19 3.5 5 2.7 13.6 5.2 19 6.4 9.6 2.2 11.6 1.3 11.4 5.4 0 1.3.4 5 0 7.2-1.5 12.6 9 16.9 23.4 25.2 8.3 4.8 5 9.8-4.7 33.7-5 10.9-9.3 25.5-15.5 36.5a60.5 60.5 0 0 0-2.6 41.3c7 28.7 12 43.2-.4 45.8-32 4.8-102.4 4.6-140.8-10.1-9.9-73.9-62-183.4-55.3-211.7 13.3 20 69.3 14.8 52.4-41.5 0 0 4.6-6.8 13.7-16 23.5-23.9 29.3-27.8 18.1-6.8-8.5 16-19.5 37.1-19.7 41.2-.2 3.2 2.3 4 4.3 1.4 1.5-2 3.2-6.6 4.7-10.1 14-32.8 38-62.3 54.4-69.5 4.3-1.8 4 .2 1.1 3.8a254.7 254.7 0 0 0-44.7 75.6c-.5 3 3.8 4.2 5.1 1.4 18.2-38.2 23.7-46.8 46-73.7 8.8-10.6 17-15.9 23.5-15.3 5.7.5 4 1.4-1.2 7-4 4.3-10 10.2-19.5 22.2-16.8 21.2-33.7 55.6-27.5 53.8 1 2.9 6.4-6.3 10.9-15 12.3-20.7 25.3-48 54.6-65.9a52 52 0 0 1 18.6-4zm-565 6.6 52 52 104.6-1.3c-17.2 26.8-8 68.4 1.5 92.7 18.7 47.6 46 126.2 44 127.4 0 0-15.2 3.9-16.6 13.5-2 14.3 4.1 13.3-4.8 26.2-2 2.9-.7 8.4 1.4 12.7 1.5 3.2 2.8 8 .2 11.8l-92.3 164.7-175.2.8v-33l87.7-88.7-1-65.4c47.8 14.2 64.2 63.6 68.3 100.2 86.4-78.9 84.3-197.6 2.6-272.1-15.9 78.7-73 95-71.7 93.5zm650.8 9.4c5.6.4 13.2 1.3 18.3 4-3.5 2.1-6 4.6-8.3 7.1-2.8-5-6.5-7.7-10-11.1zm145 .5c4.7 0 10.4 13.6 7.2 16.8-1.9 1.8-7.9 2.5-10 1.2-2.8-2-1.4-18 2.9-18zm-165 23.7a10.9 10.9 0 1 1 0 21.7 10.9 10.9 0 0 1 0-21.7zm-460.3 15.5 7.9.2c-14.3 19-16.2 35.4-11.2 59.2 5.7 26.8 49 127.3 51.9 155l.2 4.8-10.6.7-1.2-4c-14.9-50-29.7-88.3-40-117.5-10.4-31.6-26.2-78.3 3-98.4zm57.3.2h7.8c-.3.2-11.3 23.7-12 38-1 16.2 3 33.8 8.3 51.1 12.6 37.6 31.2 79.5 41.5 127 0 .5 1.2 5.1 1.2 5.1l-11.1-1.5-1.3-5.5c-7.7-41.7-29.1-85-42-126.2-6.5-18.7-11-41.6-8.7-59.2 1.6-12.3 14-28.6 16.3-28.8zm91.1 0c-8 12.4-15.2 27.9-15.7 40-.5 22.6 6 41.7 12.7 61.6 20.2 61.4 30 93.8 40.1 143.1l-10.7-4.6s-.4-2.7-.7-3.5c-5.7-30.9-6-28.2-39.8-132-8-24.9-15.5-46.7-14-67.4.3-11.8 10.6-35.2 21.5-37zm13 0h10s-5.6 5.9-7.2 8c-17.5 24.4-12.4 50.5-3.7 81.6 12 42.7 34.1 90.6 45.7 155.8.2 1.2 0 7.5 0 7.5l-12-4.8c-10.8-59.8-37.6-121.8-50.5-175.6-7.5-31.5-5.4-51.5 12.1-68.7 4.4-3.4 5.5-3.7 5.5-3.7zm-122.5.4h7.5s-12.5 20.6-12.5 32.7c-2.1 21.7 5.8 45.7 14.8 70.8 13.8 38.7 32.2 85.4 37.8 110l1 5.3-13.1-.7s-.7-6-1.5-8.7c-15.1-52.8-29.8-87-47.2-135.3a125 125 0 0 1-1.9-54.9 28.6 28.6 0 0 1 15.1-19.2zm-20 0 8 .2-4.3 7.5c-14.8 26.8-8.1 51.2 1 78.4 12.2 36.3 31.4 80.6 43.4 122.5.6 2.4 1.5 9.5 1.5 9.5l-11.6-.1-2.6-9.5c-6.5-38.9-42-103.7-51.3-153-5-26.4-.7-42.8 15.8-55.5zm108.3 0s-12.7 22.2-13.9 34.5c-2.3 24.2 5.4 44.2 14.2 71.5 15 47 36.5 102.2 38.4 127.5l.3 3.9-13.1-4.7-.9-3.6a1520 1520 0 0 0-43.2-142.4c-4.5-17.3-10.4-34.7-9.9-49.5 2.7-19.9 6-25.3 17.9-37zm58 0 10.5.3s-3.2 1.7-10.7 9.7c-41.8 38.2 26 146 41.6 244.2l.7 4.8-11.7-4.2c-1-5-1.9-10.9-3.2-16.2A2170.7 2170.7 0 0 0 1566 1356c-8.7-34.1-12-64.1 3.7-81 5-5.7 14.1-9 14.1-9zm-109 .1 11.2.3a71.8 71.8 0 0 0-13.3 40.3c-.5 16.8 4 33 9.5 50.3 11.3 35.4 27.5 73.8 38.6 121.5l1.4 6.6c.5 2.1 1.7 5.6 1.7 5.6l-11.9-2.4-2-4.7a50.3 50.3 0 0 1-3.3-9.3c-5.8-24.8-27-81.3-39.9-120.9-10.2-25-13-68.6 8-87.3zm140.8.5c14.4-.6 27.5 11.7 30.5 23.2 3 12.2-.8 26-14.2 32.8-21.8 11-45.3-18.3-28-34.5 13-12.3 32.2-3.2 28 12.5-2.7 10.2-18.2 10.9-20.7.6-.7-3.5-2.4-6.9-3.7-5-8 18.8 19 27.6 30.2 10.1 6.6-14-6-32.1-24.6-28.7-25.5 4.7-28.5 37-17.9 74.8 14.8 59.7 50 140 50 176.8v2l-11.1-3.4s0-.6-.2-1.1c-6.7-51.5-44.9-136.6-55.8-202.1-4.8-29.9 6.8-51.5 33-57.4 1.5-.4 3-.6 4.5-.6zm-110.6.4a72.3 72.3 0 0 0-13.3 37.5c-.2 16.5 5.7 32.6 10.6 49.7 12.4 42.4 41.2 120.6 40.2 135.3l1 6.4-11-3.3s-.5-.7-1.4-2.7a1683 1683 0 0 0-41.2-130.7c-7.6-21.7-11.3-38.6-10.8-53 1.6-19.8 7.3-28 16-39zm212.4 70.3c-29 1.6-26.1 36.9-8.2 42.9 6.4 1.7 10.2.2 11.2-1.2 1.1-1.6-.2-4-4.4-4.6-12.1-4-16.5-18.3-5.5-24.3 6-3.2 15.6-1.2 27.1 7.4 20.7 15.3 46 16.2 42.6.8-.8-3.8-2.4-4.3-17.5-6.3-12.3-1.7-17.8-5.6-23.1-8.5a44.7 44.7 0 0 0-22.2-6.2zm-414 32.8c74.7 73 63.6 187.3-.2 244.5-1.3-4.6-4-16-4.4-15.6 48-50 70.6-131.8 1.1-215.7.4.3 1.6-6 3.5-13.2zm468.2 1.9a4 4 0 0 0-1.9.3c-19.3 5.3-23.3 24.4-10.8 32.3 7.7 4.8 13.6 1.8 4-4-8.1-5-4-18.2 5.8-18 4.4 0 7.3 2 18.4 10 9 6.8 17.6 7.3 19.6-1.8 1.1-5.4-.7-7.8-6.5-6.4-2.5.7-4-.8-7.5-3.2-7.7-5.4-16.1-9.3-21-9.2zm-476 14.3c67.4 78.2 45.8 159.7.4 207.5-12.5-36.8-43-59.8-43-59.8 11.5-25.6 18.3-52.2-3.2-86 20-18 36.7-38 45.9-61.7zm437.6 28.5c-3.1 0-2.1 3 5.3 8.2 17.8 12.1 19.3 14.3 2 14-4.3-.3-11.1 2.8-15 4.1-22.4 7.5-23.5 7-34.3 4.4-3.5-.8-7.2-2.3-8.7-1-2.5 2.3-5.2 3.8-2.1 7 2.2 2.5 6.3 4.3 11.4 7.2 26 15 28.4 18.5 59 19.3 3.6 0 5.4-1.7 7.4-1.7 5-.1 7.7 1.1 12.7 5.7 9.3 8.5 9.7 2.3 4.2-8.7-2.9-5.9-5.4-7.3-4-11.7 3.2-10-1.4-12-7.4-3.1-4.5 7-5 6.8-9.3-2.2-5.7-11.2-3-16.4 5.6-9 6.5 5.5 8.2 1.3 10.7-3 3.3-5.8 2.8-11-3.1-10.5-3.4.2-6.6-1.4-9.3-4.3a50 50 0 0 0-25-14.7zm7.4 30.4c.7 0 1.2.3 1.4 1a43 43 0 0 1-4.5 15.3c-.7 1.8-1.8 2-3.4 2.3-5.4 1-5.8-.7-4.8-4 2-5.1 3.6-12.4 10.5-14.5h.8zm-13.7 2.6c2.2-.2 2.3.7 1.4 2.7-1.5 3.3-4.3 6.5-6.3 9-4.3 2.9-11.3-5.6-8.2-7.8 4.3-1.8 7.6-3.5 12-3.8l1.1-.1zm-482.4 5.5a9 9 0 0 1 3.6.8 68.7 68.7 0 0 1 2.5 74c-1 1.4-1.9 1.6-3.5 1-5.4-3.1-12.3-4.3-17.5-6.2v-64.4c5.3-1.1 9.9-5.2 15-5.2zm429.5 5.3c-1.3 0-1.8.9-.2 2.5 23.7 17.2 56.4 37.2 86.6 29.4 2.8-.6 5-2 4.5-5-.4-1.7-3.4-3.3-6.7-2.4-7 1.8-20.2 2-25.7 1.2-20.7-3.4-39-16.7-55-24.4a6 6 0 0 0-3.5-1.3zm-7 16.4c-1 0-1 1-.3 3 3.4 10 37 33.2 63.5 40.8 22.8 6.6 55.6.2 53.7-10.7-1-5.6-5.1-7-19.7-5.1-32 6.2-62.9-7-86.3-21.5-6.3-4-9.5-6.4-10.9-6.5zm-209.8 13.6c14-.1 27.9 1 42.9 3.5 29.2 5 63 14 91.6 27.3 48.7 18.2 109.9 32.3 161.8 30.4 12.6.4 35.5-.7 40-2.2 11.5-2.6 14.7-.1 17.5 14.2.5 3.2 1.4 4 5.5 6.8 6.1 4.2 5 8.3 4.3 17.5-.6 7.7 4 12 22.8 46.6 21.3 39.4 42.1 85.1 42.1 85.1-186.9-.1-365.2-7-556.5-1.1 17.2-40.8 64.1-114.3 93.5-173.4-7.1-18.1 1.7-21.2-2-25.5-6-10.1-1.7-24.3 11-27.5a249 249 0 0 1 25.5-1.7z" style="fill:#131f67;fill-opacity:1;stroke-width:3.18132639" transform="matrix(.1629 .00026 -.00028 .151 -152.4 752.2)"/><path d="M1950 1728s59-125 84.2-162.5c36.3-47.7 205.1 16.9 288.7 32.3 34 6 112.5 1.5 112.5 1.5l67.7 117.1zm-129.6-138.4L1811 1204l19.3 11.7 11.3 387-81.5 80.9-.9-23.2zm49.3-45c19-40-3.8-88.1-3.8-88.1 11.5 2.6 42.3-58.5 45.2-56.8 49.9 59 60 148.1 1.2 204.5a157.1 157.1 0 0 0-42.6-59.5zm31.7-273.2c36.4-38.6 65.3-68.6 94-111.6 2.3-3.5-160.2-202.6-157.8-206.1 24-27.6 56.6-48 81.6-81.2 0 0 133.4 168.3 136.3 166.7 12.3-53.6 21.1-102.1 17.6-157.9-10.6-142.7-73.1-229-73.6-227.3-18.3 131.6-217.6 334-257.8 320.5l-1.8-91.7c2.4 4.5 127-83.4 158.3-197.3 2.2-8.2 99.5-41.2 98.8-42.4-4.3-10.5-48.2-70.3-48.2-70.3s17.1-8.4 19-8.4a552.8 552.8 0 0 1 116 244.4c19 93 33.2 268-150.3 462.6zm556-251a514.4 514.4 0 0 1-19.4-250c18.4-119.4 92-205.8 151.2-271.8l26.1-.4-41.8 44.8c-19.1 22.8-46.6 70-46.6 70l159.6 201 88.5-20.7s-1 91.3 1.7 91.2c-68 58.4-116.8 111-151 195-21.7 8.5-93.6 41-93.6 41-34.5-7.8 98.6-224.9 72.5-228-11-8.7-132.5-166.8-134.8-166.4-51.8 168.5 4.7 343.6 103.2 464.8-10.8 7.3-20.6 13-19.7 11.3-42.3-56.5-79.6-124.2-95.9-181.8zm-286.4-79c6.3 9.5 30.3-205-45.6-375.2 6.8-5.3 66.8-17.9 66.8-17.9l17 51-40.7 18.1 8 24c31.6-16 100.2-40.1 141.4-111.4 0 0 206.2-5.4 210.6-5 4.3.2-41.2 45.4-83.6 136.1a407 407 0 0 0-36.6 157.2c-.5 12.4-48.2-57-48.2-57 10.5-59.6 40.5-118.6 70.4-177.5 0 0-47.5-1.9-80.6-.3-50.5 57.2-82.3 87.4-159.5 115.7 29.9 90.2 204 130.8 165.3 123.2-8-1.7-16.4 83.7-6.4 179.7 3 76.8 46.6 204.2 48 203.1 0 0-27.4 6.7-29.7 2.3l-40.8 11.2-17.2-47.5 43.8-21-7.6-26.9c-.2 0-97 31.2-143.1 116.9l-213.2 4c80.7-90.6 112.6-179.5 128.4-296.4 17.5 2.8 53.1-6.4 53.1-6.4zm510.6-779.3c26.4-22.9 79.2-82.2 79.2-82.2l1.2 29.9-60 64.5 7.6 392-21-19.4zm-25.7 144c-10.9 5.4-32.3 31.5-42.3 60.7-71.8-62-44.7-178.6-6.4-203.5 11.7 25.2 44.8 58.2 44 57.6-7 26.6-12.2 53.7 4.7 85.2zM2025.1 54l545.5-8.7c-30 61.8-57.7 111.8-89.7 172.7-16.9 21.1-391-60.1-392.5-51.3z" style="fill:#e2cf00;fill-opacity:1;stroke-width:3.18132639" transform="matrix(.16288 .00293 -.00316 .15098 -248.1 745.4)"/><path d="m1758.4 1653.3-12.7-514.6 63 59.2 10.7 395.1zm282.7-104.7c-12.8 2.2-5.7-9.9-3.6-21.2 1.2-6.3-5-12.1-5-14 0-11.2 8.3-16 46.2-16.3 89.5 4.6 136.3 32.4 187.8 44.8 49.3 12 98 10.8 152.2 8.6 4 2.2 19.2 39.4 16.6 43.2-122.2 26.3-280.3-61-394.2-45.1zm216.3-270.4c-13-9.2-25.2-10.7-37.2-12.5 20.3-37.4 45.2-71.5 87.4-93.4l20.6 48.7c-24.8 13.3-49 29-70.8 57.2zM1997 1155.6s-17.9 30.3-35 45.2a16813.9 16813.9 0 0 0-170.4-213.1l-48.4 25.6s-.7-28.5.4-30.5c130.8-70.3 219-200.4 256.8-321.5 0 0 21.6 21.3 19 30.5-34 95.6-93.4 191.9-181.8 264.9zm162-143 166.7-2.7 8.4 57.8c-63.4 22.5-115.3 67-163.6 118.5h-79c24.8-57.2 59.8-115.5 67.6-173.6zm612.6-254.9c5.7 16.3.5 34 2.6 33.2-197.8 102.2-251 319.8-251 319.8s-19.5-29.6-18.7-34.3c99.2-231.4 168.2-239.4 181-264.6l-160.6-200.5 34.6-49 172.4 216.3c16.6-8 26-14.6 39.7-20.9zm-93.2 298.8c32.8-61.5 67-97.5 101.4-122.4l-.2 80.3zM1741.2 834l-.6-78 102-46c-27.3 62.4-65.3 96.3-101.4 124zm456.7-78.2-7-54.7c61.8-28.3 116.3-65.7 160-116.3 47.7-3.1 80.4-.5 80.2-1.1 0 0-44.3 67.5-72.7 173.3zM2704.7 171l55.8-58.4 10.8 512.1-58-53.2zm-491.8 426-19-50.5c28.2-11.1 49.3-34.6 68.9-58 13.7 12 31.3 16 37.4 18.2 8.3 1.8-56 81.9-87.3 90.3zm-113.3-382.7s-7.2-4-6.5-9.8c2.2-7.5-8-24.3-8-24.3 120.3-38.8 298.3 61.3 402.4 37.8-.7 7.3.6 16-2.2 22.9 3.5 14.6 5.9 15-8.2 24.2-73.1 22-151.3-20.9-223.4-40.8-58.9-17.4-106.3-11.9-154.1-10z" style="fill:#d40000;fill-opacity:1;stroke-width:3.18132639" transform="matrix(.16288 .00293 -.00316 .15098 -248.1 745.4)"/><path d="m2018.7 46.9 22.9 41.2-3.8 2.6c6.2 10 11.5 21.1 17.8 31l4.5-.6a771.4 771.4 0 0 0 20.3 35.2h-4.3c2.3 7.3 8 12 8.3 17.3.2 6.6-1.4 13.2 2.7 17.6 4.8 5.1 5.4 6.6 4.5 9.7-2.4 8.2 5.1 17 12.6 16.1 52.7-8 106.7-3 160.9 12.4 39 11.5 73.6 24.6 106.3 33.7 10.3 2.8 31.1 7.3 49 8.3 49.6 2.8 77.2-7.8 68.5-28.3-.7-1.6-2.2-2.8-2.3-3.6-.3-1.6 0-3.3 2.7-5.7 8-8.4 3.3-14.4-1.8-23.5L2580 38.4zm551 .5-45 81a24.7 24.7 0 0 0-30.7 19.8c-32.4-7.7-26.7 34-10.5 36.5 1.2 6-26.2 14-41 .1 22.3 2.6 29.7-27 2.4-33 35.4-27.4-32.7-66.2-32.5-11-31.8-5-27 36.8-6.8 39.7-10 11.5-40.3 12.4-56.5-11.2 27.1 13.5 41-22.8 13-32.4 33.9-30.8-34-57.5-31.7-8.7-25.6-14.6-42.5 24.1-8.4 29.4-1.8 7-46.3 7.8-57.9-9.9 31.7 6.6 32.4-31.8 4.6-34.4 27.3-36-44-52.6-31.2-4.4-27.5-10.4-37.3 24-10.4 34.4 1.5 5.4-43 10.8-59-8.5 34.2-5.7 21.6-38.8-.6-35.7l1.5-4.3c10-33.5-46.6-35.3-38.1 0a167 167 0 0 1 2.8 7.5c-15.7-2.9-25 3.6-23.7 18.2 4.2 19.3 14.5 17.7 27.5 13.6 5.6 5.6-31.2 25.5-54.8 8.8 28.4-8.7 13.4-42-10.4-37-1.2-10.6-13-25.4-28-17.8l-16.6-31.2zm54.5 444.4-33.5 1.1c-23.1 24.4-190.8 184.5-158 421.1 14.2 101.2 44 188.5 121.6 290.8l20-12.2 3.2 2 207.7-124.4-.5-36.7-241.9 106.5c-4.9-5-7.8-10.7-12-17l96.9-43.2s2.2-6 3-8.7c30.6-81.8 94.8-141.7 150.7-188.1l-5-247.4L2627 492.1a647.2 647.2 0 0 0-51.2 55l172.4 218.8-14.8 10-170.6-217.7c19.3-24 40.4-45.2 61.4-66.4zm152.3 141.6s-7.6-380.8-12-564.7l-85.8 91.3 7.1 386zM2759.7 105l-60.7 65 7.6 392.4-16.1-15.4-6.8-381.8 75.8-82.3zm-601.5 1.2c1.9 3.2 1.2 7.8-1.7 11.5-12.4 15.9 27.8 42.4 56.2 37.2 21.7-4 40-17.4 31.9-27.2-6.7-8-2.6-16.2 5.2-16.3 8 0 14.6 6.2 7.8 15.1-15.1 19.8 9 42.2 45 42 25.7 0 34-6.5 32.4-24.7-.8-8.5.8-11 6.7-12.3 9.5-2.2 14.5 8.5 6.7 17-16.6 18.2 3.1 44.2 35.3 45.3 11.7.4 14-.3 27-7.9 10.2-6 13.6-14.8 8.5-21.5-6.6-8.6 2-19.2 12-15 7.3 2.9 11 8.4 3.1 17.8-10.2 12.5-5 22.5 15.2 29 15.7 5 26.6 4.2 33.8-2.6 2.3-2.1 7.3-6.6 7.2-5.2-4.8 8.6-9 16.6-9 16.6a49.4 49.4 0 0 1-57.9-12.8c-33.4 20.1-63.5 16.5-89.4-15.8-6.6 3.7-53.6 13.2-88.3-23.6-34 17.8-66.2 11.2-94.9-7.6-20.6 20.2-42.7 23.7-65.8 14.6l-7-13.6c1.6-.7 9.3 13.6 45.1 6.2 12-2.4 32.5-23 20.7-32.8-5.5-7.4-5.7-10.8-1-15.4 4.5-4.6 12.4-2.4 15.2 2zm-87.8 19.5c2 3.9 2.5 10.3.2 6.5-1.2-2-7.5-11-7.2-11.4 2.8-.2 5.7 2.6 7 5zm689.5-9 9.4 506.3-53.6-51.3-9.5-396.6zm-609 35.2 16.8 10.2-29.7.3zm93.4 7.1 14.1 13.3-29.3-5.6zm260.7 2.4-6 12.9c-3.6-4-4.8-12.4 6-12.9zm109 208.7c10.1-24 23.7-54.4 46.4-64.4-17.6-33.5-16-67.4-4.2-86.1a172.2 172.2 0 0 1-47.1-62.2c-53.8 49.1-60.8 148.3 4.9 212.7zm-5.2-203.5 3.9 9.2c-47.6 60.4-31.2 138.2 4.8 179.2l-5 10.6c-43.7-44.6-64.3-140.2-3.7-199zm-290 38.8c56.6 15.5 102.2 40.5 166.9 16.4l.5 12.7c-41 27.3-124 .7-180.2-19a467.6 467.6 0 0 0-209.8-23.6c-4.4-.8-8-12.2-1-12.4 93.2-2.7 77.9-14 223.6 25.9zm12.3-22.6 18.8 19.2c-14-4-27.5-8.7-40.2-14.5zm282.4-.2 3.7 5c1.6 2-10.1 3.4-8.2.8zm-317.2 41.5c67.7 24 142.2 48 190.4 24.5 0 0 .4 9.6-5 12.5 0 0-5.1 4.2-22.2 6.9-78.5 7.8-130.1-23.8-193.9-42-24.2-6.8-63-15-102.8-16-23.6-.6-59.6 3.4-59.6 3.4-7.8-.5-7.8-5.1-8-9.7a395.5 395.5 0 0 1 201.1 20.4zm324.7-30c.9 0 1.8 0 2.7.2l7 8.7-8 13s-7.3-6.4-11-12.9c-2.1-4.1 3.3-8.5 9.3-9zm-198 6 21.6 15.8c-16 1-34 2-52-4.8zm180.5 5c1.6 0 3.4 1.7 5.5 5.2 4.1 6.7 3.6 8-4 10.6-10 3.4-10.9 2.7-7.8-6.4 2.2-6.2 4.1-9.3 6.3-9.3zm32.4 3.6 14.6 11.9c-7.6 20.8-12.3 47.1 4.3 84.5-1.8.2-12 10.6-15.2 12.4-9.2-3.7-30.5-78-3.7-108.8zm-16.1 16.1-3.3 23c-.2 1.9-16-10.6-14.7-17 2.6-7.5 12.1-6.1 18-6zm-25.7 8.5c1.9 0 5 4.5 8.7 10.4 2.9 4.7 2.3 6.4-3.8 12.2-9.1 9.5-11 6.5-9.2-9.5.8-7.9 2.1-13 4.3-13zm19.5 20.4c1.3 0 2.4.3 3.2 1l1.4 22.2c.2 2-17.4-.5-19.8-9-3-5.3 8.4-14.2 15.2-14.2zm-22.7 19.3c1.2-.2 5.2 2.3 9 4.4 6.4 3.7 6.6 5.4 1.2 12.6-6.4 8.5-9.7 7.2-11-7.3-.4-5.4-.8-9.5.8-9.7zm25.8 8c.5 0 1 .2 1.5.5 3.1 2.6 8.3 24.9 6.3 27.2-2.8 3.4-17.8-.8-21.2-6-3.3-4.9 8-21.6 13.4-21.7zm-17.8 26.6a25 25 0 0 1 9.5 3.2c2.8 1.3 7.6 3.7 8.6 5.9 2 3.8-1 9.5-4.8 14.3-2.6 3.1-5 .8-10.2-9.5-4.2-8.3-6-13.6-3.1-13.9zm30.3 9.5c.3 0 .6 0 1 .2 5 2.7 4.3 11.1-1.6 17.4-7 7.5-13.4 2-8.6-7.5 3-6 6.8-10 9.2-10.1zm-415.7 215.1c-4.4.3-11.1 4.4-14 8.3-3.8 5-7 4.4-11.3 4a54 54 0 0 0-22.8 6.2 37 37 0 0 1-17 4c-5.5.4-11 1.2-12.3 1.9a71 71 0 0 1-8.8 3.3c-7.5 2.3-4.8 4.4-.3 14a718.6 718.6 0 0 1 46.1 173 813.4 813.4 0 0 1-.7 191c-20.8.5-34-.4-55.9.4-12.8 122-51.7 219.4-131.4 307.8l219.6-3.3c24-67.6 137.8-120.8 141.7-117l6.4 24.3s-82.3 13.3-136.1 119c5.6-3.5 26.4-1.5 40.3 12.5a227.3 227.3 0 0 1 71.4-58l1.4-4.2s8.2-3 15.4-4.5c2.3-.4 7-1.4 10.2-2.6 4.8-1.8 7.2-3.6 14.7-3.1a88.3 88.3 0 0 0 31-3.7c-48.9-127.7-62-243.5-46.1-378.6 17.2-.2 54.8-.2 54.8-.2 3.1-38 7.3-76 18.3-111.9 14.1-46.2 31.4-89.2 59.7-128.7 16-24.8 30-42.5 46.4-65.8l-214.9 4.3c-27.6 48.3-81.7 89.2-125.4 106.6-15 6-17 5.1-19.7-1.9-4.6-12.5-4.4-12 7.3-15.5 3.9-1.2 16.3-8 35.7-17.5 41-21.8 69-60.9 85.3-87.2 6.4-10.4 2-8-9.4-7.9-10.5-.6-15.3-3.8-24.9-12.4-3.5-3.1-5-5.4-6.6-5.2-12 17.9-32.1 41.5-48 48.6zm49.8-41.6a57.2 57.2 0 0 0 36.5 17.8c-23.5 38.2-52.4 68.3-86 87l-18-48.2c41.9-20.4 52.8-40.2 67.5-56.6zm350.5 9.3c-223.6 214.1-205.5 478.8-42.5 691.2l-16.5 10.3c-153-197.7-185.3-493.6 39.5-702.1zM2471 528l55.7-1-37 49.8-51 .7zm-8.7.6L2432 578l-83.5 2.5c-49 62.6-102.2 93.6-156.5 115.1l-11.6-52.5s86.2-22.4 140.8-112.7zm-84.9 5.5-19 21.8 20.5 20.1 18-21.1zm43.9-1.3-19.3 20.8 15.7 20.3 20-20.3zm-96.7 5.5-2.8 32.1 25.4 7.9 3.2-27.5zm153.6-1.5-17.9 29 27.6-.1 18.8-28.9zm-288.3 12.4 18.7 49.2-15.5 7.9-16.9-51.5zm-21 8.3 19.3 51-15.4 5.3-17.8-53zm25.6 202c3.3 71.3 5.1 114.3-5.7 177.2-.6 3.3-13.4.6-13.4.6 1.6.5 6-71 4.7-115.8a700.5 700.5 0 0 0-53.3-253.6c6.3-4 22-6.3 22-6.3 22.3 63.8 42.3 132.5 45.7 198zm-226.6-193.7c75 96 129.8 227.2 123.4 357.7-5.8 151.6-61.7 240-160.7 346.7l-26 1c117.4-116.6 168.5-215.5 170.4-344.9 2.1-148.8-45-246.9-123.4-351zm-232.4 138 .9 35.4 248-111.6-36.9-52.5zm583.9-126.6-27.2 1.9 1.4 27.4 28.3-1.1zm242.5-9.5 165.7 209.6-39.5 30.5-158-196.9zM2435 584.5l48.6-.1-18.2 31.4-47 .5zm-8.9 1c-21.6 41.8-51.5 89.6-67.4 166.3l-159.6 3a403 403 0 0 0-6.1-52.3c68.3-26.4 121-65 159.3-115.4zm29.6 1.6-20.6 12.4 13 14.3 22.7-9.1zm-189.8 18.6-6.4 27.2 26 9.5 4.3-32.2zm149.2 17.6 46.6-.5-19 39.4-46 .2zm110.7-7 156.8 196-14.1 11.6-153.3-191.6zm-93 9.9-20.6 17.8 16 18 19.2-15.9c.4-.3-14.6-20-14.6-20zm-203.4 5-6 26.4 27 6.7 4.4-28.3zm-36.9 18.1-5 26 25.4 6.4 5-25zm-209.3 1.1c1.3-.3-3.7 31-11.7 36.7-3.9 2.7-5.9 2.2-9.3-1.4a311.8 311.8 0 0 1-13.2-19.5l8.9-4.7c11.2 17.3 11 8.8 15-6.1zm-41.7 18.7c3.6-.1 8 4.2 13 12.7 7.3 12.3 7.1 13.2-4.4 17-20.8 5.8-28.6 7.3-22.4-6.6 6.6-15 9.2-23 13.8-23.1zm62.2-3.6 14.8 24.2c-54.8 147.1-145.5 253.5-271.7 319.2l-.7-24.3c148.6-88.1 208.4-190.2 257.6-319zm390.2 3.7h45.2l-11.5 34.7-48 .5zm-465.8 6.7c-35.2 88.2-84 165.5-183.3 231.8l-.9-23.3c111.6-69.9 158-198 158-198zm570.6-10.2c26.8.2 55.4 28.9 53 53-1.7 17 1.7 29.4 6.2 22.4 10-15.5 40.1-5.8 40.2 12.6 0 9.8-6.5 11.5-10.4 2.7-5.8-13-21.4-13-23.4.7-2 12.9 9 22.1 38.3 32.1 34.2 7.4 55.2 37.6 43.4 55.3-4 4.7-6.6 6-7.4 3.5a151 151 0 0 1-2-8c-4.2-18.3-13.1-25.9-23.7-19.4-5.3 3.3-4.6 7.5-1.4 13 4.3 7.2 1.8 10.1-5.8 6.5-11.8-5.7-16-19.7-4.7-26.3 13.5-5.7 8.9-6.8-8.6-12.3-37.1-12-53.4-34.9-56.1-79 .3-20-2.5-27.2-12-29.8-8.8-2.4-18.4 8.8-12 14.5 3.4 3 6.2 5.9 4.4 7.7-5.6 5.6-20.1-3.1-20.2-12.9 0-6.3 2.4-7.7 11.8-15.3 2.6-2.1.3-6-3.6-6-14.4 5-13.8-14.3-6-15zm-83.6 6.6-22.3 13.3 12 16.2 24.8-12.1zm-438.9 20.4a4.7 4.7 0 1 1 .2 9.5 4.7 4.7 0 0 1-.2-9.5zm46.3 1.3a494.3 494.3 0 0 1 31.9 341.2L1922.8 870a553.5 553.5 0 0 0 99.7-176.1zm-173.8 10.7-114 50.2 1 86.1c63.3-44.9 89.7-90.2 113-136.3zM1959 702c11.3-.5 6.2 30-8.3 40.8-5.3 4.2-9 3.8-10.8-4.5-1-4.3-5.7-13.3-11.5-20.5-6.8-8.4-6.7-8.6 3-9.3 10.6 0 19.3-5.3 27.6-6.5zm-11 13.2c-8.3 0-10.7 4-5.7 9.2 4.3 4.4 7.6 3.4 10.3-3.1 1.6-4 0-6.1-4.6-6.1zm-205 115.3-1-73 97.4-43.1a299 299 0 0 1-96.4 116zm873 43.6-12.8 13.4-129.6-163 7.6-21zm-697.4-154.8c4.3 0 14.2 14.5 17 25 2.2 7.8 0 9.5-14.7 12-6.2 1.8-22.9.5-21.6-4 2.3-6.4 17.8-33 19.3-33zm459.1-6.5 46.3-.3-10 38.1-48.4.2zm20.5 2-21.3 15.3 17.4 16.5 22.5-14.5zm72.8 15L2602.2 894c-37.4 49.3-74.6 105.8-98.3 180.1-47.6-105.9-66.1-209.5-32.9-344.3zm-520.4 23.4a4.7 4.7 0 1 1 .2 9.4 4.7 4.7 0 0 1-.2-9.4zm-14.6 6.6c8 .4.9 26-11 35.5-9.4 7.5-13.5 4.2-16-9.2-.8-4.8-6-13-10.6-19.4-5.2-7.1-3.1-8.3 9.6-5.6 8.9 1.5 19.8-.8 28-1.3zm428.5-1.4 48.5-.5-6.4 57.7zm-472.3 11c7.7 7 17.8 31.9 13 33.7-5.8 2.2-32-.3-34.9-3.3-2-2-2-2 2.1-7.8l9.7-14c2.8-3.4 5.7-12.4 10-8.5zm27 .4c-7.4.4-7.9 1.4-4.2 9.3 3 6.5 5 7 9.8 2.7 6.7-6 3.7-12.4-5.6-12zm851.1-10 2.3 28.4c-184.8 95.7-250.7 315.2-251.7 315.2l-14-25c81.8-212.2 194.5-275.2 263.4-318.6zM1892.7 809c11-.4 14.3-1.2 14.3 2.9.3 11-9.7 27-22.3 33-8.4 4.2-8.6 4.3-9.7-5.7a76.7 76.7 0 0 0-7.7-25.4c-1.3-3-6.3-9.5-.2-7.7a102 102 0 0 0 25.6 2.9zm24.8-3a4.7 4.7 0 1 1 .2 9.4 4.7 4.7 0 0 1-.2-9.4zm-59.3 7.5c2 0 4 4 6.4 10 5.3 13.2 7 20.3 5.5 23.5-2.2 4.8-32.8 2.2-38.1-3-1 .7 22-27.8 26.2-30.5zm22.1 2.9c-4.3.4-2 3 1.4 10.6 2.3 5.2 5.4 6 8.8 2.3 4.6-5 5.2-9 2.2-11.1a29.7 29.7 0 0 0-12.4-1.8zm892.5 13 .4 9.5c-7.3-2-11.9-5-20.2-7.6-5.1-1.6-8.1-2.8-3.7-8.2a86.6 86.6 0 0 1 22.7-19.2l.3 10.8c-13.6 6.3-12.2 11.8.5 14.7zM2234 829l51.5-.9.6 34 40.3-.7-2.4 38.8-37.2.7.6 34-51.5.9-.6-34-36.8.6 2.3-38.8 33.8-.6zm116.3-1.9c-23.8 129.7 2.6 266.4 44.8 377.4l-20.3 2.6c-33-88.8-60.1-215.6-37.6-379.7l13.1-.3zm382.3-4.2a4.7 4.7 0 1 1 .1 9.3 4.7 4.7 0 0 1-.1-9.3zm-905.7 26.8c1.7-.1 7 2 11.7 3.3a76 76 0 0 0 18.9 2.6c12.8 0 14.5-.2 9.2 10.4a56.4 56.4 0 0 1-18.8 21c-8.8 5-12.2 4.3-11.8-4.4 0-5.9-2.8-16.1-6.3-23.4-2.7-5.6-5.7-9.4-2.9-9.5zm54.2 3.2a4.7 4.7 0 1 1 .2 9.4 4.7 4.7 0 0 1-.2-9.4zm866.4-16a42 42 0 0 1 15.6 4.7c15.2 7 14.8 8.7-5.3 23.6-14.6 11.5-18 12.8-19-5-.7-14.8.7-23 8.7-23.2zm-928.2 20.7c6 0 13.2 31 7.9 33.9-8.3 4.4-34.4-3.5-34.4-10.6 0-2.3 23.9-23.3 26.5-23.3zm910.3-17.3c3.6-.2 4 2.6 4 12.5-.2 5.2.9 13.8 1.3 17.8 1 8.3.2 8.8-6.4 5.2-4.2-2.3-12.8-6-22-6.6-7.6-.6-8.2-3.6-6-8.7a41.3 41.3 0 0 1 29-20.2zm-888 20.3c-5.2.1-3.9 2.9-.5 10.6 2.4 5.5 6.4 6 10.3 1.2 5.6-6.7 4.5-10.2-3.9-11.3a57 57 0 0 0-6-.5zm881.3-8.1c-2.2.2-5.1 2-6.5 3-4.9 3.1-6.8 5.4.3 7.7 6.4 2 9.8 3 9.2-2.5-.4-3.3-.2-8-3-8.2zm-483.2 12.6.6 33.8 41-.7-.6-33.9zm446.7-5a4.7 4.7 0 1 1 .2 9.4 4.7 4.7 0 0 1-.2-9.4zM1919 879l132.3 163.7-8.3 21.8-136.2-172.8zm855.3-15.8.6 21.7c-14.4 10.9-106 79.8-152 193.8l-25 11.1c33.7-98 108-182.8 176.4-226.6zm-983.7 26.5c8.5 2.4 16.6 8.1 24.6 9 9.2 1 12.3.4 10 5.1a53.3 53.3 0 0 1-26.7 25.7c-7.8 2.8-11.6 1.9-10.4-3a83.4 83.4 0 0 0 2-25.2c1.1-4.5-2.9-10.8.5-11.6zm-9.8 2.1c5.5 4.5 4.9 33.5-1 39.9-3 3.3-12.2.5-26-7-9-4.9-10.7-8-6.3-11.1 7.5-4.7 29.2-22.8 33.3-21.8zm924-15.7c2.7 0 6.2.4 10.4 1.2 16.1 3.4 19.8 7 6.3 18.1-5 4.2-10.4 9.3-11.9 11.2-7.2 9.2-12.5 2.7-14.4-13.7-1.3-11.5.3-18 9.5-16.8zm-20.2 2c2.6 0 4.3 1.3 4.3 4.5a163 163 0 0 0 5 27c3.1 8.4 1 10.4-6 6.8a63.6 63.6 0 0 0-25.9-3.8c-8.3.8-8-1.4-5.8-8.4 4.1-12.4 20.5-26 28.4-26.1zm-885.9 21.6c-3.2 0-3.2 4.3-.9 14 .8 3 3.4 2.8 8.4-.8 5.9-4.3 5.6-6.9-1.2-10.8a14.3 14.3 0 0 0-6.3-2.4zm36.7.4a4.7 4.7 0 1 1 .1 9.4 4.7 4.7 0 0 1-.1-9.4zm834.3 3.5c2.3 2.2 10.6 2 12 .6 2.2-2 1-11.5-.9-12.6-4.7-1.5-14 8.6-11 12zm-775.9 31.6c3.1 13.4 22 12.3 19.6-1.6-1.4-8.2-1.7-8 2.4-7.9 19.5.6 16.7 31.4-5.8 29.4-4.7.6-5.3 2.6-1.3 4.1 4 1.6 19.1 5.2 21.4 5.2 24.5-.6 60.3 36.4 60 69.7-.1 21.8 7.5 37.3 15.1 39 6 1.3 14.7-4.3 13.8-11-1.2-9.2 6.3-6.4 10.8.1 6.7 9-1.6 22.4-17.2 21.6-6.7 1.4 5 5.4 13.6 7.8 7.7.3 1.3 10 0 11.7-4.4 5.2-18.8 1.5-30.3-7.4-14-11-20.2-25.8-22.4-55.2-1.4-19-2.8-22.8-8.2-14.9-9.6 17.6-33.4 9.5-36.7-8.8-1.9-9.7 6.6-16.9 9.5-8.1 7.7 18.2 25.6 13.5 22.3-4.7-2.1-12-14.2-18.4-38.1-24.7-28.7-7.5-37.4-17.1-43.4-40.5-2.6-10.3-2.3-15.7 3-21.2 2.7-2.8 6.1-5.6 6.1-5.6s4.1 15.7 5.8 23zm746.9-28a4.7 4.7 0 1 1 .1 9.3 4.7 4.7 0 0 1-.1-9.3zm-896.4 20.2c8.6 3 16 7.4 24.8 10.2 5.7 1.9 4.2 6.4-1.6 13a58.8 58.8 0 0 1-21.8 16.3l-.1-13.1c11-4 17.8-13.4-.8-16zm918.7-8.9c3.2 0 7.8 0 13.2 1 13.6 2.6 15.2 3.8 7.2 13.5-3 3.5-7.4 9-9.8 12-7.8 11.3-12.2 7.5-16.2-6.8-4.9-15-6-20.8 5.6-19.7zm-876 20.9a4.7 4.7 0 1 1 .2 9.3 4.7 4.7 0 0 1-.2-9.3zm862.6-5c1.4 4.7 3.5 10.7 5 15 7.7 16 3 9.9-10.3 8.7-8.9-.8-23 1-26.5-1.5-1.5-2-.2-7.2 2.5-13a47 47 0 0 1 16.4-18.9c13.6-6.6 10.6 1.5 13 9.7zm-791.9 8.2 151.2 192.7-11.3 16.7-155.5-198.1zm925.8-15.6c-75.8 56.8-104.1 124.7-110 133.6l111.9-45.4zm-146.5 9c-4.2 1.1-10.1 9-7.4 12 1.5 1.6 7.7 1.7 10.7.6 4.5-1.8 1.2-12.8-3.3-12.7zm-643.6 222.6-30.8 40.2L1795 989.6l40.9-30.6zm782.1-220 2.5 72.8-95.6 41.9c31.3-55 62.2-89.3 93.1-114.7zm-658.3 17.8 39.5 49.5-47.2-.2zm487.7-4.5a4.7 4.7 0 1 1 .2 9.3 4.7 4.7 0 0 1-.2-9.3zm28.5 11.4c17.7-.1 23.6.7 18.6 9.5-6.7 8.6-10.6 16.7-18 24.6-4.2 4.5-9.7-4.4-14.5-18.8-3.8-11.7-2-14.6 4.9-14.8l9-.5zm-20 16.1c1.4 4.6 5 12.2 7.7 16.7 2.8 4.6 5.9 9.7 5.7 10.6-.4 2.2-2.5 2.4-7.1.7-10.2-4.3-33.7.9-34.4-1.3-3.6-5 1.5-18.7 11.2-28.3 4.8-4.7 9.2-7.8 11.7-7.9 2.6 0 3.1 3.5 5.1 9.5zm-824.1 11 170.6 213.7-11.3 14.2-172.6-217.8s-26.4 13.5-34.1 18l3 112-4.5-.1 10.6 567.5 91.5-94.5-8-385c20 18.2 37.3 37.7 60.2 55.5l38.8-1c99.2-104.5 153-193.5 162.4-351.2 6.2-105.5-31.1-237.4-126.3-364.2l-22.4 14.1 46 66.8L1899 682c-36.4 80.4-79.9 154.7-161 198.3l1.3 103.1-1.4 2.2 1.6 32.4zm815.7-7c-4.4.4-11.2 10-8 13.3 3.8 1.7 9.6 1.5 12-1.8 1.6-3.1 1-9.8-4-11.5zm-497.2 31 49-.5-12 42.2H2097zm465.4-8.3a4.7 4.7 0 1 1 .1 9.3 4.7 4.7 0 0 1-.1-9.3zm-249.6 5.7 7.3 54.4a369.3 369.3 0 0 0-159.5 115.9c-8.6-.4-77.3 2-77.3 2 1.8.1 61.6-117.8 67.9-168.7zm-194 8.5-22.1 15.8 17.9 18.4 23-16.1zm467.6-8c4.8-.2 11.2.3 16.4 1.1 8.3 1.5 9.5 1.6 6.8 8.5a132.2 132.2 0 0 1-13.8 27c-7.5 4.8-25-28.6-19.3-34.5 1.5-1.3 4.7-2 10-2.2zM2576 1023c2.2-.2 5.1 4 6 7.6a77 77 0 0 0 14 20.6c6.1 6.6 5.8 7.6-2.8 8.4-10.4 1-20.4 3.2-26.2 5.4-9 3.5-10.2 2.8-9.2-7.8 1.4-15.9 11.7-33.5 18.2-34.2zm-7.3 33c1.2 3 15-2.9 15.8-6.6-.2-1.6-5.9-11-9.2-11.5-5.6 1-7.7 13.7-6.6 18zm-472.8 6.2 46.3-.4-14.5 38.4-45.8.7zm20.8 4.7-22 14.4 17.7 16.4 21-15zm471-1.4c4 0 8.1.2 9 1.6 2.5 4-7 26.9-7 26.9l-16.3 6.7c-3.6-7.1-9.7-14.5-11.3-22.3-.7-3.4 1-4.7 4.8-7a49.1 49.1 0 0 1 20.8-5.9zm-43.7 2.6a4.7 4.7 0 1 1 .2 9.4 4.7 4.7 0 0 1-.2-9.4zm-211.1 4.4s11 56.4 11.4 50.1c-76.7 30.5-121.1 74.2-141.8 116.4l-144.9 2.5 31.5-50.8 85.8-1.9c40.5-51 91-92 158-116.3zm-18.3 13.7-6.8 23 22 13.4 7.6-24.7zm237.3-3.8c1.9-.2 3.7 2.9 7.6 9.4a355 355 0 0 1 6.5 11.9l-6.4 2.5c-5.5-17.8-10.2-11-10.5 4.7l-8.8 3.7s.7-15.2 5.6-24.1c2.8-5.2 4.4-8 6-8zm-472 24 45-.3-18.2 39.3-45.6-.5zm196-.4-3.1 29 24.2 4.7 2.9-27.5zm-176.8 3.5-22 14.7 15 19 21-14.8zm142.5 22.8-4.1 26.6 22.7 4.8 4.7-26.8zm-493 10.2 57.8 55.3 10 392.5-55.4 57.6zm309.2 9c-.2.3 45.3.4 45.3.4l-17.7 33.2-15.5-.4 20.2-14.3-13.4-16.6-20.8 14.1 12 16.8-30.7-.1zm293 4.5 16.3 50.7-18.5 3.5-14.7-47.7c5.6-3 11.2-4.6 16.9-6.5zm-145.6 5.8.9 30.5 24.7 1.7.5-28.7zm123.1 2.7 15 48.1-11.7 3.6-17.7-45.7a48 48 0 0 1 14.4-6zm-21.3 10.3 19 47c-24.9 10.7-50.5 32.9-69.6 54.9-14.7-10.4-23.2-11.3-32.2-13.6 23.8-46.4 52.5-71 82.8-88.3zm-273.3 16.7 47.6.6-32.2 50-53.9 1zm141.8-.6-2.6 29 25.7 14.6 3.4-29.8zm-30.7 4.6L2127 1215l19.7 21.6 17.2-23.3zm-40.5 1.7-21.2 20.1 17.5 22 19.3-22.8zm-274 23.3 9 383.5-77.8 78-1-20.6 61.8-66.8a99816 99816 0 0 0-7.7-389.2zm210.3-16.1-21.3 30.1 25.9-.4 18.2-29.2zm-131.4 188c-8.1 31-47.2 65.4-48 64.8 20.2 27.8 20.3 68 3.3 88.1 0-.4 32 25.2 36.7 38.7 2.6 5.4 3.7 12 7 17.3.8 1.4 3.5 4.8 3.5 4.8 75.7-79.4 37.4-170.2-2.5-213.8zm1.3 8c76.4 91.4 28.6 177.2 2.9 201.3l-5.1-8.1c54.4-65.5 29.4-144.4-3.6-181.4zm-7.8 18.2c.5 1.5 3.5 5.8 1.3 5.6l-3.7-.7zm-.4 10.4c1.6 0 3 .4 3.8 1.5 1.5 2.5-5.8 24-10.7 19-1.5-2.7-3.2-5.1-4.6-8-1.6-3.5-.6-5.2 2.9-8.7 2.4-2.4 5.9-3.8 8.6-3.8zm10.9 5.5c3.7.3 9.3 12 10 20.6.2.8-12.8-1.8-16.3-5.7.3-3.5 3.4-12.4 6.3-14.9zm-29.1 10.3c23.3 44.8 22.5 80.2 3.3 113l-15.8-13c10-24.9 14.7-51.3-3.5-84.6zm15.4 11a38 38 0 0 1 10.6 1.8c15.2 4.5 16 14.4 1.5 21.9-6 3-7.8 1.8-11.5-13.3-1.9-7.4-3.2-10.1-.6-10.4zm29.4 16.8c2.9 0 4.3 5.4 4.8 14.9.5 9-1.4 9.7-8.7 3.4-8-6.8-9.4-8.4-2.3-14.2 2-1.7 4.8-4 6.2-4zm-20.3 15.2c1.4-.1 5.6 2.5 9.8 5.5 10.4 7.7 8.2 13-3.4 17.1-8.1 2.8-7.7 3-7.7-11 0-6.9-.5-11.4 1.3-11.6zm136.6 10.4c-12.5 3.4-17.6 14.7-13.3 24.8 2 4.5 4.9 4.5 1.6 7.4-3.7 4.4-5.6 14.5-1.3 18.1 4.9 2.7 6-2.1 1 7.4l-91.6 175.6 568.5-11-70.6-126.8c.2-.2 5-21.2-5.9-23.5-3.5-.8-5.6-4-6.3-7.1.7-9-3.4-12.6-7-17.2a387 387 0 0 1-139.7-2.4c-56.1-11.6-96.4-32.6-122.5-39-36-8.8-79.2-12.1-113-6.3zm30.6.7c44-1 93.6 11.5 128.4 25.9 36 14.1 74.2 24.5 112.6 29.5 31.7 3.4 63.2.8 93.4-2.1 3.3-.6 6.7-.2 9.2 2.4 6.4 6.9 2.2 11.3-13.4 13a385.3 385.3 0 0 1-84.2-1.5 500 500 0 0 1-131.1-32.6c-50.5-18-96.6-23.4-133-17.2-19.9 3.4-22.8 4-22.8-1.5 0-10.4 8.6-15.4 41-16zm-143.8 32.9c-1.8 4.5-15.8-9.8-15.7-14 .2-1.7 11.2-9.2 15.6-12.2 2-1.7 2-.8 2 1.1.2 5.5 0 19.6-1.9 25zm-21.2-10.4c6.3.8 17 17.7 7.9 20.5-8 2.5-15.4 4-16.5-1.3 4-13.5 5.4-18.8 7.8-19.1h.8zm368.6 51.8c40.4 6.3 93.5 9.5 128 6.2 19.9-2.3 24-1.8 24 6.5 0 5.2.7 5-25 5.5-21.2 1.8-40.4-.2-61-.9-42.7-1.3-81.6-8-117.6-19.7-39.9-9.6-74.7-28.8-113.6-32.2-35.7-2.9-67.6 4-74.3 7.8-2.2 0-3.5-3.3-3.4-6.3a9 9 0 0 1 3.6-7.4c101.7-27.6 157.4 26.6 239.3 40.5zm-354.9-27.8c3.4 0 2.4 5-3 15.8-4.5 9.1-6.4 9.1-9.2-.2-3-9.8-2.8-11 2.8-12.5 3.4-.9 6.2-2.7 9.4-3.1zm-23.7 5.4c4 0 10 18 7.1 21.5-2.3 2.7-10.6 1-13-2.1-4-5 .7-19.3 5.9-19.4zm178.6 1.8c15.9-.5 31.7 1 46.3 3.2-8.3 3.2-16.6 6.2-25.2 11.4-6-5-13-10-21-14.6zm21 21.5c55.5-32.2 79.9 10.5 88 17.3 48.9-11.7 58.5-6.5 86.4 22.5 48.6-24.8 72.7-4.9 93.4 7.7 23.6-22.9 54-24 70-13 3.1 4.8 7.4 11 7.7 13 .3 1.4-2-.3-7.5-4.1-29.2-20.1-76.5 6.4-63.3 33.3 3.6 7.3 3.1 10.4-2 13.5-7.2 5-16.3-3-11.4-11.5 8.3-14 1.7-25.6-19.2-36-29.4-14.8-76.6 3.1-66.4 25.4 6.4 7 .6 12.2-7.6 12-9.4 0-12.7-6.3-6.8-13 7.3-8.7 5.2-17.4-3.7-27-26.8-36.9-79.4-21.2-71.8 11.3 3.2 8.1-5.5 11.5-14.6 8-5.9-2.1-5.2-11 1.1-14.3 7.3-.9 8.1-11.4 7.1-18.2-1.4-9.8-16-19.2-30.5-24.1a65.2 65.2 0 0 0-27.8-3.4c-16 1.8-24.8 12.9-21.8 29.2 1.7 9.6-.8 19.7-12.3 14.6-6.2-2.8-4.8-9.9 1.4-16.5 22-22-23.4-47.7-50.1-29a20.3 20.3 0 0 1-7.9 4.5c16.3-42.5 70-3.9 69.6-2.2zm73.7-7 34 12.2c-7.8 1.7-13.2 4-18.7 6.2zm-88.1 15.3c-31.3-5.3-32.4 29.6-12 35-27.3 38.8 46.3 52.5 32 5.3 37.2 6 29.8-36.1 2.2-35.2 6.2-15.9 57.3-4.9 55.3 6.9-34.4 4.2-20 35.4-5.1 35.1-35.4 34.8 37.2 65 34.4 13.6 29 5.5 31.7-33 3.9-35 10-14.5 46.4-6 56.8 10.1-28.6 4.4-26.4 29.5-3.9 33.2-27.8 36.8 42.5 49 34.5 7 25.2 8.1 38.4-25.6 5.7-34.6 33-20.5 69.7 8.5 65.8 9.1-38-1.5-29.8 36.4-2.3 33.9-16.9 39.8 52.6 40.8 34.2.1 31.2 0 27.9-36-2-38 18.5-14 39.7-15.6 53.6-3-28.3 8-16 40.8 12.5 31.2 3.2 27.6 25.6 21.3 26 20.5l20.8 37.2-545.4 10.5 45-86.7a22 22 0 0 0 25-26.2c18.5 12.7 37.6-20.1 10.6-29 21.5-23.2 54.3-2.6 52.4-1zm-177.6.8c-1.1 1.2-1.4 1.9-3.3.2-4.9-5.4 8-6 3.3-.2zm113 12.4c2.5 2 1 7.3-1 9.2-4.8 5.3-6.5 5-2.3-4.2 1.2-2.8 2.4-5 3.3-5zm239-1.8 28.5 6.4-13.3 7.8c-5-5.3-10-10-15.2-14.2zm88.9 9.9 30.8 1.4c-4 2.8-8 5.5-12.8 10.6-4-4-11.4-8-18-12zm103.3 29.6c1.8 3.5 8.8 15.9 8.1 16.2-9.9 2-12.8-12.9-8.1-16.2z" style="fill:#100f08;stroke-width:3.18132639" transform="matrix(.16288 .00293 -.00316 .15098 -248.1 745.4)"/></g></g></g></g></svg>