<svg xmlns="http://www.w3.org/2000/svg" width="234" height="333"><g transform="translate(0 -719.4)"><rect width="233.2" height="332.2" x=".4" y="719.7" rx="8.9" ry="8.9" style="fill:#fff;fill-opacity:1;stroke:gray;stroke-width:.75590551;stroke-linecap:butt;stroke-linejoin:miter;stroke-miterlimit:4;stroke-dasharray:none;stroke-opacity:1"/><g style="font-style:normal;font-variant:normal;font-weight:700;font-stretch:normal;font-size:3.77201176px;line-height:0%;font-family:'Levenim MT';-inkscape-font-specification:'Sans Bold';letter-spacing:0;word-spacing:0;fill:red;fill-opacity:1;stroke:none;stroke-width:1"><path d="M23.4 846.6q0 4-.4 5.7-.7 3-3 4.5-1.8 1.2-4.3 1.2-5.2 0-8.8-4.6l4.3-4q2.4 2.7 4.3 2.7 1.4 0 1.8-1.6l.1-2.7v-22h6z" aria-label="J" style="font-size:43.70262146px;line-height:1.25;stroke-width:1" transform="scale(1.13562 .88058)"/></g><g style="font-style:normal;font-variant:normal;font-weight:700;font-stretch:normal;font-size:3.77201176px;line-height:0%;font-family:'Levenim MT';-inkscape-font-specification:'Sans Bold';letter-spacing:0;word-spacing:0;fill:red;fill-opacity:1;stroke:none;stroke-width:1"><path d="M-182.6-1165.4q0 4-.4 5.7-.7 3-3 4.5-1.8 1.2-4.4 1.2-5.1 0-8.8-4.6l4.3-4q2.4 2.7 4.4 2.7 1.3 0 1.7-1.6.2-.8.2-2.7v-22h6z" aria-label="J" style="font-size:43.70262146px;line-height:1.25;stroke-width:1" transform="scale(-1.13562 -.88058)"/></g><g style="display:inline;stroke-width:3.18132639"><g style="stroke-width:3.18132639"><path d="m2152.5-307-74.3 48.3-1 56.5c-44-21.1-63.2-55.7-70.1-96.3-12.5 15.7-10 95-10 95-11.4 6-15.5 13.6-22.7 20.5a244 244 0 0 0 27.2 31.7c-.1-.3-9.2 82.6 1.8 86 10-35.4 23.4-66.3 72.6-98.6 0 0 .7 131.7-2.4 259-20.9-14.4-64.9-40.1-93.3-66.5 36.9-47.5-.7-109.5-55.8-68.3-35.6-19.4-41.1-110.5-50-158.3-1.6-9.6-10-37.7-10-37.7s-117.5-32.5-168-29.8c42.5 110.4 34.2 245-153.4 270.3-89.9 41-193.7 86.9-294.6 172.5-18.6 127.4-84.4 190.2-130.8 224.9.4 51.6-.3 102.8 1.8 154.9 0 .3 42.4-27.8 49-22.7 35.5 230.4 165.3 276 152.3 282.4-2.1 1-42.6 42.6-42.6 42.6l-158.4-104.3c-5.4 159.3-2.2 321.7 0 481.2 28-15.8 79.4-53.6 79.4-53.6l.8-54.2c-.2-5.1 72 45.1 72.2 105 5.6 3.9 18-86.2 6.7-96l29.7-30.5-32-30.7s8.2-51-8.4-80.3c-10.7 67.2-66.5 88.2-66.5 88.2s-1.1-245.8-2.5-246l99.5 63c-7.4 1.5-26.4 36.8-6.6 65.3 12 17.4 55.4 16.3 58.7-3.8 61.2 57.1 37.7 125.3 64.4 206.3l173.8 31.8c-71.6-132.8 6.1-284.2 146.7-273.4 26.4-11 50.2-26.8 50.2-26.8s-17.5-28.6-39.6-55l-301-5 140.4-263-92.3-3s75-159.1 58.8-172c-5.7-4.4-3.3-55.7-3.3-55.7l82.4 3c3.3-36.6-39.9-176.5-100.7-268l338.3 3-190.5 265.6 102.3 3-61 125.3 9.8 97.8-90.8 3C1654.4 715 1755.1 858 1790.5 902c58.5-14 167.8-97.5 235.6-149.5 8.8-91 40-168.4 122-226.2l.2-149.8s-46.7 30.2-46.7 28.1c.2-32.4-16.7-99.9-47.9-160-33.4-64.5-88.3-123-101-126.7 29-43.9 41.5-47.8 41-48.5L2152 170.9ZM1355.2 12.2s-30.7 11.7-57.5 11.3c-47.9 2.5-84.4 6.3-103.9 45.6-3.9 12 4.7 16.4 11.1 19.5 36.1-44.8 132 14.4 150.3-76.5zM1142.6 218c0 6.3 7 16.7 10.6 6 3-7.7 3.7-20.2.2-27.8-9.6-5.4-10.7 15.6-10.8 21.8zm518.7 217-46.7.2-.3 54.9 47.6 2.2zM2121 708.2c-1 5.4-6.1 30 5.3 25.7 13.5-10.4 2-58-5.3-25.7zM2077 846c-5.6-8-22.7 12-36.7 12.7-62.3 3.4-108.2-5-116 60.2 36-23 86.3-12.5 118.7-19.9 23.5-7.8 50.4-29 34-53z" style="fill:#e2cf00;fill-opacity:1;stroke:none;stroke-width:3.18132639" transform="matrix(.16341 -.0003 -.00014 .1508 -150.5 816.6)"/><path d="M-154.2 1118.7c-10.4-571.7-10.3-1136-11.7-1701.3l1055.2-.3c-.5 564.2 2.1 1130 13 1699.8zm38.6-1100.1c.8-16.4-6-23.1-11.7-11.8-1.4 2.6-5.7 31 5 32 7.1.5 6.4-13.2 6.7-20.2zm-17 19.3c0-3.9-2.4-5.6 2.7-39.2-10.1-3.8-19-20-11.7-30.4 2.9-4 2-5 .9-8.3-3-8.4-1.5-15.2 6.2-20.6 5-3.4 5.2-4.3 3.6-8.8-4.2-11.5-.4-22.8 10.6-26.7 7.6-2.7 6.1-3 7-8 1.7-10.8 7.6-17.4 18.5-16.4 10.2 1 10.8 1 11.7-4 2.3-13.7 18.8-28.7 40.4-39 10.7-5.1 28.6-8.8 62.7-8.9 19.6-.5 44-3.2 57.6-15.3 2.3-2.1 5.4-7.7 6.5-7 2.5 1.8 2 15.4-3 27.9-14.3 36.3-34 46.4-89.7 46.4-16.6-.7-41.1 1.7-51.4 12.3-3.1 3.3-5.2 6.4-4 8 23.1 3.2 47 13.5 61 59a1432 1432 0 0 1 190.8-117.4c-10.3-54.4 36.9-63.1 63.4-52.4 0 0 .7-3.6-.4-7.7-1-4-2.5-9.2-7.4-16-1.3-2.4-8.7-7-7.3-10.8 2.4-6 1.3-7.7-3.8-13.3-3.3-3.6-1.2-11.4-.4-14.5 1-5.8 4.8-14.2 1.4-17.3-5.3-4.8-23.2-13-32.4-19.4-10.3-7.3-10.5-14 4.3-38.4 6.7-14.2 13-29.4 18.4-39.6 8-15.5 8.8-25.6 3.8-34.4A46.4 46.4 0 0 1 222-447s-61.7-86.7-87.1-120.7l-286.3.7 1 654.6L-99.5 40-113 24.3c-1.9 9.2-.1 18.2-11.5 18.8-3.8.2-7.4-1.4-8-5.2zM42.8 909.5c1.5-25.9-11.1-68.2-30-97.4 1 22.3 2.7 49.5-1.6 71.4zm452.2 65a385 385 0 0 0-32.9-2.4 98.4 98.4 0 0 1-81.7-46.3c-4.2-6.4-2.5-6.1 6.8 1 26 20.2 50.5 32.2 71.8 29 30.2-4.5 46.6 6.5 42.5 19.5-.7 2.3-1 .9-6.5-.9zm-103-57.3c-6.1-5.2-6.6-7.6.6-2.9 22 14.5 48.7 38.3 81.4 24 6.8-4.3.6-3.7-10.8-2.4-17.4 2-38.6-6.8-64.8-24.6-12.8-8.7-7.2-16.2 7.1-9.4 4.5 2.1 9 3.6 11.8 3.8 14-9.4 43.7-9.5 43-9.5 3.4-2.9-7.7-7.4-24.2-13.6-10.8-4-13.4-5.6-5.4-6 7-.3 18 3.1 25.9 8.2 13.2 8.4 19.9 13 23.8 13.6 6.5.5 13.1 1.4 2 6.6-5 2.3-4.6 3-4 8.6 1 8.8 1.6 8.7 5.7 13.7 6.9 7.6 10 21.7.1 12.9-2.1-1-2.3 1-8.1 3.3-34 9.8-59.3-5-84.1-26.3zm62.7 2.1a45 45 0 0 0 5-10.6c-.6-4.2-4.3-2.9-6.2-.5-3.1 3.9-7.5 9.6-3.8 11.6 1.7.9 3.4 1.7 5-.5zm-11.6-2.6 7.4-13.5c-1.8-.8-27.4 4.6-23.4 8.2 3.6 3.3 16 5.3 16 5.3zm28.5-45.3c-11.7-6.2-15.2-19.6-6.5-28.6 7.2-7.5 19.6-7 34.5 2.1 5.3 3.2 8.5 4.8 12 3.5 6-2.3 8.3 1 7.9 5.8-1 10.3-17.1 13-27.3 1.2-13.5-15.5-28-4.5-23.7 6.7 2.2 5.7 6.4 6.6 11.3 8.7 0 1.1-4.8 2.4-8.2.6zm-53.5-69.1c19.2-5.3 48 15 63.6 12 6.7-1.4 5.8 8.3-1.1 11.9-8.2 4.1-19.9 1.4-44.6-11.3-20.4-10.9-36.8 7.4-23.1 21 3 2.7 7.2 4.3 12.4 4 6.9-.3 8.9 1.5 0 3.8-5 1.4-14.5-.6-19.1-5.2-11-11-8.5-32.4 11.9-36.2zM9.4 745.2a50.2 50.2 0 0 1 11.8-35.9L-66 651l2.6 235c42.9-27.5 56.8-62 59-106.4 85.4 94.6 59.6 210.4 7 276.6-2.4-40.3-14.8-87.9-63.9-112l.2 48-81 58.2.8 53.2L50 1103l91.7-135.6c-17-61.2-14.8-112.2-26.3-140.1-8.7-23-25-52.7-35.4-48-35 28-69.9-4.3-70.7-34.1Zm73.1 26.7c30.2 21.4 38.4 56.8 44.8 88.1.2.3 16.4 106.5 16.9 107.9 2 5.8 1.4 11.6-3.7 16-27.6 38.3-81.3 120.2-81.3 120.2h531.6c-28.6-41-51-81.7-78.1-115.5 1.1-1.8-2.3-25-6.8-32.4-4.7-7.7-5.8-11.7-2.7-18.8C511 919.9 518.8 901 526 885c13.5-30.7 15.1-31-3.7-40.8-22.4-12.8-26.4-17-21.8-31.8 1.7-5.4 1.9-7.6-5-9a284 284 0 0 1-16.2-3.8c-15-4.6-10.7-1.7-16.2 2.2-4.1 2-7.8-5.8-12.8-15.2-5.7-10.7-7-11 2.3-5.5 17.3 10.2 48 6 37.1-5.8-5.3-5.8-10.2-8.7-9.7-21.9.4-13 .6-16.8-8.2-18.6a124 124 0 0 0-53.5 2.3c-50.1 12.8-90.1 56.6-105.2 89-3.4 5.7 4.5 5.4 8 5.4 16.4-1.6 28.2 24.5 17.5 36.4-5 5.2-10 2-4.7-4.8 6-11.3-3-26.2-16.3-22.3-16.7 4.9-17 26.4-19 41.5-5.4 43.2 17 101 22.4 112.7 0 0 1.2 1.8.8 1.8-.5 0-3 2.4-4.2 1.1-3.9-4.3-13.8-39.6-19.3-64.9-10.6-69.8 7.1-134.2 65-171.1 51.4-37.5 77.4-29.6 106.6-31.5a372 372 0 0 0 34.3-14.4c51.3-28.5 93-52.7 136.6-76.8 42.4-23.4 70.7-56.6 109.4-77.5 1.8-1 3.6-3.1 5.4-4 48-42.3 95.6-83.8 124.3-112.7 3.4-3.6 6.3-8.3 6.3-8.3l-6.3-242.3s-4.9-4-4.9-8c0-8.3-3.1-6.7-20.3 5.6-21.7 15.4-23.1 14.6-23.1 14.6-12.2-111-73-220-146.2-283.6l3-4s24.4 15.9 36.6 23.5V-73l-29.5-18.2s-2.6-2.2.2-6c1.5-2.2 5.6-.6 5.6-.6l23.6 17.2v-14.2l-19.2-12 6-7.7L722-108c-4.4-11.1 1.7-10.8 8-3.4a46 46 0 0 1 7.5 11.9l2.2 5.4 16.7 12.3s-.6-6 0-8c2.7-8.7 23 19.5 20.5 20.2L794-57.4c4-6.2 19.3 6 20 12 1.3 2.7 59 39.3 59 39.3l.6-20.4 6.1-8.1v-472l-76 49.2-.5 57.2c-36.2-11.5-67.7-63.6-72.5-96.1-2.4-1.3-12.4 64.3-6.7 93a258 258 0 0 0-25.3 24l29 31.4s-5.4 48.5-4 72.6c1.3 11.4 1.5 12.5 5 12.5 2.7 0 5.2-3 5.2-5.6 6.6-28.8 28.7-74 67.2-89.5 2.6-.1 1.3 257.2 1.3 257.2l-96.2-64.9c-4.8-4 6.2-3.8 12.8-25.6 17-56.3-43.3-75.8-66.3-43.1-3.9 0-20-19.7-22.4-28-18-35.5-21.6-76-25.2-108.4a418 418 0 0 0-12.3-53.5c-2.5-7.8-2.7-13.4 2.4-20.7 23.5-32.1 46.3-66 66.1-99 18.1-24 14.6-25.2 14.6-25.2l-533 1.4L228.7-456l8.6 3.4c-14.7 2-9.6 14.8-3.8 28.6 7.1 17 6.4 20.6-11.3 55.8-25.8 51.6-27.3 47-1 62.8 16.1 10.3 19 12.5 16.8 26.5-2.3 14-3 9.7 10.3 10.8 7.2.6 12.8 1.8 16 3.3 3.7 1.6 6.4 3.9 11.1 2.3 7.9-2.6 8-.7 8.4 5 .2 2.5 4 7.6 5 9.5 3.2 5 1.7 5.8-3.9 2.3-17.2-10.7-45.8-6-35.2 5.8 4.4 4.8 8.9 20.8 9.3 28.8.7 14.3 10 19.3 29.5 16.3 37.5-3 121.7-50 141-102.4-43.1 15-34.6-38.1-19.1-36.6 0 0-4.1 9.5-4.2 14.9-.4 19 15.5 20.3 26.4 6.8 4.7-7 10.4-33.4 7.3-63-3.6-35.8-18.4-75.9-21-85.8 62.6 147.3 6.2 212.6-80.5 255.5-33.2 14-37.7 14-57.4 15-13.4 1.2-25.4 8-38.3 12.3-74.3 36-165.4 80.8-246.8 147.3C-62.5 13-108.9 52.4-154.9 102.8l1.3 260.6c14-2.3 36.5-16 49.8-23.8 16 97.2 66.7 209.6 150 276.5l-2 3.6A415 415 0 0 0 9 598.3l-.5 12.4 28 19c.7 3-4.8 7.2-4.8 7.2L8.7 621l-.2 12.6 18 11.3c4.8 4.8-5.9 7.4-5.9 7.4L10 644.8s.8 6.1.5 7.2c-2.7 9.3-18-11.2-20.9-21.4l-15-8.8c2.1 6-3.3 7-7.5 5.4-11.3-5.6-10.8-15.2-13.1-20.9l-20-12.5c-3.4 19-23.9-7.7-20.7-14.1l-25.7-17.3c1.4.5-9.7 3-13.5.5-4.4-2.9-6-14.5-6-14.5l-15.4-9.4v16.7L11.5 665 9 669.3l-165.4-111.7 9.6 489 80-56c-1.7-18.2 1.6-34.6 0-55.5 41.4 25.5 55.4 42.9 73.9 96.7 11.6-30.8 9.3-60.2 3.9-87.4 10.5-8.7 20.7-17.2 26-30.2-10-13.6-19.8-17.4-30.3-30-1-15.5 7.8-61.6-4.4-76.7 0 0-21.8 67-69.5 87.4-1.8-70.6-1.2-248-1.2-248S-19 680.3 6 694c11.8 6.2 20 10 20.2 14.5.1 2.3-4.6 5.2-6.7 8.5-1.2 2-6.6 21-4.4 36 1 11 6.3 18 11.3 23.2 15.9 16.6 44.7 8.6 56-4.4zM177 646.4 364.2 381a895 895 0 0 0 111.5 266.4zM268.6 368s13-26.3 19-40.2l-23.1.2 13.8-15.6 34.4-.2-18.2 39.3h14.6l20-39.4 53.7-.3-18.5 39.3h12.3l19.9-39.4 49.9-.3-17.3 39.4 11.7-.1 10.1-19.9 2.7 36-49.6.4 19.4-40.2-16 .1-21.9 40.2-46.4.2 19.9-40h-17.7l-21.9 40.2zm152.2-141.7 19.8-42.4h-15.9l-21.9 41.6-49.5.3 19.3-41h-12.4c-8.3 13-21.5 39.3-21.5 39.3l-52.5.4s14.7-28 20.5-41.6h-13l-10.4 17c-3.7-6.3-1.4-23-2-30l49.4-.4-19.6 40.8 15.8-.1 21.4-40.8 52.3-.3-21 40.8 12.3-.1 20.9-38.5 53.2-.3-18.5 38.5 16.5-.1-7.2 16.7zM371.5 153l-10 2C348 45.2 286.5-66.2 260.6-112.2l302 2.4zm350.7-635.3s-28.5 37.2-30 99.4l27.2-22.1c-2.1-63 2.8-77.3 2.8-77.3zm-29.8 104c-.1 46.2 12.2 75.6 27.6 98.6.1-29.8 3-60 4.6-67.8zM-49.9 510.4l-98-66.7.1 14.8 116.5 78.1zm-17.8-36c-26.2-13-80.3-53.3-80.3-53.3v13.5l86.2 59.7c1.7 1.7 4 1.2 4.7-.6a450 450 0 0 1-10.6-19.3zM-92 416.2l-56.3-38.8v12.1c14.5 12.8 62 43.2 62 43.2zm-56.3-47.7 53 33.8-3.4-15.1-37.7-25.2zM797-110l1.4-243c-54.9 26.3-65.3 102.2-63.5 104.5-55-56-76.4-177.5-.1-259.8 6 26.2 8 64.3 62.6 98.7l1-51.5 75.9-49-1-58.5-182.5-.4c-28 36-56.1 77-84 115.3-10.3 14.3-13 21-10.9 28.5 18.8 66 15.6 147.5 54.5 185.8 51.5-49 100.5 24 60.5 69.5zM14.8 945.6c7.2 22.1 2.6 66.8 2.1 66.8 8.4-4.6 30.8-69.4 25-93.6m257-1188.5c-12.9-3.5-22.6-9-36.3-7.6-10.7 1.1-14.4-2.4-7.8-8.3 8.5-7.3 16.7-10.3 32.7-2.1 47.8 24.7 49-11.8 27.6-14.2-6.1-.7-5.9-4.6.2-3.7 33.4 1.1 23.5 45.4-16.4 36zm-56-36c-6.3-2.3-14-6-16.7-5.3-7.1 2-7.4-2-6.6-6.6 2-11.1 13.4-9.2 28.5.3 21.6 13.6 29.8-6.2 10.1-16.7-6.6-3.5-4.6-4.5-.7-4.7 10.2-.5 19.9 13.3 17.2 24.7-6.7 18.3-23.4 11.3-31.8 8.3zm63-34c-14-2.4-34.3-21-43.7-22.3-5.2-.5-11.4.1-13.1-2-5.2-6.4 9.4-6.5 10.4-8.9 0-5.4.3-8.8 0-10.7-2.5-3.5-12.8-17.4-12.5-24.1.3-.4 5.4 3.7 8 3.7 24.8-13.3 41.9-7.6 63 1.6 8.6 3.8 31.2 21 31.5 23.8.5 4.6-9.6-4-17.4-9.3-19.3-13.2-36.6-22.6-60.7-14.5-3.8 1.3-3.1 2 9.2 1.1 12.1-.8 22 2.9 37.5 12.9 3.9 2.4 8.5 6.7 11.3 8 19.4 9.1 23.7 18.2 11.4 15.8-2.7-.5-7.8-3.2-12.9-5-8.9-3-5.7-2.2-14.2 1.9-3 1.4-10.2 4.4-16.1 5.1-4.6.8-19.3.8-12.8 7 7 6.8 18.5 11.9 26.4 15 5.7 2.5 1.3 2-5.3.8zm1.5-30.2c9-3.4 1.9-11-9.7-12.6-2.7-.4-8.3 12.1-8.4 14.8 0 2 13-.4 18-2.2zm-25.1 1.5a48 48 0 0 0 9-13.1c0-6.5-8.3-4.6-10.2 2.1-2.3 8.2-2.4 13.3 1.2 11zm-29.4-52c-7.5-3.3-17.7-17.7-6-15.4 2.4.6 15.5 1.2 23.9 1.2 28.6 0 57.3 12.8 75.5 31.5 10.2 10.5 11 18.2.6 11-36.5-32.3-58.8-26.1-94-28.4zM542.5 702l-10 5.4c0 5.6 2 4.7 6.5 8.7 0 0-6.2 1-10.7.8-7.5-.5-9.1-.3-5.8 4.8l3.6 6s-4 .9-10-.7c-9.3-2.5-14-1.2-10.5 3.9l2.9 4c-6.7-1.5-19-7.4-19-7.4l-8.7 2.7c17.5 33.7 78.8 12 61.7-28.2zm299.6-50c9.4-8 4.7-17.8-9.2-24.8-5.8-3-5.2-3-14.5 2.5-11.5 6.9-12.4 7.2-4 15.9 10 10.5 20.7 12.3 27.7 6.4zm-35.4-22.3c8.7-4 5.4-3.3 4.8-12.4-2.6-10.5 3.3-11.3 6.2-21.1 1.2-5.4-3.3-3.4-12.1 4.9-7.2 6.1-9.4 7.6-9.4 4.7.8-2.5-5-8.9-10.3-9.7-4.4-.7-4-1.7.3-7.3 7.4-9.7 10.4-22 5.3-32.7-6.4-13.6-8.5-15.5-22.4-3.6-7.2 6.7-17.3 11.8-22.1 20-3.5 6-1.4 11.9 4.2 23.6 14 29.5 35.5 42.6 55.5 33.6zm49 0c15.4-6.2 9.1-22.8-15-39.4-14.6-10-18.7-9.9-6.4 1 8 7 9.2 9.4 5.9 14.5-2.8 4.2-5.8 9.2-3 13 4.5 6 12 13.4 18.6 10.9zM-11.8 607l-16.8-10.5V611l17 10zm839.4 8.2a19 19 0 0 0 6.2-11.9c.7-6.8-10.3-5-15.5 2.4-5.8 8.4 1.2 15.3 9.3 9.5zm37.5-23c7.6-8.2 3.8-16.7-12-26.8-6-3.9-9.1-6.5-8.3 1.4.2 2.4-2.4 5.6-4.1 7.5-5.4 6.1-3 7.2 12.6 17 8 5 7.5 5.4 11.8.8zM-12 582l-17-10 .1 13 16.9 11.3zm-36.7 13.3.2-13.2-21.9-14.3-.2 14.7zM807 585c-2.8 7.6 8.5 4.1 9.1 3.3 2-3.8.2-4.1-.8-4.5-2-.9-9.6.5-8.3 1.2zm4.8-9.5c3.9-1.3 4.3-.8 3.8-7.8-1-10.5.7-11.4 7.6-16 5.6-3.8 5.6-3.2 5.5-9.7-.1-7.7.4-11.1 10.6-12.8 4.2-.6 6.6-1.7 7-5 .5-5.5-8.5-14.9-19.7-20.2a296 296 0 0 0-33.2 29.2l-4.3 4.6 5.2 9.5c8 14.8 6.7 20.2 2.2 40-1 5.2 3.1 4.4 4.1-2 1.4-5.9 2.2-8 11.2-9.8zm37.6-52.7c-1.8 12 4.4 19.3 10.2 13.3 3.1-3.2 5.6-29.6 3.4-33.8-12-12.7-13.2 17.7-13.6 20.5zm-192 198.8c44.5-26.4 101.9-5.4 134-27 15-16.6 30-27.3 21.4-38.7-6.7-8.9-11-10.2-11-10.2.5.6-23.4 21-58.2 16.5-58-1.6-85.3 16.7-86.1 59.4zm75.9-62.6c28.3.8 51.4-4.2 61.9-12.5 6.5-5.2 7.5-6-2.8-6.8-22-1.7-44.5-27.1-51.6-51.9l-3.2-10.6C679 624.3 550.3 699 550.3 699c8.8 39.9-20 63.9-59.2 50-6.8-.7-5.9 8.1-4.6 11.7 2.2 5.9 7 10.8 7.9 11.6 5.8 5 7 8.2 6.1 13-.8 4.8-.8 4.6 2.6 6.4 5.9 3 5.6 7.6 2.4 16.8-3.3 13-3.6 16.4 5.8 22.5 12.1 7.7 35.8 16 32.4 27.7-7.8 26.4-20.6 49.2-31.9 74a25.4 25.4 0 0 0 .2 23.3c4.2 8 3.7 17.7 9.1 25.1 30 43.9 55.8 82.5 83 122.2l283 1-10.8-652.7s-43.4 43.3-43.2 46.3c.2 3.6 10.3 9.2 14.6 9.9.2-2 0-9.7.5-12.4.3-4 13-3 17.1.4 3 2.4 2.2 18-.7 30.7-2.4 10.4-2 10.6 2.5 16.6a29.2 29.2 0 0 1 6.7 21.7c-.4 4.6-.3 8.2 1 11.2 3 7 2.2 17-1 21.6-4.9 6.7-5 7.7-3.9 11.3 4 12.4 2.7 23-11.2 28.5-1.7.7-3.7 3.7-4.8 6.4-5.9 20-17.2 20-32.8 14.3-10.7 42.9-55.3 53.9-87.4 52.8-33.5-1.1-67.6 1.6-82.6 23.6 3.2-52 26.3-77.1 82.2-75.5zm100.5-86.7c5.7-2.2 6.4-8.1 1.6-12-7.4-5.7-15.8.3-12.3 8.7 2 4.7 5.2 5.3 10.7 3.3zm-881.7-13.7-22.4-15.3.2 13.8 22.3 14.2zm42.1 11.1-15.9-18.8c-46.7-28.2-87.2-59.8-126-85.2l-.2 17.6 11 5.5 1.7-6.1c1.4-4.2 14.3 7.5 18.4 16.9l3.3 7.6 15 8.1.1-5.4c0-9 16 3.3 23.4 18 1.8 3.5 4.1 7.2 4.1 7.2l14.1 8.5c5.5-7.6 19.7 2.6 23.3 11.8 4.7 11.6 12.7 12.6 13 12.6zm-84-2V554l-23.4-15.1-.2 13.6zm957.4-4.6c.6-3.5-3-17.2-8.2-18-3.3-.4-8.3 4.6-8.3 8 0 4.5 15.9 13.9 16.5 10zm-19-16.2c5-5.5-1.4-12.7-9.2-10.2-9.2 3-6 11.4 4.4 11.5 2.3 0 3.7 0 4.8-1.3zm-939.8-4.3v-12.8l-21.5-14.1-.4 12.5zm-42.2-4.3.1-12.3-14.2-9.8.1 14.8zm.3-37-14.5-9.3v13.4l15.2 8.5zm58.3-41c-1.5-4-7.7-16.4-7.7-16.4l-65.7-45.2.1 14 73.5 48.8zM-106.1 352l-.8-5.7-5.8 3zm-13.8 1.5-9.1 5 27.7 17.8-2.3-12.8zm958.4-157 7-5.3-12.5-8.4-1 8.6zm12.7-8.3 9.3-7.8-31.4-22 2.3 13.8zm22.1-11.7V167l-51-34 3.6 17.3c9 5 20 12.6 31.4 20.5 7.3 5.1 7.4 7 16 5.7zm0-17.5-.2-15-59-38.6 5 17.5zm-.2-22.5V121l-71.5-46.6 8 20.7zm-.3-39.4-90-59.4 11.7 23 78.4 51.7zm0-22.9L759.7.1l12.7 20.8 100.3 67Zm-.2-24.3h-4.2c-.3 10.7-12 3-16.4-8.7l-4.1-9.9L825 16.1l1.9 12-15.3-9.2L807 4l-26.2-17.6c.6 3 1 8-.7 8.4 0 0-8-3.4-11.6-8.6-3.8-5.5-4.4-11-4.4-11L743-38.4l-5.3.6s-3-1.9-5.6-4c-5.1-9-11-10.4-18.1-14 0 0 15 17.4 23.1 27.7A99.5 99.5 0 0 0 753.4-12l119.3 78.6zm-.2-24.5-9.2-5.4.8 14.5 8.5 5.7zM-54-.9c.6-1-1.8-2-4.4-7.6-6.5-14-7.1-19-3.8-33.8 1.6-7-4.8-10-7.7-2.5-2.3 5.9-5.8 9.2-9.2 8.8-3.3-.4-4 1-2.5 5.4 1.7 6.1-2 14.2-7 16.4C-94-13-95-9.6-93.5-4.8c2.5 8-6 14.7-12.8 14.3-10.3-.5-6.2 9 6.4 17.8 4.6 3.3 6.7 5.1 10.3 3.4 9.4-9 27-21.9 35.4-31.6zm901 23.7L846.3 9 820.1-8.5l3.3 18.4Zm25.5-6L872.3 3l-10.8-6.8.6 14.7zm-983-15.7c2.4 2.5 5 2.7 8.9.3 4.5-2.4 2.8-6-2-8.4-4.5-2.3-10.8 5-7 8zm-8-6c-.3-3 3.2-7 5.7-7 5.3-.4 4.4-3.3-1.8-7-2.9-1.7-8-5.7-9.9-7-9.2-6.7-18 3.7-11.1 12.3 5.7 7.2 14.2 11.5 17.2 8.6zM844.3-2 842-17.4l-23.7-15.5 2 16.9zM-13.4-34.4a11 11 0 0 0 1.5-6.7c-.5-9.7-5.6-21-12.6-30.5a62 62 0 0 0-18-16.6c-18.1-9.1-42.2-5-38.6 7 2.6 8 2 14.8-4.9 18.9-4.7 2.7-5.3 6.5-.3 6.4A25 25 0 0 0-69-65.6c5.6-8.9 8.8-14 7.6.4-.5 6.1.2 5.6 9.6 5.1 12.8-.7 10.4 1.7 3 7.5a27.9 27.9 0 0 0-7.3 34.5c3.4 7.5 5.8 11.4 10.2 10.4 9.5-6.3 25-19 32.6-26.7zm815.8 13.1-23.3-15.1 1 16.3 25.2 14.7zm-891-9.7c-8.5-10.7-18.4 3.1-12 9 4.8 4.1 16.6-.1 12-9zm-20 1.6c-1.2-3.3 5-8.7 6-10.9 2.7-6.2-22.6-23.4-30.4-13-5.3 7-1.5 14 13 23.7 8.9 5.8 13.1 5.7 11.3.2zM800-45l-21.5-13.2.4 14 22.9 13.7zm-37.7 12.9-.1-14.5-21.7-15-.3 15zM-78.3-44.3c4-4 2.6-5.2-5-4.7-4.8.2-6.2-.6-6.5 1.6-.7 4.9 7.5 7 11.5 3zm-18-5.4c.4-1-2.3-3-6.8-6.6-8.4-7-9.4-11.4-1.3-17 11.5-8-.7-19-14.1-14.4-10.9 3.7-10.8 14.6-4.3 21.6 8.8 5.9 25 22.8 26.5 16.4zM762-69.2l-21.3-14.4v14.2l21.4 12.3zm-854.4 6c9.5-4.9 10-17 .5-12.5-4 1.9-9 6.9-9 9.1 0 4.4 3.7 6 8.5 3.4zm6.8-27.8c12.3-6.7 10.4-12.8-2-20.4-14.9-8.4-25.2 8-12.9 19.1 6.5 5.8 8 5 15 1.3zm15.9-12c19.8-21.5 33-20.5 59.4-20.1 68 .2 88.6-32.4 86.3-55.2-33 16.6-62.5 8-93.9 13-54.1 12.4-60.3 38-64 52.5zm272-74.6c17.5 0 16.7.6 9.4-13.8 17 2.3 24 10.4 18.2-6.5 9.1 3.1 14.5 5.6 23.9 8.6l5.9-3.5c-36.3-34.9-76-4.9-65.3 30.4l13.3-6.4z" style="fill:#131f67;fill-opacity:1;stroke-width:3.18132639" transform="matrix(.16341 .0006 -.0011 .1508 57.4 845.4)"/><path d="m297.8 1104.7 8.2-40.7 74.8 3.2s8.9 25.5 12.5 37zm-172.8 0 39.3-65.8 56.5 15-12.7 51.4zm109.7.4 16.6-70.1c-32.3-7-62.7-11.4-98.4-20.8l-57.2 91.6-34.8-.7c29.7-40 84-121 84-121a743.9 743.9 0 0 0 379.5 25.4s47.3 61.7 64.3 95.1l-33-1.4-41.6-68.6c-28.6 3.3-56.8 7.2-86.6 8.7l20.8 60.5-32.9.2-19-60.4c-35.8-1.2-66 1.8-109-4.7l-14.7 66zm236.8-1.4-11.6-43 40.4-5s19 32.8 29.3 47.7zM106.7 706c49.8-76.7 225.7-324 225.7-324l25.9 2.4S202 605 126 716.9zm-257-117.3 62.2 44.2 2.5 346.8-62.6 44.6zm253.6-569 37.7 73C-17.2 244.4 15 421.1 101 546.8c0 0-10.8 28.3-34.6 58.4-115.8-75.3-152-272.8-151.2-275C41.7 216.3 58.6 180 103.3 19.7Zm653.4 536.5c7.6-111.7 61.7-185 122.6-229.9l3.8 113.5a2559.4 2559.4 0 0 1-126.4 116.4zM589.9 444.7c138.6-131 142.2-315.9 40-451L671-64.4C730.3-1.8 788.4 63.9 814 217.2 726 287.3 648.7 402.7 628.6 519Zm-193-150.3-.5-53.2 52.1-.6-1.2 53.1zm-110.1.2-1.1-53h51.5l-.4 53.8zm88.4-142.5S546.5-90.7 613.8-178.3l14.4 10.5-227.8 321.1zM-29.3-14.6c.4 95.4-60.3 171.4-122.5 221l.2-108.5zm904.8-465.6 2.9 423.4-58.6-34.8 2.9-355.1zm-278 26.7c-132-33.5-252.1-43-378.2-15.3-16.6-19.5-72.3-100.9-72.3-100.9l31.9.3 45.6 72 86-11.7-22.6-58.7h35.5l18 57.5c-.2-.4 70 .3 109 4.7 6-21.5 17.4-64 17.4-64l39-.3c-4.9 20.4-18 69.2-18 69.2 32 4.2 91.4 19 92 19.6 20.6-29.5 39.8-59 58.4-88.6l38.1-.4c-11 19-77.7 117.5-79.9 116.6zm-24.7-50.6-58.3-13.3 15-51.4 81.3-.5zm-334.4-16.6-27.3-47.5 52-.3 17.5 41.8zm118.2-10.4-8.1-37.9 94.6-.6-9.5 40.5z" style="fill:#d40000;fill-opacity:1;stroke-width:3.18132639" transform="matrix(.16341 .0006 -.0011 .1508 57.4 845.4)"/><path d="m1415.8-377 84.1 121.4c.4-.4 47.1-9.3 93.1-11.5 45.7-2.3 100.2.6 100.6 2 0 0 14.4 43.4 19.3 64.7 6.4 28.5 5.7 61.2-1 83-10 31.9-15.3 41.4-37.5 63.3a203 203 0 0 1-63.8 42.7c-33.3 13.9-36.7 13.8-56.3 14.7-13 .6-14.3 1.1-21.4 4.8-2.2.8-3.6 3-5.6 3.7-1.6.6-4.7 0-4.7 0a1330.5 1330.5 0 0 0-257 147.5c-.7.5-1.1 3-1.9 3.5-5.2 4.3-10 7.6-15.1 11.5-.7.5-2.3-.4-3 .1-75.3 58-118 105-133.6 118.6l1.5 270s34.3-17.5 51.9-28.3a435 435 0 0 0 146.8 276.7l-35.7 49.3-164.6-113.4 2.3 498.3 87.5-60.8v-52.5c26 17.5 51.5 24.4 70 104.4 14.9-28.1 13.6-70 7-98 0 0 22.1-18.2 29-32.2l-32.6-28.9s8.4-69.8-7-84c-12 31.8-21.7 65.4-67 89.9l-.6-242.8c22.6 14.4 44 30.5 66.3 45.2l3-.6L1293 901s-2.5 5-4.7 8.3c-28.1 42.6 18.7 94.9 56.8 63.4 14.9-12.3 42.8 39 48.1 88.1 5.4 31.8 8.3 71.3 17 99 2.6 8 1.6 12.5-4.1 17.4l-87.8 123.8h42.2l3-4.9h-31c26.7-35.7 52.3-77.3 80.2-112.1 103.7 39 273.5 48 376 24.4 21.3 29.7 41.9 60.8 62.2 91h-29.5l4.1 6.4h40l-84.2-123.7c-57.9 17.2-199.2 10.5-196.6 9l-5.3-15c-24.2-78.2-26.5-147.7 34.4-203.9 32.3-28.7 68.4-47.6 108.7-44 18-.4 18.4-1.4 25.9-4.8a91.7 91.7 0 0 1 12.7-3.8l40.8-22.6 5.4-1.1 11.8-6.2 2.4-2.9 19-9.6 2 .2 25.7-14.8.4-2 10-6.3 2.5 2.5c2.8.3 100.6-63.9 141.3-99.7l2.6 1c47.6-38.5 112.3-99.3 131.5-122.4l-1-115.5-1.6-1.5-.7-128h-3.7l-.2-15.7c-21 7.7-44.2 27.3-45.7 26.5A450.4 450.4 0 0 0 1958.7 120l34.7-48 161.3 108.5.4-31.7h2c2-121.5 3-436.4 3-436.4l-1.5-.2v-25.1l-82.5 52.6-1.1 53.1c-36.6-11.9-59.7-55.8-67.4-94.9-10.6 4.3-15.6 45.5-11.6 97.6a86.9 86.9 0 0 0-25.5 23 223 223 0 0 0 29.9 30c-2.3 5-7.2 74.5-2.4 83.2 2.2 6.4 9.8 5.4 9.9-1.3 11-54.2 62.6-89.9 65.5-86.6L2072 94.2l-91.5-64c19.2-21.8 23.3-58.4-1-76.3a36 36 0 0 0-53.5 8.7c-29.7-19.3-39.7-91-44-119.1a372 372 0 0 0-8.7-49c-2.5-10.5-5.5-20.5-6-29.9-.1-4.4.4-6.3 4.4-11.8l89-126.2-45.4-.2-.5.8h35.8l-80.3 114a781.3 781.3 0 0 0-379.6-23l-66.1-93 30-.2-1.2-2zm69.8 1 1.2 2.4 52-.2-.8-2-52.4-.1zm77 .4 1 2.7 35.5.1-1.1-2.6zm181 1-.3 1.2h39.1l.3-1.2zm-119.7 0 .4 1.6h94.3l.3-1.5zm181.6.8-.4 1.3h81.4l.7-1.3zm343.3 69.4.3 17.1-54.7 34.8c-1.4 73.3-3.5 355-3.5 355l-13-8.6 2.5-352.8s48.4-31 68.4-45.5zm-143.4 13.8h1.8l.6 4h-3.2zm3.8 10.3 1.5 5.4h-8l1.3-5.2zm138 2.8v11.2l-47.1 29.5V-248zm-145.5 9.3 12.3.2 2 6.2h-15.5zm-303 3.4 8.3 1.2c19 45 23.8 83.8 27 124.1 7.6 52.3 22.8 104.7 33.4 127l-12-.1c-1.5-.2-27-76-32.3-120.6-1.5-8.9-.9-17-1.3-25.3a385.7 385.7 0 0 0-23-106.3zm15.6 1.8 10.5 1c7.4 32 18.1 62.3 22.5 94.5 7 51.4 10.6 104 35.5 154.7l-9.9-.1c-15-34.3-24.4-70-30.4-108.7-4.7-22.2-4.7-38.9-7.2-58.9-3-24-12.3-54.7-21-82.5zm16 1.5 10.5 1.5c7 31.8 18.8 66.8 22 95.6 6.4 58.5 15.6 113 34 151.7l-7.3-.2c-28.6-55.2-29-104.5-37-156.2-4.7-30.5-14.7-61-22.2-92.4zm16.8 2.4 9.3 1.5c6.4 31.6 18 67.4 20.8 99.5 4.7 56.8 14.8 99.8 36 145.7l-8.8.1c-25.5-44.6-29-99.5-36.9-155-4.4-30.6-14.3-61.5-20.4-91.8zm400.1.1v13.8l-47.1 30.3v-13.6zm-385 2.7 9.8 1.5c6.3 30.5 18 63 20.7 92.8 4.7 50.7 14 102 35 149.2l-9 .6c-22.2-47.7-31.8-91.1-36-146-2.4-30.7-14.2-68.1-20.4-98.1zm257 .1 3.3 8.3-22.6 1 .3-9.2zm-241 3 11.6 2.2c12.3 48.6 15.5 94.7 23.8 141 10.5 57.5 21.5 86.3 30.4 97l-9.5.4c-23.4-49.8-31.6-99.3-37-150.5-3.3-30.3-13.2-60-19.2-90.2zm17.7 3.2 8.8 1.8a852 852 0 0 1 19.9 113c8.4 68.3 31.2 120.4 36 122.8l-9.7-.5c-21-29.1-28.9-78.7-39.2-148.7-4.6-30.8-9.1-59.7-15.8-88.4zm14.2 2.8 9.9 2.5s8.9 35 15.6 81.4c5.6 38.7 8.5 114.9 50.6 158.7 21 21.8 58 40.8 83.3 20.2 10.8-9.2 17.7-24 11.2-39.7-10.9-26.4-47.8-21.9-35.5 5.8 1.4 6.7-7.3 7-13.4.5-6.3-7-4.7-14.9-.2-22.1 9.5-15.3 34.9-16.9 49.8-3.2 23.8 23.3 13.5 63.4-16.7 76-34.7 14.8-79.5-15.6-97.3-44.7-29.3-50.7-33.9-98.8-40.7-150-3.5-27.6-10.3-56.7-16.6-85.4zm14.9 4.1 10 2.5c0 .1 11 49.3 14.6 78.4 4.5 36 9.5 78.5 24.9 111.3a123.8 123.8 0 0 0 37.7 47.5c12 8.5 23 14 39.1 10.5 18.6-4 19.5-33 1.7-33-9.1 0-3.2-8.8 4.3-9 26.8-1 27.6 41.3 2.4 50.7-28.9 10.8-60.1-9.5-79.5-35-33.8-52.6-32.5-100.5-40-143a801.6 801.6 0 0 0-15.2-80.9zm202.7 1.5 6.2 8.2-34-.2.1-7.7zm-187.8 2.7 9.6 3.4c.3 0 9.6 38.2 15.4 83.3 7 43.5 9.2 79.7 31.7 111.1 9.4 13.1 27.1 30.6 38.2 32.6 7 1.5 14.1 0 15.9-5.3 2.8-8.5 10.2-4.6 10.4 3.2 0 5.5-4 11.1-10.8 13.1-33.2 5.7-63.5-35.9-72.7-57-12.4-30.6-17.8-64.9-23.2-107.6-2.2-18-13.2-75.6-14.5-76.8zm307.3 1.6-.1 13.7-47 29.7v-13.4zm-292.9 2.6 10.8 3s9 33.6 14.3 75c5.4 42.1 17 91 38.8 116.3 2 2.4 3.4 4.1 4.2 5.5 1.6 3.5-.3 9.3-1.9 9.3-38.8-20.2-48-101.3-51.3-128.7-4.9-42.4-14.9-80.4-14.9-80.4zm150.9 6.5 34.2 1 8.1 8-45.3-.4c-4.8-4.9-1.8-4.3 3-8.6zm142 11.2v11.5l-47.1 29.8v-11.6zm-140.9 3.7 50.1.8L2074-202l-76.5-.7zm141 14.5v13.7l-47.2 29.5v-12.8zm-159.5 2.5 85 1 .3 9.2-92.3-2.4zm-11 15.8 96.1.3.3 10.2-87.5-.9zm170.4 1.6v14.3l-47.1 29.2v-13.5zm-152.4 15 73.8.3-8 8.6-55.7-.6zm152.4 5v13.5l-47.1 29.7V-129zm-96.9 10.3-9 8.7-38.1-.5 1.3-8zm97 9.5v14.5L2100-95.8v-12.5zm-144.7 5.3 31.6.7-4.9 6.6-27.6.1zm-283.5 11.5c4.7 36.4 31.1 109.8 31.1 109.8h-10.4c.5.8-18.9-46.2-25.9-90.4-.8-4.2 2-18.4 5.2-19.4zm281.5 2.1 24.2.4-5.2 9.4h-19.8zm146.6 2.2v12.7l-47.1 29v-11.5Zm-147.4 12.8 16 .5-3.7 8.7-12.5-.3zm147.4 6.9v13.5l-47.1 29.2v-13zm-438 2.8c4.7 26.5 24.8 79.8 26.3 83.3l-9 .1c-.3 1.2-20.8-47.7-23-68.7-1-4.4 1.3-13 5.6-14.7zm290.4 5.7 9.6.4-1.7 5-7.7.1zm.9 11.9 5 .1-1.3 4.7h-3zm146.7.2v11L2100.1-37v-10.4zm-449.9 1.2c7.2 21.3 14.3 43 22.8 63.7l-10.6-.3c-7-15-11.9-31.7-17.3-48.2a14.9 14.9 0 0 1 5.1-15.2zm-10.5 14.2 17.5 49h-10c-4-9.8-8.6-20.8-11.9-31-3.3-10.5-3-10.9 4.4-18zm460.4 3v13L2100.1-17v-11.2zm-467.8 19 9.7 27.2-12.4-.3a84 84 0 0 1-6.7-24.3c-.3-4-1-8 1.8-9.8 5.5-3.1 5-.5 7.6 7.3zm-13 11.2 5 16-11.4-.4c-3.4-7.5-4.7-13-3.7-20.8 7-8 7.4-3.8 10 5.2zm480.8-9.4v13.6l-47.1 28.3V-9.2ZM1650-28.8l4.8 15.7-10.3-.2c-1.8-3.7-.7-8.2-.7-12.3zm-13.6 8 .4.2c1.5 7 0 7.4.1 7.3h-14.5s11.8-7.5 14-7.4zm510.8 4.1v10.9l-47.1 29.4v-11ZM1586.5.5l283.4.8 9.4 13.3s-27.6.8-117.9.2c-76 1-228.7-1.6-228.7-1.6l14.8-7c20.6-.5 39.3-5.8 39-5.7ZM2147.2 2v12l-47.1 28.5V31Zm-797.4 11.4a125.5 125.5 0 0 1-60 11.3c-34.1-2.8-86.5 11.5-97 44.4-3.3 11.6-3.4 12 3 17.8 3 3 6 5.2 6.6 5 5.5-5 12.8-14 20.7-16.6 10.2-3.1 15.8-3.6 32.7-4.3 36.3-1.6 44.5-3.1 53.5-5.5 20-5.3 40-24.9 41.2-46.7.1-2.4-.7-5.4-.7-5.4zm-1 3c-3.8 45.4-53 51.4-74.7 50-43.8-2.6-61.1 10.5-68 18.7-2.3 2.1-3.7 1.6-3.3-.4 5-25.1 45.8-26 66.2-25.8 50.2 2.3 63-22 61.5-22.1l-10.5 5c-1.6.7-1.3-.3-5.6-2.8-.1.3-5 11.5-11.5.9.2.5-4.5 9.4-13.3 1 0 1-5.3 8.7-13.8.8-8 6.9-11.9 3.1-15.4-1.7-2.5 1.5-10 11.6-16.2.7-6.6 4.2-9.3 8.8-15 6-13.3 2.4-24.9 16-29.5 28.6-1.5 4.3-4.5 5-4.8.2-1.6-13 19.9-35.6 41.4-41.8 16.8-4.9 28.2-8.4 65-7 21 .8 47.5-10.3 47.5-10.3zm537.6 3.4 13.3 9-231.1 318.7-20.4-.5zm-370.8.2h26.3v43.5h-22.7l-8-12a14 14 0 0 0 21.2-12.2 14 14 0 1 0-28 2l-8.5-12.5s3.6-2.2 12.2-6c2.2-1 7.5-2.8 7.5-2.8zm81 0h44.6v43.5h-44.6zm97.6 0h46v43.7l-46-.2zm99.5 0h46v43.5h-46zm352.8 1 .7 13.6-47.1 28.7V50Zm-331.4 4.6a15 15 0 1 0 0 29.8 15 15 0 0 0 0-29.8zm-196.1.7a14.9 14.9 0 1 0 0 29.8 14.9 14.9 0 0 0 0-29.8zm97.1.3a14.9 14.9 0 1 0 0 29.8 14.9 14.9 0 0 0 0-29.8zm50.2 1.8a12.5 12.5 0 1 1 0 25 12.5 12.5 0 0 1 0-25zm-197.6.2a12.5 12.5 0 1 1 0 25 12.5 12.5 0 0 1 0-25zm296.2.4c3 0 5.7 1.2 7.7 3L1859 50.6a11.5 11.5 0 0 1 6-21.5zm-195.7 0a12.5 12.5 0 1 1 0 25 12.5 12.5 0 0 1 0-25zm-151 1a9.3 9.3 0 1 1 0 18.6 9.3 9.3 0 0 1 0-18.6zm-28.5.5c79.4 101.1 121.6 203.7 140.2 315.4l-13.3-.6a688.7 688.7 0 0 0-139.2-309.9Zm325.4 0a9.9 9.9 0 1 1 0 19.8 9.9 9.9 0 0 1 0-19.7zm-196.1.9a9.9 9.9 0 1 1 0 19.7 9.9 9.9 0 0 1 0-19.7zm97.1.3a9.9 9.9 0 1 1 0 19.7 9.9 9.9 0 0 1 0-19.8zm247.2 7c5.2 40-5.2 65.9-35.7 70-38.9 5.4-44 8.3-44.2 45.2-.2 43.7-6.7 56.3-37.6 59.8-34.8 3.8-43 8-39.8 51.2 2.3 31.6-10.2 45-37 51-21 4.5-39 11.5-46.8 32.6l-19.2.3c5-33.3 38.4-49.2 59.8-50.3 23.1-5.5 28-13.2 24.2-53.7-2.8-30.5 8.4-39.7 44.2-46.7 28.7-5.7 35.7-13.9 34.1-37.3-3.3-50.2 0-57.8 28.5-63.9 14.6-3.4 38.2-5 47.3-16 10.2-12.7 7.6-23.4 6.7-39zm184 1.4v13L2100 82.5V69.6ZM1454 47.9c-10 43.6 24.6 53 45.7 60.4 24.6 8.5 30.5 21 27.7 64.2-2 32.7 1.5 40 22.7 51.2 32.4 16.7 41.1 40.4 26.7 75.2-8.8 21.5-4.2 27.5 1.4 46.2l-15.7-.1c-1.1.3-14.4-23.4-3-49 13.3-30.1 13-45.3-17-59-23-10.5-30.2-20.4-31.6-42-.6-9.2-.6-13.7 1.6-33.6 2.7-25-6.3-35.7-43.2-49.5-16.5-6-27.7-20.3-31-43-1-6.3-.2-13.6-.2-13.6zm552.9 4.8 140.6 93.5-1 20.8-149.1-99.7Zm-90.6 2a12.3 12.3 0 1 1 0 24.6 12.3 12.3 0 0 1 0-24.6zM1474 60.1zm672.7 1.3-.5 12.5-46.2 28.7V90ZM1413 70.2c42.5 55.4 84.3 112.5 116.6 220l-13.8 5.3a643.2 643.2 0 0 0-115.8-218Zm111-.6h320.4l-8.3 11-306-3zM2147.3 80v13.8l-35.5 21.5-10.4-6.8zm-752.9 1.5 6.3 8.3s-6.8 5.3-14.5 10.8c-21 15-23.7 16.7-25.1 26.5-3.3 23.2 20.5 34.6 44.5 21.2 8.6-4 27.4-15.9 27.4-15.9l5.4 8s-27 20.2-42.8 24.8c-34.8 10-60.7-34-35-60 3.9-4 12.2-9.4 18.8-13.7 6.8-4.4 15-10 15-10zm143 5.5 295.1 1.7L1644 346.3l-8.3-.5c-14.6-96.3-50.9-180.5-98.3-258.8zm-128.7 10.9 17.2 24s-11.2 10.8-29.8 21c-14.9 8.1-31-6.7-21.6-20 9.6-13.3 34.2-25 34.2-25zm738.6 2.4V113l-20.4 12.5-9.4-6zm-740.8 9.7c-8.1.4-21.7 9.7-26.3 17.7-2 3.5-1.3 6.3.5 8.7 2.8 3.6 6.1 3.4 16-1.8 20-10.7 23.7-17 14.9-23.3a7.5 7.5 0 0 0-4.3-1.3h-.8zm-.6 5.2c1.3-.2 2.8.2 4 .1 3.5 1.4 2.4 5.7-1.2 6.8-.8-1.3-6.8-1.5-6.4 4.7-1.5 3.4-1.4 3.1-5.8 3.6a5 5 0 0 0-5.5 2.6c-3 1.7-6.7 1.1-7.4-.7-.7-1.8 1.8-7 4-6.9 1 0 2.7-1.4 4.6-2.7 0-3.3 3.9-3.8 5-3.8 1.1.2 4.9.3 6.7-2.8a3 3 0 0 1 2-1zm741.4 3v19.3l-14.8-9.4zm-818.9 2.4a545 545 0 0 1 117 224.4l-10.7 7.4c-16.3-65.5-41.4-134.8-115.6-224.8Zm628.9 1c24.3 20.7 124 114.6 143 281.2L2087 411a450.3 450.3 0 0 0-138.3-278.1Zm-48.1 5.8a12.3 12.3 0 1 1 0 24.7 12.3 12.3 0 0 1 0-24.7zm-595.7 4.8s11.3 11.7 11.3 14.4c0 5.5-4.4 8.6-30.4 18-4.4 1.7-23.5 6-23.5 6l-.7-9.2c9.7-3.6 36-9.9 38-15.4.9-2.2-3.8-7.8-2.8-7.8zm179 2.4a11.2 11.2 0 1 1 0 22.4 11.2 11.2 0 0 1 0-22.4zm452.4 3.2a451.7 451.7 0 0 1 136.5 278.7c-94.7 77-159 173.7-184.5 294.7-12.6-21-23.3-45.2-35-68.9 126.2-110.9 152.8-310.7 43.6-450.8zM1448 153l5.7 8.8s-1.2 1.1-19 12.1c-25.8 16-30 26.5-21.4 43 8.8 16.8 18.7 17.7 46.5 4.2 9.8-4.7 18.1-9.7 18.1-9.7l4.4 9.2s-12.4 10.1-36.4 19c-22.5 8.2-43.8-6-47.8-32-3-18.9 5.3-29 38.2-47.7 3.7-2 11.7-6.9 11.7-6.9zm387 4.2a12.3 12.3 0 1 1 0 24.7 12.3 12.3 0 0 1 0-24.7zm-502 .5 7.5 7s-3.2 4.7-21.6 15.7c-16.4 10-18.1 8.3-10 15.3 15.4 12.9 36.6 41.5 36.5 48.9-.2 7.1-6.5 13.7-18.8 19.2-6.6 3-33.1 12.4-37 13-7.8 1-10 4-2.2 11 13.1 15.1 24.4 47.4 19.8 57.2-5 11.1-11.1 13-59.8 15.2-5.5.3-8.2-1.3-5.2 5.8 2.2 5.2 4.5 12.2 8.8 34.1 3.9 19.5 3.2 28.3-4.3 32.3-4.4 2.4-38.2 1.5-52.2-1.2-16-3.2-17.8-3.4-15.2 7 3.4 14.4 5.5 53-5.4 60.5-4.6 3-9.4 2.2-29.3-4.5-12.7-4.3-23.7-9.2-23.7-9.2l.3-12c10.3 4.3 38.6 16.6 46.7 12.7 9.5-13.7-3.7-61.7-8.8-72-6.1-12.2.3-15 14.4-7.3 7.4 5.2 71.1 30.3 67.5 7.8-4-21.3-10.8-45.6-24.3-60.8-12.4-14.1-6.2-19.9 7.6-13.7 24.5 11 75.1 8.3 72.6-3-3.4-18.5-20.1-43.5-43-63-6.4-5.3-6.7-7.6.9-9 21.4-1.7 82.7-8 74.1-22.3a147.2 147.2 0 0 0-25.5-31.9c-13.8-11.5-27.6-16.5-33.8-18.9l.4-8.8c28-2.3 42.5-10.7 63-25.1zm-67.6 8.7c-10 105-53.9 191.4-144.5 251.7l-.5-11.8c79.7-59.8 118-144.8 128.3-227.1Zm193.1 6.6s14.6 26.2 14.6 28.6c-8.6 8-31.3 19.8-40.6 17-14.4-4.6-16.6-19.9-2.8-28.9a165.9 165.9 0 0 1 28.6-16.7h.2zm-116.1-1.7 7.4 6.7s-1.9 3-12.6 11.5c-8.4 6.4-5.4 3.9.2 11.5 5.1 6.1 14.1 18.3 14.1 18.3l-2.7 16.2a272.3 272.3 0 0 0-31.2-37.6c-7.1-7.3-6.8-7.5 3.4-12.8 7.6-4.2 13.8-9.3 21.4-13.8zm203.4 10.5a11.1 11.1 0 1 1 0 22.3 11.2 11.2 0 0 1 0-22.3zm-90.4 1c-10.6 2.7-21 12.2-26.9 16.4-2.1 1.5-.5 9.2 1.6 11.8 2.6 3.4 7.5 2.9 13.3-.4a179 179 0 0 1 9.7-4.9c8.2-3.8 11.6-6.6 11.3-9.7-1.3-4.3-4.6-13.6-9-13.3zm.6 4.8c3 0 5.2 4 4.2 6.2-5.1 2.8-8 .4-7.3 4.3 0 0 .5 6-7 6.2-1.8-.8-5-.6-6.6 1-5.2 2.1-9.8-2.5-4-5.1 1.5-.7 5.3-2 6.3-4.3.6-2.9 3-5.2 5.6-3.6 1.4.1 4.6.3 5.6-1.9-.4-2.5 1.4-2.7 2.6-2.8h.6zm-214.8-.8c2.3 11.8-4.8 32.5-8.8 44.1-23.8 31.2-58.4 47.1-91.2 58-7.3 2.4-17.2 1.2-17.2 1.2 45.5-46.8 84.5-81 117.2-103.3zm-83 10.6c.3-2.6-11.7-5.8-12.8-4.2-2.2 2.1-5.8 34.6-3.5 37 3.2 3.2 12 4 12.9.2 2.7-12.7 2-22.3 3.4-33zm203.8-1 7.8 9.7c-16.5 156.5-128.4 292-247.8 345.7l-.3-10.4c136.6-71.7 218.8-191.2 240.3-345zm540.4.7 14.8 20.3-21.2.7Zm-748.2 3.8c0 5.3-.7 16.4-2.8 22.6-1.3 4.9-5 3.8-6.4-.7a44.5 44.5 0 0 1 2.5-23.1c3-5.1 5.3-4.3 6.7 1.2zm113 2.8c7.4 0 46.3 24 41.1 35.9-4.1 9.5-36.7 10.2-51.6 8.9l2.2-9.1s4.6 1.5 22-.3c18.1-1.2 16.8-7.5-4-20.7l-11.2-7zm107.9 12.8c12 20.4 23.5 43.3 34.2 69-147.1 138.7-135.7 327.8-43 451.9l-40 53.9a458.1 458.1 0 0 1-138-269.7c116.6-84 171.4-209.2 186.8-305Zm546.3 6.2 8.8 16.8-21.1-.4zm-91.1 8.4a12.3 12.3 0 1 1 0 24.6 12.3 12.3 0 0 1 0-24.6zm-342.3 3.3 4.2 9.5c.2 1.2-29.8 10.7-39.4 22.9-9 11.2-8 22.9-3 31 8.5 11.5 14.5 13.1 29 8.7 11.7-3.6 20.3-8.5 32-14.4l1.8 4.8c0-.2-16.7 9.8-29.5 17a31 31 0 0 1-15.6 3.8c-29-.7-44.4-38.2-20.5-60.4a172 172 0 0 1 25.4-14.9l15.6-8zm384.7 6c96 138.3 30.3 290-31.7 343.6l-1.6-16.3a261 261 0 0 0 24.5-319.2zm61.8 6.1 7.5 17.1-22.3-2.3zm-386.8 5.6a11.2 11.2 0 1 1 0 22.4 11.2 11.2 0 0 1 0-22.4zm313.6 2.2c84 122.2 37.2 317-123.2 376.3l-.8-13.6c163.5-68.4 179.6-250.4 113.9-353.1zm-364.5.8 10.6 28.7a81.2 81.2 0 0 1-33.6 14c-11.8 2.8-21-17.6-12-25.4 10.4-9 21.5-12.8 35-17.3zm-272.8 0c2 0-.1 4.9-5.2 17.2-11.2 27-12 27.6-40 32-14.7 2.4-25.7 3-36 2-15.8-1.5-22.5-6-12.3-8.1a254.3 254.3 0 0 0 83.4-36.6c5.5-4 8.7-6.4 10.1-6.4zm534.5 3.4a13.9 13.9 0 1 1 0 27.7 13.9 13.9 0 0 1 0-27.7zm-418 3.8-1.2 10.7s-17 9-25.1 12.4c-6.2 2.5-6.6 3-4.7 8.8 4 11.4 11.7 25.6 11.7 25.6l-7.1 16.1c-4.4-14.5-9-29.9-17-43.4-7.5-10.6-9-11.9 2.9-14.1 15.2-5.1 27-8.9 40.5-16zm152.3 3.5c-8.3.4-25.8 7.4-27.5 14-1 3.9.1 9.2 3.3 10.4 8.7 3.2 26.1-4 30.7-10.5 1.4-2-.7-6.2-2.3-8.8-1.1-2-1-5.3-4.2-5.1zm.5 5.7h.4c1.4-.1 6.5 6.4.8 5.9-2-.2-3.8.5-5.5 2.2-.2 3.1-4.7 4.3-6.8 3.3-1.6-.8-3.9.8-4.1 1.8-3.3 2.3-7.4 2.2-7.9.5-1-1.1 2.2-6 5-5.8.7 0 2.7-1.3 4.6-3 .9-3.2 4.3-2.6 6.5-2.5 2.5 1 4.7-2.2 7-2.4zm451.7.5 6.2 17.1-22-2zm-94.7 19.7c-4.5 5.8-8.7 6-15.4 5.6 5.5 6.4 7.9 15.4 2.6 21.2-8.1 8.2-23.7-4.4-22.5-5.5l28-37.2c7.3 2 11.4 9 7.3 16zm-606.2-9.7s34 29.3 34.2 42.4c.1 5-1.5 6.6-5.5 7.9-13.3 4.4-50.4-7-50.4-7l4.8-9c5.8 1.6 34.5 9 37 5.4 2.6-3.8-24-29.7-24-29.8zm168.5 12.3 4 14-13.8-3.4zm541.8 2.5 3.6 19.5-22.2-5.2zm-423.6.3 3.4 11.5c-147.4 68.3-190.5 225.3-113.6 354.8l-8.7 12A256.7 256.7 0 0 1 1531 297Zm-132.7 12 2 17.4-17.2-1zm-202.9-.5c3 0 3.5 1.7 3.5 3.4 0 2.3-14.9 21.3-19.7 25.6-10.5 4.2-50.8-12.6-56.8-25.7-1.2-3.8 2.8-2.1 11.7-.3 22.6 6.5 45.6-2.4 61.3-3zm392.7.3a11.2 11.2 0 1 1 0 22.3 11.2 11.2 0 0 1 0-22.3zm-464.3 13.7A95.8 95.8 0 0 0 1166 344c9.1 2 6.5 2.9-2 11.6-7.8 8.3-7.2 9.3-15.2 5.2-13.4-6.8-28-22.2-27.4-30.6.2-3.5.8-7.6 2.3-7.6zm837.2 2 2.8 18.5-21-7.3zm-583.6 6.6 6.8 16.6-18.6-.5zm473.3 15.9c0 2.3-.6 6.2-.6 6.2 11-7 25.5-1.2 25.1 10-.6 16-8.4 16-21 14 6.9 11.5-1.4 22.6-14.4 18.3-12-3.8-9.6-16.4-4-23.8a28.9 28.9 0 0 0-3.2 56.4c-6.5-10.1-8.2-22.2 6-24.2 13.1-1.9 18.7 8 13 20 12.3-4.2 24 2.8 20.3 14.9-4.5 14.5-17.4 13.5-25 4.6 5.4 13.2-7.2 22.7-16.8 17.6-15-8-7.6-22.4 2.5-26.2-38.8-4-47.8 49.6-19.2 57.2-7.3-4.6-8.1-25.7 8.6-22.8 16.4 3.3 12.5 18.6 2 25.5 12.7-2.7 24.6 8.5 16.9 19.7-9.1 13.3-21.7 3.8-26.4-5.2 1.5 12-6.2 19.8-16.2 15.3-17-7.8-4.4-27.3 8.9-26-27-16-63.6 17.4-42 45-.9-12.5 5.4-22.8 14-21.4 7.6.9 14.3 9.5 12.1 16.3-2 5.8-8.6 10.3-15.5 11.7 20.6 2.3 22.4 16.9 13.8 24-14.5 12.3-21.2-1.8-24.6-10-3 20.4-27 13.4-28-1.4-.7-16.2 18-15.8 21.4-15a56 56 0 0 0-30.4-17.3l.1-9.4c62.8-39.4 84.4-108.1 64.4-173.3l3.8-4.3c10.3 7.8 20.5 24.6 39.4 18.4 0 0-4.4-3-6.5-5.2-9.8-9.6-4.3-21 9.3-21.5 8.7-.4 12.1 6.3 12.2 11.9zm-425.7 0 6.5 9.5c-95.2 111.4-77.8 239-23.1 323.4l-8 9.7c-48.4-62.1-88-212.7 24.6-342.7zm81 15.3.1 4.5s2-2.5 3.7-5.6c8.2-13.6 25.6-5.7 22.8 9.9-1.4 7.3-13.7 10.1-17 8 3.1 8.8 11.8 10.8 22.3 14.6 3.7.7 10 2.5 10 2.5l.3 5.9c-57.1 36-89.4 97-68.5 180.3l-6.3 8.5c-11.5-27.7-22-27-41-28.1 0 0 4.7 3.3 7.5 6.5 5.7 6.8 3.2 18.6-4.8 19.8-18.4 2.9-18.6-10.2-16.1-19 0 0-3.3 2.8-5 3.8-7.3 4.8-16.4-.2-17.2-9.6-.8-8.8 2.2-14.6 11.3-15.7 3.1-.3 7.8.4 7.8.4l-2.8-5.4c-4.4-8.6 5.2-15.9 14-14 13.9 3.3 12.8 15.3 4.8 24.7 21.5 1.6 32.8-12.5 31.2-26.4-2-17-9.8-26.3-26.7-29.3l3.9 6.4c4.3 7.7-2 17.1-11 17-9.4 0-15.4-8.6-11.8-17 1-2 4.4-4.6 3.9-4.9-.4-.1-5.2 1.3-6.5 1.6-11.2 1.7-18.4-8.2-13.7-18 3.3-7 13.3-8.9 20.6-5.4 1.2.4 2.6 2 2.8 1.6.2-.3-.8-2.6-1-4.2-2.4-9 2-13.9 11.8-13.2 13.6.8 18.7 12 9.6 22l-6 6.5c.4 2 19.5 3.4 29.2-6.8 11.3-11.8 13-36.4 1.7-44.4l-5.6-4c5.4 10.8-4.5 23.3-13.3 21-17.5-4.3-16-18.6-4.5-23.2 0 0-11.7-4.3-15-9-4.8-6.7-3.2-12.8 2.5-17.5 7.2-5.8 17.4-2 22.4 5.1 3-9 7.1-15.2 19.5-10.2 8.7 4.1 8.7 15.7-.9 22-3 2-8.5 4-8.5 4s8.2 4.6 18.2 4.7c19.3.2 34.6-22.5 26.8-39.9-1.6-3.5-5.5-8-5.5-8s-.5 6-1.7 8.3c-4.4 8.7-14.7 8.9-20.7 3.4-5.5-5-4-11.6.3-16.1 3.3-3.5 6.2-4.2 10.7-6.3-5.1-1.7-10.8-3-13.3-8.3-2.4-5-.7-11.3 5.4-15.1a13 13 0 0 1 19.4 11.6zm-382.6-14c7.8 4.6 13 11.4 20.4 17.4 5.7 4.6 5.6 5.4 1 9.8-10.6 10.1-16.5-4.6-20-10.6-4-8-4.5-16.3-1.4-16.6zm842.5 2.8 1.3 19.7-21.9-8.4zm-603.7 1.2 8 17.9-20.4-.1zm425.1 0c19.1 70.7-7.7 121.4-58.8 161.1l-5.6-7.4c39.9-33.8 69.7-73.8 56.5-145zm-234.3.3 224.2 4.1-6.7 11.9h-17.5l-34.6 61.3H1557Zm-328.2 51.1c-7.8 12.4-54.4-14.2-53.8-15.6l5.8-5.6c7.4 3 30.5 15.7 35.6 13.7 1.7-11.6-11.8-26.5-17-36.5l5.7-7.2s29.6 38.3 23.7 51.2zm76.4-45-7.7 14.1c-7.3 2.2-29.2 2.6-31 4 2.7 7.3 5.6 28.4 5.6 28.4l-8.6 11a512.6 512.6 0 0 0-9.6-43.3c-2.9-10.7-2-8.4 20.7-10.1 10.2-.6 20.7-1.9 30.6-4zm46 17 9.2 16.4-18.6.1zm-224.6 1c1-.3 6.8 6.1 7.8 8-.4 4.3-7 6.6-8 5a51.7 51.7 0 0 1 .2-13zm846 .3-.1 20.5-22.2-9.8zm176.5 4.6-.3 13.3c-80.6 39.4-200.8 145-235 334.5l-7.1-7.7c34.3-181 152.5-288 242.4-340ZM1334.4 400l10 15.1-18 2zm634.5 5.8-1.8 18.1-21.8-12zm-420.9 3.8c0 4.3.5 7.4.7 11.7-49.6 32.1-66.4 82.7-58.1 146.4l-7 10.1c-16-57.7.2-128.8 64.4-168.2zm575.6 3.7c5 3 21.5 7.8 21.5 7.8l-.2 12-33.8-12zM1153 464.6c-7.2 5.9-24-4-31.6-8l-.2-10.2s5.8 3 11.6 5.4c12 5.3 12-1 5.5-18.9-2.3-6.2-4.6-13.4-4.6-13.4l7.9-7.5s18.9 42.5 11.4 52.6zm169.6-38.2 13 13.5-18 4.1zm788.6 1.6c11.5 0 33.6 9.3 33.6 9.3l-.2 13.4c-11.2-3.2-24.2-9.5-36-11.2-9.4-1.3-8.9 4-9 17.2 0 17.9 4.5 34 13 52 7.2 14.8 3.5 18.8-8.1 12.2-20.9-14.3-65.3-25.1-72.2-16.8-7 8.6 6.8 51.2 22.9 71.6 6.5 8.2 6.9 9.5 3.8 12.8-2.4 2.6-6.4 2.7-13.4.5-23.1-7.4-56.6-9-66.2-2.8-9.6 6.2 15.3 49 36.2 62.7 13.5 9.7 11 14.5-11 15-35.7.1-63.3 8.1-61.7 17.9 2.6 16.6 25.7 39.3 52.3 51.4 16.3 6.7 9.5 9.3-1.3 13.1-18.1 6.2-35.5 16-52.5 25l-8.2-10.4s17.1-10.9 35.7-21.3c4.4-2.5 4.2-3.4-2-8.5-19.8-16.6-34.3-35.2-37.4-47.7-3-12.1 3.1-19.8 21.2-26.6 11-4.3 15.2-5.5 25-7.7 14.2-3.2 14.4-3.7 8.4-14.5l-10-18c-21-36-9.9-49 39-49.8 12.1-.6 14.4-.7 13.7-4.8-2.6-17-10-36.5-9-51 2.2-21.6 24.6-26.9 63.8-17 9.1 2.2 9.7 1.7 8.2-5.6-7.6-33 .3-63 21.4-60.4zm-144 2.3-3.5 21-20.9-13.8zm-781.9 5 57.7 3.8-9.2 10.7-34.8-.6-1.3 29.7-11.2 9.6zm373.7 2.3h47.5l-.4 50.1h-47.3zm56.6 0h44.2v50.1l-43.9.5zm52.9 0h47.3l-.4 50.1h-46.9Zm413.7 4c-1.1 12.9 1.6 36.2 2.7 46.2-.8 3-2.8 2.6-15.2-.2-8.6-3-32.5-3.8-32.5-3.8l10-10.5c8.2 1 14.6.8 23 1.9 0-8.4.3-24.6.3-24.6zm-767.1 9.9 13.2 13.3-17 4.4zm647.5 4.3-5.3 21.5-19.2-17.2zm181.7 11.5v11l-18.8-8.6c-.2 12.5 10.8 35 10.8 35l-9 4.3a75.7 75.7 0 0 1-13.5-38.4c0-5.2-.6-14 4-14.2 9.6-.2 17.6 3 26.5 10.9zM1308.6 478l15.8 9.4-17.5 7zm648 4.8-7.8 22.1-16.8-19.1zm-835.3 7 42.5 14.4-7.6 8-35.3-11zm596.3 5.9 3.5 78.3-224.6-1.9 7.8-11 14.6-.2 38.4-64.8zm-412 6 16.7 11.9-17.3 7.6zm839.7 7v12.8c-54.2 40-112.8 109-122.8 231.1l-14.6 12.5c7.1-119.1 56.8-201.3 137.4-256.4zm-197.8.4-7.9 20-15.6-18.6zm152.8 27-5.2 6c-1.5.4-22.2-10.7-38.4-13.3 5.3 10.6 7.8 18.4 19.6 35.1l-7.6 7.5c-2.3-.5-31.8-44-24-53.9 12.7-8.5 43.4 9.4 55.6 18.7zM2012 513c-.3 11.8 9.2 48.5 9.2 48.5-14.7.7-29-1-45 3.5l7.5-13.4s7-.7 13-2c12.6-2.4 11.3-1 8.4-11.8a98.4 98.4 0 0 1-3-12.5s9-12.4 10-12.3zm-828.8 12.7c19.4 117.5 65.8 198.2 139 270.8l-7.5 9.8c-86-78.7-132.9-178.9-145.2-273zm121 5 15.9 8.6-16.3 9.4zm840.8.3-.1 17.2-10-10c2.8-2.4 6-4.8 10.1-7.2zm-208.4 3.5-10.8 19.8-14.1-18.8zm207.2 44.8c-2.2-3.5-22-15.8-30.9-21-.5-1.5 13.9-14.4 16.8-15.3 14.3 2 19 30.7 14.1 36.3zm-839.3-21.5 17.8 8.7-16.2 11.4zm594.6 0 23 2.1-12.2 19Zm212.4 8.4c3 0 6.3 1.2 10.5 3.6 16.2 9 24.6 18.8 23.7 27.6-.4 4-2.6 4.8-5.2 1.9-4.8-5.3-20.6-12.1-34.3-14.8-10.4-2-11.4-3-8.3-7.7 4.8-7.3 8.6-10.7 13.6-10.6zm-276.4 8.3a523 523 0 0 0 123.4 226l-11.4 9.8c-41.7-47.8-87.5-103.7-124.9-224.6Zm49.6 5 23 3.5-13.5 17.1zm-323.8 1c2.7.1-7.9 40.1-44.3 43-23.1 3.7-25.7 7.6-26 43.6-.5 48.7-8.4 60-48.2 63-26.4 2-29.9 7.5-25.4 45.3 4.2 36-9.4 54.4-43 54.4-29 2.4-41.1 16-41 43l.1 13.5-18.8 1.5s0-17.8 1.5-26.4c5.7-34.9 20.7-48.9 52.1-48.7 24.4-1.9 28.2-5.8 27.3-42.7-1-37.5-1.4-37.3 8.4-47 6.3-6.4 13.5-9.3 26.2-10.5 39.8-3.7 43-6.4 42.9-47.2-3.7-33.9 5.7-54.6 27.2-56.4 43.6-3.4 42.5-27 40.6-28l20.3-.4h.1zm89.2 0c25.5 137.9 106.4 267 150.8 314.6l-8.7 4.6c-64.7-80.3-123.5-172.6-152.5-319Zm-46.2 0 20.2.3-232.9 327.8-12.3-9.3zm28.3.3c21.8 79.4 39 157.1 107.9 261l-292-1.8Zm80.5.3c1.7-.8 8.6 40.2-1.6 59.1-9.2 25.6-4.7 40 15.3 49.4 34.3 16 43 32 38.6 71.4-3 27.5 5.3 40.8 31.2 49.7 30.8 10.6 44.3 27.1 44.1 54.3 0 4.2-1.6 9-1.6 9l-17.2 10.1s.2-3.7.9-8.1c4.5-30.2-1.2-38.3-36.8-52.6-33.6-13.4-42-28.9-36.2-67.6a57.3 57.3 0 0 0-6-35c-8.8-15.7-28.2-15.5-42.2-29.8-11.5-12.3-12.8-29.4-3-58.7 6.1-18.1 7-25 2.3-40.1-3.1-10-4.3-10.9-4.3-10.9zm-405.3 4.4 19.8 5.4-15 15.5zm786.3 4c6.8-.1 20 2.3 30.7 7.6 24.7 12.3 29.2 22.4 7.6 17a103 103 0 0 0-46.7 1.8c-17.9 4.4-17.5 4.6-11.3-6.2 7.8-13.7 9.8-19.9 19.7-20.1zM2049 604l-4.5 7.7c-9.8-1.6-20-6.4-35-5.2 6 11.7 13.4 17.8 23 28l-3.5 7.8c-1 1-28.5-22-34-37.4-2.5-7-.3-10 9.8-10.3 15-.2 30 4 44.2 9.4zm-368.7-7.6a13.4 13.4 0 1 1 0 26.7 13.4 13.4 0 0 1 0-26.7zm188.5 3.6 22.6 4-15 17zm-422.5.2c5.3-.4 13.6 10 13.5 10l-27.4 37.8c-13-2.6-10.2-22.4 1.7-23 2.8 0 7.8.5 7.8.5s-3.6-2-5.8-4.8c-8-9.7-.4-19.7 10.2-20.5zm511.1-3.4s21.8 43.1 20.4 44.8c-13.5 6-28.2 9-43 14.4l2.8-12.5s5-.4 21.5-6.7c8-3-8.6-25.1-8.6-25.1zm-150.8 12.8c31.8.2 32.2 39.3 26.1 52.2-4.4 8.8-11.1 13.8-31.5 23-17.7 8-19.6 7.4-19.6 7.4l-4.3-9.4s10.3-4.6 21.4-9c22.9-9.3 28.4-16.3 26-32.9-3.6-23.4-21.7-27-56.7-11.3-4 1.8-9.2 3.6-9.2 3.6l-2.4-4.7c.5-.5 28-14.9 43.4-18.4a45 45 0 0 1 6.8-.5zm-492 4.2 18 6-13.2 12.9zm801.8 5c15.9 0 29 2.7 29 8.4 0 2.6-.7 2.9-15 4.9-21.7 3-58 21.5-78.4 38.7-12 10.2-9 7.8-3.8-7 5-14.6 12.6-32.2 16.7-34.9 10.2-6.6 33.4-10 51.5-10zm-260.1 2 15.3 3.4-10 9.7zm-51.3 8.4c5.5 0 8.2 2.5 10.3 7.7 4.7 11.4 0 18-17.7 25.6-8 3.6-15.2 8.7-24 10.3l-11.2-30s3.6-1.2 15.2-6a81.7 81.7 0 0 1 27.4-7.6zm-51.8 3.6C1788.6 733 1832 798.1 1877.8 852l-11 7a638 638 0 0 1-125.9-224.6Zm49.1 3.6c-4.2.1-10.7 2.7-19.3 6-12.5 4.8-13.5 10.6-8 17.9 2.5 3 5 2.4 17-2.4 12.3-4.8 17.6-7 18.3-11.3 1-6.4-2.4-10.4-8-10.2zm344.4 1.3c0 4.2-63.8 64.6-100.2 95.4-16.6 14-16 13.8-17.4 12.1-1-10.4 6.1-47.5 10.4-54a199.8 199.8 0 0 1 98.4-54.6c5.7-1.2 9.3-1 8.8 1.1zm-343.2 2c2.3.1 4.2 2.1 4.2 4.6 0 2-2.8 3.9-5.7 3.9a8 8 0 0 0-5.2 2.2c-1.6 2.3-2.6 4.5-5.4 4-1.7-.4-4.7-.5-6 .5-5.5 5-11 .9-8.5-4 .7-1.3 3-1.9 4.8-1.9 1.5 0 5.2-.3 5.7-2.3.6-2.3 4.2-3 6.7-2.9 2.7.4 4.9-1 5.6-2.1 1-1 2.2-1.8 3.3-2h.5zm-481.7 1.1 20.3 2.8-12.8 16.3zm193.6-.3a13.4 13.4 0 1 1 0 26.8 13.4 13.4 0 0 1 0-26.8zm211.3 10.6a13.4 13.4 0 1 1 0 26.8 13.4 13.4 0 0 1 0-26.8zm-395.8 15.1 22 1.5-12.6 16.8zm116.1 3.3a13.4 13.4 0 1 1 0 26.7 13.4 13.4 0 0 1 0-26.7zm549.7 8.3c9.1-.1 19.8.8 19.8.8l-2.6 10.3c-11.2 1-25.6-2-37.6 3 4.5 7.3 30.6 17.6 33.5 20.1.3 1.1-2.1 11-2.1 11 .7 2.4-44.2-18.3-45.7-35.8 0-6 19.4-9.1 34.7-9.4zm-154.5 10.7c25.6.2 38.2 35.9 28.2 51.6a73.7 73.7 0 0 1-24.4 23 323.3 323.3 0 0 1-20.5 11l-6.7-10.4s6-2.4 11.5-5.5c14-7.9 42.6-24.8 28.8-47.8-7.7-12.5-19.3-15-43.4-2.7-18 9.1-22 10-22 10l-4.6-8.3c1.2.7 35.9-20.2 53.2-20.9zm-498 3.7h20l-8.5 18.1zm580.2-2.4c12.2 23.6 33 41.4 38.8 45.7 0 0-20.8 13.3-33.2 21.8l-7.3-8.5 17.8-15.3-20-28Zm195.5 5.7c-2.3 11.7-2.6 24-3.6 37.6 4.4 4 8.4 6 11.8 5.8a94.2 94.2 0 0 0 4.8-40.4c-3.6-2.9-8.5-2.6-13-3zm10 8.9c0 7.7 1 17.2-2.3 24.6-1.8 4.3-6 2.7-6.2-3-.2-7.8 1.3-14.3 1.8-21.4.2-4 2-6.4 4.4-5.5 2.5 1.2 2.3 3 2.3 5.3zm-289.2 5.3c13.2 1 18.2 12 13.4 19.8-11.9 15.2-24 18-39.6 26.8l-15.6-29.1s30.3-17.1 41.8-17.5zm-.3 6.5c-8.7 1-14.2 5.2-21.5 8.8-9 4.4-12 11.2-5.8 17.3 6.7 7.5 30-10.3 34-14.6 2.3-3.7 1.9-7-1.4-9.7a8.5 8.5 0 0 0-5.3-1.8zm-479.8 1.2 19.6.2-10.6 15zm481.6 3c3.3 2.4 3 6.6-1.7 7.8-2.4.7-6.5.7-6.6 3.8 0 2.4-3.7 3.3-5.7 3-2.1-.4-5.7-.6-6.4 2-1.8 3.7-3.1 3.7-5.6 1.2-2.8-2.7-1.5-6.2 3.8-6.8a6.6 6.6 0 0 0 5-3.6c0-2.2 1.5-3.5 4-3 3.5 0 5.8-1.4 8.3-4.6a5 5 0 0 1 4.9.2zm-114.7.4a13.4 13.4 0 1 1 0 26.8 13.4 13.4 0 0 1 0-26.8zm-285.7 24.6a13.4 13.4 0 1 1 0 26.9 13.4 13.4 0 0 1 0-26.9zm-320 12L1275 862l-10.5 15.3-142.3-96.8Zm769.2 3.3c10 0 17.7 5.8 25.1 17.3 14.8 23 7.4 41.1-23.2 59.6l-14.3 8.7-7.2-8.9s10.3-6 14.6-8.8c25.1-15.9 32.2-30 21.2-45.7-10.7-15.3-21.9-14-53 5.7-6.2 4-13.7 7.1-13.7 7.1l-6.8-9.2s17.6-9 23.5-12.9c13.8-8.8 25-12.9 33.8-12.9zm114.2-4 .1 10.1c.4.5-20.8 9.8-33.2 15.4-4 2.2-2.4 6.5-2.2 10.9l-6 4s-8.2-6-9.3-9.8c-3-12.2 35.8-26.8 50.6-30.5zm-221.2 11a13.4 13.4 0 1 1 0 26.8 13.4 13.4 0 0 1 0-26.8zm-415 3.7a13.4 13.4 0 1 1 0 26.8 13.4 13.4 0 0 1 0-26.8zm521.5 10.7c5-.2 8.9 3.2 11 8.2 5.3 13-2 22.5-28.2 37.2l-6.8 3.8-19.3-26.7s6.8-4.6 13.2-8.5c14.3-9.3 23.5-13.7 30-14zm-2.6 6.4c-1.2 0-2.7.5-4.3 1.5-6.7 3.8-18 8-23.3 15-3 4.4-1.6 8.6 4.2 14.1 5 3.3 30.7-15.6 31.3-21-2.1-6-4.2-9.7-7.9-9.6zm-765 1.4 4.2 3-4.3 3.3zm769 4.7c2 2.3.8 6.2-3.2 7-2 .3-5 .8-6 3.8-.8 2-3.6 3.7-6.3 3.6-3.1-.7-4.8 1.2-5 2.6-1.5 2.7-5.4 3-7.7.6-1.8-2 1.4-7.5 3.6-7.5.4.2 2.7.8 5.6-3 .6-2.9 3.8-4.6 6.2-4.5 2.4.9 3.8-1.8 4.7-3.3 2.2-1.1 6.7-1.1 8.2.7zm-758.9 2 6.2 4.2-16.4 11.6V803zm12 7.8 8.3 5.6-30.5 21.9V820zm15.6 10 8.8 5.9-46.6 31.4v-12.1zm16.8 8.5V833l-54.6 38.1v-10.3zm6.1 7.3 11.8 8 3 343.1-73.6 50.5.1-15 61.7-44.6zm886.3 9.3c-16.5 18.8-38.6 20-57.8 19.5-52 .8-84.2 3.5-90.9 65.5 21.2-15.9 43.6-17.9 69.6-17.2 32.9 0 47.7-2.2 61-8.8 21.5-10.7 35.1-30 32.5-43.4-2.5-3-9.2-15-14.4-15.6zm-892.4 3v11.8l-54.6 36.6v-12zm622.6 1a13.4 13.4 0 1 1 0 26.9 13.4 13.4 0 0 1 0-26.8zm-356 1.4c96.4 3 301 1.9 301 1.9l11 15.7-321.8-3.4zm625.3 10.4c-11.5 11.3-23.5 16.8-61.4 16.1-40-.7-55.6 5.6-66 23.4-3 5.2-3 7.2 1.4 3.3 3.7-4.3 12-12.7 15.4-4.8 6.8-4.4 12.7-11.2 16.3-2.6 2-.5 13.5-12 16.2-1.8 5.5-6.1 10.2-8 12.8.7 7.9-3.7 12-10.8 16.5-1 6.3-4.6 11-10.2 14.8-1.6 5.4-1.6 10.8-11.5 14-3.6.5.2 20-11.5 25.5-23.1 4.5-10.2 8.7-3.4 3.5 7-13.2 25.5-35.7 34.9-87.5 35-31.5 0-44.5 3-54.3 8.8-15.9 9.3-7.4-14 3.8-28.1 14-17.8 30-23 73.7-21.5 23.9.1 39.2-3.2 45.6-8.4 5.5-4.4 9.5-7.4 12.4-7.6 3-.2 3.4 3.8-2.7 9.8zm-708-4.4a13.4 13.4 0 0 1 0 26.8 13.4 13.4 0 1 1 0-26.8zm-184 10v12l-54.5 37.2v-12.3zm263.7 5.7h42.3v44.7H1441zm94.8 0h45.6v44.7h-45.6zm101.4 1.5h44v43.2h-44zm95.2.8 29.2 1s16.3 20.7 23.1 30.2l-21.6 11.1h-30.7zm-271 3a14.9 14.9 0 1 0 0 29.8 14.9 14.9 0 0 0 0-29.7zm97.3 1.5a14.9 14.9 0 1 0 0 29.8 14.9 14.9 0 0 0 0-29.8zm99.5.4a14.9 14.9 0 1 0 0 29.8 14.9 14.9 0 0 0 0-29.8zm-237.5 3a11.6 11.6 0 0 1-12.8 19.2zm40.7.2a9.9 9.9 0 1 1 0 19.7 9.9 9.9 0 0 1 0-19.7zm295.8.4a14.9 14.9 0 1 0 0 29.8 14.9 14.9 0 0 0 0-29.8zm-247.5.5a12 12 0 1 1 0 23.9 12 12 0 0 1 0-24zm197.1-.5a12 12 0 1 1 0 24 12 12 0 0 1 0-24zm-529.4 1.3v12l-54.6 38v-11.8zm381.3-.2a9.9 9.9 0 1 1 0 19.7 9.9 9.9 0 0 1 0-19.7zm99.5.4a9.9 9.9 0 1 1 0 19.7 9.9 9.9 0 0 1 0-19.7zm-50 1.2a12 12 0 1 1 0 24 12 12 0 0 1 0-24zm149 2.3a9.9 9.9 0 1 1 0 19.8 9.9 9.9 0 0 1 0-19.8zm-424.1 10.4a86 86 0 0 1 68.4 34c23.4 31.3 39.1 71.3 46.2 123.8 3.5 26 15.7 104 22.5 122.5l-9.4-1.8c-1.3.6-13.5-49-21.1-114.7-2.8-24.3-8-55.7-22.1-84.4-16.2-32.7-43.5-67.3-80-70.1-21.3-1.6-41.3 11.7-43.5 30.5a29.8 29.8 0 0 0 17 33.3c11.3 4.6 24.7 1.2 26.2-14 .3-2.6 0-5.1-1-7.5a10 10 0 0 1 11.3 6c1.1 0 0 22-17.3 26.4-20.9 6.9-45-13.8-46.9-35a48.7 48.7 0 0 1 29.2-45.6 64.6 64.6 0 0 1 20.5-3.4zm-155.7 6.8v12.3l-54.6 37.6v-12.3zm156.9 7.8c30.5-.9 60.2 33.1 72.8 55.5 13 23.4 23.5 60.5 27 95.5 6.1 59.4 17.5 108 20 110.2l-8.4-1.8c-1.7 1.2-13.2-52.5-20.2-112.2a250 250 0 0 0-31-92.3c-13.7-23.6-32.1-41.2-54-43.8-13.6-1.4-27.6 2.6-30.3 17-1.5 8.4 3 16.7 13 17.4l5 .4c5.3 1-3 9.6-8.5 8.8-19.6-2.7-28.6-28.9-13.2-42.8 9-8 18.4-11.6 27.8-11.9zm65.3 8.7 342.5 3.5s.3 6.1-21 5.1c-18.1-.8-29.8 1.7-41.8 5.6l-269.2-.6zm-222.2 4v11.4l-54.6 38.1V957zm159.2 4.8c6.5 0 13.3 1.6 18.3 4.5 42.4 24.6 58.6 85.6 64.2 124 7.6 56.9 16.4 109.7 18.9 111l-9.3-2c-1.2 0-11.3-49.3-17.6-104.6-5.1-44.6-20.4-89.5-50.7-108.4-19.4-13.2-23.2-14.5-32.2-6.8-7.8 6.7-15.7-3.4-9.2-11.5a26 26 0 0 1 17.6-6.2zm-159.2 15.4v9.4l-54.6 38v-11.1zm249.3.3c.7-.7 29.5 48.2 38.5 125.2 4.8 40.5 18.5 109.6 20.7 110.2l-10-1c-10.1-40.9-15.8-79.4-21.2-114.2-6.2-39.4-11.1-74.3-35.6-120l7.6-.2zm6.5.4 9 .1c15.2 29 31.4 74 37 119.2 4.8 39 9.7 78.7 23.6 120l-9.5-2.6c-12-33.5-16.3-74-22.7-116-7.1-46.5-18.3-87-37.4-120.7zm55 0c15.6 40.4 25.7 59.6 32.8 109.3a722.2 722.2 0 0 0 31.1 137.9l-9-.4a544.2 544.2 0 0 1-27.8-127.9 388.9 388.9 0 0 0-34.2-118.7zm-15.4.2c.9-1.3 29.8 56.5 36.5 120a580 580 0 0 0 27.9 124.4l-9.3-.2c-10.6-12.3-18.6-70.7-27.4-125.1-9-55.6-21.6-89.8-35.6-119h8v-.1zm-23.2 0h8.2c21.4 46.9 30.3 74.7 36.9 120 8.3 57.2 16.3 108.9 25.2 122.3l-10-.6c-13.8-41.3-20-82.5-25-123.8-5.2-44.6-18-83-35.3-117.8zm45.2.4 9.7.2A361 361 0 0 1 1540 1064c2.7 25.6 7.4 64.9 26.6 125.5l-7.8-.5c-15.7-40.7-25.2-88.5-30.8-130.2a424.2 424.2 0 0 0-33.3-117.4zm59.8.3c9.2 23.5 16.8 47 21.7 71l-5.5 10.7c-8.6-31.8-18.3-56.5-28-81.5zm-44.3 0 11.8.3a552.6 552.6 0 0 1 36.7 133.6c-.7 41.3 6.4 70.7 21.8 115l-7-.4a559.7 559.7 0 0 1-27.2-123.2c-3.8-44-18.1-89.3-36.1-125.3zm27.3.4a916.8 916.8 0 0 1 29.8 88.7c-.4 6.6-1 13.9-5.3 19.2-10-35.7-18.3-72.8-33.5-107.8zm22.4.3 9.4.1 18.7 53.6-7.3 8c-5.5-17.7-11.2-37.2-20.8-61.7zm54.7.3 6.9 16.1-7.4 6.3s-7.5-15-9.5-22.2zm14 0 3.4 9.3-6.2 4.7-4.8-13.8zm-53.8.2h9.7c3.9 11.3 14.3 38.9 14.3 38.9l-7 7.3s-13-34.9-17-46.2zm15 0 8.6.1c2.5 7.3 10.6 27.6 10.6 27.6l-6 5.6zm44.8.4 8.5.4-1 2.1-5.3 2.6zm-277.8 12c35.5 18.6 45.3 74.6 49.1 105.4 6.7 53.7 14.3 97.5 15.9 98.6l-7.9-1.2s-5.8-27.6-9.8-53.9c-3.4-21.8-6-40.1-6.9-48.5a168.8 168.8 0 0 0-14.9-54.1A89.4 89.4 0 0 0 1364 974c-3.9-4.5-7.7-7.7-9-10.5-2-4 2-8.3 2-8.3zm-179.5 2.8v10.5l-54.6 38.5v-12zm0 18.5V989l-54.6 36v-11zm0 20.7v11.3l-54.6 38v-11.6zm91 11.4h4.8l.4 8-7.4-.5zm-91 9.8v12l-54.6 36v-11.2zm85.4 4.6 11.5.1v8.3l-14.9-.5zm-6.7 13.3 19 .3v7.9l-23.5-.4zm-78.7 1.7v12.6l-54.6 36.3v-12.7zm69 13.1 27.8.4-.2 6.6-33-.3zm-69 7.4v12.4l-54.6 34.9v-11.2zm57.5 5.9 38 .5-.9 6.4-43.4-.2zm-57.5 13.4v12l-54.6 35.4V1114Zm43.2 0 50.1 1.2 10.6 9.6-78 .4zm-15.1 17.6 86 1 6 5.6-92.3.4zm-28.1 2.7v12.6l-54.6 35.8V1135zm28.2 11.1 95.4.4-7 7.7-88.6.2zm-28.2 9.6v11.5l-54.6 37v-13.3zm25.8 6 82.5.3-9.7 7.6-57 1.3zm-25.8 14.3v11l-54.6 39V1177zm50 1.4 48.3.2 1 6.5H1235zm13.3 13.4 37.2.4 1.8 8.4-33.1-.5zm-63.3 5.9v10.2l-54.6 38V1197zm103 8.4.5 8-22.2.8-6.2-8.4zm-.1 14.2-.2 8.4-15.5.2-3.4-8zm-13.8 15h12.2l-1 6.5-9.5.1zm3.7 15.5h6l-1 5h-3.1zm120.6 85.5-2.8 3.7h85.2l1-3.7zm110 0-1.6 5h38.5l1-5zm62.8 1-1.2 4.6h98.3l-1.6-4.6zm117.6 0 2 5.6h33.1l-2.2-5.6zm114.2 0h-58l2 6.3h60z" style="fill:#000;stroke-width:3.18132639" transform="matrix(.16341 -.0003 -.00014 .1508 -150.5 816.6)"/></g></g><path d="M58.6 804.6a46.1 46.1 0 0 0-12.4-16.3c-1.5-1.4-3-2.8-4.3-4.5-.8-1.2-1.5-2.4-1.9-3.8-.6-2.5 0-5.2 1.3-7.5a16 16 0 0 1 2.8-3.5c1.7-1.5 4-2.3 6.2-2.1a9 9 0 0 1 5.4 2.6c1.3 1.3 2.3 2.8 3 4.5a12 12 0 0 1 2.9-4.5 9 9 0 0 1 5.4-2.6c2.2-.2 4.4.6 6.1 2a12 12 0 0 1 2.8 3.6c1.3 2.3 2 5 1.3 7.5a11 11 0 0 1-1.8 3.8 31.2 31.2 0 0 1-4.4 4.5 46.1 46.1 0 0 0-12.4 16.3M175.3 967a46.1 46.1 0 0 1-12.3 16.4 37.3 37.3 0 0 0-4.4 4.5c-.8 1.2-1.5 2.5-1.8 3.9-.6 2.5 0 5.2 1.3 7.4a9.7 9.7 0 0 0 2.8 3.5 8.7 8.7 0 0 0 6.1 2.2 9 9 0 0 0 5.4-2.7c1.3-1.2 2.3-2.8 3-4.5.6 1.7 1.6 3.3 3 4.5a9 9 0 0 0 5.3 2.7 9 9 0 0 0 6.2-2.2c1.1-1 2-2.1 2.8-3.5 1.2-2.2 1.9-5 1.3-7.4-.4-1.4-1-2.7-2-3.9-1.2-1.6-2.7-3-4.2-4.5a46.1 46.1 0 0 1-12.4-16.3m41.4 23.9a23 23 0 0 1-6.2 8.2l-2.2 2.2-1 2a6.2 6.2 0 0 0 2 5.5c1 .7 2.1 1 3.2 1 1 0 2-.6 2.7-1.3.7-.6 1.2-1.4 1.5-2.3.3.9.8 1.7 1.5 2.3.7.7 1.7 1.2 2.7 1.3 1 0 2.2-.3 3-1 .6-.5 1-1.1 1.4-1.8a5 5 0 0 0 .7-3.7c-.2-.7-.5-1.4-1-2-.6-.8-1.3-1.5-2.1-2.2-1-1-2-1.9-2.8-3a23 23 0 0 1-3.4-5.2M17.2 780.7a23 23 0 0 0-6.2-8.1l-2.2-2.3a5 5 0 0 1-.2-5.7c.3-.6.8-1.2 1.4-1.7.8-.7 2-1.2 3-1 1 0 2 .5 2.7 1.2.7.7 1.2 1.4 1.5 2.3.3-.9.8-1.6 1.5-2.3.7-.7 1.7-1.2 2.7-1.3 1 0 2.2.4 3 1l1.5 1.8c.6 1.2 1 2.5.6 3.8a5 5 0 0 1-1 1.9l-2 2.3-2.9 2.8a23 23 0 0 0-3.4 5.3" style="fill:red;fill-opacity:1;stroke:none;stroke-width:1"/></g></svg>