<svg xmlns="http://www.w3.org/2000/svg" width="234" height="333"><g transform="translate(0 -719.4)"><rect width="233.2" height="332.2" x=".4" y="719.7" rx="8.9" ry="8.9" style="fill:#fff;fill-opacity:1;stroke:gray;stroke-width:.75590551;stroke-linecap:butt;stroke-linejoin:miter;stroke-miterlimit:4;stroke-dasharray:none;stroke-opacity:1"/><path d="M17.2 780.7a23 23 0 0 0-6.2-8.1l-2.2-2.3a5 5 0 0 1-.2-5.7c.3-.6.8-1.2 1.4-1.7.8-.7 2-1.2 3-1 1 0 2 .5 2.7 1.2.7.7 1.2 1.4 1.5 2.3.3-.9.8-1.6 1.5-2.3.7-.7 1.7-1.2 2.7-1.3 1 0 2.2.4 3 1l1.5 1.8c.6 1.2 1 2.5.6 3.8a5 5 0 0 1-1 1.9l-2 2.3-2.9 2.8a23 23 0 0 0-3.4 5.3M216.8 991a23 23 0 0 1-6.2 8.2l-2.2 2.2-1 2a6.2 6.2 0 0 0 2 5.5c1 .7 2.1 1 3.2 1 1 0 2-.6 2.7-1.3.7-.6 1.2-1.4 1.5-2.3.3.9.8 1.7 1.5 2.3.7.7 1.7 1.2 2.7 1.3 1 0 2.2-.3 3-1 .6-.5 1-1.1 1.4-1.8a5 5 0 0 0 .7-3.7c-.2-.7-.5-1.4-1-2-.6-.8-1.3-1.5-2.1-2.2-1-1-2-1.9-2.8-3a23 23 0 0 1-3.4-5.2M58.6 814c-2.7-5.6-6-11-10.2-15.7-2.6-3-5.5-5.9-8.4-8.6-2.3-2.2-4.6-4.4-6.5-7a16.2 16.2 0 0 1-2.8-5.6 16 16 0 0 1 2-11.2c1-2 2.5-3.8 4.2-5.3a13 13 0 0 1 9.2-3.2 13 13 0 0 1 8 4c2 1.9 3.6 4.2 4.5 6.8 1-2.6 2.5-5 4.5-6.8 2.2-2.2 5-3.7 8-4 3.4-.2 6.7 1 9.3 3.2 1.7 1.5 3 3.3 4.2 5.3a16 16 0 0 1 2 11.2c-.6 2-1.6 4-2.9 5.7-1.9 2.5-4.2 4.7-6.5 6.9a68.5 68.5 0 0 0-18.5 24.4m116.6-.1c-2.6-5.6-6-11-10.1-15.7-2.6-3-5.5-5.9-8.4-8.6-2.3-2.2-4.6-4.4-6.5-7a16.2 16.2 0 0 1-2.8-5.6 16 16 0 0 1 2-11.2c1-2 2.4-3.8 4.1-5.3 2.6-2.2 6-3.4 9.2-3.2 3 .3 5.9 1.8 8.1 4 2 1.9 3.5 4.2 4.5 6.8 1-2.6 2.5-5 4.4-6.8 2.2-2.2 5-3.7 8.1-4a13 13 0 0 1 9.2 3.2c1.7 1.5 3.1 3.3 4.2 5.3a16 16 0 0 1 2 11.2c-.5 2-1.6 4-2.8 5.7-2 2.5-4.2 4.7-6.5 6.9-3 2.7-5.8 5.5-8.4 8.6a69 69 0 0 0-10.2 15.8M58.6 957.6c-2.7 5.7-6 11-10.2 15.8-2.6 3-5.5 5.9-8.4 8.7a52.3 52.3 0 0 0-6.5 6.8 16.2 16.2 0 0 0-2.8 5.7 16 16 0 0 0 2 11.3c1 2 2.5 3.8 4.2 5.2 2.5 2.2 5.9 3.5 9.2 3.2a13 13 0 0 0 8-4c2-1.8 3.6-4.2 4.5-6.8 1 2.6 2.5 5 4.5 6.8 2.2 2.2 5 3.7 8 4 3.4.3 6.7-1 9.3-3.2 1.7-1.4 3-3.3 4.2-5.2a16 16 0 0 0 2-11.3c-.6-2-1.6-4-2.9-5.7a52.3 52.3 0 0 0-6.5-6.8c-2.9-2.8-5.8-5.6-8.4-8.7-4-4.7-7.5-10-10.1-15.8m116.6 0c-2.6 5.7-6 11-10.1 15.8-2.6 3-5.5 5.9-8.4 8.7a52.3 52.3 0 0 0-6.5 6.8 16.2 16.2 0 0 0-2.8 5.7 16 16 0 0 0 2 11.3c1 2 2.4 3.8 4.1 5.2 2.6 2.2 6 3.5 9.2 3.2 3-.3 5.9-1.8 8.1-4 2-1.8 3.5-4.2 4.5-6.8 1 2.6 2.5 5 4.4 6.8 2.2 2.2 5 3.7 8.1 4 3.3.3 6.7-1 9.2-3.2 1.7-1.4 3.1-3.3 4.2-5.2a16 16 0 0 0 2-11.3c-.5-2-1.6-4-2.8-5.7-2-2.5-4.2-4.7-6.5-6.8-3-2.8-5.8-5.6-8.4-8.7-4.1-4.7-7.5-10-10.2-15.8" style="fill:red;fill-opacity:1;stroke:none;stroke-width:1"/><g style="font-style:normal;font-variant:normal;font-weight:700;font-stretch:normal;font-size:3.77201176px;line-height:0%;font-family:'Levenim MT';-inkscape-font-specification:'Sans Bold';letter-spacing:0;word-spacing:0;fill:red;fill-opacity:1;stroke:none;stroke-width:1"><path d="m28.4 706.8-.1.7-.7.2H15.8q-1.4 0-1.4-1.4v-1.6q0-.6.3-.8l1-.1h4.5v-2.9H10q-1.6 0-1.6-1.5v-1l.1-1q0-.6.7-1.6l10.7-14q.5-.6 1.2-.6h2.5q.8 0 .8 1v15h1.5l1.1-.1q1 0 1.3.5.2.4.2 2.4v.5q-.1.4-.9.4h-3.2v2.9H26l1-.1q1.1 0 1.3.5.2.5.2 2.6zm-8-19.7q-1 1.5-7.6 10h7.4v-6.7l.1-3.3z" aria-label="4" style="font-size:37.69855499px;line-height:1.25;stroke-width:1" transform="scale(.93673 1.06755)"/></g><g style="font-style:normal;font-variant:normal;font-weight:700;font-stretch:normal;font-size:3.77201176px;line-height:0%;font-family:'Levenim MT';-inkscape-font-specification:'Sans Bold';letter-spacing:0;word-spacing:0;fill:red;fill-opacity:1;stroke:none;stroke-width:1"><path d="m-221.4-952.9-.1.8-.7.2h-11.9q-1.3 0-1.3-1.4v-1.6q0-.7.3-.8.2-.2 1-.2h4.5v-2.8h-10.3q-1.6 0-1.6-1.5v-1l.1-1q0-.7.7-1.6l10.7-14q.5-.7 1.2-.7h2.5q.8 0 .8 1v15h2.6q1 0 1.3.4.2.5.2 2.4v.6q-.2.4-.9.4h-3.2v2.8h2.6q1.1 0 1.3.5.2.4.2 2.5zm-8-19.6-7.6 10h7.4v-6.7l.1-3.3z" aria-label="4" style="font-size:37.69855499px;line-height:1.25;stroke-width:1" transform="scale(-.93673 -1.06755)"/></g></g></svg>