<svg xmlns="http://www.w3.org/2000/svg" width="234" height="333"><g transform="translate(0 -719.4)"><rect width="233.2" height="332.2" x=".4" y="719.7" rx="8.9" ry="8.9" style="fill:#fff;fill-opacity:1;stroke:gray;stroke-width:.75590551;stroke-linecap:butt;stroke-linejoin:miter;stroke-miterlimit:4;stroke-dasharray:none;stroke-opacity:1"/><g style="font-style:normal;font-variant:normal;font-weight:700;font-stretch:normal;font-size:3.77201176px;line-height:0%;font-family:'Levenim MT';-inkscape-font-specification:'Sans Bold';letter-spacing:0;word-spacing:0;fill:red;fill-opacity:1;stroke:none;stroke-width:1"><path d="M32.3 622.4h-4.8l-1.8-2.4q-2.3 1.3-5.2 1.3-4.7 0-7.9-3.2-3.1-3.2-3.1-8 0-3 1.4-5.5 1.5-2.5 4-4 2.6-1.5 5.6-1.5 4.6 0 7.7 3.2 3.2 3.3 3.2 8 0 4.2-2.8 7.4zm-4.9-12.2q0-3-2-5-2-2.2-5-2.2t-5 2q-1.9 2.2-1.9 5.2 0 3.5 2.5 5.6 2 1.6 4.5 1.6 1.4 0 2.7-.6l-3.8-4.9h4.8l2 2.5q1.2-1.9 1.2-4.2z" aria-label="Q" style="font-size:29.43927002px;line-height:1.25;stroke-width:1" transform="scale(.82383 1.21385)"/></g><g style="font-style:normal;font-variant:normal;font-weight:700;font-stretch:normal;font-size:3.77201176px;line-height:0%;font-family:'Levenim MT';-inkscape-font-specification:'Sans Bold';letter-spacing:0;word-spacing:0;fill:red;fill-opacity:1;stroke:none;stroke-width:1"><path d="M-251.7-837.2h-4.8l-1.9-2.4q-2.3 1.3-5.1 1.3-4.7 0-8-3.2-3-3.2-3-8 0-3 1.4-5.5t4-4q2.6-1.5 5.5-1.5 4.6 0 7.8 3.3 3.2 3.2 3.2 7.8 0 4.3-2.8 7.5zm-5-12.2q0-3-2-5-2-2.2-4.9-2.2-3 0-5 2.1-2 2-2 5.1 0 3.6 2.6 5.6 2 1.6 4.5 1.6 1.4 0 2.7-.6l-3.8-4.8h4.8l1.9 2.4q1.3-1.9 1.3-4.2z" aria-label="Q" style="font-size:29.43927002px;line-height:1.25;stroke-width:1" transform="scale(-.82383 -1.21385)"/></g><path d="M58.6 804.6a46.1 46.1 0 0 0-12.4-16.3c-1.5-1.4-3-2.8-4.3-4.5-.8-1.2-1.5-2.4-1.9-3.8-.6-2.5 0-5.2 1.3-7.5a16 16 0 0 1 2.8-3.5c1.7-1.5 4-2.3 6.2-2.1a9 9 0 0 1 5.4 2.6c1.3 1.3 2.3 2.8 3 4.5a12 12 0 0 1 2.9-4.5 9 9 0 0 1 5.4-2.6c2.2-.2 4.4.6 6.1 2a12 12 0 0 1 2.8 3.6c1.3 2.3 2 5 1.3 7.5a11 11 0 0 1-1.8 3.8 31.2 31.2 0 0 1-4.4 4.5 46.1 46.1 0 0 0-12.4 16.3M175.3 967a46.1 46.1 0 0 1-12.3 16.4 37.3 37.3 0 0 0-4.4 4.5c-.8 1.2-1.5 2.5-1.8 3.9-.6 2.5 0 5.2 1.3 7.4a9.7 9.7 0 0 0 2.8 3.5 8.7 8.7 0 0 0 6.1 2.2 9 9 0 0 0 5.4-2.7c1.3-1.2 2.3-2.8 3-4.5.6 1.7 1.6 3.3 3 4.5a9 9 0 0 0 5.3 2.7 9 9 0 0 0 6.2-2.2c1.1-1 2-2.1 2.8-3.5 1.2-2.2 1.9-5 1.3-7.4-.4-1.4-1-2.7-2-3.9-1.2-1.6-2.7-3-4.2-4.5a46.1 46.1 0 0 1-12.4-16.3m41.4 23.9a23 23 0 0 1-6.2 8.2l-2.2 2.2-1 2a6.2 6.2 0 0 0 2 5.5c1 .7 2.1 1 3.2 1 1 0 2-.6 2.7-1.3.7-.6 1.2-1.4 1.5-2.3.3.9.8 1.7 1.5 2.3.7.7 1.7 1.2 2.7 1.3 1 0 2.2-.3 3-1 .6-.5 1-1.1 1.4-1.8a5 5 0 0 0 .7-3.7c-.2-.7-.5-1.4-1-2-.6-.8-1.3-1.5-2.1-2.2-1-1-2-1.9-2.8-3a23 23 0 0 1-3.4-5.2M17.2 780.7a23 23 0 0 0-6.2-8.1l-2.2-2.3a5 5 0 0 1-.2-5.7c.3-.6.8-1.2 1.4-1.7.8-.7 2-1.2 3-1 1 0 2 .5 2.7 1.2.7.7 1.2 1.4 1.5 2.3.3-.9.8-1.6 1.5-2.3.7-.7 1.7-1.2 2.7-1.3 1 0 2.2.4 3 1l1.5 1.8c.6 1.2 1 2.5.6 3.8a5 5 0 0 1-1 1.9l-2 2.3-2.9 2.8a23 23 0 0 0-3.4 5.3" style="fill:red;fill-opacity:1;stroke:none;stroke-width:1"/><g style="stroke-width:3.18132639"><g style="display:inline;stroke-width:3.18132639"><g style="stroke-width:3.18132639"><path d="m2706.5-520.6-1059 .9 7 1700.3 1062.9-2.7c-8.5-566.9-9.5-1132.7-10.9-1698.5zm-124.9 14.3 111.7.5.2 654.3s-7-.2-6.3-4.8c.9-6.1 0-17.6-4.3-22.4-1.9-2-4.8-5.3-6-7.6-3-5.8-7.8-11.9-11.6-13.5-2-.8-4.2-1.3-4.5-2.6l-1.7-9c-2-9.5-3.9-9.2 2.1-18.5 20.7-32.4 28.7-62.2 26-91.7-.8-9.2-3.1-21.2-4.2-22.8-20 20-34.5 44.8-48 63.1-3.1-26.1-2.7-45.8-3.2-66.8 10.7-3 17.2-8.8 21.8-23.3 0 0 11.4 9 18.5 7.7l-4.7-17c30.7-9.3 34.8-49.3-1.3-57.7l3.2-21.1s-11 3.7-15.7 6c-2.4 1-3 .2-4.7-3.2-16.9-26.3-43-20.7-54.6 5.2l-14.1-6c1.5 7.2 3.3 14.4 2 21.6-29.6 13.2-22.3 49.3 1.4 54l-2 17 17.8-5.8c2.6 7.9 1.2 12.5 15.5 21.4-.4 35.4-1 57.5.2 89a146.8 146.8 0 0 0-67.9-42s-.2 7.7 1.6 19.3c.6 3.8.5 3.2-1.3 3.2-4.1 0-22.5-29.6-22.5-29.6s-2.1 0-4 1.8c-2.2 2.2 2.8 6.2 9.8 16.7 8.3 12.2 7.5 11.7 1 17.1-36.7 31.2-89.8 150-80.8 161.5-23.3 1.4-113.8 45.8-130.2 137.3a106 106 0 0 1-2.9 9.5l-26.2-6.5c15.8-75 51.4-227.4 51.4-227.4s25-7.1 39.7-8.7l-.2-6-34.5 8.1 1.7-13 32.5-6.5v-3l-34.5 4.6 5.6-21.8S2276 65.7 2248.3 65c1.8 84.6-4.9 154.9-1.2 246l-37.9-23c-3.4-63.4-4.4-223.7-4.4-223.7L2100.3 48l3.5 25.2c-86.6-34.3-173.5-65.9-237.5-133 39.4-30.2 105-60.2 105-60.2l-2-4.8c-161.6 83.4-221.6 141.3-302.8 213.1l-2.4-593.6 441-.4-1.4 108.3s-.6 2.8-1.4 3.8c-5.4 26.2 10 72.8 7 95.4 1.4 7 1 20 1 20-26.4 36-40.3 70.3-52 112.3-4.6 1.8-11.2 5.5-16 6.7l-1.3 5.8c10.3-5.7 39.6-15 39.6-15 130.5 63.6 226.4 48 329 .7-16.3 57.4 19.3 130.4 77.9 145.8a59.7 59.7 0 0 0 24.7 1.5c6.5-1.9-14.8-50.6-24.2-52.5-28.3-12.2-40-41-37-74l-4.7-7.9c-9.6 40.1 13.6 80.8 45.5 90.8l8.5 18.7c-57.7-17.3-82.3-71.4-63-124.8.2-33.4-21.4-48.1-31.3-62.5-50.2-19.1-59.6-65.6-50.8-103.2 23.4 10-15.8-33-15.8-33-17.2 37.3-24.3 84.5 15 132.2-25.4 33.8-58.2 60.5-95 83.3-53.6 28-93.9 9.2-119.8-52.8a284.9 284.9 0 0 1-21.1-113.2c0-24.1.3-24.8 9.4-20.8a52.4 52.4 0 0 0 37.8-1.3c15-7.7 14.2-3-2 13.8-4.5 4.5-9.2 8.6-9.2 9.5 0 5 7 .8 16.9-9 3.6-3.7 6.3-7.1 7.4-7 1.3 0 1.2 4.6-.3 9.6-.6 2-2.4 10-4 18-1.7 8-4 17.3-5.1 20.8-4.4 13.8-3.2 20.3 10 26.6 7 3.4 19 14.9 18.9 14.9 0 0-2.9-12.6-1.8-16.7 1.2-4.8 7-1.4 12.9 1.4 13 6.2 20.6 6.4 27.6.6 9.6-8 6.8-26.1-5-30.8-8.8-3.5-10.4-.3-1.6 5.8 13 9.1-1.7 23.2-12.8 14.5-8.7-6.9-23.8-7.6-25.5-2-1.6 5.5-3.2 4.5-9.2 1-9.4-5.5-9.4-6.4-1.6-36.6 14.8-57 13.3-78-6.3-95.4a53.5 53.5 0 0 0-63.6-4.5v-19.4c36.6-14.7 63.2-38.9 84.7-79.4h4.2c21.4 46.3 56 79.5 121 103.9 25.4 25-32.2-72-13.8-32.3a157.9 157.9 0 0 1-82.2-71.6h9.4a176 176 0 0 0 65.7 58.5c3.3 2.7 6.4-.1 6.4-.1s-30-47-35-58.2l299.8-2.2c-9.5 73-22.8 152.3 30 294.4-24.8-13-124 14.8-106.5 20.2 8.8-10 72-25 118.7-14-3.9-3.4-71.4-159.7-32.2-299zm32.2 299 .2.1h-.2zM2382.3 74.6l.3 11.5 2.4-.6-1.4-11.1zm-270.8-580.3h13.2c-3 6-7.1 10.4-13.6 14.1zm22.6 0h14.2a103.7 103.7 0 0 1-36.9 36.5l.2-13.7c8.2-7.2 16-14.6 22.5-22.8zm23.4 0h13.1c-17.7 27.3-35.9 45.6-59.2 57.1v-11c14.4-11.3 34.8-27.7 46.1-46zm20 0h10.5c-18.1 34.6-43.4 58.5-76.6 71.8v-8.3c36.3-19.4 52.2-41 66-63.5zm28.9 0h12.6a176.7 176.7 0 0 0 93.4 81.6l6 14c-52.3-18.7-87-46.1-112-95.6zm36.7 0h9c9.6 13.3 21.1 24 34.6 33l8.2 16c-18.2-12.3-38.5-27.2-51.8-49zm16.5 0 10.1.5 13.4 22.4c-8.9-5-15.7-15.3-23.5-23zM2248-416a55.7 55.7 0 0 0-35.6 11.2c-9.7 8-2.6 16.5 11.3 10 23.7-11 50.9-6 80.2 10 24.8 13.6 16-.5-7-15.6A90.7 90.7 0 0 0 2248-416zm-111.6 17.8c20 .1 42.7 9 43.3 20.6-13.2-11-39.8-16.4-65.2-5-2-.4-2.3-7.4-1.1-9.9 5.5-4 14-5.8 23-5.7zm120.6 7.5c-12.6 0-24.1 3.3-29.4 10.3-2.8 3.4-3.5 3.8-6.5 3.3-5.8-1-5.5 2.4 1.2 11.6 3.2 4.5 2.7 9.7-1.6 15.8-5 7-4 7.2 10.8 14.3 11.3 5.5 20.4 13.4 30.7 19.8 7.4 4.2 8.8.5 2-5a251 251 0 0 0-15.4-10.8c-10.5-6.8-18.2-13.8-9.9-10.7 3.9 1.2 4.8 1.7 9 2.5a77.8 77.8 0 0 0 30.7 1.8c6.5-1.4 15-5.7 22-11.7 1.8-.8 3.5 0 7.8.2 16.6.6 13-4.2-10.8-17.2-23.6-12.8-42-15.1-57-8-6.4 2.9-10 3.6-9.2 1.8 1-2 2.8-4.3 5.6-6 24.3-14.5 43.9-2.5 65.3 8.5 9.3 5.4 11.7 6.9 12.8 5.1 1.4-2.2-10.2-10.5-25.9-18.3a72.8 72.8 0 0 0-32.2-7.3zm-77.8 16.8c4.2 1.6 2.3 6.4-1.4 4.9-22.5-10.1-27-15-53.8-5.7-8.8 3.1-12.3.4-1.5-4.3 23.7-9.9 40.8-3.2 56.7 5.1zm-15.3 12c-6.1 30.8-36.9 21.3-33.4 0l5.6.1c.5 18.7 19.2 18.5 22.4.2zm178.9-.1 8.2 17.7c-18 44.6 6.6 104.7 60 119 0 0 8.7 13.3 7 15-100.4-22.2-92.7-117.9-75.2-151.7zm-95.2 1.2 2.8.1c8.7 21.6 21.3 9.2 23.8.1l6.4.2c-2 22.3-35.8 26-33-.4zm-77.4.6c4-.4 5.5 5.7 4.3 6.8-.3.3-7.7 7.5-8.6 3.3-1.3-6.2 2.6-9.7 4.3-10zm-46.8.7h1c2.6 2 3.5 7.7 2.2 10.7-1.5 1.5-7.5-.6-8.7-2.9-1.8-3.4.3-7.8 5.5-7.8zm162.9 2c2 0 7.4 2.4 6.9 5-.2.7-7.8 6.3-9.5 5.4-3.3-1.8 1.3-9.8 2-10.3l.6-.1zm-44.4 1h.1c.6.4 5.4 3.4 1.3 9-.3.4-5.8-1.6-5.9-2.2-.4-3.3 3.7-6.6 4.5-6.8zm121.7 39c-1.2 25.7 5.5 50.6 33.5 66.6l-6-11c-7.2-5.7-22.3-22-20.4-41.5zm-251.5 46 3.2 16.9a384 384 0 0 0-36.8 80.2l-14.6 5.3c11.6-37.1 22.3-66.5 48.2-102.4zm6.1 26.3 4.2 14.5a217 217 0 0 0-20.5 48l-16.1 6a232.2 232.2 0 0 1 32.4-68.5zm51 6h-.6c-.2 3-.2 10.8.4 23.8.1 2.5 2.6 1.5 9.4-2 6-3 5.4-3.6 11.1-1.6 16 5.4 23.3 3 29.6 1.4 9.5-2.4 13.4-1.4 19 1.9 3 1.8 7.1 3.2 8 3.5 4.4 1.6 2.7-.4-.3-12.2-3.4-13.4-2-14.8-7.3-11.3-1.2.7-4.6 2.6-6.4 2.8-4.7.6-12.4-5.1-17-3.3-11.3 4.4-11.2 3.2-21.6.7-5.2-1.3-10.2 1.9-14.8 2.8-2.5.3-5.8-6.6-9.4-6.5zm191 6.8c19 17.4 38.6 23.3 59.7 29.9-2.5 8.7-7.6 18.4-10 29.7-110 58.2-220.7 56.4-325.1 3.7l54.1-20.8c29.7 51.3 67.6 65 110.2 48.2 47.7-22.2 83-53 111.2-90.7zM2125-222.1l4.7 12.6-7 19-13.2 5.3c2.5-12.9 7.4-23.5 15.5-36.9zm99.5 14.6c-3.3.1-8.2 2.3-19.6 2.4-6.1 0-11-.5-13.3 0-5 1 .8 3.2 11.9 6.3 11 3.2 24.6-1.6 26.3-6.4.4-1.1-1.1-2.5-5.3-2.3zm-91.7 6.2 3 6.4-5 1.7zm292.7 3.5 8.3 18.7c-14.3 30.8-23.7 115.3 71.4 141.5l4.2 12.1c-64.7 1.3-129.6-81-83.9-172.3zm-217.6 6.4a42 42 0 0 0-25.3 7.2c-5.7 4.5 1.2 7.3 8.6 3.7a40.5 40.5 0 0 1 34.8 1.6c7.2 4.9 10.9 4 6.1-3.4-3.7-5.8-13.7-9-24.2-9zm415 20.9c24.9-.4 27.5 35.1 22.7 38.2 1.4-.5 5.6-1.7 11.7-1.6 18.2.5 27.7 10.6 28.7 25.2 1 14.8-10.1 23-26.5 22.2-6-.3-10.2-1-10 .1 3 11.8-.6 29.6-16.2 34-1.8.5-4.3 3-4.4 4-1.2 18.6 4.2 82.9 4.2 82.9s29.3-49.2 35.9-56.7c12.8-17.6 15.2-16 15.2 13.2-2.1 40.6-8.6 49.9-32.5 84-10.2 14.6-34.4 6.9-32.2 16.8.4 2.2 4.4 6.1 8.3 9.8 2.5 2.4 5.1 4 11 3.7 10.3-.3 14.4-2.4 8.2 6.6-4.9 7-22 8.5-24 12.2-4.5 8.6-1.4 6.7-9 14.3-6 6.4-4 3.2-1.2 8.5 4.2 6.8 2.4 20.5-1.7 29.7-3.4 7.5-3 12.8-3 12.8a49 49 0 0 0 12.4-21.8c2.3-10 5.1-15 5.1-9.5 0 7.1 1.2 16.7 7.6 20.4 5 3 5.8 5.8 5 9.4-1 3.7 3 7 7 10 .8 1 4 2.1 3.6 4-1 6.2 1.5 13.5 6 14.7 2 1 14.7-.1 16.8-7.3-.2-2.3 0-11.7-5-12.3-3.7-1.6-3.3-2.6 2.1-5.8a72 72 0 0 1 18-9.1c5.4-.7 10.6-6.6 10.6-6.6l1.2 387.2a1141 1141 0 0 1-170.6 146.7c-40.5-33.7-84.8-67.8-131.7-93.4l-16.3-9.5 5.9-7.5-28.2-37.1 31.7-25.5 8 10.1-15 14.6 22.5 24.9 50.6-49.4-33.4-31.8 17.4-32.5 11 5.4-8.3 20.6 25.3 16 31.7-63L2459 433l10.2-42.3 12.4 1.3-4.1 30.5 31.3 6.2 12.7-71.8-46-8.2 4-41 12.8.1-1.9 22.7 32.5 4.6 6.1-62.6-45-7.5 5.7-48.3 10.3 1.5-2 29.8 33.1 5.6c3.7-20.2 6.6-45.6 12-65.4l-42.6-15.9 15-40.6 9.6 3.4-8.3 22 31.5 13.3 26.5-52.3-37.1-26.2a170.8 170.8 0 0 1 28.4-38l7.3 6.3s-2.6 2.4-6.8 8c-5 7-6.5 10.5-5.8 12.2a162 162 0 0 0 25.3 18.7c2 0 9.6-6.9 13.5-11.5 4.2-5 6.4-5.5 10.7-2.4 1 .6 2.2 1.9 3 3 1 1.2 1.5 2.2 1.6 3 .1.8-.1 1.3-.3 1.6.4-.3 1.2-1 2.9-1.9 3-1.7-6-9.7-13.5-14-22.4-12.4-48.7-36-54.8-65.6-2.2-13.3 32.1 2.6 55.8 26.2l16.9 16.5c-2-34.2-4.8-69-3.3-103.5l-5.2-3.7c-7.3-5-10.1-13.4-10.8-21.8-.4-5.7 4.5-8.7-6.8-8.3-23.5.2-37.1-22-22.9-40.9 5.1-7 26.8-10.5 26.8-10.4a27.7 27.7 0 0 1 23.4-36zm-8.4 263.3c-.5.5-.3.5 0 0zm31-225.1-.6.2c.2 0 .5 0 .7-.2zM1862.2-58c65.7 55.3 107.7 92.5 241.5 134l3.3 20c-77-17.8-160.9-53.7-260.6-143Zm-19.8 12.8A680.5 680.5 0 0 0 1969.8 48l15.2 9-7.9 8 25.5 36.7-32.7 26.7-7.8-7.8 17-16.7L1955 80l-49.5 50.1 34 30-19.7 30.3-7.1-3.2L1923 166l-31.5-17.2-35.2 64.8L1901 234l-10 39.8-10.5-.6 3.5-31-33.7-6-11.4 72.7 43.4 6.8-1 41.9-11.6-.2.9-23.7-34.3-1.6-3 61 42.1 5.5-4.1 49.6-10.4-2.7 1.1-32.2-32.1-3.1-11 68.4 43.3 12.3-15.3 42.7-9.4-5.2 6.2-22-30.2-12.7-28.3 53.1 36.8 25-22.6 39.7-8.7-5.8 15.5-23.2-30.5-19.1-17.3 23.7c-7.4-6.4-20.7-15.3-25.7-21.2-5.4-5-9.5-5.7-16.5-4-5.5 1.2-10.8 2.2-9.6.3.6-1 11-8 27-18 4.4-3 8-5.4 7.9-7.9 0-1.9 2.4-4.9 5.6-6.8 3.6-2.2 2.8-4.2 2.2-6.4a71 71 0 0 1 4.8-43c4-8.5 5.3-10 2.7-10-7.8 1-17.2 29-19 37-.6-.6-1.4-8-2-10.9-1-5.1-1.7-8.3-5.8-9.3-5-1.2-3.4-3.5-4-7.3-.7-6-3.6-9.8-8.7-12-5-2-5.5-2.8-5.3-7.7 0-4-4-10.5-7-12.6l-17.3 6.1c-1.3 4.6.5 10.4 3.3 12.6 8.7 8.1-4 8.2-12.6 13.5-2.4 1.5-5.2 4.8-7 3.7-5.6-1.8-5.1 14.7-10.5 12.6L1662 102c46-47.7 180.2-147.2 180.2-147.2zm696 69.2 6.6 7.4a418.6 418.6 0 0 0-51.8 76 308.6 308.6 0 0 0-32.4 97.4c-5 23.2-5.7 46.8-8.7 70.5-3 25.6-3.7 60-8.5 86.9-9 73.9-29.8 113.2-74.9 155.2-19.8 18.4-81.5 53.3-83.2 53l-14.6-3.7C2397.4 502 2429 457.3 2442.6 304c2.6-192.4 90.1-266.9 95.8-279.9zm12.4 13 6.8 6.4-36.9 52.2 36.4 25.7-14.4 33.7-11-4.1 7.8-23-30.6-13-24.7 67.1 43.6 13.7-7.2 43.7-8.8-2.4v-29.7l-32.4-6.6-9.3 74.8 47.7 6.6-3.5 38.7-11.3-.8-.5-23-33-1.7-7.6 64.8 47 8-8.5 46-10-2.3 2.2-30.4-31.5-4.1-18.2 62.2 39.6 20-19.4 39.9-8.4-5.9 10.8-23.6-30.8-15.1-29.7 51.5 32.3 31.7-31.5 33-7-9 16.2-17.5-24.3-24-50.5 40.2 25.8 34-3 4.2-26.7-10.7-12.7-16.8-15.3 6.7-12-4.6c74.6-39.2 123-84.5 143.1-153 11-37.7 14.2-79 17.8-120.6a1086 1086 0 0 1 6.9-64.6 323 323 0 0 1 23.1-97.7c17.1-40.8 38-69.6 63.6-100.7zm-401.3 26 51.2 27-.7 17.9-47.4-23.7zm14.4.4 36.5 5 .2 14.8zm-164.5.6 21.3 9.6 18 20.8 13.6-8.9L2067 91c-46.4 23.9-87.6 52.4-119.7 101.7-35.7 54.9-39.6 126.7-44.2 196-7.5 95.7-24 162.9-87.5 240.4l-9.3-5.9 34.3-54.5-38.7-25 17.6-32.2 8.9 3-7 19.3 32 16.8L1878 482l-45.1-14 7.5-43 11.4 1-3 30.8 32.2 5 9.2-72.6-43.4-6.6 1-38.4 10.6 1v23.4l34.2 1.8 2.6-66.2-42.6-4.7 5.2-46.8 12 1.2-2.8 28 32.9 4.7 15.5-60.5-42.6-19.3 23-40.9 10.3 4.8-10.6 22.6 29.6 14.4 31-47.4-33-31.6 32.4-33.8 8 7.8-17.6 20.1 24.3 22.5 48.2-40.4-23.6-35.4zm306.5 2.1-1.5 17-51.3 29.2V95.6zm275.6.5 11.3 7-8.2 9.8-10-6.3zm-297.2 2.5L2253.6 87V69.2zm362.6 16.4a8 8 0 0 1 4.2 1.2c3.1 2 2.7 7-.8 9.4-4.5 3.2-17 3-18.2-.3-1.8-4.7 7.9-10.4 14.8-10.3zm-490.7 7.2 44 23.8v16.8l-42.5-23.3zm143.7.5-2.6 21.9-45.4 24-.4-18.9zm-220 .5 18.2 4.6c-67 29.9-133.2 73.3-159 148.9a348 348 0 0 0-16.9 80c-1.6 34-6 67.5-7.6 95.9-3.3 57.7-22.2 136-87.9 219l-6.2-4.9a370.9 370.9 0 0 0 74-142.2c20.5-75.6 10.3-159.1 32.2-235.3 13.3-46.3 41-87.8 82.4-123.6 28.8-22.5 70.9-42.4 70.9-42.4zm30.5 6.3h.3c16.3 54.8 36.4 154.6 36.4 154.6-43-20.8-114.6-17-114.6-17s-40.4-51.9-48.2-56.2c32.2-43.5 120-81 126-81.4zm553.9 8.4c9.9-.3 9.2 14.8-3.4 25-6.4 5.2-9.3 4.5-14 .3-1.5-1.8-5.5-3.2-8.5-2.8-7 0 6.9-14.6 19.3-20.6 2.5-1.2 4.7-1.8 6.6-1.9zm-503 12.5 39.4 20.2.4 16.6-36.4-19.8zm133.4 2.2-2 18.3-41 21.3.2-16.9zm383.4 6.6c1.4 0 2.4.4 3.4 1.5 5.6 6.3-5 25.1-17 30.8-4.7 2.1-7.5 1.8-11.4-1.5-1.8-1.6-4.6-3.7-6.2-3.6-6.9.7-3-7 2.5-7.5a105 105 0 0 0 18.5-13.4c4.8-4 8-6 10.2-6.3zm-41.6 7.4c8.7-.2 11.8 7 1.5 10.2-7.3 2.2-11.4.6-11.4-4.3 1.6-5 6-5.6 9.9-5.9zm-469.7 10 34.9 17.5.1 17.9-32-16.7zm124.9 2.4-2.5 17-37.5 19.3v-14zm394 7c2.4.1 3 2.8 3 7.5a21 21 0 0 1-12.9 18.5c-5.6 2.5-9.6 2.3-12.5-.7-1.2-1.4-3-2.5-4-2.5-12.1-.5-10.1-3.6 1.5-8.5 4-1.7 12.1-7.3 16-10 4.2-3 7-4.5 9-4.3zm-44.6 5.5c6 0 11.3 4.2 8 7-2.6 2-12.2 3-14.1 1.2-3.6-3.7-.4-8.2 6.1-8.2zm-468.5 12.3 29.7 16-.1 17-28.4-16zm114 1.2-.6 17.5-34.1 16.8-.3-16.6zm367.6 7.1c5.8.4 5 6 .4 8.7a7.1 7.1 0 0 1-9.9-1.6c-4.1-8 5.3-7 9.5-7zm11.6 18c1 1.9.4 5.3-1.5 6.4-2.5 1.1-9 0-10.1-2-.8-1.5-.6-2.3 1-4 2.7-2 8.7-3.7 10.6-.5zm-489 .5 25.5 13.8-.2 16.8-23.3-13.6zm105.7.4-1.2 16-29.6 14.8.4-15.8zM1973 211.7c6.4.1 11.3 4.3 7.5 11.5-2.3 4.5-4 6.2-14.2 13.4-4.1 2.9-7.7 5.5-8 5.9-.2.3-2.9 2.2-4.6 3.4-9.1 6.3-6-6.9 5.4-26.2 3.2-5.6 9-8 14-8zm307.3 14.3-2.3 17.7-26.5 13.6v-17.1zm-99.4 1.7 21.4 10.6.3 17.3-19.4-10.2zm256.8 1.2c.7 0 1.3.2 1.7.8 1.7 2.5 2 13 .3 19-3 7.1-8.8-10.7-8.1-15.2 1.2-2 4-4.5 6-4.6zm-449.4 3.4c8.7-.1 15 5.8 12 14.5-3.4 8.5-22.9 13.8-31.7 19.6-5.7 2.9-7.1-.2-5.4-5.2.9-2.3 1.5-4-2.9-4.7-10.7-1.6-4.2-6.8 15.4-19.9 4.3-2.9 8.7-4.2 12.6-4.3zm428.7 5.4c3 0 6.9 1.8 10.8 6 6.7 7.3 11.5 22.6 7.9 26.6-2.8-.3-4.2 3.8-4.4 5.5-.4 4.8-9.2-4-17.6-17.9-6.7-11.2-3.4-20.1 3.3-20.2zm-360 2.7c26.3-.2 76.7 5.3 146.3 48.8 9 5.6 17.8 11.7 27.8 16.7a256.4 256.4 0 0 0 82.3 30.2l-1 17.6c-.2 5.6 9 37.8 4.8 55.9-6.3-.1 6 5.3 6 5.3l8 16.4s-41.8-.4-60.8-4c-30.6-5-86.5-31-113.5-51.4a280.3 280.3 0 0 0-106.8-44.3l-.5-15.1s-3.6-51.9-6.5-59l-6.7-16.4c1.6.6 8.6-.6 20.6-.7zm219.8 11.3-2 17.4-23.2 11v-15zm115.6.8c6.5 0 16.3 7.6 27.5 22.7a25 25 0 0 1 4.9 8.5c.3 1.9-.8 3-2.7 2.7-4.4-.8-6-2.4-7.3 3.1-.3 1.4.5 3.8-1 3.4-7.9-2.3-30.4-25-29-32.3 1-5.4 3.7-8.2 7.6-8.1zm-206.5 1.2 17 9 .7 17.1-15-6.4zm-181.7 5.3c5.2-.2 8.4 1.9 10 5.9 4 9.7-3 15.5-23.9 20-18.1 4.2-17.8 4.5-15.2-2.2 1.7-4.5-4-5-7.1-6.2-5.3-2-1-2.6 14.3-10.2a58.4 58.4 0 0 1 22-7.3zm-60.4 4.6c.5 0 1.1.4 2 1.6a69.3 69.3 0 0 1-13.8 101.6c-3.8 2.5-3.9.2-3.5-4.8l.7-9.5c.2-2 38.4-25.4 10-77.6l2.5-7.4c.7-2.3 1.2-3.8 2-4zm431.4 9.8c10.4 0 39.7 26.5 27.2 27.5-1.4.1-1 2-1 3.2 0 1.2 0 3.5-.4 4.4-.8 2.3-4.3 1.8-9.5-1.3a95.6 95.6 0 0 1-21-14.7c-9-8.6-6.4-19.2 4.7-19.1zm-103 4.6-.2 14.3-20.9 10 .2-12.9zM2008 288.4c14-.5 22 13.4 8 20.8-5.7 3-24.1.9-32.7.1-9.7-.8-4-3.7-3.4-4.6 1.3-2.2 2.3-2.5-2.7-5.5-4-4.2-6.3-5.2 3.7-6.6 4.9-.6 16.7-1.8 20.8-3a23 23 0 0 1 6.3-1.2zm427 3.2c1 0 1 1.7.5 6.1l-.6 9.6c-6.4 1-38.2 40.5-12.3 86.4l-2.2 8.1c-1 4-1.3 4.6-4.7 2.1-19.3-13.3-25.6-81.3 14.4-109.4 2.6-1.8 4.1-2.9 5-3zm-75.3 8c3.7 0 8.3 1.1 13.5 3.5 12.2 5.5 20.3 10 22.2 13 1.2 1.8-.7 3.3-3.1 4-3 .9-3.4 2.1-2.6 5.6 0 2 .6 4.3-2 4.4a63 63 0 0 1-25.8-8.7c-18-9.7-15.6-22-2.2-21.8zm-91.2.2v17.4l-17.1-7.9zm-287 15.1c1.7 0 4.1.4 7.3.9a90 90 0 0 0 13 1.1c19.5-.3 27.5 13.3 11.4 20.2-4.4 1.9-6.2 1.7-18.2-1.8-5.8-1.7-12.9-3.4-15.8-4.3-5.8-1.6-7.8-3.4-4-4.7 3.6-1.3 4-3.7 1.7-7-.5-3.3.5-4.5 4.5-4.4zm453.5-.2c-2.8 27-5 48-9.1 74.4-3-1.2-24-50.9 9-74.4zm-82.2 13c6.4.1 17.1 2.5 27.5 6.6 9.2 3.4 10.3 4.3 4 7-3.8 1.6-3.3 3-2.2 5.5 1.7 1.9 5 5.6-.2 4.9-6 .4-22.2-.5-27.1-1.3-14.7-2.6-18.7-15.9-6.7-22 1-.5 2.6-.8 4.7-.7zm-377.9 7c1.4 0 3.9.7 8.4 2.1 26.4 8.3 37.1 18.4 24.2 28.2-3.7 2.8-9.6 1.6-20.6-4.5a103.4 103.4 0 0 1-19-12c-2-2.1-.9-4.7 2.3-4.4 4.4.2 3.7-2 3.4-5.6-.3-2.6-.4-3.9 1.3-3.9zm71.3 2.4 20.2 4.5-50.4 221.2c-17.3 5-27.3 7.1-39.4 13.7l35-6-3 15.7-31.8 6-.7 4.7 36.4-6.6s-1.3 15.1-2.6 21c34.7-2.8 69-12.5 104-12.8 0 0 .7-174.5.6-193.5-.2-20.6 0-45.1 0-45.1l35 19.7 5.8 220 109.7 17.7a1586 1586 0 0 1-3.8-20.7c81.3 24 163.7 59.3 236.7 132.5-34 18.4-66 36.6-99 54.3l-4.8 6.9c83.7-39.1 210.7-120.4 302.5-210.2l2.2 581.6-439.3 1.9v-54.4l.2-48.6c-1.8-31.2 3.6-65.6-6-91.7l-1.8-27.4c27-31.5 41.6-71.2 54.5-111.8 0 0 13-5 19.4-7.3l2.2-8c-12.6 6.4-41.5 17.2-41.5 17.2 3.1-2.4-61.5-29.5-101.4-36-65.8-10.4-154.3.5-224.8 35.5-3.5 2.4-5 2.4-4.1-.8 16.4-59.6-18.2-119.4-78.8-136.7-12.8-3.7-23.4-3.7-23.4-3.7l1.1 5.3c99 11 122.3 115.7 84.2 164.3-10 16-11.5 20.7 9.5 20.2 84.8-.7 114.3 94 75.6 146.4.1-.4 3.2 6 3.2 6 24-31.7 30.5-92.1-12.3-134.6 31.6-35.2 92.2-91.5 144.6-88.3 19 1.2 37.9 24.3 50.4 42.7 26.6 39 33.4 93.5 35.3 124.6.5 8.2 1.6 14 1.6 18.4 0 12.4-2.3 10.9-10.4 8.8a69 69 0 0 0-34.1.4c-16.5 5-13.8 2.2.8-16 8.6-10.6 9.8-14 6.2-14.6-1-.2-4.7 3.4-9.5 10.8-14.4 22.2-13.3 13-2.9-21.5 6.8-22.5 6-24.1-12.4-38-6.1-4.7-13.6-9.2-14.3-10.6-3.5-7.4-4.9 1.9-1.8 8 3 6-3.4 8.6-14.7 2.5-26.7-14.8-44.1 15.2-20.3 28.1 5.6 3 8.8.6 4.4-3.4-14.6-13.6-4.4-25 15.4-13 11.5 7 15.8 4.7 19.7-4 2-3.5 19.9 9.2 19.9 14.2 0 3.2-2.1 13.6-4.1 20.6a357 357 0 0 0-9.7 38.4c-4.5 23.1-4.4 35 .4 45a48.6 48.6 0 0 0 61.3 24.4c3.4-1.4 10-2.5 10-2.5l.2 16.7c-46.2 17.6-79.6 72.3-78.1 74.1h-16.5c-22-43.4-60.5-76.1-109.4-94.2 0 0-6-9.8-.7 8 .4 7.3 8 17.4 14 21 23.3 11.7 54 32.7 71 65.2l-11.6.2a191.6 191.6 0 0 0-50.2-49.1c-4.1-1 3 39.3 19.8 51.8l-301.6 5.3c20.6-80.5 24.5-169.8-23.8-287 40 2.5 75.5-6 108-20.3l-3-8.3c-37 17.7-77.6 21.2-118.3 17 30.9 57.1 58 176.8 31.7 291.9l-110.7.6-1.8-627.4 5.7 5.3c3.5 3.5 5.9 8.7 6.8 12.5 1.3 4.8 2.6 5 9.5 10.2 3.4 2.5 5.3 4.7 5.3 6-.2 1.4-.3 5.8 2 8.5 6 7.3 5 12 .4 16.8-21.2 22.1-34.5 68.5-23.7 117.4 25.1-17 51-61.2 51.9-61.3l2.4 60.5c-2.2-.5-17.6 8.6-17.7 20.5-7 2-15.5-1.4-22.5-3.5l5 17.9c-25.8 10.3-27.2 45.6 2.8 55.7 0 0-2.7 13.8-5 21.2l19.3-3c11.3 33.8 54.7 23 54.5-.6 0 0 13.2 5 18.2 7.2l-5-23c49.4-24.6 12.5-56.8 1.2-56.3.2-6.5 3.1-8.5 5.8-16l-19.9 1.3c-3.6-11.9-17-21.6-17.5-20.3l-2.8-86.6c15 13.1 29.9 26.6 49.8 37 18.4 9.7 20.3 7.5 17.6-9.1-1.2-7.5-1.1-12.5-1.1-12.5 6.9 1.7 24.3 24.3 23.5 35.5 6.3 8.3 12.1-14-4.3-33.1 43.7-45.8 77-121.7 84-173.4l58.1-23.1.7-7.6c39.6-26.5 60.2-63.4 71-105zm48.4 13.5 13.3 6-15.1 7.5zm-129 3.7a81 81 0 0 1 12 7.7c11.3 8.3 18 14 18.2 19a9 9 0 0 1-4.6 7.3c-6.9 3.7-13.5.7-28.3-14.5-4.8-4.9-8-7.5-9.5-9.7-1.7-2.6-.4-5 2.4-4 12 5.5 1.6-9.6 9.9-5.8zm409.7 3c2.5 0 4.4 0 5.6.2 3.3.7 4.2 2.5 2.2 4.3-3 2.8-2.2 5.5 1 7 2 1 1.2 3.2-1.4 4.7a37 37 0 0 1-7 2.8c-18.2 5.7-31.7 4-35.2-4.5-4-9.8 3.7-14.5 26-14.5h8.8zm-265.7 5.9-.2 13-19 9.1 2.1-13.2zm-161 4.1c1.7.1 4.4 2.7 8.3 7.5 18.3 22.4 20.8 26.7 14.8 32.6-7 7-17 .3-27.7-19.3-1.5-2.7-3.2-6-4.3-7.3-4-4.6-2.2-6 2.8-5.6 2.7.2 4-.8 4-3.6.1-3 .8-4.4 2.1-4.3zm437.8 11.2c3.3 0 3 1 1.6 5-1.2 3.4-3 4.5 1.8 6.6.8.4 2.5 2.6 1 3.6a200.9 200.9 0 0 1-27 12.4c-12 4-19.4-5.8-12.4-15.5 3-4 23.2-11.4 33.3-12l1.7-.1zM1939 391.6c12.2 18 13.7 26.6 5.7 31.8-5 3.9-15.8-1.6-18.3-13.3a46 46 0 0 1 .2-25.8c4.4-11.2 11.2 5.4 12.4 7.3zm170.5-7.6v14.2l-23 11.6 2.2-15.6zm47 .6 21.6 14 1.2 12-22.3-12.2zm241.5 13.8c.6 0 .9.3.9 1 0 1.6-.4 7.5 2.8 8 6.4 1.1 5 3.1-.6 8-6 5.3-11.6 11.6-18.9 15.5-18.8 7-24.7-12.9-6.9-23.2 6.1-3.6 11.7-6 15.8-7.2 3.2-.9 5.7-2.1 7-2zm-241 7.4 25.1 14.8.9 14.8-25-12.6zm-48.4 1.4.1 13-24.5 14 2-14.5zm101.4 10.5c7 3.2 96 28 125.5 19.5 0 0 25.3 36.4 44 49.4-29 42.4-126.8 84-126.8 84zm200.5.8c1.6 0 2 1.6 2 4.6-.4 8.8-14.9 41.2-26.4 24.6-3.2-6.1 0-12.5 10.2-20.2 8-6 12-8.9 14.2-9zm-484.9 5.3c2.2 2.4 1.2 9.8-3.5 9.3-1.4-.1-1.6-7.6-.7-11.7 1.4-.6 3.5 1.6 4.2 2.4zm183.3 4-.1 16.5-29 15.8 3-18.2zm48.1 2.4 28.8 15.3 3.4 18.2-32-16.6zm-48.1 22.3v16.6l-32.7 16.8 2.3-16.4zm48.7 1.4 32.2 18.3 4.2 17.3-36-18.6zm-456.3.8c5.3-.1 7.2 5.5 3.2 9-2.6 2.5-10 2-10.7 0-3.4-3.2 1.2-9 7.5-9zm9.9 17.5a7 7 0 0 1 2.1.1c3.8 1 6.2 6.5 3.9 9.6-4.3 5.8-15.6 1.8-14-5.5.4-2 4.6-4 8-4.2zm397.1 5.4v14.8l-35.5 18.7 2.3-16.5zm50.3 2 36.6 19.7 2.9 16.6-39.4-20.5zm-464.8.6c1.7 0 3.1.4 4 1.7.6 1.2 1.4 4.2 4 5.7 4.7 2.8 5.2 3.4-3.8 7.3-3.8 1.7-11.3 6.8-14 8.5-7.9 5.4-11.1 3.6-11.7-2.8-.8-8 13.8-20 21.5-20.4zm27.5 12.1c1.8 0 3.6.3 5 1.1 3 2 3.1 6 .2 8.1-6.7 4.3-17.2-1.6-11.6-6.7 1.5-1.4 4-2.3 6.4-2.5zm387 8 .2 19.1-39.6 21 2.6-19.5zm-406.6 2.3c2.6-.1 5 .5 7.2 2 2.4 3 5.2 4 6.9 4 6.7.3 4.6 2.8-2.5 6a86.5 86.5 0 0 0-23.9 16.8c-7.3 6.8-7.8 8.3-10.3 5.5-9-10.4 8.6-33.5 22.6-34.3zm457.5 0 41.5 22.8 3.6 19.2-45.1-25.1zM1729 516.5a7 7 0 0 1 4.5 1.3c3 2.4 1.2 7.1-2.9 9.2-3.4 1.8-9.2 1-10.8-.6-4-4 3.2-9.8 9.2-10zm-20 9.6c2.4-.2 4.7 3 6.8 6.5.7.9 3.5.5 5.6.5 7.8 0 8.8 3.3 1.3 7.5-2.2 1.2-9.4 6.8-14.3 10.9-13 12.5-20 9.5-18.4-3.2 1.6-12.2 12.2-21.5 19-22.2zm450.2 1 45.8 25.1 4.5 20.7-50.3-27zm-50.6.4-.1 19-43.2 22.9 3.4-19.3zm51.3 24.2 51.3 31 1.9 20.3-53.2-30.6zm-51.3 3.4.1 18.7L2061 598l2.4-17.6zm-387.1 12.5c1.2 0 2.4.2 3.3.6 5.6 2.6 4.1 7-4.3 11.6-8.5 4.7-11.5 3.9-13.3-1.4-1.6-4.4 7.7-10.6 14.3-10.8zm535.8 2.3c89.2 20.4 176.6 64.6 261.4 141.6L2501 724s-74.4-84.8-239.5-134.4zm-96.9 9 24.8 14.5v3.8l-24.8-2zm-421.6.3c1.9 0 3.5 1.2 12.4 5.4 35.5 25.6 49.7 41 58.5 69.2 5.3 16.8 5.2 16.1-12.1 7-16.4-8.7-38.8-23-53.2-41.7-2.4 43.8 2.7 98.3 2.7 98.3 22.2 10.9 15 39.4 15 39.2 57-15.6 44.6 59.7 2 43.5 10.2 56.5-54.5 52-48 3.5-51.4-2-42.4-58.1.4-50.4-4.4-17.3 1.7-29 17.5-36.5l-2.5-74s-42 60.3-49 59.3c-4-.5-10.3-7.4.1-60.3 5.5-27.5 34.6-61 51-62 2.8-.3 4-.6 5.2-.5zm41 .5 7.6 5.2-7.1 12.6-7.9-5.6zm328.6 3.5-.3 11.1-23.1 1.4zm-253.5 125.4c-3.5 0 5.8 2.2 11.7 7.5 54.4 8.4 87.8 75 62.6 123.2-3 2.2 1.7 12.7 4.7 8.7 26.5-37.6 6.7-130-70.7-138.9-4.6-.4-7.2-.6-8.3-.5zm20.5 25.2c-4.3 12-5.5 15 5.7 10 19.8 7.3 41.2 39.6 34.4 72-2.2 3.7 1.6-2.5 4.2 8.2 9.8-23.8 0-74.9-44.3-90.2zM2127 794c55.7-.2 110.8 12 154.7 37.2-15 8.2-62.5 19.8-62.5 19.8-26.7-30-40.3-60-88.7-44.6-50.6 13-96.2 57-121.8 86-25.7-15.3-39.7-19-62.5-20.3-1.3 0-3.2 5.8-1.6-3.6 6.5-10 11-21.4 15.3-33 47.8-27.1 107.8-41.3 167-41.5zm173.2 38.4c-11.1 36-25.4 71.3-49.7 102.4l-3-15.5c22.8-35.1 33.6-67 38.5-81zm-21.6 9.3c1.4 2.3-22.1 58.5-33.8 68.7l-4.5-14.5a311.4 311.4 0 0 0 23-49.2zm-143.8.2c-.7 0-1 .7-1 2 0 5.2 5.4 9.3 15.1 11.5 13.3 3 31.8-1.6 31.9-7.8 0-3.7-2.6-4-10.2-.4-9.5 4.4-17.9 3.5-30.3-3-2.9-1.5-4.6-2.4-5.5-2.3zm117.9 8.9a109.3 109.3 0 0 1-16.1 34l-2.3-7.1c4.9-7.8 8-16.7 12.1-25.4zm-13.8 4.4c-1.8 4.7-3.8 10.2-7.9 14.4l-5.3-11.2zm-83.8 10.5c-9 .1-17.9 3-18.7 7.8-.3 2.3 3.1 1.4 19.8-.6 8.8-1.1 13 4 21 3.5 4.2-.4.3-4.2-1-5.3-4.4-3.9-13.2-5.6-21.1-5.4zm-38.3 10.4c-1 .1 0 2.4 3.4 8.3 1.9 3.1 2.3 9.6 2.7 13.6-.5 9.9-.4 9.6 4.5 3.8 3-3 9-2.4 18.6.2 6 1.7 7.6 2.3 11.8-.4 5-3.1 6.1-1.5 10.4-.7 4 .8 7.8-.8 12.3-2 5.5-1.6 6.5-1.2 11.3 0 7.3 3.4 6.2 3 6.8-9.3.6-12.2 0-13-7-9-6.9 4-11.6 5.9-22 2.2-11.5-4-13.1-3-21.2-.5-9.8 3-14.2 4-22-.8-5.2-3.1-8.6-5.7-9.6-5.4zm-159.5 18.4 4.4 7.1c39.4 14.1 66.2 46.4 50.4 100.7l3.8 6c19.7-54.8-2.8-100-58.6-113.8zm12.2 23.2 5.4 11c29.7 14.3 28 53.8 26.3 52.3l4.6 10.3c7.5-25.6-6-63.3-36.3-73.6zm124 58.8c-1.1 0-1.9.4-2.2 1.3-.8 2 1.5 3.1 15.1 12.5 11.7 8 20.7 14 20 15.2-.5.7-7.7-1-12.9-2.6-13.5-4-33.5.9-44.7 8.8-2.9 1.9-7.6-.2-11.7-1.3a18 18 0 0 0-7-.4c-8.6 2.2-.4 10.3 20.4 20.8 25.4 12.9 39.2 14 54.7 6.2 10.2-5.3 14-1.4 2.7 4.7-19.6 10.6-38.4 7.3-69.4-14-14.3-9.8-20-8.2-7.7 1.2 21.6 17 63.3 37.6 88.9 12.3 1-.3 3.3-.2 4.4-.2 5.3 0 5.6-1.6 0-10.4-3.3-5.3-10-10.8-1.9-17.3 6.3-5 5.8-7.3-1.7-9.5-2-.6-1.8.7-4.8-1.7-18.1-14.6-35.8-25.6-42.1-25.6zm8 28.9c7.5.2 15.2 6 17.6 16.6l.5 2.9-6.5.2c-5.3-21.4-21.5-14.3-23.1-1.8l-5.9-.7c2.2-12 9.7-17.4 17.3-17.2zm134 18.2-4.2.7c-2.9-8-15.6-18.5-21.7.7l-5.5-.2c3.8-26 27.5-22 31.5-1.2zm-33-10.8c1.8 2.5-1.3 6.7-3.1 8.7-1.7 1.8-5.6.3-7.2-1.6-1.4-1.8-.3-5.3 2-6.5 2.4-1.3 6.5-2.4 8.3-.6zm-75.8.8c1.8 4-3.3 7-3.9 5.7-1-.4-2.4-7-1.8-7.5 1.7 0 5 .5 5.7 1.8zm114-.7c2.7.2 5.7 1.5 6.2 4.6 0 2-2.3 4.3-5 4.4-1.2 0-5.7-3.3-4.9-8 1-1.8 2-1.1 3.7-1zm-158.5 1.4c1 1.4-.8 5.8-1.2 6.4-.2.3-6 0-6-.4.2-.4-.5-3.7 1-6.1 1.6-1 5-1.6 6.2 0zm105.7 14c.8 0 1.7.4 2.9 1 16.2 10.7 37.2 15.4 52.3 7.8 3.3-1.7 5.5-1.6 5.5 0 0 1.8-3.7 5.5-10.7 7.6-15.5 4.6-41.1-1.5-50-11-2.6-2.8-2.2-5.4 0-5.4zm-142.7 11.2c-1.5 0-2 .9-1.7 2.7 1 6.4 44.5 31.3 62.7 34.7 15 2.7 26.6 1.5 35.7-3.8 22.2-13 16.5-30.4-5.2-17.2-14.6 8.8-51.6 4.8-73.6-8a60 60 0 0 0-17.9-8.4zm196.1 9c5.5-2.3 7.9-3 9-2 5.7 4.6-3.5 12-20.2 14.8-13.4 2.2-21.4 2.6-36.7-8.7-11.8-8.7-6.2-13 .5-9 18.1 10.6 31.5 10.9 47.4 5zm-192.2 27.4c38.5 13.8 82.3 47 101.8 87.4H2139a187.1 187.1 0 0 0-82.5-73c-3.8-3.1-5.8-8.7-7.4-14.4zm202.2 18.9v12.6a141.8 141.8 0 0 0-58.7 56l-13.5-.3a159.5 159.5 0 0 1 72.2-68.3zm0 19.2v15.5c-15 8.8-27.6 20.5-36.4 33.8H2199a122 122 0 0 1 52.3-49.3zm-176.2 12a117 117 0 0 1 37.3 37.7l-6.1.2c-6.3-8-16.2-17-24.4-24.2a34.7 34.7 0 0 1-6.8-13.7zm176.2 9.8c.2 0 .2.2 0 .4v12.3c0 .4-11.4 7.8-16.2 14.8h-13a71.8 71.8 0 0 1 29.2-27.4zm0 20.5v7h-8c.5-.8 5-5.7 8-7zm-158.5 1.8c2.5 1.3 4.3 5.9 4.3 5.9l-2.2.2z" style="fill:#131f67;fill-opacity:1;stroke-width:3.18132639" transform="matrix(.16293 .00059 -.00063 .15097 -238.4 834.9)"/><path d="M1765.5 887c26.8.7 83.3-9.6 82.4-8.5 0 0 176.4 290.6 169.3 287.8-2.3 3.6-224.6 4.3-224.6 4.3-4.8 0 46.7-108.1-27-283.6zm78.7-205.5c85.2-71.1 174.7-72 270.8-82.1l1.2-240.6 34.9 20.6 1.6 220.5c126.9 9 236.5 55 330.9 136 1.1 1.8-135.8 75.7-195.8 95.3-46.8-34-170-55.2-251.5-28.5-22.4 7.3-49.9 19-76.6 27.6 19-116.2-71.9-133-103.8-138.2-4-.7-8.8-9.3-11.7-10.6zm-109.5 38c1.4-24.8-.3-49.6-2.3-74.9-.5-5.7-49.6 75.5-52.5 55.9-7.1-49.2 17.1-111.9 55.5-119.7 3.8-5.2 80 41.6 76.7 82.3-1 13.2-68-44.5-68.3-41-1.5 6.7 2.4 97.5 4.4 97.3 19.3 10.8 15.2 24.7 17.3 36.2 51.5-7.8 48.9 49.3.3 47.7 3.2 67.5-59.5 37.2-47.3 1.2-63.2-2.7-32.3-61.8-.8-49-2-14.8 1.6-30.3 17-36zm71.3-286.6c-3.7-1.4-134.7-7.6-134.7-7.6l5.6-319c66.3-153.8 318.3-83 278.4-50.2-120 79.3-137.7 223-149.3 376.8zm241-132-4-35.4c-10.4-22 268.2 105.4 271.3 108.1l8.3 37.8c1.7 16.6-177.2-66.6-275.5-110.5zm505.7-64.5c-3.5 143.2-25.2 240.2-108 357.5-2.2 3.8-25.7 13.6-27.5 17 12 18.7 80 46 111.3 60.7l162.7-97.7c2 .1-6.9-340.2-6.9-340.2zM2614 80.7c-22-3.2-73.2-55.9-62.6-72 .2-12 63.5 33.8 70.1 46.1-3.2-3.7-4.1-112.1-5.1-107.8-2.4 1.3-19.3-10.7-15-33.4-48.4 10.9-46-52-3.6-49.5-5.7-57.2 64.2-36.5 45.8 1.9 59.7-11.2 49.6 55.9 4.4 45.1 4 25.5-6.5 32.5-21.2 37.7 1 10.6 5.3 81.8 5.3 81.8s44-68 47.1-62c9 20.4-6.8 129-65.2 112.1zm-206-248.9c-19.6 68.8 35.3 147.2 87 146.7 10.3-1.7 30.3 3.9 23.4 9.5-81.2 66.2-271.2 80.7-271.2 77.8 2.3 81-1 162.8-2.7 243.7l-34.9-20.8c-1.4-73.8-3.5-149.4-5.5-223.2-121.8-15.4-231.4-54.2-318.2-137.4 57.2-42.8 125.8-69.6 191.6-96.7 83 42.7 198.7 67.2 330.6.4zm-61.4-326.2c-3.8-1.7 13-14.4 13-14.4s141.6 1.4 211.7.1c-25.1 105-6.7 199 26.7 289.1-8.8-2-66.9 3-81 9.4-2.3 2.3-168.6-281.7-170.4-284.2z" style="fill:#e2cf00;fill-opacity:1;stroke-width:3.18132639" transform="matrix(.16293 .00059 -.00063 .15097 -238.4 834.9)"/><path d="m2021.8 1165.8-172.2-288 25.6-11.3 177.6 299.6zM1715.9 781l24.6-25.5 25 25-26 24.1zm548.2-164-3.6-20.7a529.3 529.3 0 0 1 237.8 129l-13.8 10.2c4.3-1.2-140.4-108.9-220.4-118.6zm-286.3-19.3 31.2-4.7-.8 17.4-29.7 6.9zm576.8-16-17-13.6 12.1-14.6 16.6 13zm-579.4-137.6c42.3-20.2 75-101.1 70.8-106.5l23 5.4-52.3 221.5-40 7.4c-.4-42.3-1.3-85.5-1.5-127.8zm279 124.1a6326.5 6326.5 0 0 1-43.2-151.8c1 3.5 91.9 28.9 124.2 19.4a376 376 0 0 0 45.2 50.6c-33.5 33-75 60.6-126.3 81.8zm379.6-171-16-13.8 14.3-17.6 17.6 13.2zm-208.8-8.5c-13.1-23.3-14.2-49.8 9.9-76zm-496.7-43.4c-1-2.4 5.2-57.9 6.8-60.4 2.6-4.3 8 11.2 10.5 23.1 3.2 15-13.5 46.1-17.3 37.3zm365-18.7s34.6-162.9 49.5-226.7l42.9-11-5.3 133.7c-35.1 31.6-64.1 106.8-64.1 106.8zm-564.8-24.8-17-15.8 14.3-15.8 15 15.3zm303.7-64.7-46.8-54.3c28.7-40.3 76.5-63.7 127.2-82.1l35 152.8c-38.9-11.6-80.9-24-115.4-16.4zm-238.7-135.4 11.9-14.9 15.7 12.3-11.9 16.4zm560.9-48.1 30-4.4-2.2 20.6-31.8 5.1zm-489-113.8 18.4-11.6a549 549 0 0 0 215 120.4l5.4 25C2016 47 1932.7 6.2 1865.4-60.1Zm757.4-26.2-24-23.5 21.4-24.1 25.8 22c-8.4 12.9-23.2 25.6-23.2 25.6zM2489.3-201l-180.9-305.8 26-.3 178 294.5z" style="fill:#d40000;fill-opacity:1;stroke-width:3.18132639" transform="matrix(.16293 .00059 -.00063 .15097 -238.4 834.9)"/><path d="m3231.6-9.7-43 .2 243.8 490s-6.6 1.2-19.6-2.2c-58.5-15.3-94.6-77.2-81.3-137.8 1.3-4.7 1.7-8.8 1.7-8.8-151 68.3-244.4 43.2-331.5-.3l-37.1 14.2c2.4-22.4 30.2-106.7 71.7-146.4v-42.4l-1-20.1-3.3-36.4c-61.8 58.1-134 149.7-143 279.7 0 0-56.2 28.9-104.2 60.8 2.7-.3 74.8 88.2 248 138l-7.5-28.3c25.7 7.2 62.3 13 98.8 17.6l4.8 221.9 41.4 24.5 1.4-245.7c1.3 1 66-2.3 100.9-10.6l-5 23.7 34.5-6.8v17.3l-37.8 8.9-53.7 229.6 31.3 7c9.2-46.3 32.3-83.7 65.9-106.6l-.4-8.8c21.5-15.5 66.2-27.7 66.5-27.4 15.3-74.5 50.7-126.1 88.5-175.2l-18-24.4 69-25.3-95.7-162.7c36.8-25.4 109.7-16 109.7-16-31.2-84.4-58.7-171.5-27.8-299.3l-266.1.2Zm87.3 5.3c0 21.4-28 19.2-31.4-.1zm171-.7c-17 97.9-11.4 193.2 27.8 283.8 0 0-5.7.3-6.4.2-.5-.1.7-4.9.4-6.1-.8-3.5-6.4-1.9-11.2 1.3-2 1.4-4.4 3-6 3.7-4.8 2.5-29.4 2.3-29.4 2.3 8-5.5 19.3-20.8 12.8-29.7-1.5-2-2.4-1.1-3.9 1.5-7 12.4-10.5 14.4-19.8 14.3-14.7-.2-25.2-9.3-24-23 1.1-13.4 20.8-20.4 17.9-7.5-.8 11.5 10.6 13.8 12.7 2.3.8-4.3.2-2.3 1.1-7.3 22.9-12.2 10.2-36.9-11-31.7-5.1 1.3-5.7 1.8-9.3 0-6.6-3.4-12-2.4-14.5 2.4-2.2 4.2 1.1 7.5 6 7.6 5 0 6 2.4 6 5.5 0 7-12.2 10.4-20.3 6.3-21.3-10.9-13.4-39.2 11.4-39 7.5 0 10.7.4 11-1.2.9-4.6-10.6-12.5-17.1-11.3-5.5 1-8.9 2.5-6-4.8 1.8-7.6 1.8-11 .3-16.7-4-8.1-3.9-4-6.3 2.6-8.2 13.6-20.5 16.6-31.1 9.2-9.8-7-9.5-20-.2-29.3 6.5-6.4 13.5-2 9.6 5.2-1.6 3-.4 6.7 2.5 7.4 5.9 1.5 9.5-2 9.6-9-.2-4-1.2-4.8 5.8-8.8 18.3-10.5 4.6-39-16-29.8-4.5 2-5.6 4-7.6 3-8.6-8-21 2.2-13.7 7.6a27 27 0 0 0 8 2.3c1.8 1 1.2 3.5-1.3 6.7-8.6 10-28 5-32.5-9.1-5.3-16.4 11.5-33.7 24.4-24.1 3.8 2.8 7 3 7-1.1.1-6.5-8.1-14-18.6-13.3-10.6.8-9.5 2.1-3.7-7.5 4.3-8.6 3.7-17 0-22-2.9-3.8-5.8-4.7-5.5-.5C3351 50 3336.2 62 3324 56.8c-11.8-5.3-17.6-18.5-11.8-29.9 5.3-10.5 18.2-11.6 16-.4-1 7.2 4.5 11 9.8 6.8 1.9-1.6 2.3-3 2.5-7.6.1-5.1-2-6.6 1.3-9.7 8.8-1.1 9.3-19.6 8-20.4l140-.7zm-156.2.7c5.5 0 10.1 1.8 10.1 7.4a10 10 0 1 1-20 0c0-5.6 4.4-7.4 10-7.4zm-98.1.7h22.2l175.8 293-20.8 10zM3272 6.5a80.9 80.9 0 0 0 33.9 12.4 70 70 0 0 0-8.1 31.5zm35.8 59c10.9 3.9 20.3 9.8 38.2 3.8a70.5 70.5 0 0 0-19 29.2zm91.5 35.4a9.3 9.3 0 1 1 0 18.6 9.3 9.3 0 0 1 0-18.6zm-57 23.1a62 62 0 0 0 25.2 4.4c-4.5 6.2-6 15.7-6.3 26.4zm27 46.2c7.2 3.6 15.8 8.7 31 7-10 17.2-7.9 21.9-9 29.4zm88 34a9.7 9.7 0 1 1 0 19.5 9.7 9.7 0 0 1 0-19.5zM3403 226c6.6 3.8 19.7 6 19.9 5-.9-.7-3.8 12.6-4.3 21zm30.6 50c9.4 5.5 19.9 5 26 5.6-6.6 1.4-12.8 3-19.8 5.8zm111.4 54.7c-22.8 1.5-28 19-25.4 36.6-17.3-2.7-36.7 13.7-31.3 33.8 5.1 19 22.9 19.8 35.1 18.5-1 4.6-3.5 20.2 15.3 33.4l2.5 99s-8.3-7.6-13.7-13c-23.6-23.6-59.2-40.7-57-27.4l1.7 11c3.7 22.4 33.8 46.7 54.4 58.9 7.3 4 11.8 8.4 11.8 8.4-38.4 41-59 84.9-64.1 128.4-4.8 40.4-8.7 76.8-12.5 113.9-15.7 186-95.5 232.8-99.3 242l-1.5 24.7-22.3-1.6-25.7 22.2c84.2 43.5 133.3 96 132.6 97 67.2-44 125.1-93 179.9-143.5l-1-414.3s-4.6 1.7-5.8 1.7c-4.2 0-4.7 1.8-6.1 9.8-.8 4.2-3.3 8.1-5.3 10.9-3.8 5.3-2.4 2.6 2.3 4.5 10.8 4.4-3.2 24.1-18.5 26.6-11 1.7-17.2 3.7-19 6.3-23.3 20.3-46.4 23.5-64 16-8.5-3.6-17.9-9-21-18-7.2-20.3 7.7-49.6 16.5-66.5 16.1-31 42.8-54.4 42.8-54.4l-4.3-4.7s5.2 0 6.2-.3c23.1-8.4 24.5-8.5 28.8-14.6a238 238 0 0 0 17.1-29.3c11.9-30.9 13.5-32.9 13.5-53.1 0-16.4-1.1-27.4-4.3-28.3-18.2 14-36.6 46.5-47.3 65.7-3.7-28.4-4.8-78-4.8-78 3.8-4.3 25.7-1.9 20.8-37.5 19.3 8.7 39.5-4.6 38.7-23.1-1.4-28.8-23.6-28-41.6-24.3 8.6-17.4-7.8-38.4-24.2-37.4zm-.4 2.5c23.8.7 28.5 27 14 41.8 0 0-9.5-7.3-14.5-11.4-4.8 3.7-6.1 7-11.4 10.8a26.2 26.2 0 0 1-10-20.4c.3-12.2 12.6-21.1 22-20.8zm-542.6.8c96.1 53.7 216.6 57.5 327 2.8l-1.4 9-12 6.9 6.8 12.5 3.7-1.8.1 8.3c-90.9 49.1-243.2 59.3-362.4-22.3l10.3-4.8 4.6 3c4.4 2.7 11.5 7 16.3 9.1l7.2-10.4s-11-6.7-10-7.1l9.8-5.2zm8.5 16.4L3005 363l13.8 7.4 5.2-12.6zm-52.3 1.4c148 93 285.8 65.3 368.5 27.3l1 9.9c-106.7 45.4-247.1 57.6-380.8-32.2zm348.4 6-13.2 5.3 5.2 12 13.6-5.8zm-366 2.3c120.2 77.5 249.2 92.7 388.2 35.9l5.3 14.8c-135.4 54.4-278.3 48.1-408.8-44.3Zm92.3.4-5.3 13 14.9 5.7 4.3-12.8zm253 5.4-13 4.2 4 12.4 13.5-4.6zm-230.2 3.5-3.2 13.1 15.2 4.3 2.7-13.1zm550.8 21.5c2 22.3-31 33-43.2 12.2L3574 390l-9.7-9.1c13.2-20.9 40.2-10.8 42 10zM2922 370.2l35.9 24.6-26 40.5-38.7-26zm621.8 1 22.8 19.8-21 24.5-21.3-21.6zm-14.2 6.8-12.8 14.9 13.9 14.7c-16.5 17.5-41 6.7-40.8-14.7.2-16.3 25.2-32.2 39.7-15zm-265.6-5.8-13.7 4.1 3.2 12 14.1-3.6zm-184.6 3.8-2.5 13 15.7 3.3 2.7-12.8zm162 2.2-14.5 3.2 2.5 12.8 14.6-3zm304 3-12 11.8 12 12.5 12-12.5zm-440.8.4-1.8 13 16.5 2.2 1.2-13.1zm111 1.8-14.9 1.7 1.5 12.7 15.4-1.9zM3128 385l-.2 13.4 14.5 1.1v-13.2zm63.7 1.3-14.5.5v12.9l14.9-1-.4-12.4zm-264.6 0a15.4 15.4 0 1 0 0 31 15.4 15.4 0 0 0 0-31zm240.3.5-14.3.1V400h14.8l-.5-13.2zm377.8 0 6.3 6.3-6.3 6.2-6.4-6.2zm-618.1 5a10.1 10.1 0 1 1 0 20.3 10.1 10.1 0 0 1 0-20.3zm-55 .8 20.6 16.7c-6.5 12.5-27.2 38.9-27.2 38.9l-38-30.4 20-11.2a15.2 15.2 0 1 0 14.5-8.2zm-11.4 10.7a10.2 10.2 0 1 1 0 20.4 10.2 10.2 0 0 1 0-20.4zm697.8 4.8s5.6 2.1 7 4.2c11 17-.5 37-19 36.7-21.5-.5-27.2-27.5-12.3-38.6l12 11.4zm-560.5 7 42.5 16.2-16.1 46.2-46.5-19zm-174.7 4.7c173.4 156.2 419.7 167.5 598.8 63.8l10.9-.3 5.8 6c-204 120.6-457.6 94.4-628.7-60.9zm477.5 9.3 13.6 45.7-47 12.4-10.5-46.3zm-495.3 1.7c52.7 50.7 127 95.1 214.4 120.3l2.2 18.8c-92.8-27.9-162.8-65.1-231-129.7zm203.8.7a15.2 15.2 0 1 0 0 30.4 15.2 15.2 0 0 0 0-30.4zm-75.6 3.4 43.8 23.2-21.8 43.7-46.6-25Zm75.4 1.6a10.2 10.2 0 1 1 0 20.4 10.2 10.2 0 0 1 0-20.4zm72.6 6.2 42 6.1-1.9 46.7-49.1-5.9c1.9-16.4 9-46.9 9-46.9zm203.4 1.2a15.2 15.2 0 1 0 0 30.4 15.2 15.2 0 0 0 0-30.4zm-.2 5a10.2 10.2 0 1 1 0 20.4 10.2 10.2 0 0 1 0-20.4zm-342.5.6a15.2 15.2 0 1 0 0 30.4 15.2 15.2 0 0 0 0-30.4zm269.3.1 6 47-46 2.2-2.6-46.8zm329.7 4.2h6.6c.6 40.4 3.8 87 8.4 121.6.7 5.2 1 6.7.5 7.6-4.5 8-9.7-2-11.8-25-.5-6.3-1.3-15.5-2-21.6-2.4-18.3-1.7-82.6-1.7-82.6zm-777.4.7c-69.2 43.2-184.2 146.2-183.6 148.6l.5 396 9 .5 7.4-14.5c-11.5-3-8.2-24.5 13.8-28.9 3.8-.7 15.2-4.6 18-6.7 16.8-12.8 44-20.3 63-15.3 27.8 7.1 33.5 27.6 20.2 63.1-10.6 28-31.5 63.9-51.1 74-1.6 1-5 2.6-5 2.6s4.5 4.2 6.1 5.2c54-31.2 81.4-143.2 80-213 2.1-71.3 14.4-143 43.2-195 47.7-86.2 110.7-120.8 110.3-121.2 0 0-84.9-51.5-131.8-95.4zm178.3 0a10.2 10.2 0 1 1 0 20.4 10.2 10.2 0 0 1 0-20.4zm420.1 1.7 16.4 43.6-45.6 18.6-16.4-45.8zm-262.2.2a15.2 15.2 0 1 0 0 30.4 15.2 15.2 0 0 0 0-30.4zm92.6 3.8a15.2 15.2 0 1 0 0 30.4 15.2 15.2 0 0 0 0-30.4zm-92.8 1.2a10.2 10.2 0 1 1 0 20.4 10.2 10.2 0 0 1 0-20.4zm92.7 3.8a10.2 10.2 0 1 1 0 20.3 10.2 10.2 0 0 1 0-20.3zm155 5.1a15.2 15.2 0 1 0 0 30.4 15.2 15.2 0 0 0 0-30.4zm-.2 5a10.2 10.2 0 1 1 0 20.4 10.2 10.2 0 0 1 0-20.4zm-322 .8 45.6 11.7-10.6 47.8-51.4-13.7zm576.4-1.2c7.4 23.3-6.2 53.3-7 55.2-8.2 23.5-18.2 42.7-21.8 43.8-3 1.2-4.5.4-4.4-2.5 0-4.4 10.1-34.5 18.1-53.8 2-4.7 6.5-19 6.5-21.5 0-3.6-3.4 2.3-7.2 11.3-7.4 18.1-18 37.4-20.4 55-1.6 14.3-4.4 12.2-6.4-4.8-2.7-23.7 2.5-35.8 29-68.8 6.4-7.8 13-16 13.6-13.9zM3267.2 487l13.1 46.8-53.7 9.2-8.4-47.4zm-225.2 4.8a15.2 15.2 0 1 0 0 30.3 15.2 15.2 0 0 0 0-30.3zm80.4 3 48.7 2.8.4 48.6-52.8-2.3zm-80.6 2a10.2 10.2 0 1 1 0 20.3 10.2 10.2 0 0 1 0-20.3zm204.4 4.3a15.2 15.2 0 1 0 0 30.4 15.2 15.2 0 0 0 0-30.4zm-101 3.9a15.2 15.2 0 1 0 0 30.4 15.2 15.2 0 0 0 0-30.4zm100.9 1a10.2 10.2 0 1 1 0 20.5 10.2 10.2 0 0 1 0-20.4zm-101 4a10.2 10.2 0 1 1 0 20.4 10.2 10.2 0 0 1 0-20.4zm332.2 2.9 2.5.1c11-.1 47.6 26.2 57 42.2 7.8 14 3.8 19.7-5.2 7-12.4-13.7-35.3-34.2-38.2-34.2-3.1 0 1.2 4.5 15.8 18.7 14.4 14 29.7 32.4 29.6 35.7 0 2.1-2.8 1.9-7-.7-9-5.5-16.8-11.1-20.8-15-2.4-2.2-7-6.4-10.3-9.2-13.5-11.8-28.8-39-24.5-44.3.2-.2.6-.3 1-.3zm-679.8 3.9c9.4-.3 20 5.7 20.4 16.6.3 7.7.9 8.3 7.8 8.4 6.7.1 26 2.4 26 2.4v21.6s-9.2 0-20-.5c-18.2-.9-18-.9-20.4 7.1-1 3.3-2.2 4.8-5.9 7.2-16.3 10.8-32.1-8.7-22-27.2 3.5-6.3 3.7-8.4 1.3-12.2-4.9-11 1.6-22.9 12.8-23.4zm4 11a9 9 0 0 0-6.2 2.9c-2.7 2.7-2.7 10.3 0 14.7 2.5 4.3 2.5 5.4-.5 8.2-5.3 5-5.5 14.7-.3 18.4 4.7 3.4 9.7-1 9.7-7.8 0-7.5 5.2-7.3 5.2-7.3l34.3.6v-5.6l-24.8-1.3c-3.4 0-7-.3-9.7-2.1-2.8-2-6-5.4-3-9.5 4.3-5.8.5-11.2-4.7-11.2zm-74.2 12.8 16.2 27.6 19 .7 1.6 16.8 23 14.8-23.5 13.8-1.2 17-17.9 2.2-16.6 20.8-15.9-20.8-17.5.1-.3-17.3-24-15.5 26.3-14.9-.3-19.8 18.8-1.3 12.3-24.2zm574 12.6.8 16.6-26.6 4.8 3.4-17zM3130.8 570l35.9 1-2 234.3h-8.5l-.1-9.2-11.5.4-11.7-7zm-403.5 6-21 26.5 25.4 22.3 22.5-26zm414.3 3.5v10.8h15v-10.8zm-413.8 9.2 14.8 10.8-11.3 15L2717 602Zm574.2 6.1-.4 128.2c-49.3 38.7-64.6 106.7-64.6 106.7l-20-1.2 50.8-225.8zm-267 2.9c-44.3 21-89 37-132.9 87.3 17 15.3 35 31 51 57 36.6-5.4 77.3 1.1 121.7 18.6zm106.6 2.8v11.2h15v-11.2zm-498.2 16.1c1.1 3.4 1.5 7 1.5 7 32.5-2.6 24.2 35 3.5 36.4-2.5.3 2 6.7 6.8 8.7 12.3 5.2 21.2 1.8 29.2-9a67 67 0 0 0 6.6-9.4l20 10.7s.6-.3-3 8.9c-6.4 16.7 3 37.3 10.3 22.3 3.9-8 15.3-12.5 23.1-9.2 9.2 3.8 12.4 20.3 6 30.6-2 3.2-2 3.8-.8 6.7 1.8 4.4 2.9 15.6 1 19.2-2.5 4.7-5.3 5.8-10.8 2a66.6 66.6 0 0 0-25-11.1c-23.1-4.4-27.6-12.5-36.8-31.5-27.4 8.2-68.4-9-63-49.6 2.5-9 3.2-26.2-1.3-29.8-9-6.9.8-16.8 14.3-18.4 11-1.1 16.4 9.4 18.4 15.5zm387.5-11.8 35.6 149.2c-39.1-14.3-77.5-25.5-111.4-17.1-15.6-24.9-28.8-37-46.1-53.2 33.6-40.5 76.3-63.2 121.9-78.9zm-403 7.4c-2.4 0-5 1-7.7 3.3 0 0 2.4 2 3.7 4.8 2.1 4.4 2.1 4.4-.2 14-11 39 14.9 64.6 51.5 53.4 9-2.8 8.7-2.5 11.3 8 4.2 17.5 16.5 26.5 41 29.8 1.5.2 4 .7 6 1.9 10.8 6.8 6.3-2.3 3.4-5.8a30 30 0 0 0-6-5.6l4.9-2.9c6.9-3.7 9.5-18 3.8-21-5.2-2.9-14 1.4-14.1 6.7 0 9.7-12.3 10.7-23 2.7-13.8-10.4-1.6-36.5-1.5-36.5l-7.8-3.4c1 .9-16.4 25.6-37.7 17-15-6-25.5-23.3-18.6-28.3 5-1.3 11.1 1.4 15-1.5 7.6-6 1.4-16.5-9.5-16.1-2.3 0-7.5 1-7.5 1 .6-4.8 1.8-8.3 1.2-13-.6-4.7-3.9-8.5-8.3-8.5zm513.8 11.3v9.2h15v-9.1zm-.1 19v9.4h15v-9.5zm0 20.4v9.6h15v-9.6Zm0 19V692h15v-10.2zm0 19v9.6h15V701zm0 19.5v9.7h15v-9.7zm-488.7 9.5 12.7 21.4 15 .6.6 14.7 25.6 19.5-22.4 16-1.6 15.8-17.7.6-14.4 24.2-17.6-21.2-14.2-2.3-1.6-19.3-21.9-16.4L2616 767l1.7-17.1 16.7 1.4zm831.8 10.2c1.4 0 2.8.4 4.5 1.2 5.3 2.7 7 3 20.7 3.7 16 .8 21.7 2.2 29.6 7.5 4.8 3.2 5.1 3.2 10.2-.2 22.5-14.9 48.2-1.3 50 26.4a37 37 0 0 0 4.1 16.3c2 4.3 4 7.6 2.8 10.3-3.6 8.3-20.9 8.8-30.3-3.5a7.2 7.2 0 0 0-5.8-2.6c-4.7 1.7-16.6-7.7-16.5-8.1-1.1 6.6-1.7 11.8-2.8 21.3l-21-.3s-.5-3.8-1.4-17.3c-1.2-15.4-5-19.9-10-11.5-8.4 14.3-31 8-32.2-9-.5-5.9-.8-6.6-4-9-10.6-8.2-7.5-25.4 2-25.2zm-343.1.8v8.6h15v-8.6zM3487 750c-4.2.3-1.8 7.7 5 11.6 4 2.2 4 2.2 3.5 9-1 12.3 11 18.3 16.2 8.2 1-1.7 1.3-4 1-5.4-2.3-9 17.1-6.5 21.8 2.7 1 2.2 2.2 7.8 2.8 13.5.6 5.4.7 11.7.7 11.7h6.2s0-3.7.3-7.3c1.5-15.3 8.3-25 17.4-25 3.9 0 4 .8 1.3 5.8-4.6 8.5-.2 14.7 10.6 14.8 6.8 0 6.8 0 9.3 4.9 2.8 5.3 5 7 7.6 6 1.8-.7 1.8.4-.6-17.8-3.6-27.1-19.3-34.4-41-19-6.2 4.3-7.6 4.2-13-1.1-8.2-8-13.4-9.7-29.4-10.3a92.8 92.8 0 0 1-19.7-2.3zm-516.4 7.8c-3.6 0-7.7.8-11.3 1 4 21 5.8 42 7.7 62.9 18.3-3.2 42-.3 73.3 14.3 19.3 9 42.7 24.3 67.3 41.6a236.8 236.8 0 0 0 84.4 35.5c32.4 7 58.4 6.4 57.7 4.9-1.4.2-11.7-51.4-10.3-62.4-44.8-4.1-88-20.7-121-43.2-43.8-29.7-94.4-55.6-147.8-54.6zm170.9 1.7v8.7h15v-8.7Zm-493.3 1.7-23.7 24.8 25.8 24.5 22-25zm-.6 11.3 13.5 12.9-11 13.8-15-13.1zm335.3 2c3.2 0 6.3 2.3 16.8 8.1 8.7 6 15.8 9.9 13.2.4 2-2.8 11.7 6.1 23.2 11.8 13.9 11 14 8.4 15.7 2.9 1.9-4 4.4-1.3 15.5 8.9 14.5 13.4 13.2 13.5 16.1 10.1 3.3-6.3 4.4-6.2 16.3 7.4 12.3 13.7 14.9 16.6 17.5 10.8 4-3 6.1-.1 22.8 15.6 8.2 8.2 10.2 6.9 11.7 1.4 1.6-5.7 2-4.4 16 6.6 16 12.8 17.6 13.8 18.2 9.3 1-7 6-4.5 22.6 7.3 10 7.2 13.8 9.2 16 7.4 2.1-3.9-5.5-11.3 10.6-4.3l4.5 23.5-5.6-1.6c-3.4-1-11-3.6-8.1 3.7 1.6 4.3-2.5 3.8-15-3.7-18-10.7-21.3-13.2-22.6-11-2.4 8-2.1 8.6-14.2-1-14.1-10.6-17-13.6-19-10-.2 8.1-4.1 6.5-17.3-4.9-11-9.7-13.4-14.8-18.4-7.3-1.4 2.6-2.8 2-4.6.6a258.1 258.1 0 0 1-23.2-22.5c-2.8-3.1-4.5-2.1-6.9.5-2.2 2.4-2.3 1.7-9.5-5-17.2-15.6-20.3-19.6-22.7-17.4-2 3.7-.1 8.7-13.3-1.7-16.5-11.9-23.7-17.2-22.6-9.4-2.8 3.5-.8 4.2-17.3-5-15.7-8.6-17.7-11.2-20-8.3-1.5 4.8-6.8 3-6.8 2.8l-3.2-23.8h5.7s5.4-2.2 7.9-2.2zm-126 2c-1.3 3.7-10 25-10 79 1 1.4 21.4-19.5 22.4-38.9 1-18.4-12.4-40.2-12.4-40.1zm284.6 1.5v9.9h15V778Zm-283.6 7.8c19.1 30.3-2 58.9-7.2 60.9a276 276 0 0 1 7.2-60.9zm501.5 25.5c-31.4 19.8-26.3 73.3-11 87 1.2 0 11.1-57.8 11-87zm-4.3 6.6-8.5 68.9c-11-12.2-13-48.4 8.5-69zm198 11.6 16.6 20.9 14.8 1 3.3 15.1 21.5 17.6-21.6 14.6-1.9 16.7-16 1.6-15.9 25-15.5-24.5-14.9-1.6-.4-16-23.4-17.3 22.3-13.4.4-18.2h17.5zm-587.6 6.5c-10.5 50.2-35.7 84.5-71.3 107.5l.2 5-59.8 24c-13.1 61.2-36.7 121-86.1 176.9l13.8 28-66.9 23 95.7 164c6.6 0-46.3 25.1-110.3 18.6 40.5 99 48.8 201.5 26.4 291.3l313.3-1.3-239.4-469.7-4-7.6c-3.2-6.2 127.3 18.3 99.6 139.4-.4 2.8.6 3.2 2.2 2 25.4-21.8 194-82.2 328.6-2.4l40-16.6c-19 66.7-40.7 112.5-77.2 152.7l6.2 94.8a403.3 403.3 0 0 0 144-278.8c29-14.2 54.3-30.3 81.4-45.5l3.6 1.2 17.6-10.5c-56.3-61.5-171-120.3-244.6-135.8l4.3 20.9c-40.6-11-71-13.3-102.5-16.7l-4.9-220.7-40.8-24-1.3 243.4c-30.6.3-100.9 12.4-100.9 12.4l3.2-20.8-32.2 6.6-.6-20.3 36.4-10.4L2992 843zm4.4 5 16.8 3.4-52.2 219.3s-29.3 8-31.1 7c-2.3-41.2-3.2-125-3.2-125 51.5-43 59.6-73.4 69.7-104.7Zm-358.4 16c7.9 0 16.3 5.7 16.9 10.9 1.3 3.2 2.4 4.5 4.6 4.8 13.1 1.8 13.6 5.3 14 13-2 14.5 7.8 2.3 10.6-12.2.3-1.5.1-12.6.1-12.6l16.1-.1.8 13.4c1.4 11.1 6.2 20.2 9.5 14.3 11.4-20.4 37.3-10 33.2 9.6-1 4.7-1 5 2.3 8.5 5.1 5.8 7 11.8 5.3 17.1-1.6 5.2-5.3 6-13 2.9a60 60 0 0 0-20-2.4c-16.9-.4-18-.8-24.5-7.1l-4-4-7.2 4.2a33.3 33.3 0 0 1-35.2.8c-8.2-4.2-13-14.2-14.2-29.9-.2-8.3-2.6-14.3-7.7-16.3-2.8-2.6.3-7.8 5-12.5 2.2-1.6 4.8-2.3 7.4-2.3zm940.3 2.5-22.2 27.6 26.4 23.6 24.5-28.9zm-513.2 4 30.6 17.5 4 217.6-34.7-1V863.4zm-426.3 3c-2.3.2-.8 4 .9 9.7a26 26 0 0 1 1.4 11.8c-3.2 23.8 24.1 36 43.8 19.4 5.3-6 6.1-5.6 10.5.9 5.4 6.7 13.3 9 29.8 8 7.6-.5 12.6 3.5 15.9.9 2.3-1.8 0-6.3-4.5-9-2.8-1.6-3-1.8-2.4-7.4 1.4-14.1-10.2-17.9-18.5-6-6.8 9.9-17.1 3.4-20.4-12.9-2-12.5-3.6-12.3-5-1.4-1.7 13.3-19.1 27.6-26 21.1-2-1.9-2-1.4 0-8 2.5-8.6.5-11.8-8.8-14a6.6 6.6 0 0 1-4-2.8c-4.8-7.7-4.6-10.3-12.7-10.3zm941.7 5 14 12.2-12 14.3-15-11.5zm-505.8 7.8v10.3h13.1v-10.3zm0 20.7v10.9h13.1V900Zm79 12.4 44.4 163.9c14-5.6 94.8-41.5 132.9-87.4-1.5 0-34.7-32.4-46.3-53.4-38.1 6.3-81.9-1.7-131-23zm-79 6.5V929h13.1v-10Zm87.3 2.8c34.8 10.3 79.3 24.6 120.2 17.4 10.6 19 26 34.6 43.2 49-31 33.7-75.9 59.5-122.3 79.3zm329.8 4c1.7 0 3.5.6 5.2 2.1 5.5 4.9 9.7 6.6 21 8.4 18 3 31.9 14.3 35.8 29.3 1.6 6.4 2.5 6.7 11.5 4.4 34.2-8.6 60.5 19.8 52.4 57.5-2.9 13.2-3.7 14.8.2 20 8.7 9.4 10.6 9.5 1 17.8-8.6 7.7-25.7 4-29.4-8.6-3.5-7-3.4-7.5-9.1-8.4-22.3-3.5-21.4-34.4-.4-38 1.7-.2 3 .1 4-.3 5.9-2.7-6.6-16.7-16.8-14.6-12.7 2.7-19 10.8-24 23.5l-19.8-11.4c5-10.3 8.6-23.6 4.3-31.8-3.5-7-8-7.2-9.3-.6-3.2 15.6-22.6 20.3-35.3 7.6-7.1-7.1-8-14.7-2.7-25 3.4-6.7 3.5-7.1 2-10-5-9.7 1.8-22 9.4-22zm-417.1 12.6v10.5h13.1v-10.5h-13.1zm419.5.9c-4 0-4 4-.3 8.7 3.3 3.4 4 5-.6 7.9-5.7 5.3-7 13.3-3 19.4 6 9.2 19.7 4 18.1-6.7-1-7.6 4.9-11 14.4-8.2 13.8 4.2 20.3 19.6 15 35.1-1.1 3-3.1 9.8-3.1 9.8l4 2.5s4.9-7.8 6.8-10.1c15.6-19.3 52.7-9.5 48.5 14.6-.6 7.6-.6 8.6-8.8 6.2-5.5-2.8-10.8 3-10.6 10.4.3 6.5 6 11.8 13.9 10.8 6.3-1.2 7.9-1 7.4 7.5.6 5.8 2.8 9.7 6.7 11.7 9.3 4 14.2-1.4 6.7-9.2-4.6-4.8-4.3-12.1-1.4-19 3.4-8.2 1.6-26.3-3.6-36.4-7.5-14.7-28.6-20.9-46.2-13.5-8 4.3-9 5.3-9.7-2.3-4.4-18.7-18.5-32.9-36-34.1-6.8-.5-13.9-4.2-18.2-5.1zm-419.5 19.1v9.7h13.1v-9.7zm0 19V988h13.1v-10.7Zm0 21v10.6s7.2-.2 13.1 0v-10.7zm428.6 17.1 14.4 21.3 15.9 1 1.9 17.2 24 15-20.8 13.1-.2 16.6-20 1.7-17.5 23.4-15-20.7h-15l-3.6-18.3-26.5-13.5 27.2-15.5-.7-19.4h18.5l17.4-21.9zm-428.6 2.5v11h13.1v-11zm0 20.2v10.9h13.1v-11zm420.5 8-20.5 27.5 27.7 23 22-27.8zm-420.5 11v12h13.1v-12zm422.7 1.5 14.3 11-10.2 13-14.3-10.8zm-422.7 20.6v10h13.1v-10zm-390.6 1.2c-25.3.2-49.3 41.1-55 60.5-6.8 24.9-7.8 69.9-1.4 71.1 22.7-16.3 33.5-44 50.5-64.7 2.7 24 2.2 70.2 2.2 70.2s-10 5.3-15.5 13.7c-4 7-5.2 15.3-1.8 23-12.6-4-35.5.5-36.8 23.8.9 32.8 36.7 28.2 36.8 27.7-.8-.2-7 35 24.7 38.6 11.4 1.4 31.5-7 25.5-38.8 20 3.3 37.4-7.8 37.6-27 .2-13.3-9.8-24.7-27.1-24.7-3.6 0-11.2 1.6-11.2 1.6.2-1.9 6.9-22.4-16.4-37.3l-3.6-95s8 8.8 11.6 12.1a178.7 178.7 0 0 0 43.4 30.9c17.4 9.1 15.2 6.9 12.2-10.5-8.2-26.2-25.4-46-61.6-70.6a24.5 24.5 0 0 0-14.1-4.6zm2.5 2 5 134.3h-7.5l-6.4-134.1zm744.6 4.5h2c16.4 1.4 20.6 19.8 13.3 27.9-3 3.2-4 3.9-2.4 5.9 7 8.9 3 23-3.9 25-22 7-25.4-5.1-25.4-19.4l-34-1.2.1-20 37.7.8c-2.9-9 2.6-18.6 12.6-19zm-760.5.2h.5c3.5.3-.2 9.8-10 24.2-6.7 9.7-16 26.9-18.7 33.8-6.1 15.2-10.2 42.4-6.1 37.4 3.6-11.4 4-16.1 7.2-24.3 4.1-10.6 23.5-45.7 27.4-49.1 3.2-3 4.1-1.2 4 8.7-.1 22.2-10.7 45.5-35.8 72.9a79.3 79.3 0 0 1-10.1 9.5c-2.4 0-2.4-5-2.3-15.6.1-42 15.7-79.4 39.7-95.5 1.8-1.2 3.3-1.9 4.2-2zm25.5 2c11 3.2 30.7 20.9 38.9 30 9.4 10.1 22 38.3 19.8 42.6-.7 2-2.3 1.6-7.8-1.5-35-19.7-60.1-44-53.6-51.9 1.9-2.2 9.4 2.4 19.5 11.7 6.8 6.1 13.8 12.3 20 18.4 10 9.7 12.1 11.2 6.2.4-5.3-9.7-20.4-26-38.7-39.7-7.4-5.6-9-10.1-4.3-10zm737.1 5.6-1.2.2c-6.9 3-4 11.9-4.7 18.7l-38-1.3-.1 5.3 35.5 1.9c.6 5.4-2.2 17 2.4 18.9 10 4.1 15.4-8.7 7-16.4-3-2.7-6.3-3.9 2-7.6 5.5-4.7 6.4-14 1.7-18a7.3 7.3 0 0 0-4.6-1.7zm-479.1 1.6-2 14-22 5.5-.5-15zm259 5c81.1 21.8 171.3 71.4 229.9 127.4l-11.8 7.7a554.5 554.5 0 0 0-214.8-120zm-139.7 2.1c133.5-.4 255.3 51.6 353.6 135.4l-16.1 10.1c-89.6-74-189-123.4-322.5-129.3-87.3-3.9-187 18.5-285.2 72.5l-7.3-13.3c95.4-52 189-75.1 277.5-75.4zm-10.5 20.1 52.5 1.6-3.2 48.7-47.8-1.5zm-56.5 3.5 7.4 47-45.7 8.6-13-47.2zm166.3 6.2 52.2 14-17.3 47.9-45.8-13zm-83.6.7a15 15 0 1 0 0 30 15 15 0 0 0 0-30zm0 5.2a10 10 0 0 1 10 9.8 10 10 0 0 1-10 9.9 10 10 0 0 1-10-9.9 10 10 0 0 1 10-9.8zm-103.6 0a15 15 0 1 0 0 30 15 15 0 0 0 0-30zm0 5.3a10 10 0 0 1 10 9.8 10 10 0 0 1-10 9.8 10 10 0 0 1-10-9.8c0-5.4 4.4-9.8 10-9.8zm206.6 6a15 15 0 1 0 0 30 15 15 0 0 0 0-30zm-290.9 1.8 15.5 45.9-44.3 17.9-16.6-45.3zm290.9 3.4a10 10 0 0 1 10 9.8 10 10 0 0 1-10 9.9 10 10 0 0 1-10-9.9c0-5.4 4.4-9.8 10-9.8zm86.7 11 47 24.8-24.3 43.9-43.8-22.8zm-393.2 4a15 15 0 1 0 0 30 15 15 0 0 0 0-30zm177.4 1.4 2.2 46.3-41.6 3-7.6-46zm49.9 2.4 47.4 6.6-11.2 44.6-42.9-6.9 6.7-44.3zm-227.3 1.3a10 10 0 0 1 10 9.9 10 10 0 0 1-10 9.8 10 10 0 0 1-10-9.8c0-5.5 4.4-9.8 10-9.8zm155.3 6a15 15 0 1 0 0 30 15 15 0 0 0 0-30zm-75.8 2 12.3 45-45.7 13.1-14-43.4zm166 .6a15 15 0 1 0 0 30 15 15 0 0 0 0-30zm-90.2 2.6a10 10 0 0 1 10 9.8 10 10 0 0 1-10 9.9 10 10 0 0 1-10-9.8c0-5.5 4.4-9.9 10-9.9zm90.2 2.6a10 10 0 0 1 10 9.8 10 10 0 0 1-10 9.9 10 10 0 0 1-10-9.9 10 10 0 0 1 10-9.8zm160.4.1a15 15 0 1 0 0 30 15 15 0 0 0 0-30zm-81.1 4.4 45.8 15.7-18.3 42.8-43.8-16.7zm81.1.8a10 10 0 0 1 10 9.8 10 10 0 0 1-10 9.9 10 10 0 0 1-10-9.9 10 10 0 0 1 10-9.8zm-344.6 1.6a15 15 0 1 0 0 30 15 15 0 0 0 0-30zm0 5.2a10 10 0 0 1 10 9.8 10 10 0 0 1-10 9.9 10 10 0 0 1-10-9.9 10 10 0 0 1 10-9.8zm277.6 8.7a15 15 0 1 0 0 30 15 15 0 0 0 0-30zm0 5.2a10 10 0 0 1 10 9.8 10 10 0 0 1-10 9.9 10 10 0 0 1-10-9.9c0-5.4 4.4-9.8 10-9.8zm-536.7 5.3c12 .5 21 11.2 21.6 22.4.4 8.5-10.5 19.7-10.5 19.7l-12.6-11.7-12.2 11.2c-2 .6-11.5-15.4-8.6-23.7 3.8-10.8 11.5-18.4 22.3-18zm681.2 0 36.2 29.6-18.8 11.4a15.1 15.1 0 0 0-14.5-19 15 15 0 0 0-3.4 29.6l-8.7 5-19.2-16.1zm-57.5 79.3-16 6.6c-98.8-65-234-100.4-388.5-35l-5.3-12.9c114.7-47.7 259.4-62.6 409.8 41.3zm-8.8-64.8 39 23.8-24.8 37.9-38-24.3zm-11.7 73.5-16.3 6c-120.6-77.4-249.1-73.3-364-26.8l-1.8-11c135.3-58.5 271-39.8 382 31.8zm80.9-60.8a10 10 0 0 1 10 9.8 10 10 0 0 1-10 9.8 10 10 0 0 1-10-9.8 10 10 0 0 1 10-9.8zm-701.7 17.7-13.4 13.6 12.3 13.7s-4 3.3-6.7 4.8c-16 8.8-33.6-5-32.8-20 1.2-21.6 27.4-32 40.6-12zm638.1-10.3a15 15 0 1 0 0 30 15 15 0 0 0 0-30zm-583.8.6c12 0 21.2 9.2 22.4 19.8.9 8.4-3.5 16.5-13 22.2-12.7 7.7-27.6-4.8-27.3-5.6l10.8-10.7-13-13.2c-.4-.3 8.6-12.6 20.1-12.5zm-37.3 2.6 22 22-23.3 21.8-21.7-21.8zm582.6 58.6-12.4 5.7-16.9-10.2-5 9.6 9.4 6-9.8 3.6c-112.6-63.3-240-45-324.6-3l.8-6.5 9.2-4.6-3.4-11.7-5 1.4-.3-12.9c120.8-54.4 258-42 358 22.6zm38.5-56.6c5.6 0 10 4.3 10 9.8a10 10 0 0 1-10 9.8 10 10 0 0 1-10-9.8c0-5.5 4.5-9.8 10-9.8zm-621.6 7.8-11.8 11.8 11.7 12.5 11.5-12.1zm368.8 2.6-15.4.7.8 12.6 15-.4zm10.6 0 .2 12.7h14v-12.5l-14.2-.1zm24.8.3-.7 12.5 14 .7 1-12.5zm-60 1.6-15.8 1.7 1.7 12.7 15-1.8zm85.9.2-1.1 13 14.3 1.6 1.9-12.4zm-430 0 6.8 7.4-6.8 6.8-7.3-7.1zm317.4 3.9-15.2 2.4 1.6 13 14.9-2.9zm138.4 0-2.5 12 14.1 3.5 2.4-12.3zm-163.4 5.3-12.8 3.4 2.8 12.7 13.5-3.3zm187.7.5-2.7 12.2 14.5 4 3-11.8zm-208.8 6-13.4 4.8 3.4 11.8 13.7-4.6zm233.7 1.4-4.4 11.8 12.5 5 5.5-10.7zm-255.8 7-12.8 5.1 5.3 11.7 12-5.5zm-262.2.3 12.9 12.8 15.3-13.8c13.3 11.8 13.1 39.4-10.5 44-20.7 4-39.5-26.8-17.7-43zm541 2.5-5 10.8 14 6 4.7-10.3zm-394.9 69.3 174.7 297-27.6-.6-169-286.9zm-28.7 11.4 9.7 15c-19-15.1-46.7-2.4-45.5 16.6.9 8.4 8 13.6 8 5.4-.8-8.5 11.3-16 20-15.5 16.3.2 26.2 21 15 31.3-7.4 6.8-17.3 6.5-14-2.8.6-3.2.3-4.4-1.2-5.7-4.6-4.3-13.2 1.3-11.1 7.3 1.4 4 1.8 5-3 8.3-18.5 13-5.6 38.6 16.8 27 4.6-1.7 6.4-2 8.5-1.2 9.4 3.6 15.7-4.5 6.9-8.7-5.2-2.4-5.3-6.6-.3-10 10.5-7 27 4 27 18.2 0 10-13.3 17.4-26 14.5-7.4-1.7-8.3 3.4-1.4 8.7 13.3 10.2 33.3 1.7 39.3-16.7 1.9-5.8 1.6-7 1.6-7l17.8 29.4s-5.5-2.6-8.8-3.6c-16.8-5.2-35.6 5.7-35.7 20.6 0 7 4.1 9.7 6.4 4.2 5.4-12.8 17.2-17.8 29.3-12.4 11.1 5 16.2 16.3 11.9 26.4-4.6 10.6-20 13.7-18.2 3.7.8-4.8-2-7.7-7.2-7.2-2 .2-4.4 5.8-3.7 8.5.6 2.5.1 3.1-6.4 8.3-15.6 12-3.6 32 15.8 26.2 3.3-1 4.5-1 7.4.5 7 3.4 14.5 1.3 14.5-4.1 0-3.7-1.7-5.2-6-5.2-6.7 0-5.3-7.5 2-11.2 18.6-9.3 37.5 14 26.2 32.3-4.8 7.8-7.9 8.6-25.2 6.7-2.8-.3-4 1.6-2.4 3.8 5.1 7.3 20.4 9.6 29.2 5.6 9.6-4.4 15.4-15.3 16-27l19.6 34.2c-15.2-16-41.4-9.8-45.6 13 0 5.7 5.2 8.7 7 4 8-20.6 38-14.3 38 7.9a13 13 0 0 1-3 8.7c-5.6 10.7-19.7 13.3-17.1 3.7 1.1-3-1.2-6.1-5-7-3.8-1-6.3 2.2-6.2 8l.1 5.7c-7 3-11.5 8.8-13 17.4l-136.9.3c16.3-94.9 12.4-180.5-18.7-261.5l-6.5-17.2 24.1.6c5.9 5 27.9 3.1 36.5-4.7zm23.3 37.2 14.1 25.4a47 47 0 0 0-20.9-6.4c4.8-7 5.1-13.3 6.8-19zm-37.2 27a9.3 9.3 0 1 1 0 18.6 9.3 9.3 0 0 1 0-18.6zm97.5 75.8 13.6 24.2c-6.6-2.8-12.2-5.5-22.6-5.8 3.8-4.4 7-11.8 9-18.4zm-39.3 26a8.8 8.8 0 1 1 0 17.7 8.8 8.8 0 0 1 0-17.7zm98.6 75.5 20.1 35.6c-7.9-4.5-16.4-10.3-27-9.1 5-10.9 7.8-16.8 7-26.5zm-26.7 44.4-21.6.1c4.4-18.8 21.8-14 21.6 0zm20.4-9c7.3.3 13.6 2.8 17.6 9.2h-27s.2-9.3 9.5-9.2z" style="fill:#000;stroke-width:3.18132639" transform="matrix(.16293 0 0 .15097 -388.7 760.4)"/></g></g></g></g></svg>