<svg xmlns="http://www.w3.org/2000/svg" width="234" height="333"><g transform="translate(0 -719.4)"><rect width="233.2" height="332.2" x=".4" y="719.7" rx="8.9" ry="8.9" style="fill:#fff;fill-opacity:1;stroke:gray;stroke-width:.75590551;stroke-linecap:butt;stroke-linejoin:miter;stroke-miterlimit:4;stroke-dasharray:none;stroke-opacity:1"/><g style="font-style:normal;font-variant:normal;font-weight:700;font-stretch:normal;font-size:3.77201176px;line-height:0%;font-family:'Levenim MT';-inkscape-font-specification:'Sans Bold';letter-spacing:0;word-spacing:0;fill:red;fill-opacity:1;stroke:none;stroke-width:1"><path d="M23.8 544.6v.7H12.4q-.9 0-.9-1v-1q0-1 .9-1H16v-13h-4.3q-1 0-1-1l.1-.7v-.7q0-.5 1-.5h2q2.3 0 2.8-1.5h2.7v17.4h2l1.4-.1q.8 0 1 .4l.1 2z" aria-label="1" style="font-size:28.97036934px;line-height:1.25;stroke-width:1" transform="scale(.72185 1.38533)"/></g><g style="font-style:normal;font-variant:normal;font-weight:700;font-stretch:normal;font-size:3.77201176px;line-height:0%;font-family:'Levenim MT';-inkscape-font-specification:'Sans Bold';letter-spacing:0;word-spacing:0;fill:red;fill-opacity:1;stroke:none;stroke-width:1"><path d="M38 518.6q0 9.6-6.6 9.6-6.8 0-6.8-9.7 0-10 7-10 6.5 0 6.5 10zm-3.4-.3q0-7-3.3-7-1.9 0-2.7 2.8-.5 1.7-.5 4.3 0 7 3.2 7 2 0 2.7-2.8.6-1.7.6-4.3z" aria-label="0" style="font-size:27.65928841px;line-height:1.25;stroke-width:1" transform="scale(.69919 1.43023)"/></g><g style="font-style:normal;font-variant:normal;font-weight:700;font-stretch:normal;font-size:3.77201176px;line-height:0%;font-family:'Levenim MT';-inkscape-font-specification:'Sans Bold';letter-spacing:0;word-spacing:0;fill:red;fill-opacity:1;stroke:none;stroke-width:1"><path d="M-300.3-734.3q0 .4-.2.6-.3.2-.7.2h-10.4q-1 0-1-1v-1.2q0-.9 1-.9h3.4v-13h-4.3q-.9 0-.9-1v-.7l.1-.8q0-.4 1-.4h1.9q2.4 0 2.8-1.5h2.7v17.4h2l1.4-.1q.8 0 1 .4.2.4.2 2z" aria-label="1" style="font-size:28.97036934px;line-height:1.25;stroke-width:1" transform="scale(-.72185 -1.38533)"/></g><g style="font-style:normal;font-variant:normal;font-weight:700;font-stretch:normal;font-size:3.77201176px;line-height:0%;font-family:'Levenim MT';-inkscape-font-specification:'Sans Bold';letter-spacing:0;word-spacing:0;fill:red;fill-opacity:1;stroke:none;stroke-width:1"><path d="M-296.6-720.2q0 9.7-6.7 9.7-6.8 0-6.8-9.7 0-10.1 7-10.1 6.5 0 6.5 10.1zm-3.5-.3q0-6.9-3.2-6.9-2 0-2.7 2.7-.5 1.8-.5 4.3 0 7 3.2 7 1.9 0 2.7-2.8.5-1.7.5-4.3z" aria-label="0" style="font-size:27.65928841px;line-height:1.25;stroke-width:1" transform="scale(-.69919 -1.43023)"/></g><path d="M58.6 814c-2.7-5.6-6-11-10.2-15.7-2.6-3-5.5-5.9-8.4-8.6-2.3-2.2-4.6-4.4-6.5-7a16.2 16.2 0 0 1-2.8-5.6 16 16 0 0 1 2-11.2c1-2 2.5-3.8 4.2-5.3a13 13 0 0 1 9.2-3.2 13 13 0 0 1 8 4c2 1.9 3.6 4.2 4.5 6.8 1-2.6 2.5-5 4.5-6.8 2.2-2.2 5-3.7 8-4 3.4-.2 6.7 1 9.3 3.2 1.7 1.5 3 3.3 4.2 5.3a16 16 0 0 1 2 11.2c-.6 2-1.6 4-2.9 5.7-1.9 2.5-4.2 4.7-6.5 6.9a68.5 68.5 0 0 0-18.5 24.4m-.1 66.7c-2.7-5.7-6-11-10.2-15.7-2.6-3.1-5.5-6-8.4-8.7-2.3-2.2-4.6-4.3-6.5-6.9a16.2 16.2 0 0 1-2.8-5.7 16 16 0 0 1 2-11.2c1-2 2.5-3.8 4.2-5.2 2.5-2.2 5.9-3.5 9.2-3.2 3 .2 5.9 1.8 8 4 2 1.8 3.6 4.2 4.5 6.7 1-2.5 2.5-4.9 4.5-6.8a14 14 0 0 1 8-4c3.4-.2 6.7 1.1 9.3 3.3 1.7 1.4 3 3.2 4.2 5.2a16 16 0 0 1 2 11.2 17 17 0 0 1-2.9 5.7c-1.9 2.6-4.2 4.7-6.5 6.9-2.9 2.8-5.8 5.6-8.4 8.7a68 68 0 0 0-10.1 15.7M175.3 814c-2.6-5.6-6-11-10.1-15.7-2.6-3-5.5-5.9-8.4-8.6-2.3-2.2-4.6-4.4-6.5-7a16.2 16.2 0 0 1-2.8-5.6 16 16 0 0 1 2-11.2c1-2 2.4-3.8 4.1-5.3 2.6-2.2 6-3.4 9.2-3.2 3 .3 5.9 1.8 8.1 4 2 1.9 3.5 4.2 4.5 6.8 1-2.6 2.5-5 4.4-6.8 2.2-2.2 5-3.7 8.1-4a13 13 0 0 1 9.2 3.2c1.7 1.5 3.1 3.3 4.2 5.3a16 16 0 0 1 2 11.2c-.5 2-1.6 4-2.8 5.7-2 2.5-4.2 4.7-6.5 6.9-3 2.7-5.8 5.5-8.4 8.6a69 69 0 0 0-10.2 15.8M117 847.5c-2.7-5.7-6.1-11-10.2-15.8-2.6-3-5.5-5.9-8.4-8.7a52.3 52.3 0 0 1-6.5-6.8 16.2 16.2 0 0 1-2.8-5.7 16 16 0 0 1 2-11.3c1-2 2.4-3.8 4.2-5.2 2.5-2.2 5.8-3.5 9.2-3.2 3 .3 5.8 1.8 8 4 2 1.8 3.5 4.2 4.5 6.8 1-2.6 2.5-5 4.5-6.8 2.2-2.2 5-3.7 8-4 3.4-.3 6.7 1 9.2 3.2 1.8 1.4 3.2 3.3 4.3 5.2a16 16 0 0 1 1.9 11.3c-.5 2-1.6 4-2.8 5.7a52.3 52.3 0 0 1-6.5 6.8c-3 2.8-5.8 5.6-8.4 8.7-4 4.7-7.5 10-10.2 15.8m58.3 33.3c-2.6-5.7-6-11-10.1-15.7-2.6-3.1-5.5-6-8.4-8.7-2.3-2.2-4.6-4.3-6.5-6.9a16.2 16.2 0 0 1-2.8-5.7 16 16 0 0 1 2-11.2c1-2 2.4-3.8 4.1-5.2 2.6-2.2 6-3.5 9.2-3.2a13 13 0 0 1 8.1 4 18 18 0 0 1 4.5 6.7c1-2.5 2.5-4.9 4.4-6.8 2.2-2.1 5-3.7 8.1-4a13 13 0 0 1 9.2 3.3c1.7 1.4 3.1 3.2 4.2 5.2a16 16 0 0 1 2 11.2c-.5 2.1-1.6 4-2.8 5.7-2 2.6-4.2 4.7-6.5 6.9-3 2.8-5.8 5.6-8.4 8.7-4.1 4.7-7.5 10-10.2 15.7M58.6 957.6c-2.7 5.7-6 11-10.2 15.8-2.6 3-5.5 5.9-8.4 8.7a52.3 52.3 0 0 0-6.5 6.8 16.2 16.2 0 0 0-2.8 5.7 16 16 0 0 0 2 11.3c1 2 2.5 3.8 4.2 5.2 2.5 2.2 5.9 3.5 9.2 3.2a13 13 0 0 0 8-4c2-1.8 3.6-4.2 4.5-6.8 1 2.6 2.5 5 4.5 6.8 2.2 2.2 5 3.7 8 4 3.4.3 6.7-1 9.3-3.2 1.7-1.4 3-3.3 4.2-5.2a16 16 0 0 0 2-11.3c-.6-2-1.6-4-2.9-5.7a52.3 52.3 0 0 0-6.5-6.8c-2.9-2.8-5.8-5.6-8.4-8.7-4-4.7-7.5-10-10.1-15.8m-.1-66.7c-2.7 5.7-6 11-10.2 15.8-2.6 3-5.5 5.9-8.4 8.6-2.3 2.2-4.6 4.3-6.5 6.9a16.2 16.2 0 0 0-2.8 5.7 16 16 0 0 0 2 11.2c1 2 2.5 3.8 4.2 5.3 2.5 2.1 5.9 3.4 9.2 3.1a13 13 0 0 0 8-3.9c2-1.9 3.6-4.2 4.5-6.8 1 2.6 2.5 5 4.5 6.8a14 14 0 0 0 8 4c3.4.2 6.7-1 9.3-3.2 1.7-1.5 3-3.3 4.2-5.3a16 16 0 0 0 2-11.2c-.6-2-1.6-4-2.9-5.7-1.9-2.6-4.2-4.7-6.5-6.9a70.7 70.7 0 0 1-18.5-24.4m116.6 66.7c-2.6 5.7-6 11-10.1 15.8-2.6 3-5.5 5.9-8.4 8.7a52.3 52.3 0 0 0-6.5 6.8 16.2 16.2 0 0 0-2.8 5.7 16 16 0 0 0 2 11.3c1 2 2.4 3.8 4.1 5.2 2.6 2.2 6 3.5 9.2 3.2 3-.3 5.9-1.8 8.1-4 2-1.8 3.5-4.2 4.5-6.8 1 2.6 2.5 5 4.4 6.8 2.2 2.2 5 3.7 8.1 4 3.3.3 6.7-1 9.2-3.2 1.7-1.4 3.1-3.3 4.2-5.2a16 16 0 0 0 2-11.3c-.5-2-1.6-4-2.8-5.7-2-2.5-4.2-4.7-6.5-6.8-3-2.8-5.8-5.6-8.4-8.7-4.1-4.7-7.5-10-10.2-15.8M117 924.3c-2.7 5.7-6.1 11-10.2 15.7-2.6 3.1-5.5 6-8.4 8.7-2.3 2.2-4.6 4.3-6.5 6.9a16.2 16.2 0 0 0-2.8 5.7 16 16 0 0 0 2 11.2c1 2 2.4 3.8 4.2 5.2 2.5 2.2 5.8 3.5 9.2 3.2 3-.2 5.8-1.8 8-4a18 18 0 0 0 4.5-6.7c1 2.5 2.5 4.9 4.5 6.8a14 14 0 0 0 8 4 13 13 0 0 0 9.2-3.3c1.8-1.4 3.2-3.2 4.3-5.2a16 16 0 0 0 1.9-11.2c-.5-2.1-1.6-4-2.8-5.7-1.9-2.6-4.2-4.7-6.5-6.9-3-2.8-5.8-5.6-8.4-8.7-4-4.7-7.5-10-10.2-15.7m58.3-33.4c-2.6 5.7-6 11-10.1 15.8-2.6 3-5.5 5.9-8.4 8.6-2.3 2.2-4.6 4.3-6.5 6.9a16.2 16.2 0 0 0-2.8 5.7 16 16 0 0 0 2 11.2c1 2 2.4 3.8 4.1 5.3 2.6 2.1 6 3.4 9.2 3.1 3-.2 5.9-1.8 8.1-3.9 2-1.9 3.5-4.2 4.5-6.8 1 2.6 2.5 5 4.4 6.8 2.2 2.1 5 3.7 8.1 4 3.3.2 6.7-1 9.2-3.2 1.7-1.5 3.1-3.3 4.2-5.3a16 16 0 0 0 2-11.2c-.5-2-1.6-4-2.8-5.7-2-2.6-4.2-4.7-6.5-6.9a71.1 71.1 0 0 1-18.6-24.4M216.8 991a23 23 0 0 1-6.2 8.2l-2.2 2.2-1 2a6.2 6.2 0 0 0 2 5.5c1 .7 2.1 1 3.2 1 1 0 2-.6 2.7-1.3.7-.6 1.2-1.4 1.5-2.3.3.9.8 1.7 1.5 2.3.7.7 1.7 1.2 2.7 1.3 1 0 2.2-.3 3-1 .6-.5 1-1.1 1.4-1.8a5 5 0 0 0 .7-3.7c-.2-.7-.5-1.4-1-2-.6-.8-1.3-1.5-2.1-2.2-1-1-2-1.9-2.8-3a23 23 0 0 1-3.4-5.2M17.2 780.7a23 23 0 0 0-6.2-8.1l-2.2-2.3a5 5 0 0 1-.2-5.7c.3-.6.8-1.2 1.4-1.7.8-.7 2-1.2 3-1 1 0 2 .5 2.7 1.2.7.7 1.2 1.4 1.5 2.3.3-.9.8-1.6 1.5-2.3.7-.7 1.7-1.2 2.7-1.3 1 0 2.2.4 3 1l1.5 1.8c.6 1.2 1 2.5.6 3.8a5 5 0 0 1-1 1.9l-2 2.3-2.9 2.8a23 23 0 0 0-3.4 5.3" style="fill:red;fill-opacity:1;stroke:none;stroke-width:1"/></g></svg>