<svg xmlns="http://www.w3.org/2000/svg" width="234" height="333"><g transform="translate(0 -719.4)"><rect width="233.2" height="332.2" x=".4" y="719.7" rx="8.9" ry="8.9" style="fill:#fff;fill-opacity:1;stroke:gray;stroke-width:.75590551;stroke-linecap:butt;stroke-linejoin:miter;stroke-miterlimit:4;stroke-dasharray:none;stroke-opacity:1"/><path d="M17.2 780.7a23 23 0 0 0-6.2-8.1l-2.2-2.3a5 5 0 0 1-.2-5.7c.3-.6.8-1.2 1.4-1.7.8-.7 2-1.2 3-1 1 0 2 .5 2.7 1.2.7.7 1.2 1.4 1.5 2.3.3-.9.8-1.6 1.5-2.3.7-.7 1.7-1.2 2.7-1.3 1 0 2.2.4 3 1l1.5 1.8c.6 1.2 1 2.5.6 3.8a5 5 0 0 1-1 1.9l-2 2.3-2.9 2.8a23 23 0 0 0-3.4 5.3M216.8 991a23 23 0 0 1-6.2 8.2l-2.2 2.2-1 2a6.2 6.2 0 0 0 2 5.5c1 .7 2.1 1 3.2 1 1 0 2-.6 2.7-1.3.7-.6 1.2-1.4 1.5-2.3.3.9.8 1.7 1.5 2.3.7.7 1.7 1.2 2.7 1.3 1 0 2.2-.3 3-1 .6-.5 1-1.1 1.4-1.8a5 5 0 0 0 .7-3.7c-.2-.7-.5-1.4-1-2-.6-.8-1.3-1.5-2.1-2.2-1-1-2-1.9-2.8-3a23 23 0 0 1-3.4-5.2M117 814c-2.7-5.6-6.1-11-10.2-15.7-2.6-3-5.5-5.9-8.4-8.6-2.3-2.2-4.6-4.4-6.5-7a16.2 16.2 0 0 1-2.8-5.6 16 16 0 0 1 2-11.2c1-2 2.4-3.8 4.2-5.3 2.5-2.2 5.8-3.4 9.2-3.2 3 .3 5.8 1.8 8 4 2 1.9 3.5 4.2 4.5 6.8 1-2.6 2.5-5 4.5-6.8 2.2-2.2 5-3.7 8-4 3.4-.2 6.7 1 9.2 3.2 1.8 1.5 3.2 3.3 4.3 5.3a16 16 0 0 1 1.9 11.2c-.5 2-1.6 4-2.8 5.7-1.9 2.5-4.2 4.7-6.5 6.9a72.4 72.4 0 0 0-18.6 24.4m0 143.5c-2.7 5.7-6.1 11-10.2 15.8-2.6 3-5.5 5.9-8.4 8.7a52.3 52.3 0 0 0-6.5 6.8 16.2 16.2 0 0 0-2.8 5.7 16 16 0 0 0 2 11.3c1 2 2.4 3.8 4.2 5.2 2.5 2.2 5.8 3.5 9.2 3.2 3-.3 5.8-1.8 8-4 2-1.8 3.5-4.2 4.5-6.8 1 2.6 2.5 5 4.5 6.8 2.2 2.2 5 3.7 8 4 3.4.3 6.7-1 9.2-3.2 1.8-1.4 3.2-3.3 4.3-5.2a16 16 0 0 0 1.9-11.3c-.5-2-1.6-4-2.8-5.7a52.3 52.3 0 0 0-6.5-6.8c-3-2.8-5.8-5.6-8.4-8.7-4-4.7-7.5-10-10.2-15.8" style="fill:red;fill-opacity:1;stroke:none;stroke-width:1"/><g style="font-style:normal;font-variant:normal;font-weight:700;font-stretch:normal;font-size:3.77201176px;line-height:0%;font-family:'Levenim MT';-inkscape-font-specification:'Sans Bold';letter-spacing:0;word-spacing:0;fill:red;fill-opacity:1;stroke:none;stroke-width:1"><path d="m27 735.6-.7 5.6H7.9q.5-4.9 4-8.6l6.2-5.3q3.2-2.8 3.2-5.6 0-1.9-1-3-1.1-1.1-3-1.1-2.1 0-3.2 1.1-.7.8-1 2.4-.4 1.7-.6 2H9.4q-.5 0-.8-.2l-.1-.9q0-4 2.6-6.3 2.5-2.3 6.6-2.3 3.7 0 6.1 2 2.5 2.1 2.5 5.8 0 3.6-2.8 6.6-1 1.1-5.5 4.6-3.4 2.6-4.1 4.7h9v-1.7q.3-1 1.2-1h2q1 0 .9 1.2z" aria-label="2" style="font-size:39.34609222px;line-height:1.25;stroke-width:1" transform="scale(.98105 1.01931)"/></g><g style="font-style:normal;font-variant:normal;font-weight:700;font-stretch:normal;font-size:3.77201176px;line-height:0%;font-family:'Levenim MT';-inkscape-font-specification:'Sans Bold';letter-spacing:0;word-spacing:0;fill:red;fill-opacity:1;stroke:none;stroke-width:1"><path d="m-211.5-1002.6-.7 5.6h-18.4q.4-4.8 4-8.5l6.2-5.3q3.2-2.9 3.2-5.7 0-1.9-1-3-1.1-1.1-3-1.1-2.1 0-3.2 1.1-.7.8-1 2.4-.4 1.7-.6 2h-3.2l-.7-.1-.1-1q0-4 2.6-6.3 2.5-2.3 6.6-2.3 3.7 0 6 2 2.6 2.2 2.6 5.8 0 3.7-2.8 6.7-1 1-5.5 4.6-3.4 2.6-4.2 4.6h9l.1-1.7q.3-.9 1.2-.9h1.9q1.1 0 1 1z" aria-label="2" style="font-size:39.34609222px;line-height:1.25;stroke-width:1" transform="scale(-.98105 -1.01931)"/></g></g></svg>