<svg xmlns="http://www.w3.org/2000/svg" width="234" height="333"><g transform="translate(0 -719.4)"><rect width="233.2" height="332.2" x=".4" y="719.7" rx="8.9" ry="8.9" style="fill:#fff;fill-opacity:1;stroke:gray;stroke-width:.75590551;stroke-linecap:butt;stroke-linejoin:miter;stroke-miterlimit:4;stroke-dasharray:none;stroke-opacity:1"/><path d="M17.2 780.7a23 23 0 0 0-6.2-8.1l-2.2-2.3a5 5 0 0 1-.2-5.7c.3-.6.8-1.2 1.4-1.7.8-.7 2-1.2 3-1 1 0 2 .5 2.7 1.2.7.7 1.2 1.4 1.5 2.3.3-.9.8-1.6 1.5-2.3.7-.7 1.7-1.2 2.7-1.3 1 0 2.2.4 3 1l1.5 1.8c.6 1.2 1 2.5.6 3.8a5 5 0 0 1-1 1.9l-2 2.3-2.9 2.8a23 23 0 0 0-3.4 5.3" style="fill:red;fill-opacity:1;stroke:none;stroke-width:1"/><g style="font-style:normal;font-variant:normal;font-weight:700;font-stretch:normal;font-size:3.77201152px;line-height:0%;font-family:'Levenim MT';-inkscape-font-specification:'Sans Bold';letter-spacing:0;word-spacing:0;fill:red;fill-opacity:1;stroke:none;stroke-width:.99999994"><path d="M26.8 742.3q0 4.4-2.7 7-2.6 2.5-7 2.5-4.2 0-6.6-2-2.7-2.2-2.7-6.3 0-.7 1-.7h2.6l.8.1.2.5q.3 2.2 1.2 3.2 1 1 3.3 1 2.1 0 3.5-1.5 1.2-1.4 1.2-3.6 0-5.5-4.5-5.5-1.6 0-3.2 1.2h-3.3l-.8-.2-.2-.4q0-2.8.3-7l.5-7H25l1 .2v3.2q0 .7-1 .7H14.2q.1 1-.1 3.2-.3 2.1-.2 3.2 2-1.3 4.2-1.3 4 0 6.3 2.8 2.3 2.5 2.3 6.6z" aria-label="5" style="font-size:39.90935898px;line-height:1.25;stroke-width:.99999994" transform="scale(.9951 1.00492)"/></g><g style="font-style:normal;font-variant:normal;font-weight:700;font-stretch:normal;font-size:3.77201152px;line-height:0%;font-family:'Levenim MT';-inkscape-font-specification:'Sans Bold';letter-spacing:0;word-spacing:0;fill:red;fill-opacity:1;stroke:none;stroke-width:.99999994"><path d="M-208.4-1020.7q0 4.3-2.7 6.9-2.6 2.6-7 2.6-4.1 0-6.6-2-2.6-2.3-2.6-6.4 0-.6 1-.6h3.3l.2.6q.3 2.2 1.3 3.1 1 1.1 3.2 1.1t3.5-1.5q1.3-1.5 1.3-3.7 0-5.4-4.5-5.4-1.6 0-3.3 1.1h-3.2l-.9-.1q-.2-.2-.2-.5 0-2.7.3-7l.5-7h14.6q.6 0 1 .2l.1 2.8v.6q-.1.6-1.1.6h-10.6l-.2 3.2-.2 3.2q2-1.2 4.2-1.2 4 0 6.4 2.7 2.2 2.6 2.2 6.7z" aria-label="5" style="font-size:39.90935898px;line-height:1.25;stroke-width:.99999994" transform="scale(-.9951 -1.00492)"/></g><path d="M216.8 991a23 23 0 0 1-6.2 8.2l-2.2 2.2-1 2a6.2 6.2 0 0 0 2 5.5c1 .7 2.1 1 3.2 1 1 0 2-.6 2.7-1.3.7-.6 1.2-1.4 1.5-2.3.3.9.8 1.7 1.5 2.3.7.7 1.7 1.2 2.7 1.3 1 0 2.2-.3 3-1 .6-.5 1-1.1 1.4-1.8a5 5 0 0 0 .7-3.7c-.2-.7-.5-1.4-1-2-.6-.8-1.3-1.5-2.1-2.2-1-1-2-1.9-2.8-3a23 23 0 0 1-3.4-5.2M58.6 814c-2.7-5.6-6-11-10.2-15.7-2.6-3-5.5-5.9-8.4-8.6-2.3-2.2-4.6-4.4-6.5-7a16.2 16.2 0 0 1-2.8-5.6 16 16 0 0 1 2-11.2c1-2 2.5-3.8 4.2-5.3a13 13 0 0 1 9.2-3.2 13 13 0 0 1 8 4c2 1.9 3.6 4.2 4.5 6.8 1-2.6 2.5-5 4.5-6.8 2.2-2.2 5-3.7 8-4 3.4-.2 6.7 1 9.3 3.2 1.7 1.5 3 3.3 4.2 5.3a16 16 0 0 1 2 11.2c-.6 2-1.6 4-2.9 5.7-1.9 2.5-4.2 4.7-6.5 6.9a68.5 68.5 0 0 0-18.5 24.4m116.6-.1c-2.6-5.6-6-11-10.1-15.7-2.6-3-5.5-5.9-8.4-8.6-2.3-2.2-4.6-4.4-6.5-7a16.2 16.2 0 0 1-2.8-5.6 16 16 0 0 1 2-11.2c1-2 2.4-3.8 4.1-5.3 2.6-2.2 6-3.4 9.2-3.2 3 .3 5.9 1.8 8.1 4 2 1.9 3.5 4.2 4.5 6.8 1-2.6 2.5-5 4.4-6.8 2.2-2.2 5-3.7 8.1-4a13 13 0 0 1 9.2 3.2c1.7 1.5 3.1 3.3 4.2 5.3a16 16 0 0 1 2 11.2c-.5 2-1.6 4-2.8 5.7-2 2.5-4.2 4.7-6.5 6.9-3 2.7-5.8 5.5-8.4 8.6a69 69 0 0 0-10.2 15.8M117 914.2a71.1 71.1 0 0 0-18.6-24.4c-2.3-2.2-4.6-4.3-6.5-6.9a16.2 16.2 0 0 1-2.8-5.7 16 16 0 0 1 2-11.2c1-2 2.4-3.8 4.2-5.3 2.5-2.1 5.8-3.4 9.2-3.1 3 .2 5.8 1.8 8 3.9 2 1.9 3.5 4.2 4.5 6.8 1-2.6 2.5-5 4.5-6.8a14 14 0 0 1 8-4c3.4-.2 6.7 1 9.2 3.2 1.8 1.5 3.2 3.3 4.3 5.3a16 16 0 0 1 1.9 11.2c-.5 2-1.6 4-2.8 5.7-1.9 2.6-4.2 4.7-6.5 6.9a74.9 74.9 0 0 0-18.6 24.4m-58.4 43.4c-2.7 5.7-6 11-10.2 15.8-2.6 3-5.5 5.9-8.4 8.7a52.3 52.3 0 0 0-6.5 6.8 16.2 16.2 0 0 0-2.8 5.7 16 16 0 0 0 2 11.3c1 2 2.5 3.8 4.2 5.2 2.5 2.2 5.9 3.5 9.2 3.2a13 13 0 0 0 8-4c2-1.8 3.6-4.2 4.5-6.8 1 2.6 2.5 5 4.5 6.8 2.2 2.2 5 3.7 8 4 3.4.3 6.7-1 9.3-3.2 1.7-1.4 3-3.3 4.2-5.2a16 16 0 0 0 2-11.3c-.6-2-1.6-4-2.9-5.7a52.3 52.3 0 0 0-6.5-6.8c-2.9-2.8-5.8-5.6-8.4-8.7-4-4.7-7.5-10-10.1-15.8m116.6 0c-2.6 5.7-6 11-10.1 15.8-2.6 3-5.5 5.9-8.4 8.7a52.3 52.3 0 0 0-6.5 6.8 16.2 16.2 0 0 0-2.8 5.7 16 16 0 0 0 2 11.3c1 2 2.4 3.8 4.1 5.2 2.6 2.2 6 3.5 9.2 3.2 3-.3 5.9-1.8 8.1-4 2-1.8 3.5-4.2 4.5-6.8 1 2.6 2.5 5 4.4 6.8 2.2 2.2 5 3.7 8.1 4 3.3.3 6.7-1 9.2-3.2 1.7-1.4 3.1-3.3 4.2-5.2a16 16 0 0 0 2-11.3c-.5-2-1.6-4-2.8-5.7-2-2.5-4.2-4.7-6.5-6.8-3-2.8-5.8-5.6-8.4-8.7-4.1-4.7-7.5-10-10.2-15.8" style="fill:red;fill-opacity:1;stroke:none;stroke-width:1"/></g></svg>