<svg xmlns="http://www.w3.org/2000/svg" width="234" height="333"><g transform="translate(0 -719.4)"><rect width="233.2" height="332.2" x=".4" y="719.7" rx="8.9" ry="8.9" style="fill:#fff;fill-opacity:1;stroke:gray;stroke-width:.75590551;stroke-linecap:butt;stroke-linejoin:miter;stroke-miterlimit:4;stroke-dasharray:none;stroke-opacity:1"/><g style="font-style:normal;font-variant:normal;font-weight:700;font-stretch:normal;font-size:3.77201176px;line-height:0%;font-family:'Levenim MT';-inkscape-font-specification:'Sans Bold';letter-spacing:0;word-spacing:0;fill:red;fill-opacity:1;stroke:none;stroke-width:1"><path d="M27.8 722.4h-6l-8.4-12v12H8v-27h5.3v9.3l7.3-9.4H27l-9.5 12.1z" aria-label="K" style="font-size:37.72449112px;line-height:1.25;stroke-width:1" transform="scale(.95622 1.04578)"/></g><g style="font-style:normal;font-variant:normal;font-weight:700;font-stretch:normal;font-size:3.77201176px;line-height:0%;font-family:'Levenim MT';-inkscape-font-specification:'Sans Bold';letter-spacing:0;word-spacing:0;fill:red;fill-opacity:1;stroke:none;stroke-width:1"><path d="M-216.9-971.7h-6l-8.5-12v12h-5.2v-27.1h5.2v9.3l7.4-9.3h6.2l-9.5 12z" aria-label="K" style="font-size:37.72449112px;line-height:1.25;stroke-width:1" transform="scale(-.95622 -1.04578)"/></g><path d="M216.8 991a23 23 0 0 1-6.2 8.2l-2.2 2.2-1 2a6.2 6.2 0 0 0 2 5.5c1 .7 2.1 1 3.2 1 1 0 2-.6 2.7-1.3.7-.6 1.2-1.4 1.5-2.3.3.9.8 1.7 1.5 2.3.7.7 1.7 1.2 2.7 1.3 1 0 2.2-.3 3-1 .6-.5 1-1.1 1.4-1.8a5 5 0 0 0 .7-3.7c-.2-.7-.5-1.4-1-2-.6-.8-1.3-1.5-2.1-2.2-1-1-2-1.9-2.8-3a23 23 0 0 1-3.4-5.2M17.2 780.7a23 23 0 0 0-6.2-8.1l-2.2-2.3a5 5 0 0 1-.2-5.7c.3-.6.8-1.2 1.4-1.7.8-.7 2-1.2 3-1 1 0 2 .5 2.7 1.2.7.7 1.2 1.4 1.5 2.3.3-.9.8-1.6 1.5-2.3.7-.7 1.7-1.2 2.7-1.3 1 0 2.2.4 3 1l1.5 1.8c.6 1.2 1 2.5.6 3.8a5 5 0 0 1-1 1.9l-2 2.3-2.9 2.8a23 23 0 0 0-3.4 5.3m41.4 23.9a46.1 46.1 0 0 0-12.4-16.3c-1.5-1.4-3-2.8-4.3-4.5-.8-1.2-1.5-2.4-1.9-3.8-.6-2.5 0-5.2 1.3-7.5a16 16 0 0 1 2.8-3.5c1.7-1.5 4-2.3 6.2-2.1a9 9 0 0 1 5.4 2.6c1.3 1.3 2.3 2.8 3 4.5a12 12 0 0 1 2.9-4.5 9 9 0 0 1 5.4-2.6c2.2-.2 4.4.6 6.1 2a12 12 0 0 1 2.8 3.6c1.3 2.3 2 5 1.3 7.5a11 11 0 0 1-1.8 3.8 31.2 31.2 0 0 1-4.4 4.5 46.1 46.1 0 0 0-12.4 16.3M175.3 967a46.1 46.1 0 0 1-12.3 16.4 37.3 37.3 0 0 0-4.4 4.5c-.8 1.2-1.5 2.5-1.8 3.9-.6 2.5 0 5.2 1.3 7.4a9.7 9.7 0 0 0 2.8 3.5 8.7 8.7 0 0 0 6.1 2.2 9 9 0 0 0 5.4-2.7c1.3-1.2 2.3-2.8 3-4.5.6 1.7 1.6 3.3 3 4.5a9 9 0 0 0 5.3 2.7 9 9 0 0 0 6.2-2.2c1.1-1 2-2.1 2.8-3.5 1.2-2.2 1.9-5 1.3-7.4-.4-1.4-1-2.7-2-3.9-1.2-1.6-2.7-3-4.2-4.5a46.1 46.1 0 0 1-12.4-16.3" style="fill:red;fill-opacity:1;stroke:none;stroke-width:1"/><g style="display:inline;stroke-width:3.18132639"><path d="m5296.8 1126.3 351.8 7.5c31.2 42.8 93.7 130 93.7 130l-568.3 7.5zm-147.2 29.8c15.2-30.5 18.1-59.9 15.2-102.2-2.2-32.5 18.2-57.8 39.3-48 16.3 7.4 8.8 38.2-8 31.6-6.5-2.4-12.2-.2-11.3 14.4 1.5 36 11.1 76.5 2.8 111-5.8 33.5-52.1 18-38-6.8zm-142.4-47c-18-26.7 14.2-51.7 34.2-39.4 9.6 4.4 8.2 14-3.8 9-16.7-7.3-34.8 18.1-20.2 28.3 6.7 4.7 9.3 4 4.2-1.8-13.6-15.7 21.1-22.6 20.1-12.3-2.3 12.6-2.6 18-3.8 20.4-7 11-20.7 5.4-30.7-4.2zm50-112.3c-19.4-24 2.8-42.9 2.5-42.2 5.7-6.2-46.1-102.2-39.6-102.8 65.5-7 131.6-1.7 197.2.3 0 0-35 62.5-48.9 93.5-5.6 12.4 7.5 27.1 2 36.4-16.8 18.3-6.3 38.6-16.8 39.5-29.6-3.7-58.7-8.6-91.5-2-2.4 0-2.7-13.8-5-22.7zm283.3-667.2c33 167.4-15.7 345-127.6 462-15.8-15-27.9-43.6-43.7-62.3-43.7-13-75.1 2.3-105.8 17.3a174.7 174.7 0 0 0-87.8-24.3l-1-26c30.3-.6 62.2 2.2 89.2 18.8l42.1-17-131.4-135.6 1.8-23.2 159.5 160 20.5.7c-45.1-119.3-5.6-308.7 184.2-370.4zm222.4 210 23 109.4S5464 779.5 5388.8 841.5l-56.9-5.1s77.6-137.2 63.4-126.7zm458.4 150c-54.2 60.3-118.9 98.6-190.7 140.8-28.8-31.9-63.6-67-83.8-98.4 62.7-33.3 122.5-59 183.8-117.4-3.3 3.8-78.2 29-78 26.2-2.7 12.4-1 20-13.3 23.3-14.4-20-28.4-36.3-51.1-45.2-9.6.8-22.3-5.4-22.2-5.4 6.3-1.3 3.5-78.2 0-79.1 0 0 1.8-2.3 18.5-2 29.8-2 49-37.8 67.5-50 57.7-4.8 108.9.9 165.7-.7-.4 68.5 3.6 139.5 3.6 208zm-366.6-173.4c-1.5-2.9-16-116.3-2.2-187.4 2.5-16.7 29-22.4 34-34.8 8.5-27-4.2-60.4 2.5-90.7 6.8-30.8 21.4-48.1 34.2-71 14-24.8 33.8-55.8 55.8-74.3 6.5-6.3 29 14 46 49 49 30.7 111.8-9 111.8-9s24.4 19.9 79.6 30.7l-1 21.3c-.2 6.2-62-6.6-75.3-19 0 0-46 15.4-46 18.2 0 12 121.6 124 121.6 124l.7 27.7c-18.3-25.2-161-146.6-161-146.6 31.7 184.7-43.9 299.7-200.7 362zm-204.2-36.1-2.7-108.8 104 1.2 4.2 110zm-475.7-117.6c2.7-3.9-4-202.8-3.6-202.8 66.1-65.5 130.8-102 195.7-141.9 29.4 29 54.3 53.3 76 88.3l-89.6 55c3.4 13.3-5.4 18.1 52.3 70.2 1-3.6 20-14.2 23.3 1.6-7.8 33.5 3.5 62 5 80-8 10.5-25.6-.8-25.6-.8-11.4-11.9-56 46.5-68.8 53-55.6-2-167.9 1.7-164.7-2.6zM5601 7.8c.7-.7 56.6.4 55.9 2.4-10.2 27.2-35.5 75.4-58.6 131-26.6 47.4-63.6 75.3-95.2 106.4-25.2 24.8-47.7 64-64.9 53.8-10.5-33.6-13-63.5-24.5-100.7-5.4-22.1 26.9-36.5 187.3-192.9zm244.5-186.5c20.4 8.7 78 4.2 87 .3 11.7 7.9 4.4 18.4 3 24.2 12 15.2 18.5 20.5 5 44.9-3.2 0 41.8 100.9 43 101 0 0-47.6-22.5-64.3-37.7l-32.8 43.4-38.2-49c-.1 4.4-73.4 52.8-74.3 50.5-2.3-2.3 67-76.5 53.2-120-3.3-10.6 4.3-21.3 9.4-30.5 3.6-6.4-1.2-18.6 9-27zm-38-9c3-3.6-17.9-94.8 4.8-131.6 9.6-13.4 26.9-14 34.2-3.1 5.5 15.2-11 36.4-14.3 46.8-10.8 28.9 5.2 67-2.6 94.3-23.3 59.6-64.6-5.9-22.2-6.4zm155-40.5c-12.2.5-3.7-36-1.6-46.5-.1-2 22.4-7.3 30.6 7 13 21.5-2.7 48.6-29 39.5zm-146.4-184.3-115.7 140.1c-117-13.4-234.4-21.9-354-3.7l-96.3-133.6z" style="display:inline;fill:#e2cf00;fill-opacity:1;stroke-width:5.67895746" transform="matrix(.16176 .0008 -.00085 .15119 -771.6 816.9)"/><path d="m2140.9-218-1070.5 3.4 11.8 1699.2 1068-6.3zm-246.3 10.5h35.2l-128.1 157-3.2 1a730 730 0 0 0 32.4 79.6c18.5 38.1 65.1 108.2 36 164.2-2.8 4.8-5.5 7.1-9 7.1-5 0-4.9-2.9-2-8.5a120.1 120.1 0 0 0 8.4-57.3c-1.7-9.9-7.2-25.2-17.7-48.3-48.7-89.5-64-137.2-61.2-137.2-.6-.4-1.7-1-3.5-1.4l-4.8-1.6c16.9 56.6 44.3 104.2 66 148.3 17.8 41 19.7 56.8 10.4 86.6-3.6 11.6-10 19-16.5 19-4.8 0-4.5-1-1.3-7 17.1-30.4 13.2-63.7-8-102.4-30.8-64-49.3-104.4-60.3-145.4l-7.5-2.3c9.1 42.7 34.6 92 58.4 142.4 19.6 38.8 25.3 67 18.2 89.4-2.3 9.7-9.7 24-19 24.5-3.8 0-4.3-1.9-.9-6.9 14.6-24.8 17.2-47.8-8.9-100-24-48-48-101.6-56.2-148.6-.5-3.8-10.9-8.4-8.7-2 12.9 55.4 38.5 112.2 65.7 167.5 15.3 34.3 16.9 56.3 5.4 75.5-6.4 10.8-8 13.2-12.9 13.3-5.7.1-5.6.3-2.4-6.2 13.9-28.9 11.6-54.3-7-96-25.4-57.3-46.9-104.6-56-155-1.7-.5-10.3-3.8-9-1.3 12.7 48 29 92.5 50 137.6 7.3 15.6 19.1 46 23 61.2 7.2 29-9.1 68.8-30.6 70.8-8 .8-7-3.2 2-11.4 15.3-14.3 18.2-37 13-63.2-3.9-20.2-10.6-42-19.8-64-18.7-44.7-39-91.4-45.5-132.6.2-3.7-8.4-3.7-6 .2a471 471 0 0 0 27.8 92.6c13.2 33.5 33 71 39.4 112.2 5.2 33.7-15.8 65.4-41.4 67.3-30.8 2.3-36.9-28-29.5-42.3 12.1-21.3 47.2-9.1 36.8 12.6-6 12.5-24.4 9.3-23.6-4.5-.2-1.2 1.8-5 1.4-5.2-.6-.4-3.3 2.1-4.2 3.6-6.2 11.2 12.5 26 25.5 17.1 43.6-23.5 14.2-95.3-4.8-139.2-18.4-40.9-31.9-77.8-37.8-115.6-1.5-1.1-8.7-3-7.7-1.6 5.2 20.2 7.7 37.2 13 54.1 8.2 26.7 23 56.4 35 86.3 11 29.3 22 54.3 17 84.9-.5 2.8-1.7 6.2-3.6 8.3-2 2-3.6 1.7-4.2-6.1-.2-1-1.6-2.5-1.8-3.8a94 94 0 0 0-2.7-33.7c-2.5-9.1-7.4-18.3-17.6-36-4-6.5-14.6-26.5-11-12.7 2.2 7.8 9.5 25.2 17 37.9 4.7 7.8 9.6 29.1 8.2 33.3-1.6 4-5.1 4.2-6.8 2.8-1.5-1.2-1.5-7-1.9-10.5-1.6-14.5-16.5-39.8-26.8-49.7-7.4-8.3 17.5 35 19.3 46.6.8 5 2.3 9 .6 11.3-1 1.6-3.3 1.6-5.5 1-2-.5-2-2-4.2-9.4a74.6 74.6 0 0 0-18.4-30.6c-3.3-4-5.6 1-.2 7.3 7.4 11.7 13 19.1 14.8 34.1-4.8 6.8-7.1 5.5-17.2-11.7-6.6-11.3-10.6-14.3-12.3-14.2-4.4.2-.3 5.7 12 25 6.5 10.4 6.6 16.8-.6 16.8-2.5 0-16.3-15.1-19.8-21.7-2.8-5.5-6.4-9.6-6.4-3 0 2.7 8.5 16.6 14.4 23.4 9.2 10.6 11.9 12.8 13 17.5a201 201 0 0 0 2.5 8.7c2.4 7.7 1.2 10-3.6 5.9-2.2-5.7-4-6.3-9.9-10.7-5-3.7-12-13.3-16.5-20-1.7-2.5-3.2-5.8-5-8.4-4.4-8.3-10.4-9-6-.6 2 3.9 5.3 10.3 8.7 15 5.8 8.3 4.6 12.6-2.3 12.5-2.9 0-11.1-10.8-16.3-19.2-3.4-5.5-8.6-9.4-8-4 .2 1.4 4.3 11 10.3 18.6 6.7 8.2 7.5 12.6 1.1 12.6-4.4 0-8.2-4.2-13.7-12.7-5.4-8-8.7-11-10.2-10-1.9 1.1 7.6 17.1 15.5 25.9 7.4 8.3 2 13-6.6 5.6a93.9 93.9 0 0 1-16.4-21.5c-4.6-10.1-7.6-7.4-4.6.6a73 73 0 0 0 14.6 24.8c3.3 3.3 10 5.8 13.3 8.7 9.3 8 15.1 15.4 14.4 16.7-26.5 1.5-48.2-26.7-54.2-43.7-4.2-11.2-9-12.9-4.4 3 12.9 39.3 53.1 59.7 81 42 16.7-10.6 1.9-38.3-11.9-29.3-3.7 2.4-3.9 9.3.9 5.6 9-7 17.9 10.1 8.1 15.2-13.6 7-28.8-6.8-19.5-23.7 9.2-17.2 46-7.3 38.9 20.6a50.5 50.5 0 0 1-40 28.5c-30.5.6-51.5-22.8-63.3-45.8l-6.4-13.5-3.6-7.1c3.4 28 30.2 62.5 54.1 68.2 39.9 9.3 50.8-14.3 76.9-38.8 0 0 19 2.5 19.7 2 1.8-1 37-2.6 38.1-1.6-142.7 257.8-131.8 564-9.1 796.3 8.1 17 9.5 13.7-4 10.3-13.8-3.6-26.4 2-37.7-.7-23.3-4.7-28.3 11.1-46.2 19.6-22.3 8.4-17.3 24-22.6 38.9-1.7 2.3-2.9 4.2-2 3.9 1.5-.5 6.3-4.9 6.6-8.7 1-10 4.5-17.8 8.5-21.7 3.9-3.8 6.6-5.7 7.5-4 .7 1.2.2 5.6-1.7 9.2-5.4 10.2 1.7 44.4 2.2 20 .3-19.2 12-40.7 28.5-49.5 13.1-6.4 17.2-5.8 6.5 4a69.4 69.4 0 0 0-20.9 46.8c-.2 7.7 2.9 14.2 4 7.2-.5-35.6 35.3-75.3 73.6-55.6 2 1.4 3.5 4 3 5.4-37.1-6.2-69.4 14-64.7 61.9 0 0 3.3-9.4 5.2-18.8 5.9-29.3 39.1-42 62.4-34 4.4 1.8 7.9 8 7.3 8.8-28.6-9-59.9 18-61.7 47-.6 9.5-.4 17.6 4.5.6 18.4-64.7 75.3-35.4 68.3-30.1-44-5.2-60 24.3-59 58.4.7 3 2.3 4.1 3.6 7 6 12.9 8.6 23.9 9 47.2-.4 6 4.6 44.3-.4 42.7-16-6-28.2-12.9-55.8-.5-2.5.2-3.3-1.2-2.5-3.4 1.2-2.9 5.5-8.6 13-17 17-18.1 7.3-13.3-6.7-.7-9 8-7 2.5 1.4-25.1 3.5-11.2 1.3-12.6-13.5-20-15.3-7.8-25.8-9-12.9-.9a110 110 0 0 0 16.3 8.7c6.7 3.6 6 5.2 1 21.3-9.7 31.4-13 42.9-12.6 64 1.3 51.3 50.3 46.2 78.3 34.6l1.1 33.8 105.2 147.7s-367.7-.4-564.4 2.8c11.2-26.9 130.1-140.7 137.2-161.1.7.1-13.2-41.6-20.5-59.8-34.4-85.7-79.6-121.7-53.4-178 5.6-11.2 6.6-15 11-15 5.7 0 7.6 4 1 14.8-28 47 32 128 52.2 179.8 3.2 8.3 16.8 47 19.2 60.1.2 4 9.7 5.4 7 .7a782.4 782.4 0 0 0-21.1-65.6c-16-38.2-33-64.3-48.5-101.6-8.7-23.5-13.4-50.8.1-75.2 5-9 6.4-13.9 9.6-14.3 2.8 0 4.5 1 4.7 3.2.2 2.5-1.4 6.6-5 12.9-23.7 40 18.3 104.8 39.1 151 13.6 30.1 25.6 61.8 30 90.4 0 2 2.6 7.2 7.8 3.6-9-53.3-35.5-105-58.6-155-19.8-38.9-27.3-72.8-.8-104.9 2.3-2.2 7.2-1.8 7.6 1.5.2 2.2-1.5 6.4-5.7 15-23.3 48.5 12.8 88 29.7 134.3 16.6 38.8 32 71.3 38.1 112.6 4.7 1.7 7 4 7.5-1.9-12-58.3-38.1-110.7-60.7-161.2-10.5-22-14.2-32.5-14.9-47.2-1-20.2 9.2-45.8 18.4-52.5 2.4-1.8 3.9-2 6-.9 3 1.6 2.4 2.7-3.5 13.8a79.3 79.3 0 0 0-1.8 70c18 38.6 33.1 70.3 43.9 98.6 11.7 31 18.3 58 21 82.3 0 0 8 3.6 6.8-1.7-5-34-16.3-69.4-28.5-99.2-11.5-28.2-25.9-55.4-37.5-83.4a70.8 70.8 0 0 1 26.6-88.4l13.3.3c-.8-.4-30.4 11.3-32 53.6-1.5 40.3 17.7 65 31.5 99.2 16.9 41.1 32 77.2 35.6 121.2 1.3 1.5 8.6 1.9 8.5 1.2-3.6-29.6-12.3-57.7-24.7-92.3-13.1-36.7-26.2-53-38.4-91.6-8.3-26-7.1-61.4 11.3-77.6 27.5-27.7 65.9-8 56.3 23.8-7.5 22.3-38.2 17.9-38-3 0-13.6 16.7-17.2 22.2-7 1.3 2 2.1 10.7 2.7 11 .6.3 2.3-6.8 2.3-8.4 0-11.1-15-20.5-26.3-14.9-15.4 7.8-25.4 25.5-24.4 49.3 1 25.2 5.7 41.6 26.4 81.2 24.2 46.2 32.2 96.2 37.4 129.8 2.2-.9 4.9.3 5.7 0-3.5-45.9-18.6-93-37.5-132.3-22.9-47.5-29.3-76.5-21.7-97.8 1.2-3.1 2.2-5.5 3.6-5.7 2.6-.4 3.3 3.7 5.7 12.2.7 2.6-.2 6.8-.7 10-2 19.4 11.7 60 24.4 78 3.8 5 8.5 4.9 4.4-4.2a153.3 153.3 0 0 1-22.1-73.5c-.4-8.4 9.5-4.7 9.7-.4.7 13.6 2 29.7 8.6 41.2 13.3 22.7 20.7 23.7 7.1-1.7-3-5.8-11.6-30.7-8.2-39.2 2-1.8 4.3-2 5.5-.3 3.9 14 9.2 28 18.6 38.7 5 5.7 5.8 3.1 3.2-4-4.4-8-18-35.2-11.7-41.3 2-1.7.8-.8 6.3 8.1a101 101 0 0 0 15.5 21c5 4.7 6.1 1.5 1-7-10.1-17-16-31-12.4-34.6 3.6-3.5 4.4-1.8 12.5 11.8 3.6 6 8.7 15 10.5 17.1 1.8 2.1 3.4 2.7 3.4 1a66.5 66.5 0 0 0-21.8-38.6c-.8-1.5-.5-14.5-.5-14.5 21.3 11 22.2 23.3 36.3 42.3 1.5 1.4 3.5-.3 3-3-.6-3.5-9-19.3-14.2-26.3-4.1-5.4-4.3-8.6-.8-10.1 5.7-2.6 13.5 5.8 22 20.7 3.8 7 9 11 9 7.3 0-2-7.2-19.8-12.2-25-8.3-8.6-4.2-14.6 5.5-6.7 4.3 3.7 10.3 6.4 16.4 19.5 3.6 7.7 6.6 8.7 6.7 2.5 0-6.8-11.6-23.6-19.4-28.3-6.1-3.6-9.5-7.6-7.8-10.3 5.3-7.8 26.7 12 34 30.4 2.2 5.5 6 8.2 7 5.8 1.6-1.2-2.8-14.4-7.2-20.6-7.4-14-24.8-27.6-35.1-26-2 .4-7.5-11.1-7.5-11.1 26.3-4.3 51.9 27 56.4 38.8 8.6 22.3 13 19.6 5.5.1-14.8-38.1-60.5-59.5-86-41-14.4 10.5-5.8 35.6 9.1 31.3 6-2.2 11.7-8.2 1.3-6.2-11.6 1.2-15.3-16.4-3.5-19.9 19-5.6 23.3 24.5 8 31.2-16 6.8-31.7-3.4-30.2-20.7 2.8-33 43.3-42.4 83.4-15.8 11.2 7.4 25 31.8 29.8 47.3 1.6 5 7 6.8 7.6 6.2 1.5-1.5-11.2-28.6-15.3-35.5-17.5-39.8-80.5-41.7-80.5-39.7 0 0-24.7 15.5-46.6 41l-56.3-5.2c143.5-229.4 154.8-566.7 7.6-805.5 1.9 1.2 28.3 8 37.4.9 6.7-3.2 8.6-4.3 16-1.7 8.4 3 17.2.4 26.3-7.9 6.8-6.2 7-8.2 11.4-7.6 13 1.7 21.7-6 24.4-24.7 1-7.3 1.8-15 .8-13.9-.7.7-2.2 7-3.1 11-2.7 11-5.1 15.1-9.4 18.7-7.2 6-11.3 2.6-8.3-6.4 2.8-5.8 5.1-20.7 1.3-27.5-.7-1.2-.9 3.4-1.8 7.1-7.8 29.4-16 44.3-30 47.8-6.6 1.6-9.6.6-7.5-3.2 24.8-26.3 23.2-55.4 21.3-53-5.3 17-15 42-31.2 52.4-13.9 9-34.2 9.8-45.5 2.3-6.5-4.3 3.2-5.5 17.8-5.7 24.5-.4 47.4-33 43.6-60.4-.9-5-2.3.4-4.3 8.7-9 29.8-24.5 50.6-60 44.4-2.7-.5-4.6-2.3-6-3.3-5.8-4-3.7-6.7 7.7-5.3 25.7 3.4 48-20.5 47.8-49.4 0-13.9-2-13.7-4.3-3.4-3 14.6-14.5 59.2-55.9 44.6-7.5-4-11.5-9.2-8.9-10 24.2 5 46.3-.3 55-32a65 65 0 0 0-1-38c-1.2-7.6-3.8-13.4-4.6-21.1-2.3-20.7-5.7-43.4-4.7-66 2-2 2.4-1.6 9.3 3 13.7 9 24 7 37.9 1.6 17.9-6.4 16.2-5.2-2.4 15.8a106 106 0 0 0-8.3 10.5c-4.8 9 4.1 2.4 10.8-6 9.3-11.6 11.3-14.3 13-14.2.7 12.5-3.8 27.8-6.2 38-3 11.5-3 14 4.3 17a277 277 0 0 1 12.6 5.4c15.3 7.3 13.9 1.3 1.7-5.5-16.5-9.3-16.6-8.8-11.9-24.2a381 381 0 0 0 11.2-51.4c7.4-44.1-26-68.4-70.4-53-2.5 1.3-5.5-23.2-5-29.7.3-2.3-6.8-1.8-12.6-8.9 1.8-1.6-65.5-85.4-96.8-136.3 175.6-.2 352-3.2 528-3.1zM1785.4-50l.7.5c-.3-.4-.5-.5-.7-.5zm152.2-153.6h188.3l2.7 405.6-16.7.4s-31.4-53.8-39.7-79.3c-2-6.3-5.7-15-7-18.5-3.3-7.8-5.5-8.8-1.3-13.5 8.5-9.5 6.9-28.8-1.4-38-2.6-3-3.9-2-3.8-9.4.2-6.3.8-10.3-1-13.5-2.7-5.5-4.6-5.9-.6-11.8 4.2-6.3 9.7-16.4 12-24.4 3.9-12.9 1.2-15.3 9.7-12.3 21.1 6.8 38.9-8.3 38.3-29.6-.4-17.9-17.3-33.8-36.8-29-4.5 1.2-5.4.8-12.4-3.5-2-1.3-5-4-7.6-4.9-3.2-1.2-5.8-1.1-7.2-3.4a24.8 24.8 0 0 0-20.8-11.2 41 41 0 0 1-16-3c-3.5-1.8-13.3-.3-25.7-2.2-5.5-.8-10 1.3-12.6 1.4-7.6 0-4.5-.9-6-6.7-9.5-30-37.5-26.5-50.3-3.8-4.7 8.9-8 22-9.9 35.7l-75.2-1.2zm-582.4.8c28.1 35.7 55 75.6 83.4 112 34.8 44 36 49 26.6 93.3-5.2 25-7.5 30.9-18 29-10-1.8-18.5 6-19.8 15.9-2.6 18.5 15.4 30 33.4 20.7 9.5-5 9.8-5.5 6.7 10.7-4.6 23.2-13.7 43.1-19.5 42.5-15.2-32-52-9.2-39.7 24-3.8 5.8 1.2 13.1 3.1 19.2 0 0 0 .7-21 7.6-103.1 30.5-230.9 109.9-300.7 184.4l-4.7-557.7Zm592 76.1a17 17 0 0 1 12 4.4c9 8 6.8 19.3-5.6 40.5-13 29.4-9.5 52.7-6.5 83.7 0 18-6.2 35-16 42.4-15.7 12-35-4-27-20.3 4.3-8 13.2-3.3 15.2-11 .8-4.5.7-11.7 1.2-15.1-1.9-13.6-5.8-55-5.8-69.4.2-12.4 4.3-28 9.9-39.6 5.5-9.7 14.4-15.4 22.6-15.6zm24.8 48.2c-3.5 3-9.5 3-10.2-.7 0-3.9 3-16.3 5.2-17.6 12.9-3 8.8 15 5 18.3zm19.3-19.3c10.7-.4 17.7 26.7 8.4 42.6-1.7.4-14.6.3-14.7.5-.2-2.8.6-8.5 1.6-13.9.8-4.6 1.3-8.2-.1-13.2-3.5-12.4-5.8-14.7 4.8-16zm20.3.4h1.3c10.8 0 17 20.8 13.6 43.6-.5 3.3-.8 6.7-2 7.5-4.5-1.2-17 3.2-17.3 3.2-1.2-1.2-.7-7.7.9-13.5a45 45 0 0 0 .3-29.2c-2.5-9.6-2.6-11.5 3.2-11.6zm27 6c11.9 2 12.7 34.8 7.8 45.5-1.2 1.5-5.7 1.2-7.3 1.7-10 3-7.8 4.4-6.7-11.6.8-11 1-19.6-.6-28.7-.8-4-1.1-6.7 1.8-7a14 14 0 0 1 5 0zm-59.3 12.8c4.7 6.5.9 21.4-2.7 27-4.2 6.1-5.8 6.7-3.6 9.3 1 1.2 3 7 1.8 9.4-2.3 4.5 3.5 5.3 8.8 8 8.6 4.6 12.7 12.8 19.1 27.8 2.3 5.3 6.9 3.6 4.6-2-1.9-4.8-2.6-12-4-16.7-1.3-4.9.2-7.3 5.8-5.9 8.5 2.2 7.3.2 10.4-1 6.8-3.7 11.4 1.6 7.3 4.5-2.4 1.7-7.4 2.8-13 4.3-4.7 1.3-3.6 5.8 1.2 5.8 4.3 0 17-3.6 25.1-6 23.5-7.1 24.3-11 22.1 2.4-2.9 17.7-12.5 31-28.5 35.4-13.9 4-46 3.2-60.2-1.4-13.6-6.1-14.5-10.4-18.6-22.3-5.6-16.4-8.9-44-2.4-60 5.6-13.6 5-12.2 10.5-11.5 4.9 1.7 11.4-.2 12.8-3.1.8-1.5 2.6-4 3.5-4zm90 9.8a35.7 35.7 0 0 1-1 20.3c-1.5 2.7-9.8 2.5-13 2.6-1.8.4-1.7-24.6.3-27.3 4.8-7.2 11-1.4 13.7 4.4zM1830.7-73l23.3.3v5.6l-27.4-.2zm81.5 1v7.3h-35v46l39.2.2.2 9.5-52.5-.2.2-62.8h48zm178.2-1.5c36 7.9 20 47.6 6.5 50-16.8 3-31 1-26.4-13.7 4.7-10 1.4-22.5 2.8-31.5 3.2-3 11.7-6 17.1-4.8zm-271 14 34.6.3v7.5h-39.5Zm76.9 7a10 10 0 1 1 0 20 10 10 0 0 1 0-20zm97.6 3.9c6.4.7 7 10.5 4.3 13.4-3.3 3.3-9.6 2-11.5-3.2-1.8-4.6 2.1-10.4 7.2-10.2zm-184.1 4.3h44.2v6.2l-44.7.4-1.1-4zm249 2.6c6.2-.1 10 5 6.1 9.4-5.7 6.4-17.5-3.4-6-9.4zm-471.4 13.5c-10 8.3-2 16.5 11.1 8.6 28.3-17 70-3.5 97.3 10.7 5.3 2.7 6-3.7.8-8-25.1-22.2-78.7-34.9-109.2-11.3zM2016-40c7 0 6.8 8.7 2.4 11.7-4.4 2-5.2 1.4-8.1.3-4-1.6-1-12 5.7-12zm24.5.2c8.2.4 7.3 16.8-5 10.9-4.6-4.8-1.7-11 5-11zM1812-31.2l43 .3v7l-40.2-.4zm-278 16.3c11.8 9.3 8.1 10-11.4 3a60 60 0 0 0-33.3 2.2c-9.5 3.7-11.7 2.6-7.6-3.7 11-12.3 41.2-9.8 52.3-1.5zM1590.5.7c-1.2 2.9-5.2-2.4-10.7-1.4-7.7 1.5-5.5 1.9 2.7 11.2 8.3 9.3 11 11.6 10.4 15.2-.7 5.3.8 8.2 6 7.6 2.6-.3 5.6 2.6 9.5 6.2 13.5 12.2 20.3 18.3 24.6 20.2 17.8 7.6 9.8-1-1.6-8.9-19-13-25.5-21.8-12-17.1 14.3 5 37 2.1 48.3-4.7 5.5-3.3 9-8.4 16.8-6 11 3.6 15.1-2.9 12-6.5-4.9-3.2-16.2-7-27-14.2-23-11.7-47.2-11.3-63.3-2-9.6 5.6-12.9 1.7-3.5-3.8 37.3-20.1 67-.8 90.9 13.7 4.1 2.5 7 2.3 7 .5-.6-5.9-11.3-9.5-15.6-12-33.3-20.4-68.4-26.8-94.5 2zm227-17.9h37.4v7.4l-34.6-.1zm-304 9.4c10.3 0 32.8 9.3 32.4 17-.4 2.9-6 .3-11-2.7-9.4-5.8-24-7.4-37.6-4.8-10.5 2-13.9 3.7-15.4 2.4-3.6-8.1 22-11.8 31.5-11.9zm404 5.5.1 13.2c-20.3 1.5-24.4 24-11.4 36.6 10.6 10.3 28.3 6.2 37.1-8.3 1.6-2.6 1.8-4.2 2.7-3 .6.9 1.1 3.3 1.6 5.7 1.4 7-.6 8.8-5.2 14.7a29 29 0 0 0-3.7 30.7c1.2 2.5 4 6 3.5 7.7 2.6-.1-23 71.6-60.5 107.8-6.3 4.1-10.8-.8-7.6-7.5 30.5-69.7-27.9-134.4-50.5-196.7l94-.9zm-271 12 5.3.5c-4.3 32.1-35.5 27-36.7.8l4.5-.2c6 24.4 26.9 14.4 26.8-1zm-176.1.7s2.2 3.6 2.2 5.6c0 7.5-.1 18.3-.3 21.6-1.8 30.9-41 36.6-38 10.1 2.3-11.2 16.5-12.4 20-2.3 5 12.8 6-3 6-8 4.2-7.8 7.2-17.2 10-27zm189 2.2c1.5 0 4.4 1.4 6.7 3.9 2.5 2.7 1.6 4.1-4.4 7.2-6.6 3.4-9.5 3-7.2-3.7 1.5-4.2 2.7-7.5 4.8-7.4zm293.2 1.6c1 0 3.2 1.2 2.7 4.6-1 5.6-5.8 8.8-7 7.4.8-3 1.7-10.8 4.3-12zm-340.1 10.9c-.8 2.2-2.1 1.2-5.5-1.7-3.8-3.2-3.6-5.2.3-7.5 5.6-3.4 6 7 5.2 9.2zm-118.7-8.4c6.5 20.7 19.9 18 25.8 1l5.7-.1c-1.2 26.6-35 26.1-35.2.4zm-11.8 2.6c2-.4.5 6.5.5 6.5s-5.5-2.8-2.3-5.8c.5-.4 1.5-.7 1.8-.8zm49.5 1.7c.7 0 2 .5 3.3 1.4 3.3 2.2 2.8 3.4-1 6.6-5.7 4.8-8.3 2.1-5.2-4.3 1.1-2.4 2-3.6 2.9-3.7zm430.4 4.5c2.4-.2 5.8 1 13 2.9 20 5.3 46.7 5 69.4-1.2 7.2-2 12.5 10.6 8.6 19.8-1.7 4-1.4 4.5 3.8 10 7.5 7.6 8.6 20 3 31.3-4 8.3-3.8 7.5 1 21.6 2.3 6.4 5.1 13 5.6 14.7 6.2 20.7 21.3 45.2 30.5 65.6 9.3 14.4-16.5.2-16.5.2s7 9.2 16.1 16.2c9 6.8 26.5 2.2 34.5 10.4 2 2.6-1.8 57.5-3.7 59-79.3-3.7-211.5-.8-211.5-.8l24.8 38.7c39 15.5 76.2 11.7 111.9-10.8-.9 3.3 43.4 24.9 79.7 27.2l.2 26c-27-3-54.3-3.6-79.3-19.4 0 0-23 9.7-46.1 16.9L2136 487.4v22.4s-55.1-51.5-111.9-109.6l1.2 285.4 111.8 2.2c-3.5 74.2-2 121.5-1.3 206.5-52.8 54.2-125.5 108.4-192.7 141a554 554 0 0 1-80.8-99c-.4-.8 2.3-2.3 1.9-3-.7-1.1-4.7-1.5-5.4-2.6-14-20.8-46.4-78.4-41.3-79.8 10 .7 56-5 65.1-32.6 0-1.7-1-6.7.3-12.4 3.2-15 4.9-37.7-.6-52.1-10-26 19.8-17.7 20.8-16v-98.2c-38.7 31-77.8 61.6-129.5 74.3-32.2-162.3 18.8-364.1 164.4-501l-8-.7c-149.6 154.8-188.8 325-163.3 504.2 0 0 1 5.6 1.1 7.5.4 4.4-.7 6.1-4.7 9.3-3.7 2.5-7.2 5.2-6.8 8.3.6 5.7-5 6-12.2 5.9-3.3-3-7.8.7-10.5 2-3.7.6-5.6-14.7-10.4-3.5-1.8 7.1-5.2 7.7-13.2 4.1-5-1.4-5.2 1-.4 6.9 6.7 7.2 12.4 17.9 11.3 21.1-2.5 7.2-1.4 14.5 8.8 18.6-.6 0-6.2 22 9.6 21.4 5 0 17.8 2.6 17.8 2.6.8 4.2-.5 6.6-2.5 8.5l-11-5.5-2.9 13-14.6-1 35.6 44 4.2-34.3 41.7 5.3c6.7 17.4 48.8 114 129.3 185.8 0 0-44 19.2-56.3 25.2l-7.7-27.4-7 10-12.2-3.2-1.5 11.2-11 3.6 19.2 14.4-49.2 15c-140.4-226.6-204-541.2-29-873.9l44.1.6-8.6 14.7 12.6-2 3.5 10.8 9.2-4.4 9.3 11.6 10.6-31s31.3.7 35.2.3c3-.3 66.2-53.3 64.8-55.3-1-1.5-68.7 48-71 46.2 0 0-6.8 1.6-1.5-4.8 9.5-11.3 16.2-20 25.9-36.3 16-21.8 23-48.2 26.8-66.2.1-1.2.5-4.1-.6-6.2-6-12-4.7-20 6.2-34.2 3.8-5 4-6.2 3-9.3-2.5-6.9-.1-12.8 4.9-17.5 2-1.8 3.3-2.7 5.2-2.8zm-372.4 48.2c27.8 11.4 5.5 36.6-15 14.6-10.9-11.5-19.4-10.8-25.3-2.4-2.6 3.8 1.2 10.5 4.6 8.4 3.2-2 6.5-4.3 11.1 0 35 32.2 60.3-13 30-24.2-3.7-1.7-9 2-5.4 3.6zm-114.2-1.1c.3 0 .6.1 1 .4 1.3.8 1.4 12.2 0 17-4.3 24.3-21.6 80.8-57.2 53.2-14.1-11-1.3-38.6 15.6-29.2 13.2 7.3 4.3 24.7-10 14.7-7-4.8-4.7 5.2 1.1 8 10 5.2 28-3.7 36.4-19.5 3.4-6.3 6.5-17.5 10-33.6 1.8-8.1 2-11 3.1-11zm3 42c3 17.7-10.4 48.5-29.5 53-14.6 3.5-32.6-6-31.3-14.8.4-2.6 1.4.8 14.6 3 18.5 3 30.2-7 40.8-29.9 3.4-7.2 4.8-11 5.4-11.2zm46 8.5c0 2-1 7.2-1.9 10.7-2 8.2-3.2 11.3 5.8 7.3 6-2.8 14.7-5.5 23.7-.5 10 5.5 19.5 4.5 31.2-.5 10.2-3.4 15.1-3.4 20.8-.1 10.4 6 6.8 2.1 5.5-13-1-10.5-3.8-9.1-7.6-5-2.4 2.5-7.3 3.1-12.8.2-6.6-3.6-15.7-1.9-18.8.6-3 2.5-7.5 2.9-13.5-1.2-4-2.7-6.2-1.3-11.1.9-8 3.6-11.1 1.7-15.5-1.7-4-3-5.8-2-5.9 2.3zm-40 12.6c1 0 1.1 4 .4 12.2-3.3 30.2-27 47-54.7 32.4-12.2-7-10.5-11.9 1.4-7.5 19.1 7 38.4-2.8 47.9-27.6 2.4-6.3 4-9.5 5-9.5zm67.8 21.5c13.7 5.7 29 3.9 32.8-1.1 4.4-5.7-2.3-4.8-5.8-4-12 3-20.3 2-25.1-.3-14.3-5.5-13.4.5-2 5.4zm-143.3 17c17.8 21.7 20.1 26 35.5 50.8 112.1 190.4 148 431 74.3 649.4a782 782 0 0 1-80.8 171.1l-38.4.4 13.2-15-17.9 1.3-1-10-13.6 4.4-6.6-15-12.3 34.4-71.1.2c166.7-162 199.5-358.4 168.4-516 0 0 14-8.8 16-13.9.4-1.2 1.4-6.5 2.4-7.2 6.2-4 10.3-8 13.3-7.3 1.8.5 2.7 1.3 4 3.2 5.9 8.6 7.1 10 10.3 1.3 2.3-6.3 1.3-8.5 9-7.3 4.3 2.3 10.2 2.3 9.7 1.4-.4-.7-6.7-8-9.7-12.2-7-10-9-11.7-8.4-16 1-6.7-4.2-13.8-7.5-15.6 1-17.8-6-19.6-25.3-23.6 0-3 .4-5.5 1.8-8.3l11.4 9 4-16.7 15.5.8-44.7-43.3c.2 12.2.8 24.6-.3 36.3-21-1.1-41.7-7.9-42-6.6a561 561 0 0 0-127.3-181.7l49.5-23.8 14 26.8 3.5-15.2 12.2 2.2 2.1-9.8 13.6-1.9-15-14.2zm294.7 31.2c2 2.4 3.4 2.6 6 4.7l-5 3.6c.1-3.4-.2-5.1-1-8.3zm-329.3 9a7.6 7.6 0 1 0 0 15.2 7.6 7.6 0 0 0 0-15.3zm41.3 1.2a7.6 7.6 0 1 0 0 15.2 7.6 7.6 0 0 0 0-15.2zm-133 5.5c24.4 20.4 47 47 74.3 88.5l-.5 5.6 8.3 3s45.5 59.9 43 86.5c-15.6 3.2-27.6-2.5-55.5 23.6l-18-4-18.8 4.7s.2 5.9 4.9 7.9c2 .8 5.4-7.4 7.6-7.2 9.2 1 18.4 1.2 16.7 4.1-1.9.8-6.8 60.3 2.8 73 5.3 12.8 1.5 12.7-3.3 15.1-5.2 3.4-21.6-3.8-21.6-3.8l3.8 94.4c43.2-49.3 134.5-82.2 128-78.6 45.9 242.1-63 403.6-177.2 522l59.8.4s-51.5 82.7-55.4 105.5c3 7.6 11 23.3-2.6 34.4-4.7 5-5.1 28.1-5.1 28.1-31.5 1.1-58.7-9.8-95 2.9-3.7 1.2-4.5-19.7-4.7-23.5-11.2-10.5-13-31.7-3.3-42.7 3.6-4 2-1.9-1-15.6-4.7-21.9-20.6-52-32.7-71.2-4-6.3-8-13.7-9-16-8.6-10.2-31.3-5.5-34-8.2-2.6-2-4.2-58-1.7-59.4 89.6 7.1 229.8-1 229.8-1l-37.6-52.6c-46.3-18-110 12.8-107 14.4.2.2-50.9-27.8-86.3-23.8l1.2-27.5c31.4-.1 60.5 5.7 85.8 20.7l43-16-131.9-138.5 1.5-22.8s33.7 36.1 70.4 74.7c31.4 33 43.2 38.6 43.2 38.6v-287l-113.4-.4-3-58.6-3-5.1-1.3-42.1 3.2-4.3-1.1-18-1-2.6-1.5-43 2.4-3.6.4-27c54.8-53.7 196.3-144 196.3-144Zm96.8 8.2 13.3 58 8.8-11 13.7 4.2.9-13.3 12.4-4.4zm450.8 9.6a7.6 7.6 0 1 0 0 15.3 7.6 7.6 0 0 0 0-15.3zm-35.7 4.8a7.6 7.6 0 1 0 0 15.2 7.6 7.6 0 0 0 0-15.2zm-437 6.7a7.6 7.6 0 1 0 0 15.3 7.6 7.6 0 0 0 0-15.3zm464.4 4.6-53 50 14.8-.7 2.7 14.6 13.3-6.1 10.8 10zm22.6 16.8a7.6 7.6 0 1 0 0 15.3 7.6 7.6 0 0 0 0-15.3zm-422 9.8a7.6 7.6 0 1 0 0 15.3 7.6 7.6 0 0 0 0-15.3zm33 6.4a7.6 7.6 0 1 0 0 15.3 7.6 7.6 0 0 0 0-15.3zm-30 11.3c1.5 20.4 4 44.6 4.4 65l10.1-9.9 11.6 4.8 4.2-12.6 12.6-.6zm326.8 17a7.6 7.6 0 1 0 0 15.3 7.6 7.6 0 0 0 0-15.2zm-348.6 1.4a7.6 7.6 0 1 0 0 15.2 7.6 7.6 0 0 0 0-15.2zm378.8 1.8a7.6 7.6 0 0 0-7.6 7.7c0 4.2 4 7.6 7.6 7.6 3.6 0 7.6-3.4 7.6-7.6 0-4.2-3.4-7.7-7.6-7.7zM1778 336l-44 45.2 14.4 1.4 4.5 12.8 9.3-7.8 11.2 8.2zm24.2 9.7a7.6 7.6 0 1 0 0 15.3 7.6 7.6 0 0 0 0-15.3zm-346.9 14.1a7.6 7.6 0 0 0 0 15.3c4.2 0 7.6-4 7.6-7.7 0-3.6-3.4-7.6-7.6-7.6zm-186.8 4.7-14.3 11 3.5-.6s8.7 10 8.7 10.8c0 .7 5.3-.2 5.3-.2zm222.9 6.6a7.6 7.6 0 1 0 0 15.3 7.6 7.6 0 0 0 0-15.3zm-54.6 10.9a7.6 7.6 0 1 0 0 15.3 7.6 7.6 0 0 0 0-15.3zm315 15.4a7.6 7.6 0 1 0 0 15.2 7.6 7.6 0 0 0 0-15.2zm-30.1 11.2a7.6 7.6 0 1 0 0 15.2 7.6 7.6 0 0 0 0-15.2zm307.1 1.8 15.9 17.3v251.9l-15.5.3zm-616.7 1.8c12.9 0 27.3 1.9 31.8 9.7 7.2 8.8-8 5.4-20.7 7.4-11.8 1.4-5 3.8 11.6 4.8 23 1.3 32 2 35.4 7.2 2 5 .5 8.2 1 13.5l-26.1-1.2c-13.5 0-21.4-.2-25.4.8-3.2.8-2.3 3.4-1.2 4.5.5.5 10.9.7 23 1 32.6.9 39.8 2 42.1 12.4 1.7 9.7-6 8.2-39.6 4.5a47.9 47.9 0 0 0-25 3.4c-3.7 1.8 10.6 3.6 15.3 2.8 3-.5 24.4 1.9 32.3 3.3 6.7 1 .8.9-2.6 5-2.2 3.3-1.5 7.1-5 9-4.2 2.3-12.7 2.2-27.9 2.2-17.3 0-25.4 4.2-1.6 5.3 15.4.7 16.3.4 17.6 4.8 3.4 11-4 12.9-19.7 15.4-7.5 1.3-18.6.6-27 0-33.2-2.4-44.7-10.3-49.2-25-16.7-54.5 4-87.8 52.3-90.5 2.7-.2 5.6-.3 8.6-.3zm335.5 2.5-37.5 54.5 14.5-5.6 6.8 14.7 11.6-8.2 11.6 7.1zm-280.5 6.6c2 2.4 1.1 4.1-2 5.9-2.8 1.5-7.4.4-10.5-1-4-1.7-4.4-8.9-1.1-9.7 4.7-1 10.6 1.3 13.6 4.8zm-271.5-2.8-20.5 19.6.6.8 27-10.6zm575.4 8.4a7.6 7.6 0 1 0 0 15.2 7.6 7.6 0 0 0 0-15.2zm279.1 6.6s19.1 18.8 27 26.8h-7.2l.2 14.8 22.6.2 12.4 12.2-34.5-.2v15.2h42.7l-.2-6.4 17 15.2 2 169-81.5-.3c-.3-83.2 0-163.3-.5-246.5zm-558.5 18.3c-1.1 3.6-3.8 3.6-8.2 1.8-6.6-2.7-5.7-10-.7-10.7 9.5-1.1 11.2 3.3 9 8.9zm25.7 3.2a7.6 7.6 0 1 0 0 15.2 7.6 7.6 0 0 0 0-15.2zm-26.9 5.8c3 .2 6 1.7 7.6 3.4 4.2 4.2 2.7 8.1-2 10.6-5.2 2.7-8.8-1-10.4-7.2-1-4.2 1.4-6.7 4.8-6.8zm239.4 20a7.7 7.7 0 1 0 0 15.3 7.7 7.7 0 0 0 0-15.3zm-252 9.3c6.6.2 8.5 7 5.1 10.5-5 4.9-12.6 2.8-13.6-1.9-.4-5.2 3.9-8.6 8.5-8.6zm224.7 3a7.6 7.6 0 1 0 0 15.3 7.6 7.6 0 0 0 0-15.2zm27 5.1-34 57.3 13.7-5.5 8.4 11 8.6-7.5 13 6.4zm-267.7 9.6c6 0 7.8 4.8 3.3 9.2-3 3-6.4 3.1-9.9.3-5.3-4.1-1.2-9.5 6.6-9.5zm291.6.7a7.6 7.6 0 1 0 0 15.3 7.6 7.6 0 0 0 0-15.3zm-248.4 6a7.4 7.4 0 0 0-7.3 7.7 7.6 7.6 0 1 0 15.2 0c0-4.3-3.7-7.7-7.9-7.7zm565.3 1.7v16.2h43v-16.2zm-564.7 14.4-16.5 60.1 13.8-7.8 8.6 8.8 8-9.9 14.3 3.8zm29.3 6.5a7.6 7.6 0 1 0 0 15.3 7.6 7.6 0 0 0 0-15.3zm-53.7 3a7.6 7.6 0 1 0 0 15.3 7.6 7.6 0 0 0 0-15.2zm589.1 4.8v14.6h43V545zm-353.8 19a7.6 7.6 0 1 0 0 15.3 7.6 7.6 0 0 0 0-15.3zm353.9 8.2v15.6h43v-15.6Zm-886.7 1.9 15.2.3.2 272.9-14.8-15.6zm-6.3.5-.7 249.4-28.7-30 7.6-.2v-17l-24.8-.2-10.6-10.3h35.4v-16.6l-42-.2v10.1l-20.6-22 .3-162.9zm540.2 7.6-23 59.4 14.5-8.3 7.4 7.4 7.8-7 13 6.4zm-603.9 2.9-.2 16h42.4v-16zm629.9 3.2a7.6 7.6 0 1 0 0 15.2 7.6 7.6 0 0 0 0-15.2zm-52 .8a7.6 7.6 0 1 0 0 15.3 7.6 7.6 0 0 0 0-15.3zm-179.3 2.9a7.6 7.6 0 1 0 0 15.2 7.6 7.6 0 0 0 0-15.2zm558 6.1v16.8h43V598zm-559 9.5-6.4 9.8-14.5-5 19.9 60.3 25-62.8-14.4 8.2zm-397.6 4.4v16h42.2v-16Zm956.7 14.3v16.6h43v-16.6h-43zM1113.5 640v16h42.2v-16Zm603.3 3a7.7 7.7 0 1 0 0 15.3 7.7 7.7 0 0 0 0-15.3zm-229.5 8a7.7 7.7 0 1 0 0 15.2 7.7 7.7 0 0 0 0-15.3zm49 1.4a7.7 7.7 0 1 0 0 15.3 7.7 7.7 0 0 0 0-15.3zm533.8 1v15h43v-15h-43zm-353.3 7-9.2 9.6-13-3.7 29.6 55.4 15-59.6-13 8.4zm-603.3 5.7v18h42.2v-18zm397.9 8.2a7.7 7.7 0 1 0 0 15.3 7.7 7.7 0 0 0 0-15.3zm-.5 15.8c-3.3 2.3-4.7 6.3-8 8.4l-14-6 8.3 75.5 38.7-71.3-17.7 3zm-397.4 2.4v18.9h42.2v-18.9Zm633.2 8.8a7.7 7.7 0 1 0 0 15.3 7.7 7.7 0 0 0 0-15.3zm-49.5.8a7.7 7.7 0 1 0 0 15.4 7.7 7.7 0 0 0 0-15.4zM1113.6 720v18.8h42.2V720zm611.3 4.2a7.7 7.7 0 1 0 0 15.3 7.7 7.7 0 0 0 0-15.3zm108 .6c41 1.3 47 14.5 47.3 60 .2 36.4-10.6 50.6-37 57.6-9.7 2.5-45.7.2-56-3.1-.1-3.1-5.2-10.4-6.4-16 2.6-.7 10.9.5 26.4 2 12.7 1.2 16-.8 12-3.3-23.8-5.6-40-4.1-62.9-8.5a35.2 35.2 0 0 0-5.8-14.8c1.2-.5 35.2 3.2 53.1 2.6 8-.3 3.2-4 0-4.7-21-3-34.5-2.5-56.6-5.3.6-5.7-2.3-10.8-5.9-15.1 0 0 11.2-.1 34.3.2 12.1.2 22.7.7 28 .5 8.9 0 8-4.2.4-4.7-9.5-1-46.6-1.3-46.6-1.3 2.8-1.3 6.4-17.9 5-18h15.7c29.7-1.2 34.9-.7 35.4-1.8 4-3.6-6.6-5-17.6-5-4.7 0-11.7 1-11.6-1.5 0-2.4 0-7.2-2.5-12.2 18.2-7 35-8.1 51.4-7.6zm-353.4 9.3a7.7 7.7 0 1 0 0 15.3 7.7 7.7 0 0 0 0-15.3zm292.5 1.6c5 0 6.6 9.1 1.9 10.5-7.3 2.2-11.3.5-11-3.8.1-2.4 5.8-6.7 9-6.7zm-242.5 8a7.7 7.7 0 1 0 0 15.2 7.7 7.7 0 0 0 0-15.3zm218 8.5c17.4-.1 8.4 23.4-5 15-6.5-4.3-1.9-15 5-15zm-274 18.9c-.3 0-.5.3-.5 1.1l4 71.7 41.7-67-16.5 6.2-7.2-10.8-9 7c-3.6 3-10.6-8-12.5-8.2zm258 7.3c7.7 1 13 8.9 7.5 12.6-12.1 5.3-18.6-12-7.5-12.6zm-18.7 15.7a7.7 7.7 0 1 0 0 15.3 7.7 7.7 0 0 0 0-15.3zm29.5 6.5c6.6-.1 9.7 9.5 3.1 12.5-1.4.7-5.5 1.1-7.3-.2-7.8-5.7-3.8-11.7 4.2-12.3zm-286.7 11.8a7.7 7.7 0 1 0 0 15.3 7.7 7.7 0 0 0 0-15.3zm584.8 9.6-28.4 9.5V845c12.4-3.9 19.5-14 28.4-22.9zm-265.9 6.5c5 2 6.3 8.7 2 11-3.3 1.7-12.3 1.4-14.6-1.5-5.7-9.2 6.6-11.8 12.6-9.5zM1507 831a7.7 7.7 0 1 0 0 15.3 7.7 7.7 0 0 0 0-15.3zm-31.4 13.3a6.8 6.8 0 1 0 0 13.5 6.8 6.8 0 0 0 0-13.5zm318.3 11.3a7.7 7.7 0 1 0 0 15.4 7.7 7.7 0 0 0 0-15.4zm-343 .5-.3 67.6 45.1-55.4-15.6 3.4-6.7-13.7-9.7 6.3zm286.5 15.5a7.7 7.7 0 1 0 0 15.4 7.7 7.7 0 0 0 0-15.4zm225.8.3-7.4 12.6 21-11.6zm-195.2 9a7.7 7.7 0 1 0 0 15.3 7.7 7.7 0 0 0 0-15.3zm25.8 8.3-9.2 13-12-3.9-3.6 12.5-14.5-.6 47 41zm-366.6 5.2a7.7 7.7 0 1 0 0 15.3 7.7 7.7 0 0 0 0-15.3zm705.2 11 3.8 561-267.4.5-110-150.3a199 199 0 0 1 9.3-82.5c10.7 7.5 34.3 3.4 33.5-25.5-.5-19-29.7-28.6-44.2-14.4.7-18.3 8.2-45.8 18.9-53.9 7.3 6.7 9 16.6 25.5 13.8 11.8-2 21.2-15.1 16-30.5-1.2-4-2-8.7-2-11.8 0-3.2.4-8.8-.2-12-.9-4.2-1.2-8.7-1.2-8.7a808.8 808.8 0 0 0 318-185.7zm-651.6 9.6a7.7 7.7 0 1 0 0 15.3 7.7 7.7 0 0 0 0-15.3zm-36.1 7.5a7.7 7.7 0 1 0 0 15.3 7.7 7.7 0 0 0 0-15.3zm378.8 3.7a7.7 7.7 0 1 0 0 15.3 7.7 7.7 0 0 0 0-15.3zm-406.3 8.1-12 71.3 52.2-53.3-14.2-.3-2.8-12.1-13.2 4.3zm354.4 15.2a7.7 7.7 0 1 0 0 15.4 7.7 7.7 0 0 0 0-15.4zm33.8 8.4a7.7 7.7 0 1 0 0 15.3 7.7 7.7 0 0 0 0-15.3zm-420.7 9.3a7.7 7.7 0 1 0 0 15.3 7.7 7.7 0 0 0 0-15.4zM1836 973l-12.5 9.5-11.5-7-2.7 15.1-9.7 5.1 41 28.8zm30.3 20.4a7.7 7.7 0 1 0 0 15.3 7.7 7.7 0 0 0 0-15.3zm-433 2.6a7.7 7.7 0 1 0 0 15.3 7.7 7.7 0 0 0 0-15.3zm-34 10a7.7 7.7 0 1 0 0 15.3 7.7 7.7 0 0 0 0-15.3zm447.4 20.2a7.7 7.7 0 1 0 0 15.4 7.7 7.7 0 0 0 0-15.4zm-32.1 6.9a7.7 7.7 0 1 0 0 15.3 7.7 7.7 0 0 0 0-15.3zM1518 1044h.1c.9 1 3.5 8 1.2 11.5-1.3-.6-6.8-5.7-5.3-7.4.6-.8 3.3-4.1 4-4.1zm-173.8 12s7.5.4 9 1c0 2-1.7 6.1-3.7 10.8a94.4 94.4 0 0 0-1.4 74c16 34 61 114.2 57.6 121.5l-99.4.5.4-15.2c28-1 32.4-18.1 25.4-32.2-4.8-9.8-18.4-15.4-30.7-10.3-17.9 7.4-19 16.2-25.4 30l-2.8-3.7c5.3-7.1 7.1-14 6.7-21.8-.4-7.6-.7-5.5 2-9.7 15.6-16.7 5.4-38.5 5.4-38.5-1.9-13.3 46.5-98.6 57-106.4zm-227.2 2.2c28.3 22.5 52.7 98.2 51.2 99.4-1.3-1-22.7 24.3.4 48 0 0-1.4 14.2 3 21.5-10.2 21.2-12 22.8-12.9 40.2-.1 0-1.7-.2-11.2-.2-46.8-.3-49 59.3-2.2 62.6 6.4.4 8.6-1 12.4 2.8 4 4.8 7.5 9.7 14.2 7.2 1.6 0 4.1 1.5 6.8 4 4.5 6 11 10.4 20.4 8.7 3.3.4 6.6 1.3 10.2 2.6 4.1 3.2 11.2 5.7 16.8 3.2a10 10 0 0 1 7.4.3c6.8 3 13.7 1.1 16.2-.8 6.3-3.3 7.7 2 7.4 6.8-3.2 11 3.8 21.3 14.5 25.4 22.5 7 33.8-7 38.6-34.3a347 347 0 0 0 2.3-13.2l75.3 2-108.1 125.3-184 2.2-1-413.9c8.1-.5 14.2.2 22.3.2zm676.9 22.3c13.7 5.3 14.8 15 1.2 10.8-22.3-6.8-46.1 6.7-51.1 26.1-1 3.6-2 6.3-2.5 7-3.1 3.8-3 .3-2-10.4 1.8-21 16.5-36 35.8-36.7 6.3 0 13.1 1.3 18.6 3.2zm-6.8 14.8a25 25 0 0 1 16.4 5.6c5.1 5.7 3.6 9.4-.4 9.2-18.6-7.7-42.2 1.7-51.5 25.2-5.7 14.4-6.7 6.7-4.2-4.5 4.7-20.2 20-35.1 39.7-35.5zm-129.4 5.6c-8.1 0-15.8 1.6-19.7 5.3-7.5 7-1.3 7.2 12.2 2.5a50.8 50.8 0 0 1 27.3 1.5c6.8 2.4 9.2 3.4 8.8 1.3-.4-6.4-15-10.7-28.6-10.6zm151.7 23.5c3.4 7.9 1.2 21.7-10.8 23-14 1.7-21.4-21.9 4.4-17.8-3.4-9.4-15-6.8-20.6-4.4-11.6 5-19.5 16.5-26.7 37.5-2 6.2-3.6 9.4-4.4 8.8-1.4-1-2-10.7 1.1-22.3 5.6-21 19.3-33.7 33.7-34.1 9.4-1.4 20.3 2.6 23.3 9.3zm-201.7-9c-1.3.2 1 4.6 4.3 11.5 2 3.8 3.2 8.7 3.2 9.6 0 3.7 2.9 4.7 7 2.3 4.9-2.8 5.7-4.9 12.5-1.8 6.5 3.4 12.8 5.5 18.7 2 3.2-1.8 5.4-1.7 11.5 0 7.4 1.9 8.4 2.2 14-.1 7-3 15.3-1 17.1 1 1.7 2 .7-.7 4.5-9.6 1.8-4 4.4-9 3.7-10.5-1-1.9-7.4.2-14.4 2-3.8 1-7.4.7-14.6-1.3-15.3-4.3-25-3-34.5 1.5-5.3 2.5-18.7-1-32.3-6.5l-.7-.2zm30 40.9a17.8 17.8 0 0 0-16 10.1c-3.3 8.3 2.3 23.2 11 24.5 7.6 1.1 7.3-3.5 3.5-4.8-5.9-2-12.7-10.3-8.3-17.5 3-5 12.3-5 18.7 1.2 13 12.4 27.7 13.2 30.5 2.4.9-4.3-2.4-10-7.5-8.4a26 26 0 0 1-20.5-3.6 21 21 0 0 0-11.4-4zm136.5 39.3c33-2 18.8 43.1-.3 31.5-6.8-4-3.7-19.3 14.3-19-17.7-13.8-29.8 3-25.4 21.9-4 6.1-5.1 17.9-7.7 24.5-4 7.6-7.2-12.3-3.2-31.5 4-18.5 10.6-26.7 22.3-27.4zm-186.6 1.6c-6.8 0 .2 7.4 1.2 8.3 20.6 16 30.6 26 14.1 20.8-26.9-6.4-33.8 1.2-54.2 10.2-3.8 1.8-4.8.7-9.4-.7-18-5.3-16.6 6 2.2 16.1 28.3 15.4 51.7 18.9 73.7 7.3 14.2-7.3 15-2.5 1.8 5.7-22.6 13.1-46.3 11.1-82.7-11.6-11.8-7.3-13.4-2.4-1.4 5.3 27.5 16.6 64.5 31.7 94.8 7.2 6-5.3 7.1-8 11.7-5.8 12 6 8.1-4.4-.1-14.3-3-3.5-5-6.4-4.9-8.8.7-8.6-4-8.5-8.4-8.3-5.2.2-4.6-1.5-11-8.5-9.3-10.2-20.6-21-27.4-23zm-274.5 45.7c-11.5.9-14 1.4-11.3 24.8.5 4.4 2.5 17.6 3 22.5 6.8 61.3 1.3 88.4-15.7 95.9a21.3 21.3 0 0 1-16.7-.1c-10.8-4.3-15.3-17.4-7.4-33a94.8 94.8 0 0 0 5.6-14.5l5.1-18.3c4.3-15.4 6.7-38.8 4.1-61.1-1.7-15.2-1.3-16.4 2.5-26.7 8.3-15 13.6-22.8 31-23 19.6 2 25 31.6-.2 33.5zm419.7-1.4-5.3.3c-6.4-21.4-19.9-14.5-22.1.5h-4.6c.8-28.6 36.6-20.9 32-.8zm-501.7-16c36.4 3.6 43 12.7 46 56.7.2 21.4-1.2 34.2-4.5 39-5.4 2.7-10.7-2.2-18.5 2.7-4.2 2.7-3.4 3-5.3 0-1.7-2.6.3-13.8 3.1-22.8 2.7-8.6-1.9-13.6-14-24.5-3.2-3-6-7.1-9-13-6.3-16.9-9.5-9.5-4.2 5 2.5 6.3 3.2 9.4-4.7 6.7-4.6-1.6-8.7.3-12.2 2.2-10 2.5-18.7-3-10-6.2 5.3-2 14.8-5 17.7-4.9 2.1 0 3.2-.5 3.2-1.5 0-4.2-19.3-3.7-34 1.3-18.1 8.4-19.2 6.9-17.5-6 4.2-32.9 34.8-36.9 63.9-34.7zm356.6 3c9.3-.5 17.9 10.2 16.2 19.2l-4.5-.2c-2-17.1-18.2-17.8-22.5 1.3l-6.4.1c4-14.7 10.8-20.2 17.2-20.5zm108.4.2c3.7 2.2 1.1 8.1-2.8 9.3-1.5.4-6.2-2.9-5-4.9 2-2.4 5.3-3.6 7.8-4.3zm41.8 3c2.6 0 5.9 1.3 6.3 4.7.2 5-3.7 4-5 3.6-2.5-2.4-3.4-8.2-1.3-8.4zm-127.8 4c6.8.8 9.3 9.4 1.5 10-3.4.6-3.6-8-1.5-10zm-41.6 1c.8 0-.5 7-2.2 8-3.4 2-7.7-.2-7.5-2.3.4-5 6.5-5.8 9.7-5.8zm119.2 17c13 5 30 9.8 46 4.2 5.7-2.2 10.4-4.8 10.4-2.3 0 2.6-4.6 6.5-13 8.8-17.1 4.8-29.5 3-41.3-5.9-3.3-2.5-4.5-4.8-2-4.8zm-5.3 7.4c21 12.3 40.2 13.6 57.3 4.6 7-2.4 7.2-.2 7.2 4.2-31 27.2-69.6-1-64.5-8.8zm-518.5 18.8c-5.2 10.5-8 36.6-16.6 44.3-58.3-3.4-20.8-80.4 16.6-44.3zm361.7-8.7c-3.3 1.8-.4 10 4.8 12.3 44.6 19.2 67.5 21.5 92.9 12.7 10.5-3.7 16.2-12.3 16.8-16.5.6-5-6.2-5.4-18.1-.2-36.2 14.2-58.9 3.2-88.1-7.8a12 12 0 0 0-8.3-.5zm-171 .6-.1 65.1-42.5-.7.5-9.7 31.8 1-.5-46.5-36.9-.3v-8.7l47.8-.2zm10 .2h42.3l2.2 6.7h-44.6v-6.7zm-171.2 20.7c-2.8 2.5-7.6 3-9.6 1-4.5-4.5 0-12.9 7.2-12.8 7.2 0 7.8 7 2.4 11.8zm19.6-10.6c6.4 0 8.5 6 3.6 10.8-3.3 3-5 3.2-8 1-3.7-3.3-1.7-11.6 4.4-11.8zm-41.9 1.6c1.7 0 3.2.1 4.3 1.8 3.9 8-9 13.5-11.6 7.5-2-4.8 3-9.2 7.3-9.3zm239.8.9 2.5 8.3-48.9.3v-8.4zm-175 2.4c7.4.8 6.2 8.2 2.9 11.4-5.8 5.4-11.5 3.7-10-3.6 1-4.5 3.8-7.7 7.2-7.8zm-39.2 24c-2.6 9.1 2.9 27.7 1.3 29.6-3.6 4.2-9.3 2-11.9.6-8.8-5.7-9.4-38.9-.8-40.9 5.5 2.8 9.2-2.2 11.7-2.9 2.5-.7.8 3.8-.3 13.6zm129.2-13.7a8.7 8.7 0 1 1 0 17.5 8.7 8.7 0 0 1 0-17.5zm38.6 1.1h50c3 4.2 2.7 7 1.9 10h-51.9v-10zm-146.8 1.2c2.3 0 3.4 4.8 1.9 10.4a65 65 0 0 0-.7 29.8c1.2 4 2.5 6.9 1.7 8-2.5 4.1-10.5 1.3-13.8-4-8.2-15.3-7-43.7 2.9-41.5 3.7 1.9 5.8-1 8-2.7zm-44 3.8c-2.5 3.9-.8 25.5-1 27.3-.3 2.2-6.5 1-10-.5-8.4-4-6.1-14-4.5-22.2 1.9-6.4 6-7 11-7.5 2.8-.3 6.4 0 4.4 3zm68 1.2c2.6-.1 3 1.9 2.4 9.9a68 68 0 0 0 .3 17.5c2.2 12.6 2.4 16-.7 18.5-3.8 2.9-8.8 2-12.7-1.4-8-6.4-8.6-37.6-2.3-40.3 5.9 1.5 9.6-3.2 13-4.2zm172.6 9.4-7.2 10h-42.6v-10h49.8zm-152 13.2c6.7.1 5.6 11.9 2 19.3-3 4.4-5.3 4.9-9.8.7-5.2-4.8 1-20 7.8-20zm139.6 3.3-6 5.5h-31.3v-5.4h37.3z" style="display:inline;fill:#131f67;fill-opacity:1;stroke-width:5.67895746" transform="matrix(.16176 .0008 -.00085 .15119 -143 789)"/><path d="m5078 891-51.8-40.6c61.6-1.4 123.2 0 184.8 1l-61.5 44c-12.6-13.8-20-32.3-38-41.2-13.3 5.5-22.4 24.4-33.5 36.8zm454.5-14.2c-1-.1-2-.2-2.6-.6-1.4-.9-2.3-2.9-3.3-9.4-15.4-71.7-91-66.7-90.5-64.5-.6-2.9 94-88.2 149.5-155.2 16.8 51.2 67.7 168.1 65.6 167.7 0 0-14.7.1-53-.9-34.7 15.7-58.9 31-57.7 53.2-.2 7.7-2.1 11-4.7 10.3a88 88 0 0 0-3.3-.6zM5702.2 646c49.2-.8 58.5-24.8 64-27.7 32.4-5.3 52.3 15.7 66.5 38.2 18 10.9 15.8.8 19.5-16.1l45-13.2v14.3a229.5 229.5 0 0 0-34.5 26.7l-13.7-.8-7.9 10.4c-31.3 17-62 37-94.9 50.2 0 0-39.5-51.1-44-82zm-612.7 4.5-.5-283.6c20.3-1.5 57.8-1.3 57.8-1.3 15.6-27.6 37-40.6 59-56.7 3 35 4.3 68.4 3.6 103.4-58.3 71.1-90.7 158.6-54.7 289.5l-21.6-2.4zm322 15.9a981.3 981.3 0 0 0 34.8-181.2l111-1.6 2.2 38zm377.8-129.2-2-106c81-96.8 85.7-181.2 55.7-287.8 26.7 6.1 40.5 27 66 55.7v276.7a1102 1102 0 0 1-61.6 5.2c-1.4 13-38.5 44-58.1 56.2zM5446.5 370l-5-46.8 144.2-137.7c-12 59.7-26.3 121-30.5 184.5zm-239.2-146.1c-10.3 6.7-48.3-32.7-54.5-59.2 9.6-12.8 93-53.7 93-53.7s48.8 62.6 46.8 88.7c-21.7 5.7-40.4 7.4-56.9 25-9.4.9-12.7-9.7-28.4-.8zm-65.9-53c11.6 1.9 4.2 17.6 2.4 29l-61.3 18.2c21-18 36-33.3 59-47.2zm199.8-138.4c12.6-.4 25.7 4.8 35.5.9a35.3 35.3 0 0 1 18.8-2.1c18.4 5.7 24.8-14.5 36.5-14.6 15.1 0 23.5-10.6 23.6-31.8 0-9.1.8-10.2 2.5-11 5.2-2.8 10.7 1 11.4 6 10.8 39 38.2 74.2 81.4 71.4A65434 65434 0 0 0 5412 194a1042 1042 0 0 0-70.7-161.6zm445.1-33.6 63-45.8 37.7 46 32.7-43.8c19.1 13.8 62.7 44.4 62.7 44.4s-130.7 1.9-196.1-.8z" style="display:inline;fill:#d40000;fill-opacity:1;stroke-width:5.67895746" transform="matrix(.16176 .0008 -.00085 .15119 -771.6 816.9)"/><path d="m1936.8-211-579.4 3.7L1470-56.9c119.6-24.4 223.8-8.5 331.8 10.3zm-14.8 7.6-38.6 48c-10.6-9.7-34.4-6.2-31 14.9-29.6-15.4-35.9 26.8-10.8 25-3.2 8.3-28.5 10.5-35.6-4.5-26 14.6-34 .4-40.9-8.8 33 22.5 49.2-23.6 12.8-26.2 14.3-29-36.7-42-33.7-4.4-33.6-7.7-26 39.7-1.2 30-16 24-42.4 7.9-47.7 3.2-13.5 10.1-39.1 10.5-46.3-5.8 37.4 7.6 33.3-41.7 0-30.4 17.8-37.8-41.1-32.7-26.8-1.7-33.5-1.3-26.1 40 3.3 33-26.1 24.7-45.7 1.7-49.9 1.2-15.5 17-42.7 7.7-46.4-2.4 26.7 10.6 35.4-34.3 1.8-31.6 8.6-28.9-39.8-32.4-29.1.4-26.7-6-28.2 36.7 1.7 30 1.9 11.8-21.6 23-36.1 11.7-10.6 5.8-22.2 14.8-36 1.4 21-3.4 24.5-39-9.5-31.2 1.6-21.8-11-23-26.4-17.5l-24.8-33.6zm-399.7 53.6c-1.8 4-5 6.9-4.2 10 .6 2.5 3.2 6 6.8 10.8 29 37.8 87.8 36.5 105.5-2.4 3.6-7.3 2.8-9-1.5-15-5.2-7.5.7-15.4 7.1-14.8 9.6 1 11.2 9.4 6.6 15.3-10 12.6 17.5 41.1 45 45.6 35.1 5.7 68.4-19 63.8-41.2-.3-1.2-1-2.4-1.2-3.8-3.7-18.5 25.7-9.6 15.1 2.2-4 4.3-6.1 5.6-5.6 10.3 8.6 39.2 56.3 43.3 79 31.2-29.3 47.9-75.8 11-84-22.4-41.1 59.4-90.6 47-118.2-5.2 3.2 3.3-54.4 93.7-119.8 1-27.6 74.6-78 24.2-74.6 21.1 23.1 13 65.2 8.2 69.3-31.7.6-5-3.2-5.2-5.3-9.1-11-19.7 24.4-19.9 16.2-1.9zm-109 5c5.3.4 6.2 2.6 5.3 8zm449.7 14-7.6 9.5c-1.8-4.7-1.9-9 7.6-9.5zm82.6 3.1c-18 .8-32 25.7-31 58.9.4 16 3.2 56.5 4.3 62.5 1.5 8.4-.1 19.8-3 21-7.9 3.2-10.8 5.2-13 9-5.4 9.6-.9 20.6 10.7 25.5 8.2 3.5 18.6-1.4 25.7-12 4-5.8 4.9-8.4 8.3-23.1 1.6-6.8 1.5-18-.3-28.4-4.2-23.4-1.1-52.6 7-66.4 14.4-24.6 14.1-40.7-.8-45.8-2.7-.9-5.4-1.3-8-1.2zm-1 3.8c21 0 20.4 21 8.8 27.4-4.5 2-10 2.5-15.5-1.1-6.2-3.6-5.4.5 1 5.1 7.6 5.5 10.8 5.2 6.7 18-3.7 11.9-5.7 37.7-3.7 52.3 5.7 40.1 1 60.1-16 67-8.3 3.5-17.3-1.3-19.6-8-3.6-10.5 2.9-19.4 18.7-17 0 0 1.2-3.3-3-38-5.7-48.5-3.4-82.2 5.4-94 4.8-6.4 11-11.8 17.2-11.7zM2087-74c-4.9 0-10.2 1.3-15.6 4.4 0 0-.5 21.7-1.2 25-3.5 18.5-2.5 20.6 6 23.3 21 6.3 38-7.5 37.2-29.2-.4-12.1-11.7-23.7-26.4-23.5zm2.8 2.9c11.4-.4 21.7 13 20.6 25.5-.6 15-15 23.2-27.8 20.5-3.8-.5-7.7-1.3-9-4.1-2.5-4 1.6-5.4 10.2-5.4 9.5 0 11.3-1.2 14.4-6.6 6.3-10.5-1.7-23.8-11.9-21.3-3.4.9-4 2.4.1 3.6 12.5 5.6 7.8 13.4 3.5 16.6-5.1 3.8-13.6-1.4-15-4.5l.8-20.4s4.1-3.8 14.1-4zM1961.4 23s-4.7 2.3-7 4.4c-5 4.6-6.1 11.7-3.7 18.6 1.1 3 1 3.5-2.9 8.5-10.9 14.2-12.3 21.3-6.7 34.1 2.6 5.8 2.6 5.8.2 13.5a301.2 301.2 0 0 1-52.2 96.2c-3.4 4-4.7 8.1-4.7 8.1s5-.2 7.9-1.6c22.3-11.1 46-32.7 68-46.8-34.8 28.1-71.8 53.3-71.8 53.3l47.2 2.6c-11.8 12.1-219 187.7-164 502.6 64.7-16.1 94.8-42.8 129.3-73.7.3 25.4.8 93.7 1 93.7.7-1.1-29.9-11.5-22.6 13.7 4.3 13.8 6.5 48.7-1.2 68.5-.3.8 3.3 2.1 3 2.9-.4.9-5 .9-5 .9-11.7 21.9-42 26.7-56.8 26-5.5-.5-3.3 7-2.6 9.8 2.8 11.3 15.8 35.4 40 74.2l6.4.8-3.6 3.5c2.8 5.2 10.5 15 10.5 15l.3 3.3s13.3 18.6 20.5 27.3c.5.6 1.6-.9 2-.3l12.8 14.9c.3.4-.6 1.7-.3 2l22.5 25 3-.7 11.7 13.3c97.4-44.3 199-142.2 198-142l.9-210.7-115.3-.4-.5-279.2 115.1 113.9-.7-32.7c-26.1-24.8-131-130.7-131-130.7a129 129 0 0 0 44.3-14.9c25 13.8 51.8 22 82.5 18l-.1-31c-34.8 0-56.4-11.6-72-25.5l-21.6-.7c-39.7 30.2-67.7 16.1-98 10.2l-20.8-30 213.8-1.1-1.5-73-32.5.7-21-15.6 24.4 10.4s-.4-4-5.3-11.7a491 491 0 0 1-40-80.9c-4.8-14-4.8-13.4-.7-21.7 5.6-11.3 4.4-25-3-32.7-5.2-5.4-5-6.5-3.3-10.6 7-16-9.8-21.9-9.9-20.9-35.8 13.8-83.9-.4-83-.8zm83.3 5.8c7.2 0 8 3 8 8.4-.7 9.8-13.4 13.3-19.1 14.7-27.5 6.3-75.4 2.5-78.5-10.3-2.3-9.4 3.5-14.6 23-10 31.4 6.8 50.8-.5 66.6-2.8zM1956 56c2.9 0 6.3 2.9 7.3 7.6.8 4-3.4 16-7 18.7-8.7 6.8-16.5-3.7-10.7-15.2 3.4-6.7 6.8-11 10.4-11.1zm93.8 1.3c1.3 0 3.6.3 5.1 1.4 7 5 7.6 21.9 1.1 24.3-6.6 2.5-12.7-4.4-12.6-15.2 0-6.6 2.5-10.6 6.4-10.5zm-22 3.5c1.4 0 3 .3 4.5 1 5.7 2.6 8.5 20.4 2.8 26a10 10 0 0 1-16.8-4.9c-3.3-10.9 2-21.7 9.5-22zm-48.7.5c8.4.1 10.4 18.9 2 26.6-6.8 6.5-17.4.1-14-12.7 1.6-6.4 5.4-13.4 12-13.9zm24 3c12.3 2.2 11.3 32.4-4.9 29.4-9.2-6.4-9-29 4.9-29.4zm-54 32.5 17.4 1.6s-22.6 48.9-43.3 67.6c-7.7 7.8-12.1 8.2-6.3-.2 13-16 32.2-69 32.2-69zm104.7.3a837.3 837.3 0 0 0 34.6 82.6c-21.2-20.4-40-51.8-57.2-81.2zm-82.1 2.6 11.5.1a86.9 86.9 0 0 0 18.4 38.5c6.7-11.4 11-24 15.2-37.4l9.2-.2c3.5 2.1-10.8 55.2-24.9 61.7-14.8-12-27.4-44.7-29.4-62.7zm-5 12.5c-.9 1.3 18 46.8 34 61.4 15.1-14.6 24.8-34 31.2-57l49.7 69.7-48.4-33a246 246 0 0 1-32.3 44c-13.2-14.3-24.7-31.4-36.8-47.6-18.7 13.9-31.8 28.6-56 41.6 0 .5 47.5-51.2 58.7-79zm-4.6 49.6L1996 203l-90-1.3zm73.2.6 56.7 39.1-84.5.9zM1583 181.7l1 4c10.1 41 38 75.2 79.7 71.1l-137.4 137.4s-22.7-77-68.7-156c0 0 8.4 1.8 15 3 6.1 1 10.8.7 15.4-.5 3.5-.5 6.2-2.8 9.3-3.5a32 32 0 0 1 15.5 2c9.4 1.8 15.9-3.5 27.7-14 3.1-2.7 4.3-2 8.3-2 14.8 0 24.3-12.7 22.6-32.4l-.8-8.7-1.8 9.8c-3.6 18.6-6 26.6-24.4 27.3-4.4.2-6.1 3.2-13.2 9.3-9.8 8.4-16.8 9.2-23.7 5.8-7.2-3.3-7.8-1.3-14.5 1.9a43.6 43.6 0 0 1-29 .3c-14.1-4-12.4-2.7-12.4-2.7 81.6 145.3 110.3 284.7 108.5 408.5a792.2 792.2 0 0 1-118.4 404.7s9.3-1 17.5-2.2c4-1 7.1 0 11 1.4 3.7 1.3 6.5 1.2 10.1.8 2.8-.3 9.7 0 14.1.7 10 1.4 10.7.1 21.7-10.5 31-30.2 29-29 51.5-28.3 33.8 1 60.8 23.3 72 59.4 1.4 4.6 3.3 11 3.6 11l-2.2-9.5c-10-48.5-51.3-66.2-85.9-65.5l146-146.3c-.8.2 33.8 111.3 63.9 160.8 0 .4-9.1-4-26-1.7a91 91 0 0 1-25-1c-7.4-.2-11.8 2-21 9.5-3.8 3.3-7.3 6.9-14.7 10-17.8 7.5-24.9 15.3-25 34.7 0 3.5-.5 8-.5 9.8l.1 1.3c.3 0 .8-.7 1.1-1.2.9-1.3 2.7-4.8 4-13 2.5-14.5 5.6-19.6 19.3-26a115 115 0 0 0 16.7-10.3c12.7-10.2 17-12.5 27.3-10 5.8 1.3 10.8 2 18.7 1 9.4-1.1 10-1.6 20 1 6.7 1.8 15.1 3.5 15.1 3.5-141.4-284-136.7-547.2 2.8-814.2 0 0-41.3.5-43 1.6-.7.4-5.7 0-11.2-1-11.2-2-8.8-.7-35.3 26-32.8 33-85.3 6.6-101-48.7a30 30 0 0 0-2.8-6.7l-1.5-1.7zm133.7 32.4c6 .7 10.6 2.3 9.8 8L1532 412.7l-3-12.3zm41 1.2c-2.4 4.7-8.9 10.6-11.7 15.1l10.6 13.2-5.9 10.6-16.3-13.7-31 30.6 25.9 29-24.5 24.7-8.2-9.2 13-13.5-20.1-18.9-35.4 34.5L1683 347l-21.1 20.3-8.5-8 11.1-12.3-18.8-19.4-33 33.6 26.1 29-20.1 20-9-9 9.7-10.1-18.6-19.6-33.6 33.2 27.2 29.5-20 18-7-7.5 9.6-10.4-18.3-19.6-20.8 18.9-3.5-13 206.2-204.8zm12 3-8.8 17.4-6.7-7.3 8.8-9zm-486.4 1.1c-5.3 1.3-128.1 69.7-198 144.8l-.2 28-2.6 3.3 1.2 43.3 1.8 2.3.6 17.6-2.8 4.7V512l3.7.6.6 59.3 114.8.3-.1 283.4s-67.4-74.1-116-117.8l.2 33L1215 903.6a97.3 97.3 0 0 0-37.6 13c-41.7-26.1-89.9-18.2-89.9-18.2l.2 33.8c30.6-3 58.3 1.2 90.5 22.9 26.5-18 58.4-28.9 106-14.6 10.5 16.6 21 33.7 31.5 44.8l-227.4 1.7.3 68.4c10 .2 35.3 0 35.3 0 12.8 25 38 59.2 48.3 102.3-14.3 17.2-13.1 31 .8 48.3-.1 7.9-2.5 16.5 6.3 25.2 29-14.1 61.6-7.9 86-.6 8.2 2.4 11.3-7 11-18.8-.8-6.7-.7-9.6 4.5-14.1 12.4-10.8 4.7-32.8 2.7-33.3-.7-19.3 61.2-116.1 61.3-114.3l-12.4 4.4-52.9.3c139.2-134.3 197.4-287.4 185.3-460.3-2.8-43.6-9.5-63.6-9.5-63.6-49 21.8-89.4 37.7-128.5 79.6l-2.6-90.1c2.1 4.2 16.7 8.2 23.2 2.7 4.4-2.9 4.9-6 .8-17-6-15.8-7.4-49.9-3-61.4.5-1.4 1-5 1.4-8.5.5-4.8-.6-5-1-5 1.1-.2 6 .7 6.5.2a89.5 89.5 0 0 1 56.7-24.8l.5-10.8c-16.3-41.2-30.1-57.4-44.9-80.4 0 0-4.2-1.4-6.8-.9l3.4-3.6c-20.8-32.9-50.3-62.8-77.4-91.3 0 0 0-.1-.2 0zm-.9 5.6 14.7 13.6c-70.2 33.8-139.5 83.2-207.8 150.3l1-24.6A883.5 883.5 0 0 1 1282.5 225zm451 24.7 9 8.8-12.3 14.2 8 8.1-4.5 10.9-20.4-21.2zm-438.4 1.1a8.4 8.4 0 1 1 0 16.8 8.4 8.4 0 0 1 0-16.8zm601 11.6c143.2 159.3 69.7 391-121.4 446.6l-2.1-13.1c192.8-65 238-282.3 112.9-418.9Zm-576.2 1 9.1 10.6c-81.6 39-161.2 97.4-238.2 181.7l-.7-21.3c72.2-76 149.5-131 229.8-171zm-52.6 3.3a8.4 8.4 0 1 1 0 16.7 8.4 8.4 0 0 1 0-16.7zm-25.5 15.7a8.4 8.4 0 1 1 0 16.8 8.4 8.4 0 0 1 0-16.8zm84.9 5.5a8.4 8.4 0 1 1 0 16.8 8.4 8.4 0 0 1 0-16.8zm363.7 5.8 8.3 8.9-13.2 13.3 18.9 19.7 18.2-17.5-9.2 26L1553 504.4l-3.3-16.8 12.6-12.7-19.4-19.3-3.4-12.9 19-17.8 8 8.2-11.1 12.9 18 17.6 32.4-30-26.8-29.4 22.2-21.4 7.6 7.4-10.6 11 18.7 20.1 33.3-32-27.4-28.9 22-21.7 8.4 8-11 13.3 18.9 18.3 32.7-32.3-26.9-28.2zm-473.7 5.6a8.4 8.4 0 1 1 0 16.8 8.4 8.4 0 0 1 0-16.8zm132.1 1.7 6.4 10.6c-97.2 49-164.4 98.2-263.9 211.2v-14.2c76.8-94.3 156.7-155 257.5-207.6zm-48.8 1.2a8.4 8.4 0 1 1 0 16.8 8.4 8.4 0 0 1 0-16.8zm752 3.2c17 15.3 53 30.5 76.2 28.9l.7 18.3c-40.5 3.9-75.8-22-75.8-22-31.2 19-63 21.4-96 13.1l-12.7-27.2c49 22.7 95 1 107.5-11zm-193.8 5c1.8 3.3 7.9 7.2 7.9 7.2 37.7-9.9 49.5 29 31.9 51.3l5 16.3a44.4 44.4 0 0 1 17.5 6.9 31.3 31.3 0 0 1 13 29c1.3 12.5-17.4 24.2-18.4 23.3l-.3 18c5.3 4.3 11.7 8.6 15.7 14.8 9 15.2 5.4 30.4-8.5 40-8.3 5.6-17.2 6.4-17.6 5.8l-8.7 20.3c7.7 4.4 9.8 11.7 11 17 2.6 11.4-5.4 26.3-15.5 31.8-12.7 7-30 .8-30 .8l-12.3 12.4c3.2 10.7 4 17 2.3 23.4-4.1 15.5-20.4 21.6-33.5 20.5-10.3-1-18-8.5-18-8.5l-13.8 5.3c.4 0 .2 17.3-6.7 22.7-2.2 2.2-10 7.2-10 7.2l-1.7-12c5.4-3.9 8.8-13.4 7.7-20.3l29.6-14.5c0 1 8.1 9 13.7 10 11.3 2.4 23.2-6.5 23.2-17 0-6-3.5-10.2-4.5-15.1l25.2-26c10.4 3.5 17.7 4.2 22.4 1.5a20.5 20.5 0 0 0 9.4-21.9c-2-7.4-8.6-12.2-9-13l14-35.4a25 25 0 0 0 15.7-4.4c10.4-6.8 9-20 4.6-26.4-5.4-7.7-13.2-9-13.8-8.9l1-36.8c0 .3 14.2-6.9 15.7-15 2.3-12.2-2.8-19.9-17.7-23.3-8.3-1.9-7.8-.3-7.8-.3l-11.8-33.4c18.6-11.3 12.7-29.4 3.3-35.4-10-6.4-24-.5-24-.5s-6.4-6.3-11.2-11.5zm-498.3 6.8a390 390 0 0 1 44.6 78.9c.5 1.2.2 7.8.2 7.8-33 2.8-44.4 15.8-56.1 25-9.1-4.8-13-10.2-29.4 0 0 .6-42-25.3-50-60.4 30-18.4 58.5-36 90.7-51.3zm-167.7.2a8.4 8.4 0 1 1 0 16.7 8.4 8.4 0 0 1 0-16.7zm79.4 1.6a8.4 8.4 0 1 1 0 16.8 8.4 8.4 0 0 1 0-16.8zm573.2 10.3c14.4 19 36.1 55 41.3 86.8 7.3 44.7 2.5 91.7-18 124.5-37.3 70.1-101.9 85-102 87.5l-.6-14.4c.6 3.3 49.4-17.3 82.6-63.6 20.4-31.5 32-76.3 28.1-111.4-2.4-50.5-38.3-97-38.6-97.2zm-678.7 6.9a8.4 8.4 0 1 1 0 16.7 8.4 8.4 0 0 1 0-16.7zm79.3 0a8.4 8.4 0 1 1 0 16.8 8.4 8.4 0 0 1 0-16.7zm715 14.2c18.7 2 41.4 35.7 62 55l.3 274.6-61.8 1.3c-8 19.3-26.7 38.4-56.4 57.3v-103c101.3-108.6 73.7-227.5 56-285.2zm-817 3.1a8.4 8.4 0 1 1 0 16.8 8.4 8.4 0 0 1 0-16.8zm76.3 1.5a8.4 8.4 0 1 1 0 16.8 8.4 8.4 0 0 1 0-16.8zm784.3.7L2130.3 483l-.4 18.7-142.3-144.6zm-738 12 3.3 16c-4-6.5-4.2-8.8-11.3-10zm-68.4 4.6a8.4 8.4 0 1 1 0 16.8 8.4 8.4 0 0 1 0-16.8zm-75.6 2.4a8.4 8.4 0 1 1 0 16.7 8.4 8.4 0 0 1 0-16.7zm710.6 0 25 17.6-8.2 31.9-25.5-23zm-576.3 2.6 4.5 2.6-5.2 21.8-57.4 20.7c18.5-15.8 37.5-33 58.1-45.1zm9.5 10c4 16.2 12.9 40 23.7 60.3-7.3 3.8-33.8 18.8-33.7 25.8 3.7 12.6 31.7 24.2 31.7 24.2a317.4 317.4 0 0 0-29 60.8c-4.7-8.2-5.3-40.3 5-53.6-10.2-4-24-13.2-34.6-22.6 6.8-24.2 35.8-38.5 37.1-38.7-.5 1.2-8.6-50.4-.2-56.1zm-93.2 4.1a8.4 8.4 0 1 1 0 16.8 8.4 8.4 0 0 1 0-16.8zm639.3.7c37.3 69.4 15.1 129.7-44.3 173l1.4-16.4c41-29.8 67.5-88.3 37.6-144.2zm-710 2a8.4 8.4 0 1 1 0 16.8 8.4 8.4 0 0 1 0-16.8zm596 .5c-27.3 101.9-26.7 148.6-29.8 176.2l-106.2 1-4.1-36.8Zm-424 2.8s23 21.3 43.6 40l-2.5 4.9-20 2.7c-15.4-30.3-21.2-47.6-21.2-47.6zm-19.2 11.2h.2l1.3 15.2c-7-.3-81.6 31-139 80.7a178 178 0 0 1 37-41.8c29.6-29.1 100.5-54.1 100.5-54.1zm-106 3.4a8.4 8.4 0 1 1 0 16.8 8.4 8.4 0 0 1 0-16.8zm47 9.6 4.2 4.3-19.8 10.3zm138 4.4h.9c3 .4 4.3 1.9 6 3.4-3.8-.8-7.6-1.3-11.2-1a6 6 0 0 1 4.3-2.4zm-75.8 3.2 1.8 11.3c-43 24.5-94 47.5-168.4 117.8V535A535.8 535.8 0 0 1 1258 429.2zm57.8 1c2.7.7 5 .7 7.5.1 0 0-1.5 3.1-3.4 3.2-2 0-4-3.3-4-3.2zm18.2.7c5.4-.3 9.1 4.6 8 11a133 133 0 0 0 .5 58.6c3.5 12 4.4 16.1 1.5 18-25.3 17.6-39.2-61.2-18-83.5 2.8-2.7 5.6-4 8-4zm-206.7 2.8a8.4 8.4 0 1 1 0 16.7 8.4 8.4 0 0 1 0-16.7zm727.7 1.9 15.7 26.4-22 24.6-13.3-28.6zm-542 14.3-.8 9.2a81 81 0 0 0-29.7 15.5c-1.6 1.4 26.2 14 29.1 11v9.7c-.4 3.2-46-11.3-49.2-22 5.2-7.3 34.1-24 50.6-23.4zm-207.8 4.9a8.4 8.4 0 1 1 0 16.7 8.4 8.4 0 0 1 0-16.7zm124.5 9.6c-3.2 6.2-8 14.3-9 23.3-31.2 19-63.4 36.7-102.4 80.3l-21.1-.2-.5-5.5c42.7-40.7 89-75.8 133-97.9zm80.7 2.6.2 11.5c-7.3 0-11.2-2.3-16.7-5 4.6-3 8.2-5.8 16.5-6.5zm235.7 1.3 5.8 6.1-3.6 3.4zM1228.7 492l11.6 7.2a321.4 321.4 0 0 0-88.5 68.7h-23c29-31.5 60.3-59.7 99.9-76zm618.5 8.3 2.3 31.2-29.2 16 .6-33zm-554 .1 20.1 2.2 2 8.5a315 315 0 0 0-45.3 36.2 177 177 0 0 1 23.3-46.9zm-48 3.3 8.6 4-3.4 14.7a225.4 225.4 0 0 0-65 45.5h-23.6c20.7-22.1 55-50 83.5-64.2zm74.6 13.8 3.2 96.2c-86.5 101.3-81.8 199.2-56.6 288l-16.5-.7c-19.2-23.8-44.7-48.1-44.7-48.1V573.4l59.6.2c14-32.6 52.8-55.7 55-56zm-70.5 13.5.8 12.8a172.8 172.8 0 0 0-31.8 24h-22.5c15.5-14.3 31-28.9 53.5-36.8zm203.5 6.3 3.2 15.1c-200.8 72.7-237 283.8-118.6 428.8l-8 9c-136.1-146.1-76.4-384.9 123.3-452.9Zm-201.9 15.1 1.5 15.5h-22.5c5-6 9.5-12.1 21-15.5zm565.2 4.9-13 30.1-34.5.6 15.7-30.2zM1597.5 578h31.4v30h-31.4zm-136.2 3 .5 13.2c-14 7.1-10.4 18.4-14 18.3a235 235 0 0 0-31.2 14.2 20 20 0 0 0-24-2c-6.9 4.6-8.4 15.3-6.4 24.3l-24 28c-11.7-4.9-23-4.6-28.6 3.2-6.4 8.7-4 19.5 6.5 31.7l-13 33.6c-1.6-2-23.5 4.4-23.8 17.4-.3 13.8 18.1 22.8 18.1 23.8l-.9 37c-.8-1.7-18.8 5.6-16.3 23.4 2.2 16.3 24.5 14.4 25 15.7l12 35.5c-.8-1.1-16.4 14.2-6.8 28.6 8 12 31 4.2 30.8 3.4l6.5 9-7.1 7.8s-3.1-3.7-4.8-3.4c-13.5 2.6-28.5-.5-35.7-11.2-9.8-15.2 1.1-38.9 4.6-38.7l-8.3-20.4c-15.1-.3-28-13.8-28.7-25.1a35.3 35.3 0 0 1 18.1-33.5l.6-22.2c-1.2 1.3-19.2-11.5-18.8-26.2.3-10.7 9.4-23.3 20.5-28.4l8.2-4 7.6-18s-10.7-15.5-8-31c5.2-23.5 35.9-21.9 40.7-19.6l14.2-17.8c-7-16.3 5.1-35.2 21-38.2 7-1.2 26.6 3.5 26.6 3.5l18.3-9.4c-.4-10 10.5-16.4 20.6-22.5zm103.6 33h27v30h-27zm71.8 0h30.4v30h-30.4zm-173.2 7.4-.4 11.5c-174 84.5-102.9 259.2-78 279.6l-5.6 12.3c-30.6-18.6-109.3-220.2 84-303.4zm134 30.5h32.7l.3 30.9h-32.8Zm-141.6 15-10.4 28.2-32 2.6 11.9-28zm653.3 20.6 21.8.1c-40.9 47.9-85 80.5-128.6 98.3 0 0-.1-4.3 1.2-7.6 1-2.7-.6-9.4-.6-9.4 48.4-23.9 81.7-51.6 106.2-81.4zm-112.1.4a70.5 70.5 0 0 1-20 17.1l-3.2-17.4 23.2.3zm38.5-.4c2.2 5.6-57.4 37.8-57.7 35l.2-10.7 32.2-23.8zm12.8 0h.2l16.7.1c-15.1 24-95.3 67.3-92 61.2l3.3-17.5a363.5 363.5 0 0 0 71.8-43.8zm28.3 0 22.1.1c-33.2 42.2-67 57.6-99.2 75.8-2-.3-1.1-1-7.2-.9l-11-8.6c2 1.9 74.3-40.4 95.3-66.4zM1459 689l-.8 12.8c-46.4 40-65 91-41 150.3l-5.7 12.6c-26-63.2-18.3-124.7 47.5-175.7zm211.6 2 2.5 34.4L1528.7 866c22-78.5 28-125.8 34-174.7zm462 8.1v19.1c-56.8 62.7-114.1 90.8-163.7 102.1l-1-7.3 22.9-14.2c73.9-32.1 106.2-64.6 141.8-99.7zm-172.6.5c1 13.8-11.3 39.9-25.3 54.6h-24.1l-2.7-10.5c20-10.8 38.5-25.3 52-44zm7.3 4.1c8.8 14.3-4.5 51-5 49.6-1 2.5 75.6 18.8-3.2 56.7 1.7 11.1 9.1 34.9 3.4 49.6-1.7-5.6-15.4-43.8-26-53.6 24.6-7 42.3-22 40.4-27-4-7-15-15.7-33.6-22a134.7 134.7 0 0 0 24-53.3zm-563 7 2.5 29-28 16.9-2.2-31.9zm487.1 27c2.2 0 4.3.5 5.3 1.6 13.8 5.6 14.8 73.1 2.2 80-9 5.7-15.5-3.5-15.2-5.1 6-31 2.3-50.3-.2-72 .2-3.1 4.3-4.6 8-4.5zm241.2 1v24c-81.3 84.2-168.9 150.7-258.3 188l-8.2-13.9a811.6 811.6 0 0 0 266.5-198.1zm-14.2 2.1c-37.7 52.5-83.6 86.7-146.5 102.2l-1.1-14.8c78.2-17.8 149.6-87.4 147.6-87.4zm-1025 8.5c49 50.2 99.3 99.9 149.2 151.4l-19.8 1-130-134.9zm583.9 2.5 1.7 12.4-14.2 15.7 22.5 24.2 1.2 5.7-19.4 20.3-8.7-8.7 10.7-12-18.2-19.1-33.7 32.4 27.7 30.2-21 20-8.2-8.6 10.7-12.4-18.6-19.7-34.4 34.2 26 28.8-17.3 19.1-8.2-8.6 8.9-10.2-18.9-19.4-33 31.8 27.2 30-22 22-8.7-8.3 12.5-13.5-20.4-19.4-16.4 15.5s6.2-15.4 7-18c1.4-3.8 6.8-6.8 41.2-40.7 41-40.8 83-79 124-123.7zm235.2 8.3c12 .2 32.4 3 42.3 8.3 18.4 9.7 12.6 17.3.7 23a96.6 96.6 0 0 1-42.1 10.6l.5-8c9.3-2.2 19-4.5 27.3-9 5.7-3.2 7.2-5.7 7.2-5.7s-5.6-5.7-14.4-8.9c-6.5-2.3-15.7-2.3-20.7-3.1zM1376 770.5l15.1 22.7-17.8 30-17.2-26Zm304.5 2.5c.5 4.2 6 20.8 3.1 17.6l-10-11.3zm233 2.2c8.3.7 17.1 1 23.2 3.9-7 5.5-15 6.7-23 8zm209.4 11.3a9.1 9.1 0 1 1 0 18.2 9.1 9.1 0 0 1 0-18.2zm-471 15.8 7.8 7.5-10 11.8 18.2 19.2 22.6-21.2 3 13.5-211.7 208.2-11.7-.8 13.4-16-15.3-15.6 6.3-11.2 18 16 33.2-31.6-26.9-28.2 23-23.6 8.6 7.5-13.1 14.3 19.1 19.5 34.7-34-27.1-29.5 21.6-20.6 8 7.5-10.1 10.7 19.7 20.5 29.2-30.4-26.6-29.2 23.6-23 7.3 7.3-10.9 12.1 19.9 20.5 31.8-32.7-26.2-28.4zm449.8 5.5a9.1 9.1 0 1 1 0 18.2 9.1 9.1 0 0 1 0-18.3zm-172 .4a98.7 98.7 0 0 1 24.7 55.8 170.2 170.2 0 0 0-45.3-46.3l3.3-8.5zm203 1.3V830a694.6 694.6 0 0 1-222 165.5L1897 979c94.6-42.2 163-94.6 235.5-169.4zm-94.4 14.3-26 20.1v-8.7l26-11.5zm-134 1.5c22.1 10.8 40.7 29 51.7 56-30.2 19-63.4 34.4-95 49.7-15.1-24.4-30.4-47.3-42.4-78.8 48.8-.4 62.1-27 62.5-27.2 11.7 4.4 14.2 5 23.2.3zm175.1 4c4.6 0 9.1 3.5 9.3 8.7a9.1 9.1 0 1 1-18.3 0c1-6.3 5-8.9 9-8.8zm-67.4 6v8.7a647 647 0 0 1-36.6 28.6l-10-.5 3.3-25c15.1-3 29.8-7.5 43.3-11.9zm-636.8 1 23.9 19.6-7.3 30.4-23.5-17.8zm320.6 5.7 2.2 8.8-196.1 194-11.2-1.9zm361.9 7.5a9.1 9.1 0 1 1 0 18.2 9.1 9.1 0 0 1 0-18.2zm72.4 0c1.1 0 2.4-.1 2.4.9v16.8c-1 .3-2 .5-3 .5-5.1 0-8.5-4.1-8.5-9.1s4-9.2 9.1-9.2zm-22.1 20.3a9.1 9.1 0 1 1 0 18.2 9.1 9.1 0 0 1 0-18.2zm-76.7 0a9.1 9.1 0 1 1 0 18.3 9.1 9.1 0 0 1 0-18.2zm-66 2.9 9.4.3-17.4 10.4c3.2-4 6.2-7.1 8-10.7zm167.3 4.3.1 18.7a730.3 730.3 0 0 1-188.1 136.2l-11-11.1a706.1 706.1 0 0 0 199-143.8Zm-127.4 10.2a9.1 9.1 0 1 1 0 18.2 9.1 9.1 0 0 1 0-18.2zm81.1.7a9.1 9.1 0 1 1 0 18.2 9.1 9.1 0 0 1 0-18.2zm-908.7 36.6c31-18 55.8-20 91.3-14.7l10.6 21c-34.6-6.2-71-5.6-102 18.4-32.3-20.4-56.8-26.3-83.3-23l-.4-22c34.5-4.8 65.4 7 83.8 20.3zm802.4-19.9a9.1 9.1 0 1 1 0 18.3 9.1 9.1 0 0 1 0-18.3zm83.5 3.8a9.1 9.1 0 1 1 0 18.2 9.1 9.1 0 0 1 0-18.2zm-111 13.6a9.1 9.1 0 1 1 0 18.2 9.1 9.1 0 0 1 0-18.2zm85 5.3a9.1 9.1 0 1 1 0 18.2 9.1 9.1 0 0 1 0-18.2zm-113 10.7a9.3 9.3 0 1 1 0 18.5 9.3 9.3 0 0 1 0-18.5zm88.8 7.7a9.1 9.1 0 1 1 0 18.2 9.1 9.1 0 0 1 0-18.2zm-115.9 6.3a9.1 9.1 0 1 1 0 18.2 9.1 9.1 0 0 1 0-18.2zm-403.4 8.2 22.7 20.8-23.4 23.6-8.6-8.3 13-13.6-8.8-12zm494.1 2a9.1 9.1 0 1 1 0 18.3 9.1 9.1 0 0 1 0-18.2zm-26.3 15.5a9.1 9.1 0 1 1 0 18.3 9.1 9.1 0 0 1 0-18.3zm-28.5 15.5a9.1 9.1 0 1 1 0 18.3 9.1 9.1 0 0 1 0-18.3zM1464 1019l7.4 6-11.6 14h-8.9zm-143.3 37.8a224.3 224.3 0 0 0-56.2 36.6l-25.9-35.9zm-176 .2 68.9 1-23 32.4a139.3 139.3 0 0 0-46-33.4zm82 3.6c7.5 2.3 27 30.2 36.2 45.4 19.6-15.6 38.8-33 59.7-42.4a463.5 463.5 0 0 0-62.3 79.7c-4.4-11.8-16.6-45.7-32.1-60.5-24.5 22.9-34.2 50.5-34.2 50.5a438 438 0 0 0-47.4-66c-3-4 22.4 11.7 47.5 36.1 7-17.8 26-42.1 32.6-42.8zm-82.7 17.5c11.8 9.3 44 50.6 47.7 75.4l-15.4 1c-8.2-25.5-22-51-32.3-76.4zm171.3 4.2c-11.7 23.9-26.1 48.3-36.5 74.7l-15.2-.7c16.7-36.4 22.7-43 51.7-74zm-87.3 10.6h.4c14.4 19.8 21.3 39 25.6 62.4l-11.2-.5s-7.8-23.4-13.2-31.7c-3.4-5-6.2-4.4-8.7-.2-5.5 10-7.5 19.8-10.6 30.6l-13-1c-2.3-17.6 26.2-59.1 30.7-59.6zm-2 68c5.2.1 10.7 5.8 10.6 15.7.4 4.7-3.2 15-7.1 15.6-7.3 3.8-16-8.2-13.8-18.2 1.9-8.6 5.7-13.1 10.3-13zm-25.4 2c10.4.8 12.6 24 8.4 28.8-4.8 4.7-17.5 1.3-18.7-7-4.2-10.4 3.4-21.8 10.3-21.9zm51-.2c11.3 1.6 8.4 27 2.6 30.8-9 4.7-16-3.3-12.9-15.2 2.5-9.7 6.1-15.4 10.3-15.6zm26 4.2c13 1.4 5.5 23.9-.2 28.4-8.1 6.4-16-3.1-12.1-14.5 3-8.8 8-14 12.3-13.9zm-104 .7c9.3 1.5 14.8 22.7 9.2 28.8-3 3.5-11.4-1.6-15.3-7.4-4.6-7-.3-21.4 6-21.4zm99.8 46.2c1.1 11.2-7.3 11.2-31.5 5.7-12.3-2.7-34-1-45 1-18.7 3.4-21.3 2.1-21.3-5.5 0-8.8 10.5-13.8 34.7-14.5 17.3-.6 60.4-.7 63.1 13.3zm37.7-6.5c-28.9 2.7-36.6 38.8-33.4 52.2 2.6 22.3 1.5 45.7-2.8 61-3.1 11-5.8 22.8-10.8 32.8-7.6 15.1-5.6 26.4 5.6 32.4a23 23 0 0 0 27.8-4.4c12.9-13.9 14.4-43.3 6.5-110-2.8-23.5-1.3-28.2 10.1-26.9 24-.2 23-37-3-37.1zm-3.5 30.3c-6.5-2.4-10.8 3.4-10 18 .3 6.5 1.4 13.8 2.2 19.6 9.3 64 5.9 106.8-13.8 109-17.1 2.7-28.7-9.9-20.3-23 4.7-7.3 8.8-8.3 18-4.4 12.6 7.8 9.4-3.6-2-12-7.2-5.2-7.8-5.2-3.9-21.3 5.3-21.8 7-37.4 5.1-65-2.7-19.4 3.8-45.3 28.6-46.8 25.1-.7 17.6 34.9-3.9 26zm-177 84.3a28 28 0 0 0 23.8 0c3-13.5 3.2-24.8 12.4-43.3-15.3-15.3-41-9.3-48.2 6.7-7.2 16-.5 30.6 12 36.6zm24.4-47.2c9.2 2 7.8 11.7-.9 8.5-20.7-9.8-37.6 19.6-20.9 30.7 8.6 4.8 12.3 2 3.9-4.5-3.5-4-2.6-5.6-.5-9.7 4.3-8 20.1-6.7 19-.9-3.6 18.7-6 24-11.6 24-32.2 1.7-38.2-58.6 11-48.1zm273.6 33.5s-96 108.5-142.2 164l579.2-2.7-110.2-152c-94.5 21.8-205.6 15.5-326.8-9.3zm-3 34.6c14.6.2 31 10.7 45.2 45.7.8.4 63.8-95.5 118.2 3.7 9-22.2 60.3-80.4 119.6-5.8 21-49.9 69.6-33 74.2-15.6-1-3.7-46.3-14.5-66 18.6-3.5 7-3.7 13.7.4 17.6 9.8 9.3-.8 22.6-12 15-4.3-3-4.9-9.1-1.6-13.6 9.9-7.3-10.3-30.2-26.9-38.4-22.7-11.2-54.5-6.3-69.7 9.9a52.1 52.1 0 0 0-14.5 22.8c-.6 2.9-.2 4.4 1.5 6.3 6.6 8 2.3 19-6.7 17.6-11.7-1.7-10.2-12.7-2.3-18.7 2.4-1.2 1.5-2.6.7-4.6-21.4-60.4-101.2-48.9-109.9-7.1-.3 1.5-1 3.1-.6 4.7.9 4 3.2 7.3 2.3 10.5-3.6 12.8-19.7 9.1-20.4-1.5-.4-4.8 4.9-6.3 7.4-10.7 1.5-2.8 2.3-6.2.8-9.2-21.7-45.4-58.8-35.9-77.2-25.6-.4.2 16.4-21.8 37.6-21.6zm-24 26.3c8-.3 15.2 3.6 22 11.4 22.6-12 38.7 8.8 36 10.8-32-20.8-42.5 27.7-10.8 25.9-14 28.8 35.7 41 30.1 4.3 30.7 10.7 35.8-31.4 4.7-30.7 10-17.4 36-12.6 47-1.7 13-15.9 44.8-.8 48 12.7-35.7-18.2-39.3 37.6-4.7 25.7-10.2 35.6 44.7 30.5 29.5-.1 34.2 11.2 29.5-39.9-4-29.5-2.1-2.7 26.5-32.2 47.3-4.5 2.8-4.9 35.3-20.9 53 4.3-38.5-13-31.2 38.8-3.6 28.5-7.3 34.3 42.4 28.7 29.7-.5 38.6 9.7 21.5-49-5.6-27.3 4.4-23.7 36.8-13.9 36.5-10.2 0 0 17.2-18.6 36.5-5-30.1 2.5-19.9 43.1 8.6 31.6-.3 13.8 11.1 22.9 26.6 18.2l24.4 34-555.3 3.6 44.4-53c14.8 12.3 30.2 6.6 32.1-12.7 32.3 19.8 40.7-27.2 10.4-29.2a33.2 33.2 0 0 1 17.3-6.6zm-31 15.3c2 1.4-.6 7.9-4.9 6zm433 13.7 4.5 6.2c.8 2.1-8.7-1.1-4.5-6.2z" style="display:inline;fill:#000;stroke-width:5.67895746" transform="matrix(.16176 .0008 -.00085 .15119 -143 789)"/></g></g></svg>