<svg xmlns="http://www.w3.org/2000/svg" width="234" height="333"><g transform="translate(0 -719.4)"><rect width="233.2" height="332.2" x=".4" y="719.7" rx="8.9" ry="8.9" style="fill:#fff;fill-opacity:1;stroke:gray;stroke-width:.75590551;stroke-linecap:butt;stroke-linejoin:miter;stroke-miterlimit:4;stroke-dasharray:none;stroke-opacity:1"/><path d="M17.2 780.7a23 23 0 0 0-6.2-8.1l-2.2-2.3a5 5 0 0 1-.2-5.7c.3-.6.8-1.2 1.4-1.7.8-.7 2-1.2 3-1 1 0 2 .5 2.7 1.2.7.7 1.2 1.4 1.5 2.3.3-.9.8-1.6 1.5-2.3.7-.7 1.7-1.2 2.7-1.3 1 0 2.2.4 3 1l1.5 1.8c.6 1.2 1 2.5.6 3.8a5 5 0 0 1-1 1.9l-2 2.3-2.9 2.8a23 23 0 0 0-3.4 5.3M216.8 991a23 23 0 0 1-6.2 8.2l-2.2 2.2-1 2a6.2 6.2 0 0 0 2 5.5c1 .7 2.1 1 3.2 1 1 0 2-.6 2.7-1.3.7-.6 1.2-1.4 1.5-2.3.3.9.8 1.7 1.5 2.3.7.7 1.7 1.2 2.7 1.3 1 0 2.2-.3 3-1 .6-.5 1-1.1 1.4-1.8a5 5 0 0 0 .7-3.7c-.2-.7-.5-1.4-1-2-.6-.8-1.3-1.5-2.1-2.2-1-1-2-1.9-2.8-3a23 23 0 0 1-3.4-5.2M117 914.2a71.1 71.1 0 0 0-18.6-24.4c-2.3-2.2-4.6-4.3-6.5-6.9a16.2 16.2 0 0 1-2.8-5.7 16 16 0 0 1 2-11.2c1-2 2.4-3.8 4.2-5.3 2.5-2.1 5.8-3.4 9.2-3.1 3 .2 5.8 1.8 8 3.9 2 1.9 3.5 4.2 4.5 6.8 1-2.6 2.5-5 4.5-6.8a14 14 0 0 1 8-4c3.4-.2 6.7 1 9.2 3.2 1.8 1.5 3.2 3.3 4.3 5.3a16 16 0 0 1 1.9 11.2c-.5 2-1.6 4-2.8 5.7-1.9 2.6-4.2 4.7-6.5 6.9a74.9 74.9 0 0 0-18.6 24.4" style="fill:red;fill-opacity:1;stroke:none;stroke-width:1"/><g style="font-style:normal;font-variant:normal;font-weight:700;font-stretch:normal;font-size:3.77201176px;line-height:0%;font-family:'Levenim MT';-inkscape-font-specification:'Sans Bold';letter-spacing:0;word-spacing:0;fill:red;fill-opacity:1;stroke:none;stroke-width:1"><path d="M32 627.5h-4.6l-1.8-4.9H16l-2 4.9H9.4l9-23.5H23zm-8.1-9.2-3.1-8.1-3.2 8z" aria-label="A" style="font-size:32.76629639px;line-height:1.25;stroke-width:1" transform="scale(.83055 1.20403)"/></g><g style="font-style:normal;font-variant:normal;font-weight:700;font-stretch:normal;font-size:3.77201176px;line-height:0%;font-family:'Levenim MT';-inkscape-font-specification:'Sans Bold';letter-spacing:0;word-spacing:0;fill:red;fill-opacity:1;stroke:none;stroke-width:1"><path d="M-249.7-844h-4.6l-1.9-4.9h-9.6l-2 4.9h-4.6l9.1-23.5h4.6zm-8.2-9.2-3-8.1-3.2 8z" aria-label="A" style="font-size:32.76629639px;line-height:1.25;stroke-width:1" transform="scale(-.83055 -1.20403)"/></g></g></svg>