<svg xmlns="http://www.w3.org/2000/svg" width="234" height="333"><defs><filter id="a" style="color-interpolation-filters:sRGB"><feGaussianBlur stdDeviation=".9"/></filter><filter id="b" style="color-interpolation-filters:sRGB"><feGaussianBlur stdDeviation=".9"/></filter></defs><g transform="translate(0 -719.4)"><rect width="233.2" height="332.2" x=".4" y="719.7" rx="8.9" ry="8.9" style="fill:#fff;fill-opacity:1;stroke:gray;stroke-width:.756;stroke-linecap:butt;stroke-linejoin:miter;stroke-miterlimit:4;stroke-dasharray:none;stroke-opacity:1"/><text xml:space="preserve" x="6" y="857.2" style="font-style:normal;font-variant:normal;font-weight:700;font-stretch:normal;font-size:3.77201px;line-height:0%;font-family:'Levenim MT';-inkscape-font-specification:'Sans Bold';letter-spacing:0;word-spacing:0;fill:#000;fill-opacity:1;stroke:none;stroke-width:1" transform="scale(1.13562 .88058)"><tspan x="6" y="857.2" style="font-size:43.7026px;line-height:1.25;stroke-width:1">J</tspan></text><text xml:space="preserve" x="8.3" y="647.1" style="font-style:normal;font-variant:normal;font-weight:700;font-stretch:normal;font-size:3.77201px;line-height:0%;font-family:'Levenim MT';-inkscape-font-specification:'Sans Bold';letter-spacing:0;word-spacing:0;fill:#000;fill-opacity:1;stroke:none;stroke-width:1" transform="scale(.81968 1.21999)"><tspan x="8.3" y="647.1" style="font-weight:700;font-size:30.7888px;line-height:1.25;-inkscape-font-specification:'Levenim MT Bold';fill:#000;stroke-width:1">O</tspan></text><text xml:space="preserve" x="5" y="788.7" style="font-style:normal;font-variant:normal;font-weight:700;font-stretch:normal;font-size:3.77201px;line-height:0%;font-family:'Levenim MT';-inkscape-font-specification:'Sans Bold';letter-spacing:0;word-spacing:0;fill:#000;fill-opacity:1;stroke:none;stroke-width:1" transform="scale(.95622 1.04578)"><tspan x="5" y="788.7" style="font-weight:700;font-size:37.7245px;line-height:1.25;-inkscape-font-specification:'Levenim MT Bold';fill:#000;stroke-width:1">K</tspan></text><text xml:space="preserve" x="3.5" y="948.2" style="font-style:normal;font-variant:normal;font-weight:700;font-stretch:normal;font-size:3.77201px;line-height:0%;font-family:'Levenim MT';-inkscape-font-specification:'Sans Bold';letter-spacing:0;word-spacing:0;fill:#000;fill-opacity:1;stroke:none;stroke-width:1" transform="scale(1.1033 .90638)"><tspan x="3.5" y="948.2" style="font-weight:700;font-size:43.5266px;line-height:1.25;-inkscape-font-specification:'Levenim MT Bold';fill:#000;stroke-width:1">E</tspan></text><text xml:space="preserve" x="4" y="910.2" style="font-style:normal;font-variant:normal;font-weight:700;font-stretch:normal;font-size:3.77201px;line-height:0%;font-family:'Levenim MT';-inkscape-font-specification:'Sans Bold';letter-spacing:0;word-spacing:0;fill:#000;fill-opacity:1;stroke:none;stroke-width:1" transform="scale(1.0181 .98222)"><tspan x="4" y="910.2" style="font-weight:700;font-size:40.1658px;line-height:1.25;-inkscape-font-specification:'Levenim MT Bold';fill:#000;stroke-width:1">R</tspan></text><text xml:space="preserve" x="-200" y="-1154.8" style="font-style:normal;font-variant:normal;font-weight:700;font-stretch:normal;font-size:3.77201px;line-height:0%;font-family:'Levenim MT';-inkscape-font-specification:'Sans Bold';letter-spacing:0;word-spacing:0;fill:#000;fill-opacity:1;stroke:none;stroke-width:1" transform="scale(-1.13562 -.88058)"><tspan x="-200" y="-1154.8" style="font-size:43.7026px;line-height:1.25;stroke-width:1">J</tspan></text><text xml:space="preserve" x="-277.4" y="-805.1" style="font-style:normal;font-variant:normal;font-weight:700;font-stretch:normal;font-size:3.77201px;line-height:0%;font-family:'Levenim MT';-inkscape-font-specification:'Sans Bold';letter-spacing:0;word-spacing:0;fill:#000;fill-opacity:1;stroke:none;stroke-width:1" transform="scale(-.81968 -1.21999)"><tspan x="-277.4" y="-805.1" style="font-weight:700;font-size:30.7888px;line-height:1.25;-inkscape-font-specification:'Levenim MT Bold';fill:#000;stroke-width:1">O</tspan></text><text xml:space="preserve" x="-239.7" y="-905.5" style="font-style:normal;font-variant:normal;font-weight:700;font-stretch:normal;font-size:3.77201px;line-height:0%;font-family:'Levenim MT';-inkscape-font-specification:'Sans Bold';letter-spacing:0;word-spacing:0;fill:#000;fill-opacity:1;stroke:none;stroke-width:1" transform="scale(-.95622 -1.04578)"><tspan x="-239.7" y="-905.5" style="font-weight:700;font-size:37.7245px;line-height:1.25;-inkscape-font-specification:'Levenim MT Bold';fill:#000;stroke-width:1">K</tspan></text><text xml:space="preserve" x="-208.6" y="-1006.5" style="font-style:normal;font-variant:normal;font-weight:700;font-stretch:normal;font-size:3.77201px;line-height:0%;font-family:'Levenim MT';-inkscape-font-specification:'Sans Bold';letter-spacing:0;word-spacing:0;fill:#000;fill-opacity:1;stroke:none;stroke-width:1" transform="scale(-1.1033 -.90638)"><tspan x="-208.6" y="-1006.5" style="font-weight:700;font-size:43.5266px;line-height:1.25;-inkscape-font-specification:'Levenim MT Bold';fill:#000;stroke-width:1">E</tspan></text><text xml:space="preserve" x="-225.9" y="-893.6" style="font-style:normal;font-variant:normal;font-weight:700;font-stretch:normal;font-size:3.77201px;line-height:0%;font-family:'Levenim MT';-inkscape-font-specification:'Sans Bold';letter-spacing:0;word-spacing:0;fill:#000;fill-opacity:1;stroke:none;stroke-width:1" transform="scale(-1.0181 -.98222)"><tspan x="-225.9" y="-893.6" style="font-weight:700;font-size:40.1658px;line-height:1.25;-inkscape-font-specification:'Levenim MT Bold';fill:#000;stroke-width:1">R</tspan></text><path d="M164.8 822.4c-1.3-.9-1-2.8-1-4.3 0-.9.2-1.8.7-2.6.2-.3.5-.7 1-.7.8-.2 1.8 0 2.3.6.6.5.7 1.4.7 2.2 0 .6-.3 1.1-.4 1.7-.2 1 .5 2.2-.3 2.8-.7.7-2.2.9-3 .3z" style="fill:#fff;fill-opacity:1;stroke:#000;stroke-width:.755906;stroke-miterlimit:4;stroke-dasharray:none;stroke-opacity:1"/><path d="m129 880.4-2.2-6.2-6 .4 2 4.2z" style="fill:#000;fill-opacity:1;stroke:#000;stroke-width:1;stroke-miterlimit:4;stroke-dasharray:none;stroke-opacity:1"/><path d="M81.5 993.4c.5 1.4 1.4 2.3.9 5.9-.9 1.6-5.3 4.2-5.4 6.1.3 1.8-1.2 3.6 8 5.3l23.2 3.2c11-.3 8.8-1.7 11-4.5.7-2.3.6-7.7-.3-8.8-2-4.2-4.8-4-5.2-2.7-1.4 2.5-.7 1.2-.9 4.4 1.4-2.7 3.6-2.5 2.5-3.5 2 .4 2.1 2.6.6 5.8-1.4 3.1-6 1.8-7.9 2.3l-6.5-2-8.3-5c-2-3.9-.2-4.7.4-6.5z" style="fill:#000;fill-opacity:1;stroke:#000;stroke-width:.755906;stroke-miterlimit:4;stroke-dasharray:none;stroke-opacity:1"/><path d="M93.8 993.5c-2.1.5-3.8 0-6 .4l-1.2 2.8zm-12.6-.2c2 1.6 1.6.7 3.4 2.4l2.6-2.5c-2 0-4 .7-6 .1zm52.7-5.5c.7 1.3 1.6 2 1.4 5.6-.7 1.6-4.8 4.5-4.7 6.3.5 1.7-.8 3.6 8.1 4.5l22.8 1.5c10.6-1.2 8.3-2.4 10.3-5.3.5-2.3-.1-7.4-1.1-8.5-3.4-3-5.8-3.8-6-2.4-1.2 2.5-1 .2-.8 3.3 1-2.7 1.2-1.4 1.9-2.5 1.9.2 3.6 2.5 2.4 5.7-1.1 3.1-5.7 2.3-7.5 2.9l-6.4-1.5-8.4-4.3c-2.4-3.5-.7-4.5-.3-6.2z" style="fill:#000;fill-opacity:1;stroke:#000;stroke-width:.755906;stroke-miterlimit:4;stroke-dasharray:none;stroke-opacity:1"/><path d="M145.2 987c-1.3 0-3 .4-4 .5l-1 4.3zm-11.2.8c2 2.7 4.2 4 5.5 4l-2-4.3s-2.6.5-3.5.3z" style="fill:#000;fill-opacity:1;stroke:#000;stroke-width:2.39093;stroke-miterlimit:4;stroke-dasharray:none;stroke-opacity:1"/><path d="m110.3 903.4-16.1 1.8c-1.5 16.9-4.2 31.5-3.5 44.4l.4 3.5L90 955s-3.7 4.8-4.7 8c-2.4 8.6-1 25.5-.8 32.4l1.7 2.3c.7-2.2 2.2-3.2 2.2-3.2s2.3-22.6 6.3-35.2c2-6.6-.3 1 3.4-6.1.4-1-.5-2.6-.5-2.6 6.4-15.7 8.6-31.4 12.7-47.1zm20 2-14.8 1c4 16.5 3.7 19.9 10.2 35.1l5 9-.2 2.7.6 12.8c.5 9.2 6 21.7 6 21.7s1.4 2.2 2.5 4.6c1-1.6.9-2.2 2-3.5-2-8.7-4.6-19.9-4.7-36.3 0 0 1.3-2.5.7-4a15 15 0 0 0-1.4-2 547 547 0 0 0-5.9-41z" style="fill:#fff;fill-opacity:1;stroke:#000;stroke-width:.755906;stroke-miterlimit:4;stroke-dasharray:none;stroke-opacity:1"/><path d="M110.2 903.6h-1.9l-14.1 1.9-.6 7.5 14.8-1 1.8-8.4zm20.1 2.2-14.8 1 1.4 6.3c3.2.5 7 1 9.4.8a26 26 0 0 0 5-1l-1-7.1z" style="fill:#000;fill-opacity:1;stroke:#000;stroke-width:.755906;stroke-miterlimit:4;stroke-dasharray:none;stroke-opacity:1"/><path d="M89 869.6s2.9 10.5 4.7 15c.5 1.2 1.5 2.5 1.5 2.5s-1 3.7-2.3 5c-4.2 4.8-12.6 15.4-11.5 15.7 0 0 2.8-.3 4.7.5 2.3 1 3.4-.1 5.8.6 2.9.8 5.5-.2 8.2-.3 3.7-.2 8.4-.7 12-.6 5 .2 9.1 2.2 13.7 1.8a39 39 0 0 0 9.2-2.7l-.6-2c2.8-.4 3.5-1.1 5-2-6.1-7-10.2-12.2-16.5-18l1.2-4.3c1.3-5.8 2.8-17.4 2.8-17.4z" style="fill:#000;fill-opacity:1;stroke:#000;stroke-width:.755906;stroke-miterlimit:4;stroke-dasharray:none;stroke-opacity:1"/><path d="M93 879.5c1 3.3-.2 2.2.7 4.5l.5 1a56 56 0 0 0 13.9-1c4.4-1.3 13.4-6.2 13.4-6.2.9 1 1.5 2 2.5 2.7v-.4c.7-2.7.5-2.4 1-5.9a65.5 65.5 0 0 0-32 5.3z" style="fill:#000;fill-opacity:1;stroke:#000;stroke-width:2.39093;stroke-miterlimit:4;stroke-dasharray:none;stroke-opacity:1"/><path d="m140 852.3-.8 21.5c-1.8 0-4.5-1.2-9-2.5-5.1-1.5-3.4-10.6-4.5-12.6z" style="fill:#000;fill-opacity:1;stroke:#000;stroke-width:.755906;stroke-miterlimit:4;stroke-dasharray:none;stroke-opacity:1"/><path d="M151.4 827.2c4.6-.8 11 1.8 12.7 5.1 1.7 3.4 1.5 8.6-.6 11.7a62.6 62.6 0 0 1-24.6 14.6c-4.9 1-3.3-12.6-1.6-18 1-3 4.7-4.5 7-6.7 2.4-2.3 3.7-6.1 7-6.7z" style="fill:#fff;fill-opacity:1;stroke:#000;stroke-width:.755906;stroke-miterlimit:4;stroke-dasharray:none;stroke-opacity:1"/><path d="M113.3 824.5s10.2-3.3 14.9-1.3c6.3 2.7 11.4 11.2 12.6 17.7 1 5-12.2 10.7-12.2 10.7z" style="fill:#000;fill-opacity:1;stroke:#000;stroke-width:2.39093;stroke-miterlimit:4;stroke-dasharray:none;stroke-opacity:1"/><path d="M157.7 827.5c-2 .4-5.4 4.7-5.4 4.7s1 5 3 6.2c2.1 1.2 5.1.6 7.2-.5 2.2-1.1 3.8-4 3.8-6.3 0-3-5-4.6-8.6-4z" style="fill:#000;fill-opacity:1;stroke:#000;stroke-width:.755906;stroke-miterlimit:4;stroke-dasharray:none;stroke-opacity:1"/><path d="M95.2 821.5c-6.5 2-12 4.3-16.4 6.8l5.5 30c-8 2.7 4.5 15.6 3.5 23.6 8.5 2.2 12.2 2.1 18.2 0 5-2.3 9.7-5 14.7-7.3 4 1.7 5.3 4.4 8.4 5.8l1-15s0-14-.8-21.1c-.4-4.4.3-9.2-2-13-1.6-2.9-5.1-4.7-7.8-6.3-2.2-1.3-7-3-7-3z" style="fill:#fff;fill-opacity:1;stroke:#000;stroke-width:.755906;stroke-miterlimit:4;stroke-dasharray:none;stroke-opacity:1"/><path d="m114.5 830.2-3.6-.4-.4-3c-.6-2.9-1-.3.4-.6l.8-2 3.9 1.9z" style="fill:#000;fill-opacity:1;stroke:#000;stroke-width:2.39093;stroke-miterlimit:4;stroke-dasharray:none;stroke-opacity:1"/><path d="m118.9 823-3.7 6.8-1.8.6 2.3-7.2z" style="fill:#000;fill-opacity:1;stroke:#000;stroke-width:.755906;stroke-miterlimit:4;stroke-dasharray:none;stroke-opacity:1"/><path d="M90.3 791.8c.2 4.5-1.8 12 3.8 13 0 0 1.4 9 4.3 11.6 4.4 4 7.8 5.9 12 9.4 2.4 2 4.5 2.6 6.8 2.2 1.7-.2 4.4-1.3 4-2.8-1.6-5.3-5.7-10-5.9-15.4 0-3 1.7-5 1.6-8v-4c0-1.7 1.9-3.1 1.8-4.9 0-3.2-5.6-6-5.6-6l-11.6.5zm5 24.5c-4.6 1-6.1 4-9 7.7 3.5-2 5.2-3 9.1-1.7.4-3.2.1-3.1 0-6z" style="fill:#fff;fill-opacity:1;stroke:#000;stroke-width:.755906;stroke-miterlimit:4;stroke-dasharray:none;stroke-opacity:1"/><path d="M91.5 803.5c-.3-2-.5 6-3.7 8.7-1 .7-3.2 1.9-3.5 3.3 4-1.9 6.2-2.5 6.5-3.1-1.1 1.7-4.5 3.7-3.3 5.6 0 0 3.5-3.2 3.2-2-.4 1.3 1.2 4.2 1.2 4.2 1-1.2.3-5 1-4.4 1 .9.6 4.5 2 4.6 2-.8 1.8-3.5 3.1-4.3 0 0-3.9-7.2-3.4-10.4.1-1-3-1.3-3.1-2.2zm10.5-14.9h-5.8l-6 5.5-.2 4.1s1-3 2-2.7c1.2.5 3.2 9.3 3.2 9.3s1.4.6 1-.5c-.5-1.5-.4-4.3-.4-4.3l.2-3.1.5-6.8 1.2 1.5 2-1 1.8.8zm14.4.4 1.4 4 .3-.7 1.2 2.8-.8-4.8zm-13.9 6.8-.6 1c2.6-.6 5.5-1.8 7.8-1.6l.3-1.7c-2.6.3-3.4.1-6.3 1.7zm10.2-2.4-.5 2c1.2-.2 2.4-.4 5 1l-.3-.8a5 5 0 0 0-4.2-2.2zm-4.7 4c-1.2.2-2.8.5-3.7 1.5-.2.2-.3 1.2-.3 1.2h2.4c.6 0 1.7-.4 1.7-.4s.4-.8.2-1.4c0-.2-.1-1-.3-1zm3.6-1.9s-1 1.2-1.2 2.3a23 23 0 0 0 1 7.5 9 9 0 0 0 1.8 2.2c.2.3-.2.9-.6.9-1.6 0-3.8-.3-3.8-.3s1 1.1 1.7 1.4c1 .3 2.2.4 3-.2.8-.6.5-1.2.6-2.1 0-.7-1.8-4-2.3-6.4a6 6 0 0 0 2.1-.8l-2.2-1.5z" style="fill:#000;fill-opacity:1;stroke:#000;stroke-width:.755906;stroke-miterlimit:4;stroke-dasharray:none;stroke-opacity:1"/><path d="M111.2 798c-.2.5-.2 1.6-.2 1.6a47.5 47.5 0 0 0 3.4.7s0-.5-.2-.8c-.5-1-1.4-2-2.3-2-.4-.1-.6.2-.7.5zm-.8 14.8c-1.3-.3-5-2-5.6-.8-1 1.4 1.5 4.6 2.7 5.9a5 5 0 0 0 4.7 1.8c.8-.2 1.6-.9 1.7-1.6.2-1.2-.6-2-.8-3.1-.2-1 .8-2.2.2-3-.4-.6-2.9.8-2.9.8z" style="fill:#000;fill-opacity:1;stroke:#000;stroke-width:.755906;stroke-miterlimit:4;stroke-dasharray:none;stroke-opacity:1"/><path d="M107.7 817.2c0 .9 2.3 2.5 4 2.3.8-.2 1.6-.3 1.6-1.6 0-.4.7-.6-.5-1 0 0-.8.3-1 .7.3.3-.4.3-.9.4-1.6.3-3.2-.8-3.2-.8zm-16.4-19.6c.3-.1.7 0 1 .2.9.8 1.2 3.2 1.2 3.2l-.7.5s-.4-2.6-1.3-2.6c-.3 0-.7.6-.6.5.2 0-.1-1.5.4-1.8z" style="fill:#fff;fill-opacity:1;stroke:#000;stroke-width:.755906;stroke-miterlimit:4;stroke-dasharray:none;stroke-opacity:1"/><path d="M86.1 826.8c-2-.8-6.5-1-8.5 0-2.3 1-3.5 3.7-4 6-1.4 6.6 3 13.4 3.3 20.2.6 9.7-1.4 29-1.4 29a13 13 0 0 0 5.2 6.8l.8-8.4.4-22.3 2.6-4.9 12.8 7 4.7-2-4.5-3.2-.2-2-2.3-1s3.4-11.2 1.4-16c-2-5-4.9-7.4-10.3-9.2zm26.2 3.3 2.2 19.6-.9-19.6z" style="fill:#000;fill-opacity:1;stroke:#000;stroke-width:.755906;stroke-miterlimit:4;stroke-dasharray:none;stroke-opacity:1"/><path d="M95.3 815.9c-.1.4-.7 3.2 0 5.6l4.5 2.5c3.7 2 10.1 7 10.1 7l1.3-.7-.4-7.4-2 .6c-4.7-1.1-9.5-4.8-13.5-7.6z" style="fill:#fff;fill-opacity:1;stroke:#000;stroke-width:.755906;stroke-miterlimit:4;stroke-dasharray:none;stroke-opacity:1"/><path d="M115.3 834.4a25 25 0 0 0-7.2 1c-2.5.6-6.6.8-6.9 3.2 0 .4.6.8 1.1.9 2.6.5 5-1.7 7.6-2.1a44 44 0 0 1 8.3-.5c2 0 4.3 1.9 5.7.7.4-.3.4-1 0-1.5-1.2-1.6-4-1.4-6.1-1.6l-2.5-.1zm1 6c-1.6 0-3.3.2-4.9.6-2.2.6-5.4 1-6 3-.2.3.1.9.5 1 1.8.6 3.5-1.4 5.4-1.8 2-.4 4.1-.6 6.2-.5 1.8 0 3.7 1.8 5.3 1 .3-.3.5-.9.3-1.2-.8-1.5-3.3-1.7-5.1-2h-1.7z" style="fill:#000;fill-opacity:1;stroke:#000;stroke-width:.755906;stroke-miterlimit:4;stroke-dasharray:none;stroke-opacity:1"/><rect width="2" height="68.5" x="279.3" y="785.8" rx=".3" ry="2.2" style="fill:#fff;fill-opacity:1;stroke:#000;stroke-width:.756006;stroke-linejoin:round;stroke-miterlimit:4;stroke-dasharray:none;stroke-opacity:1" transform="matrix(.98893 .14836 -.17107 .98526 0 0)"/><path d="M119.8 855.6s4.3-2.1 6.4-3.6c1-.6 2.8-1.2 3.3-2.2.6-1.2 0-2.2.6-3.3.4-.7 1.7-1.4 2.5-2 1.3-.7 3.9-1.5 3.9-1.5s.4 1.7 0 2.5c-.2.7-2 1.3-1.6 1.9 1 1.5 4 .4 5.6-.5 1-.6 2-2.8 2-2.8s-3.5 0-3.3-.7c.1-.8 2.5-1.4 2.5-1.4s3.5.9 4 2.1c.3 1-.5 1.8-.5 2.9 0 1 .9 1.6.8 2.5-.1 1.3-1.1 2.4-1.8 3.6-.7 1.4-1.1 3.2-2.5 4a16 16 0 0 1-10 2c-1.7 0-3.1-1.5-4.9-1.3-2 .3-4.6 2.8-4.6 2.8z" style="fill:#fff;fill-opacity:1;stroke:#000;stroke-width:.755906;stroke-miterlimit:4;stroke-dasharray:none;stroke-opacity:1"/><path d="m113.2 856 4-2c.9-.2 1.7-.7 2.5-.5 3.6 1 6.4 5.2 6.8 8.8 0 .7-.6 1.4-1 2-1.5 1.6-4.6 3.4-4.6 3.4z" style="fill:#000;fill-opacity:1;stroke:#000;stroke-width:.755906;stroke-miterlimit:4;stroke-dasharray:none;stroke-opacity:1"/><path d="m82 858.1 8.2 16.6s6.4 4 9.6 4.3c8.6.9 15.8-2.9 21.7-8.6 1-1 1.6-3.7 1.6-3.7.2-.4-1.8-7.9-4.8-9.5l-4.3-2.6c-4.5-2.4-11.8 1.4-16.7 5.6l-12.8-7Zm74.9-32.9s.1 1.5.6 2.1c1 1.3 4.2 1.3 4.2 1.3s-3.8.4-4.7 1.6c-.9 1.2.6 3.3 1.5 4.1 1.6 1.3 4 .7 5.6 0 3-1.3 6.3-7 6.3-7s1.7-4.9 1.2-7.2c-.4-1.8-2.7-2.8-4.5-3.6-2.1-.9-6-.4-6-.4s-.3 2.1.4 2.8c.8.8 3.5.6 3.5.6 2.8.6 2.3 1.9 2.7 3 0 0-3-1.8-4.8-2-1.3-.2-4.6.3-4.6.3s.5 1.7 1 2.4c.7.8 2.7.7 2.7.7l2.1 1.5s-2.5-.8-3.8-.8c-1.2 0-3.4.6-3.4.6zm-63 60.4c-.5.6-.6 1.8-.1 4a84 84 0 0 0 30.8-3c.3-1.5.5-3-.7-4a90 90 0 0 1-30 3z" style="fill:#fff;fill-opacity:1;stroke:#000;stroke-width:.755906;stroke-miterlimit:4;stroke-dasharray:none;stroke-opacity:1"/><path d="M111.6 884.4c.1 1.7 0 4 .8 5.6.3.8 1.3 1.4 2.2 1.3a32 32 0 0 0 5.3-.7c.7-.3.9-1.3 1-2a10 10 0 0 0-.6-4.8c-.2-.4-.4-1-.9-1.2a12 12 0 0 0-7 .7c-.4.2-.8.6-.8 1z" style="fill:#fff;fill-opacity:1;stroke:#000;stroke-width:.755906;stroke-miterlimit:4;stroke-dasharray:none;stroke-opacity:1"/><path d="M78 827.2c-2 11.2 4.5 17 6.5 26 0 0-8.3-16.3-7.3-24.5.2-1.3.8-1.5.8-1.5z" style="fill:#fff;fill-opacity:1;stroke:#fff;stroke-width:1;stroke-miterlimit:4;stroke-dasharray:none;stroke-opacity:1"/><path d="M78.6 827.7a6 6 0 0 0-2.3.5c-.8.4-1 1.7-1 1.7 1.8-1.4 3.7-.7 5.6-.3 0 0-1-1.4-1.7-1.8l-.6-.1zm-.4 4.3c-1 0-2 .5-2.6 1.3-.2.2-.2 1 .1 1 .7-.5 2.6-1 4-.7.7.2.7-.7.2-1-.5-.5-1-.6-1.7-.6zm2.4 5c-1.4 0-3.3 1-4.1 1.3-.5.2 0 1.4.5 1.3 1-.2 3.4-1.1 4.6-1.3.4-.1 0-1-.5-1.2h-.5zm1.4 4c-1 0-1.9 1.1-3.5 1.8-.6.3.3 1.3.3 1.3s1.8-.6 3.7-1.6c.6-.3.4-1.4-.3-1.5H82zm1.5 4.3c-1.3.1-3.1 1.6-3.7 2-.3.1-.2.8.2.9.8 0 2.8-1.4 4.3-1.4.6 0-.2-1.5-.8-1.5zm1 5c-1 0-2 .4-2.7 1.5-.3.4.4 1.8.3 1.3-.2-.6 1.3-1.2 3.5-1.7.6-.1.2-1-.3-1.1-.2 0-.5-.1-.8 0z" style="fill:#fff;fill-opacity:1;stroke:#000;stroke-width:.755906;stroke-miterlimit:4;stroke-dasharray:none;stroke-opacity:1"/><path d="m82 858.1-.5 22.3c2-3.1 5.4-4.4 8.7-5.7z" style="fill:#000;fill-opacity:1;stroke:#000;stroke-width:1;stroke-miterlimit:4;stroke-dasharray:none;stroke-opacity:1"/><path d="M70.8 773.4c-2.5 4.7-.2 10.6 1.1 16.2 1.4-4.6 3-9.6 7-11.7-2-3.2-5.4-3.3-8.1-4.5zm25.4 9.6a68 68 0 0 1 1.3-22.5l2-.9 6.6 6.3c0 5.2-1.1 10.3.4 15.6zm34.3-21.1c.6 6.2.7 12 4.2 18.2a38.3 38.3 0 0 1-11.5-10.5c1.4-3.4 5-5 7.3-7.7z" style="fill:#000;fill-opacity:1;stroke:#000;stroke-width:.755906;stroke-miterlimit:4;stroke-dasharray:none;stroke-opacity:1"/><path d="M106 781.9c3.3-6.8 6-13.7 11.2-20 5-.8 8.2-.6 13.2-.5-5.2 6.5-10.4 12-12.2 20.4z" style="fill:#fff;fill-opacity:1;stroke:#000;stroke-width:.756;stroke-miterlimit:4;stroke-dasharray:none;stroke-opacity:1"/><path d="M89.9 794.3c9.3-5.2 19-5.9 29-4-.2-1.8-.5-3.6.2-5.2-10.5-3.2-21-3.1-30.7 4.2a10 10 0 0 1 1.5 5zm8.4-31.8c2.7 4.6 4.5 8 9.8 11 0-4.4-.6-8.6 2.7-13.5-2.8-1.6-3.7-2.8-7.2-2.2l-6 2.7z" style="fill:#fff;fill-opacity:1;stroke:#000;stroke-width:.755906;stroke-miterlimit:4;stroke-dasharray:none;stroke-opacity:1"/><path d="M88.7 789.2c9.6-4 19.5-5 30-4.1-.2-1.3.2-2.4 1-3.4a52.5 52.5 0 0 0-32.9 4.6c1.2.7 1.5 1.8 1.9 2.9z" style="fill:#000;fill-opacity:1;stroke:#000;stroke-width:2.39093;stroke-miterlimit:4;stroke-dasharray:none;stroke-opacity:1"/><path d="m110.5 822.6-3.4-.9c-4.4-2.2-3.6-1.6-6-2.9l-3.1-2.4-2.8-.4-.1 1 6.1 3.7 7.4 2.7zm50.8-5.6 2.3.2.4-1h-2.5zm-2.4 5.2 1.3-.3v-1.2h-1.7zm-1.7 4.2 1.1.5.2-1.1-.1-.7-1.3.4z" style="fill:#fff;fill-opacity:1;stroke:#000;stroke-width:.755906;stroke-miterlimit:4;stroke-dasharray:none;stroke-opacity:1"/><path d="m112.9 1001.6-.1.5c-.1.2 0 .2 0 .2.2 0 .2-.4.4-.6z" style="fill:#fff;fill-opacity:1;stroke:#000;stroke-width:2.39093;stroke-miterlimit:4;stroke-dasharray:none;stroke-opacity:1"/><path d="M77 1005.7c2.6 3.2 32.6 9.5 38.2 6.3 2-1 3.4-3 4.4-4.6l-.4 2c-.8.7-1 2.5-2.7 3.5-1.4.6-3.9.8-8.5 1-6-1-13-1.8-18.9-2.6a28 28 0 0 1-11.1-2.9c-.8-.7-1-1.5-1-2.7z" style="opacity:.25;fill:#fff;fill-opacity:1;stroke:#000;stroke-width:.755906;stroke-miterlimit:4;stroke-dasharray:none;stroke-opacity:1"/><path d="M-287 898.3c53-11.5 33.1 14.3 70 7.1 33.9-15 28.8-17.6 27.8-62.5-5-49-41.3-18.3-52.6 15.7-15.6 32.8-23.3 32-45.2 39.7z" style="opacity:.13;fill:#fff;fill-opacity:1;stroke:#000;stroke-width:12.394;stroke-miterlimit:4;stroke-dasharray:none;stroke-opacity:1;filter:url(#a)" transform="matrix(.06684 0 0 .05565 132.2 956.6)"/><path d="M108 1007c-1.7 0-2 1.1-2.2 2.2-.2.7-.5 1-.3.3.1-1.4.1-2.6 2.1-2.7zm-6.5-2.1c-2.2.2-2.6 1.6-2.7 2.6 0 .5-.2.7-.2-.1.1-1.9 1.6-2.5 2.5-2.7z" style="opacity:.25;fill:#fff;fill-opacity:1;stroke:#000;stroke-width:.755906;stroke-miterlimit:4;stroke-dasharray:none;stroke-opacity:1"/><path d="M115 1001.6c0 1.1-1 2-2.2 2-1.2 0-2.2-.9-2.2-2s1-2 2.2-2c1.2 0 2.2.9 2.2 2z" style="fill:#fff;fill-opacity:1;stroke:#000;stroke-width:.755906;stroke-linejoin:round;stroke-miterlimit:4;stroke-dasharray:none;stroke-opacity:1"/><path d="M130.4 1000.2c2.8 2.8 32.6 6.7 37.8 3.3 1.8-1.2 3-3.2 3.8-4.9l-.2 2c-.7.8-.7 2.6-2.3 3.6a28 28 0 0 1-8.1 1.6c-6-.5-13-.8-18.7-1.1-5.3-.3-9.3-.8-11.2-2-.8-.6-1.1-1.3-1.1-2.5z" style="opacity:.25;fill:#fff;fill-opacity:1;stroke:#000;stroke-width:.755906;stroke-miterlimit:4;stroke-dasharray:none;stroke-opacity:1"/><path d="M-287 898.3c53-11.5 33.1 14.3 70 7.1 33.9-15 28.8-17.6 27.8-62.5-5-49-41.3-18.3-52.6 15.7-15.6 32.8-23.3 32-45.2 39.7z" style="opacity:.13;fill:#fff;fill-opacity:1;stroke:#000;stroke-width:12.7727;stroke-miterlimit:4;stroke-dasharray:none;stroke-opacity:1;filter:url(#b)" transform="matrix(.06464 -.00494 .00476 .05382 180.3 949)"/><path d="M161.2 999.5c-1.6.2-1.9 1.3-2 2.4 0 .6-.4.9-.3.3.1-1.4 0-2.5 2-2.8z" style="opacity:.25;fill:#fff;fill-opacity:1;stroke:#000;stroke-width:2.39093;stroke-miterlimit:4;stroke-dasharray:none;stroke-opacity:1"/><path d="M154.7 998c-2 .4-2.3 1.7-2.3 2.7 0 .4-.2.7-.3-.1 0-1.8 1.3-2.5 2.2-2.8z" style="opacity:.25;fill:#fff;fill-opacity:1;stroke:#000;stroke-width:.755906;stroke-miterlimit:4;stroke-dasharray:none;stroke-opacity:1"/><path d="M138.9 816.9c-2 1.6-.8 4-1 6.5 1.4-1.8 2.5-4.2 4.7-4.6-.8-1.3-2.6-1-3.7-2z" style="fill:#000;fill-opacity:1;stroke:#000;stroke-width:.755906;stroke-miterlimit:4;stroke-dasharray:none;stroke-opacity:1"/><path d="M147.4 818c-.6 3-.7 3.5.2 6.9-1.8-2-3.9-3.9-4.7-6.3 1.2-1.4 2.8.3 4.5-.7zm-12.1-3c-2.3 1.3-1.7 2.9-2.4 5.3 1.7-1.5 3.2-3 5.5-3.1-.1-1.6-2.2-1.2-3.1-2.3z" style="fill:#fff;fill-opacity:1;stroke:#000;stroke-width:.755906;stroke-miterlimit:4;stroke-dasharray:none;stroke-opacity:1"/><path d="M149.6 816.8c.7.9 2 1.2 3 4.3-2.3-2.3-3-1.7-6.3-2.8 1.6-1 2-.9 3.3-1.5z" style="fill:#000;fill-opacity:1;stroke:#000;stroke-width:2.39093;stroke-miterlimit:4;stroke-dasharray:none;stroke-opacity:1"/><path d="M146.7 815c-4 1.1-3 1.6-6.4-.8 0 .6-4.7.5-5.2.8 4.3 4 10.7 5.5 14.5 1.8-.4-.4-.9 0-3-1.7z" style="fill:#000;fill-opacity:1;stroke:#000;stroke-width:.755906;stroke-miterlimit:4;stroke-dasharray:none;stroke-opacity:1"/><path d="M148.5 810.2c-.8 4.4-3.4 7.7-5.7 7.4-2.4-.4-3.6-4.3-2.9-8.7.8-4.4 3.3-7.7 5.7-7.4 2.3.4 3.6 4.3 2.9 8.7z" style="fill:#fff;fill-opacity:1;stroke:#000;stroke-width:.377953;stroke-miterlimit:4;stroke-dasharray:none;stroke-opacity:1"/><path d="M144 810.2a2.3 2.3 0 0 0-1.2 1l-.2.7c0 .4 0 .8.2.8l.8-.4" style="fill:#fff;fill-opacity:1;fill-rule:evenodd;stroke:#000;stroke-width:.377953;stroke-miterlimit:4;stroke-dasharray:none;stroke-opacity:1"/><path d="M144.2 810.2a2.1 2.1 0 0 1 .7 1.4v.6c0 .5-.3.8-.5.7l-.6-.6" style="fill:#fff;fill-opacity:1;fill-rule:evenodd;stroke:#000;stroke-width:.377953;stroke-linejoin:bevel;stroke-miterlimit:4;stroke-dasharray:none;stroke-opacity:1"/><path d="M139.2 808.5c-.7-.8-1-2-.9-3.3a4.4 4.4 0 0 1 2.6-3.4c1.5-.7 3.8-.6 5.2-.3 1 .1 3 1 3.7 1.6 1.1 1 1.6 2.4 1.4 3.9a4 4 0 0 1-2 3" style="fill:#fff;fill-opacity:1;stroke:#000;stroke-width:.377953;stroke-linecap:round;stroke-linejoin:round;stroke-miterlimit:4;stroke-dasharray:none;stroke-opacity:1"/><path d="M139.6 811.5c.2.6.4 1.3.3 2-.2.4-.3 1-.3 1.6.1.6.7 1.5 1.3 1.9.7.3 1.1.5 1.9.6" style="fill:#fff;fill-opacity:1;stroke:#000;stroke-width:.377953;stroke-miterlimit:4;stroke-dasharray:none;stroke-opacity:1"/><path d="M140.2 811.9a9 9 0 0 1 .3 2.6" style="fill:#fff;fill-opacity:1;stroke:#000;stroke-width:.377953;stroke-miterlimit:4;stroke-dasharray:none;stroke-opacity:1"/><path d="M140 804.5c-.4.2-.5.6-.5 1.2 0 .4.2.9.1 1.3 0 .8-.4 1.6-.7 2.2-.2.8 0 1.5.2 1.8l1 .7c.4.1.6.3.8.5.3.4.4.7.3 1" style="fill:#fff;fill-opacity:1;stroke:#000;stroke-width:.377953;stroke-linejoin:round;stroke-miterlimit:4;stroke-dasharray:none;stroke-opacity:1"/><path d="M147.9 812.7c-.4.6-.8 1.2-1 1.8 0 .5 0 1.1-.3 1.6a3 3 0 0 1-1.9 1.5h-2" style="fill:#fff;fill-opacity:1;stroke:#000;stroke-width:.377953;stroke-miterlimit:4;stroke-dasharray:none;stroke-opacity:1"/><g style="fill:#fff;fill-opacity:1;stroke:#000;stroke-width:9.70242;stroke-miterlimit:4;stroke-dasharray:none;stroke-opacity:1"><path d="M236.5 349.7c14.7 9 40.2 10.4 63 10 25.4 0 47.1-2 61.4-10.6m-119.2 24.2c16.2 10.2 35.3 13.7 57.3 12.9 22.8-.6 40.3-2.5 56-13.2" style="fill:#fff;fill-opacity:1;stroke:#000;stroke-width:9.70242;stroke-miterlimit:4;stroke-dasharray:none;stroke-opacity:1" transform="matrix(.03989 .00598 -.00644 .03708 133.8 798.8)"/><path d="M229.9 385.6c17.4 21 41.6 24.6 69.2 25.4 29.5 1 59.1-10.7 66.8-25.4m-124.5-31.3-.4 41.2m14-36.9-.2 44.2m15.2-42.3-.5 46.2m14-45.2-.2 46.9m15.4-46.4v46.8m14.6-47 .2 46.8m13.3-48.1.4 46m14.4-48.5.2 44.1m13.5-49.5.4 41.6" style="fill:#fff;fill-opacity:1;stroke:#000;stroke-width:9.70242;stroke-miterlimit:4;stroke-dasharray:none;stroke-opacity:1" transform="matrix(.03989 .00598 -.00644 .03708 133.8 798.8)"/></g><path d="M147.1 812.9a9.5 9.5 0 0 0-1.2 2.4" style="fill:#fff;fill-opacity:1;stroke:#000;stroke-width:.377953;stroke-miterlimit:4;stroke-dasharray:none;stroke-opacity:1"/><path d="M141 807.6h1.6c.8 0 1 .8.7 1.3a6 6 0 0 1-1.2 1.2 1 1 0 0 1-1 .1c-.3 0-.6-.3-.8-.7l-.2-1c0-.3.2-.8.9-.9z" style="fill:#000;fill-opacity:1;fill-rule:evenodd;stroke:#000;stroke-width:.377953;stroke-miterlimit:4;stroke-dasharray:none;stroke-opacity:1"/><path d="M150 806c.2.3.1.7 0 1.2l-.6 1.2c-.2.8-.1 1.7-.1 2.4 0 .8-.4 1.4-.8 1.6a3 3 0 0 1-1.2.3c-.3 0-.6.2-1 .4-.3.2-.5.5-.5.8" style="fill:#fff;fill-opacity:1;stroke:#000;stroke-width:.377953;stroke-linejoin:round;stroke-miterlimit:4;stroke-dasharray:none;stroke-opacity:1"/><path d="m147.9 808.6-1.6-.4c-.7-.3-1.2.4-1 1 .1.5.4 1 .7 1.5.2.4.6.5 1 .4.2 0 .5-.1.9-.5l.5-.8c.2-.3.1-.9-.5-1.2z" style="fill:#000;fill-opacity:1;fill-rule:evenodd;stroke:#000;stroke-width:.377953;stroke-miterlimit:4;stroke-dasharray:none;stroke-opacity:1"/><path d="M132.3 793.3c-1.7 1.4-1.5 3.7-1.7 6 1.2-1.6 2.4-3 4.4-3.4-.4-1.4-1.7-1.9-2.7-2.6zm10.5 6.7c.7-2.7 1.8-5.4 3.7-7.8h1l2.2 3c-.7 1.8-2 3.5-2 5.6zm19.4-3.5c-.6 2.5-1.4 5-.7 7.8a17.2 17.2 0 0 1-3.8-5.8c1.1-1.2 3-1.3 4.5-2z" style="fill:#000;fill-opacity:1;stroke:#000;stroke-width:.755906;stroke-miterlimit:4;stroke-dasharray:none;stroke-opacity:1"/><path d="M147.3 800.7c2.6-2.4 4.1-3.9 7.6-5.8 2 .2 5 .8 7.4 1.5-3.4 2.1-7.2 2.5-9.3 6zm-8.9 3.2c4.8-1 9-.1 13.1 2 .2-.8.4-1.7.9-2.3-4-2.7-8.6-4-13.9-2 .2.8.1 1.5 0 2.3zm8.2-11.5c0 2 1 4 2.8 5.6.6-1.5 1-3.1 3-4.5a6.2 6.2 0 0 0-2.9-1.7l-2.9.3z" style="fill:#fff;fill-opacity:1;stroke:#000;stroke-width:.755906;stroke-miterlimit:4;stroke-dasharray:none;stroke-opacity:1"/><path d="M138.5 800.1c-1.2-2.6-4-4.5-6.5-6.6 1.1-1.1 2.7-1.5 4.3-1.9 3.6 2.5 5.5 5.4 6.9 8.5z" style="fill:#fff;fill-opacity:1;stroke:#000;stroke-width:.755906;stroke-miterlimit:4;stroke-dasharray:none;stroke-opacity:1;filter:url(#filter4519-2)"/><path d="M138.6 801.5c4.8-.4 9.2.3 13.6 2 .1-.5.5-.9 1-1.2-4.7-2-9.7-3.4-15-2.2.5.4.4 1 .4 1.4zM120 821.8l.6-2.1-2-1 1.4 3.1z" style="fill:#000;fill-opacity:1;stroke:#000;stroke-width:.755906;stroke-miterlimit:4;stroke-dasharray:none;stroke-opacity:1"/><path d="M165.7 993.7c.2 1-.6 2-1.8 2.2-1.2.2-2.3-.6-2.5-1.6-.1-1.1.7-2.2 1.9-2.3 1.1-.2 2.2.6 2.4 1.7z" style="fill:#fff;fill-opacity:1;stroke:#000;stroke-width:.755906;stroke-linejoin:round;stroke-miterlimit:4;stroke-dasharray:none;stroke-opacity:1"/><path d="M95.6 821.8c-4 2.7 0 4.9-.6 8.1 2.8-2.7 2.7-3.6 7.2-4.9a20.1 20.1 0 0 0-6.6-3.2z" style="fill:#000;fill-opacity:1;stroke:#000;stroke-width:.755906;stroke-miterlimit:4;stroke-dasharray:none;stroke-opacity:1"/><path d="M102.3 824.9c-3.6 3-.8 6.1-1.2 10.2 2.5-3 2.5-4.9 6.7-5.8-1.5-2-4.2-3.3-5.6-4.3zm19.1 1c1.3 2.9 2.4 2 4 5.8-3.6-2-6.7-2.5-10.6-3.5 1.7-1 5.5-.6 6.6-2.3z" style="fill:#fff;fill-opacity:1;stroke:#000;stroke-width:.755906;stroke-miterlimit:4;stroke-dasharray:none;stroke-opacity:1"/><path d="M74 790c.3 1-.6 2-1.7 2.2-1.2.1-2.3-.6-2.5-1.7-.2-1.1.7-2.1 1.8-2.3 1.2-.1 2.3.6 2.5 1.7zm52.6 42a2 2 0 0 1-1.8 2.3c-1.2.2-2.3-.6-2.5-1.7-.2-1 .7-2 1.8-2.2 1.2-.2 2.3.6 2.5 1.7zm-22.9 2.8c.2 1-.6 2-1.8 2.3-1.2.1-2.3-.6-2.5-1.7-.1-1.1.7-2.1 1.9-2.3 1.1-.2 2.2.6 2.4 1.7zm-6-4.4c.2 1-.6 2-1.8 2.3-1.2.1-2.3-.6-2.4-1.7-.2-1.1.6-2.1 1.8-2.3 1.1-.2 2.2.6 2.4 1.7zm37.2-9.1c.2 1.1-.6 2.1-1.8 2.3-1.2.2-2.3-.6-2.5-1.7-.1-1 .7-2.1 1.9-2.3 1.1-.1 2.2.6 2.4 1.7zm-1.9-21.5c.1 1.1-.7 2.2-1.9 2.3-1.2.2-2.3-.6-2.4-1.7-.2-1 .6-2 1.8-2.2 1.2-.2 2.3.5 2.4 1.6zm18.2-.8c.1 1-.7 2-1.8 2.2-1.2.2-2.3-.6-2.5-1.7-.2-1 .6-2 1.8-2.3 1.2-.1 2.3.6 2.5 1.7zm12.5 5.9c.2 1-.6 2.1-1.8 2.3-1.2.1-2.3-.6-2.5-1.7-.1-1.1.7-2.1 1.9-2.3 1.1-.2 2.2.6 2.4 1.7zm-9 17.2c.2 1-.6 2.1-1.8 2.3-1.2.1-2.3-.6-2.5-1.7-.1-1.1.7-2.1 1.9-2.3 1.1-.2 2.2.6 2.4 1.7zm-5.3 3.1c.2 1-.7 2.1-1.8 2.3-1.2.1-2.3-.6-2.5-1.7-.2-1.1.7-2.1 1.8-2.3 1.2-.2 2.3.6 2.5 1.7zm-9.4-.7c.1 1.1-.7 2.1-1.9 2.3-1.2.2-2.3-.6-2.4-1.7-.2-1 .6-2 1.8-2.3 1.2-.1 2.2.6 2.4 1.7zm-52.2-.8c.2 1-.6 2-1.8 2.2-1.2.2-2.3-.6-2.4-1.7-.2-1 .6-2 1.8-2.2 1.2-.2 2.3.6 2.4 1.7zm22.7-49.5c.2 1.1-.6 2.1-1.8 2.3-1.2.2-2.3-.6-2.4-1.7-.2-1 .6-2.1 1.8-2.3 1.2-.1 2.3.6 2.4 1.7zm25.9 5.8c.2 1-.6 2-1.8 2.2-1.2.2-2.3-.6-2.4-1.7-.2-1 .6-2.1 1.8-2.3 1.1-.1 2.2.6 2.4 1.7z" style="fill:#fff;fill-opacity:1;stroke:#000;stroke-width:.755906;stroke-linejoin:round;stroke-miterlimit:4;stroke-dasharray:none;stroke-opacity:1"/><path d="m96.4 817.7 2.3-.4" style="fill:none;stroke:#000;stroke-width:.377953;stroke-linecap:butt;stroke-linejoin:miter;stroke-miterlimit:4;stroke-dasharray:none;stroke-opacity:1"/><path d="m109.6 830.7-.8-7m-2.2 4.3-.1-1-.7-4.5" style="fill:none;stroke:#000;stroke-width:.566929;stroke-linecap:butt;stroke-linejoin:miter;stroke-miterlimit:4;stroke-dasharray:none;stroke-opacity:1"/><path d="m105.2 827-.1-1-.7-3.9" style="fill:none;stroke:#000;stroke-width:.377953;stroke-linecap:butt;stroke-linejoin:miter;stroke-miterlimit:4;stroke-dasharray:none;stroke-opacity:1"/><path d="M103.8 825.7v-.7c-.3-1.8-.6-2.4-.8-3.4m-.6 3.4v-.8c-.3-1.7-.6-2.2-.8-3.1" style="fill:none;stroke:#000;stroke-width:.566929;stroke-linecap:butt;stroke-linejoin:miter;stroke-miterlimit:4;stroke-dasharray:none;stroke-opacity:1"/><path d="M101 824.3v-.7c-.3-1.7-.6-2.2-.8-3.2" style="fill:none;stroke:#000;stroke-width:.377953;stroke-linecap:butt;stroke-linejoin:miter;stroke-miterlimit:4;stroke-dasharray:none;stroke-opacity:1"/><path d="m99.3 823.3-.2-1.7-.2-2m-.6 3.1c-.3-.4-.6-2.1-.5-1.8.1.8-.2-.7-.3-2.3m-1 3.4c0-.5.3 1.4.3 1-.2-2.8-.5-3.6-.6-5.1" style="fill:none;stroke:#000;stroke-width:.566929;stroke-linecap:butt;stroke-linejoin:miter;stroke-miterlimit:4;stroke-dasharray:none;stroke-opacity:1"/><path d="m97.8 818.4 2.3-.4m-1.1 1.2 2.2-.4m-.9 1.2 2.3-.4m-.8 1.3 2.3-.5m-.1 1.2 2.2-.4m-.8 1.1 2.3-.4m-.3.8 2.3-.4" style="fill:none;stroke:#000;stroke-width:.377953;stroke-linecap:butt;stroke-linejoin:miter;stroke-miterlimit:4;stroke-dasharray:none;stroke-opacity:1"/><path d="m108.2 829.5-.1-1.2-.7-5.6" style="fill:none;stroke:#000;stroke-width:.566929;stroke-linecap:butt;stroke-linejoin:miter;stroke-miterlimit:4;stroke-dasharray:none;stroke-opacity:1"/><path d="M96.1 781.5c-4.5-6.3-9-7.9-16.1-13.5-5 .3-5 3-9 5.3 5.2 6.5 12.6 6.3 14.8 12.7z" style="fill:#fff;fill-opacity:1;stroke:#000;stroke-width:.756;stroke-miterlimit:4;stroke-dasharray:none;stroke-opacity:1"/></g></svg>