<svg xmlns="http://www.w3.org/2000/svg" width="234" height="333"><g transform="translate(0 -719.4)"><rect width="233.2" height="332.2" x=".4" y="719.7" rx="8.9" ry="8.9" style="fill:#fff;fill-opacity:1;stroke:gray;stroke-width:.75590551;stroke-linecap:butt;stroke-linejoin:miter;stroke-miterlimit:4;stroke-dasharray:none;stroke-opacity:1"/><path d="M12.9 780.7v-1.5h3.5v-2.7c-2.2 0-4.7.2-6.8-.7-1.6-1-2-3-1.7-4.7.3-2 1.3-3.7 2.7-5 1.9-2 4.2-3.2 6.6-4.3 2.5 1 4.8 2.4 6.7 4.4a8.3 8.3 0 0 1 2.7 6.1c0 1.7-1 3.4-2.7 3.8-1.9.5-3.8.4-5.8.4v2.7h3.4v1.5H13zM212.5 991v1.5h3.5v2.8c-2.2-.1-4.7-.3-6.8.7-1.6.9-2 3-1.7 4.6.3 2 1.3 3.7 2.7 5a18 18 0 0 0 6.6 4.3c2.5-1 4.8-2.4 6.7-4.4a8.3 8.3 0 0 0 2.7-6c0-1.8-1-3.5-2.7-3.9-1.9-.5-3.8-.4-5.8-.3v-2.8h3.4V991h-8.6zM50 804.6v-3h7v-5.5c-4.4.2-9.3.5-13.5-1.3-3.3-1.8-4.2-6-3.5-9.4.6-3.9 2.7-7.3 5.5-10 3.6-3.8 8.3-6.4 13.1-8.6 5 2.2 9.7 5 13.4 9 3.3 3 5.5 7.4 5.5 12 0 3.4-2 6.9-5.4 7.6-3.8 1-7.7.9-11.6.7v5.5h6.7v3H50zM166.8 967l-.1 3.1h7v5.5c-4.4-.1-9.3-.5-13.5 1.4-3.2 1.8-4.1 6-3.5 9.3.6 3.9 2.7 7.3 5.5 10 3.7 3.8 8.3 6.5 13.2 8.6a38 38 0 0 0 13.3-8.9c3.4-3.1 5.6-7.5 5.5-12.1 0-3.4-2-6.9-5.4-7.6-3.8-1-7.7-.9-11.6-.7v-5.5h6.7l.1-3h-17.2z" style="fill:#000;stroke:none;stroke-width:1"/><g style="display:inline;stroke-width:3.18132639"><path d="M78.2-191.2 1142.8-203l20.8 1701.4-1067.4 9S83.8 397.3 78.2-191.1zm775 1680.8c-40.5-71-104.5-186.8-106.3-187.8-23 12.6-259 46.7-373 17.5a3562.3 3562.3 0 0 0-108.8 174.4zm-365.3-209.8c-6 .1-12.5 3.8-11.3.7.7-1.8 2.2-20.2 2.8-26.8 1.8-3 4.3 4.7 4.1 11.8 0 4.1 1.9 1.2 15.3 1.7 14.6.6 26.5 3.2 31.5 4.2 17.2 3.5 50.5.5 64.6-10 7.7-5.7 10.7.3 2.8 6.4-35.7 27.5-64.3 17.5-95.6 13.3-4.6-.6-9.3-1.5-14.2-1.3zm15-26c-2.2-1.3-3.7-1.5-6.5-.1-11 5.2-8.2-2.2-.3-9.6 3.6-3.5 3.4-5.2.6-8.7-1.4-1.8-3.7-2-3.2-4.7 2.3-11.6 18.5-29.4 36.7-37.4 7.6-3.3 8.8.2-.7 6-14.8 8.8-19.5 16.2-11.1 13.1 16.2-6 31-2 52 8 6 3 8.7 3.5 13.7 2.9 3.7-3.2 7 .5 9.4 2.4 1.5 1.2 1.8 1.7 3.5 1.3 11.8-2.9 4.8 4.7-11.3 16.6-28.7 20.7-60.2 30.6-82.8 10.3zm44.7 4.6a104.6 104.6 0 0 0 34.9-19c10.7-9.6 4.6-8-7.7-2a97.5 97.5 0 0 1-50.5 11.1c-16.8-.2-16.3-.9-17 1.2-2 7.4 21.3 14.6 40.3 8.7zm-33-28.3c.9-3.1 1.6-7.3.7-8.7-1.6-2.5-5-.6-9.1 4.8-2.6 3.3-2.3 3.8.3 6.4l3.1 2c3.6 1.4 4.2-2 5-4.5zm7.4 4.3c5-17.6 16.6-17.4 25-.7h5.9c-12.4-32.6-35.5-15.8-36 .5 2.7.9 5 .2 5 .2zm43.3-3.5c5.4-3 4.6-5.1-2.4-8.6-5-2.5-7.6-3-8.5-1.3 0 3.6.3 8.8 2.4 11.6 2.2 1.3 5.2 0 8.5-1.7zm-77.4-49c-1-1.7-.9-4.7 3-6.5 23.3-11 6-33.7-12-16.4-5.7 4.8-14.3 7-21 4.3-6.2-2.6-6.4-10.1 1.9-11.8 2.7-.6 9.6-2.1 12.2-4 31.3-17 48.5 19.2 26.3 31.6-4.6 2.7-9.5 4.3-10.4 2.8zm-88.7-32.2c-13-5.6-14.9-25.6-3-33.5 7.6-5.3 15.4-6.8 36.6 3.3 14.9 7.2 23.3-.8 23 7.7-.1 5.2-.4 10.4-9 11.8-14 2.1-23.8-16.7-41.9-14.7-13 1.4-11.1 16.9-1.7 20 12.6 4 5 9-4 5.4zm235.4.3c-2.3 1.2-3.5-4-2.5-6.7 6.3-15.1 12-27.2 17.7-41.3 4.5-11.3 7.5-16.2 9.6-16.2 2.1 0 3.1 1.6-.4 8.6-5.2 14-24.3 56.8-24.4 55.6zm-105.1-2.7c-5.8-4-4.9-9.9 1.6-5.5 8.4 5.7 21.8-5 19-15-3.5-12-19.7-14.7-33.1-3.8-21.1 17.3-44.5 18.4-44.7 5.1 0-3.8-.5-4.7 8.3-5.4a70 70 0 0 0 27.7-9.2c25.8-16 53.5-5.4 48 20.9-2.4 12.3-17.6 18.5-26.8 12.9zm-95.6-37.6c-2.1 0-6 2.1-7 1.3-2.2-1.6-2-6.2-3.8-11.2-3.3-8.8-.1-6 5.4-3.7a30 30 0 0 0 21-.1c6.6-2.4 15.2-2 29-.3 11 1.3 17.3.8 27.3-2.1 10.9-3.6 8-2.3 6.3 4.4-1.2 4.4-2.6 10.3-4 11.7a16.8 16.8 0 0 0-18.2.5c-8.1 3.6-13.9 4.3-20.6 2.4-6.3-3.5-10-3.1-15 0-8.6 4.3-12.6-2.6-20.4-3zm162.5-20.2c1.4-2.7 3.6-6.4 5.7-10.5 16.5-33.4 17.5-42.7 5.5-53.8-16.2-14.8-29.7-8.1-44.7 22-3.6 7.4-5.8 13-7.3 15.2-1.7 2.6-3.7.6-4.7-.4-2-1.9 14.7-34 21.3-41 17.2-18.4 49.8-4.2 48 20.6-1 12.5-3.2 19.4-14.5 42.4-2.8 5.7-5.2 10.5-6.7 12.9-5.3 3.6-4.2-4.6-2.6-7.4zm-159 .5c2.6-12 40.8-17.8 51-2.4 1 1.5.4 1.5-3.9.3-19.5-6.1-23.3-5.7-41.9 1.8-2.8 1-4.8 1.5-5.1.3zm145.9-4c0-1 1.3-5.4 3.4-9.7 12.5-25.1 16-31.2 12-35.8-7.7-9-17.7-1-26.8 25.2-3.4 9.8-5.8 7.7-7.5 6.2-3.3-2.9 10.8-33.4 17.7-38 15.7-10.2 28.3 1.2 21.5 21.7-5.3 9.3-9.7 23.5-14.7 31-2.3 3.4-5.6 2.4-5.6-.5zm-57.6-39.9c-.8-1.3.7-3 6-14.7 7.4-16 9.6-22 6.5-31.1-5.7-16.3-26.2-20-38.6-9.2a35 35 0 0 0-8.6 12.6c-4.4 10-8 22.9-10.7 25.6-2.3 2.4-5.6 2.9-5.4-1.2 2.9-8.7 4.2-15.4 11-28.2 17.1-37.9 67.7-21 56.4 18.9a103.4 103.4 0 0 1-12.1 29c-1.7 2-4.4.3-4.5-1.7zm-11.8-6.8c0-1.2 1.8-4.8 3.8-9.8 8.3-21 8.3-27.4-4.1-27.5-7.5 1-8.5 4-14.9 20.6-2 5.4-3.2 9.2-4.4 10.9-1.3 1.8-3.9.8-5-.3-2.6-2.7 8.7-29.9 14.8-35 14-12.4 32.5 4.7 24.1 20.4-3.9 11-7.3 18.4-9.6 21.8-2 3-4.7 2.6-4.7-1.1zM210.2 798.5l-43-2.5c8.2 45.6 9.1 95.9 1.8 131.6-6.2 30.5-6 53-3.8 79.4 2.7 30.7 16 56.6 19.7 89.2 2.6 23.6-2.3 48.4-6.8 72-7.4 39.3-5.7 43.4-4 89.5 1.5 42.7-2.5 41.2-5 38.7-.4-.3-.8-7.9-.9-16.9 0-9-.8-31-1.5-46.2a310.5 310.5 0 0 1 4-68.6c4.8-22.6 10.2-45.8 6.5-70.7-7.4-31.4-17.7-62.8-21.6-93.1-4.7-37.5 5.5-75.2 8.7-102.4 3-26.3-1-71.7-8.2-90.6-1.2-6.2-7-14.4-7-14.4-6.4-.8-13-1.7-22-1.5 1.5 180.4 4 360.9 6.1 541.3l40.5 36.5 40.7-39.4zm5.2 207s61.5 34.2 129.3 67.9c-6.9-39.3 13.4-45.5 32.4-50.2-5.4-76 64.8-61.2 76.3 4.7h6.9c11.7-33 23.5-56 51-61.7 21.4-4.4 42.6 8.8 48.3 40.5-1-2.2 70.5-42.7 73.5 41.3 32.4-20.6 55.9-3.4 65.6 22 13.5-21 48-22.3 59-24 3.9-4.4 10.6-7 23-7 10.5-.7 24.6-8.7 32 .8 11.1 1.6 19.5-.5 29.1 6.7 7.6 5.7 16.2 18.3 28.7 9.4 23.8-11.8 50.7-17.3 72-31.3 0 0-5.8-7.3-4.1-6.2.6.3 3.3 3.8 7.3 5.3 1.5.6 14.6-7.4 14.6-7.4-90.4-101.4-166.1-300.4-119.7-485.8 1.3-3.2-4-4.3-6.7-5.4.8-1.4 13.9.3 8.5 12.1-5.2 35.5-11.2 74-12.3 103.4 0 3.5.4 6.7.4 6.7 201.2 89.7 178.9 289 128.2 358.8l8.3 10.7c3.6 2.3 156.5-88.7 151.4-92.3l29-14.7-9.1-390.2L1023 512s1.2-3.3 2.6-4.2c.8-23.8-1.7-59-.9-88.5-.5-84.3 0-113-1-115.3-35.8-22.9-89.2-56.3-134-72.4 1.9.5-.3 35-1.6 37-41.6 13.7-22 30.4-37.2 48.7-10.3 11.5-34.5 13.9-46.3.4-14.2-13.3-21-44-21-44-21.9 23.6-17 52-46.4 63-47.3 24-63.1-46-60.3-44.4-18 17.7-69 32.4-75.3-41.2-22.7 21.3-48.6 11-59.8-14.7-14 .7-29.6 11.8-43.7 17.8-13 6-29.9 9.6-42.4 9.5a100 100 0 0 1-42.6-2c-6.6 2.3-21.6-4-26.3-13-7.1-8.2-13.3-8.6-20-7-22.7 12.1-47 15.3-73.9 28.1-1.6 1.2 2.4 3.3 1 3-.5-.2-14 6.7-14 6.7 138.4 177 147.8 357.1 120.6 485.1-1 4.5-1.6 7.7 1.4 11.1-4.4-.6-4.4.6-5.3-2.1l13-107.4c.3-13 2-12-9.5-16.7a221.9 221.9 0 0 1-29.5-13.8c-33.5-24.2-71.5-54-90.2-91.4-53.2-80.4-37-177.2 1.3-254.2l-9.8-10C158.2 338.6 91.3 400.9 91.3 400.9l4.8 383 117.6 12zM156 750.2c-3.8-4-13.4-4.7-17.4-1.5-.9.8-2.8 4.9-3.4 4.7-5.3-1.3-9-2.3-9.8-6.8l5.6-8.6c4.4-6.7 10.8-9.2 21.6-11.8 3.9-1 9.7-1.9 11.7-2.8 8.1-3.6 10.9-11.2 2.7-7.7-6 1.7-14.5 1.3-15.7-4.2-1-4.5-4.8-6.2-9.1-5.7-8 2-15.2 6.2-22.2 10.5-3 1.9-9 6.2-9 6.2-.9 1.5-4.5-9.1-1.3-12.3 4 .5 7.5.5 11.3-1.1 9.7-4 19-8.7 28.8-12.6 6.2-2.5 6.8-2.3 5-6.7a17 17 0 0 1-.5-9.8c1.1-3 1-4.6-1-5.8-4.4-2.9-15 0-29.8 7.2-4.5 2.2-7.5 3.2-10.3 5.5 1.8-4.7.7-5.6.6-10.5 6 .7 11.5-1.8 16.3-4.3 4-2.2 8.5-4.3 19.5-5.8 3-.4 1.5-11.3-2-14.5-3.3-3-10-3-18.2-.4-7.4 1.8-16.5 3.6-21.4 11.5-6.4 6 0-10 11.5-16.5 5.1-.2 16.4-2.7 19-3.3 4.5-1 5-11.5-1.5-16-4.1-3.4 14.8-3.7 14.4-2.6-.2.6-.3 5 1.1 6.2 8.2 2.3 8.2 9 9 11.7 9.5 15.2 14 5.6 20.3.2-1 33.3 10.8 37 12.4 39-15.8 30-3.7 30.7 11.5 37.3 0 0-5.7 2.4-9.5 2.2-6-.3-17.4 7-22.4 11.1-2.7 2.4-2.8.5-13.9.3-10.4-.2-11.2.6-15.9 2.7-9.3 4.2-9.2 8.1 0 6.5 9.6-1.7 19.3 4 20.5 12 .8 1.6.1 4.3 0 4.2-2-.4-6.7.4-6.6-.5 0-1 0-4.6-1.9-7.2zm13.8-40.5c2.6-1.7 3-6.5.7-8.4-2.1-1.7-11-.7-13.5 1.6-5.6 4.5 4.8 11.9 12.8 6.8zm5.5-20c3.2-2.6 3.6-8.7.7-12.2-4.9-6-17.4-2.3-18 5.3-.7 8.1 10.5 12.2 17.3 6.9zm-4.4-27.5c.5-6.6-6.1-10.7-12.2-7.5-7.5 4-2.8 12.2 6.6 11.6 5.3-.3 5.3-.3 5.6-4zm-22.4-26.6c-3.6 1.7-3.7 5.9-.3 8.5 13.3 7.1 9-12.4.3-8.5zM1075 665c-6-21.3-21.8 0-21.9.4-.8-21.9 3.3-31.7-13.3-39 16.3-25.1 12.8-28.5-4.9-37.9 1.7.1 23.3-5 26.8-17.3.9.6 34.2 8.3 38-9.7-9.9 4.6-29.6 5.5-30-13.9 1.9-.6 6.5.3 6.2 1-2.5 12.4 20.3 15.3 23.9 5.4 0 0 7.7 5 11 5.8.4.2-10.1 15.1-19.9 17.5-17.6 6-23.6 7.6-23.6 11 0 1.4 2.9 1.6 8.1 2.6 11 .7 10.8 3 12.3 6.6 1.3 3.2 2.5 3.8 6.2 3.5 12.4-4.3 18.7-6.6 27.3-15.3 1-.3 2.4 9 3 9.4.1-1.5-8.8 1.2-22.4 9.3-11.2 6.7-15.6 7.7-17 9.5-1 1.3 1.7 5.4 2 9.9.4 3.7-2.2 5.6-.3 6.7 2.2 1.4 5.5 1 10-.1a83 83 0 0 0 25.4-11.8c-1.9 3.5 1.3 12.4 1.3 12.4s-4.3-3-7.8-1.4c-6.8 3-17.8 7.2-20.8 8-2.8.7-4 1-5.2 2-1.4 1.2-1.1 4-1 8.2 0 2.9-.9 5.6 1 6.4 4 1.3 12.3.8 20.6-2.2 3.6-1.6 11-5.8 11-5.8l-2.2 12.3c-3.2-3.6-12.3-.8-18.3 1.6-3.1 1-4 3-4.8 5.6-1.3 4.6 1.7 7.7 5 9.2 2.3 1 5.8.5 5.8.5-15.8 6.2-12.6 8.4-21.9 4-4-4.3-8-8.8-9.6-14.4zm16.6-.2c-2.7-3-7.3-4.6-10-3.4-2.3 1.3-1.4 3.9-.6 5.9 2 5.5 16 3.6 10.6-2.5zm-9.4-15.1c3.6-4.9-.5-11.4-7.4-11.3-4.7 0-7.2 3-7.1 6.7.1 7 11.4 8.7 14.5 4.6zm-7.8-18.4c6.8-1.9 8.8-8.6 4-13.3-3.4-3.4-14-3.7-16.8-.6-7.1 8 1.1 17.2 12.8 14zm5.4-24.3c4-2 4.8-5.5 1.2-9.4-6.6-5.4-17.8-1-14 7 1.8 3.9 8 5 12.8 2.4zM251.4 432.2c6-2.3 10.4-7 16.7-10.7 4.3-2.4 3-2-2.6-5.1-4.3-2-13.1-10.6-13.9-8.5a62 62 0 0 0-.2 24.3zm155.7 212c.2-4.2.6-10.5.4-15.1.8-8.8-.8-6.2-5.5-3.3a233 233 0 0 1-11.3 7c-8.7 4.4-7.7 4.6 4.7 10.4 10.4 4.4 11.5 4 11.7 1zm-12.3-20.5c8.3-5.3 11-8 11.4-14 0-6.7-.8-9.1-6.7-4.4-20.2 16.2-41.5-14.9-23-32.5 3.7-3.6 8.5-9.2 8.5-10.7.2-10-11.1-.1-20.3 13.9-10.2 12.7-16.5 28.6-7.2 43.6 7.3 11 23.5 13 37.3 4.1zm-46.4-19.9c-.4-4.9 1-10.4 1.6-12 2.2-6 2-6.6-8.2-1.7-4.1 1.4-9 2.6-11 2.6-8.4 0-6.3 2.6 6 12.6s12.7 10.9 11.6-1.5zm28.3-48.7c1.3-3-1.4-4.2-4-3.6-.2 0-4.6 3.4-9.8 7.5-15.6 12.6-27.2 14.1-35.2 4.8-8-9.5-4.8-20.9 12.8-34 7.8-5.9 9.7-6.3 5.9-8.7-3-2-3.1-1.6-14.3 6-22.5 15.6-29.2 26.2-26.8 41.4.6 6.2 4 9.5 7.1 11.9 21.9 18.8 51.6-7.8 64.3-25.3zm23 8.8-1.6-21.1a183 183 0 0 1-53.4-81.1c-8-24.8-2.5-77-1.3-73l-12.7-23.4a152.4 152.4 0 0 0-2.6 101.8c10.3 32.8 30.9 72.5 71.6 96.8zm-97.4-11.2c7.2-14.1 7.5-12.6-6.7-12.6-16.2 0-14.4-2-5.1 11.7 7.4 11 6.2 12 11.8.9zm9.5-19.4c9.3-3 7.2-2.3 19.5-10.5 14-9.3 14.6-14.4.4-7.1-18.1 9.3-34.2 7.1-40.3-4.7-5.5-10.5 5.5-23.8 23.7-29.1 6.2-1.9 9.5-3.4 9.5-6.1 0-8.3-31 3-43.7 15.8-24.5 24.4-2.5 52.8 31 41.7zm-40.3-37.2 5-7.4c8.6-10.3 1.3-7.1-6.5-9.8a28 28 0 0 0-10.8-2.6c-4.6.8 1.7 9.7 3.3 15.4 4.3 12.8 3.8 12.4 9 4.4zm32.8-23.5c15.7-1.7 17.2-3.2 17.2-6.4s-2-2.6-9.8-1.4c-20.8 3-34.6-2-37.7-13-3.2-11.5 10.7-22.4 29.6-22 10.2.2 16.9-3.3 10.7-6.6-3.3-1.8-31.3-1-37.7.8-18.6 5.7-26 16-24.2 30.3 2.8 17.6 12.5 22.6 36.1 21 4.5-.2 10.3-2 15.8-2.7zm11.5-57.6c0-2.7-4.5-3.1-19.3-5.1-19.8-2.7-28.8-20.8-17-31.8 4.5-4.2 15.2-6 21.1-5 13 2.1 21 4.7 21.1.3 0-3.9-3.8-4.1-28.2-9-37-7.3-56.8 28.9-27.1 46.2 11.2 6.5 49.4 9.9 49.4 4.4zm8.5-51.6c0-1.4-1.2-2.4-4-3.5-4-1.5-6.8-1.8-16-7.8-12.2-8-16-23.9-8-32.8 7.7-8.4-6.6-18-17.8-8.6-11.6 9.9-10.4 25.1 3.2 37 12.6 11 42.7 22.2 42.6 15.7zm-59.7-1.5c12.8-6.1 22-2.8 12.1-10.9-5.5-5-10.4-19.4-14-7.1-3 7.3-5 20.2-5 21.5.9.8.7-.7 7-3.5zm452.6-36c-14.7-3.5-24.8-20.2-21.3-36.5 2-9.2 10.4-30.8 12.1-32.2 6.4-5.1 5.6 1.6-.2 13.4-5.2 12-9.3 21.8-7.6 28.9 2.5 10.1 6.7 17.8 17.3 20.3a24.1 24.1 0 0 0 19.2-4.9c6.3-4.5 12-15.9 19-31.7 2.2-4.4 5.1-18 9-9.8 1.9 4.3-13 33-18.5 40.2-7 9.2-19 14.7-29 12.3zm87.8-10.6c7.1 6.7 19.2 10 27 7.5 19.2-7 27.7-25.1 20-54.1-3.8-16.3-7-26.4-10.3-28.4-1.5-1-3.2.9-4.7 3.2-1.3 2 .8 4.8 3 12.5 9.6 32.2 7.4 46.8-3.8 53.1-16.2 9.2-30.2-1-35.2-24-.8-3.5-3.1-10.8-3.1-10.8-1.3-3.2-11.4-2.3-7.6 8.3 1.2 8.3 9.1 28 14.7 32.7zm81.5-85.5c-.4-11.4-25-60.4-26.5-55.2 0 0 0 11.6 1 16 .4 1.8 1.7 3.4 2.7 5.2 21.3 36.8 18.4 63 .3 68.9-6.1 2.8-7.4 5.6-4.6 8.4 5.6 6 19.5-6.1 22.1-10.5 6.8-9.8 5.6-27.5 5-32.8zM537 225.3a231 231 0 0 0 29.8-55c15.8-47.4 32.4-101.8 36.6-152 .5-6.3.7-15.9 1-16.7-1.3-1.4-9.4-.6-12 .8-1.4 1.7-.5 5.5-.9 10.4a682.8 682.8 0 0 1-39 160.3 252.7 252.7 0 0 1-27 53.7c-1.8 2.8-4.1 5.7-5 7.3-2.6 3.8-.6 6.3 2.4 4.7 5.5-3.2 10.2-9.2 14-13.5zm-26.7 14c24.7-34.7 42-76.1 55.4-125a757.3 757.3 0 0 0 20-96.2c1-7 1.6-11.6.3-13.7-3.4-.8-9.8-.2-12 1.5-1.3 2-.3 6-1.5 15.5a656 656 0 0 1-15.2 80.4c-20.6 70.7-39.9 110.3-65.4 145-2 3-3.9 4.9-3.7 6.1.3 1.8 2.8 1.7 7-1 5.3-4.2 11.4-8 15-12.6zm-38 18.7c12.2-7 33.4-37.5 48.4-70.2A752 752 0 0 0 560 68.1c3.9-16.5 9.2-57.7 8.4-60.4-1-3.2-13-.4-11.3 1.8 0 0-11.2 66.2-23.6 102.8-23.1 67.8-43.2 114-65.1 136.2l-8.5 8.6s.1 2.6 2 3c4.4.7 7.3-.6 10.2-2.1zm-18.9-2.5c27.6-15.7 59.2-88.2 84.7-179C542.4 60.9 550 9 550 9s-11 .5-13 2.8c-2.2 3.2-1.7 11.2-4.6 30.1a607.4 607.4 0 0 1-55.1 161.8c-11.4 23-30.6 44.8-42.8 51-6.8 3.6-8.8 7.4-3.7 7.6 8.4.2 9.2 2 15.3-1.4zM842 1057.8c-20.8.1-38.2 20.2-53.6 45.3-32.9 51.6-54.4 137.3-59.4 182.8l12.6-2.5c-1.9 1 22.2-121.2 60.5-173.8 20.6-33.1 19.7-33.6 31.4-36.8 14.9-4 27 12 19.7 21.7-2.6 3.3-5.6 1-4.8-3.7 2.5-15-19.3-17.6-25.3-2.9-6.8 17 12 31.8 30.1 25 16.2-6 22.8-28.7 11.2-45.3-6-5.6-14.5-10.6-22.4-9.8zm-109.4-1c-24.5 31.5-36.5 63.7-51.3 107.5a564.2 564.2 0 0 0-29.4 135.8l13.4-2c-.9-31.4 32-181.8 80.1-238.6 2.7-3.5 4.8-6.5 4.6-7.3-2.8-7.6-14.2 1.7-17.4 4.7zm54.9-12.2c-32 26.7-57.1 84.6-73.5 138-17.7 57.7-25.4 110.5-24 110.4l12.8-2c-1-3.3 33.7-206.3 101.8-244 6-3 7.2-6 2.1-7.2-7.7-1-13.9 1.6-19.2 4.8zm36-.2c-70.2 10-113.9 225.9-115.2 243.8l-.2 1.7 14-3 .1-1.1c9-55.1 18-93.8 39.4-143.8 16.7-37 39.8-84.5 75-89.4 2.9-.4 5.6.7 4.6-2.6-2.3-5.3-12.8-5.8-17.6-5.6zm-420.3-63.2c-25.4 6.8-25.8 37.2-8.5 76 1.4 2.9 1.1 4.5 2.4 5.6 3 2.5 5.2-1 5.5-3.4.5-3.5-1.1-8.3-3.9-15.2-10.8-26.8-8.4-42.3 1.9-49.3 26.5-14 34 14 38 27 1.1 3.1 1.5 7.4 3.2 7.6 5.4.7 7.9-1.2 7.8-1.2 0 0-7.3-24.1-11.7-33.2-7.1-14.6-23.7-17.5-34.7-13.9zM218.8 1012l3.3 320.6-48.2 46.2a963.9 963.9 0 0 1-48.8-45.3l-5.2-542.1-15.7-1c-1.2 232.9 4.1 469.2 6.5 702.5l144-.5L372 1305.3s1.5-2.2 2-3.4c1.4-3.6 1.1-9 .2-28.7-.4-8 .5-14.2-.7-16-1.3-2-3.8-.6-6.2.5-2.4 1.1-3.8.7-2.5-2.1.7-1.6 3-5.2 5-8.6 6.6-11 8.2-14.6 5.8-26.7-.6-3-3.3-5.5-5.8-9-20.4-29.3-29-73-19.4-105.2 3-14.3 1.8-17.1-5.1-28.1zm626.7-351.8c-13.2-6.6-13-6.4-12.9 6.3.2 9.5.4 11.8 4 10.5 5.1-2.7 11.4-5.2 16.1-7.3 9.1-3.2-2.5-7-7.2-9.5zm52.2 32.5c-10.3-8-6.5-7.1-9.2 11.2-1.6 11-3.8 11.3 7.6 7.5 6.4-2.3 19.8-1 13.7-8.6 0 .2-10-8.5-12.1-10.1zM492.5 977.5c-15.5 9.6-31 55.4-31 55.4-54.4 7.1-76.6 60.9-78.5 105.5-1.5 35.3-3.5 76.4.1 80 35.6-16.5 49.5 2 52.9-3.1 1.5-2.2-8-9.3-20-15.7a75 75 0 0 1-8.7-5.4c-4.4-3.6 8.6-.6 16.9 4.8 10.5 7 12.3 5.6 7.5-15.2-5.2-22.6-6-25.3 11.3-34.5 7-3.7 10.8-6.8 15.8-12.4 3.9-4.5 5-5.6 3.5 1-2.4 11.4-12.5 16.4-21.5 21.2a12 12 0 0 0-6.4 11c0 4.1 5 26.2 7.3 33.2 2 6.7 2.9 13.4 4.5 20.3 4.3 17.7 4.6 21.2 2.7 34a65 65 0 0 0-.2 26.3c0-.2-9.8-9.9-31-1.2-15.4 6.2-27.6 0-36.3-4.4-1.9 7-1.3 14.6-1 22.7a786.7 786.7 0 0 0 228.3 4.8 722 722 0 0 1 25.1-133c6.8-22.6 14.5-46.4 23.3-62.3a68 68 0 0 1 15-20.4v-1.7c-.3-3.5-1.2-8.9-4.2-11.3-7.5-5.7-19.1 2-22.8 15-3.3 8-18.4 42-19.5 41.5-1-.6-3-.6-2.3-3.3 5.7-13.8 13.7-28.4 18.1-40.8 6.2-17.8 19.8-27.3 30.2-16.2 3.5 3.8 5 7.3 6.6 8.5 1.2.9 2.9.3 3.9-1.3 3.8-5.8-5.3-19-15-21.5-14-3.7-24.2 6.5-39.6 39.5-8.9 19.1-10.4 23.9-11.9 22.4-.3.2-2.7.2-1.9-3.5 1.8-7.9 13.6-31 22.2-45.6 12.7-21.7 36.7-23.7 47-5.1 1.6 2.5 1.7 5.8 3.5 8 3.1 4 8.2 3.2 9.4-3.4-1.4-4.3-10-20-16-22.6-13.6-9.2-30-7.2-43.6 5.3-3.1 2.8-6.3 8.5-15.3 27.2-13.1 30-13.5 30-17.2 25.3 5.2-14.5 19.2-38.2 24.8-52.7 1.1-2.2 1.3-4.5 1.2-6.8-.4-10.4 1-29-21.3-42-19-10-44 1-52.3 21.2-6.3 15.5-11 26.1-14.2 28.3-4.6 3.1-3.8-1.1-3.4-2.7 6.4-14 15.5-28.1 16.8-42.2.6-37.9-38-51.5-62.8-32zM286 269.4a518 518 0 0 1 80.8-30.9c4.2-1.9 4.8-2.3.3-10.9-19.8-38.1 33-69.3 51.5-31.8 2.5 5 3 7.7 5.4 5.3 4.4-5.9 9.6-14.2 15-23.7 20-31.7 28.8-67.7 39.3-99.6 4.2-18.7 10.3-38.2 11.9-58.2-41.2-69.7-70-137-113.5-199l-282.4 3 5.2 564.2c78.2-66.7 131.7-91.1 186.5-118.4ZM603.7 245c3.4-3.6 6.3-9.7 18.3-35 2.1-4.5 5.6-11.5 7-14.8 1.7-6 8.6-9.7 5.3 1-.7 2.2-2 5.3-4 9.5-4 7.4-7.8 16.4-10.6 22.3-15.4 31.6-14.4 50 3.2 63.4a37.8 37.8 0 0 0 60-16 135.9 135.9 0 0 1 12-24.8c6.4-8.3 7.5 2-2 17.8-11 18.2-11 37.8-1.2 51.5 14.5 20.2 41.7 20.5 58.6 4a119.8 119.8 0 0 0 21-40.8c1.3-3.7 2.6-6.5 3.5-8.7 1.3-3.4 3.4-4.7 8.6-5.8 36.2-7.3 66.3-44.9 70.1-85.5.6-5.5 2-15.3 2.5-21 1-11.6.4-71.2-.8-74.8-.6-1.9-1.7-2.9-4-2.8-1.9 0-4.4.7-8.1 2-12 4.4-17.5 5.6-29 1.6a21.3 21.3 0 0 0-8-1.6c-5 .5 1.7 7.7 16.6 15.5 6.4 3.4 11.4 8 6.3 7.7-1.5 0-19.4-9-22-10.6-8-4.9-5.9 1.4-1.5 17.8 5.8 22.1 2.7 28.4-14.7 37.2a47.2 47.2 0 0 0-9.8 7.3c-9 13.8-6.8 3.7-2.2-3.6 7.9-8.5 3-11.3-13.3-5.3-18.6 6.8-27.1 2-32.5-8.2-6-11.7 5-26.9 14.2-26.7 3 0 2.5 1.1-1.9 4.2-5.3 3.7-7.8 7.2-8.3 13.5-1 12.7 8.2 18 20.8 9.3 6-4 10.6-7 15.1-8s11.3.5 11.3 4.1c0 1.5-.2 5.1.2 6 1.2 4 7.6-1.8 10.3-3.9 9.5-7.2 9.2-8.6 6.4-20.1-4.4-16.2-6.7-31-11-47.4a70.8 70.8 0 0 1-1.5-27c.6-4.5 2.2-13.5 2.5-19.7.3-6.2-.2-15 0-15 9.6 7.1 13.5 8.4 22.7 4.7 14.3-6 23.3-5.5 35.4.2 4.5 2 8.6 3.5 8.6 3.5l.4-18.6s-11.2-2.2-32-4.7C764-8.6 636.6-8.9 631.9-1.4c-1.2 2-2.2 15.2-5.4 33.7a1169 1169 0 0 1-26 114.4c-2.2 7.7-4.4 10.8-3.2 11 .5.1 2.8-2.9 3.8-4.1 6-7 1.6 9.5-7.4 29.6a225 225 0 0 1-10.9 28c-2.3 5.3-4.4 6.9-4.4 3.5 2.7-11.5 9.8-26.5 10.8-36.7-6.3 9.3-15.5 24.8-22.5 34-1.3 2.4.1 3.2 1.3 6.2 4.4 11.3 14.7 12.2 20.5 1.9a407 407 0 0 0 16.8-37c3.6-9.8 6.2-15 7.4-15.6 2.4-1.3 3 4.2-1.3 13.5-13 28-18.5 43.8-25 49.6-5 4.5-13.7 4.3-18.6-3.6-8.4-13.4-15.4-8.8-7.7 5 8 14.2 25.8 15.3 35 2.3 3-4.3 17.2-32 21.6-43.3a37.2 37.2 0 0 1 6-11.5c4.8-2-.5 12.4-14.2 41.2-4.4 11-11.5 22.7-21.3 26.4-23.8 5.5-27.1-7-35.6-21.3-4-3.5-7.6 2.2-6 8.5 2.6 10.2 7.3 14.2 14.6 19.3a34.4 34.4 0 0 0 43.6-8.5zm107 58.7a21.8 21.8 0 0 1-.8-14.2c2.4-10.2 6.4-20.2 11.1-28.8 7.8-3.8 2 11 1 13.2-9.2 19.7-10 27.4-1.1 29.5 7.5 2 11.6-2.8 18.5-20.5 3.6-9 5-13.1 6.3-13.6 2.7-1.2 4 0 4 2.7-4.7 11.6-8.2 23.8-15.9 33.6-7.5 6.4-19 6.6-23-1.9zm-71-14.3a37 37 0 0 1-12.9-8.4c-13.5-12-11.4-29 4.8-60.9 1.2-2.4 6-12.1 7.4-15.3 2.7-5.6 5.5-3.5 5.5.3 0 1-4 9.8-8.1 18-17.9 36-17 50.5.8 58.8 17.4 8 25.1 3.2 38.6-24.2 7.8-20.5 11.7-21 11.4-13.1 0 2.9-9.5 22.6-15.6 31.8-9 13.3-16.7 15.7-31.8 13zm1.2-17.3c-6.9-4.1-9.8-14.6-5.8-23.2 3.5-7 12.6-34.3 17-35.8 7-.4 3.4 5.6-5.2 22.4-10.1 22.1-9.7 28-1.7 31.3 7.5 3 11-3.4 21.6-29.3 1.7-4 4-8.3 5.4-7.4 1.8-.2 4.8 1-.8 12.8-1.4 2.8-3.6 8.7-6.1 14.2-7.3 16-15.7 20.2-24.4 15zM763.2 224c-3-1.5-17-6.8-15-11.4.2-.5 1-.1 1.4.1 13 8.5 29 10.5 45.5-1.6 2.8-2.5 5-.9 3.4 2.2-5 10.1-27.4 14.6-35.3 10.7zm-41.4-14c.3-1 1.5-3.9 2.5-7.7 1.4-5.8 1-10 2.4-9.3 5.9 3 16.3 3 21.3-.2 5.6-3.4 17-4.6 21-2 6 3.8 9 2 13.1-1.3 4.6-3.7 4.7-2.1 13.2.7 6.2 2.1 8.7 3.6 11.3 3 1-.2 3-2.5 3.8-2.4 2 .4 2.3 6.1 4.2 12.6 1.7 5.8.8 7.2-4.4 3.8-4-2.5-15-3.6-26.6 0-8.5 2.8-10.5 1.7-16.8.7-15.7-2.4-27-4.4-38.6 2.5-6.2 3.7-8.5 5.6-6.4-.4zm-39.3-28.2c-7.8-15.2 9.5-35.5 24.9-28.6 5.1 2.3 9.7 11.2 2.2 7.2-35-6.6-25.7 44.3 11.4 17 24.8-16.9 42.4-19.6 44-3.6-.6 5.8-5.8 5-9.8 5.5-10.3 1.6-14.1 3.3-26 8.6-18.2 5.9-35.9 10.8-46.7-6.1zm136.7 5.5c-8.6-2.1-16-5.4-25-6.9-8.7-1.4-12.8-6-11.2-12.2 1.5-6.4 10.3-7.2 23.7.8 14.7 8.7 25.4 10.8 30.7 7.4 10.8-7 4.8-18-5.5-20.8-7.8-2-2.2-5.1 6.2-2.7 13.6 5 14.1 29.3.3 34.5a38.7 38.7 0 0 1-19.2-.1zM699.4 108c9.8-6.2 19.3-11.8 22.7-15.5 1.7-2 6.7-8.4 2.8-6.4-20 12.3-43.6 2.5-60.7-5.6-8.2-3.7-6.2-2-12.5-1.6-4.2.4-7.6 1.3-8.4-1.7-.4-1.4-2.8-.8-4.3-1-6.3-.5-2.4-8.8 10.7-18.1 15.5-11 29-18.2 42.4-21.2 14-3.2 28.3-1.7 38.8 8.3 4.1 3.8 3.8 6.4 7.4 4 8.4-5.5 8.5 1.7 1.5 8.4-4.8 4.6-3 5.8 3 10.1 2.8 2 .5 4-1 7.1-.6 1.9-.1 3.9-.4 5.3-1.2 6.5-30.6 29.8-41.3 33.9-7.4 1.4-3.5-4.2-.7-6zm20-42.5-4.9.2c-5.4 17.1-15.6 23-24.5 2.7l-3.9.4c0 17.3 30 27.9 33.4-3.3zm-32 16.5c-2-3.4-4.4-11.1-6.6-11.2-5.8-.2-13.7 1-11.8 4.5 3 5.6 20.8 10.6 18.4 6.7zm39.6-3.5c5.2-3.2 6.4-5.4 2.8-9-4.5-4.4-6.8-2-8.1 5.2-1.2 6.2-.3 7.3 5.3 3.8zm-72.4-11.2c35.5-16.5 49-18.7 63.6-14.9 3.3.9 6.3 2.7 8.2 2.6 7-.5 2.4-8.2-10.1-12.5-14.3-5-23.3-2.5-50.5 12-15.9 8.5-28.8 21-11.2 12.8zm103.2-20.7c-.5-1-2.8-7.3-3.4-9.7-.6-2.3-1.2-4.7-1.9-4.7a94.3 94.3 0 0 1-35-1 115.9 115.9 0 0 0-67.3 3 72.4 72.4 0 0 0-10.3 5.2c-1.4 1.3-3.6-.2-3.6-1.8 0-2 11-10.9 18-14.4a93.5 93.5 0 0 1 68.2-6.5c16 6 26.4 4.9 36.6.3 5-2.2 1.5 3.2 0 10.5-1 5 .2 9.3.5 12 .7 6.9 0 10.3-1.8 7.1zm389 1437.4-6.3-565.4c-93.1 70.2-269.9 144.3-269.9 144.3 22.9 45.2-26 84.7-54.7 38.8-28.7 33-67.5 147.5-68.5 185.4 0 0 78.9 134 117.3 200zm-519.1-180.4c2.2-28.4 7.8-76.6 26.1-132.8a443 443 0 0 1 30.2-75c5.3-8.5 5.7-11.7 0-8.6a132 132 0 0 0-22.2 25.5c-24.8 53.7-35.8 118-44.5 167.2a207 207 0 0 0-2.5 24.8zm18.5-2.5c5.3-69 29.7-162.5 67.2-223.6 3.5-5.8 7.9-10.9 7.7-12.9-.6-5.9-15.2 4.5-26.4 22a585 585 0 0 0-34.3 82.3 525.7 525.7 0 0 0-26.3 133.9zm36.7-6.2c3.3-39.8 15.3-76.4 25.2-113a366 366 0 0 1 48.1-107.7c6.2-9.6 13.6-18.5 20.6-27.7.9-1 1.8-3 1.5-3.8a17 17 0 0 0-11.6 2.7 67.3 67.3 0 0 0-15.7 15c-27.7 36-42.3 77.9-55.9 120.2-13 40.6-22.2 79.6-23.7 116.3zM430.4 1267c5.6-.5 9.3.5 10.9-1 1.6-1.5 1-5.5 1.5-10.6 1-11-.2-10.3-7-3.2-11.1 11.8-31.8 16.6-44.1 9.6-6.3-3.5-10.6-5.9-11.2-3-.6 3.6.3 6.2 3 8 15 6.6 29 1.8 46.9.2zm-13.4-8a40 40 0 0 0 20.1-13.4c4.3-6.1 4.2-7 1-5.8-16 8-26.4 12-40.6 10-19.4-2.6-20.1-.2-7.3 7.7 8.4 5 15.3 5.2 26.8 1.5zm-28.6-24.1c3-2.3 3.6-11.2 1.2-11.7-2.5-.5-6 4-6.8 7.6-1 4.8 2.7 6 5.6 4zm29.8-.7 5.2-.6c-2.9-22.4-27.4-23.1-31.6 2.6l3.9.6c4.8-20.6 19.6-20.2 22.5-2.6zm16.1-3.8c7.5-4.3 4.8-9.4-5.3-11.3-6.6-1.5-6.2 4-2.7 11.2 1.8 3.7 3 3 8 0zm-57.9-27a26 26 0 0 0-2.3-9 131.6 131.6 0 0 1-13.2-64c.5-18.7.7-24.4-3.2-24.4-5.3 2.7-8.1 37.2-1 65.9 5.1 20.2 20.2 45.2 19.7 31.5zm-.5-28c-.6-9.7 1.3-31.5.2-36.2a26.5 26.5 0 0 0-7.4-13.3c-3.2-2.3-4 2.2-2.7 13.8 2.9 27.3 7.5 48 10 35.7zm2.2-49.8c2-3.9 1.2-8-3.6-17-18.9-35.8-21.5-60.3-2.3-69.5 2.1-1 3.5-1.2 4.9-2 6-3.5 3.7-9.5-5.4-7-25 7.3-29.8 30.9-8.1 74.1 11 21.6 12.8 24.6 14.5 21.4zm4.3-20.5c.4-1.5 1-7.4 1.2-8.6.2-1.2-2.4-4.6-5.2-11.5-7.3-18-7.5-25.6.2-30.9 2.5-1.5 5-1.6 5.4-3.3.6-2.6.5-7-1-8.2-11.2.2-16.2 6.7-18.1 12.9-2.8 9.7.4 24 9.3 41.5 4.3 5.4 6.6 15.4 8.2 8.1zm8.3-23.5c5.8-12 0-27.4-8.1-22-5.3 3.4-5.5 7-2.2 17 4.1 12 6.5 12.9 10.3 5zm20.4-32.2c2.4-2.4.2-5.7-4.3-18.9-3.9-11.2-2.3-19 4.9-21.3 10.2-2.6 14 14.1 16.3 21.1 1.1 5.5 4.8 7 7.9 3.1.9-1 1.1-2-.5-7.9-6.9-25.9-15.6-34-29.5-27.4-12.9 6.1-11 19.5-1.4 47.6 1.3 3.8 2.2 6.6 3.1 7 .8.3 2.2-2 3.5-3.3zm11.4-9c3-3 2.8-1.6-.8-12.4-4.1-12.3-6.3-14.9-10.5-10.6-2.6 2.6-1.3 5.5 1.9 15.6 3.6 11.7 4.5 12.3 9.4 7.5zm536-48.2c20.3-14.3 11.6-39.4-15.4-48.5-3.2-1-6.7-2.3-7.8-2.8-12.4-5.8-22-7.6-22-3 0 2.8 3.7 4.1 15.6 9.7 17.7 8.4 21.7 18.2 13.2 30.7-6.1 9 5.7 19 16.4 13.9zm18.2-31c1.7-7.1 4.3-13.4 5.5-17.6 1.7-6.6-.5-5-4.9-4-11.2 6-19.3 3-13.7 10.9 6.2 10.6 11.3 18.7 13.1 10.8zm-1.6-25.1c13.9-8.5 16.8-30.4 3.6-40.7a47.3 47.3 0 0 0-15.2-7.6c-13.3-3.8-32.5-5.5-39.5-3.3-1.5 1.8-1.5 4.6 0 5.4 2 .7 5.5 1.2 10.6 1.6 19.6 1.8 29.3 7.5 28.5 21.3-.8 14.2-12.2 19.8-32.8 15.6-11.1-2.3-16.3-1.1-11.8 1.4 5.3 3 16.7 7 28 9 9.6 1.6 20.5 2.1 28.6-2.7zm-67.4-2.8c15.4-35.6 22.7-128.4-68.3-194.4l3.2 18.5a162 162 0 0 1 56.7 159.3zm79.8-64.3c-5.6 3.7-10.3 7.6-17.5 10.9-4.3 2-4.4 2.4 1.5 5.6a47 47 0 0 1 9.5 6.2c3.1 3.3 6.8 4.6 8.2 3.3-.2-5.2 1.4-22.6-1.7-26zm-26.6 7c18.2-6 27.9-14.8 25.7-29.5-3.3-21.5-21.4-25.8-55.2-17-16.2 4.2-17.5 11.8-2.1 7.7 19.4-5.2 34.8 2.2 32.9 16.4-1.1 12.3-11 19.6-28.3 19.8-9.2 0-12 .9-10.7 4.2.8 2.2 30.2.8 37.7-1.6zm-30.7-51c29.7-10.5 43.4-26.6 36.4-44.3-8.2-20.8-34.3-20.7-60.3-1-12.2 9.1-10.2 12.4 1.6 7.7 15.3-7.2 25.1-8.4 31.5-2.9 11.5 10 4 27.7-13.2 34.3-8.3 3.5-11 5.5-11 8 0 3.9 1.6 3 15-1.8zm50.4-.9c.7-6.2-6.6-27.6-9.6-22.6-.8 1.3-3.5 7.4-7 10.6-10.2 9.3-8.3 5.8 2 8.5 5.7 1.5 13.7 5.4 14.6 3.5zm-79.6-45c30-17.8 41.3-42.8 25.5-59.2-14.3-14.8-37.5-5.8-58.9 21.5-9.8 12.5-2.3 10.8 11-1.1 15.4-14 35.3-7.5 35.4 9.6 0 7.4-10.3 19.8-20 25.7-3 1.8-3.5 4.5-2.4 6.3 1.2 1.9 3.6.6 9.4-2.8zm52.8-18.8c-1.7-4.7-13.2-24.7-15.7-24-2.5 5.2-2.6 12-5.6 17.5-4.2 8.3-3.6 7 9.8 6.8 10-.1 11.2 1.2 11.5-.3zm-89-21.8c25-26.5 27-57.3 3-64.1-13.1-3.8-34.1 6-34 15.7 0 6.2 1.1 7.2 6.4 5 22.4-8.6 40.4 12.7 20 37.7-4.9 7.2-5.5 9-4 10.4 1.7 1.7 3 1 8.5-4.7zM1135.6 511l-7.7-695.8-148.6 1.6-115.9 185 .3 45.5c0 1.5 2.8 2.5 4.5.5 6.6-5.2 4 .2-3.5 12-7.7 12-5.2 21.6 3.5 34.2 18.4 26.5 28.3 75.6 21 101.6-2.9 9.9-3.5 13.8-1.5 19.3 2.2 6.3 3.6 9.6 10 13.6 5.4 3.7 50.5 20.6 123.3 66.2l-4-327 45-44 48.6 45.4 7.7 539.7c.1 5.7 11.3 8.2 17.3 2.2zm-32-540.3-40.8-37-39.4 37.3c1.8 175.8 7 536.6 7 536.6l39.6 2.4s2.8-8.2-1.1-29.5c-6-31.8-6-70.8 2.2-130.2 5.2-36.5-.7-68-9.5-101.1a158 158 0 0 1-7-62.4c2.5-31.6 11-55.5 11.6-101 .3-25.9-1.2-51.2-.7-83.2.4-4.3 2.2-3.8 2.6.6 1.5 29 3 56.4 3.5 84.6-.4 36.8-9 74.7-9.6 108.3-.5 23.3-.8 31.3 9.4 59.6 16 44.3 6.5 113 6.3 114.1-6 44-10.2 100.1 12.4 141.8l21.6 1.7zM830 305.5c11.8-5.6 14-15.2 7.4-38.3l-3-10.9c-1.4-5.7-4-6.2-7.4-1.7-2 2.8-.1 3.4 3.2 16 5 19.3 2.3 25.7-5 25.7-6.3 0-11.3-5.2-13.2-17.6a25 25 0 0 0-2.7-8.9c-1.8-2.8-3.8-2.3-5.5 1-2.1 4 2.2 20.8 7.7 29 6 8 10 9.7 18.5 5.7zm-3.4-17.2c2.5-4.8-.8-16.4-2.5-24-1.6-4.3-3.3-5.3-6.1-4.6-4.2 1.1-4 5.7-2.4 13.2 3.3 15.4 5 17.3 11 15.4zm35.8-28.2c13.5-7.9 14.7-21.2 5.3-45.4-3.9-9.9-8.6-16.8-11.2-16.9-1 6.4-1.9 9.8-.7 12.2 1 2.3 3 5.8 4.2 8.8 8 17.8 6 28-1.4 33.8-7 5.2-2.5 9.6 3.8 7.5zm-445.1-4.4c31.8-7.1 60-58.6 77.6-104.3 16-46.1 33-96.7 35.3-138.8 0 0-12 .7-13.5 3.2-1.4 2.4-1.9 7.7-3.1 15.2-7.9 38.8-14.2 68.3-28.3 104.8-9.8 25.4-20.4 54-47.3 92.8a49.9 49.9 0 0 1-31.8 19.5c-3.3.5-8.8 0-10.2 1-2.4 1.7-.2 5.5 6.1 7 5.7 1.4 11.4.4 15.2-.4zM856.7 245c4.8-5.2 5.2-11.4-.4-24.3-1.5-3.6-2.3-5.6-4-5.1-3.9 1.1-8.3 11.2-5.5 19.7 3.6 11.1 5.6 14.3 10 9.7zm-450.6-3.2a49 49 0 0 0 29.5-20.5 338.2 338.2 0 0 0 38-69.7c7-16.4 19.5-51.8 23-64.6a645.5 645.5 0 0 0 14.2-64.2c.3-1.8.6-4.7 0-5.6-3.6-1-11.8-.3-14.2 2.3-4.1 31.1-14.2 62.5-21.5 88.5-12.4 44.3-48.2 115.4-68 119-10.8 1.9-23.2-7.3-21.3-16.8 1.2-6 2-8.2 4.8-9.6 7-2.6 11 2.1 3.4 5.3-8.7 7.7 7.3 19.3 17 11 16.4-14-8.2-40.4-28-28-22 13.8-16 37.2-2 48.2 7 5.5 15.2 6.2 25 4.7zm155.8-33.4a138 138 0 0 0 30.7-54.9A842.5 842.5 0 0 0 625.3-1.2S613.6-2.3 611 .2c-1.8 1.7 0 3.4-4.7 36.7A642.8 642.8 0 0 1 570 175.6c-7 17-9 19-14 27.8-7 12.5-4.3 15.6 6 5zm301.2-109c-1.3-.6-1.1-.2-1.7.2-1.8 1.3-.5 7.7 3.8 17.7 11.3 17.7 13 52.4 12.4 65.5-.2 3.9-.6 6.1.7 9.6 1.2 3.4 3.3 7.3 6.6.6a137 137 0 0 0-10-74.2 60 60 0 0 0-11.8-19.4zm9.4 75.7c1.9-7-2-34.3-6.6-44-1.8-3.8-5-4-4.6.4.1 9.5-.7 27.5.4 32.9 5 11 8.8 18.1 10.8 10.7zM846.1 64.5H841c.4 18-15.5 23.2-21.6 1.7l-4.8 1.2c6.7 30.3 34.9 16 31.6-2.9zm-31.7 13.9c-2.8-8-1.7-10.8-8.6-7.2-5.2 2.8-8.4 5.7-.9 9.2 6.6 2.7 11.3 3 9.5-2zm39.9-5c2.1-4.5 1.8-8.4-1.5-8.4-2.5 0-3.2 2-3.9 6.3-1.2 7.7 2 9 5.4 2zm2.4-29.8c2-.7 1.4-3.5.9-7.1-8.8-12-30.2-8-37.8-5.5-8.8 3-11 1.9-17.1-.8-5-.9-5.7.3-7 2.7-1 2.1-1.1 6.1-1.4 13-.2 5.9 0 8.6 2 6.7 7.9-7.1 17-16 30.3-16.8 16.2-.8 30.1 8 30.1 7.8zm-58.6 16.8c0 2.4 2 1 7.3-2.4 19-11.6 30.1-10.1 46.6-4.9 3.7 1.2 6-2.7 2-5.9-19.8-15.7-43.7-5.3-56 13.2Zm68.7-74.3 102.1-172.8-579.8 6L489.6.4c80-19.4 212-44.5 377.2-14.3Z" style="fill:#131f67;fill-opacity:1;stroke-width:3.18132639" transform="matrix(.16227 .00168 -.0018 .15098 17.5 786.1)"/><path d="M367.4 1334c12-18.4 73.3 13.5 76.6 26.3 35.7-28.6 79.4-31.2 115 3.8 35.7-39.8 74.4-37.5 115-15.2-4.6-8.8 51-48.8 85.3-24.1l93.8 162.4-589.6 8.4c34.2-52.5 64.4-115.1 104-161.6zm-267-849.6c-3.3-8.8-17.3-99.5 15.5-102.1 53.4 22.9 122 106 154 157 39.6 63 80.5 208.7 58.7 202.5-3.1-.9 67.7 68.3 72.7 75.1 8 11.2-115.8 222-136.7 214.7A909.5 909.5 0 0 1 216 1005l.4-70s64.6-130.6 67.8-174c1.2-16.5-46-44-48.2-49.7-5.4-14-5.4-66.5-33-89.1-15-9-29.2-5.9-44.4-3.8-62-9.6-31.1-114-58.2-134zm1035.5 35.1.7 25.8c-40.7 9.3-113-24.3-134.2 31.4 3.3 59.8 17 86.5 26.7 104.5 7.2 16.2 56.6-2.9 74.2 13.3 50.7 60.9 39.8 142.8 41 216.6l-21.5 11.2c-151.1-86.7-269.4-359.6-286.3-437.5C835 434.6 972 272 972 272c.3-.3 50.9 30 50.9 30 1.2.4 1.3 211.4 1.3 210.4 39.7 1.6 78.2 5 111.8 7.1zM829 330.1c-76 111-100.3 275.9-94 390.6C747 892 871 1043.5 863 1058c-1.3-1-4.6.8-5.8-.3-28.5-24.7-48.1-20-62.6-20.2-27.6 0-35 8.2-50.9 10-40.3 4.4-37 5.4-71.5-7.1-43.6-34.7-101.8-61-148-74.7-37 3.7-93.2 21.8-114.6 7.9 145.2-274.5 121-448.9-35.6-733 12.8 3.5 14.9 15.3 24.4 18.2 31.7 11.8 75.1 6.7 101-5 28.2-13 55.1 5.3 54.7 4.7 56.2 38.6 123.8 63.2 159.1 80.2 10.4 5.3 23.4-3.3 34.8-5.7 23.4-5 43.4-15.3 61-9.6 5.6 1.8 14 4 19.8 6.7zM478.8-23c-7.8-14-86.6-159.5-86.6-159.5l574.2-3-84.6 142.3c-8 7.7-48.3 29.6-90-18.4-.8 7-60.8 50.7-113.3-.6-31 28.7-62.7 45.5-115.7 14.2-1 8.9-41.7 49.3-84 25z" style="fill:#e2cf00;fill-opacity:1;stroke-width:3.18132639" transform="matrix(.16227 .00168 -.0018 .15098 17.5 786.1)"/><path d="M557 1360.9c-56.2-51.4-113.6-3.8-112.2-.9-22.3-22-44-40.1-73-30.8 0 0 0-7.8.2-8 86.7 14.8 219.2 17.5 373.8-16.6l8.1 16.5c-41.7-14.3-62.9 5.8-81 29.2-67.2-40.7-83-4.1-116 10.6zm123-606.4 39.4-1.2c8.6 114.2 106.2 288 108.5 288-6.8-9.1-69.8-1.2-69.3 0-35.8-92.1-74.9-184-78.6-286.8zm-226.5 273.7s-13-32.6-20.7-46.6c40.5-70.9 73.6-144.2 90-225.5H551c-7.1 112-95 283-97.5 272zm506.1-20.6c60.7-112.4 48.3-273.3-128.6-360.3 0 0 3.3-118 16.4-118.5 3 .9 79.6-1.9 79.6-1.9 19.5-49.4 51.1-109.3 95.8-150l2.6 132c-33.3 3.6-53.6 14.5-63.4 40.7l-46.2 10.8c4.9 132.5 56.1 254.4 205.4 362.7-35 30.7-155.3 93.7-154.8 92.7zm-742.9-75-.2-137.4c22.4-5.1 40.2 1.2 58.3-39.2 0 0 31.3 14.4 41.7 19.7-28.5 52.3-53 108.1-99.8 156.9zM508.8 686l.8-69.8 66.3 1.2c-5.4 23.7-6.9 47.4 1 71zm151.3-2.5c4.2-23 7.2-45.9-2.4-70l71.8.4-1 69.5zM522 548.7c-13.5-136.6-109-290.4-110.4-287.1 11.1 1.6 30.6 6.9 41.3 1.7 13 2 24.2.4 24.8-.8.8-4.8 89.5 197.6 79 285.5-1.4 3-32 3.5-34.8.7zm165.9-.6c9.4-63.3 34.3-179.2 95-273.6 7.2 16.5 13.3 33.6 23 49-45.7 68.2-73.6 145.9-90.1 225zm-429.6-29.3c-29-57.3-147.5-146.6-141.4-137.5 48.2-44.1 102.2-72.4 156-101 0 0 9.7 9 8.3 11.4-32.7 52.8-47.6 164-14.7 227.3 31.8 67.7 87.2 107.3 143.6 138.2-3.9 42.6-5.7 73.3-15.7 115.7 0 0-35.4-18.1-64.4-29.7-5.5-80.2-22.9-151.8-71.7-224.4ZM563.4-49c41.7 24.8 78.8 21.7 114.4-12.9a84.1 84.1 0 0 0 114.7 2.1c19.3 21.3 44.3 33 80.6 25.5l-8.8 19c2-10.1-251.2-23.7-373.3 12 0 0-7.3-14.3-6.5-14.4 10.6-.7 46.2 12 79-31.3z" style="fill:#d40000;fill-opacity:1;stroke-width:3.18132639" transform="matrix(.16227 .00168 -.0018 .15098 17.5 786.1)"/><path d="m1463.8 257.3 102.3 190.4 4.5-.9c141.8-27.7 254.1-31.5 374.8-10.3l107.2-177.2c-195.2-2.2-588.8-2-588.8-2zm11.4 8 569 .7-32 52.4c-19.2-5.9-29.9 3-32.6 21.3 0 0-2.3-1-6.8-1.5-28-3-31.6 33.8-5.4 38.3 6.7 1.1 7.8-.2 7.8-.2-23.3 19.6-36.6 6.4-47.6 0-.3 2.2-20.9 17.7-40.4-.8 28 2.7 32.2-25.1 19-35.7-2.9-2.8-5.7-5-5.7-5 6.6-5.6 8-13.2 3.8-21.9-8.5-17.5-35-16.4-39 2.6a81.8 81.8 0 0 0-1.6 8.8 21.3 21.3 0 0 0-18.4 32.7c4.2 6.4 13.4 7.7 21.9 7.3-11.5 16.2-37.6 10.7-49.3-2.6-18.5 21.7-39.6 19-50.2 7.4 7.2 0 12.1-.2 18.7-6.3 11.2-10.3 5.7-28.7-10.2-33.9-3-1-5.2-1.2-5.4-1.2 0-.2.4-1.2 1-6.7 4-32.1-44.1-29-39.5 2.6a20 20 0 0 0 1.6 5.7s-5.1-.3-8 1c-26.8 12.3-8.4 46.2 12.3 37.5 2-.8 7.3-3.4 8-3.4-25.5 31.7-47 9.2-52.7 5.8-17.2 25.6-47.3 8.1-47.9 6.3 1.9.5 7.5-.6 12.9-3.3 16.9-8.9 12-31.5-1-36.4a36 36 0 0 0-14.5-1.2s.4-5.7-.1-7.7c-8.3-30.9-46.8-15.4-37.3 10.6.8 2.3 3 4.6 3 4.6s-5.2 3.2-7.5 5.3c-18.3 16.5.3 43.7 21.8 32.4 2.7-1.5 5.4-4.6 6.2-4.4-10 18.4-25.4 24.8-47.2 9.6a24 24 0 0 1-41.6 1.8c20.5 1.9 33.8-37.4-5.6-38.7-3-10.7-2.9-27-27.9-24.1zm277.9 67.5a8.2 8.2 0 1 1 0 16.3 8.2 8.2 0 0 1 0-16.3zm127 1a8.7 8.7 0 0 1 0 17.3 8.7 8.7 0 1 1 0-17.4zm-249.1 9.4c4.6 0 8.3 3.7 8.3 8.4a8.4 8.4 0 1 1-8.3-8.4zm357 10.3-7.3 12.9c-8-7-2.5-16.2 7.3-12.9zm-456.5 17.8-7.2-13.4c12.9 1 9 10.1 7.2 13.4zM1752 364c48.8 55.6 92.6 39.2 121.3 2.2 12.2 31.5 39.6 53.3 86.7 32.1-2.8 5-10 14-10 14-41.6 11.2-62.3-8.4-78.3-27-42.4 35-82.3 26.6-115.2-4.5-28 35.4-73.5 43-115.6 14.1-19.3 28.4-46.9 40-81.6 25.7 0 0-7.4-11.6-8-12.3 5 4.2 69 30.7 84.6-33C1658 413 1731 415 1752 364Zm5 22.9c54.8 51.3 112.5 7 114 3.8.8 2.8 32.1 40.3 77.3 26.2l-7.3 12.6c-85-14.4-163.3-23.6-342.4 2.7 0 0 28.6-8.5 43-31.3 8 5.3 70.2 40 115.3-14zm-192.6 42.5s24 2.8 25.8 3.3c2 1.6-20.1 7.7-20.2 7.3zm48.5 245c-1.5.1-3.3 1.7-6.3 4.7-6.5 6.4-8 7.2-14.2 8.1a55 55 0 0 0-20.9 12 17.9 17.9 0 0 1-8.5 3.4l-10 1.7c-2.2.4-4.6 1.1-5.3 1.6-3.2 2-8.4 2.2-14.3.8-5.6-1.3-6.5-1.3-12.7.6-9 2.8-15 2.8-19.4 0a21.5 21.5 0 0 0-16-2.4c-6.5 2.2-23.7-8-23.6-14.1 0-1.4-9.8-8.7-12.2-8.7-8.7-1.3-85 28.8-84.7 30.6 93.8 115.7 172.7 292 113.2 507.9l-10.5-5a776 776 0 0 0 15-118.8c-175.9-76-191-252.6-122.7-364.1l-11.6-12.4c-41.4 22.1-83.4 34.7-185.7 120.5l.3 138.8.2 247.9c37 4.1 77.7 7.4 118 11 0 0-.6 124-1.5 172.6-.8 41.1.7 38.5.7 38.5l133.2 70.2c-9.4-37 13.7-51.6 33-50.1-8.5-35.6 12.7-52 37-47.4 16.3 3.1 22 12.1 31.3 42l3.7 11.2 9.3-.3c11.7-25 19.5-57 47-61.1 36-5.5 49.3 19.3 49.3 44 34.8-30.7 76.6-7 73.9 38.9 17.5-11.3 47.2-21.5 66 22 7-1.5 10.5-9.3 20.4-11.8a72 72 0 0 0 12.1-5.3l.1-1.5s7.8-2.7 18.2-4.4c9 3.4 6.4 3.3 11.2-2.7a43.5 43.5 0 0 1 20.8-4c7 .7 10.2 1.2 14.3-.6 6.5-2.8 12.5-3.5 16.3.7 2.7 3 6.7 1.6 11 1.4 8.4-.3 19.7 3.2 23.3 10.8a73.4 73.4 0 0 0 16.6 10.7l9.2-2.1 1-3.4 75.4-28.8c-153.7-168.4-149.7-391.8-113.5-504.8l14 6.7c-7.5 33.5-15.8 67.9-14.7 117.9 138.4 61.7 207.3 221.3 123.4 360.5l8.8 11.5c35-14.6 122.8-64 153.2-90.8l6.4.6s18.4-12 26.6-18.3l1-369.6-6.4 1.6-1.1-21.5-114.2-9.1c1.5-1.1 2.6-1.5 2.9-3.7l-.7-204.6c-4.2-6.5-99.8-62.5-135.4-75.6-1.4 0-.4 2.4 0 8.2 1.8 20.1-11.7 38-27.4 38-5.7 0-6.6 2.4-6.4 14 .4 16.3-5.5 27.3-22.7 33.6-20.5 7.3-34.3-3.4-45.7-45.4-3-11.1-8.9-8.3-14.5 6.8a361.1 361.1 0 0 1-17.1 35.3c-4.2 7.3-10.7 10.6-19.6 14.5a42 42 0 0 1-30.6-1.5c-15.7-8-21.8-17.6-26.4-41.3-.5-3.1-2.6-2.9-7.7 1-27.7 20.9-66.7-.7-66.4-36.8 0-10.6-.4-11-6.6-6-18.8 15.4-44.4 7.6-54.6-16.6-2.4-5.7-3.7-8.2-5.5-8.1zm-159.3 12.9c2-.1 8 8 8 8 5.7 6.2 13.2 9.4 21 14 .8-1 91.9 121 107.3 289.5l42.4.3c-8-163.7-53-242.4-73.8-292.9l15.2-4.8c34 65.3 75.6 197.7 74.2 313.6h-70a635.5 635.5 0 0 0-118.1-315.2c-4.4-6.6-7.9-11.2-6.6-12.4l.4-.1zm-26.8 17.3 7 22.2s1-5.2 3.1-7.1c13.8-12.5 27 3.9 20.8 26.1l-4.2 20.4s-13.9-7.1-20.8-9.4c-19.3-8.2-25.7-24.3-11-26.2 2.5-.3 7.5-.5 7.5-.5l-19.6-15.8zm64.7 2.5c5.8 3.3 20.8 6.8 29.4 3.6 7-2.6 12.3-1.2 19.6-.6 4.1.4 12.4-1.4 12.4-1.4 41.4 87 69.9 190.4 74.6 285l-32.5.1a681.7 681.7 0 0 0-100.5-278c-2.2-3.3-5-8.6-3-8.7zm136 1.5c12.6.1 25.8 12.7 33 33.2 4 11.5 5.5 10.8 10.9 9 13.7-4.8 28.4 10.3 10 12.9-18.1 3-7.8 38.3-9.4 41.5-7.3 1.2-21-28.8-20.7-37.8.9-22-19.7-40.3-32.5-31-6.1 4.3-5.5 7.4-7.3 5.8-5.8-4.8-7-18.2-.2-25.7 4.9-5.5 10.5-8 16.2-8zm374.6 7.5s.7 28.9-.4 35.2c-2.2 19.3-27.3 21.3-28.3 6-4 6-6.9 13.7-8.5 20.6l-17.8-12.3c6.7-4.8 13.2-9 18.2-15.1-13.2 1-20.6-10.4-11.8-20.2 9.8-11.1 37-12.3 48.6-14.2zm-655 9.1 7.9 9c-70.2 124.3-45.4 283.4 124 367a524 524 0 0 1-15.2 112.5l-62.5-30.3c.5-140.7-79.2-274.8-206.3-362.9 46.1-37 97.1-69.6 152.1-95.2zm511.8 1.1c3 16.4 18.5 46.2 19.6 44.5-.1-1-64.7 82.7-92.8 222.6l-24 .1a782 782 0 0 1 97.2-267.2zm199 4 12.7 7.6c-67 56-111 127-143.3 203.6l-17-8c50.2-111 99.8-160.4 147.5-203.3zm17.8 12.3c3.5.2 7.6 4.7 14 8.2 6.4 3.5 4.8 5.3-7 14.4-14 10.7-15.4 10.3-15.3-5 .1-10.2 2.7-17 7.6-17.5h.7zm-15.4 15.8c.7 0 1.3.2 1.7.9 1 4 1 13.3-.7 22.5-1.3 6-19.3 21.2-25.7 27.2-2.6 1.7-3.8 1-4.3-2 .2-4.7.7-11 .8-17.5 0-2-.4-4 1.4-5.6 8.8-10.4 21.6-25.2 26.8-25.5zm33.4 5h.2c1.7 1 1.4 21.9.3 23.3a51.9 51.9 0 0 1-22.9-2.8c-.8-2.4 19-20.7 22.4-20.5zM1467 770l5 20.5s1.3-2.8 1.7-3.3c9.6-14.8 21.4-6.1 21.2 14.4 0 6.5-6 32.5-6 32.5s-36.3-17.5-39.1-25.1c-2.9-7.6 1.1-14.2 7.8-14.8 2.5-.3 5.2-.5 8 0l-15.6-16Zm416.3 2.7 16.5 6.1c-34.4 56-69.9 111.3-95.7 237.4h-69.2c9.7-77 29.3-152.8 64.3-226.5l21.2-6.7s-57.2 130.8-63.8 214.9l33.4.7c17.8-82 51.2-166.9 93.3-225.9zm-130.9 2c9.3-.3 16.2 6.3 15.6 17.9 0 10.6-1 12.1-8.6 7.9-9.8-5.6-17.6-5.7-26.4.6-4.9 3.5-9.7 6.3-9.7 6.3s4.3-18.4 10.8-24.2a30 30 0 0 1 18.3-8.4zm-35.5 27.3c-.6 6.3-2.5 9.1-4.1 14.4 0 0 5.4-2 8-3.3 12.3-5.7 25 4.9 24.9 17.3.5 8.3-8.5 18.3-19.2 18.3-3.7 0-7.7-1.1-11.5-4 2.7 15.2 3.3 22.3-7.8 29.9-9.3 6.2-28.9-.9-27.8-17.9l.7-10.5-9.4 1.3c-26.3 1-26.7-31.3-5.5-36.4 8.4-2 17.6 5 17.6 5-4-8-4.1-21.6 1.3-28 13.4-15.4 34.5-1.3 32.8 14zm229.4-20.2c1.5 12.1 6.3 25.3 5 36.6-2.1 14.5-14.4 23-24 13.7a96 96 0 0 1-3.4-3.6c-4.3 5.5-7 21-7 21l-17-10.4s11.7-8.3 15-13c1-1.4 1.3-3.9 1.3-3.9-9.4 3-17.5-6.7-14.9-15.2 5.1-14 30.6-19.2 45-25.2zm119 8.8c6.5-.2 16.3 1.6 24.1 2.4 6 1 2.7 4.4-10.7 17.5-12.4 12-12 10.9-21.5 10.7-22.2-.3-26 .2-13.1-13.8 6.7-7.3 12.6-13.9 17.5-16.3 1-.3 2.3-.5 3.8-.5zm-40 2.5c.4 0 .6.1.8.3 1.5 1.4 1 7.7.8 17-.2 9.7 0 9.8-4.2 15-5.2 6.5-9.6 13.2-15 19.5-4.8 5.2-4.7 4.6-7.5-7.8-2.8-12-1.2-15.7 14.2-33.1 5.3-6.7 9-11 11-10.9zm69.4 6.9.1 24.3a411.1 411.1 0 0 0-98 150.6l-16-6.3a461 461 0 0 1 114-168.6zm-396.9 14.7a13.7 13.7 0 1 0 0 27.3 13.7 13.7 0 0 0 0-27.3zm0 4.3a9.5 9.5 0 0 1 0 19 9.5 9.5 0 0 1 0-19zm-508.6 5.8c142.8 91.6 206.8 233.6 206.5 355.6l-8-3.6c-8.4-172.4-102.1-278.4-203.4-347Zm845.4 1.3c3.2 0 7.6.5 14 1.2 11.8.7 13.2 1.4 5 10.8-2.1 2.5-6.4 7.9-9.4 11.9s-6.7 8.2-8.4 8.8c-2.5.9-23.3-.1-29.2-1-2-.2.6-2.2 10.7-16.6 7.8-11 8.6-14.8 16-15l1.3-.1zm59.4 4.7s2.9 78.6.8 128.7c-32.6-1.2-51.7 11.1-59.6 34.5l-34.3-17a444.6 444.6 0 0 1 93.1-146zm-100.8 1.8c1.9 0 3 3.8 3.5 11.4 2.1 13.5 1.9 15-3.8 23.7l-8.5 13.6c-3.3 5.5-5.6 7.1-6.4 4.5-4.5-14.6-5.9-23.6-4.3-26.6 2.6-4.8 14.8-22 16.5-24.3 1.2-1.6 2.2-2.3 3-2.3zm-814.5 1.5c114.8 71 198.7 192.4 202.2 339 0 0-24.5-11.5-39.6-19.9l-.7-14.2 8-.3 2.5 16.1 17.5-.6-4.6-40-27.5 2.5-5.5-22.7 8.3-1.8 4.6 14.7 17.8-4.7-9.5-35.7-27.5 7.5-8.8-24.1 9.1-3.3 7.4 14.4 16.8-5.8-15.8-35.8-25.4 12-12.8-23.4 9.9-5.3 8 13.9 15.6-8.1-19.4-33-24 13.5-12.1-18.2 7.4-5.2 8.3 9.5 13.8-9.7-21.2-28.4-23 18-17-19.7 7.8-6.7 11.7 10.5 13.1-11.4-25-27.4-22 20-16.4-14.2 8-8.8 10.2 7.8 10.9-12.9-27.3-22.5L1192 890l-19.6-13v-9.6c6.3 2.4 13 5.3 19.1 8.5l10.2-15.4-29.3-19.8zm319.6 6 4.4 25c4.1-6.7 7.4-11.4 16.3-8.8 10.7 4.4 10.9 20.5 1.8 45.2-1.7 4.5-3.8 8.5-3.8 8.5s-4.7-2-7.8-4.1c-6.5-4.5-17.6-9.5-23.2-18.4-5.9-9.3-6-22.4 4.8-21.3 2.2 0 6.4 1 6.4 1l-16.3-20.7zm-326 7.5 20 12.8-4.2 7.5-15.7-7zm498.4 5.9c5.7 8-14.5 31.8 12 41.2 0 0 .6 5.5-5 8.8-12.9 9.5-31.5-7.8-25.7-25.5 3.7-11.3 14.3-24.4 18.7-24.5zm55 .7s8 5.9 9.5 7.4c14.8 14.2 15 34.5 1.6 41.5-9 4.8-19 1-22.5-5.9-1.6-3.2 1-6.5 4.5-6.5 6.3 0 11.2-12.1 9.3-25-.7-5-2.4-11.5-2.4-11.5zm174 4.8s1.8 17.3 4.4 25c7.7 21.6-2.2 34.7-16.7 27.5-2-1-5.7-5.8-5.7-5.8l-1.4 24.8-20.6-6c4.4-7.1 10.9-12.2 15.6-20.3l-5.7-.1c-12.3.4-16.9-13.2-4-24.5 9.6-8.2 34.2-20.6 34.2-20.6zm107.7 5.7 10 .2c13 0 16.3-1.8 10.6 6.4-2.3 3.1-7.8 12-9.4 15-3.3 6-4 8-9.4 9.2-8 1.6-17 .5-26 .9-2-.1 2-6.9 4.3-11 5.5-10.4 9-17.4 13.7-19.6a15 15 0 0 1 6.2-1zm-40.3 8c1.5-.1 2.7 2.7 4.2 8.6 3.5 13.6 4.4 14-1.2 25.2l-9.8 19.1c-5 10.2-5.4 10.1-8.6 1-6.2-17.4-6.8-15.6 3.5-35.2 6.4-12.3 9.6-18.6 11.9-18.7zm-753.2 4.8 18.4 14.8-5.2 5-10.2-7.5-15.1 16.2 24.8 22.6 21-20.7 18 18.8-5.5 4.7-10.6-10.2-15.8 13.5 23.6 27.9 23.8-18.1L1296 964l-6 3.8-9.8-9.4-15.5 10.7 19.3 27.1 24.2-13.9 13.8 22.7-7.7 3.6-7.8-12.4-17.4 10 16.5 31.8 26.1-11 10.6 24.2-8 3.3-6.7-14.6-17.7 7 11.8 33.3 26.6-7.6 6.4 24.7-8.1 2.3-4-13.7-17 4 7 33.5 27.1-1.7 3.2 27-8.4.4-2-16.1-17.3.2c.1 5.7.8 17.3.8 17.3l-10.4-4.8c-15.6-102.7-70.6-188.4-152.8-248l-.4-12.3 20 12.7s18.3-16.4 21.5-20.5zm789 24c5.7-.1 3.2 4.3-3.8 17.6-7.8 14.8-9.1 15.1-23.7 18.7-17.8 4.3-17.2 5.3-7.7-15.1 3.7-8 6.4-14.8 9.8-17.5 4.5-3.4 13-2 22.4-3.5l3-.3zm-829.6 4.3c85.4 55 139.3 168.9 146 238 0 0-2.3-1.6-7-3.8-6.5-3-8-4.9-10-14.3a351.5 351.5 0 0 0-128.6-206.6zm769.4 14.1c3.6-.8 10.2 25.2 8.2 30.6-1.4 3.9-14.1-5.3-18.7-7.3-2.3-1 8-22.8 10.5-23.3zm-411.4 1.2-.4 26.9s3.2-3.9 4.9-5.1c6.3-4.6 16 1.8 16.4 9.7.5 11-1.2 15.5-10 30.8-2.7 4.7-6.8 10.7-6.8 10.7s-10.4-7.4-21.8-18.7c-12.3-12.3-10-28.6.8-28.7 3.2 0 6.1 1 9 2-2.4-8-11-23.3-11-23.3Zm333.4 20.1s5.6 7.3 12 26.6c6.1 18.5-3.3 32.3-16 25.4a23 23 0 0 1-4.7-4c-1 9 .7 25 .9 25.2l-20.6-3.6s11.3-18 12.1-22.4c0 0-1.3 1-7 1-20.6 0-16.3-24.7 7.6-38.3 3.6-2 15.7-9.9 15.7-9.9zm118.7.3c4.5-.2 2.3 4.2-2.6 14.3-5.5 11.2-4.1 10.2-15.7 4.3-16.2-8-15.2-9.2 5.3-14.7a56.7 56.7 0 0 1 13-3.9zm-293.7 3.3c16.2.1 28.2 16.1 25.8 38.9-4.2 39-1.8 36.6 2.5 40.5 7.7 7-2.8 11.3-12 4.6-6.4-4.7-8.5-9.4-8.2-31 .3-24.7-1-31-9.9-28.8-5.5 1.3-7.2 6-6.6 22.7.8 23.5-.7 29.4-9.6 36.9-9.6 7.4-20 .8-11.2-4.1 4-4.5 4.8-10.3 3.2-24.4-1.7-12.1-8.7-55.5 26-55.3zm401 19.7h6.1c31.2 1.2 110.1 7.6 110.1 7.6l.7 23.4c-3.5 2.1-62.4-6.8-105.7-6-10.2.2-17.3 4.6-24.7.9 7 2.9 6.4 38-24.5 29.5-26.3-9.4-13.5-45 20-54a175 175 0 0 1 18-1.4zM1917 980.2l67.4 33.3c9.5 126.6 53.2 260.3 202 361.7-24 17.3-84.6 59.7-153.7 88.7l-5.7-6c82.1-139.7 20.1-293.4-123.7-362.9a555 555 0 0 1 13.7-114.8zm237.2 21.2c13-.5 16.3 1 17.4 6.9 1 5.5 5.2 6.8 10 5 12-4.3 19.2 16.8 9.3 26.1-6 5.8-5 8 0 8 12.4.1 12 16.4-.6 25.6-5.2 3.8-5.1 5.5.4 8.2 9.1 4.5 7.3 13.5-4.4 20.8-6.3 4-6.5 5-1.3 6.4 13.2 3.6-.2 22.4-14.6 19a22 22 0 0 0-17.2 3.6c-15.4 6.5-18 7.7-34.6 5.7-14.6-2.7-21.1-7.5-25-20.4-8.5-26-17.7-55-17.8-83.4-1.3-17.5 28-33.3 41.9-34 11.3-1.7 24.2 2.4 36.5 2.5zm-922.4.5a28 28 0 1 1 0 56.1 28 28 0 0 1 0-56.1zm311.9 8.2-2.5 24.6 5-4c7.3-6.2 18.9.6 16.3 10.1-.9 8.4-15.3 33.3-21 38.5 0 0-23.3-25.2-25.7-30.2-5.6-11 2-22.4 12-17.5 1.4.7 5.5 3.7 5.5 3.7l-7.3-23.3Zm-310 2c-10 .3-19.3 6.4-18 14.5.8 3.5 6-1.5 11.3-4.8 4-2.5 8.8-2.9 13.3-1 4 1.5 5.8 5.2 8.1 8.1 2 2.4 4.2 4.4 5.4 3.2 1-1.3.6-2.9.3-4.3-2.1-11-11.3-16-20.4-15.7zm755.7 3.8 10 5.1c13.5 179 104 284.1 199 346.8l-7.5 4.5a441.6 441.6 0 0 1-201.5-356.4zm15.2 7.4s25.2 12.8 38.4 18.8l.5 16.2-8.8.3-3-15.2-18.4 1.3 5.8 37.4 29.5-3.6 4.1 22.6-10 2.1-5.1-13.9-17 4.1 11 36.4 26.6-8.6 8.4 23.8-9 3.3-5.7-14-17.5 6.1 13.6 35.5 27.7-8.9 11.2 22.2-8.4 3.8-8-13.8-16.7 8.5 19.5 33.1 25-13 11.7 17.6-9.2 6.2-8.3-10.8-13.5 8.8 21.6 29.5 21.6-16.2 16 18.6-7 6.3-11-11.1-13 11.6 25.6 28.2 22.3-19.4 15.9 14.7-4.7 5-10.7-6.7-14.1 15 27 23.5 21.4-23.5 18.1 13.4v9.9l-16.2-8.2-10.9 16.3 27.1 20.5-.2 8c-154.6-92.2-195.3-235.3-203.2-341.8zm-316.7 1.7c6.7-.2 13.8 6.1 25.4 19.6 32.6 37.8 24 96.2-18.7 126.7-6.2 4.4-8.7 4-16.3-2.5-43.7-37.6-46.2-87.8-7.3-131.9 6.8-7.6 11.7-11.7 17-11.9zm156.3 5.2c8 12.3 18.1 25 19.3 40-.6 14.8-10.6 17.5-20.9 8.9a71.3 71.3 0 0 0 3.2 22.9l-18.7-2s7.3-12.8 7.6-20.8c-13 9-22.9-2.8-21.1-12.3 3.7-16.1 17-27 30.6-36.7zm-155.7 9.7c-1.5.1-3.1 1.1-5.6 3.1a81 81 0 0 0-25 32.3c-9.7 24.9-3.3 53 18.8 74.7 11.2 11 15.1 10.3 32.3-12.6a66.3 66.3 0 0 0-13-93.5c-3.6-2.8-5.5-4.2-7.5-4zm359.5 4.6 14.5 7c18.5 122.1 78.5 196.5 145.7 247.9l-.2 11.3-18-14-21.6 22.6-17.5-14.3 6.6-6.4 10 6.3 12.7-14.2-25.1-22.4-21.9 19-18.2-18.8 5.5-4.6 12.6 11 14.1-12.5-24.4-27.4-21.8 16.6-15.2-20.2 6.6-4 8 11 16.8-10.5-17.8-27.3-25.3 13-13-23.4 7.4-3.5 8.4 13 15.8-7.5-15.9-32.3-25.9 8.6-9.5-25.4 7.4-2.7 6.5 15 17.5-5.6-11.9-34.7-26.7 7.5-6.7-25.5 8.3-1.8 4.4 13.8 18.4-3.7-6.8-33-27.4 3.4c-.9-5.6-5-20.7-4.9-26.5l8.5-.6 2.6 14.5 18.5-.6zm-358.5 2.6c10 1.4 22.3 20.7 25 27.8 5.4 13.9 5.8 30 1 42.4-4 10.2-15.8 28.3-23.3 33.5-6 3.2-11.1.8-19.8-11-17-23.2-20.4-51.1-6.9-70.3 10.3-14.6 18-22.4 24-22.4zm378 6 7.2 3.5c9 70.7 50.9 167.7 133.3 225.8v8.8c-64.1-46-123-125.4-140.6-238zm-379.3 4.9c-28.7 21.6-24.1 55.5-2.4 78.3 23.5-15.5 31.7-57.4 2.4-78.3zm-438.3 1.4c16.2-.4 26.5 5.3 31.4 16.5 7.7 17.4 8.7 20.8 10.3 30l3 17.4c8.5 47.4 2.3 65.3-26.5 72.7-8.6 2.2-20.6 3-29 1-2.1-.6-10.2-.7-16.5-.9-12.6-.4-16.4-1.7-22.7-6.8a15.3 15.3 0 0 0-7.2-3.8c-14.3-2.2-18.6-15.4-7.7-25.1 6.2-5.6 6.8-6.3 6.2-7.2-.3-.6-3-1-5.9-1-14.5-.1-14.3-15 .3-25.7 6.9-5 10-9.8 5.4-8.6-13.2 3-17.8-16.2-4-22.2 7.3-4.1 12.6-7.5 5.5-8-6 .6-10.8-3.8-9-9 2.2-6.2 14.3-12 21.3-9.8 5.4 1.6 10.7 3.2 14.1.7 8.3-6 12-8.6 19.1-9.5 4.1-.6 8.4-.7 12-.7zm481.5 3.6 66.5 1.3-2 65.3-62.6-1.2s13.7-29.2-2-65.4zm-149.2 1.5 63.8.8a99.8 99.8 0 0 0-2.7 64.1l-62.5-1zm106.5.1c17.1 10 21.8 46.3-2 65-22.6-23.2-18-51.6 2-65zm-157.3 28.4 17.1 1.6-6 24.5s2.7-3 3.6-3.2c22-10.3 23.5 13 1.2 34.1a275 275 0 0 1-13 11s-6.1-9.3-11-17.8c-5.7-8.6-9.5-17.7-8.5-22.6 1.3-7 9.8-11.7 15.2-7.4a71 71 0 0 1 5.8 5.3zm305.2 18s7.2 7.3 11.5 12c15.1 16.6 17.7 32 10 36.7-6.5 3-10.6 1-15.9-3.3 1.1 10.2 9.2 25.3 9 25.3l-22.5 3.7s5.6-20.5 5.1-28.3c0 0-4.6 3.6-6.7 4.5-14.7 5.3-22-11.4-9.9-28 10.2-14 19.4-22.7 19.4-22.7zm307.8 30.9a27.4 27.4 0 1 1 0 54.7 27.4 27.4 0 0 1 0-54.7zm13.5 12.5c-1.2.3-2.2 3-2.3 9-1.4 12.3-11.6 17.2-22.8 11.5-4.5-2.3-8.3-5.7-8.3-3 0 1.3 3.6 8.6 6.2 11.1 9.4 8.5 32.5 6.5 32-13.3-.3-9.4-2.9-15.7-4.8-15.3zm-497 10.3c3-.2 6.7 1 9.1 3.5 7.5 5.1 8.9 11.7 9.4 36.3.4 21.7 0 22.3 3.5 25 8.8 6.4 14.1-3.5 11.6-25.5-2.4-21.2 5.2-36.6 18-36.5 6.3 0 7.5 3.7 2.7 8.4-5 5-6.3 11.1-4.7 23.4 4 31.4.6 46.8-12.6 53.2a24.4 24.4 0 0 1-34.6-18.4 145 145 0 0 1-.6-38.3c.2-13.6 0-15.2-4.8-23-3.4-5.2-.9-7.9 3-8.1zm-346.4 10.2c7.6 0 15.5 4.4 20.2 14.1 11.4 23.6-13.3 43-36 44.5-39.3.6-86-5.1-125.5-10.4l.6-22.2c36.2 2 77 5 121.1 7-5-20.6 6.9-33 19.6-33zm207 4.5 21.8 4.9-14 22.8c4.2-1.8 7-3 11.2-1.6 9 3.3 9 14.6 2.5 25.1-5.2 7.7-19.7 16.9-29.7 22.5-5.5-12-17.9-33-13-44.4a12 12 0 0 1 16.6-5.7l6.4 3.5zm51.7.7 66.7.7c-9.7 67.5-28.6 157.6-66 231.1l-15.8 4c33-73 55-141.4 65.2-217.9H1590c-19.2 82.1-47.6 158.2-91.2 224.4l-19.4-6.3c46.6-74 83.6-156.6 93.9-236zm152.2 1.2h74.4c13.7 137.4 60.2 231.1 129.3 324 0 0-4.4.9-7-.2a43.1 43.1 0 0 0-24.4-17.2c-58.1-83.6-97-200.5-106.5-289.9H1747c5 112.3 36.1 204.4 77.5 293.6l-22.4 4.1c-33.3-79.8-69.7-149.3-76.7-314.4zm115.8 17c6.1 4.7 12.8 9.3 19 13.8 16.7 11.8 16.5 34 .2 33.9l-5.7-.3s6.6 14.6 10.8 22c-6.8 1.8-21 4.5-21 4.5s2-14.3 1.7-26.2c0 0-2.7 3-5 4-10.8 4.6-20-4.8-18.6-16 1.8-15 18.6-35.8 18.6-35.8zm-497 2.6 36.6 18.2c-25 56.8-53.6 110-95 150.4l1.1-131.2c22.6-.7 45.7-1 57.2-37.4zm250.4 2h22.5c-10 104.9-79.3 246.7-92.3 263.8l-4.2 3.2c.2-.2-9-32.2-19.3-43.7 39-52.7 80-154 93.3-223.2zm158.4 0h34c10.6 83.6 36.4 173.8 101.9 283.4 0 0-6.6.6-11.6-2.4-11.2-7-19 2.2-25.6 1.9-10.4-.6-12.1-1.2-22.9 1.4A769.9 769.9 0 0 1 1753 1203zm-367.6 18.8 12.2 5.7C1371.4 1288 1348 1336 1286 1395l-.2-17.6c43.5-42 72.8-97.6 99.5-155.6zm17.7 8.5c5.7 2.1 12.3 5.7 17.7 8.6 1.8.7 1.3 2.4 1.4 4-2.3 5.8-12.5 8.3-16.3 9.5-4.7 1.3-9.2 2.2-10 2.4-5.4 1.2-3.7-4 2-15.7 2.7-5.2 3.7-8.7 5.2-8.8zm24.3 12.8a64 64 0 0 1 21.4 10.8c1.2 3.4-2 8.9-6.6 18.9-7.2 15.4-8.6 15.8-10.7 3-.4-2.1-2.5-9.3-3.8-14.1-3-11.1-3.3-17.5-.3-18.6zm26.6 12.4s8.5 4.2 11.3 6c-38.1 114.2-139.7 208.6-139.1 206.4l-15.9-9.3c67.6-61 117.1-133.2 143.7-203zm-40.3 1.7c3.6 0 .4 4.6-4.5 15.6-4.8 10.7-6.3 14.5-10.7 16.2-6.4 2.3-15.5 2.4-23.5 3.8-3.5.6-2-2 3.3-12.8 6.2-12.7 6.6-15.3 16.4-18 5.6-.8 13.2-4.9 19-4.8zm13.3 22.7c4 14 3.9 16.9 1.3 21.8a551 551 0 0 1-13.2 22.9c-4.4 7.2-5.7 5.7-8.3-12-1.7-11-3.1-15.9-2-20.7 2.3-5.4 9-18.1 12.7-25.6 5.3-15.9 8.2 12.1 9.5 13.5zm70.2-12.4 20 6.6-15.7 19s6.6-1.3 7.4-1c15.7 1 13.1 16.7 1 26.2-5.1 4.6-30 16-30 16-2.7-14-8.2-23-6.9-37.4 1-7.7 1.6-14.7 11.1-15 5-.2 7 5 10.3 9zm362.6 17s12 6.2 23.2 14.8c14.6 11.2 17 24.4 2.5 29.5-1.7.5-6.5.3-6.5.3 4 7 13.6 17.4 13.6 17.4-4.8 3.3-11.5 6-19 8.3 0 0-1.9-17.4-3.6-24.1 0 0-2 3.8-4.3 5.2-14 8.8-25-7.7-17.5-28.5 4.5-12.6 11.6-23 11.6-23zm-154.2 2.9c35-.9 14.5 56.5-3 52.8-.3-.5 14.4-34-5.4-39.3-9.2-2.4-1.3-13.6 8.4-13.5zm-57.5 4c11 0 18.8 7.7 8.4 12.5-16.3 7.6-6.6 25.8-6.2 36.1.2 6.3-14.6-5.5-17.7-18.3-4.1-16.6-2.2-28.8 15.5-30.3zm-259 6c2.3 0 4.2.3 4.8.7 1 2.7-3.9 11.2-11 22-3.8 5.8-5.4 7.4-7.8 8.8-5.5 3-13.2 2.3-19.7 2.7-9.6.2-8 0 2.7-16.6 4.8-7.4 7.8-13.5 10.6-15.4.6-.4 13-2.1 20.3-2.1zm12.6 12c0 20.8 7 27.6 1.8 34.1a287.8 287.8 0 0 1-17.3 25c-5 5.9-4.4 4.7-5.7-10.8-1-11.3-2-18.8-.5-22.3 4.2-10.2 9.3-15 14.5-25.9 4.1-8.7 7.2-7.2 7.2 0zm276.5 10.4c10.1.2 16.4 11 16 21l-.5 9.4c13.2-5 29.5-.1 30.2 12.8 1.2 21.8-14.9 19.3-28.5 18.4 1.4.5 3.4 19.7-4.7 27.1-12.7 14.2-36.4-.3-30.5-21.2a44 44 0 0 0 1.5-7s-8.5 3-11.5 2.9c-25.8-1.1-23.8-37.6 2.1-33.3a57 57 0 0 1 8.9 2.2l-1.4-5.6c-3.8-14 4.1-26.8 18.4-26.7zm516 6.5 13.8 8v15.5l-19.7-14.6zm-833.7 10.4c5.5 0 9.8.4 9 1.7 0 2.8-12 19.5-19.1 27-6 6.6-7 5.6-21.7 5-5.8-.4-9.6-.4-9.4-2 6.8-8.9 16.1-20.4 22.6-30a103 103 0 0 1 18.6-1.7zm13.6 7.3c1 0 1.3 2.2 1.3 7 0 3.7.5 15 1 19.8 1 9 1 9-2.8 14.2-4.7 5-9.4 12.4-15.4 18.1-9 10-8 10.5-8-10.8.2-16.6-1.1-16.6 2.3-20.5 1.8-2.2 7.5-9.2 11.3-14.7 5.7-8.3 8.8-13 10.3-13zm85.7 3 18.5 9.8-18.5 18.8s4.6 0 6.2.3c11.9 2.3 11 15-1 24.3a288.7 288.7 0 0 1-32.6 13.9c-.9-10.6-3.1-20.4-2.7-31.8.2-5.2.6-11 4.7-15.5 2.8-3 7.4-4.9 14-.6a25 25 0 0 1 5.2 6.5zm218.3 6.3a13.1 13.1 0 1 0 0 26.3 13.1 13.1 0 0 0 0-26.3zm206.8 3.1s24.3 9.1 35.2 19.1c10.1 8.5 5.4 22.5-4.8 22.8l-5-.6c3.4 5.2 15 18 15 18l-18.8 7.6s-3-14.4-5.3-22.5c-6.5 15-22.6 5.3-23.7-4.1-2.6-13.8 3.3-27.2 7.4-40.3zm-206.8 1.2a9.1 9.1 0 1 1 0 18.2 9.1 9.1 0 0 1 0-18.2zm-357.3 18.7c6.5-.1 14.6.2 18.3.4 2.7 2.2-3 8.8-14.3 20.6-9 9.4-10.3 8-21.2 8.2-18.3.1-18.7.2-10.3-9.3 9.1-10.5 14.5-17.2 18.8-19.4a49 49 0 0 1 8.7-.5zm22.2 9.1c2-.3 1.4 4.6 1.1 15.8l-.5 18.9-14.2 13.7c-16.5 14.7-14.5 15.6-14.4 1.9 0-11 0-18.7 2.3-23.5 7.2-8.7 14.7-16.4 22.9-24.6 1.3-1.3 2.2-2 2.8-2.2zm361.5 4.8c4-.4 14 17 16.6 31.4 5.8 33 25.6 48.8 39.5 35.5 5.7-7.8 6.3.7 6 4.7-2.9 42-50.4 24.5-55.8-17.1-16.6 10.8-32.2-11-22.2-10.7 23.5-7.5 17-29 15.9-43.8zm-55 .3c2.3 14.5-23.8 39.3-38.5 21.9-7.5-8.9-.7-27.1 8.8-15.9 10.6 7.8 20.7-1.2 29.7-6zm-359 19.8c5.4 0 13.1 1 16.5.5 4.8.5 1.4 2.8-9 12.2-8.9 8.2-11.4 11.8-12.5 8.3-.5-5.5-.2-12-.2-19.9.8-.7 2.8-1 5.2-1zm121.8 9.7 16 11.6-15.9 14.6c14.2-.7 15.5 12.6 10.1 20-3.5 5.2-17 10.6-30.4 12.8l-14.7 2.3s-.3-6.2-.5-16.6c-.5-21.2 1-29.5 9.1-33.7 5.9-3 15.7 1.7 18.2 7.1.8 1.8 2.9 5 2.9 5zm-102.5 1.1c1 1.3-2.3 35.7-2.3 35.7l-23-13s23.3-22.3 25.3-22.7zm611.1 4c16.5 7.8 28.8 6.3 39.9 16 9.6 5 6.8 18.9-.3 22-3.2 1-8.4.4-8.4.4 5.8 7.2 18.6 16.3 18.6 16.3l-20.3 8.4s-2.8-13.6-5.3-21c-3.7 11-16.2 10.7-23.3 5.5-5-3.8-7.1-16.8-4.7-28l3.8-19.5zm-108.1 321c-199.7 47.3-361.9 18-378 12.5l-12.7 19c-1.6 3.2-2.5 12.8-11.1 15.4l-13 19.3 2.6 2.7-11.5 10 2.8 3.3-8.4 12.2-3.2-.4-19.4 29.4 3 3.3-44.4 69.4 600 .2c-35-65.8-72.2-130.3-106.7-196.3zm-3.6 8.5 3.5 10a397 397 0 0 0-33.3-2.4c10.4-2.1 20.8-4.8 29.8-7.6zm-34.9 8.7c-19 8.7-30.5 19.2-39.3 30.3a104.5 104.5 0 0 0-41.3-18.2zm-337.1 4.8 8.5 1s-2.9 2.1-4.9 1.7c-1.5-.4-3.6-2.7-3.6-2.7zm382.1 5 5.5 10.6c-13-6.9-68.6-22.7-84.4 32.6-16.6-22.4-85-55-119.7 14.2-9.9-18.8-67.3-72.7-119.7-4-20.7-42.7-38-46.2-75.8-40.4 26.9-25.9 64.8 1 80.9 23 45.2-37.4 83-26.1 116 4.4 42.6-46.4 85.1-35.2 115-12 21-30.9 41.5-40.2 82.2-28.5zm-349 .2c26.9 3.6 53.7 5.3 80.6 6.6-15.5 5.7-31.5 10.6-44.2 22-9.5-13.3-22.9-21.1-36.4-28.6zm193.8 4.3a200 200 0 0 0-43.1 28.2 134.8 134.8 0 0 0-43-25.6c28 1.3 59.2.1 86.1-2.6zm172 22s-5.4.8-7.1 1.3c-23.8 6.3-18.6 39.7 5.8 39.7 2.3 0 8.1-1 8.1-1-.5 22.7 6.4 28.2 29.5 27l39.2 70-579.7-2.5 36.8-58.8c18.6 2.1 30.2-8.2 26-23.9 0 0 11.5 3.5 14.7 3.5 21 .1 26.3-32 6.3-37.6-2.3-.6-7.9-1.2-8.6-1.4 9.2-23 34.5-9.4 41.7.1 16.3-13.4 34.2-7.4 42 10l-4-2.4c-19-14-36.8 14.9-18.1 28.2 1.8 1.3 5.7 2.5 5.7 2.5s-2.3 1.8-4.4 5.3c-9.7 16.3 6 36.1 24.8 31 14.4-5.6 14.7-16.5 14.6-28.5 0 0 5 .4 9.5.5 17.4.2 22.3-22 11.7-32.4-5.7-5.6-13.2-5.1-17-5.9 20-19.6 33.6-6 47.7 3 2.2 0 24.5-26.9 51.1-.5-12.9-3.4-26 5-26.3 18.4.3 8.7 6.5 16.3 19.8 17a37.3 37.3 0 0 0-2.4 11.7c-.3 14.1 10.7 22.9 24.6 20.7 11.6-1.5 20.2-14.8 16-25.8-1.8-5-4.4-6.8-4.4-6.8 31.4 3.9 30.8-35.8 6.5-38.2-5.8-.6-10.3 2-16 7.3 14.3-29.3 40.5-23.5 50.3-11.5 13.4-9.7 32-23.1 54.2.7a30 30 0 0 0-13.3.2c-17.6 4.7-17.6 27-3.7 33.8 4 2 8.7 3 13.9 2.9-4.6 18.7 16.2 32.2 31 23.2 10.5-6.5 13.3-21.7 1.9-35.6 19.2-.8 21.1-24.8 10-33.3-8.7-6.6-19-3.4-26.4 5.3-2.4-6.9 16.6-30.9 43.5-13.6 14.2-12 28.4-15.6 44.5-3.7zm8.4 18.7 7.6 13.6c-5 .5-12.2-4.8-7.6-13.6zm-97.2 13.9a8.5 8.5 0 1 1 0 17 8.5 8.5 0 0 1 0-17zm-351.8.5c1.1 4.5 1.6 9.1-6.7 10zm98 8.2a7.8 7.8 0 1 1 0 15.6 7.8 7.8 0 0 1 0-15.6zm130 2.4a8.3 8.3 0 1 1 0 16.6 8.3 8.3 0 0 1 0-16.6z" style="fill:#000;stroke-width:3.18132639" transform="matrix(.16228 0 0 .15099 -157.4 719.7)"/></g><g style="font-style:normal;font-variant:normal;font-weight:700;font-stretch:normal;font-size:3.77201176px;line-height:0%;font-family:'Levenim MT';-inkscape-font-specification:'Sans Bold';letter-spacing:0;word-spacing:0;fill:#000;fill-opacity:1;stroke:none;stroke-width:1"><path d="M27.8 722.4h-6l-8.4-12v12H8v-27h5.3v9.3l7.3-9.4H27l-9.5 12.1z" aria-label="K" style="font-size:37.72449112px;line-height:1.25;stroke-width:1" transform="scale(.95622 1.04578)"/></g><g style="font-style:normal;font-variant:normal;font-weight:700;font-stretch:normal;font-size:3.77201176px;line-height:0%;font-family:'Levenim MT';-inkscape-font-specification:'Sans Bold';letter-spacing:0;word-spacing:0;fill:#000;fill-opacity:1;stroke:none;stroke-width:1"><path d="M-216.9-971.7h-6l-8.5-12v12h-5.2v-27.1h5.2v9.3l7.4-9.3h6.2l-9.5 12z" aria-label="K" style="font-size:37.72449112px;line-height:1.25;stroke-width:1" transform="scale(-.95622 -1.04578)"/></g></g></svg>