<svg xmlns="http://www.w3.org/2000/svg" width="234" height="333"><g transform="translate(0 -719.4)"><rect width="233.2" height="332.2" x=".4" y="719.7" rx="8.9" ry="8.9" style="fill:#fff;fill-opacity:1;stroke:gray;stroke-width:.75590551;stroke-linecap:butt;stroke-linejoin:miter;stroke-miterlimit:4;stroke-dasharray:none;stroke-opacity:1"/><path d="M12.9 780.7v-1.5h3.5v-2.7c-2.2 0-4.7.2-6.8-.7-1.6-1-2-3-1.7-4.7.3-2 1.3-3.7 2.7-5 1.9-2 4.2-3.2 6.6-4.3 2.5 1 4.8 2.4 6.7 4.4a8.3 8.3 0 0 1 2.7 6.1c0 1.7-1 3.4-2.7 3.8-1.9.5-3.8.4-5.8.4v2.7h3.4v1.5H13zM212.5 991v1.5h3.5v2.8c-2.2-.1-4.7-.3-6.8.7-1.6.9-2 3-1.7 4.6.3 2 1.3 3.7 2.7 5a18 18 0 0 0 6.6 4.3c2.5-1 4.8-2.4 6.7-4.4a8.3 8.3 0 0 0 2.7-6c0-1.8-1-3.5-2.7-3.9-1.9-.5-3.8-.4-5.8-.3v-2.8h3.4V991h-8.6zM45.7 814v-4.5h10.6v-8.2c-6.8.2-14 .7-20.4-2-4.9-2.7-6.2-9-5.2-14 .8-5.9 4-11 8.2-15a58 58 0 0 1 19.7-12.9 58.2 58.2 0 0 1 20 13.3 25 25 0 0 1 8.3 18.2c0 5-3 10.3-8.1 11.4a56.3 56.3 0 0 1-17.4 1v8.2h10l.2 4.6H45.7zm116.8 0-.1-4.5H173v-8.2c-6.7.2-14 .7-20.3-2-5-2.7-6.3-9-5.3-14 .9-5.9 4-11 8.3-15a58 58 0 0 1 19.7-12.9 58.2 58.2 0 0 1 20 13.3 25 25 0 0 1 8.2 18.2c.1 5-3 10.3-8 11.4a56.7 56.7 0 0 1-17.4 1v8.2h10l.1 4.6h-25.8zM104 914.2v-4.5h10.6v-8.3c-6.7.3-14 .8-20.3-2-4.9-2.7-6.2-9-5.2-14 .8-5.8 4-11 8.2-15a58 58 0 0 1 19.7-12.9 58.2 58.2 0 0 1 20 13.3 25 25 0 0 1 8.2 18.2c.1 5-3 10.3-8 11.4-5.8 1.6-11.5 1.3-17.4 1v8.3h10l.1 4.5h-25.8zm-58.3 43.4v4.6h10.6v8.2c-6.8-.2-14-.7-20.4 2-4.9 2.7-6.2 9-5.2 14.1.8 5.8 4 11 8.2 14.9a58 58 0 0 0 19.7 13 58.2 58.2 0 0 0 20-13.4 25 25 0 0 0 8.3-18.2c0-5-3-10.3-8.1-11.3-5.7-1.6-11.5-1.3-17.4-1.1v-8.2h10l.2-4.6H45.7zm116.8 0-.1 4.6H173v8.2c-6.7-.2-14-.7-20.3 2-5 2.7-6.3 9-5.3 14.1.9 5.8 4 11 8.3 14.9a58 58 0 0 0 19.7 13 58.2 58.2 0 0 0 20-13.4 25 25 0 0 0 8.2-18.2c.1-5-3-10.3-8-11.3-5.8-1.6-11.6-1.3-17.4-1.1v-8.2h10l.1-4.6h-25.8z" style="fill:#000;stroke:none;stroke-width:1"/><g style="font-style:normal;font-variant:normal;font-weight:700;font-stretch:normal;font-size:3.77201176px;line-height:0%;font-family:'Levenim MT';-inkscape-font-specification:'Sans Bold';letter-spacing:0;word-spacing:0;fill:#000;fill-opacity:1;stroke:none;stroke-width:.99999994"><path d="M26.8 742.3q0 4.4-2.7 7-2.6 2.5-7 2.5-4.2 0-6.6-2-2.7-2.2-2.7-6.3 0-.7 1-.7h2.6l.8.1.2.5q.3 2.2 1.2 3.2 1 1 3.3 1 2.1 0 3.5-1.5 1.2-1.4 1.2-3.6 0-5.5-4.5-5.5-1.6 0-3.2 1.2h-3.3l-.8-.2-.2-.4q0-2.8.3-7l.5-7H25l1 .2v3.2q0 .7-1 .7H14.2q.1 1-.1 3.2-.3 2.1-.2 3.2 2-1.3 4.2-1.3 4 0 6.3 2.8 2.3 2.5 2.3 6.6z" aria-label="5" style="font-size:39.90935898px;line-height:1.25;stroke-width:.99999994" transform="scale(.9951 1.00492)"/></g><g style="font-style:normal;font-variant:normal;font-weight:700;font-stretch:normal;font-size:3.77201176px;line-height:0%;font-family:'Levenim MT';-inkscape-font-specification:'Sans Bold';letter-spacing:0;word-spacing:0;fill:#000;fill-opacity:1;stroke:none;stroke-width:.99999994"><path d="M-208.4-1020.7q0 4.3-2.7 6.9-2.6 2.6-7 2.6-4.1 0-6.6-2-2.6-2.3-2.6-6.4 0-.6 1-.6h3.3l.2.6q.3 2.2 1.3 3.1 1 1.1 3.2 1.1t3.5-1.5q1.3-1.5 1.3-3.7 0-5.4-4.5-5.4-1.6 0-3.3 1.1h-3.2l-.9-.1q-.2-.2-.2-.5 0-2.7.3-7l.5-7h14.6q.6 0 1 .2l.1 2.8v.6q-.1.6-1.1.6h-10.6l-.2 3.2-.2 3.2q2-1.2 4.2-1.2 4 0 6.4 2.7 2.2 2.6 2.2 6.7z" aria-label="5" style="font-size:39.90935898px;line-height:1.25;stroke-width:.99999994" transform="scale(-.9951 -1.00492)"/></g></g></svg>