<svg xmlns="http://www.w3.org/2000/svg" width="234" height="333"><g transform="translate(0 -719.4)"><rect width="233.2" height="332.2" x=".4" y="719.7" rx="8.9" ry="8.9" style="fill:#fff;fill-opacity:1;stroke:gray;stroke-width:.75590551;stroke-linecap:butt;stroke-linejoin:miter;stroke-miterlimit:4;stroke-dasharray:none;stroke-opacity:1"/><g style="font-style:normal;font-variant:normal;font-weight:700;font-stretch:normal;font-size:3.77201176px;line-height:0%;font-family:'Levenim MT';-inkscape-font-specification:'Sans Bold';letter-spacing:0;word-spacing:0;fill:#000;fill-opacity:1;stroke:none;stroke-width:1"><path d="M32.3 622.4h-4.8l-1.8-2.4q-2.3 1.3-5.2 1.3-4.7 0-7.9-3.2-3.1-3.2-3.1-8 0-3 1.4-5.5 1.5-2.5 4-4 2.6-1.5 5.6-1.5 4.6 0 7.7 3.2 3.2 3.3 3.2 8 0 4.2-2.8 7.4zm-4.9-12.2q0-3-2-5-2-2.2-5-2.2t-5 2q-1.9 2.2-1.9 5.2 0 3.5 2.5 5.6 2 1.6 4.5 1.6 1.4 0 2.7-.6l-3.8-4.9h4.8l2 2.5q1.2-1.9 1.2-4.2z" aria-label="Q" style="font-size:29.43927002px;line-height:1.25;stroke-width:1" transform="scale(.82383 1.21385)"/></g><g style="font-style:normal;font-variant:normal;font-weight:700;font-stretch:normal;font-size:3.77201176px;line-height:0%;font-family:'Levenim MT';-inkscape-font-specification:'Sans Bold';letter-spacing:0;word-spacing:0;fill:#000;fill-opacity:1;stroke:none;stroke-width:1"><path d="M-251.7-837.2h-4.8l-1.9-2.4q-2.3 1.3-5.1 1.3-4.7 0-8-3.2-3-3.2-3-8 0-3 1.4-5.5t4-4q2.6-1.5 5.5-1.5 4.6 0 7.8 3.3 3.2 3.2 3.2 7.8 0 4.3-2.8 7.5zm-5-12.2q0-3-2-5-2-2.2-4.9-2.2-3 0-5 2.1-2 2-2 5.1 0 3.6 2.6 5.6 2 1.6 4.5 1.6 1.4 0 2.7-.6l-3.8-4.8h4.8l1.9 2.4q1.3-1.9 1.3-4.2z" aria-label="Q" style="font-size:29.43927002px;line-height:1.25;stroke-width:1" transform="scale(-.82383 -1.21385)"/></g><path d="M12.9 780.7v-1.5h3.5v-2.7c-2.2 0-4.7.2-6.8-.7-1.6-1-2-3-1.7-4.7.3-2 1.3-3.7 2.7-5 1.9-2 4.2-3.2 6.6-4.3 2.5 1 4.8 2.4 6.7 4.4a8.3 8.3 0 0 1 2.7 6.1c0 1.7-1 3.4-2.7 3.8-1.9.5-3.8.4-5.8.4v2.7h3.4v1.5H13zM212.5 991v1.5h3.5v2.8c-2.2-.1-4.7-.3-6.8.7-1.6.9-2 3-1.7 4.6.3 2 1.3 3.7 2.7 5a18 18 0 0 0 6.6 4.3c2.5-1 4.8-2.4 6.7-4.4a8.3 8.3 0 0 0 2.7-6c0-1.8-1-3.5-2.7-3.9-1.9-.5-3.8-.4-5.8-.3v-2.8h3.4V991h-8.6zM50 804.6v-3h7v-5.5c-4.4.2-9.3.5-13.5-1.3-3.3-1.8-4.2-6-3.5-9.4.6-3.9 2.7-7.3 5.5-10 3.6-3.8 8.3-6.4 13.1-8.6 5 2.2 9.7 5 13.4 9 3.3 3 5.5 7.4 5.5 12 0 3.4-2 6.9-5.4 7.6-3.8 1-7.7.9-11.6.7v5.5h6.7v3H50zM166.8 967l-.1 3.1h7v5.5c-4.4-.1-9.3-.5-13.5 1.4-3.2 1.8-4.1 6-3.5 9.3.6 3.9 2.7 7.3 5.5 10 3.7 3.8 8.3 6.5 13.2 8.6a38 38 0 0 0 13.3-8.9c3.4-3.1 5.6-7.5 5.5-12.1 0-3.4-2-6.9-5.4-7.6-3.8-1-7.7-.9-11.6-.7v-5.5h6.7l.1-3h-17.2z" style="fill:#000;stroke:none;stroke-width:1"/><g style="display:inline;stroke-width:3.18132639"><g style="stroke-width:3.18132639"><path d="m-1108.6 1129.1 147.8-277s36.7 13.6 79.5 24.2c-39.8 107.3 2.5 247.7 2.5 247.7s-229.9 5-229.8 5.1zm-419.7-466c-10-116.8-11.4-229.9 6.8-323.8.3-1.5-54.3-32.2-48.7-35.9 8.5-5.6 114.8-62.5 114.8-62.5s7.3 4 13.5 3.4c4.8-.6 9.3-5 7.4-9.7a134.3 134.3 0 0 1-8.4-66.9 103 103 0 0 1 20-44.8c19.9-24.3 66-12 79.3-12.6 8.5-.4 33.2-90.4-7.9-106.5-11.3-4.5-36.4 57-18.3 70.6 2.7 2-36.3-20-66.2-33.2a40.4 40.4 0 0 1-17.9-22.7c-3.6-15.3 45-45.5 35.3-62.7-14.3-25.1-50.9-62.5-66.3-52-14.5 13.4-49 40.8-48.6 59.3 11.3 33 39 35 53.9 66.2 3.7 6.7 30.8 34.9 30.8 34.9-9.9 15.5 6.7 42.2 7.4 38l-127.5-53.8s31.5 218.5 1.2 251.2c-3.2 3.4 27-9 27.6-7 9.4 11.6 112.6 75.6 142.2 98.6 51.2-73.2 69.9-105.3 136.3-170.5 14.6-12.4 47.2-35 65.7-61.9 14.9-21.6 20.9-45.9 18-64.6-3.8-24.3-6.2-40.8-21.4-60-35-44.3-90.6-86.3-89.7-87.1l18.7-15.5s68.5 55.3 97.7 96.3c19.7 27.6 11.4 59.6 28.1 65.1 4 1.4 31.5-1.2 40.5.4 1.1.2 201.3 138.2 165.4 146.7-49.7 11.7-129.3 5.3-129.3 5.3-57.4-54.8-85-72.7-118.7-55 0 0-84.9 76-133.7 135.2-27.8 33.8-51 76-69.5 103-7.1 10.5-99.2-76-98.1-65.4 14.6 95 23.6 209.6 14 287.5-6.5 66.1-15.6 137.2-19.3 198.1 0 0 15.3-4.6 27-.6 6.3 2.2 11 8 11.5 14.5 3.8 29-33.7 22.6-34.6 20.1l21.4 44.5s-31.7 56.2-30.9 53.7c.6-1.5-30-49.2-30-49.2s22.4-40.3 25.1-48.7c1.7-5-32.6 17-35.6-14.4-3-31.5 37.4-23.5 35.6-19.6-5.5-64.7-17.1-131.5-24.6-186zm488 140.3c1-.7-86.2-33.8-165.9-29.7-28.2-10.7-74-21.6-104.4-.9-34.7-22.9-64.6-48.1-95-73.2 8.4-.2 37.8-203.9 57.7-275-10.2-87.9 74.6-88.7 82.7-18.3 92.4 93.4 205.4 189.8 321.8 284.6-18 38.3-83.8 68-96.9 112.5zm192.9-624.7C-952.8 73.7-1173-113.7-1173-113.7l101-100.7c53.7 15.4 108.9 28.1 171.1 28 .3.3 68.6 30.2 104.4-1.2l95 73.6S-738 91.8-760.2 163.8c.8 28.4-9.5 63-37.5 68.5-24 4.7-42.7-29-49.6-53.6zm207.8-248.3c10.1-66.9 11.8-115.5 18.5-193.5-46.9 14.3-47-49-.6-32.9l-21.9-46.9 31-53.4 29.7 50-24.5 45c52 2 40 50.5-5 39.3 9.4 74.5 28.8 149.7 28.7 223.5 17.5 118.2-16.6 283.2-10.7 287l51.2 34.4-5.8 257.5-80.6-34.2-23.6 16.3c7.8 15.1 17.7 29.5 21.2 46 0 0 55.7 44.7 48.2 59 3.5 2-38.7 59.1-51.3 57.9-24-2.5-52.4-33.1-60.3-55-7-22.2 49-44.5 41.8-60.7-8.8-19.3-30.3-28.4-49.4-33.9-26.3-7.6-38.5-28.2-39.8-28.2 0 0-9.2 82.4-19.1 76-39.8-26-13.7-110.3-6.4-108 0 0 17.3 3.7 37.7 5.4 71.8 6.7 66-81.4 51.6-124-3.6-10 1.9-10.1 1.5-10.3-3.4-1 11.6-.4 24.2-4.3 34.7-10.6 87.7-46.7 87.7-46.7a1261.5 1261.5 0 0 1-151-98.5s-40.5 70.8-88.8 120.1c-35.2 35.9-40.9 48-99.9 94.4-1.1 1-44.5 54-23 115C-909.6 579-823 635-823.5 638.8l-16.8 16.4c.7 1-122.7-74.7-120.7-157.4-.2-3.2-55.8-3.6-55.8-3.6L-1180 346.3l136.8-2.1 70.8 56.5 44 1.8c2.9 2.5 4.3-11.6 42.6-40.9 73.3-55.8 163.2-198.2 163.2-198.2l97.6 67c-6-102.2-23.7-211.8-14.6-300zm-357.7-478.8s-98.4 189.9-152.6 279.4l-78.3-21.5c31.7-87.2-1.4-252.3-9.7-256.3z" style="fill:#e2cf00;fill-opacity:1;stroke-width:3.18132639" transform="matrix(.16365 .00194 -.0021 .15103 290.6 844)"/><path d="m5852.8-282.7 6 1699.8 1055.4-.6-3-1699.2zm733.6 1231.8c50-46.5 99.6-84.9 145.9-112.8 18-10.8 23.4-12.4 30.4-6 11.5 10.5 18.7 19.6 15 27-.9 1.6-3.6 4.3-3.6 4.3l-27.7-10.5 9 31.4c-24.9 10.1-24.4 37-.4 51.3l-16.6 38L6777 955c1.4 8.3 28.8 28.3 45.9 0l34.7 17-12-42.5c11.4-10.9 18-28.2.1-44.2l8.3-33.3-31.3 10.2c-7.9-10.7-12.5-10-14.3-12.9-.5-4-.6-13.3-5.8-21.9-4.3-7-9.2-14.6-13.8-20-2.5-4-.5-4.4 12-11.2 5.9-3.1 10.7-6.3 10.7-6.3s61.7 30.9 86.8 42.7l1.5 569.5-338.3-1c-38-113.5-10.7-211.6-.6-253-17.8-1.4-109.2-31-112-41.2 36.3-57.6 85.4-109.9 137.6-157.7zm-658.2 165.7c-44.2-14.2-44.6 38.9-22 43 5.8 1 11.9 2 21-1 2.3.5-26.4 44.5-26.4 44.5s23 41.8 34 59.5l34.7-61.6-22.7-42.7c35.6 18.1 54-35.8 16.6-42.9-9-1.2-19 3.3-19 3.3l19.7-184.6a1890 1890 0 0 1 44.7 32.3c6.6 101.7 1.7 186.5 58.6 334.5l.6 102.9h-195.2l-.8-537.5 34.2 24.5c.7 3-5.5 1-2.2 38.4 3 33.8 13.3 92.3 24.2 187.4zm701-1381.7c1.6 2.2 1.4 5.6 2.8 10 7.9 26.4 35.4 58 57.3 66.3 7.6 3 10.6 7.3 6.2 11.8-5.6 5.5-28.7-9.7-45.7-29.6-15.5-18-25.8-32.9-28.1-44.2-1.4-6.7-2-11-1-14.5 2.8-4 6.3-2.9 8.5.2zm27.3-2.9c2.9 0 6.8 3.4 9.1 9.6 5.6 15 14.5 26 28.2 35.7 3.7 2.6 5.2 6.4 3.3 8.7-.7.8-1.6 1.2-2.6 1.5-10.8 3-39-29.8-41.3-50-.5-4.5 1-5.4 3.3-5.4zm35.2.5c5.7 0 8.5 11.9 5.2 18.1-2.2 2-7-1-11.1-8.9-3.7-6.7-2.2-9.2 6-9.2zm-19.1.1c1.2 0 3.9-.7 5.2 1.2 2.2 12.3 11.5 21.2 19 28.4 1.2 2.3 1.8 7.2-1 8.5-6.4 2.9-26-19.4-26.1-32.2 0-4 1.1-5.8 2.9-5.9zm-24.9 7.9a96.1 96.1 0 0 0 38.4 50.3c10.6 6.8 14.7 10.6 9.8 14a8.4 8.4 0 0 1-2.8 1.6c-24.9-9.5-55.5-45.6-56.5-71 5.4-7 10.2.7 11.1 5zm-86.1 97.6a106 106 0 0 0-42.1 9c-18.2 8.1-22.7 13.6-20 15.6 1.8 1.4 13.5-3.6 19.3-4.4 31.6-7.8 53.3-9.7 73.9-.8 15.9 7 16 3.8 5.3-7.7-7.8-8.4-21.6-11.7-36.4-11.7zm111.2 17.3c10.4-.1 21 2.3 24.9 7.2 3 15.8-5 8.6-11.3 5.4a53.8 53.8 0 0 0-29.4-6.4c-6.3 1-6.5.7-3-1.3 5.5-3.3 13-4.8 18.8-4.9zm-123.7 6.1c-29.8 2.4-40.1 17.4-59.4 33-8 6-6.1 10.7 3.5 9 12-1.9 16.7-1.4 33 4.2 17.7 6 30.4 8.5 40.1 4.8 18.5-7.1 16.9-6-9.5 19.6-14 11.3-8.4 10.7 6 .9 10.5-8.4 17.7-13.8 20-18.4 1-2.3 1-10.3 3-10.3 6.8 0 3.3-8.4-2.8-12-4-2.8-3-5.7 2.1-11.2 8.1-8.6 5.4-12.4-3.5-7.1-1.5.8-2.3-1.8-7.7-5a44 44 0 0 0-24.8-7.5zm21.5 11.2c7.3 6.1 4.2 7.8-11.6 7.6-13.3 0-24.6 1.3-40.4 6.5-18 6-19 6.1-8.5-2.8 14.5-12.4 44-24.8 60.5-11.3zm93.2-5.2a36 36 0 0 1 18.9 3.9c15 8.3 18.4 15.5 1.6 9.6a63.3 63.3 0 0 0-34.4-.4c-10.1 2.8-11.9 3.8-10.5-1.7 1.7-6.7 12.4-11.1 24.4-11.4zM6545.6-110c3.6 17.9 17.2 12 18.5 1.3h5c-2.2 14.3-21.7 26.3-29.3-1.3 1.6 0 8.7.5 5.8 0zm108 .3h3.7c2.5 13.6 15.2 18 20.7 1h4.4c-3.4 28.6-33.6 14.7-28.7-1zm-118.3 1.4c2.4.8 3.5 7.5 3.1 9.3-.8 3.7-12.8-.2-15.3-3.8 2.5-2.7 8.4-6.9 12.2-5.5zm162.6 3v5c-5.5 1.3-7.8 4.4-13 3.4.3-3.2-.2-7.6 2.8-11.3 3.7-2 8.2.5 10.2 3zm-120.4 5.8c-2.5 2-6 2.2-6 2.2-.5-4.8-1.3-10.2 4.6-10.2 4 1.1 3.7 6 1.4 8zm68.8-8c2.1.2 4.6 5.4 4.9 8.5-.6 5-13 3-13-2 0-2.1 5.2-6.4 8.1-6.4zM6533.8 81.8c-9.4-4.7-81.4-48.5-99.8-125.8l-3.7 8c7.8 18.4 19.3 48.5 19.3 48.5-.4-2.6 3 20.2 10.3 58.8-3.9 0-8.2-1.1-12.4-2.2-9.5-35.4-11.7-63-19.7-97.7l-3.5 9.7s10 62 16.8 86.3c-3.9-.4-11-2-11-2-5.7-26.1-10-43.7-15.4-70l-4.9 6.4c7 21.6 9.8 40.8 13.4 61.5-4.9-.8-9.7-1.2-14.3-3.8 0 0-7.3-37.6-8.3-38.2a19 19 0 0 0-3.9 6.4c-.3-.3 6.3 20.9 5.9 29.6-4.7-.8-12.7-3-18.3-5-3 2-4.5 5.3-6.8 8.2 2.8 12 167.9 38 158 28 0 1 72.8 31.9 113.5 5.7 0 0 70.7 52.4 98.3 73.4 0 2.4 9.6 13.5 19.5 20.5l28 21.6c8.2 6.3 11.4 1.7 12.7-10.2 1.3-13.2 11-102.5 13.2-121.6 8.4-64.2 8.4-63.5-1.3-60.5-15 4.5-28.3-1.4-28.3-16.6 0-9.3 4.3-17 14.2-20.7 2.8-1 6.5-1 10.7-1 2 .4 5.5.6 6 .7 4.7-.2-18.5-42.1-18.5-42.1s22.1-39.4 32.7-54l28.6 51.8-23.4 45.7c45.6-3.4 41.2 53.9-3.5 34.7l-.2 15.8c.5-5 .4-9 2-10 43.2 16.4 52-46.7 5.4-43.8 7.7-13.3 16.2-27.2 24.2-41.9l-33.7-61.4-38 63.3 19 39.5c-4.2-1-7.7-.4-12.3 0-28.2 5.9-22.1 51.3 10.1 45a45 45 0 0 0 9.2-3.5l-20.8 185.5s-2 1.6-10.4-4.4c-9.6-7-29.8-22-31.1-23.6 7.2-118.6-22.5-243.3-56.3-321.4-2.2-6-1-123.6-1-123.6l192.1.5.7 546.3c-10-6.4-20.9-14.8-31.2-22-3.1-2.5-5-5.5-3.7-10.3-3.4 7.3-1.3 10.4-1.3 10.4L6903 290l-1.7 537.6s-68.5-35.3-110.6-52.3c-19-7.8-19.9-5.5-19.9-5.5s13.5 30.1 9.6 35.5c9.1 8.8 24.3 27 25 44.8 8.2 7 10.5 8 16.5 18l25.5-9.2-5.8 26.5c27 19 1 44.4-4 42 0 0 12 25.7 14.6 37.3-4.2-.2-25.6-11.9-31.6-14.6-15.5 30.5-41.7 4.9-42 .4l-29 13 10.3-33.2c-18.7-11.3-31.4-28.6-1.1-47l-7-25.9 24.9 9.8s4.6-7.5 8.2-13c-9.4-40.5-70.6-32.8-90.2-69.3 0 0-4.9 45.6-9.8 62-2 43.6-32.5-.5-32.5-46.5 0-10.4 13.1-45.4 17.5-47.1 4.6-.7 48.3 20.5 77.7-.5 13.4-14 36.4-53 14.3-114.2-7.4-14.2 13.9-16 20.8-11.2 0 0 63.9-33.4 92.7-49.5-48.4-26.6-149-97.3-148.9-100.6-13.4 21.3-28.8 39.1-50.4 69.3-35 41.2-62.4 80.4-106.8 113.3-62.5 45.5-77.2 91.3-59.8 145.1 7 23.3 21.3 46.8 44.6 55 11.8 12 59.3 57 59.3 57-79.3 72.2-133.8 131.7-172 197.3 32.2 17 110 41.6 110 41.6-28.9 96-15.7 172.3 3.3 248.9 0 0-225.8.2-343-3.4-1 1-13.7.3-13.9-.5-.4-8.6 21.1-32.1 27.6-28.8 3.3-3.2 10.1-4.9 8.9-8.8-16.2-2-40.7 26-41.7 37.6h-9.6c-2-1.8 17.5-47.2 56.5-50.8-.4 1.6 5.2-3.6 1-5.8-45.5 5.4-66.7 55.9-65.3 56.6h-7a92.8 92.8 0 0 1 79-67.5c.2-.1 7.5-2.7 5.6-7-51.5 9-77.2 31.2-89.6 74.5h-9.3c6.7-43.9 51.8-82.3 102.8-81 1.6-1 3.5-2.2 2.7-7.2-56.6 6.4-84.8 25.2-108 73.8-20.8-54-78.6-79.5-79.3-79.8 0 0-1.4-15 1.8-14.4 49.3 17.8 68.2-25 66.1-49.9-1.1-13.8-.4-21.4-5-41.4-4.1-17.8-7.2-29.7-6.9-37.5.4-7.6 2.8-9.2 8.4-11.7 10.6-4.8 17.2-22.1 14.8-24.3-5.4 12.6-19.7 14.8-26.3 23.3-5.3 7-3 18.1 6.4 56.7 5.7 23.5-1 12.7-14.4 5.3l-9-5c6 6.1 12.4 12 18.5 18 5.4 5 2.4 8-5.5 5.2-11.2-5.7-33-3.3-41.3 3.8-3.3 2.3-4.4 2-5.2 0-3.7-60 2.6-96.9 22.5-142 12.8-30.6 32-53.5 57.4-55.1 25.7-2.2 62.6 6.8 96.2 29.6 39.4 26.8 77.8 67.5 81.9 117.4.1.5 3-4.3 4.3-6.9 1.8-5.9-4.8-23.7-15-44.4a744 744 0 0 0-11.5-61.2c3.2-1.4 10-.6 12 1.7 7.1 30.5 12.3 54.2 18.4 95 .1 4 5.3-5.9 5.3-8.5-1-6-18-86-17.6-84.2.1-2.7 16.1.9 14 3.4 0 0 12.1 67 13 65l4.1-5.7s-11.6-49-10.2-58.4c1-1.4 10 1.5 13 3 3.5 4.8 5.8 22.3 7.3 34.2 4.2 3.2 5-6 4.7-8.4-3-4.7-6.2-22.4-3.8-23.3 1.9-.8 12.2 3.4 14.2 5.1 2.3 2.1 11.3-10.4 9-12.5a497.4 497.4 0 0 0-156.6-30.4c-10.7 0-15-1.4-31.5-7.4-42-15.2-76.8 0-81.9 4.7-51.3-35.6-108.6-85.4-154.2-117.2a23.4 23.4 0 0 0-7.8-2.2c-7.2 55.3-12.3 119.3-18.5 170.3-2.5 20.2-2.8 21.8-1.8 22.4.8.5 2.3-.3 3-.6 15-5.6 28.5-2 35.7 11.6 3.6 19.4-13.3 32.1-31.2 23-6.6-3.5-7.6-2.8-4.6 3.6a2148 2148 0 0 0 20.4 42.3s-20.4 41.6-30.7 53c-10-16.3-23-32.7-28.5-50.5 8-15.4 22.8-35.3 27.6-50.5-.7-.5-4.8-.1-7.6 1.4-26 12.3-30.3-11-30-19.3.8-17 15.6-20.6 37-12.7-23.2-154.2-28.1-242-22.2-232.6 0 0-28-20-42-33.6l-1.2-1123.2 335.5.5c34.2 91.7 24.8 202 4.3 259.4 36.3 6.6 73 15.2 114.4 39-70 102.6-179.9 213.5-298.9 284.5-6.7 3-29-10.8-31.5-24.4-.6-3.2 1.1-9.4 4.7-9.3 8.8 2.8 17.2 6.7 25.8 10.2 0 0-12-29.9-6.2-34.4a51 51 0 0 0 9.2-7c8.5-11 7.9-23.6-1.2-33.2a36.6 36.6 0 0 0-10-7.4s8.4-23.3 12.6-34.3l-33 11c-10.7-14.9-30.4-26.4-45-4.3-2.7 5.8-2.1 5-22.6-4.1-11.6-5.1-18.7-7.8-18.7-7.8 4.3 13 10 25.1 15 40.1-22.8 14.5-17.6 39 1.6 46.3l-10.1 33s21.5-8 33.2-11.1c0 0 10.2 10.3 13.2 20a84.7 84.7 0 0 0 24.5 35.8 166.8 166.8 0 0 1-32.6 19l48.4 19.5c-3-10.2-9.4-17.8-10-30.7-.6-11.1-1.3-11.3-8.4-18.8-11.8-10.1-13.5-23.7-20.1-34.7a38 38 0 0 1-11.7-14.6c-7.3.7-24 9-27.1 6-3.9-4.1 6.7-25.2 5.5-27.3-8.5-.8-32.3-19.3-4-40l-9-33.5s21.6 9.4 32 14.7c7.1-33.6 39.8-17.5 45.1-3 0 0 26-8.6 24.4-1.6-.7 6.2-5 21.7-5 21.7 23.4 20.6 18.6 30.8-.4 44.3-.3 11 4.3 28 4.3 28s-13.2-5.8-21.9-8.3c-3.5 3.5-7.4 9.8-6.8 13 6 26.1 38.1 33.4 85.9 60 1.6-16.8 13.2-39.8 14.6-60 .8-14.9 1.3-15 11.7-10.4 27.3 19.8 19 74 9 96.3-5.9 12.6-6.9 12.3-18.3 8.6-16-5-44-3-59.5 2.3-21.3 8.7-31.4 56.4-31.7 70.9-.3 13.7.7 27.4 8 44.4 3 10.8-2.6 19.2-12.4 16.3-2.2-.6-7.4-2.6-7.4-2.6l-92.3 47.7 17.4 10.2s-12.8-7.7-4.8-11.8l79-41.3c14.8 5.8 12.8 7 22.4-3 5.7-5.9 8.5-6 16.2-5.3 46.6 4.5 67.2-2.3 75.3-21.8 1.2-3 .7-2.9 5.5-5.3 8.8-3.4 13-9.6 13.4-17.4.3-5 2.5-5.8 6.4-9.4 7.3-6.6 8.8-15 4.2-23.6-2.2-4-3.8-5.3-3-9.5 1.6-7-1-14.3-7.8-22-7.7-9-7.7-7.4 7-21 28.7-27.3 54-48.2 81.9-73 19.1-16.8 17-15.6 24.5-7.9a114.7 114.7 0 0 1 25.8 111.9c-.6 1.8-.9 1.6.6 0 7.7-8.8 8-53 1.3-72.5-8-24.1-15.9-36.6-42.6-60.2-16.6-15-62-58.5-62-58.5 66.1-57 137.1-128 177-193.5-20.5-21.9-115.2-42-115.2-42 11.8-24.6 35-134.5-4.9-256.3l340.4 3.9 12.1.8 2.8-1c3.3-.8 5 1.5 4.1 5.2-2.5 9.3-16.1 31-25.8 29.2-4.2-1.6-3 6.6-5 10 15.2-2 33-21.1 37.5-40.2 2.4-4 4-4.7 6.5-4 2.8 1 2 3.6-1 12.9-9.5 23-28.8 44.5-51.2 42.3l-2.9 7.9c30.3-.5 53.6-28.8 60.5-50 4.9-12.6 5-14.4 9.9-13.1 4 3.7 1.5 9 .2 13.4-15.2 48.5-57 61.5-77.8 59.4-2.5-.3-3 2-2.2 6 44.7 3 80.3-35.5 85.3-68.5 2.4-9.2 6.7-12.3 9.1-8.1a20 20 0 0 1 .3 11c-12.2 52-67.8 81.7-101.7 73.2-1.6-1.4-4.1 5.8-.5 8.3 68.6-2.5 89.7-38 105.4-69.1 18.6 28 33.8 57 78.5 74.1 0 0 4.5 9.8 1 12-1.9 1.2-4.7.6-8.8 0-54.5-8.8-72.5 42-49.3 118.1 6.3 20.8 3.5 17.6-10 30.7-6.5 6.2-9.6 17.2-8 17.4 2.4-1.3 3.2-4.8 8.8-9.5 2.5-2 7.6-4 11.3-6.6 10-5.8 10-9.8 6.4-23.6a602.7 602.7 0 0 1-9.6-44.7c0-6 1.4-5.4 8.9 0 10.4 7.8 16.4 7.2 3.7-2.7a53 53 0 0 1-9.5-9c-2-3-.8-4.9 3.3-3.6a59.3 59.3 0 0 0 53-5.6c2.1 50.1-4.8 126.2-46.8 180.6-32.2 36.2-94 8.9-116.8-2.6zm49.4-115.2a26 26 0 0 0-8.5 2.5c-12.4 7.1-9.4 32.3 4 35.6 5.5 1.4 10.4 2.1 19.6-2.2 5.4-2.6 13-4.7 15.2-3.8 4.4 1.9 5.9-2 6.8-6.5 2.2-10-14.2-10.3-27.3 0-16.4 13.1-29-6.1-13.5-20.6 5.1-3.4 5-5 3.7-5zm-127.8 53.8 13.8 16 8.7 38c-5.3 1-11.7-2-11.7-2a469.4 469.4 0 0 1-10.8-52zm188.2 9.5-.4.2c-.6.2-3.2 1.4-6.8 1.8-2 .2-5.1-1.2-7.3-1.1-6 .4-11.7 2.1-13.3 2.8-1.8.7-3.6 1-5.2.1-4.6-2.6-17.7-1.9-21.7.5-4.7 2-10 2-14 0-1.6-.9-3.3-3-3.6-2.8-.6.7-3.2 11.4-4 15.6.1 1.5-1 4-.3 4.2.7.3 3.2-2 6.3-3.5 6.3-3.2 13.3-3 25.6 0 15.2 3.8 21.1 2.7 30.1-2 7.2-3.6 11.5-4.4 16.3-3.1 1.2.3 4.3 2 4.7 1.5.8-.8-1.5-5.3-3.4-9.8-1.5-3.2-2-4.5-3-4.4zM6479.5 47c13.3 12.7 12.3 11.6 20.8 17.9l-.5 12.2s-10.3.2-15.4-1.4c-1.6-4.7-8.5-28.6-5-28.7zm109.9 8.2a21 21 0 0 0 4 2c21.3 7.9-1 5.9-3 13.5 0 .7.9.8 2 .4a83.5 83.5 0 0 1 33.2-3.2c10.5 3.6 11.2 1.1 1-4.2-7.4-2.9 1.6-4.9 4.7-7.4 6.2-4 2-5.7-6-2-8 4-22.3 3.9-28.8.2a27.3 27.3 0 0 0-7-2.9c-2.8 0-1.3 2.8-.1 3.6zM6505.6 69l12.5 9.7-12.7-1.2zm-282 244.6a4.6 4.6 0 1 0 0 9.1 4.6 4.6 0 0 0 0-9.1zm16.6 4.6-57.1 27.1 15 5V366l13.9-4.4 5.9 14.6zm2.5 12.8a4.6 4.6 0 1 0 0 9.1 4.6 4.6 0 0 0 0-9.1zm-72.4 27.7a4.5 4.5 0 1 0 0 9.1c2.5 0 4.6-2 4.6-4.5 0-2.6-2-4.6-4.6-4.6zm17.6 8.5-64.1 29.5 19 5.7-5 19.6 15.4-6.5 8.7 13.1zm1.9 14a4.6 4.6 0 0 0 0 9.2c2.5 0 4.5-2 4.5-4.6 0-2.5-2-4.6-4.5-4.6zm-127.2 3c24 0 51.1 9.1 60.3 29.7 2.5 10.4-7.6 16.5-29.3 10.6-35.8-9.8-42.5-11-36.5-4.9.7.8 2.3 2.8 7.7 4.6 13.5 4.6 39.6 10 46.6 9.2 9.6-1.3 16.3 3.2 13.9 11.2-2.7 9.1-15.2 12.9-34 10.2-19.5-2.7-30.2-5-36.6-7-8.3-2.4-8.6-2.2-4.7 3.6 2 3 2.2 5.5 5.3 6 12.8-.7 26.5 1.8 38.3 2.9 21.2 1.9 24.5 7.9 9 17-7.4 4.4-29.5 3.2-42-1.3-9-3.2-29.5-7.8-21.6-1.6 2 1.5 1.3 5.2 4.6 6.4 10.8 1.5 41.5 3.6 46.3 8 3.1 2.7-3.8 9.8-18.2 13.5-21.5 4.1-53.8 2.4-62.3-3.4-15.8-32.1-7.3-84.7 17.4-105.2 7.9-6.2 21.3-9.5 35.8-9.5zm141.3 16.7a4.5 4.5 0 1 0 0 9.1 4.5 4.5 0 0 0 0-9zm19 4.9-66.1 33 16.7 5-4 19.2 15.6-6.4 9.4 13zm.6 16.1a4.6 4.6 0 1 0 0 9.2 4.6 4.6 0 0 0 0-9.2zm38.5 38.9c-29.4 28.6-62.4 51.2-92.7 79l6.6-.3 16.4-14.9 463.8-1.4-10.8 15.8 4.5 2s14-20.6 13-21.6c-102 .3-180.6 0-292.3.9-20.4-20.2-42-39.1-63.2-58.3zM6121 479a4.6 4.6 0 0 0 0 9.1c2.5 0 4.6-2 4.6-4.5s-2-4.6-4.6-4.6zm605.5 3.5c40 29.7 87.5 66.2 126.9 87.8 15.8 6.9 14.2 9.2-1.8 16.8-15.8 9.8-42 22.4-63.9 33.4-9.4 3.6-13.6-1-20.3.2-4.8 1.2-6.2 2.1-9.1 6-4.8 6.2-3.5 6-28.8 4.9-25.6-1.2-36.1-.6-41.6 2.2-5.3 2.7-14.3 11.9-14.3 15.7 0 3.7-3 8.4-8.2 10-6.1 1.5-13.2 6.3-12.9 13.8-1.6 5.7-5.1 8.2-8.2 11.3-7.3 7.4-6.5 13.2-4.4 20 1 3 2.4 2.3 1.7 11.4-1.8 20.7-3.2 19 19 34.3l-113.3 98.6c-2.6 2-3.3 1.9-5.7.2a89.7 89.7 0 0 1-29-44.1c-19.1-52.7 4.2-96 35.3-122.5a487.4 487.4 0 0 1 29.2-22.8c58.5-49.9 109.3-120.5 149.4-177.2zm-588.6 3.9-64.7 30.5 20.8 3.5-4 18 15.2-5.7 8 15.2zm4 14.2c-2.5 0-4.6 2-4.6 4.6a4.5 4.5 0 1 0 4.6-4.6zm593 20-7.3-17.3s-20.4 50.4-24.8 67.4c17.4-9 68-34.7 68-34.7l-21.6-4 2.4-19.8zm-739.3 3.2a4.6 4.6 0 1 0 0 9.1 4.6 4.6 0 0 0 0-9.1zm19.8 4.1s-48.1 22.6-69.9 32.4l20.3 4.2-3.5 19.8 18.3-7.2 7.4 19.5zm2.6 15c-2.5 0-4.5 2-4.5 4.5s2 4.5 4.5 4.5a4.5 4.5 0 1 0 0-9zm681.6 3.2a4.5 4.5 0 1 0 0 9.1 4.5 4.5 0 0 0 0-9zm78.7 4.1-23 63.8 62-31.3-16.8-4.6.1-15.7-13.8 4zm-732.6 15.4a4.6 4.6 0 1 0 0 9.1 4.6 4.6 0 0 0 0-9.1zm678 1.1a4.5 4.5 0 1 0 0 9.1 4.5 4.5 0 0 0 0-9zm-659 4.7-65.7 32 20.4 4.8-2.3 20.5 16.6-9.4 9 18.7zm4 13.5c-2.4 0-4.2 2-4.2 4.6a4.5 4.5 0 0 0 9 0c0-2.5-2.2-4.6-4.7-4.6zm683.2 4a4.7 4.7 0 0 0-4.6 4.6c0 2.5 2 4.6 4.6 4.6a4.5 4.5 0 1 0 0-9.1zm-90.5 21-6.1-17.1-24.4 62.9 65.4-30-20.7-4.8.3-16.5zm-66.4-13.5c-.8 0-1.5.2-1.5.6 0 1.5-16.7 17.8-16.7 17.8l-192.9 1.8c.4 0 16 4.4 16 4.4 25.4 20.2 65 56 65 56l48-1.9c26.5-26 66.3-45.8 84-78a3 3 0 0 0-2-.7zm180.8 13c-2.5 0-4.6 2-4.6 4.5a4.5 4.5 0 1 0 4.6-4.6zm-149 21.9zm98 6.6c13.8 0 27.1.4 30.6 3 21.4 18 11.2 102.1-15.7 112.8-29.6 6.6-50 7.8-75.7-9-7.3-3.6-21.7-14.3-18.9-23.2 3.9-10.9 14.4-10 44.7-.7 11.1 3.5 17.2 2.8 20 .6 2.6-2-.8-4.2-6.5-4.2-2.2 0-12-2.5-20.2-5-11.5-3.5-14.9-4.6-22.3-5-12.6-.8-16.2-1.2-16.2-9 0-14.2 20-16.1 56.6-7.7 4.4 1 12.3 2 14.3 2 1.4.6-2.8-4.7-3.5-7.9-1.4-1.1-3.7-1.6-10-1.9-23.6-2.3-43.1-3.9-43.5-7-2.1-15.1 28.4-19.2 60-7 8.1 3 8.3 1.8 8.2-.6-.1-4.4-13.7-12-33.7-11.8-19.5.2-16.8-9.7-.8-17.2 5.5-2.5 18.8-1.1 32.6-1.2zm-75.4 16.2c-2.6 0-4.6 2-4.6 4.6a4.5 4.5 0 1 0 9.1 0c0-2.5-2-4.6-4.5-4.6zm-70.3 31.5-4.1-17-26.6 66.1 67-34-22-4.2 1.9-14zm-34.2 26.6a4.6 4.6 0 0 0 0 9c2.5 0 4.6-2 4.6-4.5s-2-4.5-4.6-4.5zm66.8 18.7-5.6-16-22.6 57.5 57.2-25.5-16.9-4.6 2.4-17.5zm-45.5.2a4.6 4.6 0 0 0 0 9.1 4.5 4.5 0 0 0 0-9.1zm14.6 22a4.5 4.5 0 1 0 0 9 4.5 4.5 0 0 0 0-9zm-28.7 13.5-19.3 54.5 53.7-26-15.7-5.2s.9-12.3-.6-11.7c-1 .4-11 3.2-11 3.2zm47.8 6.5a4.5 4.5 0 1 0 0 9c2.5 0 4.6-2 4.6-4.5s-2-4.5-4.6-4.5zm-71.2 26.2a4.6 4.6 0 1 0 0 9.1 4.6 4.6 0 0 0 0-9zm20.5 21.1a4.5 4.5 0 1 0 0 9.1c2.5 0 4.6-2 4.6-4.6 0-2.5-2-4.5-4.6-4.5zm-283.5 251.1c-2.4.4-8.8-5.5-10-8.2 3.6-1 7.3-.3 9.4 1.4 1.7 1.6 2.9 5.8.6 6.8zm19.5-4c-.9 6.7 3.2 18.8 2.5 21.6-2.2 1-12.8-10.4-15.5-13.2-.5-3.8 0-8.6.3-10.8 3.6-.7 10.2-.4 12.7 2.5zm19.2 3.4c2.3 14.7 8.8 38.5 7.8 46.5-1-.8-9.2-9-15.3-17.5-2.1-5.2-5.5-23.2-5.2-31.8 4.1-.5 9.6.1 12.7 2.8zm-129-1.7c-6.5 3.4-14 5.8-23.4 5.7-7.5 0-20.5-3.9-19.2-3 3.5 6.2 12.4 3 12.6 7-2.2 4-8.2 3.6-11.1 7.4-.7 1 .8 1.8 5 1.4a63.1 63.1 0 0 1 44.5-.7c3.2.7 1.1-2.4 0-3.2a19 19 0 0 0-8-3.3c-13.2-2.4-7.4-3.7 1.5-7.7 6.5-2.3 8.2-8.2-1.8-3.6zm28.8 18.8c-1.7.1-6.2 2.4-11 4.3-8.2 3.3-15.8 2.5-26.8-.5-9.5-2.7-13-2-22.5 2.9-6.3 4-13.2 5.1-18.2 2.3-6.5-3.7-6.5-2.4-3.3 6.7.8 2.3-.8 9.1 2 10.7 2.2 1.2 4.7-2.8 6.4-3.3 1.6-.6 12 4 17.9-1 10.3-3.8 13.5 2.3 20.6 1.7 11.7-4.1 19-8.4 29-.5.6-3 3-19.2 6.7-23-.1-.3-.4-.4-.8-.3zm-21.2 46.8c-8.4 0-13 5.2-23.8 4.2-8.7-.6-11.6 7-8 12.7 2.6 4 6 4.6 17.9-.8 4.8-2.2 11.6-7 15.5-6.7 11.5 1.2 14.3 12.3 4.7 21.7-4.7 2.8-4.7 5.8-3.3 5.8 3.8.2 11.5-4.4 13.2-9.7 4.8-14.4-3.8-27.5-16.2-27.2zm37.6 66.7a66.4 66.4 0 0 0-32 23c-5 7.8-9.8 16.8-6.3 21.2 2.9 3.6 6.9 7.1 7.2 9.1.3 1.7-2 3.4-4.2 5.9-9.6 10.7-7.3 11.3 6.1 4.3 6.9-3.5 10-5 14.5-3.7 13 3.3 29 1 40-3.1 5-1.8 9.9-4.3 10.3-3-20 22-45 16.5-54 15.1-1.5-.4-2.7-.3-2.7.2 0 1.1 2.6 3.4 8 5.9 9.3 4 31.4-.3 45.2-10.4 27.4-17.9 42.4-35 20.9-27.8-9.9 3.3-13.6 2.7-25.6-2.7-18-8.2-31.8-10.5-46.7-5.3-18.9 6.5-4.4-9 16.9-22.5 4.6-3 5.1-6.3 2.4-6.2zm-101.8 46.5h-6.3c-4.5-15.1-15.4-15-20.1.2l-5.3-.4c5.2-19 24.7-22.8 31.7.2zm112 1.2-4.7.2c-2.9-9.1-13-17.2-20.1-2.2l-3.3-.7c5.8-24 29-10.6 28 2.7zm-31.5-13.8c2.9 0 3.6 3.4.3 8.8-2.4 3.8-5.2 3.5-8 .6-2.5-2.6-2.4-3 .4-5.5 3-2.7 5.5-3.9 7.3-3.9zm34.8.1c1.3 0 3.7 1 6.4 2 7.2 2.4 8.8 4.4 6 7.3-3 2.9-8.5 3.8-11 2.1-.1-3.6-3.7-6.4-3.8-10 0-1 1.1-1.4 2.4-1.4zm-112.5.1c5-.2 11.7 2.7 11.2 5.6-.5 3.2-5.5 5.2-9.5 5.6-2.7.3-2.6-.8-3.3-2.7l-2-5.6c-1-3.3 1-2.8 3.6-2.9zm-34 1.1s-2.8 8.3-4 11.1c-10.5-.5-9.5-5.1-4.6-8.4 2.7-2 5.4-2 8.6-2.7zm-8.1 19.7c1.9 0 4.2 1.7 7.5 2.8 9.2 3 24.5 2.6 36.5-.2 5.7-1.3 8.4-3 9.7-2.2 2.2 1.7 0 7.3-8.4 11-10.7 4-27.1 6-39.6-.3-10.6-5.4-11.8-11.2-5.7-11zm-2.8 12a46 46 0 0 0 31.5 7.3c18.1-.7 21.3-3 6.1 5.1-14 7.5-35.7 6.1-40-2-2.3-4.6-.8-10.1 2.4-10.5zm87.5 10.7h-.1c1.4 9.8 17.8 18.7 25.7 20.8 16.6 7.4 43.1.1 63-8.5 14.6-6.3 19.9-15.8 2.5-10.4-27.9 8.7-63 9.4-80.5 2.6a57 57 0 0 0-10.6-4.5zm-91.9 36.5c35 8 77.2 61.8 77 85.4h-11.2c-17.2-60-61.8-73-66.2-76.5-2-7.4.5-9 .4-8.9zm-.5 15.2a110 110 0 0 1 62.5 70.2h-12.1c-9-26.9-25.3-46-50.5-58-1.7-3.7 0-12.2 0-12.2zm0 18.4c21.2 6.3 40 34.3 45.3 51.8h-10.6c-7.6-19.6-18.2-32.1-35.2-39.3a32 32 0 0 1 .4-12.5zm-.4 19c10 2 26.9 17.6 29.3 32.8h-9.7a55.4 55.4 0 0 0-19.5-23.5l-.1-9.3zm1 16.3c1-.7 16 12.7 13.5 16.5h-13.5a291 291 0 0 1 0-16.5z" style="fill:#131f67;fill-opacity:1;stroke-width:3.18132639" transform="matrix(.16367 .00026 -.00029 .15104 -927.6 798.6)"/><path d="M6453-269C6427.5-220 6297.6.8 6296.2 8.5l33.3 14.7L6491.2-268s-33.5-1-38.3-1zm381.4 184.4-15 21.2 12.8 23.3 13-23zm-593.6 221.7s-46.6 46.3-64.8 67.9c39.2 39 114 88 114.5 163.5l51.6.2 167 149.3s151.2 1.1 154 .5c3-.7 56.8-77.6 56.8-77.6l95.8 69.8s-4.6-75.2-8.2-121.3c-1.2-30.8-2.2-49.8 20.3-63.4-31-14.8-29-42-6.2-61.9-7.6-10.4-18.8-12.3-20.5-49.1-4.7-5-9.2-8-15.1-12.4l-6.2 5.6c-19.9 17.8-33.4 36-35.7 47.9-4.2 22.5 18.7 38 32 21.5 3.7-4.7 7-3.4 7 2.7 0 12.3-15.5 19.3-28.6 12.9-3-1.5-5.7-2.5-6-2.3-.5.5 13 33.5 16.6 40.8 6 12 9.2 24.2 9.7 37 .5 13.5.2 15.2-6.1 38.7-6 22.1-3.2 35.3 7.5 35.3 6 0 5.9 5.7-.2 7.9-13 4.5-21-5-21.4-25.4-.3-12.4-.5-12.7-6.9-9.7-22 10.4-46.1-8.2-35.7-27.6 2.2-4.1 4.8-2.8 6.1 3 2.6 11 8.3 15.8 18.6 15.7 24 0 34-33.8 20.1-67.7-2.7-6.8-4.1-6.5-7.7 2.2-5.7 13.5-15.3 17.5-23.1 9.6-2.7-2.6-4-7-2.2-7.1l5.9-.3c13.9-.4 18.7-14 12.1-34.2-5.7-17.8-6.6-21-8.3-30.7a59 59 0 0 1 6.6-40.8c1.3-2.5 9.5-11.6 19.6-21.9 10.4-10.4 19.3-18.4 19.3-18.4s-5.3-4.6-12.4-9.9l-17.6-13.2s-71 195.1-66 271.1c-9 100.2-82.6 72.5-88 3.1zm-3.1 29.2c24.2-.4 40.2 31.7 49.4 98.4 3 22 16.5 53 26.2 60.3 24.7 18.4 63.2 4.2 63.3-23.3 0-34.3-48.1-39.4-48.9-5.2-.2 8-4.3 8.5-8.3.8-3.5-6.8-.3-19.6 6.6-26 4.4-4.2 4-5-4.4-9.6-29.3-16.2-41.7-40.3-26-50.6 6.8-4.5 16.1 1.2 11.8 7.2-6.7 9.5-6.8 11-1.1 18.8 6.3 8.9 13.9 13.3 31.8 18.6 15 4.5 17.5 5.3 24.5 8.5 20.3 9.2 29.6 29.6 22.5 49.5l-3.6 10.2c-.8 2.2.4 2.2 14.7.3 22.8-3 48.1 5 60.6 19.5 6.7 7.7 12 25 12.3 39.5 0 2.8.9 9.1 1.9 14 1 5 2.4 13.2 3 18.5 6 49.5 47.3 74.9 65.1 40 11.2-22-14.7-44-28-23.8-4.6 7.2-9.3 3.9-6.7-4.6 5.2-16.5 25.8-19.3 39.8-5.4a39.3 39.3 0 0 1 7.5 35.3c-1.9 5.7-1.7 6 2.5 4.6 9.4-3.3 25.7-.1 31.5 6.1 13.8 14.7 11 32.4-5.9 38.1-7.7 2.6-16.4 0-19.3-9-1.2-6.5 3.2-8.4 6.6-2.8 6.4 10.3 20.4 2 17-10.3-3.7-13.9-15.6-16.8-37.5-9.3-35 12-46.2 11-62.9-5.6-12-11.8-16.4-22-19.6-44.7-3.6-25-3.9-25.6-10-20.3-29.6 25.1-68.6-12.8-43.6-37.8 7.7-7.7 13.4-1 6.5 7.6-10.2 12.7 3 30.3 19.7 26.2 30.2-7.5 24-51.7-8.7-62-10-3.2-37.4-2-58.4 2.7-58.9 13-84.9-12.2-97-93.5-1.4-9.6-3-16.6-8.6-37-6.7-24.3-29.2-37.5-41.5-24.3-9.8 10.5-4.7 24.7 9 24.8 13.6 0 9.4 9.3-4.8 10.6-24.6 2.2-28.9-38.8-5.2-50.6a38 38 0 0 1 16.2-4.4zm-321.3 15.1 7.6 29.2 30.4 8.6-9.6-27.8zm78 8.7-8.2 26.4 23.1-5.6 7.5-27.5zm250.3 43.2a8.7 8.7 0 1 1 0 17.5 8.7 8.7 0 0 1 0-17.5zm-293.3 15.8-24 8.4-4.6 20.9 25-6.5zm57.2 6.6-19.6-3.4 5.5 21.6 20.8 8.5zm850.8-1.7-12.6 9.9c36.7 31.9-3 62.7-4.2 60.6 26.6 17.5 21.8 45.3 18.4 70.7-6.3 45.2-8.7 88-15.6 134.5 0 0 32 22 53.3 30.6.4 0 .1-272.3.1-272.3zM6406 295a8.7 8.7 0 1 1 0 17.6 8.7 8.7 0 0 1 0-17.5zm-537 22.6 1 254.1 52.7-94-36.2-41.8 31.3-33.4zm512.3 38.7a8.7 8.7 0 1 1 0 17.5 8.7 8.7 0 0 1 0-17.5zm119.4 26a8.8 8.8 0 1 1 0 17.5 8.8 8.8 0 0 1 0-17.5zm342.1 283.1 38.7 39.7-30.2 37.6 47.5 80.6-.8-249.5zm-974.3-83.5 1.8 273.4 41.4 30.1 10.4-9.9c-26.6-28.4-10.7-49.6 9.4-61.9-35.5-8.2-24.7-55.3-22.6-77-.8-40.5 14-86.7 9.4-125.6zm238 38-59.2 82.6s-65.1-49.3-98-71.6c3.6 35.6 6.8 81 11.2 119.4 10.6 55.9-17.1 56.8-17.4 62.2 44 33.4 7.1 64.7.5 63.1 23.4 12.8 21.5 51.6 21.5 51.6l11.1 6.2s3.6-2.2 5.2-3a98 98 0 0 0 35.7-44.2c7.5-25.6-14.6-46.7-28.6-27.4-6.8 9.6-12.3 3.2-6.7-7.8 5.1-10 18.5-15 27.4-10.2 5.2 2.7 4-4.5-4-24.5-2.7-6.8-4.8-14.1-8.6-29a86.6 86.6 0 0 1 4-49.5c9.2-25.6 6-41.6-8.6-43-7.8-.7-8.7-3.1-2.3-6.7 14.2-8 28 3.4 27.4 22.8-.3 10.4-.2 10.6 5.3 8.4 28-11.2 50.1 17.8 30.5 40-6 6.9-9.7 2.6-5.8-6.6 6.1-14.1.3-24.2-14-24.3-20.5-.1-32 28.4-23.8 59.7 2.5 9.8 2.9 10 9.7 3.4 6.1-5.8 10.7-7.7 15.4-6.2 9.8 2.9 12.3 13.3 3 12-16.1-2.2-20.4 14.6-11.3 44.6 12.1 39.8-.1 72.2-35.8 95.3a87 87 0 0 0-4.7 3.4 240 240 0 0 0 40.8 30.3l65-262.7s-1.1-15-2.7-22c0-70.5 65.7-77.2 86.3-13.2 2 6.2 12.5 21.9 12.5 21.9l342.5 304s64-61.9 63-63.5c-48.5-49-114.1-83.6-116.5-161.3-11.7-.3-50.6.4-50.6.4l-166.5-152.8c-52.3.4-98.7-3.4-152.9-1.8zm93.3 5.8c9.2-.3 18.4 4.4 18.4 12 0 6.6-4.4 8.1-8 2.8-5.2-7.5-11.1-8-17.1-1.7-16.7 17.6 9.2 33.6 39 24.2 18.4-5.8 27.2-7.4 34-6 28.2 5.6 41.8 24.7 44.2 61.8 1.2 18.8 1.2 18.7 9.3 11.3 19.9-18.2 48.6-8.1 53 18.7 2 11.5-10.4 26-22.2 26-4.6 0-3.9-4.9 1.1-7.2 12-5.7 12.4-24.6.8-32-15.4-9.8-35.7 5.5-35.5 26.7.3 25.4 19.3 37.2 56.9 35 5.5-.3 19.3-1 30.7-1.4 17.9-.8 37.2-4.2 55.5 9.6 19 15.3 31.8 45.5 37.2 89.3 8.6 53.8 15.2 68.2 33.3 69.5a19 19 0 0 0 19.8-19c0-7.5-9.9-14-17.4-11.6-9 3-11-6.8-2-10.5 12.4-5.2 27.5 4.8 30.9 20.3 2 9-8.3 26.5-19 30.8-28 11.3-48-11.8-54.5-63.5-4-23.8-6.2-39.8-13.6-60-13.6-37.4-35.9-52.8-60.2-41.6-27.5 12.6-22 53.8 7.1 53.5 16 1.3 19.4-10.5 19.7-23 .4-9.4 11-.6 11.8 5.8.9 7.7-6 17.3-12.2 21.9-10 6.6-6.4 6.2 3.7 8.9 27.3 5 47.6 41 31.3 53.3-8.5 5.2-17.5-2.4-11.6-9.9 9.3-11.8-6.5-30.6-35.3-37-37.7-8.2-52.7-36.2-39-65 4.4-9.6 4.8-9.4-13.6-8.4-40.4 2.3-54.8-3.3-68.4-26.7-4-7-5.9-16.5-6.8-35.3-1.5-33.7-4.6-54.5-8.8-60.4-21-29-64.8-20.4-59.3 11.8 2.9 16.8 20.3 22.3 32.2 10 9-9.3 13.2-.7 4.4 9-21 23.4-57.9-3.9-47-34.9 2.6-7 2.9-6.8-10.7-7.2-30.1-.9-44.5-26.7-25-45a20 20 0 0 1 13-5zm72.8 110.7a8.8 8.8 0 1 1 0 17.5 8.8 8.8 0 0 1 0-17.5zm121.2 31a8.7 8.7 0 1 1 0 17.6 8.7 8.7 0 0 1 0-17.5zm-26 57.2a8.7 8.7 0 1 1 0 17.5 8.7 8.7 0 0 1 0-17.5zm385.2 34 5.5 25.9 20.1 5.3-3.1-22.2zm70.2 9-.4 15.3 17.9 2.1 6.3-26.4zm-299.9 23.1a8.8 8.8 0 1 1 0 17.5 8.8 8.8 0 0 1 0-17.5zm256.6 35.7-21 5.8-10.1 29.2 26.9-9.8zm41 2.6 2.6 21.6 25.9 11.7-8.8-30.8zm-381.3 184.2L6279 1403.4l43.9-.6 151.6-273.8zm-505.1 70.3-14.2 19 13.5 22.2 15.4-22.2z" style="fill:#d40000;fill-opacity:1;stroke-width:3.18132639" transform="matrix(.16367 .00026 -.00029 .15104 -927.6 798.6)"/><path d="M1809.5-44.6c29.6 89.7 32.4 178 6.7 263 14.6.7 78.4 17 113.5 38.7-6.5 16.7-106 139.1-173.6 194.3 19.2 19 40.3 38 62.6 59 33.6 31.9 45.4 53.8 47.6 95.2a115 115 0 0 1-20.1 62.1 140.6 140.6 0 0 1-40.4 37c-18.9 12.4-46.5 39.4-81.2 79a927.6 927.6 0 0 0-54.1 69c-7 9.6-27.6 39.5-27.6 39.5-68.8-56.2-142.5-99.5-144.3-99.1 0 0 74.3-39.6 89.9-47.7 12 7.7 28.3 1.1 20.5-15.8-15-38.6-4.6-78.3 14-106 4.3-6.8 15-10.6 32.2-11.9 7.5-.4 15.4-.2 23.3-.3 2.9 0 10.6 1.1 14.8 3.4 14 7.7 16.9-2.2 25.6-35.4 8.8-33-5.3-74.8-25.3-75-4.7 0-7.3 1.7-6.3 13.5.7 8.9-1.5 13.5-3.7 19-5 12.3-7.7 24.2-9.3 40.2 3 .6-18.5-21.4-52.4-30.1-22-2.6-33.2-30-32.2-30 0 0 3.3-7.5 6.1-10.4 7.6 3.6 15 7.8 23.9 10.4 0 0-2.1-11-2.9-14-4-15.2-3.9-17.6 2-20.8 14.7-7.8 16.2-22 4.8-34.7a23.9 23.9 0 0 0-9.2-7l7.2-28.8s-6.6 1.4-11.9 3c-15.3 4.7-14.1 4.8-20.7-2.6-14.2-16.2-35.9-13.1-39 5.6l-1.4 5.3-32.7-15.8a343 343 0 0 0 9.5 33.5c-28.6 22.2-4.4 41.9 3.3 44 0 0-6.6 21.2-9 30l32.3-9.2c2.7 6.1 6 10.8 12.7 15.1 1.8 18.1 15.8 32.7 25.4 41.5 0 0 1.4 6.7.5 10.9-2 10.5 8.7 27.2 10.5 28.2-44.2-18-90.3-39.8-134.8-61l2.8 546.8s10.3 9.2 30.9 24c9.8 7 9.8 7 7.8 15.2-2.7 10.8-2 19 7.1 89.7 4.9 37.4 10.1 76.2 14.9 111a187 187 0 0 1 2.1 20.8c-9.8-4.5-24.1-5-31.5 3.3-12.7 14.5-2.5 38 16.4 37.4 4.2-.3 7.2-1.5 10.9-4 2.5-1.4 5.2-.2 5.2-.2l-28.2 49.5 32.4 54.7 32.4-58.5-23.6-46.2s2.3-.2 5.5 1.4a30 30 0 0 0 10.4 3c16.4 0 19.8-7.4 21.5-21 0-17.3-13.8-25.1-32.8-18.6-3 1-6.2 1.3-6.2 1.3l19.9-190.7 10.7 7.9 3.5-2-9.4-8c2-30.5-8-41.3-19-48.7 36.5-20.7 20.7-53.4-3.5-63.5 0 0 15.7-9.2 18.9-18.9 2.7-8.6 1.7-22.2-1.4-46.5a3588 3588 0 0 0-10.3-114.6c31.8 24 64.5 49.6 95.2 73.9l61.6-85.6 148.3 1s112.8 102.4 169.6 154.6l49 .5 1 8.7c4.7 50.6 38.6 85.3 69.4 109.6a3006 3006 0 0 1 43.7 41l-57.6 58.2-353-315.4s-1.8-4.6-2.5-7.4c-8.1-33.4-30.2-47.4-50.4-45-21 2.4-39 23.2-38.2 58.6.2 5.5 2.1 15.2 2.1 15.2l-64.5 268.6s-25.8-19.7-39.7-29.1l-3 1.7 37.7 28.4 2.8-1.2 10.7 8.4.9 5.7c33 22.5 89 64.4 89 64.4 26.4-19.7 54.2-13 82-5.7 0 0 20.3 6.8 31 6.7a470.7 470.7 0 0 1 154 30.2l-185.3 328.5 353 .8c-17.4-68.8-35.9-138.6-2.8-256-34.9-7-112.3-38-112.3-38s-.3-1.7 3-5.7c14.3-20.5 50.4-76 84.4-108 4-3 63.2-60.3 63.8-62.1.3-1 1.7-5 4-6.4 5.5-3.7 20-17.4 20-17.4l-74-64s-3.3-.4-4.3-1c-10.3-5.8-29-38-33.6-59.6-10.5-49.6 9-88.8 64-129 53.7-36.9 155.6-179.7 156-182.8 54.9 45.4 97.7 69 146 98.8-29.1 16.8-53 28-73.4 39-13.2 7.6-15 9.2-26.2 6-12.7.1-17 5-13.8 16 19.2 30.3 11 101-15 114.6-22.6 11.8-44.5 8.6-62.6 2-14-4.6-13.8-4.6-20 8-13.8 29.3-14.7 53.9-2 81.9 10.4 22.5 25.8 32.7 27.7 2.4 1.1-17.8 9-38.6 8.7-57.7a91.4 91.4 0 0 0 52 32.4c17.4 2.7 35.8 24.4 35.2 33.3-4.7 4.8-6.2 11-7 10.5a554.5 554.5 0 0 1-26.7-10.5l7.8 27.5s-1.3 1.2-5 3.1c-17.2 8.8-16.1 32.5 2 42 3.6 2 3.9 2.8 2.3 8-2.2 11.2-7.2 18.8-9.8 30 0 0 2.4 0 23-9.5l8.1-3.7 5 5.2c10.6 11.4 23.4 11.3 34.6-.2l5.1-5.3 14.3 7.3c13.5 6.8 17 8.2 17 8.2s-7.7-30.2-9.2-33.6c-.7-1.9-2.3-3.8-3.5-4.2-2-.7-1.6-1.2 3.5-5.2 13-10.3 14.3-24.5 3.2-35.3-4.2-4-4.7-5-4.7-5l6.7-28-27.9 9.3a30.8 30.8 0 0 0-15.8-15.5c-.4-12.6-2-25.6-23.7-45.3 7.3-6.7-1.4-22.8-8.5-32.4 12.2 4 42.7 17 42.7 17l4.6-.2 14.5 7 1.8 2.6s45.8 21.6 66.8 31.7c0-1.1-.2-23.8-.2-273 0-148.5.2-270.7-.1-271.5a365.5 365.5 0 0 0-34.4-25.5c-10-6.5-9.2-6.5-7.2-14 2.3-8.7 2.3-20.7-.8-43-2.3-16.5-10.6-74.6-16.4-121.4a939 939 0 0 0-6-45.4c-1.7-13.3 0-19.1-.2-19.3 46 19.9 49.6-46.2 3.5-37.3 8.8-17.8 16.3-26 23.8-45-9.6-20.8-31-55.8-31-55.8l-33.6 58.7 19.8 40.6c-22.8-4-35 12.5-30.7 27.4 4.6 13.2 17.2 17 28.4 11.6 8.6-3.4 8.6-4.2 1 60.2-2.3 19-12.3 108-13.7 121.3-1 9-1.5 11.4-5.1 9.4-5-2.1-7.7-5.2-12.7-8.4l-2.7 2.5c4.4 3.6 9.6 8.2 14.9 13-1.3 23.6-.8 37.3 18.9 48.8-35.6 22.3-14.8 56.6 6 61.6-12.4 3.2-24.7 19.2-21.7 51l10.1 131.3-96.5-71.6-56.6 81-149.2.2-168.3-151.9-52-.8c1.7-.8-3.2-47-27.5-77-26.5-31.6-86.7-83.5-86.7-83.5l63.3-64.3L2198.2 692l2.6 13c11.9 50.4 69.3 53.5 81.5 2a138 138 0 0 0 3.5-30 124 124 0 0 1 4-18.7c19-74.9 35.3-139.5 54.1-211.4 2.6-9.9 5.3-21 6.1-24.5 3.1-14.6 2.6-14.5 18-3 9.3 7 13.1 9.6 13.1 9.6l3-3.1c-10.5-8.1-28.4-21-28.4-21l.1-5.6c-57.6-41.3-69.5-52.3-103.7-79.3-26.4 23.3-64.3 13.8-88 5.6-6.1-2.4-21.1-6.3-21.1-6.3a503 503 0 0 1-160-27.4l189-336.5h-73l-2.6 2.8h-38v-2.8zm697 1107c0 .1 0 0 0 0zM2025-37l25.8.5-153 272.9-16.2-6.4s1.5-.7 1.5-12.3c0-12.3-2.7-17.6-8.3-24.9-4.6-6.3-6.6-6.6 7-4.7 28 3.8 47.7-26.5 36.7-50.2-4.3-9.1-3.7-9.7 7.6-10.8 31-3.1 43.2-42.6 21.2-62.2-4.6-4.1-2.5-6.8 6-5 26.9 5.9 47.7-24 37-47.3-3.5-6.6-.3-7.6 4.6-8.3 23-5.4 30.9-23.5 30-41.3zm-206.2 0h119.8c-16.1 24.7 12.3 39.3 15.9 37.6-25.8 14-18.7 34-5.3 40.8 13 6.6 32.4.6 27.2-28l6.4-2.8c6.3 7 12.5 50.7-35 44.6-8.5-1-13 6.8-6 11.2 37.5 43.1-21.2 62.2-23.8 55l-.2-7.3c15.9 3 36.2-17.5 18.4-35.7-10.1-10.4-39.5-5.3-34.5 26-17.4-25.9-36.3-18-41.4-4.3-4 10.6 1 25.1 18.4 27.6-19.4 16.2-10 34.3 3.3 38.3 14.7 4.4 29.7-1.6 25.6-28.2.3-2.6 5.4-1.8 5.8-1.9 15.2 37.9-21 51.8-40.7 44-7.2-2.8-11 8.3-3.3 14 11.7 8.7 8 33.6 6.7 33.8-21.8-8.2-53-14.3-51.8-13.9a468.1 468.1 0 0 0-5.5-250.8zm191 0h10.7c.2 15.6-6.5 34.6-33 37.6a49 49 0 0 0-1.2-12.5c9.9-2.2 23 .5 23.4-25zm47.1 1h34.6L1929 252.5l-26-13.3Zm-85.2 21.8a11 11 0 1 1 0 22 11 11 0 0 1 0-22zm-69.2 125.7a10.2 10.2 0 1 1 0 20.5 10.2 10.2 0 0 1 0-20.5zm534.8 8.2 27.5 47.9-31.3 55.5-26.2-53.2zm-.5 16.3-19.3 32 17.6 32.7 20-31.1zm.4 13.7 10 19.3-12.1 19.6-10.1-20.7zm-26.6 64.9c2 0 4.3.4 6.6 1.4 18.5 7.7 12.6 35.9-7.2 34.1-2.6-.2-6-1.6-8.5-3.3-13.8-11.2-5.5-32.3 9-32.2zm45.2.5c16.2.3 26 22.8 9 33.4-8.3 4.6-20.6 1.8-25.4-6.4-4.2-7-2.4-18.6 7-24.7a20 20 0 0 1 9.4-2.3zm-22.5 32.2c1.7 0 3.4 8 5 21.6l3.5 27.5c2.6 21.8 5.2 42 7.5 63 .4 4.1 1.5 13 2.4 19.5 9.4 68.1 11.5 89.9 9.3 95.7-5.9 20.3-33.6 21.9-45.2 10-8.7-8.9-10-18.7-6.6-44.2 2-14.7 2.8-22.2 8.7-78.5 1.3-13.2 3.3-30.7 4.4-39 2.3-22 5-42.7 8-64.4 1-7.8 2-11.3 3-11.3zm-454 50.6s88.8 29.2 156.4 28c9.9-.1 11.5-.2 23.8 3.9a363 363 0 0 0 25.6 7.1c20.9 4 39.2 3 55.4-3.7 2.5-1 6.3-4.2 10-3 2.3.7 5.7 5.3 5.7 5.3-59.2 15.7-197.5 12.8-283.7-23.5zm456.2 9.3c-.4 0-.8.6-1.2 1.2-1.4 2.3-.2 17.3 5.1 65 10.3 91.1 10.3 93-2.2 102.6-6.1 4.7-7 6.6-4.1 8.3 2.2 1.3 2 1.3 6.5 0 10.4-2.8 14.8-11.1 14.7-28.1 0-13-.2-14.5-4.3-46.3l-4.2-34.5c-6.8-56.7-8.3-68.5-10.3-68.2zm-465.1 9.5c88.4 31.7 180.7 40.6 292 23.6l16.2 10.3-3.8.9 1.7 15.3 19-3s10.1 8.1 17.7 13.1c-99.2 30.3-259.5 25.1-358.4-18.8-3.8-2.2-6-4-6-4a36 36 0 0 1 7.3-11.2l18 5.1 5.3-16.4-13.8-5zm23.1 19.7-5.8 16.3 25.3 7.5 4.3-16.6zm38.7 10-3.4 18.5 25.4 4.7 3.1-18zm41.9 8.7-2 17.8 26.9 2.9 1.6-18zm184.7.3L2236 358l1.5 15.7 23.1-2.7zm-40.3 4.5-22.7 1.5.8 16.5 22.8-1.5zm-102.2.4v17.4l23.2 1 .3-18zm63.9 2.2h-21.4l-.1 16.7h21.6zm-248.6 3c2.3-.2 7.6 5 9.8 10.8 4.3 11.3 2.3 23.9-4.4 28-9.2 5.7-20-3.2-13.6-11.2 1-1.4 2.9-2.8 4-3.2 4.7-1.5 5.8-9 3.2-21.7-.4-2 .1-2.8 1-2.8zm34.3 4.3a616.4 616.4 0 0 0 316.1 18.9s-53 216.5-54.1 216.6zm-46.9.6c5 0 6 8.6 1.4 13.1-5.8 5.8-16.9 1.1-14.6-6.1.7-2.1 9.9-7 13.2-7zm27.5 5c1 0 3 2 6.2 6.3 10.7 14.4 11.5 30.6 2 38-11.4 8.6-19.6-4.8-10.2-16.5 2.4-3 2.8-8.6 1.3-21-.5-4.5-.3-6.7.7-6.8zm371 5.3c1.3 0 3.5.9 7.8 3 6.9 3.4 9.3 8.3 6 12.3-4.8 5.7-18-5.7-15.5-13.5.4-1.2.8-1.8 1.7-1.8zm-10.3 7.5c1.7.2 4.5 3.3 7.7 9.7 2 4.1 3.2 5.3 6.7 6.5 8.1 3 9.7 11.5 2.5 14-7.9 2.7-13.7-3-17.3-16.6-2.3-9.1-1.8-13.8.4-13.6zm-342.3 6c1.2 0 3.5 2.6 7.1 8 10.7 15.7 7 46-6.5 53.1-6 3.1-10 2.5-14.8-2.3-7-7-5.3-12.5 5-16.3 8.9-3.2 11.7-13.2 9-31.5-1-7.3-1.1-10.9.2-11zm51 5c65.3 54 124.3 111.7 200.3 179.1 18.1-55.5 44.4-170.9 44.5-171.2-2.9 2.3-127.7 20-244.8-7.9zm244.8 7.9s.1-.1 0-.2v.2zm40.6-7.7c1 0 4.2 8.1 6 15.5 1.6 6.7 8 18 10.6 18.4 12.9 2.1 18.3 9.3 12 15.7-4.7 4.6-14.8 2-19.7-5.2-9.1-13.4-15.4-44.4-9-44.4zm-729.2 7.4c7.8.1 15.3 5 17.2 15.1 2.1 11.8-4.5 20.3-10.1 19-6.1-2.3-8.2-12-8.2-12s-1.5 7.9-4 11.9c-5.4 8.3-17-4.1-15-16.1a20.4 20.4 0 0 1 20.1-17.9zm465.1 3.1a782.6 782.6 0 0 0 217.3 4.3l-40 155.3zm-53.7.3c1 0 3.2 2 6.6 5.5 11 11.7 14.2 28 7 36-4.3 4.9-7.3 5.5-12 2.3-5.9-4.1-6.3-10.2-.9-13 5-2.6 5.5-8.3 1.5-19-3-8.1-3.8-12-2.2-11.8zm-464.3 4 26 10.8 9.3 22-26-6.8zm98.3 2.9-7.7 21.9-20 7.4 7.8-23.6zm678.3 4.6c1 0 2.3 2.7 4 8.5 4.4 14.1 6.2 17.7 10.1 19.6 6.4 3 6.9 10.7.8 13.5-3.8 1.7-5 1.4-7.8-2.2a52.9 52.9 0 0 1-8.3-25.8c-.6-9 0-13.6 1.2-13.6zm-289.5 9.9c.8 0 1.9 1 3.5 3 10.1 12 11.2 30.4 2.2 35.9-8.8 5.3-21-5.7-13.4-12l3.5-2.8c2.2-1.7 2.3-2.6 2.5-13 .2-7.8.5-11 1.7-11.1zm76.8 1.2L2207.5 546l28.6-112a898 898 0 0 1-153-1.2zm-305.8 5.7c39.3 41.6 90.8 75.1 103 116.4a136.8 136.8 0 0 1-45.5 160.5c-28.3 21.4-56 44-79 71.2-38 40.3-63.2 84.4-88.5 116.3a550 550 0 0 0-15.6 22.3s-5.5 6.3-24-9.2c-49.1-43.6-100.6-75.3-153-105.4l22.1-12.4c43.8 25 98.2 60.4 147.2 101.8 0 0 38.9-56.8 51.3-73 18-23.5 30.7-38.5 47.5-56.6 42.8-52.9 87-70.4 105.4-97.1 27-39.3 28.1-85.8 6-125.5-22-37.9-64.4-63.8-92.7-95.2zm373.2 3h48.7s-7.2 6-12.6 9.7c-3.5 2.3-7.5 2-15-1.2l-21-8.4zm55.7 0 11.4.4c-8.5 10.7-17.2 17.6-28.6 27-1.4.7-2.3 1-5.7-.2-23.2-7.7-44.6-17.5-67.2-26.7h20.2s9.7 3 24.3 9c16.7 7 21 9.1 27.5 5 6.2-4.2 11.4-10.5 18.2-14.4zm23 0-4 15c-6.8 8.5-20.6 18.2-32 27.9-2.7 1.4-2.6 1.6-14.4-3a706.7 706.7 0 0 1-64.1-27.6l-8.8-7.9s11.3 3.2 18.7 6.2l19.2 7.3c5.5 2 17.7 7.2 25.8 10.4 18.7 7.4 17.7 7.6 35.7-8.2 19.4-17.2 24-20 24-20zM1574 443l18.9 21.6-25.2 21.1-19-22.3zm716.2 0c4.3 8.1 7.2 17.7 14.3 24.6 5.3 5 6.6 9 3.4 11.8-8.2 5-9.6-3.1-12.1-8.5-4.5-9.4-10-22.2-5.6-28zm-682.6 2.2h1.5c20.1.3 24.9 30 6 37.1-6.9 2.6-14.7 1.4-18.9-2.8-4-4-4.6-7.5-1.8-9.6 4.3-3.2 14.7-3.4 14.7-3.4s-9.4-3.2-13.6-5.5c-8.3-4.7-1.1-15.3 12.1-15.8zm414.4 0c1.2 0 3.1 2.4 6 7 10 16.7 9.5 48.6-1 56.7a12.1 12.1 0 0 1-17-1.5c-6.1-6.7-4.2-13.5 4.8-17.5 8.7-3.8 10.5-12.4 7-33.7-1.3-7.4-1.2-11 .2-11zm-488.4.5c6-.2 11.8 2.2 14.7 6.9 2.1 3.5 1.1 6-3 7.8-4.8 2-14 3.7-14 3.7s9 1.5 14.4 3.7c6.8 3 6.2 8.5-3.7 13.2-19.2 9.2-37.4-15.8-21.5-30 3.7-3.4 8.5-5.1 13.1-5.3zm504.8 12h.5c1.8.3 5 2.8 8.3 7.1 11.4 15.2 13.4 38 3.7 42.4-10.3 4.7-17.7-5-10.3-13.4 5.2-6 4.6-14.8-2.4-32.1-1-2.5-.8-3.8.2-4zm247.2.8c.9-.1 2.5 3.5 5.2 11 5.8 16.1 10.8 23 16.8 23 7.5 0 11.4 10.2 5.5 14.4-11.7 8.2-27.1-12-28.2-37-.4-7.6-.2-11.4.7-11.4zm-62 8-3.5 13.3s-8 7.8-13.7 12.7c-9 7.9-11.3 9.4-18.5 7-11-3.8-22-7.3-33.5-10.8l-26.6-22 60.7 23.7s5.3 1.6 7.1-.3c8-8 16.7-14 28-23.5zm57.2 12.4c.8-.1 1.6.8 2.1 3.3 2.8 12.4 6.7 21.4 10.1 22.8 4.3 1.8 5.9 5.5 4 9.2-5 10.9-18.7-8.2-18.7-26.4 0-5.1 1.3-8.6 2.5-8.9zm-219 1c.8-.1 2 1 3.8 2.8 8.4 8.4 11 31.6 4.2 38.4-9.7 9.7-20.1-4.8-10.7-15 2.5-2.6 2.5-2.8 2-14.7-.5-8.2-.5-11.5.7-11.6zm-508.4 2.2L1547 504l-21 5.4 5-18zm25.2 2.2a9 9 0 0 1 5.5 2c8.5 6.2 9.2 16.8 5.2 24.6-3.8 7.6-11.6 9.8-19.1 9-9.8-1-17.2-7.9-16.7-18.3.1-5.3 2.4-11 6-13.6 2.5-1.7 4.5-1 6.7 2.6 2 3.5 5.4 11.4 5.4 11.4s.1-8.1 1.3-12.3c1-3.3 3-5.2 5.7-5.4zm16 2 15.2 5.1 6 20.7-17-6.6zm865.9 3.8s4.4 1.8 25 18.3c5.3 4.1 14 12 14 12l-.5 269.2s-40.9-22.1-46.2-27.4c-2.8-3-1.4-11.4-.4-26.8 4.8-40.3 6.7-71.2 12-108.5 3.5-41.6 11.5-53.5-16.3-71.1 30-18.9 21.5-48.1 2.7-60.3zm-244.2 1-2.8 12.3c-9.9 17-18.7 16-33.8 8.2l-18.1-15.4c11.7 2.5 18 6.2 29.5 9.8 5.7 1.6 7.8.6 11.8-3 4.6-4.2 8-7.3 13.4-11.9zm-134.4 6.5c6.1 6.7 7.7 13.3 7.2 29.6-1.2 11.6-.7 20.3-10.2 26.8-4.6 3-12.7 3-16.3 0-8.6-5.8-3.8-17.3 7.5-17.9 7-.1 10-23.4 6-38-.7-2.2-.5-3.7.6-3.8 1.1-.1 3.2 1.2 5.2 3.3zm192.6-.9c1.4 0 3.8 3.5 5.3 9.3 2 8.4 5 13.1 9.6 15.5 6 3 7.9 8.8 4.1 12.2-7.6 6.9-15.3-1.3-17.7-18.8-.2-2-3.6-18-1.3-18.2zm162 2.9c17 .3 26.5 12 26.4 26.3a27.5 27.5 0 0 1-16.1 25.1c-24.8 7.3-38.3-9.2-38-25.3a27 27 0 0 1 27.8-26.1zm-340 9.3c14.3 14.2 14.9 44.5 1 44.5-16.6-5.5-3.6-15.3-3.3-17.9 1.3-10.4-1.1-17.1-3.5-26.8-1.1-5.8 4.3-1.5 5.9.2zm341-1.3c-3-.1-2.8 2.9 2.7 7.6 9.9 8.5 5 24.2-7.5 24.2-5.8 0-7.2 4-2.1 6 19.4 7.8 32.7-21.8 15.2-34a17.7 17.7 0 0 0-8.3-3.8zm-743 4c15.6 5.3 21 35 21.6 45.6.7 18.2-7.8 48.1-15.4 54.1-19.6 15.5-28.9-39.2-12-74.4 1.4-2.9 3.3-6.8 2.6-14-.7-7 .5-11.3 3.2-11.4zm516.7 2.8s-2 9-4.1 13.8c-2.4 5.7-4.2 5.8-9.8 1-3.2-2.7-8.4-8.2-8.4-8.2 5 .7 9.3 3.3 13.5 1.2 4.4-2.2 8-6.3 8.8-7.8zm59.3.5c1.1 0 2.5 3.1 4.4 9.3 5.2 16.9 9.7 23.2 16.5 23.2 11.1 0 13.6 13.5 3 17-3.9 1.2-5.2 1.2-10.2-.1-7.5-2-17.8-27.4-16.3-40.4.7-6 1.5-9 2.6-9zm-688.1 9.8c4-.1 5.7 2 8.1 6.9a42 42 0 0 0 16 16c14.7 7.2 30.2 12.9 44.7 20.1 18.8 9.5 35.7 38.4 24.1 41.4-4.2 1-9 1-13.3.6a24 24 0 0 1-6-7 79.8 79.8 0 0 0-49.4-34.2c-17.5-4.6-33-26-36.4-36.2-1-2.6-1-4.6 1.4-5.3 5-1.4 8.3-2.3 10.8-2.3zm530.5 1.7c.8 0 1.9 1 3.6 2.8 10.4 11 11.7 31.4 2.4 37.2-10.1 6.3-19-4-11-12.9 3.4-3.8 3.4-3.8 3.4-15.5 0-8 .3-11.3 1.6-11.6zm151.2 13c1.2 0 3 3.5 5.3 10.3 3.2 9.6 3.7 10.3 7.3 12.2 6.3 3.2 7.3 8 2.7 12.6-8.5 8.5-17-5.2-17-27.3 0-5.3.6-7.9 1.7-7.8zm-135.8 1.5c.8 0 3 1.8 4.6 3.8 12.7 15 10.2 50.4-4 55.7-4.8 1.7-6.2 1.8-9.2.6-10.5-4.6-9.2-15.8 3.8-22.9 9.8-5.3 2.8-37 4.8-37.2zM1477.8 552l52.5 26s14.4 30.4 21 41.8c4.6 7.9 13.7 15.5 4.3 20.7-15.8 10.7-24.8 16.8-24.6 23.5 0 5.4 6.8 10.9 15.8 21.5 13 15.2 12.8 11.7 1 35-9 16.2-16.6 53-16.6 53l-53 27.4c15.7-37.7 34.3-69.8 55.1-92.7a246 246 0 0 1-42-39.4c10-13.4 23.2-24.2 35.4-35.9a234 234 0 0 1-49-80.9zm664.4.5h.2c2.2.1 7.3 5.6 11.7 14.4 5.7 11.4 6.3 25.6 1.2 30.7-8.8 8.8-20.2-2.5-12-11.8 5.8-4.2 4.2-14.6-.3-25.5-2.1-5.2-2.1-7.6-.8-7.8zm-670.2 5a490 490 0 0 0 44.6 75.1l-34.2 35.9a365.1 365.1 0 0 0 41.2 40.6c-22 24.4-36.4 58.6-50.9 91zm786.2.7c1.2.1 2.9 3.6 4.6 10.7 2.2 9 3.7 11.2 8.9 13.4 8.3 3.6 8.4 11.6.3 14.5-3 1-8.5-2-10.8-5.9a44 44 0 0 1-4.6-20c-.5-8.5.3-12.8 1.6-12.7zm189.6 5.4c12.9 3.6 17.6 16.6 15 40.6-3.3 32-7.3 67.7-10.5 97.2-3.7 34-5.9 51.7-6.7 53-2.6 4.2-3-11.7-1.2-29.5 3-25.4 4.5-47.6 7-73 5.5-56.4 4.1-74.3-6-79.5-8-4-11.4-1.6-5.6 3.9 11.2 8.5 10.8 12.1-1 151.1-1.3 14.4-1.8 24.6-1.8 24.6l-15-9.4s-1.2-12-2.6-30c-3.4-33.8-5.4-70-7.7-102.4-2.4-34.7 4-46.8 25.6-47.6a36 36 0 0 1 10.5 1zm-277.4 20.1c1.7 4.6 9.2 38.8-10 29-5.1-2.9-5.4-7.4-1.6-11.8 4.2-4.9 5.2-12 3-22a109 109 0 0 0-2.8-11.2c3.7 1.3 11 14.8 11.4 16zM1600.2 573a91.7 91.7 0 0 1 45.5 24.4c7.1 7.6 6.8 13.7-4.4 14.4-10.7 1.6-11 3.3-16-1.1-2.4-1.8-6.8-6.3-12-7-16.1-2.5-24.4-32.8-13.1-30.7zm654.8 9c1.7 2.7 2 8.1 3.3 12 2.5 10.8 9.9 18.8 16.6 17.8 4.5-.5 10.7.9 11.3 6.2 1.3 4.6-1 8.9-6 10.8-5.5 2.3-11.8.9-16.5-3.6-10-9.3-16.1-40-8.7-43.2zm-78 .4c5.8 2.2 13.2 20.9 14 35.6 0 10.6-1.6 24-10.8 29-5.7 3-11.7 1.5-14.4-3.6-3.2-6.2-.8-12.6 5.9-15.6 8-3.7 10.7-20.2 5.8-36.2-.3-2.7-4.4-10.3-.5-9.2zm-619.8 7.7 42.9 21.7a105.3 105.3 0 0 0-14.5 25.4c-13.6-15.4-20.8-31.2-28.3-47zm635.9 7.4c.7 0 3.2 2.4 5.3 4.5 10.7 10.3 15.3 29.1 8.9 36-5.2 5.5-14.2 5-15.7-.7-.6-2.8 2.5-8.1 3.8-10.6 2-3.8 2.3-14.6-.7-22.5-1.3-3.5-2.6-6.6-1.6-6.7zm-297.4 4.3 48.3 1.7 162 146-15.1-.4-149-135.7-46.3.1zm-278.8 26.3a116.6 116.6 0 0 0-12.1 99.2c8.6 23.4-10.2 24.8-18 9.4a106.6 106.6 0 0 1-7.5-52.8c2.6-34.4 18.5-69 31.2-73.2 13-4.2 10 12.7 6.4 17.4zm664.1 70.6c-5 23-14 34.4-27 39.2-52.8 19.5-75.9-87.2-26.8-112.7 46.8-15.5 60.3 43.2 53.8 73.5zM1892.7 629l45.6 1c41.6 37.8 86.3 73.1 130.9 119h-21.6l-7.8-7.3c-40.2-36-70-65.3-108.8-98.7l-40.7-1zm348.1 7c-24.7 1-26.7 34.5-26 47.1 1.9 18.3 9.1 45.2 32.3 43.1 17-1.7 24.8-21.8 23.3-46-1.5-22.7-10.7-44.2-29.6-44.1zm-352.2 11.2 40 .9c35.3 30.7 72.6 64.1 109.6 101h-17.5l-5.9-5.8c-30-27-60.5-57.3-89.6-81.7l-41.5-1.6Zm352.9 1.3c7 2.6 8.1 19.6 2 26.7-4.2 4.8-13.8-4.3-14.7-15.9-.5-7 6.4-13.2 12.7-10.8zm-661.7 2a205.5 205.5 0 0 0-6.6 37l-16.8-21.3zm674.4 20.6a7.4 7.4 0 1 1 0 14.8 7.4 7.4 0 0 1 0-14.8zm-336.4 3.7 79.8 75-22.7.3-65.4-59.3-41.6-1.6 8.2-14.1zm310.3 1.3a7.4 7.4 0 1 1 0 14.8 7.4 7.4 0 0 1 0-14.8zm95 .2c45 35 108.5 81.3 174.4 119 0-.2-10.9 8.5-20.9 11.2-51.3-28.3-112.4-68.2-150.2-100.6-35.7 52.6-104.3 148.2-165.3 192.4-38.5 27.5-57.8 61.4-57.7 101.1 0 41 14.6 67.7 55 101.4 26 21.6 54.4 49.3 54.4 49.3l-15 12.9c-2.4-.3-43.6-35.8-85.3-77.6-22.9-23-33-73.5-29.2-100.7 5.3-37 17.7-63.6 52.8-92.2 13.5-10.4 27-18.5 39-30.4 109-116.6 148-185.8 148-185.8zm-73 19c4.1 8.5 6.4 19.6-6.5 20.4-7.7.4-12-12.3-5.4-23.7 5-9 9.4-1.3 11.9 3.3zm-384.4-2.2 43 1.3s42.5 37 64 57.5h144.2c79.4 0 144.6.3 145 .7 1 1-10.3 16-10.3 16l-475.8.3c.1 0 29.4-26.1 40-33.4 18.5-13 35.5-25 50-42.4zM1574.2 711c3.1 11.5 5.7 23.2 11 33.8l-33 17.5c6.1-17.5 13-34.3 22-51.3zm917.2 95.5a367.4 367.4 0 0 1-44.4 82c-4.1 5.3-7 9.4-7 9.4l40.5 38.8-35.1 37.3c19.7 20.6 36.4 52 45.2 77-16-6.3-25-10-44.6-21-5.5-14-11.2-28.7-17.4-41.4-14.4-29-14.2-26.2-2.5-34.8 17.2-12.5 22.3-15.4 17.8-21.7a530.9 530.9 0 0 0-24.6-29.2c-1.8-1.1-1-4.7 2.4-10.4 11.8-21 21.4-44.2 27.3-64.8zm7.7 1.5 1 244.2c-14.4-29.2-29.5-59-46.3-77.6-.7-1.3 36.6-37.7 36.6-37.7-13.6-12.7-21.6-20.3-40.7-37.8 18.6-26.8 33.3-61.9 49.4-91.1zm-1026.3 8.4 46.4 27c-2.4 34.4-5.5 79.6-10.3 125.5-4 35.8-5.6 52.3.7 62.2a77.2 77.2 0 0 0 19.9 15.2c-24.4 9.8-33.8 39-6.5 60.8 0 0-6.6 5.2-9.6 8.3l-38-28.4zm726.2 12.4c-11.5 13-29.7 32.2-43.6 41.4-18.6 12.2-44.6 35.8-43.4 36.1 0 0-27.3-.1-45.8-.9l-63.8-56.9s2.3-.8-84.6-.1c-112.2.9-203.1-.3-203.1-.3l12.7-18zm227.5 11.2c-6.3 20.2-16 38.8-28.4 56.3-2.8-12.4-4.4-25.6-10.4-36.1zm-901.4 6.4 5.6 4-4.4 54.5c-2 22.8-3 43.3-5 66.5-4 46.1-3.3 52.9 5.8 60 7 5.2 11.7 2.8 5.5-3.7-4-5.3-4-5.2-5.3-12.9a202 202 0 0 1 .5-34.9c6.9-121.8 8.3-125.9 8.5-125.9l13.9 9c-.8 1.8 12.7 122.7 11.3 152.7-1.6 35.2-48.9 27.4-51.1 1.3-1-6 8-104.6 8-104.6zm385.7 7.1 18.6.6 114.5 105.2 39 .9-3.4 13.2h-37.7zm71 0h18l65.5 59.4 40.4.7-7.7 11.4-40.2-1.2zm-22.4 0 97 87.4 33 1.8-5.1 11.9-39.2-1.1-108.8-99.7Zm-93.4.4h20.2l151.4 136.4 39.7.7-.6 12.3-47.8-.3zm509.7 3.9c8 2 11.9 9.7 17.5 38.5 6.6 33.4-7.6 87.8-25.5 98-9.2 7.3-19.2-.4-12.7-9.9 21.2-30.9 24-81.5 11.5-109.7-4-9.1 0-18.6 9.2-17zm-642.5 5c48.3.6 60.9 100 13.3 114-31 4.5-46.9-23.5-51.4-48.8-5.3-31.4 8.6-65.5 38-65.2zm-26.6 59.6c2.9 20 15.2 42.8 33.2 40.8 23.6-2.6 26.5-34 24.2-50-2.8-19.1-13.4-36.5-30.3-37.4-25.1-1.4-29.4 31.3-27.1 46.6zm25.9-38.6c6.7-.2 11.7 8.9 9.9 20-1.2 7.3-4 16.2-12.1 10.1-3.8-3.4-7.2-13.6-6.3-21.2.6-5 3-8.8 8.5-9zm667.3 23 22.7 26.2-25.8 18c3.6-13.7 4.8-28.4 3-44.3zM1749 909a7.4 7.4 0 0 1 0 14.8 7.4 7.4 0 0 1 0-14.8zm-26.5 4.6a7.4 7.4 0 1 1 0 14.8 7.5 7.5 0 0 1-7.5-7.4c0-4.1 3.4-7.4 7.5-7.4zm15 9.5c3.7 1.1 6 4.6 8 7.5 5 7.4 5.7 16.7 2.1 20.5-7 8.5-18.2-.5-16.8-13.6 1-9.6 3.5-15.4 6.7-14.4zm63.4 29c10.6 0 13.6 12.5 4.5 18.7-6 4-7.3 17-3.6 34.9 3 12.9 1.4 15-6.3 3.2-13.2-21.1-9.8-56.8 5.4-56.8zm-24.8 6.8c9.3-.3 12.3 6.8 6.8 12.3-3.1 3.5-2.8 12.8.7 20.5 5 11 3.9 14.4-5.5 3.8-13-14-12.8-36.2-2-36.6zm616 5.4c10.6 14.1 20 32.4 28.5 53.2l-45.8-21zm-669.9 56.6c-3.2-3.8-4.8-16-7.5-21.2-2-6.2-3.8-9.8-7.2-9.6-19.4 1.6-18.6-16.9-7.4-20.4 23-7.2 31.4 48.3 22.1 51.2zm96.1-18.7c-3.3 9.7-.9 15.5-.2 25.8.6 4.8.8 6-3 2.4-9.2-8-14.1-35.4-5.9-40.5 11.2-6.8 14.5 4.7 9.1 12.3zm459.3-13c4.5-.2 9.6 3.3 12.1 9.7 3.7 9.3 3.3 32 1.5 44-2.8 18.5-7.3 35.4-9.1 48.2-6.5 7.7-22.5-19.6-24-41.1-2.5-17.1 3.4-52.6 16.5-60 1-.5 2-.8 3-.8zm61.9 2.9c4-.2 3 1.2 6 4.3 4.6 4.7 6.4 5.8 12.8 7.8 13.1 4.2 27.6 22.5 22 28-4.4 3.6-16.4-3-20.5-4.4l-12.2-4.2c-11-3.7-26.8-24-22-28.1 2.7-2.2 10.8-3.3 13.9-3.4zm-32 3.4c8 0 10.3 2 15 10.8 6.9 13 19.7 22.2 38.3 27.5 23.8 7.2 44.4 21 43.4 46.6-5.7 0-11.4.4-17 2.1a51.8 51.8 0 0 0-37.1-32.3c-32.6-7.4-62.7-40.4-54.2-53.5 3.8-1.9 7.8-1.3 11.5-1.2zm-561 1.6 280.9 244.7c-118.6-44-227.4-43-332.6-26.8zm119.7 16.2c-.5 7.6-11 9.2-13.1 11.1-5.3 4.6-4.6 17.8-2.3 33.2 1.7 9.2-.6 8.8-5.5 1.5-8.6-12.8-8.4-35-2.7-48 7.4-17 24.4-8.5 23.6 2.2zm-161.5-12c10.7 1.1 13.7 15.8 14.1 25.5 0 13.4-3.8 12.9-5.9 0-1-5.7-2.8-8-7.4-9.3-10.5-3.1-11.2-16.2-.8-16.2zm130.5 15c-2.7 3-2.8 17.2-.3 26.8 1.4 5.2-1.2 5.6-4.7 1.5-11.7-13.7-12.7-36.8-2-41.3 8.8-2.2 11.1 8.5 7 13zm-121.5 27.3c.2 13.6-2.9 14.9-7 1.8-1-3-2.9-6-4.2-7-7.7-5.2-9-9.3-4.6-13.7 10.9-9 15.6 14.9 15.8 19zm41-12-38 162.5c93.7-7.9 136.3-9.5 236.5 10zm113.6 2.7c5.7 1.4 7.7 9 1 16-2.1 2.8-4.2 7.1-1.5 18.6 3.6 15.7-2.5 10.7-10-4.1-4.8-9.5-2.6-33.8 10.5-30.5zm-179.3.5c10.2 0 19.6 16.5 19.7 34.6.2 14.7-2 13.6-7.4-.4-3.8-9.2-6.9-12.6-13.8-15-12.9-4.4-11.7-19.2 1.5-19.2zm68.8 4.7 176.4 154.2a748.3 748.3 0 0 0-212-3.8zm146.9 5.8c13.8 0 19.2 17.1 2.3 23-10.1 3.6-5.8 24.1-4 36.3.7 4.5-.7 4.9-3.6.8-10.7-15.8-16.6-55.4 5.3-60zm-18.7 19.2c-2.5 4-2.8 8.2-1 15.9 4.4 16.5 5.6 19.5-3.8 11.2-9.9-10.5-14.2-31.1-6-37.2 9.4-6.9 17.7.7 10.8 10.1zm-348.7-12.7c16.4-.1 28.3 10.5 27.7 25.3-.7 16.2-11 26.5-26 27.4-16.6.8-27-12.5-27.3-26.3-.4-12.2 7.4-26.3 25.6-26.4zm-.3 6.5c-18.7 0-25.7 24.7-10.2 36.1 6.6 4.9 11.9 3.5 6.4-1.7-10.3-9.8-6.1-26 7.4-29 6.7-1.4 4.1-5.3-3.6-5.4zm228.3 4.2-22.6 109.5c46.1-7.2 102-5 145-1zm-76 4.2c11.2-.6 14.5 16.3 14.5 23 0 8.7-1 13.2-2.6 8.6-3.8-11-7.5-17-11.5-17-2.2-.6-4.1-1.4-5.9-3.4-4-5.3-.1-11 5.5-11.2zm78 4.4 15 12.6c-9.7-4.2-17.8 6.6-17.8 6.6zm153.1 20.6c-4.3 5.4-4.2 16.9-.9 30.2 1 3.8-2.5 1-6-3.4a35.8 35.8 0 0 1-8.6-26.3c1.3-20.4 27.2-16.4 15.5-.5zm-235.3-9.7c9.7 1 13.3 21.2 13 27.2-.3 6.4-1.7 10.7-3 6.8-2.5-8.4-7.6-20.4-12-23.2-7.6-4.7-5.5-10.2 2-10.8zm737.1 22.5c.3 7-2.6 14.3-7 16.7-4.4 2.4-7.2-.9-9.8-9l-2.7-8.4s-1.6 7.5-2.2 9.1c-3.4 10.4-14.8 10.5-19.5-1.1-5-13.6 9-27.5 19.9-27 12 .5 20.7 8.3 21.3 19.7zm-643-15.2a88 88 0 0 1 16.5 5.9l13 11.5s-12-5.2-16.2-6.7c-10-3.6-9.9-3.6-18 3a320 320 0 0 1-15.3 12l2.6-14.8s12.3-10.9 17.4-10.9zm-85.7 36.5c2 15.7-2.5 17-6.7 2-3.7-12.8-7.3-17.5-13.5-17.5-11.4 1.7-15.2-15.2-5-18.6 19.4-5.5 24.4 27.9 25.2 34zm663.1-34.4 17.9 8.3 3.7 18.4-16.4-4zm-400 1.7c17.3-4.8 19.4 16.6 6.2 19.7-8 2-8 14.4-5.7 32.5.5 4.1 1.7 9.1 1.4 9.8-1.2 3.3-5.3-1.7-10.8-13.3-8.2-21.1-5.7-44.7 9-48.7zm491-.3-5 21.4-15-1-.6-13.1zm-508.5 13.9c-8.3 12-.9 23 1 32.4.3 5.4-6.7.1-10.8-7.8-8.4-16.6-9-30-1.3-35.9 10.6-6.2 15.5 5 11 11.3zm-154.9-3c3 .1 6.9 1.7 15.2 4.9l20.9 8.3 19.3 17s-17-6.2-28.8-11.2c-26.5-11.2-22.7-11.5-43.7 4.5-6 4.6-12.4 9.8-12.4 9.8l2.6-13.7s8-7.8 17.8-15c4.3-3 6.2-4.6 9.1-4.5zm-247 6.5c13.7-.3 22.6 10.5 25.9 22.5 1.9 7 .2 13.5-.2 20.2-9.3 71.8-13.5 138.5-22 205-1.1 3.2-2.3 2-3.7-3.7-10-60.3-16.5-126.5-24.9-186.3-1.9-22.3-7.6-51.5 20.6-57.2 1.5-.3 3-.4 4.4-.5zm-.7 8c-6 .3-13.1 4.4-15.6 9.7-5.2 10.8-3.8 32.8 6 99 .8 5.4 1.9 14.6 2.4 20.3 1.8 17.6 4 31.5 5.8 34 3.2 5 3.6-.3 1.3-17.5-1.2-8.7-2.8-22.1-3.6-29.7-4.3-31.3-5.3-53.6-8-82.2-1.4-14 4.3-24.4 14.9-27.2 5.7-1.6 6-4.1.7-5.9-1.2-.4-2.5-.5-4-.5zm898.4.9c19.8 0 27.1 27.8 7.7 37.6-7.2 3.6-19.3 2-22.3-3.9-1.4-4.5.2-7.1 3.8-9 4.4-2.4 10.8-4.4 10.8-4.4s-10.5-2-13.5-7c-6.3-10.7 5.4-13.1 13.5-13.3zm-746.6 30c-.2 5.2-2.9 3-3.5 0a41 41 0 0 0-10.4-17.6c-4.5-3.6-5.6-8.5-2.5-11.6 11.5-10.2 16.4 25.9 16.4 29.2zm673.2-30a23 23 0 0 1 16.4 5.9c5.6 5.6 5.3 7.7-4.1 11.2l-7.8 3s4.3 1.7 7.5 2.6c9 3 8.6 8.2.2 14.4-11.3 8.5-29.5-2.7-29.3-17.6.2-11.8 7.5-19.3 17.1-19.6zm42-.2 18 20-21.1 22-20-22zm-616 2c.3-.1.5 0 .8 0 5.6 0 14.6 3.8 36.5 12.7l26 10.4 19.9 17.5s-27.1-8.5-36.6-13.3c-2-1-6.5-3-10-4.3l-19-7.4c-15-6.1-15.3-6.1-20.3-1.9a373 373 0 0 1-11.8 9.3l-14 10.6c-4 3-9 7.6-9 7.6l3.2-16.9s2.8-2.7 7.9-6.6l15.6-12c4.6-3.5 7-5.6 10.8-5.8zm194.5 14.7c.6 3.5.3 4.2-3.8 8.3-5 5.2-5.8 13.8-2 24.8 1 3.1 2.2 6.7 2 7-5.4 5.4-19.6-28.7-16.2-38.8 4-12.1 17.3-12.3 20-1.3zm-311 1.5c3.7-.2 8 2.6 10.1 8.5 5.9 16.4 2.3 36.5-3.7 17.7-1.5-4-4.2-8.2-6.3-10.3-2-2.3-6.8-4.9-6.7-8.5.5-4.8 3.3-7.3 6.5-7.4zm121.2.5c2.4 0 5.6 1.2 11.3 3.5 5.1 2.2 19.6 7 27.9 10.2 12.8 5 26.2 11.4 26.2 11.4l-29-1.6s-9.9-3.3-15.8-5.7c-21.2-8.7-20-8.6-30.6-.6-3.8 2.8-8.5 7.5-8.5 7.5l-14.8.8s7-7.4 17-14.8l9.9-7.7c2.5-2 4-3.1 6.4-3zm226.9 5.7c8-1.6 12.5 6.1 12 11-.6 5.2-5.5 10.4-13 12-1.6 5.8-6 19.2-3.4 39.3 2 9.3-1.9 9.6-6 .5-6.5-14.5-16-57.8 10.4-62.8zm-23 16a32 32 0 0 0-2.8 22.5c2.1 10.2 2.6 12.8-3.2 6.3-11.3-15-13-39-2.6-41.7 10-2.7 12.3 8.2 8.6 13zm-338.3-11.2c17.6 2.8 22.8 32.8 20.3 45.6-4.7 15.6-4.4 5-6-1.4-4.4-15.6-9.4-24.1-14.8-25-14.4-2.4-12.4-21.2.5-19.2zm135 6c.3-.1.5 0 .8 0 5.8 1 21.3 5.7 14.6 7.4h-22.9c-4.4.3 3-7.2 7.4-7.5zm616.8 4.8c2.2-.2 5.2 2.4 8.8 6 8.1 8.4 4.5 21.5-6.5 28-17.2 10-37-9-27.4-26.6 5.2-9.6 11.4-7.9 16.8 5.7 1 1.6 0-1.7 1.8-5.9 1.8-4 4.2-7 6.5-7.2zm-29 1-5.2 20.9-21 10.1 7.6-25.7zm43.8 3.6 16.8 1.3 9.3 27.1-24.2-10.3zm-396.6 15.3c12.2.5 13.5 12 6.5 17-4 3.8-5.3 9.3-4.5 18l1.1 9.1c-.1 1.9-1.6 1.6-3.7-.7-13-14-11.2-43.9.6-43.4zm-369.2 4.5c7.8 0 16.5 22.2 12.2 30.6-2.7 5-5.3 3.8-6.3-2-.8-4.2-3.2-10-9.4-11-9-2.9-6.1-17.6 3.5-17.6zm391.6 13.4c5.9 3 6.4 9.9 1 13.7-4 3-5.2 5.4-5.8 13.4 1.4 18.2-8.9 6.6-9.8-9.9-.5-9 4.3-22.4 14.6-17.2zm-398 5.6c5.5 0 12 10 10.6 15.8-.8 4.6-3.2 3.8-6.6.4-1.3-1-4.2-2.1-5.6-2.5-8.3-2.5-7-13.7 1.5-13.7zm157.7 7.7c75-.4 153.1 11.5 218 37.4l-5.4 9.6-17-5.8-5.8 15.4 14 5.4-6.6 14.2c-76.6-25.2-159.2-44-296.4-23.6a988.6 988.6 0 0 1-19.1-14.1l11-2.4-1.5-15.3-27.7 5-8-8.5a603 603 0 0 1 144.5-17.3zm251.7 3.3c7.2 0 11.6 8 6.4 11.5-3.7 2.5-12 3.1-13.6 1.1-3.4-4 1.5-12.6 7.2-12.6zm-262.3 9.4-.3 15.9 22.6-.8.5-15zm39.5.4.1 15.5 22 .7 1-15.2zm-57.4 1-22.2 1.5.6 14.5 22-1zm99.3 2.5-.5 15 22.3 2.4 1.6-15.2zm-140.7.7-22.3 2.8 1.9 15 21.7-2.5zm184 4.8-2.3 15.6 20.9 3.1 2.6-14.8zm41.2 8.8-2 15.7 21.1 4.5 2.9-14.6zm-150 18.2a531 531 0 0 1 188.5 32.5s-7 15.1-9.5 16.7a501 501 0 0 0-149.4-30.6c-16.3-.6-20-1-26-3.1-34-11.2-64-16-91.7.5l-11.3-8a638 638 0 0 1 99.4-8zm-297 90.1c16 .2 23.7 24.9 6.7 35.3a17.5 17.5 0 0 1-15.4 0 18.3 18.3 0 0 1 1.2-33.7 19 19 0 0 1 7.4-1.6zm525.7.9a441 441 0 0 0 27 12.9l-149.3 270-36.2.4zm-481.9.6c9-1 15.3 6.7 17.7 13.1 3.1 8.8-2.5 24.3-18.3 23.4-18.1-1-26.2-33.5.6-36.5zm513.8 14c4 2.2 18.6 4.7 19.8 7.5.6 1.3-.5 4.1-.9 7.7a40 40 0 0 0 6.6 25.7c8.5 11.8-.7 6.4-9.2 6.3-19.2-5-43.7 21.3-34.4 48.2 2.2 6 1.7 6.4-8.5 9.6a37.3 37.3 0 0 0-22.4 54c5.9 11.5 6 11-4.2 11.8-28.6 2.4-45.2 27.7-33.2 53.7 1.8 4 .7 5-5.6 6.2-19.5 3.6-28.2 20-30.7 37.8l-25.8.3zm24.8 9.6 49.6 13.5c-20.6 70-23.5 151.4 1.3 245.5h-114c15.8-14.1 9.6-33.8-9-38.1 18-10.3 18-37.8-3.5-41-19-3-28.7 15-20.3 33l-8 2.3s-3.7-4.6-4.5-7c-7.2-20.8 7.8-41.5 33.3-41.4 15.7 0 19-4.4 10.2-14-15.5-17.3-10.6-41.6 9.7-51.2 9.3-4.3 14.8-1.4 14.8-1.4l.5 11.4-6.7.8c-22.4 3.6-18.3 39.3 4.5 39 12.5-.2 21.5-9.7 21.5-23.3v-9.5c11.5 19.7 31.2 21 39.7 5 9.9-18.8-8.1-30.6-26.1-28.7 0 0 3.8-2.4 6.1-3.6 19.2-10 12.6-38.1-8.6-38.1-14.6 0-23 13.5-18.3 27.9a64 64 0 0 0 2.5 6l-8.7 2.2s-2-1.5-2.8-3c-14.9-23.1 9-48.7 39-43 11 3.5 10.7-4 4.5-11-6.6-9.9-11.6-21-6.7-32.3zm-560.5 10.1 26 45.9-29.1 52.8-29-49.5zm-2.5 23.9-18.1 24.9 17.7 28.5 16.8-28.9zm-.8 9.3 11.7 15.8-11.8 19.3-11.6-18.1zm538 49.6a10 10 0 1 1 0 19.8 10 10 0 0 1 0-19.8zm-70.2 124.4a10.3 10.3 0 1 1 0 20.5 10.3 10.3 0 0 1 0-20.5zm-15.5 7c-1 .3 0 9.3 2.3 13-14.8.9-18.8 12.2-20.2 21.7h-13.3c2.2-32.3 30.3-33 31.2-34.8z" style="fill:#000;stroke-width:3.18132639" transform="matrix(.16367 .00026 -.00029 .15104 -207.8 764.7)"/></g></g></g></svg>