<svg xmlns="http://www.w3.org/2000/svg" width="234" height="333"><g transform="translate(0 -719.4)"><rect width="233.2" height="332.2" x=".4" y="719.7" rx="8.9" ry="8.9" style="fill:#fff;fill-opacity:1;stroke:gray;stroke-width:.75590551;stroke-linecap:butt;stroke-linejoin:miter;stroke-miterlimit:4;stroke-dasharray:none;stroke-opacity:1"/><path d="M45.7 880.8v-4.5h10.6V868c-6.8.2-14 .7-20.4-2-4.9-2.8-6.2-9-5.2-14.1.8-5.8 4-11 8.2-14.9a58 58 0 0 1 19.7-13 58.2 58.2 0 0 1 20 13.3 25 25 0 0 1 8.3 18.2c0 5-3 10.3-8.1 11.4-5.7 1.6-11.5 1.3-17.4 1v8.3h10l.2 4.5H45.7z" style="fill:#000;stroke:none;stroke-width:1"/><g style="font-style:normal;font-variant:normal;font-weight:700;font-stretch:normal;font-size:3.77201176px;line-height:0%;font-family:'Levenim MT';-inkscape-font-specification:'Sans Bold';letter-spacing:0;word-spacing:0;fill:#000;fill-opacity:1;stroke:none;stroke-width:1"><path d="M23.8 544.6v.7H12.4q-.9 0-.9-1v-1q0-1 .9-1H16v-13h-4.3q-1 0-1-1l.1-.7v-.7q0-.5 1-.5h2q2.3 0 2.8-1.5h2.7v17.4h2l1.4-.1q.8 0 1 .4l.1 2z" aria-label="1" style="font-size:28.97036934px;line-height:1.25;stroke-width:1" transform="scale(.72185 1.38533)"/></g><g style="font-style:normal;font-variant:normal;font-weight:700;font-stretch:normal;font-size:3.77201176px;line-height:0%;font-family:'Levenim MT';-inkscape-font-specification:'Sans Bold';letter-spacing:0;word-spacing:0;fill:#000;fill-opacity:1;stroke:none;stroke-width:1"><path d="M38 518.6q0 9.6-6.6 9.6-6.8 0-6.8-9.7 0-10 7-10 6.5 0 6.5 10zm-3.4-.3q0-7-3.3-7-1.9 0-2.7 2.8-.5 1.7-.5 4.3 0 7 3.2 7 2 0 2.7-2.8.6-1.7.6-4.3z" aria-label="0" style="font-size:27.65928841px;line-height:1.25;stroke-width:1" transform="scale(.69919 1.43023)"/></g><g style="font-style:normal;font-variant:normal;font-weight:700;font-stretch:normal;font-size:3.77201176px;line-height:0%;font-family:'Levenim MT';-inkscape-font-specification:'Sans Bold';letter-spacing:0;word-spacing:0;fill:#000;fill-opacity:1;stroke:none;stroke-width:1"><path d="M-300.3-734.3q0 .4-.2.6-.3.2-.7.2h-10.4q-1 0-1-1v-1.2q0-.9 1-.9h3.4v-13h-4.3q-.9 0-.9-1v-.7l.1-.8q0-.4 1-.4h1.9q2.4 0 2.8-1.5h2.7v17.4h2l1.4-.1q.8 0 1 .4.2.4.2 2z" aria-label="1" style="font-size:28.97036934px;line-height:1.25;stroke-width:1" transform="scale(-.72185 -1.38533)"/></g><g style="font-style:normal;font-variant:normal;font-weight:700;font-stretch:normal;font-size:3.77201176px;line-height:0%;font-family:'Levenim MT';-inkscape-font-specification:'Sans Bold';letter-spacing:0;word-spacing:0;fill:#000;fill-opacity:1;stroke:none;stroke-width:1"><path d="M-296.6-720.2q0 9.7-6.7 9.7-6.8 0-6.8-9.7 0-10.1 7-10.1 6.5 0 6.5 10.1zm-3.5-.3q0-6.9-3.2-6.9-2 0-2.7 2.7-.5 1.8-.5 4.3 0 7 3.2 7 1.9 0 2.7-2.8.5-1.7.5-4.3z" aria-label="0" style="font-size:27.65928841px;line-height:1.25;stroke-width:1" transform="scale(-.69919 -1.43023)"/></g><path d="M45.7 890.9v4.5h10.6v8.3c-6.8-.3-14-.8-20.4 2-4.9 2.7-6.2 9-5.2 14 .8 5.8 4 11 8.2 15a58 58 0 0 0 19.7 12.9 58.2 58.2 0 0 0 20-13.3A25 25 0 0 0 87 916c0-5-3-10.3-8.1-11.4-5.7-1.6-11.5-1.3-17.4-1v-8.3h10l.2-4.5h-26zm116.8-10.1-.1-4.5H173V868c-6.7.2-14 .7-20.3-2-5-2.8-6.3-9-5.3-14.1.9-5.8 4-11 8.3-14.9a58 58 0 0 1 19.7-13 58.2 58.2 0 0 1 20 13.3 25 25 0 0 1 8.2 18.2c.1 5-3 10.3-8 11.4-5.8 1.6-11.6 1.3-17.4 1v8.3h10l.1 4.5h-25.8zm0-66.8-.1-4.5H173v-8.2c-6.7.2-14 .7-20.3-2-5-2.7-6.3-9-5.3-14 .9-5.9 4-11 8.3-15a58 58 0 0 1 19.7-12.9 58.2 58.2 0 0 1 20 13.3 25 25 0 0 1 8.2 18.2c.1 5-3 10.3-8 11.4a56.7 56.7 0 0 1-17.4 1v8.2h10l.1 4.6h-25.8zm-116.8 0v-4.5h10.6v-8.2c-6.8.2-14 .7-20.4-2-4.9-2.7-6.2-9-5.2-14 .8-5.9 4-11 8.2-15a58 58 0 0 1 19.7-12.9 58.2 58.2 0 0 1 20 13.3 25 25 0 0 1 8.3 18.2c0 5-3 10.3-8.1 11.4a56.3 56.3 0 0 1-17.4 1v8.2h10l.2 4.6H45.7zm58.3 33.5v-4.6h10.6v-8.2c-6.7.2-14 .7-20.3-2-4.9-2.7-6.2-9-5.2-14.1.8-5.8 4-11 8.2-14.9a58 58 0 0 1 19.7-13 58.2 58.2 0 0 1 20 13.4 25 25 0 0 1 8.2 18.2c.1 5-3 10.3-8 11.3-5.8 1.6-11.5 1.3-17.4 1.1v8.2h10l.1 4.6h-25.8zm-91.1-66.8v-1.5h3.5v-2.7c-2.2 0-4.7.2-6.8-.7-1.6-1-2-3-1.7-4.7.3-2 1.3-3.7 2.7-5 1.9-2 4.2-3.2 6.6-4.3 2.5 1 4.8 2.4 6.7 4.4a8.3 8.3 0 0 1 2.7 6.1c0 1.7-1 3.4-2.7 3.8-1.9.5-3.8.4-5.8.4v2.7h3.4v1.5H13zm32.8 176.9v4.6h10.6v8.2c-6.8-.2-14-.7-20.4 2-4.9 2.7-6.2 9-5.2 14.1.8 5.8 4 11 8.2 14.9a58 58 0 0 0 19.7 13 58.2 58.2 0 0 0 20-13.4 25 25 0 0 0 8.3-18.2c0-5-3-10.3-8.1-11.3-5.7-1.6-11.5-1.3-17.4-1.1v-8.2h10l.2-4.6H45.7zm58.3-33.3v4.5h10.6v8.2c-6.7-.2-14-.7-20.3 2-4.9 2.8-6.2 9-5.2 14.1.8 5.8 4 11 8.2 14.9a58 58 0 0 0 19.7 13 58.2 58.2 0 0 0 20-13.3 25 25 0 0 0 8.2-18.2c.1-5-3-10.3-8-11.4-5.8-1.6-11.5-1.3-17.4-1v-8.3h10l.1-4.5h-25.8zm58.5 33.3-.1 4.6H173v8.2c-6.7-.2-14-.7-20.3 2-5 2.7-6.3 9-5.3 14.1.9 5.8 4 11 8.3 14.9a58 58 0 0 0 19.7 13 58.2 58.2 0 0 0 20-13.4 25 25 0 0 0 8.2-18.2c.1-5-3-10.3-8-11.3-5.8-1.6-11.6-1.3-17.4-1.1v-8.2h10l.1-4.6h-25.8zm0-66.7-.1 4.5H173v8.3c-6.7-.3-14-.8-20.3 2-5 2.7-6.3 9-5.3 14 .9 5.8 4 11 8.3 15a58 58 0 0 0 19.7 12.9 58.2 58.2 0 0 0 20-13.3 25 25 0 0 0 8.2-18.2c.1-5-3-10.3-8-11.4-5.8-1.6-11.6-1.3-17.4-1v-8.3h10l.1-4.5h-25.8zm50 100.1v1.5h3.5v2.8c-2.2-.1-4.7-.3-6.8.7-1.6.9-2 3-1.7 4.6.3 2 1.3 3.7 2.7 5a18 18 0 0 0 6.6 4.3c2.5-1 4.8-2.4 6.7-4.4a8.3 8.3 0 0 0 2.7-6c0-1.8-1-3.5-2.7-3.9-1.9-.5-3.8-.4-5.8-.3v-2.8h3.4V991h-8.6z" style="fill:#000;stroke:none;stroke-width:1"/></g></svg>