<svg xmlns="http://www.w3.org/2000/svg" width="234" height="333"><g transform="translate(0 -719.4)"><rect width="233.2" height="332.2" x=".4" y="719.7" rx="8.9" ry="8.9" style="fill:#fff;fill-opacity:1;stroke:gray;stroke-width:.75590551;stroke-linecap:butt;stroke-linejoin:miter;stroke-miterlimit:4;stroke-dasharray:none;stroke-opacity:1"/><path d="M12.9 780.7v-1.5h3.5v-2.7c-2.2 0-4.7.2-6.8-.7-1.6-1-2-3-1.7-4.7.3-2 1.3-3.7 2.7-5 1.9-2 4.2-3.2 6.6-4.3 2.5 1 4.8 2.4 6.7 4.4a8.3 8.3 0 0 1 2.7 6.1c0 1.7-1 3.4-2.7 3.8-1.9.5-3.8.4-5.8.4v2.7h3.4v1.5H13zM212.5 991v1.5h3.5v2.8c-2.2-.1-4.7-.3-6.8.7-1.6.9-2 3-1.7 4.6.3 2 1.3 3.7 2.7 5a18 18 0 0 0 6.6 4.3c2.5-1 4.8-2.4 6.7-4.4a8.3 8.3 0 0 0 2.7-6c0-1.8-1-3.5-2.7-3.9-1.9-.5-3.8-.4-5.8-.3v-2.8h3.4V991h-8.6zM104 814v-4.5h10.6v-8.2c-6.7.2-14 .7-20.3-2-4.9-2.7-6.2-9-5.2-14 .8-5.9 4-11 8.2-15a58 58 0 0 1 19.7-12.9 58.2 58.2 0 0 1 20 13.3 25 25 0 0 1 8.2 18.2c.1 5-3 10.3-8 11.4a56.5 56.5 0 0 1-17.4 1v8.2h10l.1 4.6h-25.8zm0 143.6v4.6h10.6v8.2c-6.7-.2-14-.7-20.3 2-4.9 2.7-6.2 9-5.2 14.1.8 5.8 4 11 8.2 14.9a58 58 0 0 0 19.7 13 58.2 58.2 0 0 0 20-13.4 25 25 0 0 0 8.2-18.2c.1-5-3-10.3-8-11.3-5.8-1.6-11.5-1.3-17.4-1.1v-8.2h10l.1-4.6h-25.8z" style="fill:#000;stroke:none;stroke-width:1"/><g style="font-style:normal;font-variant:normal;font-weight:700;font-stretch:normal;font-size:3.77201176px;line-height:0%;font-family:'Levenim MT';-inkscape-font-specification:'Sans Bold';letter-spacing:0;word-spacing:0;fill:#000;fill-opacity:1;stroke:none;stroke-width:1"><path d="m27 735.6-.7 5.6H7.9q.5-4.9 4-8.6l6.2-5.3q3.2-2.8 3.2-5.6 0-1.9-1-3-1.1-1.1-3-1.1-2.1 0-3.2 1.1-.7.8-1 2.4-.4 1.7-.6 2H9.4q-.5 0-.8-.2l-.1-.9q0-4 2.6-6.3 2.5-2.3 6.6-2.3 3.7 0 6.1 2 2.5 2.1 2.5 5.8 0 3.6-2.8 6.6-1 1.1-5.5 4.6-3.4 2.6-4.1 4.7h9v-1.7q.3-1 1.2-1h2q1 0 .9 1.2z" aria-label="2" style="font-size:39.34609222px;line-height:1.25;stroke-width:1" transform="scale(.98105 1.01931)"/></g><g style="font-style:normal;font-variant:normal;font-weight:700;font-stretch:normal;font-size:3.77201176px;line-height:0%;font-family:'Levenim MT';-inkscape-font-specification:'Sans Bold';letter-spacing:0;word-spacing:0;fill:#000;fill-opacity:1;stroke:none;stroke-width:1"><path d="m-211.5-1002.6-.7 5.6h-18.4q.4-4.8 4-8.5l6.2-5.3q3.2-2.9 3.2-5.7 0-1.9-1-3-1.1-1.1-3-1.1-2.1 0-3.2 1.1-.7.8-1 2.4-.4 1.7-.6 2h-3.2l-.7-.1-.1-1q0-4 2.6-6.3 2.5-2.3 6.6-2.3 3.7 0 6 2 2.6 2.2 2.6 5.8 0 3.7-2.8 6.7-1 1-5.5 4.6-3.4 2.6-4.2 4.6h9l.1-1.7q.3-.9 1.2-.9h1.9q1.1 0 1 1z" aria-label="2" style="font-size:39.34609222px;line-height:1.25;stroke-width:1" transform="scale(-.98105 -1.01931)"/></g></g></svg>