<svg xmlns="http://www.w3.org/2000/svg" width="234" height="333"><g transform="translate(0 -719.4)"><rect width="233.2" height="332.2" x=".4" y="719.7" rx="8.9" ry="8.9" style="fill:#fff;fill-opacity:1;stroke:gray;stroke-width:.75590551;stroke-linecap:butt;stroke-linejoin:miter;stroke-miterlimit:4;stroke-dasharray:none;stroke-opacity:1"/><g style="font-style:normal;font-variant:normal;font-weight:700;font-stretch:normal;font-size:3.77201176px;line-height:0%;font-family:'Levenim MT';-inkscape-font-specification:'Sans Bold';letter-spacing:0;word-spacing:0;fill:#000;fill-opacity:1;stroke:none;stroke-width:1"><path d="m25.8 753-7.7 24q-.3 1-1.5 1h-3q-1 0-1-.6t3.9-11.6l4.5-12.6h-9.1q0 .9-.4 2.6l-.6.2H8.5q-1 0-1-.8l.7-6.4h17.6Z" aria-label="7" style="font-size:41.88300705px;line-height:1.25;stroke-width:1" transform="scale(1.02988 .971)"/></g><g style="font-style:normal;font-variant:normal;font-weight:700;font-stretch:normal;font-size:3.77201176px;line-height:0%;font-family:'Levenim MT';-inkscape-font-specification:'Sans Bold';letter-spacing:0;word-spacing:0;fill:#000;fill-opacity:1;stroke:none;stroke-width:1"><path d="m-201.4-1071.7-7.7 24.2q-.3 1-1.5 1h-3q-1 0-1-.7 0-.5 3.9-11.5l4.4-12.7h-9q0 .9-.4 2.6l-.6.2h-2.4q-1 0-1-.7l.6-6.5h17.7z" aria-label="7" style="font-size:41.88301086px;line-height:1.25;stroke-width:1" transform="scale(-1.02988 -.971)"/></g><path d="M12.9 780.7v-1.5h3.5v-2.7c-2.2 0-4.7.2-6.8-.7-1.6-1-2-3-1.7-4.7.3-2 1.3-3.7 2.7-5 1.9-2 4.2-3.2 6.6-4.3 2.5 1 4.8 2.4 6.7 4.4a8.3 8.3 0 0 1 2.7 6.1c0 1.7-1 3.4-2.7 3.8-1.9.5-3.8.4-5.8.4v2.7h3.4v1.5H13zM212.5 991v1.5h3.5v2.8c-2.2-.1-4.7-.3-6.8.7-1.6.9-2 3-1.7 4.6.3 2 1.3 3.7 2.7 5a18 18 0 0 0 6.6 4.3c2.5-1 4.8-2.4 6.7-4.4a8.3 8.3 0 0 0 2.7-6c0-1.8-1-3.5-2.7-3.9-1.9-.5-3.8-.4-5.8-.3v-2.8h3.4V991h-8.6zM45.7 814v-4.5h10.6v-8.2c-6.8.2-14 .7-20.4-2-4.9-2.7-6.2-9-5.2-14 .8-5.9 4-11 8.2-15a58 58 0 0 1 19.7-12.9 58.2 58.2 0 0 1 20 13.3 25 25 0 0 1 8.3 18.2c0 5-3 10.3-8.1 11.4a56.3 56.3 0 0 1-17.4 1v8.2h10l.2 4.6H45.7zm116.8 0-.1-4.5H173v-8.2c-6.7.2-14 .7-20.3-2-5-2.7-6.3-9-5.3-14 .9-5.9 4-11 8.3-15a58 58 0 0 1 19.7-12.9 58.2 58.2 0 0 1 20 13.3 25 25 0 0 1 8.2 18.2c.1 5-3 10.3-8 11.4a56.7 56.7 0 0 1-17.4 1v8.2h10l.1 4.6h-25.8zM104 864.1v-4.5h10.6v-8.2c-6.7.2-14 .7-20.3-2-4.9-2.8-6.2-9-5.2-14.1.8-5.8 4-11 8.2-14.9a58 58 0 0 1 19.7-13 58.2 58.2 0 0 1 20 13.3 25 25 0 0 1 8.2 18.3c.1 5-3 10.2-8 11.3-5.8 1.6-11.5 1.3-17.4 1v8.3h10l.1 4.5h-25.8zm-58.3 50.1v-4.5h10.6v-8.3c-6.8.3-14 .8-20.4-2-4.9-2.7-6.2-9-5.2-14 .8-5.8 4-11 8.2-15a58 58 0 0 1 19.7-12.9 58.2 58.2 0 0 1 20 13.3A25 25 0 0 1 87 889c0 5-3 10.3-8.1 11.4-5.7 1.6-11.5 1.3-17.4 1v8.3h10l.2 4.5h-26zm116.8 0-.1-4.5H173v-8.3c-6.7.3-14 .8-20.3-2-5-2.7-6.3-9-5.3-14 .9-5.8 4-11 8.3-15a58 58 0 0 1 19.7-12.9 58.2 58.2 0 0 1 20 13.3 25 25 0 0 1 8.2 18.2c.1 5-3 10.3-8 11.4-5.8 1.6-11.6 1.3-17.4 1v8.3h10l.1 4.5h-25.8zM45.7 957.6v4.6h10.6v8.2c-6.8-.2-14-.7-20.4 2-4.9 2.7-6.2 9-5.2 14.1.8 5.8 4 11 8.2 14.9a58 58 0 0 0 19.7 13 58.2 58.2 0 0 0 20-13.4 25 25 0 0 0 8.3-18.2c0-5-3-10.3-8.1-11.3-5.7-1.6-11.5-1.3-17.4-1.1v-8.2h10l.2-4.6H45.7zm116.8 0-.1 4.6H173v8.2c-6.7-.2-14-.7-20.3 2-5 2.7-6.3 9-5.3 14.1.9 5.8 4 11 8.3 14.9a58 58 0 0 0 19.7 13 58.2 58.2 0 0 0 20-13.4 25 25 0 0 0 8.2-18.2c.1-5-3-10.3-8-11.3-5.8-1.6-11.6-1.3-17.4-1.1v-8.2h10l.1-4.6h-25.8z" style="fill:#000;stroke:none;stroke-width:1"/></g></svg>