<svg xmlns="http://www.w3.org/2000/svg" width="234" height="333"><g transform="translate(0 -719.4)"><rect width="233.2" height="332.2" x=".4" y="719.7" rx="8.9" ry="8.9" style="fill:#fff;fill-opacity:1;stroke:gray;stroke-width:.75590551;stroke-linecap:butt;stroke-linejoin:miter;stroke-miterlimit:4;stroke-dasharray:none;stroke-opacity:1"/><g style="font-style:normal;font-variant:normal;font-weight:700;font-stretch:normal;font-size:3.77201176px;line-height:0%;font-family:'Levenim MT';-inkscape-font-specification:'Sans Bold';letter-spacing:0;word-spacing:0;fill:#000;fill-opacity:1;stroke:none;stroke-width:1"><path d="M23.4 846.6q0 4-.4 5.7-.7 3-3 4.5-1.8 1.2-4.3 1.2-5.2 0-8.8-4.6l4.3-4q2.4 2.7 4.3 2.7 1.4 0 1.8-1.6l.1-2.7v-22h6z" aria-label="J" style="font-size:43.70262146px;line-height:1.25;stroke-width:1" transform="scale(1.13562 .88058)"/></g><g style="font-style:normal;font-variant:normal;font-weight:700;font-stretch:normal;font-size:3.77201176px;line-height:0%;font-family:'Levenim MT';-inkscape-font-specification:'Sans Bold';letter-spacing:0;word-spacing:0;fill:#000;fill-opacity:1;stroke:none;stroke-width:1"><path d="M-182.6-1165.4q0 4-.4 5.7-.7 3-3 4.5-1.8 1.2-4.4 1.2-5.1 0-8.8-4.6l4.3-4q2.4 2.7 4.4 2.7 1.3 0 1.7-1.6.2-.8.2-2.7v-22h6z" aria-label="J" style="font-size:43.70262146px;line-height:1.25;stroke-width:1" transform="scale(-1.13562 -.88058)"/></g><path d="M12.9 780.7v-1.5h3.5v-2.7c-2.2 0-4.7.2-6.8-.7-1.6-1-2-3-1.7-4.7.3-2 1.3-3.7 2.7-5 1.9-2 4.2-3.2 6.6-4.3 2.5 1 4.8 2.4 6.7 4.4a8.3 8.3 0 0 1 2.7 6.1c0 1.7-1 3.4-2.7 3.8-1.9.5-3.8.4-5.8.4v2.7h3.4v1.5H13zM212.5 991v1.5h3.5v2.8c-2.2-.1-4.7-.3-6.8.7-1.6.9-2 3-1.7 4.6.3 2 1.3 3.7 2.7 5a18 18 0 0 0 6.6 4.3c2.5-1 4.8-2.4 6.7-4.4a8.3 8.3 0 0 0 2.7-6c0-1.8-1-3.5-2.7-3.9-1.9-.5-3.8-.4-5.8-.3v-2.8h3.4V991h-8.6zM50 804.6v-3h7v-5.5c-4.4.2-9.3.5-13.5-1.3-3.3-1.8-4.2-6-3.5-9.4.6-3.9 2.7-7.3 5.5-10 3.6-3.8 8.3-6.4 13.1-8.6 5 2.2 9.7 5 13.4 9 3.3 3 5.5 7.4 5.5 12 0 3.4-2 6.9-5.4 7.6-3.8 1-7.7.9-11.6.7v5.5h6.7v3H50zM166.8 967l-.1 3.1h7v5.5c-4.4-.1-9.3-.5-13.5 1.4-3.2 1.8-4.1 6-3.5 9.3.6 3.9 2.7 7.3 5.5 10 3.7 3.8 8.3 6.5 13.2 8.6a38 38 0 0 0 13.3-8.9c3.4-3.1 5.6-7.5 5.5-12.1 0-3.4-2-6.9-5.4-7.6-3.8-1-7.7-.9-11.6-.7v-5.5h6.7l.1-3h-17.2z" style="fill:#000;stroke:none;stroke-width:1"/><g style="display:inline;stroke-width:3.18132639"><g style="stroke-width:3.18132639"><path d="m1327.1 110.5-.2 1699.1 1052 2.3.7-1700.2zm334.2 10 476.7 1.7s-54.6 70.7-66 102.8c-8.7 11.3-12.7 9.2-27.2 6.3-38.7-10.1-104-10-136.4-10.5-61.3-2.8-116.2 16.2-177.6 19.3-21.1-35.4-51.9-79.9-69.5-119.6zm-321 3 306.6 1 71.8 131.1c2.7 3.7.2 11.2-1.4 15.4-8.9 25-16.7 39.5-34.6 69.3-17 28.1-23.1 54-17.1 71.3a18 18 0 0 1 1.4 8.1c-1 8.7-8.3 18.7-18.2 25.6-6.7 1-20.7 1.9-28.8 9.9-6.9 6.8-12.6 16.9-11.7 35.2.4 6.6 1.3 10.7 1.3 10.7-91.4 38-157 82.6-154.8 84.2-.8-.4-80.3-37-113.4-46zM2155 126l210.1.2 1.3 599.6-80.7-52.2a679 679 0 0 1 17.7-12c1.2-.5 3.5-.5 5-.8 14.1-3.2 24-13.7 19-24.6-3.3-7.4 1.2-7 5.3-13 4.6-6.7 3.6-12.8.7-18.5-1.4-2.8-.6-4 1.8-9.2 6.5-8 1.8-21.4-6.5-25.8-.9-1.3.9-3.3 1.3-5.1 2.3-10.8-2-20.3-11.3-22.8-4.8-1.2-6.4-2-4.7-6.3 3-7.7-1-10.5-7.2-13-10.6-4.1-7.6-4.8 5.4-10.6 26.7-12 33-47.7 14.6-80a554 554 0 0 0-12.8-20.2c-4.9-7.6-9.7-14-9.7-14l35.3-49.3s-24.6-29-33.3-45.1c2-8 26.6-33 29.8-57.1 5-38-23.8-62.3-51-59.4-19 2-42.3 14-40.5 49.2a81.5 81.5 0 0 0 12.5 35.8c5.4 10.2 12.4 21 19.1 31.4l-35.5 48.6 35.9 45.4-1.3 2a387.2 387.2 0 0 0-18.4 32.1c-13.2 26.2-18 55 9.3 75.2 4.7 2.9 8.4 5.4 10.4 7.4 2.7 2.6 1 4.6-3.3 5.6-5 1.1-10.2 1-15.5 3.1-17 6.2-34 16.3-46.2 26-6.9 5.6-17.8 23-24.5 37.2a300.6 300.6 0 0 1-9.3 18.8L2053 524.7s-3.2-2.5-4-3.5c-2.4-2.6-1.6-4.1 0-7 1.4-2.5 1.5-9.6.9-15.1-.2-10.5-.1-10.5 6-20.1 2-3.4 3-6.8 1.7-12-2-5.9-2.1-4 1.6-8 1.4-1.9 3.2-2.7 3.5-4.7.4-2.6.1-7.1.2-15.6 0-17-.2-15.6 9.4-23 11.8-9.4 16.3-13.7 18.1-18 2.7-6 0-10.5-6.6-22.5-3-5.5-7.8-12.9-10-17-4.3-7.5-10.5-17.2-13.4-26.6-4.4-7.2-3.8-19.7.3-27 5.2-9.2 6.6-14.7 6.5-33.3-.2-17.2-1.5-15.6 3-21.4 32.7-43.4 84.8-124 84.8-124zm133.5 63.4 2.2.1c10.3.5 20.5 3.8 30 13 13 13 12.1 31.7 7.9 51.2-2 5.6-3.5 11.4-7.4 17.3-2.3 3.3-4 6.3-4 6.8 0 .4-3.3 5.5-7.2 11.4-3.8 5.8-8.2 13.8-8.2 13.8s6.1 11 17 24.6c8.1 12.1 13.4 22.7 14 22 0 0-2 5.3-4.9 9a382.9 382.9 0 0 0-25 37.3c-.1.5-1.8 1.1-1.7 1.7 0 2.2 3.2 4.8 8 11.3 28.4 39.1 32.5 72.1 11 91.5a39.6 39.6 0 0 1-32.4 11.5 41.7 41.7 0 0 1-37.5-45.6c1-11.8.4-15.3 7.4-29 3.1-7.7 10.2-21 15-27.7 4-4.8 8.5-11.6 8.5-11.6s-10.2-15.6-28.8-37.6c-3.4-4-5.5-9.4-5.5-9.4l32-47.3s-3.7-9.2-10-18.5c-12.7-19-21-39.3-20.9-50.7.2-28.4 18.8-45 40.5-45zm79.6 676c-18.9 10-37.3 44.2-1.4 20.3l1 19.7c-18.7 26.5-55.2 7.1-46-20.3-25.2 3.3-29-22.3-27.8-34.5-33.1-7.2-21.7-42.3-21.7-42.3-19.1-16-22.5-32.8-7-50.5-15.7-9.7-20-16-37.3-23 13.2 117.5 76.6 178.5 143.4 233 0 0 1.5 37.8-6.2 30.8-95.3-71.2-156.6-152.7-167.1-284.4-.8 2-45.2-34.4-52.6-32.4-15.3 213.3 154.5 353.5 225.1 381.2 0 0 1 29.7-.2 29.8-107-46.7-226-183.7-249-346.8l-63.1 97.8-23.7-10.1 102.1-161-69-43.2L1955 807.6s-3 14.8 5.2 14.6c157.8 16.9 392.5 206.5 313.9 515.1-6.8-2.7-17.7-8-18.2-7.7 12.3-26.6 46.7-199-56.8-338.1-47.4-63.8-121-131.6-239-151.7 9.7 20.2 5.5 65.8 5.5 65.8l27.5 5.6c-9.3-9.8-17-17.9-20.8-28.5-5.1-16.6 2.4-26.4 20.8-16.6 7.3 4.1 9.1 4 16.2-1.3 14.8-11 31.6.3 27.8 18.6-.6 2.7.1 4.4 7.1 5 16 1.6 32 9.5 42.3 21.8 5 6.5 6.2 5.6 10.7 1.6 11.1-9.6 29.5 3.8 26.2 18.7-1.8 8.5-.8 10.5 3.1 12.2 21.7 9.1 27 14.8 33.8 33.8 2.4 7 4.5 9.3 5.8 8.9l7.6-2.7c16.1-6.1 25.6 13.5 14.1 28.8-2.3 3.1-.6 6.2 3.6 8.4 13.5 7.4 22.6 25 24.2 43.4.6 7 1.4 7 8.4 6.7 17.9-.8 26.4 23.4 11.8 32.3-5 3.1-4 7.1-.1 11.8a43.3 43.3 0 0 1 12 35.5c-1.3 18.8-.1 18.4 5.9 20.7 17.4 6.6 14.2 34.4-3 34.3 12.4 28.7-3.8 63.6-3.3 64.3 32.8 18.4 3.2 38-6.3 34.6 0 0-4.9 12.9.6 19.5-28.8 38-66.4 44.4-108.2 63.3l-1.3-134c17.4 14 34.6 27 51.8 40 0 0 4.3-1.4.4-5-7.7-7-27-19.5-32.3-24.5a717.7 717.7 0 0 1-61.8-59.1c-3.3-6.5-8.5-2.8-8.3-2.4 5 8.8 8.9 19 15.4 28.2 14.3 19.8 28.1 41.7 26.7 63.4 0 12.1-4.9 24.7-7.6 30.8-2 8.3-15.3-1.5-12-8.5 6-19.2 10.9-35-10.2-65.9-10.3-15-23.7-42.4-23.7-42.4l-8.5 2.1.3 175c-7.1.2-25.3 4.9-21.6 5 56.6-11.3 73.9 69.6 19.3 72.3-10.4.3-21.1 18.2-22.2 27.9.5 23.5 4 48.3-13.3 70.8-4.5 6-6.6 15.4-10.8 22.8-21 37.1-30.3 58.5-28.2 68 .6 2.5 1 5.8 1 5.8-66.8 16.7-116.9 21-184.3 22.5-.6-1 22.7-66.5 39.6-100 12.6-24.8 19-41.8 15.5-47-53.4 2.8-43.1-75.5 8-72.8 0 0 12.8-45.1 27.1-65.5 13.6-7.5 41 2.8 56.3-7.4 36-11 59.7 31.7 59.7 31.7l9.8-40.7-319.4-1.5s-32.9 12.3-49.7 5.4c-10.7-4.5-23-17-23-17s122-196 139.9-224.3c1.4-2.3-3.2-7.2-3.2-7.3-.7-6.4-142 214-141.5 223.7 0 0-3.8 5.3-10.6.6-80-55.2-271-173.8-271-173.8l-.2-87.9c66.4-41.8 60.4-59-1.1-13.3-.9.7-1.3-33-1.3-33 46.9-41.9 7.9-28.8-1.4-14.3.2-10.4-2.2-24.6 4.5-30.8 20.5-19 44.6-1.6 45.9 26.3 26.7 5.3 23.4 28.8 30.3 38.2 27.2 15.4 12.9 38.7 19.6 46.7 28.7 18 8.7 47.2 2.6 46.5 3.6 2.4 39.3 26.3 42.4 25.5-3.1-125.4-141.2-245-145-238.8l3-27s172.4 110.3 171 287.4l55 32.7c-5-181.7-86-304.3-224.8-382.3l-3-34.2c116.5 54.2 224.5 163.9 249.6 343.6l64.5-100 22.7 11-103.5 166 64.7 42.6c50-66 91.9-147 117.4-185.5-.7-3.5-2-8.6-2-8.6-246.5-40.6-385.4-271.6-319.2-513l17.1 7.6c-51.4 178.8 32.4 436 300.5 488.6-.5-19-3.9-65.7-3.9-65.7s-35.2-10.6-30-6.4c8.6 7.4 28 39.2 19.8 50.5-5.9.8-15.7-2.5-26.5-10.4-4.1-3-4.2-2.3-8.8 2.6-12.7 13.5-31 5.7-31.2-12.9-.1-7.8-.4-9.5-11.5-9.6-17 0-24.5-3-34.6-16.5-7.2-9.6-6.5-9.7-15-6.8-16.2 7.7-29.1-8.4-24-21.8 2.5-6.2-.2-8.2-7.6-9.4-14.3-2.4-30.5-20.4-33.5-35.1-.6-3-2.1-3.8-10.5-3.5-16.6.6-25.8-9.5-19.3-23.5 3.6-7.7 4.6-10.7-2-15.9a47.8 47.8 0 0 1-16.4-18.4c-2.8-6-3.3-10-5.2-22.9-.7-4.5-2.2-5.2-8-6-17.2-2.2-24-19.7-11.4-31.1 3.8-3.5 3.8-3.4-2-11-11.2-14.5-15.4-33.4-10.5-46 1.3-3.5 0-7.7-4-8.6-15.6-4-15.9-21.3-1-31 4.4-2.8 4.6-4.7 1.3-10.4-5.7-10-5.4-36.2.1-48.7 3.6-8.1 3.6-8.3-2-11.9-11.8-7.5-8.4-28.4 5.6-31.9 6.8-1.6 7.3-2.5 5.4-10.8-3.2-14.8-3.8-18.6 5-24.4 23.9-15.6 85.3-45.4 85.3-45.4l20.2-9.6s2 123.9.8 138.5c-.8 6.3 4.8 10.1 11.4 16.7 13.7 13.4 21.1 29.6 39.3 40.9 0 0 11.3-6.4 18.4-10.9l.6-176.5c1.5-4 2.5-4.4 7.1-5 3.9-.7 13.6-1.8 16.9-2.8 7.8-2.3 9-5.4-1.2-4.4-3.1.3-7.8 1.7-13 2.7-32.1 9.6-55.9-40.4-31.4-65.6a76.5 76.5 0 0 1 30.2-12c2.3 0 9.2-8.5 13.8-16.3 4.8-7.8 6.7-13.6 4-21.5-5.7-16.5-.2-41.8 16.7-69.5a254.3 254.3 0 0 0 40-86.4c65-7.8 120.2-24 179-20.4 2.3 19.9-64.3 137-50.4 143.9a36.4 36.4 0 0 1-5.3 72.6c-6 0-6.6.5-10.4 13.6-7.2 19.3-11.9 34-19.6 52 0 4.5-3.3 4-25 4-20-3-33.7 7.8-48.2 8.5-18.4.8-34.2-8-40.6-22.7-2.9-6.6-5.5-2.3-5.6 13.2 0 12.4-.6 19.6-.6 19.6l163.3.4c175.8.3 158.3 3 172.2-4 8.2-4 13.6-8.5 27.6.7 22.6 14.8 21.9 12.8 15.3 22.3a10317.5 10317.5 0 0 0-141.9 223.1l6.9 6.7s98.6-155.8 143.6-228.8c2-2.4 11.4.6 11.4.6l269 175a998 998 0 0 0 .4 85.7c-75.6 40.1-52.5 60.6-.4 12zm-456.6-629.7s78 .6 117.2 6.9c34.2 5.5 32.5 4.5 32.3 29.3 0 17.7 0 17.3-4.6 25.8-8.4 15.6-7 31 6.3 52.6 12.8 21 22.2 36.4 22.2 39.4 0 4.6-.8 10.2-12 18-13 9.2-15.5 15.6-15.4 24.9.2 7.5-1.2 10-5.7 10a76 76 0 0 0-15 6.1c-12.1 5.7-12.2 5.7-23.4 5.6-5.6 0-8.4-2.2-10-1.5-3 1.4-5.7 11.5-5.6 14.5.3 1 2 .4 5.2-.8 18.7-6.3 46.4-3.5 47.2-.7 3.7 3.4 3.8 8.7-2 14.1-3.6 5.8-5.3 8.8-3.7 17.8 2 12.1.5 17-5.7 21.1-19 12.9-44.3 14.5-84.8 6.7-42.6-8.2-71.8-24.5-96-53.6-10.9-13-13.6-17.6-8.2-18.5 6.6-1 14-2.3 20.7-5.3 30-12.9 29.4-67.8-11-73.5-16.4-.6 34-78.3 52-139zm38.5 37.8c-14.5 8.1-22.1 18-22.1 23.4 0 2.2.5 1.8 7.4-2.8 20-13.2 73-32.3 92-21.3 13.5 8.2 18.8 5.6 11-5.4-18.6-25.9-68.5-4.7-88.3 6zm51.8 8.6c-2.2 0-4.4.3-6.6.8-14 3-29.4 14.6-42.1 24.7-6.3 5-15.2 15-16.6 17.5-3.1 5.9 3.8 12.4 13.3 7.2 5.4-3 6-2.3 11.2-1.6 12.2 3.7 26.1 9.4 47.7 7.6 2 .4 1.8.9 1.1 2.8-1.3 3.4-8.9 10-18.8 17.3-5.2 3.8-9.6 7-10 7.5-1.6 2.5 5.3 2.7 12.8-1.5 10.6-6 23-19.4 30.4-30.2.7-1 1.7-1.8 2-3 .8-2.4-3.7-1.4-6.1-2-1-.4-.8-3-1.1-4.2-.7-3.1.5-8.3 1-12.8.6-3.6 4.4-6.5 7-9.2 11.2-11.7 10.4-17-4.8-8a15.7 15.7 0 0 1-7 2.7c-22.3.7-35.2-.2-53.8 15.5-8.2 6.6-13.2 7.3-5.8.2 11.2-9.1 25.2-22 40.8-25.5 9.4-2.3 18.3 4.9 22.4 3 0-5.1-7.8-8.8-17-8.8zm-3.3 32.3c2.6 1.7 5 10.4 4.8 13.4-.2 3.4-6.1 2-7 .4l-3.1-9.7c-1.4-3.3 2.8-5.2 5.3-4zm-11.3 2c2.7 2.7 3.3 8.5 4.9 13.4-1 3.4-23-1.3-25.7-5.1 3.3-4.3 14.6-9.4 20.8-8.3zm38.5 62.6c-1.7-.1-3.9.7-5.9 2.7-9.8 10.1-6.7 27.4 5.2 33 5.8 2.7 14.6.7 27.5-3.3a61.3 61.3 0 0 1 11.8-2.8c5 0 7.7-7.8 4.2-11.3-4-4.2-13.8-3.6-24.2 4.5-5.3 4-9 6-13.3 6-10.5-.1-15.5-10.9-4.9-22.2 3.6-3.7 2.3-6.4-.4-6.6zm-73.2 74.1c12.3 10 35.7 4.8 51.4-5.6 14-9.3 19.9-12 31.1-10.1 13.8 2.4 13.3-3 7.3-9.9-6.7-7.7-23.5-5.3-37.5 4-31 20.5-42.3 24-51.3 12.8-9.7-12 1.9-27.3 13.2-19 9.4 6.5 9.3 1.7 5.4-2.7-22.5-19-38.8 15-19.6 30.5zm-109.2 9.8c15.7 19.9 30.7 36.3 53.3 48.4l.2 3.8-72.9-.2c5.1-8.9 19.6-51.4 19.4-52zm-246.7 51.8c-1.5 30 3.8 47.5 21.4 68.5 18.6 22.3 17.2 57 5.2 78.4-5.3 9.5-16-2.2-11-8.2 7.3-9.2 7.7-31.4 4.3-45.3-7.7-23-25.1-34.2-32.2-58.4-2.4-10.4-1.6-29-1.6-29zm22.8 2.5c1.3-.2 3.3 1.1 6.3 3.7 10.3 9 8.6 34.5-3.2 50.9-3.6 5-6.6 3.5-10-1-4.8-4.7-3.1-5.1.8-13.2 4-8.5 5.4-18 4.5-29-.5-7.5-.3-11 1.6-11.4zM2288 526c9-.2 20.4 1.8 21.5 5 1 4-1.2 7.3-6.3 9.4-13.3 5.7-30.9-2.2-26.4-11.8 1-1.7 5.7-2.5 11.2-2.6zm-23 2.2c2.5-.1 4.6.5 6.2 1.3 4.3 2.2-2.5 17.6 19.2 17.3 5.2.8 9-.4 8.3 1.9-1 3.5-10.4 8.8-20.5 10.3-30.3 4.5-29 3-27.6 24.4 1 14 0 18.6-1.9 27.1-3.3 14.7-4.6 28.9-2.3 24.2 2.9-6.2 10.4-26 10.4-37.1 0-16.5 5.8-19.8 8.2-7.8 1 7.9-2.6 12.3 2.8 20.4 3 4.6 4.3 4.5 2.3 11.5-1.7 6.2-.5 8 1.7 11.2 2.1 3.2 4.3 4 2.5 8.4-4 9.5 2.3 18.6 11.3 19.4 4.2.3 5.4 2.1 4.1 3.7-2.2 2.8-6.6 4.1-10.3 5l-96-61.5s7-14.3 9.2-18.1c13.8-30.3 24.7-44 65-60a21 21 0 0 1 7.3-1.6zm51 19.8c2.6 0 4.6 1.3 6.8 4.2 6 7.6.8 17-13.7 25.2-12.4 7-16 7.9-18.7-3.2-.6-2-2.3-4.4-3.4-5.4-2.8-2.6-2.2-4.8 1.5-6.8 1.7-.9 7.3-3.2 11.8-6.1 7.7-5.1 12.3-7.7 15.7-7.9zm-41 22c3.1 0 6.2.8 8.5 2.3 3.9 2.5 4 8.8 0 11.3-7.7 3.1-19.9-1-18.8-8.2.5-3.6 5.3-5.4 10.4-5.4zm49.5 7.8c2.7 0 4.8 1.2 6.5 3.8 4.5 7-.8 14-16 21.5-10 5-22.9 7-22 4.2.7-2.4-3-13.8-4.5-15.7-.6-2 .2-.2 12.8-4.2a66.9 66.9 0 0 0 12.7-5.4c4.4-2.7 7.8-4.1 10.5-4.2zm-720.9 18.1c-7 17-8.2 24.4-4.8 42.3 2.8 14.8 6 22.2 21.2 44.1 11.6 16.7 15.3 23.2 12.5 28.5-2 2.8-6.4 5.5-9.1 2.7-5.7-7.4-9-16.3-14.6-24.6-21.3-31.2-22.7-39.1-25.4-63.8-1.3-11.2 5.2-35.2 10.7-38.8 6.2-2.4 11.4 5.7 9.5 9.6zM2095 588c-.5 0-1 .3-1.6.9a66.3 66.3 0 0 0-10.8 18.4c.6 4.4 4.2 1.5 13.8-12.5 2.3-3.4.8-7-1.4-6.8zm183 7.7c8.6.2 11.6 7.8 7.8 11.8-5.5 5.8-15.6 1.5-15.6-6.7 0-3.4 1.7-5.2 7.9-5.1zm47.3 10.8c4.9.2 5.5 5 3 12.1-3.3 6.6-7.2 7.7-18.9 11.3-14 4.4-16.3 3.7-18.4-9.1-.8-5-.4-3.9 12.5-7.3 5.5-1.5 12-4.1 15.5-5.6a18 18 0 0 1 6.3-1.4zm-827.6 5.8 3.5 26 5.6-19.5zm782 8.8c7 0 10.7 6.2 7.2 9.9-2 2-7 2-9.3.9-5.5-4-4.5-10.9 2.2-10.8zm-210.5 13.6 13.4 8.2-109.2 172.4-13.1-.3-1.3-2.8zm247.6 1.6c8.1-.1 8.8 7.5-1 14.5-4 2.5-8.4 3.2-12 3.3-4.8.2-8-1-8.4-4.4-2.1-8.2-3.3-10.3 4.2-9.8 1.5.1 5.5-.1 8.8-1.5a23 23 0 0 1 8.4-2zm-33.3 7.5c5.5 0 9 6.1 5.3 9-4.6 3.7-10.3 1.5-10.3-4 0-3.6 1-5 5-5zM1498 656l-29.7 26.3c11 13 20 25.8 29.5 39.3zm600.5 1.7c13-.5 17.1 5.7 11 10-8.3 5.5-15.4 5.2-24.8 4-12.5-2.4-2.6-12.4 11.1-13.8l2.7-.2zm-13.7 18.8c2.6-.1 6.5.6 11.5 2.3 8.4 2.9 18.9 11.7 18.4 16.6-.8 8-15.7 3.8-27.8-7.5-7.5-7.1-7.8-11.3-2-11.4zm-11.4 0c7.3.8 14.6 25.5 9 33.1-5.6 7.5-15.4-8.6-13.6-21.2.7-5 2-11.5 4-11.8h.6zm-477.3 5.5c4.1 1 9.4 6.7 8.3 11-.9 1.8-2.6 1.3-4.5.8a10 10 0 0 1-5.3-10c.3-1.1.8-1.7 1.5-1.8zm553.9 4.3 21.5 14.5-21.5.9Zm-89 29.5c16.5 0 20 5.4 7.7 11.9a39.5 39.5 0 0 1-24 1c-10.2-3.6 2-13 16.3-13zm133.3 11 1.1 15-41.3 3.6-2.2-15.6zm-143 7.5c3-.2 7.5 1.1 13.4 4.2 11.3 5.8 17.7 15.5 11.9 18.6-5.3 2.7-14.6-.6-21.3-7.5-8.7-9.2-9.4-15-4-15.3zm-14 0c7.5.5 14 21 9 31.2-2.7 5.6-6 4.4-11-4.8-4.8-8.8-5-24.5.5-26.2.5-.2 1-.2 1.5-.2zm-537.8 5.8-18 36.4 32.7 28.6zm699.9 28 2.9 14.4-39.7 9.8-3.9-15.7zM2026 771c4.8.1 9.4 1.3 12 3.6 3.6 3.2 2.8 4.6-5.8 8-15.2 6.3-34 2.5-23-6.8a27 27 0 0 1 16.8-4.8zm257.8-.8c-15.2 10.2-.6 15.7 10.2 8-.8-2.6-7-8-10.2-8zm-269 20.4c10.9.3 32.2 15.2 27.6 22.3-2.5 4-16.7.6-22.3-4.8-7.5-7.1-11.4-16.7-7.3-17.4.6-.1 1.3-.2 2-.1zm-13.7.7c5.6-1 14.6 25 7.8 31.7-2.5 2.5-3.2 2.3-7.4-1.4-8.5-7.5-7-21.4-2-29 .5-.8 1-1.2 1.6-1.3zm333.2 13.7c-1.5-2.8-3.3-4-5.4-5.6-52.6 20.3-39.1 39.6 5.4 5.6zm-124.9 1.8 5.3 14.5-40 15.9-5.9-16zM1526 834.2l-13.6 35.7c14.8 0 28 7 41.5 13.2zm697 10.5 8.4 14.3-37.6 20.4-7.5-15.1zm-873.5 27.9 15.4 10.9-22.6 28-2-3.9.2-23.3zm894 8.8 9 13.2-36.2 25.1-8.8-14.3zm-855.1 17 16.6 12.7-26.3 31.7-16-12.1zm182.9 7.8-.8 38.1 39.1 1.5zm452.2 17.2L2068 949l-6.7-39.1c-11.6 2.2-26.5 9.8-37.8 13.5zm244.3-8 10.3 12.9-33.4 28-10.7-13.4zm-845.5 11.3 15.5 14.4-27.3 29.5L1396 957zm874 20.9 12 12.2-30.4 31.7-12-12.2zM1457.4 963l12 14-31.2 24.8-11.5-14zm179.7 3.3 8.8 37.4c-.7-2.7 38.8-11.2 44-8.3zm459.4 3.2 37.3 39.3 4.2-37.9zm230.4 6.2 13.4 10.5-25 35.6-15.2-12zm-842.7 23.7 11.1 16-32.6 19.5-9.3-14.2zm878 3.8 2 2v25.5l-10.4 15.2-14.1-8.3zm-210.7 28.6 32.9 59.9 9.3-44.7c-12.2-.2-31.5-8-42.2-15.2zm-641.2 8 7.9 17.2-34.6 15.8-7.8-17.2zm18.7 41.2 6.3 17.3-36.7 12.2-5.8-16.7zm-164.2 31.4 11.4 8c59.6-31.3 41-40.5-11.4-8zm336.7-20c2.3-.1 4.8 3 7 9.8 3.1 10.4 1.4 23.3-5.6 23.1-4.8-.5-6.5-12.7-6.6-16.2 0-10.5 2.3-16.3 5.2-16.6zm32.7 6.3 14.1 1.5v4l-113 179.5-13.7-8.7zm-60.9 4.2c4.5 0 11.1 3.1 17 9.3 3.4 3.7 7 9 8 14.4-.2 1.7-3.2 1-6.1.6-7.5-1-18.6-6.2-22.1-12.6-4.3-7.9-1.9-11.8 3.2-11.7zm519.5 6.4 15 73.4c4.7-18.4 14.6-29 21.9-43.4-19.2-8.8-27-19.3-36.9-30zm-649.2 14.8 3.5 19-38 8.8-4-18.4zm142 6.6h1.5c14 1.6 16 4.7 6.6 11-5.7 3.8-21 4.4-23.6.3-2.7-4.3 7.3-11.2 15.4-11.3zm-276.3 11.2 11.9 6.9c20.2-14.6-2-17.6-11.9-7zm256.2 6.4c4.3 0 6.8 7.6 8.3 14.6 1.5 6.8 2 12.9-.6 16.3-3.2 4.1-6.4 4.8-8.9.7-7.4-12-7.2-31.7 1.2-31.6zm-31.4 11c2 0 4.5.4 7.4 1.5 10 3.8 23 18.9 17.5 21-8.2 3-26-5.9-29.4-15-1.7-4.5.2-7.3 4.5-7.5zm-81.4 12.2.9 18.8-40 1.6-1.2-18.7zm98 15.8c4-.1 8 .4 11.1 1.8 5.7 2.5 1.6 7-8.3 10.4-6.5 2.2-15.7 2.8-19 .2-7.6-6 4.4-12 16.2-12.4zm-309.5 2.2c27.4 16.6 84 53.7 84 53.7-2.8.6-5.6 2.7-8.3 4.7-2 1.7-4.2 3.3-6.2 4-3 1.3-5.8 1.5-8.3 2-17.7 3.9-26.4 13.9-20.8 26.3 2.1 4.9 2.7 4.1-1 8.2-10.6 10-9.3 13.1-5.6 26 0 1.8-12.5 17.3-1.4 29 6.2 5.3 6.5 2 4.2 14.1-.7 7.4 1.3 13.4 12 15.5 5.9 2.7 5.8 1.8 3.7 6.8-1.4 7.2.6 10.2 5.7 12.9 4.6 2.8 6.5 3.6 3.2 6.1-35.6 18.3-46.5 50-13 96.7 4 5.5 14 21 14 21-11.4 16.8-22.2 30.6-33.7 45.6l33.6 47c-5.5 8.5-18.2 25.9-26 43-11.7 25.6-4 61.7 29.8 72.4a44 44 0 0 0 45.6-13.1c9.8-11.4 15.1-34 6.2-57.4-11.3-26.3-24.8-39.2-29.2-46.7l36-45.2s-24.8-35.6-34.7-48.5c67.5-82.6 12.4-105.7 1.8-112.7-1.6-1.1-1.2-6.4-1.2-6.4 60.5-7 81.2-40.2 99-82.3 36.2 23.2 87.9 54.5 124.1 79 3.5 3.2 5.8 5.2 5.3 7-.5 1.5-1.9 8.2-2 15 1.7 11 1 16-3.5 20.1-4.1 4-3.3 5.8-2.6 10 1.1 7.4 2.3 8.2-1 12-4.1 4.5-5.5 6.7-4.7 17.8.4 6.6 1.3 11.6-.5 15.5-2.2 5.1-8.4 7.7-16.5 14-14.2 11.2-12.3 14.6 7.3 55 16.7 34.5 18.6 42.3 12.2 54.6a56 56 0 0 0-6.7 32.7c.2 3.8.5 7.8.5 9.8 0 4.8 0 4.2-2.7 7.2-2.2 2.3-5.7 6.9-8 10.2-23.2 35-84.5 123.8-84.5 123.8l-206-.4zm288.8 16.2c2.4-.1 5.4 4.2 8.7 13 1.9 5 1.7 13.7-1.4 17-6.2 6.8-14.6-9-12-21.4 1.3-5.6 2.9-8.4 4.7-8.6zm579.3-9.4c0 31.8-.7 73.1-11.6 103.6l12.4 5.6c-4-31.3 1-57 29.7-70.4-13.1-8.9-23-23.9-30.5-38.8zm-610.1 20a32.7 32.7 0 0 1 17.2 8.1c5.8 6.1 11.9 13.3 10.4 14-9.8 4.3-34.5-8.8-31.3-19 .7-2.2 2-3 3.7-3zm-43.4 1.4.3 15.6-24-15.3zm546.7 7.5c3.9.4 9.9 5.4 9 9-1.7 3.8-3.8 3.4-6.4-.6-3.4-5-4.7-8.1-2.6-8.4zm-485 19.3c5.8-.2 10.8 1.1 11.3 4.1 0 3-4.4 6.6-9.8 8.3-13.6 4.2-23.8 1.5-20.1-5.2 2.3-4.4 11.1-7 18.6-7.2zm474 17.7c-5.8 10.3-6.5 43.3 3.7 56.7 15.7 17.4 30.3 40.1 28.6 70.3l-15.1 6.8c.8-24.8-.2-41-19.6-62.4-23-25-17.6-68.5-9.7-81.3 6.9-12.6 16.7 5.3 12 9.9zm-664-13.7c4.8-.3 10.7 2.5 21.5 9.6 27.4 19.4 42.3 27 69.5 46.1 4 3.8 3.7 3.2 3 6.2-10.3 39.8-40.5 71.3-85.3 77.1-5.2.7-2.5-2.5-5.6-8.8a16.8 16.8 0 0 0-15.7-9.3c-18.5-.1-2.7-10.5 19.8-13.5 7.5-1.1 16.5-2.1 21.2-6.6 1 .5-3.9-31.2 1.2-42.3 2.6-10 .1-14.8-2.7-8.7a111 111 0 0 0-5.5 24.4c-1.1 8.8-3 10-5 5.8-1-2-1-6.6.5-10.2 1.7-8.3-8.7-14.5-6.6-22.1 2.8-6.3-.1-13.3-3.6-15.6-2-4.1-1.7-7.1-1.5-10 .6-6.7-3.9-13.1-11-16-3-1.5-2.1-3.2 1.1-4.9a13 13 0 0 1 4.7-1.2zm-22.5 11.3c1.8 0 3.6.2 5.3.6 3.6 2.2 6.5 14.8 2.5 15.3-1.5.2-6.2.7-9.8 1.8-12.3 3.6-18.1 3.1-17.9-4 .3-7.1 10.3-13.5 20-13.7zm16.3 1.3c4.9 0 8.8 5.7 5.7 8.7-3.1 3-9.1.8-9.1-3.7 0-2.4 1-5 3.4-5zm3.3 19.6c1.4 0 3 .2 4.6 1 4.5 2 7 9.8 4.2 12.6-2.2 2.2-8.4 1.4-11.7-1.4-6-5-3-12 3-12.2zm-15.2 1.1c2.8 0 4.8 1 5.3 2.9.5 1.6-.3 3.2.5 5.5 1.1 3.7 3.5 6.6 1.4 8-9.4-.5-29 11.3-34.6 10.7-4.7-.6-5.2-5-1.1-12 4.7-8.1 20.2-15.3 28.5-15zm5.7 22.8c2 0 2.4 1 1.6 4a20 20 0 0 0 1.3 10.5c1.6 3.5 4.4 5.6 3 7-2.5.7-10.6 2.3-17.4 4.8-8.7 4.9-33.4 19.5-27.2-3.9 2-7.8 11-13.2 26.9-18.7 6-2.1 9.7-3.5 11.8-3.7zm12.9.3a10 10 0 0 1 10 6.3c5.8 11.4-10.6 13-15.8 3.5-3.1-5.6 1-9.4 5.8-9.8zm3.1 26.5c8.5 0 15.1 10.6 9 14.6-4.6 2.7-10.3 2.2-15.5 1-8-3.5-4.3-15.7 6.5-15.6zm814.9.2a626 626 0 0 0 119.1 44.2l-1.4 420-290.5.3-80-138.8s-2.6-4.5-3.5-6.5c-1.6-3.8-1-6.9 0-10.8 2.7-9.5 10.7-28 18.1-41.2 19.4-35.4 46.8-74.3 32-108.4-1.8-3.9 15.3-25 15.3-25 26.2 2.2 47.9-15 40.1-55.3 54.8-22.4 100-40.6 150.8-78.5zm-830 2c.8 0-1.5 9.3 3.2 15 2.9 4.4 2.4 4.2-7.4 8.1-3.7 2-7.4 5-9.5 6.9-14 12.5-28-3.9-14.4-17a50.6 50.6 0 0 1 28.1-13zm669.4 8.8c4.7.8 10.9 7 9 10.5-6.8 11.2-7 17.2-7.6 28.7-.7 13 1.5 14.8-3.4 12.6-3.2-1.5-9.2-4-10.6-7.4-3-7.5 4.9-45.8 12.6-44.4zm-674 32.3c5.3 0 10.8 1.6 13.8 5.6 2.6 3.3 2.9 6.2.3 7.5-6 3.2-26.2 1.6-27.3-2.6-1.5-6.4 5.6-10.4 13.2-10.5zm305.6 8.2c24.6.1 53.4 5.3 75.7 15 31.6 12 59.4 42.4 65.7 55.3 1.9 4-2 4-5.4 4.4-37.6 6.2-50.2 52.5-18.4 74.6 10 6.2 18 5.6 18 5.6 8-.7-35.8 83.4-53.3 135.9-54-2.3-94.8 6-147.6-12.1-5.7-9.4-4.3-30.3-.2-41 3.8-9.8 8.8-17.3 6.4-28.5-4.2-19.6-22-45.1-28-61.3-5.2-12.3-4.9-16.9 4.2-24 10.8-8.3 13.4-10 16.4-14.2 2.7-4 1.5-4.9 1.6-13.7 0-10.7-.2-9 8.7-10.6a74 74 0 0 0 15.9-5.8c11.5-6.1 19.6-5.9 26.4-2.1 3 .8 2.6-2.3 3.9-6.3.5-1.8 1.8-4.7 1.7-5.6-.3-1.8-4.2-1.3-8.4-.7-17.3 2.4-30.9 3-37.8.4-6-2.3-6.1-6.3-2.6-13.1 3.2-6 5.4-6 4.1-18.5-1.6-15.8.6-19.1 8-24.3 9.2-6.5 25.8-9.5 45-9.4zm89 14h80.2a204.6 204.6 0 0 0-21.6 50.7c-.7 1.4-1.6 2.9-3.4 1a164.1 164.1 0 0 0-55.1-51.8zm-66.3 56.3c-9.6.3-21.6 4.9-36.6 13.5-10.3 5.9-18.6 9.5-29.5 7.5-6.2-1.1-7-.2-7.8 1.8-3.6 9 10 18.7 23.6 12.4a709 709 0 0 0 36.2-18.9 61.5 61.5 0 0 1 17.8-5.1c10.1 0 16.3 8 15.1 17.2-1.6 12.2-19 12.8-20.1 2-.9-8.4-4.4-4.7-4.7-.6 0 3.5 2.6 11.6 5.5 13.4 14.7 9.1 34-8.7 24.7-27-5.6-11.3-13.4-16.5-24.2-16.2zm-65.8 42.6c-10 2-16.4 5.8-27 6.7-9 2-8.3 9-2.7 12.7 4.2 2.8 9.6 1 25-8.8 15.2-9.6 28.2 10.5 16 20.8-7.6 6.5-2.3 8.2 3 4.3 13.4-10 5.7-39.4-14.3-35.7zm47 51.8c-1.1 0-3 .4-5.4 1.5a64 64 0 0 0-25.6 18c-1 1.6-.4 4.3-.9 6.4-.3 1.6-1.6 3.7-1.4 4.9.2 1 3.4 2 3.9 3 2 3.6.7 13.1-.4 20-.6 3.3-5.5 4.3-7.4 6.3-6.4 6.5-4.8 8.5 2 6 4.8-1.9 2.8-5.2 14.6-2.9 15.3 3 27.4-1.2 39.4-7.8 13.4-7.5 18.3-11.6 18.8-10.7.9 1.5.2 2.2-9.3 10.2-24 19.8-41.7 24.4-55.1 17-4-2.7-7.2-3.8-4.2 2a22 22 0 0 0 6 4.2c13.7 6.2 31 1 53-16.4 4.7-3.8 9-8.1 14.6-12.8 18.2-15.2 13.4-22.2-7.2-14.8-6.5 2.4-8.3-.2-17-3.6a64.9 64.9 0 0 0-29.3-5.2c-11.8-.2-13.6.9-13.6-1.1 0-2.6 8-11.5 17-15.4 8.6-3.8 11-8.5 7.6-8.8zm21.8 37.7c2.2 2.2-1 3.6-9.5 7.7a69.1 69.1 0 0 1-9.9 4.1c-.7 1.4-8.7-16.7-6.6-17.6 1-.4 20.7 1.3 26 5.8zm-31-2a51 51 0 0 1 4.3 12.4c.2 1.3 1 3-.8 3-1.6.2-4 .4-5-1-1.9-3-4-13.4-3.3-15.4 1.5-2 4-.6 4.9 1zm70.1 32.6c-.7 0-2 .6-4.1 1.8-33.9 20-74.5 30.4-100.7 20.6-8.8-3.4-10.4-2.2-7.2 3.9a22 22 0 0 0 13.4 10.9c21.3 5.9 55.7-2.7 82.1-20 10.8-7.1 19.6-17.2 16.5-17.2zm199.5 53.7s59.9 123.4 71.5 129.2l-487.2-.9 82-117.3c.8 6.5 198 33.6 333.7-11z" style="fill:#131f67;fill-opacity:1;stroke-width:3.18132639" transform="matrix(.16455 0 0 .151 -188 740.7)"/><path d="m-1336.7 1087.2 76.7-117.5c116.7 20.2 221.2 6.8 335.6-15.6l78.5 127.6zM-727 644l-1.7-69 24.2 8.6c-8.9-32 11.6-65.9 30.8-67.5-62-45.2-12-95.5-13-96.5-67.6-33.5-34.9-87.2-39.6-91.9-82-19.8-51.2-85.1-57.3-78.4-47.3 15.1-74.1-24.3-75.5-56.7-40.7 24-104.8-8-85.5-45.4 0 0 22 10 25.8 7.8 33.2-25 31.1 10.2 38.2 17.6 25-4 40.1 15 46.5 24.1 37-.5 35.3-9.4 36.2 26.5 28 6.6 27 21.6 43.6 42 35-.3 29.3 11.3 21.7 30.8 25.6 19.7 28 35.5 32.4 53.7 27.8 9.6 32.8 13.6 15.2 37.1 25 36.1 13.6 57.5 17.3 59.4 30.7 21.4 15.7 29.6 2.6 38.2 5 29 8.8 33.3-1.4 63.1 35.3 24.2-5 36-7 35.6l.3 24.5zm-848.3-165.9-2-85.5 299 186.4-36.4 59.3zm395.2 119.3 67.6-147.6-27.8-159.3 200.5 1c23.4 51 37.7 94.3 96.9 178.1l-60.7 20 3.8 102.6zm170.9-41.3c-2.2-4.2-3.3-7.1-3-9 .7-2.5 2.6-2.4 5-1.1 8.6 4 17.2 7.4 23.3-.5 3-4.2 2.2-10-.6-13.3-5-9.7-20-2.4-25-2-4.7.2-6.6-3.7-2.8-9.4 2.2-2.5 3.6-5.3 4-8.5 2.3-22.4-35.8-13.8-22.2 7.7 6.2 8 2.8 12.8-6.2 7.9-9.8-5.5-23.2 0-22.6 11.7.5 9 11.8 14.3 21.1 8.7 2.2-1.2 3.8-2.6 5.4-3.3 4.3-2 7.5-.5 6.1 4.5-3.8 6.2-8.3 15.1-4.3 20.9 4 8.4 17.2 7.4 21.7 2 3-3.6 3.9-9.6 0-16.3zm455-456.6L-853.8-87.8l10-16.4c13.2-7.6 18.5-17 17.8-29.8l7.8-17.8 263 162.6zm-464.7-57.3 33 154.7-207 6.3c-12.2-51.9-85.3-168.6-85-166.5l53-136.6 274.6-4.9zm-78.6-56.5c5.2-4.9 4.7-12.2-1.2-20.3-5.8-8-3.4-13.8 5.7-8.5 5 3.3 13 3.8 18.2 2 6.8-2.4 9.5-7.8 8.4-14.6-1.4-8.3-10.6-10.4-20.3-6.6-2.8.6-4.5 3-6.9 4.1-5.2 2.4-7.4-3.9-2.7-12.2 5.2-9.2-.5-18.8-10.4-19.5-10.5-.8-16.5 11.3-12.2 17.8 6.3 9.3 2 15.9-7 9.7-12.8-8.8-29.1 3-22 16.3 3.4 6.5 14.3 8 24 3.7 8.1-3.6 10.6.3 5.8 8.8-9.9 17.3 7 32.2 20.6 19.3zm-302.8-147.3-.9 82.7c-31.2-18.5-26.6-18.8-27.8-18.5a59.4 59.4 0 0 1-26.6 71.1c48 43.7 23 75.3 15.6 96.5 61 34.1 31.4 95.3 31.6 92.2 59.6-.7 59.2 51.5 61.3 73.2 73.7-5.9 64.8 53.2 74.6 58.1 35.4-16.6 77.3-11.8 89.1 36 7.7 27.2-19 1.4-30.5 2.7-40.3 26-33.1-12.8-35.5-18.1-33.7 3.7-38.5-12.3-53.5-23.5-36.3 7.7-33.5-4.4-31.7-26.6-28.7-5.3-35.2-23-47-40.3-39.4 2-23.7-26.2-23.7-31.7-4.8-4.2-27.9-26.2-29.4-51.7-40.7-10.8-15.6-31.6-14.3-38.7-15.6-18.8-19.9-32.9-15.2-57-36.2-16.2-6.4-32.5-4-42-12.3-31.2-3.9-40.8.5-57.8-23.7-26.8-9.8-25.5 6.9-42.2 2-3-4-16.6-3.9-24.6zm202.8-309.9-66.8-115 463.5-7.7S-850-523.5-869-488c-115.9-16.3-223.9-5.9-328.4 16.5z" style="fill:#d40000;fill-opacity:1;stroke-width:3.18132639" transform="matrix(.16453 .0025 -.00272 .15099 293 851.2)"/><path d="M-1496.5 1014.4c-40.8-8.6-48.5-59.6-11-102.7 3-3.5 5-8.8 5-8.8s-7-11.1-25.2-35.5c-3.4-4.5-8.3-11.8-8.3-11.8 9.5-14.2 19.5-26 30.2-41.5 1.4-2 4.1-4.4 3.7-6.3-.6-2.7-4.6-5.3-9.5-12.2-28.1-40-31.4-56.1-17.9-80.5 12.8-22.9 44.1-26 63.5-6.3 21 21.2 20.4 40.9-5.7 81.3-5.8 8.8-9.9 16.8-9.9 16.8s-.2 2.8 9.7 15.2c13.8 17.1 23.9 31.9 23.9 31.9s-6 7.9-11.7 14.8c-15.2 18.5-22 31.2-22 31.2s1.1 3.6 3.5 6.2c43.4 47.6 41 103-7.2 108.6-2.4.3-8.5 0-11-.4zm332.5-621.6c-1.2-1.8-149.3 247-149.3 247l17.6 10.8 141.8-230c2.2 1.6 4.4 3.6 4 6.3 0 0-116.7 197.4-136.1 229-.5.8 30 18.2 31 18.3 44.3-22.8 230.5-6.8 353.9-16.4.5.4-1.2 43.4-1.2 43.4s-28.7-32.1-34.4-32.2c-28-.5-57.4 12-78.6 11-13.4 4.3-28 53.8-30.8 66.2-24.7-2.5-48 23.6-41.9 47.5 8.5 26.4 22.2 24.2 37.2 24.4-1 30.2-52.8 110.4-52.4 149.5 56.2-5.3 117-7.4 174.8-25.8 0 0 20.7-63 47.5-104.8 8.9-16 12.8-39.7 8.9-54.6-2.6-16.4 4.4-20.6 10.5-32.2 3.7-7.2 17.9-7.1 19.7-7.7 36.7-11.3 22.7-58.8 6.9-67-19.8-10.3-47.2 6.6-58.2-14.7-11.6-22.6-8.7-69.6-8.7-69.6l-278.6 6s76.2-151 74.2-152c-21.7-11.5-57.6-52-57.8-52.4zM-1348.1 532c1-15.1-.6-261-235-379.3l.8-32.4c1.4-1.7 212.9 91.3 253 341l63-102.5 24 9c-34.3 53.4-102.2 183-105.8 164.2zm-142.5-86.2c9-28.5-6.4-13.2-20.7-14.1-9.9-5.2-19.6-12-28.8-17.7 67.3-37.1 27-34.7-12.2-8.8-10.4-5.4-23.5-17.4-24.3-16.3 75.7-50.6 47-51-1.4-14.6 1.1-33.5.1-21 .6-32.2 41-45.4 2.5-20.5-.3-19.9-11-44.5 38.3-36 43.4-2.2 8.7 6.2 25.9 14 31.4 41.6 23.8 14.6 21.6 27.1 20.8 45.2 9.4 9 33.5 27.8 6 46zm-91.5-202.4 1.2-24.7c3-10.1 184.2 114.7 174 279.2 2.1-1.2-20-11.2-26.4-16.7-1.9-120.9-146.1-243.8-148.8-237.8zm1029.8 121.7c-120.5-52.8-236.2-182.2-245-352.9l-65.6 114.2-24.1-9.7c2.3 1.8 51.8-94 103.4-160.5 18.4 215.2 104.6 314 233.8 384.6zm-627.3-68.5c-116-12.4-286.2-167.3-239.6-382 6.7-21.8 120.4 96.7 120.4 96.7.6-5.5 103 153.6 100.8 185 84.6 22.7 248.6-2.8 248.6-2.8A312 312 0 0 1-715 577.3s-36.7-23.3-67.6-50.5C-876.3 439-906.8 366.3-940.8 286c-118.3-8.7-228.6 14.3-238.8 10.6zm624.1-188.3c2.2 10.6 1.3 32.6 1.7 32.6-30.3 34-33.4 34.7 5 23.3-4.3 32.2-28 37.9-42.3 27.2-5.2-4-5.6-26.1-5.6-26.1-23.5-5.5-31.7-12.4-28.8-37.6-27-2.8-26.2-16-24.4-43.4-24.8-13.4-19-35.5-4.6-45l12.2 8c-3.8 3.6-1.5 25.4 19.7 8.8 0 0 17.4 14 25.8 19.4-61.6 41-24 31.7 13.9 4.7 7.3 4.8 17.2 12.7 22.4 16-49.9 37.1-66 67.7 5 12zm5.3 136-1.6 28.9C-675.9 200-710.8 101.4-721.7-4.1c0 0 16.7 12 24.3 16.8 13.2 136.1 139.5 226 147.2 231.6zm-679.1-346.4 294.7-3-75.7 150.8 42 48s99.8-161.2 149.9-245.6l-18-10.4-143.1 233.4-6-6.4 141-233.1c-8.7-5.6-25.3-14.4-25.3-14.4s-250.9 8.2-360 9.5c3.3-15.1 3.6-41.8 3.6-41.8 16.5 22.8 34 43.2 71.2 19.9 0 0 44.4.7 46-1.4 5.3-8.9 14.4-36.6 25.1-68 42.8-3.6 38.2-24.2 43-31-4.3-60.8-38-27.5-35.3-49.7 9-39.5 56.7-129.5 50.4-137.3-12.9-8.2-138.5 18.7-175.1 23.8-3.4-1.2-20.4 57.6-38.8 83-20.1 27.5-27 56.9-16 84.2-10.4 30.5-31.3 27.7-47.9 36.6-18.6 20.8-12.9 52.2 5.4 64.1 12.8 8.3 32.1 7.5 51.5-8.8zm582-221.1-35.2-45.7 32.6-49.3c-13.5-20.7-35.8-52.4-32.3-77.8 7.7-50.5 75.7-44.2 82.4 3.8 3.5 22.3-12.3 50-28.4 73.6 11.2 19.7 16 22.9 32.2 45.4a857.6 857.6 0 0 1-31.6 49.8c14.8 23.8 35.1 50 34 74.6-1.1 21-23.7 42.8-45.1 38.6-66.8-12.8-30.8-84.6-8.5-113z" style="fill:#e2cf00;fill-opacity:1;stroke-width:3.18132639" transform="matrix(.16453 .0025 -.00272 .15099 293 851.2)"/><g style="stroke-width:3.18132639"><path d="M1657.8 119.2c18.3 34.3 70.2 127 70.2 127 123.4-25.7 227.3-32.2 336.3-8.3l78-118.2zm16.1 7h22.3l43.8 90 75.5-15-12.8-74.9 21.3.1 10.8 72 111-2.8 14.4-69.5 20.5.3-14.7 70.5 87.8 11.9 43-82.7h29.6l-65.4 102a774 774 0 0 0-328.5 8.8zm42.1 0h65.2l15.6 60.7c-8 4.2-37.9 11.4-47.9 10.3-12-20.9-24.3-51.1-32.9-71zm125.7 0h99.1l-8.5 51.7-83.1 2.7zm157.1 0h76.4l-30.1 62.8-57.6-7.8zm291 62.9c-4.5 0-8.6.3-12.4 1.1-19.8 4.2-30.2 19.4-30.4 44.3 0 11.4 8.3 31.5 21 50.6 6.3 9.3 10.5 17.8 10.5 17.8l-33.3 48.9 35.4 46.2s-5.5 6.5-8.8 11c-16.2 23-23.7 44.5-22.7 62 1.1 19.1 12.2 33.6 33 40.6 11.4 3.8 27.6-.9 38.6-10.8 8.8-8 13.2-18.4 13.4-30.6.3-17.4-8.1-38.5-25-61.5a71.2 71.2 0 0 1-6.7-11.1s23.5-33.4 32.3-48.7l-32-46c25.5-38.4 30.6-46.9 31.3-70.4a44 44 0 0 0-44.3-43.4zm-3.2 2.8h3.3c29 2.3 44.5 24 40.6 51.7-4 26.5-27.8 51.2-31.7 59.7a532.5 532.5 0 0 0 33.2 45.2c-9.2 16.7-33 49-33 49s1.4 2.7 3 4.9c24.7 35 31.5 51.7 29.8 72.7a39 39 0 0 1-30.8 34.4c-25.8 4.8-47-13.6-49.7-38.4-1.6-21.7 12.4-42.8 23.3-59.3 4.6-6.9 8.6-13.5 8.6-13.5l-35.3-46.3s2.5-4 4.2-6.3c6.2-9 14.2-20.1 18.3-25.5 7.4-9.6 11.8-16.3 11.8-16.3l-10.1-16.2c-19.4-30.5-24.8-46.1-21.8-63a37.8 37.8 0 0 1 36.3-32.8zm2.6 15.6c-10.8.3-21 8.3-25.1 19.7-6 21.5 16.7 54 27 62.8 19.3-22.2 31.6-47 24.5-64.5-4.7-10.5-15.7-18.3-26.4-18zm2.6 7c19.5.4 26.8 23.5 11.8 49.9-5.2 9-12.8 18.4-12.8 18.4s-7.2-9-11.5-15.7c-17.4-27.3-13-48.5 8.5-52.4l4-.2zm-388 12c-51 .3-119.1 8.8-179 22.4-5.3 32.2-21.4 64.4-39 90-17 27.7-23 51.8-17.4 68.3 5.3 15.5-9.2 38.6-25.1 40-19.8 1.8-32.4 15.6-32.1 35.2-.6 31.4 21 50.7 50.5 40 3-.4 5 1.6 5 1.6l-1.8 179.8a119.8 119.8 0 0 0-41.7 13.7l-6-6.4-9.1-10c-1.8-2-5-4.8-7.2-6.2a25.2 25.2 0 0 1-6.6-6.6 137.2 137.2 0 0 0-26.2-25.2c-1.4-1-4.8-4-7.7-6.6l-5.3-4.8V592c0-32.8-.3-60-.7-60.5a483.3 483.3 0 0 0-87 47.4c-8.8 5.9-9.7 9.1-6.4 23.9 1.8 8.3 1.4 9.2-5.4 10.8-14 3.5-18.5 25.8-6.6 33.4 5.6 3.6 5.6 3.8 2 11.9-5.6 12.5-5.3 36.5.4 46.4 3.3 5.7 3 7.6-1.3 10.4-15 9.8-14 30.6 1.7 34.5 4 1 5 2.7 3.7 6.1-4.9 12.6-.4 31.8 10.8 46.3 5.8 7.6 5.8 7.5 2 11-12.6 11.3-5.8 31.7 11.4 34 5.8.7 5.9.7 6.5 5.2 2 13 3 16.6 5.8 22.7 3.6 7.6 8 12.8 16 19.1 6.7 5.2 6.7 5.3 3.1 12.9-6.5 14 3.9 28 20.5 27.4 8.4-.3 8.4-.3 9 2.7 3 14.7 20.5 32 34.8 34.3 7.4 1.3 8.5 3 6 9.3-4 10-1.4 16.5 8.8 21.7 6.8 3.5 8.8 3.6 16.3 1 8.4-2.8 8.5-2.8 15.7 6.8 10.1 13.6 16.8 17 33.7 17 11.1.2 11.6.4 11.6 8.3.2 18.6 19.9 26.3 32.5 12.8 4.6-4.9 4.6-4.8 8.7-1.9 17.8 13 33.6 16.5 32.1 4.3-3.4-28.6-24.1-46-24.1-46l25.8 6.7c1.2 30.2 2.2 66.6 8.5 91.7l-115.2 183.5s-7-4.3-14.3-9.3c-10.8-7.5-24-16.3-32.2-21.4-4.2-2.6-9.5-5.8-13.7-9.3-4-3.3 2.5-7.8 3.9-11.3 26.5-47.3 68-104.3 98.2-159.6l-29.2-11.3c-22.4 35.2-38.9 63.6-59.7 96-20.8-152.2-127-285.8-255.5-342l.4 39.8a419 419 0 0 1 228.7 379.4c-.6.7-11.3-5.8-25.9-15.5a847.2 847.2 0 0 0-25-16.2c6.2-186-178.3-296-178.6-290.8l-1.7 35.1c78.6 52.7 140.4 148.6 146.7 233.9 0 .7-37-23.1-37-23.1 22-11 16-39.3.2-47-5-2.3-5.3-3.3-2.8-10 5-13.8-4.2-34.5-17-38-5.7-1.5-6.6-3-6.9-10.8-.5-14.4-8.4-23.8-22.8-27-4-.9-4-1-4.2-5.9-1.2-28-28.5-39.3-49-20.4-2.3 2.1-4.7 6.1-4.7 6.1l-.2 30.3c7-3.8 17.6-17 22-16.5 4.8.6 2.5 3.8-8.3 13.2-7 6-13.9 12.5-13.9 12.5l.5 39.8c11.6-7.5 23.3-16 34.2-23.7 9.5-6.6 14.3-8.7 15.4-6.8 1.3 2.1-.8 4.9-6.1 8.1-14.4 9.6-31 20.8-43.2 30.3v27.4l2.3 3.4.7 24-2.2.6v30.3l283.9 181.3 144.4-227.8 2.3 2.4-144.4 226.9s6 5 11.6 8a295 295 0 0 1 19 11.6c2.9 4.7 8 8.9 13.4 8.3 5-5.4 26.6-11.2 28.7-13.7 80.8-1.2 312.7.4 312.7.4l1.3 37.1c-10.4-36-44-43.4-70.4-27.3H1894c-.4 0-25.7 46.3-29.4 70.4-18.3-2.5-42.6 15.3-43.8 33.3-3 25.7 14 44.4 36 40.8.4.2-3.5 25.4-16 45.2a696 696 0 0 0-35.1 84c-6.9 18.8-4.5 22-3.4 22.5 64.8-.9 124.3-7.2 185.8-27l-1.7-6.8c-2.2-10 6.1-30.3 29.8-72.4 18.2-32.5 23.5-44.9 25.3-60.2 1-7.8.8-9.8-2-24.3-.1-1.3-1.2-3.3-.9-4.7 2-9.8 16.8-27 17.1-26.5 0 0 5.4-1 7.6-1.2 33.4-2.3 43.8-47.8 15.5-68.4-13.7-8.4-21.8-9-36.4-5.2l-.3-176.5 20.4.8 22.3-11c36 30.6 59.4 62 98.1 85.6l-.6 1.6-28.8-19.7v115.6c33.4-17.3 64.4-33.3 94.3-57.5l-6-5.3.2-16.5c28.1 2.2 30.8-33.6 7.8-37.8 0 0 .5-3 2.7-7.5 7-14.5 8-28.2 2.8-43.3-3.1-9.3-3-11.6.7-11.6 17.1.1 15.5-30.2-1.9-36.8-6-2.3-5.5-.4-4.3-19.2.9-14.1-2.5-23.7-13-36-4-4.8-3.6-7 1.5-10.1 14.6-9 4-34.6-14-33.9-7 .3-7 .3-7.5-6.7-1.6-18.4-11.9-36-25.4-43.3-4.1-2.3-4.7-4.1-2.4-7.3 11.5-15.3.7-36.3-15.4-30.2l-7.4 2.7c-1.3.4-2.3-1.4-4.8-8.4-6.7-18.9-12.7-24.8-34-33.8-4.3-1.8-4.5-3-2.6-11.7 3.2-14.9-17.3-28.8-28.4-19.1-4.5 3.9-4.7 3.8-9.7-2.7a67 67 0 0 0-41.3-21.3c-7-.6-8.1-1.2-7.5-3.9 3.9-18.2-13.9-30.1-28.7-19.1-7 5.2-9 5.4-16.2 1.3-15.3-8.6-22-9-23.6-1.2-.5 6.5 1 14.2 2.5 19 3.7 12.8 8.5 17.5 19.1 26.5 0 0-17.5-4.8-22-5.7.5-.5-1.2-61-12.7-95.1l112.1-178.5 64.3 42.3-102.8 162.6 30 12.1s39.9-66.3 60.8-98.8c13.6 161.5 138.5 303.2 251.7 345.2-.4.2.3-23.2.8-34.6-119.3-52.5-232.9-199.4-225.7-375.6l48 30.6c13.8 141.3 75.4 224.1 178 294.1v-43.3c-70.7-52.3-129.4-120.5-145-229.8 0 0 24 15.1 34.7 22.3 0 0-3 1.7-4.6 3-12.8 10.7-9 32.6 8 45 2.7 2 2.7 2 .2 8.9-5.2 13.6 2.7 30.2 16 33.6 7.7 2 7.7 2 7.8 10.7.3 17 7.2 24.8 25.3 29 2.5.5 2.6.7 2.6 8.4-.1 18.8 18 31.4 33.7 23.5 5-2.4 20.4-15.4 20.4-15.4V874s-7 5.8-12 10.5c-9 8.3-11.8 9.3-11.7 4.2 0-3.6 4-8.4 12.6-14.8 4.4-3.3 11.1-10.3 11.1-10.3v-35.3s-4-6.2-3.7-13.8c.1-4 1.3-10.3 1.3-10.3l4.2.1v-40.8l-5.2-4 .2-27.1-280.6-181.6-146.1 232.5-3.7-4.3 146.3-231-38.8-24.8-23.5 11.5s-162.4-2.5-320.8-.5c0 0-.4-4.4-.3-16.7 0-15.6.8-17.7 3.6-11.2 6.4 14.7 22.4 23.5 40.8 22.7 10.4-.5 11.9-.9 23.5-7.2 4.3-2.3 5-2.4 25.4-2.2 21.8.1 25.7-.6 25.7-5.3 7.6-17.2 15-37.2 19.4-52.3 2-7.3 3-10.5 4.7-12 1.3-1.1 2.4-.9 5.5-1 14-1 17.8-1.9 27.9-11.7 20.1-20.2 8.6-61.3-20.6-61.5-7.7 0-2.4-20.5 13.9-53.9a546.5 546.5 0 0 0 28-62.8c5.7-15.1 8.4-26 9-32.6h-4.8zm-1.5 10c4 3.4-6 28.3-24.2 66-15 31-21.7 46.6-24.9 58l-3 10.3c-.9 3.5-2.2 5.2-5.6 7.7-2.5 1.7-5.9 4.3-7.6 5.7-5 4-6.1 2.7-5-5.3 2.3-14.7 8.2-30.6 21.7-58.2 10.6-22 21.1-45.6 29.2-69.7 1.9-5.6 2.7-11.3 5.8-13.4 4.3-2.5 9-2 13.6-1.1zm-21.8 1.4c2.7 2-10.4 36-33.3 83.4-28.5 59-30 100.5-4.4 110.6 20.3 8 40.6-14.3 28.1-30.5-6-7.8-18.9-8.5-23.4-.4-2.4 4.4 1 9.5 5.3 3.3 6.3-9 19 1.4 15.9 12-2.1 7.4-12.4 13.3-18.7 12-28-5.6-22.7-45 6.3-47.2 27.8-2.1 40.4 35.2 20.3 56.6-6.4 6.9-14 10.3-27 10.3-18 0-35-15-33.3-28.8 2.4-12.7 2.8-23-1.5-33-1.4-3.1-3-6.3-3-10.4.3-11.2 9.5-28.6 30.2-71.7a406 406 0 0 0 21-59c1.5-5 .7-6.4 2.6-7 4.6-1 11.2-2.4 14.9-.2zm-23.9.6c4.3.2-5.5 31.3-17.8 57.8-9.3 20.2-22 46.3-31.5 70.3-3 5.1-5 5.5-11.2 2.2-6.8-3.6-4.8-9.4 11.3-41.5 12.2-24.4 23.8-52 32-79.7.8-3.3 1.9-6.2 4.7-7.8 4.2-1.8 8.3-1.5 12.5-1.3zM1834 242c2.3 3-12.5 44.9-35.3 92.1-5 10-8.2 19.2-13.1 29.5-2.4 2.3-11.5 3.5-16 4.5-4.7-.7-.3-9.5 13-36.5 11-22 14-28.3 19.8-41.7 4.2-9.8 10.3-26.7 16-42.4.4-1.3.8-4.1 2-4.8 4.3-1.8 9.5-2.5 13.6-.7zm-22.3 2.7c.4 1-.4 3-.8 4.6-3.6 16.9-11.8 32.6-17.8 48.7a564 564 0 0 1-14.6 30.5 677 677 0 0 0-15 30.9l-5.3 14.4c-13.2 28.2 1 50.5 18.4 52 27.1 2.3 29.7-35.8 10.5-39.5-7.2-1.2-15.1 2.8-15.2 11-.5 4.4 4.9 9.5 4.8 3.2-.3-11.3 15.5-10.8 17.5-1.2 3.8 18.8-17.5 28-30.3 13.3-5.2-6.1-5.1-13-4.2-19.3 2.7-16.8 22-29 40-16.2 24.6 17.3 16 55.7-15.7 62a35.7 35.7 0 0 1-33-9.6 42 42 0 0 1-10.5-24.2c-.7-5.7-1-12.4-.2-18.7 2.6-19.7 17-48.5 29.6-72.9 9.7-20.2 17.4-46.9 26.3-68.4 2.5-1.8 15.9-3.5 15.5-.6zm-24 2.6c1.5.5-6 23.8-16.5 49-11.7 25.7-26.8 55-35.4 80.1-2.6 6.2-4.6 6-12.3-1.1-4-3.8-1.8-9.4 12.4-38.4 21.9-44.6 30-63.7 33.3-74.3 1.5-5 2.8-11.1 6-13 4.3-2 8.4-3.5 12.6-2.3zm-21.8 5.6a420 420 0 0 1-22.8 56.2c-8.2 16.6-16.1 35-24.1 52.3-4.5 10.6-4.6 10.6-12.3 12.2-12.9 2.7-12.9 2.5-1.5-20.6a1077 1077 0 0 1 14.5-28 461.2 461.2 0 0 0 26.2-61.4c1.3-4.1 3-8 5.1-10 1.4-.7 11.5-3.8 15-.7zm-28.1 2.8c2.3 0 4.3.4 5.3 1.6.6 5.3-13.6 38.8-22.3 54.3-2.6 4.8-5.3 11-8.3 16.5a299.5 299.5 0 0 0-27.8 65.6c-5.5 22.3 20 39.2 33.3 23 8.4-9.9-.3-27.6-12.4-22.6-4.3 1.7-2.5 3.6 3.2 4 9.6.9 10.3 15.6.2 18.8-11.2 3.4-19.5-6.3-19.5-16.3.1-20.4 22.5-28 36.5-16.8 14 11.7 16.2 39.3-5 50-20.6 10.5-46-3.7-51.1-28.5-4-18.9.3-36.2 18.5-65.4a365.1 365.1 0 0 0 35-71.1c1.7-4.4 3.1-8 4.6-9.7 1.4-1.6 6-3.2 9.8-3.4zm553.2 59.6-27.7 35.2a690 690 0 0 0 27 34.3l26.3-34Zm.3 19.7 11.5 14.9-13.2 15.5-12.3-14.5zm1 76.6s-33.5 36.7-25.8 64c6.9 24.3 43.4 30.2 52.3-5.4.6-2.8.1-6.6-.3-11.4-.7-14.4-26.2-47.2-26.2-47.2zm0 7.3s9.6 14 16.4 26.3c7.6 11.7 9.6 44.6-17.3 43.6-14.7 1.5-28.6-17.8-17-41.3 3.2-7.2 18-28.6 18-28.6zm-553.1 5.9c1.9-.3 3.7 3.7 4.9 6.6 1.6 4-3 15.5-7.8 21.2-.9 1-7 1.4-16.2 6.1a66 66 0 0 1 4.3-17.8c6.2-6.2 11.5-13.5 14-15.7.3-.2.5-.4.8-.4zm-66.8 2c4.1 4.7 8.2 8.8 8 11.6-.2 4.3-5.2 9.5-9 13.2-4.7 4.7-14 1.9-14-4.2a84 84 0 0 1 15-20.6zm141.9 6.1c4 2.1 8 9.4 8.5 12.7-5.8 31.4-27.4 69.8-26.7 68.3 0 0-13.2 2.4-18.8-.5a240.6 240.6 0 0 0 30.8-66.8c2.9-9.1 4.2-13.7 6.2-13.7zm-12.3 4.4c2.2-.1 3 1.7 1.2 6.5-8.5 34.8-27.7 71.3-42.8 78-19.8 8.6-39.6 1.4-48-13.5-9.2-16.2-7.6-41.7 23-47.2 18-1.9 36.3 12.3 26.8 35-10.7 17-39.4 7.5-31-14.3 6.4-8 19.7-1 15.3 8-2.2 4.6 0 7.4 3.2 4.2 10.5-10.1-6.7-27.6-18.3-18.9-19 14.3 4.4 45.6 26.4 32.2 6.8-4.1 18.9-27.1 23.5-43.9 2-7.2 3.7-14 8.3-18.4 4.5-4.2 9.5-7.5 12.4-7.7zm-50.2 1.4c1.1 0 2.4.6 4.1 1.4 2.3 1.1 4.8 3.1 4.5 5.6-.3 3-2 9.4-5.4 12.6-2-.8-7.7-3-11.6-4-2.4-.7.8-6 2.3-8.8 2.4-4.6 3.7-6.6 5.7-6.8h.4zm-62.4 1.2c2.9 0 7.4 3 10.4 3.5.6 4.3-5 13.5-13.9 24.4-7.3 9-7.2 9-12.1-.8-3.2-6.4-3.3-6.3 5.8-17.5 4.8-6 7.2-8.8 9.3-9.6h.5zm28.4 3.1a38 38 0 0 1-2 10.4c-10.2 30.2-33.8 60.2-53.4 67.6-25.4 8.3-48.8-5.1-49.4-36 .7-36.5 44-46.6 57.2-13.4 6 15-10.2 37.6-24.2 33.8-14-3.8-20-25.7-8.3-31.1 7.6-3.6 15.5 2.4 13.8 10.4-.6 2.8-.4 3.2 1.2 2.9 7.3-1.4 3.4-15.9-5.1-19.5-16.1-6.9-28.3 14.9-17.4 31 13 19.5 33.5 15.8 45.3-8.2 2-4 5.8-9.9 8.5-13 7.1-8.2 9.4-11.5 15.7-22.4 3.5-6 5.4-9.8 7.2-11.8 2.8-.2 4.7.6 10.9-.7zm57.1 1.6c3.1 0 5.5 2 5.4 6.3 0 3.5-5.1 18.5-7.5 22-1 1.4-3 6.2-3.4 5.2-3-10-8.3-13-9-15.7-1-3 1.8-6 3-8.7 2.5-5.9 7.6-9.1 11.5-9zm54 4.7c3.6 0 8.8 1.7 10 4.4 3.3 6-19.5 61-20.4 61.2l-17-.7a534 534 0 0 0 25.8-64.7l1.5-.2zm228.4 87.3 21.7 12.8-143 226.9-20.7-15.9zm-356.1 4.6c133.3.5 317 .3 317 .3l-7.8 14.7s-200.6-2-309.2-1.7zm-180 9.3-.3 74.6s-1-.4-13.7-9a583.9 583.9 0 0 0-37.4-23.3c-8-4-7-6 8.3-15.7 15-9 43-26.6 43-26.6zM2092 558l13.4 8.5-150 238.8-8.4-16.4zm-391 3.4h21v23.5h-21zm48 0h25.3v23.5h-25.4zm55.3.2h26v23.6h-26zm54.3 0h26.4v23.7h-26.4zm54.8.2h26v23.6h-26zm54.8.5h26.6V579l-4 7h-22.6zm143.3 7.7 254.4 164.6-.2 22.8L2101 586Zm-16.7 19.3 2.2 1.5-10.8 16.5-2.2-1.2Zm-393 2.4h285.6l-8.6 14.5-277-.4zm-234.4 7.4c1.9-.1 5.6 1.6 11.5 4.8 14 8 22.9 24.5 16.8 30.5-5.4 5.4-18-6-25.9-22.4-4.1-8.7-5.2-12.7-2.4-12.9Zm505.3 14.3-92.2 147.2c-20.8-28.5-44.1-53.2-95.1-36.5-26.6-20.6-54.7-23.7-84.6-6.3l.3-104Zm-474.3 0 7.2 6.2c-2.1 4-3.1 10-4.5 15.2a78 78 0 0 0-2.7-21.4zm584 1.5 283.9 186.8V819l-293.8-189.2zm-621.7 4.3c3.7 0 7.3 1.5 10 4.7 4.3 5.2 2.5 14.7-3.5 18.7-12 8-26.4-7.5-16.9-18.3 3-3.3 6.8-5 10.5-5.1zm47 2.2 15.5 12.4c-26.9 153.5 50 308.4 215.5 354.8l2 19.6c.2 1-70.4-21-101.3-44A319.1 319.1 0 0 1 1537 848.6a335.8 335.8 0 0 1-31.9-90.2c-7-46-6.8-91.5 2.7-137zm-17.5 20.8c5.9.3 6.5 4.5 1.8 12.8a58 58 0 0 1-30.3 24.2c-8.2 3.5-10.3 1.9-9.4-6.9 1.4-13.2 10.6-22.8 26.5-27.9 3.8-1 7.6-2.2 11.4-2.2zm45.6 1.7 6.1 5.2a13 13 0 1 0 17 14.4l6.1 5.3a20.3 20.3 0 1 1-29.2-25zM1546 654c.7 0 1.4 0 2 .3l4.6 3.8a7.3 7.3 0 1 1-6.5-4.2zm-48.8 4.7a539 539 0 0 0-.6 61.1 55.4 55.4 0 0 0-26.5-37c9.8-6.8 20-15 27-24.1zm74.6 15.5 13.8 11.9C1573.8 848.5 1716 910 1720 907.4l6 18.4c-98.3-33.4-166.3-135-154.1-251.6zm792.8 389.4-.7 20.4c-111.5-43.2-238.6-203-237-356-28.7 44-44.8 73.3-69.3 112.8l-19.6-9.3c32.2-48 62.8-99.2 95-146.3 3.7-5.3 6.7-7.7 6.9 3.9 0 52.6 16.3 269.2 224.7 374.5zm-906.9-376.7c3.6-.3 8.8 1.5 15.2 5.8 10.2 6.9 21.7 28 17.7 32.7-3.5 4.2-18.7-.8-26.2-8.7-14.8-15.8-15.8-29.2-6.7-29.8zm87 2.1a20.3 20.3 0 1 1 0 40.7 20.3 20.3 0 0 1 0-40.7zm45.5 2 13.3 15.5c2.6 136.3 110.2 178.4 109.2 178.7l3.3 14.6c-6 .9-133.2-57-125.8-208.9zm-45.5 5.4a13 13 0 1 0 0 25.8 13 13 0 0 0 0-25.8zm0 5.7a7.3 7.3 0 1 1 0 14.5 7.3 7.3 0 0 1 0-14.5zm68.8 12.3c1.6 0 9.3 11.2 9.3 11.2s-8.5 3-12-.8c-3.7-3.6-1.8-10.4 2.7-10.4zm589.1 5 20 13.7c9.3 92 62 175.8 141.4 234l-.5 22.8c-96.8-65.4-150.5-154.2-160.9-270.5zm-747 1.6h1c12.2.2 17.4 19 4.3 24.3-8.2 3.4-17.1-1.5-18-9.8a13.8 13.8 0 0 1 12.7-14.5zm166.4 12.3c3.2 0 6.7 1.8 10 5.5 8.7 10 8.6 12.8-.6 16.5-13 5.3-23.8-2-19.4-13.2 2.2-5.8 5.9-8.8 10-8.8zm-132.8.5c1 0 2 0 2.9.4 9.6 3.7-11.2 41.7-24.9 45.6-8.7 2.4-10.5-1-7.7-14.3 3.2-14.8 19.5-31.5 29.7-31.8zm61 .8a20.3 20.3 0 1 1 0 40.7 20.3 20.3 0 0 1 0-40.7zm0 7.4a13 13 0 1 0 0 25.9 13 13 0 0 0 0-25.9zm-50.9 1c1.8 18.9 4.9 36.3 13.2 59.5-7.8-12.6-19-18.8-29.7-25.9 7.5-11.2 16.2-22.3 16.5-33.5zm50.8 4.7a7.3 7.3 0 1 1 0 14.5 7.3 7.3 0 0 1 0-14.5zm115.2 2.2c21.2-.4 36.2 17 35.3 33.8.6 19.4 1.3 31.8-.3 56l-17.2-31.5c-.3-9 1.2-15.7.5-24.6-1.9-24-25.3-20.6-26.5-18.3l-7.4-12a43 43 0 0 1 15.6-3.4zm74.7 2.4c19.9 0 31.4 11.2 32 31.1a3361 3361 0 0 1-.9 125.2h-43l-23.4-58.1s-1-5.6-.8-9.7c1.5-18.6.6-39.4 1.2-56.3a36.4 36.4 0 0 1 34.9-32.2zm-99.5 6c2.8 0 5.3.9 7.3 2.8 10 10.1 9.9 16.7-.2 21.3-13.4 6-20.3 4.9-24.9-4-4.5-8.9 8-20 17.8-20zm626.9 2.8 10.9 7-3.6 5.7c-6.1 10.7 4.4 17 19 11.3 2.6-1 4.8-2.5 4.8-2.5l9 6.1s-6.5 3.6-13.5 7c-18.2 9-31.3 5.1-35.7-10.3-1.7-6 0-13.7 3.4-18.2 1.8-2.3 5.7-6.1 5.7-6.1zm-461.3 1.3a38 38 0 0 1 36.7 29.9c1.6 8.2-.5 116.4-.5 116.4h-66l1.2-113.6c-.5-7.2 0-14.3 3.8-19.3 7.3-9 16.1-13.1 24.8-13.4zm-68.5 5c-13.4.6-21 22.2-7.2 32.4 5.7 4.2 5.8 5 2.8 19.4a77 77 0 0 0 8.3 51.5c6.2 10.5 5 5.1 1.7-4.2-4-17.5-2-30.4 8-50.7 9-17.2 17.8-43.5-10.9-48.3l-2.7-.2zm548 4.9 6 4-2.3 2c-2.3 2.3-7.1 2.7-8.6 1-2.4-3 4.9-7 4.9-7zm-475.7 8.4c-14.4-.5-23.8 26-5.5 32.5 4.2 2.7 4.9 6.2 2.3 11.2a75 75 0 0 0-6.4 29.2c.8 9.5 3.2 21.9 5.1 26.2 4.8 11.9 3.9 7.1 2.6-6.6a67.3 67.3 0 0 1 11.6-41c10.6-17.6 25.2-46.2-8.3-51.4l-1.4-.1zm-246.7 0a20.3 20.3 0 1 1 0 40.7 20.3 20.3 0 0 1 0-40.7zm94.3 2.1c3.5 0 6.2 2.3 9.4 7 8.8 13.2 7.7 15.9-9.2 25.2-18 9.8-30-15-12.8-26.5a29.2 29.2 0 0 1 12.6-5.7zm-186.2 1c19 .2 48.5 27.2 34.1 31.1-2 .6-4.7 1-5.7.9-23.8-1.5-51-32.3-28.4-32zm92 4.3a13 13 0 1 0 0 25.9 13 13 0 0 0 0-25.9zm749.3 3.8 9.5 6.4s-5.8 2.7-12.6 6.3c-18.5 9.9-23.8 17.1-17.4 23.6 2.2 2.3 5 3.3 9.8 1.4 12.8-5 24.7-13.7 36.6-20.6l7.1 4.9c-.1-.4-28.2 20-43.5 28.4-24 12.4-37.8-12.9-24.4-29.7 10.3-10.3 21.4-13.6 35-20.7zm-749.4 2a7.3 7.3 0 1 1 0 14.4 7.3 7.3 0 0 1 0-14.5zm764.2 6.7 5.1 3.5-16.3 9.3c-17.1 9.8-17.9 10-18.8 8.4-.9-.4.3-4.4 5.6-8 9.2-6.2 25.5-13.7 24.4-13.2zm-446 .5a33.8 33.8 0 0 1 30.3 17.2 70 70 0 0 1 3.7 26.8l-.2 63.6h-66.5s-3.1-43.3 0-79.4a33 33 0 0 1 32.6-28.2zm-206.6 9.4c4.2-.3 7.3 3.8 11.3 12.8 4 8.9 1 14-11.5 19.3a10 10 0 0 1-4 1.1 14.2 14.2 0 0 1-8.7-24.5c5.7-5.5 9.6-8.5 13-8.7zm675.9 6.5 5.8 3.6s-3 2.7-24.5 18.3c-17.3 12.7-19.8 16.1-16.2 23.2 3 5.8 9.3 5 18-1.7 12.2-9.4 31.3-25.2 31.3-25.2l.6 10.8c-12.5 10.1-27.7 27.4-39.8 34-23.4 11.5-40.1-20.1-18.8-35.7a496.8 496.8 0 0 1 43.6-27.3Zm-466.8 0c-17.4-.1-23.9 25.7-5.2 31.2 5.4 2.8 5 4.3 1.4 17.2a57.6 57.6 0 0 0-1.7 23.4c1.4 7.8 3 7.6 2.4-.7 0-4.6 4.7-16.7 9.4-24.4 17.3-24.1 12.8-46.4-6.3-46.7zm-405 .3c11.4.1 17.9 16.1 8 23-7.1 4.9-21.9-1-21.8-8.8 0-6.6 5.2-12.8 11.4-14l2.4-.2zm33 1.4c3.6 0 5.7 5.3 5.6 15.7a46 46 0 0 1-14.5 35.8c-13.3 11-16.3-19.1-3.9-39 5.2-8.4 9.6-12.5 12.8-12.5zm851 4c3.2 0 2.7 2.4-1 5-3 2.1-8 6.2-23.5 19.3-2.8 2.3-6.8 5.4-9 6.8-5.1 3.5-9.5 2.6-7-1.4s37.5-29.7 40.5-29.7zm-779.3.6a20.3 20.3 0 1 1 0 40.7 20.3 20.3 0 0 1 0-40.7zm0 7.4a13 13 0 1 0 0 25.9 13 13 0 0 0 0-25.9zm-243.3.4c137.6 69.6 223.3 199.7 244.5 348l66.8-106 18.1 6.7-97.4 158.8-4.2-1.3c-.4-155.1-77.7-301.8-228.1-382.3zm243.3 5.3a7.3 7.3 0 1 1 0 14.5 7.3 7.3 0 0 1 0-14.5zm-56.8.9a250 250 0 0 0 24.6 43.2c-11.4-10.8-24-10.3-36.4-12zm163.6 2.8c2.1 0 4.2.8 6 3.1 5.5 7.8 6.6 15 2.7 18.8-5.4 5.3-14 3.2-17.8-4.3-4-7.9 2.7-17.3 9-17.6zm674.7 10.8.2 12s-2.5 3-5.2 5.6c-7.7 7.2-18.2 18.6-19 21.6-2.4 9.5 7 13 16.2 6l7.8-6.1v14.8c-7.8 6.6-15.6 13.2-26.2 11-6.2-1.9-11.6-6.8-12.8-13-4.4-18.6 13.7-29 27.7-41.5 4.5-4 11.3-10.4 11.3-10.4zm-752.9 10.5h1a20.3 20.3 0 1 1-1 0zm408.5 4.5c11.1 0 17 15 8 23.4-3.5 3.3-11.4 5.7-15.9 2.5-12.3-8.6-3.2-25.3 8-25.9zm-22.1 11.9c6.4 6.8 11.3 26.6 7.5 30.3-8.4 8.6-32.7-20-31.2-38.8 2.6-11.3 21.3 6 23.7 8.5zM1701.4 867c4.6 0 5.5 4.2 4.4 6.7-1 2.3-4.6 2.5-7.5 1.3-5-2-2.6-8 3-8zm-88 1.8a13 13 0 1 0 0 25.8 13 13 0 0 0 0-25.9zm-96.9 5.6c24.5 0 50.4 19.4 28 23.2-16.8 2.9-27.6-.4-40.7-12.3-6.6-6-4.2-9.3 7.8-10.6 1.6-.2 3.3-.3 4.9-.3zm96.8 0a7.3 7.3 0 1 1 0 14.5 7.3 7.3 0 0 1 0-14.5zm34 18.4h1a20.3 20.3 0 1 1-1 0zm399.8 1c5.8 0 10.9 1 13.8 3.8 3.6 3.3-1.8 9.6-12.8 15-12.9 6.2-35.4 5.4-35.3-1.4 0-9 19.5-17 34.3-17.3zm-489.8 5.4c11.3 0 14.4 35 4.6 51.8-5.1 8.7-12 2.9-16.8-14.3-4-14 3.6-37.5 12.2-37.5zm91 1a13 13 0 1 0 0 25.9 13 13 0 0 0 0-25.9zm421.6 2.3c1 0 2.2.5 3.8 1.3 12.3 6 21.2 34.2 14.8 46.8-6.7 13.3-22-12.2-21.8-36.6 0-8 .6-11.2 2.8-11.5h.4zm-544.5 1.8h.8c11 .3 19.2 15.7 8.7 23.6-4.6 3.4-11.6 4-16 1.2-8.5-5.4-8-18.6.8-23.2 2-1 3.8-1.5 5.7-1.6zm123 1.6a7.3 7.3 0 1 1 0 14.5 7.3 7.3 0 0 1 0-14.5zm-76 2.4c6 9.1 30.7 33 34.2 35.1a74.6 74.6 0 0 0-33.4-.5 86.5 86.5 0 0 0-.8-34.6zm396.6 2.1c167.3 39.2 269.4 216.7 229 383.2 0 0-14-7.9-16.3-11.6 5.9-28.8 9.5-74.5 2.1-120.4-12.5-77.8-75.6-192-213.9-231.2-1.5-5-1-20-1-20zm90.1 1.2c1.9 11.4 3.7 22.9 6.5 33.1a207.6 207.6 0 0 0-38.8-21.6c9.8-2 18.7-3.8 32.3-11.5zm48.2 3.7c6.7-.2 13.5 4.6 13.3 12.8 0 3.6-3.9 10-6.9 11.6a12.8 12.8 0 0 1-17.6-16.7c2.2-5.2 6.7-7.6 11.2-7.7zm-420.2 4.4a20.3 20.3 0 1 1 0 40.6 20.3 20.3 0 0 1 0-40.6zm0 7.4a13 13 0 1 0 0 25.8 13 13 0 0 0 0-25.8zm-346.2 1.9c83.1 49 157.7 153.4 163.2 271.4l-20.1-13.2c-8.7-79.4-49.4-166-143.8-236.8l.7-21.4zm460.3 0h107.4v23.2l32.2-16.6v51.2l-32.2-19.5v22.3h-107.4v-23.5l-33 16 .5-51 32.5 18.2zm-114.1 3.8a7.3 7.3 0 1 1 0 14.5 7.3 7.3 0 0 1 0-14.5zm42.2 4h.4l1.3 7.4h-.6a13 13 0 1 0 4.8 24.9l1.3 7.4a20.4 20.4 0 1 1-7.2-39.7zm242.7 2.6h1a20.3 20.3 0 0 1 4.7 40l-1.3-7.2a13 13 0 0 0-4.2-25.4l-1.3-7.3 1.1-.1zm142.7 6.9c25 0 35.5 14.5 14.9 20.6a52 52 0 0 1-34.3-4.1c-10.3-4.6 3.9-16.6 19.4-16.5zm-524.4 1.3c6 0 11.9 1 16.2 3 10.5 5 10.3 8.3-1 14.8-15.6 9-52.4-.1-41.3-10.2 5.2-4.8 16-7.5 26-7.6zm140 2.2 1.7.2 2.3 13.2a7.3 7.3 0 1 1-3.9-13.4zm242.8 2.6a7.3 7.3 0 0 1 2.4 14.1zm44.3 5.2a20.3 20.3 0 1 1 0 40.7 20.3 20.3 0 0 1 0-40.7zm-396 5.1c1.1 0 2.5.5 4 1.7a47.5 47.5 0 0 1 13.4 46.8c-4.5 15-23.5-11.6-23.4-32.8 0-9.8 2.3-15.4 6-15.6zm526.7 1.8c1.6 0 3.4 1.3 5.2 4.3 7.6 12.6 7.2 38.6-.6 46.7-4.5 4.6-6.2 3.7-10.8-5.7-8-16-2-45.3 6.2-45.3zm-130.7.5a13 13 0 1 0 0 25.9 13 13 0 0 0 0-25.9zm-379.9 3.5c15.4 9.7 31 18.5 47.4 25.9-15.3-3.6-26.6 1.5-38.2 8.4 2.2-12.8-2.2-23.2-9.2-34.3zm461.6 2.7c11.4 1.6 22.7 3.5 36 1a112.3 112.3 0 0 0-2.2 34.5 218.4 218.4 0 0 0-33.8-35.5zm-81.7-.5a7.3 7.3 0 1 1 0 14.5 7.3 7.3 0 0 1 0-14.5zm-419.5 5c2.3 0 4.7.7 7.2 1.9 9.4 4.6 9.7 16 .5 22-11.5 7.5-26.5-5.7-19.3-17 2.7-4.3 6.4-6.6 10.7-6.9h1zm460.3 8.5a20.3 20.3 0 1 1 0 40.6 20.3 20.3 0 0 1 0-40.6zm119 3.4c2 0 4 .4 6 1.5a11.9 11.9 0 0 1 3 19c-6.3 6.2-15 5.1-19.3-2.4-5-8.6 1.8-18 10.3-18.1zm-196.2 3c100.1 34 167.2 145.5 151 252.7l-12.5-11.8c9.5-60.8-23.9-176.9-135.4-224.6zm77.2 1a13 13 0 1 0 0 25.8 13 13 0 0 0 0-25.8zm0 5.7a7.3 7.3 0 1 1 0 14.5 7.3 7.3 0 0 1 0-14.5zm-380.7 1.2c5 .5 13.7-.4 15.7 4.4 2.3 6-10.2 16.6-26 18.7-6.5.3-20.3 2-23.2-2.7-2.8-5.8 15.9-20.2 33.5-20.4zm-318 3.6c13.6-.6 28.9 17.5 15.2 32.3-11 11.3-33.4 26.8-33.4 26.8v-10s22-16 22.3-23.3c0-8.4-6.8-13.1-14.6-8-1.5 1-7.5 5.9-7.5 5.9l.5-16.7c4-4.5 11.3-6.7 17.6-7zm345.9 4.2c10 .4 33.3 36.3 27.3 43.6-4.6 5.9-23.5-7-30.6-20.9-3.8-7.4-2.7-20.7 1.9-22.4.4-.2.9-.3 1.4-.3zm154.7 4.4s1 83.5-3.6 91.3c-18.8 34-59.4 16.4-63-9.2-2.4-15.3-1-82-1-82zm6 0h64.8s-.3 117.5-2.9 124.2a44 44 0 0 1-17.4 17.5c-19 8.4-39.5-3.4-44.5-25.7-3.6-16.1 0-116 0-116zm70.3 0h43s1.5 6.2 3.2 11.3c3 9 13.2 34.6 14.3 36.1 5.3 7 5.6 83.8.3 92.6-19 28.5-50.6 20.2-62.1-11.4-2.9-10 1.3-128.6 1.3-128.6zm50.2 2.9c77.2 36.7 136.3 114.5 129 214.3l-14.3-14.2c5.2-68.9-47.2-155-108.4-180.6zm106.3 2.3a20.3 20.3 0 1 1 0 40.7 20.3 20.3 0 0 1 0-40.7zm76.2 2.1c7.6.1 16.8 2.7 23.7 8.4 8.3 6.8 9.4 12.2 3 14.2a37.9 37.9 0 0 1-36.5-9.1c-8.7-8.5-1.2-13.7 9.8-13.5zm-76.2 5.3a13 13 0 1 0 0 25.9 13 13 0 0 0 0-25.9zM1686 1025c10.8.1 15.8 15.3 7.5 23-3.4 3.2-12.7 4-16.8 1.3-11-7.2-4.6-24.3 9.3-24.3zm143.2 4a175.3 175.3 0 0 1-14.1 29.8c-12.8 21.3-11.1 35.6 2.4 42.9 19.8 10.6 34.2-17.9 14.7-29-6.9-4-6.9-4-4.4-14.6 3-13.2 3.6-29 1.4-29.2zm263.7.1a7.3 7.3 0 1 1 0 14.5 7.3 7.3 0 0 1 0-14.5zm-194.2 4.2c-.9 0-.2 5.2-.2 14.6-.1 15.2-1.4 19.9-11.1 40.2-12.4 26-10.8 43.8 4.6 49.6 12 4.5 23.6-4.7 23.6-18.6 0-6.6-2.9-11.8-7.4-13.2-4.2-.2-8.7-2.2-8.4-4.1 2.5-15.6 16-44.8-1-68.5zm256.6 2a69.4 69.4 0 0 0 35.3 13.1c-6.3 15.3-5.7 26.5-6.8 38.6a242.8 242.8 0 0 0-28.5-51.6zm-766 2.5 2.4.1c9.6 1.5 17.7 13.8 15.1 23-2.2 8-3 9.3-33.8 30-17.1 11.4-19 11.9-19 11.9l-9.1-6.2 20-13.5c23.8-16 27.3-19.7 24.8-26.8-2.6-7.8-11.5-6.2-25.5 4.6-20.8 16-23 17-23 17v-9.5s9.2-7.2 13.1-10.6c9.6-6.8 23-20 35-20zm613.8 4.1c2.3 0 4.1 2.2 3.3 4.2-.4 1-1.7 1.7-3.6 1.7-3.7 0-3.9-5.3-.2-5.9h.5zm208.3 11.1c4.4 15-5 40.1-10.8 43.3-6.2 6.1-10 .3-11.4-15.5 0-12.7 14.7-52.6 22.2-27.8zm-247-8.4c1.9 21.6 2.6 39.6-7.6 57.2-13.2 22.8-9.7 42.4 4.4 46.7 14 4.3 26.4-5.7 24-19.4-.8-4.2-6.6-11-10-12-4.4-1-5-3.7-2.4-12.3a80.3 80.3 0 0 0-4-53c-.7-2.2-3.4-7.3-4.4-7.2zm47.3 7.2c11.8 0 17.4 15.5 8.5 23.6-5 4.5-8 2.5-13.2-8.6-4.8-10.3-3.3-15 4.7-15zm110.3 3.1a20.3 20.3 0 1 1 0 40.7 20.3 20.3 0 0 1 0-40.7zm0 7.4a13 13 0 1 0 0 25.9 13 13 0 0 0 0-25.9zm0 5.7a7.3 7.3 0 1 1 0 14.5 7.3 7.3 0 0 1 0-14.5zm-87.3 5.3c1.6 0 3.3.3 4.8 1 10.7 5.2 9.5 20-2.3 28.9-7.5 5.6-10.7 3.6-17.6-10.8-3.8-7.9 6.1-18.7 15-19zm-621.1 1.7c1 0 2 .2 3 .5 11.1 3 18.1 16 15.3 25.7-6 15.1-26.7 20.2-42.3 26.5l-8.2-6s11.5-6.4 22.7-11.6c10.4-4.8 12-6.7 11.3-12.8-1.5-11.8-7.2-11.4-33.2 2.6-10.5 5.7-18.3 10.7-18.3 10.7l-5.7-4.7c8.5-5.6 13.7-8.8 23-15.2 15.7-10.7 24.7-15.3 31.2-15.6h1.2zm825.1 8.8c3.8 11.5-3.9 21.6-15.5 17a13 13 0 0 1-6.9-18c5.3-8.1 19.9-6.7 22.4 1zm-232.8-4 18.3 32.9.4 14.2c.7 21.3 5.2 28.4 17.7 26.3l5.4-1.4 7.9 13.3s-8.6 3.8-10.8 4.2c-14.7 3.1-35-8-38.2-22.7-3.1-14.3-.7-66.8-.7-66.8zm-598.9 13.5c5.5.4 3.2 4.6.6 6a661.4 661.4 0 0 0-32 17.9l-7.6-4.7s5.8-3.2 9.8-5.7c12.3-7.5 24.8-13.3 29.2-13.5zm734.7 4.2a20.3 20.3 0 1 1 0 40.7 20.3 20.3 0 0 1 0-40.7zm-86 2.8a12 12 0 0 1 11 6.1c5.5 9-.3 20-13.4 26-7.4 3.2-8.6 2.5-16.5-9.1-5.3-7.9-5.3-9.3.6-14.3a32 32 0 0 1 18.2-8.7zm-714 1.8 291.3 188.7-8.3 14-282.5-184.8zm865.6 2.4c17.7.4 40.9 20.9 32.7 29a6 6 0 0 1-3.8 1.4c-25.3-1.5-53.2-30.8-28.9-30.4zm-65.6.4a13 13 0 1 0 0 25.9 13 13 0 0 0 0-25.9zm-389.1 3.6 7.7 20-145 231-14.2-9.2zm389 2.1a7.3 7.3 0 1 1 0 14.5 7.3 7.3 0 0 1 0-14.5zm53.3 2.4a62 62 0 0 0 32.4 27 47.2 47.2 0 0 0-18.6 38.3c-3.2-21.4-6-42.6-13.8-65.3zm-766.5 7c3.1 0 6 .6 8.1 2.2 27.2 18.6 2.3 37 0 35.6l-9.3-5.9c3.2-5.3 10.4-12.4-1.2-19-6.6-3-14 .5-20.4 5l-9.7-6.7s19-11.3 32.5-11.2zm640.8 10.5c1 0 2 0 3 .2 15.4 3 14.3 19.3-1.7 26.8-9.1 4.3-10.8 3.4-18.7-10.2-3.8-6.5 7.5-16.5 17.4-16.8zm-645.7 6c1.6 0 3.7 1.4 4 2.8.8 4.3-7.2 8.5-7.2 8.5l-9-6c3.8-2.1 7.9-5 12.2-5.3zm817.2 3.9c2.2-.2 3.8.9 4.5 3.5 3 12.7-11 36.1-24 40-7.5 2.1-9.7-1.4-7.2-11.9 3.5-14.7 18.7-31 26.7-31.6zm-470 1 23.6 17-141.6 223.8-24.5-14.5zm385.2 1.8a20.3 20.3 0 1 1 0 40.6 20.3 20.3 0 0 1 0-40.6zm0 7.3a13 13 0 1 0 0 26 13 13 0 0 0 0-26zm0 5.7a7.3 7.3 0 1 1 0 14.5 7.3 7.3 0 0 1 0-14.5zm-325.2.8c15.3 17.3 32.6 56 92.8 37.8a71 71 0 0 0 83.8 7.6l.3 104.4-267.5.3zm-488.7 2.6 263.5 173.4-8.3 14.6-255.4-163.3zm739.7.2h.6c13.5 3.3 15 16.8 2.5 22-6.7 2.7-8 2-14.5-7.4-2.5-3.7-4-6.9-3.6-7.8 1-2.3 11.2-6.9 15-6.8zm169 14.2c4.8 0 9.4 2.6 11.6 7.5 3.3 7.3 1.4 13.5-5.4 17.6-11.2 6.8-23.8-5.6-18-17.8a13 13 0 0 1 11.8-7.3zm-165 14.2c6.3 0 11.5 6 8.5 9.6-2 2.3-4.6 1.7-7.9-2.1-3.9-4.5-4-7.5-.5-7.5zm75.6 2.6a20.3 20.3 0 1 1 0 40.6 20.3 20.3 0 0 1 0-40.6zm57.3 1.1c15.4.1 36.6 25.7 33 39.8-1.2 4.5-9.8 2-20-5.8-13.8-10.6-22.8-34-13-34zm-57.3 6.3a13 13 0 1 0 0 25.8 13 13 0 0 0 0-25.8zm49.3 2.6c4.2 12.4 8.6 25.3 27.7 34.3-29.7 13.8-35.3 37-30.9 67l-7-4.3a362 362 0 0 0 10.2-97zm-49.3 3a7.3 7.3 0 1 1 0 14.6 7.3 7.3 0 0 1 0-14.5zm-3.8 32.7a20.3 20.3 0 0 1 11.2 37.3l-6.5-4.9a13 13 0 0 0-4.7-25 13 13 0 0 0-12.8 12l-6.6-5a20.4 20.4 0 0 1 19.4-14.4zm92.6 2.6c9.7 0-5.4 26.9-19.2 34.2-10.5 5.6-20.1 6-20.1 1 0-13.4 24.5-35.3 39.3-35.2zm-92.6 10.5a7.3 7.3 0 0 1 0 14.5c-4-.5-7.2-3.6-7.2-7.3 0-4 3.2-7.2 7.2-7.2zm89.5 24.4c4.7.1 9.5 2.2 11.5 6.2 2.6 5.2 1.6 9.8-3.2 14.6-11.7 11.5-27.6-.4-20-15 2.1-4 6.9-5.8 11.7-5.8zm-37.4 11c16.3.5 28.6 20.7 25.7 32.2-2.6 3-20.6-10.6-22.5-12-2.3-4-2.4-10.6-3.2-20.3zm-22.3 12.5 51.1 30.7-51 32.7zm-454.6 15.2 274.2 1v11.5l-281.7.2 7.5-12.7zm-11.2 18h18.4v22.5h-25.3v-12.4zm263.5.6h22.2v22.4H1985zm-217.7.1h25.3v22.5h-25.3zm52.5.2h27.3v22.5h-27.3zm55.9 0h26.2v22.5h-26.2zm56 .4h25v22.4h-25zm-228.4 27.7 304.3.7v13.4l-313-.7zm259.6 28.3c31-.3 49 34.3 24.8 58.5-22.2 22.4-59.4-6.1-40.8-31.2 10.3-14 35.8-2.8 29.4 12.2-4.2 9.8-17.9 5.2-17.5-5.4 0-4.3-3-1.4-3.5 3.2-.4 5.7 5.5 12.1 12.4 12.1 18 0 20.7-23.8 3.3-32.5-15.4-7.8-31.7 2.1-35.5 22-.4 2-3 7.5-5 11.3a112.7 112.7 0 0 0-10.3 31.2 31.3 31.3 0 0 1-8.2 5.7c-8.8 4.4-8.4 2.6-5.1-11.8 9.5-41.4 25-68 44-73.5a53 53 0 0 1 12-1.8zm91.6 2.2a37.7 37.7 0 0 1 36 27.5c11 37-38.1 59.7-55.3 26.2-9.5-19.2 10.3-42 28.5-33.2 14.8 7.3 13.9 30-1.3 30-8.3.3-13.3-7-8.7-13 2.3-2.4 5.1-.5 6.3-4.5.5-1.6-1.8-3-7.4-1.8-9.4 2-8.4 20.7 2.4 24.5 16.1 5.5 29.9-11.5 22.2-28.3-9.2-20.2-34.2-20.3-45.6.9-1.6 3-4.2 7.4-5.7 9.4-17 23-18.3 26.5-23.4 39.4-.5 1.3-1.4 2.3-3 2a37 37 0 0 0-12.4 2.3c-2.1-.5.7-8.6 1-9.3 11.5-35.8 41.3-71.2 66.4-72.1zm-148.2 10a257 257 0 0 0-24.6 63.7 86 86 0 0 0-12.5-5.4c-1.6-.5-.3-2.4-.4-5.3 3-15.2 13-41.8 23.8-55.4 2.3-1.7 17-2.2 13.7 2.5zm17.4 6.8c-10.4 13.3-21.3 48.5-23.5 66.7-.4 2.7-.9 5.8-1.2 6.7-1.6 5.5-11.8-6.2-11.7-13.4 0-12.3 13.7-49.7 23.4-64 3.4-5 3.8-5.8 11-6 11.6-.3 6.5 4.2 2 10zm-508-8.7c-2.6 0-5.1.4-7.6 1-15 3.7-33 19.6-34.8 36.6a42 42 0 0 0-1.5 18.3c5 22.7 18.2 38.1 34.4 60.6 0 0-20.3 31.6-34.3 46.2l33 47.8c-9.1 18-25 31.7-29 54-6.2 29.4 9.1 58 41.8 60.6 24.4.7 40.4-15.8 43.4-40.7 1.3-16.6-5.6-37.5-30.1-70.3l-3.6-5s2.7-3.3 4.2-5.5a2778 2778 0 0 1 31.1-40.2l-33.6-47.6s1.5-3.2 4-6.8c27.5-37.4 32.6-56.5 27.8-75a44 44 0 0 0-12.7-19.3 44.4 44.4 0 0 0-32.5-14.7zm-.8 4.6a41.6 41.6 0 0 1 30.8 13.5c20.6 21.6 18.8 39.8-8 79.8-5.9 8.8-11.7 18.4-11.7 18.4l33.9 46.8s-5.5 8.2-11.2 14.9c-15.5 18.1-24.1 31.2-24.1 31.2 5.8 9 15.4 18.6 21.3 29.4a92 92 0 0 1 12.8 35.7c2.7 23.5-12.5 48.6-38.7 49.2-25.4.2-44.7-21-44.2-47.5a72.5 72.5 0 0 1 11.1-33.5c6.1-10.8 20.4-32 20.4-32l-32.8-47.7 34.7-46.3s-25.2-30.9-33-53.1c-6.2-25.3 5.5-39.7 7.1-42a39.4 39.4 0 0 1 31.6-16.9zm-21.5 67a92 92 0 0 0 22.5 32.2c8.6-10 18.2-23.2 23.5-35.8 25.3-60.8-72.6-65.7-46 3.6zm22.2 26.3c-12.4-14.5-21.2-26.5-22-45.6-1.4-37.7 48-33.5 45.5.3-2.8 18.4-12.4 30-23.5 45.3zm611.6-59.4c1 5.3 6.2 14.3 5.7 16.5-2.4 5.5-5.9 8.3-10.7 17.5-1 2-.6 2.3-3.3 1.9-2.6-.4-7.1-1.8-9.5-2.5-1.4-.4-3-1.2-2.3-3 4.6-10.7 9.9-23.5 20.1-30.4zm-81.8 16.3-5.8 15c-.5 1.6-.6 2-2.3 1.6-3.3-.5-6.2-.7-9.5-.5-7.2-.9 6.4-27.8 8.4-31.8 3 .5 7.3 12 9.2 15.7zm5.5 3.4h.4c3 .4 7.3 2 10.6 3.4 1.8.8 1.9.8 1 3-1.6 3.4-3.6 13-5.8 16.3-.1.5-10.3-6-13.2-7.3-.1-1.8 3.2-14.9 7-15.4zm86.5 1.8c3.3.1 7.5 3.2 9.8 5 1 2 0 4.2-3.7 10.7-3.3 5.7-6.8 11.9-7.6 11.2-2.5-2-7.2-4.5-9.5-7.7-1.7-2.4 1.6-8.4 3.8-11.7 3.5-5.3 5.2-7.2 7.2-7.5zm-55-.7c3.1.7-1.8 16.7-2.8 18.7-3 4.4-7.5 10.2-11.2 12.6-1.8 1.2-7.6-2.3-7.4-6.3a120 120 0 0 1 7.3-21 51 51 0 0 1 14-4zm-127.2 6 2 .1a36.5 36.5 0 0 1 32.8 19.2c3.8 6.4 3.8 6.7 3 12.6-2 14-1.4 23.5 2.3 32 4.3 9.9 3.6 13.2-6.7 35a1207.8 1207.8 0 0 0-32.4 73.3 262.6 262.6 0 0 0-10.5 32.5c-1.6 6.1-9.2 4.3-16.7 4-3.8.8 5.5-24.9 19.4-55.6 11-24.6 26.1-52.4 32.1-79.9 5-22.4 3.3-31.7.7-41.1-10.4-27.4-46.5-20.7-46.4 4.6.8 16.3 19.7 25.1 26.7 9 1.1-7.3-2.5-3-5.6.5-6.5 7.7-17.7-.8-16-12.1a17.4 17.4 0 0 1 30.9-8c10.2 12.9 8 26.1-6.8 36.1-15.1 11.1-28.9 4.8-36.4-6.7-16.2-26 5.9-54.7 27.6-55.4zm74.8 11c15 .3 31.3 12.9 34 22.8 1.4 6.8-.8 14.8 1.6 21.3 2 5.2 4 8.2 2.5 12.9-12.3 39.8-41.5 82.2-56 129.3-1.6 3.3-3.1 3.7-6.9 4.8-5.7 1.6-8 1.4-8.6-1.6-.6-2.8 1.4-8.3 4.7-18.5a357 357 0 0 1 18.2-43c12.2-22.8 19-38.5 27.9-58 1.6-3.8 2.1-6 4.7-11.2 11.2-22.6-1.5-45-24.6-45-18.3-.1-26.5 28.5-10.4 37 15.6 8.1 27.3-13.4 13.4-21-3.4-1.9-4.2-.1-1.5 3.1 6.2 7.5.6 17.5-8 13.5-13.4-6.2-6.5-29 9-27.6 24.2 2 27.3 37 2.8 46-33.8 12.1-51.6-42.3-19.8-60.6 5.3-3 11.2-4.3 17-4.2zm71.2 1a36 36 0 0 1 25.9 10.4c18.9 18.1 13.9 46.1-18 100.3a364.3 364.3 0 0 0-26.3 55.9c-1.4 4-2.5 6-5.7 7.7-5.5 3-11.8 3.4-12.6 1.3-2-5.5 13.7-39.8 42-93.5 7.3-14.3 16.7-31 16.2-48-1.9-13.5-13.1-23.3-28.2-18.8-10.1 3-14.3 17.2-6.8 24.5 3.1 3 7 4.5 9.4 4.3 4.7.1 10-4.5 1-5-9.6 0-12.9-12-4.8-17.5 11.6-7.8 25 1.4 24 16.6-2 30.5-46.5 26-47.6-5.5-.8-19.4 14.5-32.2 31.5-32.6zm-125.9 49c6.8-.6-4.8 35.7-25 76.3-11 22.6-19.5 46.8-28 70.4-2.4 3.1-16.3 3.7-16.3.4 24.7-79.3 42.2-93 50.7-123.1 1.5-5.2 2.5-12.8 2.7-13.4 6.3-1.8 11.6-9.3 16-10.7zm-458 5.3L1391 1564l25.6 36.4 26.6-34.8zm567.7 10.5c0 4.1-8 23.8-13.8 35.7-25.7 51.8-32 65.8-36.5 79.6-.8 2.5-2 4.1-3.7 4.7-3.2 1.2-12.1 3-12.8 1.7 5.4-30.3 47-99.2 55-129.4 3.3-.1 11.5 4.8 11.8 7.7zm20.5-3.1c1.8-.2 2.5.5 2 2.9-.8 3.7-5.3 12.6-13.1 27.9-21.7 42.5-33 67.7-36.6 80.7-.9 3-1.4 5.4-2.8 6.1-3 1.6-13.4 5.8-14 1.3 3.3-19.2 16-31.7 48.7-111.9 1.6-2.6 3-3.9 4.4-4.1 4-.7 7.5-2.6 11.4-3zm-88.7 13.1c-.8 5-6.5 15.3-15.9 34.5a490.4 490.4 0 0 0-31.8 76.6c-1 3.5-2.4 7-3.7 8-2.5 1.7-13.9 1.2-13.9 1.2-1.7-8.7 12-41.2 27.3-75.3 8.3-18.6 18-37.1 24.4-53.8 4.4.7 13 5 13.6 8.8zm23.1-8.2c4.7 0 1 7.7-10 29.7-9 17.7-23.4 42.7-32.6 71.3a380 380 0 0 0-6.3 17.4c-1.4 4.3-2.7 6.4-4.4 7.3-3.3 1.6-11.4 1.5-12.9-.2-2.2-2.8 9.8-35 21.4-59.8 10.3-20.8 17.6-37.5 26.5-56.7 2.4-3.8 2.5-4 5-4.6 5.1-.4 10.4-3.8 13.3-4.4zm-522.2 4.2 13.5 18-15.9 19.7-13.2-19.2zm-2 77.9s-5.8 6.6-11.7 17c-17.2 28.7-17.7 50 2.6 62.5a24.8 24.8 0 0 0 26.9-2.7c23-20.1 5.9-47.7-9-66.5-4-5.5-8.9-10.3-8.9-10.3zm.8 7.3c8.6 10.2 15 17.8 20.7 30.7 6.6 17.2 2.4 30.7-10.5 37-20.2 10.1-38.6-12.5-29-36.5a120.8 120.8 0 0 1 18.8-31.2zm567 34c2 3.6-192.7 48.6-336.3 10l-87.4 126.4 504.5-.8zm-7.3 9 69.9 120.9h-32.3l-46.1-98.7c-24.7 6.9-49 11.8-73.7 15l16.4 83.7h-24.2l-13.7-80c-35.3 2.7-71.3 3.7-108 2.7l-15.9 77.3h-25.3l16.2-76.8c-27.9-3.7-55.6-7.3-84-12l-47.5 88.8h-35.8l74.6-111.4c111.4 22.4 214 17.1 329.4-9.5zm-17.6 43.5 36.5 77.4H1926l-12.8-69zm-296.5 5.7 60.5 7.8-15.6 63.9h-81.8zm197.6 9.5 8.3 62.2h-104.3l11.6-61z" style="fill:#000;stroke-width:3.18132639" transform="matrix(.16455 0 0 .151 -188 740.7)"/></g></g></g></g></svg>